%TF.GenerationSoftware,KiCad,Pcbnew,9.0.2*%
%TF.CreationDate,2025-06-29T15:48:11+02:00*%
%TF.ProjectId,adirs,61646972-732e-46b6-9963-61645f706362,rev?*%
%TF.SameCoordinates,Original*%
%TF.FileFunction,Copper,L1,Top*%
%TF.FilePolarity,Positive*%
%FSLAX46Y46*%
G04 Gerber Fmt 4.6, Leading zero omitted, Abs format (unit mm)*
G04 Created by KiCad (PCBNEW 9.0.2) date 2025-06-29 15:48:11*
%MOMM*%
%LPD*%
G01*
G04 APERTURE LIST*
G04 Aperture macros list*
%AMRoundRect*
0 Rectangle with rounded corners*
0 $1 Rounding radius*
0 $2 $3 $4 $5 $6 $7 $8 $9 X,Y pos of 4 corners*
0 Add a 4 corners polygon primitive as box body*
4,1,4,$2,$3,$4,$5,$6,$7,$8,$9,$2,$3,0*
0 Add four circle primitives for the rounded corners*
1,1,$1+$1,$2,$3*
1,1,$1+$1,$4,$5*
1,1,$1+$1,$6,$7*
1,1,$1+$1,$8,$9*
0 Add four rect primitives between the rounded corners*
20,1,$1+$1,$2,$3,$4,$5,0*
20,1,$1+$1,$4,$5,$6,$7,0*
20,1,$1+$1,$6,$7,$8,$9,0*
20,1,$1+$1,$8,$9,$2,$3,0*%
G04 Aperture macros list end*
%TA.AperFunction,ComponentPad*%
%ADD10R,1.700000X1.700000*%
%TD*%
%TA.AperFunction,ComponentPad*%
%ADD11C,1.700000*%
%TD*%
%TA.AperFunction,ComponentPad*%
%ADD12R,3.000000X3.000000*%
%TD*%
%TA.AperFunction,ComponentPad*%
%ADD13C,3.000000*%
%TD*%
%TA.AperFunction,ComponentPad*%
%ADD14R,1.500000X1.500000*%
%TD*%
%TA.AperFunction,SMDPad,CuDef*%
%ADD15RoundRect,0.165000X-0.385000X-0.885000X0.385000X-0.885000X0.385000X0.885000X-0.385000X0.885000X0*%
%TD*%
%TA.AperFunction,SMDPad,CuDef*%
%ADD16RoundRect,0.315000X-0.735000X-0.735000X0.735000X-0.735000X0.735000X0.735000X-0.735000X0.735000X0*%
%TD*%
%TA.AperFunction,SMDPad,CuDef*%
%ADD17RoundRect,0.250000X-0.400000X-0.625000X0.400000X-0.625000X0.400000X0.625000X-0.400000X0.625000X0*%
%TD*%
%TA.AperFunction,ViaPad*%
%ADD18C,0.600000*%
%TD*%
%TA.AperFunction,Conductor*%
%ADD19C,0.400000*%
%TD*%
%TA.AperFunction,Conductor*%
%ADD20C,0.600000*%
%TD*%
G04 APERTURE END LIST*
D10*
%TO.P,J2,1,Pin_1*%
%TO.N,Net-(J2-Pin_1)*%
X269825000Y-28475000D03*
D11*
%TO.P,J2,2,Pin_2*%
%TO.N,Net-(J2-Pin_2)*%
X269825000Y-25935000D03*
%TO.P,J2,3,Pin_3*%
%TO.N,Net-(J2-Pin_3)*%
X267285000Y-28475000D03*
%TO.P,J2,4,Pin_4*%
%TO.N,Net-(J2-Pin_4)*%
X267285000Y-25935000D03*
%TO.P,J2,5,Pin_5*%
%TO.N,Net-(J2-Pin_5)*%
X264745000Y-28475000D03*
%TO.P,J2,6,Pin_6*%
%TO.N,Net-(J2-Pin_6)*%
X264745000Y-25935000D03*
%TO.P,J2,7,Pin_7*%
%TO.N,Net-(J2-Pin_7)*%
X262205000Y-28475000D03*
%TO.P,J2,8,Pin_8*%
%TO.N,Net-(J2-Pin_8)*%
X262205000Y-25935000D03*
%TO.P,J2,9,Pin_9*%
%TO.N,Net-(J2-Pin_9)*%
X259665000Y-28475000D03*
%TO.P,J2,10,Pin_10*%
%TO.N,Net-(J2-Pin_10)*%
X259665000Y-25935000D03*
%TO.P,J2,11,Pin_11*%
%TO.N,Net-(J2-Pin_11)*%
X257125000Y-28475000D03*
%TO.P,J2,12,Pin_12*%
%TO.N,Net-(J2-Pin_12)*%
X257125000Y-25935000D03*
%TO.P,J2,13,Pin_13*%
%TO.N,Net-(J2-Pin_13)*%
X254585000Y-28475000D03*
%TO.P,J2,14,Pin_14*%
%TO.N,Net-(J2-Pin_14)*%
X254585000Y-25935000D03*
%TO.P,J2,15,Pin_15*%
%TO.N,Net-(J2-Pin_15)*%
X252045000Y-28475000D03*
%TO.P,J2,16,Pin_16*%
%TO.N,Net-(J2-Pin_16)*%
X252045000Y-25935000D03*
%TO.P,J2,17,Pin_17*%
%TO.N,Net-(J2-Pin_17)*%
X249505000Y-28475000D03*
%TO.P,J2,18,Pin_18*%
%TO.N,Net-(J2-Pin_18)*%
X249505000Y-25935000D03*
%TO.P,J2,19,Pin_19*%
%TO.N,Net-(J2-Pin_19)*%
X246965000Y-28475000D03*
%TO.P,J2,20,Pin_20*%
%TO.N,Net-(J2-Pin_20)*%
X246965000Y-25935000D03*
%TO.P,J2,21,Pin_21*%
%TO.N,Net-(J2-Pin_21)*%
X244425000Y-28475000D03*
%TO.P,J2,22,Pin_22*%
%TO.N,Net-(J2-Pin_22)*%
X244425000Y-25935000D03*
%TO.P,J2,23,Pin_23*%
%TO.N,Net-(J2-Pin_23)*%
X241885000Y-28475000D03*
%TO.P,J2,24,Pin_24*%
%TO.N,Net-(J2-Pin_24)*%
X241885000Y-25935000D03*
%TO.P,J2,25,Pin_25*%
%TO.N,Net-(J2-Pin_25)*%
X239345000Y-28475000D03*
%TO.P,J2,26,Pin_26*%
%TO.N,Net-(J2-Pin_26)*%
X239345000Y-25935000D03*
%TO.P,J2,27,Pin_27*%
%TO.N,Net-(J2-Pin_27)*%
X236805000Y-28475000D03*
%TO.P,J2,28,Pin_28*%
%TO.N,Net-(J2-Pin_28)*%
X236805000Y-25935000D03*
%TO.P,J2,29,Pin_29*%
%TO.N,unconnected-(J2-Pin_29-Pad29)*%
X234265000Y-28475000D03*
%TO.P,J2,30,Pin_30*%
%TO.N,unconnected-(J2-Pin_30-Pad30)*%
X234265000Y-25935000D03*
%TO.P,J2,31,Pin_31*%
%TO.N,unconnected-(J2-Pin_31-Pad31)*%
X231725000Y-28475000D03*
%TO.P,J2,32,Pin_32*%
%TO.N,unconnected-(J2-Pin_32-Pad32)*%
X231725000Y-25935000D03*
%TO.P,J2,33,Pin_33*%
%TO.N,unconnected-(J2-Pin_33-Pad33)*%
X229185000Y-28475000D03*
%TO.P,J2,34,Pin_34*%
%TO.N,unconnected-(J2-Pin_34-Pad34)*%
X229185000Y-25935000D03*
%TO.P,J2,35,Pin_35*%
%TO.N,unconnected-(J2-Pin_35-Pad35)*%
X226645000Y-28475000D03*
%TO.P,J2,36,Pin_36*%
%TO.N,unconnected-(J2-Pin_36-Pad36)*%
X226645000Y-25935000D03*
%TO.P,J2,37,Pin_37*%
%TO.N,unconnected-(J2-Pin_37-Pad37)*%
X224105000Y-28475000D03*
%TO.P,J2,38,Pin_38*%
%TO.N,unconnected-(J2-Pin_38-Pad38)*%
X224105000Y-25935000D03*
%TO.P,J2,39,Pin_39*%
%TO.N,unconnected-(J2-Pin_39-Pad39)*%
X221565000Y-28475000D03*
%TO.P,J2,40,Pin_40*%
%TO.N,unconnected-(J2-Pin_40-Pad40)*%
X221565000Y-25935000D03*
%TD*%
D12*
%TO.P,J7,1,Pin_1*%
%TO.N,GND*%
X182390000Y-150400000D03*
D13*
%TO.P,J7,2,Pin_2*%
%TO.N,+12V*%
X177310000Y-150400000D03*
%TD*%
D14*
%TO.P,KR3,1,+5V_TOP_LED*%
%TO.N,Net-(J2-Pin_4)*%
X255250000Y-60150000D03*
%TO.P,KR3,2,GND_TOP_LED*%
%TO.N,GND*%
X255250000Y-62690000D03*
%TO.P,KR3,3,+5V_BOTTOM_LED*%
%TO.N,Net-(J2-Pin_5)*%
X255250000Y-65230000D03*
%TO.P,KR3,4,GND_BOTTOM_LED*%
%TO.N,GND*%
X255250000Y-67770000D03*
%TO.P,KR3,5,SW_IN*%
%TO.N,Net-(J2-Pin_6)*%
X239550000Y-64650000D03*
%TO.P,KR3,6,SW_OUT*%
%TO.N,GND*%
X239550000Y-67190000D03*
%TD*%
D15*
%TO.P,D35,1,K*%
%TO.N,Net-(D35-K)*%
X231200000Y-149600000D03*
D16*
%TO.P,D35,2,A*%
%TO.N,Net-(D34-K)*%
X233350000Y-149600000D03*
%TD*%
D15*
%TO.P,D29,1,K*%
%TO.N,Net-(D29-K)*%
X216560000Y-134800000D03*
D16*
%TO.P,D29,2,A*%
%TO.N,Net-(D28-K)*%
X218710000Y-134800000D03*
%TD*%
D15*
%TO.P,D33,1,K*%
%TO.N,Net-(D33-K)*%
X230360000Y-134700000D03*
D16*
%TO.P,D33,2,A*%
%TO.N,Net-(D32-K)*%
X232510000Y-134700000D03*
%TD*%
D17*
%TO.P,R14,1*%
%TO.N,Net-(D39-K)*%
X223150000Y-33375000D03*
%TO.P,R14,2*%
%TO.N,GND*%
X226250000Y-33375000D03*
%TD*%
%TO.P,R7,1*%
%TO.N,Net-(D21-K)*%
X137050000Y-126600000D03*
%TO.P,R7,2*%
%TO.N,GND*%
X140150000Y-126600000D03*
%TD*%
D15*
%TO.P,D3,1,K*%
%TO.N,Net-(D3-K)*%
X162750000Y-82000000D03*
D16*
%TO.P,D3,2,A*%
%TO.N,Net-(D2-K)*%
X164900000Y-82000000D03*
%TD*%
D15*
%TO.P,D22,1,K*%
%TO.N,Net-(D22-K)*%
X171060000Y-136200000D03*
D16*
%TO.P,D22,2,A*%
%TO.N,+12V*%
X173210000Y-136200000D03*
%TD*%
D15*
%TO.P,D19,1,K*%
%TO.N,Net-(D19-K)*%
X143150000Y-121200000D03*
D16*
%TO.P,D19,2,A*%
%TO.N,+12V*%
X145300000Y-121200000D03*
%TD*%
D15*
%TO.P,D13,1,K*%
%TO.N,Net-(D13-K)*%
X232220000Y-51200000D03*
D16*
%TO.P,D13,2,A*%
%TO.N,+12V*%
X234370000Y-51200000D03*
%TD*%
D15*
%TO.P,D16,1,K*%
%TO.N,Net-(D16-K)*%
X261020000Y-66600000D03*
D16*
%TO.P,D16,2,A*%
%TO.N,+12V*%
X263170000Y-66600000D03*
%TD*%
D17*
%TO.P,R8,1*%
%TO.N,Net-(D24-K)*%
X178050000Y-142100000D03*
%TO.P,R8,2*%
%TO.N,GND*%
X181150000Y-142100000D03*
%TD*%
D15*
%TO.P,D8,1,K*%
%TO.N,Net-(D8-K)*%
X213200000Y-51400000D03*
D16*
%TO.P,D8,2,A*%
%TO.N,Net-(D7-K)*%
X215350000Y-51400000D03*
%TD*%
D14*
%TO.P,KR5,1,+5V_TOP_LED*%
%TO.N,Net-(J2-Pin_7)*%
X209950000Y-130250000D03*
%TO.P,KR5,2,GND_TOP_LED*%
%TO.N,GND*%
X209950000Y-132790000D03*
%TO.P,KR5,3,+5V_BOTTOM_LED*%
%TO.N,Net-(J2-Pin_8)*%
X209950000Y-135330000D03*
%TO.P,KR5,4,GND_BOTTOM_LED*%
%TO.N,GND*%
X209950000Y-137870000D03*
%TO.P,KR5,5,SW_IN*%
%TO.N,Net-(J2-Pin_9)*%
X194250000Y-134750000D03*
%TO.P,KR5,6,SW_OUT*%
%TO.N,GND*%
X194250000Y-137290000D03*
%TD*%
D15*
%TO.P,D25,1,K*%
%TO.N,Net-(D25-K)*%
X186860000Y-121600000D03*
D16*
%TO.P,D25,2,A*%
%TO.N,+12V*%
X189010000Y-121600000D03*
%TD*%
D15*
%TO.P,D21,1,K*%
%TO.N,Net-(D21-K)*%
X140160000Y-136700000D03*
D16*
%TO.P,D21,2,A*%
%TO.N,Net-(D20-K)*%
X142310000Y-136700000D03*
%TD*%
D15*
%TO.P,D10,1,K*%
%TO.N,Net-(D10-K)*%
X215720000Y-66300000D03*
D16*
%TO.P,D10,2,A*%
%TO.N,+12V*%
X217870000Y-66300000D03*
%TD*%
D15*
%TO.P,D32,1,K*%
%TO.N,Net-(D32-K)*%
X261000000Y-121500000D03*
D16*
%TO.P,D32,2,A*%
%TO.N,Net-(D31-K)*%
X263150000Y-121500000D03*
%TD*%
D17*
%TO.P,R10,1*%
%TO.N,Net-(D30-K)*%
X223100000Y-142400000D03*
%TO.P,R10,2*%
%TO.N,GND*%
X226200000Y-142400000D03*
%TD*%
D15*
%TO.P,D12,1,K*%
%TO.N,Net-(D12-K)*%
X208060000Y-82200000D03*
D16*
%TO.P,D12,2,A*%
%TO.N,Net-(D11-K)*%
X210210000Y-82200000D03*
%TD*%
D14*
%TO.P,KR6,1,+5V_TOP_LED*%
%TO.N,Net-(J2-Pin_16)*%
X255150000Y-130050000D03*
%TO.P,KR6,2,GND_TOP_LED*%
%TO.N,GND*%
X255150000Y-132590000D03*
%TO.P,KR6,3,+5V_BOTTOM_LED*%
%TO.N,Net-(J2-Pin_17)*%
X255150000Y-135130000D03*
%TO.P,KR6,4,GND_BOTTOM_LED*%
%TO.N,GND*%
X255150000Y-137670000D03*
%TO.P,KR6,5,SW_IN*%
%TO.N,Net-(J2-Pin_18)*%
X239450000Y-134550000D03*
%TO.P,KR6,6,SW_OUT*%
%TO.N,GND*%
X239450000Y-137090000D03*
%TD*%
D10*
%TO.P,J6,1,Pin_1*%
%TO.N,GND*%
X198590000Y-101150000D03*
D11*
%TO.P,J6,2,Pin_2*%
%TO.N,Net-(J2-Pin_26)*%
X201130000Y-101150000D03*
%TO.P,J6,3,Pin_3*%
%TO.N,Net-(J2-Pin_27)*%
X203670000Y-101150000D03*
%TO.P,J6,4,Pin_4*%
%TO.N,Net-(J2-Pin_28)*%
X206210000Y-101150000D03*
%TD*%
D15*
%TO.P,D9,1,K*%
%TO.N,Net-(D9-K)*%
X182685000Y-66100000D03*
D16*
%TO.P,D9,2,A*%
%TO.N,Net-(D8-K)*%
X184835000Y-66100000D03*
%TD*%
D15*
%TO.P,D30,1,K*%
%TO.N,Net-(D30-K)*%
X212500000Y-150600000D03*
D16*
%TO.P,D30,2,A*%
%TO.N,Net-(D29-K)*%
X214650000Y-150600000D03*
%TD*%
D15*
%TO.P,D14,1,K*%
%TO.N,Net-(D14-K)*%
X258085000Y-51000000D03*
D16*
%TO.P,D14,2,A*%
%TO.N,Net-(D13-K)*%
X260235000Y-51000000D03*
%TD*%
D17*
%TO.P,R12,1*%
%TO.N,Net-(D36-K)*%
X266350000Y-127300000D03*
%TO.P,R12,2*%
%TO.N,GND*%
X269450000Y-127300000D03*
%TD*%
%TO.P,R4,1*%
%TO.N,Net-(D12-K)*%
X216450000Y-80100000D03*
%TO.P,R4,2*%
%TO.N,GND*%
X219550000Y-80100000D03*
%TD*%
%TO.P,R2,1*%
%TO.N,Net-(D6-K)*%
X171650000Y-92400000D03*
%TO.P,R2,2*%
%TO.N,GND*%
X174750000Y-92400000D03*
%TD*%
D10*
%TO.P,J4,1,Pin_1*%
%TO.N,GND*%
X153020000Y-101300000D03*
D11*
%TO.P,J4,2,Pin_2*%
%TO.N,Net-(J2-Pin_20)*%
X155560000Y-101300000D03*
%TO.P,J4,3,Pin_3*%
%TO.N,Net-(J2-Pin_21)*%
X158100000Y-101300000D03*
%TO.P,J4,4,Pin_4*%
%TO.N,Net-(J2-Pin_22)*%
X160640000Y-101300000D03*
%TD*%
D14*
%TO.P,KR4,1,+5V_TOP_LED*%
%TO.N,Net-(J2-Pin_13)*%
X164800000Y-130200000D03*
%TO.P,KR4,2,GND_TOP_LED*%
%TO.N,GND*%
X164800000Y-132740000D03*
%TO.P,KR4,3,+5V_BOTTOM_LED*%
%TO.N,Net-(J2-Pin_14)*%
X164800000Y-135280000D03*
%TO.P,KR4,4,GND_BOTTOM_LED*%
%TO.N,GND*%
X164800000Y-137820000D03*
%TO.P,KR4,5,SW_IN*%
%TO.N,Net-(J2-Pin_15)*%
X149100000Y-134700000D03*
%TO.P,KR4,6,SW_OUT*%
%TO.N,GND*%
X149100000Y-137240000D03*
%TD*%
D15*
%TO.P,D15,1,K*%
%TO.N,Net-(D15-K)*%
X228420000Y-66100000D03*
D16*
%TO.P,D15,2,A*%
%TO.N,Net-(D14-K)*%
X230570000Y-66100000D03*
%TD*%
D15*
%TO.P,D5,1,K*%
%TO.N,Net-(D5-K)*%
X170685000Y-66000000D03*
D16*
%TO.P,D5,2,A*%
%TO.N,Net-(D4-K)*%
X172835000Y-66000000D03*
%TD*%
D10*
%TO.P,J5,1,Pin_1*%
%TO.N,GND*%
X244090000Y-101150000D03*
D11*
%TO.P,J5,2,Pin_2*%
%TO.N,Net-(J2-Pin_23)*%
X246630000Y-101150000D03*
%TO.P,J5,3,Pin_3*%
%TO.N,Net-(J2-Pin_24)*%
X249170000Y-101150000D03*
%TO.P,J5,4,Pin_4*%
%TO.N,Net-(J2-Pin_25)*%
X251710000Y-101150000D03*
%TD*%
D15*
%TO.P,D23,1,K*%
%TO.N,Net-(D23-K)*%
X142150000Y-150200000D03*
D16*
%TO.P,D23,2,A*%
%TO.N,Net-(D22-K)*%
X144300000Y-150200000D03*
%TD*%
D15*
%TO.P,D17,1,K*%
%TO.N,Net-(D17-K)*%
X233620000Y-82600000D03*
D16*
%TO.P,D17,2,A*%
%TO.N,Net-(D16-K)*%
X235770000Y-82600000D03*
%TD*%
D17*
%TO.P,R3,1*%
%TO.N,Net-(D9-K)*%
X182450000Y-75300000D03*
%TO.P,R3,2*%
%TO.N,GND*%
X185550000Y-75300000D03*
%TD*%
%TO.P,R11,1*%
%TO.N,Net-(D33-K)*%
X222650000Y-127300000D03*
%TO.P,R11,2*%
%TO.N,GND*%
X225750000Y-127300000D03*
%TD*%
%TO.P,R15,1*%
%TO.N,Net-(D40-K)*%
X227050000Y-39300000D03*
%TO.P,R15,2*%
%TO.N,GND*%
X230150000Y-39300000D03*
%TD*%
%TO.P,R5,1*%
%TO.N,Net-(D15-K)*%
X225350000Y-80000000D03*
%TO.P,R5,2*%
%TO.N,GND*%
X228450000Y-80000000D03*
%TD*%
D15*
%TO.P,D40,1,K*%
%TO.N,Net-(D40-K)*%
X218350000Y-39200000D03*
D16*
%TO.P,D40,2,A*%
%TO.N,+12V*%
X220500000Y-39200000D03*
%TD*%
D15*
%TO.P,D2,1,K*%
%TO.N,Net-(D2-K)*%
X167985000Y-51400000D03*
D16*
%TO.P,D2,2,A*%
%TO.N,Net-(D1-K)*%
X170135000Y-51400000D03*
%TD*%
D15*
%TO.P,D39,1,K*%
%TO.N,Net-(D39-K)*%
X213350000Y-27500000D03*
D16*
%TO.P,D39,2,A*%
%TO.N,Net-(D38-K)*%
X215500000Y-27500000D03*
%TD*%
D15*
%TO.P,D1,1,K*%
%TO.N,Net-(D1-K)*%
X141860000Y-51500000D03*
D16*
%TO.P,D1,2,A*%
%TO.N,+12V*%
X144010000Y-51500000D03*
%TD*%
D15*
%TO.P,D37,1,K*%
%TO.N,Net-(D37-K)*%
X189060000Y-27600000D03*
D16*
%TO.P,D37,2,A*%
%TO.N,+12V*%
X191210000Y-27600000D03*
%TD*%
D10*
%TO.P,J3,1,Pin_1*%
%TO.N,Net-(J3-Pin_1)*%
X204375000Y-38500000D03*
D11*
%TO.P,J3,2,Pin_2*%
%TO.N,Net-(J2-Pin_19)*%
X201835000Y-38500000D03*
%TD*%
D17*
%TO.P,R13,1*%
%TO.N,GND*%
X177650000Y-42900000D03*
%TO.P,R13,2*%
%TO.N,Net-(J3-Pin_1)*%
X180750000Y-42900000D03*
%TD*%
D15*
%TO.P,D34,1,K*%
%TO.N,Net-(D34-K)*%
X261760000Y-134900000D03*
D16*
%TO.P,D34,2,A*%
%TO.N,+12V*%
X263910000Y-134900000D03*
%TD*%
D14*
%TO.P,KR1,1,+5V_TOP_LED*%
%TO.N,Net-(J2-Pin_1)*%
X164800000Y-60200000D03*
%TO.P,KR1,2,GND_TOP_LED*%
%TO.N,GND*%
X164800000Y-62740000D03*
%TO.P,KR1,3,+5V_BOTTOM_LED*%
%TO.N,Net-(J2-Pin_2)*%
X164800000Y-65280000D03*
%TO.P,KR1,4,GND_BOTTOM_LED*%
%TO.N,GND*%
X164800000Y-67820000D03*
%TO.P,KR1,5,SW_IN*%
%TO.N,Net-(J2-Pin_3)*%
X149100000Y-64700000D03*
%TO.P,KR1,6,SW_OUT*%
%TO.N,GND*%
X149100000Y-67240000D03*
%TD*%
D17*
%TO.P,R9,1*%
%TO.N,Net-(D27-K)*%
X178050000Y-126800000D03*
%TO.P,R9,2*%
%TO.N,GND*%
X181150000Y-126800000D03*
%TD*%
%TO.P,R1,1*%
%TO.N,Net-(D3-K)*%
X171650000Y-80900000D03*
%TO.P,R1,2*%
%TO.N,GND*%
X174750000Y-80900000D03*
%TD*%
D15*
%TO.P,D24,1,K*%
%TO.N,Net-(D24-K)*%
X169060000Y-150400000D03*
D16*
%TO.P,D24,2,A*%
%TO.N,Net-(D23-K)*%
X171210000Y-150400000D03*
%TD*%
D15*
%TO.P,D26,1,K*%
%TO.N,Net-(D26-K)*%
X215460000Y-121700000D03*
D16*
%TO.P,D26,2,A*%
%TO.N,Net-(D25-K)*%
X217610000Y-121700000D03*
%TD*%
D15*
%TO.P,D7,1,K*%
%TO.N,Net-(D7-K)*%
X189150000Y-51200000D03*
D16*
%TO.P,D7,2,A*%
%TO.N,+12V*%
X191300000Y-51200000D03*
%TD*%
D15*
%TO.P,D4,1,K*%
%TO.N,Net-(D4-K)*%
X138385000Y-66300000D03*
D16*
%TO.P,D4,2,A*%
%TO.N,+12V*%
X140535000Y-66300000D03*
%TD*%
D15*
%TO.P,D11,1,K*%
%TO.N,Net-(D11-K)*%
X189820000Y-82700000D03*
D16*
%TO.P,D11,2,A*%
%TO.N,Net-(D10-K)*%
X191970000Y-82700000D03*
%TD*%
D15*
%TO.P,D36,1,K*%
%TO.N,Net-(D36-K)*%
X260720000Y-149600000D03*
D16*
%TO.P,D36,2,A*%
%TO.N,Net-(D35-K)*%
X262870000Y-149600000D03*
%TD*%
D15*
%TO.P,D20,1,K*%
%TO.N,Net-(D20-K)*%
X167800000Y-121100000D03*
D16*
%TO.P,D20,2,A*%
%TO.N,Net-(D19-K)*%
X169950000Y-121100000D03*
%TD*%
D17*
%TO.P,R6,1*%
%TO.N,Net-(D18-K)*%
X262600000Y-80300000D03*
%TO.P,R6,2*%
%TO.N,GND*%
X265700000Y-80300000D03*
%TD*%
D15*
%TO.P,D27,1,K*%
%TO.N,Net-(D27-K)*%
X185250000Y-136200000D03*
D16*
%TO.P,D27,2,A*%
%TO.N,Net-(D26-K)*%
X187400000Y-136200000D03*
%TD*%
D15*
%TO.P,D31,1,K*%
%TO.N,Net-(D31-K)*%
X231960000Y-121500000D03*
D16*
%TO.P,D31,2,A*%
%TO.N,+12V*%
X234110000Y-121500000D03*
%TD*%
D15*
%TO.P,D38,1,K*%
%TO.N,Net-(D38-K)*%
X184050000Y-38700000D03*
D16*
%TO.P,D38,2,A*%
%TO.N,Net-(D37-K)*%
X186200000Y-38700000D03*
%TD*%
D15*
%TO.P,D28,1,K*%
%TO.N,Net-(D28-K)*%
X189050000Y-150500000D03*
D16*
%TO.P,D28,2,A*%
%TO.N,+12V*%
X191200000Y-150500000D03*
%TD*%
D15*
%TO.P,D18,1,K*%
%TO.N,Net-(D18-K)*%
X253160000Y-81900000D03*
D16*
%TO.P,D18,2,A*%
%TO.N,Net-(D17-K)*%
X255310000Y-81900000D03*
%TD*%
D14*
%TO.P,KR2,1,+5V_TOP_LED*%
%TO.N,Net-(J2-Pin_10)*%
X210150000Y-60050000D03*
%TO.P,KR2,2,GND_TOP_LED*%
%TO.N,GND*%
X210150000Y-62590000D03*
%TO.P,KR2,3,+5V_BOTTOM_LED*%
%TO.N,Net-(J2-Pin_11)*%
X210150000Y-65130000D03*
%TO.P,KR2,4,GND_BOTTOM_LED*%
%TO.N,GND*%
X210150000Y-67670000D03*
%TO.P,KR2,5,SW_IN*%
%TO.N,Net-(J2-Pin_12)*%
X194450000Y-64550000D03*
%TO.P,KR2,6,SW_OUT*%
%TO.N,GND*%
X194450000Y-67090000D03*
%TD*%
D15*
%TO.P,D6,1,K*%
%TO.N,Net-(D6-K)*%
X144085000Y-83000000D03*
D16*
%TO.P,D6,2,A*%
%TO.N,Net-(D5-K)*%
X146235000Y-83000000D03*
%TD*%
D12*
%TO.P,J1,1,Pin_1*%
%TO.N,GND*%
X143695000Y-25400000D03*
D13*
%TO.P,J1,2,Pin_2*%
%TO.N,+12V*%
X148775000Y-25400000D03*
%TD*%
D18*
%TO.N,Net-(J2-Pin_6)*%
X261300800Y-64078300D03*
%TO.N,Net-(J2-Pin_5)*%
X259138800Y-32427600D03*
%TO.N,Net-(J2-Pin_8)*%
X219880700Y-23870100D03*
%TO.N,Net-(J2-Pin_27)*%
X224966500Y-100147900D03*
%TO.N,Net-(J2-Pin_25)*%
X241261600Y-96384300D03*
%TO.N,Net-(J2-Pin_12)*%
X251400400Y-58300000D03*
%TO.N,Net-(J2-Pin_9)*%
X254463300Y-120264700D03*
%TO.N,Net-(J2-Pin_7)*%
X219880700Y-41962200D03*
%TO.N,Net-(J2-Pin_22)*%
X246222400Y-99382200D03*
%TO.N,Net-(J2-Pin_11)*%
X254451900Y-61420000D03*
%TO.N,Net-(J2-Pin_21)*%
X161468200Y-29485000D03*
%TO.N,Net-(J2-Pin_10)*%
X261187300Y-27335600D03*
X261444500Y-55340000D03*
%TO.N,Net-(J2-Pin_14)*%
X193211000Y-23789000D03*
%TO.N,Net-(J2-Pin_15)*%
X250350200Y-87900000D03*
X151531600Y-93820000D03*
%TO.N,Net-(J2-Pin_28)*%
X225806100Y-100578800D03*
%TO.N,Net-(J2-Pin_18)*%
X238420000Y-70140000D03*
X243585500Y-70140000D03*
X242530200Y-35184000D03*
X256496700Y-24591500D03*
%TO.N,Net-(J2-Pin_13)*%
X177261700Y-25587200D03*
%TO.N,Net-(J2-Pin_26)*%
X231733900Y-99738400D03*
%TO.N,Net-(J2-Pin_20)*%
X245281800Y-97422100D03*
%TO.N,Net-(J2-Pin_2)*%
X166505700Y-25704400D03*
%TO.N,GND*%
X145798200Y-129340000D03*
X258281200Y-78820000D03*
X182320200Y-126760800D03*
X165182000Y-46460000D03*
X165923400Y-78930600D03*
X239550000Y-79020000D03*
X235517400Y-39580900D03*
%TO.N,Net-(D36-K)*%
X261366900Y-147084400D03*
X261366900Y-126380000D03*
%TO.N,Net-(D29-K)*%
X210729300Y-150060000D03*
X213954100Y-135260000D03*
%TO.N,Net-(D27-K)*%
X181217000Y-138271300D03*
X179279900Y-126371400D03*
%TO.N,Net-(D26-K)*%
X196174300Y-122452700D03*
X192614700Y-135160000D03*
%TO.N,Net-(D20-K)*%
X152231900Y-131272700D03*
X152275800Y-122670400D03*
%TO.N,Net-(D14-K)*%
X234442800Y-65244600D03*
X237616200Y-51685900D03*
%TO.N,Net-(D2-K)*%
X166987100Y-81980000D03*
X166247000Y-52380000D03*
%TO.N,+12V*%
X175587000Y-137272900D03*
X145798200Y-55374300D03*
X237397900Y-65917100D03*
X236734100Y-51392900D03*
X237439400Y-135060000D03*
X237163900Y-120604800D03*
X152939400Y-62473000D03*
X220990800Y-64489300D03*
X219897600Y-37124400D03*
X197274300Y-27600000D03*
X193521900Y-52380000D03*
%TD*%
D19*
%TO.N,Net-(D40-K)*%
X226291500Y-40058500D02*
X227050000Y-39300000D01*
X222119900Y-40058500D02*
X226291500Y-40058500D01*
X222119900Y-40058600D02*
X222119900Y-40058500D01*
X221519800Y-40658700D02*
X222119900Y-40058600D01*
X219469500Y-40658700D02*
X221519800Y-40658700D01*
X218350000Y-39539200D02*
X219469500Y-40658700D01*
X218350000Y-39200000D02*
X218350000Y-39539200D01*
%TO.N,Net-(D39-K)*%
X213350000Y-27910800D02*
X213350000Y-27500000D01*
X218814200Y-33375000D02*
X213350000Y-27910800D01*
X223150000Y-33375000D02*
X218814200Y-33375000D01*
%TO.N,Net-(D38-K)*%
X214029000Y-26029000D02*
X215500000Y-27500000D01*
X188558700Y-26029000D02*
X214029000Y-26029000D01*
X184050000Y-30537700D02*
X188558700Y-26029000D01*
X184050000Y-38700000D02*
X184050000Y-30537700D01*
%TO.N,Net-(D37-K)*%
X186200000Y-30460000D02*
X189060000Y-27600000D01*
X186200000Y-38700000D02*
X186200000Y-30460000D01*
%TO.N,Net-(J2-Pin_6)*%
X239550000Y-64650000D02*
X240701700Y-64650000D01*
X241273400Y-64078300D02*
X261300800Y-64078300D01*
X240701700Y-64650000D02*
X241273400Y-64078300D01*
%TO.N,Net-(J2-Pin_5)*%
X260792400Y-32427600D02*
X259138800Y-32427600D01*
X264745000Y-28475000D02*
X260792400Y-32427600D01*
%TO.N,Net-(J2-Pin_8)*%
X219882200Y-23868600D02*
X219880700Y-23870100D01*
X240838800Y-23868600D02*
X219882200Y-23868600D01*
X240893400Y-23814000D02*
X240838800Y-23868600D01*
X240893400Y-23814000D02*
X240838800Y-23868600D01*
X260084000Y-23814000D02*
X240893400Y-23814000D01*
X262205000Y-25935000D02*
X260084000Y-23814000D01*
%TO.N,Net-(J2-Pin_27)*%
X204927000Y-99893000D02*
X203670000Y-101150000D01*
X224711600Y-99893000D02*
X204927000Y-99893000D01*
X224966500Y-100147900D02*
X224711600Y-99893000D01*
%TO.N,Net-(J2-Pin_25)*%
X246944300Y-96384300D02*
X241261600Y-96384300D01*
X251710000Y-101150000D02*
X246944300Y-96384300D01*
X241261600Y-96384300D02*
X241226800Y-96384300D01*
X241226800Y-96384300D02*
X241261600Y-96384300D01*
%TO.N,Net-(J2-Pin_12)*%
X198950000Y-61201700D02*
X195601700Y-64550000D01*
X248498700Y-61201700D02*
X198950000Y-61201700D01*
X251400400Y-58300000D02*
X248498700Y-61201700D01*
X194450000Y-64550000D02*
X195601700Y-64550000D01*
%TO.N,Net-(J2-Pin_9)*%
X194250000Y-134750000D02*
X195401700Y-134750000D01*
X206150800Y-124000900D02*
X195401700Y-134750000D01*
X235052300Y-124000900D02*
X206150800Y-124000900D01*
X238872600Y-120180600D02*
X235052300Y-124000900D01*
X254379200Y-120180600D02*
X238872600Y-120180600D01*
X254463300Y-120264700D02*
X254379200Y-120180600D01*
%TO.N,Net-(J2-Pin_7)*%
X222049500Y-41962200D02*
X222502200Y-41509500D01*
X219880700Y-41962200D02*
X222049500Y-41962200D01*
X262097200Y-28475000D02*
X262205000Y-28475000D01*
X249132100Y-41440100D02*
X262097200Y-28475000D01*
X222571600Y-41440100D02*
X249132100Y-41440100D01*
X222502200Y-41509500D02*
X222571600Y-41440100D01*
X222502200Y-41509500D02*
X222571600Y-41440100D01*
%TO.N,Net-(J2-Pin_22)*%
X161751400Y-102411400D02*
X160640000Y-101300000D01*
X235556100Y-102411400D02*
X161751400Y-102411400D01*
X238585300Y-99382200D02*
X235556100Y-102411400D01*
X246222400Y-99382200D02*
X238585300Y-99382200D01*
%TO.N,Net-(J2-Pin_11)*%
X210150000Y-65130000D02*
X211301700Y-65130000D01*
X253850200Y-62021700D02*
X254451900Y-61420000D01*
X214410000Y-62021700D02*
X253850200Y-62021700D01*
X211301700Y-65130000D02*
X214410000Y-62021700D01*
%TO.N,Net-(J2-Pin_21)*%
X243155000Y-27205000D02*
X244425000Y-28475000D01*
X218536300Y-27205000D02*
X243155000Y-27205000D01*
X216753700Y-25422400D02*
X218536300Y-27205000D01*
X215903000Y-25422400D02*
X216753700Y-25422400D01*
X215302800Y-24822200D02*
X215903000Y-25422400D01*
X176560000Y-24822200D02*
X215302800Y-24822200D01*
X171897200Y-29485000D02*
X176560000Y-24822200D01*
X161468200Y-29485000D02*
X171897200Y-29485000D01*
%TO.N,Net-(J2-Pin_10)*%
X261065600Y-27335600D02*
X261187300Y-27335600D01*
X259665000Y-25935000D02*
X261065600Y-27335600D01*
X216011700Y-55340000D02*
X211301700Y-60050000D01*
X261444500Y-55340000D02*
X216011700Y-55340000D01*
X210150000Y-60050000D02*
X211301700Y-60050000D01*
%TO.N,Net-(J2-Pin_3)*%
X149100000Y-64700000D02*
X150251700Y-64700000D01*
X150251700Y-64168400D02*
X150251700Y-64700000D01*
X160923900Y-53496200D02*
X150251700Y-64168400D01*
X172655400Y-53496200D02*
X160923900Y-53496200D01*
X182104800Y-44046800D02*
X172655400Y-53496200D01*
X251713200Y-44046800D02*
X182104800Y-44046800D01*
X267285000Y-28475000D02*
X251713200Y-44046800D01*
%TO.N,Net-(J2-Pin_14)*%
X215544600Y-23789000D02*
X193211000Y-23789000D01*
X216364200Y-24608600D02*
X215544600Y-23789000D01*
X253258600Y-24608600D02*
X216364200Y-24608600D01*
X254585000Y-25935000D02*
X253258600Y-24608600D01*
X193211000Y-23789000D02*
X185350700Y-23789000D01*
X185350700Y-23789000D02*
X193211000Y-23789000D01*
%TO.N,Net-(J2-Pin_15)*%
X244430200Y-93820000D02*
X151531600Y-93820000D01*
X250350200Y-87900000D02*
X244430200Y-93820000D01*
%TO.N,Net-(J2-Pin_28)*%
X225234900Y-101150000D02*
X206210000Y-101150000D01*
X225806100Y-100578800D02*
X225234900Y-101150000D01*
%TO.N,Net-(J2-Pin_18)*%
X238420000Y-70140000D02*
X243587100Y-70140000D01*
X243587100Y-70140000D02*
X243585500Y-70140000D01*
X255855000Y-25233200D02*
X256496700Y-24591500D01*
X255855000Y-29007500D02*
X255855000Y-25233200D01*
X249678500Y-35184000D02*
X255855000Y-29007500D01*
X242530200Y-35184000D02*
X249678500Y-35184000D01*
X242530200Y-35184000D02*
X243585500Y-36239300D01*
X243585500Y-36239300D02*
X242530200Y-35184000D01*
%TO.N,Net-(J2-Pin_13)*%
X253315200Y-27205200D02*
X254585000Y-28475000D01*
X246398800Y-27205200D02*
X253315200Y-27205200D01*
X245676700Y-27927300D02*
X246398800Y-27205200D01*
X245676700Y-29049600D02*
X245676700Y-27927300D01*
X244951400Y-29774900D02*
X245676700Y-29049600D01*
X220253400Y-29774900D02*
X244951400Y-29774900D01*
X216502600Y-26024100D02*
X220253400Y-29774900D01*
X215653800Y-26024100D02*
X216502600Y-26024100D01*
X215053600Y-25423900D02*
X215653800Y-26024100D01*
X177425000Y-25423900D02*
X215053600Y-25423900D01*
X177261700Y-25587200D02*
X177425000Y-25423900D01*
%TO.N,Net-(J2-Pin_26)*%
X202989600Y-99290400D02*
X201130000Y-101150000D01*
X231285900Y-99290400D02*
X202989600Y-99290400D01*
X231733900Y-99738400D02*
X231285900Y-99290400D01*
%TO.N,Net-(J2-Pin_20)*%
X159437900Y-97422100D02*
X155560000Y-101300000D01*
X245281800Y-97422100D02*
X159437900Y-97422100D01*
X245281800Y-97422100D02*
X244399500Y-97422100D01*
X244399500Y-97422100D02*
X245281800Y-97422100D01*
%TO.N,Net-(J3-Pin_1)*%
X188474700Y-42900000D02*
X180750000Y-42900000D01*
X194164800Y-37209900D02*
X188474700Y-42900000D01*
X202380800Y-37209900D02*
X194164800Y-37209900D01*
X203123300Y-37952400D02*
X202380800Y-37209900D01*
X203123300Y-38500000D02*
X203123300Y-37952400D01*
X204375000Y-38500000D02*
X203123300Y-38500000D01*
%TO.N,Net-(J2-Pin_19)*%
X221900500Y-41260400D02*
X222253100Y-40907800D01*
X204595400Y-41260400D02*
X221900500Y-41260400D01*
X201835000Y-38500000D02*
X204595400Y-41260400D01*
X222253100Y-40907800D02*
X222500700Y-40660200D01*
X222253100Y-40907800D02*
X222500700Y-40660200D01*
X246965000Y-29125600D02*
X246965000Y-28475000D01*
X235430400Y-40660200D02*
X246965000Y-29125600D01*
X222500700Y-40660200D02*
X235430400Y-40660200D01*
%TO.N,Net-(J2-Pin_1)*%
X269825000Y-28475000D02*
X268573300Y-28475000D01*
X164800000Y-60200000D02*
X165951700Y-60200000D01*
X174090300Y-60200000D02*
X185930000Y-48360300D01*
X165951700Y-60200000D02*
X174090300Y-60200000D01*
X185930000Y-48360300D02*
X186179100Y-48111200D01*
X185930000Y-48360300D02*
X186179100Y-48111200D01*
X249484700Y-48111200D02*
X186179100Y-48111200D01*
X268573300Y-29022600D02*
X249484700Y-48111200D01*
X268573300Y-28475000D02*
X268573300Y-29022600D01*
%TO.N,Net-(J2-Pin_2)*%
X169122800Y-23087300D02*
X166505700Y-25704400D01*
X266977300Y-23087300D02*
X169122800Y-23087300D01*
X269825000Y-25935000D02*
X266977300Y-23087300D01*
%TO.N,GND*%
X253518300Y-67190000D02*
X254098300Y-67770000D01*
X239550000Y-67190000D02*
X253518300Y-67190000D01*
X255250000Y-67770000D02*
X254098300Y-67770000D01*
X163068300Y-67240000D02*
X163648300Y-67820000D01*
X149100000Y-67240000D02*
X163068300Y-67240000D01*
X164800000Y-67820000D02*
X163648300Y-67820000D01*
X194450000Y-67090000D02*
X195601700Y-67090000D01*
X230150000Y-37275000D02*
X230150000Y-39300000D01*
X226250000Y-33375000D02*
X230150000Y-37275000D01*
X227093900Y-81356100D02*
X228450000Y-80000000D01*
X220806100Y-81356100D02*
X227093900Y-81356100D01*
X219550000Y-80100000D02*
X220806100Y-81356100D01*
X175210000Y-132740000D02*
X164800000Y-132740000D01*
X181150000Y-126800000D02*
X175210000Y-132740000D01*
X255150000Y-137670000D02*
X253998300Y-137670000D01*
X143058200Y-126600000D02*
X145798200Y-129340000D01*
X140150000Y-126600000D02*
X143058200Y-126600000D01*
X264220000Y-78820000D02*
X258281200Y-78820000D01*
X265700000Y-80300000D02*
X264220000Y-78820000D01*
X163068300Y-137240000D02*
X163648300Y-137820000D01*
X149100000Y-137240000D02*
X163068300Y-137240000D01*
X164800000Y-137820000D02*
X163648300Y-137820000D01*
X194250000Y-137290000D02*
X193098300Y-137290000D01*
X195981700Y-137870000D02*
X195401700Y-137290000D01*
X209950000Y-137870000D02*
X195981700Y-137870000D01*
X194250000Y-137290000D02*
X195401700Y-137290000D01*
X195601700Y-67670000D02*
X195601700Y-67090000D01*
X210150000Y-67670000D02*
X195601700Y-67670000D01*
X193180000Y-67670000D02*
X185550000Y-75300000D01*
X195601700Y-67670000D02*
X193180000Y-67670000D01*
X174750000Y-92400000D02*
X174750000Y-80900000D01*
X249268300Y-142400000D02*
X253998300Y-137670000D01*
X226200000Y-142400000D02*
X249268300Y-142400000D01*
X253418300Y-137090000D02*
X239450000Y-137090000D01*
X253998300Y-137670000D02*
X253418300Y-137090000D01*
X230650500Y-137090000D02*
X223305300Y-129744700D01*
X239450000Y-137090000D02*
X230650500Y-137090000D01*
X225750000Y-127300000D02*
X223305300Y-129744700D01*
X220260000Y-132790000D02*
X209950000Y-132790000D01*
X223305300Y-129744700D02*
X220260000Y-132790000D01*
X264160000Y-132590000D02*
X255150000Y-132590000D01*
X269450000Y-127300000D02*
X264160000Y-132590000D01*
X188288300Y-142100000D02*
X193098300Y-137290000D01*
X182390000Y-142100000D02*
X188288300Y-142100000D01*
X182390000Y-142100000D02*
X182390000Y-150400000D01*
X181150000Y-142100000D02*
X182390000Y-142100000D01*
X181189200Y-126760800D02*
X181150000Y-126800000D01*
X182320200Y-126760800D02*
X181189200Y-126760800D01*
X168742000Y-42900000D02*
X165182000Y-46460000D01*
X177650000Y-42900000D02*
X168742000Y-42900000D01*
X165923400Y-78930600D02*
X174750000Y-78930600D01*
X174750000Y-80900000D02*
X174750000Y-78930600D01*
X181919400Y-78930600D02*
X185550000Y-75300000D01*
X174750000Y-78930600D02*
X181919400Y-78930600D01*
X229430000Y-79020000D02*
X239550000Y-79020000D01*
X228450000Y-80000000D02*
X229430000Y-79020000D01*
X235236500Y-39300000D02*
X230150000Y-39300000D01*
X235517400Y-39580900D02*
X235236500Y-39300000D01*
%TO.N,Net-(D36-K)*%
X260720000Y-147731300D02*
X261366900Y-147084400D01*
X260720000Y-149600000D02*
X260720000Y-147731300D01*
X265430000Y-126380000D02*
X266350000Y-127300000D01*
X261366900Y-126380000D02*
X265430000Y-126380000D01*
%TO.N,Net-(D35-K)*%
X261384700Y-151085300D02*
X262870000Y-149600000D01*
X232305800Y-151085300D02*
X261384700Y-151085300D01*
X231200000Y-149979500D02*
X232305800Y-151085300D01*
X231200000Y-149600000D02*
X231200000Y-149979500D01*
%TO.N,Net-(D34-K)*%
X247060000Y-149600000D02*
X233350000Y-149600000D01*
X261760000Y-134900000D02*
X247060000Y-149600000D01*
%TO.N,Net-(D33-K)*%
X223934000Y-126016000D02*
X222650000Y-127300000D01*
X226443300Y-126016000D02*
X223934000Y-126016000D01*
X230360000Y-129932700D02*
X226443300Y-126016000D01*
X230360000Y-134700000D02*
X230360000Y-129932700D01*
%TO.N,Net-(D32-K)*%
X260916000Y-121584000D02*
X261000000Y-121500000D01*
X245626000Y-121584000D02*
X260916000Y-121584000D01*
X232510000Y-134700000D02*
X245626000Y-121584000D01*
%TO.N,Net-(D31-K)*%
X261159100Y-119509100D02*
X263150000Y-121500000D01*
X233547300Y-119509100D02*
X261159100Y-119509100D01*
X231960000Y-121096400D02*
X233547300Y-119509100D01*
X231960000Y-121500000D02*
X231960000Y-121096400D01*
%TO.N,Net-(D30-K)*%
X220296400Y-142400000D02*
X223100000Y-142400000D01*
X212500000Y-150196400D02*
X220296400Y-142400000D01*
X212500000Y-150600000D02*
X212500000Y-150196400D01*
%TO.N,Net-(D29-K)*%
X210729300Y-150991300D02*
X210729300Y-150060000D01*
X211812400Y-152074400D02*
X210729300Y-150991300D01*
X213175600Y-152074400D02*
X211812400Y-152074400D01*
X214650000Y-150600000D02*
X213175600Y-152074400D01*
X216100000Y-135260000D02*
X216560000Y-134800000D01*
X213954100Y-135260000D02*
X216100000Y-135260000D01*
%TO.N,Net-(D28-K)*%
X189050000Y-150163000D02*
X189050000Y-150500000D01*
X199494200Y-139718800D02*
X189050000Y-150163000D01*
X213791200Y-139718800D02*
X199494200Y-139718800D01*
X218710000Y-134800000D02*
X213791200Y-139718800D01*
%TO.N,Net-(D27-K)*%
X183377800Y-136200000D02*
X181357800Y-138220000D01*
X185250000Y-136200000D02*
X183377800Y-136200000D01*
X178478600Y-126371400D02*
X178050000Y-126800000D01*
X179279900Y-126371400D02*
X178478600Y-126371400D01*
X181268300Y-138220000D02*
X181217000Y-138271300D01*
X181357800Y-138220000D02*
X181268300Y-138220000D01*
%TO.N,Net-(D26-K)*%
X196927000Y-121700000D02*
X196174300Y-122452700D01*
X215460000Y-121700000D02*
X196927000Y-121700000D01*
X188440000Y-135160000D02*
X187400000Y-136200000D01*
X192614700Y-135160000D02*
X188440000Y-135160000D01*
%TO.N,Net-(D25-K)*%
X216030700Y-120120700D02*
X217610000Y-121700000D01*
X187935700Y-120120700D02*
X216030700Y-120120700D01*
X186860000Y-121196400D02*
X187935700Y-120120700D01*
X186860000Y-121600000D02*
X186860000Y-121196400D01*
%TO.N,Net-(D24-K)*%
X176925100Y-142100000D02*
X178050000Y-142100000D01*
X169060000Y-149965100D02*
X176925100Y-142100000D01*
X169060000Y-150400000D02*
X169060000Y-149965100D01*
%TO.N,Net-(D23-K)*%
X169676700Y-151933300D02*
X171210000Y-150400000D01*
X143523500Y-151933300D02*
X169676700Y-151933300D01*
X142150000Y-150559800D02*
X143523500Y-151933300D01*
X142150000Y-150200000D02*
X142150000Y-150559800D01*
%TO.N,Net-(D22-K)*%
X157060000Y-150200000D02*
X144300000Y-150200000D01*
X171060000Y-136200000D02*
X157060000Y-150200000D01*
%TO.N,Net-(D21-K)*%
X137050000Y-133590000D02*
X137050000Y-126600000D01*
X140160000Y-136700000D02*
X137050000Y-133590000D01*
%TO.N,Net-(D20-K)*%
X147737300Y-131272700D02*
X152231900Y-131272700D01*
X142310000Y-136700000D02*
X147737300Y-131272700D01*
X166229600Y-122670400D02*
X167800000Y-121100000D01*
X152275800Y-122670400D02*
X166229600Y-122670400D01*
%TO.N,Net-(D19-K)*%
X168484500Y-119634500D02*
X169950000Y-121100000D01*
X144314300Y-119634500D02*
X168484500Y-119634500D01*
X143150000Y-120798800D02*
X144314300Y-119634500D01*
X143150000Y-121200000D02*
X143150000Y-120798800D01*
%TO.N,Net-(D18-K)*%
X254380700Y-80300000D02*
X262600000Y-80300000D01*
X253160000Y-81520700D02*
X254380700Y-80300000D01*
X253160000Y-81900000D02*
X253160000Y-81520700D01*
%TO.N,Net-(D17-K)*%
X253111700Y-84098300D02*
X255310000Y-81900000D01*
X234694000Y-84098300D02*
X253111700Y-84098300D01*
X233620000Y-83024300D02*
X234694000Y-84098300D01*
X233620000Y-82600000D02*
X233620000Y-83024300D01*
%TO.N,Net-(D16-K)*%
X245020000Y-82600000D02*
X261020000Y-66600000D01*
X235770000Y-82600000D02*
X245020000Y-82600000D01*
%TO.N,Net-(D15-K)*%
X228420000Y-76930000D02*
X228420000Y-66100000D01*
X225350000Y-80000000D02*
X228420000Y-76930000D01*
%TO.N,Net-(D14-K)*%
X233587400Y-66100000D02*
X234442800Y-65244600D01*
X230570000Y-66100000D02*
X233587400Y-66100000D01*
X238302100Y-51000000D02*
X258085000Y-51000000D01*
X237616200Y-51685900D02*
X238302100Y-51000000D01*
X237616200Y-51685900D02*
X237630300Y-51671800D01*
X237630300Y-51671800D02*
X237616200Y-51685900D01*
X234442800Y-65244600D02*
X233587400Y-66100000D01*
X233587400Y-66100000D02*
X234442800Y-65244600D01*
%TO.N,Net-(D13-K)*%
X232220000Y-51597900D02*
X232220000Y-51200000D01*
X233294000Y-52671900D02*
X232220000Y-51597900D01*
X258563100Y-52671900D02*
X233294000Y-52671900D01*
X260235000Y-51000000D02*
X258563100Y-52671900D01*
%TO.N,Net-(D12-K)*%
X209802400Y-80100000D02*
X216450000Y-80100000D01*
X208060000Y-81842400D02*
X209802400Y-80100000D01*
X208060000Y-82200000D02*
X208060000Y-81842400D01*
%TO.N,Net-(D11-K)*%
X189820000Y-83115700D02*
X189820000Y-82700000D01*
X190910900Y-84206600D02*
X189820000Y-83115700D01*
X208203400Y-84206600D02*
X190910900Y-84206600D01*
X210210000Y-82200000D02*
X208203400Y-84206600D01*
%TO.N,Net-(D10-K)*%
X199320000Y-82700000D02*
X191970000Y-82700000D01*
X215720000Y-66300000D02*
X199320000Y-82700000D01*
%TO.N,Net-(D9-K)*%
X182450000Y-66335000D02*
X182450000Y-75300000D01*
X182685000Y-66100000D02*
X182450000Y-66335000D01*
%TO.N,Net-(D8-K)*%
X199535000Y-51400000D02*
X213200000Y-51400000D01*
X184835000Y-66100000D02*
X199535000Y-51400000D01*
%TO.N,Net-(D7-K)*%
X213671900Y-49721900D02*
X215350000Y-51400000D01*
X190246100Y-49721900D02*
X213671900Y-49721900D01*
X189150000Y-50818000D02*
X190246100Y-49721900D01*
X189150000Y-51200000D02*
X189150000Y-50818000D01*
%TO.N,Net-(D6-K)*%
X153081400Y-92400000D02*
X171650000Y-92400000D01*
X144085000Y-83403600D02*
X153081400Y-92400000D01*
X144085000Y-83000000D02*
X144085000Y-83403600D01*
%TO.N,Net-(D5-K)*%
X153685000Y-83000000D02*
X170685000Y-66000000D01*
X146235000Y-83000000D02*
X153685000Y-83000000D01*
%TO.N,Net-(D4-K)*%
X138385000Y-66700900D02*
X138385000Y-66300000D01*
X139466900Y-67782800D02*
X138385000Y-66700900D01*
X143102800Y-67782800D02*
X139466900Y-67782800D01*
X144797300Y-66088300D02*
X143102800Y-67782800D01*
X158499000Y-66088300D02*
X144797300Y-66088300D01*
X160517600Y-64069700D02*
X158499000Y-66088300D01*
X170904700Y-64069700D02*
X160517600Y-64069700D01*
X172835000Y-66000000D02*
X170904700Y-64069700D01*
%TO.N,Net-(D3-K)*%
X171271200Y-80521200D02*
X171650000Y-80900000D01*
X163825200Y-80521200D02*
X171271200Y-80521200D01*
X162750000Y-81596400D02*
X163825200Y-80521200D01*
X162750000Y-82000000D02*
X162750000Y-81596400D01*
%TO.N,Net-(D2-K)*%
X166967100Y-82000000D02*
X166987100Y-81980000D01*
X164900000Y-82000000D02*
X166967100Y-82000000D01*
X167005000Y-52380000D02*
X167985000Y-51400000D01*
X166247000Y-52380000D02*
X167005000Y-52380000D01*
%TO.N,Net-(D1-K)*%
X168679300Y-49944300D02*
X170135000Y-51400000D01*
X143012100Y-49944300D02*
X168679300Y-49944300D01*
X141860000Y-51096400D02*
X143012100Y-49944300D01*
X141860000Y-51500000D02*
X141860000Y-51096400D01*
D20*
%TO.N,+12V*%
X189062100Y-121652000D02*
X189010000Y-121600000D01*
X174514100Y-136200000D02*
X175587000Y-137272900D01*
X174514100Y-136200000D02*
X173210000Y-136200000D01*
X191200000Y-150603400D02*
X191200000Y-150500000D01*
X189374500Y-152428900D02*
X191200000Y-150603400D01*
X179338900Y-152428900D02*
X189374500Y-152428900D01*
X177310000Y-150400000D02*
X179338900Y-152428900D01*
X144010000Y-55374300D02*
X145798200Y-55374300D01*
X144010000Y-51500000D02*
X144010000Y-55374300D01*
X144010000Y-62825000D02*
X140535000Y-66300000D01*
X144010000Y-55374300D02*
X144010000Y-62825000D01*
X252103800Y-65917100D02*
X237397900Y-65917100D01*
X252668400Y-66481700D02*
X252103800Y-65917100D01*
X256207900Y-66481700D02*
X252668400Y-66481700D01*
X257725700Y-64963900D02*
X256207900Y-66481700D01*
X261632700Y-64963900D02*
X257725700Y-64963900D01*
X263170000Y-66501200D02*
X261632700Y-64963900D01*
X263170000Y-66600000D02*
X263170000Y-66501200D01*
X234562900Y-51392900D02*
X234370000Y-51200000D01*
X236734100Y-51392900D02*
X234562900Y-51392900D01*
X190673900Y-123263900D02*
X189062100Y-121652000D01*
X232449400Y-123263900D02*
X190673900Y-123263900D01*
X234110000Y-121603300D02*
X232449400Y-123263900D01*
X234110000Y-121500000D02*
X234110000Y-121603300D01*
X237439400Y-134351000D02*
X237439400Y-135060000D01*
X238492100Y-133298300D02*
X237439400Y-134351000D01*
X247331000Y-133298300D02*
X238492100Y-133298300D01*
X247874400Y-133841700D02*
X247331000Y-133298300D01*
X256107900Y-133841700D02*
X247874400Y-133841700D01*
X256629900Y-133319700D02*
X256107900Y-133841700D01*
X262431100Y-133319700D02*
X256629900Y-133319700D01*
X263910000Y-134798600D02*
X262431100Y-133319700D01*
X263910000Y-134900000D02*
X263910000Y-134798600D01*
X235005200Y-120604800D02*
X234110000Y-121500000D01*
X237163900Y-120604800D02*
X235005200Y-120604800D01*
X183147200Y-127566900D02*
X174514100Y-136200000D01*
X183147200Y-123700900D02*
X183147200Y-127566900D01*
X147800900Y-123700900D02*
X183147200Y-123700900D01*
X145300000Y-121200000D02*
X147800900Y-123700900D01*
X187013200Y-123700900D02*
X189062100Y-121652000D01*
X183147200Y-123700900D02*
X187013200Y-123700900D01*
X219680700Y-64489300D02*
X220990800Y-64489300D01*
X217870000Y-66300000D02*
X219680700Y-64489300D01*
X220500000Y-37726800D02*
X220500000Y-39200000D01*
X219897600Y-37124400D02*
X220500000Y-37726800D01*
X197274300Y-27600000D02*
X191210000Y-27600000D01*
X209004800Y-27600000D02*
X197274300Y-27600000D01*
X220500000Y-39095200D02*
X209004800Y-27600000D01*
X220500000Y-39200000D02*
X220500000Y-39095200D01*
X192390400Y-52380000D02*
X191300000Y-51289600D01*
X193521900Y-52380000D02*
X192390400Y-52380000D01*
X181101300Y-61488300D02*
X191300000Y-51289600D01*
X157108900Y-61488300D02*
X181101300Y-61488300D01*
X156124200Y-62473000D02*
X157108900Y-61488300D01*
X152939400Y-62473000D02*
X156124200Y-62473000D01*
X191300000Y-51289600D02*
X191300000Y-51200000D01*
X221037200Y-64442900D02*
X220990800Y-64489300D01*
X235923700Y-64442900D02*
X221037200Y-64442900D01*
X237397900Y-65917100D02*
X235923700Y-64442900D01*
%TD*%
M02*
