%TF.GenerationSoftware,KiCad,Pcbnew,9.0.2*%
%TF.CreationDate,2025-06-29T15:48:11+02:00*%
%TF.ProjectId,adirs,61646972-732e-46b6-9963-61645f706362,rev?*%
%TF.SameCoordinates,Original*%
%TF.FileFunction,Soldermask,Top*%
%TF.FilePolarity,Negative*%
%FSLAX46Y46*%
G04 Gerber Fmt 4.6, Leading zero omitted, Abs format (unit mm)*
G04 Created by KiCad (PCBNEW 9.0.2) date 2025-06-29 15:48:11*
%MOMM*%
%LPD*%
G01*
G04 APERTURE LIST*
G04 Aperture macros list*
%AMRoundRect*
0 Rectangle with rounded corners*
0 $1 Rounding radius*
0 $2 $3 $4 $5 $6 $7 $8 $9 X,Y pos of 4 corners*
0 Add a 4 corners polygon primitive as box body*
4,1,4,$2,$3,$4,$5,$6,$7,$8,$9,$2,$3,0*
0 Add four circle primitives for the rounded corners*
1,1,$1+$1,$2,$3*
1,1,$1+$1,$4,$5*
1,1,$1+$1,$6,$7*
1,1,$1+$1,$8,$9*
0 Add four rect primitives between the rounded corners*
20,1,$1+$1,$2,$3,$4,$5,0*
20,1,$1+$1,$4,$5,$6,$7,0*
20,1,$1+$1,$6,$7,$8,$9,0*
20,1,$1+$1,$8,$9,$2,$3,0*%
G04 Aperture macros list end*
%ADD10R,1.700000X1.700000*%
%ADD11C,1.700000*%
%ADD12R,3.000000X3.000000*%
%ADD13C,3.000000*%
%ADD14R,1.500000X1.500000*%
%ADD15RoundRect,0.165000X-0.385000X-0.885000X0.385000X-0.885000X0.385000X0.885000X-0.385000X0.885000X0*%
%ADD16RoundRect,0.315000X-0.735000X-0.735000X0.735000X-0.735000X0.735000X0.735000X-0.735000X0.735000X0*%
%ADD17RoundRect,0.250000X-0.400000X-0.625000X0.400000X-0.625000X0.400000X0.625000X-0.400000X0.625000X0*%
G04 APERTURE END LIST*
D10*
%TO.C,J2*%
X269825000Y-28475000D03*
D11*
X269825000Y-25935000D03*
X267285000Y-28475000D03*
X267285000Y-25935000D03*
X264745000Y-28475000D03*
X264745000Y-25935000D03*
X262205000Y-28475000D03*
X262205000Y-25935000D03*
X259665000Y-28475000D03*
X259665000Y-25935000D03*
X257125000Y-28475000D03*
X257125000Y-25935000D03*
X254585000Y-28475000D03*
X254585000Y-25935000D03*
X252045000Y-28475000D03*
X252045000Y-25935000D03*
X249505000Y-28475000D03*
X249505000Y-25935000D03*
X246965000Y-28475000D03*
X246965000Y-25935000D03*
X244425000Y-28475000D03*
X244425000Y-25935000D03*
X241885000Y-28475000D03*
X241885000Y-25935000D03*
X239345000Y-28475000D03*
X239345000Y-25935000D03*
X236805000Y-28475000D03*
X236805000Y-25935000D03*
X234265000Y-28475000D03*
X234265000Y-25935000D03*
X231725000Y-28475000D03*
X231725000Y-25935000D03*
X229185000Y-28475000D03*
X229185000Y-25935000D03*
X226645000Y-28475000D03*
X226645000Y-25935000D03*
X224105000Y-28475000D03*
X224105000Y-25935000D03*
X221565000Y-28475000D03*
X221565000Y-25935000D03*
%TD*%
D12*
%TO.C,J7*%
X182390000Y-150400000D03*
D13*
X177310000Y-150400000D03*
%TD*%
D14*
%TO.C,KR3*%
X255250000Y-60150000D03*
X255250000Y-62690000D03*
X255250000Y-65230000D03*
X255250000Y-67770000D03*
X239550000Y-64650000D03*
X239550000Y-67190000D03*
%TD*%
D15*
%TO.C,D35*%
X231200000Y-149600000D03*
D16*
X233350000Y-149600000D03*
%TD*%
D15*
%TO.C,D29*%
X216560000Y-134800000D03*
D16*
X218710000Y-134800000D03*
%TD*%
D15*
%TO.C,D33*%
X230360000Y-134700000D03*
D16*
X232510000Y-134700000D03*
%TD*%
D17*
%TO.C,R14*%
X223150000Y-33375000D03*
X226250000Y-33375000D03*
%TD*%
%TO.C,R7*%
X137050000Y-126600000D03*
X140150000Y-126600000D03*
%TD*%
D15*
%TO.C,D3*%
X162750000Y-82000000D03*
D16*
X164900000Y-82000000D03*
%TD*%
D15*
%TO.C,D22*%
X171060000Y-136200000D03*
D16*
X173210000Y-136200000D03*
%TD*%
D15*
%TO.C,D19*%
X143150000Y-121200000D03*
D16*
X145300000Y-121200000D03*
%TD*%
D15*
%TO.C,D13*%
X232220000Y-51200000D03*
D16*
X234370000Y-51200000D03*
%TD*%
D15*
%TO.C,D16*%
X261020000Y-66600000D03*
D16*
X263170000Y-66600000D03*
%TD*%
D17*
%TO.C,R8*%
X178050000Y-142100000D03*
X181150000Y-142100000D03*
%TD*%
D15*
%TO.C,D8*%
X213200000Y-51400000D03*
D16*
X215350000Y-51400000D03*
%TD*%
D14*
%TO.C,KR5*%
X209950000Y-130250000D03*
X209950000Y-132790000D03*
X209950000Y-135330000D03*
X209950000Y-137870000D03*
X194250000Y-134750000D03*
X194250000Y-137290000D03*
%TD*%
D15*
%TO.C,D25*%
X186860000Y-121600000D03*
D16*
X189010000Y-121600000D03*
%TD*%
D15*
%TO.C,D21*%
X140160000Y-136700000D03*
D16*
X142310000Y-136700000D03*
%TD*%
D15*
%TO.C,D10*%
X215720000Y-66300000D03*
D16*
X217870000Y-66300000D03*
%TD*%
D15*
%TO.C,D32*%
X261000000Y-121500000D03*
D16*
X263150000Y-121500000D03*
%TD*%
D17*
%TO.C,R10*%
X223100000Y-142400000D03*
X226200000Y-142400000D03*
%TD*%
D15*
%TO.C,D12*%
X208060000Y-82200000D03*
D16*
X210210000Y-82200000D03*
%TD*%
D14*
%TO.C,KR6*%
X255150000Y-130050000D03*
X255150000Y-132590000D03*
X255150000Y-135130000D03*
X255150000Y-137670000D03*
X239450000Y-134550000D03*
X239450000Y-137090000D03*
%TD*%
D10*
%TO.C,J6*%
X198590000Y-101150000D03*
D11*
X201130000Y-101150000D03*
X203670000Y-101150000D03*
X206210000Y-101150000D03*
%TD*%
D15*
%TO.C,D9*%
X182685000Y-66100000D03*
D16*
X184835000Y-66100000D03*
%TD*%
D15*
%TO.C,D30*%
X212500000Y-150600000D03*
D16*
X214650000Y-150600000D03*
%TD*%
D15*
%TO.C,D14*%
X258085000Y-51000000D03*
D16*
X260235000Y-51000000D03*
%TD*%
D17*
%TO.C,R12*%
X266350000Y-127300000D03*
X269450000Y-127300000D03*
%TD*%
%TO.C,R4*%
X216450000Y-80100000D03*
X219550000Y-80100000D03*
%TD*%
%TO.C,R2*%
X171650000Y-92400000D03*
X174750000Y-92400000D03*
%TD*%
D10*
%TO.C,J4*%
X153020000Y-101300000D03*
D11*
X155560000Y-101300000D03*
X158100000Y-101300000D03*
X160640000Y-101300000D03*
%TD*%
D14*
%TO.C,KR4*%
X164800000Y-130200000D03*
X164800000Y-132740000D03*
X164800000Y-135280000D03*
X164800000Y-137820000D03*
X149100000Y-134700000D03*
X149100000Y-137240000D03*
%TD*%
D15*
%TO.C,D15*%
X228420000Y-66100000D03*
D16*
X230570000Y-66100000D03*
%TD*%
D15*
%TO.C,D5*%
X170685000Y-66000000D03*
D16*
X172835000Y-66000000D03*
%TD*%
D10*
%TO.C,J5*%
X244090000Y-101150000D03*
D11*
X246630000Y-101150000D03*
X249170000Y-101150000D03*
X251710000Y-101150000D03*
%TD*%
D15*
%TO.C,D23*%
X142150000Y-150200000D03*
D16*
X144300000Y-150200000D03*
%TD*%
D15*
%TO.C,D17*%
X233620000Y-82600000D03*
D16*
X235770000Y-82600000D03*
%TD*%
D17*
%TO.C,R3*%
X182450000Y-75300000D03*
X185550000Y-75300000D03*
%TD*%
%TO.C,R11*%
X222650000Y-127300000D03*
X225750000Y-127300000D03*
%TD*%
%TO.C,R15*%
X227050000Y-39300000D03*
X230150000Y-39300000D03*
%TD*%
%TO.C,R5*%
X225350000Y-80000000D03*
X228450000Y-80000000D03*
%TD*%
D15*
%TO.C,D40*%
X218350000Y-39200000D03*
D16*
X220500000Y-39200000D03*
%TD*%
D15*
%TO.C,D2*%
X167985000Y-51400000D03*
D16*
X170135000Y-51400000D03*
%TD*%
D15*
%TO.C,D39*%
X213350000Y-27500000D03*
D16*
X215500000Y-27500000D03*
%TD*%
D15*
%TO.C,D1*%
X141860000Y-51500000D03*
D16*
X144010000Y-51500000D03*
%TD*%
D15*
%TO.C,D37*%
X189060000Y-27600000D03*
D16*
X191210000Y-27600000D03*
%TD*%
D10*
%TO.C,J3*%
X204375000Y-38500000D03*
D11*
X201835000Y-38500000D03*
%TD*%
D17*
%TO.C,R13*%
X177650000Y-42900000D03*
X180750000Y-42900000D03*
%TD*%
D15*
%TO.C,D34*%
X261760000Y-134900000D03*
D16*
X263910000Y-134900000D03*
%TD*%
D14*
%TO.C,KR1*%
X164800000Y-60200000D03*
X164800000Y-62740000D03*
X164800000Y-65280000D03*
X164800000Y-67820000D03*
X149100000Y-64700000D03*
X149100000Y-67240000D03*
%TD*%
D17*
%TO.C,R9*%
X178050000Y-126800000D03*
X181150000Y-126800000D03*
%TD*%
%TO.C,R1*%
X171650000Y-80900000D03*
X174750000Y-80900000D03*
%TD*%
D15*
%TO.C,D24*%
X169060000Y-150400000D03*
D16*
X171210000Y-150400000D03*
%TD*%
D15*
%TO.C,D26*%
X215460000Y-121700000D03*
D16*
X217610000Y-121700000D03*
%TD*%
D15*
%TO.C,D7*%
X189150000Y-51200000D03*
D16*
X191300000Y-51200000D03*
%TD*%
D15*
%TO.C,D4*%
X138385000Y-66300000D03*
D16*
X140535000Y-66300000D03*
%TD*%
D15*
%TO.C,D11*%
X189820000Y-82700000D03*
D16*
X191970000Y-82700000D03*
%TD*%
D15*
%TO.C,D36*%
X260720000Y-149600000D03*
D16*
X262870000Y-149600000D03*
%TD*%
D15*
%TO.C,D20*%
X167800000Y-121100000D03*
D16*
X169950000Y-121100000D03*
%TD*%
D17*
%TO.C,R6*%
X262600000Y-80300000D03*
X265700000Y-80300000D03*
%TD*%
D15*
%TO.C,D27*%
X185250000Y-136200000D03*
D16*
X187400000Y-136200000D03*
%TD*%
D15*
%TO.C,D31*%
X231960000Y-121500000D03*
D16*
X234110000Y-121500000D03*
%TD*%
D15*
%TO.C,D38*%
X184050000Y-38700000D03*
D16*
X186200000Y-38700000D03*
%TD*%
D15*
%TO.C,D28*%
X189050000Y-150500000D03*
D16*
X191200000Y-150500000D03*
%TD*%
D15*
%TO.C,D18*%
X253160000Y-81900000D03*
D16*
X255310000Y-81900000D03*
%TD*%
D14*
%TO.C,KR2*%
X210150000Y-60050000D03*
X210150000Y-62590000D03*
X210150000Y-65130000D03*
X210150000Y-67670000D03*
X194450000Y-64550000D03*
X194450000Y-67090000D03*
%TD*%
D15*
%TO.C,D6*%
X144085000Y-83000000D03*
D16*
X146235000Y-83000000D03*
%TD*%
D12*
%TO.C,J1*%
X143695000Y-25400000D03*
D13*
X148775000Y-25400000D03*
%TD*%
M02*
