M48
; DRILL file {KiCad 9.0.2} date 2025-06-29T15:48:11+0200
; FORMAT={-:-/ absolute / inch / decimal}
; #@! TF.CreationDate,2025-06-29T15:48:11+02:00
; #@! TF.GenerationSoftware,Kicad,Pcbnew,9.0.2
; #@! TF.FileFunction,Plated,1,2,PTH
FMAT,2
INCH
; #@! TA.AperFunction,Plated,PTH,ViaDrill
T1C0.0118
; #@! TA.AperFunction,Plated,PTH,ComponentDrill
T2C0.0236
; #@! TA.AperFunction,Plated,PTH,ComponentDrill
T3C0.0394
; #@! TA.AperFunction,Plated,PTH,ComponentDrill
T4C0.0598
%
G90
G05
T1
X5.7401Y-2.1801
X5.7401Y-5.0921
X5.9658Y-3.6937
X5.9934Y-5.1682
X5.9951Y-4.8295
X6.0212Y-2.4596
X6.357Y-1.1608
X6.5032Y-1.8291
X6.5324Y-3.1075
X6.5452Y-2.0622
X6.5553Y-1.012
X6.5743Y-3.2276
X6.9129Y-5.4044
X6.9788Y-1.0074
X7.0583Y-4.9753
X7.1345Y-5.4438
X7.178Y-4.9906
X7.5833Y-5.3213
X7.6067Y-0.9366
X7.619Y-2.0622
X7.7234Y-4.821
X7.7667Y-1.0866
X8.2964Y-5.9079
X8.4234Y-5.3252
X8.6567Y-0.9398
X8.6567Y-1.6521
X8.6574Y-1.4616
X8.7004Y-2.5389
X8.8569Y-3.9428
X8.89Y-3.9598
X9.1234Y-3.9267
X9.23Y-2.5687
X9.2723Y-1.5583
X9.3202Y-2.0233
X9.3372Y-4.7482
X9.3464Y-2.5952
X9.348Y-5.3173
X9.355Y-2.0349
X9.3866Y-2.7614
X9.4311Y-3.111
X9.4985Y-3.7947
X9.5484Y-1.3852
X9.59Y-2.7614
X9.6568Y-3.8355
X9.6938Y-3.9127
X9.8563Y-3.4606
X9.8977Y-2.2953
X10.0178Y-2.4181
X10.0182Y-4.7348
X10.0983Y-0.9682
X10.1686Y-3.1031
X10.2023Y-1.2767
X10.283Y-1.0762
X10.2874Y-2.5228
X10.29Y-4.9756
X10.29Y-5.7907
X10.2931Y-2.1787
T2
X5.8701Y-2.5472
X5.8701Y-2.6472
X5.8701Y-5.3031
X5.8701Y-5.4031
X6.4882Y-2.3701
X6.4882Y-2.4701
X6.4882Y-2.5701
X6.4882Y-2.6701
X6.4882Y-5.126
X6.4882Y-5.226
X6.4882Y-5.326
X6.4882Y-5.426
X7.6476Y-5.3051
X7.6476Y-5.4051
X7.6555Y-2.5413
X7.6555Y-2.6413
X8.2657Y-5.128
X8.2657Y-5.228
X8.2657Y-5.328
X8.2657Y-5.428
X8.2736Y-2.3642
X8.2736Y-2.4642
X8.2736Y-2.5642
X8.2736Y-2.6642
X9.4272Y-5.2972
X9.4272Y-5.3972
X9.4311Y-2.5453
X9.4311Y-2.6453
X10.0453Y-5.1201
X10.0453Y-5.2201
X10.0453Y-5.3201
X10.0453Y-5.4201
X10.0492Y-2.3681
X10.0492Y-2.4681
X10.0492Y-2.5681
X10.0492Y-2.6681
T3
X6.0244Y-3.9882
X6.1244Y-3.9882
X6.2244Y-3.9882
X6.3244Y-3.9882
X7.8185Y-3.9823
X7.9185Y-3.9823
X7.9463Y-1.5157
X8.0185Y-3.9823
X8.0463Y-1.5157
X8.1185Y-3.9823
X8.723Y-1.0211
X8.723Y-1.1211
X8.823Y-1.0211
X8.823Y-1.1211
X8.923Y-1.0211
X8.923Y-1.1211
X9.023Y-1.0211
X9.023Y-1.1211
X9.123Y-1.0211
X9.123Y-1.1211
X9.223Y-1.0211
X9.223Y-1.1211
X9.323Y-1.0211
X9.323Y-1.1211
X9.423Y-1.0211
X9.423Y-1.1211
X9.523Y-1.0211
X9.523Y-1.1211
X9.6098Y-3.9823
X9.623Y-1.0211
X9.623Y-1.1211
X9.7098Y-3.9823
X9.723Y-1.0211
X9.723Y-1.1211
X9.8098Y-3.9823
X9.823Y-1.0211
X9.823Y-1.1211
X9.9098Y-3.9823
X9.923Y-1.0211
X9.923Y-1.1211
X10.023Y-1.0211
X10.023Y-1.1211
X10.123Y-1.0211
X10.123Y-1.1211
X10.223Y-1.0211
X10.223Y-1.1211
X10.323Y-1.0211
X10.323Y-1.1211
X10.423Y-1.0211
X10.423Y-1.1211
X10.523Y-1.0211
X10.523Y-1.1211
X10.623Y-1.0211
X10.623Y-1.1211
T4
X5.6573Y-1.0
X5.8573Y-1.0
X6.9807Y-5.9213
X7.1807Y-5.9213
M30
