%TF.GenerationSoftware,KiCad,Pcbnew,9.0.2*%
%TF.CreationDate,2025-06-15T20:52:47+02:00*%
%TF.ProjectId,adirs,61646972-732e-46b6-9963-61645f706362,rev?*%
%TF.SameCoordinates,Original*%
%TF.FileFunction,Soldermask,Bot*%
%TF.FilePolarity,Negative*%
%FSLAX46Y46*%
G04 Gerber Fmt 4.6, Leading zero omitted, Abs format (unit mm)*
G04 Created by KiCad (PCBNEW 9.0.2) date 2025-06-15 20:52:47*
%MOMM*%
%LPD*%
G01*
G04 APERTURE LIST*
%ADD10R,1.500000X1.500000*%
%ADD11R,1.800000X1.800000*%
%ADD12C,1.800000*%
%ADD13R,3.000000X3.000000*%
%ADD14C,3.000000*%
%ADD15R,1.700000X1.700000*%
%ADD16C,1.700000*%
G04 APERTURE END LIST*
D10*
%TO.C,KR3*%
X255250000Y-60150000D03*
X255250000Y-62690000D03*
X255250000Y-65230000D03*
X255250000Y-67770000D03*
X239550000Y-64650000D03*
X239550000Y-67190000D03*
%TD*%
D11*
%TO.C,D35*%
X230660000Y-149600000D03*
D12*
X233200000Y-149600000D03*
%TD*%
D11*
%TO.C,D29*%
X216760000Y-134700000D03*
D12*
X219300000Y-134700000D03*
%TD*%
D11*
%TO.C,D33*%
X230260000Y-134700000D03*
D12*
X232800000Y-134700000D03*
%TD*%
D11*
%TO.C,D3*%
X163000000Y-82400000D03*
D12*
X165540000Y-82400000D03*
%TD*%
D11*
%TO.C,D22*%
X172260000Y-135000000D03*
D12*
X174800000Y-135000000D03*
%TD*%
D11*
%TO.C,D19*%
X142760000Y-120300000D03*
D12*
X145300000Y-120300000D03*
%TD*%
D11*
%TO.C,D13*%
X233560000Y-51200000D03*
D12*
X236100000Y-51200000D03*
%TD*%
D11*
%TO.C,D16*%
X262360000Y-66600000D03*
D12*
X264900000Y-66600000D03*
%TD*%
D11*
%TO.C,D8*%
X214225000Y-51200000D03*
D12*
X216765000Y-51200000D03*
%TD*%
D10*
%TO.C,KR5*%
X209950000Y-130250000D03*
X209950000Y-132790000D03*
X209950000Y-135330000D03*
X209950000Y-137870000D03*
X194250000Y-134750000D03*
X194250000Y-137290000D03*
%TD*%
D11*
%TO.C,D25*%
X186760000Y-121000000D03*
D12*
X189300000Y-121000000D03*
%TD*%
D13*
%TO.C,J1*%
X154240000Y-25300000D03*
D14*
X149160000Y-25300000D03*
%TD*%
D11*
%TO.C,D21*%
X138960000Y-135100000D03*
D12*
X141500000Y-135100000D03*
%TD*%
D11*
%TO.C,D10*%
X217060000Y-66300000D03*
D12*
X219600000Y-66300000D03*
%TD*%
D11*
%TO.C,D32*%
X260060000Y-121000000D03*
D12*
X262600000Y-121000000D03*
%TD*%
D11*
%TO.C,D12*%
X208460000Y-82200000D03*
D12*
X211000000Y-82200000D03*
%TD*%
D10*
%TO.C,KR6*%
X255150000Y-130050000D03*
X255150000Y-132590000D03*
X255150000Y-135130000D03*
X255150000Y-137670000D03*
X239450000Y-134550000D03*
X239450000Y-137090000D03*
%TD*%
D15*
%TO.C,J6*%
X198590000Y-101150000D03*
D16*
X201130000Y-101150000D03*
X203670000Y-101150000D03*
X206210000Y-101150000D03*
%TD*%
D11*
%TO.C,D9*%
X184025000Y-66100000D03*
D12*
X186565000Y-66100000D03*
%TD*%
D11*
%TO.C,D30*%
X216960000Y-149600000D03*
D12*
X219500000Y-149600000D03*
%TD*%
D11*
%TO.C,D14*%
X259425000Y-51000000D03*
D12*
X261965000Y-51000000D03*
%TD*%
D15*
%TO.C,J4*%
X153020000Y-101300000D03*
D16*
X155560000Y-101300000D03*
X158100000Y-101300000D03*
X160640000Y-101300000D03*
%TD*%
D10*
%TO.C,KR4*%
X164800000Y-130200000D03*
X164800000Y-132740000D03*
X164800000Y-135280000D03*
X164800000Y-137820000D03*
X149100000Y-134700000D03*
X149100000Y-137240000D03*
%TD*%
D11*
%TO.C,D15*%
X229760000Y-66100000D03*
D12*
X232300000Y-66100000D03*
%TD*%
D11*
%TO.C,D5*%
X172025000Y-66000000D03*
D12*
X174565000Y-66000000D03*
%TD*%
D15*
%TO.C,J5*%
X244090000Y-101150000D03*
D16*
X246630000Y-101150000D03*
X249170000Y-101150000D03*
X251710000Y-101150000D03*
%TD*%
D11*
%TO.C,D23*%
X140460000Y-148600000D03*
D12*
X143000000Y-148600000D03*
%TD*%
D11*
%TO.C,D17*%
X234960000Y-82600000D03*
D12*
X237500000Y-82600000D03*
%TD*%
D11*
%TO.C,D40*%
X218360000Y-39100000D03*
D12*
X220900000Y-39100000D03*
%TD*%
D11*
%TO.C,D2*%
X169325000Y-51400000D03*
D12*
X171865000Y-51400000D03*
%TD*%
D11*
%TO.C,D39*%
X213260000Y-27400000D03*
D12*
X215800000Y-27400000D03*
%TD*%
D11*
%TO.C,D1*%
X142525000Y-51400000D03*
D12*
X145065000Y-51400000D03*
%TD*%
D11*
%TO.C,D37*%
X188425000Y-27200000D03*
D12*
X190965000Y-27200000D03*
%TD*%
D15*
%TO.C,J3*%
X204375000Y-38500000D03*
D16*
X201835000Y-38500000D03*
%TD*%
D11*
%TO.C,D34*%
X261960000Y-134900000D03*
D12*
X264500000Y-134900000D03*
%TD*%
D10*
%TO.C,KR1*%
X164800000Y-60200000D03*
X164800000Y-62740000D03*
X164800000Y-65280000D03*
X164800000Y-67820000D03*
X149100000Y-64700000D03*
X149100000Y-67240000D03*
%TD*%
D11*
%TO.C,D24*%
X171860000Y-149700000D03*
D12*
X174400000Y-149700000D03*
%TD*%
D11*
%TO.C,D26*%
X215060000Y-120800000D03*
D12*
X217600000Y-120800000D03*
%TD*%
D11*
%TO.C,D7*%
X187425000Y-51400000D03*
D12*
X189965000Y-51400000D03*
%TD*%
D11*
%TO.C,D4*%
X139725000Y-66300000D03*
D12*
X142265000Y-66300000D03*
%TD*%
D11*
%TO.C,D11*%
X191160000Y-82700000D03*
D12*
X193700000Y-82700000D03*
%TD*%
D11*
%TO.C,D36*%
X262060000Y-149600000D03*
D12*
X264600000Y-149600000D03*
%TD*%
D11*
%TO.C,D20*%
X167460000Y-119900000D03*
D12*
X170000000Y-119900000D03*
%TD*%
D11*
%TO.C,D27*%
X185260000Y-135000000D03*
D12*
X187800000Y-135000000D03*
%TD*%
D11*
%TO.C,D31*%
X231260000Y-121300000D03*
D12*
X233800000Y-121300000D03*
%TD*%
D11*
%TO.C,D38*%
X182060000Y-37800000D03*
D12*
X184600000Y-37800000D03*
%TD*%
D11*
%TO.C,D28*%
X185060000Y-149700000D03*
D12*
X187600000Y-149700000D03*
%TD*%
D11*
%TO.C,D18*%
X253860000Y-81900000D03*
D12*
X256400000Y-81900000D03*
%TD*%
D10*
%TO.C,KR2*%
X210150000Y-60050000D03*
X210150000Y-62590000D03*
X210150000Y-65130000D03*
X210150000Y-67670000D03*
X194450000Y-64550000D03*
X194450000Y-67090000D03*
%TD*%
D11*
%TO.C,D6*%
X145425000Y-83000000D03*
D12*
X147965000Y-83000000D03*
%TD*%
D15*
%TO.C,J2*%
X235140000Y-25460000D03*
D16*
X235140000Y-28000000D03*
X237680000Y-25460000D03*
X237680000Y-28000000D03*
X240220000Y-25460000D03*
X240220000Y-28000000D03*
X242760000Y-25460000D03*
X242760000Y-28000000D03*
X245300000Y-25460000D03*
X245300000Y-28000000D03*
X247840000Y-25460000D03*
X247840000Y-28000000D03*
X250380000Y-25460000D03*
X250380000Y-28000000D03*
X252920000Y-25460000D03*
X252920000Y-28000000D03*
X255460000Y-25460000D03*
X255460000Y-28000000D03*
X258000000Y-25460000D03*
X258000000Y-28000000D03*
X260540000Y-25460000D03*
X260540000Y-28000000D03*
X263080000Y-25460000D03*
X263080000Y-28000000D03*
X265620000Y-25460000D03*
X265620000Y-28000000D03*
X268160000Y-25460000D03*
X268160000Y-28000000D03*
%TD*%
M02*
