M48
; DRILL file {KiCad 9.0.2} date 2025-06-15T20:52:44+0200
; FORMAT={-:-/ absolute / metric / decimal}
; #@! TF.CreationDate,2025-06-15T20:52:44+02:00
; #@! TF.GenerationSoftware,Kicad,Pcbnew,9.0.2
; #@! TF.FileFunction,Plated,1,2,PTH
FMAT,2
METRIC
; #@! TA.AperFunction,Plated,PTH,ViaDrill
T1C0.300
; #@! TA.AperFunction,Plated,PTH,ComponentDrill
T2C0.600
; #@! TA.AperFunction,Plated,PTH,ComponentDrill
T3C0.900
; #@! TA.AperFunction,Plated,PTH,ComponentDrill
T4C1.000
; #@! TA.AperFunction,Plated,PTH,ComponentDrill
T5C1.520
%
G90
G05
T1
X147.837Y-68.109
X163.073Y-133.266
X163.578Y-25.839
X169.503Y-25.235
X170.395Y-24.868
X184.321Y-73.022
X196.174Y-44.114
X207.873Y-133.335
X207.973Y-64.22
X210.805Y-76.06
X219.881Y-49.42
X231.734Y-79.02
X234.336Y-53.032
X234.697Y-59.09
X237.968Y-51.607
X238.502Y-59.09
X239.296Y-62.05
X243.763Y-58.3
X245.076Y-61.435
X246.865Y-61.523
X248.601Y-98.65
X249.406Y-99.14
X249.622Y-31.66
X258.041Y-119.94
X261.367Y-93.82
X261.771Y-90.672
X261.815Y-78.488
X261.868Y-92.782
X264.11Y-131.446
T2
X149.1Y-64.7
X149.1Y-67.24
X149.1Y-134.7
X149.1Y-137.24
X164.8Y-60.2
X164.8Y-62.74
X164.8Y-65.28
X164.8Y-67.82
X164.8Y-130.2
X164.8Y-132.74
X164.8Y-135.28
X164.8Y-137.82
X194.25Y-134.75
X194.25Y-137.29
X194.45Y-64.55
X194.45Y-67.09
X209.95Y-130.25
X209.95Y-132.79
X209.95Y-135.33
X209.95Y-137.87
X210.15Y-60.05
X210.15Y-62.59
X210.15Y-65.13
X210.15Y-67.67
X239.45Y-134.55
X239.45Y-137.09
X239.55Y-64.65
X239.55Y-67.19
X255.15Y-130.05
X255.15Y-132.59
X255.15Y-135.13
X255.15Y-137.67
X255.25Y-60.15
X255.25Y-62.69
X255.25Y-65.23
X255.25Y-67.77
T3
X138.96Y-135.1
X139.725Y-66.3
X140.46Y-148.6
X141.5Y-135.1
X142.265Y-66.3
X142.525Y-51.4
X142.76Y-120.3
X143.0Y-148.6
X145.065Y-51.4
X145.3Y-120.3
X145.425Y-83.0
X147.965Y-83.0
X163.0Y-82.4
X165.54Y-82.4
X167.46Y-119.9
X169.325Y-51.4
X170.0Y-119.9
X171.86Y-149.7
X171.865Y-51.4
X172.025Y-66.0
X172.26Y-135.0
X174.4Y-149.7
X174.565Y-66.0
X174.8Y-135.0
X182.06Y-37.8
X184.025Y-66.1
X184.6Y-37.8
X185.06Y-149.7
X185.26Y-135.0
X186.565Y-66.1
X186.76Y-121.0
X187.425Y-51.4
X187.6Y-149.7
X187.8Y-135.0
X188.425Y-27.2
X189.3Y-121.0
X189.965Y-51.4
X190.965Y-27.2
X191.16Y-82.7
X193.7Y-82.7
X208.46Y-82.2
X211.0Y-82.2
X213.26Y-27.4
X214.225Y-51.2
X215.06Y-120.8
X215.8Y-27.4
X216.76Y-134.7
X216.765Y-51.2
X216.96Y-149.6
X217.06Y-66.3
X217.6Y-120.8
X218.36Y-39.1
X219.3Y-134.7
X219.5Y-149.6
X219.6Y-66.3
X220.9Y-39.1
X229.76Y-66.1
X230.26Y-134.7
X230.66Y-149.6
X231.26Y-121.3
X232.3Y-66.1
X232.8Y-134.7
X233.2Y-149.6
X233.56Y-51.2
X233.8Y-121.3
X234.96Y-82.6
X236.1Y-51.2
X237.5Y-82.6
X253.86Y-81.9
X256.4Y-81.9
X259.425Y-51.0
X260.06Y-121.0
X261.96Y-134.9
X261.965Y-51.0
X262.06Y-149.6
X262.36Y-66.6
X262.6Y-121.0
X264.5Y-134.9
X264.6Y-149.6
X264.9Y-66.6
T4
X153.02Y-101.3
X155.56Y-101.3
X158.1Y-101.3
X160.64Y-101.3
X198.59Y-101.15
X201.13Y-101.15
X201.835Y-38.5
X203.67Y-101.15
X204.375Y-38.5
X206.21Y-101.15
X235.14Y-25.46
X235.14Y-28.0
X237.68Y-25.46
X237.68Y-28.0
X240.22Y-25.46
X240.22Y-28.0
X242.76Y-25.46
X242.76Y-28.0
X244.09Y-101.15
X245.3Y-25.46
X245.3Y-28.0
X246.63Y-101.15
X247.84Y-25.46
X247.84Y-28.0
X249.17Y-101.15
X250.38Y-25.46
X250.38Y-28.0
X251.71Y-101.15
X252.92Y-25.46
X252.92Y-28.0
X255.46Y-25.46
X255.46Y-28.0
X258.0Y-25.46
X258.0Y-28.0
X260.54Y-25.46
X260.54Y-28.0
X263.08Y-25.46
X263.08Y-28.0
X265.62Y-25.46
X265.62Y-28.0
X268.16Y-25.46
X268.16Y-28.0
T5
X149.16Y-25.3
X154.24Y-25.3
M30
