%TF.GenerationSoftware,KiCad,Pcbnew,9.0.2*%
%TF.CreationDate,2025-06-15T20:52:46+02:00*%
%TF.ProjectId,adirs,61646972-732e-46b6-9963-61645f706362,rev?*%
%TF.SameCoordinates,Original*%
%TF.FileFunction,Copper,L2,Bot*%
%TF.FilePolarity,Positive*%
%FSLAX46Y46*%
G04 Gerber Fmt 4.6, Leading zero omitted, Abs format (unit mm)*
G04 Created by KiCad (PCBNEW 9.0.2) date 2025-06-15 20:52:46*
%MOMM*%
%LPD*%
G01*
G04 APERTURE LIST*
%TA.AperFunction,ComponentPad*%
%ADD10R,1.500000X1.500000*%
%TD*%
%TA.AperFunction,ComponentPad*%
%ADD11R,1.800000X1.800000*%
%TD*%
%TA.AperFunction,ComponentPad*%
%ADD12C,1.800000*%
%TD*%
%TA.AperFunction,ComponentPad*%
%ADD13R,3.000000X3.000000*%
%TD*%
%TA.AperFunction,ComponentPad*%
%ADD14C,3.000000*%
%TD*%
%TA.AperFunction,ComponentPad*%
%ADD15R,1.700000X1.700000*%
%TD*%
%TA.AperFunction,ComponentPad*%
%ADD16C,1.700000*%
%TD*%
%TA.AperFunction,ViaPad*%
%ADD17C,0.600000*%
%TD*%
%TA.AperFunction,Conductor*%
%ADD18C,0.200000*%
%TD*%
G04 APERTURE END LIST*
D10*
%TO.P,KR3,1,+5V_TOP_LED*%
%TO.N,Net-(J2-Pin_4)*%
X255250000Y-60150000D03*
%TO.P,KR3,2,GND_TOP_LED*%
%TO.N,GND*%
X255250000Y-62690000D03*
%TO.P,KR3,3,+5V_BOTTOM_LED*%
%TO.N,Net-(J2-Pin_5)*%
X255250000Y-65230000D03*
%TO.P,KR3,4,GND_BOTTOM_LED*%
%TO.N,GND*%
X255250000Y-67770000D03*
%TO.P,KR3,5,SW_IN*%
%TO.N,Net-(J2-Pin_6)*%
X239550000Y-64650000D03*
%TO.P,KR3,6,SW_OUT*%
%TO.N,GND*%
X239550000Y-67190000D03*
%TD*%
D11*
%TO.P,D35,1,K*%
%TO.N,Net-(D35-K)*%
X230660000Y-149600000D03*
D12*
%TO.P,D35,2,A*%
%TO.N,Net-(D34-K)*%
X233200000Y-149600000D03*
%TD*%
D11*
%TO.P,D29,1,K*%
%TO.N,Net-(D29-K)*%
X216760000Y-134700000D03*
D12*
%TO.P,D29,2,A*%
%TO.N,Net-(D28-K)*%
X219300000Y-134700000D03*
%TD*%
D11*
%TO.P,D33,1,K*%
%TO.N,Net-(D33-K)*%
X230260000Y-134700000D03*
D12*
%TO.P,D33,2,A*%
%TO.N,Net-(D32-K)*%
X232800000Y-134700000D03*
%TD*%
D11*
%TO.P,D3,1,K*%
%TO.N,Net-(D3-K)*%
X163000000Y-82400000D03*
D12*
%TO.P,D3,2,A*%
%TO.N,Net-(D2-K)*%
X165540000Y-82400000D03*
%TD*%
D11*
%TO.P,D22,1,K*%
%TO.N,Net-(D22-K)*%
X172260000Y-135000000D03*
D12*
%TO.P,D22,2,A*%
%TO.N,+12V*%
X174800000Y-135000000D03*
%TD*%
D11*
%TO.P,D19,1,K*%
%TO.N,Net-(D19-K)*%
X142760000Y-120300000D03*
D12*
%TO.P,D19,2,A*%
%TO.N,+12V*%
X145300000Y-120300000D03*
%TD*%
D11*
%TO.P,D13,1,K*%
%TO.N,Net-(D13-K)*%
X233560000Y-51200000D03*
D12*
%TO.P,D13,2,A*%
%TO.N,+12V*%
X236100000Y-51200000D03*
%TD*%
D11*
%TO.P,D16,1,K*%
%TO.N,Net-(D16-K)*%
X262360000Y-66600000D03*
D12*
%TO.P,D16,2,A*%
%TO.N,+12V*%
X264900000Y-66600000D03*
%TD*%
D11*
%TO.P,D8,1,K*%
%TO.N,Net-(D8-K)*%
X214225000Y-51200000D03*
D12*
%TO.P,D8,2,A*%
%TO.N,Net-(D7-K)*%
X216765000Y-51200000D03*
%TD*%
D10*
%TO.P,KR5,1,+5V_TOP_LED*%
%TO.N,Net-(J2-Pin_7)*%
X209950000Y-130250000D03*
%TO.P,KR5,2,GND_TOP_LED*%
%TO.N,GND*%
X209950000Y-132790000D03*
%TO.P,KR5,3,+5V_BOTTOM_LED*%
%TO.N,Net-(J2-Pin_8)*%
X209950000Y-135330000D03*
%TO.P,KR5,4,GND_BOTTOM_LED*%
%TO.N,GND*%
X209950000Y-137870000D03*
%TO.P,KR5,5,SW_IN*%
%TO.N,Net-(J2-Pin_9)*%
X194250000Y-134750000D03*
%TO.P,KR5,6,SW_OUT*%
%TO.N,GND*%
X194250000Y-137290000D03*
%TD*%
D11*
%TO.P,D25,1,K*%
%TO.N,Net-(D25-K)*%
X186760000Y-121000000D03*
D12*
%TO.P,D25,2,A*%
%TO.N,+12V*%
X189300000Y-121000000D03*
%TD*%
D13*
%TO.P,J1,1,Pin_1*%
%TO.N,GND*%
X154240000Y-25300000D03*
D14*
%TO.P,J1,2,Pin_2*%
%TO.N,+12V*%
X149160000Y-25300000D03*
%TD*%
D11*
%TO.P,D21,1,K*%
%TO.N,Net-(D21-K)*%
X138960000Y-135100000D03*
D12*
%TO.P,D21,2,A*%
%TO.N,Net-(D20-K)*%
X141500000Y-135100000D03*
%TD*%
D11*
%TO.P,D10,1,K*%
%TO.N,Net-(D10-K)*%
X217060000Y-66300000D03*
D12*
%TO.P,D10,2,A*%
%TO.N,+12V*%
X219600000Y-66300000D03*
%TD*%
D11*
%TO.P,D32,1,K*%
%TO.N,Net-(D32-K)*%
X260060000Y-121000000D03*
D12*
%TO.P,D32,2,A*%
%TO.N,Net-(D31-K)*%
X262600000Y-121000000D03*
%TD*%
D11*
%TO.P,D12,1,K*%
%TO.N,Net-(D12-K)*%
X208460000Y-82200000D03*
D12*
%TO.P,D12,2,A*%
%TO.N,Net-(D11-K)*%
X211000000Y-82200000D03*
%TD*%
D10*
%TO.P,KR6,1,+5V_TOP_LED*%
%TO.N,Net-(J2-Pin_16)*%
X255150000Y-130050000D03*
%TO.P,KR6,2,GND_TOP_LED*%
%TO.N,GND*%
X255150000Y-132590000D03*
%TO.P,KR6,3,+5V_BOTTOM_LED*%
%TO.N,Net-(J2-Pin_17)*%
X255150000Y-135130000D03*
%TO.P,KR6,4,GND_BOTTOM_LED*%
%TO.N,GND*%
X255150000Y-137670000D03*
%TO.P,KR6,5,SW_IN*%
%TO.N,Net-(J2-Pin_18)*%
X239450000Y-134550000D03*
%TO.P,KR6,6,SW_OUT*%
%TO.N,GND*%
X239450000Y-137090000D03*
%TD*%
D15*
%TO.P,J6,1,Pin_1*%
%TO.N,GND*%
X198590000Y-101150000D03*
D16*
%TO.P,J6,2,Pin_2*%
%TO.N,Net-(J2-Pin_26)*%
X201130000Y-101150000D03*
%TO.P,J6,3,Pin_3*%
%TO.N,Net-(J2-Pin_27)*%
X203670000Y-101150000D03*
%TO.P,J6,4,Pin_4*%
%TO.N,Net-(J2-Pin_28)*%
X206210000Y-101150000D03*
%TD*%
D11*
%TO.P,D9,1,K*%
%TO.N,Net-(D9-K)*%
X184025000Y-66100000D03*
D12*
%TO.P,D9,2,A*%
%TO.N,Net-(D8-K)*%
X186565000Y-66100000D03*
%TD*%
D11*
%TO.P,D30,1,K*%
%TO.N,Net-(D30-K)*%
X216960000Y-149600000D03*
D12*
%TO.P,D30,2,A*%
%TO.N,Net-(D29-K)*%
X219500000Y-149600000D03*
%TD*%
D11*
%TO.P,D14,1,K*%
%TO.N,Net-(D14-K)*%
X259425000Y-51000000D03*
D12*
%TO.P,D14,2,A*%
%TO.N,Net-(D13-K)*%
X261965000Y-51000000D03*
%TD*%
D15*
%TO.P,J4,1,Pin_1*%
%TO.N,GND*%
X153020000Y-101300000D03*
D16*
%TO.P,J4,2,Pin_2*%
%TO.N,Net-(J2-Pin_20)*%
X155560000Y-101300000D03*
%TO.P,J4,3,Pin_3*%
%TO.N,Net-(J2-Pin_21)*%
X158100000Y-101300000D03*
%TO.P,J4,4,Pin_4*%
%TO.N,Net-(J2-Pin_22)*%
X160640000Y-101300000D03*
%TD*%
D10*
%TO.P,KR4,1,+5V_TOP_LED*%
%TO.N,Net-(J2-Pin_13)*%
X164800000Y-130200000D03*
%TO.P,KR4,2,GND_TOP_LED*%
%TO.N,GND*%
X164800000Y-132740000D03*
%TO.P,KR4,3,+5V_BOTTOM_LED*%
%TO.N,Net-(J2-Pin_14)*%
X164800000Y-135280000D03*
%TO.P,KR4,4,GND_BOTTOM_LED*%
%TO.N,GND*%
X164800000Y-137820000D03*
%TO.P,KR4,5,SW_IN*%
%TO.N,Net-(J2-Pin_15)*%
X149100000Y-134700000D03*
%TO.P,KR4,6,SW_OUT*%
%TO.N,GND*%
X149100000Y-137240000D03*
%TD*%
D11*
%TO.P,D15,1,K*%
%TO.N,Net-(D15-K)*%
X229760000Y-66100000D03*
D12*
%TO.P,D15,2,A*%
%TO.N,Net-(D14-K)*%
X232300000Y-66100000D03*
%TD*%
D11*
%TO.P,D5,1,K*%
%TO.N,Net-(D5-K)*%
X172025000Y-66000000D03*
D12*
%TO.P,D5,2,A*%
%TO.N,Net-(D4-K)*%
X174565000Y-66000000D03*
%TD*%
D15*
%TO.P,J5,1,Pin_1*%
%TO.N,GND*%
X244090000Y-101150000D03*
D16*
%TO.P,J5,2,Pin_2*%
%TO.N,Net-(J2-Pin_23)*%
X246630000Y-101150000D03*
%TO.P,J5,3,Pin_3*%
%TO.N,Net-(J2-Pin_24)*%
X249170000Y-101150000D03*
%TO.P,J5,4,Pin_4*%
%TO.N,Net-(J2-Pin_25)*%
X251710000Y-101150000D03*
%TD*%
D11*
%TO.P,D23,1,K*%
%TO.N,Net-(D23-K)*%
X140460000Y-148600000D03*
D12*
%TO.P,D23,2,A*%
%TO.N,Net-(D22-K)*%
X143000000Y-148600000D03*
%TD*%
D11*
%TO.P,D17,1,K*%
%TO.N,Net-(D17-K)*%
X234960000Y-82600000D03*
D12*
%TO.P,D17,2,A*%
%TO.N,Net-(D16-K)*%
X237500000Y-82600000D03*
%TD*%
D11*
%TO.P,D40,1,K*%
%TO.N,Net-(D40-K)*%
X218360000Y-39100000D03*
D12*
%TO.P,D40,2,A*%
%TO.N,+12V*%
X220900000Y-39100000D03*
%TD*%
D11*
%TO.P,D2,1,K*%
%TO.N,Net-(D2-K)*%
X169325000Y-51400000D03*
D12*
%TO.P,D2,2,A*%
%TO.N,Net-(D1-K)*%
X171865000Y-51400000D03*
%TD*%
D11*
%TO.P,D39,1,K*%
%TO.N,Net-(D39-K)*%
X213260000Y-27400000D03*
D12*
%TO.P,D39,2,A*%
%TO.N,Net-(D38-K)*%
X215800000Y-27400000D03*
%TD*%
D11*
%TO.P,D1,1,K*%
%TO.N,Net-(D1-K)*%
X142525000Y-51400000D03*
D12*
%TO.P,D1,2,A*%
%TO.N,+12V*%
X145065000Y-51400000D03*
%TD*%
D11*
%TO.P,D37,1,K*%
%TO.N,Net-(D37-K)*%
X188425000Y-27200000D03*
D12*
%TO.P,D37,2,A*%
%TO.N,+12V*%
X190965000Y-27200000D03*
%TD*%
D15*
%TO.P,J3,1,Pin_1*%
%TO.N,Net-(J3-Pin_1)*%
X204375000Y-38500000D03*
D16*
%TO.P,J3,2,Pin_2*%
%TO.N,Net-(J2-Pin_19)*%
X201835000Y-38500000D03*
%TD*%
D11*
%TO.P,D34,1,K*%
%TO.N,Net-(D34-K)*%
X261960000Y-134900000D03*
D12*
%TO.P,D34,2,A*%
%TO.N,+12V*%
X264500000Y-134900000D03*
%TD*%
D10*
%TO.P,KR1,1,+5V_TOP_LED*%
%TO.N,Net-(J2-Pin_1)*%
X164800000Y-60200000D03*
%TO.P,KR1,2,GND_TOP_LED*%
%TO.N,GND*%
X164800000Y-62740000D03*
%TO.P,KR1,3,+5V_BOTTOM_LED*%
%TO.N,Net-(J2-Pin_2)*%
X164800000Y-65280000D03*
%TO.P,KR1,4,GND_BOTTOM_LED*%
%TO.N,GND*%
X164800000Y-67820000D03*
%TO.P,KR1,5,SW_IN*%
%TO.N,Net-(J2-Pin_3)*%
X149100000Y-64700000D03*
%TO.P,KR1,6,SW_OUT*%
%TO.N,GND*%
X149100000Y-67240000D03*
%TD*%
D11*
%TO.P,D24,1,K*%
%TO.N,Net-(D24-K)*%
X171860000Y-149700000D03*
D12*
%TO.P,D24,2,A*%
%TO.N,Net-(D23-K)*%
X174400000Y-149700000D03*
%TD*%
D11*
%TO.P,D26,1,K*%
%TO.N,Net-(D26-K)*%
X215060000Y-120800000D03*
D12*
%TO.P,D26,2,A*%
%TO.N,Net-(D25-K)*%
X217600000Y-120800000D03*
%TD*%
D11*
%TO.P,D7,1,K*%
%TO.N,Net-(D7-K)*%
X187425000Y-51400000D03*
D12*
%TO.P,D7,2,A*%
%TO.N,+12V*%
X189965000Y-51400000D03*
%TD*%
D11*
%TO.P,D4,1,K*%
%TO.N,Net-(D4-K)*%
X139725000Y-66300000D03*
D12*
%TO.P,D4,2,A*%
%TO.N,+12V*%
X142265000Y-66300000D03*
%TD*%
D11*
%TO.P,D11,1,K*%
%TO.N,Net-(D11-K)*%
X191160000Y-82700000D03*
D12*
%TO.P,D11,2,A*%
%TO.N,Net-(D10-K)*%
X193700000Y-82700000D03*
%TD*%
D11*
%TO.P,D36,1,K*%
%TO.N,Net-(D36-K)*%
X262060000Y-149600000D03*
D12*
%TO.P,D36,2,A*%
%TO.N,Net-(D35-K)*%
X264600000Y-149600000D03*
%TD*%
D11*
%TO.P,D20,1,K*%
%TO.N,Net-(D20-K)*%
X167460000Y-119900000D03*
D12*
%TO.P,D20,2,A*%
%TO.N,Net-(D19-K)*%
X170000000Y-119900000D03*
%TD*%
D11*
%TO.P,D27,1,K*%
%TO.N,Net-(D27-K)*%
X185260000Y-135000000D03*
D12*
%TO.P,D27,2,A*%
%TO.N,Net-(D26-K)*%
X187800000Y-135000000D03*
%TD*%
D11*
%TO.P,D31,1,K*%
%TO.N,Net-(D31-K)*%
X231260000Y-121300000D03*
D12*
%TO.P,D31,2,A*%
%TO.N,+12V*%
X233800000Y-121300000D03*
%TD*%
D11*
%TO.P,D38,1,K*%
%TO.N,Net-(D38-K)*%
X182060000Y-37800000D03*
D12*
%TO.P,D38,2,A*%
%TO.N,Net-(D37-K)*%
X184600000Y-37800000D03*
%TD*%
D11*
%TO.P,D28,1,K*%
%TO.N,Net-(D28-K)*%
X185060000Y-149700000D03*
D12*
%TO.P,D28,2,A*%
%TO.N,+12V*%
X187600000Y-149700000D03*
%TD*%
D11*
%TO.P,D18,1,K*%
%TO.N,Net-(D18-K)*%
X253860000Y-81900000D03*
D12*
%TO.P,D18,2,A*%
%TO.N,Net-(D17-K)*%
X256400000Y-81900000D03*
%TD*%
D10*
%TO.P,KR2,1,+5V_TOP_LED*%
%TO.N,Net-(J2-Pin_10)*%
X210150000Y-60050000D03*
%TO.P,KR2,2,GND_TOP_LED*%
%TO.N,GND*%
X210150000Y-62590000D03*
%TO.P,KR2,3,+5V_BOTTOM_LED*%
%TO.N,Net-(J2-Pin_11)*%
X210150000Y-65130000D03*
%TO.P,KR2,4,GND_BOTTOM_LED*%
%TO.N,GND*%
X210150000Y-67670000D03*
%TO.P,KR2,5,SW_IN*%
%TO.N,Net-(J2-Pin_12)*%
X194450000Y-64550000D03*
%TO.P,KR2,6,SW_OUT*%
%TO.N,GND*%
X194450000Y-67090000D03*
%TD*%
D11*
%TO.P,D6,1,K*%
%TO.N,Net-(D6-K)*%
X145425000Y-83000000D03*
D12*
%TO.P,D6,2,A*%
%TO.N,Net-(D5-K)*%
X147965000Y-83000000D03*
%TD*%
D15*
%TO.P,J2,1,Pin_1*%
%TO.N,Net-(J2-Pin_1)*%
X235140000Y-25460000D03*
D16*
%TO.P,J2,2,Pin_2*%
%TO.N,Net-(J2-Pin_2)*%
X235140000Y-28000000D03*
%TO.P,J2,3,Pin_3*%
%TO.N,Net-(J2-Pin_3)*%
X237680000Y-25460000D03*
%TO.P,J2,4,Pin_4*%
%TO.N,Net-(J2-Pin_4)*%
X237680000Y-28000000D03*
%TO.P,J2,5,Pin_5*%
%TO.N,Net-(J2-Pin_5)*%
X240220000Y-25460000D03*
%TO.P,J2,6,Pin_6*%
%TO.N,Net-(J2-Pin_6)*%
X240220000Y-28000000D03*
%TO.P,J2,7,Pin_7*%
%TO.N,Net-(J2-Pin_7)*%
X242760000Y-25460000D03*
%TO.P,J2,8,Pin_8*%
%TO.N,Net-(J2-Pin_8)*%
X242760000Y-28000000D03*
%TO.P,J2,9,Pin_9*%
%TO.N,Net-(J2-Pin_9)*%
X245300000Y-25460000D03*
%TO.P,J2,10,Pin_10*%
%TO.N,Net-(J2-Pin_10)*%
X245300000Y-28000000D03*
%TO.P,J2,11,Pin_11*%
%TO.N,Net-(J2-Pin_11)*%
X247840000Y-25460000D03*
%TO.P,J2,12,Pin_12*%
%TO.N,Net-(J2-Pin_12)*%
X247840000Y-28000000D03*
%TO.P,J2,13,Pin_13*%
%TO.N,Net-(J2-Pin_13)*%
X250380000Y-25460000D03*
%TO.P,J2,14,Pin_14*%
%TO.N,Net-(J2-Pin_14)*%
X250380000Y-28000000D03*
%TO.P,J2,15,Pin_15*%
%TO.N,Net-(J2-Pin_15)*%
X252920000Y-25460000D03*
%TO.P,J2,16,Pin_16*%
%TO.N,Net-(J2-Pin_16)*%
X252920000Y-28000000D03*
%TO.P,J2,17,Pin_17*%
%TO.N,Net-(J2-Pin_17)*%
X255460000Y-25460000D03*
%TO.P,J2,18,Pin_18*%
%TO.N,Net-(J2-Pin_18)*%
X255460000Y-28000000D03*
%TO.P,J2,19,Pin_19*%
%TO.N,Net-(J2-Pin_19)*%
X258000000Y-25460000D03*
%TO.P,J2,20,Pin_20*%
%TO.N,Net-(J2-Pin_20)*%
X258000000Y-28000000D03*
%TO.P,J2,21,Pin_21*%
%TO.N,Net-(J2-Pin_21)*%
X260540000Y-25460000D03*
%TO.P,J2,22,Pin_22*%
%TO.N,Net-(J2-Pin_22)*%
X260540000Y-28000000D03*
%TO.P,J2,23,Pin_23*%
%TO.N,Net-(J2-Pin_23)*%
X263080000Y-25460000D03*
%TO.P,J2,24,Pin_24*%
%TO.N,Net-(J2-Pin_24)*%
X263080000Y-28000000D03*
%TO.P,J2,25,Pin_25*%
%TO.N,Net-(J2-Pin_25)*%
X265620000Y-25460000D03*
%TO.P,J2,26,Pin_26*%
%TO.N,Net-(J2-Pin_26)*%
X265620000Y-28000000D03*
%TO.P,J2,27,Pin_27*%
%TO.N,Net-(J2-Pin_27)*%
X268160000Y-25460000D03*
%TO.P,J2,28,Pin_28*%
%TO.N,Net-(J2-Pin_28)*%
X268160000Y-28000000D03*
%TD*%
D17*
%TO.N,+12V*%
X219880700Y-49420000D03*
X258041000Y-119940000D03*
%TO.N,Net-(D5-K)*%
X147837400Y-68108800D03*
%TO.N,Net-(D8-K)*%
X207972900Y-64220000D03*
%TO.N,Net-(D9-K)*%
X184321100Y-73022000D03*
%TO.N,Net-(D14-K)*%
X237968300Y-51607500D03*
%TO.N,Net-(D15-K)*%
X231733900Y-79020000D03*
%TO.N,Net-(D16-K)*%
X261815500Y-78488200D03*
%TO.N,Net-(D20-K)*%
X163073200Y-133265800D03*
%TO.N,Net-(D26-K)*%
X207872900Y-133335000D03*
%TO.N,Net-(D36-K)*%
X264109800Y-131446200D03*
%TO.N,GND*%
X210805400Y-76060000D03*
X196174300Y-44113800D03*
%TO.N,Net-(J2-Pin_2)*%
X234697200Y-59090000D03*
%TO.N,Net-(J2-Pin_1)*%
X169503100Y-25235500D03*
%TO.N,Net-(J2-Pin_20)*%
X248601000Y-98650200D03*
%TO.N,Net-(J2-Pin_23)*%
X249406000Y-99140400D03*
%TO.N,Net-(J2-Pin_26)*%
X261771100Y-90672000D03*
%TO.N,Net-(J2-Pin_18)*%
X249622300Y-31660000D03*
%TO.N,Net-(J2-Pin_28)*%
X261366900Y-93820000D03*
%TO.N,Net-(J2-Pin_3)*%
X234335800Y-53031900D03*
%TO.N,Net-(J2-Pin_4)*%
X238502400Y-59090000D03*
%TO.N,Net-(J2-Pin_10)*%
X243763500Y-58300000D03*
%TO.N,Net-(J2-Pin_21)*%
X163577600Y-25839500D03*
%TO.N,Net-(J2-Pin_11)*%
X245076400Y-61435000D03*
%TO.N,Net-(J2-Pin_22)*%
X170395400Y-24868200D03*
%TO.N,Net-(J2-Pin_12)*%
X246865300Y-61523300D03*
%TO.N,Net-(J2-Pin_27)*%
X261868000Y-92782500D03*
%TO.N,Net-(J2-Pin_5)*%
X239296100Y-62050000D03*
%TD*%
D18*
%TO.N,+12V*%
X149160000Y-47305000D02*
X145065000Y-51400000D01*
X145300000Y-120300000D02*
X142265000Y-117265000D01*
X219880700Y-66019300D02*
X219600000Y-66300000D01*
X145065000Y-63500000D02*
X142265000Y-66300000D01*
X175050000Y-135250000D02*
X187600000Y-147800000D01*
X220900000Y-48400700D02*
X219880700Y-49420000D01*
X187600000Y-147800000D02*
X187600000Y-149700000D01*
X142265000Y-117265000D02*
X142265000Y-66300000D01*
X220900000Y-39100000D02*
X220900000Y-48400700D01*
X190965000Y-27200000D02*
X190965000Y-50400000D01*
X258041000Y-128441000D02*
X258041000Y-119940000D01*
X174800000Y-135000000D02*
X175050000Y-135250000D01*
X219880700Y-49420000D02*
X219880700Y-66019300D01*
X264500000Y-134900000D02*
X258041000Y-128441000D01*
X145065000Y-51400000D02*
X145065000Y-63500000D01*
X175050000Y-135250000D02*
X189300000Y-121000000D01*
X190965000Y-50400000D02*
X189965000Y-51400000D01*
X149160000Y-25300000D02*
X149160000Y-47305000D01*
%TO.N,Net-(D2-K)*%
X165540000Y-82400000D02*
X169325000Y-78615000D01*
X169325000Y-78615000D02*
X169325000Y-51400000D01*
%TO.N,Net-(D5-K)*%
X147965000Y-83000000D02*
X147837400Y-82872400D01*
X147837400Y-82872400D02*
X147837400Y-68108800D01*
%TO.N,Net-(D8-K)*%
X207972900Y-58653800D02*
X207972900Y-64220000D01*
X214225000Y-52401700D02*
X207972900Y-58653800D01*
X214225000Y-51200000D02*
X214225000Y-52401700D01*
%TO.N,Net-(D9-K)*%
X184319500Y-73022000D02*
X184321100Y-73022000D01*
X184025000Y-72725900D02*
X184025000Y-66100000D01*
X184321100Y-73022000D02*
X184025000Y-72725900D01*
X184321100Y-73022000D02*
X184319500Y-73022000D01*
%TO.N,Net-(D14-K)*%
X237900700Y-51675100D02*
X237900700Y-60499300D01*
X237968300Y-51607500D02*
X237900700Y-51675100D01*
X237900700Y-60499300D02*
X232300000Y-66100000D01*
%TO.N,Net-(D15-K)*%
X229760000Y-77046100D02*
X229760000Y-66100000D01*
X231733900Y-79020000D02*
X229760000Y-77046100D01*
%TO.N,Net-(D16-K)*%
X262360000Y-67801700D02*
X261815500Y-68346200D01*
X262360000Y-66600000D02*
X262360000Y-67801700D01*
X261815500Y-68346200D02*
X261815500Y-78488200D01*
%TO.N,Net-(D20-K)*%
X163073200Y-125488500D02*
X163073200Y-133265800D01*
X167460000Y-121101700D02*
X163073200Y-125488500D01*
X167460000Y-119900000D02*
X167460000Y-121101700D01*
%TO.N,Net-(D26-K)*%
X207872900Y-132831000D02*
X207872900Y-133335000D01*
X210842500Y-131301700D02*
X209402200Y-131301700D01*
X209402200Y-131301700D02*
X207872900Y-132831000D01*
X215060000Y-120800000D02*
X215060000Y-127084200D01*
X215060000Y-127084200D02*
X210842500Y-131301700D01*
%TO.N,Net-(D29-K)*%
X219500000Y-138641700D02*
X219500000Y-149600000D01*
X216760000Y-134700000D02*
X216760000Y-135901700D01*
X216760000Y-135901700D02*
X219500000Y-138641700D01*
%TO.N,Net-(D36-K)*%
X264109800Y-131446200D02*
X265718900Y-133055300D01*
X262060000Y-149600000D02*
X262060000Y-148398300D01*
X265718900Y-144739400D02*
X262060000Y-148398300D01*
X265718900Y-133055300D02*
X265718900Y-144739400D01*
%TO.N,GND*%
X209424100Y-133841700D02*
X208898300Y-134367500D01*
X209950000Y-132790000D02*
X209950000Y-133841700D01*
X164800000Y-137820000D02*
X164800000Y-136768300D01*
X194450000Y-67090000D02*
X194450000Y-66038300D01*
X210150000Y-67144100D02*
X210805400Y-67799500D01*
X210675900Y-63641700D02*
X211201700Y-64167500D01*
X194250000Y-137290000D02*
X194250000Y-136238300D01*
X164800000Y-136768300D02*
X164274100Y-136768300D01*
X210150000Y-62590000D02*
X210150000Y-63641700D01*
X198590000Y-101150000D02*
X198590000Y-72281700D01*
X164800000Y-67820000D02*
X164800000Y-66768300D01*
X243917800Y-102473900D02*
X244090000Y-102301700D01*
X254198300Y-66192500D02*
X254724100Y-66718300D01*
X209424100Y-136818300D02*
X209950000Y-136818300D01*
X243917800Y-132091700D02*
X243917800Y-102473900D01*
X164361600Y-66768300D02*
X164800000Y-66768300D01*
X209950000Y-133841700D02*
X209424100Y-133841700D01*
X211201700Y-66092500D02*
X210675900Y-66618300D01*
X255675900Y-133641700D02*
X255150000Y-133641700D01*
X198590000Y-132424100D02*
X194775800Y-136238300D01*
X239450000Y-136204600D02*
X239804900Y-136204600D01*
X164274100Y-133791700D02*
X164800000Y-133791700D01*
X164361600Y-63791700D02*
X163748300Y-64405000D01*
X164800000Y-132740000D02*
X164800000Y-133791700D01*
X210150000Y-67144100D02*
X210150000Y-66618300D01*
X163748300Y-66155000D02*
X164361600Y-66768300D01*
X196174300Y-64839800D02*
X194975800Y-66038300D01*
X210150000Y-63641700D02*
X210675900Y-63641700D01*
X254724100Y-66718300D02*
X255250000Y-66718300D01*
X194450000Y-67090000D02*
X194450000Y-68141700D01*
X198590000Y-72281700D02*
X194450000Y-68141700D01*
X164800000Y-62740000D02*
X164800000Y-63791700D01*
X163748300Y-134317500D02*
X164274100Y-133791700D01*
X239804900Y-136204600D02*
X243917800Y-132091700D01*
X244090000Y-101150000D02*
X244090000Y-102301700D01*
X194975800Y-66038300D02*
X194450000Y-66038300D01*
X255675900Y-136618300D02*
X256201700Y-136092500D01*
X164800000Y-63791700D02*
X164361600Y-63791700D01*
X163748300Y-64405000D02*
X163748300Y-66155000D01*
X255250000Y-63741700D02*
X254724100Y-63741700D01*
X194775800Y-136238300D02*
X194250000Y-136238300D01*
X210805400Y-67799500D02*
X210805400Y-76060000D01*
X254198300Y-64267500D02*
X254198300Y-66192500D01*
X211201700Y-64167500D02*
X211201700Y-66092500D01*
X255150000Y-137670000D02*
X255150000Y-136618300D01*
X208898300Y-134367500D02*
X208898300Y-136292500D01*
X163748300Y-136242500D02*
X163748300Y-134317500D01*
X198590000Y-101150000D02*
X198590000Y-132424100D01*
X239450000Y-137090000D02*
X239450000Y-136204600D01*
X164274100Y-136768300D02*
X163748300Y-136242500D01*
X255150000Y-132590000D02*
X255150000Y-133641700D01*
X256201700Y-134167500D02*
X255675900Y-133641700D01*
X255150000Y-136618300D02*
X255675900Y-136618300D01*
X210150000Y-67670000D02*
X210150000Y-67144100D01*
X209950000Y-137870000D02*
X209950000Y-136818300D01*
X255250000Y-62690000D02*
X255250000Y-63741700D01*
X196174300Y-44113800D02*
X196174300Y-64839800D01*
X256201700Y-136092500D02*
X256201700Y-134167500D01*
X208898300Y-136292500D02*
X209424100Y-136818300D01*
X210675900Y-66618300D02*
X210150000Y-66618300D01*
X255250000Y-67770000D02*
X255250000Y-66718300D01*
X254724100Y-63741700D02*
X254198300Y-64267500D01*
%TO.N,Net-(J2-Pin_2)*%
X232335100Y-30804900D02*
X232335100Y-56727900D01*
X232335100Y-56727900D02*
X234697200Y-59090000D01*
X235140000Y-28000000D02*
X232335100Y-30804900D01*
%TO.N,Net-(J2-Pin_1)*%
X164800000Y-60200000D02*
X164800000Y-29938600D01*
X164800000Y-29938600D02*
X169503100Y-25235500D01*
%TO.N,Net-(J2-Pin_20)*%
X248601000Y-98650200D02*
X248601000Y-68532800D01*
X252172000Y-64961800D02*
X252172000Y-33828000D01*
X248601000Y-68532800D02*
X252172000Y-64961800D01*
X252172000Y-33828000D02*
X258000000Y-28000000D01*
%TO.N,Net-(J2-Pin_23)*%
X252731700Y-65170400D02*
X252731700Y-37695500D01*
X249406000Y-99140400D02*
X249406000Y-68496100D01*
X252731700Y-37695500D02*
X261810000Y-28617200D01*
X261810000Y-26730000D02*
X263080000Y-25460000D01*
X249406000Y-68496100D02*
X252731700Y-65170400D01*
X261810000Y-28617200D02*
X261810000Y-26730000D01*
%TO.N,Net-(J2-Pin_26)*%
X263629900Y-88813200D02*
X263629900Y-62887600D01*
X263629900Y-62887600D02*
X265620000Y-60897500D01*
X261771100Y-90672000D02*
X263629900Y-88813200D01*
X265620000Y-60897500D02*
X265620000Y-28000000D01*
%TO.N,Net-(J2-Pin_16)*%
X255150000Y-130050000D02*
X255150000Y-128998300D01*
X251541000Y-30088500D02*
X252920000Y-28709500D01*
X247985300Y-66492200D02*
X251541000Y-62936500D01*
X247985300Y-121833600D02*
X247985300Y-66492200D01*
X255150000Y-128998300D02*
X247985300Y-121833600D01*
X251541000Y-62936500D02*
X251541000Y-30088500D01*
X252920000Y-28709500D02*
X252920000Y-28000000D01*
%TO.N,Net-(J2-Pin_13)*%
X206043200Y-42843900D02*
X226135600Y-22751500D01*
X193283900Y-45291200D02*
X195731200Y-42843900D01*
X226135600Y-22751500D02*
X247671500Y-22751500D01*
X247671500Y-22751500D02*
X250380000Y-25460000D01*
X193283900Y-52478400D02*
X193283900Y-45291200D01*
X195731200Y-42843900D02*
X206043200Y-42843900D01*
X187866700Y-105981600D02*
X187866700Y-57895600D01*
X187866700Y-57895600D02*
X193283900Y-52478400D01*
X164800000Y-130200000D02*
X164800000Y-129048300D01*
X164800000Y-129048300D02*
X187866700Y-105981600D01*
%TO.N,Net-(J2-Pin_18)*%
X239450000Y-134550000D02*
X239450000Y-133498300D01*
X249622300Y-61787900D02*
X249622300Y-31660000D01*
X239450000Y-133498300D02*
X239450000Y-71960200D01*
X239450000Y-71960200D02*
X249622300Y-61787900D01*
%TO.N,Net-(J2-Pin_28)*%
X267291800Y-28868200D02*
X268160000Y-28000000D01*
X267291800Y-88209600D02*
X267291800Y-28868200D01*
X261366900Y-93820000D02*
X261681400Y-93820000D01*
X261681400Y-93820000D02*
X267291800Y-88209600D01*
%TO.N,Net-(J2-Pin_17)*%
X250380000Y-63302200D02*
X245341700Y-68340500D01*
X251650000Y-27447000D02*
X251650000Y-28916400D01*
X245341700Y-125321700D02*
X255150000Y-135130000D01*
X245341700Y-68340500D02*
X245341700Y-125321700D01*
X252367000Y-26730000D02*
X251650000Y-27447000D01*
X251650000Y-28916400D02*
X250380000Y-30186400D01*
X250380000Y-30186400D02*
X250380000Y-63302200D01*
X254190000Y-26730000D02*
X252367000Y-26730000D01*
X255460000Y-25460000D02*
X254190000Y-26730000D01*
%TO.N,Net-(J2-Pin_15)*%
X180366600Y-102281700D02*
X149100000Y-133548300D01*
X249709800Y-22249800D02*
X215615800Y-22249800D01*
X180366600Y-64686200D02*
X180366600Y-102281700D01*
X215615800Y-22249800D02*
X192782200Y-45083400D01*
X252920000Y-25460000D02*
X249709800Y-22249800D01*
X149100000Y-134700000D02*
X149100000Y-133548300D01*
X192782200Y-45083400D02*
X192782200Y-52270600D01*
X192782200Y-52270600D02*
X180366600Y-64686200D01*
%TO.N,Net-(J2-Pin_24)*%
X258203000Y-32877000D02*
X263080000Y-28000000D01*
X249170000Y-101150000D02*
X258203000Y-92117000D01*
X258203000Y-92117000D02*
X258203000Y-32877000D01*
%TO.N,Net-(J2-Pin_14)*%
X226938700Y-23253200D02*
X247458700Y-23253200D01*
X195876400Y-43408200D02*
X206783700Y-43408200D01*
X249091700Y-24886200D02*
X249091700Y-26711700D01*
X189390400Y-110689600D02*
X189390400Y-59349700D01*
X206783700Y-43408200D02*
X226938700Y-23253200D01*
X249091700Y-26711700D02*
X250380000Y-28000000D01*
X193962300Y-45322300D02*
X195876400Y-43408200D01*
X193962300Y-54777800D02*
X193962300Y-45322300D01*
X189390400Y-59349700D02*
X193962300Y-54777800D01*
X247458700Y-23253200D02*
X249091700Y-24886200D01*
X164800000Y-135280000D02*
X189390400Y-110689600D01*
%TO.N,Net-(J2-Pin_3)*%
X236410000Y-44042000D02*
X236410000Y-26730000D01*
X236410000Y-26730000D02*
X237680000Y-25460000D01*
X234830000Y-45622000D02*
X236410000Y-44042000D01*
X234830000Y-52537700D02*
X234830000Y-45622000D01*
X234335800Y-53031900D02*
X234830000Y-52537700D01*
%TO.N,Net-(J2-Pin_4)*%
X238602400Y-28922400D02*
X237680000Y-28000000D01*
X238602400Y-58990000D02*
X238602400Y-28922400D01*
X238502400Y-59090000D02*
X238602400Y-58990000D01*
%TO.N,Net-(J2-Pin_10)*%
X245298500Y-58300000D02*
X243763500Y-58300000D01*
X245300000Y-28000000D02*
X245300000Y-58298500D01*
X243763500Y-58300000D02*
X245298500Y-58300000D01*
X245300000Y-58298500D02*
X245298500Y-58300000D01*
%TO.N,Net-(J2-Pin_21)*%
X158100000Y-101300000D02*
X158100000Y-31317100D01*
X158100000Y-31317100D02*
X163577600Y-25839500D01*
%TO.N,Net-(J2-Pin_11)*%
X245076400Y-61435000D02*
X246570000Y-59941400D01*
X246570000Y-26730000D02*
X247840000Y-25460000D01*
X246570000Y-59941400D02*
X246570000Y-26730000D01*
%TO.N,Net-(J2-Pin_22)*%
X160640000Y-56824700D02*
X170395400Y-47069300D01*
X160640000Y-101300000D02*
X160640000Y-56824700D01*
X170395400Y-47069300D02*
X170395400Y-24868200D01*
%TO.N,Net-(J2-Pin_7)*%
X241562500Y-24262500D02*
X242760000Y-25460000D01*
X227721300Y-30703900D02*
X234162700Y-24262500D01*
X209950000Y-130250000D02*
X209950000Y-92100700D01*
X209950000Y-92100700D02*
X227721300Y-74329400D01*
X227721300Y-74329400D02*
X227721300Y-30703900D01*
X234162700Y-24262500D02*
X241562500Y-24262500D01*
%TO.N,Net-(J2-Pin_9)*%
X243594900Y-23754900D02*
X245300000Y-25460000D01*
X194250000Y-134750000D02*
X193098300Y-135901700D01*
X193098300Y-138235900D02*
X193341500Y-138479100D01*
X207634700Y-87665300D02*
X222201700Y-73098300D01*
X193341500Y-138479100D02*
X195131600Y-138479100D01*
X222201700Y-35505700D02*
X233952500Y-23754900D01*
X195131600Y-138479100D02*
X207634700Y-125976000D01*
X193098300Y-135901700D02*
X193098300Y-138235900D01*
X233952500Y-23754900D02*
X243594900Y-23754900D01*
X207634700Y-125976000D02*
X207634700Y-87665300D01*
X222201700Y-73098300D02*
X222201700Y-35505700D01*
%TO.N,Net-(J2-Pin_12)*%
X247840000Y-60548600D02*
X246865300Y-61523300D01*
X247840000Y-28000000D02*
X247840000Y-60548600D01*
%TO.N,Net-(J2-Pin_25)*%
X260694900Y-48793400D02*
X264350000Y-45138300D01*
X264350000Y-45138300D02*
X264350000Y-26730000D01*
X264350000Y-26730000D02*
X265620000Y-25460000D01*
X251710000Y-101150000D02*
X260694900Y-92165100D01*
X260694900Y-92165100D02*
X260694900Y-48793400D01*
%TO.N,Net-(J2-Pin_27)*%
X266890000Y-87760500D02*
X266890000Y-26730000D01*
X261868000Y-92782500D02*
X266890000Y-87760500D01*
X266890000Y-26730000D02*
X268160000Y-25460000D01*
%TO.N,Net-(J2-Pin_8)*%
X231906500Y-112847600D02*
X231906500Y-83399900D01*
X237622400Y-71254900D02*
X242760000Y-66117300D01*
X210475800Y-134278300D02*
X231906500Y-112847600D01*
X237622400Y-77684000D02*
X237622400Y-71254900D01*
X231906500Y-83399900D02*
X237622400Y-77684000D01*
X209950000Y-135330000D02*
X209950000Y-134278300D01*
X209950000Y-134278300D02*
X210475800Y-134278300D01*
X242760000Y-66117300D02*
X242760000Y-28000000D01*
%TO.N,Net-(J2-Pin_5)*%
X239038000Y-26642000D02*
X240220000Y-25460000D01*
X239038000Y-51808500D02*
X239038000Y-26642000D01*
X239296100Y-52066600D02*
X239038000Y-51808500D01*
X239296100Y-62050000D02*
X239296100Y-52066600D01*
%TO.N,Net-(J2-Pin_6)*%
X239550000Y-64650000D02*
X239550000Y-63598300D01*
X240220000Y-62928300D02*
X239550000Y-63598300D01*
X240220000Y-28000000D02*
X240220000Y-62928300D01*
%TO.N,Net-(D37-K)*%
X188425000Y-33975000D02*
X184600000Y-37800000D01*
X188425000Y-27200000D02*
X188425000Y-33975000D01*
%TD*%
M02*
