M48
; DRILL file {KiCad 9.0.2} date 2025-06-29T15:47:55+0200
; FORMAT={-:-/ absolute / metric / decimal}
; #@! TF.CreationDate,2025-06-29T15:47:55+02:00
; #@! TF.GenerationSoftware,Kicad,Pcbnew,9.0.2
; #@! TF.FileFunction,Plated,1,2,PTH
FMAT,2
METRIC
; #@! TA.AperFunction,Plated,PTH,ViaDrill
T1C0.300
; #@! TA.AperFunction,Plated,PTH,ComponentDrill
T2C0.600
; #@! TA.AperFunction,Plated,PTH,ComponentDrill
T3C1.000
; #@! TA.AperFunction,Plated,PTH,ComponentDrill
T4C1.520
%
G90
G05
T1
X145.798Y-55.374
X145.798Y-129.34
X151.532Y-93.82
X152.232Y-131.273
X152.276Y-122.67
X152.939Y-62.473
X161.468Y-29.485
X165.182Y-46.46
X165.923Y-78.931
X166.247Y-52.38
X166.506Y-25.704
X166.987Y-81.98
X175.587Y-137.273
X177.262Y-25.587
X179.28Y-126.371
X181.217Y-138.271
X182.32Y-126.761
X192.615Y-135.16
X193.211Y-23.789
X193.522Y-52.38
X196.174Y-122.453
X197.274Y-27.6
X210.729Y-150.06
X213.954Y-135.26
X219.881Y-23.87
X219.881Y-41.962
X219.898Y-37.124
X220.991Y-64.489
X224.966Y-100.148
X225.806Y-100.579
X231.734Y-99.738
X234.443Y-65.245
X235.517Y-39.581
X236.734Y-51.393
X237.164Y-120.605
X237.398Y-65.917
X237.439Y-135.06
X237.616Y-51.686
X238.42Y-70.14
X239.55Y-79.02
X241.262Y-96.384
X242.53Y-35.184
X243.585Y-70.14
X245.282Y-97.422
X246.222Y-99.382
X250.35Y-87.9
X251.4Y-58.3
X254.452Y-61.42
X254.463Y-120.265
X256.497Y-24.591
X258.281Y-78.82
X259.139Y-32.428
X261.187Y-27.336
X261.301Y-64.078
X261.367Y-126.38
X261.367Y-147.084
X261.445Y-55.34
T2
X149.1Y-64.7
X149.1Y-67.24
X149.1Y-134.7
X149.1Y-137.24
X164.8Y-60.2
X164.8Y-62.74
X164.8Y-65.28
X164.8Y-67.82
X164.8Y-130.2
X164.8Y-132.74
X164.8Y-135.28
X164.8Y-137.82
X194.25Y-134.75
X194.25Y-137.29
X194.45Y-64.55
X194.45Y-67.09
X209.95Y-130.25
X209.95Y-132.79
X209.95Y-135.33
X209.95Y-137.87
X210.15Y-60.05
X210.15Y-62.59
X210.15Y-65.13
X210.15Y-67.67
X239.45Y-134.55
X239.45Y-137.09
X239.55Y-64.65
X239.55Y-67.19
X255.15Y-130.05
X255.15Y-132.59
X255.15Y-135.13
X255.15Y-137.67
X255.25Y-60.15
X255.25Y-62.69
X255.25Y-65.23
X255.25Y-67.77
T3
X153.02Y-101.3
X155.56Y-101.3
X158.1Y-101.3
X160.64Y-101.3
X198.59Y-101.15
X201.13Y-101.15
X201.835Y-38.5
X203.67Y-101.15
X204.375Y-38.5
X206.21Y-101.15
X221.565Y-25.935
X221.565Y-28.475
X224.105Y-25.935
X224.105Y-28.475
X226.645Y-25.935
X226.645Y-28.475
X229.185Y-25.935
X229.185Y-28.475
X231.725Y-25.935
X231.725Y-28.475
X234.265Y-25.935
X234.265Y-28.475
X236.805Y-25.935
X236.805Y-28.475
X239.345Y-25.935
X239.345Y-28.475
X241.885Y-25.935
X241.885Y-28.475
X244.09Y-101.15
X244.425Y-25.935
X244.425Y-28.475
X246.63Y-101.15
X246.965Y-25.935
X246.965Y-28.475
X249.17Y-101.15
X249.505Y-25.935
X249.505Y-28.475
X251.71Y-101.15
X252.045Y-25.935
X252.045Y-28.475
X254.585Y-25.935
X254.585Y-28.475
X257.125Y-25.935
X257.125Y-28.475
X259.665Y-25.935
X259.665Y-28.475
X262.205Y-25.935
X262.205Y-28.475
X264.745Y-25.935
X264.745Y-28.475
X267.285Y-25.935
X267.285Y-28.475
X269.825Y-25.935
X269.825Y-28.475
T4
X143.695Y-25.4
X148.775Y-25.4
X177.31Y-150.4
X182.39Y-150.4
M30
