%TF.GenerationSoftware,KiCad,Pcbnew,9.0.2*%
%TF.CreationDate,2025-06-15T20:52:46+02:00*%
%TF.ProjectId,adirs,61646972-732e-46b6-9963-61645f706362,rev?*%
%TF.SameCoordinates,Original*%
%TF.FileFunction,Copper,L1,Top*%
%TF.FilePolarity,Positive*%
%FSLAX46Y46*%
G04 Gerber Fmt 4.6, Leading zero omitted, Abs format (unit mm)*
G04 Created by KiCad (PCBNEW 9.0.2) date 2025-06-15 20:52:46*
%MOMM*%
%LPD*%
G01*
G04 APERTURE LIST*
G04 Aperture macros list*
%AMRoundRect*
0 Rectangle with rounded corners*
0 $1 Rounding radius*
0 $2 $3 $4 $5 $6 $7 $8 $9 X,Y pos of 4 corners*
0 Add a 4 corners polygon primitive as box body*
4,1,4,$2,$3,$4,$5,$6,$7,$8,$9,$2,$3,0*
0 Add four circle primitives for the rounded corners*
1,1,$1+$1,$2,$3*
1,1,$1+$1,$4,$5*
1,1,$1+$1,$6,$7*
1,1,$1+$1,$8,$9*
0 Add four rect primitives between the rounded corners*
20,1,$1+$1,$2,$3,$4,$5,0*
20,1,$1+$1,$4,$5,$6,$7,0*
20,1,$1+$1,$6,$7,$8,$9,0*
20,1,$1+$1,$8,$9,$2,$3,0*%
G04 Aperture macros list end*
%TA.AperFunction,ComponentPad*%
%ADD10R,1.500000X1.500000*%
%TD*%
%TA.AperFunction,ComponentPad*%
%ADD11R,1.800000X1.800000*%
%TD*%
%TA.AperFunction,ComponentPad*%
%ADD12C,1.800000*%
%TD*%
%TA.AperFunction,SMDPad,CuDef*%
%ADD13RoundRect,0.250000X-0.400000X-0.625000X0.400000X-0.625000X0.400000X0.625000X-0.400000X0.625000X0*%
%TD*%
%TA.AperFunction,ComponentPad*%
%ADD14R,3.000000X3.000000*%
%TD*%
%TA.AperFunction,ComponentPad*%
%ADD15C,3.000000*%
%TD*%
%TA.AperFunction,ComponentPad*%
%ADD16R,1.700000X1.700000*%
%TD*%
%TA.AperFunction,ComponentPad*%
%ADD17C,1.700000*%
%TD*%
%TA.AperFunction,ViaPad*%
%ADD18C,0.600000*%
%TD*%
%TA.AperFunction,Conductor*%
%ADD19C,0.200000*%
%TD*%
G04 APERTURE END LIST*
D10*
%TO.P,KR3,1,+5V_TOP_LED*%
%TO.N,Net-(J2-Pin_4)*%
X255250000Y-60150000D03*
%TO.P,KR3,2,GND_TOP_LED*%
%TO.N,GND*%
X255250000Y-62690000D03*
%TO.P,KR3,3,+5V_BOTTOM_LED*%
%TO.N,Net-(J2-Pin_5)*%
X255250000Y-65230000D03*
%TO.P,KR3,4,GND_BOTTOM_LED*%
%TO.N,GND*%
X255250000Y-67770000D03*
%TO.P,KR3,5,SW_IN*%
%TO.N,Net-(J2-Pin_6)*%
X239550000Y-64650000D03*
%TO.P,KR3,6,SW_OUT*%
%TO.N,GND*%
X239550000Y-67190000D03*
%TD*%
D11*
%TO.P,D35,1,K*%
%TO.N,Net-(D35-K)*%
X230660000Y-149600000D03*
D12*
%TO.P,D35,2,A*%
%TO.N,Net-(D34-K)*%
X233200000Y-149600000D03*
%TD*%
D11*
%TO.P,D29,1,K*%
%TO.N,Net-(D29-K)*%
X216760000Y-134700000D03*
D12*
%TO.P,D29,2,A*%
%TO.N,Net-(D28-K)*%
X219300000Y-134700000D03*
%TD*%
D11*
%TO.P,D33,1,K*%
%TO.N,Net-(D33-K)*%
X230260000Y-134700000D03*
D12*
%TO.P,D33,2,A*%
%TO.N,Net-(D32-K)*%
X232800000Y-134700000D03*
%TD*%
D13*
%TO.P,R14,1*%
%TO.N,Net-(D39-K)*%
X223050000Y-30594400D03*
%TO.P,R14,2*%
%TO.N,GND*%
X226150000Y-30594400D03*
%TD*%
%TO.P,R7,1*%
%TO.N,Net-(D21-K)*%
X137050000Y-126600000D03*
%TO.P,R7,2*%
%TO.N,GND*%
X140150000Y-126600000D03*
%TD*%
D11*
%TO.P,D3,1,K*%
%TO.N,Net-(D3-K)*%
X163000000Y-82400000D03*
D12*
%TO.P,D3,2,A*%
%TO.N,Net-(D2-K)*%
X165540000Y-82400000D03*
%TD*%
D11*
%TO.P,D22,1,K*%
%TO.N,Net-(D22-K)*%
X172260000Y-135000000D03*
D12*
%TO.P,D22,2,A*%
%TO.N,+12V*%
X174800000Y-135000000D03*
%TD*%
D11*
%TO.P,D19,1,K*%
%TO.N,Net-(D19-K)*%
X142760000Y-120300000D03*
D12*
%TO.P,D19,2,A*%
%TO.N,+12V*%
X145300000Y-120300000D03*
%TD*%
D11*
%TO.P,D13,1,K*%
%TO.N,Net-(D13-K)*%
X233560000Y-51200000D03*
D12*
%TO.P,D13,2,A*%
%TO.N,+12V*%
X236100000Y-51200000D03*
%TD*%
D11*
%TO.P,D16,1,K*%
%TO.N,Net-(D16-K)*%
X262360000Y-66600000D03*
D12*
%TO.P,D16,2,A*%
%TO.N,+12V*%
X264900000Y-66600000D03*
%TD*%
D13*
%TO.P,R8,1*%
%TO.N,Net-(D24-K)*%
X178050000Y-142100000D03*
%TO.P,R8,2*%
%TO.N,GND*%
X181150000Y-142100000D03*
%TD*%
D11*
%TO.P,D8,1,K*%
%TO.N,Net-(D8-K)*%
X214225000Y-51200000D03*
D12*
%TO.P,D8,2,A*%
%TO.N,Net-(D7-K)*%
X216765000Y-51200000D03*
%TD*%
D10*
%TO.P,KR5,1,+5V_TOP_LED*%
%TO.N,Net-(J2-Pin_7)*%
X209950000Y-130250000D03*
%TO.P,KR5,2,GND_TOP_LED*%
%TO.N,GND*%
X209950000Y-132790000D03*
%TO.P,KR5,3,+5V_BOTTOM_LED*%
%TO.N,Net-(J2-Pin_8)*%
X209950000Y-135330000D03*
%TO.P,KR5,4,GND_BOTTOM_LED*%
%TO.N,GND*%
X209950000Y-137870000D03*
%TO.P,KR5,5,SW_IN*%
%TO.N,Net-(J2-Pin_9)*%
X194250000Y-134750000D03*
%TO.P,KR5,6,SW_OUT*%
%TO.N,GND*%
X194250000Y-137290000D03*
%TD*%
D11*
%TO.P,D25,1,K*%
%TO.N,Net-(D25-K)*%
X186760000Y-121000000D03*
D12*
%TO.P,D25,2,A*%
%TO.N,+12V*%
X189300000Y-121000000D03*
%TD*%
D14*
%TO.P,J1,1,Pin_1*%
%TO.N,GND*%
X154240000Y-25300000D03*
D15*
%TO.P,J1,2,Pin_2*%
%TO.N,+12V*%
X149160000Y-25300000D03*
%TD*%
D11*
%TO.P,D21,1,K*%
%TO.N,Net-(D21-K)*%
X138960000Y-135100000D03*
D12*
%TO.P,D21,2,A*%
%TO.N,Net-(D20-K)*%
X141500000Y-135100000D03*
%TD*%
D11*
%TO.P,D10,1,K*%
%TO.N,Net-(D10-K)*%
X217060000Y-66300000D03*
D12*
%TO.P,D10,2,A*%
%TO.N,+12V*%
X219600000Y-66300000D03*
%TD*%
D11*
%TO.P,D32,1,K*%
%TO.N,Net-(D32-K)*%
X260060000Y-121000000D03*
D12*
%TO.P,D32,2,A*%
%TO.N,Net-(D31-K)*%
X262600000Y-121000000D03*
%TD*%
D13*
%TO.P,R10,1*%
%TO.N,Net-(D30-K)*%
X223100000Y-142400000D03*
%TO.P,R10,2*%
%TO.N,GND*%
X226200000Y-142400000D03*
%TD*%
D11*
%TO.P,D12,1,K*%
%TO.N,Net-(D12-K)*%
X208460000Y-82200000D03*
D12*
%TO.P,D12,2,A*%
%TO.N,Net-(D11-K)*%
X211000000Y-82200000D03*
%TD*%
D10*
%TO.P,KR6,1,+5V_TOP_LED*%
%TO.N,Net-(J2-Pin_16)*%
X255150000Y-130050000D03*
%TO.P,KR6,2,GND_TOP_LED*%
%TO.N,GND*%
X255150000Y-132590000D03*
%TO.P,KR6,3,+5V_BOTTOM_LED*%
%TO.N,Net-(J2-Pin_17)*%
X255150000Y-135130000D03*
%TO.P,KR6,4,GND_BOTTOM_LED*%
%TO.N,GND*%
X255150000Y-137670000D03*
%TO.P,KR6,5,SW_IN*%
%TO.N,Net-(J2-Pin_18)*%
X239450000Y-134550000D03*
%TO.P,KR6,6,SW_OUT*%
%TO.N,GND*%
X239450000Y-137090000D03*
%TD*%
D16*
%TO.P,J6,1,Pin_1*%
%TO.N,GND*%
X198590000Y-101150000D03*
D17*
%TO.P,J6,2,Pin_2*%
%TO.N,Net-(J2-Pin_26)*%
X201130000Y-101150000D03*
%TO.P,J6,3,Pin_3*%
%TO.N,Net-(J2-Pin_27)*%
X203670000Y-101150000D03*
%TO.P,J6,4,Pin_4*%
%TO.N,Net-(J2-Pin_28)*%
X206210000Y-101150000D03*
%TD*%
D11*
%TO.P,D9,1,K*%
%TO.N,Net-(D9-K)*%
X184025000Y-66100000D03*
D12*
%TO.P,D9,2,A*%
%TO.N,Net-(D8-K)*%
X186565000Y-66100000D03*
%TD*%
D11*
%TO.P,D30,1,K*%
%TO.N,Net-(D30-K)*%
X216960000Y-149600000D03*
D12*
%TO.P,D30,2,A*%
%TO.N,Net-(D29-K)*%
X219500000Y-149600000D03*
%TD*%
D11*
%TO.P,D14,1,K*%
%TO.N,Net-(D14-K)*%
X259425000Y-51000000D03*
D12*
%TO.P,D14,2,A*%
%TO.N,Net-(D13-K)*%
X261965000Y-51000000D03*
%TD*%
D13*
%TO.P,R12,1*%
%TO.N,Net-(D36-K)*%
X266350000Y-127300000D03*
%TO.P,R12,2*%
%TO.N,GND*%
X269450000Y-127300000D03*
%TD*%
%TO.P,R4,1*%
%TO.N,Net-(D12-K)*%
X216450000Y-80100000D03*
%TO.P,R4,2*%
%TO.N,GND*%
X219550000Y-80100000D03*
%TD*%
%TO.P,R2,1*%
%TO.N,Net-(D6-K)*%
X171650000Y-92400000D03*
%TO.P,R2,2*%
%TO.N,GND*%
X174750000Y-92400000D03*
%TD*%
D16*
%TO.P,J4,1,Pin_1*%
%TO.N,GND*%
X153020000Y-101300000D03*
D17*
%TO.P,J4,2,Pin_2*%
%TO.N,Net-(J2-Pin_20)*%
X155560000Y-101300000D03*
%TO.P,J4,3,Pin_3*%
%TO.N,Net-(J2-Pin_21)*%
X158100000Y-101300000D03*
%TO.P,J4,4,Pin_4*%
%TO.N,Net-(J2-Pin_22)*%
X160640000Y-101300000D03*
%TD*%
D10*
%TO.P,KR4,1,+5V_TOP_LED*%
%TO.N,Net-(J2-Pin_13)*%
X164800000Y-130200000D03*
%TO.P,KR4,2,GND_TOP_LED*%
%TO.N,GND*%
X164800000Y-132740000D03*
%TO.P,KR4,3,+5V_BOTTOM_LED*%
%TO.N,Net-(J2-Pin_14)*%
X164800000Y-135280000D03*
%TO.P,KR4,4,GND_BOTTOM_LED*%
%TO.N,GND*%
X164800000Y-137820000D03*
%TO.P,KR4,5,SW_IN*%
%TO.N,Net-(J2-Pin_15)*%
X149100000Y-134700000D03*
%TO.P,KR4,6,SW_OUT*%
%TO.N,GND*%
X149100000Y-137240000D03*
%TD*%
D11*
%TO.P,D15,1,K*%
%TO.N,Net-(D15-K)*%
X229760000Y-66100000D03*
D12*
%TO.P,D15,2,A*%
%TO.N,Net-(D14-K)*%
X232300000Y-66100000D03*
%TD*%
D11*
%TO.P,D5,1,K*%
%TO.N,Net-(D5-K)*%
X172025000Y-66000000D03*
D12*
%TO.P,D5,2,A*%
%TO.N,Net-(D4-K)*%
X174565000Y-66000000D03*
%TD*%
D16*
%TO.P,J5,1,Pin_1*%
%TO.N,GND*%
X244090000Y-101150000D03*
D17*
%TO.P,J5,2,Pin_2*%
%TO.N,Net-(J2-Pin_23)*%
X246630000Y-101150000D03*
%TO.P,J5,3,Pin_3*%
%TO.N,Net-(J2-Pin_24)*%
X249170000Y-101150000D03*
%TO.P,J5,4,Pin_4*%
%TO.N,Net-(J2-Pin_25)*%
X251710000Y-101150000D03*
%TD*%
D11*
%TO.P,D23,1,K*%
%TO.N,Net-(D23-K)*%
X140460000Y-148600000D03*
D12*
%TO.P,D23,2,A*%
%TO.N,Net-(D22-K)*%
X143000000Y-148600000D03*
%TD*%
D11*
%TO.P,D17,1,K*%
%TO.N,Net-(D17-K)*%
X234960000Y-82600000D03*
D12*
%TO.P,D17,2,A*%
%TO.N,Net-(D16-K)*%
X237500000Y-82600000D03*
%TD*%
D13*
%TO.P,R3,1*%
%TO.N,Net-(D9-K)*%
X182450000Y-75300000D03*
%TO.P,R3,2*%
%TO.N,GND*%
X185550000Y-75300000D03*
%TD*%
%TO.P,R11,1*%
%TO.N,Net-(D33-K)*%
X222650000Y-127300000D03*
%TO.P,R11,2*%
%TO.N,GND*%
X225750000Y-127300000D03*
%TD*%
%TO.P,R15,1*%
%TO.N,Net-(D40-K)*%
X227050000Y-39300000D03*
%TO.P,R15,2*%
%TO.N,GND*%
X230150000Y-39300000D03*
%TD*%
%TO.P,R5,1*%
%TO.N,Net-(D15-K)*%
X225350000Y-80000000D03*
%TO.P,R5,2*%
%TO.N,GND*%
X228450000Y-80000000D03*
%TD*%
D11*
%TO.P,D40,1,K*%
%TO.N,Net-(D40-K)*%
X218360000Y-39100000D03*
D12*
%TO.P,D40,2,A*%
%TO.N,+12V*%
X220900000Y-39100000D03*
%TD*%
D11*
%TO.P,D2,1,K*%
%TO.N,Net-(D2-K)*%
X169325000Y-51400000D03*
D12*
%TO.P,D2,2,A*%
%TO.N,Net-(D1-K)*%
X171865000Y-51400000D03*
%TD*%
D11*
%TO.P,D39,1,K*%
%TO.N,Net-(D39-K)*%
X213260000Y-27400000D03*
D12*
%TO.P,D39,2,A*%
%TO.N,Net-(D38-K)*%
X215800000Y-27400000D03*
%TD*%
D11*
%TO.P,D1,1,K*%
%TO.N,Net-(D1-K)*%
X142525000Y-51400000D03*
D12*
%TO.P,D1,2,A*%
%TO.N,+12V*%
X145065000Y-51400000D03*
%TD*%
D11*
%TO.P,D37,1,K*%
%TO.N,Net-(D37-K)*%
X188425000Y-27200000D03*
D12*
%TO.P,D37,2,A*%
%TO.N,+12V*%
X190965000Y-27200000D03*
%TD*%
D16*
%TO.P,J3,1,Pin_1*%
%TO.N,Net-(J3-Pin_1)*%
X204375000Y-38500000D03*
D17*
%TO.P,J3,2,Pin_2*%
%TO.N,Net-(J2-Pin_19)*%
X201835000Y-38500000D03*
%TD*%
D13*
%TO.P,R13,1*%
%TO.N,GND*%
X177650000Y-42900000D03*
%TO.P,R13,2*%
%TO.N,Net-(J3-Pin_1)*%
X180750000Y-42900000D03*
%TD*%
D11*
%TO.P,D34,1,K*%
%TO.N,Net-(D34-K)*%
X261960000Y-134900000D03*
D12*
%TO.P,D34,2,A*%
%TO.N,+12V*%
X264500000Y-134900000D03*
%TD*%
D10*
%TO.P,KR1,1,+5V_TOP_LED*%
%TO.N,Net-(J2-Pin_1)*%
X164800000Y-60200000D03*
%TO.P,KR1,2,GND_TOP_LED*%
%TO.N,GND*%
X164800000Y-62740000D03*
%TO.P,KR1,3,+5V_BOTTOM_LED*%
%TO.N,Net-(J2-Pin_2)*%
X164800000Y-65280000D03*
%TO.P,KR1,4,GND_BOTTOM_LED*%
%TO.N,GND*%
X164800000Y-67820000D03*
%TO.P,KR1,5,SW_IN*%
%TO.N,Net-(J2-Pin_3)*%
X149100000Y-64700000D03*
%TO.P,KR1,6,SW_OUT*%
%TO.N,GND*%
X149100000Y-67240000D03*
%TD*%
D13*
%TO.P,R9,1*%
%TO.N,Net-(D27-K)*%
X178050000Y-126800000D03*
%TO.P,R9,2*%
%TO.N,GND*%
X181150000Y-126800000D03*
%TD*%
%TO.P,R1,1*%
%TO.N,Net-(D3-K)*%
X171650000Y-80900000D03*
%TO.P,R1,2*%
%TO.N,GND*%
X174750000Y-80900000D03*
%TD*%
D11*
%TO.P,D24,1,K*%
%TO.N,Net-(D24-K)*%
X171860000Y-149700000D03*
D12*
%TO.P,D24,2,A*%
%TO.N,Net-(D23-K)*%
X174400000Y-149700000D03*
%TD*%
D11*
%TO.P,D26,1,K*%
%TO.N,Net-(D26-K)*%
X215060000Y-120800000D03*
D12*
%TO.P,D26,2,A*%
%TO.N,Net-(D25-K)*%
X217600000Y-120800000D03*
%TD*%
D11*
%TO.P,D7,1,K*%
%TO.N,Net-(D7-K)*%
X187425000Y-51400000D03*
D12*
%TO.P,D7,2,A*%
%TO.N,+12V*%
X189965000Y-51400000D03*
%TD*%
D11*
%TO.P,D4,1,K*%
%TO.N,Net-(D4-K)*%
X139725000Y-66300000D03*
D12*
%TO.P,D4,2,A*%
%TO.N,+12V*%
X142265000Y-66300000D03*
%TD*%
D11*
%TO.P,D11,1,K*%
%TO.N,Net-(D11-K)*%
X191160000Y-82700000D03*
D12*
%TO.P,D11,2,A*%
%TO.N,Net-(D10-K)*%
X193700000Y-82700000D03*
%TD*%
D11*
%TO.P,D36,1,K*%
%TO.N,Net-(D36-K)*%
X262060000Y-149600000D03*
D12*
%TO.P,D36,2,A*%
%TO.N,Net-(D35-K)*%
X264600000Y-149600000D03*
%TD*%
D11*
%TO.P,D20,1,K*%
%TO.N,Net-(D20-K)*%
X167460000Y-119900000D03*
D12*
%TO.P,D20,2,A*%
%TO.N,Net-(D19-K)*%
X170000000Y-119900000D03*
%TD*%
D13*
%TO.P,R6,1*%
%TO.N,Net-(D18-K)*%
X262600000Y-80300000D03*
%TO.P,R6,2*%
%TO.N,GND*%
X265700000Y-80300000D03*
%TD*%
D11*
%TO.P,D27,1,K*%
%TO.N,Net-(D27-K)*%
X185260000Y-135000000D03*
D12*
%TO.P,D27,2,A*%
%TO.N,Net-(D26-K)*%
X187800000Y-135000000D03*
%TD*%
D11*
%TO.P,D31,1,K*%
%TO.N,Net-(D31-K)*%
X231260000Y-121300000D03*
D12*
%TO.P,D31,2,A*%
%TO.N,+12V*%
X233800000Y-121300000D03*
%TD*%
D11*
%TO.P,D38,1,K*%
%TO.N,Net-(D38-K)*%
X182060000Y-37800000D03*
D12*
%TO.P,D38,2,A*%
%TO.N,Net-(D37-K)*%
X184600000Y-37800000D03*
%TD*%
D11*
%TO.P,D28,1,K*%
%TO.N,Net-(D28-K)*%
X185060000Y-149700000D03*
D12*
%TO.P,D28,2,A*%
%TO.N,+12V*%
X187600000Y-149700000D03*
%TD*%
D11*
%TO.P,D18,1,K*%
%TO.N,Net-(D18-K)*%
X253860000Y-81900000D03*
D12*
%TO.P,D18,2,A*%
%TO.N,Net-(D17-K)*%
X256400000Y-81900000D03*
%TD*%
D10*
%TO.P,KR2,1,+5V_TOP_LED*%
%TO.N,Net-(J2-Pin_10)*%
X210150000Y-60050000D03*
%TO.P,KR2,2,GND_TOP_LED*%
%TO.N,GND*%
X210150000Y-62590000D03*
%TO.P,KR2,3,+5V_BOTTOM_LED*%
%TO.N,Net-(J2-Pin_11)*%
X210150000Y-65130000D03*
%TO.P,KR2,4,GND_BOTTOM_LED*%
%TO.N,GND*%
X210150000Y-67670000D03*
%TO.P,KR2,5,SW_IN*%
%TO.N,Net-(J2-Pin_12)*%
X194450000Y-64550000D03*
%TO.P,KR2,6,SW_OUT*%
%TO.N,GND*%
X194450000Y-67090000D03*
%TD*%
D11*
%TO.P,D6,1,K*%
%TO.N,Net-(D6-K)*%
X145425000Y-83000000D03*
D12*
%TO.P,D6,2,A*%
%TO.N,Net-(D5-K)*%
X147965000Y-83000000D03*
%TD*%
D16*
%TO.P,J2,1,Pin_1*%
%TO.N,Net-(J2-Pin_1)*%
X235140000Y-25460000D03*
D17*
%TO.P,J2,2,Pin_2*%
%TO.N,Net-(J2-Pin_2)*%
X235140000Y-28000000D03*
%TO.P,J2,3,Pin_3*%
%TO.N,Net-(J2-Pin_3)*%
X237680000Y-25460000D03*
%TO.P,J2,4,Pin_4*%
%TO.N,Net-(J2-Pin_4)*%
X237680000Y-28000000D03*
%TO.P,J2,5,Pin_5*%
%TO.N,Net-(J2-Pin_5)*%
X240220000Y-25460000D03*
%TO.P,J2,6,Pin_6*%
%TO.N,Net-(J2-Pin_6)*%
X240220000Y-28000000D03*
%TO.P,J2,7,Pin_7*%
%TO.N,Net-(J2-Pin_7)*%
X242760000Y-25460000D03*
%TO.P,J2,8,Pin_8*%
%TO.N,Net-(J2-Pin_8)*%
X242760000Y-28000000D03*
%TO.P,J2,9,Pin_9*%
%TO.N,Net-(J2-Pin_9)*%
X245300000Y-25460000D03*
%TO.P,J2,10,Pin_10*%
%TO.N,Net-(J2-Pin_10)*%
X245300000Y-28000000D03*
%TO.P,J2,11,Pin_11*%
%TO.N,Net-(J2-Pin_11)*%
X247840000Y-25460000D03*
%TO.P,J2,12,Pin_12*%
%TO.N,Net-(J2-Pin_12)*%
X247840000Y-28000000D03*
%TO.P,J2,13,Pin_13*%
%TO.N,Net-(J2-Pin_13)*%
X250380000Y-25460000D03*
%TO.P,J2,14,Pin_14*%
%TO.N,Net-(J2-Pin_14)*%
X250380000Y-28000000D03*
%TO.P,J2,15,Pin_15*%
%TO.N,Net-(J2-Pin_15)*%
X252920000Y-25460000D03*
%TO.P,J2,16,Pin_16*%
%TO.N,Net-(J2-Pin_16)*%
X252920000Y-28000000D03*
%TO.P,J2,17,Pin_17*%
%TO.N,Net-(J2-Pin_17)*%
X255460000Y-25460000D03*
%TO.P,J2,18,Pin_18*%
%TO.N,Net-(J2-Pin_18)*%
X255460000Y-28000000D03*
%TO.P,J2,19,Pin_19*%
%TO.N,Net-(J2-Pin_19)*%
X258000000Y-25460000D03*
%TO.P,J2,20,Pin_20*%
%TO.N,Net-(J2-Pin_20)*%
X258000000Y-28000000D03*
%TO.P,J2,21,Pin_21*%
%TO.N,Net-(J2-Pin_21)*%
X260540000Y-25460000D03*
%TO.P,J2,22,Pin_22*%
%TO.N,Net-(J2-Pin_22)*%
X260540000Y-28000000D03*
%TO.P,J2,23,Pin_23*%
%TO.N,Net-(J2-Pin_23)*%
X263080000Y-25460000D03*
%TO.P,J2,24,Pin_24*%
%TO.N,Net-(J2-Pin_24)*%
X263080000Y-28000000D03*
%TO.P,J2,25,Pin_25*%
%TO.N,Net-(J2-Pin_25)*%
X265620000Y-25460000D03*
%TO.P,J2,26,Pin_26*%
%TO.N,Net-(J2-Pin_26)*%
X265620000Y-28000000D03*
%TO.P,J2,27,Pin_27*%
%TO.N,Net-(J2-Pin_27)*%
X268160000Y-25460000D03*
%TO.P,J2,28,Pin_28*%
%TO.N,Net-(J2-Pin_28)*%
X268160000Y-28000000D03*
%TD*%
D18*
%TO.N,+12V*%
X219880700Y-49420000D03*
X258041000Y-119940000D03*
%TO.N,Net-(D5-K)*%
X147837400Y-68108800D03*
%TO.N,Net-(D8-K)*%
X207972900Y-64220000D03*
%TO.N,Net-(D9-K)*%
X184321100Y-73022000D03*
%TO.N,Net-(D14-K)*%
X237968300Y-51607500D03*
%TO.N,Net-(D15-K)*%
X231733900Y-79020000D03*
%TO.N,Net-(D16-K)*%
X261815500Y-78488200D03*
%TO.N,Net-(D20-K)*%
X163073200Y-133265800D03*
%TO.N,Net-(D26-K)*%
X207872900Y-133335000D03*
%TO.N,Net-(D36-K)*%
X264109800Y-131446200D03*
%TO.N,GND*%
X210805400Y-76060000D03*
X196174300Y-44113800D03*
%TO.N,Net-(J2-Pin_2)*%
X234697200Y-59090000D03*
%TO.N,Net-(J2-Pin_1)*%
X169503100Y-25235500D03*
%TO.N,Net-(J2-Pin_20)*%
X248601000Y-98650200D03*
%TO.N,Net-(J2-Pin_23)*%
X249406000Y-99140400D03*
%TO.N,Net-(J2-Pin_26)*%
X261771100Y-90672000D03*
%TO.N,Net-(J2-Pin_18)*%
X249622300Y-31660000D03*
%TO.N,Net-(J2-Pin_28)*%
X261366900Y-93820000D03*
%TO.N,Net-(J2-Pin_3)*%
X234335800Y-53031900D03*
%TO.N,Net-(J2-Pin_4)*%
X238502400Y-59090000D03*
%TO.N,Net-(J2-Pin_10)*%
X243763500Y-58300000D03*
%TO.N,Net-(J2-Pin_21)*%
X163577600Y-25839500D03*
%TO.N,Net-(J2-Pin_11)*%
X245076400Y-61435000D03*
%TO.N,Net-(J2-Pin_22)*%
X170395400Y-24868200D03*
%TO.N,Net-(J2-Pin_12)*%
X246865300Y-61523300D03*
%TO.N,Net-(J2-Pin_27)*%
X261868000Y-92782500D03*
%TO.N,Net-(J2-Pin_5)*%
X239296100Y-62050000D03*
%TD*%
D19*
%TO.N,+12V*%
X190701700Y-119598300D02*
X189300000Y-121000000D01*
X184100000Y-50162500D02*
X184862500Y-49400000D01*
X145065000Y-51400000D02*
X146302500Y-50162500D01*
X146302500Y-50162500D02*
X184100000Y-50162500D01*
X188800000Y-49400000D02*
X189202500Y-49400000D01*
X191180000Y-49400000D02*
X191200000Y-49420000D01*
X184512200Y-119749900D02*
X188049900Y-119749900D01*
X219880700Y-49420000D02*
X191200000Y-49420000D01*
X246789000Y-65701700D02*
X247369000Y-66281700D01*
X219600000Y-66300000D02*
X221017100Y-64882900D01*
X263698300Y-67801700D02*
X264900000Y-66600000D01*
X188049900Y-119749900D02*
X189300000Y-121000000D01*
X189100000Y-49400000D02*
X189965000Y-50265000D01*
X183151300Y-121110800D02*
X184512200Y-119749900D01*
X145300000Y-120300000D02*
X146110800Y-121110800D01*
X226041600Y-122501700D02*
X223138200Y-119598300D01*
X219880700Y-49420000D02*
X235820000Y-49420000D01*
X221017100Y-64882900D02*
X237856200Y-64882900D01*
X233800000Y-121300000D02*
X232598300Y-122501700D01*
X184862500Y-49400000D02*
X188800000Y-49400000D01*
X223138200Y-119598300D02*
X190701700Y-119598300D01*
X189965000Y-50265000D02*
X189965000Y-51400000D01*
X235820000Y-49420000D02*
X236100000Y-49700000D01*
X191200000Y-49420000D02*
X190707500Y-49420000D01*
X259541400Y-67801700D02*
X263698300Y-67801700D01*
X235160000Y-119940000D02*
X258041000Y-119940000D01*
X247369000Y-66281700D02*
X258021400Y-66281700D01*
X232598300Y-122501700D02*
X226041600Y-122501700D01*
X238675000Y-65701700D02*
X246789000Y-65701700D01*
X188800000Y-49400000D02*
X189100000Y-49400000D01*
X146110800Y-121110800D02*
X183151300Y-121110800D01*
X188800000Y-49400000D02*
X191180000Y-49400000D01*
X236100000Y-49700000D02*
X236100000Y-51200000D01*
X233800000Y-121300000D02*
X235160000Y-119940000D01*
X237856200Y-64882900D02*
X238675000Y-65701700D01*
X258021400Y-66281700D02*
X259541400Y-67801700D01*
%TO.N,Net-(D1-K)*%
X162900000Y-53000000D02*
X163400000Y-53500000D01*
X171400000Y-53500000D02*
X171865000Y-53035000D01*
X142525000Y-51400000D02*
X142525000Y-51625000D01*
X171865000Y-53035000D02*
X171865000Y-51400000D01*
X163400000Y-53500000D02*
X171400000Y-53500000D01*
X142525000Y-51625000D02*
X143900000Y-53000000D01*
X143900000Y-53000000D02*
X162900000Y-53000000D01*
%TO.N,Net-(D3-K)*%
X164201700Y-82024500D02*
X165326200Y-80900000D01*
X165326200Y-80900000D02*
X171650000Y-80900000D01*
X164201700Y-82400000D02*
X164201700Y-82024500D01*
X163000000Y-82400000D02*
X164201700Y-82400000D01*
%TO.N,Net-(D4-K)*%
X142980000Y-68728800D02*
X150888700Y-68728800D01*
X152884100Y-66733400D02*
X169975500Y-66733400D01*
X169975500Y-66733400D02*
X170492200Y-67250100D01*
X170492200Y-67250100D02*
X173314900Y-67250100D01*
X150888700Y-68728800D02*
X152884100Y-66733400D01*
X140926700Y-66675500D02*
X142980000Y-68728800D01*
X139725000Y-66300000D02*
X140926700Y-66300000D01*
X140926700Y-66300000D02*
X140926700Y-66675500D01*
X173314900Y-67250100D02*
X174565000Y-66000000D01*
%TO.N,Net-(D5-K)*%
X148043200Y-68314600D02*
X147837400Y-68108800D01*
X152435100Y-66331700D02*
X150452200Y-68314600D01*
X150452200Y-68314600D02*
X148043200Y-68314600D01*
X170823300Y-66000000D02*
X170491600Y-66331700D01*
X172025000Y-66000000D02*
X170823300Y-66000000D01*
X170491600Y-66331700D02*
X152435100Y-66331700D01*
%TO.N,Net-(D6-K)*%
X155651200Y-92400000D02*
X146626700Y-83375500D01*
X171650000Y-92400000D02*
X155651200Y-92400000D01*
X146626700Y-83375500D02*
X146626700Y-83000000D01*
X145425000Y-83000000D02*
X146626700Y-83000000D01*
%TO.N,Net-(D7-K)*%
X216765000Y-51200000D02*
X215363300Y-52601700D01*
X188100000Y-53100000D02*
X194701700Y-53100000D01*
X187425000Y-52425000D02*
X188100000Y-53100000D01*
X187425000Y-51400000D02*
X187425000Y-52425000D01*
X194701700Y-53100000D02*
X195200000Y-52601700D01*
X215363300Y-52601700D02*
X195200000Y-52601700D01*
%TO.N,Net-(D8-K)*%
X187063300Y-65601700D02*
X186565000Y-66100000D01*
X207972900Y-64220000D02*
X206591200Y-65601700D01*
X206591200Y-65601700D02*
X187063300Y-65601700D01*
%TO.N,Net-(D9-K)*%
X184319500Y-73022000D02*
X184321100Y-73022000D01*
X184321100Y-73022000D02*
X184319500Y-73022000D01*
X182450000Y-75300000D02*
X182450000Y-74893100D01*
X182450000Y-74893100D02*
X184321100Y-73022000D01*
%TO.N,Net-(D10-K)*%
X217060000Y-66300000D02*
X215858300Y-66300000D01*
X199458300Y-82700000D02*
X215858300Y-66300000D01*
X193700000Y-82700000D02*
X199458300Y-82700000D01*
%TO.N,Net-(D11-K)*%
X192361700Y-82700000D02*
X192361700Y-83075500D01*
X193192700Y-83906500D02*
X209293500Y-83906500D01*
X209293500Y-83906500D02*
X211000000Y-82200000D01*
X191160000Y-82700000D02*
X192361700Y-82700000D01*
X192361700Y-83075500D02*
X193192700Y-83906500D01*
%TO.N,Net-(D12-K)*%
X208460000Y-82200000D02*
X209661700Y-82200000D01*
X216450000Y-80100000D02*
X211386200Y-80100000D01*
X209661700Y-81824500D02*
X209661700Y-82200000D01*
X211386200Y-80100000D02*
X209661700Y-81824500D01*
%TO.N,Net-(D13-K)*%
X239384900Y-52415100D02*
X260215100Y-52415100D01*
X233560000Y-51200000D02*
X233900000Y-51200000D01*
X261965000Y-52635000D02*
X261965000Y-51000000D01*
X233900000Y-51200000D02*
X235700000Y-53000000D01*
X260800000Y-53000000D02*
X261600000Y-53000000D01*
X260215100Y-52415100D02*
X260800000Y-53000000D01*
X235700000Y-53000000D02*
X238800000Y-53000000D01*
X238800000Y-53000000D02*
X239384900Y-52415100D01*
X261600000Y-53000000D02*
X261965000Y-52635000D01*
%TO.N,Net-(D14-K)*%
X237968300Y-51607500D02*
X257615800Y-51607500D01*
X259425000Y-51000000D02*
X258223300Y-51000000D01*
X257615800Y-51607500D02*
X258223300Y-51000000D01*
%TO.N,Net-(D15-K)*%
X231471400Y-78757500D02*
X231733900Y-79020000D01*
X226592500Y-78757500D02*
X231471400Y-78757500D01*
X225350000Y-80000000D02*
X226592500Y-78757500D01*
%TO.N,Net-(D16-K)*%
X241611800Y-78488200D02*
X237500000Y-82600000D01*
X261815500Y-78488200D02*
X241611800Y-78488200D01*
%TO.N,Net-(D17-K)*%
X234960000Y-82600000D02*
X236161700Y-82600000D01*
X236987800Y-83801700D02*
X236161700Y-82975600D01*
X236161700Y-82975600D02*
X236161700Y-82600000D01*
X254498300Y-83801700D02*
X236987800Y-83801700D01*
X256400000Y-81900000D02*
X254498300Y-83801700D01*
%TO.N,Net-(D18-K)*%
X256286200Y-80300000D02*
X262600000Y-80300000D01*
X255061700Y-81900000D02*
X255061700Y-81524500D01*
X255061700Y-81524500D02*
X256286200Y-80300000D01*
X253860000Y-81900000D02*
X255061700Y-81900000D01*
%TO.N,Net-(D19-K)*%
X168780100Y-118680100D02*
X170000000Y-119900000D01*
X142760000Y-120300000D02*
X143961700Y-120300000D01*
X143961700Y-120300000D02*
X143961700Y-119924500D01*
X145206100Y-118680100D02*
X168780100Y-118680100D01*
X143961700Y-119924500D02*
X145206100Y-118680100D01*
%TO.N,Net-(D20-K)*%
X143334200Y-133265800D02*
X141500000Y-135100000D01*
X163073200Y-133265800D02*
X143334200Y-133265800D01*
%TO.N,Net-(D21-K)*%
X138960000Y-135100000D02*
X138960000Y-133898300D01*
X138960000Y-133898300D02*
X137050000Y-131988300D01*
X137050000Y-131988300D02*
X137050000Y-126600000D01*
%TO.N,Net-(D22-K)*%
X143000000Y-148600000D02*
X155015000Y-136585000D01*
X155015000Y-136585000D02*
X169373300Y-136585000D01*
X172260000Y-135000000D02*
X170958300Y-135000000D01*
X169373300Y-136585000D02*
X170958300Y-135000000D01*
%TO.N,Net-(D23-K)*%
X173198300Y-150901700D02*
X174400000Y-149700000D01*
X141661700Y-148975500D02*
X143587900Y-150901700D01*
X141661700Y-148600000D02*
X141661700Y-148975500D01*
X143587900Y-150901700D02*
X173198300Y-150901700D01*
X140460000Y-148600000D02*
X141661700Y-148600000D01*
%TO.N,Net-(D24-K)*%
X171860000Y-148290000D02*
X178050000Y-142100000D01*
X171860000Y-149700000D02*
X171860000Y-148290000D01*
%TO.N,Net-(D25-K)*%
X187961700Y-121375600D02*
X187961700Y-121000000D01*
X188787800Y-122201700D02*
X187961700Y-121375600D01*
X186760000Y-121000000D02*
X187961700Y-121000000D01*
X216198300Y-122201700D02*
X188787800Y-122201700D01*
X217600000Y-120800000D02*
X216198300Y-122201700D01*
%TO.N,Net-(D26-K)*%
X207872900Y-133335000D02*
X189465000Y-133335000D01*
X189465000Y-133335000D02*
X187800000Y-135000000D01*
%TO.N,Net-(D27-K)*%
X185260000Y-135000000D02*
X185260000Y-133798300D01*
X185048300Y-133798300D02*
X178050000Y-126800000D01*
X185260000Y-133798300D02*
X185048300Y-133798300D01*
%TO.N,Net-(D28-K)*%
X185060000Y-149700000D02*
X186261700Y-149700000D01*
X219300000Y-134700000D02*
X205501700Y-148498300D01*
X186261700Y-149324400D02*
X186261700Y-149700000D01*
X187087800Y-148498300D02*
X186261700Y-149324400D01*
X205501700Y-148498300D02*
X187087800Y-148498300D01*
%TO.N,Net-(D30-K)*%
X217101700Y-148398300D02*
X216960000Y-148398300D01*
X223100000Y-142400000D02*
X217101700Y-148398300D01*
X216960000Y-149600000D02*
X216960000Y-148398300D01*
%TO.N,Net-(D31-K)*%
X232461700Y-121300000D02*
X232461700Y-120924400D01*
X260934600Y-119334600D02*
X262600000Y-121000000D01*
X232461700Y-120924400D02*
X234051500Y-119334600D01*
X231260000Y-121300000D02*
X232461700Y-121300000D01*
X234051500Y-119334600D02*
X260934600Y-119334600D01*
%TO.N,Net-(D32-K)*%
X232800000Y-134700000D02*
X233114900Y-134700000D01*
X233114900Y-134700000D02*
X246814900Y-121000000D01*
X246814900Y-121000000D02*
X260060000Y-121000000D01*
%TO.N,Net-(D33-K)*%
X226393800Y-126071900D02*
X230260000Y-129938100D01*
X230260000Y-129938100D02*
X230260000Y-134700000D01*
X223878100Y-126071900D02*
X226393800Y-126071900D01*
X222650000Y-127300000D02*
X223878100Y-126071900D01*
%TO.N,Net-(D34-K)*%
X260758300Y-134900000D02*
X246058300Y-149600000D01*
X261960000Y-134900000D02*
X260758300Y-134900000D01*
X246058300Y-149600000D02*
X233200000Y-149600000D01*
%TO.N,Net-(D35-K)*%
X263398300Y-150801700D02*
X232687800Y-150801700D01*
X231861700Y-149975600D02*
X231861700Y-149600000D01*
X264600000Y-149600000D02*
X263398300Y-150801700D01*
X232687800Y-150801700D02*
X231861700Y-149975600D01*
X230660000Y-149600000D02*
X231861700Y-149600000D01*
%TO.N,Net-(D36-K)*%
X266350000Y-127300000D02*
X264109800Y-129540200D01*
X264109800Y-129540200D02*
X264109800Y-131446200D01*
%TO.N,GND*%
X179950000Y-80900000D02*
X185550000Y-75300000D01*
X192668300Y-67820000D02*
X193398300Y-67090000D01*
X156603500Y-98580300D02*
X168569700Y-98580300D01*
X239450000Y-137090000D02*
X238499200Y-137090000D01*
X253618300Y-67190000D02*
X254198300Y-67770000D01*
X196174300Y-44113800D02*
X178863800Y-44113800D01*
X150151700Y-67240000D02*
X154651700Y-62740000D01*
X185550000Y-67820000D02*
X192668300Y-67820000D01*
X209950000Y-132790000D02*
X208898300Y-132790000D01*
X202908300Y-126800000D02*
X181150000Y-126800000D01*
X210150000Y-67670000D02*
X196081700Y-67670000D01*
X255250000Y-69850000D02*
X255250000Y-67770000D01*
X232335600Y-78770800D02*
X231909300Y-78344500D01*
X185550000Y-67820000D02*
X185550000Y-75300000D01*
X183500000Y-101150000D02*
X198590000Y-101150000D01*
X164800000Y-137820000D02*
X181100000Y-137820000D01*
X164302500Y-133122400D02*
X164302500Y-132740000D01*
X196081700Y-67670000D02*
X195501700Y-67090000D01*
X181150000Y-137870000D02*
X181150000Y-142100000D01*
X241081700Y-137670000D02*
X240501700Y-137090000D01*
X221900000Y-132790000D02*
X209950000Y-132790000D01*
X265700000Y-80300000D02*
X255250000Y-69850000D01*
X255150000Y-137670000D02*
X241081700Y-137670000D01*
X231604800Y-80000000D02*
X232335600Y-79269200D01*
X173741700Y-42900000D02*
X177650000Y-42900000D01*
X239450000Y-137090000D02*
X240501700Y-137090000D01*
X195301700Y-137870000D02*
X181150000Y-137870000D01*
X226150000Y-30594400D02*
X226150000Y-35300000D01*
X215510000Y-76060000D02*
X219550000Y-80100000D01*
X149100000Y-137240000D02*
X150251700Y-137240000D01*
X209950000Y-137870000D02*
X195301700Y-137870000D01*
X168569700Y-98580300D02*
X174750000Y-92400000D01*
X181100000Y-137820000D02*
X181150000Y-137870000D01*
X154651700Y-62740000D02*
X164800000Y-62740000D01*
X226200000Y-137090000D02*
X226200000Y-142400000D01*
X154240000Y-25300000D02*
X156141700Y-25300000D01*
X194450000Y-67090000D02*
X193398300Y-67090000D01*
X156141700Y-25300000D02*
X173741700Y-42900000D01*
X231909300Y-78344500D02*
X221305500Y-78344500D01*
X221305500Y-78344500D02*
X219550000Y-80100000D01*
X164302500Y-132740000D02*
X163748300Y-132740000D01*
X226200000Y-137090000D02*
X221900000Y-132790000D01*
X255250000Y-69850000D02*
X241256400Y-69850000D01*
X226150000Y-35300000D02*
X230150000Y-39300000D01*
X150251700Y-137240000D02*
X153457800Y-134033900D01*
X221900000Y-131150000D02*
X221900000Y-132790000D01*
X174750000Y-80900000D02*
X179950000Y-80900000D01*
X269450000Y-127300000D02*
X264160000Y-132590000D01*
X154171700Y-101300000D02*
X154171700Y-101012100D01*
X153457800Y-134033900D02*
X163391000Y-134033900D01*
X153020000Y-101300000D02*
X154171700Y-101300000D01*
X149100000Y-67240000D02*
X150151700Y-67240000D01*
X264160000Y-132590000D02*
X255150000Y-132590000D01*
X164800000Y-132740000D02*
X164302500Y-132740000D01*
X230150000Y-39300000D02*
X225336200Y-44113800D01*
X228450000Y-80000000D02*
X231604800Y-80000000D01*
X163748300Y-132740000D02*
X157608300Y-126600000D01*
X194450000Y-67090000D02*
X195501700Y-67090000D01*
X208898300Y-132790000D02*
X202908300Y-126800000D01*
X195301700Y-137870000D02*
X195301700Y-137290000D01*
X194250000Y-137290000D02*
X195301700Y-137290000D01*
X239550000Y-67190000D02*
X253618300Y-67190000D01*
X241256400Y-69850000D02*
X232335600Y-78770800D01*
X154171700Y-101012100D02*
X156603500Y-98580300D01*
X232335600Y-79269200D02*
X232335600Y-78770800D01*
X210805400Y-76060000D02*
X215510000Y-76060000D01*
X163391000Y-134033900D02*
X164302500Y-133122400D01*
X174750000Y-92400000D02*
X183500000Y-101150000D01*
X255250000Y-67770000D02*
X254198300Y-67770000D01*
X157608300Y-126600000D02*
X140150000Y-126600000D01*
X178863800Y-44113800D02*
X177650000Y-42900000D01*
X225750000Y-127300000D02*
X221900000Y-131150000D01*
X238499200Y-137090000D02*
X226200000Y-137090000D01*
X225336200Y-44113800D02*
X196174300Y-44113800D01*
X164800000Y-67820000D02*
X185550000Y-67820000D01*
%TO.N,Net-(J2-Pin_2)*%
X212837600Y-61101700D02*
X170030000Y-61101700D01*
X234697200Y-59090000D02*
X214849300Y-59090000D01*
X170030000Y-61101700D02*
X165851700Y-65280000D01*
X214849300Y-59090000D02*
X212837600Y-61101700D01*
X164800000Y-65280000D02*
X165851700Y-65280000D01*
%TO.N,Net-(J2-Pin_1)*%
X235140000Y-25460000D02*
X233988300Y-25460000D01*
X233978400Y-25469900D02*
X169737500Y-25469900D01*
X233988300Y-25460000D02*
X233978400Y-25469900D01*
X169737500Y-25469900D02*
X169503100Y-25235500D01*
%TO.N,Net-(J2-Pin_19)*%
X201835000Y-38500000D02*
X207774700Y-32560300D01*
X222905800Y-32560300D02*
X224862700Y-30603400D01*
X224862700Y-30047600D02*
X225522500Y-29387800D01*
X207774700Y-32560300D02*
X222905800Y-32560300D01*
X245456200Y-29387800D02*
X248336300Y-32267900D01*
X259388300Y-26848300D02*
X258000000Y-25460000D01*
X224862700Y-30603400D02*
X224862700Y-30047600D01*
X248336300Y-32267900D02*
X257945900Y-32267900D01*
X261695200Y-28518600D02*
X261695200Y-27460300D01*
X257945900Y-32267900D02*
X261695200Y-28518600D01*
X261695200Y-27460300D02*
X261083200Y-26848300D01*
X261083200Y-26848300D02*
X259388300Y-26848300D01*
X225522500Y-29387800D02*
X245456200Y-29387800D01*
%TO.N,Net-(J3-Pin_1)*%
X204375000Y-38500000D02*
X203223300Y-38500000D01*
X203223300Y-38787900D02*
X199111200Y-42900000D01*
X203223300Y-38500000D02*
X203223300Y-38787900D01*
X199111200Y-42900000D02*
X180750000Y-42900000D01*
%TO.N,Net-(J2-Pin_20)*%
X155560000Y-101300000D02*
X156755100Y-100104900D01*
X240068200Y-102306200D02*
X243724200Y-98650200D01*
X243724200Y-98650200D02*
X248601000Y-98650200D01*
X156755100Y-100104900D02*
X181612700Y-100104900D01*
X181612700Y-100104900D02*
X183814000Y-102306200D01*
X183814000Y-102306200D02*
X240068200Y-102306200D01*
%TO.N,Net-(J2-Pin_23)*%
X246630000Y-101150000D02*
X247396400Y-101150000D01*
X247396400Y-101150000D02*
X249406000Y-99140400D01*
%TO.N,Net-(J2-Pin_26)*%
X211608000Y-90672000D02*
X261771100Y-90672000D01*
X201130000Y-101150000D02*
X211608000Y-90672000D01*
%TO.N,Net-(J2-Pin_18)*%
X255460000Y-28000000D02*
X251800000Y-31660000D01*
X251800000Y-31660000D02*
X249622300Y-31660000D01*
%TO.N,Net-(J2-Pin_28)*%
X213540000Y-93820000D02*
X206210000Y-101150000D01*
X261366900Y-93820000D02*
X213540000Y-93820000D01*
%TO.N,Net-(J2-Pin_3)*%
X186031900Y-53031900D02*
X187100000Y-54100000D01*
X150151700Y-64700000D02*
X160275850Y-54575850D01*
X197500000Y-53031900D02*
X234335800Y-53031900D01*
X175156050Y-54575850D02*
X176700000Y-53031900D01*
X149100000Y-64700000D02*
X150151700Y-64700000D01*
X187100000Y-54100000D02*
X196431900Y-54100000D01*
X176700000Y-53031900D02*
X186031900Y-53031900D01*
X196431900Y-54100000D02*
X197500000Y-53031900D01*
X160275850Y-54575850D02*
X175156050Y-54575850D01*
%TO.N,Net-(J2-Pin_4)*%
X253138300Y-59090000D02*
X238502400Y-59090000D01*
X255250000Y-60150000D02*
X254198300Y-60150000D01*
X254198300Y-60150000D02*
X253138300Y-59090000D01*
%TO.N,Net-(J2-Pin_10)*%
X210150000Y-60050000D02*
X211201700Y-60050000D01*
X212951700Y-58300000D02*
X243763500Y-58300000D01*
X211201700Y-60050000D02*
X212951700Y-58300000D01*
%TO.N,Net-(J2-Pin_21)*%
X260540000Y-25460000D02*
X258536200Y-23456200D01*
X258536200Y-23456200D02*
X165960900Y-23456200D01*
X165960900Y-23456200D02*
X163577600Y-25839500D01*
%TO.N,Net-(J2-Pin_11)*%
X214896700Y-61435000D02*
X245076400Y-61435000D01*
X210150000Y-65130000D02*
X211201700Y-65130000D01*
X211201700Y-65130000D02*
X214896700Y-61435000D01*
%TO.N,Net-(J2-Pin_22)*%
X256848300Y-27746400D02*
X256848300Y-28477000D01*
X246570000Y-25846600D02*
X247453400Y-26730000D01*
X170395400Y-24868200D02*
X171004000Y-24259600D01*
X245746600Y-24259600D02*
X246570000Y-25083000D01*
X256848300Y-28477000D02*
X257523000Y-29151700D01*
X255831900Y-26730000D02*
X256848300Y-27746400D01*
X259388300Y-29151700D02*
X260540000Y-28000000D01*
X257523000Y-29151700D02*
X259388300Y-29151700D01*
X246570000Y-25083000D02*
X246570000Y-25846600D01*
X171004000Y-24259600D02*
X245746600Y-24259600D01*
X247453400Y-26730000D02*
X255831900Y-26730000D01*
%TO.N,Net-(J2-Pin_12)*%
X246152800Y-60810800D02*
X213929800Y-60810800D01*
X213929800Y-60810800D02*
X213202300Y-61538300D01*
X213202300Y-61538300D02*
X198513400Y-61538300D01*
X246865300Y-61523300D02*
X246152800Y-60810800D01*
X198513400Y-61538300D02*
X195501700Y-64550000D01*
X194450000Y-64550000D02*
X195501700Y-64550000D01*
%TO.N,Net-(J2-Pin_27)*%
X212037500Y-92782500D02*
X203670000Y-101150000D01*
X261868000Y-92782500D02*
X212037500Y-92782500D01*
%TO.N,Net-(J2-Pin_5)*%
X242476100Y-65230000D02*
X239296100Y-62050000D01*
X255250000Y-65230000D02*
X242476100Y-65230000D01*
%TO.N,Net-(D38-K)*%
X214498300Y-26098300D02*
X215800000Y-27400000D01*
X189049000Y-30811000D02*
X205014200Y-30811000D01*
X209726900Y-26098300D02*
X214498300Y-26098300D01*
X205014200Y-30811000D02*
X209726900Y-26098300D01*
X182060000Y-37800000D02*
X189049000Y-30811000D01*
%TO.N,Net-(D39-K)*%
X214461700Y-27775500D02*
X214461700Y-27400000D01*
X223050000Y-30594400D02*
X217280600Y-30594400D01*
X213260000Y-27400000D02*
X214461700Y-27400000D01*
X217280600Y-30594400D02*
X214461700Y-27775500D01*
%TO.N,Net-(D40-K)*%
X225606900Y-37856900D02*
X227050000Y-39300000D01*
X220429300Y-37856900D02*
X225606900Y-37856900D01*
X219561700Y-38724500D02*
X220429300Y-37856900D01*
X219561700Y-39100000D02*
X219561700Y-38724500D01*
X218360000Y-39100000D02*
X219561700Y-39100000D01*
%TD*%
M02*
