%TF.GenerationSoftware,KiCad,Pcbnew,9.0.2*%
%TF.CreationDate,2025-09-13T21:06:57+02:00*%
%TF.ProjectId,hyd-fuel,6879642d-6675-4656-9c2e-6b696361645f,rev?*%
%TF.SameCoordinates,Original*%
%TF.FileFunction,Copper,L2,Bot*%
%TF.FilePolarity,Positive*%
%FSLAX46Y46*%
G04 Gerber Fmt 4.6, Leading zero omitted, Abs format (unit mm)*
G04 Created by KiCad (PCBNEW 9.0.2) date 2025-09-13 21:06:57*
%MOMM*%
%LPD*%
G01*
G04 APERTURE LIST*
%TA.AperFunction,ComponentPad*%
%ADD10R,1.500000X1.500000*%
%TD*%
%TA.AperFunction,ComponentPad*%
%ADD11R,1.700000X1.700000*%
%TD*%
%TA.AperFunction,ComponentPad*%
%ADD12C,1.700000*%
%TD*%
%TA.AperFunction,ComponentPad*%
%ADD13R,3.000000X3.000000*%
%TD*%
%TA.AperFunction,ComponentPad*%
%ADD14C,3.000000*%
%TD*%
%TA.AperFunction,ViaPad*%
%ADD15C,0.600000*%
%TD*%
%TA.AperFunction,Conductor*%
%ADD16C,0.400000*%
%TD*%
%TA.AperFunction,Conductor*%
%ADD17C,0.600000*%
%TD*%
G04 APERTURE END LIST*
D10*
%TO.P,KR3,1,+5V_TOP_LED*%
%TO.N,Net-(J5-Pin_4)*%
X132350000Y-190475000D03*
%TO.P,KR3,2,GND_TOP_LED*%
%TO.N,GND*%
X132350000Y-193015000D03*
%TO.P,KR3,3,+5V_BOTTOM_LED*%
%TO.N,Net-(J5-Pin_5)*%
X132350000Y-195555000D03*
%TO.P,KR3,4,GND_BOTTOM_LED*%
%TO.N,GND*%
X132350000Y-198095000D03*
%TO.P,KR3,5,SW_IN*%
%TO.N,Net-(J5-Pin_6)*%
X116650000Y-194975000D03*
%TO.P,KR3,6,SW_OUT*%
%TO.N,GND*%
X116650000Y-197515000D03*
%TD*%
%TO.P,KR11,1,+5V_TOP_LED*%
%TO.N,Net-(J5-Pin_16)*%
X297200000Y-190600000D03*
%TO.P,KR11,2,GND_TOP_LED*%
%TO.N,GND*%
X297200000Y-193140000D03*
%TO.P,KR11,3,+5V_BOTTOM_LED*%
%TO.N,Net-(J5-Pin_17)*%
X297200000Y-195680000D03*
%TO.P,KR11,4,GND_BOTTOM_LED*%
%TO.N,GND*%
X297200000Y-198220000D03*
%TO.P,KR11,5,SW_IN*%
%TO.N,Net-(J5-Pin_18)*%
X281500000Y-195100000D03*
%TO.P,KR11,6,SW_OUT*%
%TO.N,GND*%
X281500000Y-197640000D03*
%TD*%
%TO.P,KR9,1,+5V_TOP_LED*%
%TO.N,Net-(J5-Pin_13)*%
X246600000Y-190575000D03*
%TO.P,KR9,2,GND_TOP_LED*%
%TO.N,GND*%
X246600000Y-193115000D03*
%TO.P,KR9,3,+5V_BOTTOM_LED*%
%TO.N,Net-(J5-Pin_14)*%
X246600000Y-195655000D03*
%TO.P,KR9,4,GND_BOTTOM_LED*%
%TO.N,GND*%
X246600000Y-198195000D03*
%TO.P,KR9,5,SW_IN*%
%TO.N,Net-(J5-Pin_15)*%
X230900000Y-195075000D03*
%TO.P,KR9,6,SW_OUT*%
%TO.N,GND*%
X230900000Y-197615000D03*
%TD*%
%TO.P,KR7,1,+5V_TOP_LED*%
%TO.N,Net-(J5-Pin_10)*%
X216150000Y-190600000D03*
%TO.P,KR7,2,GND_TOP_LED*%
%TO.N,GND*%
X216150000Y-193140000D03*
%TO.P,KR7,3,+5V_BOTTOM_LED*%
%TO.N,Net-(J5-Pin_11)*%
X216150000Y-195680000D03*
%TO.P,KR7,4,GND_BOTTOM_LED*%
%TO.N,GND*%
X216150000Y-198220000D03*
%TO.P,KR7,5,SW_IN*%
%TO.N,Net-(J5-Pin_12)*%
X200450000Y-195100000D03*
%TO.P,KR7,6,SW_OUT*%
%TO.N,GND*%
X200450000Y-197640000D03*
%TD*%
%TO.P,KR14,1,+5V_TOP_LED*%
%TO.N,Net-(J1-Pin_1)*%
X166975000Y-119275000D03*
%TO.P,KR14,2,GND_TOP_LED*%
%TO.N,GND*%
X166975000Y-121815000D03*
%TO.P,KR14,3,+5V_BOTTOM_LED*%
%TO.N,Net-(J1-Pin_2)*%
X166975000Y-124355000D03*
%TO.P,KR14,4,GND_BOTTOM_LED*%
%TO.N,GND*%
X166975000Y-126895000D03*
%TO.P,KR14,5,SW_IN*%
%TO.N,Net-(J1-Pin_3)*%
X151275000Y-123775000D03*
%TO.P,KR14,6,SW_OUT*%
%TO.N,GND*%
X151275000Y-126315000D03*
%TD*%
%TO.P,KR10,1,+5V_TOP_LED*%
%TO.N,Net-(J5-Pin_34)*%
X312675000Y-124425000D03*
%TO.P,KR10,2,GND_TOP_LED*%
%TO.N,GND*%
X312675000Y-126965000D03*
%TO.P,KR10,3,+5V_BOTTOM_LED*%
%TO.N,Net-(J5-Pin_35)*%
X312675000Y-129505000D03*
%TO.P,KR10,4,GND_BOTTOM_LED*%
%TO.N,GND*%
X312675000Y-132045000D03*
%TO.P,KR10,5,SW_IN*%
%TO.N,Net-(J5-Pin_36)*%
X296975000Y-128925000D03*
%TO.P,KR10,6,SW_OUT*%
%TO.N,GND*%
X296975000Y-131465000D03*
%TD*%
%TO.P,KR1,1,+5V_TOP_LED*%
%TO.N,Net-(J5-Pin_1)*%
X117300000Y-124475000D03*
%TO.P,KR1,2,GND_TOP_LED*%
%TO.N,GND*%
X117300000Y-127015000D03*
%TO.P,KR1,3,+5V_BOTTOM_LED*%
%TO.N,Net-(J5-Pin_2)*%
X117300000Y-129555000D03*
%TO.P,KR1,4,GND_BOTTOM_LED*%
%TO.N,GND*%
X117300000Y-132095000D03*
%TO.P,KR1,5,SW_IN*%
%TO.N,Net-(J5-Pin_3)*%
X101600000Y-128975000D03*
%TO.P,KR1,6,SW_OUT*%
%TO.N,GND*%
X101600000Y-131515000D03*
%TD*%
%TO.P,KR8,1,+5V_TOP_LED*%
%TO.N,Net-(J5-Pin_31)*%
X264350000Y-105350000D03*
%TO.P,KR8,2,GND_TOP_LED*%
%TO.N,GND*%
X264350000Y-107890000D03*
%TO.P,KR8,3,+5V_BOTTOM_LED*%
%TO.N,Net-(J5-Pin_32)*%
X264350000Y-110430000D03*
%TO.P,KR8,4,GND_BOTTOM_LED*%
%TO.N,GND*%
X264350000Y-112970000D03*
%TO.P,KR8,5,SW_IN*%
%TO.N,Net-(J5-Pin_33)*%
X248650000Y-109850000D03*
%TO.P,KR8,6,SW_OUT*%
%TO.N,GND*%
X248650000Y-112390000D03*
%TD*%
%TO.P,KR2,1,+5V_TOP_LED*%
%TO.N,Net-(J5-Pin_22)*%
X102825000Y-190550000D03*
%TO.P,KR2,2,GND_TOP_LED*%
%TO.N,GND*%
X102825000Y-193090000D03*
%TO.P,KR2,3,+5V_BOTTOM_LED*%
%TO.N,Net-(J5-Pin_23)*%
X102825000Y-195630000D03*
%TO.P,KR2,4,GND_BOTTOM_LED*%
%TO.N,GND*%
X102825000Y-198170000D03*
%TO.P,KR2,5,SW_IN*%
%TO.N,Net-(J5-Pin_24)*%
X87125000Y-195050000D03*
%TO.P,KR2,6,SW_OUT*%
%TO.N,GND*%
X87125000Y-197590000D03*
%TD*%
%TO.P,KR4,1,+5V_TOP_LED*%
%TO.N,Net-(J5-Pin_25)*%
X186100000Y-190500000D03*
%TO.P,KR4,2,GND_TOP_LED*%
%TO.N,GND*%
X186100000Y-193040000D03*
%TO.P,KR4,3,+5V_BOTTOM_LED*%
%TO.N,Net-(J5-Pin_26)*%
X186100000Y-195580000D03*
%TO.P,KR4,4,GND_BOTTOM_LED*%
%TO.N,GND*%
X186100000Y-198120000D03*
%TO.P,KR4,5,SW_IN*%
%TO.N,Net-(J5-Pin_27)*%
X170400000Y-195000000D03*
%TO.P,KR4,6,SW_OUT*%
%TO.N,GND*%
X170400000Y-197540000D03*
%TD*%
%TO.P,KR12,1,+5V_TOP_LED*%
%TO.N,Net-(J5-Pin_37)*%
X326850000Y-190625000D03*
%TO.P,KR12,2,GND_TOP_LED*%
%TO.N,GND*%
X326850000Y-193165000D03*
%TO.P,KR12,3,+5V_BOTTOM_LED*%
%TO.N,Net-(J5-Pin_38)*%
X326850000Y-195705000D03*
%TO.P,KR12,4,GND_BOTTOM_LED*%
%TO.N,GND*%
X326850000Y-198245000D03*
%TO.P,KR12,5,SW_IN*%
%TO.N,Net-(J5-Pin_39)*%
X311150000Y-195125000D03*
%TO.P,KR12,6,SW_OUT*%
%TO.N,GND*%
X311150000Y-197665000D03*
%TD*%
%TO.P,KR5,1,+5V_TOP_LED*%
%TO.N,Net-(J5-Pin_7)*%
X216175000Y-124200000D03*
%TO.P,KR5,2,GND_TOP_LED*%
%TO.N,GND*%
X216175000Y-126740000D03*
%TO.P,KR5,3,+5V_BOTTOM_LED*%
%TO.N,Net-(J5-Pin_8)*%
X216175000Y-129280000D03*
%TO.P,KR5,4,GND_BOTTOM_LED*%
%TO.N,GND*%
X216175000Y-131820000D03*
%TO.P,KR5,5,SW_IN*%
%TO.N,Net-(J5-Pin_9)*%
X200475000Y-128700000D03*
%TO.P,KR5,6,SW_OUT*%
%TO.N,GND*%
X200475000Y-131240000D03*
%TD*%
%TO.P,KR6,1,+5V_TOP_LED*%
%TO.N,Net-(J5-Pin_28)*%
X216150000Y-156150000D03*
%TO.P,KR6,2,GND_TOP_LED*%
%TO.N,GND*%
X216150000Y-158690000D03*
%TO.P,KR6,3,+5V_BOTTOM_LED*%
%TO.N,Net-(J5-Pin_29)*%
X216150000Y-161230000D03*
%TO.P,KR6,4,GND_BOTTOM_LED*%
%TO.N,GND*%
X216150000Y-163770000D03*
%TO.P,KR6,5,SW_IN*%
%TO.N,Net-(J5-Pin_30)*%
X200450000Y-160650000D03*
%TO.P,KR6,6,SW_OUT*%
%TO.N,GND*%
X200450000Y-163190000D03*
%TD*%
%TO.P,KR13,1,+5V_TOP_LED*%
%TO.N,Net-(J5-Pin_19)*%
X346675000Y-122075000D03*
%TO.P,KR13,2,GND_TOP_LED*%
%TO.N,GND*%
X346675000Y-124615000D03*
%TO.P,KR13,3,+5V_BOTTOM_LED*%
%TO.N,Net-(J5-Pin_20)*%
X346675000Y-127155000D03*
%TO.P,KR13,4,GND_BOTTOM_LED*%
%TO.N,GND*%
X346675000Y-129695000D03*
%TO.P,KR13,5,SW_IN*%
%TO.N,Net-(J5-Pin_21)*%
X330975000Y-126575000D03*
%TO.P,KR13,6,SW_OUT*%
%TO.N,GND*%
X330975000Y-129115000D03*
%TD*%
D11*
%TO.P,J5,1,Pin_1*%
%TO.N,Net-(J5-Pin_1)*%
X184755000Y-86300000D03*
D12*
%TO.P,J5,2,Pin_2*%
%TO.N,Net-(J5-Pin_2)*%
X184755000Y-83760000D03*
%TO.P,J5,3,Pin_3*%
%TO.N,Net-(J5-Pin_3)*%
X182215000Y-86300000D03*
%TO.P,J5,4,Pin_4*%
%TO.N,Net-(J5-Pin_4)*%
X182215000Y-83760000D03*
%TO.P,J5,5,Pin_5*%
%TO.N,Net-(J5-Pin_5)*%
X179675000Y-86300000D03*
%TO.P,J5,6,Pin_6*%
%TO.N,Net-(J5-Pin_6)*%
X179675000Y-83760000D03*
%TO.P,J5,7,Pin_7*%
%TO.N,Net-(J5-Pin_7)*%
X177135000Y-86300000D03*
%TO.P,J5,8,Pin_8*%
%TO.N,Net-(J5-Pin_8)*%
X177135000Y-83760000D03*
%TO.P,J5,9,Pin_9*%
%TO.N,Net-(J5-Pin_9)*%
X174595000Y-86300000D03*
%TO.P,J5,10,Pin_10*%
%TO.N,Net-(J5-Pin_10)*%
X174595000Y-83760000D03*
%TO.P,J5,11,Pin_11*%
%TO.N,Net-(J5-Pin_11)*%
X172055000Y-86300000D03*
%TO.P,J5,12,Pin_12*%
%TO.N,Net-(J5-Pin_12)*%
X172055000Y-83760000D03*
%TO.P,J5,13,Pin_13*%
%TO.N,Net-(J5-Pin_13)*%
X169515000Y-86300000D03*
%TO.P,J5,14,Pin_14*%
%TO.N,Net-(J5-Pin_14)*%
X169515000Y-83760000D03*
%TO.P,J5,15,Pin_15*%
%TO.N,Net-(J5-Pin_15)*%
X166975000Y-86300000D03*
%TO.P,J5,16,Pin_16*%
%TO.N,Net-(J5-Pin_16)*%
X166975000Y-83760000D03*
%TO.P,J5,17,Pin_17*%
%TO.N,Net-(J5-Pin_17)*%
X164435000Y-86300000D03*
%TO.P,J5,18,Pin_18*%
%TO.N,Net-(J5-Pin_18)*%
X164435000Y-83760000D03*
%TO.P,J5,19,Pin_19*%
%TO.N,Net-(J5-Pin_19)*%
X161895000Y-86300000D03*
%TO.P,J5,20,Pin_20*%
%TO.N,Net-(J5-Pin_20)*%
X161895000Y-83760000D03*
%TO.P,J5,21,Pin_21*%
%TO.N,Net-(J5-Pin_21)*%
X159355000Y-86300000D03*
%TO.P,J5,22,Pin_22*%
%TO.N,Net-(J5-Pin_22)*%
X159355000Y-83760000D03*
%TO.P,J5,23,Pin_23*%
%TO.N,Net-(J5-Pin_23)*%
X156815000Y-86300000D03*
%TO.P,J5,24,Pin_24*%
%TO.N,Net-(J5-Pin_24)*%
X156815000Y-83760000D03*
%TO.P,J5,25,Pin_25*%
%TO.N,Net-(J5-Pin_25)*%
X154275000Y-86300000D03*
%TO.P,J5,26,Pin_26*%
%TO.N,Net-(J5-Pin_26)*%
X154275000Y-83760000D03*
%TO.P,J5,27,Pin_27*%
%TO.N,Net-(J5-Pin_27)*%
X151735000Y-86300000D03*
%TO.P,J5,28,Pin_28*%
%TO.N,Net-(J5-Pin_28)*%
X151735000Y-83760000D03*
%TO.P,J5,29,Pin_29*%
%TO.N,Net-(J5-Pin_29)*%
X149195000Y-86300000D03*
%TO.P,J5,30,Pin_30*%
%TO.N,Net-(J5-Pin_30)*%
X149195000Y-83760000D03*
%TO.P,J5,31,Pin_31*%
%TO.N,Net-(J5-Pin_31)*%
X146655000Y-86300000D03*
%TO.P,J5,32,Pin_32*%
%TO.N,Net-(J5-Pin_32)*%
X146655000Y-83760000D03*
%TO.P,J5,33,Pin_33*%
%TO.N,Net-(J5-Pin_33)*%
X144115000Y-86300000D03*
%TO.P,J5,34,Pin_34*%
%TO.N,Net-(J5-Pin_34)*%
X144115000Y-83760000D03*
%TO.P,J5,35,Pin_35*%
%TO.N,Net-(J5-Pin_35)*%
X141575000Y-86300000D03*
%TO.P,J5,36,Pin_36*%
%TO.N,Net-(J5-Pin_36)*%
X141575000Y-83760000D03*
%TO.P,J5,37,Pin_37*%
%TO.N,Net-(J5-Pin_37)*%
X139035000Y-86300000D03*
%TO.P,J5,38,Pin_38*%
%TO.N,Net-(J5-Pin_38)*%
X139035000Y-83760000D03*
%TO.P,J5,39,Pin_39*%
%TO.N,Net-(J5-Pin_39)*%
X136495000Y-86300000D03*
%TO.P,J5,40,Pin_40*%
%TO.N,unconnected-(J5-Pin_40-Pad40)*%
X136495000Y-83760000D03*
%TD*%
D13*
%TO.P,J4,1,Pin_1*%
%TO.N,GND*%
X72040000Y-208650000D03*
D14*
%TO.P,J4,2,Pin_2*%
%TO.N,+12V*%
X66960000Y-208650000D03*
%TD*%
D13*
%TO.P,J3,1,Pin_1*%
%TO.N,GND*%
X64835000Y-83425000D03*
D14*
%TO.P,J3,2,Pin_2*%
%TO.N,+12V*%
X69915000Y-83425000D03*
%TD*%
D11*
%TO.P,J1,1,Pin_1*%
%TO.N,Net-(J1-Pin_1)*%
X281080000Y-86000000D03*
D12*
%TO.P,J1,2,Pin_2*%
%TO.N,Net-(J1-Pin_2)*%
X281080000Y-83460000D03*
%TO.P,J1,3,Pin_3*%
%TO.N,Net-(J1-Pin_3)*%
X278540000Y-86000000D03*
%TO.P,J1,4,Pin_4*%
%TO.N,unconnected-(J1-Pin_4-Pad4)*%
X278540000Y-83460000D03*
%TO.P,J1,5,Pin_5*%
%TO.N,unconnected-(J1-Pin_5-Pad5)*%
X276000000Y-86000000D03*
%TO.P,J1,6,Pin_6*%
%TO.N,unconnected-(J1-Pin_6-Pad6)*%
X276000000Y-83460000D03*
%TO.P,J1,7,Pin_7*%
%TO.N,unconnected-(J1-Pin_7-Pad7)*%
X273460000Y-86000000D03*
%TO.P,J1,8,Pin_8*%
%TO.N,unconnected-(J1-Pin_8-Pad8)*%
X273460000Y-83460000D03*
%TO.P,J1,9,Pin_9*%
%TO.N,unconnected-(J1-Pin_9-Pad9)*%
X270920000Y-86000000D03*
%TO.P,J1,10,Pin_10*%
%TO.N,unconnected-(J1-Pin_10-Pad10)*%
X270920000Y-83460000D03*
%TO.P,J1,11,Pin_11*%
%TO.N,unconnected-(J1-Pin_11-Pad11)*%
X268380000Y-86000000D03*
%TO.P,J1,12,Pin_12*%
%TO.N,unconnected-(J1-Pin_12-Pad12)*%
X268380000Y-83460000D03*
%TO.P,J1,13,Pin_13*%
%TO.N,unconnected-(J1-Pin_13-Pad13)*%
X265840000Y-86000000D03*
%TO.P,J1,14,Pin_14*%
%TO.N,unconnected-(J1-Pin_14-Pad14)*%
X265840000Y-83460000D03*
%TO.P,J1,15,Pin_15*%
%TO.N,unconnected-(J1-Pin_15-Pad15)*%
X263300000Y-86000000D03*
%TO.P,J1,16,Pin_16*%
%TO.N,unconnected-(J1-Pin_16-Pad16)*%
X263300000Y-83460000D03*
%TO.P,J1,17,Pin_17*%
%TO.N,unconnected-(J1-Pin_17-Pad17)*%
X260760000Y-86000000D03*
%TO.P,J1,18,Pin_18*%
%TO.N,unconnected-(J1-Pin_18-Pad18)*%
X260760000Y-83460000D03*
%TO.P,J1,19,Pin_19*%
%TO.N,unconnected-(J1-Pin_19-Pad19)*%
X258220000Y-86000000D03*
%TO.P,J1,20,Pin_20*%
%TO.N,unconnected-(J1-Pin_20-Pad20)*%
X258220000Y-83460000D03*
%TO.P,J1,21,Pin_21*%
%TO.N,unconnected-(J1-Pin_21-Pad21)*%
X255680000Y-86000000D03*
%TO.P,J1,22,Pin_22*%
%TO.N,unconnected-(J1-Pin_22-Pad22)*%
X255680000Y-83460000D03*
%TO.P,J1,23,Pin_23*%
%TO.N,unconnected-(J1-Pin_23-Pad23)*%
X253140000Y-86000000D03*
%TO.P,J1,24,Pin_24*%
%TO.N,unconnected-(J1-Pin_24-Pad24)*%
X253140000Y-83460000D03*
%TO.P,J1,25,Pin_25*%
%TO.N,unconnected-(J1-Pin_25-Pad25)*%
X250600000Y-86000000D03*
%TO.P,J1,26,Pin_26*%
%TO.N,unconnected-(J1-Pin_26-Pad26)*%
X250600000Y-83460000D03*
%TO.P,J1,27,Pin_27*%
%TO.N,unconnected-(J1-Pin_27-Pad27)*%
X248060000Y-86000000D03*
%TO.P,J1,28,Pin_28*%
%TO.N,unconnected-(J1-Pin_28-Pad28)*%
X248060000Y-83460000D03*
%TO.P,J1,29,Pin_29*%
%TO.N,unconnected-(J1-Pin_29-Pad29)*%
X245520000Y-86000000D03*
%TO.P,J1,30,Pin_30*%
%TO.N,unconnected-(J1-Pin_30-Pad30)*%
X245520000Y-83460000D03*
%TO.P,J1,31,Pin_31*%
%TO.N,unconnected-(J1-Pin_31-Pad31)*%
X242980000Y-86000000D03*
%TO.P,J1,32,Pin_32*%
%TO.N,unconnected-(J1-Pin_32-Pad32)*%
X242980000Y-83460000D03*
%TO.P,J1,33,Pin_33*%
%TO.N,unconnected-(J1-Pin_33-Pad33)*%
X240440000Y-86000000D03*
%TO.P,J1,34,Pin_34*%
%TO.N,unconnected-(J1-Pin_34-Pad34)*%
X240440000Y-83460000D03*
%TO.P,J1,35,Pin_35*%
%TO.N,unconnected-(J1-Pin_35-Pad35)*%
X237900000Y-86000000D03*
%TO.P,J1,36,Pin_36*%
%TO.N,unconnected-(J1-Pin_36-Pad36)*%
X237900000Y-83460000D03*
%TO.P,J1,37,Pin_37*%
%TO.N,unconnected-(J1-Pin_37-Pad37)*%
X235360000Y-86000000D03*
%TO.P,J1,38,Pin_38*%
%TO.N,unconnected-(J1-Pin_38-Pad38)*%
X235360000Y-83460000D03*
%TO.P,J1,39,Pin_39*%
%TO.N,unconnected-(J1-Pin_39-Pad39)*%
X232820000Y-86000000D03*
%TO.P,J1,40,Pin_40*%
%TO.N,unconnected-(J1-Pin_40-Pad40)*%
X232820000Y-83460000D03*
%TD*%
D15*
%TO.N,Net-(D1-K)*%
X61513800Y-104490400D03*
X64500200Y-122290600D03*
%TO.N,+12V*%
X67486600Y-101523700D03*
X316088600Y-107457100D03*
X67486600Y-137124100D03*
X240697800Y-154082600D03*
X324355700Y-170150000D03*
X198888200Y-92623600D03*
X291743000Y-137124100D03*
X144877700Y-174613800D03*
X240697800Y-181624600D03*
X145133000Y-140325200D03*
X317678200Y-87859100D03*
X243684200Y-157891000D03*
X240697800Y-169757800D03*
X288852000Y-151783200D03*
X228752200Y-182704300D03*
X195901800Y-137124100D03*
X202021400Y-114204400D03*
X144877700Y-184336000D03*
X314856900Y-137625000D03*
X62366600Y-157891000D03*
X288480200Y-166791100D03*
X142283000Y-160857700D03*
X226517600Y-207350400D03*
%TO.N,Net-(D2-K)*%
X61816600Y-137124100D03*
X58527400Y-118870000D03*
%TO.N,Net-(D5-K)*%
X91377800Y-122290600D03*
X90729500Y-137124100D03*
%TO.N,Net-(D7-K)*%
X100337000Y-95590300D03*
X100121900Y-106960800D03*
%TO.N,Net-(D10-K)*%
X131047600Y-98557000D03*
X130776200Y-84831700D03*
%TO.N,Net-(D16-K)*%
X55541000Y-157891000D03*
X59348700Y-180770400D03*
%TO.N,Net-(D17-K)*%
X58527400Y-181624600D03*
X62304100Y-205358200D03*
%TO.N,Net-(D19-K)*%
X82418600Y-184591300D03*
X79432200Y-204624300D03*
%TO.N,Net-(D22-K)*%
X108350900Y-202391500D03*
X109296200Y-184787900D03*
%TO.N,Net-(D23-K)*%
X130201000Y-202391500D03*
X130940400Y-180554800D03*
%TO.N,Net-(D25-K)*%
X138733200Y-204729100D03*
X137485000Y-190432300D03*
%TO.N,Net-(D26-K)*%
X130806900Y-170251000D03*
X128346300Y-205783300D03*
%TO.N,Net-(D28-K)*%
X140854200Y-157450200D03*
X141150300Y-139514000D03*
%TO.N,Net-(D29-K)*%
X136173800Y-113390500D03*
X135506700Y-137124100D03*
%TO.N,Net-(D30-K)*%
X131442400Y-124904200D03*
X132340800Y-113390500D03*
%TO.N,Net-(D33-K)*%
X177983400Y-98875600D03*
X185647000Y-112905800D03*
%TO.N,Net-(D34-K)*%
X181804000Y-115594900D03*
X181804000Y-130442000D03*
%TO.N,Net-(D35-K)*%
X160065000Y-140090800D03*
X162300400Y-154051600D03*
%TO.N,Net-(D36-K)*%
X166037800Y-163824400D03*
X164323000Y-154082600D03*
%TO.N,Net-(D38-K)*%
X166516100Y-205358200D03*
X162301600Y-178657900D03*
%TO.N,Net-(D44-K)*%
X228752200Y-167051500D03*
X227044100Y-181236500D03*
%TO.N,Net-(D46-K)*%
X251974800Y-206185800D03*
X253381400Y-175691200D03*
%TO.N,Net-(D49-K)*%
X226870600Y-165825300D03*
X226405100Y-148682400D03*
%TO.N,Net-(D51-K)*%
X195005200Y-131021500D03*
X192498600Y-145757300D03*
%TO.N,Net-(D52-K)*%
X201205600Y-110423800D03*
X189521700Y-130940800D03*
%TO.N,Net-(D56-K)*%
X237515500Y-98337900D03*
X237711400Y-113390500D03*
%TO.N,Net-(D57-K)*%
X235621600Y-122966700D03*
X235555700Y-115531400D03*
%TO.N,Net-(D61-K)*%
X264589000Y-98557000D03*
X264704200Y-148990900D03*
%TO.N,Net-(D62-K)*%
X258348700Y-148990900D03*
X261602600Y-172707600D03*
%TO.N,Net-(D63-K)*%
X259130300Y-190524700D03*
X255629800Y-166791100D03*
%TO.N,Net-(D66-K)*%
X306821900Y-184750400D03*
X302769300Y-206294000D03*
%TO.N,Net-(D69-K)*%
X302608900Y-203475000D03*
X305552000Y-172724500D03*
%TO.N,Net-(D70-K)*%
X312682900Y-160857700D03*
X312371400Y-205358200D03*
%TO.N,Net-(D73-K)*%
X330289800Y-148990900D03*
X339249000Y-205358200D03*
%TO.N,Net-(D74-K)*%
X332703700Y-205358200D03*
X333879200Y-197228500D03*
%TO.N,Net-(D75-K)*%
X345221800Y-205358200D03*
X342235400Y-187558000D03*
%TO.N,Net-(D76-K)*%
X356286800Y-206244000D03*
X363140200Y-190742100D03*
%TO.N,Net-(D81-K)*%
X318344200Y-140090800D03*
X330289800Y-119323900D03*
%TO.N,Net-(D82-K)*%
X354181000Y-115886400D03*
X357568400Y-128224000D03*
%TO.N,Net-(D88-K)*%
X294587500Y-119323900D03*
X294453000Y-110245200D03*
%TO.N,Net-(D90-K)*%
X306398600Y-136482900D03*
X311676600Y-96249900D03*
%TO.N,Net-(D93-K)*%
X228752200Y-102013000D03*
X228752200Y-92623600D03*
%TO.N,Net-(D94-K)*%
X238214500Y-102409500D03*
X247157500Y-139569900D03*
%TO.N,Net-(J1-Pin_2)*%
X279458400Y-122228000D03*
%TO.N,Net-(J1-Pin_3)*%
X273548200Y-120140400D03*
%TO.N,Net-(J1-Pin_1)*%
X165706300Y-95636100D03*
%TO.N,Net-(J5-Pin_29)*%
X161007400Y-161801700D03*
%TO.N,Net-(J5-Pin_7)*%
X183671800Y-84721700D03*
X185646200Y-123101000D03*
%TO.N,GND*%
X94967200Y-166188100D03*
X67961400Y-100390900D03*
X264589000Y-125149000D03*
X91191700Y-151499300D03*
X300425800Y-170667900D03*
X135153000Y-173503700D03*
X97350600Y-101791500D03*
X264589000Y-136907400D03*
%TO.N,Net-(J5-Pin_4)*%
X175007600Y-143057500D03*
X137822000Y-143436900D03*
%TO.N,Net-(J5-Pin_26)*%
X161829900Y-193491400D03*
%TO.N,Net-(J5-Pin_36)*%
X285493800Y-80766400D03*
%TO.N,Net-(J5-Pin_21)*%
X165103200Y-119290200D03*
%TO.N,Net-(J5-Pin_15)*%
X167788800Y-102163600D03*
X222699700Y-103677100D03*
%TO.N,Net-(J5-Pin_2)*%
X183096600Y-128207300D03*
%TO.N,Net-(J5-Pin_1)*%
X121241800Y-94748600D03*
%TO.N,Net-(J5-Pin_16)*%
X170821500Y-187461700D03*
%TO.N,Net-(J5-Pin_6)*%
X137963400Y-89002400D03*
%TO.N,Net-(J5-Pin_32)*%
X146916000Y-101523700D03*
%TO.N,Net-(J5-Pin_24)*%
X160168300Y-90545600D03*
X109270500Y-91781900D03*
%TO.N,Net-(J5-Pin_5)*%
X138176900Y-89957400D03*
%TO.N,Net-(J5-Pin_38)*%
X141300000Y-193491400D03*
%TO.N,Net-(J5-Pin_19)*%
X337753500Y-82208300D03*
%TO.N,Net-(J5-Pin_30)*%
X148119400Y-160857700D03*
%TO.N,Net-(J5-Pin_18)*%
X270561800Y-81177700D03*
X164332300Y-81712300D03*
%TO.N,Net-(J5-Pin_37)*%
X321330600Y-134157400D03*
X139596200Y-131214500D03*
%TO.N,Net-(J5-Pin_20)*%
X175239000Y-121417600D03*
X173832900Y-88409400D03*
%TO.N,Net-(J5-Pin_22)*%
X115269000Y-83723500D03*
%TO.N,Net-(J5-Pin_28)*%
X151105800Y-155832900D03*
%TO.N,Net-(J5-Pin_3)*%
X106677100Y-92623600D03*
%TO.N,Net-(J5-Pin_23)*%
X114422400Y-87911100D03*
%TO.N,Net-(J5-Pin_31)*%
X147238000Y-95276200D03*
%TO.N,Net-(J5-Pin_33)*%
X146725400Y-97601400D03*
%TO.N,Net-(J5-Pin_14)*%
X176224000Y-191751700D03*
%TO.N,Net-(J5-Pin_34)*%
X309385000Y-80696600D03*
%TO.N,Net-(J5-Pin_8)*%
X192829300Y-131655700D03*
%TO.N,Net-(J5-Pin_39)*%
X138886700Y-154924300D03*
X306398600Y-154924300D03*
%TO.N,Net-(J5-Pin_13)*%
X183906500Y-189642400D03*
%TO.N,Net-(J5-Pin_35)*%
X146916000Y-128658900D03*
%TO.N,Net-(J5-Pin_9)*%
X175685600Y-109871700D03*
X202844600Y-111265500D03*
%TO.N,Net-(J5-Pin_17)*%
X291466600Y-83383600D03*
%TO.N,Net-(J5-Pin_25)*%
X168539700Y-191362800D03*
%TD*%
D16*
%TO.N,Net-(D1-K)*%
X64500200Y-107476800D02*
X64500200Y-122290600D01*
X61513800Y-104490400D02*
X64500200Y-107476800D01*
D17*
%TO.N,+12V*%
X195901800Y-120324000D02*
X202021400Y-114204400D01*
X144877700Y-163452400D02*
X144877700Y-174613800D01*
X67486600Y-101523700D02*
X67486600Y-137124100D01*
X67486600Y-137124100D02*
X67486600Y-152771000D01*
X144877700Y-174613800D02*
X144877700Y-184336000D01*
X240697800Y-181624600D02*
X240697800Y-169757800D01*
X240697800Y-154082600D02*
X243684200Y-157069000D01*
X288852000Y-140015100D02*
X288852000Y-151783200D01*
X69915000Y-99571100D02*
X69915000Y-83425000D01*
X198888200Y-92623600D02*
X202021400Y-95756800D01*
X67486600Y-101523700D02*
X67962400Y-101523700D01*
X288852000Y-151783200D02*
X288480200Y-152155000D01*
X67962400Y-101523700D02*
X69915000Y-99571100D01*
X316088600Y-137625000D02*
X316088600Y-161882900D01*
X145133000Y-140325200D02*
X145133000Y-158007700D01*
X317678200Y-105867500D02*
X316088600Y-107457100D01*
X67486600Y-152771000D02*
X62366600Y-157891000D01*
X142283000Y-160857700D02*
X144877700Y-163452400D01*
X316088600Y-161882900D02*
X324355700Y-170150000D01*
X240697800Y-160877400D02*
X243684200Y-157891000D01*
X62366600Y-157891000D02*
X66960000Y-162484400D01*
X240697800Y-169757800D02*
X240697800Y-160877400D01*
X66960000Y-162484400D02*
X66960000Y-208650000D01*
X202021400Y-95756800D02*
X202021400Y-114204400D01*
X316088600Y-107457100D02*
X316088600Y-137625000D01*
X317678200Y-87859100D02*
X317678200Y-105867500D01*
X228752200Y-205115800D02*
X226517600Y-207350400D01*
X145133000Y-158007700D02*
X142283000Y-160857700D01*
X228752200Y-182704300D02*
X228752200Y-205115800D01*
X288480200Y-152155000D02*
X288480200Y-166791100D01*
X243684200Y-157069000D02*
X243684200Y-157891000D01*
X195901800Y-137124100D02*
X195901800Y-120324000D01*
X314856900Y-137625000D02*
X316088600Y-137625000D01*
X291743000Y-137124100D02*
X288852000Y-140015100D01*
D16*
%TO.N,Net-(D2-K)*%
X58527400Y-118870000D02*
X61816600Y-122159200D01*
X61816600Y-122159200D02*
X61816600Y-137124100D01*
%TO.N,Net-(D5-K)*%
X90729500Y-122938900D02*
X90729500Y-137124100D01*
X91377800Y-122290600D02*
X90729500Y-122938900D01*
%TO.N,Net-(D7-K)*%
X100337000Y-106745700D02*
X100121900Y-106960800D01*
X100337000Y-95590300D02*
X100337000Y-106745700D01*
%TO.N,Net-(D10-K)*%
X130776200Y-84831700D02*
X131047600Y-85103100D01*
X131047600Y-85103100D02*
X131047600Y-98557000D01*
%TO.N,Net-(D16-K)*%
X59348700Y-161698700D02*
X55541000Y-157891000D01*
X59348700Y-180770400D02*
X59348700Y-161698700D01*
%TO.N,Net-(D17-K)*%
X62304100Y-185401300D02*
X62304100Y-205358200D01*
X58527400Y-181624600D02*
X62304100Y-185401300D01*
%TO.N,Net-(D19-K)*%
X79432200Y-204624300D02*
X82418600Y-201637900D01*
X82418600Y-201637900D02*
X82418600Y-184591300D01*
%TO.N,Net-(D22-K)*%
X109296200Y-201446200D02*
X108350900Y-202391500D01*
X109296200Y-184787900D02*
X109296200Y-201446200D01*
%TO.N,Net-(D23-K)*%
X130515000Y-196830600D02*
X130691300Y-197006900D01*
X130691300Y-197006900D02*
X130940400Y-197256000D01*
X130691300Y-197006900D02*
X130940400Y-197256000D01*
X130940400Y-197256000D02*
X130940400Y-201652100D01*
X130940400Y-201652100D02*
X130201000Y-202391500D01*
X130515000Y-180980200D02*
X130515000Y-196830600D01*
X130940400Y-180554800D02*
X130515000Y-180980200D01*
%TO.N,Net-(D25-K)*%
X138733200Y-191680500D02*
X137485000Y-190432300D01*
X138733200Y-204729100D02*
X138733200Y-191680500D01*
%TO.N,Net-(D26-K)*%
X128346300Y-172711600D02*
X128346300Y-205783300D01*
X130806900Y-170251000D02*
X128346300Y-172711600D01*
%TO.N,Net-(D28-K)*%
X141150300Y-157154100D02*
X140854200Y-157450200D01*
X141150300Y-139514000D02*
X141150300Y-157154100D01*
%TO.N,Net-(D29-K)*%
X136173800Y-136457000D02*
X136173800Y-113390500D01*
X135506700Y-137124100D02*
X136173800Y-136457000D01*
%TO.N,Net-(D30-K)*%
X131442400Y-114288900D02*
X131442400Y-124904200D01*
X132340800Y-113390500D02*
X131442400Y-114288900D01*
%TO.N,Net-(D33-K)*%
X186347900Y-123392200D02*
X186347900Y-113606700D01*
X186347900Y-113606700D02*
X185647000Y-112905800D01*
X184255500Y-122720200D02*
X185342000Y-123806700D01*
X177983400Y-98875600D02*
X184255500Y-105147700D01*
X179297400Y-98875600D02*
X177983400Y-98875600D01*
X177983400Y-98875600D02*
X179297400Y-98875600D01*
X185933400Y-123806700D02*
X186347900Y-123392200D01*
X184255500Y-105147700D02*
X184255500Y-122720200D01*
X185342000Y-123806700D02*
X185933400Y-123806700D01*
%TO.N,Net-(D34-K)*%
X181804000Y-115594900D02*
X181804000Y-130442000D01*
%TO.N,Net-(D35-K)*%
X160065000Y-151816200D02*
X162300400Y-154051600D01*
X160065000Y-140090800D02*
X160065000Y-151816200D01*
%TO.N,Net-(D36-K)*%
X164323000Y-154082600D02*
X166037800Y-155797400D01*
X166037800Y-155797400D02*
X166037800Y-163824400D01*
%TO.N,Net-(D38-K)*%
X162531600Y-178887900D02*
X162301600Y-178657900D01*
X162531600Y-201373700D02*
X162531600Y-178887900D01*
X166516100Y-205358200D02*
X162531600Y-201373700D01*
%TO.N,Net-(D44-K)*%
X228752200Y-179528400D02*
X228752200Y-167051500D01*
X227044100Y-181236500D02*
X228752200Y-179528400D01*
%TO.N,Net-(D46-K)*%
X251974800Y-206185800D02*
X251974800Y-177097800D01*
X251974800Y-177097800D02*
X253381400Y-175691200D01*
%TO.N,Net-(D49-K)*%
X226870600Y-165825300D02*
X226870600Y-149147900D01*
X226870600Y-149147900D02*
X226405100Y-148682400D01*
%TO.N,Net-(D51-K)*%
X195005200Y-143250700D02*
X195005200Y-131021500D01*
X192498600Y-145757300D02*
X195005200Y-143250700D01*
%TO.N,Net-(D52-K)*%
X189521700Y-122107700D02*
X189521700Y-130940800D01*
X201205600Y-110423800D02*
X189521700Y-122107700D01*
%TO.N,Net-(D56-K)*%
X237512800Y-113191900D02*
X237711400Y-113390500D01*
X237512800Y-98340600D02*
X237512800Y-113191900D01*
X237515500Y-98337900D02*
X237512800Y-98340600D01*
%TO.N,Net-(D57-K)*%
X235555700Y-115531400D02*
X235555700Y-122900800D01*
X235555700Y-122900800D02*
X235621600Y-122966700D01*
%TO.N,Net-(D61-K)*%
X266116700Y-147578400D02*
X266116700Y-100084700D01*
X266116700Y-100084700D02*
X264589000Y-98557000D01*
X264704200Y-148990900D02*
X266116700Y-147578400D01*
%TO.N,Net-(D62-K)*%
X261602600Y-172707600D02*
X258348700Y-169453700D01*
X258348700Y-169453700D02*
X258348700Y-148990900D01*
%TO.N,Net-(D63-K)*%
X255629800Y-187024200D02*
X259130300Y-190524700D01*
X255629800Y-166791100D02*
X255629800Y-187024200D01*
%TO.N,Net-(D66-K)*%
X306821900Y-202241400D02*
X302769300Y-206294000D01*
X306821900Y-184750400D02*
X306821900Y-202241400D01*
%TO.N,Net-(D69-K)*%
X305302900Y-196576900D02*
X305550500Y-196824500D01*
X305302900Y-196576900D02*
X305550500Y-196824500D01*
X305550500Y-200533400D02*
X302608900Y-203475000D01*
X305552000Y-196327800D02*
X305302900Y-196576900D01*
X305550500Y-196824500D02*
X305550500Y-200533400D01*
X305552000Y-172724500D02*
X305552000Y-196327800D01*
%TO.N,Net-(D70-K)*%
X312371400Y-205358200D02*
X312371400Y-161169200D01*
X312371400Y-161169200D02*
X312682900Y-160857700D01*
%TO.N,Net-(D73-K)*%
X339249000Y-157950100D02*
X339249000Y-205358200D01*
X330289800Y-148990900D02*
X339249000Y-157950100D01*
%TO.N,Net-(D74-K)*%
X333879200Y-204182700D02*
X332703700Y-205358200D01*
X333879200Y-197228500D02*
X333879200Y-204182700D01*
%TO.N,Net-(D75-K)*%
X342235400Y-187558000D02*
X345221800Y-190544400D01*
X345221800Y-190544400D02*
X345221800Y-205358200D01*
%TO.N,Net-(D76-K)*%
X356286800Y-197595500D02*
X356286800Y-206244000D01*
X363140200Y-190742100D02*
X356286800Y-197595500D01*
%TO.N,Net-(D81-K)*%
X318344200Y-131269500D02*
X318344200Y-140090800D01*
X330289800Y-119323900D02*
X318344200Y-131269500D01*
%TO.N,Net-(D82-K)*%
X357568400Y-119273800D02*
X357568400Y-128224000D01*
X354181000Y-115886400D02*
X357568400Y-119273800D01*
%TO.N,Net-(D88-K)*%
X294453000Y-119189400D02*
X294587500Y-119323900D01*
X294453000Y-110245200D02*
X294453000Y-119189400D01*
%TO.N,Net-(D90-K)*%
X311676600Y-96249900D02*
X311676600Y-95962800D01*
X306018600Y-136102900D02*
X306398600Y-136482900D01*
X311676600Y-96249900D02*
X306398600Y-101527900D01*
X311676600Y-95962800D02*
X311676600Y-96249900D01*
X306398600Y-136482900D02*
X306018600Y-136102900D01*
X306398600Y-101527900D02*
X306398600Y-136482900D01*
%TO.N,Net-(D93-K)*%
X228752200Y-92623600D02*
X228752200Y-102013000D01*
%TO.N,Net-(D94-K)*%
X247157500Y-111352500D02*
X238214500Y-102409500D01*
X247157500Y-139569900D02*
X247157500Y-111352500D01*
%TO.N,Net-(J1-Pin_2)*%
X282369800Y-119316600D02*
X282369800Y-84749800D01*
X279458400Y-122228000D02*
X282369800Y-119316600D01*
X282369800Y-84749800D02*
X281080000Y-83460000D01*
%TO.N,Net-(J1-Pin_3)*%
X273230600Y-120458000D02*
X273548200Y-120140400D01*
X273548200Y-120140400D02*
X273548200Y-90991800D01*
X273548200Y-120140400D02*
X273230600Y-120458000D01*
X273548200Y-90991800D02*
X278540000Y-86000000D01*
%TO.N,Net-(J1-Pin_1)*%
X166975000Y-119275000D02*
X166975000Y-118123300D01*
X166709000Y-100184100D02*
X166709000Y-100765400D01*
X165706300Y-95636100D02*
X165706300Y-99181400D01*
X166709000Y-100765400D02*
X166415800Y-101058600D01*
X166415800Y-101058600D02*
X166415800Y-117564100D01*
X165706300Y-99181400D02*
X166709000Y-100184100D01*
X166415800Y-117564100D02*
X166975000Y-118123300D01*
%TO.N,Net-(J5-Pin_29)*%
X149195000Y-86300000D02*
X149195000Y-149989300D01*
X149195000Y-149989300D02*
X161007400Y-161801700D01*
%TO.N,Net-(J5-Pin_7)*%
X183485000Y-99456000D02*
X184938700Y-100909700D01*
X183671800Y-84721700D02*
X183485000Y-84908500D01*
X184938700Y-122393500D02*
X185646200Y-123101000D01*
X183485000Y-84908500D02*
X183671800Y-84721700D01*
X183485000Y-84908500D02*
X183485000Y-99456000D01*
X184938700Y-100909700D02*
X184938700Y-122393500D01*
X183671800Y-84721700D02*
X183485000Y-84908500D01*
%TO.N,GND*%
X166975000Y-121815000D02*
X166975000Y-122966700D01*
X216150000Y-193140000D02*
X216150000Y-194291700D01*
X312675000Y-126965000D02*
X312675000Y-128116700D01*
X72040000Y-208650000D02*
X77216700Y-208650000D01*
X216175000Y-131820000D02*
X216175000Y-132971700D01*
X216869900Y-197068300D02*
X217301700Y-196636500D01*
X102825000Y-198170000D02*
X102825000Y-197018300D01*
X346675000Y-128543300D02*
X347394900Y-128543300D01*
X98061100Y-144629900D02*
X98061100Y-130363300D01*
X215455100Y-130668300D02*
X215023300Y-130236500D01*
X246600000Y-198195000D02*
X246600000Y-197043300D01*
X328001700Y-194748500D02*
X328001700Y-196661500D01*
X167654800Y-125743300D02*
X168126700Y-125271400D01*
X103976700Y-194673500D02*
X103544900Y-194241700D01*
X117300000Y-132095000D02*
X117300000Y-130943300D01*
X166975000Y-125743300D02*
X167654800Y-125743300D01*
X300425800Y-136067500D02*
X296975000Y-132616700D01*
X118451700Y-128598500D02*
X118451700Y-130511500D01*
X103976700Y-196586500D02*
X103976700Y-194673500D01*
X186100000Y-196968300D02*
X186819900Y-196968300D01*
X101600000Y-131515000D02*
X101600000Y-130363300D01*
X217301700Y-166073400D02*
X216150000Y-164921700D01*
X97350600Y-129652800D02*
X98061100Y-130363300D01*
X313394900Y-130893300D02*
X313826700Y-130461500D01*
X326850000Y-198245000D02*
X326850000Y-197093300D01*
X118019900Y-128166700D02*
X118451700Y-128598500D01*
X167891400Y-123203300D02*
X167211600Y-123203300D01*
X264589000Y-114360700D02*
X264350000Y-114121700D01*
X313394900Y-128116700D02*
X312675000Y-128116700D01*
X264350000Y-112970000D02*
X264350000Y-114121700D01*
X102825000Y-197018300D02*
X103544900Y-197018300D01*
X300425800Y-170667900D02*
X300425800Y-136067500D01*
X216869900Y-162618300D02*
X217301700Y-162186500D01*
X347826700Y-126198500D02*
X347394900Y-125766700D01*
X215023300Y-130236500D02*
X215023300Y-128323500D01*
X166975000Y-126895000D02*
X166975000Y-125743300D01*
X118451700Y-130511500D02*
X118019900Y-130943300D01*
X167211600Y-123203300D02*
X166975000Y-122966700D01*
X132350000Y-193015000D02*
X132350000Y-192439100D01*
X132350000Y-192439100D02*
X131184400Y-193604700D01*
X77216700Y-208650000D02*
X87125000Y-198741700D01*
X300425800Y-170667900D02*
X300425800Y-191785800D01*
X187251700Y-194623500D02*
X186819900Y-194191700D01*
X312675000Y-132045000D02*
X312675000Y-130893300D01*
X347394900Y-125766700D02*
X346675000Y-125766700D01*
X67961400Y-100390900D02*
X64835000Y-97264500D01*
X103544900Y-197018300D02*
X103976700Y-196586500D01*
X216175000Y-126740000D02*
X216175000Y-127891700D01*
X217301700Y-194291700D02*
X217301700Y-166073400D01*
X216175000Y-131820000D02*
X216175000Y-130668300D01*
X247319800Y-194266700D02*
X247751700Y-194698600D01*
X217301700Y-194291700D02*
X216150000Y-194291700D01*
X265501700Y-113908800D02*
X265049800Y-114360700D01*
X215455100Y-127891700D02*
X216175000Y-127891700D01*
X168126700Y-125271400D02*
X168126700Y-123438600D01*
X347394900Y-128543300D02*
X347826700Y-128111500D01*
X186819900Y-194191700D02*
X186100000Y-194191700D01*
X313826700Y-128548500D02*
X313394900Y-128116700D01*
X246600000Y-194266700D02*
X247319800Y-194266700D01*
X247751700Y-194698600D02*
X247751700Y-196611500D01*
X117300000Y-128166700D02*
X118019900Y-128166700D01*
X133069800Y-191863300D02*
X132350000Y-191863300D01*
X186819900Y-196968300D02*
X187251700Y-196536500D01*
X300425800Y-191785800D02*
X297919900Y-194291700D01*
X131184400Y-193604700D02*
X131184400Y-196457500D01*
X298351700Y-196636500D02*
X297919900Y-197068300D01*
X264350000Y-107890000D02*
X264350000Y-109041700D01*
X94967200Y-166188100D02*
X91191700Y-162412600D01*
X132350000Y-192439100D02*
X132350000Y-191863300D01*
X217301700Y-134098400D02*
X216175000Y-132971700D01*
X327569900Y-197093300D02*
X326850000Y-197093300D01*
X297919900Y-194291700D02*
X298351700Y-194723500D01*
X216175000Y-130668300D02*
X215455100Y-130668300D01*
X264350000Y-109041700D02*
X265069900Y-109041700D01*
X64835000Y-97264500D02*
X64835000Y-83425000D01*
X216150000Y-198220000D02*
X216150000Y-197068300D01*
X217301700Y-159841700D02*
X217301700Y-134098400D01*
X347826700Y-128111500D02*
X347826700Y-126198500D01*
X264589000Y-125149000D02*
X264589000Y-114360700D01*
X217301700Y-196636500D02*
X217301700Y-194291700D01*
X327569900Y-194316700D02*
X328001700Y-194748500D01*
X326850000Y-194316700D02*
X327569900Y-194316700D01*
X216150000Y-163770000D02*
X216150000Y-162618300D01*
X91191700Y-151499300D02*
X98061100Y-144629900D01*
X328001700Y-196661500D02*
X327569900Y-197093300D01*
X186100000Y-198120000D02*
X186100000Y-196968300D01*
X131184400Y-196457500D02*
X131670200Y-196943300D01*
X312675000Y-130893300D02*
X313394900Y-130893300D01*
X135153000Y-189780100D02*
X133069800Y-191863300D01*
X117300000Y-127015000D02*
X117300000Y-128166700D01*
X265049800Y-114360700D02*
X264589000Y-114360700D01*
X265501700Y-109473500D02*
X265501700Y-113908800D01*
X98061100Y-130363300D02*
X101600000Y-130363300D01*
X215023300Y-128323500D02*
X215455100Y-127891700D01*
X131670200Y-196943300D02*
X132350000Y-196943300D01*
X216150000Y-158690000D02*
X216150000Y-159841700D01*
X87125000Y-197590000D02*
X87125000Y-198741700D01*
X135153000Y-173503700D02*
X135153000Y-189780100D01*
X297919900Y-197068300D02*
X297200000Y-197068300D01*
X296975000Y-131465000D02*
X296975000Y-132616700D01*
X297200000Y-193140000D02*
X297200000Y-194291700D01*
X264589000Y-136907400D02*
X264589000Y-125149000D01*
X187251700Y-196536500D02*
X187251700Y-194623500D01*
X216150000Y-163770000D02*
X216150000Y-164921700D01*
X297200000Y-194291700D02*
X297919900Y-194291700D01*
X346675000Y-129695000D02*
X346675000Y-128543300D01*
X297200000Y-198220000D02*
X297200000Y-197068300D01*
X265069900Y-109041700D02*
X265501700Y-109473500D01*
X313826700Y-130461500D02*
X313826700Y-128548500D01*
X102825000Y-193090000D02*
X102825000Y-194241700D01*
X216150000Y-159841700D02*
X217301700Y-159841700D01*
X216150000Y-197068300D02*
X216869900Y-197068300D01*
X132350000Y-198095000D02*
X132350000Y-196943300D01*
X247319900Y-197043300D02*
X246600000Y-197043300D01*
X118019900Y-130943300D02*
X117300000Y-130943300D01*
X186100000Y-193040000D02*
X186100000Y-194191700D01*
X246600000Y-193115000D02*
X246600000Y-194266700D01*
X97350600Y-101791500D02*
X97350600Y-129652800D01*
X91191700Y-162412600D02*
X91191700Y-151499300D01*
X298351700Y-194723500D02*
X298351700Y-196636500D01*
X346675000Y-124615000D02*
X346675000Y-125766700D01*
X168126700Y-123438600D02*
X167891400Y-123203300D01*
X326850000Y-193165000D02*
X326850000Y-194316700D01*
X216150000Y-162618300D02*
X216869900Y-162618300D01*
X103544900Y-194241700D02*
X102825000Y-194241700D01*
X217301700Y-162186500D02*
X217301700Y-159841700D01*
X247751700Y-196611500D02*
X247319900Y-197043300D01*
%TO.N,Net-(J5-Pin_4)*%
X175007600Y-143057500D02*
X174628200Y-143436900D01*
X177276400Y-93402300D02*
X180945000Y-89733700D01*
X177276400Y-99534200D02*
X177276400Y-93402300D01*
X177722800Y-99980600D02*
X177276400Y-99534200D01*
X177722800Y-140342300D02*
X177722800Y-99980600D01*
X132350000Y-148908900D02*
X132350000Y-190475000D01*
X180945000Y-89733700D02*
X180945000Y-85030000D01*
X180945000Y-85030000D02*
X182215000Y-83760000D01*
X174628200Y-143436900D02*
X175007600Y-143057500D01*
X137822000Y-143436900D02*
X132350000Y-148908900D01*
X175007600Y-143057500D02*
X177722800Y-140342300D01*
%TO.N,Net-(J5-Pin_26)*%
X157413300Y-151554600D02*
X157413300Y-93878300D01*
X161829900Y-193491400D02*
X161565700Y-193227200D01*
X161709200Y-177075300D02*
X161709200Y-155850500D01*
X161565700Y-193227200D02*
X161565700Y-177218800D01*
X161565700Y-177218800D02*
X161709200Y-177075300D01*
X150465100Y-86930100D02*
X150465100Y-85742500D01*
X150465100Y-85742500D02*
X151177600Y-85030000D01*
X153005000Y-85030000D02*
X154275000Y-83760000D01*
X161709200Y-155850500D02*
X157413300Y-151554600D01*
X151177600Y-85030000D02*
X153005000Y-85030000D01*
X157413300Y-93878300D02*
X150465100Y-86930100D01*
%TO.N,Net-(J5-Pin_36)*%
X296975000Y-87792600D02*
X289950500Y-80768100D01*
X296975000Y-128925000D02*
X296975000Y-87792600D01*
X285493800Y-80768100D02*
X285493800Y-80768000D01*
X284640200Y-79912800D02*
X285493800Y-80766400D01*
X285493800Y-80766400D02*
X284640200Y-79912800D01*
X289950500Y-80768100D02*
X285493800Y-80768100D01*
X285493800Y-80768000D02*
X285493800Y-80766400D01*
X285493800Y-80768100D02*
X285493800Y-80768000D01*
X285493800Y-80768000D02*
X285493800Y-80768100D01*
%TO.N,Net-(J5-Pin_21)*%
X159355000Y-86300000D02*
X164253900Y-91198900D01*
X164253900Y-98383500D02*
X164503000Y-98632600D01*
X164503000Y-98632600D02*
X164503000Y-118690000D01*
X164503000Y-118690000D02*
X165103200Y-119290200D01*
X164253900Y-98383500D02*
X164503000Y-98632600D01*
X164253900Y-91198900D02*
X164253900Y-98383500D01*
%TO.N,Net-(J5-Pin_15)*%
X230900000Y-111877400D02*
X230900000Y-195075000D01*
X167788800Y-102163600D02*
X167912400Y-102040000D01*
X167408000Y-96555600D02*
X167158900Y-96306500D01*
X166975000Y-94353100D02*
X166975000Y-86300000D01*
X167158900Y-94537000D02*
X166975000Y-94353100D01*
X167912400Y-102040000D02*
X167912400Y-98690100D01*
X222699700Y-103677100D02*
X230900000Y-111877400D01*
X167158900Y-94537000D02*
X166975000Y-94353100D01*
X167408000Y-96555600D02*
X167158900Y-96306500D01*
X167408000Y-98185700D02*
X167408000Y-96555600D01*
X167158900Y-96306500D02*
X167158900Y-94537000D01*
X167912400Y-98690100D02*
X167408000Y-98185700D01*
%TO.N,Net-(J5-Pin_2)*%
X186044500Y-112309400D02*
X186044500Y-85049500D01*
X186949600Y-124354300D02*
X186949600Y-113214500D01*
X186044500Y-85049500D02*
X184755000Y-83760000D01*
X183096600Y-128207300D02*
X186949600Y-124354300D01*
X186949600Y-113214500D02*
X186044500Y-112309400D01*
%TO.N,Net-(J5-Pin_1)*%
X117300000Y-98690400D02*
X117300000Y-124475000D01*
X121241800Y-94748600D02*
X117300000Y-98690400D01*
%TO.N,Net-(J5-Pin_27)*%
X163245000Y-187060300D02*
X170033000Y-193848300D01*
X151735000Y-86300000D02*
X163019600Y-97584600D01*
X163019600Y-97584600D02*
X163019600Y-154622200D01*
X163019600Y-154622200D02*
X163245000Y-154847600D01*
X170033000Y-193848300D02*
X170400000Y-193848300D01*
X170400000Y-195000000D02*
X170400000Y-193848300D01*
X163245000Y-154847600D02*
X163245000Y-187060300D01*
%TO.N,Net-(J5-Pin_16)*%
X168375800Y-122836900D02*
X168177500Y-122638600D01*
X167017500Y-101523100D02*
X167310700Y-101229900D01*
X170821500Y-187461700D02*
X167723500Y-184363700D01*
X168728400Y-160281900D02*
X168728400Y-123189500D01*
X166380000Y-98361100D02*
X166380000Y-96804700D01*
X166471000Y-95182600D02*
X165705000Y-94416600D01*
X167310700Y-99291800D02*
X166380000Y-98361100D01*
X165705000Y-94416600D02*
X165705000Y-85030000D01*
X166380000Y-96804700D02*
X166308100Y-96732800D01*
X167310700Y-101229900D02*
X167310700Y-99291800D01*
X166380000Y-96804700D02*
X166308100Y-96732800D01*
X167723500Y-161286800D02*
X168728400Y-160281900D01*
X167723500Y-184363700D02*
X167723500Y-161286800D01*
X168177500Y-122638600D02*
X168177500Y-116051600D01*
X166308100Y-96732800D02*
X166471000Y-96569900D01*
X168177500Y-116051600D02*
X167017500Y-114891600D01*
X165705000Y-85030000D02*
X166975000Y-83760000D01*
X166471000Y-96569900D02*
X166471000Y-95182600D01*
X168728400Y-123189500D02*
X168375800Y-122836900D01*
X168375800Y-122836900D02*
X168177500Y-122638600D01*
X167017500Y-114891600D02*
X167017500Y-101523100D01*
%TO.N,Net-(J5-Pin_6)*%
X116650000Y-159594900D02*
X133187400Y-143057500D01*
X133187400Y-143057500D02*
X133187400Y-93778400D01*
X133187400Y-93778400D02*
X137963400Y-89002400D01*
X116650000Y-194975000D02*
X116650000Y-159594900D01*
%TO.N,Net-(J5-Pin_32)*%
X142845000Y-85794400D02*
X142845000Y-97452700D01*
X142845000Y-97452700D02*
X146916000Y-101523700D01*
X146655000Y-83760000D02*
X146142700Y-83760000D01*
X143609400Y-85030000D02*
X142845000Y-85794400D01*
X146142700Y-83760000D02*
X144872700Y-85030000D01*
X144872700Y-85030000D02*
X143609400Y-85030000D01*
%TO.N,Net-(J5-Pin_24)*%
X158085000Y-85030000D02*
X156815000Y-83760000D01*
X158085000Y-88462300D02*
X158085000Y-85030000D01*
X87125000Y-195050000D02*
X87125000Y-193898300D01*
X109270500Y-171752800D02*
X109270500Y-91781900D01*
X159869500Y-90844400D02*
X160168300Y-90545600D01*
X160168300Y-90545600D02*
X159869500Y-90844400D01*
X87125000Y-193898300D02*
X109270500Y-171752800D01*
X160168300Y-90545600D02*
X158085000Y-88462300D01*
%TO.N,Net-(J5-Pin_5)*%
X138523700Y-143727500D02*
X138523700Y-143146300D01*
X133069800Y-194403300D02*
X136708500Y-190764600D01*
X132350000Y-194403300D02*
X133069800Y-194403300D01*
X138523700Y-143146300D02*
X138176900Y-142799500D01*
X138176900Y-144074300D02*
X138523700Y-143727500D01*
X138176900Y-89957400D02*
X138176900Y-89843900D01*
X138176900Y-142799500D02*
X138176900Y-89957400D01*
X136708500Y-190764600D02*
X136708500Y-156112400D01*
X132350000Y-195555000D02*
X132350000Y-194403300D01*
X138176900Y-89843900D02*
X138176900Y-89957400D01*
X138176900Y-154644000D02*
X138176900Y-144074300D01*
X136708500Y-156112400D02*
X138176900Y-154644000D01*
%TO.N,Net-(J5-Pin_38)*%
X140306400Y-85031400D02*
X140306400Y-157005800D01*
X140306400Y-157005800D02*
X140152500Y-157159700D01*
X140152500Y-157159700D02*
X140152500Y-192343900D01*
X140152500Y-192343900D02*
X141300000Y-193491400D01*
X139035000Y-83760000D02*
X140306400Y-85031400D01*
%TO.N,Net-(J5-Pin_19)*%
X337753500Y-82208300D02*
X342235400Y-82208300D01*
X342235400Y-86690200D02*
X346675000Y-91129800D01*
X346675000Y-91129800D02*
X346675000Y-122075000D01*
X342235400Y-86690200D02*
X337753500Y-82208300D01*
X342235400Y-82208300D02*
X337753500Y-82208300D01*
%TO.N,Net-(J5-Pin_30)*%
X145385000Y-85794400D02*
X146149400Y-85030000D01*
X147870300Y-160608600D02*
X147870300Y-97255600D01*
X147844100Y-85030000D02*
X149114100Y-83760000D01*
X146149400Y-85030000D02*
X147844100Y-85030000D01*
X145385000Y-94770300D02*
X145385000Y-85794400D01*
X148119400Y-160857700D02*
X147870300Y-160608600D01*
X147870300Y-97255600D02*
X145385000Y-94770300D01*
X149114100Y-83760000D02*
X149195000Y-83760000D01*
%TO.N,Net-(J5-Pin_18)*%
X281500000Y-195100000D02*
X281500000Y-193948300D01*
X164332300Y-83657300D02*
X164435000Y-83760000D01*
X269272300Y-81177700D02*
X270561800Y-81177700D01*
X164866900Y-81177700D02*
X164332300Y-81712300D01*
X269650000Y-82089500D02*
X269650000Y-182098300D01*
X270561800Y-81177700D02*
X269272300Y-81177700D01*
X164332300Y-81712300D02*
X164332300Y-83657300D01*
X270561800Y-81177700D02*
X269650000Y-82089500D01*
X164332300Y-81712300D02*
X164866900Y-81177700D01*
X269650000Y-182098300D02*
X281500000Y-193948300D01*
%TO.N,Net-(J5-Pin_37)*%
X139596200Y-86861200D02*
X139596200Y-131214500D01*
X321330600Y-134157400D02*
X326850000Y-139676800D01*
X139035000Y-86300000D02*
X139596200Y-86861200D01*
X326850000Y-139676800D02*
X326850000Y-190625000D01*
%TO.N,Net-(J5-Pin_20)*%
X173832900Y-120011500D02*
X175239000Y-121417600D01*
X175238900Y-121417700D02*
X175239000Y-121417600D01*
X175239000Y-121417600D02*
X175238900Y-121417700D01*
X173832900Y-88409400D02*
X173832900Y-120011500D01*
%TO.N,Net-(J5-Pin_22)*%
X102825000Y-190550000D02*
X102825000Y-189398300D01*
X115269000Y-176954300D02*
X102825000Y-189398300D01*
X115269000Y-83723500D02*
X115269000Y-176954300D01*
%TO.N,Net-(J5-Pin_28)*%
X148676600Y-85048300D02*
X149908500Y-85048300D01*
X148545200Y-153272300D02*
X148545200Y-95580100D01*
X149908500Y-85048300D02*
X151196800Y-83760000D01*
X148545200Y-95580100D02*
X147943300Y-94978200D01*
X151196800Y-83760000D02*
X151735000Y-83760000D01*
X147943300Y-94978200D02*
X147943300Y-85781600D01*
X151105800Y-155832900D02*
X148545200Y-153272300D01*
X147943300Y-85781600D02*
X148676600Y-85048300D01*
%TO.N,Net-(J5-Pin_11)*%
X172055000Y-151585000D02*
X172055000Y-86300000D01*
X216150000Y-195680000D02*
X172055000Y-151585000D01*
%TO.N,Net-(J5-Pin_10)*%
X173131200Y-146429500D02*
X216150000Y-189448300D01*
X174595000Y-83760000D02*
X173325000Y-85030000D01*
X216150000Y-190600000D02*
X216150000Y-189448300D01*
X173325000Y-87925100D02*
X173131200Y-88118900D01*
X173325000Y-85030000D02*
X173325000Y-87925100D01*
X173131200Y-88118900D02*
X173131200Y-146429500D01*
%TO.N,Net-(J5-Pin_12)*%
X200450000Y-193948300D02*
X170785000Y-164283300D01*
X170785000Y-164283300D02*
X170785000Y-85030000D01*
X170785000Y-85030000D02*
X172055000Y-83760000D01*
X200450000Y-195100000D02*
X200450000Y-193948300D01*
%TO.N,Net-(J5-Pin_3)*%
X101600000Y-128975000D02*
X101600000Y-97700700D01*
X101600000Y-97700700D02*
X106677100Y-92623600D01*
%TO.N,Net-(J5-Pin_23)*%
X101652200Y-194457200D02*
X102825000Y-195630000D01*
X114422400Y-87911100D02*
X114422400Y-174760300D01*
X101652200Y-187530500D02*
X101652200Y-194457200D01*
X114422400Y-174760300D02*
X101652200Y-187530500D01*
%TO.N,Net-(J5-Pin_31)*%
X147238000Y-86883000D02*
X147238000Y-95276200D01*
X146655000Y-86300000D02*
X147238000Y-86883000D01*
%TO.N,Net-(J5-Pin_33)*%
X144115000Y-94991000D02*
X146725400Y-97601400D01*
X144115000Y-86300000D02*
X144115000Y-94991000D01*
%TO.N,Net-(J5-Pin_14)*%
X169376800Y-161444600D02*
X169376800Y-115937700D01*
X168246500Y-85028500D02*
X169515000Y-83760000D01*
X168495600Y-162573400D02*
X168371800Y-162449600D01*
X168495600Y-162573400D02*
X168371800Y-162449600D01*
X168775100Y-98566500D02*
X168246500Y-98037900D01*
X168371800Y-162449600D02*
X169376800Y-161444600D01*
X168246500Y-98037900D02*
X168246500Y-85028500D01*
X169376800Y-115937700D02*
X169024200Y-115585100D01*
X176224000Y-191751700D02*
X168495600Y-184023300D01*
X169024200Y-115585100D02*
X168775100Y-115336000D01*
X168495600Y-184023300D02*
X168495600Y-162573400D01*
X169024200Y-115585100D02*
X168775100Y-115336000D01*
X168775100Y-115336000D02*
X168775100Y-98566500D01*
%TO.N,Net-(J5-Pin_34)*%
X308596100Y-81485500D02*
X309385000Y-80696600D01*
X312675000Y-124425000D02*
X312675000Y-83986600D01*
X312675000Y-83986600D02*
X309385000Y-80696600D01*
X309385000Y-80696600D02*
X308596100Y-81485500D01*
%TO.N,Net-(J5-Pin_8)*%
X186893800Y-111309400D02*
X186774600Y-111190200D01*
X187551300Y-111966900D02*
X186893800Y-111309400D01*
X186774600Y-83965900D02*
X185261400Y-82452700D01*
X186893800Y-111309400D02*
X186774600Y-111190200D01*
X189243800Y-131655700D02*
X187551300Y-129963200D01*
X186774600Y-111190200D02*
X186774600Y-83965900D01*
X185261400Y-82452700D02*
X178442300Y-82452700D01*
X187551300Y-129963200D02*
X187551300Y-111966900D01*
X178442300Y-82452700D02*
X177135000Y-83760000D01*
X192829300Y-131655700D02*
X189243800Y-131655700D01*
%TO.N,Net-(J5-Pin_39)*%
X311150000Y-159675700D02*
X311150000Y-195125000D01*
X138886700Y-88691700D02*
X136495000Y-86300000D01*
X138886700Y-154924300D02*
X139125400Y-154685600D01*
X138886700Y-142658500D02*
X138886700Y-88691700D01*
X306398600Y-154924300D02*
X311150000Y-159675700D01*
X139125400Y-142897200D02*
X138886700Y-142658500D01*
X139125400Y-154685600D02*
X139125400Y-142897200D01*
%TO.N,Net-(J5-Pin_13)*%
X169978500Y-175714400D02*
X169978500Y-115688600D01*
X169625900Y-115336000D02*
X169515000Y-115225100D01*
X169515000Y-115225100D02*
X169515000Y-86300000D01*
X169625900Y-115336000D02*
X169515000Y-115225100D01*
X169978500Y-115688600D02*
X169625900Y-115336000D01*
X183906500Y-189642400D02*
X169978500Y-175714400D01*
%TO.N,Net-(J5-Pin_35)*%
X141575000Y-86300000D02*
X141575000Y-123317900D01*
X141575000Y-123317900D02*
X146916000Y-128658900D01*
%TO.N,Net-(J5-Pin_9)*%
X202844600Y-125178700D02*
X200475000Y-127548300D01*
X174595000Y-86300000D02*
X175685600Y-87390600D01*
X200475000Y-128700000D02*
X200475000Y-127548300D01*
X177079400Y-111265500D02*
X175685600Y-109871700D01*
X175685600Y-87390600D02*
X175685600Y-109871700D01*
X175685600Y-109871700D02*
X177079400Y-111265500D01*
X202844600Y-111265500D02*
X202844600Y-125178700D01*
%TO.N,Net-(J5-Pin_17)*%
X293028700Y-84945700D02*
X293028700Y-191508700D01*
X290120200Y-84730000D02*
X291466600Y-83383600D01*
X291466600Y-83383600D02*
X293028700Y-84945700D01*
X291466600Y-83383600D02*
X290120200Y-84730000D01*
X293028700Y-191508700D02*
X297200000Y-195680000D01*
%TO.N,Net-(J5-Pin_25)*%
X163621300Y-95646300D02*
X163621300Y-154373100D01*
X163901300Y-186724400D02*
X168539700Y-191362800D01*
X154275000Y-86300000D02*
X163621300Y-95646300D01*
X163621300Y-154373100D02*
X163901300Y-154653100D01*
X163901300Y-154653100D02*
X163901300Y-186724400D01*
%TD*%
M02*
