M48
; DRILL file {KiCad 9.0.2} date 2025-09-13T21:06:57+0200
; FORMAT={-:-/ absolute / inch / decimal}
; #@! TF.CreationDate,2025-09-13T21:06:57+02:00
; #@! TF.GenerationSoftware,Kicad,Pcbnew,9.0.2
; #@! TF.FileFunction,Plated,1,2,PTH
FMAT,2
INCH
; #@! TA.AperFunction,Plated,PTH,ViaDrill
T1C0.0118
; #@! TA.AperFunction,Plated,PTH,ComponentDrill
T2C0.0394
; #@! TA.AperFunction,Plated,PTH,ComponentDrill
T3C0.0598
%
G90
G05
T1
X2.1867Y-6.2162
X2.3042Y-4.6799
X2.3042Y-7.1506
X2.3366Y-7.1169
X2.4218Y-4.1138
X2.4337Y-5.3986
X2.4529Y-8.085
X2.4554Y-6.2162
X2.5394Y-4.8146
X2.657Y-3.997
X2.657Y-5.3986
X2.6756Y-3.9524
X3.1273Y-8.0561
X3.2448Y-7.2674
X3.572Y-5.3986
X3.5902Y-5.9645
X3.5976Y-4.8146
X3.7389Y-6.5428
X3.8327Y-4.0075
X3.9418Y-4.2111
X3.9503Y-3.7634
X4.1999Y-3.6466
X4.2658Y-7.9682
X4.302Y-3.6135
X4.303Y-7.2751
X4.5048Y-3.4611
X4.5381Y-3.2962
X4.7733Y-3.7303
X5.053Y-8.1017
X5.126Y-7.9682
X5.1487Y-3.3398
X5.1499Y-6.7028
X5.1551Y-7.1085
X5.1594Y-3.8802
X5.1749Y-4.9175
X5.2103Y-4.4642
X5.321Y-6.8309
X5.3349Y-5.3986
X5.3612Y-4.4642
X5.4128Y-7.4973
X5.4261Y-5.6471
X5.4316Y-3.504
X5.44Y-3.5416
X5.4619Y-8.0602
X5.468Y-6.0994
X5.4959Y-5.1659
X5.5454Y-6.1988
X5.5571Y-5.4927
X5.563Y-7.6178
X5.6017Y-6.333
X5.7038Y-6.8746
X5.7038Y-7.2573
X5.7139Y-5.5246
X5.7766Y-3.8426
X5.7841Y-3.997
X5.7841Y-5.0653
X5.7968Y-3.751
X5.8315Y-6.333
X5.949Y-6.1352
X6.3018Y-5.5154
X6.3058Y-3.5648
X6.3389Y-6.3701
X6.3713Y-7.6178
X6.3898Y-6.065
X6.3898Y-7.0338
X6.4694Y-6.0662
X6.4698Y-3.217
X6.5001Y-4.6965
X6.5239Y-3.7652
X6.5369Y-6.4498
X6.5558Y-8.085
X6.6059Y-4.0222
X6.6354Y-7.534
X6.7253Y-7.3804
X6.8438Y-3.4807
X6.8901Y-5.6322
X6.8992Y-4.7802
X6.9168Y-4.3257
X6.938Y-7.5493
X7.0072Y-3.8927
X7.1576Y-4.551
X7.1576Y-5.1355
X7.2085Y-5.0475
X7.2312Y-3.3355
X7.2404Y-7.4662
X7.3089Y-4.8465
X7.3089Y-4.4451
X7.4615Y-5.1551
X7.5787Y-5.7385
X7.5917Y-5.1833
X7.6774Y-5.1583
X7.7127Y-5.3986
X7.8302Y-3.6466
X7.9215Y-4.3474
X7.9536Y-4.4962
X7.986Y-4.3805
X8.7677Y-4.0818
X8.9136Y-5.8536
X8.918Y-8.1634
X8.9319Y-6.5286
X8.9387Y-7.1353
X9.006Y-3.6466
X9.006Y-4.0163
X9.006Y-6.5768
X9.006Y-7.1931
X9.2738Y-4.5485
X9.2764Y-4.8412
X9.351Y-3.8716
X9.3587Y-4.4642
X9.3785Y-4.0319
X9.4763Y-6.0662
X9.4763Y-6.6834
X9.4763Y-7.1506
X9.5939Y-6.2162
X9.7306Y-5.4949
X9.9203Y-8.1176
X9.9756Y-6.917
X10.0642Y-6.5666
X10.1712Y-5.8658
X10.202Y-7.501
X10.2993Y-6.7995
X10.4169Y-3.8802
X10.4169Y-4.9271
X10.4169Y-5.3901
X10.4214Y-5.8658
X10.652Y-3.196
X10.7696Y-4.7299
X11.0023Y-4.8121
X11.2399Y-3.1798
X11.3575Y-6.5666
X11.3721Y-5.9757
X11.4751Y-3.2828
X11.4859Y-5.3986
X11.5926Y-4.3404
X11.5979Y-4.6978
X11.8278Y-6.7192
X11.9137Y-8.0108
X11.9201Y-8.1218
X12.0296Y-6.8002
X12.0629Y-5.3733
X12.0629Y-6.0994
X12.0796Y-7.2736
X12.1805Y-3.177
X12.2707Y-3.7894
X12.2981Y-8.085
X12.3104Y-6.333
X12.3959Y-5.4183
X12.4444Y-4.2306
X12.507Y-3.459
X12.5332Y-5.5154
X12.6508Y-5.2818
X12.7699Y-6.6988
X13.0035Y-4.6978
X13.0035Y-5.8658
X13.0986Y-8.085
X13.1449Y-7.7649
X13.2974Y-3.2365
X13.3563Y-8.085
X13.4738Y-7.3842
X13.5914Y-8.085
X13.9441Y-4.5625
X14.027Y-8.1198
X14.0775Y-5.0482
X14.2969Y-7.5095
T2
X3.4301Y-7.6791
X3.4301Y-7.7791
X4.0Y-5.0778
X4.0Y-5.1778
X4.0482Y-7.502
X4.0482Y-7.602
X4.0482Y-7.702
X4.0482Y-7.802
X4.5925Y-7.6762
X4.5925Y-7.7762
X4.6181Y-4.9006
X4.6181Y-5.0006
X4.6181Y-5.1006
X4.6181Y-5.2006
X5.2106Y-7.499
X5.2106Y-7.599
X5.2106Y-7.699
X5.2106Y-7.799
X5.3738Y-3.2976
X5.3738Y-3.3976
X5.4738Y-3.2976
X5.4738Y-3.3976
X5.5738Y-3.2976
X5.5738Y-3.3976
X5.6738Y-3.2976
X5.6738Y-3.3976
X5.7738Y-3.2976
X5.7738Y-3.3976
X5.8738Y-3.2976
X5.8738Y-3.3976
X5.9557Y-4.873
X5.9557Y-4.973
X5.9738Y-3.2976
X5.9738Y-3.3976
X6.0738Y-3.2976
X6.0738Y-3.3976
X6.1738Y-3.2976
X6.1738Y-3.3976
X6.2738Y-3.2976
X6.2738Y-3.3976
X6.3738Y-3.2976
X6.3738Y-3.3976
X6.4738Y-3.2976
X6.4738Y-3.3976
X6.5738Y-3.2976
X6.5738Y-3.3976
X6.5738Y-4.6959
X6.5738Y-4.7959
X6.5738Y-4.8959
X6.5738Y-4.9959
X6.6738Y-3.2976
X6.6738Y-3.3976
X6.7087Y-7.6772
X6.7087Y-7.7772
X6.7738Y-3.2976
X6.7738Y-3.3976
X6.8738Y-3.2976
X6.8738Y-3.3976
X6.9738Y-3.2976
X6.9738Y-3.3976
X7.0738Y-3.2976
X7.0738Y-3.3976
X7.1738Y-3.2976
X7.1738Y-3.3976
X7.2738Y-3.2976
X7.2738Y-3.3976
X7.3268Y-7.5
X7.3268Y-7.6
X7.3268Y-7.7
X7.3268Y-7.8
X7.8917Y-6.3248
X7.8917Y-6.4248
X7.8917Y-7.6811
X7.8917Y-7.7811
X7.8927Y-5.0669
X7.8927Y-5.1669
X8.5098Y-6.1476
X8.5098Y-6.2476
X8.5098Y-6.3476
X8.5098Y-6.4476
X8.5098Y-7.5039
X8.5098Y-7.6039
X8.5098Y-7.7039
X8.5098Y-7.8039
X8.5108Y-4.8898
X8.5108Y-4.9898
X8.5108Y-5.0898
X8.5108Y-5.1898
X9.0906Y-7.6801
X9.0906Y-7.7801
X9.1661Y-3.2858
X9.1661Y-3.3858
X9.2661Y-3.2858
X9.2661Y-3.3858
X9.3661Y-3.2858
X9.3661Y-3.3858
X9.4661Y-3.2858
X9.4661Y-3.3858
X9.5661Y-3.2858
X9.5661Y-3.3858
X9.6661Y-3.2858
X9.6661Y-3.3858
X9.7087Y-7.503
X9.7087Y-7.603
X9.7087Y-7.703
X9.7087Y-7.803
X9.7661Y-3.2858
X9.7661Y-3.3858
X9.7894Y-4.3248
X9.7894Y-4.4248
X9.8661Y-3.2858
X9.8661Y-3.3858
X9.9661Y-3.2858
X9.9661Y-3.3858
X10.0661Y-3.2858
X10.0661Y-3.3858
X10.1661Y-3.2858
X10.1661Y-3.3858
X10.2661Y-3.2858
X10.2661Y-3.3858
X10.3661Y-3.2858
X10.3661Y-3.3858
X10.4075Y-4.1476
X10.4075Y-4.2476
X10.4075Y-4.3476
X10.4075Y-4.4476
X10.4661Y-3.2858
X10.4661Y-3.3858
X10.5661Y-3.2858
X10.5661Y-3.3858
X10.6661Y-3.2858
X10.6661Y-3.3858
X10.7661Y-3.2858
X10.7661Y-3.3858
X10.8661Y-3.2858
X10.8661Y-3.3858
X10.9661Y-3.2858
X10.9661Y-3.3858
X11.0661Y-3.2858
X11.0661Y-3.3858
X11.0827Y-7.6811
X11.0827Y-7.7811
X11.6919Y-5.0758
X11.6919Y-5.1758
X11.7008Y-7.5039
X11.7008Y-7.6039
X11.7008Y-7.7039
X11.7008Y-7.8039
X12.25Y-7.6821
X12.25Y-7.7821
X12.31Y-4.8986
X12.31Y-4.9986
X12.31Y-5.0986
X12.31Y-5.1986
X12.8681Y-7.5049
X12.8681Y-7.6049
X12.8681Y-7.7049
X12.8681Y-7.8049
X13.0305Y-4.9833
X13.0305Y-5.0833
X13.6486Y-4.8061
X13.6486Y-4.9061
X13.6486Y-5.0061
X13.6486Y-5.1061
T3
X2.5526Y-3.2844
X2.6362Y-8.2146
X2.7526Y-3.2844
X2.8362Y-8.2146
M30
