%TF.GenerationSoftware,KiCad,Pcbnew,9.0.3*%
%TF.CreationDate,2025-08-09T09:55:36+02:00*%
%TF.ProjectId,hyd-fuel,6879642d-6675-4656-9c2e-6b696361645f,rev?*%
%TF.SameCoordinates,Original*%
%TF.FileFunction,Copper,L1,Top*%
%TF.FilePolarity,Positive*%
%FSLAX46Y46*%
G04 Gerber Fmt 4.6, Leading zero omitted, Abs format (unit mm)*
G04 Created by KiCad (PCBNEW 9.0.3) date 2025-08-09 09:55:36*
%MOMM*%
%LPD*%
G01*
G04 APERTURE LIST*
G04 Aperture macros list*
%AMRoundRect*
0 Rectangle with rounded corners*
0 $1 Rounding radius*
0 $2 $3 $4 $5 $6 $7 $8 $9 X,Y pos of 4 corners*
0 Add a 4 corners polygon primitive as box body*
4,1,4,$2,$3,$4,$5,$6,$7,$8,$9,$2,$3,0*
0 Add four circle primitives for the rounded corners*
1,1,$1+$1,$2,$3*
1,1,$1+$1,$4,$5*
1,1,$1+$1,$6,$7*
1,1,$1+$1,$8,$9*
0 Add four rect primitives between the rounded corners*
20,1,$1+$1,$2,$3,$4,$5,0*
20,1,$1+$1,$4,$5,$6,$7,0*
20,1,$1+$1,$6,$7,$8,$9,0*
20,1,$1+$1,$8,$9,$2,$3,0*%
G04 Aperture macros list end*
%TA.AperFunction,SMDPad,CuDef*%
%ADD10RoundRect,0.165000X-0.385000X-0.885000X0.385000X-0.885000X0.385000X0.885000X-0.385000X0.885000X0*%
%TD*%
%TA.AperFunction,SMDPad,CuDef*%
%ADD11RoundRect,0.315000X-0.735000X-0.735000X0.735000X-0.735000X0.735000X0.735000X-0.735000X0.735000X0*%
%TD*%
%TA.AperFunction,SMDPad,CuDef*%
%ADD12RoundRect,0.250000X-0.400000X-0.625000X0.400000X-0.625000X0.400000X0.625000X-0.400000X0.625000X0*%
%TD*%
%TA.AperFunction,ComponentPad*%
%ADD13R,1.500000X1.500000*%
%TD*%
%TA.AperFunction,SMDPad,CuDef*%
%ADD14RoundRect,0.165000X0.885000X-0.385000X0.885000X0.385000X-0.885000X0.385000X-0.885000X-0.385000X0*%
%TD*%
%TA.AperFunction,SMDPad,CuDef*%
%ADD15RoundRect,0.315000X0.735000X-0.735000X0.735000X0.735000X-0.735000X0.735000X-0.735000X-0.735000X0*%
%TD*%
%TA.AperFunction,ComponentPad*%
%ADD16R,1.700000X1.700000*%
%TD*%
%TA.AperFunction,ComponentPad*%
%ADD17C,1.700000*%
%TD*%
%TA.AperFunction,ComponentPad*%
%ADD18R,3.000000X3.000000*%
%TD*%
%TA.AperFunction,ComponentPad*%
%ADD19C,3.000000*%
%TD*%
%TA.AperFunction,ViaPad*%
%ADD20C,0.600000*%
%TD*%
%TA.AperFunction,Conductor*%
%ADD21C,0.400000*%
%TD*%
%TA.AperFunction,Conductor*%
%ADD22C,0.600000*%
%TD*%
G04 APERTURE END LIST*
D10*
%TO.P,D40,1,K*%
%TO.N,Net-(D40-K)*%
X192175000Y-206900000D03*
D11*
%TO.P,D40,2,A*%
%TO.N,Net-(D39-K)*%
X194325000Y-206900000D03*
%TD*%
D10*
%TO.P,D77,1,K*%
%TO.N,Net-(D77-K)*%
X361150000Y-188425000D03*
D11*
%TO.P,D77,2,A*%
%TO.N,Net-(D76-K)*%
X363300000Y-188425000D03*
%TD*%
D12*
%TO.P,R24,1*%
%TO.N,Net-(D68-K)*%
X293100000Y-170100000D03*
%TO.P,R24,2*%
%TO.N,GND*%
X296200000Y-170100000D03*
%TD*%
D10*
%TO.P,D12,1,K*%
%TO.N,Net-(D12-K)*%
X125500000Y-116875000D03*
D11*
%TO.P,D12,2,A*%
%TO.N,Net-(D11-K)*%
X127650000Y-116875000D03*
%TD*%
D10*
%TO.P,D95,1,K*%
%TO.N,Net-(D95-K)*%
X242950000Y-139225000D03*
D11*
%TO.P,D95,2,A*%
%TO.N,Net-(D94-K)*%
X245100000Y-139225000D03*
%TD*%
D10*
%TO.P,D27,1,K*%
%TO.N,Net-(D27-K)*%
X114325000Y-168300000D03*
D11*
%TO.P,D27,2,A*%
%TO.N,Net-(D26-K)*%
X116475000Y-168300000D03*
%TD*%
D10*
%TO.P,D72,1,K*%
%TO.N,Net-(D72-K)*%
X286925000Y-153400000D03*
D11*
%TO.P,D72,2,A*%
%TO.N,+12V*%
X289075000Y-153400000D03*
%TD*%
D10*
%TO.P,D1,1,K*%
%TO.N,Net-(D1-K)*%
X55075000Y-105025000D03*
D11*
%TO.P,D1,2,A*%
%TO.N,+12V*%
X57225000Y-105025000D03*
%TD*%
D10*
%TO.P,D80,1,K*%
%TO.N,Net-(D80-K)*%
X362200000Y-139150000D03*
D11*
%TO.P,D80,2,A*%
%TO.N,Net-(D79-K)*%
X364350000Y-139150000D03*
%TD*%
D10*
%TO.P,D48,1,K*%
%TO.N,Net-(D48-K)*%
X238750000Y-158900000D03*
D11*
%TO.P,D48,2,A*%
%TO.N,+12V*%
X240900000Y-158900000D03*
%TD*%
D12*
%TO.P,R26,1*%
%TO.N,Net-(D74-K)*%
X334475000Y-195750000D03*
%TO.P,R26,2*%
%TO.N,GND*%
X337575000Y-195750000D03*
%TD*%
D10*
%TO.P,D41,1,K*%
%TO.N,Net-(D41-K)*%
X159525000Y-189250000D03*
D11*
%TO.P,D41,2,A*%
%TO.N,+12V*%
X161675000Y-189250000D03*
%TD*%
D10*
%TO.P,D42,1,K*%
%TO.N,Net-(D42-K)*%
X191950000Y-184100000D03*
D11*
%TO.P,D42,2,A*%
%TO.N,Net-(D41-K)*%
X194100000Y-184100000D03*
%TD*%
D10*
%TO.P,D87,1,K*%
%TO.N,Net-(D87-K)*%
X312125000Y-107925000D03*
D11*
%TO.P,D87,2,A*%
%TO.N,+12V*%
X314275000Y-107925000D03*
%TD*%
D12*
%TO.P,R4,1*%
%TO.N,Net-(D12-K)*%
X127550000Y-126800000D03*
%TO.P,R4,2*%
%TO.N,GND*%
X130650000Y-126800000D03*
%TD*%
%TO.P,R15,1*%
%TO.N,Net-(D43-K)*%
X223000000Y-175325000D03*
%TO.P,R15,2*%
%TO.N,GND*%
X226100000Y-175325000D03*
%TD*%
D10*
%TO.P,D15,1,K*%
%TO.N,Net-(D15-K)*%
X91400000Y-153575000D03*
D11*
%TO.P,D15,2,A*%
%TO.N,Net-(D14-K)*%
X93550000Y-153575000D03*
%TD*%
D12*
%TO.P,R11,1*%
%TO.N,Net-(D33-K)*%
X184100000Y-112825000D03*
%TO.P,R11,2*%
%TO.N,GND*%
X187200000Y-112825000D03*
%TD*%
D10*
%TO.P,D93,1,K*%
%TO.N,Net-(D93-K)*%
X320450000Y-85600000D03*
D11*
%TO.P,D93,2,A*%
%TO.N,+12V*%
X322600000Y-85600000D03*
%TD*%
D10*
%TO.P,D24,1,K*%
%TO.N,Net-(D24-K)*%
X129900000Y-178525000D03*
D11*
%TO.P,D24,2,A*%
%TO.N,Net-(D23-K)*%
X132050000Y-178525000D03*
%TD*%
D10*
%TO.P,D75,1,K*%
%TO.N,Net-(D75-K)*%
X335250000Y-184750000D03*
D11*
%TO.P,D75,2,A*%
%TO.N,+12V*%
X337400000Y-184750000D03*
%TD*%
D10*
%TO.P,D11,1,K*%
%TO.N,Net-(D11-K)*%
X117300000Y-100375000D03*
D11*
%TO.P,D11,2,A*%
%TO.N,Net-(D10-K)*%
X119450000Y-100375000D03*
%TD*%
D10*
%TO.P,D20,1,K*%
%TO.N,Net-(D20-K)*%
X77150000Y-185650000D03*
D11*
%TO.P,D20,2,A*%
%TO.N,Net-(D19-K)*%
X79300000Y-185650000D03*
%TD*%
D10*
%TO.P,D92,1,K*%
%TO.N,Net-(D92-K)*%
X288975000Y-91900000D03*
D11*
%TO.P,D92,2,A*%
%TO.N,Net-(D91-K)*%
X291125000Y-91900000D03*
%TD*%
D10*
%TO.P,D29,1,K*%
%TO.N,Net-(D29-K)*%
X142125000Y-138025000D03*
D11*
%TO.P,D29,2,A*%
%TO.N,Net-(D28-K)*%
X144275000Y-138025000D03*
%TD*%
D12*
%TO.P,R32,1*%
%TO.N,Net-(D92-K)*%
X295275000Y-99700000D03*
%TO.P,R32,2*%
%TO.N,GND*%
X298375000Y-99700000D03*
%TD*%
D13*
%TO.P,KR3,1,+5V_TOP_LED*%
%TO.N,Net-(J5-Pin_4)*%
X132350000Y-190475000D03*
%TO.P,KR3,2,GND_TOP_LED*%
%TO.N,GND*%
X132350000Y-193015000D03*
%TO.P,KR3,3,+5V_BOTTOM_LED*%
%TO.N,Net-(J5-Pin_5)*%
X132350000Y-195555000D03*
%TO.P,KR3,4,GND_BOTTOM_LED*%
%TO.N,GND*%
X132350000Y-198095000D03*
%TO.P,KR3,5,SW_IN*%
%TO.N,Net-(J5-Pin_6)*%
X116650000Y-194975000D03*
%TO.P,KR3,6,SW_OUT*%
%TO.N,GND*%
X116650000Y-197515000D03*
%TD*%
D12*
%TO.P,R14,1*%
%TO.N,Net-(D40-K)*%
X191675000Y-196025000D03*
%TO.P,R14,2*%
%TO.N,GND*%
X194775000Y-196025000D03*
%TD*%
D10*
%TO.P,D35,1,K*%
%TO.N,Net-(D35-K)*%
X175250000Y-138375000D03*
D11*
%TO.P,D35,2,A*%
%TO.N,+12V*%
X177400000Y-138375000D03*
%TD*%
D10*
%TO.P,D31,1,K*%
%TO.N,Net-(D31-K)*%
X139625000Y-99775000D03*
D11*
%TO.P,D31,2,A*%
%TO.N,+12V*%
X141775000Y-99775000D03*
%TD*%
D13*
%TO.P,KR11,1,+5V_TOP_LED*%
%TO.N,Net-(J5-Pin_16)*%
X297200000Y-190600000D03*
%TO.P,KR11,2,GND_TOP_LED*%
%TO.N,GND*%
X297200000Y-193140000D03*
%TO.P,KR11,3,+5V_BOTTOM_LED*%
%TO.N,Net-(J5-Pin_17)*%
X297200000Y-195680000D03*
%TO.P,KR11,4,GND_BOTTOM_LED*%
%TO.N,GND*%
X297200000Y-198220000D03*
%TO.P,KR11,5,SW_IN*%
%TO.N,Net-(J5-Pin_18)*%
X281500000Y-195100000D03*
%TO.P,KR11,6,SW_OUT*%
%TO.N,GND*%
X281500000Y-197640000D03*
%TD*%
D10*
%TO.P,D5,1,K*%
%TO.N,Net-(D5-K)*%
X92125000Y-137675000D03*
D11*
%TO.P,D5,2,A*%
%TO.N,Net-(D4-K)*%
X94275000Y-137675000D03*
%TD*%
D10*
%TO.P,D74,1,K*%
%TO.N,Net-(D74-K)*%
X334175000Y-206500000D03*
D11*
%TO.P,D74,2,A*%
%TO.N,Net-(D73-K)*%
X336325000Y-206500000D03*
%TD*%
D10*
%TO.P,D82,1,K*%
%TO.N,Net-(D82-K)*%
X320325000Y-115900000D03*
D11*
%TO.P,D82,2,A*%
%TO.N,Net-(D81-K)*%
X322475000Y-115900000D03*
%TD*%
D12*
%TO.P,R30,1*%
%TO.N,Net-(D86-K)*%
X342200000Y-98825000D03*
%TO.P,R30,2*%
%TO.N,GND*%
X345300000Y-98825000D03*
%TD*%
D10*
%TO.P,D78,1,K*%
%TO.N,Net-(D78-K)*%
X358175000Y-165525000D03*
D11*
%TO.P,D78,2,A*%
%TO.N,+12V*%
X360325000Y-165525000D03*
%TD*%
D10*
%TO.P,D2,1,K*%
%TO.N,Net-(D2-K)*%
X59325000Y-120950000D03*
D11*
%TO.P,D2,2,A*%
%TO.N,Net-(D1-K)*%
X61475000Y-120950000D03*
%TD*%
D12*
%TO.P,R33,1*%
%TO.N,Net-(D95-K)*%
X264250000Y-139050000D03*
%TO.P,R33,2*%
%TO.N,GND*%
X267350000Y-139050000D03*
%TD*%
D10*
%TO.P,D81,1,K*%
%TO.N,Net-(D81-K)*%
X320875000Y-139425000D03*
D11*
%TO.P,D81,2,A*%
%TO.N,+12V*%
X323025000Y-139425000D03*
%TD*%
D10*
%TO.P,D71,1,K*%
%TO.N,Net-(D71-K)*%
X308300000Y-160650000D03*
D11*
%TO.P,D71,2,A*%
%TO.N,Net-(D70-K)*%
X310450000Y-160650000D03*
%TD*%
D10*
%TO.P,D51,1,K*%
%TO.N,Net-(D51-K)*%
X191725000Y-148025000D03*
D11*
%TO.P,D51,2,A*%
%TO.N,+12V*%
X193875000Y-148025000D03*
%TD*%
D10*
%TO.P,D86,1,K*%
%TO.N,Net-(D86-K)*%
X330550000Y-103875000D03*
D11*
%TO.P,D86,2,A*%
%TO.N,Net-(D85-K)*%
X332700000Y-103875000D03*
%TD*%
D13*
%TO.P,KR9,1,+5V_TOP_LED*%
%TO.N,Net-(J5-Pin_13)*%
X246600000Y-190575000D03*
%TO.P,KR9,2,GND_TOP_LED*%
%TO.N,GND*%
X246600000Y-193115000D03*
%TO.P,KR9,3,+5V_BOTTOM_LED*%
%TO.N,Net-(J5-Pin_14)*%
X246600000Y-195655000D03*
%TO.P,KR9,4,GND_BOTTOM_LED*%
%TO.N,GND*%
X246600000Y-198195000D03*
%TO.P,KR9,5,SW_IN*%
%TO.N,Net-(J5-Pin_15)*%
X230900000Y-195075000D03*
%TO.P,KR9,6,SW_OUT*%
%TO.N,GND*%
X230900000Y-197615000D03*
%TD*%
D10*
%TO.P,D65,1,K*%
%TO.N,Net-(D65-K)*%
X270875000Y-189275000D03*
D11*
%TO.P,D65,2,A*%
%TO.N,Net-(D64-K)*%
X273025000Y-189275000D03*
%TD*%
D10*
%TO.P,D63,1,K*%
%TO.N,Net-(D63-K)*%
X262675000Y-166575000D03*
D11*
%TO.P,D63,2,A*%
%TO.N,+12V*%
X264825000Y-166575000D03*
%TD*%
D12*
%TO.P,R31,1*%
%TO.N,Net-(D89-K)*%
X286825000Y-128550000D03*
%TO.P,R31,2*%
%TO.N,GND*%
X289925000Y-128550000D03*
%TD*%
D10*
%TO.P,D60,1,K*%
%TO.N,Net-(D60-K)*%
X275450000Y-111850000D03*
D11*
%TO.P,D60,2,A*%
%TO.N,+12V*%
X277600000Y-111850000D03*
%TD*%
D10*
%TO.P,D6,1,K*%
%TO.N,Net-(D6-K)*%
X92375000Y-118900000D03*
D11*
%TO.P,D6,2,A*%
%TO.N,Net-(D5-K)*%
X94525000Y-118900000D03*
%TD*%
D13*
%TO.P,KR7,1,+5V_TOP_LED*%
%TO.N,Net-(J5-Pin_10)*%
X216150000Y-190600000D03*
%TO.P,KR7,2,GND_TOP_LED*%
%TO.N,GND*%
X216150000Y-193140000D03*
%TO.P,KR7,3,+5V_BOTTOM_LED*%
%TO.N,Net-(J5-Pin_11)*%
X216150000Y-195680000D03*
%TO.P,KR7,4,GND_BOTTOM_LED*%
%TO.N,GND*%
X216150000Y-198220000D03*
%TO.P,KR7,5,SW_IN*%
%TO.N,Net-(J5-Pin_12)*%
X200450000Y-195100000D03*
%TO.P,KR7,6,SW_OUT*%
%TO.N,GND*%
X200450000Y-197640000D03*
%TD*%
D10*
%TO.P,D36,1,K*%
%TO.N,Net-(D36-K)*%
X157575000Y-153575000D03*
D11*
%TO.P,D36,2,A*%
%TO.N,Net-(D35-K)*%
X159725000Y-153575000D03*
%TD*%
D12*
%TO.P,R18,1*%
%TO.N,Net-(D50-K)*%
X238175000Y-148675000D03*
%TO.P,R18,2*%
%TO.N,GND*%
X241275000Y-148675000D03*
%TD*%
D10*
%TO.P,D62,1,K*%
%TO.N,Net-(D62-K)*%
X260125000Y-148725000D03*
D11*
%TO.P,D62,2,A*%
%TO.N,Net-(D61-K)*%
X262275000Y-148725000D03*
%TD*%
D12*
%TO.P,R8,1*%
%TO.N,Net-(D24-K)*%
X141850000Y-176075000D03*
%TO.P,R8,2*%
%TO.N,GND*%
X144950000Y-176075000D03*
%TD*%
%TO.P,R2,1*%
%TO.N,Net-(D6-K)*%
X76550000Y-118950000D03*
%TO.P,R2,2*%
%TO.N,GND*%
X79650000Y-118950000D03*
%TD*%
D13*
%TO.P,KR14,1,+5V_TOP_LED*%
%TO.N,Net-(J1-Pin_1)*%
X166975000Y-119275000D03*
%TO.P,KR14,2,GND_TOP_LED*%
%TO.N,GND*%
X166975000Y-121815000D03*
%TO.P,KR14,3,+5V_BOTTOM_LED*%
%TO.N,Net-(J1-Pin_2)*%
X166975000Y-124355000D03*
%TO.P,KR14,4,GND_BOTTOM_LED*%
%TO.N,GND*%
X166975000Y-126895000D03*
%TO.P,KR14,5,SW_IN*%
%TO.N,Net-(J1-Pin_3)*%
X151275000Y-123775000D03*
%TO.P,KR14,6,SW_OUT*%
%TO.N,GND*%
X151275000Y-126315000D03*
%TD*%
D10*
%TO.P,D3,1,K*%
%TO.N,Net-(D3-K)*%
X57425000Y-136025000D03*
D11*
%TO.P,D3,2,A*%
%TO.N,Net-(D2-K)*%
X59575000Y-136025000D03*
%TD*%
D10*
%TO.P,D21,1,K*%
%TO.N,Net-(D21-K)*%
X87975000Y-178400000D03*
D11*
%TO.P,D21,2,A*%
%TO.N,Net-(D20-K)*%
X90125000Y-178400000D03*
%TD*%
D10*
%TO.P,D7,1,K*%
%TO.N,Net-(D7-K)*%
X103525000Y-106675000D03*
D11*
%TO.P,D7,2,A*%
%TO.N,+12V*%
X105675000Y-106675000D03*
%TD*%
D10*
%TO.P,D26,1,K*%
%TO.N,Net-(D26-K)*%
X140350000Y-206425000D03*
D11*
%TO.P,D26,2,A*%
%TO.N,Net-(D25-K)*%
X142500000Y-206425000D03*
%TD*%
D10*
%TO.P,D47,1,K*%
%TO.N,Net-(D47-K)*%
X249425000Y-175100000D03*
D11*
%TO.P,D47,2,A*%
%TO.N,Net-(D46-K)*%
X251575000Y-175100000D03*
%TD*%
D10*
%TO.P,D25,1,K*%
%TO.N,Net-(D25-K)*%
X140350000Y-186250000D03*
D11*
%TO.P,D25,2,A*%
%TO.N,+12V*%
X142500000Y-186250000D03*
%TD*%
D12*
%TO.P,R16,1*%
%TO.N,Net-(D44-K)*%
X231600000Y-167175000D03*
%TO.P,R16,2*%
%TO.N,GND*%
X234700000Y-167175000D03*
%TD*%
D10*
%TO.P,D91,1,K*%
%TO.N,Net-(D91-K)*%
X308800000Y-94375000D03*
D11*
%TO.P,D91,2,A*%
%TO.N,Net-(D90-K)*%
X310950000Y-94375000D03*
%TD*%
D10*
%TO.P,D64,1,K*%
%TO.N,Net-(D64-K)*%
X254950000Y-189500000D03*
D11*
%TO.P,D64,2,A*%
%TO.N,Net-(D63-K)*%
X257100000Y-189500000D03*
%TD*%
D10*
%TO.P,D69,1,K*%
%TO.N,Net-(D69-K)*%
X319700000Y-170150000D03*
D11*
%TO.P,D69,2,A*%
%TO.N,+12V*%
X321850000Y-170150000D03*
%TD*%
D10*
%TO.P,D10,1,K*%
%TO.N,Net-(D10-K)*%
X125250000Y-85775000D03*
D11*
%TO.P,D10,2,A*%
%TO.N,+12V*%
X127400000Y-85775000D03*
%TD*%
D10*
%TO.P,D39,1,K*%
%TO.N,Net-(D39-K)*%
X162300000Y-206300000D03*
D11*
%TO.P,D39,2,A*%
%TO.N,Net-(D38-K)*%
X164450000Y-206300000D03*
%TD*%
D14*
%TO.P,D23,1,K*%
%TO.N,Net-(D23-K)*%
X109950000Y-204525000D03*
D15*
%TO.P,D23,2,A*%
%TO.N,Net-(D22-K)*%
X109950000Y-202375000D03*
%TD*%
D10*
%TO.P,D14,1,K*%
%TO.N,Net-(D14-K)*%
X108625000Y-147275000D03*
D11*
%TO.P,D14,2,A*%
%TO.N,Net-(D13-K)*%
X110775000Y-147275000D03*
%TD*%
D12*
%TO.P,R29,1*%
%TO.N,Net-(D83-K)*%
X353575000Y-117775000D03*
%TO.P,R29,2*%
%TO.N,GND*%
X356675000Y-117775000D03*
%TD*%
%TO.P,R22,1*%
%TO.N,Net-(D62-K)*%
X269350000Y-175200000D03*
%TO.P,R22,2*%
%TO.N,GND*%
X272450000Y-175200000D03*
%TD*%
D10*
%TO.P,D57,1,K*%
%TO.N,Net-(D57-K)*%
X223600000Y-117200000D03*
D11*
%TO.P,D57,2,A*%
%TO.N,+12V*%
X225750000Y-117200000D03*
%TD*%
D13*
%TO.P,KR10,1,+5V_TOP_LED*%
%TO.N,Net-(J5-Pin_34)*%
X312675000Y-124425000D03*
%TO.P,KR10,2,GND_TOP_LED*%
%TO.N,GND*%
X312675000Y-126965000D03*
%TO.P,KR10,3,+5V_BOTTOM_LED*%
%TO.N,Net-(J5-Pin_35)*%
X312675000Y-129505000D03*
%TO.P,KR10,4,GND_BOTTOM_LED*%
%TO.N,GND*%
X312675000Y-132045000D03*
%TO.P,KR10,5,SW_IN*%
%TO.N,Net-(J5-Pin_36)*%
X296975000Y-128925000D03*
%TO.P,KR10,6,SW_OUT*%
%TO.N,GND*%
X296975000Y-131465000D03*
%TD*%
D12*
%TO.P,R17,1*%
%TO.N,Net-(D47-K)*%
X262500000Y-175050000D03*
%TO.P,R17,2*%
%TO.N,GND*%
X265600000Y-175050000D03*
%TD*%
D10*
%TO.P,D73,1,K*%
%TO.N,Net-(D73-K)*%
X305325000Y-147950000D03*
D11*
%TO.P,D73,2,A*%
%TO.N,Net-(D72-K)*%
X307475000Y-147950000D03*
%TD*%
D10*
%TO.P,D30,1,K*%
%TO.N,Net-(D30-K)*%
X142000000Y-110700000D03*
D11*
%TO.P,D30,2,A*%
%TO.N,Net-(D29-K)*%
X144150000Y-110700000D03*
%TD*%
D10*
%TO.P,D37,1,K*%
%TO.N,Net-(D37-K)*%
X175250000Y-166175000D03*
D11*
%TO.P,D37,2,A*%
%TO.N,Net-(D36-K)*%
X177400000Y-166175000D03*
%TD*%
D10*
%TO.P,D88,1,K*%
%TO.N,Net-(D88-K)*%
X297875000Y-108050000D03*
D11*
%TO.P,D88,2,A*%
%TO.N,Net-(D87-K)*%
X300025000Y-108050000D03*
%TD*%
D10*
%TO.P,D17,1,K*%
%TO.N,Net-(D17-K)*%
X54600000Y-178750000D03*
D11*
%TO.P,D17,2,A*%
%TO.N,Net-(D16-K)*%
X56750000Y-178750000D03*
%TD*%
D10*
%TO.P,D8,1,K*%
%TO.N,Net-(D8-K)*%
X102350000Y-92425000D03*
D11*
%TO.P,D8,2,A*%
%TO.N,Net-(D7-K)*%
X104500000Y-92425000D03*
%TD*%
D10*
%TO.P,D9,1,K*%
%TO.N,Net-(D9-K)*%
X91650000Y-85400000D03*
D11*
%TO.P,D9,2,A*%
%TO.N,Net-(D8-K)*%
X93800000Y-85400000D03*
%TD*%
D10*
%TO.P,D18,1,K*%
%TO.N,Net-(D18-K)*%
X58400000Y-205950000D03*
D11*
%TO.P,D18,2,A*%
%TO.N,Net-(D17-K)*%
X60550000Y-205950000D03*
%TD*%
D12*
%TO.P,R25,1*%
%TO.N,Net-(D71-K)*%
X309425000Y-169350000D03*
%TO.P,R25,2*%
%TO.N,GND*%
X312525000Y-169350000D03*
%TD*%
%TO.P,R23,1*%
%TO.N,Net-(D65-K)*%
X263800000Y-197200000D03*
%TO.P,R23,2*%
%TO.N,GND*%
X266900000Y-197200000D03*
%TD*%
%TO.P,R10,1*%
%TO.N,Net-(D30-K)*%
X140375000Y-127250000D03*
%TO.P,R10,2*%
%TO.N,GND*%
X143475000Y-127250000D03*
%TD*%
D10*
%TO.P,D33,1,K*%
%TO.N,Net-(D33-K)*%
X180375000Y-99650000D03*
D11*
%TO.P,D33,2,A*%
%TO.N,Net-(D32-K)*%
X182525000Y-99650000D03*
%TD*%
D12*
%TO.P,R3,1*%
%TO.N,Net-(D9-K)*%
X94925000Y-99700000D03*
%TO.P,R3,2*%
%TO.N,GND*%
X98025000Y-99700000D03*
%TD*%
D13*
%TO.P,KR1,1,+5V_TOP_LED*%
%TO.N,Net-(J5-Pin_1)*%
X117300000Y-124475000D03*
%TO.P,KR1,2,GND_TOP_LED*%
%TO.N,GND*%
X117300000Y-127015000D03*
%TO.P,KR1,3,+5V_BOTTOM_LED*%
%TO.N,Net-(J5-Pin_2)*%
X117300000Y-129555000D03*
%TO.P,KR1,4,GND_BOTTOM_LED*%
%TO.N,GND*%
X117300000Y-132095000D03*
%TO.P,KR1,5,SW_IN*%
%TO.N,Net-(J5-Pin_3)*%
X101600000Y-128975000D03*
%TO.P,KR1,6,SW_OUT*%
%TO.N,GND*%
X101600000Y-131515000D03*
%TD*%
D12*
%TO.P,R6,1*%
%TO.N,Net-(D18-K)*%
X76850000Y-196900000D03*
%TO.P,R6,2*%
%TO.N,GND*%
X79950000Y-196900000D03*
%TD*%
%TO.P,R21,1*%
%TO.N,Net-(D59-K)*%
X265125000Y-127400000D03*
%TO.P,R21,2*%
%TO.N,GND*%
X268225000Y-127400000D03*
%TD*%
%TO.P,R28,1*%
%TO.N,Net-(D80-K)*%
X353875000Y-138900000D03*
%TO.P,R28,2*%
%TO.N,GND*%
X356975000Y-138900000D03*
%TD*%
%TO.P,R27,1*%
%TO.N,Net-(D77-K)*%
X347600000Y-195875000D03*
%TO.P,R27,2*%
%TO.N,GND*%
X350700000Y-195875000D03*
%TD*%
D10*
%TO.P,D83,1,K*%
%TO.N,Net-(D83-K)*%
X353275000Y-127625000D03*
D11*
%TO.P,D83,2,A*%
%TO.N,Net-(D82-K)*%
X355425000Y-127625000D03*
%TD*%
D12*
%TO.P,R9,1*%
%TO.N,Net-(D27-K)*%
X123475000Y-168050000D03*
%TO.P,R9,2*%
%TO.N,GND*%
X126575000Y-168050000D03*
%TD*%
D10*
%TO.P,D68,1,K*%
%TO.N,Net-(D68-K)*%
X281550000Y-170275000D03*
D11*
%TO.P,D68,2,A*%
%TO.N,Net-(D67-K)*%
X283700000Y-170275000D03*
%TD*%
D13*
%TO.P,KR8,1,+5V_TOP_LED*%
%TO.N,Net-(J5-Pin_31)*%
X264350000Y-105350000D03*
%TO.P,KR8,2,GND_TOP_LED*%
%TO.N,GND*%
X264350000Y-107890000D03*
%TO.P,KR8,3,+5V_BOTTOM_LED*%
%TO.N,Net-(J5-Pin_32)*%
X264350000Y-110430000D03*
%TO.P,KR8,4,GND_BOTTOM_LED*%
%TO.N,GND*%
X264350000Y-112970000D03*
%TO.P,KR8,5,SW_IN*%
%TO.N,Net-(J5-Pin_33)*%
X248650000Y-109850000D03*
%TO.P,KR8,6,SW_OUT*%
%TO.N,GND*%
X248650000Y-112390000D03*
%TD*%
D10*
%TO.P,D76,1,K*%
%TO.N,Net-(D76-K)*%
X357450000Y-206600000D03*
D11*
%TO.P,D76,2,A*%
%TO.N,Net-(D75-K)*%
X359600000Y-206600000D03*
%TD*%
D10*
%TO.P,D49,1,K*%
%TO.N,Net-(D49-K)*%
X223425000Y-167250000D03*
D11*
%TO.P,D49,2,A*%
%TO.N,Net-(D48-K)*%
X225575000Y-167250000D03*
%TD*%
D10*
%TO.P,D55,1,K*%
%TO.N,Net-(D55-K)*%
X223775000Y-91025000D03*
D11*
%TO.P,D55,2,A*%
%TO.N,Net-(D54-K)*%
X225925000Y-91025000D03*
%TD*%
D12*
%TO.P,R1,1*%
%TO.N,Net-(D3-K)*%
X76850000Y-128425000D03*
%TO.P,R1,2*%
%TO.N,GND*%
X79950000Y-128425000D03*
%TD*%
D10*
%TO.P,D52,1,K*%
%TO.N,Net-(D52-K)*%
X191000000Y-129850000D03*
D11*
%TO.P,D52,2,A*%
%TO.N,Net-(D51-K)*%
X193150000Y-129850000D03*
%TD*%
D10*
%TO.P,D54,1,K*%
%TO.N,Net-(D54-K)*%
X190100000Y-91200000D03*
D11*
%TO.P,D54,2,A*%
%TO.N,+12V*%
X192250000Y-91200000D03*
%TD*%
D10*
%TO.P,D56,1,K*%
%TO.N,Net-(D56-K)*%
X238925000Y-99200000D03*
D11*
%TO.P,D56,2,A*%
%TO.N,Net-(D55-K)*%
X241075000Y-99200000D03*
%TD*%
D10*
%TO.P,D79,1,K*%
%TO.N,Net-(D79-K)*%
X336400000Y-147650000D03*
D11*
%TO.P,D79,2,A*%
%TO.N,Net-(D78-K)*%
X338550000Y-147650000D03*
%TD*%
D13*
%TO.P,KR2,1,+5V_TOP_LED*%
%TO.N,Net-(J5-Pin_22)*%
X102825000Y-190550000D03*
%TO.P,KR2,2,GND_TOP_LED*%
%TO.N,GND*%
X102825000Y-193090000D03*
%TO.P,KR2,3,+5V_BOTTOM_LED*%
%TO.N,Net-(J5-Pin_23)*%
X102825000Y-195630000D03*
%TO.P,KR2,4,GND_BOTTOM_LED*%
%TO.N,GND*%
X102825000Y-198170000D03*
%TO.P,KR2,5,SW_IN*%
%TO.N,Net-(J5-Pin_24)*%
X87125000Y-195050000D03*
%TO.P,KR2,6,SW_OUT*%
%TO.N,GND*%
X87125000Y-197590000D03*
%TD*%
D12*
%TO.P,R7,1*%
%TO.N,Net-(D21-K)*%
X91575000Y-169800000D03*
%TO.P,R7,2*%
%TO.N,GND*%
X94675000Y-169800000D03*
%TD*%
D10*
%TO.P,D58,1,K*%
%TO.N,Net-(D58-K)*%
X239650000Y-125050000D03*
D11*
%TO.P,D58,2,A*%
%TO.N,Net-(D57-K)*%
X241800000Y-125050000D03*
%TD*%
D13*
%TO.P,KR4,1,+5V_TOP_LED*%
%TO.N,Net-(J5-Pin_25)*%
X186100000Y-190500000D03*
%TO.P,KR4,2,GND_TOP_LED*%
%TO.N,GND*%
X186100000Y-193040000D03*
%TO.P,KR4,3,+5V_BOTTOM_LED*%
%TO.N,Net-(J5-Pin_26)*%
X186100000Y-195580000D03*
%TO.P,KR4,4,GND_BOTTOM_LED*%
%TO.N,GND*%
X186100000Y-198120000D03*
%TO.P,KR4,5,SW_IN*%
%TO.N,Net-(J5-Pin_27)*%
X170400000Y-195000000D03*
%TO.P,KR4,6,SW_OUT*%
%TO.N,GND*%
X170400000Y-197540000D03*
%TD*%
D12*
%TO.P,R20,1*%
%TO.N,Net-(D56-K)*%
X239025000Y-117350000D03*
%TO.P,R20,2*%
%TO.N,GND*%
X242125000Y-117350000D03*
%TD*%
D10*
%TO.P,D59,1,K*%
%TO.N,Net-(D59-K)*%
X256750000Y-127525000D03*
D11*
%TO.P,D59,2,A*%
%TO.N,Net-(D58-K)*%
X258900000Y-127525000D03*
%TD*%
D10*
%TO.P,D89,1,K*%
%TO.N,Net-(D89-K)*%
X287800000Y-118975000D03*
D11*
%TO.P,D89,2,A*%
%TO.N,Net-(D88-K)*%
X289950000Y-118975000D03*
%TD*%
D13*
%TO.P,KR12,1,+5V_TOP_LED*%
%TO.N,Net-(J5-Pin_37)*%
X326850000Y-190625000D03*
%TO.P,KR12,2,GND_TOP_LED*%
%TO.N,GND*%
X326850000Y-193165000D03*
%TO.P,KR12,3,+5V_BOTTOM_LED*%
%TO.N,Net-(J5-Pin_38)*%
X326850000Y-195705000D03*
%TO.P,KR12,4,GND_BOTTOM_LED*%
%TO.N,GND*%
X326850000Y-198245000D03*
%TO.P,KR12,5,SW_IN*%
%TO.N,Net-(J5-Pin_39)*%
X311150000Y-195125000D03*
%TO.P,KR12,6,SW_OUT*%
%TO.N,GND*%
X311150000Y-197665000D03*
%TD*%
D10*
%TO.P,D53,1,K*%
%TO.N,Net-(D53-K)*%
X202485000Y-107950000D03*
D11*
%TO.P,D53,2,A*%
%TO.N,Net-(D52-K)*%
X204635000Y-107950000D03*
%TD*%
D10*
%TO.P,D38,1,K*%
%TO.N,Net-(D38-K)*%
X156625000Y-176150000D03*
D11*
%TO.P,D38,2,A*%
%TO.N,+12V*%
X158775000Y-176150000D03*
%TD*%
D10*
%TO.P,D94,1,K*%
%TO.N,Net-(D94-K)*%
X217775000Y-102275000D03*
D11*
%TO.P,D94,2,A*%
%TO.N,Net-(D93-K)*%
X219925000Y-102275000D03*
%TD*%
D12*
%TO.P,R5,1*%
%TO.N,Net-(D15-K)*%
X81800000Y-153175000D03*
%TO.P,R5,2*%
%TO.N,GND*%
X84900000Y-153175000D03*
%TD*%
D10*
%TO.P,D19,1,K*%
%TO.N,Net-(D19-K)*%
X78000000Y-206425000D03*
D11*
%TO.P,D19,2,A*%
%TO.N,+12V*%
X80150000Y-206425000D03*
%TD*%
D13*
%TO.P,KR5,1,+5V_TOP_LED*%
%TO.N,Net-(J5-Pin_7)*%
X216175000Y-124200000D03*
%TO.P,KR5,2,GND_TOP_LED*%
%TO.N,GND*%
X216175000Y-126740000D03*
%TO.P,KR5,3,+5V_BOTTOM_LED*%
%TO.N,Net-(J5-Pin_8)*%
X216175000Y-129280000D03*
%TO.P,KR5,4,GND_BOTTOM_LED*%
%TO.N,GND*%
X216175000Y-131820000D03*
%TO.P,KR5,5,SW_IN*%
%TO.N,Net-(J5-Pin_9)*%
X200475000Y-128700000D03*
%TO.P,KR5,6,SW_OUT*%
%TO.N,GND*%
X200475000Y-131240000D03*
%TD*%
D10*
%TO.P,D44,1,K*%
%TO.N,Net-(D44-K)*%
X222425000Y-182500000D03*
D11*
%TO.P,D44,2,A*%
%TO.N,+12V*%
X224575000Y-182500000D03*
%TD*%
D14*
%TO.P,D66,1,K*%
%TO.N,Net-(D66-K)*%
X304350000Y-206525000D03*
D15*
%TO.P,D66,2,A*%
%TO.N,+12V*%
X304350000Y-204375000D03*
%TD*%
D10*
%TO.P,D67,1,K*%
%TO.N,Net-(D67-K)*%
X303075000Y-182375000D03*
D11*
%TO.P,D67,2,A*%
%TO.N,Net-(D66-K)*%
X305225000Y-182375000D03*
%TD*%
D12*
%TO.P,R19,1*%
%TO.N,Net-(D53-K)*%
X226075000Y-108150000D03*
%TO.P,R19,2*%
%TO.N,GND*%
X229175000Y-108150000D03*
%TD*%
D10*
%TO.P,D4,1,K*%
%TO.N,Net-(D4-K)*%
X76925000Y-138725000D03*
D11*
%TO.P,D4,2,A*%
%TO.N,+12V*%
X79075000Y-138725000D03*
%TD*%
D10*
%TO.P,D85,1,K*%
%TO.N,Net-(D85-K)*%
X362375000Y-107200000D03*
D11*
%TO.P,D85,2,A*%
%TO.N,Net-(D84-K)*%
X364525000Y-107200000D03*
%TD*%
D10*
%TO.P,D22,1,K*%
%TO.N,Net-(D22-K)*%
X108875000Y-182450000D03*
D11*
%TO.P,D22,2,A*%
%TO.N,+12V*%
X111025000Y-182450000D03*
%TD*%
D13*
%TO.P,KR6,1,+5V_TOP_LED*%
%TO.N,Net-(J5-Pin_28)*%
X216150000Y-156150000D03*
%TO.P,KR6,2,GND_TOP_LED*%
%TO.N,GND*%
X216150000Y-158690000D03*
%TO.P,KR6,3,+5V_BOTTOM_LED*%
%TO.N,Net-(J5-Pin_29)*%
X216150000Y-161230000D03*
%TO.P,KR6,4,GND_BOTTOM_LED*%
%TO.N,GND*%
X216150000Y-163770000D03*
%TO.P,KR6,5,SW_IN*%
%TO.N,Net-(J5-Pin_30)*%
X200450000Y-160650000D03*
%TO.P,KR6,6,SW_OUT*%
%TO.N,GND*%
X200450000Y-163190000D03*
%TD*%
D12*
%TO.P,R12,1*%
%TO.N,Net-(D34-K)*%
X183375000Y-130025000D03*
%TO.P,R12,2*%
%TO.N,GND*%
X186475000Y-130025000D03*
%TD*%
D10*
%TO.P,D32,1,K*%
%TO.N,Net-(D32-K)*%
X159000000Y-99650000D03*
D11*
%TO.P,D32,2,A*%
%TO.N,Net-(D31-K)*%
X161150000Y-99650000D03*
%TD*%
D10*
%TO.P,D50,1,K*%
%TO.N,Net-(D50-K)*%
X222350000Y-148550000D03*
D11*
%TO.P,D50,2,A*%
%TO.N,Net-(D49-K)*%
X224500000Y-148550000D03*
%TD*%
D10*
%TO.P,D16,1,K*%
%TO.N,Net-(D16-K)*%
X58525000Y-157975000D03*
D11*
%TO.P,D16,2,A*%
%TO.N,+12V*%
X60675000Y-157975000D03*
%TD*%
D10*
%TO.P,D45,1,K*%
%TO.N,Net-(D45-K)*%
X222575000Y-207000000D03*
D11*
%TO.P,D45,2,A*%
%TO.N,+12V*%
X224725000Y-207000000D03*
%TD*%
D10*
%TO.P,D46,1,K*%
%TO.N,Net-(D46-K)*%
X253350000Y-206800000D03*
D11*
%TO.P,D46,2,A*%
%TO.N,Net-(D45-K)*%
X255500000Y-206800000D03*
%TD*%
D10*
%TO.P,D43,1,K*%
%TO.N,Net-(D43-K)*%
X207450000Y-176250000D03*
D11*
%TO.P,D43,2,A*%
%TO.N,Net-(D42-K)*%
X209600000Y-176250000D03*
%TD*%
D10*
%TO.P,D84,1,K*%
%TO.N,Net-(D84-K)*%
X342650000Y-106250000D03*
D11*
%TO.P,D84,2,A*%
%TO.N,+12V*%
X344800000Y-106250000D03*
%TD*%
D10*
%TO.P,D70,1,K*%
%TO.N,Net-(D70-K)*%
X272200000Y-205550000D03*
D11*
%TO.P,D70,2,A*%
%TO.N,Net-(D69-K)*%
X274350000Y-205550000D03*
%TD*%
D10*
%TO.P,D28,1,K*%
%TO.N,Net-(D28-K)*%
X137725000Y-159400000D03*
D11*
%TO.P,D28,2,A*%
%TO.N,+12V*%
X139875000Y-159400000D03*
%TD*%
D10*
%TO.P,D34,1,K*%
%TO.N,Net-(D34-K)*%
X175500000Y-113200000D03*
D11*
%TO.P,D34,2,A*%
%TO.N,+12V*%
X177650000Y-113200000D03*
%TD*%
D10*
%TO.P,D90,1,K*%
%TO.N,Net-(D90-K)*%
X287325000Y-137625000D03*
D11*
%TO.P,D90,2,A*%
%TO.N,+12V*%
X289475000Y-137625000D03*
%TD*%
D10*
%TO.P,D61,1,K*%
%TO.N,Net-(D61-K)*%
X274000000Y-99500000D03*
D11*
%TO.P,D61,2,A*%
%TO.N,Net-(D60-K)*%
X276150000Y-99500000D03*
%TD*%
D12*
%TO.P,R13,1*%
%TO.N,Net-(D37-K)*%
X185850000Y-166300000D03*
%TO.P,R13,2*%
%TO.N,GND*%
X188950000Y-166300000D03*
%TD*%
D10*
%TO.P,D13,1,K*%
%TO.N,Net-(D13-K)*%
X125150000Y-138150000D03*
D11*
%TO.P,D13,2,A*%
%TO.N,+12V*%
X127300000Y-138150000D03*
%TD*%
D13*
%TO.P,KR13,1,+5V_TOP_LED*%
%TO.N,Net-(J5-Pin_19)*%
X346675000Y-122075000D03*
%TO.P,KR13,2,GND_TOP_LED*%
%TO.N,GND*%
X346675000Y-124615000D03*
%TO.P,KR13,3,+5V_BOTTOM_LED*%
%TO.N,Net-(J5-Pin_20)*%
X346675000Y-127155000D03*
%TO.P,KR13,4,GND_BOTTOM_LED*%
%TO.N,GND*%
X346675000Y-129695000D03*
%TO.P,KR13,5,SW_IN*%
%TO.N,Net-(J5-Pin_21)*%
X330975000Y-126575000D03*
%TO.P,KR13,6,SW_OUT*%
%TO.N,GND*%
X330975000Y-129115000D03*
%TD*%
D16*
%TO.P,J5,1,Pin_1*%
%TO.N,Net-(J5-Pin_1)*%
X184755000Y-86300000D03*
D17*
%TO.P,J5,2,Pin_2*%
%TO.N,Net-(J5-Pin_2)*%
X184755000Y-83760000D03*
%TO.P,J5,3,Pin_3*%
%TO.N,Net-(J5-Pin_3)*%
X182215000Y-86300000D03*
%TO.P,J5,4,Pin_4*%
%TO.N,Net-(J5-Pin_4)*%
X182215000Y-83760000D03*
%TO.P,J5,5,Pin_5*%
%TO.N,Net-(J5-Pin_5)*%
X179675000Y-86300000D03*
%TO.P,J5,6,Pin_6*%
%TO.N,Net-(J5-Pin_6)*%
X179675000Y-83760000D03*
%TO.P,J5,7,Pin_7*%
%TO.N,Net-(J5-Pin_7)*%
X177135000Y-86300000D03*
%TO.P,J5,8,Pin_8*%
%TO.N,Net-(J5-Pin_8)*%
X177135000Y-83760000D03*
%TO.P,J5,9,Pin_9*%
%TO.N,Net-(J5-Pin_9)*%
X174595000Y-86300000D03*
%TO.P,J5,10,Pin_10*%
%TO.N,Net-(J5-Pin_10)*%
X174595000Y-83760000D03*
%TO.P,J5,11,Pin_11*%
%TO.N,Net-(J5-Pin_11)*%
X172055000Y-86300000D03*
%TO.P,J5,12,Pin_12*%
%TO.N,Net-(J5-Pin_12)*%
X172055000Y-83760000D03*
%TO.P,J5,13,Pin_13*%
%TO.N,Net-(J5-Pin_13)*%
X169515000Y-86300000D03*
%TO.P,J5,14,Pin_14*%
%TO.N,Net-(J5-Pin_14)*%
X169515000Y-83760000D03*
%TO.P,J5,15,Pin_15*%
%TO.N,Net-(J5-Pin_15)*%
X166975000Y-86300000D03*
%TO.P,J5,16,Pin_16*%
%TO.N,Net-(J5-Pin_16)*%
X166975000Y-83760000D03*
%TO.P,J5,17,Pin_17*%
%TO.N,Net-(J5-Pin_17)*%
X164435000Y-86300000D03*
%TO.P,J5,18,Pin_18*%
%TO.N,Net-(J5-Pin_18)*%
X164435000Y-83760000D03*
%TO.P,J5,19,Pin_19*%
%TO.N,Net-(J5-Pin_19)*%
X161895000Y-86300000D03*
%TO.P,J5,20,Pin_20*%
%TO.N,Net-(J5-Pin_20)*%
X161895000Y-83760000D03*
%TO.P,J5,21,Pin_21*%
%TO.N,Net-(J5-Pin_21)*%
X159355000Y-86300000D03*
%TO.P,J5,22,Pin_22*%
%TO.N,Net-(J5-Pin_22)*%
X159355000Y-83760000D03*
%TO.P,J5,23,Pin_23*%
%TO.N,Net-(J5-Pin_23)*%
X156815000Y-86300000D03*
%TO.P,J5,24,Pin_24*%
%TO.N,Net-(J5-Pin_24)*%
X156815000Y-83760000D03*
%TO.P,J5,25,Pin_25*%
%TO.N,Net-(J5-Pin_25)*%
X154275000Y-86300000D03*
%TO.P,J5,26,Pin_26*%
%TO.N,Net-(J5-Pin_26)*%
X154275000Y-83760000D03*
%TO.P,J5,27,Pin_27*%
%TO.N,Net-(J5-Pin_27)*%
X151735000Y-86300000D03*
%TO.P,J5,28,Pin_28*%
%TO.N,Net-(J5-Pin_28)*%
X151735000Y-83760000D03*
%TO.P,J5,29,Pin_29*%
%TO.N,Net-(J5-Pin_29)*%
X149195000Y-86300000D03*
%TO.P,J5,30,Pin_30*%
%TO.N,Net-(J5-Pin_30)*%
X149195000Y-83760000D03*
%TO.P,J5,31,Pin_31*%
%TO.N,Net-(J5-Pin_31)*%
X146655000Y-86300000D03*
%TO.P,J5,32,Pin_32*%
%TO.N,Net-(J5-Pin_32)*%
X146655000Y-83760000D03*
%TO.P,J5,33,Pin_33*%
%TO.N,Net-(J5-Pin_33)*%
X144115000Y-86300000D03*
%TO.P,J5,34,Pin_34*%
%TO.N,Net-(J5-Pin_34)*%
X144115000Y-83760000D03*
%TO.P,J5,35,Pin_35*%
%TO.N,Net-(J5-Pin_35)*%
X141575000Y-86300000D03*
%TO.P,J5,36,Pin_36*%
%TO.N,Net-(J5-Pin_36)*%
X141575000Y-83760000D03*
%TO.P,J5,37,Pin_37*%
%TO.N,Net-(J5-Pin_37)*%
X139035000Y-86300000D03*
%TO.P,J5,38,Pin_38*%
%TO.N,Net-(J5-Pin_38)*%
X139035000Y-83760000D03*
%TO.P,J5,39,Pin_39*%
%TO.N,Net-(J5-Pin_39)*%
X136495000Y-86300000D03*
%TO.P,J5,40,Pin_40*%
%TO.N,unconnected-(J5-Pin_40-Pad40)*%
X136495000Y-83760000D03*
%TD*%
D18*
%TO.P,J4,1,Pin_1*%
%TO.N,GND*%
X72040000Y-208650000D03*
D19*
%TO.P,J4,2,Pin_2*%
%TO.N,+12V*%
X66960000Y-208650000D03*
%TD*%
D18*
%TO.P,J3,1,Pin_1*%
%TO.N,GND*%
X64835000Y-83425000D03*
D19*
%TO.P,J3,2,Pin_2*%
%TO.N,+12V*%
X69915000Y-83425000D03*
%TD*%
D16*
%TO.P,J1,1,Pin_1*%
%TO.N,Net-(J1-Pin_1)*%
X281080000Y-86000000D03*
D17*
%TO.P,J1,2,Pin_2*%
%TO.N,Net-(J1-Pin_2)*%
X281080000Y-83460000D03*
%TO.P,J1,3,Pin_3*%
%TO.N,Net-(J1-Pin_3)*%
X278540000Y-86000000D03*
%TO.P,J1,4,Pin_4*%
%TO.N,unconnected-(J1-Pin_4-Pad4)*%
X278540000Y-83460000D03*
%TO.P,J1,5,Pin_5*%
%TO.N,unconnected-(J1-Pin_5-Pad5)*%
X276000000Y-86000000D03*
%TO.P,J1,6,Pin_6*%
%TO.N,unconnected-(J1-Pin_6-Pad6)*%
X276000000Y-83460000D03*
%TO.P,J1,7,Pin_7*%
%TO.N,unconnected-(J1-Pin_7-Pad7)*%
X273460000Y-86000000D03*
%TO.P,J1,8,Pin_8*%
%TO.N,unconnected-(J1-Pin_8-Pad8)*%
X273460000Y-83460000D03*
%TO.P,J1,9,Pin_9*%
%TO.N,unconnected-(J1-Pin_9-Pad9)*%
X270920000Y-86000000D03*
%TO.P,J1,10,Pin_10*%
%TO.N,unconnected-(J1-Pin_10-Pad10)*%
X270920000Y-83460000D03*
%TO.P,J1,11,Pin_11*%
%TO.N,unconnected-(J1-Pin_11-Pad11)*%
X268380000Y-86000000D03*
%TO.P,J1,12,Pin_12*%
%TO.N,unconnected-(J1-Pin_12-Pad12)*%
X268380000Y-83460000D03*
%TO.P,J1,13,Pin_13*%
%TO.N,unconnected-(J1-Pin_13-Pad13)*%
X265840000Y-86000000D03*
%TO.P,J1,14,Pin_14*%
%TO.N,unconnected-(J1-Pin_14-Pad14)*%
X265840000Y-83460000D03*
%TO.P,J1,15,Pin_15*%
%TO.N,unconnected-(J1-Pin_15-Pad15)*%
X263300000Y-86000000D03*
%TO.P,J1,16,Pin_16*%
%TO.N,unconnected-(J1-Pin_16-Pad16)*%
X263300000Y-83460000D03*
%TO.P,J1,17,Pin_17*%
%TO.N,unconnected-(J1-Pin_17-Pad17)*%
X260760000Y-86000000D03*
%TO.P,J1,18,Pin_18*%
%TO.N,unconnected-(J1-Pin_18-Pad18)*%
X260760000Y-83460000D03*
%TO.P,J1,19,Pin_19*%
%TO.N,unconnected-(J1-Pin_19-Pad19)*%
X258220000Y-86000000D03*
%TO.P,J1,20,Pin_20*%
%TO.N,unconnected-(J1-Pin_20-Pad20)*%
X258220000Y-83460000D03*
%TO.P,J1,21,Pin_21*%
%TO.N,unconnected-(J1-Pin_21-Pad21)*%
X255680000Y-86000000D03*
%TO.P,J1,22,Pin_22*%
%TO.N,unconnected-(J1-Pin_22-Pad22)*%
X255680000Y-83460000D03*
%TO.P,J1,23,Pin_23*%
%TO.N,unconnected-(J1-Pin_23-Pad23)*%
X253140000Y-86000000D03*
%TO.P,J1,24,Pin_24*%
%TO.N,unconnected-(J1-Pin_24-Pad24)*%
X253140000Y-83460000D03*
%TO.P,J1,25,Pin_25*%
%TO.N,unconnected-(J1-Pin_25-Pad25)*%
X250600000Y-86000000D03*
%TO.P,J1,26,Pin_26*%
%TO.N,unconnected-(J1-Pin_26-Pad26)*%
X250600000Y-83460000D03*
%TO.P,J1,27,Pin_27*%
%TO.N,unconnected-(J1-Pin_27-Pad27)*%
X248060000Y-86000000D03*
%TO.P,J1,28,Pin_28*%
%TO.N,unconnected-(J1-Pin_28-Pad28)*%
X248060000Y-83460000D03*
%TO.P,J1,29,Pin_29*%
%TO.N,unconnected-(J1-Pin_29-Pad29)*%
X245520000Y-86000000D03*
%TO.P,J1,30,Pin_30*%
%TO.N,unconnected-(J1-Pin_30-Pad30)*%
X245520000Y-83460000D03*
%TO.P,J1,31,Pin_31*%
%TO.N,unconnected-(J1-Pin_31-Pad31)*%
X242980000Y-86000000D03*
%TO.P,J1,32,Pin_32*%
%TO.N,unconnected-(J1-Pin_32-Pad32)*%
X242980000Y-83460000D03*
%TO.P,J1,33,Pin_33*%
%TO.N,unconnected-(J1-Pin_33-Pad33)*%
X240440000Y-86000000D03*
%TO.P,J1,34,Pin_34*%
%TO.N,unconnected-(J1-Pin_34-Pad34)*%
X240440000Y-83460000D03*
%TO.P,J1,35,Pin_35*%
%TO.N,unconnected-(J1-Pin_35-Pad35)*%
X237900000Y-86000000D03*
%TO.P,J1,36,Pin_36*%
%TO.N,unconnected-(J1-Pin_36-Pad36)*%
X237900000Y-83460000D03*
%TO.P,J1,37,Pin_37*%
%TO.N,unconnected-(J1-Pin_37-Pad37)*%
X235360000Y-86000000D03*
%TO.P,J1,38,Pin_38*%
%TO.N,unconnected-(J1-Pin_38-Pad38)*%
X235360000Y-83460000D03*
%TO.P,J1,39,Pin_39*%
%TO.N,unconnected-(J1-Pin_39-Pad39)*%
X232820000Y-86000000D03*
%TO.P,J1,40,Pin_40*%
%TO.N,unconnected-(J1-Pin_40-Pad40)*%
X232820000Y-83460000D03*
%TD*%
D20*
%TO.N,Net-(D1-K)*%
X61513800Y-104490400D03*
X64500200Y-122290600D03*
%TO.N,+12V*%
X67486600Y-101523700D03*
X316088600Y-107457100D03*
X67486600Y-137124100D03*
X240697800Y-154082600D03*
X324355700Y-170150000D03*
X198888200Y-92623600D03*
X291743000Y-137124100D03*
X144877700Y-174613800D03*
X240697800Y-181624600D03*
X145133000Y-140325200D03*
X317678200Y-87859100D03*
X243684200Y-157891000D03*
X240697800Y-169757800D03*
X288852000Y-151783200D03*
X228752200Y-182704300D03*
X195901800Y-137124100D03*
X202021400Y-114204400D03*
X144877700Y-184336000D03*
X314856900Y-137625000D03*
X62366600Y-157891000D03*
X288480200Y-166791100D03*
X142283000Y-160857700D03*
X226517600Y-207350400D03*
%TO.N,Net-(D2-K)*%
X61816600Y-137124100D03*
X58527400Y-118870000D03*
%TO.N,Net-(D5-K)*%
X91377800Y-122290600D03*
X90729500Y-137124100D03*
%TO.N,Net-(D7-K)*%
X100337000Y-95590300D03*
X100121900Y-106960800D03*
%TO.N,Net-(D10-K)*%
X131047600Y-98557000D03*
X130776200Y-84831700D03*
%TO.N,Net-(D16-K)*%
X55541000Y-157891000D03*
X59348700Y-180770400D03*
%TO.N,Net-(D17-K)*%
X58527400Y-181624600D03*
X62304100Y-205358200D03*
%TO.N,Net-(D19-K)*%
X82418600Y-184591300D03*
X79432200Y-204624300D03*
%TO.N,Net-(D22-K)*%
X108350900Y-202391500D03*
X109296200Y-184787900D03*
%TO.N,Net-(D23-K)*%
X130201000Y-202391500D03*
X130940400Y-180554800D03*
%TO.N,Net-(D25-K)*%
X138733200Y-204729100D03*
X137485000Y-190432300D03*
%TO.N,Net-(D26-K)*%
X130806900Y-170251000D03*
X128346300Y-205783300D03*
%TO.N,Net-(D28-K)*%
X140854200Y-157450200D03*
X141150300Y-139514000D03*
%TO.N,Net-(D29-K)*%
X136173800Y-113390500D03*
X135506700Y-137124100D03*
%TO.N,Net-(D30-K)*%
X131442400Y-124904200D03*
X132340800Y-113390500D03*
%TO.N,Net-(D33-K)*%
X177983400Y-98875600D03*
X185647000Y-112905800D03*
%TO.N,Net-(D34-K)*%
X181804000Y-115594900D03*
X181804000Y-130442000D03*
%TO.N,Net-(D35-K)*%
X160065000Y-140090800D03*
X162300400Y-154051600D03*
%TO.N,Net-(D36-K)*%
X166037800Y-163824400D03*
X164323000Y-154082600D03*
%TO.N,Net-(D38-K)*%
X166516100Y-205358200D03*
X162301600Y-178657900D03*
%TO.N,Net-(D44-K)*%
X228752200Y-167051500D03*
X227044100Y-181236500D03*
%TO.N,Net-(D46-K)*%
X251974800Y-206185800D03*
X253381400Y-175691200D03*
%TO.N,Net-(D49-K)*%
X226870600Y-165825300D03*
X226405100Y-148682400D03*
%TO.N,Net-(D51-K)*%
X195005200Y-131021500D03*
X192498600Y-145757300D03*
%TO.N,Net-(D52-K)*%
X201205600Y-110423800D03*
X189521700Y-130940800D03*
%TO.N,Net-(D56-K)*%
X237515500Y-98337900D03*
X237711400Y-113390500D03*
%TO.N,Net-(D57-K)*%
X235621600Y-122966700D03*
X235555700Y-115531400D03*
%TO.N,Net-(D61-K)*%
X264589000Y-98557000D03*
X264704200Y-148990900D03*
%TO.N,Net-(D62-K)*%
X258348700Y-148990900D03*
X261602600Y-172707600D03*
%TO.N,Net-(D63-K)*%
X259130300Y-190524700D03*
X255629800Y-166791100D03*
%TO.N,Net-(D66-K)*%
X306821900Y-184750400D03*
X302769300Y-206294000D03*
%TO.N,Net-(D69-K)*%
X302608900Y-203475000D03*
X305552000Y-172724500D03*
%TO.N,Net-(D70-K)*%
X312682900Y-160857700D03*
X312371400Y-205358200D03*
%TO.N,Net-(D73-K)*%
X330289800Y-148990900D03*
X339249000Y-205358200D03*
%TO.N,Net-(D74-K)*%
X332703700Y-205358200D03*
X333879200Y-197228500D03*
%TO.N,Net-(D75-K)*%
X345221800Y-205358200D03*
X342235400Y-187558000D03*
%TO.N,Net-(D76-K)*%
X356286800Y-206244000D03*
X363140200Y-190742100D03*
%TO.N,Net-(D81-K)*%
X318344200Y-140090800D03*
X330289800Y-119323900D03*
%TO.N,Net-(D82-K)*%
X354181000Y-115886400D03*
X357568400Y-128224000D03*
%TO.N,Net-(D88-K)*%
X294587500Y-119323900D03*
X294453000Y-110245200D03*
%TO.N,Net-(D90-K)*%
X306398600Y-136482900D03*
X311676600Y-96249900D03*
%TO.N,Net-(D93-K)*%
X228752200Y-102013000D03*
X228752200Y-92623600D03*
%TO.N,Net-(D94-K)*%
X238214500Y-102409500D03*
X247157500Y-139569900D03*
%TO.N,Net-(J1-Pin_2)*%
X279458400Y-122228000D03*
%TO.N,Net-(J1-Pin_3)*%
X273548200Y-120140400D03*
%TO.N,Net-(J1-Pin_1)*%
X165706300Y-95636100D03*
%TO.N,Net-(J5-Pin_29)*%
X161007400Y-161801700D03*
%TO.N,Net-(J5-Pin_7)*%
X183671800Y-84721700D03*
X185646200Y-123101000D03*
%TO.N,GND*%
X94967200Y-166188100D03*
X67961400Y-100390900D03*
X264589000Y-125149000D03*
X91191700Y-151499300D03*
X300425800Y-170667900D03*
X135153000Y-173503700D03*
X97350600Y-101791500D03*
X264589000Y-136907400D03*
%TO.N,Net-(J5-Pin_4)*%
X175007600Y-143057500D03*
X137822000Y-143436900D03*
%TO.N,Net-(J5-Pin_26)*%
X161829900Y-193491400D03*
%TO.N,Net-(J5-Pin_36)*%
X285493800Y-80766400D03*
%TO.N,Net-(J5-Pin_21)*%
X165103200Y-119290200D03*
%TO.N,Net-(J5-Pin_15)*%
X167788800Y-102163600D03*
X222699700Y-103677100D03*
%TO.N,Net-(J5-Pin_2)*%
X183096600Y-128207300D03*
%TO.N,Net-(J5-Pin_1)*%
X121241800Y-94748600D03*
%TO.N,Net-(J5-Pin_16)*%
X170821500Y-187461700D03*
%TO.N,Net-(J5-Pin_6)*%
X137963400Y-89002400D03*
%TO.N,Net-(J5-Pin_32)*%
X146916000Y-101523700D03*
%TO.N,Net-(J5-Pin_24)*%
X160168300Y-90545600D03*
X109270500Y-91781900D03*
%TO.N,Net-(J5-Pin_5)*%
X138176900Y-89957400D03*
%TO.N,Net-(J5-Pin_38)*%
X141300000Y-193491400D03*
%TO.N,Net-(J5-Pin_19)*%
X337753500Y-82208300D03*
%TO.N,Net-(J5-Pin_30)*%
X148119400Y-160857700D03*
%TO.N,Net-(J5-Pin_18)*%
X270561800Y-81177700D03*
X164332300Y-81712300D03*
%TO.N,Net-(J5-Pin_37)*%
X321330600Y-134157400D03*
X139596200Y-131214500D03*
%TO.N,Net-(J5-Pin_20)*%
X175239000Y-121417600D03*
X173832900Y-88409400D03*
%TO.N,Net-(J5-Pin_22)*%
X115269000Y-83723500D03*
%TO.N,Net-(J5-Pin_28)*%
X151105800Y-155832900D03*
%TO.N,Net-(J5-Pin_3)*%
X106677100Y-92623600D03*
%TO.N,Net-(J5-Pin_23)*%
X114422400Y-87911100D03*
%TO.N,Net-(J5-Pin_31)*%
X147238000Y-95276200D03*
%TO.N,Net-(J5-Pin_33)*%
X146725400Y-97601400D03*
%TO.N,Net-(J5-Pin_14)*%
X176224000Y-191751700D03*
%TO.N,Net-(J5-Pin_34)*%
X309385000Y-80696600D03*
%TO.N,Net-(J5-Pin_8)*%
X192829300Y-131655700D03*
%TO.N,Net-(J5-Pin_39)*%
X138886700Y-154924300D03*
X306398600Y-154924300D03*
%TO.N,Net-(J5-Pin_13)*%
X183906500Y-189642400D03*
%TO.N,Net-(J5-Pin_35)*%
X146916000Y-128658900D03*
%TO.N,Net-(J5-Pin_9)*%
X175685600Y-109871700D03*
X202844600Y-111265500D03*
%TO.N,Net-(J5-Pin_17)*%
X291466600Y-83383600D03*
%TO.N,Net-(J5-Pin_25)*%
X168539700Y-191362800D03*
%TD*%
D21*
%TO.N,Net-(D1-K)*%
X56178700Y-106532300D02*
X59471900Y-106532300D01*
X55075000Y-105025000D02*
X55075000Y-105428600D01*
X55075000Y-105428600D02*
X56178700Y-106532300D01*
X59471900Y-106532300D02*
X61513800Y-104490400D01*
X64500200Y-122290600D02*
X62815600Y-122290600D01*
X62815600Y-122290600D02*
X61475000Y-120950000D01*
D22*
%TO.N,+12V*%
X138819600Y-182450000D02*
X142559800Y-186190200D01*
X114754500Y-87109400D02*
X98779400Y-87109400D01*
X125350600Y-136109000D02*
X127300000Y-138058400D01*
X322600000Y-85676700D02*
X320417600Y-87859100D01*
X144877700Y-184336000D02*
X144414000Y-184336000D01*
X79075000Y-138725000D02*
X79075000Y-137124100D01*
X80090100Y-136109000D02*
X125350600Y-136109000D01*
X222848100Y-114204400D02*
X225750000Y-117106300D01*
X227578700Y-208411500D02*
X226517600Y-207350400D01*
X355772400Y-170150000D02*
X360325000Y-165597400D01*
X289975900Y-137124100D02*
X289475000Y-137625000D01*
X95095000Y-83425000D02*
X69915000Y-83425000D01*
X314742900Y-107457100D02*
X316088600Y-107457100D01*
X239618100Y-182704300D02*
X240697800Y-181624600D01*
X314275000Y-107925000D02*
X314742900Y-107457100D01*
X57225000Y-105025000D02*
X60726300Y-101523700D01*
X147106900Y-190856900D02*
X142500000Y-186250000D01*
X314275000Y-108003900D02*
X314275000Y-107925000D01*
X241909000Y-157891000D02*
X243684200Y-157891000D01*
X240697800Y-169757800D02*
X261744000Y-169757800D01*
X142559800Y-186190200D02*
X142500000Y-186250000D01*
X324355700Y-170150000D02*
X337400000Y-170150000D01*
X360325000Y-165597400D02*
X360325000Y-165525000D01*
X335204700Y-107457100D02*
X338024600Y-104637200D01*
X226517600Y-207350400D02*
X225075400Y-207350400D01*
X174952200Y-140918300D02*
X145726100Y-140918300D01*
X228547900Y-182500000D02*
X228752200Y-182704300D01*
X177400000Y-138375000D02*
X177400000Y-138470500D01*
X127400000Y-85775000D02*
X127400000Y-85838800D01*
X60675000Y-157975000D02*
X62282600Y-157975000D01*
X288480200Y-166791100D02*
X265041100Y-166791100D01*
X75974200Y-210677900D02*
X80150000Y-206502100D01*
X145133000Y-140325200D02*
X129475200Y-140325200D01*
X320417600Y-87859100D02*
X317678200Y-87859100D01*
X177400000Y-138470500D02*
X174952200Y-140918300D01*
X66960000Y-208650000D02*
X68987900Y-210677900D01*
X343315600Y-104637200D02*
X344800000Y-106121600D01*
X289075000Y-153400000D02*
X289075000Y-152006200D01*
X289075000Y-152006200D02*
X288852000Y-151783200D01*
X193875000Y-148025000D02*
X193875000Y-138375000D01*
X140825300Y-159400000D02*
X142283000Y-160857700D01*
X337400000Y-170150000D02*
X355772400Y-170150000D01*
X174459000Y-109894700D02*
X177650000Y-113085700D01*
X202021400Y-114204400D02*
X222848100Y-114204400D01*
X177400000Y-138375000D02*
X193875000Y-138375000D01*
X161675000Y-189250000D02*
X161675000Y-189313800D01*
X261744000Y-169757800D02*
X264875900Y-166625900D01*
X192250000Y-91200000D02*
X197464600Y-91200000D01*
X139875000Y-159400000D02*
X140825300Y-159400000D01*
X344800000Y-106121600D02*
X344800000Y-106250000D01*
X104209100Y-108247900D02*
X74210800Y-108247900D01*
X321850000Y-170150000D02*
X324355700Y-170150000D01*
X80150000Y-206502100D02*
X80150000Y-206425000D01*
X321337600Y-137625000D02*
X323025000Y-139312400D01*
X125891700Y-87347100D02*
X114992200Y-87347100D01*
X225750000Y-117106300D02*
X225750000Y-117200000D01*
X240900000Y-158900000D02*
X241909000Y-157891000D01*
X68987900Y-210677900D02*
X75974200Y-210677900D01*
X129475200Y-140325200D02*
X127300000Y-138150000D01*
X141775000Y-99775000D02*
X151894700Y-109894700D01*
X144893800Y-174597700D02*
X144877700Y-174613800D01*
X145726100Y-140918300D02*
X145133000Y-140325200D01*
X160131900Y-190856900D02*
X147106900Y-190856900D01*
X144414000Y-184336000D02*
X142559800Y-186190200D01*
X178654400Y-114204400D02*
X177650000Y-113200000D01*
X177650000Y-113085700D02*
X177650000Y-113200000D01*
X79075000Y-137124100D02*
X80090100Y-136109000D01*
X67486600Y-137124100D02*
X79075000Y-137124100D01*
X114992200Y-87347100D02*
X114754500Y-87109400D01*
X158775000Y-176073100D02*
X157299600Y-174597700D01*
X322600000Y-85600000D02*
X322600000Y-85676700D01*
X310428900Y-111850000D02*
X314275000Y-108003900D01*
X193875000Y-138375000D02*
X194650900Y-138375000D01*
X277600000Y-111850000D02*
X310428900Y-111850000D01*
X264875900Y-166625900D02*
X264825000Y-166575000D01*
X161675000Y-189313800D02*
X160131900Y-190856900D01*
X228752200Y-182704300D02*
X239618100Y-182704300D01*
X289475000Y-137625000D02*
X314856900Y-137625000D01*
X157299600Y-174597700D02*
X144893800Y-174597700D01*
X224575000Y-182500000D02*
X228547900Y-182500000D01*
X304350000Y-204375000D02*
X303554600Y-204375000D01*
X194650900Y-138375000D02*
X195901800Y-137124100D01*
X105675000Y-106675000D02*
X105675000Y-106782000D01*
X337400000Y-184750000D02*
X337400000Y-170150000D01*
X291743000Y-137124100D02*
X289975900Y-137124100D01*
X225075400Y-207350400D02*
X224725000Y-207000000D01*
X202021400Y-114204400D02*
X178654400Y-114204400D01*
X323025000Y-139312400D02*
X323025000Y-139425000D01*
X338024600Y-104637200D02*
X343315600Y-104637200D01*
X127300000Y-138058400D02*
X127300000Y-138150000D01*
X62282600Y-157975000D02*
X62366600Y-157891000D01*
X111025000Y-182450000D02*
X138819600Y-182450000D01*
X299518100Y-208411500D02*
X227578700Y-208411500D01*
X265041100Y-166791100D02*
X264875900Y-166625900D01*
X158775000Y-176150000D02*
X158775000Y-176073100D01*
X74210800Y-108247900D02*
X67486600Y-101523700D01*
X151894700Y-109894700D02*
X174459000Y-109894700D01*
X60726300Y-101523700D02*
X67486600Y-101523700D01*
X303554600Y-204375000D02*
X299518100Y-208411500D01*
X199932600Y-154082600D02*
X240697800Y-154082600D01*
X314856900Y-137625000D02*
X321337600Y-137625000D01*
X127400000Y-85838800D02*
X125891700Y-87347100D01*
X197464600Y-91200000D02*
X198888200Y-92623600D01*
X98779400Y-87109400D02*
X95095000Y-83425000D01*
X316088600Y-107457100D02*
X335204700Y-107457100D01*
X193875000Y-148025000D02*
X199932600Y-154082600D01*
X105675000Y-106782000D02*
X104209100Y-108247900D01*
D21*
%TO.N,Net-(D2-K)*%
X60674100Y-137124100D02*
X59575000Y-136025000D01*
X59325000Y-120950000D02*
X58527400Y-120152400D01*
X61816600Y-137124100D02*
X60674100Y-137124100D01*
X58527400Y-120152400D02*
X58527400Y-118870000D01*
%TO.N,Net-(D3-K)*%
X64621400Y-128425000D02*
X76850000Y-128425000D01*
X57425000Y-135621400D02*
X64621400Y-128425000D01*
X57425000Y-136025000D02*
X57425000Y-135621400D01*
%TO.N,Net-(D4-K)*%
X76925000Y-139156600D02*
X76925000Y-138725000D01*
X77963100Y-140194700D02*
X76925000Y-139156600D01*
X91755300Y-140194700D02*
X77963100Y-140194700D01*
X94275000Y-137675000D02*
X91755300Y-140194700D01*
%TO.N,Net-(D5-K)*%
X90729500Y-137124100D02*
X91574100Y-137124100D01*
X94525000Y-118900000D02*
X94525000Y-119143400D01*
X94525000Y-119143400D02*
X91377800Y-122290600D01*
X91574100Y-137124100D02*
X92125000Y-137675000D01*
%TO.N,Net-(D6-K)*%
X91111200Y-117636200D02*
X92375000Y-118900000D01*
X77863800Y-117636200D02*
X91111200Y-117636200D01*
X76550000Y-118950000D02*
X77863800Y-117636200D01*
%TO.N,Net-(D7-K)*%
X104500000Y-92425000D02*
X101334700Y-95590300D01*
X101334700Y-95590300D02*
X100337000Y-95590300D01*
X103239200Y-106960800D02*
X103525000Y-106675000D01*
X100121900Y-106960800D02*
X103239200Y-106960800D01*
%TO.N,Net-(D8-K)*%
X100825000Y-92425000D02*
X93800000Y-85400000D01*
X102350000Y-92425000D02*
X100825000Y-92425000D01*
%TO.N,Net-(D9-K)*%
X91650000Y-85400000D02*
X91650000Y-96425000D01*
X91650000Y-96425000D02*
X94925000Y-99700000D01*
%TO.N,Net-(D10-K)*%
X125250000Y-85775000D02*
X125250000Y-85408900D01*
X130218000Y-84273500D02*
X130776200Y-84831700D01*
X125250000Y-85408900D02*
X126385400Y-84273500D01*
X126385400Y-84273500D02*
X130218000Y-84273500D01*
X131047600Y-98557000D02*
X121268000Y-98557000D01*
X121268000Y-98557000D02*
X119450000Y-100375000D01*
%TO.N,Net-(D11-K)*%
X117300000Y-100375000D02*
X117300000Y-106525000D01*
X117300000Y-106525000D02*
X127650000Y-116875000D01*
%TO.N,Net-(D12-K)*%
X125500000Y-124750000D02*
X125500000Y-116875000D01*
X127550000Y-126800000D02*
X125500000Y-124750000D01*
%TO.N,Net-(D13-K)*%
X125150000Y-138150000D02*
X119900000Y-138150000D01*
X119900000Y-138150000D02*
X110775000Y-147275000D01*
%TO.N,Net-(D14-K)*%
X99850000Y-147275000D02*
X108625000Y-147275000D01*
X93550000Y-153575000D02*
X99850000Y-147275000D01*
%TO.N,Net-(D15-K)*%
X81800000Y-153175000D02*
X83128700Y-154503700D01*
X83128700Y-154503700D02*
X90471300Y-154503700D01*
X90471300Y-154503700D02*
X91400000Y-153575000D01*
%TO.N,Net-(D16-K)*%
X55541000Y-157891000D02*
X58441000Y-157891000D01*
X56750000Y-178750000D02*
X57328300Y-178750000D01*
X58441000Y-157891000D02*
X58525000Y-157975000D01*
X57328300Y-178750000D02*
X59348700Y-180770400D01*
%TO.N,Net-(D17-K)*%
X54600000Y-178750000D02*
X54600000Y-179112800D01*
X61141800Y-205358200D02*
X60550000Y-205950000D01*
X62304100Y-205358200D02*
X61141800Y-205358200D01*
X54600000Y-179112800D02*
X57111800Y-181624600D01*
X57111800Y-181624600D02*
X58527400Y-181624600D01*
%TO.N,Net-(D18-K)*%
X67104100Y-196900000D02*
X76850000Y-196900000D01*
X58400000Y-205604100D02*
X67104100Y-196900000D01*
X58400000Y-205950000D02*
X58400000Y-205604100D01*
%TO.N,Net-(D19-K)*%
X82418600Y-184591300D02*
X80358700Y-184591300D01*
X78000000Y-206056500D02*
X79432200Y-204624300D01*
X78000000Y-206425000D02*
X78000000Y-206056500D01*
X80358700Y-184591300D02*
X79300000Y-185650000D01*
%TO.N,Net-(D20-K)*%
X77150000Y-185289600D02*
X81229500Y-181210100D01*
X87314900Y-181210100D02*
X90125000Y-178400000D01*
X81229500Y-181210100D02*
X87314900Y-181210100D01*
X77150000Y-185650000D02*
X77150000Y-185289600D01*
%TO.N,Net-(D21-K)*%
X87975000Y-173400000D02*
X87975000Y-178400000D01*
X91575000Y-169800000D02*
X87975000Y-173400000D01*
%TO.N,Net-(D22-K)*%
X108875000Y-184366700D02*
X109296200Y-184787900D01*
X108875000Y-182450000D02*
X108875000Y-184366700D01*
X109950000Y-202375000D02*
X108367400Y-202375000D01*
X108367400Y-202375000D02*
X108350900Y-202391500D01*
%TO.N,Net-(D23-K)*%
X132050000Y-178525000D02*
X132050000Y-179445200D01*
X130201000Y-202391500D02*
X128067500Y-204525000D01*
X132050000Y-179445200D02*
X130940400Y-180554800D01*
X128067500Y-204525000D02*
X109950000Y-204525000D01*
%TO.N,Net-(D24-K)*%
X129900000Y-178121400D02*
X131946400Y-176075000D01*
X131946400Y-176075000D02*
X141850000Y-176075000D01*
X129900000Y-178525000D02*
X129900000Y-178121400D01*
%TO.N,Net-(D25-K)*%
X140350000Y-186250000D02*
X140350000Y-187567300D01*
X142500000Y-206425000D02*
X140804100Y-204729100D01*
X140804100Y-204729100D02*
X138733200Y-204729100D01*
X140350000Y-187567300D02*
X137485000Y-190432300D01*
%TO.N,Net-(D26-K)*%
X128346300Y-205783300D02*
X139708300Y-205783300D01*
X116475000Y-168300000D02*
X118426000Y-170251000D01*
X139708300Y-205783300D02*
X140350000Y-206425000D01*
X118426000Y-170251000D02*
X130806900Y-170251000D01*
%TO.N,Net-(D27-K)*%
X114325000Y-167964200D02*
X115446900Y-166842300D01*
X117495800Y-166842300D02*
X117955300Y-167301800D01*
X117955300Y-167301800D02*
X117955300Y-167301900D01*
X122726900Y-167301900D02*
X123475000Y-168050000D01*
X115446900Y-166842300D02*
X117495800Y-166842300D01*
X117955300Y-167301900D02*
X122726900Y-167301900D01*
X114325000Y-168300000D02*
X114325000Y-167964200D01*
%TO.N,Net-(D28-K)*%
X142786000Y-139514000D02*
X141150300Y-139514000D01*
X144275000Y-138025000D02*
X142786000Y-139514000D01*
X139335400Y-157450200D02*
X140854200Y-157450200D01*
X137725000Y-159400000D02*
X137725000Y-159060600D01*
X137725000Y-159060600D02*
X139335400Y-157450200D01*
%TO.N,Net-(D29-K)*%
X136173800Y-113390500D02*
X141459500Y-113390500D01*
X136407600Y-138025000D02*
X135506700Y-137124100D01*
X141459500Y-113390500D02*
X144150000Y-110700000D01*
X142125000Y-138025000D02*
X136407600Y-138025000D01*
%TO.N,Net-(D30-K)*%
X138029200Y-124904200D02*
X131442400Y-124904200D01*
X142000000Y-110700000D02*
X135031300Y-110700000D01*
X135031300Y-110700000D02*
X132340800Y-113390500D01*
X140375000Y-127250000D02*
X138029200Y-124904200D01*
%TO.N,Net-(D31-K)*%
X147530600Y-98148200D02*
X159648200Y-98148200D01*
X140767300Y-98303100D02*
X147375700Y-98303100D01*
X139625000Y-99775000D02*
X139625000Y-99445400D01*
X159648200Y-98148200D02*
X161150000Y-99650000D01*
X139625000Y-99445400D02*
X140767300Y-98303100D01*
X147375700Y-98303100D02*
X147530600Y-98148200D01*
%TO.N,Net-(D32-K)*%
X159000000Y-99650000D02*
X159000000Y-100019600D01*
X181070800Y-101104200D02*
X182525000Y-99650000D01*
X160084600Y-101104200D02*
X181070800Y-101104200D01*
X159000000Y-100019600D02*
X160084600Y-101104200D01*
%TO.N,Net-(D33-K)*%
X177983400Y-98875600D02*
X179600600Y-98875600D01*
X185647000Y-112905800D02*
X185648600Y-112905800D01*
X179297400Y-98875600D02*
X177983400Y-98875600D01*
X179600600Y-98875600D02*
X180375000Y-99650000D01*
X185566200Y-112825000D02*
X185647000Y-112905800D01*
X177983400Y-98875600D02*
X179297400Y-98875600D01*
X185648600Y-112905800D02*
X185647000Y-112905800D01*
X184100000Y-112825000D02*
X185566200Y-112825000D01*
%TO.N,Net-(D34-K)*%
X181804000Y-130442000D02*
X182958000Y-130442000D01*
X175500000Y-113599500D02*
X177495400Y-115594900D01*
X175500000Y-113200000D02*
X175500000Y-113599500D01*
X182958000Y-130442000D02*
X183375000Y-130025000D01*
X177495400Y-115594900D02*
X181804000Y-115594900D01*
%TO.N,Net-(D35-K)*%
X161780800Y-138375000D02*
X160065000Y-140090800D01*
X161823800Y-153575000D02*
X159725000Y-153575000D01*
X162300400Y-154051600D02*
X161823800Y-153575000D01*
X175250000Y-138375000D02*
X161780800Y-138375000D01*
%TO.N,Net-(D36-K)*%
X157575000Y-153575000D02*
X157575000Y-153201200D01*
X157575000Y-153201200D02*
X158691100Y-152085100D01*
X162325500Y-152085100D02*
X164323000Y-154082600D01*
X177400000Y-166175000D02*
X175049400Y-163824400D01*
X158691100Y-152085100D02*
X162325500Y-152085100D01*
X175049400Y-163824400D02*
X166037800Y-163824400D01*
%TO.N,Net-(D37-K)*%
X185850000Y-166300000D02*
X184513200Y-167636800D01*
X176334100Y-167636800D02*
X175250000Y-166552700D01*
X184513200Y-167636800D02*
X176334100Y-167636800D01*
X175250000Y-166552700D02*
X175250000Y-166175000D01*
%TO.N,Net-(D38-K)*%
X166516100Y-205358200D02*
X165391800Y-205358200D01*
X156625000Y-176150000D02*
X156625000Y-176554000D01*
X165391800Y-205358200D02*
X164450000Y-206300000D01*
X156625000Y-176554000D02*
X158728900Y-178657900D01*
X158728900Y-178657900D02*
X162301600Y-178657900D01*
%TO.N,Net-(D39-K)*%
X162300000Y-206300000D02*
X162300000Y-206628600D01*
X162300000Y-206628600D02*
X164033600Y-208362200D01*
X164033600Y-208362200D02*
X192862800Y-208362200D01*
X192862800Y-208362200D02*
X194325000Y-206900000D01*
%TO.N,Net-(D40-K)*%
X192175000Y-206900000D02*
X191675000Y-206400000D01*
X191675000Y-206400000D02*
X191675000Y-196025000D01*
%TO.N,Net-(D41-K)*%
X192593800Y-185606200D02*
X162827100Y-185606200D01*
X194100000Y-184100000D02*
X192593800Y-185606200D01*
X162827100Y-185606200D02*
X159525000Y-188908300D01*
X159525000Y-188908300D02*
X159525000Y-189250000D01*
%TO.N,Net-(D42-K)*%
X195014000Y-180598200D02*
X191950000Y-183662200D01*
X209600000Y-176250000D02*
X205251800Y-180598200D01*
X191950000Y-183662200D02*
X191950000Y-184100000D01*
X205251800Y-180598200D02*
X195014000Y-180598200D01*
%TO.N,Net-(D43-K)*%
X222438200Y-174763200D02*
X208540200Y-174763200D01*
X208540200Y-174763200D02*
X207450000Y-175853400D01*
X207450000Y-175853400D02*
X207450000Y-176250000D01*
X223000000Y-175325000D02*
X222438200Y-174763200D01*
%TO.N,Net-(D44-K)*%
X222425000Y-182096000D02*
X223473900Y-181047100D01*
X226854700Y-181047100D02*
X227044100Y-181236500D01*
X231476500Y-167051500D02*
X231600000Y-167175000D01*
X228752200Y-167051500D02*
X231476500Y-167051500D01*
X222425000Y-182500000D02*
X222425000Y-182096000D01*
X223473900Y-181047100D02*
X226854700Y-181047100D01*
%TO.N,Net-(D45-K)*%
X254030100Y-205330100D02*
X255500000Y-206800000D01*
X223904800Y-205330100D02*
X254030100Y-205330100D01*
X222575000Y-207000000D02*
X222575000Y-206659900D01*
X222575000Y-206659900D02*
X223904800Y-205330100D01*
%TO.N,Net-(D46-K)*%
X253350000Y-206800000D02*
X252589000Y-206800000D01*
X252589000Y-206800000D02*
X251974800Y-206185800D01*
X252166200Y-175691200D02*
X251575000Y-175100000D01*
X253381400Y-175691200D02*
X252166200Y-175691200D01*
%TO.N,Net-(D47-K)*%
X261095700Y-173645700D02*
X262500000Y-175050000D01*
X249425000Y-175100000D02*
X249425000Y-174676400D01*
X250455700Y-173645700D02*
X261095700Y-173645700D01*
X249425000Y-174676400D02*
X250455700Y-173645700D01*
%TO.N,Net-(D48-K)*%
X225575000Y-167250000D02*
X226828200Y-167250000D01*
X235178200Y-158900000D02*
X238750000Y-158900000D01*
X226828200Y-167250000D02*
X235178200Y-158900000D01*
%TO.N,Net-(D49-K)*%
X226405100Y-148682400D02*
X224632400Y-148682400D01*
X224632400Y-148682400D02*
X224500000Y-148550000D01*
X223425000Y-166894800D02*
X224522700Y-165797100D01*
X223425000Y-167250000D02*
X223425000Y-166894800D01*
X226842400Y-165797100D02*
X226870600Y-165825300D01*
X224522700Y-165797100D02*
X226842400Y-165797100D01*
%TO.N,Net-(D50-K)*%
X236792700Y-150057300D02*
X223453700Y-150057300D01*
X222350000Y-148953600D02*
X222350000Y-148550000D01*
X223453700Y-150057300D02*
X222350000Y-148953600D01*
X238175000Y-148675000D02*
X236792700Y-150057300D01*
%TO.N,Net-(D51-K)*%
X194321500Y-131021500D02*
X193150000Y-129850000D01*
X191725000Y-148025000D02*
X191725000Y-146530900D01*
X195005200Y-131021500D02*
X194321500Y-131021500D01*
X191725000Y-146530900D02*
X192498600Y-145757300D01*
%TO.N,Net-(D52-K)*%
X202161200Y-110423800D02*
X204635000Y-107950000D01*
X189521700Y-130940800D02*
X189909200Y-130940800D01*
X189909200Y-130940800D02*
X191000000Y-129850000D01*
X201205600Y-110423800D02*
X202161200Y-110423800D01*
%TO.N,Net-(D53-K)*%
X202485000Y-107950000D02*
X202485000Y-107582300D01*
X224381600Y-106456600D02*
X226075000Y-108150000D01*
X202485000Y-107582300D02*
X203610700Y-106456600D01*
X203610700Y-106456600D02*
X224381600Y-106456600D01*
%TO.N,Net-(D54-K)*%
X224464900Y-89564900D02*
X191330000Y-89564900D01*
X225925000Y-91025000D02*
X224464900Y-89564900D01*
X190100000Y-90794900D02*
X190100000Y-91200000D01*
X191330000Y-89564900D02*
X190100000Y-90794900D01*
%TO.N,Net-(D55-K)*%
X228196100Y-95845700D02*
X237720700Y-95845700D01*
X223775000Y-91025000D02*
X223775000Y-91424600D01*
X223775000Y-91424600D02*
X228196100Y-95845700D01*
X237720700Y-95845700D02*
X241075000Y-99200000D01*
%TO.N,Net-(D56-K)*%
X237515500Y-98337900D02*
X238062900Y-98337900D01*
X239025000Y-117350000D02*
X237711400Y-116036400D01*
X237711400Y-116036400D02*
X237711400Y-113390500D01*
X238062900Y-98337900D02*
X238925000Y-99200000D01*
%TO.N,Net-(D57-K)*%
X223600000Y-117587200D02*
X224665700Y-118652900D01*
X235621600Y-122966700D02*
X239716700Y-122966700D01*
X224665700Y-118652900D02*
X232434200Y-118652900D01*
X232434200Y-118652900D02*
X235555700Y-115531400D01*
X239716700Y-122966700D02*
X241800000Y-125050000D01*
X223600000Y-117200000D02*
X223600000Y-117587200D01*
%TO.N,Net-(D58-K)*%
X243174100Y-128977700D02*
X257447300Y-128977700D01*
X239650000Y-125050000D02*
X239650000Y-125453600D01*
X239650000Y-125453600D02*
X243174100Y-128977700D01*
X257447300Y-128977700D02*
X258900000Y-127525000D01*
%TO.N,Net-(D59-K)*%
X263749700Y-126024700D02*
X257830300Y-126024700D01*
X256750000Y-127105000D02*
X256750000Y-127525000D01*
X265125000Y-127400000D02*
X263749700Y-126024700D01*
X257830300Y-126024700D02*
X256750000Y-127105000D01*
%TO.N,Net-(D60-K)*%
X263433600Y-106738300D02*
X263198300Y-106973600D01*
X263198300Y-106973600D02*
X263198300Y-108806400D01*
X272641700Y-109041700D02*
X275450000Y-111850000D01*
X268911700Y-106738300D02*
X263433600Y-106738300D01*
X263198300Y-108806400D02*
X263433600Y-109041700D01*
X263433600Y-109041700D02*
X272641700Y-109041700D01*
X276150000Y-99500000D02*
X268911700Y-106738300D01*
%TO.N,Net-(D61-K)*%
X273057000Y-98557000D02*
X274000000Y-99500000D01*
X264704200Y-148990900D02*
X262540900Y-148990900D01*
X262540900Y-148990900D02*
X262275000Y-148725000D01*
X264589000Y-98557000D02*
X273057000Y-98557000D01*
%TO.N,Net-(D62-K)*%
X259859100Y-148990900D02*
X260125000Y-148725000D01*
X269350000Y-175200000D02*
X266857600Y-172707600D01*
X258348700Y-148990900D02*
X259859100Y-148990900D01*
X266857600Y-172707600D02*
X261602600Y-172707600D01*
%TO.N,Net-(D63-K)*%
X255845900Y-166575000D02*
X255629800Y-166791100D01*
X262675000Y-166575000D02*
X255845900Y-166575000D01*
X259130300Y-190524700D02*
X258124700Y-190524700D01*
X258124700Y-190524700D02*
X257100000Y-189500000D01*
%TO.N,Net-(D64-K)*%
X254950000Y-189091000D02*
X256231600Y-187809400D01*
X256231600Y-187809400D02*
X271559400Y-187809400D01*
X254950000Y-189500000D02*
X254950000Y-189091000D01*
X271559400Y-187809400D02*
X273025000Y-189275000D01*
%TO.N,Net-(D65-K)*%
X270875000Y-189275000D02*
X263800000Y-196350000D01*
X263800000Y-196350000D02*
X263800000Y-197200000D01*
%TO.N,Net-(D66-K)*%
X305225000Y-182375000D02*
X305225000Y-183153500D01*
X302769300Y-206294000D02*
X303000300Y-206525000D01*
X303000300Y-206525000D02*
X304350000Y-206525000D01*
X305225000Y-183153500D02*
X306821900Y-184750400D01*
%TO.N,Net-(D67-K)*%
X290975000Y-170275000D02*
X303075000Y-182375000D01*
X283700000Y-170275000D02*
X290975000Y-170275000D01*
%TO.N,Net-(D68-K)*%
X291781500Y-168781500D02*
X293100000Y-170100000D01*
X281550000Y-170275000D02*
X281550000Y-169881200D01*
X282649700Y-168781500D02*
X291781500Y-168781500D01*
X281550000Y-169881200D02*
X282649700Y-168781500D01*
%TO.N,Net-(D69-K)*%
X319700000Y-170150000D02*
X317125500Y-172724500D01*
X300535400Y-205548500D02*
X274351500Y-205548500D01*
X300535400Y-205548500D02*
X302608900Y-203475000D01*
X302608900Y-203475000D02*
X300535400Y-205548500D01*
X274351500Y-205548500D02*
X274350000Y-205550000D01*
X302608900Y-203475000D02*
X300535400Y-205548500D01*
X317125500Y-172724500D02*
X305552000Y-172724500D01*
%TO.N,Net-(D70-K)*%
X274617400Y-202773300D02*
X272200000Y-205190700D01*
X310657700Y-160857700D02*
X310450000Y-160650000D01*
X312371400Y-205358200D02*
X309786500Y-202773300D01*
X309786500Y-202773300D02*
X274617400Y-202773300D01*
X312682900Y-160857700D02*
X310657700Y-160857700D01*
X272200000Y-205190700D02*
X272200000Y-205550000D01*
%TO.N,Net-(D71-K)*%
X309425000Y-169350000D02*
X308300000Y-168225000D01*
X308300000Y-168225000D02*
X308300000Y-160650000D01*
%TO.N,Net-(D72-K)*%
X286925000Y-152702500D02*
X293148900Y-146478600D01*
X286925000Y-153400000D02*
X286925000Y-152702500D01*
X293148900Y-146478600D02*
X306003600Y-146478600D01*
X306003600Y-146478600D02*
X307475000Y-147950000D01*
%TO.N,Net-(D73-K)*%
X305325000Y-147950000D02*
X305325000Y-148353600D01*
X329834900Y-149445800D02*
X330289800Y-148990900D01*
X306417200Y-149445800D02*
X329834900Y-149445800D01*
X305325000Y-148353600D02*
X306417200Y-149445800D01*
X337466800Y-205358200D02*
X336325000Y-206500000D01*
X339249000Y-205358200D02*
X337466800Y-205358200D01*
%TO.N,Net-(D74-K)*%
X332703700Y-205358200D02*
X333033200Y-205358200D01*
X334475000Y-195750000D02*
X333879200Y-196345800D01*
X333879200Y-196345800D02*
X333879200Y-197228500D01*
X333033200Y-205358200D02*
X334175000Y-206500000D01*
%TO.N,Net-(D75-K)*%
X358108500Y-205108500D02*
X359600000Y-206600000D01*
X335250000Y-185130800D02*
X337677200Y-187558000D01*
X345221800Y-205358200D02*
X345471500Y-205108500D01*
X335250000Y-184750000D02*
X335250000Y-185130800D01*
X345471500Y-205108500D02*
X358108500Y-205108500D01*
X337677200Y-187558000D02*
X342235400Y-187558000D01*
%TO.N,Net-(D76-K)*%
X356286800Y-206244000D02*
X357094000Y-206244000D01*
X363300000Y-190582300D02*
X363140200Y-190742100D01*
X363300000Y-188425000D02*
X363300000Y-190582300D01*
X357094000Y-206244000D02*
X357450000Y-206600000D01*
%TO.N,Net-(D77-K)*%
X355050000Y-188425000D02*
X361150000Y-188425000D01*
X347600000Y-195875000D02*
X355050000Y-188425000D01*
%TO.N,Net-(D78-K)*%
X356425000Y-165525000D02*
X338550000Y-147650000D01*
X358175000Y-165525000D02*
X356425000Y-165525000D01*
%TO.N,Net-(D79-K)*%
X361068200Y-142431800D02*
X341210400Y-142431800D01*
X341210400Y-142431800D02*
X336400000Y-147242200D01*
X364350000Y-139150000D02*
X361068200Y-142431800D01*
X336400000Y-147242200D02*
X336400000Y-147650000D01*
%TO.N,Net-(D80-K)*%
X362200000Y-139150000D02*
X361158300Y-140191700D01*
X355166700Y-140191700D02*
X353875000Y-138900000D01*
X361158300Y-140191700D02*
X355166700Y-140191700D01*
%TO.N,Net-(D81-K)*%
X326865900Y-115900000D02*
X330289800Y-119323900D01*
X322475000Y-115900000D02*
X326865900Y-115900000D01*
X318344200Y-140090800D02*
X320209200Y-140090800D01*
X320209200Y-140090800D02*
X320875000Y-139425000D01*
%TO.N,Net-(D82-K)*%
X357568400Y-128224000D02*
X356024000Y-128224000D01*
X320325000Y-115900000D02*
X320325000Y-115560600D01*
X321484500Y-114401100D02*
X352695700Y-114401100D01*
X356024000Y-128224000D02*
X355425000Y-127625000D01*
X320325000Y-115560600D02*
X321484500Y-114401100D01*
X352695700Y-114401100D02*
X354181000Y-115886400D01*
%TO.N,Net-(D83-K)*%
X353575000Y-117775000D02*
X348886400Y-117775000D01*
X345474500Y-125488200D02*
X345753000Y-125766700D01*
X345753000Y-125766700D02*
X351416700Y-125766700D01*
X345474500Y-121186900D02*
X345474500Y-125488200D01*
X351416700Y-125766700D02*
X353275000Y-127625000D01*
X348886400Y-117775000D02*
X345474500Y-121186900D01*
%TO.N,Net-(D84-K)*%
X342650000Y-106651100D02*
X342650000Y-106250000D01*
X364525000Y-107200000D02*
X363043400Y-108681600D01*
X344680500Y-108681600D02*
X342650000Y-106651100D01*
X363043400Y-108681600D02*
X344680500Y-108681600D01*
%TO.N,Net-(D85-K)*%
X362375000Y-107200000D02*
X359050000Y-103875000D01*
X359050000Y-103875000D02*
X332700000Y-103875000D01*
%TO.N,Net-(D86-K)*%
X335249900Y-98825000D02*
X330550000Y-103524900D01*
X342200000Y-98825000D02*
X335249900Y-98825000D01*
X330550000Y-103524900D02*
X330550000Y-103875000D01*
%TO.N,Net-(D87-K)*%
X312125000Y-107925000D02*
X300150000Y-107925000D01*
X300150000Y-107925000D02*
X300025000Y-108050000D01*
%TO.N,Net-(D88-K)*%
X290298900Y-119323900D02*
X289950000Y-118975000D01*
X296648200Y-108050000D02*
X294453000Y-110245200D01*
X294587500Y-119323900D02*
X290298900Y-119323900D01*
X297875000Y-108050000D02*
X296648200Y-108050000D01*
%TO.N,Net-(D89-K)*%
X287800000Y-127575000D02*
X287800000Y-118975000D01*
X286825000Y-128550000D02*
X287800000Y-127575000D01*
%TO.N,Net-(D90-K)*%
X311676600Y-95101600D02*
X311676600Y-96249900D01*
X306018600Y-136102900D02*
X306398600Y-136482900D01*
X311676600Y-95962800D02*
X311676600Y-96249900D01*
X310950000Y-94375000D02*
X311676600Y-95101600D01*
X306018600Y-136102900D02*
X306398600Y-136482900D01*
X311676600Y-96249900D02*
X311676600Y-95962800D01*
X288438600Y-136102900D02*
X306018600Y-136102900D01*
X287325000Y-137625000D02*
X287325000Y-137216500D01*
X306398600Y-136482900D02*
X306018600Y-136102900D01*
X287325000Y-137216500D02*
X288438600Y-136102900D01*
%TO.N,Net-(D91-K)*%
X293600000Y-94375000D02*
X291125000Y-91900000D01*
X308800000Y-94375000D02*
X293600000Y-94375000D01*
%TO.N,Net-(D92-K)*%
X288975000Y-93400000D02*
X288975000Y-91900000D01*
X295275000Y-99700000D02*
X288975000Y-93400000D01*
%TO.N,Net-(D93-K)*%
X228752200Y-92623600D02*
X232364700Y-89011100D01*
X232364700Y-89011100D02*
X304149500Y-89011100D01*
X220187000Y-102013000D02*
X219925000Y-102275000D01*
X307560600Y-85600000D02*
X320450000Y-85600000D01*
X304149500Y-89011100D02*
X307560600Y-85600000D01*
X228752200Y-102013000D02*
X220187000Y-102013000D01*
%TO.N,Net-(D94-K)*%
X247157500Y-139569900D02*
X245444900Y-139569900D01*
X236623900Y-100818900D02*
X238214500Y-102409500D01*
X245444900Y-139569900D02*
X245100000Y-139225000D01*
X218848900Y-100818900D02*
X236623900Y-100818900D01*
X217775000Y-101892800D02*
X218848900Y-100818900D01*
X217775000Y-102275000D02*
X217775000Y-101892800D01*
%TO.N,Net-(D95-K)*%
X242950000Y-139628600D02*
X244053700Y-140732300D01*
X244053700Y-140732300D02*
X262567700Y-140732300D01*
X242950000Y-139225000D02*
X242950000Y-139628600D01*
X262567700Y-140732300D02*
X264250000Y-139050000D01*
%TO.N,Net-(J1-Pin_2)*%
X168126700Y-124355000D02*
X170253700Y-122228000D01*
X166975000Y-124355000D02*
X168126700Y-124355000D01*
X170253700Y-122228000D02*
X279458400Y-122228000D01*
%TO.N,Net-(J1-Pin_3)*%
X273230600Y-120458000D02*
X273548200Y-120140400D01*
X273548200Y-120140400D02*
X273230600Y-120458000D01*
X152426700Y-123775000D02*
X155743700Y-120458000D01*
X151275000Y-123775000D02*
X152426700Y-123775000D01*
X155743700Y-120458000D02*
X273230600Y-120458000D01*
X273230600Y-120458000D02*
X273548200Y-120140400D01*
%TO.N,Net-(J1-Pin_1)*%
X281080000Y-86000000D02*
X279828300Y-86000000D01*
X279828300Y-86547700D02*
X279124300Y-87251700D01*
X279124300Y-87251700D02*
X188032600Y-87251700D01*
X179648200Y-95636100D02*
X165706300Y-95636100D01*
X279828300Y-86000000D02*
X279828300Y-86547700D01*
X188032600Y-87251700D02*
X179648200Y-95636100D01*
%TO.N,Net-(J5-Pin_29)*%
X214998300Y-161230000D02*
X214426600Y-161801700D01*
X214426600Y-161801700D02*
X161007400Y-161801700D01*
X216150000Y-161230000D02*
X214998300Y-161230000D01*
%TO.N,Net-(J5-Pin_7)*%
X177135000Y-86300000D02*
X177904900Y-86300000D01*
X183345200Y-85048300D02*
X183671800Y-84721700D01*
X185646200Y-123101000D02*
X213924300Y-123101000D01*
X183671800Y-84721700D02*
X183485000Y-84908500D01*
X177904900Y-86300000D02*
X179156600Y-85048300D01*
X213924300Y-123101000D02*
X215023300Y-124200000D01*
X179156600Y-85048300D02*
X183345200Y-85048300D01*
X216175000Y-124200000D02*
X215023300Y-124200000D01*
X183485000Y-84908500D02*
X183671800Y-84721700D01*
%TO.N,GND*%
X196188300Y-166300000D02*
X199298300Y-163190000D01*
X246600000Y-198195000D02*
X247751700Y-198195000D01*
X332706700Y-129695000D02*
X332126700Y-129115000D01*
X349415900Y-197159100D02*
X338984100Y-197159100D01*
X116650000Y-197515000D02*
X104631700Y-197515000D01*
X346675000Y-129695000D02*
X332706700Y-129695000D01*
X97350600Y-101791500D02*
X69362000Y-101791500D01*
X118381700Y-198095000D02*
X117801700Y-197515000D01*
X102825000Y-198170000D02*
X103976700Y-198170000D01*
X201630500Y-132211800D02*
X201630500Y-131820000D01*
X88856700Y-198170000D02*
X88276700Y-197590000D01*
X330975000Y-129115000D02*
X315976700Y-129115000D01*
X79950000Y-128425000D02*
X97358300Y-128425000D01*
X291510000Y-126965000D02*
X312675000Y-126965000D01*
X347826700Y-129751700D02*
X347826700Y-129695000D01*
X184368300Y-197540000D02*
X184948300Y-198120000D01*
X135153000Y-173503700D02*
X129699300Y-168050000D01*
X166975000Y-126895000D02*
X165823300Y-126895000D01*
X119580900Y-128144200D02*
X129305800Y-128144200D01*
X264589000Y-125149000D02*
X265974000Y-125149000D01*
X216150000Y-163770000D02*
X202181700Y-163770000D01*
X271144500Y-176505500D02*
X267055500Y-176505500D01*
X315976700Y-129115000D02*
X313826700Y-126965000D01*
X196390000Y-197640000D02*
X200450000Y-197640000D01*
X300425800Y-170667900D02*
X296767900Y-170667900D01*
X280924200Y-197640000D02*
X280348300Y-197640000D01*
X94967200Y-166188100D02*
X94967200Y-169507800D01*
X200475000Y-131240000D02*
X201626700Y-131240000D01*
X248498200Y-141451800D02*
X264948200Y-141451800D01*
X94967200Y-169507800D02*
X94675000Y-169800000D01*
X200450000Y-197640000D02*
X201601700Y-197640000D01*
X248650000Y-112390000D02*
X262618300Y-112390000D01*
X296767900Y-170667900D02*
X296200000Y-170100000D01*
X186100000Y-193040000D02*
X214898300Y-193040000D01*
X79950000Y-119250000D02*
X79950000Y-128425000D01*
X124713100Y-166188100D02*
X94967200Y-166188100D01*
X97358300Y-128425000D02*
X100448300Y-131515000D01*
X248051900Y-198495200D02*
X247751700Y-198195000D01*
X267991400Y-197640000D02*
X267991400Y-198090500D01*
X132350000Y-198095000D02*
X118381700Y-198095000D01*
X151275000Y-126315000D02*
X165243300Y-126315000D01*
X150699200Y-126315000D02*
X150123300Y-126315000D01*
X246600000Y-198195000D02*
X232631700Y-198195000D01*
X331550900Y-129115000D02*
X332126700Y-129115000D01*
X98025000Y-101117100D02*
X97350600Y-101791500D01*
X224500000Y-112825000D02*
X229175000Y-108150000D01*
X229748300Y-197615000D02*
X229143300Y-198220000D01*
X229143300Y-198220000D02*
X216150000Y-198220000D01*
X296975000Y-131465000D02*
X298126700Y-131465000D01*
X214898300Y-193040000D02*
X214998300Y-193140000D01*
X356675000Y-117775000D02*
X349835000Y-124615000D01*
X170400000Y-197540000D02*
X184368300Y-197540000D01*
X311207100Y-170667900D02*
X300425800Y-170667900D01*
X230900000Y-197615000D02*
X229748300Y-197615000D01*
X117300000Y-132095000D02*
X116148300Y-132095000D01*
X201630500Y-131820000D02*
X215023300Y-131820000D01*
X226100000Y-169747400D02*
X223279100Y-169747400D01*
X331550900Y-129115000D02*
X330975000Y-129115000D01*
X346675000Y-129695000D02*
X347826700Y-129695000D01*
X311150000Y-197665000D02*
X298906700Y-197665000D01*
X69362000Y-101791500D02*
X67961400Y-100390900D01*
X298906700Y-197665000D02*
X298351700Y-198220000D01*
X297200000Y-198220000D02*
X296048300Y-198220000D01*
X144950000Y-176075000D02*
X142378700Y-173503700D01*
X200450000Y-163190000D02*
X201601700Y-163190000D01*
X350700000Y-195875000D02*
X349415900Y-197159100D01*
X264055500Y-176594500D02*
X244119500Y-176594500D01*
X129699300Y-168050000D02*
X126575000Y-168050000D01*
X338984100Y-197159100D02*
X337575000Y-195750000D01*
X290185000Y-107890000D02*
X264350000Y-107890000D01*
X267551400Y-197200000D02*
X267991400Y-197640000D01*
X280924200Y-197640000D02*
X281500000Y-197640000D01*
X267586700Y-198495200D02*
X248051900Y-198495200D01*
X132387900Y-128537900D02*
X130650000Y-126800000D01*
X188877400Y-132427400D02*
X201414900Y-132427400D01*
X202181700Y-198220000D02*
X201601700Y-197640000D01*
X345300000Y-98825000D02*
X343953500Y-97478500D01*
X187200000Y-112825000D02*
X224500000Y-112825000D01*
X265974000Y-125149000D02*
X268225000Y-127400000D01*
X248650000Y-112390000D02*
X242125000Y-112390000D01*
X265207400Y-136907400D02*
X264589000Y-136907400D01*
X265600000Y-175050000D02*
X264055500Y-176594500D01*
X297200000Y-198220000D02*
X298351700Y-198220000D01*
X117225900Y-197515000D02*
X117801700Y-197515000D01*
X84900000Y-153175000D02*
X89516000Y-153175000D01*
X242125000Y-112390000D02*
X233415000Y-112390000D01*
X165243300Y-126315000D02*
X165823300Y-126895000D01*
X143475000Y-127250000D02*
X142187100Y-128537900D01*
X126575000Y-168050000D02*
X124713100Y-166188100D01*
X312675000Y-126965000D02*
X313826700Y-126965000D01*
X288623400Y-129851600D02*
X270676600Y-129851600D01*
X117300000Y-127015000D02*
X118451700Y-127015000D01*
X201414900Y-132427400D02*
X201630500Y-132211800D01*
X232631700Y-198195000D02*
X232051700Y-197615000D01*
X337575000Y-195750000D02*
X335080000Y-198245000D01*
X201626700Y-131240000D02*
X201626700Y-131816200D01*
X300596500Y-97478500D02*
X298375000Y-99700000D01*
X87125000Y-197590000D02*
X88276700Y-197590000D01*
X101600000Y-131515000D02*
X100448300Y-131515000D01*
X226100000Y-175325000D02*
X226100000Y-169747400D01*
X98025000Y-99700000D02*
X98025000Y-101117100D01*
X101673300Y-198170000D02*
X88856700Y-198170000D01*
X262618300Y-112390000D02*
X263198300Y-112970000D01*
X241275000Y-148675000D02*
X248498200Y-141451800D01*
X267055500Y-176505500D02*
X265600000Y-175050000D01*
X101600000Y-131515000D02*
X115568300Y-131515000D01*
X264948200Y-141451800D02*
X267350000Y-139050000D01*
X242125000Y-117350000D02*
X242125000Y-112390000D01*
X312675000Y-132045000D02*
X298706700Y-132045000D01*
X142378700Y-173503700D02*
X135153000Y-173503700D01*
X142187100Y-128537900D02*
X132387900Y-128537900D01*
X244119500Y-176594500D02*
X234700000Y-167175000D01*
X289925000Y-128550000D02*
X288623400Y-129851600D01*
X311150000Y-197665000D02*
X325118300Y-197665000D01*
X117225900Y-197515000D02*
X116650000Y-197515000D01*
X202181700Y-163770000D02*
X201601700Y-163190000D01*
X232127600Y-169747400D02*
X226100000Y-169747400D01*
X267991400Y-198090500D02*
X267586700Y-198495200D01*
X166975000Y-126895000D02*
X168126700Y-126895000D01*
X266900000Y-197200000D02*
X267551400Y-197200000D01*
X188950000Y-166300000D02*
X196188300Y-166300000D01*
X267350000Y-139050000D02*
X265207400Y-136907400D01*
X272450000Y-175200000D02*
X271144500Y-176505500D01*
X194775000Y-196025000D02*
X196390000Y-197640000D01*
X143475000Y-127250000D02*
X149188300Y-127250000D01*
X325118300Y-197665000D02*
X325698300Y-198245000D01*
X115568300Y-131515000D02*
X116148300Y-132095000D01*
X216175000Y-131820000D02*
X215023300Y-131820000D01*
X150699200Y-126315000D02*
X151275000Y-126315000D01*
X149188300Y-127250000D02*
X150123300Y-126315000D01*
X335080000Y-198245000D02*
X326850000Y-198245000D01*
X168126700Y-126895000D02*
X183345000Y-126895000D01*
X349835000Y-124615000D02*
X346675000Y-124615000D01*
X186475000Y-130025000D02*
X188877400Y-132427400D01*
X102825000Y-198170000D02*
X101673300Y-198170000D01*
X343953500Y-97478500D02*
X300596500Y-97478500D01*
X79650000Y-118950000D02*
X79950000Y-119250000D01*
X298375000Y-99700000D02*
X290185000Y-107890000D01*
X186100000Y-198120000D02*
X184948300Y-198120000D01*
X289925000Y-128550000D02*
X291510000Y-126965000D01*
X216150000Y-163770000D02*
X217301700Y-163770000D01*
X216150000Y-198220000D02*
X202181700Y-198220000D01*
X118451700Y-127015000D02*
X119580900Y-128144200D01*
X201626700Y-131816200D02*
X201630500Y-131820000D01*
X264350000Y-112970000D02*
X263198300Y-112970000D01*
X233415000Y-112390000D02*
X229175000Y-108150000D01*
X79950000Y-196900000D02*
X100403300Y-196900000D01*
X295468300Y-197640000D02*
X296048300Y-198220000D01*
X312525000Y-169350000D02*
X311207100Y-170667900D01*
X200450000Y-163190000D02*
X199298300Y-163190000D01*
X216150000Y-193140000D02*
X214998300Y-193140000D01*
X230900000Y-197615000D02*
X232051700Y-197615000D01*
X100403300Y-196900000D02*
X101673300Y-198170000D01*
X234700000Y-167175000D02*
X232127600Y-169747400D01*
X270676600Y-129851600D02*
X268225000Y-127400000D01*
X298706700Y-132045000D02*
X298126700Y-131465000D01*
X129305800Y-128144200D02*
X130650000Y-126800000D01*
X223279100Y-169747400D02*
X217301700Y-163770000D01*
X281500000Y-197640000D02*
X295468300Y-197640000D01*
X326850000Y-198245000D02*
X325698300Y-198245000D01*
X104631700Y-197515000D02*
X103976700Y-198170000D01*
X280348300Y-197640000D02*
X267991400Y-197640000D01*
X183345000Y-126895000D02*
X186475000Y-130025000D01*
X356975000Y-138900000D02*
X347826700Y-129751700D01*
X89516000Y-153175000D02*
X91191700Y-151499300D01*
%TO.N,Net-(J5-Pin_4)*%
X137822000Y-143436900D02*
X174628200Y-143436900D01*
X174628200Y-143436900D02*
X175007600Y-143057500D01*
X175007600Y-143057500D02*
X174628200Y-143436900D01*
X174628200Y-143436900D02*
X175007600Y-143057500D01*
%TO.N,Net-(J5-Pin_26)*%
X186100000Y-195580000D02*
X184948300Y-195580000D01*
X184376600Y-196151700D02*
X164490200Y-196151700D01*
X164490200Y-196151700D02*
X161829900Y-193491400D01*
X184948300Y-195580000D02*
X184376600Y-196151700D01*
%TO.N,Net-(J5-Pin_36)*%
X161400100Y-79801500D02*
X160993100Y-80208500D01*
X285493800Y-80766400D02*
X284528900Y-79801500D01*
X160993100Y-80208500D02*
X160744000Y-80457600D01*
X160744000Y-80457600D02*
X144877400Y-80457600D01*
X284528900Y-79801500D02*
X161400100Y-79801500D01*
X160993100Y-80208500D02*
X160744000Y-80457600D01*
X144877400Y-80457600D02*
X141575000Y-83760000D01*
%TO.N,Net-(J5-Pin_21)*%
X165103200Y-119044600D02*
X166024500Y-118123300D01*
X222129800Y-119503700D02*
X227752200Y-119503700D01*
X330975000Y-126575000D02*
X329823300Y-126575000D01*
X227752200Y-119503700D02*
X227982400Y-119273500D01*
X297197500Y-116892500D02*
X285726000Y-116892500D01*
X220749400Y-118123300D02*
X222129800Y-119503700D01*
X320742500Y-117494200D02*
X297799200Y-117494200D01*
X285726000Y-116892500D02*
X283345000Y-119273500D01*
X329823300Y-126575000D02*
X320742500Y-117494200D01*
X227752200Y-119503700D02*
X227982400Y-119273500D01*
X297799200Y-117494200D02*
X297197500Y-116892500D01*
X283345000Y-119273500D02*
X227982400Y-119273500D01*
X166024500Y-118123300D02*
X220749400Y-118123300D01*
X165103200Y-119290200D02*
X165103200Y-119044600D01*
%TO.N,Net-(J5-Pin_15)*%
X222619900Y-103756900D02*
X222699700Y-103677100D01*
X167788800Y-102163600D02*
X169382100Y-103756900D01*
X169382100Y-103756900D02*
X222619900Y-103756900D01*
%TO.N,Net-(J5-Pin_2)*%
X146435100Y-127957100D02*
X144837200Y-129555000D01*
X183096600Y-128207300D02*
X147937900Y-128207300D01*
X144837200Y-129555000D02*
X117300000Y-129555000D01*
X147937900Y-128207300D02*
X147687700Y-127957100D01*
X147687700Y-127957100D02*
X146435100Y-127957100D01*
%TO.N,Net-(J5-Pin_1)*%
X121419000Y-94571300D02*
X121419000Y-94571400D01*
X183503300Y-86300000D02*
X183503300Y-86847600D01*
X175779600Y-94571300D02*
X121419000Y-94571300D01*
X121419000Y-94571400D02*
X121241800Y-94748600D01*
X184755000Y-86300000D02*
X183503300Y-86300000D01*
X183503300Y-86847600D02*
X175779600Y-94571300D01*
%TO.N,Net-(J5-Pin_16)*%
X297200000Y-190600000D02*
X296048300Y-190600000D01*
X171725400Y-186557800D02*
X170821500Y-187461700D01*
X296048300Y-190600000D02*
X292006100Y-186557800D01*
X292006100Y-186557800D02*
X171725400Y-186557800D01*
%TO.N,Net-(J5-Pin_6)*%
X178342400Y-85011700D02*
X176641200Y-85011700D01*
X174123500Y-89111100D02*
X138072100Y-89111100D01*
X176641200Y-85011700D02*
X175865000Y-85787900D01*
X138072100Y-89111100D02*
X137963400Y-89002400D01*
X175865000Y-87369600D02*
X174123500Y-89111100D01*
X179594100Y-83760000D02*
X178342400Y-85011700D01*
X179675000Y-83760000D02*
X179594100Y-83760000D01*
X175865000Y-85787900D02*
X175865000Y-87369600D01*
%TO.N,Net-(J5-Pin_32)*%
X147175600Y-101523700D02*
X150039600Y-104387700D01*
X147175600Y-101523700D02*
X146916000Y-101523700D01*
X244710600Y-111001700D02*
X262626600Y-111001700D01*
X238096600Y-104387700D02*
X244710600Y-111001700D01*
X262626600Y-111001700D02*
X263198300Y-110430000D01*
X150039600Y-104387700D02*
X238096600Y-104387700D01*
X264350000Y-110430000D02*
X263198300Y-110430000D01*
%TO.N,Net-(J5-Pin_24)*%
X109296100Y-91781900D02*
X109270500Y-91781900D01*
X158932000Y-91781900D02*
X160168300Y-90545600D01*
X109270500Y-91781900D02*
X109296100Y-91781900D01*
X109296200Y-91781900D02*
X109270500Y-91781900D01*
X160168300Y-90545600D02*
X159869500Y-90844400D01*
X159869500Y-90844400D02*
X160168300Y-90545600D01*
X109296200Y-91781900D02*
X158932000Y-91781900D01*
%TO.N,Net-(J5-Pin_5)*%
X176131100Y-89843900D02*
X138290400Y-89843900D01*
X138176900Y-89957400D02*
X138176900Y-89843900D01*
X179675000Y-86300000D02*
X176131100Y-89843900D01*
X138290400Y-89843900D02*
X138176900Y-89957400D01*
X138176900Y-89843900D02*
X138176900Y-89957400D01*
%TO.N,Net-(J5-Pin_38)*%
X174973000Y-190701400D02*
X174932700Y-190661100D01*
X174932700Y-190661100D02*
X168249200Y-190661100D01*
X168249200Y-190661100D02*
X166241100Y-192669200D01*
X166241100Y-192669200D02*
X142122200Y-192669200D01*
X142122200Y-192669200D02*
X141300000Y-193491400D01*
X178514900Y-187159500D02*
X175222100Y-190452300D01*
X175222100Y-190452300D02*
X174973000Y-190701400D01*
X281050800Y-191988300D02*
X276222000Y-187159500D01*
X321981600Y-191988300D02*
X281050800Y-191988300D01*
X325698300Y-195705000D02*
X321981600Y-191988300D01*
X175222100Y-190452300D02*
X174973000Y-190701400D01*
X326850000Y-195705000D02*
X325698300Y-195705000D01*
X276222000Y-187159500D02*
X178514900Y-187159500D01*
%TO.N,Net-(J5-Pin_19)*%
X186844500Y-82208300D02*
X186242800Y-81606600D01*
X176312500Y-81959200D02*
X176064900Y-82206800D01*
X176064900Y-82206800D02*
X166739000Y-82206800D01*
X186242800Y-81606600D02*
X176665100Y-81606600D01*
X337753500Y-82208300D02*
X342235400Y-82208300D01*
X165705100Y-84326000D02*
X165001100Y-85030000D01*
X176312500Y-81959200D02*
X176064900Y-82206800D01*
X342235400Y-82208300D02*
X337753500Y-82208300D01*
X165705100Y-83240700D02*
X165705100Y-84326000D01*
X337753500Y-82208300D02*
X186844500Y-82208300D01*
X163165000Y-85030000D02*
X161895000Y-86300000D01*
X165001100Y-85030000D02*
X163165000Y-85030000D01*
X176665100Y-81606600D02*
X176312500Y-81959200D01*
X166739000Y-82206800D02*
X165705100Y-83240700D01*
%TO.N,Net-(J5-Pin_30)*%
X200450000Y-160650000D02*
X148327100Y-160650000D01*
X148327100Y-160650000D02*
X148119400Y-160857700D01*
%TO.N,Net-(J5-Pin_18)*%
X165039700Y-81004900D02*
X164332300Y-81712300D01*
X270561800Y-81177700D02*
X270389000Y-81004900D01*
X270389000Y-81004900D02*
X165039700Y-81004900D01*
%TO.N,Net-(J5-Pin_37)*%
X142539100Y-134157400D02*
X321330600Y-134157400D01*
X139596200Y-131214500D02*
X142539100Y-134157400D01*
%TO.N,Net-(J5-Pin_20)*%
X175239000Y-121417600D02*
X282132700Y-121417600D01*
X175238900Y-121417700D02*
X175239000Y-121417600D01*
X346675000Y-127155000D02*
X345523300Y-127155000D01*
X299838600Y-120684600D02*
X320315300Y-120684600D01*
X161895000Y-83760000D02*
X160643300Y-85011700D01*
X286056100Y-117494200D02*
X296648200Y-117494200D01*
X320315300Y-120684600D02*
X327357400Y-127726700D01*
X327357400Y-127726700D02*
X344951600Y-127726700D01*
X344951600Y-127726700D02*
X345523300Y-127155000D01*
X162217500Y-88409400D02*
X173832900Y-88409400D01*
X160643300Y-86835200D02*
X162217500Y-88409400D01*
X282132700Y-121417600D02*
X286056100Y-117494200D01*
X175239000Y-121417600D02*
X175238900Y-121417700D01*
X296648200Y-117494200D02*
X299838600Y-120684600D01*
X160643300Y-85011700D02*
X160643300Y-86835200D01*
%TO.N,Net-(J5-Pin_22)*%
X130563200Y-83626300D02*
X115366200Y-83626300D01*
X131966900Y-85030000D02*
X130563200Y-83626300D01*
X159355000Y-83760000D02*
X158085000Y-85030000D01*
X158085000Y-85030000D02*
X131966900Y-85030000D01*
X115366200Y-83626300D02*
X115269000Y-83723500D01*
%TO.N,Net-(J5-Pin_28)*%
X151422900Y-156150000D02*
X151105800Y-155832900D01*
X216150000Y-156150000D02*
X151422900Y-156150000D01*
%TO.N,Net-(J5-Pin_3)*%
X182215000Y-86300000D02*
X175891400Y-92623600D01*
X175891400Y-92623600D02*
X106677100Y-92623600D01*
%TO.N,Net-(J5-Pin_23)*%
X155066200Y-88048800D02*
X114560100Y-88048800D01*
X114560100Y-88048800D02*
X114422400Y-87911100D01*
X156815000Y-86300000D02*
X155066200Y-88048800D01*
%TO.N,Net-(J5-Pin_31)*%
X259256200Y-101407900D02*
X263198300Y-105350000D01*
X239056200Y-101407900D02*
X259256200Y-101407900D01*
X264350000Y-105350000D02*
X263198300Y-105350000D01*
X148661200Y-96699400D02*
X234347700Y-96699400D01*
X147238000Y-95276200D02*
X148661200Y-96699400D01*
X234347700Y-96699400D02*
X239056200Y-101407900D01*
%TO.N,Net-(J5-Pin_33)*%
X225851500Y-97510900D02*
X146815900Y-97510900D01*
X246647500Y-109850000D02*
X234910100Y-98112600D01*
X247498300Y-109850000D02*
X246647500Y-109850000D01*
X226453200Y-98112600D02*
X225851500Y-97510900D01*
X234910100Y-98112600D02*
X226453200Y-98112600D01*
X248650000Y-109850000D02*
X247498300Y-109850000D01*
X146815900Y-97510900D02*
X146725400Y-97601400D01*
%TO.N,Net-(J5-Pin_14)*%
X176224000Y-191751700D02*
X241545000Y-191751700D01*
X241545000Y-191751700D02*
X245448300Y-195655000D01*
X246600000Y-195655000D02*
X245448300Y-195655000D01*
%TO.N,Net-(J5-Pin_34)*%
X272028400Y-80403200D02*
X161949400Y-80403200D01*
X160781100Y-81571500D02*
X146303500Y-81571500D01*
X161949400Y-80403200D02*
X160781100Y-81571500D01*
X309385000Y-80696600D02*
X308596100Y-81485500D01*
X146303500Y-81571500D02*
X144115000Y-83760000D01*
X308596100Y-81485500D02*
X273110700Y-81485500D01*
X273110700Y-81485500D02*
X272028400Y-80403200D01*
%TO.N,Net-(J5-Pin_8)*%
X216175000Y-129280000D02*
X215023300Y-129280000D01*
X197832200Y-131738500D02*
X192912100Y-131738500D01*
X215023300Y-129280000D02*
X214333300Y-129970000D01*
X199600700Y-129970000D02*
X197832200Y-131738500D01*
X192912100Y-131738500D02*
X192829300Y-131655700D01*
X214333300Y-129970000D02*
X199600700Y-129970000D01*
%TO.N,Net-(J5-Pin_39)*%
X139020600Y-155058200D02*
X138886700Y-154924300D01*
X162091900Y-154924300D02*
X161958000Y-155058200D01*
X306398600Y-154924300D02*
X162091900Y-154924300D01*
X161958000Y-155058200D02*
X139020600Y-155058200D01*
%TO.N,Net-(J5-Pin_13)*%
X246600000Y-190575000D02*
X245448300Y-190575000D01*
X184200600Y-189348300D02*
X183906500Y-189642400D01*
X244221600Y-189348300D02*
X184200600Y-189348300D01*
X245448300Y-190575000D02*
X244221600Y-189348300D01*
%TO.N,Net-(J5-Pin_35)*%
X292870000Y-130076700D02*
X289896200Y-133050500D01*
X312675000Y-129505000D02*
X311523300Y-129505000D01*
X289896200Y-133050500D02*
X151307600Y-133050500D01*
X310951600Y-130076700D02*
X292870000Y-130076700D01*
X151307600Y-133050500D02*
X146916000Y-128658900D01*
X311523300Y-129505000D02*
X310951600Y-130076700D01*
%TO.N,Net-(J5-Pin_9)*%
X175685600Y-109871700D02*
X177079400Y-111265500D01*
X175685600Y-109871700D02*
X177079400Y-111265500D01*
X177079400Y-111265500D02*
X175685600Y-109871700D01*
X177079400Y-111265500D02*
X202844600Y-111265500D01*
%TO.N,Net-(J5-Pin_17)*%
X175846700Y-83275800D02*
X175846700Y-84301600D01*
X188215500Y-84730000D02*
X185693800Y-82208300D01*
X185693800Y-82208300D02*
X176914200Y-82208300D01*
X166247500Y-85030000D02*
X164977500Y-86300000D01*
X176914200Y-82208300D02*
X175846700Y-83275800D01*
X290120200Y-84730000D02*
X188215500Y-84730000D01*
X175118300Y-85030000D02*
X166247500Y-85030000D01*
X290120200Y-84730000D02*
X291466600Y-83383600D01*
X164977500Y-86300000D02*
X164435000Y-86300000D01*
X291466600Y-83383600D02*
X290120200Y-84730000D01*
X175846700Y-84301600D02*
X175118300Y-85030000D01*
X291466600Y-83383600D02*
X290120200Y-84730000D01*
%TO.N,Net-(J5-Pin_25)*%
X184948300Y-190500000D02*
X184534900Y-190913400D01*
X175912000Y-190913400D02*
X175462600Y-191362800D01*
X184534900Y-190913400D02*
X175912000Y-190913400D01*
X186100000Y-190500000D02*
X184948300Y-190500000D01*
X175462600Y-191362800D02*
X168539700Y-191362800D01*
%TD*%
M02*
