%TF.GenerationSoftware,KiCad,Pcbnew,9.0.3*%
%TF.CreationDate,2025-08-09T09:55:37+02:00*%
%TF.ProjectId,hyd-fuel,6879642d-6675-4656-9c2e-6b696361645f,rev?*%
%TF.SameCoordinates,Original*%
%TF.FileFunction,Soldermask,Bot*%
%TF.FilePolarity,Negative*%
%FSLAX46Y46*%
G04 Gerber Fmt 4.6, Leading zero omitted, Abs format (unit mm)*
G04 Created by KiCad (PCBNEW 9.0.3) date 2025-08-09 09:55:37*
%MOMM*%
%LPD*%
G01*
G04 APERTURE LIST*
%ADD10R,1.500000X1.500000*%
%ADD11R,1.700000X1.700000*%
%ADD12C,1.700000*%
%ADD13R,3.000000X3.000000*%
%ADD14C,3.000000*%
G04 APERTURE END LIST*
D10*
%TO.C,KR3*%
X132350000Y-190475000D03*
X132350000Y-193015000D03*
X132350000Y-195555000D03*
X132350000Y-198095000D03*
X116650000Y-194975000D03*
X116650000Y-197515000D03*
%TD*%
%TO.C,KR11*%
X297200000Y-190600000D03*
X297200000Y-193140000D03*
X297200000Y-195680000D03*
X297200000Y-198220000D03*
X281500000Y-195100000D03*
X281500000Y-197640000D03*
%TD*%
%TO.C,KR9*%
X246600000Y-190575000D03*
X246600000Y-193115000D03*
X246600000Y-195655000D03*
X246600000Y-198195000D03*
X230900000Y-195075000D03*
X230900000Y-197615000D03*
%TD*%
%TO.C,KR7*%
X216150000Y-190600000D03*
X216150000Y-193140000D03*
X216150000Y-195680000D03*
X216150000Y-198220000D03*
X200450000Y-195100000D03*
X200450000Y-197640000D03*
%TD*%
%TO.C,KR14*%
X166975000Y-119275000D03*
X166975000Y-121815000D03*
X166975000Y-124355000D03*
X166975000Y-126895000D03*
X151275000Y-123775000D03*
X151275000Y-126315000D03*
%TD*%
%TO.C,KR10*%
X312675000Y-124425000D03*
X312675000Y-126965000D03*
X312675000Y-129505000D03*
X312675000Y-132045000D03*
X296975000Y-128925000D03*
X296975000Y-131465000D03*
%TD*%
%TO.C,KR1*%
X117300000Y-124475000D03*
X117300000Y-127015000D03*
X117300000Y-129555000D03*
X117300000Y-132095000D03*
X101600000Y-128975000D03*
X101600000Y-131515000D03*
%TD*%
%TO.C,KR8*%
X264350000Y-105350000D03*
X264350000Y-107890000D03*
X264350000Y-110430000D03*
X264350000Y-112970000D03*
X248650000Y-109850000D03*
X248650000Y-112390000D03*
%TD*%
%TO.C,KR2*%
X102825000Y-190550000D03*
X102825000Y-193090000D03*
X102825000Y-195630000D03*
X102825000Y-198170000D03*
X87125000Y-195050000D03*
X87125000Y-197590000D03*
%TD*%
%TO.C,KR4*%
X186100000Y-190500000D03*
X186100000Y-193040000D03*
X186100000Y-195580000D03*
X186100000Y-198120000D03*
X170400000Y-195000000D03*
X170400000Y-197540000D03*
%TD*%
%TO.C,KR12*%
X326850000Y-190625000D03*
X326850000Y-193165000D03*
X326850000Y-195705000D03*
X326850000Y-198245000D03*
X311150000Y-195125000D03*
X311150000Y-197665000D03*
%TD*%
%TO.C,KR5*%
X216175000Y-124200000D03*
X216175000Y-126740000D03*
X216175000Y-129280000D03*
X216175000Y-131820000D03*
X200475000Y-128700000D03*
X200475000Y-131240000D03*
%TD*%
%TO.C,KR6*%
X216150000Y-156150000D03*
X216150000Y-158690000D03*
X216150000Y-161230000D03*
X216150000Y-163770000D03*
X200450000Y-160650000D03*
X200450000Y-163190000D03*
%TD*%
%TO.C,KR13*%
X346675000Y-122075000D03*
X346675000Y-124615000D03*
X346675000Y-127155000D03*
X346675000Y-129695000D03*
X330975000Y-126575000D03*
X330975000Y-129115000D03*
%TD*%
D11*
%TO.C,J5*%
X184755000Y-86300000D03*
D12*
X184755000Y-83760000D03*
X182215000Y-86300000D03*
X182215000Y-83760000D03*
X179675000Y-86300000D03*
X179675000Y-83760000D03*
X177135000Y-86300000D03*
X177135000Y-83760000D03*
X174595000Y-86300000D03*
X174595000Y-83760000D03*
X172055000Y-86300000D03*
X172055000Y-83760000D03*
X169515000Y-86300000D03*
X169515000Y-83760000D03*
X166975000Y-86300000D03*
X166975000Y-83760000D03*
X164435000Y-86300000D03*
X164435000Y-83760000D03*
X161895000Y-86300000D03*
X161895000Y-83760000D03*
X159355000Y-86300000D03*
X159355000Y-83760000D03*
X156815000Y-86300000D03*
X156815000Y-83760000D03*
X154275000Y-86300000D03*
X154275000Y-83760000D03*
X151735000Y-86300000D03*
X151735000Y-83760000D03*
X149195000Y-86300000D03*
X149195000Y-83760000D03*
X146655000Y-86300000D03*
X146655000Y-83760000D03*
X144115000Y-86300000D03*
X144115000Y-83760000D03*
X141575000Y-86300000D03*
X141575000Y-83760000D03*
X139035000Y-86300000D03*
X139035000Y-83760000D03*
X136495000Y-86300000D03*
X136495000Y-83760000D03*
%TD*%
D13*
%TO.C,J4*%
X72040000Y-208650000D03*
D14*
X66960000Y-208650000D03*
%TD*%
D13*
%TO.C,J3*%
X64835000Y-83425000D03*
D14*
X69915000Y-83425000D03*
%TD*%
D11*
%TO.C,J1*%
X281080000Y-86000000D03*
D12*
X281080000Y-83460000D03*
X278540000Y-86000000D03*
X278540000Y-83460000D03*
X276000000Y-86000000D03*
X276000000Y-83460000D03*
X273460000Y-86000000D03*
X273460000Y-83460000D03*
X270920000Y-86000000D03*
X270920000Y-83460000D03*
X268380000Y-86000000D03*
X268380000Y-83460000D03*
X265840000Y-86000000D03*
X265840000Y-83460000D03*
X263300000Y-86000000D03*
X263300000Y-83460000D03*
X260760000Y-86000000D03*
X260760000Y-83460000D03*
X258220000Y-86000000D03*
X258220000Y-83460000D03*
X255680000Y-86000000D03*
X255680000Y-83460000D03*
X253140000Y-86000000D03*
X253140000Y-83460000D03*
X250600000Y-86000000D03*
X250600000Y-83460000D03*
X248060000Y-86000000D03*
X248060000Y-83460000D03*
X245520000Y-86000000D03*
X245520000Y-83460000D03*
X242980000Y-86000000D03*
X242980000Y-83460000D03*
X240440000Y-86000000D03*
X240440000Y-83460000D03*
X237900000Y-86000000D03*
X237900000Y-83460000D03*
X235360000Y-86000000D03*
X235360000Y-83460000D03*
X232820000Y-86000000D03*
X232820000Y-83460000D03*
%TD*%
M02*
