%TF.GenerationSoftware,KiCad,Pcbnew,9.0.2*%
%TF.CreationDate,2025-07-13T15:23:56+02:00*%
%TF.ProjectId,elec,656c6563-2e6b-4696-9361-645f70636258,rev?*%
%TF.SameCoordinates,Original*%
%TF.FileFunction,Copper,L1,Top*%
%TF.FilePolarity,Positive*%
%FSLAX46Y46*%
G04 Gerber Fmt 4.6, Leading zero omitted, Abs format (unit mm)*
G04 Created by KiCad (PCBNEW 9.0.2) date 2025-07-13 15:23:56*
%MOMM*%
%LPD*%
G01*
G04 APERTURE LIST*
G04 Aperture macros list*
%AMRoundRect*
0 Rectangle with rounded corners*
0 $1 Rounding radius*
0 $2 $3 $4 $5 $6 $7 $8 $9 X,Y pos of 4 corners*
0 Add a 4 corners polygon primitive as box body*
4,1,4,$2,$3,$4,$5,$6,$7,$8,$9,$2,$3,0*
0 Add four circle primitives for the rounded corners*
1,1,$1+$1,$2,$3*
1,1,$1+$1,$4,$5*
1,1,$1+$1,$6,$7*
1,1,$1+$1,$8,$9*
0 Add four rect primitives between the rounded corners*
20,1,$1+$1,$2,$3,$4,$5,0*
20,1,$1+$1,$4,$5,$6,$7,0*
20,1,$1+$1,$6,$7,$8,$9,0*
20,1,$1+$1,$8,$9,$2,$3,0*%
G04 Aperture macros list end*
%TA.AperFunction,SMDPad,CuDef*%
%ADD10RoundRect,0.250000X-0.400000X-0.625000X0.400000X-0.625000X0.400000X0.625000X-0.400000X0.625000X0*%
%TD*%
%TA.AperFunction,SMDPad,CuDef*%
%ADD11RoundRect,0.165000X0.885000X-0.385000X0.885000X0.385000X-0.885000X0.385000X-0.885000X-0.385000X0*%
%TD*%
%TA.AperFunction,SMDPad,CuDef*%
%ADD12RoundRect,0.315000X0.735000X-0.735000X0.735000X0.735000X-0.735000X0.735000X-0.735000X-0.735000X0*%
%TD*%
%TA.AperFunction,ComponentPad*%
%ADD13R,1.500000X1.500000*%
%TD*%
%TA.AperFunction,SMDPad,CuDef*%
%ADD14RoundRect,0.165000X-0.385000X-0.885000X0.385000X-0.885000X0.385000X0.885000X-0.385000X0.885000X0*%
%TD*%
%TA.AperFunction,SMDPad,CuDef*%
%ADD15RoundRect,0.315000X-0.735000X-0.735000X0.735000X-0.735000X0.735000X0.735000X-0.735000X0.735000X0*%
%TD*%
%TA.AperFunction,ComponentPad*%
%ADD16R,1.501140X1.930400*%
%TD*%
%TA.AperFunction,ComponentPad*%
%ADD17O,1.501140X1.930400*%
%TD*%
%TA.AperFunction,ComponentPad*%
%ADD18O,1.168400X1.168400*%
%TD*%
%TA.AperFunction,SMDPad,CuDef*%
%ADD19RoundRect,0.165000X-0.885000X0.385000X-0.885000X-0.385000X0.885000X-0.385000X0.885000X0.385000X0*%
%TD*%
%TA.AperFunction,SMDPad,CuDef*%
%ADD20RoundRect,0.315000X-0.735000X0.735000X-0.735000X-0.735000X0.735000X-0.735000X0.735000X0.735000X0*%
%TD*%
%TA.AperFunction,ComponentPad*%
%ADD21R,3.000000X3.000000*%
%TD*%
%TA.AperFunction,ComponentPad*%
%ADD22C,3.000000*%
%TD*%
%TA.AperFunction,ComponentPad*%
%ADD23R,1.700000X1.700000*%
%TD*%
%TA.AperFunction,ComponentPad*%
%ADD24C,1.700000*%
%TD*%
%TA.AperFunction,ComponentPad*%
%ADD25C,1.600000*%
%TD*%
%TA.AperFunction,ComponentPad*%
%ADD26RoundRect,0.250000X0.550000X0.550000X-0.550000X0.550000X-0.550000X-0.550000X0.550000X-0.550000X0*%
%TD*%
%TA.AperFunction,ViaPad*%
%ADD27C,0.600000*%
%TD*%
%TA.AperFunction,Conductor*%
%ADD28C,0.400000*%
%TD*%
%TA.AperFunction,Conductor*%
%ADD29C,0.600000*%
%TD*%
G04 APERTURE END LIST*
D10*
%TO.P,R29,1*%
%TO.N,Net-(D81-K)*%
X354075000Y-157550000D03*
%TO.P,R29,2*%
%TO.N,GND*%
X357175000Y-157550000D03*
%TD*%
D11*
%TO.P,D45,1,K*%
%TO.N,Net-(D45-K)*%
X170125000Y-120240000D03*
D12*
%TO.P,D45,2,A*%
%TO.N,+12V*%
X170125000Y-118090000D03*
%TD*%
D13*
%TO.P,KR8,1,+5V_TOP_LED*%
%TO.N,Net-(J2-Pin_24)*%
X286000000Y-125650000D03*
%TO.P,KR8,2,GND_TOP_LED*%
%TO.N,GND*%
X286000000Y-128190000D03*
%TO.P,KR8,3,+5V_BOTTOM_LED*%
%TO.N,Net-(J2-Pin_26)*%
X286000000Y-130730000D03*
%TO.P,KR8,4,GND_BOTTOM_LED*%
%TO.N,GND*%
X286000000Y-133270000D03*
%TO.P,KR8,5,SW_IN*%
%TO.N,Net-(J2-Pin_27)*%
X270300000Y-130150000D03*
%TO.P,KR8,6,SW_OUT*%
%TO.N,GND*%
X270300000Y-132690000D03*
%TD*%
D11*
%TO.P,D58,1,K*%
%TO.N,Net-(D58-K)*%
X256250000Y-119225000D03*
D12*
%TO.P,D58,2,A*%
%TO.N,+12V*%
X256250000Y-117075000D03*
%TD*%
D10*
%TO.P,R15,1*%
%TO.N,Net-(D41-K)*%
X183150000Y-160500000D03*
%TO.P,R15,2*%
%TO.N,GND*%
X186250000Y-160500000D03*
%TD*%
D13*
%TO.P,KR3,1,+5V_TOP_LED*%
%TO.N,Net-(J2-Pin_4)*%
X89150000Y-174100000D03*
%TO.P,KR3,2,GND_TOP_LED*%
%TO.N,GND*%
X89150000Y-176640000D03*
%TO.P,KR3,3,+5V_BOTTOM_LED*%
%TO.N,Net-(J2-Pin_5)*%
X89150000Y-179180000D03*
%TO.P,KR3,4,GND_BOTTOM_LED*%
%TO.N,GND*%
X89150000Y-181720000D03*
%TO.P,KR3,5,SW_IN*%
%TO.N,Net-(J2-Pin_6)*%
X73450000Y-178600000D03*
%TO.P,KR3,6,SW_OUT*%
%TO.N,GND*%
X73450000Y-181140000D03*
%TD*%
D14*
%TO.P,D16,1,K*%
%TO.N,Net-(D16-K)*%
X95535000Y-157750000D03*
D15*
%TO.P,D16,2,A*%
%TO.N,Net-(D15-K)*%
X97685000Y-157750000D03*
%TD*%
D14*
%TO.P,D56,1,K*%
%TO.N,Net-(D56-K)*%
X251485000Y-195150000D03*
D15*
%TO.P,D56,2,A*%
%TO.N,Net-(D55-K)*%
X253635000Y-195150000D03*
%TD*%
D10*
%TO.P,R14,1*%
%TO.N,Net-(D38-K)*%
X185875000Y-176025000D03*
%TO.P,R14,2*%
%TO.N,GND*%
X188975000Y-176025000D03*
%TD*%
D13*
%TO.P,KR11,1,+5V_TOP_LED*%
%TO.N,Net-(J2-Pin_31)*%
X192050000Y-112650000D03*
%TO.P,KR11,2,GND_TOP_LED*%
%TO.N,GND*%
X192050000Y-115190000D03*
%TO.P,KR11,3,+5V_BOTTOM_LED*%
%TO.N,Net-(J2-Pin_32)*%
X192050000Y-117730000D03*
%TO.P,KR11,4,GND_BOTTOM_LED*%
%TO.N,GND*%
X192050000Y-120270000D03*
%TO.P,KR11,5,SW_IN*%
%TO.N,Net-(J2-Pin_33)*%
X176350000Y-117150000D03*
%TO.P,KR11,6,SW_OUT*%
%TO.N,GND*%
X176350000Y-119690000D03*
%TD*%
%TO.P,KR7,1,+5V_TOP_LED*%
%TO.N,Net-(J2-Pin_10)*%
X260050000Y-174500000D03*
%TO.P,KR7,2,GND_TOP_LED*%
%TO.N,GND*%
X260050000Y-177040000D03*
%TO.P,KR7,3,+5V_BOTTOM_LED*%
%TO.N,Net-(J2-Pin_11)*%
X260050000Y-179580000D03*
%TO.P,KR7,4,GND_BOTTOM_LED*%
%TO.N,GND*%
X260050000Y-182120000D03*
%TO.P,KR7,5,SW_IN*%
%TO.N,Net-(J2-Pin_12)*%
X244350000Y-179000000D03*
%TO.P,KR7,6,SW_OUT*%
%TO.N,GND*%
X244350000Y-181540000D03*
%TD*%
D14*
%TO.P,D57,1,K*%
%TO.N,Net-(D57-K)*%
X251175000Y-153450000D03*
D15*
%TO.P,D57,2,A*%
%TO.N,Net-(D56-K)*%
X253325000Y-153450000D03*
%TD*%
D10*
%TO.P,R9,1*%
%TO.N,Net-(D25-K)*%
X127050000Y-189200000D03*
%TO.P,R9,2*%
%TO.N,GND*%
X130150000Y-189200000D03*
%TD*%
%TO.P,R5,1*%
%TO.N,Net-(D13-K)*%
X95600000Y-194425000D03*
%TO.P,R5,2*%
%TO.N,GND*%
X98700000Y-194425000D03*
%TD*%
D14*
%TO.P,D28,1,K*%
%TO.N,Net-(D28-K)*%
X140360000Y-132850000D03*
D15*
%TO.P,D28,2,A*%
%TO.N,Net-(D27-K)*%
X142510000Y-132850000D03*
%TD*%
D14*
%TO.P,D27,1,K*%
%TO.N,Net-(D27-K)*%
X140610000Y-159925000D03*
D15*
%TO.P,D27,2,A*%
%TO.N,Net-(D26-K)*%
X142760000Y-159925000D03*
%TD*%
D14*
%TO.P,D53,1,K*%
%TO.N,Net-(D53-K)*%
X228400000Y-153850000D03*
D15*
%TO.P,D53,2,A*%
%TO.N,Net-(D52-K)*%
X230550000Y-153850000D03*
%TD*%
D14*
%TO.P,D55,1,K*%
%TO.N,Net-(D55-K)*%
X235050000Y-184275000D03*
D15*
%TO.P,D55,2,A*%
%TO.N,+12V*%
X237200000Y-184275000D03*
%TD*%
D14*
%TO.P,D82,1,K*%
%TO.N,Net-(D82-K)*%
X360575000Y-135025000D03*
D15*
%TO.P,D82,2,A*%
%TO.N,+12V*%
X362725000Y-135025000D03*
%TD*%
D10*
%TO.P,R13,1*%
%TO.N,Net-(D35-K)*%
X170475000Y-194675000D03*
%TO.P,R13,2*%
%TO.N,GND*%
X173575000Y-194675000D03*
%TD*%
%TO.P,R23,1*%
%TO.N,Net-(D63-K)*%
X239350000Y-153450000D03*
%TO.P,R23,2*%
%TO.N,GND*%
X242450000Y-153450000D03*
%TD*%
D14*
%TO.P,D67,1,K*%
%TO.N,Net-(D67-K)*%
X301050000Y-153675000D03*
D15*
%TO.P,D67,2,A*%
%TO.N,+12V*%
X303200000Y-153675000D03*
%TD*%
D14*
%TO.P,D32,1,K*%
%TO.N,Net-(D32-K)*%
X165575000Y-154200000D03*
D15*
%TO.P,D32,2,A*%
%TO.N,+12V*%
X167725000Y-154200000D03*
%TD*%
D14*
%TO.P,D50,1,K*%
%TO.N,Net-(D50-K)*%
X199660000Y-142125000D03*
D15*
%TO.P,D50,2,A*%
%TO.N,Net-(D49-K)*%
X201810000Y-142125000D03*
%TD*%
D14*
%TO.P,D24,1,K*%
%TO.N,Net-(D24-K)*%
X125660000Y-166200000D03*
D15*
%TO.P,D24,2,A*%
%TO.N,Net-(D23-K)*%
X127810000Y-166200000D03*
%TD*%
D14*
%TO.P,D13,1,K*%
%TO.N,Net-(D13-K)*%
X95810000Y-187875000D03*
D15*
%TO.P,D13,2,A*%
%TO.N,Net-(D12-K)*%
X97960000Y-187875000D03*
%TD*%
D10*
%TO.P,R20,1*%
%TO.N,Net-(D54-K)*%
X234900000Y-192725000D03*
%TO.P,R20,2*%
%TO.N,GND*%
X238000000Y-192725000D03*
%TD*%
D13*
%TO.P,KR1,1,+5V_TOP_LED*%
%TO.N,Net-(J2-Pin_1)*%
X89400000Y-110600000D03*
%TO.P,KR1,2,GND_TOP_LED*%
%TO.N,GND*%
X89400000Y-113140000D03*
%TO.P,KR1,3,+5V_BOTTOM_LED*%
%TO.N,Net-(J2-Pin_2)*%
X89400000Y-115680000D03*
%TO.P,KR1,4,GND_BOTTOM_LED*%
%TO.N,GND*%
X89400000Y-118220000D03*
%TO.P,KR1,5,SW_IN*%
%TO.N,Net-(J2-Pin_3)*%
X73700000Y-115100000D03*
%TO.P,KR1,6,SW_OUT*%
%TO.N,GND*%
X73700000Y-117640000D03*
%TD*%
D10*
%TO.P,R27,1*%
%TO.N,Net-(D75-K)*%
X326150000Y-160850000D03*
%TO.P,R27,2*%
%TO.N,GND*%
X329250000Y-160850000D03*
%TD*%
D14*
%TO.P,D49,1,K*%
%TO.N,Net-(D49-K)*%
X243450000Y-106700000D03*
D15*
%TO.P,D49,2,A*%
%TO.N,+12V*%
X245600000Y-106700000D03*
%TD*%
D14*
%TO.P,D47,1,K*%
%TO.N,Net-(D47-K)*%
X212150000Y-103600000D03*
D15*
%TO.P,D47,2,A*%
%TO.N,Net-(D46-K)*%
X214300000Y-103600000D03*
%TD*%
D14*
%TO.P,D21,1,K*%
%TO.N,Net-(D21-K)*%
X106460000Y-128425000D03*
D15*
%TO.P,D21,2,A*%
%TO.N,Net-(D20-K)*%
X108610000Y-128425000D03*
%TD*%
D14*
%TO.P,D36,1,K*%
%TO.N,Net-(D36-K)*%
X181560000Y-194500000D03*
D15*
%TO.P,D36,2,A*%
%TO.N,+12V*%
X183710000Y-194500000D03*
%TD*%
D14*
%TO.P,D76,1,K*%
%TO.N,Net-(D76-K)*%
X321625000Y-193200000D03*
D15*
%TO.P,D76,2,A*%
%TO.N,+12V*%
X323775000Y-193200000D03*
%TD*%
D10*
%TO.P,R12,1*%
%TO.N,Net-(D34-K)*%
X153125000Y-188425000D03*
%TO.P,R12,2*%
%TO.N,GND*%
X156225000Y-188425000D03*
%TD*%
%TO.P,R4,1*%
%TO.N,Net-(D10-K)*%
X70825000Y-162200000D03*
%TO.P,R4,2*%
%TO.N,GND*%
X73925000Y-162200000D03*
%TD*%
D14*
%TO.P,D78,1,K*%
%TO.N,Net-(D78-K)*%
X353250000Y-169775000D03*
D15*
%TO.P,D78,2,A*%
%TO.N,Net-(D77-K)*%
X355400000Y-169775000D03*
%TD*%
D10*
%TO.P,R30,1*%
%TO.N,Net-(D84-K)*%
X333125000Y-140775000D03*
%TO.P,R30,2*%
%TO.N,GND*%
X336225000Y-140775000D03*
%TD*%
%TO.P,R16,1*%
%TO.N,Net-(D44-K)*%
X153775000Y-139375000D03*
%TO.P,R16,2*%
%TO.N,GND*%
X156875000Y-139375000D03*
%TD*%
D14*
%TO.P,D17,1,K*%
%TO.N,Net-(D17-K)*%
X94735000Y-135675000D03*
D15*
%TO.P,D17,2,A*%
%TO.N,+12V*%
X96885000Y-135675000D03*
%TD*%
D14*
%TO.P,D20,1,K*%
%TO.N,Net-(D20-K)*%
X119585000Y-113400000D03*
D15*
%TO.P,D20,2,A*%
%TO.N,+12V*%
X121735000Y-113400000D03*
%TD*%
D14*
%TO.P,D46,1,K*%
%TO.N,Net-(D46-K)*%
X180925000Y-103800000D03*
D15*
%TO.P,D46,2,A*%
%TO.N,+12V*%
X183075000Y-103800000D03*
%TD*%
D13*
%TO.P,KR9,1,+5V_TOP_LED*%
%TO.N,Net-(J2-Pin_13)*%
X314750000Y-174450000D03*
%TO.P,KR9,2,GND_TOP_LED*%
%TO.N,GND*%
X314750000Y-176990000D03*
%TO.P,KR9,3,+5V_BOTTOM_LED*%
%TO.N,Net-(J2-Pin_14)*%
X314750000Y-179530000D03*
%TO.P,KR9,4,GND_BOTTOM_LED*%
%TO.N,GND*%
X314750000Y-182070000D03*
%TO.P,KR9,5,SW_IN*%
%TO.N,Net-(J2-Pin_15)*%
X299050000Y-178950000D03*
%TO.P,KR9,6,SW_OUT*%
%TO.N,GND*%
X299050000Y-181490000D03*
%TD*%
D10*
%TO.P,R7,1*%
%TO.N,Net-(D19-K)*%
X103425000Y-121250000D03*
%TO.P,R7,2*%
%TO.N,GND*%
X106525000Y-121250000D03*
%TD*%
D14*
%TO.P,D54,1,K*%
%TO.N,Net-(D54-K)*%
X225200000Y-176675000D03*
D15*
%TO.P,D54,2,A*%
%TO.N,Net-(D53-K)*%
X227350000Y-176675000D03*
%TD*%
D14*
%TO.P,D34,1,K*%
%TO.N,Net-(D34-K)*%
X153635000Y-180675000D03*
D15*
%TO.P,D34,2,A*%
%TO.N,Net-(D33-K)*%
X155785000Y-180675000D03*
%TD*%
D14*
%TO.P,D70,1,K*%
%TO.N,Net-(D70-K)*%
X276875000Y-112650000D03*
D15*
%TO.P,D70,2,A*%
%TO.N,+12V*%
X279025000Y-112650000D03*
%TD*%
D14*
%TO.P,D7,1,K*%
%TO.N,Net-(D7-K)*%
X65985000Y-131900000D03*
D15*
%TO.P,D7,2,A*%
%TO.N,Net-(D6-K)*%
X68135000Y-131900000D03*
%TD*%
D14*
%TO.P,D75,1,K*%
%TO.N,Net-(D75-K)*%
X321325000Y-168425000D03*
D15*
%TO.P,D75,2,A*%
%TO.N,Net-(D74-K)*%
X323475000Y-168425000D03*
%TD*%
D10*
%TO.P,R24,1*%
%TO.N,Net-(D66-K)*%
X288525000Y-176275000D03*
%TO.P,R24,2*%
%TO.N,GND*%
X291625000Y-176275000D03*
%TD*%
D14*
%TO.P,D19,1,K*%
%TO.N,Net-(D19-K)*%
X103085000Y-113300000D03*
D15*
%TO.P,D19,2,A*%
%TO.N,Net-(D18-K)*%
X105235000Y-113300000D03*
%TD*%
D14*
%TO.P,D66,1,K*%
%TO.N,Net-(D66-K)*%
X289400000Y-168575000D03*
D15*
%TO.P,D66,2,A*%
%TO.N,Net-(D65-K)*%
X291550000Y-168575000D03*
%TD*%
D14*
%TO.P,D68,1,K*%
%TO.N,Net-(D68-K)*%
X300600000Y-142775000D03*
D15*
%TO.P,D68,2,A*%
%TO.N,Net-(D67-K)*%
X302750000Y-142775000D03*
%TD*%
D14*
%TO.P,D41,1,K*%
%TO.N,Net-(D41-K)*%
X183475000Y-166650000D03*
D15*
%TO.P,D41,2,A*%
%TO.N,Net-(D40-K)*%
X185625000Y-166650000D03*
%TD*%
D14*
%TO.P,D33,1,K*%
%TO.N,Net-(D33-K)*%
X155435000Y-166350000D03*
D15*
%TO.P,D33,2,A*%
%TO.N,Net-(D32-K)*%
X157585000Y-166350000D03*
%TD*%
D14*
%TO.P,D59,1,K*%
%TO.N,Net-(D59-K)*%
X261350000Y-140700000D03*
D15*
%TO.P,D59,2,A*%
%TO.N,Net-(D58-K)*%
X263500000Y-140700000D03*
%TD*%
D14*
%TO.P,D25,1,K*%
%TO.N,Net-(D25-K)*%
X127025000Y-182225000D03*
D15*
%TO.P,D25,2,A*%
%TO.N,Net-(D24-K)*%
X129175000Y-182225000D03*
%TD*%
D13*
%TO.P,KR10,1,+5V_TOP_LED*%
%TO.N,Net-(J2-Pin_28)*%
X346000000Y-174250000D03*
%TO.P,KR10,2,GND_TOP_LED*%
%TO.N,GND*%
X346000000Y-176790000D03*
%TO.P,KR10,3,+5V_BOTTOM_LED*%
%TO.N,Net-(J2-Pin_29)*%
X346000000Y-179330000D03*
%TO.P,KR10,4,GND_BOTTOM_LED*%
%TO.N,GND*%
X346000000Y-181870000D03*
%TO.P,KR10,5,SW_IN*%
%TO.N,Net-(J2-Pin_30)*%
X330300000Y-178750000D03*
%TO.P,KR10,6,SW_OUT*%
%TO.N,GND*%
X330300000Y-181290000D03*
%TD*%
D14*
%TO.P,D71,1,K*%
%TO.N,Net-(D71-K)*%
X299250000Y-113400000D03*
D15*
%TO.P,D71,2,A*%
%TO.N,Net-(D70-K)*%
X301400000Y-113400000D03*
%TD*%
D14*
%TO.P,D73,1,K*%
%TO.N,Net-(D73-K)*%
X318950000Y-128600000D03*
D15*
%TO.P,D73,2,A*%
%TO.N,+12V*%
X321100000Y-128600000D03*
%TD*%
D14*
%TO.P,D63,1,K*%
%TO.N,Net-(D63-K)*%
X236750000Y-165600000D03*
D15*
%TO.P,D63,2,A*%
%TO.N,Net-(D62-K)*%
X238900000Y-165600000D03*
%TD*%
D14*
%TO.P,D5,1,K*%
%TO.N,Net-(D5-K)*%
X64085000Y-115975000D03*
D15*
%TO.P,D5,2,A*%
%TO.N,+12V*%
X66235000Y-115975000D03*
%TD*%
D14*
%TO.P,D84,1,K*%
%TO.N,Net-(D84-K)*%
X325225000Y-141075000D03*
D15*
%TO.P,D84,2,A*%
%TO.N,Net-(D83-K)*%
X327375000Y-141075000D03*
%TD*%
D14*
%TO.P,D9,1,K*%
%TO.N,Net-(D10-A)*%
X62710000Y-159550000D03*
D15*
%TO.P,D9,2,A*%
%TO.N,Net-(D8-K)*%
X64860000Y-159550000D03*
%TD*%
D16*
%TO.P,S1,1,e*%
%TO.N,/A_SegE*%
X140421400Y-124705000D03*
D17*
%TO.P,S1,2,d*%
%TO.N,/A_SegD*%
X142961400Y-124705000D03*
%TO.P,S1,3,dp*%
%TO.N,/A_SegDP*%
X145501400Y-124705000D03*
%TO.P,S1,4,c*%
%TO.N,/A_SegC*%
X148041400Y-124705000D03*
%TO.P,S1,5,g*%
%TO.N,/A_SegG*%
X150581400Y-124705000D03*
D18*
%TO.P,S1,6*%
%TO.N,N/C*%
X153121400Y-124705000D03*
D17*
%TO.P,S1,7,b*%
%TO.N,/A_SegB*%
X153121400Y-114545000D03*
%TO.P,S1,8,A1*%
%TO.N,/A0*%
X150581400Y-114545000D03*
%TO.P,S1,9,A2*%
%TO.N,/A1*%
X148041400Y-114545000D03*
%TO.P,S1,10,f*%
%TO.N,/A_SegF*%
X145501400Y-114545000D03*
%TO.P,S1,11,a*%
%TO.N,/A_SegA*%
X142961400Y-114545000D03*
%TO.P,S1,12,A3*%
%TO.N,/A2*%
X140423940Y-114545000D03*
%TD*%
D14*
%TO.P,D80,1,K*%
%TO.N,Net-(D80-K)*%
X364300000Y-179475000D03*
D15*
%TO.P,D80,2,A*%
%TO.N,Net-(D79-K)*%
X366450000Y-179475000D03*
%TD*%
D14*
%TO.P,D3,1,K*%
%TO.N,Net-(D3-K)*%
X79175000Y-98800000D03*
D15*
%TO.P,D3,2,A*%
%TO.N,Net-(D2-K)*%
X81325000Y-98800000D03*
%TD*%
D14*
%TO.P,D43,1,K*%
%TO.N,Net-(D43-K)*%
X192025000Y-154300000D03*
D15*
%TO.P,D43,2,A*%
%TO.N,Net-(D42-K)*%
X194175000Y-154300000D03*
%TD*%
D19*
%TO.P,D48,1,K*%
%TO.N,Net-(D48-K)*%
X225375000Y-118150000D03*
D20*
%TO.P,D48,2,A*%
%TO.N,Net-(D47-K)*%
X225375000Y-120300000D03*
%TD*%
D10*
%TO.P,R11,1*%
%TO.N,Net-(D31-K)*%
X142425000Y-106375000D03*
%TO.P,R11,2*%
%TO.N,GND*%
X145525000Y-106375000D03*
%TD*%
D14*
%TO.P,D64,1,K*%
%TO.N,Net-(D64-K)*%
X267625000Y-185600000D03*
D15*
%TO.P,D64,2,A*%
%TO.N,+12V*%
X269775000Y-185600000D03*
%TD*%
D14*
%TO.P,D8,1,K*%
%TO.N,Net-(D8-K)*%
X62350000Y-145225000D03*
D15*
%TO.P,D8,2,A*%
%TO.N,+12V*%
X64500000Y-145225000D03*
%TD*%
D14*
%TO.P,D23,1,K*%
%TO.N,Net-(D23-K)*%
X106960000Y-157650000D03*
D15*
%TO.P,D23,2,A*%
%TO.N,+12V*%
X109110000Y-157650000D03*
%TD*%
D10*
%TO.P,R21,1*%
%TO.N,Net-(D57-K)*%
X258900000Y-153200000D03*
%TO.P,R21,2*%
%TO.N,GND*%
X262000000Y-153200000D03*
%TD*%
D14*
%TO.P,D6,1,K*%
%TO.N,Net-(D6-K)*%
X57835000Y-125825000D03*
D15*
%TO.P,D6,2,A*%
%TO.N,Net-(D5-K)*%
X59985000Y-125825000D03*
%TD*%
D14*
%TO.P,D15,1,K*%
%TO.N,Net-(D15-K)*%
X87660000Y-162225000D03*
D15*
%TO.P,D15,2,A*%
%TO.N,Net-(D14-K)*%
X89810000Y-162225000D03*
%TD*%
D14*
%TO.P,D83,1,K*%
%TO.N,Net-(D83-K)*%
X365325000Y-119800000D03*
D15*
%TO.P,D83,2,A*%
%TO.N,Net-(D82-K)*%
X367475000Y-119800000D03*
%TD*%
D13*
%TO.P,KR5,1,+5V_TOP_LED*%
%TO.N,Net-(J2-Pin_7)*%
X178600000Y-174510000D03*
%TO.P,KR5,2,GND_TOP_LED*%
%TO.N,GND*%
X178600000Y-177050000D03*
%TO.P,KR5,3,+5V_BOTTOM_LED*%
%TO.N,Net-(J2-Pin_8)*%
X178600000Y-179590000D03*
%TO.P,KR5,4,GND_BOTTOM_LED*%
%TO.N,GND*%
X178600000Y-182130000D03*
%TO.P,KR5,5,SW_IN*%
%TO.N,Net-(J2-Pin_9)*%
X162900000Y-179010000D03*
%TO.P,KR5,6,SW_OUT*%
%TO.N,GND*%
X162900000Y-181550000D03*
%TD*%
D14*
%TO.P,D62,1,K*%
%TO.N,Net-(D62-K)*%
X267625000Y-171725000D03*
D15*
%TO.P,D62,2,A*%
%TO.N,Net-(D61-K)*%
X269775000Y-171725000D03*
%TD*%
D14*
%TO.P,D40,1,K*%
%TO.N,Net-(D40-K)*%
X195350000Y-176375000D03*
D15*
%TO.P,D40,2,A*%
%TO.N,Net-(D39-K)*%
X197500000Y-176375000D03*
%TD*%
D14*
%TO.P,D10,1,K*%
%TO.N,Net-(D10-K)*%
X60700000Y-171475000D03*
D15*
%TO.P,D10,2,A*%
%TO.N,Net-(D10-A)*%
X62850000Y-171475000D03*
%TD*%
D11*
%TO.P,D30,1,K*%
%TO.N,Net-(D30-K)*%
X162150000Y-118840000D03*
D12*
%TO.P,D30,2,A*%
%TO.N,Net-(D29-K)*%
X162150000Y-116690000D03*
%TD*%
D14*
%TO.P,D44,1,K*%
%TO.N,Net-(D44-K)*%
X181875000Y-132925000D03*
D15*
%TO.P,D44,2,A*%
%TO.N,Net-(D43-K)*%
X184025000Y-132925000D03*
%TD*%
D14*
%TO.P,D42,1,K*%
%TO.N,Net-(D42-K)*%
X194000000Y-160775000D03*
D15*
%TO.P,D42,2,A*%
%TO.N,+12V*%
X196150000Y-160775000D03*
%TD*%
D14*
%TO.P,D39,1,K*%
%TO.N,Net-(D39-K)*%
X214725000Y-194775000D03*
D15*
%TO.P,D39,2,A*%
%TO.N,+12V*%
X216875000Y-194775000D03*
%TD*%
D10*
%TO.P,R26,1*%
%TO.N,Net-(D72-K)*%
X315425000Y-120450000D03*
%TO.P,R26,2*%
%TO.N,GND*%
X318525000Y-120450000D03*
%TD*%
D13*
%TO.P,KR12,1,+5V_TOP_LED*%
%TO.N,Net-(J2-Pin_34)*%
X219050000Y-112750000D03*
%TO.P,KR12,2,GND_TOP_LED*%
%TO.N,GND*%
X219050000Y-115290000D03*
%TO.P,KR12,3,+5V_BOTTOM_LED*%
%TO.N,Net-(J2-Pin_35)*%
X219050000Y-117830000D03*
%TO.P,KR12,4,GND_BOTTOM_LED*%
%TO.N,GND*%
X219050000Y-120370000D03*
%TO.P,KR12,5,SW_IN*%
%TO.N,Net-(J2-Pin_36)*%
X203350000Y-117250000D03*
%TO.P,KR12,6,SW_OUT*%
%TO.N,GND*%
X203350000Y-119790000D03*
%TD*%
D14*
%TO.P,D18,1,K*%
%TO.N,Net-(D18-K)*%
X95810000Y-124450000D03*
D15*
%TO.P,D18,2,A*%
%TO.N,Net-(D17-K)*%
X97960000Y-124450000D03*
%TD*%
D14*
%TO.P,D38,1,K*%
%TO.N,Net-(D38-K)*%
X186150000Y-186125000D03*
D15*
%TO.P,D38,2,A*%
%TO.N,Net-(D37-K)*%
X188300000Y-186125000D03*
%TD*%
D10*
%TO.P,R22,1*%
%TO.N,Net-(D60-K)*%
X285650000Y-145900000D03*
%TO.P,R22,2*%
%TO.N,GND*%
X288750000Y-145900000D03*
%TD*%
%TO.P,R6,1*%
%TO.N,Net-(D16-K)*%
X99650000Y-150450000D03*
%TO.P,R6,2*%
%TO.N,GND*%
X102750000Y-150450000D03*
%TD*%
D14*
%TO.P,D4,1,K*%
%TO.N,Net-(D4-K)*%
X95435000Y-102250000D03*
D15*
%TO.P,D4,2,A*%
%TO.N,Net-(D3-K)*%
X97585000Y-102250000D03*
%TD*%
D14*
%TO.P,D12,1,K*%
%TO.N,Net-(D12-K)*%
X80900000Y-194550000D03*
D15*
%TO.P,D12,2,A*%
%TO.N,Net-(D11-K)*%
X83050000Y-194550000D03*
%TD*%
D13*
%TO.P,KR2,1,+5V_TOP_LED*%
%TO.N,Net-(J2-Pin_16)*%
X89100000Y-141250000D03*
%TO.P,KR2,2,GND_TOP_LED*%
%TO.N,GND*%
X89100000Y-143790000D03*
%TO.P,KR2,3,+5V_BOTTOM_LED*%
%TO.N,Net-(J2-Pin_17)*%
X89100000Y-146330000D03*
%TO.P,KR2,4,GND_BOTTOM_LED*%
%TO.N,GND*%
X89100000Y-148870000D03*
%TO.P,KR2,5,SW_IN*%
%TO.N,Net-(J2-Pin_18)*%
X73400000Y-145750000D03*
%TO.P,KR2,6,SW_OUT*%
%TO.N,GND*%
X73400000Y-148290000D03*
%TD*%
D10*
%TO.P,R25,1*%
%TO.N,Net-(D69-K)*%
X300000000Y-128800000D03*
%TO.P,R25,2*%
%TO.N,GND*%
X303100000Y-128800000D03*
%TD*%
D14*
%TO.P,D72,1,K*%
%TO.N,Net-(D72-K)*%
X315225000Y-113700000D03*
D15*
%TO.P,D72,2,A*%
%TO.N,Net-(D71-K)*%
X317375000Y-113700000D03*
%TD*%
D14*
%TO.P,D60,1,K*%
%TO.N,Net-(D60-K)*%
X277925000Y-145900000D03*
D15*
%TO.P,D60,2,A*%
%TO.N,Net-(D59-K)*%
X280075000Y-145900000D03*
%TD*%
D14*
%TO.P,D79,1,K*%
%TO.N,Net-(D79-K)*%
X336400000Y-157550000D03*
D15*
%TO.P,D79,2,A*%
%TO.N,+12V*%
X338550000Y-157550000D03*
%TD*%
D10*
%TO.P,R19,1*%
%TO.N,Net-(D51-K)*%
X232425000Y-146275000D03*
%TO.P,R19,2*%
%TO.N,GND*%
X235525000Y-146275000D03*
%TD*%
%TO.P,R8,1*%
%TO.N,Net-(D22-K)*%
X118300000Y-150325000D03*
%TO.P,R8,2*%
%TO.N,GND*%
X121400000Y-150325000D03*
%TD*%
D14*
%TO.P,D74,1,K*%
%TO.N,Net-(D74-K)*%
X315950000Y-151125000D03*
D15*
%TO.P,D74,2,A*%
%TO.N,Net-(D73-K)*%
X318100000Y-151125000D03*
%TD*%
D14*
%TO.P,D29,1,K*%
%TO.N,Net-(D29-K)*%
X162450000Y-139625000D03*
D15*
%TO.P,D29,2,A*%
%TO.N,+12V*%
X164600000Y-139625000D03*
%TD*%
D14*
%TO.P,D69,1,K*%
%TO.N,Net-(D69-K)*%
X292700000Y-123975000D03*
D15*
%TO.P,D69,2,A*%
%TO.N,Net-(D68-K)*%
X294850000Y-123975000D03*
%TD*%
D14*
%TO.P,D14,1,K*%
%TO.N,Net-(D14-K)*%
X95535000Y-171075000D03*
D15*
%TO.P,D14,2,A*%
%TO.N,+12V*%
X97685000Y-171075000D03*
%TD*%
D10*
%TO.P,R17,1*%
%TO.N,Net-(D45-K)*%
X163825000Y-106250000D03*
%TO.P,R17,2*%
%TO.N,GND*%
X166925000Y-106250000D03*
%TD*%
D14*
%TO.P,D35,1,K*%
%TO.N,Net-(D35-K)*%
X159525000Y-194775000D03*
D15*
%TO.P,D35,2,A*%
%TO.N,+12V*%
X161675000Y-194775000D03*
%TD*%
D10*
%TO.P,R28,1*%
%TO.N,Net-(D78-K)*%
X353550000Y-177725000D03*
%TO.P,R28,2*%
%TO.N,GND*%
X356650000Y-177725000D03*
%TD*%
D14*
%TO.P,D22,1,K*%
%TO.N,Net-(D22-K)*%
X118485000Y-142625000D03*
D15*
%TO.P,D22,2,A*%
%TO.N,Net-(D21-K)*%
X120635000Y-142625000D03*
%TD*%
D14*
%TO.P,D52,1,K*%
%TO.N,Net-(D52-K)*%
X246600000Y-132750000D03*
D15*
%TO.P,D52,2,A*%
%TO.N,+12V*%
X248750000Y-132750000D03*
%TD*%
D14*
%TO.P,D65,1,K*%
%TO.N,Net-(D65-K)*%
X289100000Y-193500000D03*
D15*
%TO.P,D65,2,A*%
%TO.N,Net-(D64-K)*%
X291250000Y-193500000D03*
%TD*%
D14*
%TO.P,D31,1,K*%
%TO.N,Net-(D31-K)*%
X149860000Y-106275000D03*
D15*
%TO.P,D31,2,A*%
%TO.N,Net-(D30-K)*%
X152010000Y-106275000D03*
%TD*%
D14*
%TO.P,D77,1,K*%
%TO.N,Net-(D77-K)*%
X352800000Y-193200000D03*
D15*
%TO.P,D77,2,A*%
%TO.N,Net-(D76-K)*%
X354950000Y-193200000D03*
%TD*%
D14*
%TO.P,D61,1,K*%
%TO.N,Net-(D61-K)*%
X278675000Y-160675000D03*
D15*
%TO.P,D61,2,A*%
%TO.N,+12V*%
X280825000Y-160675000D03*
%TD*%
D14*
%TO.P,D2,1,K*%
%TO.N,Net-(D2-K)*%
X65150000Y-102075000D03*
D15*
%TO.P,D2,2,A*%
%TO.N,+12V*%
X67300000Y-102075000D03*
%TD*%
D14*
%TO.P,D37,1,K*%
%TO.N,Net-(D37-K)*%
X138775000Y-195075000D03*
D15*
%TO.P,D37,2,A*%
%TO.N,Net-(D36-K)*%
X140925000Y-195075000D03*
%TD*%
D14*
%TO.P,D51,1,K*%
%TO.N,Net-(D51-K)*%
X224125000Y-142900000D03*
D15*
%TO.P,D51,2,A*%
%TO.N,Net-(D50-K)*%
X226275000Y-142900000D03*
%TD*%
D14*
%TO.P,D11,1,K*%
%TO.N,Net-(D11-K)*%
X62510000Y-186500000D03*
D15*
%TO.P,D11,2,A*%
%TO.N,+12V*%
X64660000Y-186500000D03*
%TD*%
D16*
%TO.P,S2,1,e*%
%TO.N,/A_SegE*%
X234415200Y-124669300D03*
D17*
%TO.P,S2,2,d*%
%TO.N,/A_SegD*%
X236955200Y-124669300D03*
%TO.P,S2,3,dp*%
%TO.N,/A_SegDP*%
X239495200Y-124669300D03*
%TO.P,S2,4,c*%
%TO.N,/A_SegC*%
X242035200Y-124669300D03*
%TO.P,S2,5,g*%
%TO.N,/A_SegG*%
X244575200Y-124669300D03*
D18*
%TO.P,S2,6*%
%TO.N,N/C*%
X247115200Y-124669300D03*
D17*
%TO.P,S2,7,b*%
%TO.N,/A_SegB*%
X247115200Y-114509300D03*
%TO.P,S2,8,A1*%
%TO.N,/A3*%
X244575200Y-114509300D03*
%TO.P,S2,9,A2*%
%TO.N,/A4*%
X242035200Y-114509300D03*
%TO.P,S2,10,f*%
%TO.N,/A_SegF*%
X239495200Y-114509300D03*
%TO.P,S2,11,a*%
%TO.N,/A_SegA*%
X236955200Y-114509300D03*
%TO.P,S2,12,A3*%
%TO.N,/A5*%
X234417740Y-114509300D03*
%TD*%
D13*
%TO.P,KR4,1,+5V_TOP_LED*%
%TO.N,Net-(J2-Pin_19)*%
X120350000Y-174450000D03*
%TO.P,KR4,2,GND_TOP_LED*%
%TO.N,GND*%
X120350000Y-176990000D03*
%TO.P,KR4,3,+5V_BOTTOM_LED*%
%TO.N,Net-(J2-Pin_20)*%
X120350000Y-179530000D03*
%TO.P,KR4,4,GND_BOTTOM_LED*%
%TO.N,GND*%
X120350000Y-182070000D03*
%TO.P,KR4,5,SW_IN*%
%TO.N,Net-(J2-Pin_21)*%
X104650000Y-178950000D03*
%TO.P,KR4,6,SW_OUT*%
%TO.N,GND*%
X104650000Y-181490000D03*
%TD*%
D10*
%TO.P,R2,1*%
%TO.N,Net-(D4-K)*%
X95875000Y-114200000D03*
%TO.P,R2,2*%
%TO.N,GND*%
X98975000Y-114200000D03*
%TD*%
D14*
%TO.P,D26,1,K*%
%TO.N,Net-(D26-K)*%
X112535000Y-194750000D03*
D15*
%TO.P,D26,2,A*%
%TO.N,+12V*%
X114685000Y-194750000D03*
%TD*%
D13*
%TO.P,KR6,1,+5V_TOP_LED*%
%TO.N,Net-(J2-Pin_22)*%
X219100000Y-156900000D03*
%TO.P,KR6,2,GND_TOP_LED*%
%TO.N,GND*%
X219100000Y-159440000D03*
%TO.P,KR6,3,+5V_BOTTOM_LED*%
%TO.N,Net-(J2-Pin_23)*%
X219100000Y-161980000D03*
%TO.P,KR6,4,GND_BOTTOM_LED*%
%TO.N,GND*%
X219100000Y-164520000D03*
%TO.P,KR6,5,SW_IN*%
%TO.N,Net-(J2-Pin_25)*%
X203400000Y-161400000D03*
%TO.P,KR6,6,SW_OUT*%
%TO.N,GND*%
X203400000Y-163940000D03*
%TD*%
D10*
%TO.P,R3,1*%
%TO.N,Net-(D7-K)*%
X62075000Y-137800000D03*
%TO.P,R3,2*%
%TO.N,GND*%
X65175000Y-137800000D03*
%TD*%
%TO.P,R10,1*%
%TO.N,Net-(D28-K)*%
X140200000Y-140800000D03*
%TO.P,R10,2*%
%TO.N,GND*%
X143300000Y-140800000D03*
%TD*%
%TO.P,R18,1*%
%TO.N,Net-(D48-K)*%
X226050000Y-105975000D03*
%TO.P,R18,2*%
%TO.N,GND*%
X229150000Y-105975000D03*
%TD*%
D14*
%TO.P,D81,1,K*%
%TO.N,Net-(D81-K)*%
X361750000Y-157850000D03*
D15*
%TO.P,D81,2,A*%
%TO.N,Net-(D80-K)*%
X363900000Y-157850000D03*
%TD*%
D21*
%TO.P,P1,1,Pin_1*%
%TO.N,/Vin*%
X349400000Y-99300000D03*
D22*
%TO.P,P1,2,Pin_2*%
%TO.N,GND*%
X354480000Y-99300000D03*
%TD*%
D23*
%TO.P,J2,1,Pin_1*%
%TO.N,Net-(J2-Pin_1)*%
X328490000Y-99950000D03*
D24*
%TO.P,J2,2,Pin_2*%
%TO.N,Net-(J2-Pin_2)*%
X328490000Y-97410000D03*
%TO.P,J2,3,Pin_3*%
%TO.N,Net-(J2-Pin_3)*%
X325950000Y-99950000D03*
%TO.P,J2,4,Pin_4*%
%TO.N,Net-(J2-Pin_4)*%
X325950000Y-97410000D03*
%TO.P,J2,5,Pin_5*%
%TO.N,Net-(J2-Pin_5)*%
X323410000Y-99950000D03*
%TO.P,J2,6,Pin_6*%
%TO.N,Net-(J2-Pin_6)*%
X323410000Y-97410000D03*
%TO.P,J2,7,Pin_7*%
%TO.N,Net-(J2-Pin_7)*%
X320870000Y-99950000D03*
%TO.P,J2,8,Pin_8*%
%TO.N,Net-(J2-Pin_8)*%
X320870000Y-97410000D03*
%TO.P,J2,9,Pin_9*%
%TO.N,Net-(J2-Pin_9)*%
X318330000Y-99950000D03*
%TO.P,J2,10,Pin_10*%
%TO.N,Net-(J2-Pin_10)*%
X318330000Y-97410000D03*
%TO.P,J2,11,Pin_11*%
%TO.N,Net-(J2-Pin_11)*%
X315790000Y-99950000D03*
%TO.P,J2,12,Pin_12*%
%TO.N,Net-(J2-Pin_12)*%
X315790000Y-97410000D03*
%TO.P,J2,13,Pin_13*%
%TO.N,Net-(J2-Pin_13)*%
X313250000Y-99950000D03*
%TO.P,J2,14,Pin_14*%
%TO.N,Net-(J2-Pin_14)*%
X313250000Y-97410000D03*
%TO.P,J2,15,Pin_15*%
%TO.N,Net-(J2-Pin_15)*%
X310710000Y-99950000D03*
%TO.P,J2,16,Pin_16*%
%TO.N,Net-(J2-Pin_16)*%
X310710000Y-97410000D03*
%TO.P,J2,17,Pin_17*%
%TO.N,Net-(J2-Pin_17)*%
X308170000Y-99950000D03*
%TO.P,J2,18,Pin_18*%
%TO.N,Net-(J2-Pin_18)*%
X308170000Y-97410000D03*
%TO.P,J2,19,Pin_19*%
%TO.N,Net-(J2-Pin_19)*%
X305630000Y-99950000D03*
%TO.P,J2,20,Pin_20*%
%TO.N,Net-(J2-Pin_20)*%
X305630000Y-97410000D03*
%TO.P,J2,21,Pin_21*%
%TO.N,Net-(J2-Pin_21)*%
X303090000Y-99950000D03*
%TO.P,J2,22,Pin_22*%
%TO.N,Net-(J2-Pin_22)*%
X303090000Y-97410000D03*
%TO.P,J2,23,Pin_23*%
%TO.N,Net-(J2-Pin_23)*%
X300550000Y-99950000D03*
%TO.P,J2,24,Pin_24*%
%TO.N,Net-(J2-Pin_24)*%
X300550000Y-97410000D03*
%TO.P,J2,25,Pin_25*%
%TO.N,Net-(J2-Pin_25)*%
X298010000Y-99950000D03*
%TO.P,J2,26,Pin_26*%
%TO.N,Net-(J2-Pin_26)*%
X298010000Y-97410000D03*
%TO.P,J2,27,Pin_27*%
%TO.N,Net-(J2-Pin_27)*%
X295470000Y-99950000D03*
%TO.P,J2,28,Pin_28*%
%TO.N,Net-(J2-Pin_28)*%
X295470000Y-97410000D03*
%TO.P,J2,29,Pin_29*%
%TO.N,Net-(J2-Pin_29)*%
X292930000Y-99950000D03*
%TO.P,J2,30,Pin_30*%
%TO.N,Net-(J2-Pin_30)*%
X292930000Y-97410000D03*
%TO.P,J2,31,Pin_31*%
%TO.N,Net-(J2-Pin_31)*%
X290390000Y-99950000D03*
%TO.P,J2,32,Pin_32*%
%TO.N,Net-(J2-Pin_32)*%
X290390000Y-97410000D03*
%TO.P,J2,33,Pin_33*%
%TO.N,Net-(J2-Pin_33)*%
X287850000Y-99950000D03*
%TO.P,J2,34,Pin_34*%
%TO.N,Net-(J2-Pin_34)*%
X287850000Y-97410000D03*
%TO.P,J2,35,Pin_35*%
%TO.N,Net-(J2-Pin_35)*%
X285310000Y-99950000D03*
%TO.P,J2,36,Pin_36*%
%TO.N,Net-(J2-Pin_36)*%
X285310000Y-97410000D03*
%TO.P,J2,37,Pin_37*%
%TO.N,unconnected-(J2-Pin_37-Pad37)*%
X282770000Y-99950000D03*
%TO.P,J2,38,Pin_38*%
%TO.N,unconnected-(J2-Pin_38-Pad38)*%
X282770000Y-97410000D03*
%TO.P,J2,39,Pin_39*%
%TO.N,unconnected-(J2-Pin_39-Pad39)*%
X280230000Y-99950000D03*
%TO.P,J2,40,Pin_40*%
%TO.N,unconnected-(J2-Pin_40-Pad40)*%
X280230000Y-97410000D03*
%TD*%
D23*
%TO.P,P2,1,Pin_1*%
%TO.N,GND*%
X343040000Y-98050000D03*
D24*
%TO.P,P2,2,Pin_2*%
%TO.N,/Din*%
X340500000Y-98050000D03*
%TO.P,P2,3,Pin_3*%
%TO.N,/Sel*%
X337960000Y-98050000D03*
%TO.P,P2,4,Pin_4*%
%TO.N,/Clk*%
X335420000Y-98050000D03*
%TD*%
D25*
%TO.P,R1,1*%
%TO.N,/Vcc*%
X215730000Y-142500000D03*
%TO.P,R1,2*%
%TO.N,Net-(IC1-ISET)*%
X205570000Y-142500000D03*
%TD*%
D26*
%TO.P,C1,1*%
%TO.N,/Vcc*%
X176600000Y-146900000D03*
D25*
%TO.P,C1,2*%
%TO.N,GND*%
X174100000Y-146900000D03*
%TD*%
D21*
%TO.P,J1,1,Pin_1*%
%TO.N,GND*%
X130275000Y-99075000D03*
D22*
%TO.P,J1,2,Pin_2*%
%TO.N,+12V*%
X135355000Y-99075000D03*
%TD*%
D21*
%TO.P,J3,1,Pin_1*%
%TO.N,GND*%
X67590000Y-197450000D03*
D22*
%TO.P,J3,2,Pin_2*%
%TO.N,+12V*%
X62510000Y-197450000D03*
%TD*%
D27*
%TO.N,/Vcc*%
X196487400Y-143895400D03*
X187140300Y-144194000D03*
X336470300Y-137906200D03*
X222103900Y-137022500D03*
%TO.N,GND*%
X222979500Y-108115100D03*
X70556600Y-137848700D03*
X220668100Y-156287900D03*
X175456600Y-194574300D03*
X243885700Y-191231200D03*
X184700000Y-160676900D03*
X172207300Y-107912000D03*
X133381500Y-102524300D03*
X329650500Y-141843300D03*
X72715100Y-162279300D03*
X121435100Y-188268700D03*
X355307000Y-157458700D03*
X329452400Y-162406700D03*
X288684700Y-143687000D03*
X257706400Y-155560000D03*
X174100000Y-136779700D03*
%TO.N,/Clk*%
X325645500Y-136597500D03*
X181025500Y-135004800D03*
%TO.N,/A_SegDP*%
X191317500Y-128421100D03*
%TO.N,/A_SegG*%
X184898500Y-128249100D03*
%TO.N,/A_SegC*%
X192887000Y-123296100D03*
X148314500Y-121415700D03*
%TO.N,/A4*%
X196375100Y-135119900D03*
X234925900Y-133603700D03*
%TO.N,/A_SegB*%
X192472000Y-122148100D03*
X181696800Y-116460000D03*
%TO.N,/A_SegE*%
X193113500Y-126140500D03*
%TO.N,/Sel*%
X333235500Y-107749300D03*
X289398400Y-109314700D03*
X231381500Y-150196000D03*
X234935700Y-110431700D03*
X288768000Y-110862700D03*
X180341500Y-149016000D03*
%TO.N,/A_SegA*%
X180234400Y-113892200D03*
%TO.N,/A2*%
X145327900Y-149756200D03*
X187712100Y-152923000D03*
%TO.N,/Din*%
X201890000Y-135059800D03*
X329527200Y-131981200D03*
%TO.N,/A0*%
X190179500Y-156615900D03*
X158591600Y-156521800D03*
%TO.N,/A1*%
X178814500Y-113731200D03*
%TO.N,/A_SegD*%
X193869000Y-128199100D03*
%TO.N,/A_SegF*%
X182994600Y-119175000D03*
%TO.N,/A5*%
X228952700Y-147375000D03*
X181167100Y-147687500D03*
%TO.N,Net-(IC1-ISET)*%
X188046500Y-140205900D03*
X205076600Y-139907400D03*
%TO.N,/A3*%
X187394400Y-148892500D03*
X237642100Y-150026700D03*
%TO.N,+12V*%
X330821400Y-152718700D03*
X67614000Y-185244000D03*
X133381500Y-114206200D03*
X168434500Y-117906500D03*
X170731600Y-104998800D03*
X243271200Y-185306200D03*
X242989100Y-190640400D03*
X364309600Y-134943700D03*
X330945700Y-160123100D03*
X330497100Y-191231200D03*
X360034600Y-158643700D03*
X249729200Y-131171400D03*
X247508400Y-107751900D03*
X70662900Y-102356200D03*
X163733500Y-194874400D03*
X67676300Y-113824400D03*
X68524500Y-170493700D03*
X166689300Y-140868700D03*
X67676300Y-143831200D03*
X169745100Y-153770400D03*
X249729200Y-117168700D03*
%TO.N,Net-(D4-K)*%
X93973400Y-102356200D03*
X93502800Y-112806400D03*
%TO.N,Net-(D8-K)*%
X61004600Y-144791900D03*
X67676300Y-161606200D03*
%TO.N,Net-(D10-A)*%
X64689700Y-161844300D03*
X65042100Y-170493700D03*
%TO.N,Net-(D20-K)*%
X110321600Y-129018700D03*
X112475300Y-114206200D03*
%TO.N,Net-(D24-K)*%
X131057200Y-182343700D03*
X130394900Y-163502800D03*
%TO.N,Net-(D26-K)*%
X119727600Y-161345800D03*
X109488700Y-194193700D03*
%TO.N,Net-(D27-K)*%
X139354700Y-135162800D03*
X138960400Y-159397500D03*
%TO.N,Net-(D29-K)*%
X160260900Y-140868700D03*
X166130600Y-118059300D03*
%TO.N,Net-(D30-K)*%
X153619800Y-106639200D03*
X154287700Y-117170200D03*
%TO.N,Net-(D32-K)*%
X160260900Y-155681200D03*
X160260900Y-167531200D03*
%TO.N,Net-(D33-K)*%
X157338400Y-180116800D03*
X158610200Y-168327900D03*
%TO.N,Net-(D38-K)*%
X184129900Y-185306200D03*
X184898500Y-172166800D03*
%TO.N,Net-(D39-K)*%
X202073300Y-173456200D03*
X208046500Y-194193700D03*
%TO.N,Net-(D42-K)*%
X194076600Y-162456500D03*
X193289200Y-156081200D03*
%TO.N,Net-(D43-K)*%
X193242000Y-132034900D03*
X184563500Y-149857800D03*
%TO.N,Net-(D45-K)*%
X166234100Y-117168700D03*
X165259200Y-106427500D03*
%TO.N,Net-(D47-K)*%
X210569600Y-103077200D03*
X208601600Y-118200900D03*
%TO.N,Net-(D48-K)*%
X226942500Y-117994300D03*
X226315500Y-107383000D03*
%TO.N,Net-(D49-K)*%
X229089900Y-107992900D03*
X217271100Y-141345600D03*
%TO.N,Net-(D52-K)*%
X236040300Y-133024800D03*
X232086900Y-152718700D03*
%TO.N,Net-(D53-K)*%
X228479100Y-152018400D03*
X229192100Y-176019800D03*
%TO.N,Net-(D54-K)*%
X222979500Y-176418700D03*
X232520000Y-194467100D03*
%TO.N,Net-(D56-K)*%
X256678800Y-152697800D03*
X252165300Y-196739000D03*
%TO.N,Net-(D58-K)*%
X266065900Y-121393200D03*
X265554300Y-140784300D03*
%TO.N,Net-(D61-K)*%
X258878200Y-172862500D03*
X264791900Y-161029800D03*
%TO.N,Net-(D65-K)*%
X294657900Y-167531200D03*
X284851500Y-191231200D03*
%TO.N,Net-(D68-K)*%
X296663100Y-123093700D03*
X294657900Y-143831200D03*
%TO.N,Net-(D73-K)*%
X321537300Y-150527600D03*
X324523900Y-127918700D03*
%TO.N,Net-(D74-K)*%
X327510500Y-151828100D03*
X325271700Y-168289100D03*
%TO.N,Net-(D77-K)*%
X351079700Y-194193700D03*
X354420800Y-171328600D03*
%TO.N,Net-(D79-K)*%
X333483700Y-158643700D03*
X340659800Y-178179900D03*
%TO.N,Net-(D80-K)*%
X363396500Y-159513100D03*
X362802900Y-179540400D03*
%TO.N,Net-(D82-K)*%
X364310000Y-135943800D03*
X369671200Y-120131200D03*
%TO.N,Net-(D83-K)*%
X329706200Y-140559100D03*
X330205500Y-120131200D03*
%TO.N,Net-(J2-Pin_34)*%
X275706800Y-112131800D03*
%TO.N,Net-(J2-Pin_3)*%
X322685400Y-114206200D03*
X94143200Y-114207800D03*
X95492400Y-111338600D03*
%TO.N,Net-(J2-Pin_32)*%
X193113500Y-99393700D03*
%TO.N,Net-(J2-Pin_28)*%
X296594200Y-170493700D03*
%TO.N,Net-(J2-Pin_11)*%
X283005100Y-105600300D03*
%TO.N,Net-(J2-Pin_12)*%
X297621100Y-178960000D03*
%TO.N,Net-(J2-Pin_8)*%
X312542100Y-177052100D03*
%TO.N,Net-(J2-Pin_33)*%
X181335900Y-101200900D03*
%TO.N,Net-(J2-Pin_27)*%
X286554300Y-126920000D03*
%TO.N,Net-(J2-Pin_17)*%
X306604300Y-140868700D03*
%TO.N,Net-(J2-Pin_19)*%
X127408300Y-105318700D03*
%TO.N,Net-(J2-Pin_35)*%
X225966100Y-99886600D03*
%TO.N,Net-(J2-Pin_9)*%
X318295600Y-137906200D03*
X172207300Y-138183600D03*
%TO.N,Net-(J2-Pin_25)*%
X298327500Y-104675600D03*
X221012700Y-108222100D03*
%TO.N,Net-(J2-Pin_10)*%
X316003700Y-167531200D03*
%TO.N,Net-(J2-Pin_16)*%
X90722500Y-99017500D03*
%TO.N,Net-(J2-Pin_7)*%
X320232800Y-135663500D03*
X177729200Y-137206500D03*
%TO.N,Net-(J2-Pin_23)*%
X300900300Y-158743400D03*
%TO.N,Net-(J2-Pin_18)*%
X128608000Y-101156500D03*
X111128200Y-145178300D03*
%TO.N,Net-(J2-Pin_2)*%
X91680200Y-110576100D03*
X324701300Y-114383600D03*
%TO.N,Net-(J2-Pin_6)*%
X317141500Y-178260000D03*
%TO.N,Net-(J2-Pin_30)*%
X294423800Y-173222200D03*
X297375000Y-101239200D03*
%TO.N,Net-(J2-Pin_29)*%
X332209100Y-112120000D03*
X292521400Y-109269400D03*
%TO.N,Net-(J2-Pin_4)*%
X92643000Y-97493100D03*
%TO.N,Net-(J2-Pin_36)*%
X278805800Y-97127800D03*
X208046500Y-98196200D03*
%TO.N,Net-(J2-Pin_21)*%
X119313400Y-144494300D03*
X303017700Y-138927700D03*
%TO.N,Net-(J2-Pin_5)*%
X87469800Y-109185400D03*
%TO.N,Net-(J2-Pin_22)*%
X300238900Y-155643100D03*
%TO.N,Net-(J2-Pin_1)*%
X267002500Y-103750900D03*
X258036400Y-111735200D03*
%TO.N,Net-(J2-Pin_31)*%
X288684700Y-107915100D03*
X192928900Y-108923900D03*
%TO.N,Net-(J2-Pin_20)*%
X121435100Y-197804500D03*
X285698100Y-200063700D03*
%TD*%
D28*
%TO.N,/Vcc*%
X187438900Y-143895400D02*
X187140300Y-144194000D01*
X196487400Y-143895400D02*
X214334600Y-143895400D01*
X187140300Y-144194000D02*
X184434300Y-146900000D01*
X196487400Y-143895400D02*
X187438900Y-143895400D01*
X319185600Y-137022500D02*
X222103900Y-137022500D01*
X336470300Y-137906200D02*
X320069300Y-137906200D01*
X214334600Y-143895400D02*
X215730000Y-142500000D01*
X320069300Y-137906200D02*
X319185600Y-137022500D01*
X184434300Y-146900000D02*
X176600000Y-146900000D01*
%TO.N,GND*%
X159470300Y-136779700D02*
X156875000Y-139375000D01*
X72715100Y-162279300D02*
X73845700Y-162279300D01*
X133381500Y-102524300D02*
X141674300Y-102524300D01*
X101170000Y-148870000D02*
X102750000Y-150450000D01*
X96668500Y-116506500D02*
X98975000Y-114200000D01*
X203400000Y-163940000D02*
X189690000Y-163940000D01*
X315325900Y-182070000D02*
X314750000Y-182070000D01*
X286000000Y-133270000D02*
X287151700Y-133270000D01*
X105225900Y-181490000D02*
X104650000Y-181490000D01*
X288750000Y-143752300D02*
X288684700Y-143687000D01*
X90400900Y-118220000D02*
X94955000Y-118220000D01*
X154933200Y-189716800D02*
X156225000Y-188425000D01*
X291625000Y-176275000D02*
X312883300Y-176275000D01*
X164631700Y-182130000D02*
X178600000Y-182130000D01*
X272031700Y-133270000D02*
X286000000Y-133270000D01*
X178081700Y-120270000D02*
X190898300Y-120270000D01*
X238000000Y-192725000D02*
X242391900Y-192725000D01*
X89150000Y-181720000D02*
X90301700Y-181720000D01*
X344268300Y-181290000D02*
X330300000Y-181290000D01*
X329859900Y-142052700D02*
X329650500Y-141843300D01*
X356650000Y-177725000D02*
X355348900Y-179026100D01*
X102716600Y-122554600D02*
X96668500Y-116506500D01*
X330300000Y-181290000D02*
X316681700Y-181290000D01*
X242450000Y-153450000D02*
X242450000Y-153200000D01*
X67590000Y-197450000D02*
X95675000Y-197450000D01*
X184876900Y-160500000D02*
X184700000Y-160676900D01*
X349387800Y-179026100D02*
X347151700Y-176790000D01*
X318525000Y-120450000D02*
X310175000Y-128800000D01*
X90531700Y-181490000D02*
X90301700Y-181720000D01*
X130666800Y-189716800D02*
X154933200Y-189716800D01*
X262000000Y-153200000D02*
X281450000Y-153200000D01*
X310175000Y-128800000D02*
X303100000Y-128800000D01*
X192050000Y-120270000D02*
X201718300Y-120270000D01*
X217948300Y-164520000D02*
X217368300Y-163940000D01*
X186250000Y-160500000D02*
X184876900Y-160500000D01*
X334947300Y-142052700D02*
X329859900Y-142052700D01*
X271451700Y-132690000D02*
X272031700Y-133270000D01*
X344291700Y-98050000D02*
X344943400Y-97398300D01*
X192050000Y-120270000D02*
X190898300Y-120270000D01*
X156225000Y-188425000D02*
X157176700Y-188425000D01*
X299625900Y-181490000D02*
X300201700Y-181490000D01*
X73845700Y-162279300D02*
X73925000Y-162200000D01*
X189690000Y-163940000D02*
X186250000Y-160500000D01*
X242391900Y-192725000D02*
X243885700Y-191231200D01*
X147098400Y-104801600D02*
X165476600Y-104801600D01*
X239612100Y-156287900D02*
X242450000Y-153450000D01*
X316681700Y-181290000D02*
X315901700Y-182070000D01*
X89400000Y-118220000D02*
X88248300Y-118220000D01*
X262000000Y-153200000D02*
X259640000Y-155560000D01*
X314750000Y-182070000D02*
X300781700Y-182070000D01*
X344848300Y-181870000D02*
X344268300Y-181290000D01*
X178600000Y-177050000D02*
X179751700Y-177050000D01*
X121435100Y-188268700D02*
X123672400Y-190506000D01*
X65175000Y-137800000D02*
X70507900Y-137800000D01*
X329452400Y-161052400D02*
X329452400Y-162406700D01*
X220668100Y-156287900D02*
X239612100Y-156287900D01*
X87668300Y-117640000D02*
X88248300Y-118220000D01*
X89400000Y-118220000D02*
X90400900Y-118220000D01*
X104650000Y-181490000D02*
X90531700Y-181490000D01*
X344943400Y-97398300D02*
X352578300Y-97398300D01*
X219100000Y-164520000D02*
X217948300Y-164520000D01*
X164051700Y-181550000D02*
X164631700Y-182130000D01*
X297898300Y-181490000D02*
X297268300Y-182120000D01*
X177501700Y-119690000D02*
X178081700Y-120270000D01*
X187675500Y-177324500D02*
X180026200Y-177324500D01*
X287151700Y-133269900D02*
X287151700Y-133270000D01*
X130150000Y-189200000D02*
X130666800Y-189716800D01*
X106525000Y-121250000D02*
X105220400Y-122554600D01*
X281450000Y-153200000D02*
X288750000Y-145900000D01*
X143300000Y-140800000D02*
X155450000Y-140800000D01*
X288750000Y-145900000D02*
X288750000Y-143752300D01*
X312883300Y-176275000D02*
X313598300Y-176990000D01*
X157176700Y-188425000D02*
X164051700Y-181550000D01*
X102750000Y-150450000D02*
X104504400Y-152204400D01*
X203350000Y-119790000D02*
X204501700Y-119790000D01*
X244560000Y-155560000D02*
X257706400Y-155560000D01*
X315325900Y-182070000D02*
X315901700Y-182070000D01*
X73700000Y-117640000D02*
X87668300Y-117640000D01*
X174100000Y-136779700D02*
X159470300Y-136779700D01*
X89100000Y-148870000D02*
X101170000Y-148870000D01*
X242450000Y-153450000D02*
X244560000Y-155560000D01*
X105225900Y-181490000D02*
X105801700Y-181490000D01*
X89100000Y-148870000D02*
X87948300Y-148870000D01*
X105220400Y-122554600D02*
X102716600Y-122554600D01*
X300781700Y-182070000D02*
X300201700Y-181490000D01*
X343040000Y-98050000D02*
X344291700Y-98050000D01*
X270300000Y-132690000D02*
X271451700Y-132690000D01*
X168587000Y-107912000D02*
X172207300Y-107912000D01*
X87368300Y-148290000D02*
X87948300Y-148870000D01*
X173575000Y-194675000D02*
X175355900Y-194675000D01*
X165476600Y-104801600D02*
X166925000Y-106250000D01*
X258318300Y-181540000D02*
X258898300Y-182120000D01*
X73450000Y-181140000D02*
X87418300Y-181140000D01*
X175355900Y-194675000D02*
X175456600Y-194574300D01*
X357083700Y-157458700D02*
X357175000Y-157550000D01*
X201718300Y-120270000D02*
X202198300Y-119790000D01*
X244350000Y-181540000D02*
X258318300Y-181540000D01*
X123672400Y-190506000D02*
X128844000Y-190506000D01*
X260050000Y-182120000D02*
X258898300Y-182120000D01*
X106381700Y-182070000D02*
X105801700Y-181490000D01*
X73400000Y-148290000D02*
X87368300Y-148290000D01*
X299050000Y-181490000D02*
X297898300Y-181490000D01*
X259640000Y-155560000D02*
X257706400Y-155560000D01*
X180026200Y-177324500D02*
X179751700Y-177050000D01*
X141674300Y-102524300D02*
X145525000Y-106375000D01*
X346000000Y-181870000D02*
X344848300Y-181870000D01*
X299625900Y-181490000D02*
X299050000Y-181490000D01*
X95675000Y-197450000D02*
X98700000Y-194425000D01*
X219050000Y-120370000D02*
X205081700Y-120370000D01*
X155450000Y-140800000D02*
X156875000Y-139375000D01*
X352578300Y-97398300D02*
X354480000Y-99300000D01*
X355307000Y-157458700D02*
X357083700Y-157458700D01*
X166925000Y-106250000D02*
X168587000Y-107912000D01*
X355348900Y-179026100D02*
X349387800Y-179026100D01*
X94955000Y-118220000D02*
X96668500Y-116506500D01*
X104504400Y-152204400D02*
X119520600Y-152204400D01*
X227009900Y-108115100D02*
X222979500Y-108115100D01*
X298630100Y-133269900D02*
X287151700Y-133269900D01*
X87418300Y-181140000D02*
X87998300Y-181720000D01*
X89150000Y-181720000D02*
X87998300Y-181720000D01*
X297268300Y-182120000D02*
X260050000Y-182120000D01*
X119520600Y-152204400D02*
X121400000Y-150325000D01*
X128844000Y-190506000D02*
X130150000Y-189200000D01*
X203350000Y-119790000D02*
X202198300Y-119790000D01*
X188975000Y-176025000D02*
X187675500Y-177324500D01*
X205081700Y-120370000D02*
X204501700Y-119790000D01*
X162900000Y-181550000D02*
X164051700Y-181550000D01*
X336225000Y-140775000D02*
X334947300Y-142052700D01*
X176350000Y-119690000D02*
X177501700Y-119690000D01*
X242450000Y-153200000D02*
X235525000Y-146275000D01*
X346000000Y-176790000D02*
X347151700Y-176790000D01*
X120350000Y-182070000D02*
X106381700Y-182070000D01*
X303100000Y-128800000D02*
X298630100Y-133269900D01*
X145525000Y-106375000D02*
X147098400Y-104801600D01*
X217368300Y-163940000D02*
X203400000Y-163940000D01*
X70507900Y-137800000D02*
X70556600Y-137848700D01*
X329250000Y-160850000D02*
X329452400Y-161052400D01*
X229150000Y-105975000D02*
X227009900Y-108115100D01*
X314750000Y-176990000D02*
X313598300Y-176990000D01*
%TO.N,/Clk*%
X216076900Y-135821700D02*
X216833300Y-135065300D01*
X324009800Y-134961800D02*
X325645500Y-136597500D01*
X319838800Y-135065300D02*
X319942300Y-134961800D01*
X216833300Y-135065300D02*
X319838800Y-135065300D01*
X181842400Y-135821700D02*
X216076900Y-135821700D01*
X319942300Y-134961800D02*
X324009800Y-134961800D01*
X181025500Y-135004800D02*
X181842400Y-135821700D01*
%TO.N,/A_SegDP*%
X186217300Y-123320900D02*
X191317500Y-128421100D01*
X145501400Y-124705000D02*
X146653700Y-124705000D01*
X239495200Y-124669300D02*
X238342900Y-124669300D01*
X146653700Y-124200900D02*
X147533700Y-123320900D01*
X147533700Y-123320900D02*
X186217300Y-123320900D01*
X146653700Y-124705000D02*
X146653700Y-124200900D01*
X191822400Y-128926000D02*
X233410800Y-128926000D01*
X238342900Y-125188400D02*
X238342900Y-124669300D01*
X233410800Y-128926000D02*
X235307300Y-127029500D01*
X191317500Y-128421100D02*
X191822400Y-128926000D01*
X236501800Y-127029500D02*
X238342900Y-125188400D01*
X235307300Y-127029500D02*
X236501800Y-127029500D01*
%TO.N,/A_SegG*%
X155191300Y-128249100D02*
X151733700Y-124791500D01*
X151733700Y-124791500D02*
X151733700Y-124705000D01*
X184898500Y-128249100D02*
X186197600Y-129548200D01*
X233909300Y-129371900D02*
X234158400Y-129122800D01*
X233909300Y-129371900D02*
X234158400Y-129122800D01*
X234158400Y-129122800D02*
X239488500Y-129122800D01*
X244575200Y-124669300D02*
X243422900Y-124669300D01*
X233733000Y-129548200D02*
X233909300Y-129371900D01*
X184898500Y-128249100D02*
X155191300Y-128249100D01*
X243422900Y-125188400D02*
X243422900Y-124669300D01*
X150581400Y-124705000D02*
X151733700Y-124705000D01*
X186197600Y-129548200D02*
X233733000Y-129548200D01*
X239488500Y-129122800D02*
X243422900Y-125188400D01*
%TO.N,/A_SegC*%
X240882900Y-124669300D02*
X240882900Y-124165200D01*
X190747400Y-121415700D02*
X192627800Y-123296100D01*
X240013800Y-123296100D02*
X192887000Y-123296100D01*
X240882900Y-124165200D02*
X240013800Y-123296100D01*
X148314500Y-121415700D02*
X190747400Y-121415700D01*
X192627800Y-123296100D02*
X192887000Y-123296100D01*
X242035200Y-124669300D02*
X240882900Y-124669300D01*
%TO.N,/A4*%
X197891300Y-133603700D02*
X196375100Y-135119900D01*
X234925900Y-133603700D02*
X197891300Y-133603700D01*
%TO.N,/A_SegB*%
X238828200Y-122148100D02*
X192472000Y-122148100D01*
X245962900Y-115013400D02*
X238828200Y-122148100D01*
X179781800Y-114545000D02*
X181696800Y-116460000D01*
X245962900Y-114509300D02*
X245962900Y-115013400D01*
X247115200Y-114509300D02*
X245962900Y-114509300D01*
X153121400Y-114545000D02*
X154273700Y-114545000D01*
X154273700Y-114545000D02*
X179781800Y-114545000D01*
%TO.N,/A_SegE*%
X234415200Y-124669300D02*
X194584700Y-124669300D01*
X145294300Y-122719200D02*
X143051400Y-122719200D01*
X189090500Y-122117500D02*
X145896000Y-122117500D01*
X145543400Y-122470100D02*
X145294300Y-122719200D01*
X140421400Y-124705000D02*
X141573700Y-124705000D01*
X194584700Y-124669300D02*
X193113500Y-126140500D01*
X141573700Y-124196900D02*
X141573700Y-124705000D01*
X193113500Y-126140500D02*
X189090500Y-122117500D01*
X145896000Y-122117500D02*
X145543400Y-122470100D01*
X145543400Y-122470100D02*
X145294300Y-122719200D01*
X143051400Y-122719200D02*
X141573700Y-124196900D01*
%TO.N,/Sel*%
X180140000Y-149016000D02*
X180341500Y-149016000D01*
X230779800Y-149594300D02*
X231381500Y-150196000D01*
X288768000Y-110862700D02*
X287775700Y-109870400D01*
X289398400Y-109314700D02*
X290179500Y-108533600D01*
X231381500Y-150196000D02*
X230779800Y-149594300D01*
X290179500Y-108533600D02*
X332451200Y-108533600D01*
X235035800Y-110531800D02*
X234935700Y-110431700D01*
X185585000Y-149594300D02*
X185006700Y-149016000D01*
X231381500Y-150196000D02*
X230779800Y-149594300D01*
X287775700Y-109870400D02*
X258058200Y-109870400D01*
X258058200Y-109870400D02*
X257396800Y-110531800D01*
X257396800Y-110531800D02*
X235035800Y-110531800D01*
X180341500Y-149016000D02*
X180140000Y-149016000D01*
X230779800Y-149594300D02*
X185585000Y-149594300D01*
X185006700Y-149016000D02*
X180341500Y-149016000D01*
X332451200Y-108533600D02*
X333235500Y-107749300D01*
%TO.N,/A_SegA*%
X226774900Y-113901700D02*
X180243900Y-113901700D01*
X235802900Y-114509300D02*
X235802900Y-114005200D01*
X236955200Y-114509300D02*
X235802900Y-114509300D01*
X180234400Y-113892200D02*
X178907100Y-112564900D01*
X144974400Y-113165100D02*
X144113700Y-114025800D01*
X180243900Y-113901700D02*
X180234400Y-113892200D01*
X227534300Y-113142300D02*
X226774900Y-113901700D01*
X234940000Y-113142300D02*
X227534300Y-113142300D01*
X235802900Y-114005200D02*
X234940000Y-113142300D01*
X178907100Y-112564900D02*
X149481500Y-112564900D01*
X149128900Y-112917500D02*
X148881300Y-113165100D01*
X148881300Y-113165100D02*
X144974400Y-113165100D01*
X144113700Y-114025800D02*
X144113700Y-114545000D01*
X142961400Y-114545000D02*
X144113700Y-114545000D01*
X149128900Y-112917500D02*
X148881300Y-113165100D01*
X149481500Y-112564900D02*
X149128900Y-112917500D01*
%TO.N,/A2*%
X181867600Y-149756200D02*
X185034400Y-152923000D01*
X145327900Y-149756200D02*
X181867600Y-149756200D01*
X185034400Y-152923000D02*
X187712100Y-152923000D01*
%TO.N,/Din*%
X202528100Y-134421700D02*
X201890000Y-135059800D01*
X303603400Y-134421700D02*
X202528100Y-134421700D01*
X329527200Y-131981200D02*
X306043900Y-131981200D01*
X306043900Y-131981200D02*
X303603400Y-134421700D01*
%TO.N,/A0*%
X190085400Y-156521800D02*
X158591600Y-156521800D01*
X190179500Y-156615900D02*
X190085400Y-156521800D01*
%TO.N,/A1*%
X178249900Y-113166600D02*
X150030800Y-113166600D01*
X150030800Y-113166600D02*
X149193700Y-114003700D01*
X149193700Y-114003700D02*
X149193700Y-114545000D01*
X178814500Y-113731200D02*
X178249900Y-113166600D01*
X148041400Y-114545000D02*
X149193700Y-114545000D01*
%TO.N,/A_SegD*%
X193869000Y-128199100D02*
X188389100Y-122719200D01*
X142961400Y-124705000D02*
X144113700Y-124705000D01*
X144113700Y-124200900D02*
X144113700Y-124705000D01*
X233195300Y-128199100D02*
X193869000Y-128199100D01*
X236955200Y-124669300D02*
X235802900Y-124669300D01*
X145543500Y-123320900D02*
X144993700Y-123320900D01*
X188389100Y-122719200D02*
X146145200Y-122719200D01*
X144993700Y-123320900D02*
X144113700Y-124200900D01*
X235802900Y-124669300D02*
X235802900Y-125591500D01*
X235802900Y-125591500D02*
X233195300Y-128199100D01*
X146145200Y-122719200D02*
X145543500Y-123320900D01*
%TO.N,/A_SegF*%
X204266400Y-118401700D02*
X198223500Y-118401700D01*
X155056800Y-115203300D02*
X154336500Y-115923600D01*
X182994600Y-119175000D02*
X179022900Y-115203300D01*
X198223500Y-118401700D02*
X197538800Y-119086400D01*
X197538800Y-119086400D02*
X183083200Y-119086400D01*
X183083200Y-119086400D02*
X182994600Y-119175000D01*
X238342900Y-114509300D02*
X238342900Y-115013400D01*
X147513100Y-115923600D02*
X146653700Y-115064200D01*
X239495200Y-114509300D02*
X238342900Y-114509300D01*
X179022900Y-115203300D02*
X155056800Y-115203300D01*
X146653700Y-115064200D02*
X146653700Y-114545000D01*
X145501400Y-114545000D02*
X146653700Y-114545000D01*
X236914600Y-116441700D02*
X206226400Y-116441700D01*
X238342900Y-115013400D02*
X236914600Y-116441700D01*
X206226400Y-116441700D02*
X204266400Y-118401700D01*
X154336500Y-115923600D02*
X147513100Y-115923600D01*
%TO.N,/A5*%
X228952700Y-147375000D02*
X228640200Y-147687500D01*
X228640200Y-147687500D02*
X181167100Y-147687500D01*
%TO.N,Net-(IC1-ISET)*%
X188046500Y-140205900D02*
X188345000Y-139907400D01*
X188345000Y-139907400D02*
X205076600Y-139907400D01*
%TO.N,/A3*%
X237642100Y-150026700D02*
X236507900Y-148892500D01*
X236507900Y-148892500D02*
X187394400Y-148892500D01*
D29*
%TO.N,+12V*%
X109110000Y-157650000D02*
X115218300Y-157650000D01*
X243353800Y-184021000D02*
X268267200Y-184021000D01*
X243271200Y-185306200D02*
X243099800Y-185134800D01*
X328528300Y-193200000D02*
X330497100Y-191231200D01*
X221009600Y-190640400D02*
X242989100Y-190640400D01*
X362806300Y-134943700D02*
X362765700Y-134984300D01*
X169941500Y-117906500D02*
X170125000Y-118090000D01*
X97685000Y-171193100D02*
X96197500Y-172680600D01*
X269775000Y-185528800D02*
X269775000Y-185600000D01*
X64511700Y-199451700D02*
X110103400Y-199451700D01*
X96885000Y-135775500D02*
X93773800Y-138886700D01*
X65893800Y-143831200D02*
X64500000Y-145225000D01*
X304156300Y-152718700D02*
X303200000Y-153675000D01*
X70662900Y-102356200D02*
X67581200Y-102356200D01*
X280825000Y-160675000D02*
X296340800Y-160675000D01*
X243099800Y-185134800D02*
X243099800Y-184275000D01*
X159897100Y-196671600D02*
X161675000Y-194893700D01*
X330821400Y-152718700D02*
X304156300Y-152718700D01*
X168434500Y-117906500D02*
X169941500Y-117906500D01*
X183075000Y-103877300D02*
X181599100Y-105353200D01*
X93773800Y-138886700D02*
X72620800Y-138886700D01*
X62510000Y-197450000D02*
X64511700Y-199451700D01*
X256156300Y-117168700D02*
X256250000Y-117075000D01*
X163733500Y-194874400D02*
X161774400Y-194874400D01*
X356501700Y-128720400D02*
X362765700Y-134984300D01*
X115218300Y-157650000D02*
X120242400Y-152625900D01*
X296340800Y-160675000D02*
X303200000Y-153815800D01*
X72620800Y-138886700D02*
X67676300Y-143831200D01*
X243099800Y-184275000D02*
X243353800Y-184021000D01*
X183710000Y-196098300D02*
X183710000Y-194500000D01*
X324865900Y-185600000D02*
X330497100Y-191231200D01*
X162879600Y-196098300D02*
X161675000Y-194893700D01*
X110103400Y-199451700D02*
X114745100Y-194810000D01*
X96197500Y-172680600D02*
X70711400Y-172680600D01*
X168154600Y-153770400D02*
X169745100Y-153770400D01*
X364309600Y-134943700D02*
X362806300Y-134943700D01*
X167778700Y-154146300D02*
X168154600Y-153770400D01*
X336064000Y-160123100D02*
X330945700Y-160123100D01*
X338593600Y-157593500D02*
X336064000Y-160123100D01*
X166258300Y-152625900D02*
X167778700Y-154146300D01*
X247508400Y-107751900D02*
X246651900Y-107751900D01*
X324191900Y-128720400D02*
X356501700Y-128720400D01*
X248750000Y-132750000D02*
X249729200Y-131770800D01*
X279025000Y-112650000D02*
X279025000Y-112713800D01*
X114745100Y-194810000D02*
X116606600Y-196671600D01*
X65916000Y-185244000D02*
X64660000Y-186500000D01*
X189209200Y-153770400D02*
X169745100Y-153770400D01*
X196150000Y-160711200D02*
X189209200Y-153770400D01*
X67581200Y-102356200D02*
X67300000Y-102075000D01*
X67676300Y-114533700D02*
X67676300Y-113824400D01*
X97685000Y-171075000D02*
X97685000Y-171193100D01*
X122541200Y-114206200D02*
X121735000Y-113400000D01*
X67676300Y-143831200D02*
X65893800Y-143831200D01*
X120242400Y-152625900D02*
X166258300Y-152625900D01*
X133381500Y-114206200D02*
X122541200Y-114206200D01*
X183988000Y-196376300D02*
X183710000Y-196098300D01*
X323775000Y-193200000D02*
X328528300Y-193200000D01*
X362765700Y-134984300D02*
X362725000Y-135025000D01*
X215386600Y-196376300D02*
X183988000Y-196376300D01*
X237200000Y-184275000D02*
X243099800Y-184275000D01*
X324071500Y-128600000D02*
X324191900Y-128720400D01*
X268267200Y-184021000D02*
X269775000Y-185528800D01*
X359734600Y-158943700D02*
X339943700Y-158943700D01*
X249729200Y-117168700D02*
X256156300Y-117168700D01*
X279025000Y-112713800D02*
X274663800Y-117075000D01*
X183075000Y-103800000D02*
X183075000Y-103877300D01*
X161675000Y-194893700D02*
X161675000Y-194775000D01*
X116606600Y-196671600D02*
X159897100Y-196671600D01*
X339943700Y-158943700D02*
X338593600Y-157593500D01*
X171086000Y-105353200D02*
X170731600Y-104998800D01*
X67614000Y-185244000D02*
X65916000Y-185244000D01*
X246651900Y-107751900D02*
X245600000Y-106700000D01*
X165843700Y-140868700D02*
X164600000Y-139625000D01*
X216875000Y-194887900D02*
X215386600Y-196376300D01*
X167725000Y-154200000D02*
X167778700Y-154146300D01*
X338550000Y-157550000D02*
X338593600Y-157593500D01*
X183710000Y-196098300D02*
X162879600Y-196098300D01*
X216875000Y-194775000D02*
X216875000Y-194887900D01*
X166689300Y-140868700D02*
X165843700Y-140868700D01*
X360034600Y-158643700D02*
X359734600Y-158943700D01*
X321100000Y-128600000D02*
X324071500Y-128600000D01*
X66235000Y-115975000D02*
X67676300Y-114533700D01*
X70711400Y-172680600D02*
X68524500Y-170493700D01*
X164807800Y-99075000D02*
X170731600Y-104998800D01*
X216875000Y-194775000D02*
X221009600Y-190640400D01*
X249729200Y-131770800D02*
X249729200Y-131171400D01*
X303200000Y-153815800D02*
X303200000Y-153675000D01*
X96885000Y-135675000D02*
X96885000Y-135775500D01*
X269775000Y-185600000D02*
X324865900Y-185600000D01*
X135355000Y-99075000D02*
X164807800Y-99075000D01*
X196150000Y-160775000D02*
X196150000Y-160711200D01*
X274663800Y-117075000D02*
X256250000Y-117075000D01*
X161774400Y-194874400D02*
X161675000Y-194775000D01*
X114685000Y-194750000D02*
X114745100Y-194810000D01*
X181599100Y-105353200D02*
X171086000Y-105353200D01*
D28*
%TO.N,Net-(D2-K)*%
X65150000Y-102075000D02*
X65150000Y-101671400D01*
X65150000Y-101671400D02*
X69507400Y-97314000D01*
X79839000Y-97314000D02*
X81325000Y-98800000D01*
X69507400Y-97314000D02*
X79839000Y-97314000D01*
%TO.N,Net-(D3-K)*%
X79175000Y-98800000D02*
X79175000Y-99155000D01*
X79175000Y-99155000D02*
X80342500Y-100322500D01*
X80342500Y-100322500D02*
X95657500Y-100322500D01*
X95657500Y-100322500D02*
X97585000Y-102250000D01*
%TO.N,Net-(D4-K)*%
X95328800Y-102356200D02*
X95435000Y-102250000D01*
X93973400Y-102356200D02*
X93502800Y-102356200D01*
X94481400Y-112806400D02*
X93502800Y-112806400D01*
X93502800Y-102356200D02*
X93973400Y-102356200D01*
X93973400Y-102356200D02*
X95328800Y-102356200D01*
X95875000Y-114200000D02*
X94481400Y-112806400D01*
%TO.N,Net-(D5-K)*%
X59985000Y-120075000D02*
X64085000Y-115975000D01*
X59985000Y-125825000D02*
X59985000Y-120075000D01*
%TO.N,Net-(D6-K)*%
X68135000Y-131900000D02*
X65654400Y-129419400D01*
X61092300Y-129419400D02*
X57835000Y-126162100D01*
X57835000Y-126162100D02*
X57835000Y-125825000D01*
X65654400Y-129419400D02*
X61092300Y-129419400D01*
%TO.N,Net-(D7-K)*%
X65985000Y-131900000D02*
X62075000Y-135810000D01*
X62075000Y-135810000D02*
X62075000Y-137800000D01*
%TO.N,Net-(D8-K)*%
X61004600Y-144791900D02*
X61916900Y-144791900D01*
X61916900Y-144791900D02*
X62350000Y-145225000D01*
X64860000Y-159550000D02*
X65620100Y-159550000D01*
X65620100Y-159550000D02*
X67676300Y-161606200D01*
%TO.N,Net-(D10-A)*%
X65042100Y-170493700D02*
X63831300Y-170493700D01*
X62710000Y-159945800D02*
X64608500Y-161844300D01*
X63831300Y-170493700D02*
X62850000Y-171475000D01*
X64608500Y-161844300D02*
X64689700Y-161844300D01*
X62710000Y-159550000D02*
X62710000Y-159945800D01*
%TO.N,Net-(D10-K)*%
X60700000Y-171089300D02*
X69589300Y-162200000D01*
X60700000Y-171475000D02*
X60700000Y-171089300D01*
X69589300Y-162200000D02*
X70825000Y-162200000D01*
%TO.N,Net-(D11-K)*%
X77145700Y-188645700D02*
X83050000Y-194550000D01*
X64277700Y-188645700D02*
X77145700Y-188645700D01*
X62510000Y-186878000D02*
X64277700Y-188645700D01*
X62510000Y-186500000D02*
X62510000Y-186878000D01*
%TO.N,Net-(D12-K)*%
X97150000Y-188685000D02*
X97960000Y-187875000D01*
X97150000Y-194855400D02*
X97150000Y-188685000D01*
X80900000Y-194550000D02*
X80900000Y-194927500D01*
X80900000Y-194927500D02*
X81979100Y-196006600D01*
X95998800Y-196006600D02*
X97150000Y-194855400D01*
X81979100Y-196006600D02*
X95998800Y-196006600D01*
%TO.N,Net-(D13-K)*%
X95600000Y-188085000D02*
X95810000Y-187875000D01*
X95600000Y-194425000D02*
X95600000Y-188085000D01*
%TO.N,Net-(D14-K)*%
X95535000Y-171075000D02*
X89810000Y-165350000D01*
X89810000Y-165350000D02*
X89810000Y-162225000D01*
%TO.N,Net-(D15-K)*%
X87660000Y-161821400D02*
X88751400Y-160730000D01*
X94705000Y-160730000D02*
X97685000Y-157750000D01*
X88751400Y-160730000D02*
X94705000Y-160730000D01*
X87660000Y-162225000D02*
X87660000Y-161821400D01*
%TO.N,Net-(D16-K)*%
X99650000Y-150450000D02*
X95535000Y-154565000D01*
X95535000Y-154565000D02*
X95535000Y-157750000D01*
%TO.N,Net-(D17-K)*%
X94735000Y-135675000D02*
X94735000Y-127675000D01*
X94735000Y-127675000D02*
X97960000Y-124450000D01*
%TO.N,Net-(D18-K)*%
X95810000Y-124015500D02*
X96838100Y-122987400D01*
X100852500Y-123156300D02*
X106605300Y-123156300D01*
X100683600Y-122987400D02*
X100852500Y-123156300D01*
X107640800Y-122120800D02*
X107640800Y-115705800D01*
X107640800Y-115705800D02*
X105235000Y-113300000D01*
X95810000Y-124450000D02*
X95810000Y-124015500D01*
X96838100Y-122987400D02*
X100683600Y-122987400D01*
X106605300Y-123156300D02*
X107640800Y-122120800D01*
%TO.N,Net-(D19-K)*%
X103085000Y-120910000D02*
X103085000Y-113300000D01*
X103425000Y-121250000D02*
X103085000Y-120910000D01*
%TO.N,Net-(D20-K)*%
X110321600Y-129018700D02*
X109203700Y-129018700D01*
X119585000Y-113400000D02*
X118778800Y-114206200D01*
X118778800Y-114206200D02*
X112475300Y-114206200D01*
X109203700Y-129018700D02*
X108610000Y-128425000D01*
%TO.N,Net-(D21-K)*%
X111164200Y-133154200D02*
X120635000Y-142625000D01*
X106460000Y-128828600D02*
X110785600Y-133154200D01*
X110785600Y-133154200D02*
X111164200Y-133154200D01*
X106460000Y-128425000D02*
X106460000Y-128828600D01*
%TO.N,Net-(D22-K)*%
X118485000Y-142625000D02*
X118485000Y-150140000D01*
X118485000Y-150140000D02*
X118300000Y-150325000D01*
%TO.N,Net-(D23-K)*%
X106960000Y-158013600D02*
X111713000Y-162766600D01*
X131129700Y-163198600D02*
X131129700Y-163806000D01*
X130697700Y-162766600D02*
X131129700Y-163198600D01*
X111713000Y-162766600D02*
X130697700Y-162766600D01*
X106960000Y-157650000D02*
X106960000Y-158013600D01*
X128735700Y-166200000D02*
X127810000Y-166200000D01*
X131129700Y-163806000D02*
X128735700Y-166200000D01*
%TO.N,Net-(D24-K)*%
X131057200Y-182343700D02*
X129293700Y-182343700D01*
X125660000Y-165764900D02*
X127922100Y-163502800D01*
X127922100Y-163502800D02*
X130394900Y-163502800D01*
X125660000Y-166200000D02*
X125660000Y-165764900D01*
X129293700Y-182343700D02*
X129175000Y-182225000D01*
%TO.N,Net-(D25-K)*%
X127025000Y-182225000D02*
X127025000Y-189175000D01*
X127025000Y-189175000D02*
X127050000Y-189200000D01*
%TO.N,Net-(D26-K)*%
X122603300Y-158470100D02*
X119727600Y-161345800D01*
X111978700Y-194193700D02*
X112535000Y-194750000D01*
X142760000Y-159925000D02*
X141305100Y-158470100D01*
X141305100Y-158470100D02*
X122603300Y-158470100D01*
X109488700Y-194193700D02*
X111978700Y-194193700D01*
%TO.N,Net-(D27-K)*%
X140197200Y-135162800D02*
X139354700Y-135162800D01*
X142510000Y-132850000D02*
X140197200Y-135162800D01*
X140082500Y-159397500D02*
X140610000Y-159925000D01*
X138960400Y-159397500D02*
X140082500Y-159397500D01*
%TO.N,Net-(D28-K)*%
X140360000Y-132850000D02*
X138621200Y-134588800D01*
X138621200Y-134588800D02*
X138621200Y-139221200D01*
X138621200Y-139221200D02*
X140200000Y-140800000D01*
%TO.N,Net-(D29-K)*%
X163519200Y-118059200D02*
X166130600Y-118059200D01*
X162150000Y-116690000D02*
X163519200Y-118059200D01*
X161206300Y-140868700D02*
X162450000Y-139625000D01*
X166130600Y-118059200D02*
X166130600Y-118059300D01*
X160260900Y-140868700D02*
X161206300Y-140868700D01*
%TO.N,Net-(D30-K)*%
X154287700Y-117170200D02*
X155957500Y-118840000D01*
X152010000Y-106275000D02*
X153255600Y-106275000D01*
X155957500Y-118840000D02*
X162150000Y-118840000D01*
X153255600Y-106275000D02*
X153619800Y-106639200D01*
%TO.N,Net-(D31-K)*%
X143731000Y-107681000D02*
X148454000Y-107681000D01*
X148454000Y-107681000D02*
X149860000Y-106275000D01*
X142425000Y-106375000D02*
X143731000Y-107681000D01*
%TO.N,Net-(D32-K)*%
X164093800Y-155681200D02*
X160260900Y-155681200D01*
X165575000Y-154200000D02*
X164093800Y-155681200D01*
X160260900Y-167531200D02*
X158766200Y-167531200D01*
X158766200Y-167531200D02*
X157585000Y-166350000D01*
%TO.N,Net-(D33-K)*%
X155435000Y-166350000D02*
X155435000Y-166685600D01*
X157077300Y-168327900D02*
X158610200Y-168327900D01*
X157338400Y-180116800D02*
X156343200Y-180116800D01*
X155435000Y-166685600D02*
X157077300Y-168327900D01*
X156343200Y-180116800D02*
X155785000Y-180675000D01*
%TO.N,Net-(D34-K)*%
X153635000Y-187915000D02*
X153635000Y-180675000D01*
X153125000Y-188425000D02*
X153635000Y-187915000D01*
%TO.N,Net-(D35-K)*%
X159525000Y-194352200D02*
X160603500Y-193273700D01*
X162652200Y-193273700D02*
X163252300Y-193873800D01*
X159525000Y-194775000D02*
X159525000Y-194352200D01*
X163252300Y-193873900D02*
X169673900Y-193873900D01*
X169673900Y-193873900D02*
X170475000Y-194675000D01*
X163252300Y-193873800D02*
X163252300Y-193873900D01*
X160603500Y-193273700D02*
X162652200Y-193273700D01*
%TO.N,Net-(D36-K)*%
X157148000Y-195075000D02*
X140925000Y-195075000D01*
X158949300Y-193273700D02*
X157148000Y-195075000D01*
X159048300Y-193273700D02*
X158949300Y-193273700D01*
X159650000Y-192672000D02*
X159048300Y-193273700D01*
X179732000Y-192672000D02*
X159650000Y-192672000D01*
X181560000Y-194500000D02*
X179732000Y-192672000D01*
%TO.N,Net-(D37-K)*%
X158272500Y-192799500D02*
X158024900Y-193047100D01*
X182354700Y-192070300D02*
X159400800Y-192070300D01*
X159048200Y-192422900D02*
X159024200Y-192446900D01*
X159400800Y-192070300D02*
X159048200Y-192422900D01*
X158272500Y-192799500D02*
X158024900Y-193047100D01*
X158625100Y-192446900D02*
X158272500Y-192799500D01*
X158024900Y-193047100D02*
X140377300Y-193047100D01*
X159048200Y-192422900D02*
X159024200Y-192446900D01*
X138775000Y-194649400D02*
X138775000Y-195075000D01*
X159024200Y-192446900D02*
X158625100Y-192446900D01*
X188300000Y-186125000D02*
X182354700Y-192070300D01*
X140377300Y-193047100D02*
X138775000Y-194649400D01*
%TO.N,Net-(D38-K)*%
X184129900Y-185306200D02*
X185331200Y-185306200D01*
X185331200Y-185306200D02*
X186150000Y-186125000D01*
X185875000Y-176025000D02*
X184898500Y-175048500D01*
X184898500Y-175048500D02*
X184898500Y-172166800D01*
%TO.N,Net-(D39-K)*%
X199154500Y-176375000D02*
X202073300Y-173456200D01*
X197500000Y-176375000D02*
X199154500Y-176375000D01*
X208046500Y-194193700D02*
X214143700Y-194193700D01*
X214143700Y-194193700D02*
X214725000Y-194775000D01*
%TO.N,Net-(D40-K)*%
X185625000Y-166650000D02*
X195350000Y-176375000D01*
%TO.N,Net-(D41-K)*%
X183150000Y-166325000D02*
X183150000Y-160500000D01*
X183475000Y-166650000D02*
X183150000Y-166325000D01*
%TO.N,Net-(D42-K)*%
X194175000Y-155195400D02*
X194175000Y-154300000D01*
X194076600Y-160851600D02*
X194076600Y-162456500D01*
X194000000Y-160775000D02*
X194076600Y-160851600D01*
X193289200Y-156081200D02*
X194175000Y-155195400D01*
%TO.N,Net-(D43-K)*%
X188521200Y-150796200D02*
X192025000Y-154300000D01*
X185501900Y-150796200D02*
X188521200Y-150796200D01*
X193242000Y-132034900D02*
X184915100Y-132034900D01*
X184915100Y-132034900D02*
X184025000Y-132925000D01*
X184563500Y-149857800D02*
X185501900Y-150796200D01*
%TO.N,Net-(D44-K)*%
X160225000Y-132925000D02*
X153775000Y-139375000D01*
X181875000Y-132925000D02*
X160225000Y-132925000D01*
%TO.N,Net-(D45-K)*%
X165081700Y-106250000D02*
X163825000Y-106250000D01*
X170125000Y-120240000D02*
X169305400Y-120240000D01*
X169305400Y-120240000D02*
X166234100Y-117168700D01*
X165259200Y-106427500D02*
X165081700Y-106250000D01*
%TO.N,Net-(D46-K)*%
X180925000Y-103466500D02*
X182274500Y-102117000D01*
X182274500Y-102117000D02*
X212817000Y-102117000D01*
X212817000Y-102117000D02*
X214300000Y-103600000D01*
X180925000Y-103800000D02*
X180925000Y-103466500D01*
%TO.N,Net-(D47-K)*%
X224293300Y-119218300D02*
X209619000Y-119218300D01*
X211627200Y-103077200D02*
X212150000Y-103600000D01*
X210569600Y-103077200D02*
X211627200Y-103077200D01*
X225375000Y-120300000D02*
X224293300Y-119218300D01*
X209619000Y-119218300D02*
X208601600Y-118200900D01*
%TO.N,Net-(D48-K)*%
X225530700Y-117994300D02*
X225375000Y-118150000D01*
X226942500Y-117994300D02*
X225530700Y-117994300D01*
X226315500Y-106240500D02*
X226315500Y-107383000D01*
X226050000Y-105975000D02*
X226315500Y-106240500D01*
%TO.N,Net-(D49-K)*%
X202670600Y-141264400D02*
X217189900Y-141264400D01*
X217189900Y-141264400D02*
X217271100Y-141345600D01*
X243450000Y-106700000D02*
X230382800Y-106700000D01*
X230382800Y-106700000D02*
X229089900Y-107992900D01*
X201810000Y-142125000D02*
X202670600Y-141264400D01*
%TO.N,Net-(D50-K)*%
X224002400Y-140627400D02*
X226275000Y-142900000D01*
X200783500Y-140627400D02*
X224002400Y-140627400D01*
X199660000Y-142125000D02*
X199660000Y-141750900D01*
X199660000Y-141750900D02*
X200783500Y-140627400D01*
%TO.N,Net-(D51-K)*%
X232425000Y-146275000D02*
X227171500Y-146275000D01*
X224125000Y-143228500D02*
X224125000Y-142900000D01*
X227171500Y-146275000D02*
X224125000Y-143228500D01*
%TO.N,Net-(D52-K)*%
X231681300Y-152718700D02*
X230550000Y-153850000D01*
X246325200Y-133024800D02*
X246600000Y-132750000D01*
X236040300Y-133024800D02*
X246325200Y-133024800D01*
X232086900Y-152718700D02*
X231681300Y-152718700D01*
%TO.N,Net-(D53-K)*%
X229192100Y-176019800D02*
X228005200Y-176019800D01*
X228400000Y-153850000D02*
X228479100Y-153770900D01*
X228005200Y-176019800D02*
X227350000Y-176675000D01*
X228479100Y-153770900D02*
X228479100Y-152018400D01*
%TO.N,Net-(D54-K)*%
X222979500Y-176418700D02*
X224943700Y-176418700D01*
X232520000Y-194467100D02*
X233157900Y-194467100D01*
X224943700Y-176418700D02*
X225200000Y-176675000D01*
X233157900Y-194467100D02*
X234900000Y-192725000D01*
%TO.N,Net-(D55-K)*%
X240259900Y-189832400D02*
X235050000Y-184622500D01*
X253635000Y-195150000D02*
X248317400Y-189832400D01*
X235050000Y-184622500D02*
X235050000Y-184275000D01*
X248317400Y-189832400D02*
X240259900Y-189832400D01*
%TO.N,Net-(D56-K)*%
X256678800Y-152697800D02*
X254077200Y-152697800D01*
X251485000Y-196058700D02*
X252165300Y-196739000D01*
X254077200Y-152697800D02*
X253325000Y-153450000D01*
X251485000Y-195150000D02*
X251485000Y-196058700D01*
%TO.N,Net-(D57-K)*%
X257741900Y-154358100D02*
X258900000Y-153200000D01*
X251175000Y-153450000D02*
X251175000Y-153820800D01*
X252312500Y-154958300D02*
X254295200Y-154958300D01*
X254895300Y-154358100D02*
X257741900Y-154358100D01*
X254895300Y-154358200D02*
X254895300Y-154358100D01*
X251175000Y-153820800D02*
X252312500Y-154958300D01*
X254295200Y-154958300D02*
X254895300Y-154358200D01*
%TO.N,Net-(D58-K)*%
X265470000Y-140700000D02*
X265554300Y-140784300D01*
X258418200Y-121393200D02*
X256250000Y-119225000D01*
X266065900Y-121393200D02*
X258418200Y-121393200D01*
X263500000Y-140700000D02*
X265470000Y-140700000D01*
%TO.N,Net-(D59-K)*%
X261350000Y-141076100D02*
X261350000Y-140700000D01*
X277882900Y-143707900D02*
X263981800Y-143707900D01*
X280075000Y-145900000D02*
X277882900Y-143707900D01*
X263981800Y-143707900D02*
X261350000Y-141076100D01*
%TO.N,Net-(D60-K)*%
X277925000Y-145900000D02*
X277925000Y-146303600D01*
X284142700Y-147407300D02*
X285650000Y-145900000D01*
X279028700Y-147407300D02*
X284142700Y-147407300D01*
X277925000Y-146303600D02*
X279028700Y-147407300D01*
%TO.N,Net-(D61-K)*%
X268245700Y-173254300D02*
X259270000Y-173254300D01*
X269775000Y-171725000D02*
X268245700Y-173254300D01*
X264791900Y-161029800D02*
X278320200Y-161029800D01*
X278320200Y-161029800D02*
X278675000Y-160675000D01*
X259270000Y-173254300D02*
X258878200Y-172862500D01*
%TO.N,Net-(D62-K)*%
X267625000Y-171725000D02*
X261500000Y-165600000D01*
X261500000Y-165600000D02*
X238900000Y-165600000D01*
%TO.N,Net-(D63-K)*%
X218307400Y-155586200D02*
X217907300Y-155986300D01*
X237213800Y-155586200D02*
X218307400Y-155586200D01*
X217907300Y-162879900D02*
X218159100Y-163131700D01*
X218159100Y-163131700D02*
X234281700Y-163131700D01*
X239350000Y-153450000D02*
X237213800Y-155586200D01*
X234281700Y-163131700D02*
X236750000Y-165600000D01*
X217907300Y-155986300D02*
X217907300Y-162879900D01*
%TO.N,Net-(D64-K)*%
X291250000Y-193500000D02*
X286257700Y-188507700D01*
X270169100Y-188507700D02*
X267625000Y-185963600D01*
X286257700Y-188507700D02*
X270169100Y-188507700D01*
X267625000Y-185963600D02*
X267625000Y-185600000D01*
%TO.N,Net-(D65-K)*%
X292593800Y-167531200D02*
X291550000Y-168575000D01*
X289100000Y-193500000D02*
X287120300Y-193500000D01*
X287120300Y-193500000D02*
X284851500Y-191231200D01*
X294657900Y-167531200D02*
X292593800Y-167531200D01*
%TO.N,Net-(D66-K)*%
X289400000Y-168575000D02*
X288525000Y-169450000D01*
X288525000Y-169450000D02*
X288525000Y-176275000D01*
%TO.N,Net-(D67-K)*%
X301050000Y-144475000D02*
X302750000Y-142775000D01*
X301050000Y-153675000D02*
X301050000Y-144475000D01*
%TO.N,Net-(D68-K)*%
X295714100Y-142775000D02*
X294657900Y-143831200D01*
X296663100Y-123093700D02*
X295731300Y-123093700D01*
X300600000Y-142775000D02*
X295714100Y-142775000D01*
X295731300Y-123093700D02*
X294850000Y-123975000D01*
%TO.N,Net-(D69-K)*%
X297108500Y-128800000D02*
X292700000Y-124391500D01*
X292700000Y-124391500D02*
X292700000Y-123975000D01*
X300000000Y-128800000D02*
X297108500Y-128800000D01*
%TO.N,Net-(D70-K)*%
X276875000Y-112281400D02*
X278014200Y-111142200D01*
X299916500Y-114883500D02*
X301400000Y-113400000D01*
X284155900Y-114883500D02*
X299916500Y-114883500D01*
X280414600Y-111142200D02*
X284155900Y-114883500D01*
X278014200Y-111142200D02*
X280414600Y-111142200D01*
X276875000Y-112650000D02*
X276875000Y-112281400D01*
%TO.N,Net-(D71-K)*%
X299250000Y-113400000D02*
X299250000Y-113071500D01*
X300377100Y-111944400D02*
X315619400Y-111944400D01*
X299250000Y-113071500D02*
X300377100Y-111944400D01*
X315619400Y-111944400D02*
X317375000Y-113700000D01*
%TO.N,Net-(D72-K)*%
X315425000Y-113900000D02*
X315225000Y-113700000D01*
X315425000Y-120450000D02*
X315425000Y-113900000D01*
%TO.N,Net-(D73-K)*%
X320002500Y-127143900D02*
X323749100Y-127143900D01*
X318697400Y-150527600D02*
X318100000Y-151125000D01*
X321537300Y-150527600D02*
X318697400Y-150527600D01*
X318950000Y-128196400D02*
X320002500Y-127143900D01*
X318950000Y-128600000D02*
X318950000Y-128196400D01*
X323749100Y-127143900D02*
X324523900Y-127918700D01*
%TO.N,Net-(D74-K)*%
X325271700Y-168289100D02*
X323610900Y-168289100D01*
X315950000Y-151125000D02*
X315950000Y-150721400D01*
X325300100Y-149617700D02*
X327510500Y-151828100D01*
X317053700Y-149617700D02*
X325300100Y-149617700D01*
X323610900Y-168289100D02*
X323475000Y-168425000D01*
X315950000Y-150721400D02*
X317053700Y-149617700D01*
%TO.N,Net-(D75-K)*%
X321325000Y-165675000D02*
X326150000Y-160850000D01*
X321325000Y-168425000D02*
X321325000Y-165675000D01*
%TO.N,Net-(D76-K)*%
X353220100Y-194929900D02*
X322959400Y-194929900D01*
X354950000Y-193200000D02*
X353220100Y-194929900D01*
X321625000Y-193595500D02*
X321625000Y-193200000D01*
X322959400Y-194929900D02*
X321625000Y-193595500D01*
%TO.N,Net-(D77-K)*%
X351806300Y-194193700D02*
X352800000Y-193200000D01*
X355400000Y-170349400D02*
X354420800Y-171328600D01*
X351079700Y-194193700D02*
X351806300Y-194193700D01*
X355400000Y-169775000D02*
X355400000Y-170349400D01*
%TO.N,Net-(D78-K)*%
X353550000Y-177725000D02*
X353250000Y-177425000D01*
X353250000Y-177425000D02*
X353250000Y-169775000D01*
%TO.N,Net-(D79-K)*%
X342961600Y-180481700D02*
X357966200Y-180481700D01*
X364993400Y-178018400D02*
X366450000Y-179475000D01*
X335306300Y-158643700D02*
X336400000Y-157550000D01*
X340659800Y-178179900D02*
X342961600Y-180481700D01*
X357966200Y-180481700D02*
X360429500Y-178018400D01*
X360429500Y-178018400D02*
X364993400Y-178018400D01*
X333483700Y-158643700D02*
X335306300Y-158643700D01*
%TO.N,Net-(D80-K)*%
X362802900Y-179540400D02*
X364234600Y-179540400D01*
X363900000Y-157850000D02*
X363900000Y-159009600D01*
X363900000Y-159009600D02*
X363396500Y-159513100D01*
X364234600Y-179540400D02*
X364300000Y-179475000D01*
%TO.N,Net-(D81-K)*%
X354075000Y-157550000D02*
X355364900Y-156260100D01*
X355364900Y-156260100D02*
X360160100Y-156260100D01*
X360160100Y-156260100D02*
X361750000Y-157850000D01*
%TO.N,Net-(D82-K)*%
X360575000Y-135385300D02*
X361706000Y-136516300D01*
X363737500Y-136516300D02*
X364310000Y-135943800D01*
X369671200Y-120131200D02*
X367806200Y-120131200D01*
X367806200Y-120131200D02*
X367475000Y-119800000D01*
X361706000Y-136516300D02*
X363737500Y-136516300D01*
X360575000Y-135025000D02*
X360575000Y-135385300D01*
%TO.N,Net-(D83-K)*%
X365325000Y-119800000D02*
X330536700Y-119800000D01*
X330536700Y-119800000D02*
X330205500Y-120131200D01*
X329706200Y-140559100D02*
X327890900Y-140559100D01*
X327890900Y-140559100D02*
X327375000Y-141075000D01*
%TO.N,Net-(D84-K)*%
X326255300Y-139621900D02*
X325225000Y-140652200D01*
X333125000Y-140775000D02*
X331971900Y-139621900D01*
X331971900Y-139621900D02*
X326255300Y-139621900D01*
X325225000Y-140652200D02*
X325225000Y-141075000D01*
%TO.N,Net-(J2-Pin_34)*%
X219050000Y-112750000D02*
X220201700Y-112750000D01*
X220201700Y-112750000D02*
X220514800Y-112436900D01*
X275401700Y-112436900D02*
X275706800Y-112131800D01*
X220514800Y-112436900D02*
X275401700Y-112436900D01*
%TO.N,Net-(J2-Pin_3)*%
X322685400Y-114206200D02*
X319810200Y-111331000D01*
X217884500Y-110996600D02*
X217747600Y-111133500D01*
X220352400Y-111133500D02*
X220215500Y-110996600D01*
X94143200Y-114207800D02*
X94059300Y-114291700D01*
X101727800Y-110736900D02*
X101126100Y-111338600D01*
X108497800Y-110896600D02*
X108338100Y-110736900D01*
X193452400Y-111133500D02*
X193215500Y-110896600D01*
X287367200Y-110506300D02*
X259254600Y-110506300D01*
X319810200Y-111331000D02*
X292685800Y-111331000D01*
X217747600Y-111133500D02*
X193452400Y-111133500D01*
X101126100Y-111338600D02*
X95492400Y-111338600D01*
X73700000Y-115100000D02*
X74851700Y-115100000D01*
X257745900Y-111033500D02*
X257645900Y-111133500D01*
X259254600Y-110506300D02*
X258727400Y-111033500D01*
X292452400Y-111564400D02*
X288425300Y-111564400D01*
X292685800Y-111331000D02*
X292452400Y-111564400D01*
X94059300Y-114291700D02*
X75660000Y-114291700D01*
X75660000Y-114291700D02*
X74851700Y-115100000D01*
X193215500Y-110896600D02*
X108497800Y-110896600D01*
X258727400Y-111033500D02*
X257745900Y-111033500D01*
X108338100Y-110736900D02*
X101727800Y-110736900D01*
X257645900Y-111133500D02*
X220352400Y-111133500D01*
X288425300Y-111564400D02*
X287367200Y-110506300D01*
X220215500Y-110996600D02*
X217884500Y-110996600D01*
%TO.N,Net-(J2-Pin_32)*%
X207841300Y-99393700D02*
X208555000Y-98680000D01*
X208555000Y-98680000D02*
X289120000Y-98680000D01*
X289120000Y-98680000D02*
X290390000Y-97410000D01*
X193113500Y-99393700D02*
X207841300Y-99393700D01*
%TO.N,Net-(J2-Pin_28)*%
X296594200Y-170493700D02*
X341092000Y-170493700D01*
X341092000Y-170493700D02*
X344848300Y-174250000D01*
X346000000Y-174250000D02*
X344848300Y-174250000D01*
%TO.N,Net-(J2-Pin_11)*%
X310139700Y-105600300D02*
X315790000Y-99950000D01*
X283005100Y-105600300D02*
X310139700Y-105600300D01*
%TO.N,Net-(J2-Pin_12)*%
X246073400Y-178428300D02*
X245501700Y-179000000D01*
X244350000Y-179000000D02*
X245501700Y-179000000D01*
X260966400Y-178428300D02*
X246073400Y-178428300D01*
X297621100Y-178960000D02*
X261498100Y-178960000D01*
X261498100Y-178960000D02*
X260966400Y-178428300D01*
%TO.N,Net-(J2-Pin_8)*%
X289877900Y-177838900D02*
X290127000Y-177589800D01*
X277175500Y-177838900D02*
X275224900Y-175888300D01*
X178600000Y-179590000D02*
X178600000Y-178438300D01*
X289877900Y-177838900D02*
X277175500Y-177838900D01*
X275224900Y-175888300D02*
X230615200Y-175888300D01*
X289877900Y-177838900D02*
X290127000Y-177589800D01*
X312004400Y-177589800D02*
X312542100Y-177052100D01*
X228065200Y-178438300D02*
X178600000Y-178438300D01*
X230615200Y-175888300D02*
X228065200Y-178438300D01*
X290127000Y-177589800D02*
X312004400Y-177589800D01*
%TO.N,Net-(J2-Pin_33)*%
X263494300Y-101200900D02*
X181335900Y-101200900D01*
X286598300Y-101201700D02*
X284690800Y-101201700D01*
X284690800Y-101201700D02*
X284089100Y-101803400D01*
X284089100Y-101803400D02*
X264096800Y-101803400D01*
X264096800Y-101803400D02*
X263494300Y-101200900D01*
X287850000Y-99950000D02*
X286598300Y-101201700D01*
%TO.N,Net-(J2-Pin_27)*%
X274681700Y-126920000D02*
X271451700Y-130150000D01*
X270300000Y-130150000D02*
X271451700Y-130150000D01*
X286554300Y-126920000D02*
X274681700Y-126920000D01*
%TO.N,Net-(J2-Pin_17)*%
X187669500Y-139204700D02*
X181779700Y-145094500D01*
X289902100Y-140868700D02*
X288238100Y-139204700D01*
X119004500Y-151602700D02*
X115616700Y-151602700D01*
X110344000Y-146330000D02*
X89100000Y-146330000D01*
X306604300Y-140868700D02*
X289902100Y-140868700D01*
X288238100Y-139204700D02*
X187669500Y-139204700D01*
X120241000Y-150366200D02*
X119004500Y-151602700D01*
X181779700Y-145094500D02*
X124662400Y-145094500D01*
X124662400Y-145094500D02*
X120241000Y-149515900D01*
X120241000Y-149515900D02*
X120241000Y-150366200D01*
X115616700Y-151602700D02*
X110344000Y-146330000D01*
%TO.N,Net-(J2-Pin_19)*%
X302559300Y-103020700D02*
X225731400Y-103020700D01*
X224844300Y-103398300D02*
X220020400Y-108222200D01*
X305630000Y-99950000D02*
X302559300Y-103020700D01*
X192243000Y-108617600D02*
X130707200Y-108617600D01*
X225601400Y-103150700D02*
X225353800Y-103398300D01*
X130707200Y-108617600D02*
X127408300Y-105318700D01*
X225353800Y-103398300D02*
X224844300Y-103398300D01*
X192638400Y-108222200D02*
X192243000Y-108617600D01*
X225731400Y-103020700D02*
X225601400Y-103150700D01*
X225601400Y-103150700D02*
X225353800Y-103398300D01*
X220020400Y-108222200D02*
X192638400Y-108222200D01*
%TO.N,Net-(J2-Pin_35)*%
X285310000Y-99950000D02*
X285077700Y-99950000D01*
X265205400Y-100359600D02*
X265225400Y-100339600D01*
X226439100Y-100359600D02*
X265205400Y-100359600D01*
X266087500Y-101201700D02*
X265225400Y-100339600D01*
X283826000Y-101201700D02*
X266087500Y-101201700D01*
X225966100Y-99886600D02*
X226439100Y-100359600D01*
X285077700Y-99950000D02*
X283826000Y-101201700D01*
X265205400Y-100359600D02*
X265225400Y-100339600D01*
%TO.N,Net-(J2-Pin_9)*%
X186795500Y-138076900D02*
X186688800Y-138183600D01*
X318295600Y-137906200D02*
X318113700Y-137724300D01*
X186795500Y-138076900D02*
X186688800Y-138183600D01*
X187148100Y-137724300D02*
X186795500Y-138076900D01*
X318113700Y-137724300D02*
X187148100Y-137724300D01*
X186688800Y-138183600D02*
X172207300Y-138183600D01*
%TO.N,Net-(J2-Pin_25)*%
X224559200Y-104675600D02*
X221012700Y-108222100D01*
X298327500Y-104675600D02*
X224559200Y-104675600D01*
%TO.N,Net-(J2-Pin_10)*%
X260050000Y-174500000D02*
X281373600Y-174500000D01*
X281373600Y-174500000D02*
X289077700Y-166795900D01*
X315268400Y-166795900D02*
X316003700Y-167531200D01*
X289077700Y-166795900D02*
X315268400Y-166795900D01*
%TO.N,Net-(J2-Pin_16)*%
X310710000Y-97410000D02*
X309443100Y-96143100D01*
X95595700Y-96143100D02*
X92721300Y-99017500D01*
X92721300Y-99017500D02*
X90722500Y-99017500D01*
X309443100Y-96143100D02*
X95595700Y-96143100D01*
%TO.N,Net-(J2-Pin_7)*%
X217315500Y-135668500D02*
X320227800Y-135668500D01*
X215861400Y-137122600D02*
X217315500Y-135668500D01*
X177813100Y-137122600D02*
X215861400Y-137122600D01*
X177729200Y-137206500D02*
X177813100Y-137122600D01*
X320227800Y-135668500D02*
X320232800Y-135663500D01*
%TO.N,Net-(J2-Pin_23)*%
X219100000Y-161980000D02*
X220251700Y-161980000D01*
X297509000Y-162134700D02*
X300900300Y-158743400D01*
X220251700Y-161980000D02*
X220406400Y-162134700D01*
X220406400Y-162134700D02*
X297509000Y-162134700D01*
%TO.N,Net-(J2-Pin_18)*%
X300037900Y-98680000D02*
X306900000Y-98680000D01*
X284826700Y-102052500D02*
X285075800Y-101803400D01*
X285213300Y-101940900D02*
X297878400Y-101940900D01*
X306900000Y-98680000D02*
X308170000Y-97410000D01*
X285075800Y-101803400D02*
X285213300Y-101940900D01*
X284474100Y-102405100D02*
X221391100Y-102405100D01*
X165557900Y-101156500D02*
X128608000Y-101156500D01*
X73400000Y-145750000D02*
X74551700Y-145750000D01*
X217703000Y-106093200D02*
X170494600Y-106093200D01*
X75123400Y-145178300D02*
X111128200Y-145178300D01*
X297878400Y-101940900D02*
X299280000Y-100539300D01*
X170494600Y-106093200D02*
X165557900Y-101156500D01*
X74551700Y-145750000D02*
X75123400Y-145178300D01*
X284826700Y-102052500D02*
X285075800Y-101803400D01*
X284826700Y-102052500D02*
X284474100Y-102405100D01*
X299280000Y-100539300D02*
X299280000Y-99437900D01*
X221391100Y-102405100D02*
X217703000Y-106093200D01*
X299280000Y-99437900D02*
X300037900Y-98680000D01*
%TO.N,Net-(J2-Pin_2)*%
X257558100Y-109268700D02*
X257205500Y-109621300D01*
X233459100Y-110394900D02*
X217635400Y-110394900D01*
X256957900Y-109868900D02*
X235365200Y-109868900D01*
X217635400Y-110394900D02*
X217498500Y-110531800D01*
X288042500Y-109268700D02*
X257558100Y-109268700D01*
X108747000Y-110294900D02*
X108587300Y-110135200D01*
X101037800Y-110576100D02*
X91680200Y-110576100D01*
X193701500Y-110531800D02*
X193464600Y-110294900D01*
X101126100Y-110487800D02*
X101037800Y-110576100D01*
X101126100Y-110487800D02*
X101037800Y-110576100D01*
X324701300Y-114383600D02*
X320446800Y-110129100D01*
X257205500Y-109621300D02*
X256957900Y-109868900D01*
X320446800Y-110129100D02*
X288902900Y-110129100D01*
X193464600Y-110294900D02*
X108747000Y-110294900D01*
X108587300Y-110135200D02*
X101478700Y-110135200D01*
X257205500Y-109621300D02*
X256957900Y-109868900D01*
X234124000Y-109730000D02*
X233459100Y-110394900D01*
X235226300Y-109730000D02*
X234124000Y-109730000D01*
X217498500Y-110531800D02*
X193701500Y-110531800D01*
X288902900Y-110129100D02*
X288042500Y-109268700D01*
X235365200Y-109868900D02*
X235226300Y-109730000D01*
X101478700Y-110135200D02*
X101126100Y-110487800D01*
%TO.N,Net-(J2-Pin_6)*%
X311625600Y-180220000D02*
X313585600Y-178260000D01*
X177103700Y-180161700D02*
X177103700Y-180161800D01*
X297371000Y-180220000D02*
X311625600Y-180220000D01*
X161098000Y-180161700D02*
X177103700Y-180161700D01*
X74601700Y-178600000D02*
X76406700Y-180405000D01*
X177697700Y-180755800D02*
X241892100Y-180755800D01*
X296859300Y-180731700D02*
X297371000Y-180220000D01*
X76406700Y-180405000D02*
X98833200Y-180405000D01*
X118079700Y-178376800D02*
X159313100Y-178376800D01*
X259133600Y-180731700D02*
X296859300Y-180731700D01*
X99018200Y-180220000D02*
X116236500Y-180220000D01*
X159313100Y-178376800D02*
X161098000Y-180161700D01*
X242259600Y-180388300D02*
X258790200Y-180388300D01*
X241892100Y-180755800D02*
X242259600Y-180388300D01*
X73450000Y-178600000D02*
X74601700Y-178600000D01*
X177103700Y-180161800D02*
X177697700Y-180755800D01*
X313585600Y-178260000D02*
X317141500Y-178260000D01*
X98833200Y-180405000D02*
X99018200Y-180220000D01*
X258790200Y-180388300D02*
X259133600Y-180731700D01*
X116236500Y-180220000D02*
X118079700Y-178376800D01*
%TO.N,Net-(J2-Pin_30)*%
X323620500Y-173222200D02*
X294423800Y-173222200D01*
X330300000Y-178750000D02*
X329148300Y-178750000D01*
X292930000Y-97410000D02*
X294200000Y-98680000D01*
X329148300Y-178750000D02*
X323620500Y-173222200D01*
X294200000Y-100520100D02*
X294919100Y-101239200D01*
X294919100Y-101239200D02*
X297375000Y-101239200D01*
X294200000Y-98680000D02*
X294200000Y-100520100D01*
%TO.N,Net-(J2-Pin_29)*%
X332065000Y-112120000D02*
X332209100Y-112120000D01*
X329214400Y-109269400D02*
X292521400Y-109269400D01*
X331964400Y-112019400D02*
X332065000Y-112120000D01*
X331964400Y-112019400D02*
X329214400Y-109269400D01*
%TO.N,Net-(J2-Pin_4)*%
X325950000Y-97410000D02*
X324081400Y-95541400D01*
X324081400Y-95541400D02*
X94594700Y-95541400D01*
X94594700Y-95541400D02*
X92643000Y-97493100D01*
%TO.N,Net-(J2-Pin_36)*%
X208046500Y-98196200D02*
X209114900Y-97127800D01*
X209114900Y-97127800D02*
X278805800Y-97127800D01*
%TO.N,Net-(J2-Pin_21)*%
X187044600Y-138678600D02*
X186795500Y-138927700D01*
X302416000Y-138326000D02*
X187397200Y-138326000D01*
X181230400Y-144492800D02*
X119314900Y-144492800D01*
X187397200Y-138326000D02*
X187044600Y-138678600D01*
X119314900Y-144492800D02*
X119313400Y-144494300D01*
X186795500Y-138927700D02*
X181230400Y-144492800D01*
X303017700Y-138927700D02*
X302416000Y-138326000D01*
X187044600Y-138678600D02*
X186795500Y-138927700D01*
%TO.N,Net-(J2-Pin_5)*%
X235475400Y-109128300D02*
X230903700Y-109128300D01*
X289845400Y-107875500D02*
X289053900Y-108667000D01*
X256956400Y-109019600D02*
X256747200Y-109228800D01*
X323410000Y-99950000D02*
X315484500Y-107875500D01*
X108488300Y-109185400D02*
X87469800Y-109185400D01*
X235575900Y-109228800D02*
X235475400Y-109128300D01*
X289053900Y-108667000D02*
X257309000Y-108667000D01*
X230903700Y-109128300D02*
X230406400Y-109625600D01*
X315484500Y-107875500D02*
X289845400Y-107875500D01*
X108928500Y-109625600D02*
X108488300Y-109185400D01*
X257309000Y-108667000D02*
X256956400Y-109019600D01*
X256956400Y-109019600D02*
X256747200Y-109228800D01*
X230406400Y-109625600D02*
X108928500Y-109625600D01*
X256747200Y-109228800D02*
X235575900Y-109228800D01*
%TO.N,Net-(J2-Pin_22)*%
X219100000Y-156900000D02*
X220251700Y-156900000D01*
X298857500Y-157024500D02*
X220376200Y-157024500D01*
X220376200Y-157024500D02*
X220251700Y-156900000D01*
X300238900Y-155643100D02*
X298857500Y-157024500D01*
%TO.N,Net-(J2-Pin_1)*%
X193201700Y-111733700D02*
X193201700Y-111733600D01*
X258036400Y-111735200D02*
X266020700Y-111735200D01*
X309440000Y-99436400D02*
X309440000Y-100462600D01*
X327238300Y-99950000D02*
X327238300Y-99402300D01*
X190896800Y-111735100D02*
X190896800Y-111735200D01*
X220103300Y-111735200D02*
X219966400Y-111598300D01*
X326534300Y-98698300D02*
X310178100Y-98698300D01*
X192966400Y-111498300D02*
X191133600Y-111498300D01*
X89400000Y-110600000D02*
X90551700Y-110600000D01*
X101880500Y-111735200D02*
X101535200Y-112080500D01*
X266020700Y-103750900D02*
X267002500Y-103750900D01*
X306151700Y-103750900D02*
X267002500Y-103750900D01*
X193201700Y-111733600D02*
X192966400Y-111498300D01*
X258036400Y-111735200D02*
X220103300Y-111735200D01*
X309440000Y-100462600D02*
X306151700Y-103750900D01*
X190896800Y-111735200D02*
X101880500Y-111735200D01*
X193203200Y-111735200D02*
X193201700Y-111733700D01*
X267002500Y-103750900D02*
X266020700Y-103750900D01*
X101535200Y-112080500D02*
X92032200Y-112080500D01*
X191133600Y-111498300D02*
X190896800Y-111735100D01*
X92032200Y-112080500D02*
X90551700Y-110600000D01*
X328490000Y-99950000D02*
X327238300Y-99950000D01*
X310178100Y-98698300D02*
X309440000Y-99436400D01*
X219966400Y-111598300D02*
X218133600Y-111598300D01*
X266020700Y-111735200D02*
X258036400Y-111735200D01*
X327238300Y-99402300D02*
X326534300Y-98698300D01*
X218133600Y-111598300D02*
X217996700Y-111735200D01*
X217996700Y-111735200D02*
X193203200Y-111735200D01*
%TO.N,Net-(J2-Pin_31)*%
X235809200Y-108611300D02*
X235724500Y-108526600D01*
X288684700Y-107915100D02*
X257210100Y-107915100D01*
X256707300Y-108417900D02*
X256513900Y-108611300D01*
X229957100Y-108923900D02*
X192928900Y-108923900D01*
X256707300Y-108417900D02*
X256513900Y-108611300D01*
X257210100Y-107915100D02*
X256707300Y-108417900D01*
X235724500Y-108526600D02*
X230354400Y-108526600D01*
X230354400Y-108526600D02*
X229957100Y-108923900D01*
X256513900Y-108611300D02*
X235809200Y-108611300D01*
%TO.N,Net-(J2-Pin_20)*%
X121435100Y-197804500D02*
X283438900Y-197804500D01*
X283438900Y-197804500D02*
X285698100Y-200063700D01*
%TD*%
M02*
