M48
; DRILL file {KiCad 9.0.2} date 2025-07-13T15:23:57+0200
; FORMAT={-:-/ absolute / inch / decimal}
; #@! TF.CreationDate,2025-07-13T15:23:57+02:00
; #@! TF.GenerationSoftware,Kicad,Pcbnew,9.0.2
; #@! TF.FileFunction,Plated,1,2,PTH
FMAT,2
INCH
; #@! TA.AperFunction,Plated,PTH,ViaDrill
T1C0.0118
; #@! TA.AperFunction,Plated,PTH,ComponentDrill
T2C0.0236
; #@! TA.AperFunction,Plated,PTH,ComponentDrill
T3C0.0315
; #@! TA.AperFunction,Plated,PTH,ComponentDrill
T4C0.0315
; #@! TA.AperFunction,Plated,PTH,ComponentDrill
T5C0.0394
; #@! TA.AperFunction,Plated,PTH,ComponentDrill
T6C0.0598
%
G90
G05
T1
X2.4018Y-5.7005
X2.5468Y-6.3718
X2.5607Y-6.7124
X2.662Y-7.2931
X2.6644Y-4.4813
X2.6644Y-5.6626
X2.6644Y-6.3624
X2.6978Y-6.7124
X2.7778Y-5.4271
X2.782Y-4.0298
X2.8628Y-6.3889
X3.4437Y-4.2986
X3.5718Y-3.8983
X3.6095Y-4.3534
X3.6474Y-3.8383
X3.6812Y-4.4412
X3.6997Y-4.0298
X3.7064Y-4.4964
X3.7595Y-4.3834
X4.3106Y-7.6454
X4.3434Y-5.0795
X4.3751Y-5.7157
X4.4282Y-4.4963
X4.6974Y-5.6888
X4.7137Y-6.3522
X4.7809Y-7.4122
X4.7809Y-7.7876
X5.0161Y-4.1464
X5.0633Y-3.9825
X5.1337Y-6.4371
X5.1597Y-7.1789
X5.2512Y-4.0364
X5.2512Y-4.4963
X5.4709Y-6.2755
X5.4864Y-5.3214
X5.7216Y-5.8959
X5.8392Y-4.7801
X6.048Y-4.1984
X6.0743Y-4.613
X6.1944Y-7.0912
X6.2438Y-6.1623
X6.2445Y-6.6271
X6.3095Y-5.546
X6.3095Y-6.1292
X6.3095Y-6.5957
X6.4462Y-7.6722
X6.5063Y-4.1901
X6.5406Y-4.648
X6.5446Y-4.6129
X6.5626Y-5.546
X6.6313Y-4.642
X6.6829Y-6.054
X6.7217Y-4.1338
X6.7798Y-4.2485
X6.7798Y-5.4403
X6.8543Y-5.385
X6.9077Y-7.6604
X6.9972Y-5.4018
X7.0399Y-4.4776
X7.0958Y-4.4839
X7.1001Y-5.8668
X7.127Y-5.3151
X7.1326Y-5.8145
X7.1392Y-3.9843
X7.1534Y-4.585
X7.2045Y-4.6919
X7.2492Y-7.2955
X7.2663Y-5.8999
X7.2717Y-6.3259
X7.2795Y-5.0492
X7.2795Y-6.7782
X7.3677Y-5.6769
X7.3777Y-5.8619
X7.3902Y-6.0206
X7.4034Y-5.5199
X7.4874Y-6.166
X7.5322Y-5.0559
X7.5776Y-4.809
X7.594Y-4.8542
X7.5956Y-4.2883
X7.6029Y-3.9131
X7.6029Y-4.9662
X7.608Y-5.1982
X7.6098Y-6.1449
X7.6326Y-5.0472
X7.6408Y-6.3959
X7.7313Y-5.3197
X7.7357Y-5.6652
X7.9484Y-5.3173
X7.9556Y-6.829
X8.0739Y-5.5082
X8.1908Y-3.866
X8.1908Y-7.6454
X8.2127Y-4.6536
X8.2901Y-4.0582
X8.554Y-5.5648
X8.6877Y-6.1531
X8.7013Y-4.2607
X8.7442Y-5.3946
X8.7787Y-4.2565
X8.7787Y-6.9456
X8.8963Y-3.9325
X8.9101Y-4.2277
X8.9347Y-4.6454
X8.9952Y-5.985
X9.0139Y-5.8022
X9.0193Y-4.2517
X9.0233Y-6.9299
X9.1095Y-5.9132
X9.1373Y-6.0125
X9.1543Y-7.6562
X9.2491Y-5.26
X9.2494Y-4.3477
X9.2929Y-5.2372
X9.356Y-5.9066
X9.5665Y-7.5055
X9.5776Y-7.2955
X9.6018Y-7.5288
X9.7444Y-4.2422
X9.8319Y-4.6129
X9.8319Y-5.1642
X9.9278Y-7.7456
X10.1055Y-6.0117
X10.1459Y-6.1244
X10.1589Y-4.399
X10.1921Y-6.8056
X10.4249Y-6.3398
X10.4549Y-5.5427
X10.475Y-4.7793
X10.5119Y-4.0847
X10.8546Y-4.4146
X10.9766Y-3.8239
X11.1419Y-4.1575
X11.2146Y-7.5288
X11.248Y-7.8765
X11.2817Y-4.9969
X11.3655Y-4.2486
X11.3655Y-5.657
X11.3688Y-4.3647
X11.3936Y-4.3037
X11.5166Y-4.3019
X11.5915Y-6.8198
X11.6007Y-5.6626
X11.6007Y-6.5957
X11.6769Y-6.7124
X11.6796Y-4.8462
X11.7077Y-3.9858
X11.7174Y-7.0457
X11.7452Y-4.1211
X11.8204Y-6.1277
X11.8465Y-6.2497
X11.9298Y-5.4696
X12.071Y-5.546
X12.3048Y-6.9706
X12.4411Y-6.5957
X12.4859Y-7.0181
X12.5313Y-5.4294
X12.6076Y-5.3411
X12.6589Y-5.9263
X12.7041Y-4.4963
X12.7765Y-5.0362
X12.7835Y-4.5033
X12.806Y-6.6256
X12.8207Y-5.3779
X12.8941Y-5.9775
X12.9706Y-6.394
X12.9735Y-5.1961
X12.9784Y-5.5844
X12.9806Y-5.5338
X13.0002Y-4.7296
X13.0117Y-7.5288
X13.0245Y-6.0125
X13.0294Y-6.3041
X13.0791Y-4.4142
X13.1195Y-4.2421
X13.1293Y-6.2458
X13.2469Y-5.4294
X13.4118Y-7.015
X13.822Y-7.6454
X13.9536Y-6.7452
X13.9885Y-6.1992
X14.1746Y-6.2458
X14.2836Y-7.0685
X14.3069Y-6.28
X14.3429Y-5.3127
X14.3429Y-5.3521
X14.554Y-4.7296
T2
X2.8898Y-5.7382
X2.8898Y-5.8382
X2.8917Y-7.0315
X2.8917Y-7.1315
X2.9016Y-4.5315
X2.9016Y-4.6315
X3.5079Y-5.561
X3.5079Y-5.661
X3.5079Y-5.761
X3.5079Y-5.861
X3.5098Y-6.8543
X3.5098Y-6.9543
X3.5098Y-7.0543
X3.5098Y-7.1543
X3.5197Y-4.3543
X3.5197Y-4.4543
X3.5197Y-4.5543
X3.5197Y-4.6543
X4.1201Y-7.0453
X4.1201Y-7.1453
X4.7382Y-6.8681
X4.7382Y-6.9681
X4.7382Y-7.0681
X4.7382Y-7.1681
X6.4134Y-7.0476
X6.4134Y-7.1476
X6.9429Y-4.6122
X6.9429Y-4.7122
X7.0315Y-6.8705
X7.0315Y-6.9705
X7.0315Y-7.0705
X7.0315Y-7.1705
X7.561Y-4.435
X7.561Y-4.535
X7.561Y-4.635
X7.561Y-4.735
X8.0059Y-4.6161
X8.0059Y-4.7161
X8.0079Y-6.3543
X8.0079Y-6.4543
X8.624Y-4.439
X8.624Y-4.539
X8.624Y-4.639
X8.624Y-4.739
X8.626Y-6.1772
X8.626Y-6.2772
X8.626Y-6.3772
X8.626Y-6.4772
X9.6201Y-7.0472
X9.6201Y-7.1472
X10.2382Y-6.8701
X10.2382Y-6.9701
X10.2382Y-7.0701
X10.2382Y-7.1701
X10.6417Y-5.124
X10.6417Y-5.224
X11.2598Y-4.9469
X11.2598Y-5.0469
X11.2598Y-5.1469
X11.2598Y-5.2469
X11.7736Y-7.0453
X11.7736Y-7.1453
X12.3917Y-6.8681
X12.3917Y-6.9681
X12.3917Y-7.0681
X12.3917Y-7.1681
X13.0039Y-7.0374
X13.0039Y-7.1374
X13.622Y-6.8602
X13.622Y-6.9602
X13.622Y-7.0602
X13.622Y-7.1602
T3
X6.8543Y-5.7835
X6.9528Y-5.7835
X8.0933Y-5.6102
X8.4933Y-5.6102
T4
X5.5284Y-4.9096
X5.5285Y-4.5096
X5.6284Y-4.5096
X5.6284Y-4.9096
X5.7284Y-4.5096
X5.7284Y-4.9096
X5.8284Y-4.5096
X5.8284Y-4.9096
X5.9284Y-4.5096
X5.9284Y-4.9096
X6.0284Y-4.5096
X6.0284Y-4.9096
X9.2289Y-4.9082
X9.229Y-4.5082
X9.3289Y-4.5082
X9.3289Y-4.9082
X9.4289Y-4.5082
X9.4289Y-4.9082
X9.5289Y-4.5082
X9.5289Y-4.9082
X9.6289Y-4.5082
X9.6289Y-4.9082
X9.7289Y-4.5082
X9.7289Y-4.9082
T5
X11.0327Y-3.835
X11.0327Y-3.935
X11.1327Y-3.835
X11.1327Y-3.935
X11.2327Y-3.835
X11.2327Y-3.935
X11.3327Y-3.835
X11.3327Y-3.935
X11.4327Y-3.835
X11.4327Y-3.935
X11.5327Y-3.835
X11.5327Y-3.935
X11.6327Y-3.835
X11.6327Y-3.935
X11.7327Y-3.835
X11.7327Y-3.935
X11.8327Y-3.835
X11.8327Y-3.935
X11.9327Y-3.835
X11.9327Y-3.935
X12.0327Y-3.835
X12.0327Y-3.935
X12.1327Y-3.835
X12.1327Y-3.935
X12.2327Y-3.835
X12.2327Y-3.935
X12.3327Y-3.835
X12.3327Y-3.935
X12.4327Y-3.835
X12.4327Y-3.935
X12.5327Y-3.835
X12.5327Y-3.935
X12.6327Y-3.835
X12.6327Y-3.935
X12.7327Y-3.835
X12.7327Y-3.935
X12.8327Y-3.835
X12.8327Y-3.935
X12.9327Y-3.835
X12.9327Y-3.935
X13.2055Y-3.8602
X13.3055Y-3.8602
X13.4055Y-3.8602
X13.5055Y-3.8602
T6
X2.461Y-7.7736
X2.661Y-7.7736
X5.1289Y-3.9006
X5.3289Y-3.9006
X13.7559Y-3.9094
X13.9559Y-3.9094
M30
