%TF.GenerationSoftware,KiCad,Pcbnew,9.0.2*%
%TF.CreationDate,2025-07-13T15:23:57+02:00*%
%TF.ProjectId,elec,656c6563-2e6b-4696-9361-645f70636258,rev?*%
%TF.SameCoordinates,Original*%
%TF.FileFunction,Copper,L2,Bot*%
%TF.FilePolarity,Positive*%
%FSLAX46Y46*%
G04 Gerber Fmt 4.6, Leading zero omitted, Abs format (unit mm)*
G04 Created by KiCad (PCBNEW 9.0.2) date 2025-07-13 15:23:57*
%MOMM*%
%LPD*%
G01*
G04 APERTURE LIST*
G04 Aperture macros list*
%AMRoundRect*
0 Rectangle with rounded corners*
0 $1 Rounding radius*
0 $2 $3 $4 $5 $6 $7 $8 $9 X,Y pos of 4 corners*
0 Add a 4 corners polygon primitive as box body*
4,1,4,$2,$3,$4,$5,$6,$7,$8,$9,$2,$3,0*
0 Add four circle primitives for the rounded corners*
1,1,$1+$1,$2,$3*
1,1,$1+$1,$4,$5*
1,1,$1+$1,$6,$7*
1,1,$1+$1,$8,$9*
0 Add four rect primitives between the rounded corners*
20,1,$1+$1,$2,$3,$4,$5,0*
20,1,$1+$1,$4,$5,$6,$7,0*
20,1,$1+$1,$6,$7,$8,$9,0*
20,1,$1+$1,$8,$9,$2,$3,0*%
G04 Aperture macros list end*
%TA.AperFunction,ComponentPad*%
%ADD10R,1.500000X1.500000*%
%TD*%
%TA.AperFunction,ComponentPad*%
%ADD11R,1.501140X1.930400*%
%TD*%
%TA.AperFunction,ComponentPad*%
%ADD12O,1.501140X1.930400*%
%TD*%
%TA.AperFunction,ComponentPad*%
%ADD13O,1.168400X1.168400*%
%TD*%
%TA.AperFunction,ComponentPad*%
%ADD14R,3.000000X3.000000*%
%TD*%
%TA.AperFunction,ComponentPad*%
%ADD15C,3.000000*%
%TD*%
%TA.AperFunction,ComponentPad*%
%ADD16R,1.700000X1.700000*%
%TD*%
%TA.AperFunction,ComponentPad*%
%ADD17C,1.700000*%
%TD*%
%TA.AperFunction,SMDPad,CuDef*%
%ADD18RoundRect,0.250000X-1.500000X-0.650000X1.500000X-0.650000X1.500000X0.650000X-1.500000X0.650000X0*%
%TD*%
%TA.AperFunction,SMDPad,CuDef*%
%ADD19RoundRect,0.250000X0.650000X-0.412500X0.650000X0.412500X-0.650000X0.412500X-0.650000X-0.412500X0*%
%TD*%
%TA.AperFunction,ComponentPad*%
%ADD20C,1.600000*%
%TD*%
%TA.AperFunction,ComponentPad*%
%ADD21RoundRect,0.250000X0.550000X0.550000X-0.550000X0.550000X-0.550000X-0.550000X0.550000X-0.550000X0*%
%TD*%
%TA.AperFunction,SMDPad,CuDef*%
%ADD22RoundRect,0.150000X0.150000X-0.875000X0.150000X0.875000X-0.150000X0.875000X-0.150000X-0.875000X0*%
%TD*%
%TA.AperFunction,ViaPad*%
%ADD23C,0.600000*%
%TD*%
%TA.AperFunction,Conductor*%
%ADD24C,0.400000*%
%TD*%
%TA.AperFunction,Conductor*%
%ADD25C,0.600000*%
%TD*%
G04 APERTURE END LIST*
D10*
%TO.P,KR8,1,+5V_TOP_LED*%
%TO.N,Net-(J2-Pin_24)*%
X286000000Y-125650000D03*
%TO.P,KR8,2,GND_TOP_LED*%
%TO.N,GND*%
X286000000Y-128190000D03*
%TO.P,KR8,3,+5V_BOTTOM_LED*%
%TO.N,Net-(J2-Pin_26)*%
X286000000Y-130730000D03*
%TO.P,KR8,4,GND_BOTTOM_LED*%
%TO.N,GND*%
X286000000Y-133270000D03*
%TO.P,KR8,5,SW_IN*%
%TO.N,Net-(J2-Pin_27)*%
X270300000Y-130150000D03*
%TO.P,KR8,6,SW_OUT*%
%TO.N,GND*%
X270300000Y-132690000D03*
%TD*%
%TO.P,KR3,1,+5V_TOP_LED*%
%TO.N,Net-(J2-Pin_4)*%
X89150000Y-174100000D03*
%TO.P,KR3,2,GND_TOP_LED*%
%TO.N,GND*%
X89150000Y-176640000D03*
%TO.P,KR3,3,+5V_BOTTOM_LED*%
%TO.N,Net-(J2-Pin_5)*%
X89150000Y-179180000D03*
%TO.P,KR3,4,GND_BOTTOM_LED*%
%TO.N,GND*%
X89150000Y-181720000D03*
%TO.P,KR3,5,SW_IN*%
%TO.N,Net-(J2-Pin_6)*%
X73450000Y-178600000D03*
%TO.P,KR3,6,SW_OUT*%
%TO.N,GND*%
X73450000Y-181140000D03*
%TD*%
%TO.P,KR11,1,+5V_TOP_LED*%
%TO.N,Net-(J2-Pin_31)*%
X192050000Y-112650000D03*
%TO.P,KR11,2,GND_TOP_LED*%
%TO.N,GND*%
X192050000Y-115190000D03*
%TO.P,KR11,3,+5V_BOTTOM_LED*%
%TO.N,Net-(J2-Pin_32)*%
X192050000Y-117730000D03*
%TO.P,KR11,4,GND_BOTTOM_LED*%
%TO.N,GND*%
X192050000Y-120270000D03*
%TO.P,KR11,5,SW_IN*%
%TO.N,Net-(J2-Pin_33)*%
X176350000Y-117150000D03*
%TO.P,KR11,6,SW_OUT*%
%TO.N,GND*%
X176350000Y-119690000D03*
%TD*%
%TO.P,KR7,1,+5V_TOP_LED*%
%TO.N,Net-(J2-Pin_10)*%
X260050000Y-174500000D03*
%TO.P,KR7,2,GND_TOP_LED*%
%TO.N,GND*%
X260050000Y-177040000D03*
%TO.P,KR7,3,+5V_BOTTOM_LED*%
%TO.N,Net-(J2-Pin_11)*%
X260050000Y-179580000D03*
%TO.P,KR7,4,GND_BOTTOM_LED*%
%TO.N,GND*%
X260050000Y-182120000D03*
%TO.P,KR7,5,SW_IN*%
%TO.N,Net-(J2-Pin_12)*%
X244350000Y-179000000D03*
%TO.P,KR7,6,SW_OUT*%
%TO.N,GND*%
X244350000Y-181540000D03*
%TD*%
%TO.P,KR1,1,+5V_TOP_LED*%
%TO.N,Net-(J2-Pin_1)*%
X89400000Y-110600000D03*
%TO.P,KR1,2,GND_TOP_LED*%
%TO.N,GND*%
X89400000Y-113140000D03*
%TO.P,KR1,3,+5V_BOTTOM_LED*%
%TO.N,Net-(J2-Pin_2)*%
X89400000Y-115680000D03*
%TO.P,KR1,4,GND_BOTTOM_LED*%
%TO.N,GND*%
X89400000Y-118220000D03*
%TO.P,KR1,5,SW_IN*%
%TO.N,Net-(J2-Pin_3)*%
X73700000Y-115100000D03*
%TO.P,KR1,6,SW_OUT*%
%TO.N,GND*%
X73700000Y-117640000D03*
%TD*%
%TO.P,KR9,1,+5V_TOP_LED*%
%TO.N,Net-(J2-Pin_13)*%
X314750000Y-174450000D03*
%TO.P,KR9,2,GND_TOP_LED*%
%TO.N,GND*%
X314750000Y-176990000D03*
%TO.P,KR9,3,+5V_BOTTOM_LED*%
%TO.N,Net-(J2-Pin_14)*%
X314750000Y-179530000D03*
%TO.P,KR9,4,GND_BOTTOM_LED*%
%TO.N,GND*%
X314750000Y-182070000D03*
%TO.P,KR9,5,SW_IN*%
%TO.N,Net-(J2-Pin_15)*%
X299050000Y-178950000D03*
%TO.P,KR9,6,SW_OUT*%
%TO.N,GND*%
X299050000Y-181490000D03*
%TD*%
%TO.P,KR10,1,+5V_TOP_LED*%
%TO.N,Net-(J2-Pin_28)*%
X346000000Y-174250000D03*
%TO.P,KR10,2,GND_TOP_LED*%
%TO.N,GND*%
X346000000Y-176790000D03*
%TO.P,KR10,3,+5V_BOTTOM_LED*%
%TO.N,Net-(J2-Pin_29)*%
X346000000Y-179330000D03*
%TO.P,KR10,4,GND_BOTTOM_LED*%
%TO.N,GND*%
X346000000Y-181870000D03*
%TO.P,KR10,5,SW_IN*%
%TO.N,Net-(J2-Pin_30)*%
X330300000Y-178750000D03*
%TO.P,KR10,6,SW_OUT*%
%TO.N,GND*%
X330300000Y-181290000D03*
%TD*%
D11*
%TO.P,S1,1,e*%
%TO.N,/A_SegE*%
X140421400Y-124705000D03*
D12*
%TO.P,S1,2,d*%
%TO.N,/A_SegD*%
X142961400Y-124705000D03*
%TO.P,S1,3,dp*%
%TO.N,/A_SegDP*%
X145501400Y-124705000D03*
%TO.P,S1,4,c*%
%TO.N,/A_SegC*%
X148041400Y-124705000D03*
%TO.P,S1,5,g*%
%TO.N,/A_SegG*%
X150581400Y-124705000D03*
D13*
%TO.P,S1,6*%
%TO.N,N/C*%
X153121400Y-124705000D03*
D12*
%TO.P,S1,7,b*%
%TO.N,/A_SegB*%
X153121400Y-114545000D03*
%TO.P,S1,8,A1*%
%TO.N,/A0*%
X150581400Y-114545000D03*
%TO.P,S1,9,A2*%
%TO.N,/A1*%
X148041400Y-114545000D03*
%TO.P,S1,10,f*%
%TO.N,/A_SegF*%
X145501400Y-114545000D03*
%TO.P,S1,11,a*%
%TO.N,/A_SegA*%
X142961400Y-114545000D03*
%TO.P,S1,12,A3*%
%TO.N,/A2*%
X140423940Y-114545000D03*
%TD*%
D10*
%TO.P,KR5,1,+5V_TOP_LED*%
%TO.N,Net-(J2-Pin_7)*%
X178600000Y-174510000D03*
%TO.P,KR5,2,GND_TOP_LED*%
%TO.N,GND*%
X178600000Y-177050000D03*
%TO.P,KR5,3,+5V_BOTTOM_LED*%
%TO.N,Net-(J2-Pin_8)*%
X178600000Y-179590000D03*
%TO.P,KR5,4,GND_BOTTOM_LED*%
%TO.N,GND*%
X178600000Y-182130000D03*
%TO.P,KR5,5,SW_IN*%
%TO.N,Net-(J2-Pin_9)*%
X162900000Y-179010000D03*
%TO.P,KR5,6,SW_OUT*%
%TO.N,GND*%
X162900000Y-181550000D03*
%TD*%
%TO.P,KR12,1,+5V_TOP_LED*%
%TO.N,Net-(J2-Pin_34)*%
X219050000Y-112750000D03*
%TO.P,KR12,2,GND_TOP_LED*%
%TO.N,GND*%
X219050000Y-115290000D03*
%TO.P,KR12,3,+5V_BOTTOM_LED*%
%TO.N,Net-(J2-Pin_35)*%
X219050000Y-117830000D03*
%TO.P,KR12,4,GND_BOTTOM_LED*%
%TO.N,GND*%
X219050000Y-120370000D03*
%TO.P,KR12,5,SW_IN*%
%TO.N,Net-(J2-Pin_36)*%
X203350000Y-117250000D03*
%TO.P,KR12,6,SW_OUT*%
%TO.N,GND*%
X203350000Y-119790000D03*
%TD*%
%TO.P,KR2,1,+5V_TOP_LED*%
%TO.N,Net-(J2-Pin_16)*%
X89100000Y-141250000D03*
%TO.P,KR2,2,GND_TOP_LED*%
%TO.N,GND*%
X89100000Y-143790000D03*
%TO.P,KR2,3,+5V_BOTTOM_LED*%
%TO.N,Net-(J2-Pin_17)*%
X89100000Y-146330000D03*
%TO.P,KR2,4,GND_BOTTOM_LED*%
%TO.N,GND*%
X89100000Y-148870000D03*
%TO.P,KR2,5,SW_IN*%
%TO.N,Net-(J2-Pin_18)*%
X73400000Y-145750000D03*
%TO.P,KR2,6,SW_OUT*%
%TO.N,GND*%
X73400000Y-148290000D03*
%TD*%
D11*
%TO.P,S2,1,e*%
%TO.N,/A_SegE*%
X234415200Y-124669300D03*
D12*
%TO.P,S2,2,d*%
%TO.N,/A_SegD*%
X236955200Y-124669300D03*
%TO.P,S2,3,dp*%
%TO.N,/A_SegDP*%
X239495200Y-124669300D03*
%TO.P,S2,4,c*%
%TO.N,/A_SegC*%
X242035200Y-124669300D03*
%TO.P,S2,5,g*%
%TO.N,/A_SegG*%
X244575200Y-124669300D03*
D13*
%TO.P,S2,6*%
%TO.N,N/C*%
X247115200Y-124669300D03*
D12*
%TO.P,S2,7,b*%
%TO.N,/A_SegB*%
X247115200Y-114509300D03*
%TO.P,S2,8,A1*%
%TO.N,/A3*%
X244575200Y-114509300D03*
%TO.P,S2,9,A2*%
%TO.N,/A4*%
X242035200Y-114509300D03*
%TO.P,S2,10,f*%
%TO.N,/A_SegF*%
X239495200Y-114509300D03*
%TO.P,S2,11,a*%
%TO.N,/A_SegA*%
X236955200Y-114509300D03*
%TO.P,S2,12,A3*%
%TO.N,/A5*%
X234417740Y-114509300D03*
%TD*%
D10*
%TO.P,KR4,1,+5V_TOP_LED*%
%TO.N,Net-(J2-Pin_19)*%
X120350000Y-174450000D03*
%TO.P,KR4,2,GND_TOP_LED*%
%TO.N,GND*%
X120350000Y-176990000D03*
%TO.P,KR4,3,+5V_BOTTOM_LED*%
%TO.N,Net-(J2-Pin_20)*%
X120350000Y-179530000D03*
%TO.P,KR4,4,GND_BOTTOM_LED*%
%TO.N,GND*%
X120350000Y-182070000D03*
%TO.P,KR4,5,SW_IN*%
%TO.N,Net-(J2-Pin_21)*%
X104650000Y-178950000D03*
%TO.P,KR4,6,SW_OUT*%
%TO.N,GND*%
X104650000Y-181490000D03*
%TD*%
%TO.P,KR6,1,+5V_TOP_LED*%
%TO.N,Net-(J2-Pin_22)*%
X219100000Y-156900000D03*
%TO.P,KR6,2,GND_TOP_LED*%
%TO.N,GND*%
X219100000Y-159440000D03*
%TO.P,KR6,3,+5V_BOTTOM_LED*%
%TO.N,Net-(J2-Pin_23)*%
X219100000Y-161980000D03*
%TO.P,KR6,4,GND_BOTTOM_LED*%
%TO.N,GND*%
X219100000Y-164520000D03*
%TO.P,KR6,5,SW_IN*%
%TO.N,Net-(J2-Pin_25)*%
X203400000Y-161400000D03*
%TO.P,KR6,6,SW_OUT*%
%TO.N,GND*%
X203400000Y-163940000D03*
%TD*%
D14*
%TO.P,P1,1,Pin_1*%
%TO.N,/Vin*%
X349400000Y-99300000D03*
D15*
%TO.P,P1,2,Pin_2*%
%TO.N,GND*%
X354480000Y-99300000D03*
%TD*%
D16*
%TO.P,J2,1,Pin_1*%
%TO.N,Net-(J2-Pin_1)*%
X328490000Y-99950000D03*
D17*
%TO.P,J2,2,Pin_2*%
%TO.N,Net-(J2-Pin_2)*%
X328490000Y-97410000D03*
%TO.P,J2,3,Pin_3*%
%TO.N,Net-(J2-Pin_3)*%
X325950000Y-99950000D03*
%TO.P,J2,4,Pin_4*%
%TO.N,Net-(J2-Pin_4)*%
X325950000Y-97410000D03*
%TO.P,J2,5,Pin_5*%
%TO.N,Net-(J2-Pin_5)*%
X323410000Y-99950000D03*
%TO.P,J2,6,Pin_6*%
%TO.N,Net-(J2-Pin_6)*%
X323410000Y-97410000D03*
%TO.P,J2,7,Pin_7*%
%TO.N,Net-(J2-Pin_7)*%
X320870000Y-99950000D03*
%TO.P,J2,8,Pin_8*%
%TO.N,Net-(J2-Pin_8)*%
X320870000Y-97410000D03*
%TO.P,J2,9,Pin_9*%
%TO.N,Net-(J2-Pin_9)*%
X318330000Y-99950000D03*
%TO.P,J2,10,Pin_10*%
%TO.N,Net-(J2-Pin_10)*%
X318330000Y-97410000D03*
%TO.P,J2,11,Pin_11*%
%TO.N,Net-(J2-Pin_11)*%
X315790000Y-99950000D03*
%TO.P,J2,12,Pin_12*%
%TO.N,Net-(J2-Pin_12)*%
X315790000Y-97410000D03*
%TO.P,J2,13,Pin_13*%
%TO.N,Net-(J2-Pin_13)*%
X313250000Y-99950000D03*
%TO.P,J2,14,Pin_14*%
%TO.N,Net-(J2-Pin_14)*%
X313250000Y-97410000D03*
%TO.P,J2,15,Pin_15*%
%TO.N,Net-(J2-Pin_15)*%
X310710000Y-99950000D03*
%TO.P,J2,16,Pin_16*%
%TO.N,Net-(J2-Pin_16)*%
X310710000Y-97410000D03*
%TO.P,J2,17,Pin_17*%
%TO.N,Net-(J2-Pin_17)*%
X308170000Y-99950000D03*
%TO.P,J2,18,Pin_18*%
%TO.N,Net-(J2-Pin_18)*%
X308170000Y-97410000D03*
%TO.P,J2,19,Pin_19*%
%TO.N,Net-(J2-Pin_19)*%
X305630000Y-99950000D03*
%TO.P,J2,20,Pin_20*%
%TO.N,Net-(J2-Pin_20)*%
X305630000Y-97410000D03*
%TO.P,J2,21,Pin_21*%
%TO.N,Net-(J2-Pin_21)*%
X303090000Y-99950000D03*
%TO.P,J2,22,Pin_22*%
%TO.N,Net-(J2-Pin_22)*%
X303090000Y-97410000D03*
%TO.P,J2,23,Pin_23*%
%TO.N,Net-(J2-Pin_23)*%
X300550000Y-99950000D03*
%TO.P,J2,24,Pin_24*%
%TO.N,Net-(J2-Pin_24)*%
X300550000Y-97410000D03*
%TO.P,J2,25,Pin_25*%
%TO.N,Net-(J2-Pin_25)*%
X298010000Y-99950000D03*
%TO.P,J2,26,Pin_26*%
%TO.N,Net-(J2-Pin_26)*%
X298010000Y-97410000D03*
%TO.P,J2,27,Pin_27*%
%TO.N,Net-(J2-Pin_27)*%
X295470000Y-99950000D03*
%TO.P,J2,28,Pin_28*%
%TO.N,Net-(J2-Pin_28)*%
X295470000Y-97410000D03*
%TO.P,J2,29,Pin_29*%
%TO.N,Net-(J2-Pin_29)*%
X292930000Y-99950000D03*
%TO.P,J2,30,Pin_30*%
%TO.N,Net-(J2-Pin_30)*%
X292930000Y-97410000D03*
%TO.P,J2,31,Pin_31*%
%TO.N,Net-(J2-Pin_31)*%
X290390000Y-99950000D03*
%TO.P,J2,32,Pin_32*%
%TO.N,Net-(J2-Pin_32)*%
X290390000Y-97410000D03*
%TO.P,J2,33,Pin_33*%
%TO.N,Net-(J2-Pin_33)*%
X287850000Y-99950000D03*
%TO.P,J2,34,Pin_34*%
%TO.N,Net-(J2-Pin_34)*%
X287850000Y-97410000D03*
%TO.P,J2,35,Pin_35*%
%TO.N,Net-(J2-Pin_35)*%
X285310000Y-99950000D03*
%TO.P,J2,36,Pin_36*%
%TO.N,Net-(J2-Pin_36)*%
X285310000Y-97410000D03*
%TO.P,J2,37,Pin_37*%
%TO.N,unconnected-(J2-Pin_37-Pad37)*%
X282770000Y-99950000D03*
%TO.P,J2,38,Pin_38*%
%TO.N,unconnected-(J2-Pin_38-Pad38)*%
X282770000Y-97410000D03*
%TO.P,J2,39,Pin_39*%
%TO.N,unconnected-(J2-Pin_39-Pad39)*%
X280230000Y-99950000D03*
%TO.P,J2,40,Pin_40*%
%TO.N,unconnected-(J2-Pin_40-Pad40)*%
X280230000Y-97410000D03*
%TD*%
D18*
%TO.P,D1,1,K*%
%TO.N,/Vcc*%
X344125000Y-109050000D03*
%TO.P,D1,2,A*%
%TO.N,/Vin*%
X349125000Y-109050000D03*
%TD*%
D16*
%TO.P,P2,1,Pin_1*%
%TO.N,GND*%
X343040000Y-98050000D03*
D17*
%TO.P,P2,2,Pin_2*%
%TO.N,/Din*%
X340500000Y-98050000D03*
%TO.P,P2,3,Pin_3*%
%TO.N,/Sel*%
X337960000Y-98050000D03*
%TO.P,P2,4,Pin_4*%
%TO.N,/Clk*%
X335420000Y-98050000D03*
%TD*%
D19*
%TO.P,C2,1*%
%TO.N,/Vcc*%
X197300000Y-148312500D03*
%TO.P,C2,2*%
%TO.N,GND*%
X197300000Y-145187500D03*
%TD*%
D20*
%TO.P,R1,1*%
%TO.N,/Vcc*%
X215730000Y-142500000D03*
%TO.P,R1,2*%
%TO.N,Net-(IC1-ISET)*%
X205570000Y-142500000D03*
%TD*%
D21*
%TO.P,C1,1*%
%TO.N,/Vcc*%
X176600000Y-146900000D03*
D20*
%TO.P,C1,2*%
%TO.N,GND*%
X174100000Y-146900000D03*
%TD*%
D14*
%TO.P,J1,1,Pin_1*%
%TO.N,GND*%
X130275000Y-99075000D03*
D15*
%TO.P,J1,2,Pin_2*%
%TO.N,+12V*%
X135355000Y-99075000D03*
%TD*%
D14*
%TO.P,J3,1,Pin_1*%
%TO.N,GND*%
X67590000Y-197450000D03*
D15*
%TO.P,J3,2,Pin_2*%
%TO.N,+12V*%
X62510000Y-197450000D03*
%TD*%
D22*
%TO.P,IC1,1,DIN*%
%TO.N,/Din*%
X194110000Y-151350000D03*
%TO.P,IC1,2,DIG0*%
%TO.N,/A0*%
X192840000Y-151350000D03*
%TO.P,IC1,3,DIG4*%
%TO.N,/A4*%
X191570000Y-151350000D03*
%TO.P,IC1,4,GND1*%
%TO.N,GND*%
X190300000Y-151350000D03*
%TO.P,IC1,5,DIG6*%
%TO.N,/K6*%
X189030000Y-151350000D03*
%TO.P,IC1,6,DIG2*%
%TO.N,/A2*%
X187760000Y-151350000D03*
%TO.P,IC1,7,DIG3*%
%TO.N,/A3*%
X186490000Y-151350000D03*
%TO.P,IC1,8,DIG7*%
%TO.N,/K7*%
X185220000Y-151350000D03*
%TO.P,IC1,9,GND2*%
%TO.N,GND*%
X183950000Y-151350000D03*
%TO.P,IC1,10,DIG5*%
%TO.N,/A5*%
X182680000Y-151350000D03*
%TO.P,IC1,11,DIG1*%
%TO.N,/A1*%
X181410000Y-151350000D03*
%TO.P,IC1,12,LOAD*%
%TO.N,/Sel*%
X180140000Y-151350000D03*
%TO.P,IC1,13,CLK*%
%TO.N,/Clk*%
X180140000Y-142050000D03*
%TO.P,IC1,14,SEGA*%
%TO.N,/A_SegA*%
X181410000Y-142050000D03*
%TO.P,IC1,15,SEGF*%
%TO.N,/A_SegF*%
X182680000Y-142050000D03*
%TO.P,IC1,16,SEGB*%
%TO.N,/A_SegB*%
X183950000Y-142050000D03*
%TO.P,IC1,17,SEGG*%
%TO.N,/A_SegG*%
X185220000Y-142050000D03*
%TO.P,IC1,18,ISET*%
%TO.N,Net-(IC1-ISET)*%
X186490000Y-142050000D03*
%TO.P,IC1,19,VCC*%
%TO.N,/Vcc*%
X187760000Y-142050000D03*
%TO.P,IC1,20,SEGC*%
%TO.N,/A_SegC*%
X189030000Y-142050000D03*
%TO.P,IC1,21,SEGE*%
%TO.N,/A_SegE*%
X190300000Y-142050000D03*
%TO.P,IC1,22,SEGDP*%
%TO.N,/A_SegDP*%
X191570000Y-142050000D03*
%TO.P,IC1,23,SEGD*%
%TO.N,/A_SegD*%
X192840000Y-142050000D03*
%TO.P,IC1,24,DOUT*%
%TO.N,unconnected-(IC1-DOUT-Pad24)*%
X194110000Y-142050000D03*
%TD*%
D23*
%TO.N,/Vcc*%
X196487400Y-143895400D03*
X187140300Y-144194000D03*
X336470300Y-137906200D03*
X222103900Y-137022500D03*
%TO.N,GND*%
X222979500Y-108115100D03*
X70556600Y-137848700D03*
X220668100Y-156287900D03*
X175456600Y-194574300D03*
X243885700Y-191231200D03*
X184700000Y-160676900D03*
X172207300Y-107912000D03*
X133381500Y-102524300D03*
X329650500Y-141843300D03*
X72715100Y-162279300D03*
X121435100Y-188268700D03*
X355307000Y-157458700D03*
X329452400Y-162406700D03*
X288684700Y-143687000D03*
X257706400Y-155560000D03*
X174100000Y-136779700D03*
%TO.N,/Clk*%
X325645500Y-136597500D03*
X181025500Y-135004800D03*
%TO.N,/A_SegDP*%
X191317500Y-128421100D03*
%TO.N,/A_SegG*%
X184898500Y-128249100D03*
%TO.N,/A_SegC*%
X192887000Y-123296100D03*
X148314500Y-121415700D03*
%TO.N,/A4*%
X196375100Y-135119900D03*
X234925900Y-133603700D03*
%TO.N,/A_SegB*%
X192472000Y-122148100D03*
X181696800Y-116460000D03*
%TO.N,/A_SegE*%
X193113500Y-126140500D03*
%TO.N,/Sel*%
X333235500Y-107749300D03*
X289398400Y-109314700D03*
X231381500Y-150196000D03*
X234935700Y-110431700D03*
X288768000Y-110862700D03*
X180341500Y-149016000D03*
%TO.N,/A_SegA*%
X180234400Y-113892200D03*
%TO.N,/A2*%
X145327900Y-149756200D03*
X187712100Y-152923000D03*
%TO.N,/Din*%
X201890000Y-135059800D03*
X329527200Y-131981200D03*
%TO.N,/A0*%
X190179500Y-156615900D03*
X158591600Y-156521800D03*
%TO.N,/A1*%
X178814500Y-113731200D03*
%TO.N,/A_SegD*%
X193869000Y-128199100D03*
%TO.N,/A_SegF*%
X182994600Y-119175000D03*
%TO.N,/A5*%
X228952700Y-147375000D03*
X181167100Y-147687500D03*
%TO.N,Net-(IC1-ISET)*%
X188046500Y-140205900D03*
X205076600Y-139907400D03*
%TO.N,/A3*%
X187394400Y-148892500D03*
X237642100Y-150026700D03*
%TO.N,+12V*%
X330821400Y-152718700D03*
X67614000Y-185244000D03*
X133381500Y-114206200D03*
X168434500Y-117906500D03*
X170731600Y-104998800D03*
X243271200Y-185306200D03*
X242989100Y-190640400D03*
X364309600Y-134943700D03*
X330945700Y-160123100D03*
X330497100Y-191231200D03*
X360034600Y-158643700D03*
X249729200Y-131171400D03*
X247508400Y-107751900D03*
X70662900Y-102356200D03*
X163733500Y-194874400D03*
X67676300Y-113824400D03*
X68524500Y-170493700D03*
X166689300Y-140868700D03*
X67676300Y-143831200D03*
X169745100Y-153770400D03*
X249729200Y-117168700D03*
%TO.N,Net-(D4-K)*%
X93973400Y-102356200D03*
X93502800Y-112806400D03*
%TO.N,Net-(D8-K)*%
X61004600Y-144791900D03*
X67676300Y-161606200D03*
%TO.N,Net-(D10-A)*%
X64689700Y-161844300D03*
X65042100Y-170493700D03*
%TO.N,Net-(D20-K)*%
X110321600Y-129018700D03*
X112475300Y-114206200D03*
%TO.N,Net-(D24-K)*%
X131057200Y-182343700D03*
X130394900Y-163502800D03*
%TO.N,Net-(D26-K)*%
X119727600Y-161345800D03*
X109488700Y-194193700D03*
%TO.N,Net-(D27-K)*%
X139354700Y-135162800D03*
X138960400Y-159397500D03*
%TO.N,Net-(D29-K)*%
X160260900Y-140868700D03*
X166130600Y-118059300D03*
%TO.N,Net-(D30-K)*%
X153619800Y-106639200D03*
X154287700Y-117170200D03*
%TO.N,Net-(D32-K)*%
X160260900Y-155681200D03*
X160260900Y-167531200D03*
%TO.N,Net-(D33-K)*%
X157338400Y-180116800D03*
X158610200Y-168327900D03*
%TO.N,Net-(D38-K)*%
X184129900Y-185306200D03*
X184898500Y-172166800D03*
%TO.N,Net-(D39-K)*%
X202073300Y-173456200D03*
X208046500Y-194193700D03*
%TO.N,Net-(D42-K)*%
X194076600Y-162456500D03*
X193289200Y-156081200D03*
%TO.N,Net-(D43-K)*%
X193242000Y-132034900D03*
X184563500Y-149857800D03*
%TO.N,Net-(D45-K)*%
X166234100Y-117168700D03*
X165259200Y-106427500D03*
%TO.N,Net-(D47-K)*%
X210569600Y-103077200D03*
X208601600Y-118200900D03*
%TO.N,Net-(D48-K)*%
X226942500Y-117994300D03*
X226315500Y-107383000D03*
%TO.N,Net-(D49-K)*%
X229089900Y-107992900D03*
X217271100Y-141345600D03*
%TO.N,Net-(D52-K)*%
X236040300Y-133024800D03*
X232086900Y-152718700D03*
%TO.N,Net-(D53-K)*%
X228479100Y-152018400D03*
X229192100Y-176019800D03*
%TO.N,Net-(D54-K)*%
X222979500Y-176418700D03*
X232520000Y-194467100D03*
%TO.N,Net-(D56-K)*%
X256678800Y-152697800D03*
X252165300Y-196739000D03*
%TO.N,Net-(D58-K)*%
X266065900Y-121393200D03*
X265554300Y-140784300D03*
%TO.N,Net-(D61-K)*%
X258878200Y-172862500D03*
X264791900Y-161029800D03*
%TO.N,Net-(D65-K)*%
X294657900Y-167531200D03*
X284851500Y-191231200D03*
%TO.N,Net-(D68-K)*%
X296663100Y-123093700D03*
X294657900Y-143831200D03*
%TO.N,Net-(D73-K)*%
X321537300Y-150527600D03*
X324523900Y-127918700D03*
%TO.N,Net-(D74-K)*%
X327510500Y-151828100D03*
X325271700Y-168289100D03*
%TO.N,Net-(D77-K)*%
X351079700Y-194193700D03*
X354420800Y-171328600D03*
%TO.N,Net-(D79-K)*%
X333483700Y-158643700D03*
X340659800Y-178179900D03*
%TO.N,Net-(D80-K)*%
X363396500Y-159513100D03*
X362802900Y-179540400D03*
%TO.N,Net-(D82-K)*%
X364310000Y-135943800D03*
X369671200Y-120131200D03*
%TO.N,Net-(D83-K)*%
X329706200Y-140559100D03*
X330205500Y-120131200D03*
%TO.N,Net-(J2-Pin_34)*%
X275706800Y-112131800D03*
%TO.N,Net-(J2-Pin_3)*%
X322685400Y-114206200D03*
X94143200Y-114207800D03*
X95492400Y-111338600D03*
%TO.N,Net-(J2-Pin_32)*%
X193113500Y-99393700D03*
%TO.N,Net-(J2-Pin_28)*%
X296594200Y-170493700D03*
%TO.N,Net-(J2-Pin_11)*%
X283005100Y-105600300D03*
%TO.N,Net-(J2-Pin_12)*%
X297621100Y-178960000D03*
%TO.N,Net-(J2-Pin_8)*%
X312542100Y-177052100D03*
%TO.N,Net-(J2-Pin_33)*%
X181335900Y-101200900D03*
%TO.N,Net-(J2-Pin_27)*%
X286554300Y-126920000D03*
%TO.N,Net-(J2-Pin_17)*%
X306604300Y-140868700D03*
%TO.N,Net-(J2-Pin_19)*%
X127408300Y-105318700D03*
%TO.N,Net-(J2-Pin_35)*%
X225966100Y-99886600D03*
%TO.N,Net-(J2-Pin_9)*%
X318295600Y-137906200D03*
X172207300Y-138183600D03*
%TO.N,Net-(J2-Pin_25)*%
X298327500Y-104675600D03*
X221012700Y-108222100D03*
%TO.N,Net-(J2-Pin_10)*%
X316003700Y-167531200D03*
%TO.N,Net-(J2-Pin_16)*%
X90722500Y-99017500D03*
%TO.N,Net-(J2-Pin_7)*%
X320232800Y-135663500D03*
X177729200Y-137206500D03*
%TO.N,Net-(J2-Pin_23)*%
X300900300Y-158743400D03*
%TO.N,Net-(J2-Pin_18)*%
X128608000Y-101156500D03*
X111128200Y-145178300D03*
%TO.N,Net-(J2-Pin_2)*%
X91680200Y-110576100D03*
X324701300Y-114383600D03*
%TO.N,Net-(J2-Pin_6)*%
X317141500Y-178260000D03*
%TO.N,Net-(J2-Pin_30)*%
X294423800Y-173222200D03*
X297375000Y-101239200D03*
%TO.N,Net-(J2-Pin_29)*%
X332209100Y-112120000D03*
X292521400Y-109269400D03*
%TO.N,Net-(J2-Pin_4)*%
X92643000Y-97493100D03*
%TO.N,Net-(J2-Pin_36)*%
X278805800Y-97127800D03*
X208046500Y-98196200D03*
%TO.N,Net-(J2-Pin_21)*%
X119313400Y-144494300D03*
X303017700Y-138927700D03*
%TO.N,Net-(J2-Pin_5)*%
X87469800Y-109185400D03*
%TO.N,Net-(J2-Pin_22)*%
X300238900Y-155643100D03*
%TO.N,Net-(J2-Pin_1)*%
X267002500Y-103750900D03*
X258036400Y-111735200D03*
%TO.N,Net-(J2-Pin_31)*%
X288684700Y-107915100D03*
X192928900Y-108923900D03*
%TO.N,Net-(J2-Pin_20)*%
X121435100Y-197804500D03*
X285698100Y-200063700D03*
%TD*%
D24*
%TO.N,/Vcc*%
X215730000Y-142500000D02*
X217134200Y-142500000D01*
X197300000Y-148312500D02*
X195972200Y-146984700D01*
X195972200Y-144410600D02*
X196487400Y-143895400D01*
X222103900Y-137530300D02*
X222103900Y-137022500D01*
X217134200Y-142500000D02*
X222103900Y-137530300D01*
X187760000Y-143574300D02*
X187760000Y-142050000D01*
X187140300Y-144194000D02*
X187760000Y-143574300D01*
X344125000Y-109050000D02*
X344125000Y-130251500D01*
X195972200Y-146984700D02*
X195972200Y-144410600D01*
X344125000Y-130251500D02*
X336470300Y-137906200D01*
%TO.N,GND*%
X70556600Y-137848700D02*
X70556600Y-145014800D01*
X190898300Y-118686500D02*
X191330100Y-119118300D01*
X73400000Y-147714100D02*
X73400000Y-147138300D01*
X197300000Y-145187500D02*
X197300000Y-126991700D01*
X191330100Y-116341700D02*
X190898300Y-116773500D01*
X243885700Y-191231200D02*
X244350000Y-190766900D01*
X286000000Y-128190000D02*
X284848300Y-129341700D01*
X89100000Y-147718300D02*
X89819900Y-147718300D01*
X120350000Y-181494100D02*
X120350000Y-180918300D01*
X88248300Y-116636500D02*
X88680100Y-117068300D01*
X219769800Y-114138300D02*
X219050000Y-114138300D01*
X284848300Y-131686500D02*
X285280100Y-132118300D01*
X174100000Y-123091700D02*
X176350000Y-120841700D01*
X90251700Y-120223400D02*
X90251700Y-144941700D01*
X285280100Y-132118300D02*
X286000000Y-132118300D01*
X178600000Y-177625800D02*
X178600000Y-178201700D01*
X90301700Y-178223500D02*
X89869900Y-177791700D01*
X87952000Y-151169700D02*
X89100000Y-150021700D01*
X178600000Y-182130000D02*
X178600000Y-180978300D01*
X217898300Y-118786500D02*
X218330100Y-119218300D01*
X329650500Y-141843300D02*
X330907600Y-140586200D01*
X130275000Y-99075000D02*
X130275000Y-100976700D01*
X89150000Y-180568300D02*
X89869900Y-180568300D01*
X89400000Y-114042600D02*
X88969300Y-114042600D01*
X259330100Y-178191700D02*
X258898300Y-178623500D01*
X192050000Y-115190000D02*
X192050000Y-116341700D01*
X88680100Y-117068300D02*
X89400000Y-117068300D01*
X89150000Y-176640000D02*
X89150000Y-177791700D01*
X219050000Y-116441700D02*
X218330100Y-116441700D01*
X121069900Y-178141700D02*
X120350000Y-178141700D01*
X174100000Y-174421600D02*
X174100000Y-146900000D01*
X330300000Y-181290000D02*
X330300000Y-180138300D01*
X217898300Y-116873500D02*
X217898300Y-118786500D01*
X192050000Y-116341700D02*
X191330100Y-116341700D01*
X174100000Y-136779700D02*
X174100000Y-123091700D01*
X89150000Y-175488300D02*
X88430200Y-175488300D01*
X175456600Y-183401800D02*
X177880100Y-180978300D01*
X219100000Y-159440000D02*
X219100000Y-160015800D01*
X88248300Y-114763600D02*
X88248300Y-116636500D01*
X259330100Y-180968300D02*
X260050000Y-180968300D01*
X192050000Y-120270000D02*
X192050000Y-119118300D01*
X177448300Y-178633500D02*
X177880100Y-178201700D01*
X120350000Y-182070000D02*
X120350000Y-181494100D01*
X315469900Y-180918300D02*
X315901700Y-180486500D01*
X329580100Y-180138300D02*
X330300000Y-180138300D01*
X343040000Y-100152500D02*
X343040000Y-99301700D01*
X177880100Y-178201700D02*
X178600000Y-178201700D01*
X220668100Y-158447700D02*
X220668100Y-156287900D01*
X73400000Y-148290000D02*
X73400000Y-147714100D01*
X219100000Y-163368300D02*
X218380100Y-163368300D01*
X346000000Y-180718300D02*
X346719900Y-180718300D01*
X347151700Y-180286500D02*
X347151700Y-177941700D01*
X217948300Y-162936500D02*
X217948300Y-161023500D01*
X121501700Y-180486500D02*
X121501700Y-178573500D01*
X89869900Y-177791700D02*
X89150000Y-177791700D01*
X172207300Y-107912000D02*
X172207300Y-116699000D01*
X90251700Y-147286500D02*
X90251700Y-144941700D01*
X330907600Y-112284900D02*
X343040000Y-100152500D01*
X258898300Y-180536500D02*
X259330100Y-180968300D01*
X183950000Y-172275800D02*
X183950000Y-160676900D01*
X72680100Y-147138300D02*
X73400000Y-147138300D01*
X121069900Y-180918300D02*
X121501700Y-180486500D01*
X89819900Y-147718300D02*
X90251700Y-147286500D01*
X88969300Y-114042600D02*
X88248300Y-114763600D01*
X197300000Y-126991700D02*
X203350000Y-120941700D01*
X183950000Y-160676900D02*
X183950000Y-151350000D01*
X314750000Y-176990000D02*
X314750000Y-178141700D01*
X177880100Y-178201700D02*
X174100000Y-174421600D01*
X183950000Y-160676900D02*
X184700000Y-160676900D01*
X67590000Y-188151700D02*
X73450000Y-182291700D01*
X89150000Y-181720000D02*
X89150000Y-180568300D01*
X314750000Y-180918300D02*
X315469900Y-180918300D01*
X130275000Y-100976700D02*
X131833900Y-100976700D01*
X178600000Y-180978300D02*
X177880100Y-180978300D01*
X346000000Y-176790000D02*
X346000000Y-177941700D01*
X315901700Y-180486500D02*
X315901700Y-178573500D01*
X176350000Y-119690000D02*
X176350000Y-120841700D01*
X346719900Y-180718300D02*
X347151700Y-180286500D01*
X89100000Y-148870000D02*
X89100000Y-147718300D01*
X347151700Y-165614000D02*
X355307000Y-157458700D01*
X286000000Y-141002300D02*
X286000000Y-133270000D01*
X260050000Y-177040000D02*
X260050000Y-178191700D01*
X89400000Y-118220000D02*
X89400000Y-117068300D01*
X260050000Y-182120000D02*
X260050000Y-180968300D01*
X178600000Y-177625800D02*
X183950000Y-172275800D01*
X315469900Y-178141700D02*
X314750000Y-178141700D01*
X120350000Y-181494100D02*
X121435100Y-182579200D01*
X217948300Y-161023500D02*
X218380100Y-160591700D01*
X190300000Y-155076900D02*
X190300000Y-151350000D01*
X347151700Y-177941700D02*
X347151700Y-165614000D01*
X174100000Y-146900000D02*
X174100000Y-136779700D01*
X219100000Y-164520000D02*
X219100000Y-163368300D01*
X329452400Y-162406700D02*
X329148300Y-162710800D01*
X191330100Y-119118300D02*
X192050000Y-119118300D01*
X219050000Y-115290000D02*
X219050000Y-114138300D01*
X219050000Y-120370000D02*
X219050000Y-119218300D01*
X67590000Y-197450000D02*
X67590000Y-188151700D01*
X218330100Y-119218300D02*
X219050000Y-119218300D01*
X219100000Y-160015800D02*
X219100000Y-160591700D01*
X218380100Y-160591700D02*
X219100000Y-160591700D01*
X89100000Y-148870000D02*
X89100000Y-150021700D01*
X203350000Y-119790000D02*
X203350000Y-120941700D01*
X70556600Y-145014800D02*
X72680100Y-147138300D01*
X120350000Y-176990000D02*
X120350000Y-178141700D01*
X89150000Y-176640000D02*
X89150000Y-175488300D01*
X89400000Y-119371700D02*
X90251700Y-120223400D01*
X329452400Y-142041400D02*
X329452400Y-162406700D01*
X218380100Y-163368300D02*
X217948300Y-162936500D01*
X219100000Y-160015800D02*
X220668100Y-158447700D01*
X88430200Y-175488300D02*
X87952000Y-175010100D01*
X89400000Y-113140000D02*
X89400000Y-114042600D01*
X330907600Y-140586200D02*
X330907600Y-112284900D01*
X346000000Y-181870000D02*
X346000000Y-180718300D01*
X329148300Y-162710800D02*
X329148300Y-179706500D01*
X343040000Y-98050000D02*
X343040000Y-99301700D01*
X219050000Y-115290000D02*
X219050000Y-116441700D01*
X190898300Y-116773500D02*
X190898300Y-118686500D01*
X177880100Y-180978300D02*
X177448300Y-180546500D01*
X257706400Y-155560000D02*
X257706400Y-176568000D01*
X90251700Y-144941700D02*
X89100000Y-144941700D01*
X329650500Y-141843300D02*
X329452400Y-142041400D01*
X222979500Y-108115100D02*
X222979500Y-110928600D01*
X315901700Y-178573500D02*
X315469900Y-178141700D01*
X257706400Y-176568000D02*
X259330100Y-178191700D01*
X184700000Y-160676900D02*
X190300000Y-155076900D01*
X218330100Y-116441700D02*
X217898300Y-116873500D01*
X72715100Y-148399000D02*
X72715100Y-162279300D01*
X87952000Y-175010100D02*
X87952000Y-151169700D01*
X314750000Y-182070000D02*
X314750000Y-180918300D01*
X73450000Y-181140000D02*
X73450000Y-182291700D01*
X346000000Y-177941700D02*
X347151700Y-177941700D01*
X258898300Y-178623500D02*
X258898300Y-180536500D01*
X288684700Y-143687000D02*
X286000000Y-141002300D01*
X329148300Y-179706500D02*
X329580100Y-180138300D01*
X286000000Y-133270000D02*
X286000000Y-132118300D01*
X73400000Y-147714100D02*
X72715100Y-148399000D01*
X260050000Y-178191700D02*
X259330100Y-178191700D01*
X178600000Y-177050000D02*
X178600000Y-177625800D01*
X172207300Y-116699000D02*
X176350000Y-120841700D01*
X121435100Y-182579200D02*
X121435100Y-188268700D01*
X89100000Y-143790000D02*
X89100000Y-144941700D01*
X120350000Y-180918300D02*
X121069900Y-180918300D01*
X222979500Y-110928600D02*
X219769800Y-114138300D01*
X175456600Y-194574300D02*
X175456600Y-183401800D01*
X284848300Y-129341700D02*
X284848300Y-131686500D01*
X177448300Y-180546500D02*
X177448300Y-178633500D01*
X89400000Y-118220000D02*
X89400000Y-119371700D01*
X121501700Y-178573500D02*
X121069900Y-178141700D01*
X90301700Y-180136500D02*
X90301700Y-178223500D01*
X89869900Y-180568300D02*
X90301700Y-180136500D01*
X244350000Y-190766900D02*
X244350000Y-181540000D01*
X131833900Y-100976700D02*
X133381500Y-102524300D01*
%TO.N,/Vin*%
X349125000Y-101476700D02*
X349400000Y-101201700D01*
X349125000Y-109050000D02*
X349125000Y-101476700D01*
X349400000Y-99300000D02*
X349400000Y-101201700D01*
%TO.N,/Clk*%
X328825500Y-104644500D02*
X328825500Y-133417500D01*
X328825500Y-133417500D02*
X325645500Y-136597500D01*
X181076900Y-135056200D02*
X181025500Y-135004800D01*
X180140000Y-136082600D02*
X181076900Y-135145700D01*
X180140000Y-142050000D02*
X180140000Y-136082600D01*
X335420000Y-98050000D02*
X328825500Y-104644500D01*
X181076900Y-135145700D02*
X181076900Y-135056200D01*
%TO.N,/A_SegDP*%
X191570000Y-128673600D02*
X191570000Y-142050000D01*
X191317500Y-128421100D02*
X191570000Y-128673600D01*
%TO.N,/A_SegG*%
X185220000Y-128570600D02*
X184898500Y-128249100D01*
X185220000Y-142050000D02*
X185220000Y-128570600D01*
%TO.N,/A_SegC*%
X148041400Y-124705000D02*
X148041400Y-123338000D01*
X192887000Y-123296100D02*
X189030000Y-127153100D01*
X189030000Y-127153100D02*
X189030000Y-142050000D01*
X148041400Y-123338000D02*
X148314500Y-123064900D01*
X148314500Y-123064900D02*
X148314500Y-121415700D01*
%TO.N,/A4*%
X238342900Y-129730000D02*
X234925900Y-133147000D01*
X234925900Y-133147000D02*
X234925900Y-133603700D01*
X191570000Y-147637000D02*
X196375100Y-142831900D01*
X238342900Y-117625500D02*
X238342900Y-129730000D01*
X196375100Y-142831900D02*
X196375100Y-135695200D01*
X196375100Y-135695200D02*
X196375100Y-135119900D01*
X191570000Y-151350000D02*
X191570000Y-147637000D01*
X241459100Y-114509300D02*
X238342900Y-117625500D01*
X242035200Y-114509300D02*
X241459100Y-114509300D01*
%TO.N,/A_SegB*%
X183950000Y-118713200D02*
X181696800Y-116460000D01*
X183950000Y-142050000D02*
X183950000Y-122148100D01*
X183950000Y-122148100D02*
X183950000Y-118713200D01*
X192472000Y-122148100D02*
X183950000Y-122148100D01*
%TO.N,/A_SegE*%
X192605900Y-126140500D02*
X190300000Y-128446400D01*
X193113500Y-126140500D02*
X192605900Y-126140500D01*
X190300000Y-128446400D02*
X190300000Y-142050000D01*
%TO.N,/Sel*%
X180140000Y-149217500D02*
X180341500Y-149016000D01*
X234935700Y-110610100D02*
X235570000Y-111244400D01*
X235570000Y-115201300D02*
X231381500Y-119389800D01*
X180341500Y-149016000D02*
X180140000Y-149016000D01*
X231381500Y-119389800D02*
X231381500Y-150196000D01*
X289398400Y-110232300D02*
X289398400Y-109314700D01*
X180140000Y-151350000D02*
X180140000Y-149217500D01*
X180140000Y-149016000D02*
X180341500Y-149016000D01*
X288768000Y-110862700D02*
X289398400Y-110232300D01*
X230779800Y-149594300D02*
X231381500Y-150196000D01*
X337960000Y-98050000D02*
X333235500Y-102774500D01*
X231381500Y-150196000D02*
X230779800Y-149594300D01*
X234935700Y-110610100D02*
X234935700Y-110431700D01*
X235570000Y-111244400D02*
X235570000Y-115201300D01*
X333235500Y-102774500D02*
X333235500Y-107749300D01*
%TO.N,/A_SegA*%
X179401600Y-143180800D02*
X179755700Y-143534900D01*
X180477700Y-143534900D02*
X181410000Y-142602600D01*
X181410000Y-142602600D02*
X181410000Y-142050000D01*
X179755700Y-143534900D02*
X180477700Y-143534900D01*
X180234400Y-113892200D02*
X179401600Y-114725000D01*
X179401600Y-114725000D02*
X179401600Y-143180800D01*
%TO.N,/A2*%
X141576200Y-146004500D02*
X145327900Y-149756200D01*
X187712100Y-152923000D02*
X187760000Y-152875100D01*
X140423900Y-114545000D02*
X141576200Y-114545000D01*
X141576200Y-114545000D02*
X141576200Y-146004500D01*
X187760000Y-152875100D02*
X187760000Y-151350000D01*
%TO.N,/Din*%
X201890000Y-145725700D02*
X196265700Y-151350000D01*
X329477200Y-112864400D02*
X329477200Y-131931200D01*
X201890000Y-135059800D02*
X201890000Y-145725700D01*
X340500000Y-98050000D02*
X340500000Y-101841600D01*
X329477200Y-131931200D02*
X329527200Y-131981200D01*
X340500000Y-101841600D02*
X329477200Y-112864400D01*
X196265700Y-151350000D02*
X194110000Y-151350000D01*
%TO.N,/A0*%
X190179500Y-156615900D02*
X192840000Y-153955400D01*
X151733700Y-114545000D02*
X151733700Y-149663900D01*
X192840000Y-153955400D02*
X192840000Y-151350000D01*
X150581400Y-114545000D02*
X151733700Y-114545000D01*
X151733700Y-149663900D02*
X158591600Y-156521800D01*
%TO.N,/A1*%
X181410000Y-151350000D02*
X181410000Y-148995500D01*
X181410000Y-148995500D02*
X179050500Y-146636000D01*
X179050500Y-145397100D02*
X178801400Y-145148000D01*
X178799900Y-113745800D02*
X178799900Y-145146500D01*
X179050500Y-145397100D02*
X178801400Y-145148000D01*
X178799900Y-145146500D02*
X178801400Y-145148000D01*
X178814500Y-113731200D02*
X178799900Y-113745800D01*
X179050500Y-146636000D02*
X179050500Y-145397100D01*
%TO.N,/A_SegD*%
X192530800Y-129537300D02*
X193869000Y-128199100D01*
X192840000Y-142050000D02*
X192530800Y-141740800D01*
X192530800Y-141740800D02*
X192530800Y-129537300D01*
%TO.N,/A_SegF*%
X182680000Y-119489600D02*
X182680000Y-142050000D01*
X182994600Y-119175000D02*
X182680000Y-119489600D01*
%TO.N,/A5*%
X234417700Y-114509300D02*
X233265400Y-114509300D01*
X228952700Y-118822000D02*
X233265400Y-114509300D01*
X228952700Y-147375000D02*
X228952700Y-118822000D01*
X182680000Y-151350000D02*
X182680000Y-149200400D01*
X182680000Y-149200400D02*
X181167100Y-147687500D01*
%TO.N,Net-(IC1-ISET)*%
X186490000Y-141493600D02*
X187777700Y-140205900D01*
X187777700Y-140205900D02*
X188046500Y-140205900D01*
X205076600Y-139907400D02*
X205570000Y-140400800D01*
X205570000Y-140400800D02*
X205570000Y-142500000D01*
X186490000Y-142050000D02*
X186490000Y-141493600D01*
%TO.N,/A3*%
X187404500Y-148954500D02*
X187394400Y-148944400D01*
X187394400Y-148944400D02*
X187394400Y-148892500D01*
X186490000Y-149869000D02*
X187404500Y-148954500D01*
X243422900Y-128576400D02*
X243422900Y-114509300D01*
X237642100Y-150026700D02*
X237642100Y-134357200D01*
X186490000Y-151350000D02*
X186490000Y-149869000D01*
X244575200Y-114509300D02*
X243422900Y-114509300D01*
X237642100Y-134357200D02*
X243422900Y-128576400D01*
D25*
%TO.N,+12V*%
X135355000Y-112232700D02*
X133381500Y-114206200D01*
X62510000Y-190348000D02*
X67614000Y-185244000D01*
X249729200Y-117168700D02*
X249729200Y-109972700D01*
X168434500Y-139123500D02*
X166689300Y-140868700D01*
X161639400Y-192780300D02*
X163733500Y-194874400D01*
X242989100Y-185588300D02*
X243271200Y-185306200D01*
X169745100Y-153770400D02*
X161639400Y-161876100D01*
X161639400Y-161876100D02*
X161639400Y-192780300D01*
X242989100Y-190640400D02*
X242989100Y-185588300D01*
X135355000Y-99075000D02*
X135355000Y-112232700D01*
X68524500Y-184333500D02*
X67614000Y-185244000D01*
X364176400Y-134943700D02*
X360034600Y-139085500D01*
X249729200Y-117168700D02*
X249729200Y-131171400D01*
X169745100Y-143924500D02*
X169745100Y-153770400D01*
X70662900Y-110837800D02*
X70662900Y-102356200D01*
X249729200Y-109972700D02*
X247508400Y-107751900D01*
X243098300Y-137802300D02*
X243098300Y-185133300D01*
X249729200Y-131171400D02*
X243098300Y-137802300D01*
X68524500Y-144679400D02*
X68524500Y-170493700D01*
X67676300Y-113824400D02*
X70662900Y-110837800D01*
X170731600Y-104998800D02*
X168434500Y-107295900D01*
X67676300Y-143831200D02*
X68524500Y-144679400D01*
X168434500Y-107295900D02*
X168434500Y-117906500D01*
X364309600Y-134943700D02*
X364176400Y-134943700D01*
X68524500Y-170493700D02*
X68524500Y-184333500D01*
X330945700Y-152843000D02*
X330945700Y-160123100D01*
X330945700Y-160123100D02*
X331601800Y-160779200D01*
X331601800Y-190126500D02*
X330497100Y-191231200D01*
X243098300Y-185133300D02*
X243271200Y-185306200D01*
X67676300Y-113824400D02*
X67676300Y-143831200D01*
X168434500Y-117906500D02*
X168434500Y-139123500D01*
X331601800Y-160779200D02*
X331601800Y-190126500D01*
X330821400Y-152718700D02*
X330945700Y-152843000D01*
X360034600Y-139085500D02*
X360034600Y-158643700D01*
X62510000Y-197450000D02*
X62510000Y-190348000D01*
X166689300Y-140868700D02*
X169745100Y-143924500D01*
D24*
%TO.N,Net-(D4-K)*%
X93973400Y-102356200D02*
X93502800Y-102356200D01*
X93502800Y-102356200D02*
X93973400Y-102356200D01*
X93502800Y-102826800D02*
X93973400Y-102356200D01*
X93502800Y-112806400D02*
X93502800Y-102826800D01*
%TO.N,Net-(D8-K)*%
X61004600Y-154934500D02*
X61004600Y-144791900D01*
X67676300Y-161606200D02*
X61004600Y-154934500D01*
%TO.N,Net-(D10-A)*%
X64689700Y-170141300D02*
X65042100Y-170493700D01*
X64689700Y-161844300D02*
X64689700Y-170141300D01*
%TO.N,Net-(D20-K)*%
X112475300Y-114206200D02*
X110321600Y-116359900D01*
X110321600Y-116359900D02*
X110321600Y-129018700D01*
%TO.N,Net-(D24-K)*%
X131057200Y-164165100D02*
X131057200Y-182343700D01*
X130394900Y-163502800D02*
X131057200Y-164165100D01*
%TO.N,Net-(D26-K)*%
X109488700Y-171584700D02*
X109488700Y-194193700D01*
X119727600Y-161345800D02*
X109488700Y-171584700D01*
%TO.N,Net-(D27-K)*%
X139354700Y-159003200D02*
X138960400Y-159397500D01*
X139354700Y-135162800D02*
X139354700Y-159003200D01*
%TO.N,Net-(D29-K)*%
X160260900Y-123929000D02*
X160260900Y-140868700D01*
X166130600Y-118059300D02*
X160260900Y-123929000D01*
%TO.N,Net-(D30-K)*%
X154287700Y-107307100D02*
X154287700Y-117170200D01*
X153619800Y-106639200D02*
X154287700Y-107307100D01*
%TO.N,Net-(D32-K)*%
X160260900Y-155681200D02*
X160260900Y-167531200D01*
%TO.N,Net-(D33-K)*%
X158610200Y-168327900D02*
X157338400Y-169599700D01*
X157338400Y-169599700D02*
X157338400Y-180116800D01*
%TO.N,Net-(D38-K)*%
X184898500Y-184537600D02*
X184129900Y-185306200D01*
X184898500Y-172166800D02*
X184898500Y-184537600D01*
%TO.N,Net-(D39-K)*%
X202073300Y-173456200D02*
X208046500Y-179429400D01*
X208046500Y-179429400D02*
X208046500Y-194193700D01*
%TO.N,Net-(D42-K)*%
X193289200Y-161669100D02*
X193289200Y-156081200D01*
X194076600Y-162456500D02*
X193289200Y-161669100D01*
%TO.N,Net-(D43-K)*%
X194828800Y-133621700D02*
X194828800Y-143142400D01*
X194828800Y-143142400D02*
X190047200Y-147924000D01*
X190047200Y-147924000D02*
X186497300Y-147924000D01*
X193242000Y-132034900D02*
X194828800Y-133621700D01*
X186497300Y-147924000D02*
X184563500Y-149857800D01*
%TO.N,Net-(D45-K)*%
X166234100Y-107402400D02*
X165259200Y-106427500D01*
X166234100Y-117168700D02*
X166234100Y-107402400D01*
%TO.N,Net-(D47-K)*%
X210569600Y-116232900D02*
X208601600Y-118200900D01*
X210569600Y-103077200D02*
X210569600Y-116232900D01*
%TO.N,Net-(D48-K)*%
X226315500Y-117367300D02*
X226942500Y-117994300D01*
X226315500Y-107383000D02*
X226315500Y-117367300D01*
%TO.N,Net-(D49-K)*%
X227918400Y-130215800D02*
X217271100Y-140863100D01*
X217271100Y-140863100D02*
X217271100Y-141345600D01*
X227918400Y-109164400D02*
X227918400Y-130215800D01*
X229089900Y-107992900D02*
X227918400Y-109164400D01*
%TO.N,Net-(D52-K)*%
X232086900Y-152718700D02*
X236040300Y-148765300D01*
X236040300Y-148765300D02*
X236040300Y-133024800D01*
%TO.N,Net-(D53-K)*%
X228479100Y-175306800D02*
X229192100Y-176019800D01*
X228479100Y-152018400D02*
X228479100Y-175306800D01*
%TO.N,Net-(D54-K)*%
X222979500Y-184926600D02*
X232520000Y-194467100D01*
X222979500Y-176418700D02*
X222979500Y-184926600D01*
%TO.N,Net-(D56-K)*%
X256678800Y-152697800D02*
X256678800Y-192225500D01*
X256678800Y-192225500D02*
X252165300Y-196739000D01*
%TO.N,Net-(D58-K)*%
X266065900Y-140272700D02*
X266065900Y-121393200D01*
X265554300Y-140784300D02*
X266065900Y-140272700D01*
%TO.N,Net-(D61-K)*%
X258878200Y-172862500D02*
X264791900Y-166948800D01*
X264791900Y-166948800D02*
X264791900Y-161029800D01*
%TO.N,Net-(D65-K)*%
X284851500Y-177337600D02*
X294657900Y-167531200D01*
X284851500Y-191231200D02*
X284851500Y-177337600D01*
%TO.N,Net-(D68-K)*%
X294657900Y-125098900D02*
X296663100Y-123093700D01*
X294657900Y-143831200D02*
X294657900Y-125098900D01*
%TO.N,Net-(D73-K)*%
X321537300Y-150527600D02*
X321537300Y-130905300D01*
X321537300Y-130905300D02*
X324523900Y-127918700D01*
%TO.N,Net-(D74-K)*%
X325271700Y-154066900D02*
X325271700Y-168289100D01*
X327510500Y-151828100D02*
X325271700Y-154066900D01*
%TO.N,Net-(D77-K)*%
X354420800Y-190852600D02*
X351079700Y-194193700D01*
X354420800Y-171328600D02*
X354420800Y-190852600D01*
%TO.N,Net-(D79-K)*%
X340659800Y-165819800D02*
X333483700Y-158643700D01*
X340659800Y-178179900D02*
X340659800Y-165819800D01*
%TO.N,Net-(D80-K)*%
X363396500Y-178946800D02*
X362802900Y-179540400D01*
X363396500Y-159513100D02*
X363396500Y-178946800D01*
%TO.N,Net-(D82-K)*%
X364310000Y-135943800D02*
X369671200Y-130582600D01*
X369671200Y-130582600D02*
X369671200Y-120131200D01*
%TO.N,Net-(D83-K)*%
X330228900Y-140036400D02*
X330228900Y-120154600D01*
X329706200Y-140559100D02*
X330228900Y-140036400D01*
X330228900Y-120154600D02*
X330205500Y-120131200D01*
%TO.N,Net-(J2-Pin_34)*%
X286580000Y-101033200D02*
X275706800Y-111906400D01*
X287850000Y-97410000D02*
X286580000Y-98680000D01*
X286580000Y-98680000D02*
X286580000Y-101033200D01*
X275706800Y-111906400D02*
X275706800Y-112131800D01*
%TO.N,Net-(J2-Pin_3)*%
X94143200Y-114207800D02*
X94143200Y-114207700D01*
X95492400Y-112858600D02*
X95492400Y-111338600D01*
X94143200Y-114207800D02*
X95492400Y-112858600D01*
X325950000Y-99950000D02*
X325950000Y-110941600D01*
X325950000Y-110941600D02*
X322685400Y-114206200D01*
X94143200Y-114207700D02*
X94143200Y-114207800D01*
%TO.N,Net-(J2-Pin_32)*%
X192050000Y-117730000D02*
X193630600Y-116149400D01*
X193630600Y-116149400D02*
X193630600Y-99910800D01*
X193630600Y-99910800D02*
X193113500Y-99393700D01*
%TO.N,Net-(J2-Pin_28)*%
X299280000Y-151071600D02*
X296594200Y-153757400D01*
X296721800Y-96158200D02*
X298620400Y-96158200D01*
X296594200Y-153757400D02*
X296594200Y-170493700D01*
X298620400Y-96158200D02*
X299280000Y-96817800D01*
X295470000Y-97410000D02*
X296721800Y-96158200D01*
X299280000Y-96817800D02*
X299280000Y-151071600D01*
%TO.N,Net-(J2-Pin_11)*%
X283005100Y-156624900D02*
X283005100Y-105600300D01*
X260050000Y-179580000D02*
X283005100Y-156624900D01*
%TO.N,Net-(J2-Pin_13)*%
X314750000Y-174450000D02*
X314750000Y-101450000D01*
X314750000Y-101450000D02*
X313250000Y-99950000D01*
%TO.N,Net-(J2-Pin_12)*%
X309440000Y-164018000D02*
X297621100Y-175836900D01*
X315790000Y-97410000D02*
X314512200Y-96132200D01*
X310154500Y-96132200D02*
X309440000Y-96846700D01*
X297621100Y-175836900D02*
X297621100Y-178960000D01*
X314512200Y-96132200D02*
X310154500Y-96132200D01*
X309440000Y-96846700D02*
X309440000Y-164018000D01*
%TO.N,Net-(J2-Pin_8)*%
X320870000Y-97410000D02*
X319598500Y-98681500D01*
X312542100Y-176418700D02*
X312542100Y-177052100D01*
X319598500Y-98681500D02*
X319598500Y-135305600D01*
X315696800Y-175601700D02*
X313359100Y-175601700D01*
X319531100Y-171767400D02*
X315696800Y-175601700D01*
X313359100Y-175601700D02*
X312542100Y-176418700D01*
X319531100Y-135373000D02*
X319531100Y-171767400D01*
X319598500Y-135305600D02*
X319531100Y-135373000D01*
%TO.N,Net-(J2-Pin_33)*%
X176350000Y-106186800D02*
X181335900Y-101200900D01*
X176350000Y-117150000D02*
X176350000Y-106186800D01*
%TO.N,Net-(J2-Pin_27)*%
X286554300Y-126919900D02*
X286554300Y-126920000D01*
X295470000Y-99950000D02*
X295470000Y-118248100D01*
X295470000Y-118248100D02*
X286798200Y-126919900D01*
X286798200Y-126919900D02*
X286554300Y-126919900D01*
%TO.N,Net-(J2-Pin_17)*%
X306604300Y-101515700D02*
X308170000Y-99950000D01*
X306604300Y-140868700D02*
X306604300Y-101515700D01*
%TO.N,Net-(J2-Pin_19)*%
X127408300Y-166240000D02*
X127408300Y-105318700D01*
X120350000Y-173298300D02*
X127408300Y-166240000D01*
X120350000Y-174450000D02*
X120350000Y-173298300D01*
%TO.N,Net-(J2-Pin_14)*%
X311980100Y-98679900D02*
X311980100Y-175099800D01*
X313250000Y-97410000D02*
X311980100Y-98679900D01*
X311826700Y-177758400D02*
X313598300Y-179530000D01*
X311980100Y-175099800D02*
X311826700Y-175253200D01*
X314750000Y-179530000D02*
X313598300Y-179530000D01*
X311826700Y-175253200D02*
X311826700Y-177758400D01*
%TO.N,Net-(J2-Pin_35)*%
X225175500Y-111704500D02*
X219050000Y-117830000D01*
X225175500Y-100677200D02*
X225175500Y-111704500D01*
X225966100Y-99886600D02*
X225175500Y-100677200D01*
%TO.N,Net-(J2-Pin_9)*%
X318295600Y-99984400D02*
X318295600Y-137906200D01*
X162900000Y-179010000D02*
X162900000Y-177858300D01*
X318330000Y-99950000D02*
X318295600Y-99984400D01*
X172207300Y-138183600D02*
X172207300Y-168551000D01*
X172207300Y-168551000D02*
X162900000Y-177858300D01*
%TO.N,Net-(J2-Pin_25)*%
X221012700Y-108447300D02*
X221012700Y-108222100D01*
X221012700Y-108447300D02*
X203400000Y-126060000D01*
X203400000Y-126060000D02*
X203400000Y-161400000D01*
X298327500Y-104675600D02*
X298327500Y-100267500D01*
X298327500Y-100267500D02*
X298010000Y-99950000D01*
%TO.N,Net-(J2-Pin_10)*%
X317060000Y-166474900D02*
X317060000Y-98680000D01*
X317060000Y-98680000D02*
X318330000Y-97410000D01*
X316003700Y-167531200D02*
X317060000Y-166474900D01*
%TO.N,Net-(J2-Pin_26)*%
X286000000Y-130730000D02*
X286000000Y-129578300D01*
X296740000Y-98680000D02*
X296740000Y-100882000D01*
X298010000Y-97410000D02*
X296740000Y-98680000D01*
X286719800Y-129578300D02*
X286000000Y-129578300D01*
X296673300Y-119624800D02*
X286719800Y-129578300D01*
X296740000Y-100882000D02*
X296673300Y-100948700D01*
X296673300Y-100948700D02*
X296673300Y-119624800D01*
%TO.N,Net-(J2-Pin_16)*%
X87608200Y-138606500D02*
X89100000Y-140098300D01*
X90722500Y-107209400D02*
X87608200Y-110323700D01*
X87608200Y-110323700D02*
X87608200Y-138606500D01*
X89100000Y-141250000D02*
X89100000Y-140098300D01*
X90722500Y-99017500D02*
X90722500Y-107209400D01*
%TO.N,Net-(J2-Pin_7)*%
X178600000Y-174510000D02*
X178600000Y-173358300D01*
X178600000Y-173358300D02*
X178201200Y-172959500D01*
X177729200Y-145226800D02*
X177729200Y-137206500D01*
X320232800Y-135663500D02*
X320232800Y-100587200D01*
X320232800Y-100587200D02*
X320870000Y-99950000D01*
X178201200Y-145698800D02*
X177729200Y-145226800D01*
X178201200Y-172959500D02*
X178201200Y-145698800D01*
%TO.N,Net-(J2-Pin_23)*%
X300550000Y-99950000D02*
X300550000Y-154273100D01*
X300550000Y-154273100D02*
X299500000Y-155323100D01*
X299500000Y-157343100D02*
X300900300Y-158743400D01*
X299500000Y-155323100D02*
X299500000Y-157343100D01*
%TO.N,Net-(J2-Pin_24)*%
X300550000Y-97410000D02*
X300550000Y-97233700D01*
X291678100Y-96860800D02*
X291678100Y-118820200D01*
X286000000Y-125650000D02*
X286000000Y-124498300D01*
X292982400Y-95556500D02*
X291678100Y-96860800D01*
X300550000Y-97233700D02*
X298872800Y-95556500D01*
X291678100Y-118820200D02*
X286000000Y-124498300D01*
X298872800Y-95556500D02*
X292982400Y-95556500D01*
%TO.N,Net-(J2-Pin_18)*%
X111128200Y-145178300D02*
X111128200Y-118636300D01*
X111128200Y-118636300D02*
X128608000Y-101156500D01*
%TO.N,Net-(J2-Pin_2)*%
X328490000Y-97410000D02*
X327220000Y-98680000D01*
X327220000Y-98680000D02*
X327220000Y-111864900D01*
X91680200Y-113399800D02*
X91680200Y-110576100D01*
X89400000Y-115680000D02*
X91680200Y-113399800D01*
X327220000Y-111864900D02*
X324701300Y-114383600D01*
%TO.N,Net-(J2-Pin_6)*%
X322138600Y-98681400D02*
X322138600Y-113760800D01*
X320621500Y-136267100D02*
X320621500Y-174780000D01*
X320934500Y-114964900D02*
X320934500Y-135954100D01*
X323410000Y-97410000D02*
X322138600Y-98681400D01*
X322138600Y-113760800D02*
X320934500Y-114964900D01*
X320934500Y-135954100D02*
X320621500Y-136267100D01*
X320621500Y-174780000D02*
X317141500Y-178260000D01*
%TO.N,Net-(J2-Pin_30)*%
X295888400Y-150721500D02*
X295888400Y-171757600D01*
X295888400Y-171757600D02*
X294423800Y-173222200D01*
X297375000Y-101239200D02*
X297375000Y-149234900D01*
X297375000Y-149234900D02*
X295888400Y-150721500D01*
%TO.N,Net-(J2-Pin_29)*%
X332209100Y-147820600D02*
X332209100Y-112120000D01*
X292521400Y-100358600D02*
X292521400Y-109269400D01*
X344255900Y-177585900D02*
X344255900Y-159867400D01*
X346000000Y-179330000D02*
X344255900Y-177585900D01*
X344255900Y-159867400D02*
X332209100Y-147820600D01*
X292930000Y-99950000D02*
X292521400Y-100358600D01*
%TO.N,Net-(J2-Pin_15)*%
X310710000Y-166138300D02*
X310710000Y-99950000D01*
X299050000Y-177798300D02*
X310710000Y-166138300D01*
X299050000Y-178950000D02*
X299050000Y-177798300D01*
%TO.N,Net-(J2-Pin_4)*%
X92643000Y-169455300D02*
X89150000Y-172948300D01*
X92643000Y-97493100D02*
X92643000Y-169455300D01*
X89150000Y-174100000D02*
X89150000Y-172948300D01*
%TO.N,Net-(J2-Pin_36)*%
X278805800Y-97127800D02*
X278805800Y-97064100D01*
X208046500Y-98196200D02*
X203350000Y-102892700D01*
X279744200Y-96125700D02*
X284025700Y-96125700D01*
X284025700Y-96125700D02*
X285310000Y-97410000D01*
X203350000Y-102892700D02*
X203350000Y-117250000D01*
X278805800Y-97064100D02*
X279744200Y-96125700D01*
%TO.N,Net-(J2-Pin_21)*%
X303017700Y-100022300D02*
X303017700Y-138927700D01*
X104650000Y-178950000D02*
X104650000Y-177798300D01*
X119313400Y-144494300D02*
X104650000Y-159157700D01*
X104650000Y-159157700D02*
X104650000Y-177798300D01*
X303090000Y-99950000D02*
X303017700Y-100022300D01*
%TO.N,Net-(J2-Pin_5)*%
X86970800Y-109684400D02*
X86970800Y-177000800D01*
X86970800Y-177000800D02*
X89150000Y-179180000D01*
X87469800Y-109185400D02*
X86970800Y-109684400D01*
%TO.N,Net-(J2-Pin_22)*%
X301818600Y-98681400D02*
X301818600Y-154063400D01*
X301818600Y-154063400D02*
X300238900Y-155643100D01*
X303090000Y-97410000D02*
X301818600Y-98681400D01*
%TO.N,Net-(J2-Pin_1)*%
X266020700Y-111735200D02*
X258036400Y-111735200D01*
X267002500Y-103750900D02*
X266020700Y-103750900D01*
X266020700Y-103750900D02*
X267002500Y-103750900D01*
X258036400Y-111735200D02*
X266020700Y-111735200D01*
X267002500Y-103750900D02*
X266020700Y-103750900D01*
X266020700Y-103750900D02*
X258036400Y-111735200D01*
%TO.N,Net-(J2-Pin_31)*%
X192050000Y-109802800D02*
X192928900Y-108923900D01*
X288684700Y-107915100D02*
X290390000Y-106209800D01*
X290390000Y-106209800D02*
X290390000Y-99950000D01*
X192050000Y-112650000D02*
X192050000Y-109802800D01*
%TO.N,Net-(J2-Pin_20)*%
X285698100Y-186817800D02*
X304360000Y-168155900D01*
X119189900Y-195559300D02*
X121435100Y-197804500D01*
X304360000Y-98680000D02*
X305630000Y-97410000D01*
X119189900Y-180690100D02*
X119189900Y-195559300D01*
X120350000Y-179530000D02*
X119189900Y-180690100D01*
X285698100Y-200063700D02*
X285698100Y-186817800D01*
X304360000Y-168155900D02*
X304360000Y-98680000D01*
%TD*%
M02*
