v 89.285568 94.939278 24.249998
v 90.991440 94.939278 24.249998
v 90.825867 94.885628 24.249998
v 90.656967 94.843628 24.249998
v 90.485550 94.813477 24.249998
v 90.312447 94.795334 24.249998
v 90.138504 94.789276 24.249998
v 89.964561 94.795334 24.249998
v 89.791466 94.813477 24.249998
v 89.620049 94.843628 24.249998
v 89.451141 94.885628 24.249998
v 90.991440 94.939278 23.249998
v 91.159554 95.007294 23.249998
v 91.322296 95.087318 23.249998
v 91.478813 95.178925 23.249998
v 91.628265 95.281639 23.249998
v 91.769890 95.394920 23.249998
v 91.902924 95.518166 23.249998
v 92.026672 95.650734 23.249998
v 92.140488 95.791924 23.249998
v 92.243767 95.940994 23.249998
v 92.335968 96.097160 23.249998
v 92.416611 96.259598 23.249998
v 92.485260 96.427452 23.249998
v 92.541565 96.599838 23.249998
v 92.585220 96.775864 23.249998
v 92.615997 96.954582 23.249998
v 92.633743 97.135063 23.249998
v 92.638359 97.316353 23.249998
v 92.629822 97.497505 23.249998
v 92.608170 97.677559 23.249998
v 92.573524 97.855568 23.249998
v 92.526062 98.030602 23.249996
v 92.466042 98.201729 23.249996
v 92.393768 98.368065 23.249996
v 92.309631 98.528717 23.249996
v 92.214073 98.682846 23.249996
v 92.107590 98.829643 23.249996
v 91.990738 98.968330 23.249996
v 91.864143 99.098190 23.249996
v 91.728470 99.218529 23.249996
v 91.584435 99.328712 23.249996
v 91.432785 99.428162 23.249996
v 91.274323 99.516365 23.249996
v 91.109886 99.592842 23.249996
v 90.940338 99.657204 23.249996
v 90.766571 99.709099 23.249996
v 90.589500 99.748260 23.249996
v 90.410057 99.774483 23.249996
v 90.229179 99.787636 23.249996
v 90.047829 99.787636 23.249996
v 89.866959 99.774483 23.249996
v 89.687508 99.748260 23.249996
v 89.510437 99.709099 23.249996
v 89.336670 99.657204 23.249996
v 89.167122 99.592842 23.249996
v 89.002686 99.516365 23.249996
v 88.844231 99.428162 23.249996
v 88.692581 99.328712 23.249996
v 88.548538 99.218529 23.249996
v 88.412865 99.098190 23.249996
v 88.286270 98.968330 23.249996
v 88.169426 98.829643 23.249996
v 88.062943 98.682846 23.249996
v 87.967377 98.528717 23.249996
v 87.883240 98.368065 23.249996
v 87.810974 98.201729 23.249996
v 87.750946 98.030602 23.249996
v 87.703491 97.855568 23.249998
v 87.668846 97.677559 23.249998
v 87.647194 97.497505 23.249998
v 87.638657 97.316353 23.249998
v 87.643265 97.135063 23.249998
v 87.661011 96.954582 23.249998
v 87.691795 96.775864 23.249998
v 87.735451 96.599838 23.249998
v 87.791756 96.427452 23.249998
v 87.860405 96.259598 23.249998
v 87.941040 96.097160 23.249998
v 88.033241 95.940994 23.249998
v 88.136520 95.791924 23.249998
v 88.250336 95.650734 23.249998
v 88.374084 95.518166 23.249998
v 88.507126 95.394920 23.249998
v 88.648743 95.281639 23.249998
v 88.798203 95.178925 23.249998
v 88.954712 95.087318 23.249998
v 89.117455 95.007294 23.249998
v 89.285568 94.939278 23.249998
v 87.638504 97.289276 21.249998
v 87.645180 97.471764 21.249998
v 87.665146 97.653275 21.249998
v 87.698318 97.832848 21.249998
v 87.744507 98.009521 21.249996
v 87.803467 98.182350 21.249996
v 87.874886 98.350418 21.249996
v 87.958382 98.512817 21.249996
v 88.053513 98.668694 21.249996
v 88.159767 98.817207 21.249996
v 88.276573 98.957573 21.249996
v 88.403320 99.089035 21.249996
v 88.539322 99.210892 21.249996
v 88.683861 99.322502 21.249996
v 88.836159 99.423256 21.249996
v 88.995399 99.512627 21.249996
v 89.160744 99.590141 21.249996
v 89.331306 99.655373 21.249996
v 89.506172 99.707985 21.249996
v 89.684418 99.747688 21.249996
v 89.865082 99.774277 21.249996
v 90.047203 99.787605 21.249996
v 90.229813 99.787605 21.249996
v 90.411934 99.774277 21.249996
v 90.592598 99.747688 21.249996
v 90.770836 99.707985 21.249996
v 90.945709 99.655373 21.249996
v 91.116264 99.590141 21.249996
v 91.281609 99.512627 21.249996
v 91.440857 99.423256 21.249996
v 91.593155 99.322502 21.249996
v 91.737686 99.210892 21.249996
v 91.873688 99.089035 21.249996
v 92.000435 98.957573 21.249996
v 92.117249 98.817207 21.249996
v 92.223503 98.668694 21.249996
v 92.318626 98.512817 21.249996
v 92.402122 98.350418 21.249996
v 92.473549 98.182350 21.249996
v 92.532509 98.009521 21.249996
v 92.578697 97.832848 21.249998
v 92.611862 97.653275 21.249998
v 92.631836 97.471764 21.249998
v 92.638504 97.289276 21.249998
v 92.631836 97.106789 21.249998
v 92.611862 96.925270 21.249998
v 92.578697 96.745697 21.249998
v 92.532509 96.569031 21.249998
v 92.473549 96.396194 21.249998
v 92.402122 96.228134 21.249998
v 92.318626 96.065727 21.249998
v 92.223503 95.909859 21.249998
v 92.117249 95.761337 21.249998
v 92.000435 95.620979 21.249998
v 91.873688 95.489517 21.249998
v 91.737686 95.367661 21.249998
v 91.593155 95.256050 21.249998
v 91.440857 95.155289 21.249998
v 91.281609 95.065918 21.249998
v 91.116264 94.988411 21.249998
v 90.945709 94.923172 21.249998
v 90.770836 94.870567 21.249998
v 90.592598 94.830864 21.249998
v 90.411934 94.804268 21.249998
v 90.229813 94.790939 21.249998
v 90.047203 94.790939 21.249998
v 89.865082 94.804268 21.249998
v 89.684418 94.830864 21.249998
v 89.506172 94.870567 21.249998
v 89.331306 94.923172 21.249998
v 89.160744 94.988411 21.249998
v 88.995399 95.065918 21.249998
v 88.836159 95.155289 21.249998
v 88.683861 95.256050 21.249998
v 88.539322 95.367661 21.249998
v 88.403320 95.489517 21.249998
v 88.276573 95.620979 21.249998
v 88.159767 95.761337 21.249998
v 88.053513 95.909859 21.249998
v 87.958382 96.065727 21.249998
v 87.874886 96.228134 21.249998
v 87.803467 96.396194 21.249998
v 87.744507 96.569031 21.249998
v 87.698318 96.745697 21.249998
v 87.665146 96.925270 21.249998
v 87.645180 97.106789 21.249998
v 98.118301 109.139275 24.249996
v 96.158714 109.139275 24.249996
v 96.315178 109.199814 24.249996
v 96.475349 109.249718 24.249996
v 96.638504 109.288765 24.249996
v 96.803917 109.316788 24.249996
v 96.970833 109.333649 24.249996
v 97.138504 109.339279 24.249996
v 97.306175 109.333649 24.249996
v 97.473099 109.316788 24.249996
v 97.638504 109.288765 24.249996
v 97.801666 109.249718 24.249996
v 97.961838 109.199814 24.249996
v 96.158714 109.139275 23.249996
v 95.993484 109.061646 23.249996
v 95.834373 108.972168 23.249996
v 95.682205 108.871315 23.249996
v 95.537804 108.759628 23.249996
v 95.401939 108.637703 23.249996
v 95.275337 108.506187 23.249996
v 95.158669 108.365791 23.249996
v 95.052551 108.217247 23.249996
v 94.957558 108.061356 23.249996
v 94.874199 107.898949 23.249996
v 94.802910 107.730896 23.249996
v 94.744072 107.558083 23.249996
v 94.698006 107.381447 23.249996
v 94.664948 107.201912 23.249996
v 94.645081 107.020447 23.249996
v 94.638504 106.838013 23.249996
v 94.645264 106.655586 23.249996
v 94.665314 106.474136 23.249996
v 94.698555 106.294640 23.249996
v 94.744804 106.118042 23.249996
v 94.803810 105.945290 23.249996
v 94.875275 105.777306 23.249996
v 94.958801 105.614990 23.249996
v 95.053947 105.459190 23.249996
v 95.160217 105.310760 23.249996
v 95.277023 105.170479 23.249996
v 95.403763 105.039085 23.249996
v 95.539757 104.917297 23.249996
v 95.684265 104.805763 23.249996
v 95.836533 104.705063 23.249996
v 95.995743 104.615746 23.249996
v 96.161041 104.538284 23.249996
v 96.331558 104.473091 23.249996
v 96.506371 104.420517 23.249996
v 96.684555 104.380836 23.249996
v 96.865166 104.354263 23.249996
v 97.047234 104.340942 23.249996
v 97.229782 104.340942 23.249996
v 97.411842 104.354263 23.249996
v 97.592453 104.380836 23.249996
v 97.770638 104.420517 23.249996
v 97.945457 104.473091 23.249996
v 98.115967 104.538284 23.249996
v 98.281273 104.615746 23.249996
v 98.440475 104.705063 23.249996
v 98.592743 104.805763 23.249996
v 98.737259 104.917297 23.249996
v 98.873245 105.039085 23.249996
v 98.999985 105.170479 23.249996
v 99.116791 105.310760 23.249996
v 99.223068 105.459190 23.249996
v 99.318207 105.614990 23.249996
v 99.401733 105.777306 23.249996
v 99.473206 105.945290 23.249996
v 99.532211 106.118042 23.249996
v 99.578461 106.294640 23.249996
v 99.611694 106.474136 23.249996
v 99.631744 106.655586 23.249996
v 99.638504 106.838013 23.249996
v 99.631927 107.020447 23.249996
v 99.612061 107.201912 23.249996
v 99.579010 107.381447 23.249996
v 99.532944 107.558083 23.249996
v 99.474106 107.730896 23.249996
v 99.402817 107.898949 23.249996
v 99.319443 108.061356 23.249996
v 99.224457 108.217247 23.249996
v 99.118347 108.365791 23.249996
v 99.001678 108.506187 23.249996
v 98.875069 108.637703 23.249996
v 98.739204 108.759628 23.249996
v 98.594803 108.871315 23.249996
v 98.442642 108.972168 23.249996
v 98.283524 109.061646 23.249996
v 98.118301 109.139275 23.249996
v 94.638504 106.839272 21.249996
v 94.645172 107.021767 21.249996
v 94.665146 107.203278 21.249996
v 94.698318 107.382851 21.249996
v 94.744507 107.559525 21.249996
v 94.803467 107.732353 21.249996
v 94.874886 107.900414 21.249996
v 94.958382 108.062820 21.249996
v 95.053513 108.218697 21.249996
v 95.159767 108.367210 21.249996
v 95.276573 108.507568 21.249996
v 95.403320 108.639030 21.249996
v 95.539322 108.760895 21.249996
v 95.683861 108.872498 21.249996
v 95.836159 108.973259 21.249996
v 95.995399 109.062630 21.249996
v 96.160744 109.140137 21.249996
v 96.331306 109.205376 21.249996
v 96.506172 109.257988 21.249996
v 96.684410 109.297691 21.249996
v 96.865082 109.324280 21.249996
v 97.047203 109.337608 21.249996
v 97.229813 109.337608 21.249996
v 97.411934 109.324280 21.249996
v 97.592598 109.297691 21.249996
v 97.770836 109.257988 21.249996
v 97.945709 109.205376 21.249996
v 98.116264 109.140137 21.249996
v 98.281609 109.062630 21.249996
v 98.440857 108.973259 21.249996
v 98.593155 108.872498 21.249996
v 98.737686 108.760895 21.249996
v 98.873688 108.639030 21.249996
v 99.000443 108.507568 21.249996
v 99.117249 108.367210 21.249996
v 99.223495 108.218697 21.249996
v 99.318634 108.062820 21.249996
v 99.402130 107.900414 21.249996
v 99.473541 107.732353 21.249996
v 99.532501 107.559525 21.249996
v 99.578690 107.382851 21.249996
v 99.611862 107.203278 21.249996
v 99.631836 107.021767 21.249996
v 99.638504 106.839272 21.249996
v 99.631836 106.656784 21.249996
v 99.611862 106.475273 21.249996
v 99.578690 106.295700 21.249996
v 99.532501 106.119026 21.249996
v 99.473541 105.946198 21.249996
v 99.402130 105.778130 21.249996
v 99.318634 105.615730 21.249996
v 99.223495 105.459854 21.249996
v 99.117249 105.311340 21.249996
v 99.000443 105.170975 21.249996
v 98.873688 105.039513 21.249996
v 98.737686 104.917656 21.249996
v 98.593155 104.806053 21.249996
v 98.440857 104.705292 21.249996
v 98.281609 104.615921 21.249996
v 98.116264 104.538406 21.249996
v 97.945709 104.473175 21.249996
v 97.770836 104.420563 21.249996
v 97.592598 104.380859 21.249996
v 97.411934 104.354271 21.249996
v 97.229813 104.340942 21.249996
v 97.047203 104.340942 21.249996
v 96.865082 104.354271 21.249996
v 96.684410 104.380859 21.249996
v 96.506172 104.420563 21.249996
v 96.331306 104.473175 21.249996
v 96.160744 104.538406 21.249996
v 95.995399 104.615921 21.249996
v 95.836159 104.705292 21.249996
v 95.683861 104.806053 21.249996
v 95.539322 104.917656 21.249996
v 95.403320 105.039513 21.249996
v 95.276573 105.170975 21.249996
v 95.159767 105.311340 21.249996
v 95.053513 105.459854 21.249996
v 94.958382 105.615730 21.249996
v 94.874886 105.778130 21.249996
v 94.803467 105.946198 21.249996
v 94.744507 106.119026 21.249996
v 94.698318 106.295700 21.249996
v 94.665146 106.475273 21.249996
v 94.645172 106.656784 21.249996
v 96.158707 94.939278 24.249998
v 98.118301 94.939278 24.249998
v 97.961838 94.878738 24.249998
v 97.801666 94.828835 24.249998
v 97.638504 94.789787 24.249998
v 97.473099 94.761765 24.249998
v 97.306175 94.744904 24.249998
v 97.138504 94.739273 24.249998
v 96.970833 94.744904 24.249998
v 96.803917 94.761765 24.249998
v 96.638504 94.789787 24.249998
v 96.475349 94.828835 24.249998
v 96.315170 94.878738 24.249998
v 98.118301 94.939278 23.249998
v 98.283524 95.016907 23.249998
v 98.442642 95.106384 23.249998
v 98.594810 95.207237 23.249998
v 98.739204 95.318924 23.249998
v 98.875069 95.440849 23.249998
v 99.001678 95.572365 23.249998
v 99.118347 95.712769 23.249998
v 99.224457 95.861313 23.249998
v 99.319458 96.017197 23.249998
v 99.402817 96.179604 23.249998
v 99.474106 96.347656 23.249998
v 99.532944 96.520470 23.249998
v 99.579010 96.697113 23.249998
v 99.612061 96.876648 23.249998
v 99.631927 97.058113 23.249998
v 99.638504 97.240547 23.249998
v 99.631744 97.422974 23.249998
v 99.611694 97.604416 23.249998
v 99.578461 97.783920 23.249998
v 99.532211 97.960510 23.249998
v 99.473206 98.133263 23.249996
v 99.401733 98.301247 23.249996
v 99.318207 98.463570 23.249996
v 99.223068 98.619362 23.249996
v 99.116791 98.767792 23.249996
v 98.999985 98.908081 23.249996
v 98.873245 99.039467 23.249996
v 98.737259 99.161255 23.249996
v 98.592743 99.272797 23.249996
v 98.440475 99.373489 23.249996
v 98.281273 99.462807 23.249996
v 98.115967 99.540268 23.249996
v 97.945457 99.605461 23.249996
v 97.770638 99.658035 23.249996
v 97.592453 99.697716 23.249996
v 97.411842 99.724289 23.249996
v 97.229782 99.737610 23.249996
v 97.047234 99.737610 23.249996
v 96.865166 99.724289 23.249996
v 96.684555 99.697716 23.249996
v 96.506371 99.658035 23.249996
v 96.331558 99.605461 23.249996
v 96.161041 99.540268 23.249996
v 95.995743 99.462807 23.249996
v 95.836533 99.373489 23.249996
v 95.684265 99.272797 23.249996
v 95.539757 99.161255 23.249996
v 95.403763 99.039467 23.249996
v 95.277031 98.908081 23.249996
v 95.160217 98.767792 23.249996
v 95.053947 98.619362 23.249996
v 94.958801 98.463570 23.249996
v 94.875275 98.301247 23.249996
v 94.803810 98.133263 23.249996
v 94.744804 97.960510 23.249998
v 94.698555 97.783920 23.249998
v 94.665314 97.604416 23.249998
v 94.645264 97.422974 23.249998
v 94.638504 97.240547 23.249998
v 94.645081 97.058113 23.249998
v 94.664948 96.876648 23.249998
v 94.698006 96.697113 23.249998
v 94.744072 96.520470 23.249998
v 94.802910 96.347656 23.249998
v 94.874199 96.179604 23.249998
v 94.957558 96.017197 23.249998
v 95.052551 95.861313 23.249998
v 95.158669 95.712769 23.249998
v 95.275337 95.572365 23.249998
v 95.401939 95.440849 23.249998
v 95.537804 95.318924 23.249998
v 95.682205 95.207237 23.249998
v 95.834366 95.106384 23.249998
v 95.993484 95.016907 23.249998
v 96.158707 94.939278 23.249998
v 94.638504 97.239273 21.249998
v 94.645172 97.421761 21.249998
v 94.665146 97.603279 21.249998
v 94.698318 97.782852 21.249998
v 94.744507 97.959518 21.249998
v 94.803467 98.132355 21.249996
v 94.874886 98.300415 21.249996
v 94.958382 98.462822 21.249996
v 95.053513 98.618690 21.249996
v 95.159767 98.767212 21.249996
v 95.276573 98.907570 21.249996
v 95.403320 99.039032 21.249996
v 95.539322 99.160889 21.249996
v 95.683861 99.272499 21.249996
v 95.836159 99.373260 21.249996
v 95.995399 99.462631 21.249996
v 96.160744 99.540138 21.249996
v 96.331306 99.605377 21.249996
v 96.506172 99.657982 21.249996
v 96.684410 99.697693 21.249996
v 96.865082 99.724274 21.249996
v 97.047203 99.737610 21.249996
v 97.229813 99.737610 21.249996
v 97.411934 99.724274 21.249996
v 97.592598 99.697693 21.249996
v 97.770836 99.657982 21.249996
v 97.945709 99.605377 21.249996
v 98.116264 99.540138 21.249996
v 98.281609 99.462631 21.249996
v 98.440857 99.373260 21.249996
v 98.593155 99.272499 21.249996
v 98.737686 99.160889 21.249996
v 98.873688 99.039032 21.249996
v 99.000443 98.907570 21.249996
v 99.117249 98.767212 21.249996
v 99.223495 98.618690 21.249996
v 99.318634 98.462822 21.249996
v 99.402130 98.300415 21.249996
v 99.473541 98.132355 21.249996
v 99.532501 97.959518 21.249998
v 99.578690 97.782852 21.249998
v 99.611862 97.603279 21.249998
v 99.631836 97.421761 21.249998
v 99.638504 97.239273 21.249998
v 99.631836 97.056786 21.249998
v 99.611862 96.875275 21.249998
v 99.578690 96.695702 21.249998
v 99.532501 96.519028 21.249998
v 99.473541 96.346199 21.249998
v 99.402130 96.178131 21.249998
v 99.318634 96.015732 21.249998
v 99.223495 95.859856 21.249998
v 99.117249 95.711342 21.249998
v 99.000443 95.570976 21.249998
v 98.873688 95.439514 21.249998
v 98.737686 95.317657 21.249998
v 98.593155 95.206047 21.249998
v 98.440857 95.105293 21.249998
v 98.281609 95.015923 21.249998
v 98.116264 94.938408 21.249998
v 97.945709 94.873177 21.249998
v 97.770836 94.820564 21.249998
v 97.592598 94.780861 21.249998
v 97.411934 94.754272 21.249998
v 97.229813 94.740944 21.249998
v 97.047203 94.740944 21.249998
v 96.865082 94.754272 21.249998
v 96.684410 94.780861 21.249998
v 96.506172 94.820564 21.249998
v 96.331306 94.873177 21.249998
v 96.160744 94.938408 21.249998
v 95.995399 95.015923 21.249998
v 95.836159 95.105293 21.249998
v 95.683861 95.206047 21.249998
v 95.539322 95.317657 21.249998
v 95.403320 95.439514 21.249998
v 95.276573 95.570976 21.249998
v 95.159767 95.711342 21.249998
v 95.053513 95.859856 21.249998
v 94.958382 96.015732 21.249998
v 94.874886 96.178131 21.249998
v 94.803467 96.346199 21.249998
v 94.744507 96.519028 21.249998
v 94.698318 96.695702 21.249998
v 94.665146 96.875275 21.249998
v 94.645172 97.056786 21.249998
v 91.118301 109.139275 24.249996
v 89.158714 109.139275 24.249996
v 89.315178 109.199814 24.249996
v 89.475349 109.249718 24.249996
v 89.638504 109.288765 24.249996
v 89.803917 109.316788 24.249996
v 89.970833 109.333649 24.249996
v 90.138504 109.339279 24.249996
v 90.306175 109.333649 24.249996
v 90.473099 109.316788 24.249996
v 90.638504 109.288765 24.249996
v 90.801666 109.249718 24.249996
v 90.961838 109.199814 24.249996
v 89.158714 109.139275 23.249996
v 88.993492 109.061646 23.249996
v 88.834373 108.972168 23.249996
v 88.682205 108.871315 23.249996
v 88.537811 108.759628 23.249996
v 88.401939 108.637703 23.249996
v 88.275337 108.506187 23.249996
v 88.158669 108.365791 23.249996
v 88.052551 108.217247 23.249996
v 87.957565 108.061356 23.249996
v 87.874199 107.898949 23.249996
v 87.802910 107.730896 23.249996
v 87.744072 107.558083 23.249996
v 87.698006 107.381447 23.249996
v 87.664948 107.201912 23.249996
v 87.645081 107.020447 23.249996
v 87.638504 106.838013 23.249996
v 87.645264 106.655586 23.249996
v 87.665314 106.474136 23.249996
v 87.698555 106.294640 23.249996
v 87.744804 106.118042 23.249996
v 87.803818 105.945290 23.249996
v 87.875275 105.777306 23.249996
v 87.958801 105.614990 23.249996
v 88.053947 105.459190 23.249996
v 88.160217 105.310760 23.249996
v 88.277031 105.170479 23.249996
v 88.403770 105.039085 23.249996
v 88.539757 104.917297 23.249996
v 88.684265 104.805763 23.249996
v 88.836533 104.705063 23.249996
v 88.995743 104.615746 23.249996
v 89.161041 104.538284 23.249996
v 89.331558 104.473091 23.249996
v 89.506371 104.420517 23.249996
v 89.684563 104.380836 23.249996
v 89.865166 104.354263 23.249996
v 90.047234 104.340942 23.249996
v 90.229782 104.340942 23.249996
v 90.411850 104.354263 23.249996
v 90.592453 104.380836 23.249996
v 90.770638 104.420517 23.249996
v 90.945457 104.473091 23.249996
v 91.115967 104.538284 23.249996
v 91.281273 104.615746 23.249996
v 91.440475 104.705063 23.249996
v 91.592743 104.805763 23.249996
v 91.737259 104.917297 23.249996
v 91.873245 105.039085 23.249996
v 91.999985 105.170479 23.249996
v 92.116798 105.310760 23.249996
v 92.223061 105.459190 23.249996
v 92.318214 105.614990 23.249996
v 92.401741 105.777306 23.249996
v 92.473198 105.945290 23.249996
v 92.532211 106.118042 23.249996
v 92.578461 106.294640 23.249996
v 92.611694 106.474136 23.249996
v 92.631744 106.655586 23.249996
v 92.638504 106.838013 23.249996
v 92.631935 107.020447 23.249996
v 92.612068 107.201912 23.249996
v 92.579010 107.381447 23.249996
v 92.532944 107.558083 23.249996
v 92.474106 107.730896 23.249996
v 92.402817 107.898949 23.249996
v 92.319450 108.061356 23.249996
v 92.224457 108.217247 23.249996
v 92.118347 108.365791 23.249996
v 92.001671 108.506187 23.249996
v 91.875069 108.637703 23.249996
v 91.739204 108.759628 23.249996
v 91.594803 108.871315 23.249996
v 91.442642 108.972168 23.249996
v 91.283524 109.061646 23.249996
v 91.118301 109.139275 23.249996
v 87.638504 106.839272 21.249996
v 87.645180 107.021767 21.249996
v 87.665146 107.203278 21.249996
v 87.698318 107.382851 21.249996
v 87.744507 107.559525 21.249996
v 87.803467 107.732353 21.249996
v 87.874886 107.900414 21.249996
v 87.958382 108.062820 21.249996
v 88.053513 108.218697 21.249996
v 88.159767 108.367210 21.249996
v 88.276573 108.507568 21.249996
v 88.403320 108.639030 21.249996
v 88.539322 108.760895 21.249996
v 88.683861 108.872498 21.249996
v 88.836159 108.973259 21.249996
v 88.995399 109.062630 21.249996
v 89.160744 109.140137 21.249996
v 89.331306 109.205376 21.249996
v 89.506172 109.257988 21.249996
v 89.684418 109.297691 21.249996
v 89.865082 109.324280 21.249996
v 90.047203 109.337608 21.249996
v 90.229813 109.337608 21.249996
v 90.411934 109.324280 21.249996
v 90.592598 109.297691 21.249996
v 90.770836 109.257988 21.249996
v 90.945709 109.205376 21.249996
v 91.116264 109.140137 21.249996
v 91.281609 109.062630 21.249996
v 91.440857 108.973259 21.249996
v 91.593155 108.872498 21.249996
v 91.737686 108.760895 21.249996
v 91.873688 108.639030 21.249996
v 92.000435 108.507568 21.249996
v 92.117249 108.367210 21.249996
v 92.223503 108.218697 21.249996
v 92.318626 108.062820 21.249996
v 92.402122 107.900414 21.249996
v 92.473549 107.732353 21.249996
v 92.532509 107.559525 21.249996
v 92.578697 107.382851 21.249996
v 92.611862 107.203278 21.249996
v 92.631836 107.021767 21.249996
v 92.638504 106.839272 21.249996
v 92.631836 106.656784 21.249996
v 92.611862 106.475273 21.249996
v 92.578697 106.295700 21.249996
v 92.532509 106.119026 21.249996
v 92.473549 105.946198 21.249996
v 92.402122 105.778130 21.249996
v 92.318626 105.615730 21.249996
v 92.223503 105.459854 21.249996
v 92.117249 105.311340 21.249996
v 92.000435 105.170975 21.249996
v 91.873688 105.039513 21.249996
v 91.737686 104.917656 21.249996
v 91.593155 104.806053 21.249996
v 91.440857 104.705292 21.249996
v 91.281609 104.615921 21.249996
v 91.116264 104.538406 21.249996
v 90.945709 104.473175 21.249996
v 90.770836 104.420563 21.249996
v 90.592598 104.380859 21.249996
v 90.411934 104.354271 21.249996
v 90.229813 104.340942 21.249996
v 90.047203 104.340942 21.249996
v 89.865082 104.354271 21.249996
v 89.684418 104.380859 21.249996
v 89.506172 104.420563 21.249996
v 89.331306 104.473175 21.249996
v 89.160744 104.538406 21.249996
v 88.995399 104.615921 21.249996
v 88.836159 104.705292 21.249996
v 88.683861 104.806053 21.249996
v 88.539322 104.917656 21.249996
v 88.403320 105.039513 21.249996
v 88.276573 105.170975 21.249996
v 88.159767 105.311340 21.249996
v 88.053513 105.459854 21.249996
v 87.958382 105.615730 21.249996
v 87.874886 105.778130 21.249996
v 87.803467 105.946198 21.249996
v 87.744507 106.119026 21.249996
v 87.698318 106.295700 21.249996
v 87.665146 106.475273 21.249996
v 87.645180 106.656784 21.249996
v 86.538506 94.939278 23.249998
v 86.538506 94.939278 37.431332
v 100.738510 94.939278 37.431332
v 100.738510 94.939278 23.249998
v 100.738510 109.139275 23.249996
v 100.738510 109.139275 37.411591
v 86.538506 109.139275 37.411591
v 86.538506 109.139275 23.249996
v 100.738510 100.539276 37.431332
v 86.538506 100.539276 37.431332
v 101.738510 101.539276 37.431332
v 85.538506 101.539276 37.431332
v 85.538506 93.939278 37.431332
v 101.738510 93.939278 37.431332
v 101.738510 93.939278 39.749996
v 101.738510 110.139275 39.749996
v 101.738510 110.139275 37.411591
v 101.738510 102.539276 37.411591
v 101.738510 102.539276 37.386658
v 101.738510 101.539276 37.386658
v 85.538506 93.939278 39.749996
v 86.538506 103.539276 37.411591
v 100.738510 103.539276 37.411591
v 85.538506 102.539276 37.411591
v 85.538506 110.139275 37.411591
v 85.538506 101.539276 37.386658
v 85.538506 102.539276 37.386658
v 85.538506 110.139275 39.749996
v 86.538506 100.539276 29.749996
v 100.738510 100.539276 29.749996
v 86.538506 101.539276 29.749996
v 100.738510 101.539276 29.749996
v 100.738510 101.539276 23.249996
v 86.538506 101.539276 23.249996
v 91.138504 101.539276 23.249996
v 91.138504 101.539276 25.249996
v 91.163574 101.539276 25.472519
v 91.237534 101.539276 25.683880
v 91.356674 101.539276 25.873486
v 91.515015 101.539276 26.031830
v 91.704620 101.539276 26.150967
v 91.915985 101.539276 26.224926
v 92.138504 101.539276 26.249996
v 95.138504 101.539276 26.249996
v 95.361023 101.539276 26.224926
v 95.572388 101.539276 26.150967
v 95.761993 101.539276 26.031830
v 95.920334 101.539276 25.873486
v 96.039474 101.539276 25.683880
v 96.113434 101.539276 25.472519
v 96.138504 101.539276 25.249996
v 96.138504 101.539276 23.249996
v 100.738510 103.539276 29.749996
v 86.538506 103.539276 29.749996
v 100.738510 102.539276 29.749996
v 86.538506 102.539276 29.749996
v 86.538506 102.539276 23.249996
v 100.738510 102.539276 23.249996
v 96.138504 102.539276 23.249996
v 96.138504 102.539276 25.249996
v 96.113434 102.539276 25.472519
v 96.039474 102.539276 25.683880
v 95.920334 102.539276 25.873486
v 95.761993 102.539276 26.031830
v 95.572388 102.539276 26.150967
v 95.361023 102.539276 26.224926
v 95.138504 102.539276 26.249996
v 92.138504 102.539276 26.249996
v 91.915985 102.539276 26.224926
v 91.704620 102.539276 26.150967
v 91.515015 102.539276 26.031830
v 91.356674 102.539276 25.873486
v 91.237534 102.539276 25.683880
v 91.163574 102.539276 25.472519
v 91.138504 102.539276 25.249996
v 91.138504 102.539276 23.249996
v 103.438507 102.939278 21.249996
v 103.438507 102.939278 23.249996
v 103.438507 101.139275 23.249996
v 103.438507 101.139275 21.249996
v 102.538498 102.939278 21.249996
v 102.538498 102.939278 23.249996
v 102.538498 101.139275 21.249996
v 102.538498 93.950508 21.249998
v 102.517212 93.761543 21.249998
v 102.458145 93.592720 21.249998
v 102.362976 93.441269 21.249998
v 102.236511 93.314796 21.249998
v 102.085068 93.219643 21.249998
v 101.916245 93.160568 21.249998
v 101.727280 93.139275 21.249998
v 94.538506 93.139275 21.249998
v 94.538506 92.239273 21.249998
v 92.738503 92.239273 21.249998
v 92.738503 93.139275 21.249998
v 85.549736 93.139275 21.249998
v 85.360771 93.160568 21.249998
v 85.191948 93.219643 21.249998
v 85.040504 93.314796 21.249998
v 84.914032 93.441269 21.249998
v 84.818871 93.592720 21.249998
v 84.759796 93.761543 21.249998
v 84.738503 93.950508 21.249998
v 84.738503 101.139275 21.249996
v 83.838509 101.139275 21.249996
v 83.838509 102.939278 21.249996
v 84.738503 102.939278 21.249996
v 84.738503 110.128044 21.249996
v 84.759796 110.317009 21.249996
v 84.818871 110.485832 21.249996
v 84.914032 110.637276 21.249996
v 85.040504 110.763748 21.249996
v 85.191948 110.858910 21.249996
v 85.360771 110.917984 21.249996
v 85.549736 110.939278 21.249996
v 92.738503 110.939278 21.249996
v 92.738503 111.839272 21.249996
v 94.538506 111.839272 21.249996
v 94.538506 110.939278 21.249996
v 101.727280 110.939278 21.249996
v 101.916245 110.917984 21.249996
v 102.085068 110.858910 21.249996
v 102.236511 110.763748 21.249996
v 102.362976 110.637276 21.249996
v 102.458145 110.485832 21.249996
v 102.517212 110.317009 21.249996
v 102.538498 110.128044 21.249996
v 92.038506 100.939278 21.249996
v 95.238503 100.939278 21.249996
v 95.238503 103.139275 21.249996
v 92.038506 103.139275 21.249996
v 92.738503 111.839272 23.249996
v 94.538506 111.839272 23.249996
v 92.738503 110.939278 23.249996
v 92.738503 92.239273 23.249998
v 94.538506 92.239273 23.249998
v 92.738503 93.139275 23.249998
v 83.838509 101.139275 23.249996
v 83.838509 102.939278 23.249996
v 84.738503 101.139275 23.249996
v 101.727280 110.939278 39.749996
v 85.549736 110.939278 39.749996
v 85.360771 110.917984 39.749996
v 85.191948 110.858910 39.749996
v 85.040504 110.763756 39.749996
v 84.914032 110.637283 39.749996
v 84.818871 110.485832 39.749996
v 84.759796 110.317009 39.749996
v 84.738503 110.128044 39.749996
v 84.738503 93.950508 39.749996
v 84.759796 93.761543 39.749996
v 84.818871 93.592720 39.749996
v 84.914032 93.441277 39.749996
v 85.040504 93.314804 39.749996
v 85.191948 93.219643 39.749996
v 85.360771 93.160568 39.749996
v 85.549736 93.139275 39.749996
v 101.727280 93.139275 39.749996
v 101.916245 93.160568 39.749996
v 102.085068 93.219643 39.749996
v 102.236511 93.314804 39.749996
v 102.362976 93.441277 39.749996
v 102.458145 93.592720 39.749996
v 102.517212 93.761543 39.749996
v 102.538498 93.950508 39.749996
v 102.538498 110.128044 39.749996
v 102.517212 110.317009 39.749996
v 102.458145 110.485832 39.749996
v 102.362976 110.637283 39.749996
v 102.236511 110.763756 39.749996
v 102.085068 110.858910 39.749996
v 101.916245 110.917984 39.749996
v 94.538506 93.139275 23.249998
v 84.738503 102.939278 23.249996
v 94.538506 110.939278 23.249996
v 102.538498 101.139275 23.249996
v 92.038506 103.139275 25.249996
v 95.238503 103.139275 25.249996
v 92.038506 100.939278 25.249996
v 95.238503 100.939278 25.249996
v 92.043015 100.745384 26.201054
v 91.956871 100.789276 26.201054
v 91.871658 100.515556 26.059013
v 92.046555 100.458725 26.059013
v 92.138504 100.605392 26.150967
v 92.138504 101.039276 26.249996
v 92.138504 100.816757 26.224926
v 91.888504 100.857643 26.201054
v 91.722878 100.623650 26.059013
v 91.888504 100.269859 25.837784
v 92.138504 100.257446 25.873486
v 92.138504 100.415787 26.031830
v 91.844612 100.943787 26.201054
v 91.614784 100.772430 26.059013
v 91.662979 100.384766 25.837784
v 91.557953 100.947327 26.059013
v 91.704620 101.039276 26.150967
v 91.915985 101.039276 26.224926
v 91.483994 100.563751 25.837784
v 91.706734 100.191879 25.559013
v 91.989723 100.099930 25.559013
v 92.138504 100.138306 25.683880
v 91.369087 100.789276 25.837784
v 91.466003 100.366776 25.559013
v 91.915985 100.064346 25.249996
v 92.138504 100.064346 25.472519
v 91.356674 101.039276 25.873486
v 91.515015 101.039276 26.031830
v 91.291107 100.607506 25.559013
v 91.515015 100.257446 25.249996
v 91.704620 100.138306 25.249996
v 91.237534 101.039276 25.683880
v 91.199158 100.890495 25.559013
v 91.356674 100.415787 25.249996
v 91.163574 100.816757 25.249996
v 91.237534 100.605392 25.249996
v 91.163574 101.039276 25.472519
v 92.138504 100.039276 25.249996
v 91.138504 101.039276 25.249996
v 95.138504 100.816757 26.224926
v 95.138504 101.039276 26.249996
v 95.138504 100.605392 26.150967
v 95.138504 100.415787 26.031830
v 95.138504 100.257446 25.873486
v 95.138504 100.138306 25.683880
v 95.138504 100.064346 25.472519
v 95.138504 100.039276 25.249996
v 92.138504 100.039276 23.249996
v 95.138504 100.039276 23.249996
v 91.915985 100.064346 23.249996
v 91.704620 100.138306 23.249996
v 91.515015 100.257446 23.249996
v 91.356674 100.415787 23.249996
v 91.237534 100.605392 23.249996
v 91.163574 100.816757 23.249996
v 91.138504 101.039276 23.249996
v 95.432396 100.943787 26.201054
v 95.388504 100.857643 26.201054
v 95.662224 100.772430 26.059013
v 95.719055 100.947327 26.059013
v 95.572388 101.039276 26.150967
v 95.361023 101.039276 26.224926
v 95.320145 100.789276 26.201054
v 95.554131 100.623650 26.059013
v 95.907928 100.789276 25.837784
v 95.920334 101.039276 25.873486
v 95.761993 101.039276 26.031830
v 95.233994 100.745384 26.201054
v 95.405357 100.515556 26.059013
v 95.793015 100.563751 25.837784
v 95.230453 100.458725 26.059013
v 95.614037 100.384766 25.837784
v 95.985901 100.607506 25.559013
v 96.077850 100.890495 25.559013
v 96.039474 101.039276 25.683880
v 95.388504 100.269859 25.837784
v 95.811005 100.366776 25.559013
v 96.113434 100.816757 25.249996
v 96.113434 101.039276 25.472519
v 95.570274 100.191879 25.559013
v 95.920334 100.415787 25.249996
v 96.039474 100.605392 25.249996
v 95.287285 100.099930 25.559013
v 95.761993 100.257446 25.249996
v 95.361023 100.064346 25.249996
v 95.572388 100.138306 25.249996
v 96.138504 101.039276 25.249996
v 96.113434 100.816757 23.249996
v 96.138504 101.039276 23.249996
v 96.039474 100.605392 23.249996
v 95.920334 100.415787 23.249996
v 95.761993 100.257446 23.249996
v 95.572388 100.138306 23.249996
v 95.361023 100.064346 23.249996
v 91.844612 103.134766 26.201054
v 91.888504 103.220917 26.201054
v 91.614784 103.306129 26.059013
v 91.557953 103.131226 26.059013
v 91.704620 103.039276 26.150967
v 92.138504 103.039276 26.249996
v 91.915985 103.039276 26.224926
v 91.956871 103.289276 26.201054
v 91.722878 103.454903 26.059013
v 91.369087 103.289276 25.837784
v 91.356674 103.039276 25.873486
v 91.515015 103.039276 26.031830
v 92.043015 103.333168 26.201054
v 91.871658 103.562996 26.059013
v 91.483994 103.514809 25.837784
v 92.046555 103.619827 26.059013
v 92.138504 103.473160 26.150967
v 92.138504 103.261795 26.224926
v 91.662979 103.693787 25.837784
v 91.291107 103.471046 25.559013
v 91.199158 103.188057 25.559013
v 91.237534 103.039276 25.683880
v 91.888504 103.808701 25.837784
v 91.466003 103.711777 25.559013
v 91.163574 103.261795 25.249996
v 91.163574 103.039276 25.472519
v 92.138504 103.821106 25.873486
v 92.138504 103.662766 26.031830
v 91.706734 103.886673 25.559013
v 91.356674 103.662766 25.249996
v 91.237534 103.473160 25.249996
v 92.138504 103.940247 25.683880
v 91.989723 103.978622 25.559013
v 91.515015 103.821106 25.249996
v 91.915985 104.014206 25.249996
v 91.704620 103.940247 25.249996
v 92.138504 104.014206 25.472519
v 91.138504 103.039276 25.249996
v 92.138504 104.039276 25.249996
v 95.138504 103.261795 26.224926
v 95.138504 103.039276 26.249996
v 95.138504 103.473160 26.150967
v 95.138504 103.821106 25.873486
v 95.138504 103.662766 26.031830
v 95.138504 103.940247 25.683880
v 95.138504 104.014206 25.472519
v 95.138504 104.039276 25.249996
v 91.163574 103.261795 23.249996
v 91.138504 103.039276 23.249996
v 91.237534 103.473160 23.249996
v 91.356674 103.662766 23.249996
v 91.515015 103.821106 23.249996
v 91.704620 103.940247 23.249996
v 91.915985 104.014206 23.249996
v 92.138504 104.039276 23.249996
v 95.138504 104.039276 23.249996
v 95.233994 103.333168 26.201054
v 95.320145 103.289276 26.201054
v 95.405357 103.562996 26.059013
v 95.230453 103.619827 26.059013
v 95.388504 103.220917 26.201054
v 95.554131 103.454903 26.059013
v 95.388504 103.808701 25.837784
v 95.432396 103.134766 26.201054
v 95.662224 103.306129 26.059013
v 95.614037 103.693787 25.837784
v 95.719055 103.131226 26.059013
v 95.572388 103.039276 26.150967
v 95.361023 103.039276 26.224926
v 95.793015 103.514809 25.837784
v 95.570274 103.886673 25.559013
v 95.287285 103.978622 25.559013
v 95.907928 103.289276 25.837784
v 95.811005 103.711777 25.559013
v 95.361023 104.014206 25.249996
v 95.920334 103.039276 25.873486
v 95.761993 103.039276 26.031830
v 95.985901 103.471046 25.559013
v 95.761993 103.821106 25.249996
v 95.572388 103.940247 25.249996
v 96.039474 103.039276 25.683880
v 96.077850 103.188057 25.559013
v 95.920334 103.662766 25.249996
v 96.113434 103.261795 25.249996
v 96.039474 103.473160 25.249996
v 96.113434 103.039276 25.472519
v 96.138504 103.039276 25.249996
v 95.361023 104.014206 23.249996
v 95.572388 103.940247 23.249996
v 95.761993 103.821106 23.249996
v 95.920334 103.662766 23.249996
v 96.039474 103.473160 23.249996
v 96.113434 103.261795 23.249996
v 96.138504 103.039276 23.249996
f 1 2 11
f 11 2 3
f 11 3 10
f 10 3 4
f 10 4 9
f 9 4 5
f 9 5 8
f 8 5 6
f 8 6 7
f 3 2 150
f 150 2 12
f 150 12 149
f 149 12 13
f 149 13 148
f 148 13 14
f 148 14 147
f 147 14 15
f 147 15 146
f 146 15 16
f 146 16 145
f 145 16 17
f 145 17 144
f 144 17 18
f 144 18 143
f 143 18 19
f 143 19 142
f 142 19 20
f 142 20 141
f 141 20 21
f 141 21 140
f 140 21 22
f 140 22 139
f 139 22 23
f 139 23 138
f 138 23 24
f 138 24 137
f 137 24 25
f 137 25 136
f 136 25 26
f 136 26 135
f 135 26 27
f 135 27 134
f 134 27 28
f 134 28 133
f 133 28 29
f 133 29 132
f 132 29 30
f 132 30 131
f 131 30 31
f 131 31 130
f 130 31 32
f 130 32 129
f 129 32 33
f 129 33 128
f 128 33 34
f 128 34 127
f 127 34 35
f 127 35 126
f 126 35 36
f 126 36 125
f 125 36 37
f 125 37 124
f 124 37 38
f 124 38 123
f 123 38 39
f 123 39 122
f 122 39 40
f 122 40 121
f 121 40 41
f 121 41 120
f 120 41 42
f 120 42 119
f 119 42 43
f 119 43 118
f 118 43 44
f 118 44 117
f 117 44 45
f 117 45 116
f 116 45 46
f 116 46 115
f 115 46 47
f 115 47 114
f 114 47 48
f 114 48 113
f 113 48 49
f 113 49 112
f 112 49 50
f 112 50 51
f 112 51 111
f 111 51 52
f 111 52 110
f 110 52 53
f 110 53 109
f 109 53 54
f 109 54 108
f 108 54 55
f 108 55 107
f 107 55 56
f 107 56 106
f 106 56 57
f 106 57 105
f 105 57 58
f 105 58 104
f 104 58 59
f 104 59 103
f 103 59 60
f 103 60 102
f 102 60 61
f 102 61 101
f 101 61 62
f 101 62 100
f 100 62 63
f 100 63 99
f 99 63 64
f 99 64 98
f 98 64 65
f 98 65 97
f 97 65 66
f 97 66 96
f 96 66 67
f 96 67 95
f 95 67 68
f 95 68 94
f 94 68 69
f 94 69 93
f 93 69 70
f 93 70 92
f 92 70 71
f 92 71 91
f 91 71 72
f 91 72 90
f 90 72 73
f 90 73 175
f 175 73 74
f 175 74 174
f 174 74 75
f 174 75 173
f 173 75 76
f 173 76 172
f 172 76 77
f 172 77 171
f 171 77 78
f 171 78 170
f 170 78 79
f 170 79 169
f 169 79 80
f 169 80 168
f 168 80 81
f 168 81 167
f 167 81 82
f 167 82 166
f 166 82 83
f 166 83 165
f 165 83 84
f 165 84 164
f 164 84 85
f 164 85 163
f 163 85 86
f 163 86 162
f 162 86 87
f 162 87 161
f 161 87 88
f 161 88 160
f 160 88 89
f 160 89 159
f 159 89 1
f 159 1 11
f 159 11 158
f 158 11 10
f 158 10 157
f 157 10 9
f 157 9 156
f 156 9 8
f 156 8 155
f 155 8 7
f 155 7 154
f 154 7 6
f 154 6 153
f 153 6 5
f 153 5 152
f 152 5 4
f 152 4 151
f 151 4 3
f 151 3 150
f 176 177 188
f 188 177 178
f 188 178 187
f 187 178 179
f 187 179 186
f 186 179 180
f 186 180 185
f 185 180 181
f 185 181 184
f 184 181 182
f 184 182 183
f 178 177 281
f 281 177 189
f 281 189 280
f 280 189 190
f 280 190 279
f 279 190 191
f 279 191 278
f 278 191 192
f 278 192 277
f 277 192 193
f 277 193 276
f 276 193 194
f 276 194 275
f 275 194 195
f 275 195 274
f 274 195 196
f 274 196 273
f 273 196 197
f 273 197 272
f 272 197 198
f 272 198 271
f 271 198 199
f 271 199 270
f 270 199 200
f 270 200 269
f 269 200 201
f 269 201 268
f 268 201 202
f 268 202 267
f 267 202 203
f 267 203 266
f 266 203 204
f 266 204 265
f 265 204 205
f 265 205 350
f 350 205 206
f 350 206 349
f 349 206 207
f 349 207 348
f 348 207 208
f 348 208 347
f 347 208 209
f 347 209 346
f 346 209 210
f 346 210 345
f 345 210 211
f 345 211 344
f 344 211 212
f 344 212 343
f 343 212 213
f 343 213 342
f 342 213 214
f 342 214 341
f 341 214 215
f 341 215 340
f 340 215 216
f 340 216 339
f 339 216 217
f 339 217 338
f 338 217 218
f 338 218 337
f 337 218 219
f 337 219 336
f 336 219 220
f 336 220 335
f 335 220 221
f 335 221 334
f 334 221 222
f 334 222 333
f 333 222 223
f 333 223 332
f 332 223 224
f 332 224 331
f 331 224 225
f 331 225 330
f 330 225 226
f 330 226 227
f 330 227 329
f 329 227 228
f 329 228 328
f 328 228 229
f 328 229 327
f 327 229 230
f 327 230 326
f 326 230 231
f 326 231 325
f 325 231 232
f 325 232 324
f 324 232 233
f 324 233 323
f 323 233 234
f 323 234 322
f 322 234 235
f 322 235 321
f 321 235 236
f 321 236 320
f 320 236 237
f 320 237 319
f 319 237 238
f 319 238 318
f 318 238 239
f 318 239 317
f 317 239 240
f 317 240 316
f 316 240 241
f 316 241 315
f 315 241 242
f 315 242 314
f 314 242 243
f 314 243 313
f 313 243 244
f 313 244 312
f 312 244 245
f 312 245 311
f 311 245 246
f 311 246 310
f 310 246 247
f 310 247 309
f 309 247 248
f 309 248 308
f 308 248 249
f 308 249 307
f 307 249 250
f 307 250 306
f 306 250 251
f 306 251 305
f 305 251 252
f 305 252 304
f 304 252 253
f 304 253 303
f 303 253 254
f 303 254 302
f 302 254 255
f 302 255 301
f 301 255 256
f 301 256 300
f 300 256 257
f 300 257 299
f 299 257 258
f 299 258 298
f 298 258 259
f 298 259 297
f 297 259 260
f 297 260 296
f 296 260 261
f 296 261 295
f 295 261 262
f 295 262 294
f 294 262 263
f 294 263 293
f 293 263 264
f 293 264 292
f 292 264 176
f 292 176 188
f 292 188 291
f 291 188 187
f 291 187 290
f 290 187 186
f 290 186 289
f 289 186 185
f 289 185 288
f 288 185 184
f 288 184 287
f 287 184 183
f 287 183 286
f 286 183 182
f 286 182 285
f 285 182 181
f 285 181 284
f 284 181 180
f 284 180 283
f 283 180 179
f 283 179 282
f 282 179 178
f 282 178 281
f 351 352 363
f 363 352 353
f 363 353 362
f 362 353 354
f 362 354 361
f 361 354 355
f 361 355 360
f 360 355 356
f 360 356 359
f 359 356 357
f 359 357 358
f 353 352 499
f 499 352 364
f 499 364 498
f 498 364 365
f 498 365 497
f 497 365 366
f 497 366 496
f 496 366 367
f 496 367 495
f 495 367 368
f 495 368 494
f 494 368 369
f 494 369 493
f 493 369 370
f 493 370 492
f 492 370 371
f 492 371 491
f 491 371 372
f 491 372 490
f 490 372 373
f 490 373 489
f 489 373 374
f 489 374 488
f 488 374 375
f 488 375 487
f 487 375 376
f 487 376 486
f 486 376 377
f 486 377 485
f 485 377 378
f 485 378 484
f 484 378 379
f 484 379 483
f 483 379 380
f 483 380 482
f 482 380 381
f 482 381 481
f 481 381 382
f 481 382 480
f 480 382 383
f 480 383 479
f 479 383 384
f 479 384 478
f 478 384 385
f 478 385 477
f 477 385 386
f 477 386 476
f 476 386 387
f 476 387 475
f 475 387 388
f 475 388 474
f 474 388 389
f 474 389 473
f 473 389 390
f 473 390 472
f 472 390 391
f 472 391 471
f 471 391 392
f 471 392 470
f 470 392 393
f 470 393 469
f 469 393 394
f 469 394 468
f 468 394 395
f 468 395 467
f 467 395 396
f 467 396 466
f 466 396 397
f 466 397 465
f 465 397 398
f 465 398 464
f 464 398 399
f 464 399 463
f 463 399 400
f 463 400 462
f 462 400 401
f 462 401 402
f 462 402 461
f 461 402 403
f 461 403 460
f 460 403 404
f 460 404 459
f 459 404 405
f 459 405 458
f 458 405 406
f 458 406 457
f 457 406 407
f 457 407 456
f 456 407 408
f 456 408 455
f 455 408 409
f 455 409 454
f 454 409 410
f 454 410 453
f 453 410 411
f 453 411 452
f 452 411 412
f 452 412 451
f 451 412 413
f 451 413 450
f 450 413 414
f 450 414 449
f 449 414 415
f 449 415 448
f 448 415 416
f 448 416 447
f 447 416 417
f 447 417 446
f 446 417 418
f 446 418 445
f 445 418 419
f 445 419 444
f 444 419 420
f 444 420 443
f 443 420 421
f 443 421 442
f 442 421 422
f 442 422 441
f 441 422 423
f 441 423 440
f 440 423 424
f 440 424 525
f 525 424 425
f 525 425 524
f 524 425 426
f 524 426 523
f 523 426 427
f 523 427 522
f 522 427 428
f 522 428 521
f 521 428 429
f 521 429 520
f 520 429 430
f 520 430 519
f 519 430 431
f 519 431 518
f 518 431 432
f 518 432 517
f 517 432 433
f 517 433 516
f 516 433 434
f 516 434 515
f 515 434 435
f 515 435 514
f 514 435 436
f 514 436 513
f 513 436 437
f 513 437 512
f 512 437 438
f 512 438 511
f 511 438 439
f 511 439 510
f 510 439 351
f 510 351 363
f 510 363 509
f 509 363 362
f 509 362 508
f 508 362 361
f 508 361 507
f 507 361 360
f 507 360 506
f 506 360 359
f 506 359 505
f 505 359 358
f 505 358 504
f 504 358 357
f 504 357 503
f 503 357 356
f 503 356 502
f 502 356 355
f 502 355 501
f 501 355 354
f 501 354 500
f 500 354 353
f 500 353 499
f 526 527 538
f 538 527 528
f 538 528 537
f 537 528 529
f 537 529 536
f 536 529 530
f 536 530 535
f 535 530 531
f 535 531 534
f 534 531 532
f 534 532 533
f 528 527 631
f 631 527 539
f 631 539 630
f 630 539 540
f 630 540 629
f 629 540 541
f 629 541 628
f 628 541 542
f 628 542 627
f 627 542 543
f 627 543 626
f 626 543 544
f 626 544 625
f 625 544 545
f 625 545 624
f 624 545 546
f 624 546 623
f 623 546 547
f 623 547 622
f 622 547 548
f 622 548 621
f 621 548 549
f 621 549 620
f 620 549 550
f 620 550 619
f 619 550 551
f 619 551 618
f 618 551 552
f 618 552 617
f 617 552 553
f 617 553 616
f 616 553 554
f 616 554 615
f 615 554 555
f 615 555 700
f 700 555 556
f 700 556 699
f 699 556 557
f 699 557 698
f 698 557 558
f 698 558 697
f 697 558 559
f 697 559 696
f 696 559 560
f 696 560 695
f 695 560 561
f 695 561 694
f 694 561 562
f 694 562 693
f 693 562 563
f 693 563 692
f 692 563 564
f 692 564 691
f 691 564 565
f 691 565 690
f 690 565 566
f 690 566 689
f 689 566 567
f 689 567 688
f 688 567 568
f 688 568 687
f 687 568 569
f 687 569 686
f 686 569 570
f 686 570 685
f 685 570 571
f 685 571 684
f 684 571 572
f 684 572 683
f 683 572 573
f 683 573 682
f 682 573 574
f 682 574 681
f 681 574 575
f 681 575 680
f 680 575 576
f 680 576 577
f 680 577 679
f 679 577 578
f 679 578 678
f 678 578 579
f 678 579 677
f 677 579 580
f 677 580 676
f 676 580 581
f 676 581 675
f 675 581 582
f 675 582 674
f 674 582 583
f 674 583 673
f 673 583 584
f 673 584 672
f 672 584 585
f 672 585 671
f 671 585 586
f 671 586 670
f 670 586 587
f 670 587 669
f 669 587 588
f 669 588 668
f 668 588 589
f 668 589 667
f 667 589 590
f 667 590 666
f 666 590 591
f 666 591 665
f 665 591 592
f 665 592 664
f 664 592 593
f 664 593 663
f 663 593 594
f 663 594 662
f 662 594 595
f 662 595 661
f 661 595 596
f 661 596 660
f 660 596 597
f 660 597 659
f 659 597 598
f 659 598 658
f 658 598 599
f 658 599 657
f 657 599 600
f 657 600 656
f 656 600 601
f 656 601 655
f 655 601 602
f 655 602 654
f 654 602 603
f 654 603 653
f 653 603 604
f 653 604 652
f 652 604 605
f 652 605 651
f 651 605 606
f 651 606 650
f 650 606 607
f 650 607 649
f 649 607 608
f 649 608 648
f 648 608 609
f 648 609 647
f 647 609 610
f 647 610 646
f 646 610 611
f 646 611 645
f 645 611 612
f 645 612 644
f 644 612 613
f 644 613 643
f 643 613 614
f 643 614 642
f 642 614 526
f 642 526 538
f 642 538 641
f 641 538 537
f 641 537 640
f 640 537 536
f 640 536 639
f 639 536 535
f 639 535 638
f 638 535 534
f 638 534 637
f 637 534 533
f 637 533 636
f 636 533 532
f 636 532 635
f 635 532 531
f 635 531 634
f 634 531 530
f 634 530 633
f 633 530 529
f 633 529 632
f 632 529 528
f 632 528 631
f 12 2 439
f 439 2 351
f 351 2 702
f 351 702 703
f 2 1 702
f 702 1 701
f 701 1 89
f 351 703 352
f 352 703 704
f 352 704 364
f 189 177 614
f 614 177 526
f 526 177 706
f 526 706 707
f 177 176 706
f 706 176 705
f 705 176 264
f 526 707 527
f 527 707 708
f 527 708 539
f 703 711 709
f 709 711 712
f 709 712 710
f 710 712 702
f 702 712 713
f 702 713 714
f 711 703 714
f 714 703 702
f 711 714 720
f 720 714 715
f 720 715 719
f 719 715 716
f 719 716 717
f 717 718 719
f 713 721 714
f 714 721 715
f 707 724 722
f 722 724 718
f 722 718 723
f 723 718 706
f 706 718 717
f 706 717 725
f 724 707 725
f 725 707 706
f 712 726 713
f 713 726 721
f 721 726 727
f 721 727 728
f 728 727 725
f 725 727 724
f 717 716 725
f 725 716 728
f 729 730 710
f 710 730 709
f 730 729 732
f 732 729 731
f 709 730 703
f 703 730 704
f 704 730 733
f 733 730 732
f 731 744 732
f 732 744 745
f 732 745 746
f 734 738 731
f 731 738 739
f 731 739 740
f 735 736 734
f 734 736 737
f 734 737 738
f 740 741 731
f 731 741 742
f 731 742 743
f 743 744 731
f 746 747 732
f 732 747 748
f 732 748 749
f 732 749 733
f 733 749 750
f 733 750 751
f 751 752 733
f 753 754 723
f 723 754 722
f 754 753 756
f 756 753 755
f 722 754 707
f 707 754 708
f 708 754 757
f 757 754 756
f 755 767 756
f 756 767 768
f 756 768 769
f 758 762 755
f 755 762 763
f 755 763 764
f 759 760 758
f 758 760 761
f 758 761 762
f 764 765 755
f 755 765 766
f 755 766 767
f 769 770 756
f 756 770 771
f 756 771 772
f 772 773 756
f 756 773 757
f 757 773 774
f 757 774 775
f 775 776 757
f 777 778 780
f 780 778 779
f 778 777 782
f 782 777 781
f 91 90 803
f 803 90 175
f 803 175 174
f 174 173 803
f 803 173 172
f 803 172 171
f 171 170 803
f 803 170 169
f 803 169 168
f 803 168 796
f 796 168 167
f 796 167 166
f 166 165 796
f 796 165 164
f 796 164 163
f 163 162 796
f 796 162 161
f 796 161 160
f 160 159 796
f 796 159 158
f 796 158 157
f 157 156 796
f 796 156 795
f 795 156 155
f 795 155 154
f 154 153 795
f 795 153 152
f 795 152 151
f 151 150 795
f 795 150 149
f 795 149 148
f 148 147 795
f 795 147 146
f 795 146 145
f 145 144 795
f 795 144 143
f 795 143 142
f 795 142 518
f 518 142 141
f 518 141 519
f 519 141 140
f 519 140 520
f 520 140 139
f 520 139 521
f 521 139 138
f 521 138 522
f 522 138 137
f 522 137 523
f 523 137 136
f 523 136 524
f 524 136 135
f 524 135 525
f 525 135 134
f 525 134 440
f 440 134 133
f 440 133 441
f 441 133 132
f 441 132 442
f 442 132 131
f 442 131 443
f 443 131 130
f 443 130 444
f 444 130 129
f 444 129 445
f 445 129 128
f 445 128 446
f 446 128 127
f 446 127 447
f 447 127 126
f 447 126 448
f 448 126 125
f 448 125 449
f 449 125 124
f 449 124 829
f 829 124 828
f 828 124 123
f 828 123 122
f 122 121 828
f 828 121 120
f 828 120 119
f 119 118 828
f 828 118 117
f 828 117 116
f 116 115 828
f 828 115 114
f 828 114 113
f 113 112 828
f 828 112 111
f 828 111 831
f 831 111 680
f 831 680 679
f 111 110 680
f 680 110 681
f 681 110 109
f 681 109 682
f 682 109 108
f 682 108 683
f 683 108 107
f 683 107 684
f 684 107 106
f 684 106 685
f 685 106 105
f 685 105 686
f 686 105 807
f 686 807 687
f 687 807 688
f 688 807 689
f 689 807 690
f 690 807 691
f 691 807 692
f 692 807 693
f 693 807 694
f 694 807 695
f 695 807 696
f 696 807 697
f 697 807 698
f 698 807 699
f 699 807 700
f 700 807 808
f 700 808 615
f 615 808 616
f 616 808 617
f 617 808 618
f 618 808 619
f 619 808 620
f 620 808 621
f 621 808 622
f 622 808 623
f 623 808 815
f 623 815 624
f 624 815 625
f 625 815 626
f 626 815 627
f 627 815 628
f 628 815 629
f 629 815 630
f 630 815 631
f 631 815 632
f 632 815 633
f 633 815 634
f 634 815 635
f 635 815 816
f 635 816 636
f 636 816 637
f 637 816 638
f 638 816 639
f 639 816 640
f 640 816 641
f 641 816 642
f 642 816 643
f 643 816 644
f 644 816 645
f 645 816 646
f 646 816 647
f 647 816 648
f 648 816 649
f 649 816 819
f 649 819 274
f 274 819 275
f 275 819 276
f 276 819 277
f 277 819 278
f 278 819 279
f 279 819 280
f 280 819 281
f 281 819 282
f 282 819 283
f 283 819 284
f 284 819 285
f 285 819 286
f 286 819 287
f 287 819 288
f 288 819 820
f 288 820 289
f 289 820 290
f 290 820 291
f 291 820 292
f 292 820 293
f 293 820 294
f 294 820 295
f 295 820 296
f 296 820 297
f 297 820 298
f 298 820 299
f 299 820 300
f 300 820 827
f 300 827 301
f 301 827 302
f 302 827 303
f 303 827 304
f 304 827 305
f 305 827 306
f 306 827 307
f 307 827 308
f 308 827 309
f 309 827 781
f 309 781 310
f 310 781 311
f 311 781 312
f 312 781 313
f 313 781 314
f 314 781 315
f 315 781 316
f 316 781 317
f 317 781 318
f 318 781 319
f 319 781 320
f 320 781 321
f 321 781 322
f 322 781 323
f 323 781 783
f 323 783 468
f 468 783 469
f 469 783 470
f 470 783 471
f 471 783 472
f 472 783 473
f 473 783 474
f 474 783 475
f 475 783 476
f 476 783 477
f 477 783 478
f 478 783 479
f 479 783 480
f 480 783 481
f 481 783 482
f 482 783 784
f 482 784 483
f 483 784 484
f 484 784 485
f 485 784 486
f 486 784 487
f 487 784 488
f 488 784 489
f 489 784 490
f 490 784 491
f 491 784 791
f 491 791 492
f 492 791 493
f 493 791 494
f 494 791 495
f 495 791 496
f 496 791 497
f 497 791 498
f 498 791 499
f 499 791 500
f 500 791 501
f 501 791 502
f 502 791 503
f 503 791 792
f 503 792 504
f 504 792 505
f 505 792 506
f 506 792 507
f 507 792 508
f 508 792 509
f 509 792 510
f 510 792 511
f 511 792 512
f 512 792 513
f 513 792 514
f 514 792 515
f 515 792 516
f 516 792 517
f 517 792 795
f 517 795 518
f 807 105 804
f 804 105 104
f 804 104 103
f 103 102 804
f 804 102 101
f 804 101 100
f 100 99 804
f 804 99 98
f 804 98 97
f 97 96 804
f 804 96 95
f 804 95 94
f 94 93 804
f 804 93 92
f 804 92 91
f 804 91 803
f 350 659 265
f 265 659 658
f 265 658 266
f 266 658 657
f 266 657 267
f 267 657 656
f 267 656 268
f 268 656 655
f 268 655 269
f 269 655 654
f 269 654 270
f 270 654 653
f 270 653 271
f 271 653 652
f 271 652 272
f 272 652 651
f 272 651 273
f 273 651 650
f 273 650 274
f 274 650 649
f 659 350 660
f 660 350 349
f 660 349 661
f 661 349 348
f 661 348 662
f 662 348 347
f 662 347 663
f 663 347 346
f 663 346 664
f 664 346 345
f 664 345 665
f 665 345 344
f 665 344 666
f 666 344 343
f 666 343 667
f 667 343 342
f 667 342 830
f 830 342 341
f 830 341 340
f 340 339 830
f 830 339 338
f 830 338 337
f 337 336 830
f 830 336 335
f 830 335 334
f 334 333 830
f 830 333 332
f 830 332 331
f 331 330 830
f 830 330 329
f 830 329 829
f 829 329 462
f 829 462 461
f 462 329 463
f 463 329 328
f 463 328 464
f 464 328 327
f 464 327 465
f 465 327 326
f 465 326 466
f 466 326 325
f 466 325 467
f 467 325 324
f 467 324 468
f 468 324 323
f 461 460 829
f 829 460 459
f 829 459 458
f 458 457 829
f 829 457 456
f 829 456 455
f 455 454 829
f 829 454 453
f 829 453 452
f 452 451 829
f 829 451 450
f 829 450 449
f 679 678 831
f 831 678 677
f 831 677 676
f 676 675 831
f 831 675 674
f 831 674 673
f 673 672 831
f 831 672 671
f 831 671 670
f 670 669 831
f 831 669 668
f 831 668 667
f 780 783 777
f 777 783 781
f 785 787 784
f 784 787 788
f 784 788 789
f 785 786 787
f 789 790 784
f 784 790 791
f 793 794 792
f 792 794 795
f 796 797 803
f 803 797 798
f 803 798 799
f 799 800 803
f 803 800 802
f 802 800 801
f 804 805 807
f 807 805 806
f 808 809 815
f 815 809 810
f 815 810 811
f 811 812 815
f 815 812 814
f 814 812 813
f 817 818 816
f 816 818 819
f 821 823 820
f 820 823 824
f 820 824 825
f 821 822 823
f 825 826 820
f 820 826 827
f 830 831 667
f 817 832 818
f 818 832 833
f 832 817 834
f 834 817 816
f 835 794 836
f 836 794 793
f 794 835 795
f 795 835 837
f 805 838 806
f 806 838 839
f 838 805 840
f 840 805 804
f 711 720 712
f 712 720 726
f 724 727 718
f 718 727 719
f 872 841 716
f 716 841 842
f 716 842 728
f 728 842 843
f 728 843 844
f 844 845 728
f 728 845 846
f 728 846 847
f 847 848 728
f 728 848 849
f 728 849 721
f 721 849 850
f 721 850 851
f 851 852 721
f 721 852 853
f 721 853 854
f 854 855 721
f 721 855 856
f 721 856 857
f 857 858 721
f 721 858 715
f 715 858 859
f 715 859 860
f 860 861 715
f 715 861 862
f 715 862 863
f 863 864 715
f 715 864 865
f 715 865 866
f 715 866 716
f 716 866 867
f 716 867 868
f 868 869 716
f 716 869 870
f 716 870 871
f 871 872 716
f 726 720 727
f 727 720 719
f 791 790 858
f 858 790 859
f 796 837 857
f 857 837 873
f 857 873 858
f 858 873 791
f 791 873 792
f 796 795 837
f 797 796 856
f 856 796 857
f 798 797 855
f 855 797 856
f 799 798 854
f 854 798 855
f 800 799 853
f 853 799 854
f 801 800 852
f 852 800 853
f 802 801 851
f 851 801 852
f 803 802 850
f 850 802 851
f 808 874 849
f 849 874 840
f 849 840 850
f 850 840 803
f 803 840 804
f 808 807 874
f 809 808 848
f 848 808 849
f 810 809 847
f 847 809 848
f 811 810 846
f 846 810 847
f 812 811 845
f 845 811 846
f 813 812 844
f 844 812 845
f 814 813 843
f 843 813 844
f 710 702 729
f 729 702 701
f 729 701 734
f 734 731 729
f 820 875 841
f 841 875 834
f 841 834 842
f 842 834 815
f 815 834 816
f 820 819 875
f 784 876 865
f 865 876 782
f 865 782 866
f 866 782 827
f 827 782 781
f 784 783 876
f 815 814 842
f 842 814 843
f 821 820 872
f 872 820 841
f 822 821 871
f 871 821 872
f 823 822 870
f 870 822 871
f 824 823 869
f 869 823 870
f 825 824 868
f 868 824 869
f 826 825 867
f 867 825 868
f 827 826 866
f 866 826 867
f 785 784 864
f 864 784 865
f 786 785 863
f 863 785 864
f 787 786 862
f 862 786 863
f 788 787 861
f 861 787 862
f 789 788 860
f 860 788 861
f 790 789 859
f 859 789 860
f 723 706 753
f 753 706 705
f 753 705 758
f 758 755 753
f 877 878 879
f 879 878 880
f 881 882 883
f 881 883 884
f 881 884 885
f 881 886 882
f 881 887 886
f 881 885 887
f 882 888 889
f 882 889 883
f 882 886 888
f 884 883 890
f 884 890 891
f 884 892 885
f 884 891 892
f 888 893 894
f 888 894 889
f 888 886 893
f 883 889 895
f 883 895 890
f 893 896 894
f 893 897 896
f 893 886 898
f 893 898 897
f 889 894 899
f 889 899 895
f 890 895 900
f 890 900 901
f 890 901 902
f 890 902 891
f 894 896 903
f 894 903 899
f 895 904 900
f 895 899 904
f 901 900 905
f 901 905 906
f 901 906 902
f 896 907 903
f 896 897 908
f 896 908 907
f 899 909 904
f 899 903 909
f 900 904 910
f 900 911 905
f 900 910 911
f 903 912 913
f 903 913 909
f 903 907 912
f 904 909 914
f 904 914 910
f 909 913 915
f 909 916 914
f 909 915 916
f 913 917 915
f 913 912 917
f 906 905 918
f 917 919 915
f 920 921 887
f 887 921 886
f 922 920 885
f 885 920 887
f 923 922 892
f 892 922 885
f 924 923 891
f 891 923 892
f 925 924 902
f 902 924 891
f 926 925 906
f 906 925 902
f 927 926 918
f 918 926 906
f 928 927 918
f 928 929 927
f 930 928 905
f 905 928 918
f 931 930 911
f 911 930 905
f 932 931 910
f 910 931 911
f 933 932 910
f 934 933 916
f 914 933 910
f 916 933 914
f 935 934 915
f 915 934 916
f 919 935 915
f 936 935 919
f 937 938 939
f 937 939 940
f 937 940 941
f 937 921 938
f 937 942 921
f 937 941 942
f 938 943 944
f 938 944 939
f 938 921 943
f 940 939 945
f 940 945 946
f 940 947 941
f 940 946 947
f 943 948 949
f 943 949 944
f 943 921 948
f 939 944 950
f 939 950 945
f 948 951 949
f 948 922 951
f 948 921 920
f 948 920 922
f 944 949 952
f 944 952 950
f 945 950 953
f 945 953 954
f 945 954 955
f 945 955 946
f 949 951 956
f 949 956 952
f 950 957 953
f 950 952 957
f 954 953 958
f 954 958 959
f 954 959 955
f 951 924 956
f 951 922 923
f 951 923 924
f 952 960 957
f 952 956 960
f 953 957 961
f 953 962 958
f 953 961 962
f 956 925 963
f 956 963 960
f 956 924 925
f 957 960 964
f 957 964 961
f 960 963 965
f 960 966 964
f 960 965 966
f 963 926 965
f 963 925 926
f 959 958 967
f 926 927 965
f 968 969 958
f 958 969 967
f 970 968 958
f 971 970 962
f 962 970 958
f 972 971 961
f 961 971 962
f 973 972 964
f 964 972 961
f 974 973 965
f 966 973 964
f 965 973 966
f 927 974 965
f 929 974 927
f 828 877 879
f 828 831 877
f 831 878 877
f 831 830 878
f 830 880 878
f 830 829 880
f 829 879 880
f 829 828 879
f 735 919 736
f 735 936 919
f 898 886 742
f 742 886 743
f 897 898 741
f 741 898 742
f 908 897 740
f 740 897 741
f 907 908 739
f 739 908 740
f 912 907 738
f 738 907 739
f 917 912 737
f 737 912 738
f 919 917 736
f 736 917 737
f 744 743 921
f 921 743 886
f 89 88 701
f 701 88 87
f 701 87 86
f 86 85 701
f 701 85 84
f 701 84 83
f 83 82 701
f 701 82 81
f 701 81 80
f 80 79 701
f 701 79 78
f 701 78 77
f 77 76 701
f 701 76 75
f 701 75 74
f 74 73 701
f 701 73 72
f 701 72 71
f 71 70 701
f 701 70 734
f 734 70 69
f 734 69 68
f 68 67 734
f 734 67 66
f 734 66 65
f 65 64 734
f 734 64 63
f 734 63 62
f 62 61 734
f 734 61 60
f 734 60 59
f 59 58 734
f 734 58 57
f 734 57 56
f 56 55 734
f 734 55 54
f 734 54 53
f 734 53 935
f 935 53 52
f 935 52 934
f 934 52 51
f 934 51 50
f 934 50 933
f 933 50 49
f 933 49 932
f 932 49 48
f 932 48 47
f 932 47 931
f 931 47 46
f 931 46 930
f 930 46 45
f 930 45 44
f 930 44 928
f 928 44 43
f 928 43 42
f 42 41 928
f 928 41 40
f 928 40 412
f 412 40 39
f 412 39 413
f 413 39 38
f 413 38 414
f 414 38 37
f 414 37 415
f 415 37 36
f 415 36 416
f 416 36 35
f 416 35 417
f 417 35 34
f 417 34 418
f 418 34 33
f 418 33 419
f 419 33 32
f 419 32 420
f 420 32 31
f 420 31 421
f 421 31 30
f 421 30 422
f 422 30 29
f 422 29 423
f 423 29 28
f 423 28 424
f 424 28 27
f 424 27 425
f 425 27 26
f 425 26 426
f 426 26 25
f 426 25 427
f 427 25 24
f 427 24 428
f 428 24 23
f 428 23 429
f 429 23 22
f 429 22 430
f 430 22 21
f 430 21 431
f 431 21 20
f 431 20 432
f 432 20 19
f 432 19 433
f 433 19 18
f 433 18 434
f 434 18 17
f 434 17 435
f 435 17 16
f 435 16 436
f 436 16 15
f 436 15 437
f 437 15 14
f 437 14 438
f 438 14 13
f 438 13 439
f 439 13 12
f 928 412 929
f 929 412 411
f 929 411 410
f 410 409 929
f 929 409 408
f 929 408 974
f 974 408 407
f 974 407 406
f 974 406 973
f 973 406 405
f 973 405 972
f 972 405 404
f 972 404 403
f 972 403 971
f 971 403 402
f 971 402 401
f 971 401 970
f 970 401 400
f 970 400 968
f 968 400 399
f 968 399 733
f 733 399 398
f 733 398 397
f 397 396 733
f 733 396 395
f 733 395 394
f 394 393 733
f 733 393 392
f 733 392 391
f 391 390 733
f 733 390 389
f 733 389 388
f 388 387 733
f 733 387 386
f 733 386 385
f 385 384 733
f 733 384 383
f 733 383 382
f 733 382 704
f 704 382 381
f 704 381 380
f 380 379 704
f 704 379 378
f 704 378 377
f 377 376 704
f 704 376 375
f 704 375 374
f 374 373 704
f 704 373 372
f 704 372 371
f 371 370 704
f 704 370 369
f 704 369 368
f 368 367 704
f 704 367 366
f 704 366 365
f 365 364 704
f 752 969 733
f 733 969 968
f 935 936 734
f 734 936 735
f 921 942 744
f 744 942 745
f 746 745 941
f 941 745 942
f 747 746 947
f 947 746 941
f 748 747 946
f 946 747 947
f 749 748 955
f 955 748 946
f 750 749 959
f 959 749 955
f 751 750 967
f 967 750 959
f 969 752 967
f 752 751 967
f 975 976 977
f 975 977 978
f 975 978 979
f 975 980 976
f 975 981 980
f 975 979 981
f 976 982 983
f 976 983 977
f 976 980 982
f 978 977 984
f 978 984 985
f 978 986 979
f 978 985 986
f 982 987 988
f 982 988 983
f 982 980 987
f 977 983 989
f 977 989 984
f 987 990 988
f 987 991 990
f 987 980 992
f 987 992 991
f 983 988 993
f 983 993 989
f 984 989 994
f 984 994 995
f 984 995 996
f 984 996 985
f 988 990 997
f 988 997 993
f 989 998 994
f 989 993 998
f 995 994 999
f 995 999 1000
f 995 1000 996
f 990 1001 997
f 990 991 1002
f 990 1002 1001
f 993 1003 998
f 993 997 1003
f 994 998 1004
f 994 1005 999
f 994 1004 1005
f 997 1006 1007
f 997 1007 1003
f 997 1001 1006
f 998 1003 1008
f 998 1008 1004
f 1003 1007 1009
f 1003 1010 1008
f 1003 1009 1010
f 1007 1011 1009
f 1007 1006 1011
f 1000 999 1012
f 1011 1013 1009
f 992 980 1014
f 1014 980 1015
f 991 992 1014
f 1002 991 1016
f 1016 991 1014
f 1001 1002 1017
f 1018 1002 1016
f 1017 1002 1018
f 1006 1001 1019
f 1019 1001 1017
f 1011 1006 1020
f 1020 1006 1019
f 1013 1011 1021
f 1021 1011 1020
f 1022 1023 999
f 999 1023 1012
f 1024 1022 1005
f 1005 1022 999
f 1025 1024 1004
f 1004 1024 1005
f 1026 1025 1004
f 1027 1026 1008
f 1008 1026 1004
f 1028 1027 1010
f 1010 1027 1008
f 1029 1028 1009
f 1009 1028 1010
f 1013 1029 1009
f 1030 1013 1021
f 1030 1029 1013
f 1031 1032 1033
f 1031 1033 1034
f 1031 1034 1016
f 1031 1015 1032
f 1031 1014 1015
f 1031 1016 1014
f 1032 1035 1036
f 1032 1036 1033
f 1032 1015 1035
f 1034 1033 1037
f 1034 1037 1017
f 1034 1018 1016
f 1034 1017 1018
f 1035 1038 1039
f 1035 1039 1036
f 1035 1015 1038
f 1033 1036 1040
f 1033 1040 1037
f 1038 1041 1039
f 1038 1042 1041
f 1038 1015 1043
f 1038 1043 1042
f 1036 1039 1044
f 1036 1044 1040
f 1037 1040 1045
f 1037 1045 1046
f 1037 1046 1019
f 1037 1019 1017
f 1039 1041 1047
f 1039 1047 1044
f 1040 1048 1045
f 1040 1044 1048
f 1046 1045 1049
f 1046 1049 1020
f 1046 1020 1019
f 1041 1050 1047
f 1041 1042 1051
f 1041 1051 1050
f 1044 1052 1048
f 1044 1047 1052
f 1045 1048 1053
f 1045 1054 1049
f 1045 1053 1054
f 1047 1055 1056
f 1047 1056 1052
f 1047 1050 1055
f 1048 1052 1057
f 1048 1057 1053
f 1052 1056 1058
f 1052 1059 1057
f 1052 1058 1059
f 1056 1060 1058
f 1056 1055 1060
f 1020 1049 1021
f 1060 1061 1058
f 1062 1030 1049
f 1049 1030 1021
f 1063 1062 1054
f 1054 1062 1049
f 1064 1063 1053
f 1053 1063 1054
f 1065 1064 1057
f 1057 1064 1053
f 1066 1065 1059
f 1059 1065 1057
f 1067 1066 1058
f 1058 1066 1059
f 1061 1067 1058
f 1068 1067 1061
f 1023 776 1012
f 776 775 1012
f 769 768 981
f 981 768 980
f 770 769 979
f 979 769 981
f 771 770 986
f 986 770 979
f 772 771 985
f 985 771 986
f 773 772 996
f 996 772 985
f 774 773 1000
f 1000 773 996
f 775 774 1012
f 1012 774 1000
f 768 767 980
f 980 767 1015
f 264 263 705
f 705 263 262
f 705 262 261
f 261 260 705
f 705 260 259
f 705 259 258
f 258 257 705
f 705 257 256
f 705 256 255
f 255 254 705
f 705 254 253
f 705 253 252
f 252 251 705
f 705 251 250
f 705 250 249
f 249 248 705
f 705 248 247
f 705 247 246
f 705 246 758
f 758 246 245
f 758 245 244
f 244 243 758
f 758 243 242
f 758 242 241
f 241 240 758
f 758 240 239
f 758 239 238
f 238 237 758
f 758 237 236
f 758 236 235
f 235 234 758
f 758 234 233
f 758 233 232
f 232 231 758
f 758 231 230
f 758 230 229
f 758 229 1067
f 1067 229 228
f 1067 228 1066
f 1066 228 227
f 1066 227 1065
f 1065 227 226
f 1065 226 225
f 1065 225 1064
f 1064 225 224
f 1064 224 223
f 1064 223 1063
f 1063 223 222
f 1063 222 1062
f 1062 222 221
f 1062 221 220
f 1062 220 1030
f 1030 220 219
f 1030 219 218
f 218 217 1030
f 1030 217 216
f 1030 216 587
f 587 216 588
f 588 216 215
f 588 215 589
f 589 215 214
f 589 214 590
f 590 214 213
f 590 213 591
f 591 213 212
f 591 212 592
f 592 212 211
f 592 211 593
f 593 211 210
f 593 210 594
f 594 210 209
f 594 209 595
f 595 209 208
f 595 208 596
f 596 208 207
f 596 207 597
f 597 207 206
f 597 206 598
f 598 206 205
f 598 205 599
f 599 205 204
f 599 204 600
f 600 204 203
f 600 203 601
f 601 203 202
f 601 202 602
f 602 202 201
f 602 201 603
f 603 201 200
f 603 200 604
f 604 200 199
f 604 199 605
f 605 199 198
f 605 198 606
f 606 198 197
f 606 197 607
f 607 197 196
f 607 196 608
f 608 196 195
f 608 195 609
f 609 195 194
f 609 194 610
f 610 194 193
f 610 193 611
f 611 193 192
f 611 192 612
f 612 192 191
f 612 191 613
f 613 191 190
f 613 190 614
f 614 190 189
f 1030 587 1029
f 1029 587 586
f 1029 586 585
f 585 584 1029
f 1029 584 583
f 1029 583 1028
f 1028 583 582
f 1028 582 581
f 1028 581 1027
f 1027 581 580
f 1027 580 1026
f 1026 580 579
f 1026 579 578
f 1026 578 1025
f 1025 578 577
f 1025 577 576
f 1025 576 1024
f 1024 576 575
f 1024 575 1022
f 1022 575 574
f 1022 574 757
f 757 574 573
f 757 573 572
f 572 571 757
f 757 571 570
f 757 570 569
f 569 568 757
f 757 568 567
f 757 567 566
f 566 565 757
f 757 565 564
f 757 564 563
f 563 562 757
f 757 562 561
f 757 561 560
f 560 559 757
f 757 559 558
f 757 558 557
f 757 557 708
f 708 557 556
f 708 556 555
f 555 554 708
f 708 554 553
f 708 553 552
f 552 551 708
f 708 551 550
f 708 550 549
f 549 548 708
f 708 548 547
f 708 547 546
f 546 545 708
f 708 545 544
f 708 544 543
f 543 542 708
f 708 542 541
f 708 541 540
f 540 539 708
f 776 1023 757
f 757 1023 1022
f 1067 1068 758
f 758 1068 759
f 767 766 1015
f 1015 766 1043
f 1042 1043 765
f 765 1043 766
f 1051 1042 764
f 764 1042 765
f 1050 1051 763
f 763 1051 764
f 1055 1050 762
f 762 1050 763
f 1060 1055 761
f 761 1055 762
f 1061 1060 760
f 760 1060 761
f 759 1061 760
f 759 1068 1061
f 780 779 783
f 783 779 876
f 778 782 779
f 779 782 876
f 836 793 873
f 873 793 792
f 835 836 837
f 837 836 873
f 838 840 839
f 839 840 874
f 806 839 807
f 807 839 874
f 818 833 819
f 819 833 875
f 833 832 875
f 875 832 834
