%TF.GenerationSoftware,KiCad,Pcbnew,9.0.2*%
%TF.CreationDate,2025-07-16T22:13:36+02:00*%
%TF.ProjectId,fire,66697265-2e6b-4696-9361-645f70636258,rev?*%
%TF.SameCoordinates,Original*%
%TF.FileFunction,Soldermask,Bot*%
%TF.FilePolarity,Negative*%
%FSLAX46Y46*%
G04 Gerber Fmt 4.6, Leading zero omitted, Abs format (unit mm)*
G04 Created by KiCad (PCBNEW 9.0.2) date 2025-07-16 22:13:36*
%MOMM*%
%LPD*%
G01*
G04 APERTURE LIST*
%ADD10R,3.000000X3.000000*%
%ADD11C,3.000000*%
%ADD12R,1.500000X1.500000*%
%ADD13R,1.700000X1.700000*%
%ADD14C,1.700000*%
G04 APERTURE END LIST*
D10*
%TO.C,J9*%
X77515000Y-178300000D03*
D11*
X72435000Y-178300000D03*
%TD*%
D12*
%TO.C,KR4*%
X269350000Y-129325000D03*
X269350000Y-131865000D03*
X269350000Y-134405000D03*
X269350000Y-136945000D03*
X253650000Y-133825000D03*
X253650000Y-136365000D03*
%TD*%
D13*
%TO.C,J4*%
X116735000Y-151800000D03*
D14*
X119275000Y-151800000D03*
X121815000Y-151800000D03*
%TD*%
D13*
%TO.C,J3*%
X68860000Y-161100000D03*
D14*
X71400000Y-161100000D03*
X73940000Y-161100000D03*
%TD*%
D13*
%TO.C,J5*%
X210985000Y-134875000D03*
D14*
X213525000Y-134875000D03*
X216065000Y-134875000D03*
%TD*%
D12*
%TO.C,KR1*%
X79650000Y-129425000D03*
X79650000Y-131965000D03*
X79650000Y-134505000D03*
X79650000Y-137045000D03*
X63950000Y-133925000D03*
X63950000Y-136465000D03*
%TD*%
%TO.C,KR5*%
X360300000Y-129255000D03*
X360300000Y-131795000D03*
X360300000Y-134335000D03*
X360300000Y-136875000D03*
X344600000Y-133755000D03*
X344600000Y-136295000D03*
%TD*%
D13*
%TO.C,J6*%
X235260000Y-169425000D03*
D14*
X237800000Y-169425000D03*
X240340000Y-169425000D03*
%TD*%
D13*
%TO.C,J7*%
X304635000Y-151925000D03*
D14*
X307175000Y-151925000D03*
X309715000Y-151925000D03*
%TD*%
D12*
%TO.C,KR2*%
X171925000Y-129325000D03*
X171925000Y-131865000D03*
X171925000Y-134405000D03*
X171925000Y-136945000D03*
X156225000Y-133825000D03*
X156225000Y-136365000D03*
%TD*%
D13*
%TO.C,J8*%
X350960000Y-160800000D03*
D14*
X353500000Y-160800000D03*
X356040000Y-160800000D03*
%TD*%
D12*
%TO.C,KR3*%
X200100000Y-164250000D03*
X200100000Y-166790000D03*
X200100000Y-169330000D03*
X200100000Y-171870000D03*
X184400000Y-168750000D03*
X184400000Y-171290000D03*
%TD*%
D10*
%TO.C,J1*%
X67235000Y-111700000D03*
D11*
X72315000Y-111700000D03*
%TD*%
D13*
%TO.C,J2*%
X353970000Y-113575000D03*
D14*
X353970000Y-111035000D03*
X351430000Y-113575000D03*
X351430000Y-111035000D03*
X348890000Y-113575000D03*
X348890000Y-111035000D03*
X346350000Y-113575000D03*
X346350000Y-111035000D03*
X343810000Y-113575000D03*
X343810000Y-111035000D03*
X341270000Y-113575000D03*
X341270000Y-111035000D03*
X338730000Y-113575000D03*
X338730000Y-111035000D03*
X336190000Y-113575000D03*
X336190000Y-111035000D03*
X333650000Y-113575000D03*
X333650000Y-111035000D03*
X331110000Y-113575000D03*
X331110000Y-111035000D03*
X328570000Y-113575000D03*
X328570000Y-111035000D03*
X326030000Y-113575000D03*
X326030000Y-111035000D03*
X323490000Y-113575000D03*
X323490000Y-111035000D03*
X320950000Y-113575000D03*
X320950000Y-111035000D03*
X318410000Y-113575000D03*
X318410000Y-111035000D03*
X315870000Y-113575000D03*
X315870000Y-111035000D03*
X313330000Y-113575000D03*
X313330000Y-111035000D03*
X310790000Y-113575000D03*
X310790000Y-111035000D03*
X308250000Y-113575000D03*
X308250000Y-111035000D03*
X305710000Y-113575000D03*
X305710000Y-111035000D03*
%TD*%
M02*
