M48
; DRILL file {KiCad 9.0.2} date 2025-07-16T22:13:36+0200
; FORMAT={-:-/ absolute / inch / decimal}
; #@! TF.CreationDate,2025-07-16T22:13:36+02:00
; #@! TF.GenerationSoftware,Kicad,Pcbnew,9.0.2
; #@! TF.FileFunction,Plated,1,2,PTH
FMAT,2
INCH
; #@! TA.AperFunction,Plated,PTH,ViaDrill
T1C0.0118
; #@! TA.AperFunction,Plated,PTH,ComponentDrill
T2C0.0236
; #@! TA.AperFunction,Plated,PTH,ComponentDrill
T3C0.0394
; #@! TA.AperFunction,Plated,PTH,ComponentDrill
T4C0.0598
%
G90
G05
T1
X2.1793Y-6.2968
X2.3271Y-5.0637
X2.3383Y-6.4174
X2.3599Y-4.7977
X2.4312Y-4.9997
X2.4312Y-5.5893
X2.4347Y-7.0321
X2.4999Y-5.9572
X2.6643Y-4.7583
X2.7036Y-6.6505
X2.711Y-6.0609
X2.8729Y-5.0392
X2.9015Y-4.646
X3.2542Y-6.0609
X3.2703Y-5.8096
X3.3329Y-5.5639
X3.346Y-5.2355
X3.3718Y-4.2944
X3.4Y-4.818
X3.4284Y-6.3867
X3.5093Y-6.1788
X3.5243Y-5.5601
X3.6069Y-6.8863
X4.0793Y-4.754
X4.43Y-5.2355
X4.4388Y-6.8863
X4.685Y-5.2019
X4.8048Y-4.6865
X5.1773Y-4.3686
X5.4881Y-4.6287
X5.6135Y-5.2544
X5.8409Y-5.4714
X5.8409Y-6.1788
X6.1814Y-5.8555
X6.2397Y-6.1327
X6.3112Y-4.3267
X6.3112Y-4.8931
X6.3112Y-5.8555
X6.402Y-4.5651
X6.6639Y-4.6245
X6.7644Y-4.7512
X6.814Y-4.8886
X6.8207Y-5.9059
X6.8553Y-6.8507
X7.0166Y-6.1848
X7.0303Y-4.4215
X7.0744Y-5.377
X7.2225Y-5.4714
X7.2518Y-4.4351
X7.4869Y-4.6334
X7.9572Y-5.0272
X8.3099Y-5.5893
X8.3099Y-5.943
X8.3423Y-5.9091
X8.4495Y-4.5164
X8.5451Y-4.3559
X8.8978Y-7.0042
X9.1266Y-6.4405
X9.3681Y-4.5281
X9.3681Y-5.6738
X9.7208Y-6.5329
X9.725Y-6.4147
X9.7324Y-5.2355
X9.7562Y-5.2709
X9.8384Y-6.1788
X9.9426Y-6.4756
X10.0775Y-7.0042
X10.1095Y-5.9338
X10.1911Y-4.8818
X10.4366Y-4.5384
X10.5386Y-6.1841
X10.5439Y-5.9338
X10.5487Y-6.7684
X10.653Y-4.78
X10.6614Y-6.5326
X10.6649Y-4.3599
X10.6741Y-5.1074
X10.6913Y-6.765
X10.6957Y-6.8874
X10.7613Y-4.5388
X10.8126Y-6.6526
X10.8786Y-5.2089
X11.3598Y-4.8818
X12.1421Y-6.0115
X12.1584Y-5.0976
X12.1584Y-5.2355
X12.3451Y-6.9571
X12.5426Y-6.5326
X12.7788Y-4.8704
X12.7997Y-6.4428
X12.8954Y-5.943
X13.0615Y-5.4714
X13.0866Y-6.1348
X13.0979Y-5.5893
X13.1362Y-5.9076
X13.1417Y-4.5277
X13.161Y-5.3534
X13.161Y-5.7072
X13.2306Y-5.5368
X13.3162Y-4.5811
X13.4832Y-4.8954
X13.5203Y-4.5369
X13.5473Y-4.7876
X13.5741Y-4.5995
X13.6276Y-4.5995
X13.7157Y-4.6111
X13.7598Y-4.8313
X13.7725Y-4.7638
X13.8046Y-5.8448
X13.8147Y-6.6505
X13.8783Y-6.3955
X13.939Y-6.6505
X14.0711Y-4.4101
X14.405Y-6.0797
X14.5754Y-5.4714
T2
X2.5177Y-5.2726
X2.5177Y-5.3726
X3.1358Y-5.0955
X3.1358Y-5.1955
X3.1358Y-5.2955
X3.1358Y-5.3955
X6.1506Y-5.2687
X6.1506Y-5.3687
X6.7687Y-5.0915
X6.7687Y-5.1915
X6.7687Y-5.2915
X6.7687Y-5.3915
X7.2598Y-6.6437
X7.2598Y-6.7437
X7.878Y-6.4665
X7.878Y-6.5665
X7.878Y-6.6665
X7.878Y-6.7665
X9.9862Y-5.2687
X9.9862Y-5.3687
X10.6043Y-5.0915
X10.6043Y-5.1915
X10.6043Y-5.2915
X10.6043Y-5.3915
X13.5669Y-5.2659
X13.5669Y-5.3659
X14.185Y-5.0888
X14.185Y-5.1888
X14.185Y-5.2888
X14.185Y-5.3888
T3
X2.711Y-6.3425
X2.811Y-6.3425
X2.911Y-6.3425
X4.5959Y-5.9764
X4.6959Y-5.9764
X4.7959Y-5.9764
X8.3065Y-5.31
X8.4065Y-5.31
X8.5065Y-5.31
X9.2622Y-6.6703
X9.3622Y-6.6703
X9.4622Y-6.6703
X11.9935Y-5.9813
X12.0358Y-4.3715
X12.0358Y-4.4715
X12.0935Y-5.9813
X12.1358Y-4.3715
X12.1358Y-4.4715
X12.1935Y-5.9813
X12.2358Y-4.3715
X12.2358Y-4.4715
X12.3358Y-4.3715
X12.3358Y-4.4715
X12.4358Y-4.3715
X12.4358Y-4.4715
X12.5358Y-4.3715
X12.5358Y-4.4715
X12.6358Y-4.3715
X12.6358Y-4.4715
X12.7358Y-4.3715
X12.7358Y-4.4715
X12.8358Y-4.3715
X12.8358Y-4.4715
X12.9358Y-4.3715
X12.9358Y-4.4715
X13.0358Y-4.3715
X13.0358Y-4.4715
X13.1358Y-4.3715
X13.1358Y-4.4715
X13.2358Y-4.3715
X13.2358Y-4.4715
X13.3358Y-4.3715
X13.3358Y-4.4715
X13.4358Y-4.3715
X13.4358Y-4.4715
X13.5358Y-4.3715
X13.5358Y-4.4715
X13.6358Y-4.3715
X13.6358Y-4.4715
X13.7358Y-4.3715
X13.7358Y-4.4715
X13.8173Y-6.3307
X13.8358Y-4.3715
X13.8358Y-4.4715
X13.9173Y-6.3307
X13.9358Y-4.3715
X13.9358Y-4.4715
X14.0173Y-6.3307
T4
X2.647Y-4.3976
X2.847Y-4.3976
X2.8518Y-7.0197
X3.0518Y-7.0197
M30
