%TF.GenerationSoftware,KiCad,Pcbnew,9.0.2*%
%TF.CreationDate,2025-07-16T22:13:36+02:00*%
%TF.ProjectId,fire,66697265-2e6b-4696-9361-645f70636258,rev?*%
%TF.SameCoordinates,Original*%
%TF.FileFunction,Copper,L1,Top*%
%TF.FilePolarity,Positive*%
%FSLAX46Y46*%
G04 Gerber Fmt 4.6, Leading zero omitted, Abs format (unit mm)*
G04 Created by KiCad (PCBNEW 9.0.2) date 2025-07-16 22:13:36*
%MOMM*%
%LPD*%
G01*
G04 APERTURE LIST*
G04 Aperture macros list*
%AMRoundRect*
0 Rectangle with rounded corners*
0 $1 Rounding radius*
0 $2 $3 $4 $5 $6 $7 $8 $9 X,Y pos of 4 corners*
0 Add a 4 corners polygon primitive as box body*
4,1,4,$2,$3,$4,$5,$6,$7,$8,$9,$2,$3,0*
0 Add four circle primitives for the rounded corners*
1,1,$1+$1,$2,$3*
1,1,$1+$1,$4,$5*
1,1,$1+$1,$6,$7*
1,1,$1+$1,$8,$9*
0 Add four rect primitives between the rounded corners*
20,1,$1+$1,$2,$3,$4,$5,0*
20,1,$1+$1,$4,$5,$6,$7,0*
20,1,$1+$1,$6,$7,$8,$9,0*
20,1,$1+$1,$8,$9,$2,$3,0*%
G04 Aperture macros list end*
%TA.AperFunction,ComponentPad*%
%ADD10R,3.000000X3.000000*%
%TD*%
%TA.AperFunction,ComponentPad*%
%ADD11C,3.000000*%
%TD*%
%TA.AperFunction,ComponentPad*%
%ADD12R,1.500000X1.500000*%
%TD*%
%TA.AperFunction,SMDPad,CuDef*%
%ADD13RoundRect,0.165000X-0.385000X-0.885000X0.385000X-0.885000X0.385000X0.885000X-0.385000X0.885000X0*%
%TD*%
%TA.AperFunction,SMDPad,CuDef*%
%ADD14RoundRect,0.315000X-0.735000X-0.735000X0.735000X-0.735000X0.735000X0.735000X-0.735000X0.735000X0*%
%TD*%
%TA.AperFunction,SMDPad,CuDef*%
%ADD15RoundRect,0.250000X-0.400000X-0.625000X0.400000X-0.625000X0.400000X0.625000X-0.400000X0.625000X0*%
%TD*%
%TA.AperFunction,SMDPad,CuDef*%
%ADD16RoundRect,0.165000X0.885000X-0.385000X0.885000X0.385000X-0.885000X0.385000X-0.885000X-0.385000X0*%
%TD*%
%TA.AperFunction,SMDPad,CuDef*%
%ADD17RoundRect,0.315000X0.735000X-0.735000X0.735000X0.735000X-0.735000X0.735000X-0.735000X-0.735000X0*%
%TD*%
%TA.AperFunction,ComponentPad*%
%ADD18R,1.700000X1.700000*%
%TD*%
%TA.AperFunction,ComponentPad*%
%ADD19C,1.700000*%
%TD*%
%TA.AperFunction,ViaPad*%
%ADD20C,0.600000*%
%TD*%
%TA.AperFunction,Conductor*%
%ADD21C,0.400000*%
%TD*%
%TA.AperFunction,Conductor*%
%ADD22C,0.600000*%
%TD*%
G04 APERTURE END LIST*
D10*
%TO.P,J9,1,Pin_1*%
%TO.N,GND*%
X77515000Y-178300000D03*
D11*
%TO.P,J9,2,Pin_2*%
%TO.N,+12V*%
X72435000Y-178300000D03*
%TD*%
D12*
%TO.P,KR4,1,+5V_TOP_LED*%
%TO.N,Net-(J2-Pin_10)*%
X269350000Y-129325000D03*
%TO.P,KR4,2,GND_TOP_LED*%
%TO.N,GND*%
X269350000Y-131865000D03*
%TO.P,KR4,3,+5V_BOTTOM_LED*%
%TO.N,Net-(J2-Pin_11)*%
X269350000Y-134405000D03*
%TO.P,KR4,4,GND_BOTTOM_LED*%
%TO.N,GND*%
X269350000Y-136945000D03*
%TO.P,KR4,5,SW_IN*%
%TO.N,Net-(J2-Pin_12)*%
X253650000Y-133825000D03*
%TO.P,KR4,6,SW_OUT*%
%TO.N,GND*%
X253650000Y-136365000D03*
%TD*%
D13*
%TO.P,D11,1,K*%
%TO.N,Net-(D11-K)*%
X108275000Y-175650000D03*
D14*
%TO.P,D11,2,A*%
%TO.N,Net-(D10-K)*%
X110425000Y-175650000D03*
%TD*%
D15*
%TO.P,R3,1*%
%TO.N,Net-(D9-K)*%
X64375000Y-168950000D03*
%TO.P,R3,2*%
%TO.N,GND*%
X67475000Y-168950000D03*
%TD*%
D16*
%TO.P,D36,1,K*%
%TO.N,Net-(D36-K)*%
X244575000Y-162175000D03*
D17*
%TO.P,D36,2,A*%
%TO.N,Net-(D35-K)*%
X244575000Y-160025000D03*
%TD*%
D13*
%TO.P,D29,1,K*%
%TO.N,Net-(D29-K)*%
X201250000Y-114275000D03*
D14*
%TO.P,D29,2,A*%
%TO.N,+12V*%
X203400000Y-114275000D03*
%TD*%
D15*
%TO.P,R5,1*%
%TO.N,Net-(D15-K)*%
X150725000Y-166450000D03*
%TO.P,R5,2*%
%TO.N,GND*%
X153825000Y-166450000D03*
%TD*%
D16*
%TO.P,D38,1,K*%
%TO.N,Net-(D38-K)*%
X243375000Y-115050000D03*
D17*
%TO.P,D38,2,A*%
%TO.N,+12V*%
X243375000Y-112900000D03*
%TD*%
D16*
%TO.P,D2,1,K*%
%TO.N,Net-(D2-K)*%
X57475000Y-162675000D03*
D17*
%TO.P,D2,2,A*%
%TO.N,Net-(D1-K)*%
X57475000Y-160525000D03*
%TD*%
D15*
%TO.P,R14,1*%
%TO.N,Net-(D40-K)*%
X251200000Y-170500000D03*
%TO.P,R14,2*%
%TO.N,GND*%
X254300000Y-170500000D03*
%TD*%
D13*
%TO.P,D20,1,K*%
%TO.N,Net-(D20-K)*%
X117985000Y-119500000D03*
D14*
%TO.P,D20,2,A*%
%TO.N,Net-(D19-K)*%
X120135000Y-119500000D03*
%TD*%
D13*
%TO.P,D31,1,K*%
%TO.N,Net-(D31-K)*%
X188525000Y-151050000D03*
D14*
%TO.P,D31,2,A*%
%TO.N,Net-(D30-K)*%
X190675000Y-151050000D03*
%TD*%
D13*
%TO.P,D51,1,K*%
%TO.N,Net-(D51-K)*%
X304825000Y-132150000D03*
D14*
%TO.P,D51,2,A*%
%TO.N,Net-(D50-K)*%
X306975000Y-132150000D03*
%TD*%
D13*
%TO.P,D55,1,K*%
%TO.N,Net-(D55-K)*%
X362025000Y-175450000D03*
D14*
%TO.P,D55,2,A*%
%TO.N,Net-(D54-K)*%
X364175000Y-175450000D03*
%TD*%
D13*
%TO.P,D25,1,K*%
%TO.N,Net-(D25-K)*%
X171500000Y-175650000D03*
D14*
%TO.P,D25,2,A*%
%TO.N,Net-(D24-K)*%
X173650000Y-175650000D03*
%TD*%
D13*
%TO.P,D53,1,K*%
%TO.N,Net-(D53-K)*%
X319625000Y-125225000D03*
D14*
%TO.P,D53,2,A*%
%TO.N,+12V*%
X321775000Y-125225000D03*
%TD*%
D13*
%TO.P,D35,1,K*%
%TO.N,Net-(D35-K)*%
X236975000Y-150300000D03*
D14*
%TO.P,D35,2,A*%
%TO.N,+12V*%
X239125000Y-150300000D03*
%TD*%
D13*
%TO.P,D19,1,K*%
%TO.N,Net-(D19-K)*%
X118210000Y-133750000D03*
D14*
%TO.P,D19,2,A*%
%TO.N,+12V*%
X120360000Y-133750000D03*
%TD*%
D18*
%TO.P,J4,1,Pin_1*%
%TO.N,GND*%
X116735000Y-151800000D03*
D19*
%TO.P,J4,2,Pin_2*%
%TO.N,Net-(J2-Pin_18)*%
X119275000Y-151800000D03*
%TO.P,J4,3,Pin_3*%
%TO.N,Net-(J2-Pin_19)*%
X121815000Y-151800000D03*
%TD*%
D18*
%TO.P,J3,1,Pin_1*%
%TO.N,GND*%
X68860000Y-161100000D03*
D19*
%TO.P,J3,2,Pin_2*%
%TO.N,Net-(J2-Pin_16)*%
X71400000Y-161100000D03*
%TO.P,J3,3,Pin_3*%
%TO.N,Net-(J2-Pin_17)*%
X73940000Y-161100000D03*
%TD*%
D16*
%TO.P,D26,1,K*%
%TO.N,Net-(D26-K)*%
X175450000Y-157600000D03*
D17*
%TO.P,D26,2,A*%
%TO.N,+12V*%
X175450000Y-155450000D03*
%TD*%
D13*
%TO.P,D23,1,K*%
%TO.N,Net-(D23-K)*%
X163975000Y-116350000D03*
D14*
%TO.P,D23,2,A*%
%TO.N,+12V*%
X166125000Y-116350000D03*
%TD*%
D13*
%TO.P,D57,1,K*%
%TO.N,Net-(D57-K)*%
X340625000Y-120225000D03*
D14*
%TO.P,D57,2,A*%
%TO.N,Net-(D56-K)*%
X342775000Y-120225000D03*
%TD*%
D13*
%TO.P,D8,1,K*%
%TO.N,Net-(D8-K)*%
X60075000Y-120175000D03*
D14*
%TO.P,D8,2,A*%
%TO.N,Net-(D7-K)*%
X62225000Y-120175000D03*
%TD*%
D16*
%TO.P,D1,1,K*%
%TO.N,Net-(D1-K)*%
X56925000Y-128275000D03*
D17*
%TO.P,D1,2,A*%
%TO.N,+12V*%
X56925000Y-126125000D03*
%TD*%
D13*
%TO.P,D15,1,K*%
%TO.N,Net-(D15-K)*%
X150650000Y-173125000D03*
D14*
%TO.P,D15,2,A*%
%TO.N,Net-(D14-K)*%
X152800000Y-173125000D03*
%TD*%
D15*
%TO.P,R10,1*%
%TO.N,Net-(D28-K)*%
X189200000Y-114200000D03*
%TO.P,R10,2*%
%TO.N,GND*%
X192300000Y-114200000D03*
%TD*%
D13*
%TO.P,D30,1,K*%
%TO.N,Net-(D30-K)*%
X223450000Y-114400000D03*
D14*
%TO.P,D30,2,A*%
%TO.N,Net-(D29-K)*%
X225600000Y-114400000D03*
%TD*%
D13*
%TO.P,D34,1,K*%
%TO.N,Net-(D34-K)*%
X206700000Y-168000000D03*
D14*
%TO.P,D34,2,A*%
%TO.N,Net-(D33-K)*%
X208850000Y-168000000D03*
%TD*%
D13*
%TO.P,D39,1,K*%
%TO.N,Net-(D39-K)*%
X227875000Y-164225000D03*
D14*
%TO.P,D39,2,A*%
%TO.N,Net-(D38-K)*%
X230025000Y-164225000D03*
%TD*%
D13*
%TO.P,D40,1,K*%
%TO.N,Net-(D40-K)*%
X251375000Y-176700000D03*
D14*
%TO.P,D40,2,A*%
%TO.N,Net-(D39-K)*%
X253525000Y-176700000D03*
%TD*%
D18*
%TO.P,J5,1,Pin_1*%
%TO.N,GND*%
X210985000Y-134875000D03*
D19*
%TO.P,J5,2,Pin_2*%
%TO.N,Net-(J2-Pin_20)*%
X213525000Y-134875000D03*
%TO.P,J5,3,Pin_3*%
%TO.N,Net-(J2-Pin_21)*%
X216065000Y-134875000D03*
%TD*%
D15*
%TO.P,R13,1*%
%TO.N,Net-(D37-K)*%
X252625000Y-157075000D03*
%TO.P,R13,2*%
%TO.N,GND*%
X255725000Y-157075000D03*
%TD*%
%TO.P,R20,1*%
%TO.N,Net-(D58-K)*%
X351150000Y-126625000D03*
%TO.P,R20,2*%
%TO.N,GND*%
X354250000Y-126625000D03*
%TD*%
%TO.P,R15,1*%
%TO.N,Net-(D43-K)*%
X271400000Y-115375000D03*
%TO.P,R15,2*%
%TO.N,GND*%
X274500000Y-115375000D03*
%TD*%
D13*
%TO.P,D49,1,K*%
%TO.N,Net-(D49-K)*%
X338675000Y-172600000D03*
D14*
%TO.P,D49,2,A*%
%TO.N,Net-(D48-K)*%
X340825000Y-172600000D03*
%TD*%
D13*
%TO.P,D48,1,K*%
%TO.N,Net-(D48-K)*%
X309825000Y-176150000D03*
D14*
%TO.P,D48,2,A*%
%TO.N,Net-(D47-K)*%
X311975000Y-176150000D03*
%TD*%
D13*
%TO.P,D52,1,K*%
%TO.N,Net-(D52-K)*%
X328350000Y-132350000D03*
D14*
%TO.P,D52,2,A*%
%TO.N,Net-(D51-K)*%
X330500000Y-132350000D03*
%TD*%
D15*
%TO.P,R9,1*%
%TO.N,Net-(D25-K)*%
X171150000Y-169550000D03*
%TO.P,R9,2*%
%TO.N,GND*%
X174250000Y-169550000D03*
%TD*%
D16*
%TO.P,D56,1,K*%
%TO.N,Net-(D56-K)*%
X367375000Y-163075000D03*
D17*
%TO.P,D56,2,A*%
%TO.N,+12V*%
X367375000Y-160925000D03*
%TD*%
D13*
%TO.P,D16,1,K*%
%TO.N,Net-(D16-K)*%
X150975000Y-157275000D03*
D14*
%TO.P,D16,2,A*%
%TO.N,+12V*%
X153125000Y-157275000D03*
%TD*%
D13*
%TO.P,D42,1,K*%
%TO.N,Net-(D42-K)*%
X270275000Y-150700000D03*
D14*
%TO.P,D42,2,A*%
%TO.N,Net-(D41-K)*%
X272425000Y-150700000D03*
%TD*%
D12*
%TO.P,KR1,1,+5V_TOP_LED*%
%TO.N,Net-(J2-Pin_1)*%
X79650000Y-129425000D03*
%TO.P,KR1,2,GND_TOP_LED*%
%TO.N,GND*%
X79650000Y-131965000D03*
%TO.P,KR1,3,+5V_BOTTOM_LED*%
%TO.N,Net-(J2-Pin_2)*%
X79650000Y-134505000D03*
%TO.P,KR1,4,GND_BOTTOM_LED*%
%TO.N,GND*%
X79650000Y-137045000D03*
%TO.P,KR1,5,SW_IN*%
%TO.N,Net-(J2-Pin_3)*%
X63950000Y-133925000D03*
%TO.P,KR1,6,SW_OUT*%
%TO.N,GND*%
X63950000Y-136465000D03*
%TD*%
D15*
%TO.P,R4,1*%
%TO.N,Net-(D12-K)*%
X84575000Y-163850000D03*
%TO.P,R4,2*%
%TO.N,GND*%
X87675000Y-163850000D03*
%TD*%
D13*
%TO.P,D7,1,K*%
%TO.N,Net-(D7-K)*%
X86285000Y-126400000D03*
D14*
%TO.P,D7,2,A*%
%TO.N,+12V*%
X88435000Y-126400000D03*
%TD*%
D16*
%TO.P,D27,1,K*%
%TO.N,Net-(D27-K)*%
X181300000Y-139700000D03*
D17*
%TO.P,D27,2,A*%
%TO.N,Net-(D26-K)*%
X181300000Y-137550000D03*
%TD*%
D13*
%TO.P,D6,1,K*%
%TO.N,Net-(D6-K)*%
X85710000Y-141125000D03*
D14*
%TO.P,D6,2,A*%
%TO.N,Net-(D5-K)*%
X87860000Y-141125000D03*
%TD*%
D13*
%TO.P,D21,1,K*%
%TO.N,Net-(D21-K)*%
X138085000Y-133750000D03*
D14*
%TO.P,D21,2,A*%
%TO.N,Net-(D20-K)*%
X140235000Y-133750000D03*
%TD*%
D15*
%TO.P,R7,1*%
%TO.N,Net-(D21-K)*%
X145500000Y-133675000D03*
%TO.P,R7,2*%
%TO.N,GND*%
X148600000Y-133675000D03*
%TD*%
D13*
%TO.P,D43,1,K*%
%TO.N,Net-(D43-K)*%
X259225000Y-115775000D03*
D14*
%TO.P,D43,2,A*%
%TO.N,Net-(D42-K)*%
X261375000Y-115775000D03*
%TD*%
D13*
%TO.P,D58,1,K*%
%TO.N,Net-(D58-K)*%
X362725000Y-120475000D03*
D14*
%TO.P,D58,2,A*%
%TO.N,Net-(D57-K)*%
X364875000Y-120475000D03*
%TD*%
D13*
%TO.P,D54,1,K*%
%TO.N,Net-(D54-K)*%
X290400000Y-125225000D03*
D14*
%TO.P,D54,2,A*%
%TO.N,Net-(D53-K)*%
X292550000Y-125225000D03*
%TD*%
D12*
%TO.P,KR5,1,+5V_TOP_LED*%
%TO.N,Net-(J2-Pin_13)*%
X360300000Y-129255000D03*
%TO.P,KR5,2,GND_TOP_LED*%
%TO.N,GND*%
X360300000Y-131795000D03*
%TO.P,KR5,3,+5V_BOTTOM_LED*%
%TO.N,Net-(J2-Pin_14)*%
X360300000Y-134335000D03*
%TO.P,KR5,4,GND_BOTTOM_LED*%
%TO.N,GND*%
X360300000Y-136875000D03*
%TO.P,KR5,5,SW_IN*%
%TO.N,Net-(J2-Pin_15)*%
X344600000Y-133755000D03*
%TO.P,KR5,6,SW_OUT*%
%TO.N,GND*%
X344600000Y-136295000D03*
%TD*%
D13*
%TO.P,D12,1,K*%
%TO.N,Net-(D12-K)*%
X84950000Y-156725000D03*
D14*
%TO.P,D12,2,A*%
%TO.N,Net-(D11-K)*%
X87100000Y-156725000D03*
%TD*%
D18*
%TO.P,J6,1,Pin_1*%
%TO.N,GND*%
X235260000Y-169425000D03*
D19*
%TO.P,J6,2,Pin_2*%
%TO.N,Net-(J2-Pin_22)*%
X237800000Y-169425000D03*
%TO.P,J6,3,Pin_3*%
%TO.N,Net-(J2-Pin_23)*%
X240340000Y-169425000D03*
%TD*%
D18*
%TO.P,J7,1,Pin_1*%
%TO.N,GND*%
X304635000Y-151925000D03*
D19*
%TO.P,J7,2,Pin_2*%
%TO.N,Net-(J2-Pin_24)*%
X307175000Y-151925000D03*
%TO.P,J7,3,Pin_3*%
%TO.N,Net-(J2-Pin_25)*%
X309715000Y-151925000D03*
%TD*%
D15*
%TO.P,R12,1*%
%TO.N,Net-(D34-K)*%
X214625000Y-167875000D03*
%TO.P,R12,2*%
%TO.N,GND*%
X217725000Y-167875000D03*
%TD*%
%TO.P,R2,1*%
%TO.N,Net-(D6-K)*%
X86475000Y-132850000D03*
%TO.P,R2,2*%
%TO.N,GND*%
X89575000Y-132850000D03*
%TD*%
D16*
%TO.P,D60,1,K*%
%TO.N,Net-(D60-K)*%
X337975000Y-140250000D03*
D17*
%TO.P,D60,2,A*%
%TO.N,Net-(D59-K)*%
X337975000Y-138100000D03*
%TD*%
D13*
%TO.P,D32,1,K*%
%TO.N,Net-(D32-K)*%
X213125000Y-150650000D03*
D14*
%TO.P,D32,2,A*%
%TO.N,+12V*%
X215275000Y-150650000D03*
%TD*%
D13*
%TO.P,D50,1,K*%
%TO.N,Net-(D50-K)*%
X338850000Y-154425000D03*
D14*
%TO.P,D50,2,A*%
%TO.N,+12V*%
X341000000Y-154425000D03*
%TD*%
D13*
%TO.P,D47,1,K*%
%TO.N,Net-(D47-K)*%
X286300000Y-176150000D03*
D14*
%TO.P,D47,2,A*%
%TO.N,+12V*%
X288450000Y-176150000D03*
%TD*%
D13*
%TO.P,D5,1,K*%
%TO.N,Net-(D5-K)*%
X78925000Y-149575000D03*
D14*
%TO.P,D5,2,A*%
%TO.N,Net-(D4-K)*%
X81075000Y-149575000D03*
%TD*%
D13*
%TO.P,D4,1,K*%
%TO.N,Net-(D4-K)*%
X56560000Y-141075000D03*
D14*
%TO.P,D4,2,A*%
%TO.N,+12V*%
X58710000Y-141075000D03*
%TD*%
D15*
%TO.P,R8,1*%
%TO.N,Net-(D22-K)*%
X139550000Y-124300000D03*
%TO.P,R8,2*%
%TO.N,GND*%
X142650000Y-124300000D03*
%TD*%
D12*
%TO.P,KR2,1,+5V_TOP_LED*%
%TO.N,Net-(J2-Pin_4)*%
X171925000Y-129325000D03*
%TO.P,KR2,2,GND_TOP_LED*%
%TO.N,GND*%
X171925000Y-131865000D03*
%TO.P,KR2,3,+5V_BOTTOM_LED*%
%TO.N,Net-(J2-Pin_5)*%
X171925000Y-134405000D03*
%TO.P,KR2,4,GND_BOTTOM_LED*%
%TO.N,GND*%
X171925000Y-136945000D03*
%TO.P,KR2,5,SW_IN*%
%TO.N,Net-(J2-Pin_6)*%
X156225000Y-133825000D03*
%TO.P,KR2,6,SW_OUT*%
%TO.N,GND*%
X156225000Y-136365000D03*
%TD*%
D18*
%TO.P,J8,1,Pin_1*%
%TO.N,GND*%
X350960000Y-160800000D03*
D19*
%TO.P,J8,2,Pin_2*%
%TO.N,Net-(J2-Pin_26)*%
X353500000Y-160800000D03*
%TO.P,J8,3,Pin_3*%
%TO.N,Net-(J2-Pin_27)*%
X356040000Y-160800000D03*
%TD*%
D15*
%TO.P,R11,1*%
%TO.N,Net-(D31-K)*%
X171500000Y-149600000D03*
%TO.P,R11,2*%
%TO.N,GND*%
X174600000Y-149600000D03*
%TD*%
D16*
%TO.P,D37,1,K*%
%TO.N,Net-(D37-K)*%
X244950000Y-134250000D03*
D17*
%TO.P,D37,2,A*%
%TO.N,Net-(D36-K)*%
X244950000Y-132100000D03*
%TD*%
D15*
%TO.P,R21,1*%
%TO.N,Net-(D61-K)*%
X352500000Y-168900000D03*
%TO.P,R21,2*%
%TO.N,GND*%
X355600000Y-168900000D03*
%TD*%
%TO.P,R16,1*%
%TO.N,Net-(D46-K)*%
X270450000Y-174600000D03*
%TO.P,R16,2*%
%TO.N,GND*%
X273550000Y-174600000D03*
%TD*%
%TO.P,R19,1*%
%TO.N,Net-(D55-K)*%
X352925000Y-175300000D03*
%TO.P,R19,2*%
%TO.N,GND*%
X356025000Y-175300000D03*
%TD*%
D13*
%TO.P,D9,1,K*%
%TO.N,Net-(D9-K)*%
X60235000Y-176775000D03*
D14*
%TO.P,D9,2,A*%
%TO.N,Net-(D8-K)*%
X62385000Y-176775000D03*
%TD*%
D13*
%TO.P,D3,1,K*%
%TO.N,Net-(D3-K)*%
X62635000Y-149300000D03*
D14*
%TO.P,D3,2,A*%
%TO.N,Net-(D2-K)*%
X64785000Y-149300000D03*
%TD*%
D13*
%TO.P,D46,1,K*%
%TO.N,Net-(D46-K)*%
X270800000Y-168500000D03*
D14*
%TO.P,D46,2,A*%
%TO.N,Net-(D45-K)*%
X272950000Y-168500000D03*
%TD*%
D13*
%TO.P,D18,1,K*%
%TO.N,Net-(D18-K)*%
X97675000Y-133750000D03*
D14*
%TO.P,D18,2,A*%
%TO.N,Net-(D17-K)*%
X99825000Y-133750000D03*
%TD*%
D13*
%TO.P,D44,1,K*%
%TO.N,Net-(D44-K)*%
X271700000Y-120750000D03*
D14*
%TO.P,D44,2,A*%
%TO.N,+12V*%
X273850000Y-120750000D03*
%TD*%
D13*
%TO.P,D10,1,K*%
%TO.N,Net-(D10-K)*%
X80735000Y-120600000D03*
D14*
%TO.P,D10,2,A*%
%TO.N,+12V*%
X82885000Y-120600000D03*
%TD*%
D16*
%TO.P,D28,1,K*%
%TO.N,Net-(D28-K)*%
X181475000Y-115225000D03*
D17*
%TO.P,D28,2,A*%
%TO.N,Net-(D27-K)*%
X181475000Y-113075000D03*
%TD*%
D13*
%TO.P,D33,1,K*%
%TO.N,Net-(D33-K)*%
X220485000Y-177025000D03*
D14*
%TO.P,D33,2,A*%
%TO.N,Net-(D32-K)*%
X222635000Y-177025000D03*
%TD*%
D13*
%TO.P,D41,1,K*%
%TO.N,Net-(D41-K)*%
X253000000Y-150500000D03*
D14*
%TO.P,D41,2,A*%
%TO.N,+12V*%
X255150000Y-150500000D03*
%TD*%
D12*
%TO.P,KR3,1,+5V_TOP_LED*%
%TO.N,Net-(J2-Pin_7)*%
X200100000Y-164250000D03*
%TO.P,KR3,2,GND_TOP_LED*%
%TO.N,GND*%
X200100000Y-166790000D03*
%TO.P,KR3,3,+5V_BOTTOM_LED*%
%TO.N,Net-(J2-Pin_8)*%
X200100000Y-169330000D03*
%TO.P,KR3,4,GND_BOTTOM_LED*%
%TO.N,GND*%
X200100000Y-171870000D03*
%TO.P,KR3,5,SW_IN*%
%TO.N,Net-(J2-Pin_9)*%
X184400000Y-168750000D03*
%TO.P,KR3,6,SW_OUT*%
%TO.N,GND*%
X184400000Y-171290000D03*
%TD*%
D15*
%TO.P,R17,1*%
%TO.N,Net-(D49-K)*%
X338675000Y-163025000D03*
%TO.P,R17,2*%
%TO.N,GND*%
X341775000Y-163025000D03*
%TD*%
%TO.P,R18,1*%
%TO.N,Net-(D52-K)*%
X328175000Y-125075000D03*
%TO.P,R18,2*%
%TO.N,GND*%
X331275000Y-125075000D03*
%TD*%
D13*
%TO.P,D24,1,K*%
%TO.N,Net-(D24-K)*%
X163325000Y-149275000D03*
D14*
%TO.P,D24,2,A*%
%TO.N,Net-(D23-K)*%
X165475000Y-149275000D03*
%TD*%
D13*
%TO.P,D22,1,K*%
%TO.N,Net-(D22-K)*%
X147650000Y-124350000D03*
D14*
%TO.P,D22,2,A*%
%TO.N,+12V*%
X149800000Y-124350000D03*
%TD*%
D16*
%TO.P,D17,1,K*%
%TO.N,Net-(D17-K)*%
X150500000Y-143850000D03*
D17*
%TO.P,D17,2,A*%
%TO.N,Net-(D16-K)*%
X150500000Y-141700000D03*
%TD*%
D15*
%TO.P,R1,1*%
%TO.N,Net-(D3-K)*%
X62250000Y-155650000D03*
%TO.P,R1,2*%
%TO.N,GND*%
X65350000Y-155650000D03*
%TD*%
%TO.P,R6,1*%
%TO.N,Net-(D18-K)*%
X106900000Y-133450000D03*
%TO.P,R6,2*%
%TO.N,GND*%
X110000000Y-133450000D03*
%TD*%
D13*
%TO.P,D14,1,K*%
%TO.N,Net-(D14-K)*%
X132200000Y-175825000D03*
D14*
%TO.P,D14,2,A*%
%TO.N,Net-(D13-K)*%
X134350000Y-175825000D03*
%TD*%
D13*
%TO.P,D13,1,K*%
%TO.N,Net-(D13-K)*%
X86675000Y-173275000D03*
D14*
%TO.P,D13,2,A*%
%TO.N,+12V*%
X88825000Y-173275000D03*
%TD*%
D13*
%TO.P,D61,1,K*%
%TO.N,Net-(D61-K)*%
X352350000Y-148775000D03*
D14*
%TO.P,D61,2,A*%
%TO.N,Net-(D60-K)*%
X354500000Y-148775000D03*
%TD*%
D13*
%TO.P,D59,1,K*%
%TO.N,Net-(D59-K)*%
X366385000Y-138875000D03*
D14*
%TO.P,D59,2,A*%
%TO.N,+12V*%
X368535000Y-138875000D03*
%TD*%
D13*
%TO.P,D45,1,K*%
%TO.N,Net-(D45-K)*%
X277575000Y-131975000D03*
D14*
%TO.P,D45,2,A*%
%TO.N,Net-(D44-K)*%
X279725000Y-131975000D03*
%TD*%
D10*
%TO.P,J1,1,Pin_1*%
%TO.N,GND*%
X67235000Y-111700000D03*
D11*
%TO.P,J1,2,Pin_2*%
%TO.N,+12V*%
X72315000Y-111700000D03*
%TD*%
D18*
%TO.P,J2,1,Pin_1*%
%TO.N,Net-(J2-Pin_1)*%
X353970000Y-113575000D03*
D19*
%TO.P,J2,2,Pin_2*%
%TO.N,Net-(J2-Pin_2)*%
X353970000Y-111035000D03*
%TO.P,J2,3,Pin_3*%
%TO.N,Net-(J2-Pin_3)*%
X351430000Y-113575000D03*
%TO.P,J2,4,Pin_4*%
%TO.N,Net-(J2-Pin_4)*%
X351430000Y-111035000D03*
%TO.P,J2,5,Pin_5*%
%TO.N,Net-(J2-Pin_5)*%
X348890000Y-113575000D03*
%TO.P,J2,6,Pin_6*%
%TO.N,Net-(J2-Pin_6)*%
X348890000Y-111035000D03*
%TO.P,J2,7,Pin_7*%
%TO.N,Net-(J2-Pin_7)*%
X346350000Y-113575000D03*
%TO.P,J2,8,Pin_8*%
%TO.N,Net-(J2-Pin_8)*%
X346350000Y-111035000D03*
%TO.P,J2,9,Pin_9*%
%TO.N,Net-(J2-Pin_9)*%
X343810000Y-113575000D03*
%TO.P,J2,10,Pin_10*%
%TO.N,Net-(J2-Pin_10)*%
X343810000Y-111035000D03*
%TO.P,J2,11,Pin_11*%
%TO.N,Net-(J2-Pin_11)*%
X341270000Y-113575000D03*
%TO.P,J2,12,Pin_12*%
%TO.N,Net-(J2-Pin_12)*%
X341270000Y-111035000D03*
%TO.P,J2,13,Pin_13*%
%TO.N,Net-(J2-Pin_13)*%
X338730000Y-113575000D03*
%TO.P,J2,14,Pin_14*%
%TO.N,Net-(J2-Pin_14)*%
X338730000Y-111035000D03*
%TO.P,J2,15,Pin_15*%
%TO.N,Net-(J2-Pin_15)*%
X336190000Y-113575000D03*
%TO.P,J2,16,Pin_16*%
%TO.N,Net-(J2-Pin_16)*%
X336190000Y-111035000D03*
%TO.P,J2,17,Pin_17*%
%TO.N,Net-(J2-Pin_17)*%
X333650000Y-113575000D03*
%TO.P,J2,18,Pin_18*%
%TO.N,Net-(J2-Pin_18)*%
X333650000Y-111035000D03*
%TO.P,J2,19,Pin_19*%
%TO.N,Net-(J2-Pin_19)*%
X331110000Y-113575000D03*
%TO.P,J2,20,Pin_20*%
%TO.N,Net-(J2-Pin_20)*%
X331110000Y-111035000D03*
%TO.P,J2,21,Pin_21*%
%TO.N,Net-(J2-Pin_21)*%
X328570000Y-113575000D03*
%TO.P,J2,22,Pin_22*%
%TO.N,Net-(J2-Pin_22)*%
X328570000Y-111035000D03*
%TO.P,J2,23,Pin_23*%
%TO.N,Net-(J2-Pin_23)*%
X326030000Y-113575000D03*
%TO.P,J2,24,Pin_24*%
%TO.N,Net-(J2-Pin_24)*%
X326030000Y-111035000D03*
%TO.P,J2,25,Pin_25*%
%TO.N,Net-(J2-Pin_25)*%
X323490000Y-113575000D03*
%TO.P,J2,26,Pin_26*%
%TO.N,Net-(J2-Pin_26)*%
X323490000Y-111035000D03*
%TO.P,J2,27,Pin_27*%
%TO.N,Net-(J2-Pin_27)*%
X320950000Y-113575000D03*
%TO.P,J2,28,Pin_28*%
%TO.N,unconnected-(J2-Pin_28-Pad28)*%
X320950000Y-111035000D03*
%TO.P,J2,29,Pin_29*%
%TO.N,unconnected-(J2-Pin_29-Pad29)*%
X318410000Y-113575000D03*
%TO.P,J2,30,Pin_30*%
%TO.N,unconnected-(J2-Pin_30-Pad30)*%
X318410000Y-111035000D03*
%TO.P,J2,31,Pin_31*%
%TO.N,unconnected-(J2-Pin_31-Pad31)*%
X315870000Y-113575000D03*
%TO.P,J2,32,Pin_32*%
%TO.N,unconnected-(J2-Pin_32-Pad32)*%
X315870000Y-111035000D03*
%TO.P,J2,33,Pin_33*%
%TO.N,unconnected-(J2-Pin_33-Pad33)*%
X313330000Y-113575000D03*
%TO.P,J2,34,Pin_34*%
%TO.N,unconnected-(J2-Pin_34-Pad34)*%
X313330000Y-111035000D03*
%TO.P,J2,35,Pin_35*%
%TO.N,unconnected-(J2-Pin_35-Pad35)*%
X310790000Y-113575000D03*
%TO.P,J2,36,Pin_36*%
%TO.N,unconnected-(J2-Pin_36-Pad36)*%
X310790000Y-111035000D03*
%TO.P,J2,37,Pin_37*%
%TO.N,unconnected-(J2-Pin_37-Pad37)*%
X308250000Y-113575000D03*
%TO.P,J2,38,Pin_38*%
%TO.N,unconnected-(J2-Pin_38-Pad38)*%
X308250000Y-111035000D03*
%TO.P,J2,39,Pin_39*%
%TO.N,unconnected-(J2-Pin_39-Pad39)*%
X305710000Y-113575000D03*
%TO.P,J2,40,Pin_40*%
%TO.N,unconnected-(J2-Pin_40-Pad40)*%
X305710000Y-111035000D03*
%TD*%
D20*
%TO.N,Net-(D61-K)*%
X350637300Y-148457900D03*
X350894500Y-168922500D03*
%TO.N,Net-(D56-K)*%
X344100800Y-121605900D03*
X352507800Y-162445600D03*
%TO.N,Net-(D54-K)*%
X288539100Y-123997500D03*
X313564700Y-176709600D03*
%TO.N,Net-(D50-K)*%
X308409000Y-152690900D03*
X308822700Y-132982500D03*
%TO.N,Net-(D46-K)*%
X270800400Y-165927500D03*
X271670900Y-174938900D03*
%TO.N,Net-(D45-K)*%
X274640600Y-168974900D03*
X276316800Y-132305700D03*
%TO.N,Net-(D44-K)*%
X271121200Y-129726900D03*
X270585500Y-121412500D03*
%TO.N,Net-(D42-K)*%
X267814000Y-150719200D03*
X265090900Y-115275800D03*
%TO.N,Net-(D39-K)*%
X252541200Y-164479000D03*
X255968900Y-177907500D03*
%TO.N,Net-(D38-K)*%
X231816500Y-163589300D03*
X237950000Y-115012500D03*
%TO.N,Net-(D37-K)*%
X249895600Y-156942500D03*
X247808200Y-133881200D03*
%TO.N,Net-(D36-K)*%
X247201800Y-132982500D03*
X247014000Y-162932500D03*
%TO.N,Net-(D32-K)*%
X211072400Y-150952500D03*
X226004400Y-177907500D03*
%TO.N,Net-(D30-K)*%
X211893700Y-150091200D03*
X214616500Y-114716800D03*
%TO.N,Net-(D27-K)*%
X183450800Y-138972500D03*
X184194800Y-112652700D03*
%TO.N,Net-(D26-K)*%
X179689600Y-136575900D03*
X178222000Y-157095000D03*
%TO.N,Net-(D24-K)*%
X174125800Y-174006900D03*
X160303600Y-148730100D03*
%TO.N,Net-(D23-K)*%
X162610600Y-115954800D03*
X157006700Y-148730100D03*
%TO.N,Net-(D20-K)*%
X139398800Y-117569400D03*
X142582300Y-133461300D03*
%TO.N,Net-(D19-K)*%
X118998300Y-132128600D03*
X122042900Y-119035900D03*
%TO.N,Net-(D16-K)*%
X148358000Y-138972500D03*
X148358000Y-156942500D03*
%TO.N,Net-(D11-K)*%
X91616400Y-174912500D03*
X89137200Y-156942500D03*
%TO.N,Net-(D10-K)*%
X103613400Y-120750400D03*
X112745300Y-174912500D03*
%TO.N,Net-(D8-K)*%
X59940300Y-121862800D03*
X61840300Y-178615600D03*
%TO.N,Net-(D6-K)*%
X84987200Y-132982500D03*
X84654900Y-141322800D03*
%TO.N,Net-(D5-K)*%
X82657200Y-153947500D03*
X89517200Y-141227100D03*
%TO.N,Net-(D2-K)*%
X63497800Y-151312700D03*
X59392400Y-163003100D03*
%TO.N,Net-(D1-K)*%
X59108900Y-128617800D03*
X55355100Y-159937500D03*
%TO.N,Net-(J2-Pin_16)*%
X87080400Y-162221700D03*
X325111600Y-163647900D03*
%TO.N,Net-(J2-Pin_8)*%
X211072400Y-141967500D03*
X336058100Y-140635300D03*
X338231800Y-116360100D03*
X343416500Y-115237900D03*
%TO.N,Net-(J2-Pin_4)*%
X349821000Y-121001400D03*
%TO.N,Net-(J2-Pin_13)*%
X357406000Y-112017500D03*
%TO.N,Net-(J2-Pin_11)*%
X333799400Y-115003600D03*
X334290100Y-135977500D03*
%TO.N,Net-(J2-Pin_22)*%
X237950000Y-144113700D03*
X332685900Y-141967500D03*
%TO.N,Net-(J2-Pin_7)*%
X346139900Y-116826800D03*
X348378700Y-117122300D03*
X349499800Y-122715500D03*
X202113200Y-127691100D03*
%TO.N,Net-(J2-Pin_18)*%
X333660200Y-150053700D03*
%TO.N,Net-(J2-Pin_1)*%
X86361000Y-122377700D03*
%TO.N,Net-(J2-Pin_20)*%
X217045200Y-110640800D03*
%TO.N,Net-(J2-Pin_2)*%
X85643600Y-109077500D03*
%TO.N,Net-(J2-Pin_23)*%
X246909200Y-165936500D03*
X318582800Y-165927500D03*
%TO.N,Net-(J2-Pin_26)*%
X332400400Y-155823800D03*
%TO.N,Net-(J2-Pin_21)*%
X331763100Y-138972500D03*
%TO.N,Net-(J2-Pin_9)*%
X190167600Y-117689100D03*
%TO.N,Net-(J2-Pin_12)*%
X308822700Y-129479800D03*
%TO.N,Net-(J2-Pin_3)*%
X67673800Y-120861600D03*
%TO.N,Net-(J2-Pin_10)*%
X270889300Y-110742300D03*
%TO.N,Net-(J2-Pin_6)*%
X160303600Y-109898700D03*
%TO.N,Net-(J2-Pin_5)*%
X344782900Y-116826800D03*
X171816400Y-120679400D03*
%TO.N,Net-(J2-Pin_17)*%
X83066300Y-147563900D03*
X334290100Y-144962500D03*
%TO.N,Net-(J2-Pin_19)*%
X131504000Y-110961700D03*
%TO.N,+12V*%
X73698000Y-118007500D03*
X61752400Y-141967500D03*
X61752400Y-126992500D03*
X256781400Y-150719200D03*
X365887700Y-154425000D03*
X370215500Y-138972500D03*
X271558800Y-171830500D03*
X327542000Y-150952500D03*
X324580800Y-123708900D03*
X160303600Y-124284000D03*
X158489300Y-155770400D03*
X72972400Y-127996600D03*
X169262800Y-117462400D03*
X258854800Y-123997500D03*
%TO.N,GND*%
X354050000Y-168922500D03*
X267681500Y-157075000D03*
X112521200Y-132982500D03*
X178568600Y-112306100D03*
X173246200Y-150011100D03*
X68860000Y-153947500D03*
X267937500Y-171917500D03*
X68672200Y-168922500D03*
X173076700Y-124171500D03*
X342474000Y-124342700D03*
X273338200Y-115286000D03*
%TD*%
D21*
%TO.N,Net-(D61-K)*%
X352032900Y-148457900D02*
X352350000Y-148775000D01*
X350637300Y-148457900D02*
X352032900Y-148457900D01*
X352477500Y-168922500D02*
X352500000Y-168900000D01*
X350894500Y-168922500D02*
X352477500Y-168922500D01*
%TO.N,Net-(D60-K)*%
X345975000Y-140250000D02*
X337975000Y-140250000D01*
X354500000Y-148775000D02*
X345975000Y-140250000D01*
%TO.N,Net-(D59-K)*%
X365610000Y-138100000D02*
X366385000Y-138875000D01*
X337975000Y-138100000D02*
X365610000Y-138100000D01*
%TO.N,Net-(D58-K)*%
X357493100Y-120475000D02*
X362725000Y-120475000D01*
X351343100Y-126625000D02*
X357493100Y-120475000D01*
X351150000Y-126625000D02*
X351343100Y-126625000D01*
%TO.N,Net-(D57-K)*%
X363149500Y-118749500D02*
X364875000Y-120475000D01*
X341753800Y-118749500D02*
X363149500Y-118749500D01*
X340625000Y-119878300D02*
X341753800Y-118749500D01*
X340625000Y-120225000D02*
X340625000Y-119878300D01*
%TO.N,Net-(D56-K)*%
X366745600Y-162445600D02*
X367375000Y-163075000D01*
X352507800Y-162445600D02*
X366745600Y-162445600D01*
X342775000Y-120280100D02*
X342775000Y-120225000D01*
X344100800Y-121605900D02*
X342775000Y-120280100D01*
%TO.N,Net-(D55-K)*%
X354207100Y-176582100D02*
X352925000Y-175300000D01*
X360892900Y-176582100D02*
X354207100Y-176582100D01*
X362025000Y-175450000D02*
X360892900Y-176582100D01*
%TO.N,Net-(D54-K)*%
X362391700Y-177233300D02*
X364175000Y-175450000D01*
X314088400Y-177233300D02*
X362391700Y-177233300D01*
X313564700Y-176709600D02*
X314088400Y-177233300D01*
X289172500Y-123997500D02*
X290400000Y-125225000D01*
X288539100Y-123997500D02*
X289172500Y-123997500D01*
%TO.N,Net-(D53-K)*%
X292550000Y-125225000D02*
X319625000Y-125225000D01*
%TO.N,Net-(D52-K)*%
X328175000Y-132175000D02*
X328175000Y-125075000D01*
X328350000Y-132350000D02*
X328175000Y-132175000D01*
%TO.N,Net-(D51-K)*%
X328984400Y-133865600D02*
X330500000Y-132350000D01*
X325346900Y-133865600D02*
X328984400Y-133865600D01*
X322151000Y-130669700D02*
X325346900Y-133865600D01*
X305905100Y-130669700D02*
X322151000Y-130669700D01*
X304825000Y-131749800D02*
X305905100Y-130669700D01*
X304825000Y-132150000D02*
X304825000Y-131749800D01*
%TO.N,Net-(D50-K)*%
X310143100Y-154425000D02*
X308409000Y-152690900D01*
X338850000Y-154425000D02*
X310143100Y-154425000D01*
X307807500Y-132982500D02*
X306975000Y-132150000D01*
X308822700Y-132982500D02*
X307807500Y-132982500D01*
%TO.N,Net-(D49-K)*%
X338675000Y-163025000D02*
X338675000Y-172600000D01*
%TO.N,Net-(D48-K)*%
X339032300Y-174392700D02*
X340825000Y-172600000D01*
X311177100Y-174392700D02*
X339032300Y-174392700D01*
X309825000Y-175744800D02*
X311177100Y-174392700D01*
X309825000Y-176150000D02*
X309825000Y-175744800D01*
%TO.N,Net-(D47-K)*%
X286300000Y-176535200D02*
X286300000Y-176150000D01*
X287394900Y-177630100D02*
X286300000Y-176535200D01*
X310494900Y-177630100D02*
X287394900Y-177630100D01*
X311975000Y-176150000D02*
X310494900Y-177630100D01*
%TO.N,Net-(D46-K)*%
X270800400Y-168499600D02*
X270800400Y-165927500D01*
X270800000Y-168500000D02*
X270800400Y-168499600D01*
X270788900Y-174938900D02*
X270450000Y-174600000D01*
X271670900Y-174938900D02*
X270788900Y-174938900D01*
%TO.N,Net-(D45-K)*%
X273424900Y-168974900D02*
X272950000Y-168500000D01*
X274640600Y-168974900D02*
X273424900Y-168974900D01*
X276647500Y-131975000D02*
X276316800Y-132305700D01*
X277575000Y-131975000D02*
X276647500Y-131975000D01*
X276316800Y-132305700D02*
X276482200Y-132140300D01*
X276482200Y-132140300D02*
X276316800Y-132305700D01*
X274640600Y-168974900D02*
X276316800Y-168974900D01*
X276316800Y-168974900D02*
X274640600Y-168974900D01*
%TO.N,Net-(D44-K)*%
X277476900Y-129726900D02*
X271121200Y-129726900D01*
X279725000Y-131975000D02*
X277476900Y-129726900D01*
X271037500Y-121412500D02*
X271700000Y-120750000D01*
X270585500Y-121412500D02*
X271037500Y-121412500D01*
%TO.N,Net-(D43-K)*%
X270335100Y-114310100D02*
X271400000Y-115375000D01*
X260288700Y-114310100D02*
X270335100Y-114310100D01*
X259225000Y-115373800D02*
X260288700Y-114310100D01*
X259225000Y-115775000D02*
X259225000Y-115373800D01*
%TO.N,Net-(D42-K)*%
X267833200Y-150700000D02*
X267814000Y-150719200D01*
X270275000Y-150700000D02*
X267833200Y-150700000D01*
X261874200Y-115275800D02*
X261375000Y-115775000D01*
X265090900Y-115275800D02*
X261874200Y-115275800D01*
%TO.N,Net-(D41-K)*%
X270770600Y-149045600D02*
X272425000Y-150700000D01*
X254076900Y-149045600D02*
X270770600Y-149045600D01*
X253000000Y-150122500D02*
X254076900Y-149045600D01*
X253000000Y-150500000D02*
X253000000Y-150122500D01*
%TO.N,Net-(D40-K)*%
X251375000Y-170675000D02*
X251375000Y-176700000D01*
X251200000Y-170500000D02*
X251375000Y-170675000D01*
%TO.N,Net-(D39-K)*%
X254732500Y-177907500D02*
X253525000Y-176700000D01*
X255968900Y-177907500D02*
X254732500Y-177907500D01*
X242091300Y-164479000D02*
X252541200Y-164479000D01*
X240892400Y-165677900D02*
X242091300Y-164479000D01*
X228928300Y-165677900D02*
X240892400Y-165677900D01*
X227875000Y-164624600D02*
X228928300Y-165677900D01*
X227875000Y-164225000D02*
X227875000Y-164624600D01*
%TO.N,Net-(D38-K)*%
X231180800Y-164225000D02*
X231816500Y-163589300D01*
X230025000Y-164225000D02*
X231180800Y-164225000D01*
X237987500Y-115050000D02*
X237950000Y-115012500D01*
X243375000Y-115050000D02*
X237987500Y-115050000D01*
%TO.N,Net-(D37-K)*%
X250028100Y-157075000D02*
X249895600Y-156942500D01*
X252625000Y-157075000D02*
X250028100Y-157075000D01*
X247439400Y-134250000D02*
X244950000Y-134250000D01*
X247808200Y-133881200D02*
X247439400Y-134250000D01*
%TO.N,Net-(D36-K)*%
X246319300Y-132100000D02*
X247201800Y-132982500D01*
X244950000Y-132100000D02*
X246319300Y-132100000D01*
X245332500Y-162932500D02*
X244575000Y-162175000D01*
X247014000Y-162932500D02*
X245332500Y-162932500D01*
%TO.N,Net-(D35-K)*%
X236975000Y-152425000D02*
X244575000Y-160025000D01*
X236975000Y-150300000D02*
X236975000Y-152425000D01*
%TO.N,Net-(D34-K)*%
X213268500Y-166518500D02*
X214625000Y-167875000D01*
X207777800Y-166518500D02*
X213268500Y-166518500D01*
X206700000Y-167596300D02*
X207777800Y-166518500D01*
X206700000Y-168000000D02*
X206700000Y-167596300D01*
%TO.N,Net-(D33-K)*%
X217711800Y-176861800D02*
X208850000Y-168000000D01*
X220321900Y-176861800D02*
X217711800Y-176861800D01*
X220321900Y-176861900D02*
X220321900Y-176861800D01*
X220485000Y-177025000D02*
X220321900Y-176861900D01*
%TO.N,Net-(D32-K)*%
X212822500Y-150952500D02*
X213125000Y-150650000D01*
X211072400Y-150952500D02*
X212822500Y-150952500D01*
X223517500Y-177907500D02*
X222635000Y-177025000D01*
X226004400Y-177907500D02*
X223517500Y-177907500D01*
%TO.N,Net-(D31-K)*%
X172950000Y-151050000D02*
X171500000Y-149600000D01*
X188525000Y-151050000D02*
X172950000Y-151050000D01*
%TO.N,Net-(D30-K)*%
X191633800Y-150091200D02*
X211893700Y-150091200D01*
X190675000Y-151050000D02*
X191633800Y-150091200D01*
X214933300Y-114400000D02*
X214616500Y-114716800D01*
X223450000Y-114400000D02*
X214933300Y-114400000D01*
%TO.N,Net-(D29-K)*%
X201250000Y-113875900D02*
X201250000Y-114275000D01*
X202372100Y-112753800D02*
X201250000Y-113875900D01*
X223953800Y-112753800D02*
X202372100Y-112753800D01*
X225600000Y-114400000D02*
X223953800Y-112753800D01*
%TO.N,Net-(D28-K)*%
X188175000Y-115225000D02*
X189200000Y-114200000D01*
X181475000Y-115225000D02*
X188175000Y-115225000D01*
%TO.N,Net-(D27-K)*%
X182723300Y-139700000D02*
X181300000Y-139700000D01*
X183450800Y-138972500D02*
X182723300Y-139700000D01*
X181897300Y-112652700D02*
X181475000Y-113075000D01*
X184194800Y-112652700D02*
X181897300Y-112652700D01*
%TO.N,Net-(D26-K)*%
X175955000Y-157095000D02*
X175450000Y-157600000D01*
X178222000Y-157095000D02*
X175955000Y-157095000D01*
X180325900Y-136575900D02*
X181300000Y-137550000D01*
X179689600Y-136575900D02*
X180325900Y-136575900D01*
%TO.N,Net-(D25-K)*%
X171500000Y-169900000D02*
X171500000Y-175650000D01*
X171150000Y-169550000D02*
X171500000Y-169900000D01*
%TO.N,Net-(D24-K)*%
X174125800Y-175174200D02*
X174125800Y-174006900D01*
X173650000Y-175650000D02*
X174125800Y-175174200D01*
X162780100Y-148730100D02*
X163325000Y-149275000D01*
X160303600Y-148730100D02*
X162780100Y-148730100D01*
%TO.N,Net-(D23-K)*%
X163579800Y-115954800D02*
X163975000Y-116350000D01*
X162610600Y-115954800D02*
X163579800Y-115954800D01*
X159278800Y-148730100D02*
X157006700Y-148730100D01*
X160203600Y-147805300D02*
X159278800Y-148730100D01*
X164005300Y-147805300D02*
X160203600Y-147805300D01*
X165475000Y-149275000D02*
X164005300Y-147805300D01*
%TO.N,Net-(D22-K)*%
X146422300Y-125577700D02*
X147650000Y-124350000D01*
X140827700Y-125577700D02*
X146422300Y-125577700D01*
X139550000Y-124300000D02*
X140827700Y-125577700D01*
%TO.N,Net-(D21-K)*%
X144067700Y-132242700D02*
X145500000Y-133675000D01*
X139188700Y-132242700D02*
X144067700Y-132242700D01*
X138085000Y-133346400D02*
X139188700Y-132242700D01*
X138085000Y-133750000D02*
X138085000Y-133346400D01*
%TO.N,Net-(D20-K)*%
X119478000Y-117569400D02*
X139398800Y-117569400D01*
X117985000Y-119062400D02*
X119478000Y-117569400D01*
X117985000Y-119500000D02*
X117985000Y-119062400D01*
X140523700Y-133461300D02*
X140235000Y-133750000D01*
X142582300Y-133461300D02*
X140523700Y-133461300D01*
%TO.N,Net-(D19-K)*%
X118210000Y-132916900D02*
X118998300Y-132128600D01*
X118210000Y-133750000D02*
X118210000Y-132916900D01*
X120599100Y-119035900D02*
X120135000Y-119500000D01*
X122042900Y-119035900D02*
X120599100Y-119035900D01*
%TO.N,Net-(D18-K)*%
X105695100Y-132245100D02*
X106900000Y-133450000D01*
X98845400Y-132245100D02*
X105695100Y-132245100D01*
X97675000Y-133415500D02*
X98845400Y-132245100D01*
X97675000Y-133750000D02*
X97675000Y-133415500D01*
%TO.N,Net-(D17-K)*%
X109925000Y-143850000D02*
X150500000Y-143850000D01*
X99825000Y-133750000D02*
X109925000Y-143850000D01*
%TO.N,Net-(D16-K)*%
X148358000Y-139558000D02*
X148358000Y-138972500D01*
X150500000Y-141700000D02*
X148358000Y-139558000D01*
X150642500Y-156942500D02*
X150975000Y-157275000D01*
X148358000Y-156942500D02*
X150642500Y-156942500D01*
%TO.N,Net-(D15-K)*%
X150650000Y-166525000D02*
X150650000Y-173125000D01*
X150725000Y-166450000D02*
X150650000Y-166525000D01*
%TO.N,Net-(D14-K)*%
X148631200Y-177293800D02*
X152800000Y-173125000D01*
X133291300Y-177293800D02*
X148631200Y-177293800D01*
X132200000Y-176202500D02*
X133291300Y-177293800D01*
X132200000Y-175825000D02*
X132200000Y-176202500D01*
%TO.N,Net-(D13-K)*%
X130290800Y-171765800D02*
X134350000Y-175825000D01*
X87806700Y-171765800D02*
X130290800Y-171765800D01*
X86675000Y-172897500D02*
X87806700Y-171765800D01*
X86675000Y-173275000D02*
X86675000Y-172897500D01*
%TO.N,Net-(D12-K)*%
X84950000Y-163475000D02*
X84950000Y-156725000D01*
X84575000Y-163850000D02*
X84950000Y-163475000D01*
%TO.N,Net-(D11-K)*%
X92353900Y-175650000D02*
X91616400Y-174912500D01*
X108275000Y-175650000D02*
X92353900Y-175650000D01*
X87317500Y-156942500D02*
X87100000Y-156725000D01*
X89137200Y-156942500D02*
X87317500Y-156942500D01*
%TO.N,Net-(D10-K)*%
X111162500Y-174912500D02*
X110425000Y-175650000D01*
X112745300Y-174912500D02*
X111162500Y-174912500D01*
X84783400Y-121806300D02*
X84535800Y-122053900D01*
X84783400Y-121806300D02*
X84535800Y-122053900D01*
X80735000Y-120973600D02*
X80735000Y-120600000D01*
X81815300Y-122053900D02*
X80735000Y-120973600D01*
X84535800Y-122053900D02*
X81815300Y-122053900D01*
X85839300Y-120750400D02*
X103613400Y-120750400D01*
X84783400Y-121806300D02*
X85839300Y-120750400D01*
%TO.N,Net-(D9-K)*%
X60235000Y-173090000D02*
X60235000Y-176775000D01*
X64375000Y-168950000D02*
X60235000Y-173090000D01*
%TO.N,Net-(D8-K)*%
X59940300Y-120309700D02*
X59940300Y-121862800D01*
X60075000Y-120175000D02*
X59940300Y-120309700D01*
X61840300Y-177319700D02*
X61840300Y-178615600D01*
X62385000Y-176775000D02*
X61840300Y-177319700D01*
%TO.N,Net-(D7-K)*%
X68450000Y-126400000D02*
X86285000Y-126400000D01*
X62225000Y-120175000D02*
X68450000Y-126400000D01*
%TO.N,Net-(D6-K)*%
X85119700Y-132850000D02*
X84987200Y-132982500D01*
X86475000Y-132850000D02*
X85119700Y-132850000D01*
X85512200Y-141322800D02*
X85710000Y-141125000D01*
X84654900Y-141322800D02*
X85512200Y-141322800D01*
%TO.N,Net-(D5-K)*%
X78925000Y-150215300D02*
X82657200Y-153947500D01*
X78925000Y-149575000D02*
X78925000Y-150215300D01*
X87962100Y-141227100D02*
X87860000Y-141125000D01*
X89517200Y-141227100D02*
X87962100Y-141227100D01*
%TO.N,Net-(D4-K)*%
X75275600Y-143775600D02*
X81075000Y-149575000D01*
X58857000Y-143775600D02*
X75275600Y-143775600D01*
X56560000Y-141478600D02*
X58857000Y-143775600D01*
X56560000Y-141075000D02*
X56560000Y-141478600D01*
%TO.N,Net-(D3-K)*%
X62250000Y-149685000D02*
X62250000Y-155650000D01*
X62635000Y-149300000D02*
X62250000Y-149685000D01*
%TO.N,Net-(D2-K)*%
X63497800Y-150587200D02*
X63497800Y-151312700D01*
X64785000Y-149300000D02*
X63497800Y-150587200D01*
X57803100Y-163003100D02*
X57475000Y-162675000D01*
X59392400Y-163003100D02*
X57803100Y-163003100D01*
%TO.N,Net-(D1-K)*%
X58766100Y-128275000D02*
X59108900Y-128617800D01*
X56925000Y-128275000D02*
X58766100Y-128275000D01*
X56887500Y-159937500D02*
X57475000Y-160525000D01*
X55355100Y-159937500D02*
X56887500Y-159937500D01*
%TO.N,Net-(J2-Pin_16)*%
X324862500Y-163398800D02*
X269547500Y-163398800D01*
X325111600Y-163647900D02*
X324862500Y-163398800D01*
X269547500Y-163398800D02*
X269299900Y-163646400D01*
X269547500Y-163398800D02*
X269299900Y-163646400D01*
X231658900Y-162221700D02*
X87080400Y-162221700D01*
X233083600Y-163646400D02*
X231658900Y-162221700D01*
X269299900Y-163646400D02*
X233083600Y-163646400D01*
%TO.N,Net-(J2-Pin_8)*%
X212404600Y-140635300D02*
X336058100Y-140635300D01*
X211072400Y-141967500D02*
X212404600Y-140635300D01*
X342329200Y-116325200D02*
X343416500Y-115237900D01*
X338266700Y-116325200D02*
X342329200Y-116325200D01*
X338231800Y-116360100D02*
X338266700Y-116325200D01*
%TO.N,Net-(J2-Pin_4)*%
X171925000Y-129325000D02*
X173076700Y-129325000D01*
X175709400Y-126692300D02*
X173076700Y-129325000D01*
X323191200Y-126692300D02*
X175709400Y-126692300D01*
X326992900Y-122890600D02*
X323191200Y-126692300D01*
X347931800Y-122890600D02*
X326992900Y-122890600D01*
X349821000Y-121001400D02*
X347931800Y-122890600D01*
%TO.N,Net-(J2-Pin_13)*%
X357118500Y-112305000D02*
X357406000Y-112017500D01*
X340081000Y-112305000D02*
X357118500Y-112305000D01*
X338811000Y-113575000D02*
X340081000Y-112305000D01*
X338730000Y-113575000D02*
X338811000Y-113575000D01*
%TO.N,Net-(J2-Pin_11)*%
X339841400Y-115003600D02*
X341270000Y-113575000D01*
X333799400Y-115003600D02*
X339841400Y-115003600D01*
X269350000Y-134405000D02*
X270501700Y-134405000D01*
X272074200Y-135977500D02*
X270501700Y-134405000D01*
X334290100Y-135977500D02*
X272074200Y-135977500D01*
%TO.N,Net-(J2-Pin_22)*%
X330539700Y-144113700D02*
X332685900Y-141967500D01*
X237950000Y-144113700D02*
X330539700Y-144113700D01*
%TO.N,Net-(J2-Pin_7)*%
X348083200Y-116826800D02*
X346139900Y-116826800D01*
X348378700Y-117122300D02*
X348083200Y-116826800D01*
X323552200Y-127691100D02*
X202113200Y-127691100D01*
X327751000Y-123492300D02*
X323552200Y-127691100D01*
X348723000Y-123492300D02*
X327751000Y-123492300D01*
X349499800Y-122715500D02*
X348723000Y-123492300D01*
%TO.N,Net-(J2-Pin_18)*%
X159301700Y-147556200D02*
X159054100Y-147803800D01*
X159301700Y-147556200D02*
X159054100Y-147803800D01*
X123271200Y-147803800D02*
X159054100Y-147803800D01*
X119275000Y-151800000D02*
X123271200Y-147803800D01*
X330810100Y-147203600D02*
X333660200Y-150053700D01*
X159654300Y-147203600D02*
X330810100Y-147203600D01*
X159301700Y-147556200D02*
X159654300Y-147203600D01*
%TO.N,Net-(J2-Pin_1)*%
X353970000Y-113575000D02*
X352718300Y-113575000D01*
X316157500Y-119011200D02*
X315909900Y-119258800D01*
X316157500Y-119011200D02*
X315909900Y-119258800D01*
X325593700Y-118409500D02*
X325346100Y-118657100D01*
X325593700Y-118409500D02*
X325346100Y-118657100D01*
X316510100Y-118658600D02*
X316157500Y-119011200D01*
X325344600Y-118658600D02*
X316510100Y-118658600D01*
X325346100Y-118657100D02*
X325344600Y-118658600D01*
X86684800Y-122053900D02*
X86361000Y-122377700D01*
X268006200Y-122053900D02*
X86684800Y-122053900D01*
X270801300Y-119258800D02*
X268006200Y-122053900D01*
X315909900Y-119258800D02*
X270801300Y-119258800D01*
X352718300Y-114122600D02*
X352718300Y-113575000D01*
X348710600Y-118130300D02*
X352718300Y-114122600D01*
X339651800Y-118130300D02*
X348710600Y-118130300D01*
X339372600Y-118409500D02*
X339651800Y-118130300D01*
X325593700Y-118409500D02*
X339372600Y-118409500D01*
%TO.N,Net-(J2-Pin_20)*%
X217954300Y-109731700D02*
X217045200Y-110640800D01*
X329806700Y-109731700D02*
X217954300Y-109731700D01*
X331110000Y-111035000D02*
X329806700Y-109731700D01*
%TO.N,Net-(J2-Pin_2)*%
X210423100Y-108475800D02*
X210070500Y-108828400D01*
X351410800Y-108475800D02*
X210423100Y-108475800D01*
X353970000Y-111035000D02*
X351410800Y-108475800D01*
X209821400Y-109077500D02*
X85643600Y-109077500D01*
X210070500Y-108828400D02*
X209821400Y-109077500D01*
X210070500Y-108828400D02*
X209821400Y-109077500D01*
%TO.N,Net-(J2-Pin_23)*%
X247651400Y-165194300D02*
X246909200Y-165936500D01*
X246909200Y-165936500D02*
X247651400Y-165194300D01*
X246909200Y-165936500D02*
X247651400Y-165194300D01*
X317849600Y-165194300D02*
X318582800Y-165927500D01*
X247651400Y-165194300D02*
X317849600Y-165194300D01*
%TO.N,Net-(J2-Pin_26)*%
X334536600Y-157960000D02*
X332400400Y-155823800D01*
X350660000Y-157960000D02*
X334536600Y-157960000D01*
X353500000Y-160800000D02*
X350660000Y-157960000D01*
%TO.N,Net-(J2-Pin_21)*%
X220162500Y-138972500D02*
X331763100Y-138972500D01*
X216065000Y-134875000D02*
X220162500Y-138972500D01*
%TO.N,Net-(J2-Pin_9)*%
X331638900Y-115963300D02*
X331886500Y-115715700D01*
X331638900Y-115963300D02*
X331886500Y-115715700D01*
X340697200Y-115465100D02*
X340535000Y-115627300D01*
X340697200Y-115465100D02*
X340535000Y-115627300D01*
X262500500Y-117689100D02*
X190167600Y-117689100D01*
X263497500Y-116692100D02*
X262500500Y-117689100D01*
X314470200Y-116692100D02*
X263497500Y-116692100D01*
X315110600Y-116051700D02*
X314470200Y-116692100D01*
X331550500Y-116051700D02*
X315110600Y-116051700D01*
X331638900Y-115963300D02*
X331550500Y-116051700D01*
X337884000Y-115715700D02*
X331886500Y-115715700D01*
X337972400Y-115627300D02*
X337884000Y-115715700D01*
X340535000Y-115627300D02*
X337972400Y-115627300D01*
X341919900Y-115465100D02*
X340697200Y-115465100D01*
X343810000Y-113575000D02*
X341919900Y-115465100D01*
%TO.N,Net-(J2-Pin_12)*%
X284997800Y-129479800D02*
X308822700Y-129479800D01*
X281026300Y-133451300D02*
X284997800Y-129479800D01*
X276373400Y-133451300D02*
X281026300Y-133451300D01*
X276160700Y-133238600D02*
X276373400Y-133451300D01*
X255388100Y-133238600D02*
X276160700Y-133238600D01*
X254801700Y-133825000D02*
X255388100Y-133238600D01*
X253650000Y-133825000D02*
X254801700Y-133825000D01*
%TO.N,Net-(J2-Pin_3)*%
X219029700Y-118365800D02*
X218837300Y-118558200D01*
X219029700Y-118365800D02*
X218837300Y-118558200D01*
X69467800Y-122655600D02*
X67673800Y-120861600D01*
X85000400Y-122655600D02*
X69467800Y-122655600D01*
X86203800Y-121452200D02*
X85000400Y-122655600D01*
X138022700Y-121452200D02*
X86203800Y-121452200D01*
X140916700Y-118558200D02*
X138022700Y-121452200D01*
X218837300Y-118558200D02*
X140916700Y-118558200D01*
X266911600Y-118341600D02*
X266888900Y-118364300D01*
X266911600Y-118341600D02*
X266888900Y-118364300D01*
X219031200Y-118364300D02*
X219029700Y-118365800D01*
X266888900Y-118364300D02*
X219031200Y-118364300D01*
X342625200Y-116926900D02*
X342977800Y-116574300D01*
X339153600Y-116926900D02*
X342625200Y-116926900D01*
X338948300Y-117132200D02*
X339153600Y-116926900D01*
X315453400Y-117132200D02*
X338948300Y-117132200D01*
X315291800Y-117293800D02*
X315453400Y-117132200D01*
X267959400Y-117293800D02*
X315291800Y-117293800D01*
X266911600Y-118341600D02*
X267959400Y-117293800D01*
X348879900Y-116125100D02*
X351430000Y-113575000D01*
X343427000Y-116125100D02*
X348879900Y-116125100D01*
X343226900Y-116325200D02*
X343427000Y-116125100D01*
X342977800Y-116574300D02*
X343226900Y-116325200D01*
X342977800Y-116574300D02*
X343226900Y-116325200D01*
%TO.N,Net-(J2-Pin_10)*%
X302897100Y-110742300D02*
X270889300Y-110742300D01*
X304441500Y-112286700D02*
X302897100Y-110742300D01*
X339248500Y-112286700D02*
X304441500Y-112286700D01*
X340000000Y-111535200D02*
X339248500Y-112286700D01*
X340000000Y-110498300D02*
X340000000Y-111535200D01*
X340741400Y-109756900D02*
X340000000Y-110498300D01*
X342531900Y-109756900D02*
X340741400Y-109756900D01*
X343810000Y-111035000D02*
X342531900Y-109756900D01*
%TO.N,Net-(J2-Pin_6)*%
X210151200Y-109898700D02*
X160303600Y-109898700D01*
X210922600Y-109127300D02*
X210151200Y-109898700D01*
X346982300Y-109127300D02*
X210922600Y-109127300D01*
X348890000Y-111035000D02*
X346982300Y-109127300D01*
%TO.N,Net-(J2-Pin_5)*%
X315908400Y-118409500D02*
X315660800Y-118657100D01*
X315908400Y-118409500D02*
X315660800Y-118657100D01*
X344782900Y-116842700D02*
X344782900Y-116826800D01*
X344781300Y-116844300D02*
X344782900Y-116842700D01*
X267679100Y-120679400D02*
X171816400Y-120679400D01*
X269701400Y-118657100D02*
X267679100Y-120679400D01*
X315660800Y-118657100D02*
X269701400Y-118657100D01*
X342874300Y-117528600D02*
X343226900Y-117176000D01*
X339402700Y-117528600D02*
X342874300Y-117528600D01*
X339197400Y-117733900D02*
X339402700Y-117528600D01*
X316584000Y-117733900D02*
X339197400Y-117733900D01*
X315908400Y-118409500D02*
X316584000Y-117733900D01*
X344698700Y-116926900D02*
X344781300Y-116844300D01*
X343476000Y-116926900D02*
X344698700Y-116926900D01*
X343226900Y-117176000D02*
X343476000Y-116926900D01*
X343226900Y-117176000D02*
X343476000Y-116926900D01*
%TO.N,Net-(J2-Pin_17)*%
X85667700Y-144962500D02*
X334290100Y-144962500D01*
X83066300Y-147563900D02*
X85667700Y-144962500D01*
%TO.N,Net-(J2-Pin_19)*%
X329251900Y-115433100D02*
X331110000Y-113575000D01*
X305826800Y-115433100D02*
X329251900Y-115433100D01*
X305577700Y-115682200D02*
X305826800Y-115433100D01*
X305577700Y-115682200D02*
X305826800Y-115433100D01*
X301428300Y-111532800D02*
X305577700Y-115682200D01*
X270509800Y-111532800D02*
X301428300Y-111532800D01*
X270319500Y-111342500D02*
X270509800Y-111532800D01*
X210781900Y-111342500D02*
X270319500Y-111342500D01*
X210401100Y-110961700D02*
X210781900Y-111342500D01*
X131504000Y-110961700D02*
X210401100Y-110961700D01*
D22*
%TO.N,+12V*%
X80356300Y-118007500D02*
X73698000Y-118007500D01*
X82885000Y-120536200D02*
X80356300Y-118007500D01*
X82885000Y-120600000D02*
X82885000Y-120536200D01*
X60859900Y-141075000D02*
X61752400Y-141967500D01*
X58710000Y-141075000D02*
X60859900Y-141075000D01*
X57792500Y-126992500D02*
X56925000Y-126125000D01*
X61752400Y-126992500D02*
X57792500Y-126992500D01*
X74436700Y-176298300D02*
X72435000Y-178300000D01*
X85875000Y-176298300D02*
X74436700Y-176298300D01*
X88825000Y-173348300D02*
X85875000Y-176298300D01*
X88825000Y-173275000D02*
X88825000Y-173348300D01*
X368632500Y-138972500D02*
X368535000Y-138875000D01*
X370215500Y-138972500D02*
X368632500Y-138972500D01*
X365887700Y-159437700D02*
X367375000Y-160925000D01*
X365887700Y-154425000D02*
X365887700Y-159437700D01*
X217250000Y-148675000D02*
X215275000Y-150650000D01*
X237598800Y-148675000D02*
X217250000Y-148675000D01*
X239125000Y-150201200D02*
X237598800Y-148675000D01*
X239125000Y-150300000D02*
X239125000Y-150201200D01*
X253707300Y-152052300D02*
X255204800Y-150554800D01*
X240877300Y-152052300D02*
X253707300Y-152052300D01*
X239125000Y-150300000D02*
X240877300Y-152052300D01*
X255369200Y-150719200D02*
X255204800Y-150554800D01*
X256781400Y-150719200D02*
X255369200Y-150719200D01*
X255204800Y-150554800D02*
X255150000Y-150500000D01*
X203400000Y-115960900D02*
X203400000Y-114275000D01*
X284194300Y-171830500D02*
X271558800Y-171830500D01*
X288450000Y-176086200D02*
X284194300Y-171830500D01*
X288450000Y-176150000D02*
X288450000Y-176086200D01*
X341000000Y-154425000D02*
X365887700Y-154425000D01*
X323291100Y-123708900D02*
X321775000Y-125225000D01*
X324580800Y-123708900D02*
X323291100Y-123708900D01*
X337610200Y-150952500D02*
X327542000Y-150952500D01*
X341000000Y-154342300D02*
X337610200Y-150952500D01*
X341000000Y-154425000D02*
X341000000Y-154342300D01*
X123298200Y-129355600D02*
X120360000Y-132293800D01*
X144870200Y-129355600D02*
X123298200Y-129355600D01*
X149800000Y-124425800D02*
X144870200Y-129355600D01*
X149800000Y-124350000D02*
X149800000Y-124425800D01*
X120360000Y-133750000D02*
X120360000Y-132293800D01*
X114466200Y-126400000D02*
X88435000Y-126400000D01*
X120360000Y-132293800D02*
X114466200Y-126400000D01*
X215275000Y-150744900D02*
X215275000Y-150650000D01*
X210569900Y-155450000D02*
X215275000Y-150744900D01*
X175450000Y-155450000D02*
X210569900Y-155450000D01*
X203010900Y-116350000D02*
X166125000Y-116350000D01*
X203400000Y-115960900D02*
X203010900Y-116350000D01*
X149866000Y-124284000D02*
X149800000Y-124350000D01*
X160303600Y-124284000D02*
X149866000Y-124284000D01*
X154629600Y-155770400D02*
X158489300Y-155770400D01*
X153125000Y-157275000D02*
X154629600Y-155770400D01*
X158809700Y-155450000D02*
X158489300Y-155770400D01*
X175450000Y-155450000D02*
X158809700Y-155450000D01*
X235664800Y-112900000D02*
X243375000Y-112900000D01*
X232603900Y-115960900D02*
X235664800Y-112900000D01*
X203400000Y-115960900D02*
X232603900Y-115960900D01*
X62756500Y-127996600D02*
X61752400Y-126992500D01*
X72972400Y-127996600D02*
X62756500Y-127996600D01*
X86959300Y-127996600D02*
X72972400Y-127996600D01*
X88435000Y-126520900D02*
X86959300Y-127996600D01*
X88435000Y-126400000D02*
X88435000Y-126520900D01*
X167237400Y-117462400D02*
X166125000Y-116350000D01*
X169262800Y-117462400D02*
X167237400Y-117462400D01*
X270678100Y-123997500D02*
X273887800Y-120787800D01*
X258854800Y-123997500D02*
X270678100Y-123997500D01*
X273850000Y-120750000D02*
X273887800Y-120787800D01*
X321775000Y-125141600D02*
X321775000Y-125225000D01*
X317421200Y-120787800D02*
X321775000Y-125141600D01*
X273887800Y-120787800D02*
X317421200Y-120787800D01*
D21*
%TO.N,GND*%
X181508300Y-169550000D02*
X183248300Y-171290000D01*
X174250000Y-169550000D02*
X181508300Y-169550000D01*
X184400000Y-171290000D02*
X183248300Y-171290000D01*
X356025000Y-169347500D02*
X355600000Y-168922500D01*
X356025000Y-175300000D02*
X356025000Y-169347500D01*
X355600000Y-168922500D02*
X354050000Y-168922500D01*
X355600000Y-168922500D02*
X355600000Y-168900000D01*
X171925000Y-136945000D02*
X170773300Y-136945000D01*
X359148300Y-131523300D02*
X359148300Y-131795000D01*
X354250000Y-126625000D02*
X359148300Y-131523300D01*
X360300000Y-131795000D02*
X359148300Y-131795000D01*
X171150000Y-166450000D02*
X174250000Y-169550000D01*
X153825000Y-166450000D02*
X171150000Y-166450000D01*
X170193300Y-136365000D02*
X170773300Y-136945000D01*
X156225000Y-136365000D02*
X170193300Y-136365000D01*
X346331700Y-136875000D02*
X345751700Y-136295000D01*
X360300000Y-136875000D02*
X346331700Y-136875000D01*
X344600000Y-136295000D02*
X345751700Y-136295000D01*
X304635000Y-151925000D02*
X303383300Y-151925000D01*
X85380000Y-137045000D02*
X79650000Y-137045000D01*
X89575000Y-132850000D02*
X85380000Y-137045000D01*
X65681700Y-137045000D02*
X65101700Y-136465000D01*
X79650000Y-137045000D02*
X65681700Y-137045000D01*
X63950000Y-136465000D02*
X65101700Y-136465000D01*
X255725000Y-157075000D02*
X267681500Y-157075000D01*
X255381700Y-136945000D02*
X254801700Y-136365000D01*
X269350000Y-136945000D02*
X255381700Y-136945000D01*
X253650000Y-136365000D02*
X254801700Y-136365000D01*
X178684100Y-112190600D02*
X178568600Y-112306100D01*
X179881000Y-112190600D02*
X178684100Y-112190600D01*
X179881000Y-112190500D02*
X179881000Y-112190600D01*
X180481100Y-111590400D02*
X179881000Y-112190500D01*
X189690400Y-111590400D02*
X180481100Y-111590400D01*
X192300000Y-114200000D02*
X189690400Y-111590400D01*
X174188900Y-150011100D02*
X174600000Y-149600000D01*
X173246200Y-150011100D02*
X174188900Y-150011100D01*
X236511700Y-168877300D02*
X236511700Y-169425000D01*
X237215700Y-168173300D02*
X236511700Y-168877300D01*
X251973300Y-168173300D02*
X237215700Y-168173300D01*
X254300000Y-170500000D02*
X251973300Y-168173300D01*
X219275000Y-169425000D02*
X217725000Y-167875000D01*
X235260000Y-169425000D02*
X219275000Y-169425000D01*
X235260000Y-169425000D02*
X236511700Y-169425000D01*
X186131700Y-171870000D02*
X185551700Y-171290000D01*
X200100000Y-171870000D02*
X186131700Y-171870000D01*
X184400000Y-171290000D02*
X185551700Y-171290000D01*
X67052500Y-153947500D02*
X65350000Y-155650000D01*
X68860000Y-153947500D02*
X67052500Y-153947500D01*
X68644700Y-168950000D02*
X68672200Y-168922500D01*
X67475000Y-168950000D02*
X68644700Y-168950000D01*
X171778300Y-122873100D02*
X173076700Y-124171500D01*
X144076900Y-122873100D02*
X171778300Y-122873100D01*
X142650000Y-124300000D02*
X144076900Y-122873100D01*
X176086700Y-134875000D02*
X173076700Y-131865000D01*
X210985000Y-134875000D02*
X176086700Y-134875000D01*
X171925000Y-131865000D02*
X173076700Y-131865000D01*
X255717500Y-171917500D02*
X267937500Y-171917500D01*
X254300000Y-170500000D02*
X255717500Y-171917500D01*
X271956100Y-173006100D02*
X273550000Y-174600000D01*
X269026100Y-173006100D02*
X271956100Y-173006100D01*
X267937500Y-171917500D02*
X269026100Y-173006100D01*
X200100000Y-166790000D02*
X201251700Y-166790000D01*
X110467500Y-132982500D02*
X110000000Y-133450000D01*
X112521200Y-132982500D02*
X110467500Y-132982500D01*
X82602500Y-168922500D02*
X87675000Y-163850000D01*
X68672200Y-168922500D02*
X82602500Y-168922500D01*
X90822400Y-131602600D02*
X89575000Y-132850000D01*
X108152600Y-131602600D02*
X90822400Y-131602600D01*
X110000000Y-133450000D02*
X108152600Y-131602600D01*
X151290000Y-136365000D02*
X156225000Y-136365000D01*
X148600000Y-133675000D02*
X151290000Y-136365000D01*
X147022300Y-135252700D02*
X148600000Y-133675000D01*
X111802700Y-135252700D02*
X147022300Y-135252700D01*
X110000000Y-133450000D02*
X111802700Y-135252700D01*
X332007300Y-124342700D02*
X331275000Y-125075000D01*
X342474000Y-124342700D02*
X332007300Y-124342700D01*
X298233300Y-157075000D02*
X267681500Y-157075000D01*
X303383300Y-151925000D02*
X298233300Y-157075000D01*
X215735200Y-165885200D02*
X217725000Y-167875000D01*
X202156500Y-165885200D02*
X215735200Y-165885200D01*
X201251700Y-166790000D02*
X202156500Y-165885200D01*
X341775000Y-160800000D02*
X341775000Y-163025000D01*
X350960000Y-160800000D02*
X341775000Y-160800000D01*
X312258300Y-160800000D02*
X303383300Y-151925000D01*
X341775000Y-160800000D02*
X312258300Y-160800000D01*
X273427200Y-115375000D02*
X273338200Y-115286000D01*
X274500000Y-115375000D02*
X273427200Y-115375000D01*
%TD*%
M02*
