<?xml version="1.0" encoding="UTF-8"?>
<!-- Created by Vectric (http://www.vectric.com/) -->
<svg width="205.00000000mm" height="185.00000000mm" viewBox="0.00000000 0.00000000 205.00000000 185.00000000" id="svg2" version="1.1" xmlns="http://www.w3.org/2000/svg" xmlns:xlink="http://www.w3.org/1999/xlink" xmlns:inkscape="http://www.inkscape.org/namespaces/inkscape">
    <g inkscape:groupmode="layer" id="85667243-1302-4a85-b3ac-c7bf39b332ec" inkscape:label="Toolpath Previews" style="stroke:#000000;"/>
    <g inkscape:groupmode="layer" id="f131e4f8-88bf-4ff8-82ae-e609d563f43b" inkscape:label="_Engraving" style="stroke:#339966;">
        <path style="fill:none;stroke-width:0.280000;stroke-linecap:round;stroke-linejoin:round;stroke-opacity:1;stroke:#339966;" d="M 78.461697,101.226846 L 98.677657,101.226846 C 99.310341,101.226846 99.819677,101.736182 99.819677,102.368866 L 99.819677,122.584827 C 99.819677,123.217500 99.310341,123.726846 98.677657,123.726846 L 78.461697,123.726846 C 77.829012,123.726846 77.319677,123.217500 77.319677,122.584827 L 77.319677,102.368866 C 77.319677,101.736182 77.829012,101.226846 78.461697,101.226846 "/>
        <path style="fill:none;stroke-width:0.280000;stroke-linecap:round;stroke-linejoin:round;stroke-opacity:1;stroke:#339966;" d="M 78.053671,100.748557 L 99.129105,100.748557 C 99.788687,100.748557 100.319677,101.279547 100.319677,101.939129 L 100.319677,123.014563 C 100.319677,123.674134 99.788687,124.205135 99.129105,124.205135 L 78.053671,124.205135 C 77.394088,124.205135 76.863099,123.674134 76.863099,123.014563 L 76.863099,101.939129 C 76.863099,101.279547 77.394088,100.748557 78.053671,100.748557 "/>
        <path style="fill:none;stroke-width:0.280000;stroke-linecap:round;stroke-linejoin:round;stroke-opacity:1;stroke:#339966;" d="M 139.760385,101.226846 L 159.976345,101.226846 C 160.609030,101.226846 161.118365,101.736182 161.118365,102.368866 L 161.118365,122.584827 C 161.118365,123.217500 160.609030,123.726846 159.976345,123.726846 L 139.760385,123.726846 C 139.127701,123.726846 138.618365,123.217500 138.618365,122.584827 L 138.618365,102.368866 C 138.618365,101.736182 139.127701,101.226846 139.760385,101.226846 "/>
        <path style="fill:none;stroke-width:0.280000;stroke-linecap:round;stroke-linejoin:round;stroke-opacity:1;stroke:#339966;" d="M 139.352359,100.748557 L 160.427793,100.748557 C 161.087376,100.748557 161.618365,101.279547 161.618365,101.939129 L 161.618365,123.014563 C 161.618365,123.674134 161.087376,124.205135 160.427793,124.205135 L 139.352359,124.205135 C 138.692777,124.205135 138.161787,123.674134 138.161787,123.014563 L 138.161787,101.939129 C 138.161787,101.279547 138.692777,100.748557 139.352359,100.748557 "/>
        <path style="fill:none;stroke-width:0.280000;stroke-linecap:round;stroke-linejoin:round;stroke-opacity:1;stroke:#339966;" d="M 133.229494,88.986153 L 133.218537,127.368360 L 133.854891,127.368714 L 133.865849,88.986507 L 133.229494,88.986153 "/>
        <path style="fill:none;stroke-width:0.280000;stroke-linecap:round;stroke-linejoin:round;stroke-opacity:1;stroke:#339966;" d="M 87.366152,95.669313 L 87.403740,95.669313 C 87.572558,95.681407 87.728187,95.720379 87.870626,95.786228 C 88.143636,95.916582 88.336853,96.130928 88.450277,96.429264 C 88.563702,96.727600 88.562383,97.018545 88.446321,97.302099 C 88.352680,97.526523 88.214197,97.702233 88.030871,97.829227 C 87.847546,97.956222 87.638502,98.027110 87.403740,98.041893 L 87.366152,98.043909 L 86.404683,98.043909 L 86.404683,99.513416 C 86.380943,99.702900 86.287302,99.797642 86.123760,99.797642 C 85.960218,99.797642 85.867237,99.702900 85.844816,99.513416 L 85.844816,95.951523 C 85.864599,95.784884 85.951645,95.690814 86.105955,95.669313 L 86.123760,95.669313 L 87.366152,95.669313 "/>
        <path style="fill:none;stroke-width:0.280000;stroke-linecap:round;stroke-linejoin:round;stroke-opacity:1;stroke:#339966;" d="M 87.366152,96.237764 L 86.404683,96.237764 L 86.404683,97.473441 L 87.366152,97.473441 C 87.516505,97.473441 87.649383,97.422375 87.764786,97.320241 C 87.880188,97.218108 87.947781,97.090442 87.967565,96.937242 C 87.991305,96.751790 87.942506,96.588847 87.821168,96.448414 C 87.699831,96.307981 87.548159,96.237764 87.366152,96.237764 "/>
        <path style="fill:none;stroke-width:0.280000;stroke-linecap:round;stroke-linejoin:round;stroke-opacity:1;stroke:#339966;" d="M 91.237746,98.473271 L 90.636333,96.780011 L 90.030964,98.473271 L 91.237746,98.473271 "/>
        <path style="fill:none;stroke-width:0.280000;stroke-linecap:round;stroke-linejoin:round;stroke-opacity:1;stroke:#339966;" d="M 90.636333,96.780011 L 91.237746,98.473271 L 90.636333,96.780011 "/>
        <path style="fill:none;stroke-width:0.280000;stroke-linecap:round;stroke-linejoin:round;stroke-opacity:1;stroke:#339966;" d="M 89.109062,99.408596 C 89.320084,98.815955 89.531435,98.223649 89.743117,97.631680 C 89.954798,97.039711 90.166809,96.447406 90.379150,95.854765 C 90.422673,95.732474 90.509060,95.670657 90.638311,95.669313 C 90.767562,95.667969 90.854609,95.729786 90.899451,95.854765 L 92.167561,99.418675 C 92.207128,99.608158 92.150416,99.730449 91.997425,99.785548 C 91.844434,99.840646 91.726393,99.784204 91.643303,99.616222 L 91.439535,99.039707 L 89.827196,99.039707 L 89.629363,99.602111 C 89.544954,99.771437 89.424935,99.826871 89.269306,99.768413 C 89.113678,99.709956 89.060263,99.590016 89.109062,99.408596 "/>
        <path style="fill:none;stroke-width:0.280000;stroke-linecap:round;stroke-linejoin:round;stroke-opacity:1;stroke:#339966;" d="M 137.011309,95.674012 L 137.932793,95.674012 C 138.390600,95.674012 138.733629,95.886650 138.961881,96.311926 C 139.190132,96.737202 139.304258,97.205006 139.304258,97.715337 C 139.304258,98.225668 139.189806,98.693472 138.960902,99.118748 C 138.731999,99.544024 138.389296,99.756662 137.932793,99.756662 L 137.011309,99.756662 L 137.015222,99.756662 L 137.011309,99.756662 C 136.968268,99.750017 136.944790,99.746030 136.940878,99.744701 C 136.805231,99.711476 136.738060,99.621105 136.739364,99.473587 L 136.737408,99.473587 L 136.739364,95.953100 C 136.738060,95.949113 136.737408,95.943797 136.737408,95.937152 C 136.741321,95.864058 136.769689,95.801927 136.822513,95.750761 C 136.875337,95.699595 136.938921,95.674012 137.013266,95.674012 L 137.011309,95.674012 "/>
        <path style="fill:none;stroke-width:0.280000;stroke-linecap:round;stroke-linejoin:round;stroke-opacity:1;stroke:#339966;" d="M 137.932793,99.194500 C 137.935401,99.194500 137.938010,99.194500 137.940619,99.194500 C 137.943227,99.194500 137.946488,99.194500 137.950401,99.194500 C 137.953009,99.194500 137.955292,99.194168 137.957248,99.193503 C 137.959205,99.192839 137.962139,99.192507 137.966052,99.192507 C 137.968661,99.192507 137.971596,99.192174 137.974856,99.191510 C 137.978117,99.190845 137.981704,99.190513 137.985617,99.190513 C 137.988225,99.190513 137.990834,99.190181 137.993443,99.189516 C 137.996051,99.188852 137.999312,99.188520 138.003225,99.188520 C 138.005833,99.188520 138.008442,99.188187 138.011050,99.187523 C 138.013659,99.186858 138.016920,99.186526 138.020833,99.186526 C 138.026050,99.183868 138.031267,99.182539 138.036484,99.182539 C 138.039093,99.182539 138.041701,99.181542 138.044310,99.179549 C 138.046919,99.177555 138.050179,99.175894 138.054092,99.174565 C 138.056701,99.174565 138.059635,99.174233 138.062896,99.173568 C 138.066157,99.172904 138.069744,99.171907 138.073657,99.170578 C 138.076265,99.170578 138.078874,99.169914 138.081482,99.168585 C 138.084091,99.167256 138.087352,99.165927 138.091265,99.164598 C 138.099090,99.161940 138.104960,99.159282 138.108872,99.156624 C 138.132350,99.148650 138.138871,99.145992 138.128437,99.148650 C 138.131045,99.148650 138.133654,99.147653 138.136263,99.145660 C 138.138871,99.143666 138.142132,99.142005 138.146045,99.140676 C 138.157784,99.132702 138.163001,99.129380 138.161696,99.130709 C 138.174739,99.124064 138.181065,99.120841 138.181261,99.120741 C 138.183869,99.119412 138.186478,99.117751 138.189087,99.115758 C 138.191695,99.113764 138.194956,99.111438 138.198869,99.108780 C 138.210607,99.100806 138.216301,99.096939 138.216477,99.096819 C 138.219085,99.095490 138.222020,99.093829 138.225281,99.091836 C 138.228541,99.089842 138.232128,99.087517 138.236041,99.084859 C 138.238650,99.083530 138.241258,99.081536 138.243867,99.078878 C 138.246475,99.076220 138.249736,99.073562 138.253649,99.070904 C 138.256258,99.069575 138.258866,99.067914 138.261475,99.065921 C 138.264083,99.063927 138.267344,99.061601 138.271257,99.058943 C 138.273866,99.056285 138.280387,99.050969 138.290821,99.042995 C 138.301256,99.032364 138.306316,99.027207 138.306473,99.027048 C 138.309082,99.024390 138.311690,99.021732 138.314299,99.019074 C 138.316907,99.016416 138.320168,99.013093 138.324081,99.009106 C 138.326690,99.006448 138.329298,99.003790 138.331907,99.001132 C 138.334515,98.998474 138.337776,98.995152 138.341689,98.991165 C 138.345602,98.988507 138.351471,98.983191 138.359297,98.975217 C 138.361905,98.972559 138.364514,98.969901 138.367123,98.967243 C 138.369731,98.964585 138.372992,98.961263 138.376905,98.957276 C 138.379513,98.954618 138.382122,98.951628 138.384731,98.948305 C 138.387339,98.944983 138.390600,98.941328 138.394513,98.937341 C 138.410164,98.916077 138.415382,98.909432 138.410164,98.917406 C 138.419294,98.908103 138.425164,98.900794 138.427772,98.895478 C 138.439511,98.879530 138.444728,98.872221 138.443424,98.873550 C 138.446032,98.869563 138.448641,98.865908 138.451250,98.862585 C 138.453858,98.859263 138.457119,98.855608 138.461032,98.851621 C 138.463640,98.847634 138.465923,98.843647 138.467879,98.839660 C 138.469836,98.835673 138.472770,98.831686 138.476683,98.827700 C 138.477988,98.823713 138.480270,98.819393 138.483531,98.814742 C 138.486792,98.810090 138.489726,98.805771 138.492335,98.801784 C 138.500161,98.791152 138.505378,98.783178 138.507986,98.777862 C 138.510595,98.773876 138.512877,98.769556 138.514834,98.764905 C 138.516790,98.760253 138.519725,98.755934 138.523638,98.751947 C 138.526246,98.747960 138.528529,98.743641 138.530485,98.738990 C 138.532442,98.734338 138.535377,98.730019 138.539289,98.726032 C 138.541898,98.719387 138.545811,98.710749 138.551028,98.700117 C 138.553637,98.696130 138.555919,98.691478 138.557876,98.686162 C 138.559832,98.680846 138.562767,98.675530 138.566680,98.670215 C 138.569288,98.666228 138.571571,98.661908 138.573527,98.657257 C 138.575484,98.652605 138.578418,98.647622 138.582331,98.642306 C 138.583635,98.638319 138.585266,98.633667 138.587222,98.628351 C 138.589179,98.623035 138.591461,98.617720 138.594070,98.612404 C 138.597983,98.605759 138.602548,98.595791 138.607765,98.582501 C 138.620808,98.549277 138.625373,98.538645 138.621460,98.550606 C 138.622764,98.546619 138.624395,98.541635 138.626351,98.535655 C 138.628307,98.529674 138.630590,98.524026 138.633199,98.518710 C 138.634503,98.513394 138.636133,98.508078 138.638090,98.502762 C 138.640046,98.497446 138.642329,98.491466 138.644937,98.484821 C 138.648850,98.472860 138.652111,98.462228 138.654719,98.452925 C 138.656024,98.447609 138.657654,98.442293 138.659610,98.436977 C 138.661567,98.431661 138.663849,98.425681 138.666458,98.419036 C 138.661241,98.432326 138.664502,98.421029 138.676240,98.385147 C 138.678849,98.378502 138.682762,98.367205 138.687979,98.351258 C 138.687979,98.345942 138.688957,98.340293 138.690914,98.334313 C 138.692870,98.328333 138.694500,98.322020 138.695805,98.315375 C 138.697109,98.310059 138.698413,98.304411 138.699718,98.298430 C 138.701022,98.292450 138.702978,98.286137 138.705587,98.279492 C 138.705587,98.275505 138.706565,98.270522 138.708522,98.264541 C 138.710478,98.258561 138.712108,98.252248 138.713413,98.245603 C 138.714717,98.236300 138.716673,98.223675 138.719282,98.207727 C 138.719282,98.202411 138.720260,98.196763 138.722217,98.190782 C 138.724173,98.184802 138.725803,98.178489 138.727108,98.171844 C 138.727108,98.166528 138.727760,98.160880 138.729064,98.154900 C 138.730368,98.148919 138.731673,98.142607 138.732977,98.135962 C 138.734281,98.126659 138.736238,98.114033 138.738846,98.098085 C 138.738846,98.092769 138.739825,98.086789 138.741781,98.080144 C 138.743737,98.073499 138.745368,98.066854 138.746672,98.060209 C 138.746672,98.050906 138.747976,98.038281 138.750585,98.022333 C 138.750585,98.017017 138.750911,98.011369 138.751563,98.005389 C 138.752215,97.999408 138.753194,97.992431 138.754498,97.984457 C 138.757106,97.968509 138.758411,97.955884 138.758411,97.946581 C 138.759715,97.937278 138.760367,97.924653 138.760367,97.908705 C 138.761671,97.899402 138.762324,97.886112 138.762324,97.868835 C 138.763628,97.859532 138.764280,97.846907 138.764280,97.830959 C 138.764280,97.824314 138.764606,97.818001 138.765258,97.812021 C 138.765910,97.806040 138.766889,97.799063 138.768193,97.791089 C 138.768193,97.785773 138.768519,97.780125 138.769171,97.774145 C 138.769823,97.768164 138.770149,97.761187 138.770149,97.753213 C 138.770149,97.747897 138.770149,97.741917 138.770149,97.735272 C 138.770149,97.728627 138.770149,97.721982 138.770149,97.715337 C 138.770149,97.708692 138.770149,97.702379 138.770149,97.696399 C 138.770149,97.690419 138.770149,97.684106 138.770149,97.677461 C 138.770149,97.670816 138.769823,97.664503 138.769171,97.658523 C 138.768519,97.652542 138.768193,97.645565 138.768193,97.637591 C 138.768193,97.632275 138.768193,97.626295 138.768193,97.619650 C 138.768193,97.613005 138.768193,97.606360 138.768193,97.599715 C 138.768193,97.591741 138.766889,97.578451 138.764280,97.559846 C 138.764280,97.543898 138.763628,97.531937 138.762324,97.523963 C 138.762324,97.514660 138.761019,97.500706 138.758411,97.482100 C 138.758411,97.466152 138.757759,97.454191 138.756454,97.446217 C 138.756454,97.436914 138.755150,97.424289 138.752541,97.408341 C 138.751237,97.403025 138.750259,97.397045 138.749607,97.390400 C 138.748955,97.383755 138.748629,97.377110 138.748629,97.370465 C 138.746020,97.354517 138.743411,97.341892 138.740803,97.332589 C 138.739498,97.327273 138.738194,97.321625 138.736890,97.315644 C 138.735586,97.309664 138.734933,97.303351 138.734933,97.296706 C 138.733629,97.287403 138.731673,97.274778 138.729064,97.258830 C 138.727760,97.249527 138.725803,97.236902 138.723195,97.220954 C 138.717978,97.205006 138.714717,97.193045 138.713413,97.185071 C 138.710804,97.169123 138.708848,97.157827 138.707543,97.151182 C 138.704935,97.145866 138.702978,97.140218 138.701674,97.134237 C 138.700370,97.128257 138.699065,97.121944 138.697761,97.115299 C 138.696457,97.109983 138.694500,97.104335 138.691892,97.098355 C 138.689283,97.092374 138.687979,97.086062 138.687979,97.079417 C 138.676240,97.043534 138.672980,97.032238 138.678197,97.045527 C 138.675588,97.036225 138.672327,97.024928 138.668414,97.011638 C 138.665806,97.007651 138.663523,97.002668 138.661567,96.996687 C 138.659610,96.990707 138.657980,96.985058 138.656676,96.979743 C 138.655372,96.975756 138.651459,96.964459 138.644937,96.945853 C 138.639720,96.932563 138.635807,96.921932 138.633199,96.913958 C 138.630590,96.909971 138.628307,96.904987 138.626351,96.899007 C 138.624395,96.893026 138.622764,96.887378 138.621460,96.882062 C 138.618851,96.878075 138.616243,96.873424 138.613634,96.868108 C 138.611026,96.862792 138.609069,96.857476 138.607765,96.852160 C 138.602548,96.838870 138.597983,96.828902 138.594070,96.822258 C 138.588853,96.808968 138.584940,96.799665 138.582331,96.794349 C 138.577114,96.781059 138.572549,96.771092 138.568636,96.764447 C 138.566027,96.760460 138.563419,96.756140 138.560810,96.751489 C 138.558202,96.746838 138.556245,96.742518 138.554941,96.738531 C 138.547115,96.725241 138.541898,96.715939 138.539289,96.710623 C 138.527551,96.692017 138.522334,96.683378 138.523638,96.684707 C 138.519725,96.680720 138.516790,96.676401 138.514834,96.671750 C 138.512877,96.667098 138.510595,96.662779 138.507986,96.658792 C 138.505378,96.653476 138.500161,96.645502 138.492335,96.634870 C 138.489726,96.630883 138.487118,96.626896 138.484509,96.622909 C 138.481900,96.618922 138.479944,96.614936 138.478640,96.610949 C 138.472118,96.598988 138.461032,96.583704 138.445380,96.565098 C 138.442772,96.562441 138.432337,96.547822 138.414077,96.521242 C 138.398426,96.502636 138.386687,96.489346 138.378861,96.481372 C 138.371036,96.472069 138.359297,96.459444 138.343645,96.443496 C 138.333211,96.431535 138.322125,96.420239 138.310386,96.409607 C 138.301256,96.402962 138.288865,96.392995 138.273213,96.379705 C 138.260171,96.369073 138.247780,96.359105 138.236041,96.349803 C 138.206042,96.329868 138.193652,96.321229 138.198869,96.323887 C 138.172783,96.307939 138.161044,96.300630 138.163653,96.301959 C 138.163301,96.301780 138.151914,96.295979 138.128437,96.284018 C 138.123220,96.281360 138.110829,96.276708 138.091265,96.270063 C 138.074309,96.263418 138.061918,96.258767 138.054092,96.256109 C 138.047571,96.254780 138.041701,96.253119 138.036484,96.251125 C 138.031267,96.249132 138.026050,96.246806 138.020833,96.244148 C 137.997355,96.240161 137.985969,96.238227 137.985617,96.238168 C 137.977791,96.236839 137.966052,96.236174 137.950401,96.236174 C 137.946488,96.236174 137.943227,96.236174 137.940619,96.236174 C 137.938010,96.236174 137.935401,96.236174 137.932793,96.236174 L 137.287167,96.236174 L 137.287167,99.194500 L 137.932793,99.194500 "/>
        <path style="fill:none;stroke-width:0.280000;stroke-linecap:round;stroke-linejoin:round;stroke-opacity:1;stroke:#339966;" d="M 142.405216,96.848173 C 142.525211,97.216302 142.570535,97.598386 142.541188,97.994424 C 142.511842,98.390463 142.405216,98.751947 142.221310,99.078878 C 142.105228,99.282213 141.946757,99.454982 141.745895,99.597183 C 141.545034,99.739385 141.323304,99.789222 141.080706,99.746694 C 140.685505,99.676258 140.382908,99.466278 140.172917,99.116754 C 139.962926,98.767231 139.842605,98.378170 139.811954,97.949571 C 139.781303,97.520973 139.838040,97.103338 139.982164,96.696668 C 140.126289,96.289998 140.356170,95.994298 140.671810,95.809569 C 140.825716,95.719198 140.986796,95.674012 141.155050,95.674012 C 141.475907,95.674012 141.738070,95.797276 141.941539,96.043803 C 142.145009,96.290330 142.299568,96.558454 142.405216,96.848173 "/>
        <path style="fill:none;stroke-width:0.280000;stroke-linecap:round;stroke-linejoin:round;stroke-opacity:1;stroke:#339966;" d="M 141.170702,96.240161 C 140.930712,96.240161 140.749089,96.371731 140.625833,96.634870 C 140.502577,96.898010 140.424646,97.122609 140.392039,97.308667 C 140.367257,97.444224 140.358127,97.608354 140.364648,97.801057 C 140.371170,97.993760 140.398560,98.184137 140.446819,98.372189 C 140.495078,98.560241 140.567466,98.729687 140.663984,98.880527 C 140.760501,99.031367 140.887018,99.131373 141.043533,99.180546 C 141.226134,99.239021 141.383628,99.202142 141.516014,99.069907 C 141.648399,98.937673 141.748504,98.797133 141.816327,98.648286 C 141.885455,98.495453 141.932735,98.294776 141.958169,98.046255 C 141.983603,97.797734 141.977734,97.549546 141.940561,97.301690 C 141.903389,97.053834 141.830674,96.830564 141.722418,96.631880 C 141.614162,96.433196 141.460255,96.306610 141.260698,96.252122 C 141.234612,96.244148 141.204613,96.240161 141.170702,96.240161 "/>
        <path style="fill:none;stroke-width:0.280000;stroke-linecap:round;stroke-linejoin:round;stroke-opacity:1;stroke:#339966;" d="M 145.668559,96.848173 C 145.788554,97.216302 145.833878,97.598386 145.804531,97.994424 C 145.775185,98.390463 145.668559,98.751947 145.484653,99.078878 C 145.368571,99.282213 145.210099,99.454982 145.009238,99.597183 C 144.808377,99.739385 144.586647,99.789222 144.344048,99.746694 C 143.948847,99.676258 143.646251,99.466278 143.436260,99.116754 C 143.226269,98.767231 143.105948,98.378170 143.075297,97.949571 C 143.044646,97.520973 143.101383,97.103338 143.245507,96.696668 C 143.389631,96.289998 143.619513,95.994298 143.935152,95.809569 C 144.089059,95.719198 144.250139,95.674012 144.418393,95.674012 C 144.739249,95.674012 145.001412,95.797276 145.204882,96.043803 C 145.408352,96.290330 145.562911,96.558454 145.668559,96.848173 "/>
        <path style="fill:none;stroke-width:0.280000;stroke-linecap:round;stroke-linejoin:round;stroke-opacity:1;stroke:#339966;" d="M 144.434045,96.240161 C 144.194055,96.240161 144.012432,96.371731 143.889176,96.634870 C 143.765920,96.898010 143.687989,97.122609 143.655381,97.308667 C 143.630600,97.444224 143.621470,97.608354 143.627991,97.801057 C 143.634513,97.993760 143.661903,98.184137 143.710162,98.372189 C 143.758420,98.560241 143.830809,98.729687 143.927326,98.880527 C 144.023844,99.031367 144.150361,99.131373 144.306876,99.180546 C 144.489477,99.239021 144.646971,99.202142 144.779356,99.069907 C 144.911742,98.937673 145.011847,98.797133 145.079670,98.648286 C 145.148797,98.495453 145.196078,98.294776 145.221512,98.046255 C 145.246946,97.797734 145.241076,97.549546 145.203904,97.301690 C 145.166732,97.053834 145.094017,96.830564 144.985761,96.631880 C 144.877504,96.433196 144.723598,96.306610 144.524041,96.252122 C 144.497955,96.244148 144.467956,96.240161 144.434045,96.240161 "/>
        <path style="fill:none;stroke-width:0.280000;stroke-linecap:round;stroke-linejoin:round;stroke-opacity:1;stroke:#339966;" d="M 148.800820,99.324076 C 148.884295,99.474252 148.860817,99.600506 148.730388,99.702838 C 148.667782,99.748023 148.595720,99.763307 148.514201,99.748688 C 148.432683,99.734069 148.373011,99.692870 148.335187,99.625092 L 147.370662,98.072170 L 146.881552,98.072170 L 146.881552,99.475581 C 146.881552,99.591203 146.830032,99.674597 146.726993,99.725763 C 146.623954,99.776929 146.527436,99.767294 146.437440,99.696857 C 146.365703,99.642369 146.329835,99.568610 146.329835,99.475581 L 146.329835,95.953100 C 146.329835,95.876019 146.356247,95.810234 146.409071,95.755745 C 146.461895,95.701257 146.526784,95.674012 146.603737,95.674012 L 147.818687,95.674012 C 148.110848,95.674012 148.364533,95.768703 148.579742,95.958083 C 148.794950,96.147464 148.928640,96.387679 148.980812,96.678727 C 149.035593,96.991039 148.970704,97.283084 148.786146,97.554862 C 148.601589,97.826640 148.356708,97.991766 148.051503,98.050242 L 148.014331,98.056222 L 148.800820,99.324076 "/>
        <path style="fill:none;stroke-width:0.280000;stroke-linecap:round;stroke-linejoin:round;stroke-opacity:1;stroke:#339966;" d="M 147.818687,97.512002 C 147.951725,97.512002 148.074654,97.470803 148.187476,97.388406 C 148.300297,97.306009 148.376272,97.198361 148.415401,97.065462 C 148.476703,96.860798 148.448660,96.675737 148.331274,96.510278 C 148.213888,96.344819 148.052155,96.253451 147.846077,96.236174 L 146.881552,96.236174 L 146.881552,97.512002 L 147.818687,97.512002 "/>
        <path style="fill:none;stroke-width:0.280000;stroke-linecap:round;stroke-linejoin:round;stroke-opacity:1;stroke:#339966;" d="M 151.166352,96.050780 C 151.141570,95.862064 151.207763,95.746442 151.364931,95.703915 C 151.522098,95.661387 151.633941,95.728501 151.700460,95.905256 L 152.359781,98.393121 L 153.023014,95.881334 C 153.089533,95.701921 153.204311,95.636469 153.367347,95.684977 C 153.530384,95.733485 153.592990,95.847445 153.555166,96.026859 L 152.623900,99.549340 C 152.571728,99.686225 152.484341,99.755000 152.361737,99.755665 C 152.239133,99.756329 152.149789,99.690212 152.093705,99.557314 L 151.166352,96.050780 "/>
        <path style="fill:none;stroke-width:0.280000;stroke-linecap:round;stroke-linejoin:round;stroke-opacity:1;stroke:#339966;" d="M 154.660555,99.481561 C 154.631860,99.668949 154.538929,99.762310 154.381762,99.761645 C 154.224594,99.760981 154.132316,99.667620 154.104926,99.481561 L 154.104926,95.957087 C 154.132316,95.769700 154.224594,95.675674 154.381762,95.675009 C 154.538929,95.674345 154.631860,95.768371 154.660555,95.957087 L 154.660555,99.481561 "/>
        <path style="fill:none;stroke-width:0.280000;stroke-linecap:round;stroke-linejoin:round;stroke-opacity:1;stroke:#339966;" d="M 155.490085,95.674012 L 156.411569,95.674012 C 156.869376,95.674012 157.212405,95.886650 157.440657,96.311926 C 157.668908,96.737202 157.783034,97.205006 157.783034,97.715337 C 157.783034,98.225668 157.668582,98.693472 157.439678,99.118748 C 157.210775,99.544024 156.868072,99.756662 156.411569,99.756662 L 155.490085,99.756662 L 155.493998,99.756662 L 155.490085,99.756662 C 155.447044,99.750017 155.423566,99.746030 155.419654,99.744701 C 155.284007,99.711476 155.216836,99.621105 155.218140,99.473587 L 155.216184,99.473587 L 155.218140,95.953100 C 155.216836,95.949113 155.216184,95.943797 155.216184,95.937152 C 155.220097,95.864058 155.248465,95.801927 155.301289,95.750761 C 155.354113,95.699595 155.417697,95.674012 155.492042,95.674012 L 155.490085,95.674012 "/>
        <path style="fill:none;stroke-width:0.280000;stroke-linecap:round;stroke-linejoin:round;stroke-opacity:1;stroke:#339966;" d="M 156.411569,99.194500 C 156.414177,99.194500 156.416786,99.194500 156.419395,99.194500 C 156.422003,99.194500 156.425264,99.194500 156.429177,99.194500 C 156.431785,99.194500 156.434068,99.194168 156.436024,99.193503 C 156.437981,99.192839 156.440915,99.192507 156.444828,99.192507 C 156.447437,99.192507 156.450372,99.192174 156.453632,99.191510 C 156.456893,99.190845 156.460480,99.190513 156.464393,99.190513 C 156.467001,99.190513 156.469610,99.190181 156.472218,99.189516 C 156.474827,99.188852 156.478088,99.188520 156.482001,99.188520 C 156.484609,99.188520 156.487218,99.188187 156.489826,99.187523 C 156.492435,99.186858 156.495696,99.186526 156.499609,99.186526 C 156.504826,99.183868 156.510043,99.182539 156.515260,99.182539 C 156.517869,99.182539 156.520477,99.181542 156.523086,99.179549 C 156.525695,99.177555 156.528955,99.175894 156.532868,99.174565 C 156.535477,99.174565 156.538411,99.174233 156.541672,99.173568 C 156.544933,99.172904 156.548520,99.171907 156.552433,99.170578 C 156.555041,99.170578 156.557650,99.169914 156.560258,99.168585 C 156.562867,99.167256 156.566128,99.165927 156.570041,99.164598 C 156.577866,99.161940 156.583736,99.159282 156.587648,99.156624 C 156.611126,99.148650 156.617647,99.145992 156.607213,99.148650 C 156.609821,99.148650 156.612430,99.147653 156.615039,99.145660 C 156.617647,99.143666 156.620908,99.142005 156.624821,99.140676 C 156.636559,99.132702 156.641777,99.129380 156.640472,99.130709 C 156.653515,99.124064 156.659841,99.120841 156.660037,99.120741 C 156.662645,99.119412 156.665254,99.117751 156.667863,99.115758 C 156.670471,99.113764 156.673732,99.111438 156.677645,99.108780 C 156.689383,99.100806 156.695077,99.096939 156.695253,99.096819 C 156.697861,99.095490 156.700796,99.093829 156.704057,99.091836 C 156.707317,99.089842 156.710904,99.087517 156.714817,99.084859 C 156.717426,99.083530 156.720034,99.081536 156.722643,99.078878 C 156.725251,99.076220 156.728512,99.073562 156.732425,99.070904 C 156.735034,99.069575 156.737642,99.067914 156.740251,99.065921 C 156.742859,99.063927 156.746120,99.061601 156.750033,99.058943 C 156.752642,99.056285 156.759163,99.050969 156.769597,99.042995 C 156.780032,99.032364 156.785092,99.027207 156.785249,99.027048 C 156.787858,99.024390 156.790466,99.021732 156.793075,99.019074 C 156.795683,99.016416 156.798944,99.013093 156.802857,99.009106 C 156.805466,99.006448 156.808074,99.003790 156.810683,99.001132 C 156.813291,98.998474 156.816552,98.995152 156.820465,98.991165 C 156.824378,98.988507 156.830247,98.983191 156.838073,98.975217 C 156.840681,98.972559 156.843290,98.969901 156.845899,98.967243 C 156.848507,98.964585 156.851768,98.961263 156.855681,98.957276 C 156.858289,98.954618 156.860898,98.951628 156.863507,98.948305 C 156.866115,98.944983 156.869376,98.941328 156.873289,98.937341 C 156.888940,98.916077 156.894157,98.909432 156.888940,98.917406 C 156.898070,98.908103 156.903940,98.900794 156.906548,98.895478 C 156.918287,98.879530 156.923504,98.872221 156.922200,98.873550 C 156.924808,98.869563 156.927417,98.865908 156.930026,98.862585 C 156.932634,98.859263 156.935895,98.855608 156.939808,98.851621 C 156.942416,98.847634 156.944699,98.843647 156.946655,98.839660 C 156.948612,98.835673 156.951546,98.831686 156.955459,98.827700 C 156.956764,98.823713 156.959046,98.819393 156.962307,98.814742 C 156.965568,98.810090 156.968502,98.805771 156.971111,98.801784 C 156.978937,98.791152 156.984154,98.783178 156.986762,98.777862 C 156.989371,98.773876 156.991653,98.769556 156.993610,98.764905 C 156.995566,98.760253 156.998501,98.755934 157.002414,98.751947 C 157.005022,98.747960 157.007305,98.743641 157.009261,98.738990 C 157.011218,98.734338 157.014153,98.730019 157.018065,98.726032 C 157.020674,98.719387 157.024587,98.710749 157.029804,98.700117 C 157.032413,98.696130 157.034695,98.691478 157.036652,98.686162 C 157.038608,98.680846 157.041543,98.675530 157.045456,98.670215 C 157.048064,98.666228 157.050347,98.661908 157.052303,98.657257 C 157.054260,98.652605 157.057194,98.647622 157.061107,98.642306 C 157.062411,98.638319 157.064042,98.633667 157.065998,98.628351 C 157.067955,98.623035 157.070237,98.617720 157.072846,98.612404 C 157.076759,98.605759 157.081324,98.595791 157.086541,98.582501 C 157.099584,98.549277 157.104149,98.538645 157.100236,98.550606 C 157.101540,98.546619 157.103171,98.541635 157.105127,98.535655 C 157.107083,98.529674 157.109366,98.524026 157.111975,98.518710 C 157.113279,98.513394 157.114909,98.508078 157.116866,98.502762 C 157.118822,98.497446 157.121105,98.491466 157.123713,98.484821 C 157.127626,98.472860 157.130887,98.462228 157.133495,98.452925 C 157.134800,98.447609 157.136430,98.442293 157.138386,98.436977 C 157.140343,98.431661 157.142625,98.425681 157.145234,98.419036 C 157.140017,98.432326 157.143278,98.421029 157.155016,98.385147 C 157.157625,98.378502 157.161538,98.367205 157.166755,98.351258 C 157.166755,98.345942 157.167733,98.340293 157.169690,98.334313 C 157.171646,98.328333 157.173276,98.322020 157.174581,98.315375 C 157.175885,98.310059 157.177189,98.304411 157.178494,98.298430 C 157.179798,98.292450 157.181754,98.286137 157.184363,98.279492 C 157.184363,98.275505 157.185341,98.270522 157.187297,98.264541 C 157.189254,98.258561 157.190884,98.252248 157.192189,98.245603 C 157.193493,98.236300 157.195449,98.223675 157.198058,98.207727 C 157.198058,98.202411 157.199036,98.196763 157.200993,98.190782 C 157.202949,98.184802 157.204579,98.178489 157.205884,98.171844 C 157.205884,98.166528 157.206536,98.160880 157.207840,98.154900 C 157.209144,98.148919 157.210449,98.142607 157.211753,98.135962 C 157.213057,98.126659 157.215014,98.114033 157.217622,98.098085 C 157.217622,98.092769 157.218601,98.086789 157.220557,98.080144 C 157.222513,98.073499 157.224144,98.066854 157.225448,98.060209 C 157.225448,98.050906 157.226752,98.038281 157.229361,98.022333 C 157.229361,98.017017 157.229687,98.011369 157.230339,98.005389 C 157.230991,97.999408 157.231970,97.992431 157.233274,97.984457 C 157.235882,97.968509 157.237187,97.955884 157.237187,97.946581 C 157.238491,97.937278 157.239143,97.924653 157.239143,97.908705 C 157.240447,97.899402 157.241100,97.886112 157.241100,97.868835 C 157.242404,97.859532 157.243056,97.846907 157.243056,97.830959 C 157.243056,97.824314 157.243382,97.818001 157.244034,97.812021 C 157.244686,97.806040 157.245665,97.799063 157.246969,97.791089 C 157.246969,97.785773 157.247295,97.780125 157.247947,97.774145 C 157.248599,97.768164 157.248925,97.761187 157.248925,97.753213 C 157.248925,97.747897 157.248925,97.741917 157.248925,97.735272 C 157.248925,97.728627 157.248925,97.721982 157.248925,97.715337 C 157.248925,97.708692 157.248925,97.702379 157.248925,97.696399 C 157.248925,97.690419 157.248925,97.684106 157.248925,97.677461 C 157.248925,97.670816 157.248599,97.664503 157.247947,97.658523 C 157.247295,97.652542 157.246969,97.645565 157.246969,97.637591 C 157.246969,97.632275 157.246969,97.626295 157.246969,97.619650 C 157.246969,97.613005 157.246969,97.606360 157.246969,97.599715 C 157.246969,97.591741 157.245665,97.578451 157.243056,97.559846 C 157.243056,97.543898 157.242404,97.531937 157.241100,97.523963 C 157.241100,97.514660 157.239795,97.500706 157.237187,97.482100 C 157.237187,97.466152 157.236535,97.454191 157.235230,97.446217 C 157.235230,97.436914 157.233926,97.424289 157.231317,97.408341 C 157.230013,97.403025 157.229035,97.397045 157.228383,97.390400 C 157.227731,97.383755 157.227405,97.377110 157.227405,97.370465 C 157.224796,97.354517 157.222187,97.341892 157.219579,97.332589 C 157.218274,97.327273 157.216970,97.321625 157.215666,97.315644 C 157.214362,97.309664 157.213709,97.303351 157.213709,97.296706 C 157.212405,97.287403 157.210449,97.274778 157.207840,97.258830 C 157.206536,97.249527 157.204579,97.236902 157.201971,97.220954 C 157.196754,97.205006 157.193493,97.193045 157.192189,97.185071 C 157.189580,97.169123 157.187624,97.157827 157.186319,97.151182 C 157.183711,97.145866 157.181754,97.140218 157.180450,97.134237 C 157.179146,97.128257 157.177841,97.121944 157.176537,97.115299 C 157.175233,97.109983 157.173276,97.104335 157.170668,97.098355 C 157.168059,97.092374 157.166755,97.086062 157.166755,97.079417 C 157.155016,97.043534 157.151755,97.032238 157.156973,97.045527 C 157.154364,97.036225 157.151103,97.024928 157.147190,97.011638 C 157.144582,97.007651 157.142299,97.002668 157.140343,96.996687 C 157.138386,96.990707 157.136756,96.985058 157.135452,96.979743 C 157.134148,96.975756 157.130235,96.964459 157.123713,96.945853 C 157.118496,96.932563 157.114583,96.921932 157.111975,96.913958 C 157.109366,96.909971 157.107083,96.904987 157.105127,96.899007 C 157.103171,96.893026 157.101540,96.887378 157.100236,96.882062 C 157.097627,96.878075 157.095019,96.873424 157.092410,96.868108 C 157.089802,96.862792 157.087845,96.857476 157.086541,96.852160 C 157.081324,96.838870 157.076759,96.828902 157.072846,96.822258 C 157.067629,96.808968 157.063716,96.799665 157.061107,96.794349 C 157.055890,96.781059 157.051325,96.771092 157.047412,96.764447 C 157.044803,96.760460 157.042195,96.756140 157.039586,96.751489 C 157.036978,96.746838 157.035021,96.742518 157.033717,96.738531 C 157.025891,96.725241 157.020674,96.715939 157.018065,96.710623 C 157.006327,96.692017 157.001110,96.683378 157.002414,96.684707 C 156.998501,96.680720 156.995566,96.676401 156.993610,96.671750 C 156.991653,96.667098 156.989371,96.662779 156.986762,96.658792 C 156.984154,96.653476 156.978937,96.645502 156.971111,96.634870 C 156.968502,96.630883 156.965894,96.626896 156.963285,96.622909 C 156.960676,96.618922 156.958720,96.614936 156.957416,96.610949 C 156.950894,96.598988 156.939808,96.583704 156.924156,96.565098 C 156.921548,96.562441 156.911113,96.547822 156.892853,96.521242 C 156.877202,96.502636 156.865463,96.489346 156.857637,96.481372 C 156.849812,96.472069 156.838073,96.459444 156.822421,96.443496 C 156.811987,96.431535 156.800900,96.420239 156.789162,96.409607 C 156.780032,96.402962 156.767641,96.392995 156.751989,96.379705 C 156.738947,96.369073 156.726556,96.359105 156.714817,96.349803 C 156.684818,96.329868 156.672428,96.321229 156.677645,96.323887 C 156.651559,96.307939 156.639820,96.300630 156.642429,96.301959 C 156.642077,96.301780 156.630690,96.295979 156.607213,96.284018 C 156.601996,96.281360 156.589605,96.276708 156.570041,96.270063 C 156.553085,96.263418 156.540694,96.258767 156.532868,96.256109 C 156.526347,96.254780 156.520477,96.253119 156.515260,96.251125 C 156.510043,96.249132 156.504826,96.246806 156.499609,96.244148 C 156.476131,96.240161 156.464745,96.238227 156.464393,96.238168 C 156.456567,96.236839 156.444828,96.236174 156.429177,96.236174 C 156.425264,96.236174 156.422003,96.236174 156.419395,96.236174 C 156.416786,96.236174 156.414177,96.236174 156.411569,96.236174 L 155.765943,96.236174 L 155.765943,99.194500 L 156.411569,99.194500 "/>
        <path style="fill:none;stroke-width:0.280000;stroke-linecap:round;stroke-linejoin:round;stroke-opacity:1;stroke:#339966;" d="M 160.453575,96.230194 L 158.831686,96.230194 L 158.831686,97.320628 L 160.068156,97.320628 C 160.253366,97.348537 160.345645,97.443227 160.344992,97.604699 C 160.344340,97.766171 160.252061,97.860197 160.068156,97.886776 L 158.831686,97.886776 L 158.831686,99.196494 L 160.453575,99.196494 C 160.637480,99.224402 160.729433,99.318096 160.729433,99.477574 C 160.729433,99.637053 160.637480,99.730082 160.453575,99.756662 L 158.559740,99.756662 C 158.396704,99.735398 158.304099,99.641040 158.281926,99.473587 L 158.281926,95.953100 C 158.306708,95.777673 158.399312,95.684644 158.559740,95.674012 L 160.453575,95.674012 C 160.637480,95.688631 160.729107,95.781993 160.728455,95.954097 C 160.727803,96.126200 160.636176,96.218233 160.453575,96.230194 "/>
        <path style="fill:none;stroke-width:0.280000;stroke-linecap:round;stroke-linejoin:round;stroke-opacity:1;stroke:#339966;" d="M 163.875389,96.848173 C 163.995384,97.216302 164.040708,97.598386 164.011362,97.994424 C 163.982015,98.390463 163.875389,98.751947 163.691484,99.078878 C 163.575402,99.282213 163.416930,99.454982 163.216069,99.597183 C 163.015208,99.739385 162.793478,99.789222 162.550879,99.746694 C 162.155678,99.676258 161.853082,99.466278 161.643091,99.116754 C 161.433099,98.767231 161.312778,98.378170 161.282127,97.949571 C 161.251477,97.520973 161.308213,97.103338 161.452338,96.696668 C 161.596462,96.289998 161.826344,95.994298 162.141983,95.809569 C 162.295890,95.719198 162.456970,95.674012 162.625224,95.674012 C 162.946080,95.674012 163.208243,95.797276 163.411713,96.043803 C 163.615183,96.290330 163.769741,96.558454 163.875389,96.848173 "/>
        <path style="fill:none;stroke-width:0.280000;stroke-linecap:round;stroke-linejoin:round;stroke-opacity:1;stroke:#339966;" d="M 162.640875,96.240161 C 162.400885,96.240161 162.219262,96.371731 162.096007,96.634870 C 161.972751,96.898010 161.894819,97.122609 161.862212,97.308667 C 161.837430,97.444224 161.828300,97.608354 161.834822,97.801057 C 161.841343,97.993760 161.868733,98.184137 161.916992,98.372189 C 161.965251,98.560241 162.037640,98.729687 162.134157,98.880527 C 162.230675,99.031367 162.357191,99.131373 162.513707,99.180546 C 162.696308,99.239021 162.853801,99.202142 162.986187,99.069907 C 163.118573,98.937673 163.218677,98.797133 163.286501,98.648286 C 163.355628,98.495453 163.402909,98.294776 163.428343,98.046255 C 163.453776,97.797734 163.447907,97.549546 163.410735,97.301690 C 163.373562,97.053834 163.300848,96.830564 163.192592,96.631880 C 163.084335,96.433196 162.930429,96.306610 162.730872,96.252122 C 162.704786,96.244148 162.674787,96.240161 162.640875,96.240161 "/>
        <path style="fill:none;stroke-width:0.280000;stroke-linecap:round;stroke-linejoin:round;stroke-opacity:1;stroke:#339966;" d="M 143.139732,93.802617 L 143.121881,93.828889 C 143.117915,93.834278 143.114609,93.838994 143.111965,93.843035 C 143.109320,93.847077 143.106676,93.851119 143.104031,93.855161 C 142.922882,94.104410 142.685206,94.281916 142.391004,94.387678 C 142.096801,94.493440 141.806897,94.474241 141.521289,94.330081 C 141.189402,94.161670 140.945776,93.876044 140.790411,93.473204 C 140.635046,93.070364 140.568272,92.651693 140.590089,92.217192 C 140.611907,91.782690 140.724298,91.383555 140.927265,91.019787 C 141.130231,90.656018 141.424764,90.428326 141.810863,90.336710 C 142.033003,90.284166 142.254481,90.306059 142.475298,90.402391 C 142.696115,90.498722 142.877264,90.633788 143.018745,90.807588 C 143.020068,90.807588 143.023373,90.812304 143.028662,90.821735 C 143.089486,90.902573 143.102048,90.991157 143.066347,91.087488 C 143.030646,91.183820 142.965194,91.244111 142.869991,91.268362 C 142.768178,91.295308 142.674297,91.264320 142.588351,91.175399 C 142.411168,90.965222 142.240597,90.864175 142.076637,90.872258 C 141.912677,90.880342 141.765907,90.949054 141.636325,91.078394 C 141.506744,91.207734 141.398980,91.373451 141.313033,91.575544 C 141.227087,91.777638 141.174196,91.966933 141.154363,92.143428 C 141.130562,92.340132 141.132876,92.537847 141.161304,92.736573 C 141.189733,92.935298 141.249565,93.122235 141.340801,93.297383 C 141.499472,93.604565 141.699463,93.796891 141.940775,93.874360 C 142.182087,93.951829 142.417779,93.834278 142.647852,93.521707 C 142.658430,93.508234 142.670992,93.490719 142.685537,93.469162 C 142.809829,93.329044 142.941063,93.314561 143.079239,93.425712 C 143.217415,93.536864 143.237579,93.662498 143.139732,93.802617 "/>
        <path style="fill:none;stroke-width:0.280000;stroke-linecap:round;stroke-linejoin:round;stroke-opacity:1;stroke:#339966;" d="M 146.331000,91.500770 C 146.452648,91.873969 146.498596,92.261316 146.468845,92.662808 C 146.439095,93.064301 146.331000,93.430764 146.144562,93.762198 C 146.026881,93.968334 145.866227,94.143481 145.662599,94.287642 C 145.458971,94.431802 145.234188,94.482325 144.988248,94.439212 C 144.587604,94.367805 144.280840,94.154933 144.067957,93.800596 C 143.855073,93.446258 143.733095,93.051839 143.702022,92.617337 C 143.670949,92.182836 143.728467,91.759450 143.874576,91.347179 C 144.020686,90.934907 144.253734,90.635135 144.573720,90.447862 C 144.729746,90.356246 144.893045,90.310438 145.063616,90.310438 C 145.388892,90.310438 145.654665,90.435399 145.860938,90.685322 C 146.067210,90.935244 146.223897,91.207060 146.331000,91.500770 "/>
        <path style="fill:none;stroke-width:0.280000;stroke-linecap:round;stroke-linejoin:round;stroke-opacity:1;stroke:#339966;" d="M 145.079483,90.884384 C 144.836188,90.884384 144.652064,91.017766 144.527110,91.284530 C 144.402157,91.551293 144.323152,91.778985 144.290096,91.967606 C 144.264973,92.105030 144.255717,92.271420 144.262328,92.466778 C 144.268940,92.662135 144.296707,92.855134 144.345631,93.045776 C 144.394554,93.236418 144.467939,93.408197 144.565786,93.561115 C 144.663634,93.714032 144.791892,93.815416 144.950563,93.865266 C 145.135679,93.924547 145.295342,93.887159 145.429551,93.753104 C 145.563760,93.619048 145.665243,93.476572 145.734001,93.325676 C 145.804080,93.170737 145.852012,92.967296 145.877796,92.715353 C 145.903580,92.463409 145.897630,92.211803 145.859946,91.960533 C 145.822261,91.709263 145.748546,91.482918 145.638798,91.281498 C 145.529051,91.080078 145.373025,90.951749 145.170719,90.896510 C 145.144274,90.888426 145.113862,90.884384 145.079483,90.884384 "/>
        <path style="fill:none;stroke-width:0.280000;stroke-linecap:round;stroke-linejoin:round;stroke-opacity:1;stroke:#339966;" d="M 149.555986,93.802617 L 149.538135,93.828889 C 149.534168,93.834278 149.530863,93.838994 149.528218,93.843035 C 149.525574,93.847077 149.522929,93.851119 149.520285,93.855161 C 149.339135,94.104410 149.101460,94.281916 148.807257,94.387678 C 148.513055,94.493440 148.223150,94.474241 147.937543,94.330081 C 147.605656,94.161670 147.362030,93.876044 147.206665,93.473204 C 147.051300,93.070364 146.984526,92.651693 147.006343,92.217192 C 147.028160,91.782690 147.140552,91.383555 147.343519,91.019787 C 147.546485,90.656018 147.841018,90.428326 148.227117,90.336710 C 148.449256,90.284166 148.670734,90.306059 148.891551,90.402391 C 149.112368,90.498722 149.293518,90.633788 149.434999,90.807588 C 149.436321,90.807588 149.439627,90.812304 149.444916,90.821735 C 149.505740,90.902573 149.518301,90.991157 149.482600,91.087488 C 149.446899,91.183820 149.381448,91.244111 149.286245,91.268362 C 149.184431,91.295308 149.090551,91.264320 149.004604,91.175399 C 148.827422,90.965222 148.656851,90.864175 148.492891,90.872258 C 148.328931,90.880342 148.182160,90.949054 148.052579,91.078394 C 147.922998,91.207734 147.815234,91.373451 147.729287,91.575544 C 147.643340,91.777638 147.590450,91.966933 147.570616,92.143428 C 147.546816,92.340132 147.549130,92.537847 147.577558,92.736573 C 147.605987,92.935298 147.665819,93.122235 147.757055,93.297383 C 147.915725,93.604565 148.115717,93.796891 148.357029,93.874360 C 148.598341,93.951829 148.834033,93.834278 149.064106,93.521707 C 149.074684,93.508234 149.087245,93.490719 149.101790,93.469162 C 149.226082,93.329044 149.357316,93.314561 149.495492,93.425712 C 149.633668,93.536864 149.653833,93.662498 149.555986,93.802617 "/>
        <path style="fill:none;stroke-width:0.280000;stroke-linecap:round;stroke-linejoin:round;stroke-opacity:1;stroke:#339966;" d="M 152.124470,90.387234 C 152.275208,90.275408 152.408756,90.281808 152.525114,90.406433 C 152.641473,90.531057 152.638167,90.662081 152.515197,90.799505 L 151.596890,91.698822 L 152.761137,94.039066 C 152.816672,94.229034 152.770393,94.359722 152.622300,94.431128 C 152.474207,94.502534 152.353882,94.457400 152.261324,94.295725 L 151.174429,92.111093 L 150.668665,92.608243 L 150.668665,94.170427 C 150.639575,94.360395 150.542390,94.454369 150.377107,94.452348 C 150.211825,94.450327 150.122573,94.356353 150.109350,94.170427 L 150.109350,90.597411 C 150.122573,90.410138 150.211825,90.314817 150.377107,90.311449 C 150.542390,90.308080 150.639575,90.403401 150.668665,90.597411 L 150.668665,91.816036 L 152.124470,90.387234 "/>
        <path style="fill:none;stroke-width:0.280000;stroke-linecap:round;stroke-linejoin:round;stroke-opacity:1;stroke:#339966;" d="M 154.742540,90.310438 L 154.780224,90.310438 C 154.949473,90.322564 155.105500,90.361635 155.248303,90.427652 C 155.522011,90.558340 155.715721,90.773233 155.829435,91.072331 C 155.943150,91.371430 155.941827,91.663118 155.825469,91.947397 C 155.731588,92.172394 155.592751,92.348553 155.408958,92.475872 C 155.225164,92.603191 155.015586,92.674260 154.780224,92.689081 L 154.742540,92.691102 L 153.778614,92.691102 L 153.778614,94.164364 C 153.754814,94.354332 153.660933,94.449316 153.496974,94.449316 C 153.333014,94.449316 153.239794,94.354332 153.217316,94.164364 L 153.217316,90.593369 C 153.237150,90.426305 153.324419,90.331995 153.479123,90.310438 L 153.496974,90.310438 L 154.742540,90.310438 "/>
        <path style="fill:none;stroke-width:0.280000;stroke-linecap:round;stroke-linejoin:round;stroke-opacity:1;stroke:#339966;" d="M 154.742540,90.880342 L 153.778614,90.880342 L 153.778614,92.119176 L 154.742540,92.119176 C 154.893277,92.119176 155.026495,92.067979 155.142192,91.965585 C 155.257890,91.863191 155.325655,91.735198 155.345489,91.581607 C 155.369290,91.395681 155.320366,91.232322 155.198719,91.091530 C 155.077071,90.950738 154.925011,90.880342 154.742540,90.880342 "/>
        <path style="fill:none;stroke-width:0.280000;stroke-linecap:round;stroke-linejoin:round;stroke-opacity:1;stroke:#339966;" d="M 157.039301,94.170427 C 157.010211,94.360395 156.916000,94.455042 156.756668,94.454369 C 156.597336,94.453695 156.503787,94.359048 156.476019,94.170427 L 156.476019,90.597411 C 156.503787,90.407443 156.597336,90.312122 156.756668,90.311449 C 156.916000,90.310775 157.010211,90.406096 157.039301,90.597411 L 157.039301,94.170427 "/>
        <path style="fill:none;stroke-width:0.280000;stroke-linecap:round;stroke-linejoin:round;stroke-opacity:1;stroke:#339966;" d="M 158.608159,94.166385 L 158.608159,90.880342 L 157.880257,90.880342 C 157.695141,90.865522 157.602913,90.770875 157.603574,90.596401 C 157.604235,90.421926 157.696463,90.326606 157.880257,90.310438 L 159.893393,90.310438 C 160.075865,90.325258 160.167431,90.420579 160.168092,90.596401 C 160.168753,90.772222 160.077187,90.866869 159.893393,90.880342 L 159.167474,90.880342 L 159.167474,94.166385 C 159.137062,94.357701 159.039546,94.452011 158.874925,94.449316 C 158.710304,94.446622 158.621382,94.352312 158.608159,94.166385 "/>
    </g>
    <g inkscape:groupmode="layer" id="abb0eef1-77ef-465b-b55c-ee9ff62fe786" inkscape:label="_BackPanel" style="stroke:#0000ff;">
        <path style="fill:none;stroke-width:0.280000;stroke-linecap:round;stroke-linejoin:round;stroke-opacity:1;stroke:#0000ff;" d="M 78.043606,100.901848 L 99.139169,100.901848 C 99.708248,100.901848 100.166388,101.360108 100.166388,101.929347 L 100.166388,123.024346 C 100.166388,123.593585 99.708248,124.051845 99.139169,124.051845 L 78.043606,124.051845 C 77.474527,124.051845 77.016388,123.593585 77.016388,123.024346 L 77.016388,101.929347 C 77.016388,101.360108 77.474527,100.901848 78.043606,100.901848 "/>
        <path style="fill:none;stroke-width:0.280000;stroke-linecap:round;stroke-linejoin:round;stroke-opacity:1;stroke:#0000ff;" d="M 31.502095,82.602507 L 31.502095,87.330768 L 31.502095,96.787290 L 31.502095,115.700333 L 31.502095,120.428594 L 31.502095,129.885116 L 176.502095,129.885116 L 176.502095,120.428594 L 176.502095,115.700333 L 176.502095,96.787290 L 176.502095,87.330768 L 176.502095,82.602507 L 31.502095,82.602507 "/>
        <path style="fill:none;stroke-width:0.280000;stroke-linecap:round;stroke-linejoin:round;stroke-opacity:1;stroke:#0000ff;" d="M 172.138045,118.257142 A 2.488170,2.488170 0 0,0 174.626215,115.768972 A 2.488170,2.488170 0 0,0 172.138045,113.280802 A 2.488170,2.488170 0 0,0 169.649875,115.768972 A 2.488170,2.488170 0 0,0 172.138045,118.257142 "/>
        <path style="fill:none;stroke-width:0.280000;stroke-linecap:round;stroke-linejoin:round;stroke-opacity:1;stroke:#0000ff;" d="M 139.342295,100.901848 L 160.437857,100.901848 C 161.006937,100.901848 161.465076,101.360108 161.465076,101.929347 L 161.465076,123.024346 C 161.465076,123.593585 161.006937,124.051845 160.437857,124.051845 L 139.342295,124.051845 C 138.773216,124.051845 138.315076,123.593585 138.315076,123.024346 L 138.315076,101.929347 C 138.315076,101.360108 138.773216,100.901848 139.342295,100.901848 "/>
        <path style="fill:none;stroke-width:0.280000;stroke-linecap:round;stroke-linejoin:round;stroke-opacity:1;stroke:#0000ff;" d="M 35.531936,98.747521 A 2.488170,2.488170 0 0,0 38.020105,96.259351 A 2.488170,2.488170 0 0,0 35.531936,93.771181 A 2.488170,2.488170 0 0,0 33.043766,96.259351 A 2.488170,2.488170 0 0,0 35.531936,98.747521 "/>
    </g>
</svg>
