<?xml version="1.0" encoding="UTF-8"?>
<!-- Created by Vectric (http://www.vectric.com/) -->
<svg width="205.00000000mm" height="185.00000000mm" viewBox="0.00000000 0.00000000 205.00000000 185.00000000" id="svg2" version="1.1" xmlns="http://www.w3.org/2000/svg" xmlns:xlink="http://www.w3.org/1999/xlink" xmlns:inkscape="http://www.inkscape.org/namespaces/inkscape">
    <g inkscape:groupmode="layer" id="85667243-1302-4a85-b3ac-c7bf39b332ec" inkscape:label="Toolpath Previews" style="stroke:#000000;"/>
    <g inkscape:groupmode="layer" id="f131e4f8-88bf-4ff8-82ae-e609d563f43b" inkscape:label="_Engraving" style="stroke:#339966;">
        <path style="fill:none;stroke-width:0.280000;stroke-linecap:round;stroke-linejoin:round;stroke-opacity:1;stroke:#339966;" d="M 46.269112,95.000000 L 66.485072,95.000000 C 67.117757,95.000000 67.627092,95.565928 67.627092,96.268911 L 67.627092,118.731089 C 67.627092,119.434059 67.117757,120.000000 66.485072,120.000000 L 46.269112,120.000000 C 45.636428,120.000000 45.127092,119.434059 45.127092,118.731089 L 45.127092,96.268911 C 45.127092,95.565928 45.636428,95.000000 46.269112,95.000000 "/>
        <path style="fill:none;stroke-width:0.280000;stroke-linecap:round;stroke-linejoin:round;stroke-opacity:1;stroke:#339966;" d="M 45.861086,94.500000 L 66.936520,94.500000 C 67.596103,94.500000 68.127092,95.088074 68.127092,95.818565 L 68.127092,119.159724 C 68.127092,119.890202 67.596103,120.478289 66.936520,120.478289 L 45.861086,120.478289 C 45.201504,120.478289 44.670514,119.890202 44.670514,119.159724 L 44.670514,95.818565 C 44.670514,95.088074 45.201504,94.500000 45.861086,94.500000 "/>
        <path style="fill:none;stroke-width:0.280000;stroke-linecap:round;stroke-linejoin:round;stroke-opacity:1;stroke:#339966;" d="M 86.103368,84.791230 L 84.203062,84.791230 L 84.203062,86.068850 L 85.651788,86.068850 C 85.868791,86.101550 85.976911,86.212495 85.976147,86.401685 C 85.975382,86.590876 85.867263,86.701043 85.651788,86.732185 L 84.203062,86.732185 L 84.203062,88.266731 L 86.103368,88.266731 C 86.318843,88.299431 86.426581,88.409208 86.426581,88.596063 C 86.426581,88.782918 86.318843,88.891916 86.103368,88.923059 L 83.884434,88.923059 C 83.693410,88.898145 83.584909,88.787589 83.558930,88.591391 L 83.558930,84.466569 C 83.587965,84.261029 83.696467,84.152030 83.884434,84.139573 L 86.103368,84.139573 C 86.318843,84.156702 86.426199,84.266090 86.425435,84.467737 C 86.424671,84.669385 86.317315,84.777216 86.103368,84.791230 "/>
        <path style="fill:none;stroke-width:0.280000;stroke-linecap:round;stroke-linejoin:round;stroke-opacity:1;stroke:#339966;" d="M 87.068421,84.581018 C 87.039386,84.359906 87.116941,84.224436 87.301089,84.174609 C 87.485236,84.124781 87.616278,84.203415 87.694216,84.410513 L 88.466717,87.325449 L 89.243802,84.382485 C 89.321740,84.172273 89.456221,84.095584 89.647245,84.152419 C 89.838269,84.209255 89.911622,84.342778 89.867304,84.552990 L 88.776175,88.680148 C 88.715048,88.840531 88.612659,88.921113 88.469009,88.921891 C 88.325359,88.922670 88.220678,88.845203 88.154966,88.689490 L 87.068421,84.581018 "/>
        <path style="fill:none;stroke-width:0.280000;stroke-linecap:round;stroke-linejoin:round;stroke-opacity:1;stroke:#339966;" d="M 92.993984,87.388513 L 92.297129,85.426536 L 91.595689,87.388513 L 92.993984,87.388513 "/>
        <path style="fill:none;stroke-width:0.280000;stroke-linecap:round;stroke-linejoin:round;stroke-opacity:1;stroke:#339966;" d="M 92.297129,85.426536 L 92.993984,87.388513 L 92.297129,85.426536 "/>
        <path style="fill:none;stroke-width:0.280000;stroke-linecap:round;stroke-linejoin:round;stroke-opacity:1;stroke:#339966;" d="M 90.527483,88.472271 C 90.771994,87.785580 91.016886,87.099277 91.262161,86.413364 C 91.507436,85.727451 91.753093,85.041148 91.999131,84.354456 C 92.049562,84.212758 92.149658,84.141130 92.299421,84.139573 C 92.449184,84.138016 92.550044,84.209644 92.602003,84.354456 L 94.071359,88.483950 C 94.117205,88.703504 94.051493,88.845203 93.874222,88.909045 C 93.696952,88.972887 93.560179,88.907488 93.463903,88.712847 L 93.227797,88.044841 L 91.359583,88.044841 L 91.130354,88.696497 C 91.032550,88.892695 90.893485,88.956926 90.713158,88.889191 C 90.532832,88.821457 90.470940,88.682483 90.527483,88.472271 "/>
        <path style="fill:none;stroke-width:0.280000;stroke-linecap:round;stroke-linejoin:round;stroke-opacity:1;stroke:#339966;" d="M 97.475406,88.175639 L 97.454775,88.206003 C 97.450191,88.212232 97.446370,88.217682 97.443314,88.222353 C 97.440257,88.227024 97.437201,88.231696 97.434145,88.236367 C 97.224782,88.524435 96.950090,88.729586 96.610067,88.851820 C 96.270045,88.974055 95.934989,88.951866 95.604899,88.785253 C 95.221323,88.590613 94.939754,88.260503 94.760191,87.794922 C 94.580629,87.329342 94.503455,86.845466 94.528670,86.343293 C 94.553886,85.841121 94.683782,85.379823 94.918359,84.959399 C 95.152937,84.538976 95.493341,84.275822 95.939573,84.169937 C 96.196309,84.109209 96.452281,84.134513 96.707489,84.245847 C 96.962697,84.357181 97.172060,84.513283 97.335576,84.714152 C 97.337104,84.714152 97.340925,84.719602 97.347038,84.730502 C 97.417334,84.823929 97.431852,84.926310 97.390591,85.037645 C 97.349330,85.148979 97.273684,85.218660 97.163655,85.246689 C 97.045984,85.277831 96.937482,85.242017 96.838150,85.139247 C 96.633372,84.896336 96.436235,84.779551 96.246740,84.788894 C 96.057244,84.798237 95.887615,84.877650 95.737852,85.027134 C 95.588089,85.176618 95.463542,85.368144 95.364209,85.601713 C 95.264877,85.835282 95.203749,86.054057 95.180826,86.258041 C 95.153319,86.485381 95.155993,86.713889 95.188849,86.943565 C 95.221705,87.173241 95.290856,87.389292 95.396301,87.591718 C 95.579684,87.946742 95.810823,88.169022 96.089718,88.258556 C 96.368613,88.348091 96.641013,88.212232 96.906918,87.850979 C 96.919144,87.835408 96.933662,87.815165 96.950472,87.790251 C 97.094122,87.628310 97.245795,87.611571 97.405491,87.740034 C 97.565187,87.868497 97.588492,88.013698 97.475406,88.175639 "/>
        <path style="fill:none;stroke-width:0.280000;stroke-linecap:round;stroke-linejoin:round;stroke-opacity:1;stroke:#339966;" d="M 49.294250,93.587123 L 49.279269,93.605842 C 49.275940,93.609682 49.273165,93.613042 49.270946,93.615922 C 49.268727,93.618802 49.266507,93.621682 49.264288,93.624562 C 49.112257,93.802157 48.912785,93.928633 48.665873,94.003991 C 48.418961,94.079348 48.175656,94.065669 47.935957,93.962952 C 47.657418,93.842955 47.452953,93.639441 47.322561,93.352410 C 47.192170,93.065378 47.136129,92.767067 47.154439,92.457476 C 47.172750,92.147885 47.267075,91.863494 47.437417,91.604301 C 47.607758,91.345109 47.854948,91.182874 48.178985,91.117596 C 48.365417,91.080157 48.551295,91.095756 48.736617,91.164394 C 48.921940,91.233032 49.073971,91.329270 49.192711,91.453106 C 49.193821,91.453106 49.196595,91.456466 49.201034,91.463186 C 49.252081,91.520784 49.262623,91.583902 49.232661,91.652540 C 49.202698,91.721178 49.147767,91.764137 49.067868,91.781416 C 48.982420,91.800616 48.903630,91.778536 48.831498,91.715178 C 48.682796,91.565423 48.539643,91.493425 48.402038,91.499184 C 48.264433,91.504944 48.141255,91.553903 48.032502,91.646060 C 47.923750,91.738217 47.833308,91.856294 47.761177,92.000290 C 47.689045,92.144285 47.644656,92.279162 47.628011,92.404918 C 47.608036,92.545074 47.609978,92.685950 47.633837,92.827545 C 47.657696,92.969141 47.707910,93.102337 47.784481,93.227134 C 47.917647,93.446007 48.085491,93.583043 48.288015,93.638241 C 48.490538,93.693440 48.688345,93.609682 48.881435,93.386969 C 48.890313,93.377369 48.900856,93.364889 48.913062,93.349530 C 49.017376,93.249693 49.127515,93.239373 49.243481,93.318571 C 49.359446,93.397769 49.376369,93.487286 49.294250,93.587123 "/>
        <path style="fill:none;stroke-width:0.280000;stroke-linecap:round;stroke-linejoin:round;stroke-opacity:1;stroke:#339966;" d="M 51.711712,91.947011 C 51.813806,92.212923 51.852369,92.488915 51.827400,92.774987 C 51.802431,93.061058 51.711712,93.322171 51.555242,93.558324 C 51.456477,93.705199 51.321647,93.829996 51.150750,93.932713 C 50.979854,94.035430 50.791202,94.071429 50.584795,94.040710 C 50.248551,93.989831 49.991097,93.838156 49.812432,93.585683 C 49.633768,93.333210 49.531396,93.052179 49.505318,92.742588 C 49.479240,92.432997 49.527512,92.131326 49.650136,91.837575 C 49.772760,91.543823 49.968347,91.330229 50.236899,91.196793 C 50.367845,91.131515 50.504895,91.098876 50.648049,91.098876 C 50.921039,91.098876 51.144092,91.187914 51.317208,91.365988 C 51.490323,91.544063 51.621825,91.737737 51.711712,91.947011 "/>
        <path style="fill:none;stroke-width:0.280000;stroke-linecap:round;stroke-linejoin:round;stroke-opacity:1;stroke:#339966;" d="M 50.661365,91.507824 C 50.457177,91.507824 50.302649,91.602861 50.197781,91.792936 C 50.092913,91.983010 50.026607,92.145245 49.998865,92.279641 C 49.977780,92.377559 49.970012,92.496115 49.975560,92.635311 C 49.981109,92.774507 50.004413,92.912023 50.045473,93.047859 C 50.086532,93.183695 50.148121,93.306091 50.230240,93.415048 C 50.312359,93.524005 50.420002,93.596243 50.553168,93.631762 C 50.708528,93.674000 50.842526,93.647361 50.955163,93.551844 C 51.067799,93.456327 51.152970,93.354810 51.210675,93.247293 C 51.269490,93.136896 51.309717,92.991940 51.331357,92.812426 C 51.352996,92.632911 51.348002,92.453636 51.316375,92.274602 C 51.284749,92.095567 51.222882,91.934292 51.130775,91.790776 C 51.038669,91.647260 50.907722,91.555823 50.737936,91.516464 C 50.715741,91.510704 50.690218,91.507824 50.661365,91.507824 "/>
        <path style="fill:none;stroke-width:0.280000;stroke-linecap:round;stroke-linejoin:round;stroke-opacity:1;stroke:#339966;" d="M 54.756219,93.846315 C 54.731805,93.980711 54.653293,94.047669 54.520682,94.047189 C 54.388071,94.046709 54.310113,93.979751 54.286809,93.846315 L 54.286809,92.047808 L 53.715860,92.893063 C 53.654826,92.956422 53.586855,92.989541 53.511950,92.992420 C 53.437044,92.995300 53.370183,92.962181 53.311368,92.893063 L 52.743748,92.052128 L 52.745413,93.846315 C 52.727657,93.979751 52.647480,94.046229 52.504882,94.045749 C 52.362283,94.045269 52.285435,93.978791 52.274338,93.846315 L 52.274338,91.303350 C 52.283216,91.192954 52.339257,91.126955 52.442460,91.105356 C 52.545664,91.083757 52.635551,91.114236 52.712121,91.196793 L 53.512782,92.387638 L 54.321765,91.196793 C 54.398336,91.114236 54.487390,91.083997 54.588929,91.106076 C 54.690468,91.128155 54.746232,91.193913 54.756219,91.303350 L 54.756219,93.846315 "/>
        <path style="fill:none;stroke-width:0.280000;stroke-linecap:round;stroke-linejoin:round;stroke-opacity:1;stroke:#339966;" d="M 57.637598,93.846315 C 57.613184,93.980711 57.534672,94.047669 57.402061,94.047189 C 57.269450,94.046709 57.191492,93.979751 57.168188,93.846315 L 57.168188,92.047808 L 56.597239,92.893063 C 56.536204,92.956422 56.468234,92.989541 56.393328,92.992420 C 56.318423,92.995300 56.251562,92.962181 56.192747,92.893063 L 55.625127,92.052128 L 55.626792,93.846315 C 55.609036,93.979751 55.528859,94.046229 55.386261,94.045749 C 55.243662,94.045269 55.166814,93.978791 55.155717,93.846315 L 55.155717,91.303350 C 55.164595,91.192954 55.220636,91.126955 55.323839,91.105356 C 55.427043,91.083757 55.516930,91.114236 55.593500,91.196793 L 56.394161,92.387638 L 57.203144,91.196793 C 57.279714,91.114236 57.368769,91.083997 57.470308,91.106076 C 57.571847,91.128155 57.627611,91.193913 57.637598,91.303350 L 57.637598,93.846315 "/>
        <path style="fill:none;stroke-width:0.280000;stroke-linecap:round;stroke-linejoin:round;stroke-opacity:1;stroke:#339966;" d="M 59.839830,93.101857 L 59.333800,91.892293 L 58.824440,93.101857 L 59.839830,93.101857 "/>
        <path style="fill:none;stroke-width:0.280000;stroke-linecap:round;stroke-linejoin:round;stroke-opacity:1;stroke:#339966;" d="M 59.333800,91.892293 L 59.839830,93.101857 L 59.333800,91.892293 "/>
        <path style="fill:none;stroke-width:0.280000;stroke-linecap:round;stroke-linejoin:round;stroke-opacity:1;stroke:#339966;" d="M 58.048748,93.769998 C 58.226303,93.346650 58.404135,92.923543 58.582244,92.500675 C 58.760354,92.077807 58.938741,91.654700 59.117405,91.231352 C 59.154026,91.143995 59.226712,91.099836 59.335464,91.098876 C 59.444217,91.097916 59.517458,91.142075 59.555188,91.231352 L 60.622181,93.777197 C 60.655472,93.912553 60.607754,93.999911 60.479027,94.039270 C 60.350300,94.078628 60.250980,94.038310 60.181068,93.918313 L 60.009617,93.506485 L 58.652989,93.506485 L 58.486531,93.908233 C 58.415509,94.029190 58.314525,94.068789 58.183579,94.027030 C 58.052632,93.985271 58.007688,93.899594 58.048748,93.769998 "/>
        <path style="fill:none;stroke-width:0.280000;stroke-linecap:round;stroke-linejoin:round;stroke-opacity:1;stroke:#339966;" d="M 63.248880,93.849195 C 63.248880,93.949992 63.192561,94.014070 63.079925,94.041430 C 62.967289,94.068789 62.879899,94.040230 62.817755,93.955752 L 61.419512,92.016129 L 61.419512,93.849195 C 61.395098,93.983591 61.316586,94.050789 61.183975,94.050789 C 61.051363,94.050789 60.973406,93.983591 60.950102,93.849195 L 60.950102,91.306230 C 60.966748,91.206393 61.025840,91.140635 61.127379,91.108956 C 61.228918,91.077277 61.313534,91.107036 61.381227,91.198233 L 62.779469,93.140736 L 62.779469,91.306230 C 62.800554,91.168954 62.881286,91.101036 63.021665,91.102476 C 63.162044,91.103916 63.237782,91.171834 63.248880,91.306230 L 63.248880,93.849195 "/>
        <path style="fill:none;stroke-width:0.280000;stroke-linecap:round;stroke-linejoin:round;stroke-opacity:1;stroke:#339966;" d="M 63.959653,91.098876 L 64.743668,91.098876 C 65.133178,91.098876 65.425034,91.252472 65.619234,91.559663 C 65.813434,91.866854 65.910535,92.204764 65.910535,92.573393 C 65.910535,92.942022 65.813157,93.279932 65.618402,93.587123 C 65.423646,93.894314 65.132068,94.047909 64.743668,94.047909 L 63.959653,94.047909 L 63.962982,94.047909 L 63.959653,94.047909 C 63.923032,94.043110 63.903057,94.040230 63.899728,94.039270 C 63.784318,94.015270 63.727167,93.949992 63.728277,93.843435 L 63.726612,93.843435 L 63.728277,91.300470 C 63.727167,91.297590 63.726612,91.293751 63.726612,91.288951 C 63.729942,91.236152 63.754078,91.191274 63.799021,91.154315 C 63.843965,91.117356 63.898064,91.098876 63.961318,91.098876 L 63.959653,91.098876 "/>
        <path style="fill:none;stroke-width:0.280000;stroke-linecap:round;stroke-linejoin:round;stroke-opacity:1;stroke:#339966;" d="M 64.743668,93.641841 C 64.745887,93.641841 64.748107,93.641841 64.750326,93.641841 C 64.752545,93.641841 64.755320,93.641841 64.758649,93.641841 C 64.760868,93.641841 64.762810,93.641601 64.764475,93.641121 C 64.766139,93.640641 64.768636,93.640401 64.771965,93.640401 C 64.774185,93.640401 64.776682,93.640161 64.779456,93.639681 C 64.782230,93.639201 64.785282,93.638961 64.788611,93.638961 C 64.790831,93.638961 64.793050,93.638721 64.795269,93.638241 C 64.797489,93.637761 64.800263,93.637521 64.803592,93.637521 C 64.805812,93.637521 64.808031,93.637281 64.810251,93.636801 C 64.812470,93.636321 64.815244,93.636082 64.818574,93.636082 C 64.823012,93.634162 64.827451,93.633202 64.831890,93.633202 C 64.834110,93.633202 64.836329,93.632482 64.838548,93.631042 C 64.840768,93.629602 64.843542,93.628402 64.846871,93.627442 C 64.849091,93.627442 64.851588,93.627202 64.854362,93.626722 C 64.857136,93.626242 64.860188,93.625522 64.863517,93.624562 C 64.865736,93.624562 64.867956,93.624082 64.870175,93.623122 C 64.872395,93.622162 64.875169,93.621202 64.878498,93.620242 C 64.885156,93.618322 64.890150,93.616402 64.893479,93.614482 C 64.913454,93.608722 64.919003,93.606802 64.910125,93.608722 C 64.912345,93.608722 64.914564,93.608002 64.916783,93.606562 C 64.919003,93.605122 64.921777,93.603922 64.925106,93.602962 C 64.935094,93.597203 64.939533,93.594803 64.938423,93.595763 C 64.949520,93.590963 64.954902,93.588635 64.955069,93.588563 C 64.957288,93.587603 64.959507,93.586403 64.961727,93.584963 C 64.963946,93.583523 64.966721,93.581843 64.970050,93.579923 C 64.980037,93.574163 64.984881,93.571370 64.985031,93.571283 C 64.987250,93.570323 64.989747,93.569123 64.992522,93.567684 C 64.995296,93.566244 64.998348,93.564564 65.001677,93.562644 C 65.003896,93.561684 65.006116,93.560244 65.008335,93.558324 C 65.010554,93.556404 65.013329,93.554484 65.016658,93.552564 C 65.018877,93.551604 65.021097,93.550404 65.023316,93.548964 C 65.025536,93.547524 65.028310,93.545844 65.031639,93.543924 C 65.033859,93.542004 65.039407,93.538164 65.048285,93.532405 C 65.057163,93.524725 65.061468,93.521000 65.061601,93.520885 C 65.063821,93.518965 65.066040,93.517045 65.068260,93.515125 C 65.070479,93.513205 65.073253,93.510805 65.076583,93.507925 C 65.078802,93.506005 65.081021,93.504085 65.083241,93.502165 C 65.085460,93.500246 65.088235,93.497846 65.091564,93.494966 C 65.094893,93.493046 65.099887,93.489206 65.106545,93.483446 C 65.108764,93.481526 65.110984,93.479606 65.113203,93.477686 C 65.115423,93.475766 65.118197,93.473366 65.121526,93.470486 C 65.123746,93.468566 65.125965,93.466407 65.128184,93.464007 C 65.130404,93.461607 65.133178,93.458967 65.136507,93.456087 C 65.149824,93.440727 65.154263,93.435927 65.149824,93.441687 C 65.157592,93.434967 65.162586,93.429688 65.164805,93.425848 C 65.174792,93.414328 65.179231,93.409048 65.178122,93.410008 C 65.180341,93.407128 65.182561,93.404488 65.184780,93.402088 C 65.186999,93.399688 65.189774,93.397049 65.193103,93.394169 C 65.195322,93.391289 65.197264,93.388409 65.198929,93.385529 C 65.200593,93.382649 65.203090,93.379769 65.206419,93.376889 C 65.207529,93.374009 65.209471,93.370889 65.212245,93.367529 C 65.215020,93.364170 65.217517,93.361050 65.219736,93.358170 C 65.226394,93.350490 65.230833,93.344730 65.233053,93.340890 C 65.235272,93.338010 65.237214,93.334890 65.238879,93.331530 C 65.240543,93.328171 65.243040,93.325051 65.246369,93.322171 C 65.248589,93.319291 65.250531,93.316171 65.252195,93.312811 C 65.253860,93.309451 65.256357,93.306331 65.259686,93.303451 C 65.261905,93.298651 65.265234,93.292412 65.269673,93.284732 C 65.271893,93.281852 65.273835,93.278492 65.275499,93.274652 C 65.277164,93.270812 65.279661,93.266972 65.282990,93.263132 C 65.285209,93.260253 65.287151,93.257133 65.288816,93.253773 C 65.290480,93.250413 65.292977,93.246813 65.296306,93.242973 C 65.297416,93.240093 65.298803,93.236733 65.300468,93.232893 C 65.302132,93.229054 65.304074,93.225214 65.306294,93.221374 C 65.309623,93.216574 65.313507,93.209374 65.317946,93.199774 C 65.329043,93.175775 65.332927,93.168095 65.329598,93.176735 C 65.330708,93.173855 65.332095,93.170255 65.333759,93.165935 C 65.335424,93.161615 65.337366,93.157536 65.339585,93.153696 C 65.340695,93.149856 65.342082,93.146016 65.343747,93.142176 C 65.345411,93.138336 65.347353,93.134016 65.349573,93.129216 C 65.352902,93.120577 65.355676,93.112897 65.357896,93.106177 C 65.359005,93.102337 65.360393,93.098497 65.362057,93.094657 C 65.363722,93.090818 65.365664,93.086498 65.367883,93.081698 C 65.363444,93.091298 65.366219,93.083138 65.376206,93.057219 C 65.378425,93.052419 65.381755,93.044259 65.386193,93.032739 C 65.386193,93.028899 65.387026,93.024820 65.388690,93.020500 C 65.390355,93.016180 65.391742,93.011620 65.392852,93.006820 C 65.393962,93.002980 65.395071,92.998900 65.396181,92.994580 C 65.397291,92.990261 65.398955,92.985701 65.401175,92.980901 C 65.401175,92.978021 65.402007,92.974421 65.403672,92.970101 C 65.405336,92.965781 65.406723,92.961221 65.407833,92.956422 C 65.408943,92.949702 65.410607,92.940582 65.412827,92.929062 C 65.412827,92.925222 65.413659,92.921143 65.415324,92.916823 C 65.416988,92.912503 65.418375,92.907943 65.419485,92.903143 C 65.419485,92.899303 65.420040,92.895223 65.421150,92.890903 C 65.422259,92.886584 65.423369,92.882024 65.424479,92.877224 C 65.425588,92.870504 65.427253,92.861384 65.429472,92.849865 C 65.429472,92.846025 65.430305,92.841705 65.431969,92.836905 C 65.433634,92.832105 65.435021,92.827305 65.436131,92.822505 C 65.436131,92.815786 65.437240,92.806666 65.439460,92.795146 C 65.439460,92.791306 65.439737,92.787227 65.440292,92.782907 C 65.440847,92.778587 65.441679,92.773547 65.442789,92.767787 C 65.445008,92.756267 65.446118,92.747148 65.446118,92.740428 C 65.447228,92.733708 65.447783,92.724588 65.447783,92.713069 C 65.448892,92.706349 65.449447,92.696749 65.449447,92.684270 C 65.450557,92.677550 65.451112,92.668430 65.451112,92.656910 C 65.451112,92.652111 65.451389,92.647551 65.451944,92.643231 C 65.452499,92.638911 65.453331,92.633871 65.454441,92.628111 C 65.454441,92.624271 65.454718,92.620191 65.455273,92.615872 C 65.455828,92.611552 65.456106,92.606512 65.456106,92.600752 C 65.456106,92.596912 65.456106,92.592592 65.456106,92.587792 C 65.456106,92.582993 65.456106,92.578193 65.456106,92.573393 C 65.456106,92.568593 65.456106,92.564033 65.456106,92.559713 C 65.456106,92.555393 65.456106,92.550833 65.456106,92.546034 C 65.456106,92.541234 65.455828,92.536674 65.455273,92.532354 C 65.454718,92.528034 65.454441,92.522994 65.454441,92.517234 C 65.454441,92.513395 65.454441,92.509075 65.454441,92.504275 C 65.454441,92.499475 65.454441,92.494675 65.454441,92.489875 C 65.454441,92.484115 65.453331,92.474516 65.451112,92.461076 C 65.451112,92.449556 65.450557,92.440917 65.449447,92.435157 C 65.449447,92.428437 65.448338,92.418357 65.446118,92.404918 C 65.446118,92.393398 65.445563,92.384758 65.444454,92.378999 C 65.444454,92.372279 65.443344,92.363159 65.441124,92.351639 C 65.440015,92.347799 65.439182,92.343480 65.438628,92.338680 C 65.438073,92.333880 65.437795,92.329080 65.437795,92.324280 C 65.435576,92.312761 65.433356,92.303641 65.431137,92.296921 C 65.430027,92.293081 65.428918,92.289001 65.427808,92.284681 C 65.426698,92.280361 65.426143,92.275802 65.426143,92.271002 C 65.425034,92.264282 65.423369,92.255162 65.421150,92.243643 C 65.420040,92.236923 65.418375,92.227803 65.416156,92.216283 C 65.411717,92.204764 65.408943,92.196124 65.407833,92.190364 C 65.405614,92.178844 65.403949,92.170685 65.402839,92.165885 C 65.400620,92.162045 65.398955,92.157965 65.397846,92.153645 C 65.396736,92.149325 65.395626,92.144765 65.394516,92.139966 C 65.393407,92.136126 65.391742,92.132046 65.389523,92.127726 C 65.387303,92.123406 65.386193,92.118846 65.386193,92.114046 C 65.376206,92.088127 65.373432,92.079967 65.377871,92.089567 C 65.375651,92.082847 65.372877,92.074688 65.369548,92.065088 C 65.367328,92.062208 65.365386,92.058608 65.363722,92.054288 C 65.362057,92.049968 65.360670,92.045888 65.359560,92.042048 C 65.358451,92.039169 65.355121,92.031009 65.349573,92.017569 C 65.345134,92.007969 65.341805,92.000290 65.339585,91.994530 C 65.337366,91.991650 65.335424,91.988050 65.333759,91.983730 C 65.332095,91.979410 65.330708,91.975330 65.329598,91.971491 C 65.327379,91.968611 65.325159,91.965251 65.322940,91.961411 C 65.320720,91.957571 65.319056,91.953731 65.317946,91.949891 C 65.313507,91.940291 65.309623,91.933092 65.306294,91.928292 C 65.301855,91.918692 65.298526,91.911972 65.296306,91.908132 C 65.291868,91.898533 65.287984,91.891333 65.284654,91.886533 C 65.282435,91.883653 65.280216,91.880533 65.277996,91.877173 C 65.275777,91.873813 65.274112,91.870694 65.273002,91.867814 C 65.266344,91.858214 65.261905,91.851494 65.259686,91.847654 C 65.249698,91.834215 65.245259,91.827975 65.246369,91.828935 C 65.243040,91.826055 65.240543,91.822935 65.238879,91.819575 C 65.237214,91.816215 65.235272,91.813095 65.233053,91.810215 C 65.230833,91.806375 65.226394,91.800616 65.219736,91.792936 C 65.217517,91.790056 65.215297,91.787176 65.213078,91.784296 C 65.210858,91.781416 65.209194,91.778536 65.208084,91.775656 C 65.202535,91.767017 65.193103,91.755977 65.179786,91.742537 C 65.177567,91.740617 65.168689,91.730058 65.153153,91.710858 C 65.139836,91.697419 65.129849,91.687819 65.123191,91.682059 C 65.116532,91.675339 65.106545,91.666220 65.093228,91.654700 C 65.084351,91.646060 65.074918,91.637900 65.064931,91.630221 C 65.057163,91.625421 65.046620,91.618221 65.033304,91.608621 C 65.022206,91.600941 65.011664,91.593742 65.001677,91.587022 C 64.976153,91.572622 64.965611,91.566383 64.970050,91.568302 C 64.947855,91.556783 64.937868,91.551503 64.940087,91.552463 C 64.939788,91.552333 64.930100,91.548143 64.910125,91.539503 C 64.905686,91.537583 64.895144,91.534223 64.878498,91.529424 C 64.864072,91.524624 64.853530,91.521264 64.846871,91.519344 C 64.841323,91.518384 64.836329,91.517184 64.831890,91.515744 C 64.827451,91.514304 64.823012,91.512624 64.818574,91.510704 C 64.798599,91.507824 64.788911,91.506427 64.788611,91.506384 C 64.781953,91.505424 64.771965,91.504944 64.758649,91.504944 C 64.755320,91.504944 64.752545,91.504944 64.750326,91.504944 C 64.748107,91.504944 64.745887,91.504944 64.743668,91.504944 L 64.194358,91.504944 L 64.194358,93.641841 L 64.743668,93.641841 "/>
        <path style="fill:none;stroke-width:0.280000;stroke-linecap:round;stroke-linejoin:round;stroke-opacity:1;stroke:#339966;" d="M 75.062505,95.048262 L 75.062505,92.456136 C 75.082649,92.315387 75.152675,92.246234 75.272583,92.248678 C 75.392491,92.251121 75.457720,92.320274 75.468272,92.456136 L 75.468272,93.425251 L 76.626581,93.425251 L 76.626581,92.456136 C 76.646725,92.318319 76.714593,92.249167 76.830184,92.248678 C 76.945775,92.248189 77.014123,92.317342 77.035227,92.456136 L 77.035227,95.048262 C 77.014123,95.186079 76.945775,95.254743 76.830184,95.254254 C 76.714593,95.253766 76.646725,95.185102 76.626581,95.048262 L 76.626581,93.841633 L 75.468272,93.841633 L 75.468272,95.048262 C 75.457720,95.183147 75.392491,95.251566 75.272583,95.253521 C 75.152675,95.255476 75.082649,95.187056 75.062505,95.048262 "/>
        <path style="fill:none;stroke-width:0.280000;stroke-linecap:round;stroke-linejoin:round;stroke-opacity:1;stroke:#339966;" d="M 79.576743,93.111498 C 79.664995,93.382245 79.698329,93.663254 79.676746,93.954526 C 79.655163,94.245798 79.576743,94.511657 79.441487,94.752103 C 79.356113,94.901649 79.239562,95.028714 79.091836,95.133298 C 78.944110,95.237883 78.781035,95.274536 78.602612,95.243258 C 78.311956,95.191455 78.089407,95.037022 77.934966,94.779960 C 77.780525,94.522897 77.692033,94.236757 77.669490,93.921538 C 77.646948,93.606319 77.688676,93.299164 77.794674,93.000072 C 77.900673,92.700981 78.069742,92.483504 78.301884,92.347642 C 78.415077,92.281177 78.533546,92.247945 78.657290,92.247945 C 78.893269,92.247945 79.086080,92.338601 79.235725,92.519913 C 79.385370,92.701225 79.499043,92.898420 79.576743,93.111498 "/>
        <path style="fill:none;stroke-width:0.280000;stroke-linecap:round;stroke-linejoin:round;stroke-opacity:1;stroke:#339966;" d="M 78.668802,92.664327 C 78.492297,92.664327 78.358720,92.761092 78.268070,92.954622 C 78.177420,93.148152 78.120104,93.313336 78.096122,93.450175 C 78.077896,93.549873 78.071181,93.670584 78.075978,93.812311 C 78.080774,93.954037 78.100918,94.094053 78.136411,94.232358 C 78.171904,94.370664 78.225143,94.495285 78.296128,94.606223 C 78.367114,94.717160 78.460162,94.790711 78.575273,94.826876 C 78.709570,94.869883 78.825401,94.842759 78.922766,94.745506 C 79.020131,94.648252 79.093755,94.544889 79.143636,94.435418 C 79.194477,94.323014 79.229250,94.175423 79.247956,93.992645 C 79.266661,93.809867 79.262345,93.627333 79.235006,93.445044 C 79.207667,93.262755 79.154188,93.098547 79.074569,92.952423 C 78.994951,92.806298 78.881758,92.713198 78.734991,92.673124 C 78.715805,92.667259 78.693742,92.664327 78.668802,92.664327 "/>
        <path style="fill:none;stroke-width:0.280000;stroke-linecap:round;stroke-linejoin:round;stroke-opacity:1;stroke:#339966;" d="M 82.120418,94.932438 C 82.181810,95.042887 82.164544,95.135742 82.068617,95.211003 C 82.022573,95.244236 81.969574,95.255476 81.909620,95.244724 C 81.849666,95.233973 81.805780,95.203673 81.777961,95.153824 L 81.068587,94.011705 L 80.708864,94.011705 L 80.708864,95.043864 C 80.708864,95.128900 80.670973,95.190233 80.595191,95.227864 C 80.519409,95.265495 80.448424,95.258408 80.382235,95.206605 C 80.329476,95.166531 80.303096,95.112284 80.303096,95.043864 L 80.303096,92.453204 C 80.303096,92.396513 80.322521,92.348131 80.361371,92.308056 C 80.400221,92.267982 80.447944,92.247945 80.504541,92.247945 L 81.398093,92.247945 C 81.612968,92.247945 81.799544,92.317586 81.957823,92.456869 C 82.116101,92.596152 82.214425,92.772821 82.252796,92.986877 C 82.293085,93.216571 82.245361,93.431360 82.109626,93.631243 C 81.973890,93.831126 81.793789,93.952571 81.569322,93.995578 L 81.541983,93.999976 L 82.120418,94.932438 "/>
        <path style="fill:none;stroke-width:0.280000;stroke-linecap:round;stroke-linejoin:round;stroke-opacity:1;stroke:#339966;" d="M 81.398093,93.599721 C 81.495938,93.599721 81.586348,93.569421 81.669325,93.508821 C 81.752301,93.448221 81.808178,93.369049 81.836956,93.271307 C 81.882041,93.120784 81.861417,92.984678 81.775083,92.862988 C 81.688750,92.741299 81.569801,92.674101 81.418238,92.661395 L 80.708864,92.661395 L 80.708864,93.599721 L 81.398093,93.599721 "/>
        <path style="fill:none;stroke-width:0.280000;stroke-linecap:round;stroke-linejoin:round;stroke-opacity:1;stroke:#339966;" d="M 85.104681,95.048262 C 85.104681,95.150892 85.055999,95.216135 84.958634,95.243991 C 84.861268,95.271848 84.785727,95.242770 84.732008,95.156756 L 83.523338,93.181873 L 83.523338,95.048262 C 83.502234,95.185102 83.434366,95.253521 83.319735,95.253521 C 83.205103,95.253521 83.137715,95.185102 83.117570,95.048262 L 83.117570,92.459068 C 83.131959,92.357416 83.183040,92.290463 83.270812,92.258208 C 83.358585,92.225953 83.431728,92.256253 83.490243,92.349108 L 84.698913,94.326924 L 84.698913,92.459068 C 84.717139,92.319297 84.786926,92.250144 84.908272,92.251610 C 85.029619,92.253076 85.095089,92.322229 85.104681,92.459068 L 85.104681,95.048262 "/>
        <path style="fill:none;stroke-width:0.280000;stroke-linecap:round;stroke-linejoin:round;stroke-opacity:1;stroke:#339966;" d="M 88.733281,93.652502 L 88.756303,93.662765 L 88.782203,93.675960 L 88.805226,93.689155 C 88.811940,93.694043 88.819375,93.698685 88.827528,93.703084 C 88.835682,93.707482 88.843596,93.712125 88.851270,93.717012 C 89.041204,93.844077 89.158714,94.020013 89.203799,94.244821 C 89.221066,94.332789 89.224903,94.423200 89.215310,94.516055 C 89.199962,94.648985 89.154157,94.771896 89.077896,94.884788 C 89.001634,94.997681 88.905948,95.084916 88.790837,95.146493 C 88.667092,95.212958 88.539030,95.246191 88.406652,95.246191 C 88.184104,95.246191 87.971627,95.217112 87.769223,95.158956 C 87.566819,95.100799 87.422450,94.945144 87.336116,94.691992 C 87.324605,94.659737 87.315972,94.626504 87.310216,94.592294 C 87.304460,94.558085 87.297746,94.523875 87.290071,94.489665 C 87.275683,94.419291 87.292709,94.357224 87.341152,94.303466 C 87.389595,94.249708 87.449789,94.229182 87.521733,94.241888 C 87.597515,94.257527 87.650274,94.305421 87.680011,94.385569 L 87.684328,94.398765 C 87.730373,94.610866 87.810711,94.737442 87.925343,94.778494 C 88.039974,94.819545 88.199452,94.838116 88.403774,94.834207 C 88.591790,94.834207 88.720811,94.744284 88.790837,94.564438 C 88.821533,94.484289 88.826329,94.400964 88.805226,94.314462 C 88.784122,94.227960 88.742394,94.155875 88.680042,94.098207 C 88.652223,94.073771 88.615771,94.050802 88.570686,94.029299 L 87.904479,93.731673 L 87.882895,93.719944 C 87.665143,93.602653 87.529887,93.436003 87.477128,93.219992 C 87.412857,92.969772 87.457702,92.745209 87.611664,92.546303 C 87.765626,92.347398 87.967790,92.247945 88.218157,92.247945 L 88.376436,92.252343 C 88.428236,92.262117 88.478117,92.271647 88.526080,92.280933 C 88.574043,92.290218 88.622486,92.306102 88.671409,92.328582 C 88.792276,92.386250 88.884844,92.465422 88.949115,92.566096 C 89.013385,92.666771 89.071421,92.775753 89.123221,92.893044 C 89.128017,92.903796 89.132334,92.916502 89.136171,92.931164 C 89.146723,92.979057 89.141926,93.022553 89.121782,93.061650 C 89.110271,93.086085 89.098280,93.104656 89.085810,93.117363 C 89.073339,93.130069 89.063267,93.138866 89.055593,93.143753 C 89.005711,93.179918 88.951033,93.190670 88.891559,93.176008 C 88.832085,93.162324 88.786520,93.123227 88.754864,93.058717 C 88.729924,93.002027 88.703304,92.944115 88.675006,92.884980 C 88.646708,92.825846 88.607138,92.776731 88.556297,92.737634 C 88.535193,92.721995 88.514809,92.710510 88.495144,92.703180 C 88.475479,92.695849 88.453656,92.687785 88.429675,92.678988 L 88.336147,92.662861 L 88.203768,92.658463 C 88.075227,92.660417 87.976903,92.717108 87.908795,92.828534 C 87.862751,92.899886 87.845484,92.979546 87.856995,93.067514 C 87.870425,93.176008 87.920307,93.260067 88.006640,93.319689 C 88.010477,93.322622 88.014794,93.325798 88.019590,93.329219 C 88.024386,93.332640 88.029662,93.335817 88.035418,93.338749 L 88.051246,93.346080 L 88.068512,93.353411 L 88.733281,93.652502 "/>
        <path style="fill:none;stroke-width:0.280000;stroke-linecap:round;stroke-linejoin:round;stroke-opacity:1;stroke:#339966;" d="M 89.805544,95.048262 L 89.805544,92.456136 C 89.825688,92.315387 89.895714,92.246234 90.015622,92.248678 C 90.135530,92.251121 90.200760,92.320274 90.211312,92.456136 L 90.211312,93.425251 L 91.369620,93.425251 L 91.369620,92.456136 C 91.389765,92.318319 91.457633,92.249167 91.573224,92.248678 C 91.688815,92.248189 91.757162,92.317342 91.778266,92.456136 L 91.778266,95.048262 C 91.757162,95.186079 91.688815,95.254743 91.573224,95.254254 C 91.457633,95.253766 91.389765,95.185102 91.369620,95.048262 L 91.369620,93.841633 L 90.211312,93.841633 L 90.211312,95.048262 C 90.200760,95.183147 90.135530,95.251566 90.015622,95.253521 C 89.895714,95.255476 89.825688,95.187056 89.805544,95.048262 "/>
        <path style="fill:none;stroke-width:0.280000;stroke-linecap:round;stroke-linejoin:round;stroke-opacity:1;stroke:#339966;" d="M 94.109272,94.260948 L 94.109272,94.290271 C 94.106394,94.339142 94.104476,94.368465 94.103517,94.378239 C 94.063228,94.677330 93.942840,94.897984 93.742354,95.040199 C 93.541869,95.182414 93.327953,95.248879 93.100608,95.239593 C 92.873263,95.230307 92.665343,95.146005 92.476848,94.986685 C 92.288353,94.827365 92.185952,94.595227 92.169645,94.290271 L 92.169645,94.260948 L 92.169645,92.453204 C 92.169645,92.423881 92.174921,92.397491 92.185472,92.374032 C 92.231517,92.271403 92.308018,92.230840 92.414976,92.252343 C 92.521934,92.273847 92.575412,92.340800 92.575412,92.453204 L 92.575412,94.260948 C 92.589801,94.485755 92.686927,94.653872 92.866788,94.765298 C 93.046650,94.876725 93.235864,94.871838 93.434431,94.750637 C 93.523643,94.696879 93.589112,94.627482 93.630840,94.542446 C 93.672568,94.457410 93.697269,94.363577 93.704943,94.260948 L 93.704943,92.453204 C 93.704943,92.435610 93.705903,92.422415 93.707821,92.413618 C 93.729884,92.293395 93.802308,92.239148 93.925094,92.250877 C 94.047879,92.262606 94.109272,92.330048 94.109272,92.453204 L 94.109272,94.260948 "/>
        <path style="fill:none;stroke-width:0.280000;stroke-linecap:round;stroke-linejoin:round;stroke-opacity:1;stroke:#339966;" d="M 95.189881,95.045330 L 95.189881,92.661395 L 94.661807,92.661395 C 94.527510,92.650643 94.460602,92.581979 94.461081,92.455403 C 94.461561,92.328827 94.528470,92.259674 94.661807,92.247945 L 96.122283,92.247945 C 96.254661,92.258697 96.321090,92.327849 96.321570,92.455403 C 96.322049,92.582957 96.255621,92.651621 96.122283,92.661395 L 95.595648,92.661395 L 95.595648,95.045330 C 95.573585,95.184124 95.502840,95.252544 95.383412,95.250589 C 95.263984,95.248634 95.199473,95.180215 95.189881,95.045330 "/>
        <path style="fill:none;stroke-width:0.280000;stroke-linecap:round;stroke-linejoin:round;stroke-opacity:1;stroke:#339966;" d="M 101.022289,93.111498 C 101.110541,93.382245 101.143875,93.663254 101.122292,93.954526 C 101.100708,94.245798 101.022289,94.511657 100.887033,94.752103 C 100.801658,94.901649 100.685108,95.028714 100.537382,95.133298 C 100.389655,95.237883 100.226581,95.274536 100.048158,95.243258 C 99.757502,95.191455 99.534953,95.037022 99.380512,94.779960 C 99.226071,94.522897 99.137579,94.236757 99.115036,93.921538 C 99.092494,93.606319 99.134221,93.299164 99.240220,93.000072 C 99.346218,92.700981 99.515288,92.483504 99.747430,92.347642 C 99.860622,92.281177 99.979091,92.247945 100.102836,92.247945 C 100.338815,92.247945 100.531626,92.338601 100.681271,92.519913 C 100.830916,92.701225 100.944588,92.898420 101.022289,93.111498 "/>
        <path style="fill:none;stroke-width:0.280000;stroke-linecap:round;stroke-linejoin:round;stroke-opacity:1;stroke:#339966;" d="M 100.114347,92.664327 C 99.937843,92.664327 99.804266,92.761092 99.713616,92.954622 C 99.622965,93.148152 99.565649,93.313336 99.541668,93.450175 C 99.523442,93.549873 99.516727,93.670584 99.521523,93.812311 C 99.526320,93.954037 99.546464,94.094053 99.581957,94.232358 C 99.617450,94.370664 99.670689,94.495285 99.741674,94.606223 C 99.812659,94.717160 99.905708,94.790711 100.020819,94.826876 C 100.155116,94.869883 100.270947,94.842759 100.368312,94.745506 C 100.465677,94.648252 100.539300,94.544889 100.589182,94.435418 C 100.640023,94.323014 100.674796,94.175423 100.693502,93.992645 C 100.712207,93.809867 100.707891,93.627333 100.680552,93.445044 C 100.653213,93.262755 100.599734,93.098547 100.520115,92.952423 C 100.440496,92.806298 100.327303,92.713198 100.180536,92.673124 C 100.161351,92.667259 100.139288,92.664327 100.114347,92.664327 "/>
        <path style="fill:none;stroke-width:0.280000;stroke-linecap:round;stroke-linejoin:round;stroke-opacity:1;stroke:#339966;" d="M 101.508634,95.042398 L 101.508634,92.456136 C 101.525901,92.327116 101.594009,92.257719 101.712957,92.247945 L 103.105805,92.247945 C 103.239143,92.258697 103.305811,92.327849 103.305811,92.455403 C 103.305811,92.582957 103.238183,92.651132 103.102928,92.659929 L 101.912963,92.659929 L 101.912963,93.461905 L 102.841049,93.461905 C 102.973427,93.471679 103.040576,93.537655 103.042494,93.659833 C 103.044413,93.782011 102.977264,93.853363 102.841049,93.873888 L 101.912963,93.873888 L 101.912963,95.042398 C 101.903371,95.177282 101.838381,95.245702 101.717993,95.247657 C 101.597606,95.249612 101.527820,95.181192 101.508634,95.042398 "/>
        <path style="fill:none;stroke-width:0.280000;stroke-linecap:round;stroke-linejoin:round;stroke-opacity:1;stroke:#339966;" d="M 103.708701,95.042398 L 103.708701,92.456136 C 103.725968,92.327116 103.794076,92.257719 103.913024,92.247945 L 105.305872,92.247945 C 105.439210,92.258697 105.505878,92.327849 105.505878,92.455403 C 105.505878,92.582957 105.438251,92.651132 105.302995,92.659929 L 104.113030,92.659929 L 104.113030,93.461905 L 105.041116,93.461905 C 105.173494,93.471679 105.240643,93.537655 105.242561,93.659833 C 105.244480,93.782011 105.177331,93.853363 105.041116,93.873888 L 104.113030,93.873888 L 104.113030,95.042398 C 104.103438,95.177282 104.038448,95.245702 103.918060,95.247657 C 103.797673,95.249612 103.727887,95.181192 103.708701,95.042398 "/>
        <path style="fill:none;stroke-width:0.280000;stroke-linecap:round;stroke-linejoin:round;stroke-opacity:1;stroke:#339966;" d="M 121.083781,123.929723 L 121.071299,123.948094 C 121.068525,123.951862 121.066214,123.955159 121.064365,123.957985 C 121.062516,123.960811 121.060667,123.963638 121.058818,123.966464 C 120.932153,124.140745 120.765964,124.264862 120.560250,124.338814 C 120.354536,124.412766 120.151827,124.399341 119.952122,124.298541 C 119.720058,124.180783 119.549709,123.981066 119.441073,123.699389 C 119.332438,123.417713 119.285747,123.124967 119.301003,122.821152 C 119.316258,122.517337 119.394845,122.238251 119.536765,121.983895 C 119.678684,121.729538 119.884630,121.570330 120.154600,121.506269 C 120.309926,121.469529 120.464789,121.484837 120.619191,121.552195 C 120.773592,121.619552 120.900256,121.713994 120.999184,121.835520 C 121.000108,121.835520 121.002420,121.838817 121.006118,121.845412 C 121.048647,121.901935 121.057431,121.963876 121.032468,122.031233 C 121.007505,122.098591 120.961739,122.140748 120.895171,122.157705 C 120.823980,122.176546 120.758336,122.154879 120.698240,122.092703 C 120.574349,121.945741 120.455082,121.875087 120.340436,121.880739 C 120.225791,121.886391 120.123165,121.934436 120.032559,122.024874 C 119.941952,122.115312 119.866601,122.231186 119.806504,122.372495 C 119.746408,122.513804 119.709426,122.646164 119.695558,122.769574 C 119.678916,122.907115 119.680534,123.045363 119.700412,123.184317 C 119.720290,123.323271 119.762126,123.453982 119.825920,123.576450 C 119.936867,123.791240 120.076706,123.925720 120.245438,123.979888 C 120.414170,124.034057 120.578972,123.951862 120.739845,123.733303 C 120.747242,123.723883 120.756025,123.711636 120.766195,123.696563 C 120.853104,123.598589 120.944866,123.588461 121.041482,123.666182 C 121.138098,123.743902 121.152198,123.831749 121.083781,123.929723 "/>
        <path style="fill:none;stroke-width:0.280000;stroke-linecap:round;stroke-linejoin:round;stroke-opacity:1;stroke:#339966;" d="M 122.972652,123.453511 L 122.551053,122.266513 L 122.126682,123.453511 L 122.972652,123.453511 "/>
        <path style="fill:none;stroke-width:0.280000;stroke-linecap:round;stroke-linejoin:round;stroke-opacity:1;stroke:#339966;" d="M 122.551053,122.266513 L 122.972652,123.453511 L 122.551053,122.266513 "/>
        <path style="fill:none;stroke-width:0.280000;stroke-linecap:round;stroke-linejoin:round;stroke-opacity:1;stroke:#339966;" d="M 121.480416,124.109186 C 121.628345,123.693737 121.776505,123.278523 121.924897,122.863545 C 122.073288,122.448567 122.221911,122.033353 122.370765,121.617904 C 122.401275,121.532176 122.461834,121.488841 122.552440,121.487899 C 122.643047,121.486957 122.704068,121.530292 122.735503,121.617904 L 123.624465,124.116252 C 123.652201,124.249082 123.612445,124.334810 123.505197,124.373435 C 123.397948,124.412059 123.315200,124.372492 123.256953,124.254735 L 123.114109,123.850590 L 121.983837,123.850590 L 121.845154,124.244843 C 121.785982,124.363543 121.701847,124.402403 121.592750,124.361423 C 121.483652,124.320444 121.446207,124.236365 121.480416,124.109186 "/>
        <path style="fill:none;stroke-width:0.280000;stroke-linecap:round;stroke-linejoin:round;stroke-opacity:1;stroke:#339966;" d="M 125.085497,121.487899 L 125.111847,121.487899 C 125.230190,121.496378 125.339288,121.523697 125.439140,121.569858 C 125.630523,121.661238 125.765971,121.811497 125.845483,122.020635 C 125.924995,122.229773 125.924070,122.433729 125.842709,122.632504 C 125.777066,122.789829 125.679987,122.913003 125.551474,123.002028 C 125.422960,123.091053 125.276418,123.140747 125.111847,123.151109 L 125.085497,123.152522 L 124.411494,123.152522 L 124.411494,124.182667 C 124.394852,124.315498 124.329209,124.381913 124.214564,124.381913 C 124.099918,124.381913 124.034737,124.315498 124.019020,124.182667 L 124.019020,121.685732 C 124.032888,121.568916 124.093909,121.502972 124.202082,121.487899 L 124.214564,121.487899 L 125.085497,121.487899 "/>
        <path style="fill:none;stroke-width:0.280000;stroke-linecap:round;stroke-linejoin:round;stroke-opacity:1;stroke:#339966;" d="M 125.085497,121.886391 L 124.411494,121.886391 L 124.411494,122.752617 L 125.085497,122.752617 C 125.190896,122.752617 125.284045,122.716819 125.364944,122.645222 C 125.445843,122.573625 125.493227,122.484130 125.507095,122.376734 C 125.523737,122.246730 125.489528,122.132505 125.404469,122.034059 C 125.319410,121.935614 125.213086,121.886391 125.085497,121.886391 "/>
        <path style="fill:none;stroke-width:0.280000;stroke-linecap:round;stroke-linejoin:round;stroke-opacity:1;stroke:#339966;" d="M 127.114646,124.184080 L 127.114646,121.886391 L 126.605677,121.886391 C 126.476239,121.876029 126.411751,121.809849 126.412214,121.687852 C 126.412676,121.565855 126.477164,121.499204 126.605677,121.487899 L 128.013316,121.487899 C 128.140905,121.498262 128.204931,121.564913 128.205393,121.687852 C 128.205855,121.810791 128.141830,121.876971 128.013316,121.886391 L 127.505734,121.886391 L 127.505734,124.184080 C 127.484469,124.317853 127.416283,124.383797 127.301176,124.381913 C 127.186068,124.380029 127.123892,124.314085 127.114646,124.184080 "/>
        <path style="fill:none;stroke-width:0.280000;stroke-linecap:round;stroke-linejoin:round;stroke-opacity:1;stroke:#339966;" d="M 89.696324,97.381102 A 11.006454,11.006454 0 0,0 78.689870,108.387556 A 11.006454,11.006454 0 0,0 89.696324,119.394010 A 11.006454,11.006454 0 0,0 100.702778,108.387556 A 11.006454,11.006454 0 0,0 89.696324,97.381102 "/>
        <path style="fill:none;stroke-width:0.280000;stroke-linecap:round;stroke-linejoin:round;stroke-opacity:1;stroke:#339966;" d="M 89.668862,97.956181 A 10.441581,10.441581 0 0,0 79.227282,108.397761 A 10.441581,10.441581 0 0,0 89.668862,118.839342 A 10.441581,10.441581 0 0,0 100.110443,108.397761 A 10.441581,10.441581 0 0,0 89.668862,97.956181 "/>
        <path style="fill:none;stroke-width:0.280000;stroke-linecap:round;stroke-linejoin:round;stroke-opacity:1;stroke:#339966;" d="M 113.613057,94.737662 L 113.600636,94.755943 C 113.597876,94.759693 113.595575,94.762974 113.593735,94.765787 C 113.591895,94.768600 113.590055,94.771412 113.588215,94.774225 C 113.462162,94.947664 113.296776,95.071181 113.092056,95.144775 C 112.887336,95.218370 112.685607,95.205010 112.486867,95.104697 C 112.255925,94.987508 112.086398,94.788756 111.978288,94.508441 C 111.870177,94.228125 111.823712,93.936794 111.838894,93.634447 C 111.854075,93.332101 111.932283,93.054363 112.073517,92.801236 C 112.214751,92.548108 112.419701,92.389669 112.688367,92.325918 C 112.842942,92.289356 112.997057,92.304590 113.150712,92.371622 C 113.304367,92.438654 113.430419,92.532639 113.528869,92.653578 C 113.529789,92.653578 113.532089,92.656859 113.535770,92.663422 C 113.578094,92.719672 113.586834,92.781314 113.561992,92.848346 C 113.537150,92.915378 113.491605,92.957331 113.425359,92.974206 C 113.354512,92.992956 113.289185,92.971394 113.229380,92.909518 C 113.106088,92.763267 112.987396,92.692953 112.873305,92.698579 C 112.759214,92.704204 112.657084,92.752017 112.566915,92.842017 C 112.476746,92.932018 112.401759,93.047332 112.341953,93.187958 C 112.282147,93.328585 112.245344,93.460305 112.231542,93.583119 C 112.214981,93.719995 112.216591,93.857575 112.236373,93.995857 C 112.256155,94.134140 112.297789,94.264219 112.361275,94.386096 C 112.471686,94.599848 112.610849,94.733677 112.778766,94.787584 C 112.946682,94.841491 113.110688,94.759693 113.270784,94.542191 C 113.278144,94.532816 113.286885,94.520628 113.297006,94.505628 C 113.383495,94.408127 113.474814,94.398049 113.570963,94.475393 C 113.667112,94.552738 113.681144,94.640161 113.613057,94.737662 "/>
        <path style="fill:none;stroke-width:0.280000;stroke-linecap:round;stroke-linejoin:round;stroke-opacity:1;stroke:#339966;" d="M 115.492800,94.263751 L 115.073240,93.082489 L 114.650918,94.263751 L 115.492800,94.263751 "/>
        <path style="fill:none;stroke-width:0.280000;stroke-linecap:round;stroke-linejoin:round;stroke-opacity:1;stroke:#339966;" d="M 115.073240,93.082489 L 115.492800,94.263751 L 115.073240,93.082489 "/>
        <path style="fill:none;stroke-width:0.280000;stroke-linecap:round;stroke-linejoin:round;stroke-opacity:1;stroke:#339966;" d="M 114.007776,94.916257 C 114.154990,94.502816 114.302434,94.089608 114.450109,93.676635 C 114.597783,93.263662 114.745688,92.850455 114.893822,92.437013 C 114.924185,92.351700 114.984451,92.308575 115.074620,92.307637 C 115.164788,92.306700 115.225514,92.349825 115.256797,92.437013 L 116.141464,94.923289 C 116.169066,95.055477 116.129503,95.140791 116.022772,95.179229 C 115.916042,95.217667 115.833694,95.178291 115.775728,95.061102 L 115.633574,94.658911 L 114.508764,94.658911 L 114.370751,95.051259 C 114.311865,95.169385 114.228137,95.208057 114.119566,95.167275 C 114.010996,95.126494 113.973732,95.042821 114.007776,94.916257 "/>
        <path style="fill:none;stroke-width:0.280000;stroke-linecap:round;stroke-linejoin:round;stroke-opacity:1;stroke:#339966;" d="M 117.595436,92.307637 L 117.621658,92.307637 C 117.739430,92.316075 117.848000,92.343262 117.947370,92.389200 C 118.137828,92.480139 118.272622,92.629672 118.351749,92.837799 C 118.430877,93.045926 118.429957,93.248897 118.348989,93.446711 C 118.283663,93.603275 118.187053,93.725855 118.059161,93.814449 C 117.931268,93.903044 117.785434,93.952497 117.621658,93.962810 L 117.595436,93.964216 L 116.924690,93.964216 L 116.924690,94.989383 C 116.908129,95.121572 116.842802,95.187666 116.728711,95.187666 C 116.614620,95.187666 116.549754,95.121572 116.534112,94.989383 L 116.534112,92.504514 C 116.547913,92.388263 116.608639,92.322637 116.716290,92.307637 L 116.728711,92.307637 L 117.595436,92.307637 "/>
        <path style="fill:none;stroke-width:0.280000;stroke-linecap:round;stroke-linejoin:round;stroke-opacity:1;stroke:#339966;" d="M 117.595436,92.704204 L 116.924690,92.704204 L 116.924690,93.566244 L 117.595436,93.566244 C 117.700326,93.566244 117.793025,93.530618 117.873533,93.459367 C 117.954041,93.388117 118.001195,93.299053 118.014997,93.192177 C 118.031558,93.062801 117.997515,92.949128 117.912867,92.851158 C 117.828218,92.753188 117.722408,92.704204 117.595436,92.704204 "/>
        <path style="fill:none;stroke-width:0.280000;stroke-linecap:round;stroke-linejoin:round;stroke-opacity:1;stroke:#339966;" d="M 119.614780,94.990789 L 119.614780,92.704204 L 119.108270,92.704204 C 118.979458,92.693891 118.915281,92.628031 118.915741,92.506623 C 118.916201,92.385216 118.980378,92.318887 119.108270,92.307637 L 120.509107,92.307637 C 120.636079,92.317950 120.699795,92.384278 120.700255,92.506623 C 120.700716,92.628968 120.636999,92.694828 120.509107,92.704204 L 120.003978,92.704204 L 120.003978,94.990789 C 119.982815,95.123916 119.914959,95.189541 119.800408,95.187666 C 119.685857,95.185791 119.623980,95.120166 119.614780,94.990789 "/>
        <path style="fill:none;stroke-width:0.280000;stroke-linecap:round;stroke-linejoin:round;stroke-opacity:1;stroke:#339966;" d="M 127.826581,92.307637 L 127.852803,92.307637 C 127.970575,92.316075 128.079145,92.343262 128.178515,92.389200 C 128.368974,92.480139 128.503767,92.629672 128.582895,92.837799 C 128.662022,93.045926 128.661102,93.248897 128.580134,93.446711 C 128.514808,93.603275 128.418198,93.725855 128.290306,93.814449 C 128.162414,93.903044 128.016579,93.952497 127.852803,93.962810 L 127.826581,93.964216 L 127.155835,93.964216 L 127.155835,94.989383 C 127.139274,95.121572 127.073947,95.187666 126.959856,95.187666 C 126.845765,95.187666 126.780899,95.121572 126.765257,94.989383 L 126.765257,92.504514 C 126.779059,92.388263 126.839784,92.322637 126.947435,92.307637 L 126.959856,92.307637 L 127.826581,92.307637 "/>
        <path style="fill:none;stroke-width:0.280000;stroke-linecap:round;stroke-linejoin:round;stroke-opacity:1;stroke:#339966;" d="M 127.826581,92.704204 L 127.155835,92.704204 L 127.155835,93.566244 L 127.826581,93.566244 C 127.931471,93.566244 128.024170,93.530618 128.104678,93.459367 C 128.185186,93.388117 128.232340,93.299053 128.246142,93.192177 C 128.262703,93.062801 128.228660,92.949128 128.144012,92.851158 C 128.059363,92.753188 127.953553,92.704204 127.826581,92.704204 "/>
        <path style="fill:none;stroke-width:0.280000;stroke-linecap:round;stroke-linejoin:round;stroke-opacity:1;stroke:#339966;" d="M 130.893240,94.238438 L 130.893240,94.266563 C 130.890480,94.313439 130.888639,94.341564 130.887719,94.350939 C 130.849076,94.637817 130.733604,94.849460 130.541306,94.985867 C 130.349007,95.122275 130.143827,95.186026 129.925766,95.177119 C 129.707704,95.168213 129.508275,95.087353 129.327477,94.934539 C 129.146680,94.781725 129.048460,94.559066 129.032818,94.266563 L 129.032818,94.238438 L 129.032818,92.504514 C 129.032818,92.476389 129.037879,92.451076 129.048000,92.428576 C 129.092164,92.330137 129.165541,92.291231 129.268131,92.311856 C 129.370721,92.332481 129.422016,92.396700 129.422016,92.504514 L 129.422016,94.238438 C 129.435818,94.454065 129.528977,94.615317 129.701494,94.722193 C 129.874010,94.829069 130.055498,94.824381 130.245957,94.708130 C 130.331525,94.656567 130.394321,94.590004 130.434345,94.508441 C 130.474369,94.426877 130.498061,94.336876 130.505422,94.238438 L 130.505422,92.504514 C 130.505422,92.487639 130.506342,92.474982 130.508182,92.466545 C 130.529344,92.351231 130.598811,92.299199 130.716583,92.310450 C 130.834354,92.321700 130.893240,92.386388 130.893240,92.504514 L 130.893240,94.238438 "/>
        <path style="fill:none;stroke-width:0.280000;stroke-linecap:round;stroke-linejoin:round;stroke-opacity:1;stroke:#339966;" d="M 133.192820,94.882507 C 133.251706,94.988445 133.235144,95.077509 133.143135,95.149697 C 133.098971,95.181572 133.048136,95.192354 132.990631,95.182041 C 132.933125,95.171729 132.891031,95.142666 132.864348,95.094853 L 132.183942,93.999373 L 131.838908,93.999373 L 131.838908,94.989383 C 131.838908,95.070946 131.802565,95.129775 131.729878,95.165869 C 131.657190,95.201963 131.589104,95.195166 131.525618,95.145478 C 131.475013,95.107040 131.449710,95.055009 131.449710,94.989383 L 131.449710,92.504514 C 131.449710,92.450138 131.468342,92.403732 131.505606,92.365294 C 131.542869,92.326856 131.588644,92.307637 131.642929,92.307637 L 132.499993,92.307637 C 132.706093,92.307637 132.885050,92.374435 133.036865,92.508030 C 133.188680,92.641625 133.282989,92.811080 133.319793,93.016394 C 133.358436,93.236709 133.312662,93.442727 133.182469,93.634447 C 133.052277,93.826168 132.879530,93.942654 132.664229,93.983904 L 132.638006,93.988123 L 133.192820,94.882507 "/>
        <path style="fill:none;stroke-width:0.280000;stroke-linecap:round;stroke-linejoin:round;stroke-opacity:1;stroke:#339966;" d="M 132.499993,93.604213 C 132.593842,93.604213 132.680560,93.575150 132.760148,93.517024 C 132.839736,93.458899 132.893331,93.382960 132.920934,93.289209 C 132.964178,93.144833 132.944396,93.014285 132.861588,92.897565 C 132.778780,92.780845 132.664689,92.716391 132.519315,92.704204 L 131.838908,92.704204 L 131.838908,93.604213 L 132.499993,93.604213 "/>
        <path style="fill:none;stroke-width:0.280000;stroke-linecap:round;stroke-linejoin:round;stroke-opacity:1;stroke:#339966;" d="M 135.200226,93.654838 L 135.222308,93.664682 L 135.247151,93.677338 L 135.269233,93.689995 C 135.275673,93.694682 135.282804,93.699136 135.290625,93.703354 C 135.298446,93.707573 135.306036,93.712026 135.313397,93.716714 C 135.495575,93.838590 135.608286,94.007342 135.651530,94.222969 C 135.668092,94.307345 135.671772,94.394064 135.662571,94.483128 C 135.647850,94.610629 135.603916,94.728521 135.530768,94.836803 C 135.457621,94.945086 135.365842,95.028758 135.255432,95.087821 C 135.136740,95.151572 135.013908,95.183447 134.886936,95.183447 C 134.673475,95.183447 134.469675,95.155557 134.275536,95.099775 C 134.081397,95.043993 133.942923,94.894695 133.860115,94.651880 C 133.849074,94.620942 133.840793,94.589066 133.835273,94.556254 C 133.829752,94.523441 133.823312,94.490628 133.815951,94.457815 C 133.802150,94.390314 133.818481,94.330783 133.864946,94.279220 C 133.911410,94.227657 133.969146,94.207969 134.038153,94.220156 C 134.110840,94.235157 134.161445,94.281095 134.189968,94.357970 L 134.194108,94.370627 C 134.238272,94.574066 134.315330,94.695474 134.425281,94.734849 C 134.535231,94.774225 134.688196,94.792037 134.884175,94.788287 C 135.064513,94.788287 135.188265,94.702036 135.255432,94.529535 C 135.284874,94.452659 135.289475,94.372736 135.269233,94.289767 C 135.248991,94.206797 135.208967,94.137656 135.149161,94.082343 C 135.122479,94.058905 135.087515,94.036873 135.044271,94.016248 L 134.405269,93.730776 L 134.384567,93.719526 C 134.175706,93.607025 134.045974,93.447180 133.995369,93.239990 C 133.933723,92.999988 133.976737,92.784595 134.124411,92.593812 C 134.272086,92.403029 134.465994,92.307637 134.706138,92.307637 L 134.857953,92.311856 C 134.907638,92.321231 134.955482,92.330372 135.001487,92.339278 C 135.047491,92.348184 135.093956,92.363419 135.140880,92.384982 C 135.256812,92.440295 135.345600,92.516233 135.407246,92.612796 C 135.468892,92.709360 135.524558,92.813892 135.574243,92.926393 C 135.578843,92.936706 135.582983,92.948894 135.586664,92.962956 C 135.596785,93.008894 135.592184,93.050613 135.572862,93.088114 C 135.561821,93.111551 135.550320,93.129364 135.538359,93.141552 C 135.526398,93.153739 135.516737,93.162177 135.509376,93.166865 C 135.461532,93.201552 135.409086,93.211865 135.352041,93.197802 C 135.294995,93.184677 135.251291,93.147177 135.220928,93.085301 C 135.197006,93.030926 135.171473,92.975378 135.144331,92.918659 C 135.117188,92.861940 135.079234,92.814830 135.030470,92.777329 C 135.010228,92.762329 134.990676,92.751313 134.971814,92.744282 C 134.952952,92.737251 134.932020,92.729516 134.909018,92.721079 L 134.819309,92.705610 L 134.692337,92.701391 C 134.569045,92.703266 134.474735,92.757642 134.409409,92.864518 C 134.365245,92.932956 134.348683,93.009363 134.359724,93.093739 C 134.372605,93.197802 134.420450,93.278428 134.503258,93.335616 C 134.506938,93.338429 134.511079,93.341476 134.515679,93.344757 C 134.520280,93.348038 134.525340,93.351085 134.530861,93.353898 L 134.546042,93.360929 L 134.562604,93.367960 L 135.200226,93.654838 "/>
        <path style="fill:none;stroke-width:0.280000;stroke-linecap:round;stroke-linejoin:round;stroke-opacity:1;stroke:#339966;" d="M 124.178122,95.169499 L 123.092205,94.036538 C 122.957608,93.895408 122.852088,93.744151 122.775642,93.582766 C 122.699197,93.421381 122.660974,93.253789 122.660974,93.079990 C 122.660974,92.830399 122.727619,92.637325 122.860908,92.500769 C 122.994198,92.364212 123.182371,92.295934 123.425428,92.295934 C 123.667179,92.295934 123.854372,92.361599 123.987008,92.492928 C 124.119644,92.624258 124.185963,92.810144 124.185963,93.050588 L 124.185963,93.089791 L 123.786094,93.089791 L 123.786094,93.050588 C 123.786094,92.934286 123.754732,92.844447 123.692007,92.781069 C 123.629283,92.717691 123.540423,92.686002 123.425428,92.686002 C 123.310434,92.686002 123.220920,92.720305 123.156889,92.788909 C 123.092858,92.857514 123.060842,92.954541 123.060842,93.079990 C 123.060842,93.194985 123.088611,93.313900 123.144148,93.436736 C 123.199686,93.559571 123.279071,93.675219 123.382305,93.783680 L 124.685798,95.169499 L 124.178122,95.169499 "/>
        <path style="fill:none;stroke-width:0.280000;stroke-linecap:round;stroke-linejoin:round;stroke-opacity:1;stroke:#339966;" d="M 123.282338,93.916970 C 123.120300,93.916970 122.994524,93.957479 122.905011,94.038498 C 122.815498,94.119517 122.770742,94.233859 122.770742,94.381523 C 122.770742,94.526573 122.818112,94.639281 122.912852,94.719647 C 123.007592,94.800013 123.141208,94.840195 123.313700,94.840195 C 123.560678,94.840195 123.752118,94.742842 123.888021,94.548135 C 124.023924,94.353427 124.091876,94.079008 124.091876,93.724876 L 124.472143,93.724876 C 124.472143,94.037192 124.423139,94.303117 124.325132,94.522653 C 124.227125,94.742188 124.085342,94.909780 123.899782,95.025429 C 123.714222,95.141077 123.489460,95.198901 123.225494,95.198901 C 122.957608,95.198901 122.750160,95.127683 122.603150,94.985246 C 122.456139,94.842809 122.382634,94.641568 122.382634,94.381523 C 122.382634,94.147613 122.446992,93.960746 122.575708,93.820923 C 122.704424,93.681100 122.885083,93.600734 123.117686,93.579826 L 123.282338,93.916970 "/>
        <path style="fill:none;stroke-width:0.280000;stroke-linecap:round;stroke-linejoin:round;stroke-opacity:1;stroke:#339966;" d="M 123.001789,97.393546 A 11.006454,11.006454 0 0,0 111.995335,108.400000 A 11.006454,11.006454 0 0,0 123.001789,119.406454 A 11.006454,11.006454 0 0,0 134.008243,108.400000 A 11.006454,11.006454 0 0,0 123.001789,97.393546 "/>
        <path style="fill:none;stroke-width:0.280000;stroke-linecap:round;stroke-linejoin:round;stroke-opacity:1;stroke:#339966;" d="M 122.974327,97.968625 A 10.441581,10.441581 0 0,0 112.532747,108.410205 A 10.441581,10.441581 0 0,0 122.974327,118.851786 A 10.441581,10.441581 0 0,0 133.415908,108.410205 A 10.441581,10.441581 0 0,0 122.974327,97.968625 "/>
    </g>
    <g inkscape:groupmode="layer" id="abb0eef1-77ef-465b-b55c-ee9ff62fe786" inkscape:label="_BackPanel" style="stroke:#0000ff;">
        <path style="fill:none;stroke-width:0.280000;stroke-linecap:round;stroke-linejoin:round;stroke-opacity:1;stroke:#0000ff;" d="M 45.851022,97.175002 L 66.946584,97.175002 C 67.515664,97.175002 67.973803,97.633261 67.973803,98.202501 L 67.973803,119.297499 C 67.973803,119.866739 67.515664,120.324998 66.946584,120.324998 L 45.851022,120.324998 C 45.281943,120.324998 44.823803,119.866739 44.823803,119.297499 L 44.823803,98.202501 C 44.823803,97.633261 45.281943,97.175002 45.851022,97.175002 "/>
        <path style="fill:none;stroke-width:0.280000;stroke-linecap:round;stroke-linejoin:round;stroke-opacity:1;stroke:#0000ff;" d="M 6.251789,81.108696 L 6.251789,85.836957 L 6.251789,95.293478 L 6.251789,114.206522 L 6.251789,118.934783 L 6.251789,128.391304 L 151.251789,128.391304 L 151.251789,118.934783 L 151.251789,114.206522 L 151.251789,95.293478 L 151.251789,85.836957 L 151.251789,81.108696 L 6.251789,81.108696 "/>
        <path style="fill:none;stroke-width:0.280000;stroke-linecap:round;stroke-linejoin:round;stroke-opacity:1;stroke:#0000ff;" d="M 10.616619,97.253510 A 2.488170,2.488170 0 0,0 13.104789,94.765340 A 2.488170,2.488170 0 0,0 10.616619,92.277170 A 2.488170,2.488170 0 0,0 8.128449,94.765340 A 2.488170,2.488170 0 0,0 10.616619,97.253510 "/>
        <path style="fill:none;stroke-width:0.280000;stroke-linecap:round;stroke-linejoin:round;stroke-opacity:1;stroke:#0000ff;" d="M 146.887739,116.763330 A 2.488170,2.488170 0 0,0 149.375909,114.275160 A 2.488170,2.488170 0 0,0 146.887739,111.786990 A 2.488170,2.488170 0 0,0 144.399569,114.275160 A 2.488170,2.488170 0 0,0 146.887739,116.763330 "/>
        <path style="fill:none;stroke-width:0.280000;stroke-linecap:round;stroke-linejoin:round;stroke-opacity:1;stroke:#0000ff;" d="M 89.679756,102.300000 A 5.950000,5.950000 0 0,0 83.729755,108.250000 A 5.950000,5.950000 0 0,0 89.679756,114.200000 A 5.950000,5.950000 0 0,0 95.629756,108.250000 A 5.950000,5.950000 0 0,0 89.679756,102.300000 "/>
        <path style="fill:none;stroke-width:0.280000;stroke-linecap:round;stroke-linejoin:round;stroke-opacity:1;stroke:#0000ff;" d="M 122.985221,102.312444 A 5.950000,5.950000 0 0,0 117.035220,108.262444 A 5.950000,5.950000 0 0,0 122.985221,114.212444 A 5.950000,5.950000 0 0,0 128.935221,108.262444 A 5.950000,5.950000 0 0,0 122.985221,102.312444 "/>
    </g>
</svg>
