<?xml version="1.0" encoding="UTF-8"?>
<!-- Created by Vectric (http://www.vectric.com/) -->
<svg width="1800.00000000mm" height="700.00000000mm" viewBox="0.00000000 0.00000000 1800.00000000 700.00000000" id="svg2" version="1.1" xmlns="http://www.w3.org/2000/svg" xmlns:xlink="http://www.w3.org/1999/xlink" xmlns:inkscape="http://www.inkscape.org/namespaces/inkscape">
    <g inkscape:groupmode="layer" id="85667243-1302-4a85-b3ac-c7bf39b332ec" inkscape:label="Toolpath Previews" style="stroke:#000000;"/>
    <g inkscape:groupmode="layer" id="f214414e-ab3c-47f2-be51-63dc126dd18d" inkscape:label="Images" style="stroke:#000000;"/>
    <g inkscape:groupmode="layer" id="f131e4f8-88bf-4ff8-82ae-e609d563f43b" inkscape:label="_Engraving" style="stroke:#339966;"/>
    <g inkscape:groupmode="layer" id="abb0eef1-77ef-465b-b55c-ee9ff62fe786" inkscape:label="_BackPanel" style="stroke:#0000ff;">
        <path style="fill:none;stroke-width:0.280000;stroke-linecap:round;stroke-linejoin:round;stroke-opacity:1;stroke:#0000ff;" d="M 218.838744,23.613630 A 2.488170,2.488170 0 0,0 221.326914,21.125460 A 2.488170,2.488170 0 0,0 218.838744,18.637290 A 2.488170,2.488170 0 0,0 216.350574,21.125460 A 2.488170,2.488170 0 0,0 218.838744,23.613630 "/>
        <path style="fill:none;stroke-width:0.280000;stroke-linecap:round;stroke-linejoin:round;stroke-opacity:1;stroke:#0000ff;" d="M 214.370443,14.406952 L 214.370443,15.765574 L 214.370443,18.482819 L 214.370443,23.917308 L 214.370443,25.275930 L 214.370443,27.996952 L 359.370443,27.996952 L 359.370443,25.275930 L 359.370443,23.917308 L 359.370443,18.482819 L 359.370443,15.765574 L 359.370443,14.406952 L 214.370443,14.406952 "/>
        <path style="fill:none;stroke-width:0.280000;stroke-linecap:round;stroke-linejoin:round;stroke-opacity:1;stroke:#0000ff;" d="M 354.731992,23.619917 A 2.488170,2.488170 0 0,0 357.220162,21.131747 A 2.488170,2.488170 0 0,0 354.731992,18.643577 A 2.488170,2.488170 0 0,0 352.243822,21.131747 A 2.488170,2.488170 0 0,0 354.731992,23.619917 "/>
        <path style="fill:none;stroke-width:0.280000;stroke-linecap:round;stroke-linejoin:round;stroke-opacity:1;stroke:#0000ff;" d="M 838.214689,221.848189 C 838.214689,220.474011 839.328681,219.360020 840.702859,219.360020 C 842.077038,219.360020 843.191029,220.474011 843.191029,221.848189 C 843.191029,223.222368 842.077038,224.336359 840.702859,224.336359 C 839.328681,224.336359 838.214689,223.222368 838.214689,221.848189 "/>
        <path style="fill:none;stroke-width:0.280000;stroke-linecap:round;stroke-linejoin:round;stroke-opacity:1;stroke:#0000ff;" d="M 838.214689,277.985784 C 838.214689,276.611606 839.328681,275.497615 840.702859,275.497615 C 842.077038,275.497615 843.191029,276.611606 843.191029,277.985784 C 843.191029,279.359963 842.077038,280.473954 840.702859,280.473954 C 839.328681,280.473954 838.214689,279.359963 838.214689,277.985784 "/>
        <path style="fill:none;stroke-width:0.280000;stroke-linecap:round;stroke-linejoin:round;stroke-opacity:1;stroke:#0000ff;" d="M 701.571450,278.009674 C 701.571450,276.635495 702.685441,275.521504 704.059620,275.521504 C 705.433798,275.521504 706.547790,276.635495 706.547790,278.009674 C 706.547790,279.383852 705.433798,280.497843 704.059620,280.497843 C 702.685441,280.497843 701.571450,279.383852 701.571450,278.009674 "/>
        <path style="fill:none;stroke-width:0.280000;stroke-linecap:round;stroke-linejoin:round;stroke-opacity:1;stroke:#0000ff;" d="M 701.571450,221.858645 C 701.571450,220.484466 702.685441,219.370475 704.059620,219.370475 C 705.433798,219.370475 706.547790,220.484466 706.547790,221.858645 C 706.547790,223.232823 705.433798,224.346814 704.059620,224.346814 C 702.685441,224.346814 701.571450,223.232823 701.571450,221.858645 "/>
        <path style="fill:none;stroke-width:0.280000;stroke-linecap:round;stroke-linejoin:round;stroke-opacity:1;stroke:#0000ff;" d="M 375.586274,23.372598 A 2.488170,2.488170 0 0,0 378.074444,20.884428 A 2.488170,2.488170 0 0,0 375.586274,18.396258 A 2.488170,2.488170 0 0,0 373.098104,20.884428 A 2.488170,2.488170 0 0,0 375.586274,23.372598 "/>
        <path style="fill:none;stroke-width:0.280000;stroke-linecap:round;stroke-linejoin:round;stroke-opacity:1;stroke:#0000ff;" d="M 369.359319,14.446949 L 369.359319,18.751936 L 369.359319,27.361909 L 369.359319,44.581857 L 369.359319,48.886844 L 369.359319,57.496818 L 691.691705,57.496818 L 691.691705,48.886844 L 691.691705,44.581857 L 691.691705,27.361909 L 691.691705,18.751936 L 691.691705,14.446949 L 369.359319,14.446949 "/>
        <path style="fill:none;stroke-width:0.280000;stroke-linecap:round;stroke-linejoin:round;stroke-opacity:1;stroke:#0000ff;" d="M 375.650132,53.694954 A 2.488170,2.488170 0 0,0 378.138302,51.206784 A 2.488170,2.488170 0 0,0 375.650132,48.718614 A 2.488170,2.488170 0 0,0 373.161962,51.206784 A 2.488170,2.488170 0 0,0 375.650132,53.694954 "/>
        <path style="fill:none;stroke-width:0.280000;stroke-linecap:round;stroke-linejoin:round;stroke-opacity:1;stroke:#0000ff;" d="M 685.073727,23.352080 A 2.488170,2.488170 0 0,0 687.561897,20.863910 A 2.488170,2.488170 0 0,0 685.073727,18.375740 A 2.488170,2.488170 0 0,0 682.585557,20.863910 A 2.488170,2.488170 0 0,0 685.073727,23.352080 "/>
        <path style="fill:none;stroke-width:0.280000;stroke-linecap:round;stroke-linejoin:round;stroke-opacity:1;stroke:#0000ff;" d="M 685.137585,53.086427 A 2.488170,2.488170 0 0,0 687.625755,50.598257 A 2.488170,2.488170 0 0,0 685.137585,48.110087 A 2.488170,2.488170 0 0,0 682.649415,50.598257 A 2.488170,2.488170 0 0,0 685.137585,53.086427 "/>
        <path style="fill:none;stroke-width:0.280000;stroke-linecap:round;stroke-linejoin:round;stroke-opacity:1;stroke:#0000ff;" d="M 844.559620,264.784299 L 844.559620,270.142889 L 844.559620,281.808069 L 844.559620,291.796630 L 699.559640,291.796630 L 699.559640,281.808069 L 699.559640,268.654199 L 699.559640,265.254497 L 699.559640,254.388092 L 699.559640,236.201793 L 699.559640,233.197380 L 699.559640,223.208819 L 699.559640,213.220259 L 699.559640,208.225978 L 844.559620,208.225978 L 844.559620,213.220259 L 844.559620,223.208819 L 844.559620,233.197380 L 844.559620,237.095007 L 844.559620,253.917894 L 844.559620,264.784299 "/>
    </g>
    <g inkscape:groupmode="layer" id="351031d5-fbd6-459c-85b6-2a8c7c3aa8e6" inkscape:label="Layer 1" style="stroke:#000000;"/>
    <g inkscape:groupmode="layer" id="be255d8d-e31f-4306-9488-3358e355402e" inkscape:label="Import - a320_legends2.pdf" style="stroke:#000000;"/>
</svg>
