%TF.GenerationSoftware,KiCad,Pcbnew,9.0.2*%
%TF.CreationDate,2025-07-16T22:26:27+02:00*%
%TF.ProjectId,flt-ctl-fo,666c742d-6374-46c2-9d66-6f2e6b696361,rev?*%
%TF.SameCoordinates,Original*%
%TF.FileFunction,Soldermask,Bot*%
%TF.FilePolarity,Negative*%
%FSLAX46Y46*%
G04 Gerber Fmt 4.6, Leading zero omitted, Abs format (unit mm)*
G04 Created by KiCad (PCBNEW 9.0.2) date 2025-07-16 22:26:27*
%MOMM*%
%LPD*%
G01*
G04 APERTURE LIST*
%ADD10R,3.000000X3.000000*%
%ADD11C,3.000000*%
%ADD12R,1.500000X1.500000*%
%ADD13R,1.700000X1.700000*%
%ADD14C,1.700000*%
G04 APERTURE END LIST*
D10*
%TO.C,J3*%
X84540000Y-119600000D03*
D11*
X79460000Y-119600000D03*
%TD*%
D12*
%TO.C,KR1*%
X107375000Y-98275000D03*
X107375000Y-100815000D03*
X107375000Y-103355000D03*
X107375000Y-105895000D03*
X91675000Y-102775000D03*
X91675000Y-105315000D03*
%TD*%
%TO.C,KR4*%
X199200000Y-98250000D03*
X199200000Y-100790000D03*
X199200000Y-103330000D03*
X199200000Y-105870000D03*
X183500000Y-102750000D03*
X183500000Y-105290000D03*
%TD*%
%TO.C,KR3*%
X168375000Y-98225000D03*
X168375000Y-100765000D03*
X168375000Y-103305000D03*
X168375000Y-105845000D03*
X152675000Y-102725000D03*
X152675000Y-105265000D03*
%TD*%
%TO.C,KR2*%
X137900000Y-98225000D03*
X137900000Y-100765000D03*
X137900000Y-103305000D03*
X137900000Y-105845000D03*
X122200000Y-102725000D03*
X122200000Y-105265000D03*
%TD*%
D10*
%TO.C,J1*%
X83010000Y-80325000D03*
D11*
X88090000Y-80325000D03*
%TD*%
D13*
%TO.C,J2*%
X213610000Y-83075000D03*
D14*
X213610000Y-80535000D03*
X211070000Y-83075000D03*
X211070000Y-80535000D03*
X208530000Y-83075000D03*
X208530000Y-80535000D03*
X205990000Y-83075000D03*
X205990000Y-80535000D03*
X203450000Y-83075000D03*
X203450000Y-80535000D03*
X200910000Y-83075000D03*
X200910000Y-80535000D03*
X198370000Y-83075000D03*
X198370000Y-80535000D03*
X195830000Y-83075000D03*
X195830000Y-80535000D03*
X193290000Y-83075000D03*
X193290000Y-80535000D03*
X190750000Y-83075000D03*
X190750000Y-80535000D03*
X188210000Y-83075000D03*
X188210000Y-80535000D03*
X185670000Y-83075000D03*
X185670000Y-80535000D03*
X183130000Y-83075000D03*
X183130000Y-80535000D03*
X180590000Y-83075000D03*
X180590000Y-80535000D03*
X178050000Y-83075000D03*
X178050000Y-80535000D03*
X175510000Y-83075000D03*
X175510000Y-80535000D03*
X172970000Y-83075000D03*
X172970000Y-80535000D03*
X170430000Y-83075000D03*
X170430000Y-80535000D03*
X167890000Y-83075000D03*
X167890000Y-80535000D03*
X165350000Y-83075000D03*
X165350000Y-80535000D03*
%TD*%
M02*
