%TF.GenerationSoftware,KiCad,Pcbnew,9.0.2*%
%TF.CreationDate,2025-07-16T22:26:27+02:00*%
%TF.ProjectId,flt-ctl-fo,666c742d-6374-46c2-9d66-6f2e6b696361,rev?*%
%TF.SameCoordinates,Original*%
%TF.FileFunction,Copper,L2,Bot*%
%TF.FilePolarity,Positive*%
%FSLAX46Y46*%
G04 Gerber Fmt 4.6, Leading zero omitted, Abs format (unit mm)*
G04 Created by KiCad (PCBNEW 9.0.2) date 2025-07-16 22:26:27*
%MOMM*%
%LPD*%
G01*
G04 APERTURE LIST*
%TA.AperFunction,ComponentPad*%
%ADD10R,3.000000X3.000000*%
%TD*%
%TA.AperFunction,ComponentPad*%
%ADD11C,3.000000*%
%TD*%
%TA.AperFunction,ComponentPad*%
%ADD12R,1.500000X1.500000*%
%TD*%
%TA.AperFunction,ComponentPad*%
%ADD13R,1.700000X1.700000*%
%TD*%
%TA.AperFunction,ComponentPad*%
%ADD14C,1.700000*%
%TD*%
%TA.AperFunction,ViaPad*%
%ADD15C,0.600000*%
%TD*%
%TA.AperFunction,Conductor*%
%ADD16C,0.400000*%
%TD*%
%TA.AperFunction,Conductor*%
%ADD17C,0.600000*%
%TD*%
G04 APERTURE END LIST*
D10*
%TO.P,J3,1,Pin_1*%
%TO.N,GND*%
X84540000Y-119600000D03*
D11*
%TO.P,J3,2,Pin_2*%
%TO.N,+12V*%
X79460000Y-119600000D03*
%TD*%
D12*
%TO.P,KR1,1,+5V_TOP_LED*%
%TO.N,Net-(J2-Pin_1)*%
X107375000Y-98275000D03*
%TO.P,KR1,2,GND_TOP_LED*%
%TO.N,GND*%
X107375000Y-100815000D03*
%TO.P,KR1,3,+5V_BOTTOM_LED*%
%TO.N,Net-(J2-Pin_2)*%
X107375000Y-103355000D03*
%TO.P,KR1,4,GND_BOTTOM_LED*%
%TO.N,GND*%
X107375000Y-105895000D03*
%TO.P,KR1,5,SW_IN*%
%TO.N,Net-(J2-Pin_3)*%
X91675000Y-102775000D03*
%TO.P,KR1,6,SW_OUT*%
%TO.N,GND*%
X91675000Y-105315000D03*
%TD*%
%TO.P,KR4,1,+5V_TOP_LED*%
%TO.N,Net-(J2-Pin_10)*%
X199200000Y-98250000D03*
%TO.P,KR4,2,GND_TOP_LED*%
%TO.N,GND*%
X199200000Y-100790000D03*
%TO.P,KR4,3,+5V_BOTTOM_LED*%
%TO.N,Net-(J2-Pin_11)*%
X199200000Y-103330000D03*
%TO.P,KR4,4,GND_BOTTOM_LED*%
%TO.N,GND*%
X199200000Y-105870000D03*
%TO.P,KR4,5,SW_IN*%
%TO.N,Net-(J2-Pin_12)*%
X183500000Y-102750000D03*
%TO.P,KR4,6,SW_OUT*%
%TO.N,GND*%
X183500000Y-105290000D03*
%TD*%
%TO.P,KR3,1,+5V_TOP_LED*%
%TO.N,Net-(J2-Pin_7)*%
X168375000Y-98225000D03*
%TO.P,KR3,2,GND_TOP_LED*%
%TO.N,GND*%
X168375000Y-100765000D03*
%TO.P,KR3,3,+5V_BOTTOM_LED*%
%TO.N,Net-(J2-Pin_8)*%
X168375000Y-103305000D03*
%TO.P,KR3,4,GND_BOTTOM_LED*%
%TO.N,GND*%
X168375000Y-105845000D03*
%TO.P,KR3,5,SW_IN*%
%TO.N,Net-(J2-Pin_9)*%
X152675000Y-102725000D03*
%TO.P,KR3,6,SW_OUT*%
%TO.N,GND*%
X152675000Y-105265000D03*
%TD*%
%TO.P,KR2,1,+5V_TOP_LED*%
%TO.N,Net-(J2-Pin_4)*%
X137900000Y-98225000D03*
%TO.P,KR2,2,GND_TOP_LED*%
%TO.N,GND*%
X137900000Y-100765000D03*
%TO.P,KR2,3,+5V_BOTTOM_LED*%
%TO.N,Net-(J2-Pin_5)*%
X137900000Y-103305000D03*
%TO.P,KR2,4,GND_BOTTOM_LED*%
%TO.N,GND*%
X137900000Y-105845000D03*
%TO.P,KR2,5,SW_IN*%
%TO.N,Net-(J2-Pin_6)*%
X122200000Y-102725000D03*
%TO.P,KR2,6,SW_OUT*%
%TO.N,GND*%
X122200000Y-105265000D03*
%TD*%
D10*
%TO.P,J1,1,Pin_1*%
%TO.N,GND*%
X83010000Y-80325000D03*
D11*
%TO.P,J1,2,Pin_2*%
%TO.N,+12V*%
X88090000Y-80325000D03*
%TD*%
D13*
%TO.P,J2,1,Pin_1*%
%TO.N,Net-(J2-Pin_1)*%
X213610000Y-83075000D03*
D14*
%TO.P,J2,2,Pin_2*%
%TO.N,Net-(J2-Pin_2)*%
X213610000Y-80535000D03*
%TO.P,J2,3,Pin_3*%
%TO.N,Net-(J2-Pin_3)*%
X211070000Y-83075000D03*
%TO.P,J2,4,Pin_4*%
%TO.N,Net-(J2-Pin_4)*%
X211070000Y-80535000D03*
%TO.P,J2,5,Pin_5*%
%TO.N,Net-(J2-Pin_5)*%
X208530000Y-83075000D03*
%TO.P,J2,6,Pin_6*%
%TO.N,Net-(J2-Pin_6)*%
X208530000Y-80535000D03*
%TO.P,J2,7,Pin_7*%
%TO.N,Net-(J2-Pin_7)*%
X205990000Y-83075000D03*
%TO.P,J2,8,Pin_8*%
%TO.N,Net-(J2-Pin_8)*%
X205990000Y-80535000D03*
%TO.P,J2,9,Pin_9*%
%TO.N,Net-(J2-Pin_9)*%
X203450000Y-83075000D03*
%TO.P,J2,10,Pin_10*%
%TO.N,Net-(J2-Pin_10)*%
X203450000Y-80535000D03*
%TO.P,J2,11,Pin_11*%
%TO.N,Net-(J2-Pin_11)*%
X200910000Y-83075000D03*
%TO.P,J2,12,Pin_12*%
%TO.N,Net-(J2-Pin_12)*%
X200910000Y-80535000D03*
%TO.P,J2,13,Pin_13*%
%TO.N,unconnected-(J2-Pin_13-Pad13)*%
X198370000Y-83075000D03*
%TO.P,J2,14,Pin_14*%
%TO.N,unconnected-(J2-Pin_14-Pad14)*%
X198370000Y-80535000D03*
%TO.P,J2,15,Pin_15*%
%TO.N,unconnected-(J2-Pin_15-Pad15)*%
X195830000Y-83075000D03*
%TO.P,J2,16,Pin_16*%
%TO.N,unconnected-(J2-Pin_16-Pad16)*%
X195830000Y-80535000D03*
%TO.P,J2,17,Pin_17*%
%TO.N,unconnected-(J2-Pin_17-Pad17)*%
X193290000Y-83075000D03*
%TO.P,J2,18,Pin_18*%
%TO.N,unconnected-(J2-Pin_18-Pad18)*%
X193290000Y-80535000D03*
%TO.P,J2,19,Pin_19*%
%TO.N,unconnected-(J2-Pin_19-Pad19)*%
X190750000Y-83075000D03*
%TO.P,J2,20,Pin_20*%
%TO.N,unconnected-(J2-Pin_20-Pad20)*%
X190750000Y-80535000D03*
%TO.P,J2,21,Pin_21*%
%TO.N,unconnected-(J2-Pin_21-Pad21)*%
X188210000Y-83075000D03*
%TO.P,J2,22,Pin_22*%
%TO.N,unconnected-(J2-Pin_22-Pad22)*%
X188210000Y-80535000D03*
%TO.P,J2,23,Pin_23*%
%TO.N,unconnected-(J2-Pin_23-Pad23)*%
X185670000Y-83075000D03*
%TO.P,J2,24,Pin_24*%
%TO.N,unconnected-(J2-Pin_24-Pad24)*%
X185670000Y-80535000D03*
%TO.P,J2,25,Pin_25*%
%TO.N,unconnected-(J2-Pin_25-Pad25)*%
X183130000Y-83075000D03*
%TO.P,J2,26,Pin_26*%
%TO.N,unconnected-(J2-Pin_26-Pad26)*%
X183130000Y-80535000D03*
%TO.P,J2,27,Pin_27*%
%TO.N,unconnected-(J2-Pin_27-Pad27)*%
X180590000Y-83075000D03*
%TO.P,J2,28,Pin_28*%
%TO.N,unconnected-(J2-Pin_28-Pad28)*%
X180590000Y-80535000D03*
%TO.P,J2,29,Pin_29*%
%TO.N,unconnected-(J2-Pin_29-Pad29)*%
X178050000Y-83075000D03*
%TO.P,J2,30,Pin_30*%
%TO.N,unconnected-(J2-Pin_30-Pad30)*%
X178050000Y-80535000D03*
%TO.P,J2,31,Pin_31*%
%TO.N,unconnected-(J2-Pin_31-Pad31)*%
X175510000Y-83075000D03*
%TO.P,J2,32,Pin_32*%
%TO.N,unconnected-(J2-Pin_32-Pad32)*%
X175510000Y-80535000D03*
%TO.P,J2,33,Pin_33*%
%TO.N,unconnected-(J2-Pin_33-Pad33)*%
X172970000Y-83075000D03*
%TO.P,J2,34,Pin_34*%
%TO.N,unconnected-(J2-Pin_34-Pad34)*%
X172970000Y-80535000D03*
%TO.P,J2,35,Pin_35*%
%TO.N,unconnected-(J2-Pin_35-Pad35)*%
X170430000Y-83075000D03*
%TO.P,J2,36,Pin_36*%
%TO.N,unconnected-(J2-Pin_36-Pad36)*%
X170430000Y-80535000D03*
%TO.P,J2,37,Pin_37*%
%TO.N,unconnected-(J2-Pin_37-Pad37)*%
X167890000Y-83075000D03*
%TO.P,J2,38,Pin_38*%
%TO.N,unconnected-(J2-Pin_38-Pad38)*%
X167890000Y-80535000D03*
%TO.P,J2,39,Pin_39*%
%TO.N,unconnected-(J2-Pin_39-Pad39)*%
X165350000Y-83075000D03*
%TO.P,J2,40,Pin_40*%
%TO.N,unconnected-(J2-Pin_40-Pad40)*%
X165350000Y-80535000D03*
%TD*%
D15*
%TO.N,Net-(D30-K)*%
X138547200Y-104575000D03*
X140565100Y-86313200D03*
%TO.N,Net-(D26-K)*%
X207333900Y-99419300D03*
X204022300Y-111213800D03*
%TO.N,Net-(J2-Pin_1)*%
X211154800Y-95826800D03*
%TO.N,Net-(J2-Pin_4)*%
X139724300Y-80674000D03*
%TO.N,Net-(J2-Pin_7)*%
X203649000Y-95840500D03*
%TO.N,Net-(J2-Pin_2)*%
X111472200Y-95252700D03*
X210746200Y-94636000D03*
%TO.N,Net-(J2-Pin_6)*%
X128179900Y-79926800D03*
%TO.N,Net-(J2-Pin_3)*%
X209089100Y-91331600D03*
%TO.N,Net-(J2-Pin_8)*%
X174426800Y-79625200D03*
%TO.N,Net-(J2-Pin_5)*%
X204079600Y-104413200D03*
%TO.N,Net-(J2-Pin_9)*%
X157504100Y-85544300D03*
%TO.N,GND*%
X118981200Y-116282000D03*
X181210500Y-119249200D03*
X151577500Y-117352300D03*
X85139600Y-105373900D03*
%TO.N,Net-(D22-K)*%
X174393100Y-109569200D03*
X173259200Y-98633700D03*
%TO.N,Net-(D21-K)*%
X170175100Y-119249200D03*
X166394000Y-89577200D03*
%TO.N,Net-(D20-K)*%
X163430700Y-87269800D03*
X163430700Y-119066900D03*
%TO.N,Net-(D18-K)*%
X145650900Y-89577200D03*
X145375000Y-118259700D03*
%TO.N,Net-(D17-K)*%
X154540800Y-83872500D03*
X154372000Y-87101000D03*
%TO.N,Net-(D16-K)*%
X145650900Y-83079000D03*
X143079200Y-115524500D03*
%TO.N,Net-(D13-K)*%
X146893400Y-99509400D03*
X148666000Y-110347600D03*
%TO.N,Net-(D9-K)*%
X115200900Y-89661200D03*
X112213800Y-84242600D03*
%TO.N,Net-(D7-K)*%
X104164700Y-95511600D03*
X101634600Y-83642800D03*
%TO.N,+12V*%
X92311500Y-89577200D03*
X175283900Y-116983400D03*
X174905500Y-99181500D03*
X116333700Y-96223700D03*
X118981200Y-80325000D03*
X178521100Y-86359500D03*
X194993200Y-97445000D03*
X199686600Y-119098400D03*
%TD*%
D16*
%TO.N,Net-(D30-K)*%
X140565100Y-102721600D02*
X140565100Y-86313200D01*
X138711700Y-104575000D02*
X140565100Y-102721600D01*
X138547200Y-104575000D02*
X138711700Y-104575000D01*
%TO.N,Net-(D26-K)*%
X207333900Y-107902200D02*
X204022300Y-111213800D01*
X207333900Y-99419300D02*
X207333900Y-107902200D01*
%TO.N,Net-(J2-Pin_1)*%
X213610000Y-93371600D02*
X213610000Y-83075000D01*
X211154800Y-95826800D02*
X213610000Y-93371600D01*
X211154800Y-95826800D02*
X213610000Y-95826800D01*
X213610000Y-95826800D02*
X211154800Y-95826800D01*
%TO.N,Net-(J2-Pin_11)*%
X198027200Y-102157200D02*
X199200000Y-103330000D01*
X198027200Y-95230500D02*
X198027200Y-102157200D01*
X200910000Y-92347700D02*
X198027200Y-95230500D01*
X200910000Y-83075000D02*
X200910000Y-92347700D01*
%TO.N,Net-(J2-Pin_4)*%
X137900000Y-98225000D02*
X137900000Y-97073300D01*
X139724300Y-95249000D02*
X137900000Y-97073300D01*
X139724300Y-80674000D02*
X139724300Y-95249000D01*
%TO.N,Net-(J2-Pin_10)*%
X202180000Y-94118300D02*
X199200000Y-97098300D01*
X202180000Y-81805000D02*
X202180000Y-94118300D01*
X203450000Y-80535000D02*
X202180000Y-81805000D01*
X199200000Y-98250000D02*
X199200000Y-97098300D01*
%TO.N,Net-(J2-Pin_7)*%
X203649000Y-85416000D02*
X205990000Y-83075000D01*
X203649000Y-95840500D02*
X203649000Y-85416000D01*
X203649000Y-95840500D02*
X203569700Y-95761200D01*
X203569700Y-95761200D02*
X203649000Y-95840500D01*
%TO.N,Net-(J2-Pin_2)*%
X111472200Y-99257800D02*
X111472200Y-95252700D01*
X107375000Y-103355000D02*
X111472200Y-99257800D01*
X212340000Y-93042200D02*
X210746200Y-94636000D01*
X212340000Y-81805000D02*
X212340000Y-93042200D01*
X213610000Y-80535000D02*
X212340000Y-81805000D01*
X210746200Y-94636000D02*
X210746200Y-94636100D01*
X210746200Y-94636100D02*
X210746200Y-94636000D01*
X111472200Y-95252700D02*
X112088800Y-94636100D01*
X112088800Y-94636100D02*
X111472200Y-95252700D01*
%TO.N,Net-(J2-Pin_6)*%
X122200000Y-85906700D02*
X122200000Y-102725000D01*
X128179900Y-79926800D02*
X122200000Y-85906700D01*
%TO.N,Net-(J2-Pin_12)*%
X199640000Y-85458300D02*
X183500000Y-101598300D01*
X199640000Y-81805000D02*
X199640000Y-85458300D01*
X200910000Y-80535000D02*
X199640000Y-81805000D01*
X183500000Y-102750000D02*
X183500000Y-101598300D01*
%TO.N,Net-(J2-Pin_3)*%
X211070000Y-89350700D02*
X209089100Y-91331600D01*
X211070000Y-83075000D02*
X211070000Y-89350700D01*
%TO.N,Net-(J2-Pin_8)*%
X168375000Y-103305000D02*
X168375000Y-102153300D01*
X169094800Y-102153300D02*
X168375000Y-102153300D01*
X172557500Y-98690600D02*
X169094800Y-102153300D01*
X172557500Y-98343200D02*
X172557500Y-98690600D01*
X174240100Y-96660600D02*
X172557500Y-98343200D01*
X174240100Y-79811900D02*
X174240100Y-96660600D01*
X174426800Y-79625200D02*
X174240100Y-79811900D01*
%TO.N,Net-(J2-Pin_5)*%
X204079600Y-101407400D02*
X204079600Y-104413200D01*
X206633700Y-98853300D02*
X204079600Y-101407400D01*
X206633700Y-84971300D02*
X206633700Y-98853300D01*
X208530000Y-83075000D02*
X206633700Y-84971300D01*
%TO.N,Net-(J2-Pin_9)*%
X152675000Y-90373400D02*
X152675000Y-102725000D01*
X157504100Y-85544300D02*
X152675000Y-90373400D01*
%TO.N,GND*%
X199919900Y-104718300D02*
X199200000Y-104718300D01*
X200351700Y-104286500D02*
X199919900Y-104718300D01*
X200351700Y-102373500D02*
X200351700Y-104286500D01*
X199919900Y-101941700D02*
X200351700Y-102373500D01*
X199200000Y-101941700D02*
X199919900Y-101941700D01*
X199200000Y-100790000D02*
X199200000Y-101941700D01*
X199200000Y-105870000D02*
X199200000Y-104718300D01*
X122200000Y-113063200D02*
X122200000Y-105265000D01*
X118981200Y-116282000D02*
X122200000Y-113063200D01*
X183500000Y-116959700D02*
X183500000Y-105290000D01*
X181210500Y-119249200D02*
X183500000Y-116959700D01*
X167223300Y-101916700D02*
X168375000Y-100765000D01*
X167223300Y-104261500D02*
X167223300Y-101916700D01*
X167655100Y-104693300D02*
X167223300Y-104261500D01*
X168375000Y-104693300D02*
X167655100Y-104693300D01*
X168375000Y-105845000D02*
X168375000Y-104693300D01*
X91675000Y-110563300D02*
X91675000Y-105315000D01*
X84540000Y-117698300D02*
X91675000Y-110563300D01*
X84540000Y-119600000D02*
X84540000Y-117698300D01*
X106655100Y-101966700D02*
X107375000Y-101966700D01*
X106223300Y-102398500D02*
X106655100Y-101966700D01*
X106223300Y-104311500D02*
X106223300Y-102398500D01*
X106655100Y-104743300D02*
X106223300Y-104311500D01*
X107375000Y-104743300D02*
X106655100Y-104743300D01*
X107375000Y-105895000D02*
X107375000Y-104743300D01*
X137180100Y-101916700D02*
X137900000Y-101916700D01*
X136748300Y-102348500D02*
X137180100Y-101916700D01*
X136748300Y-104693300D02*
X136748300Y-102348500D01*
X137900000Y-105845000D02*
X136748300Y-104693300D01*
X137900000Y-100765000D02*
X137900000Y-101916700D01*
X152675000Y-116254800D02*
X152675000Y-105265000D01*
X151577500Y-117352300D02*
X152675000Y-116254800D01*
X85139600Y-84356300D02*
X83010000Y-82226700D01*
X85139600Y-105373900D02*
X85139600Y-84356300D01*
X83010000Y-80325000D02*
X83010000Y-82226700D01*
X107375000Y-100815000D02*
X107375000Y-101966700D01*
%TO.N,Net-(D22-K)*%
X174393100Y-99767600D02*
X174393100Y-109569200D01*
X173259200Y-98633700D02*
X174393100Y-99767600D01*
%TO.N,Net-(D21-K)*%
X166394000Y-115468100D02*
X166394000Y-89577200D01*
X170175100Y-119249200D02*
X166394000Y-115468100D01*
%TO.N,Net-(D20-K)*%
X163430700Y-87269800D02*
X163430700Y-119066900D01*
%TO.N,Net-(D18-K)*%
X145650900Y-117983800D02*
X145375000Y-118259700D01*
X145650900Y-89577200D02*
X145650900Y-117983800D01*
%TO.N,Net-(D17-K)*%
X154540800Y-86932200D02*
X154372000Y-87101000D01*
X154540800Y-83872500D02*
X154540800Y-86932200D01*
%TO.N,Net-(D16-K)*%
X143079200Y-85650700D02*
X143079200Y-115524500D01*
X145650900Y-83079000D02*
X143079200Y-85650700D01*
X145650900Y-83079000D02*
X148616300Y-80113600D01*
X148616300Y-80113600D02*
X145650900Y-83079000D01*
%TO.N,Net-(D13-K)*%
X148666000Y-101282000D02*
X148666000Y-110347600D01*
X146893400Y-99509400D02*
X148666000Y-101282000D01*
%TO.N,Net-(D9-K)*%
X115200900Y-87229700D02*
X112213800Y-84242600D01*
X115200900Y-89661200D02*
X115200900Y-87229700D01*
%TO.N,Net-(D7-K)*%
X101634600Y-92981500D02*
X101634600Y-83642800D01*
X104164700Y-95511600D02*
X101634600Y-92981500D01*
D17*
%TO.N,+12V*%
X88090000Y-89577200D02*
X92311500Y-89577200D01*
X88090000Y-80325000D02*
X88090000Y-89577200D01*
X88090000Y-110970000D02*
X79460000Y-119600000D01*
X88090000Y-89577200D02*
X88090000Y-110970000D01*
X116333700Y-82972500D02*
X116333700Y-96223700D01*
X118981200Y-80325000D02*
X116333700Y-82972500D01*
X175283900Y-99559900D02*
X174905500Y-99181500D01*
X175283900Y-116983400D02*
X175283900Y-99559900D01*
X178521100Y-95565900D02*
X174905500Y-99181500D01*
X178521100Y-86359500D02*
X178521100Y-95565900D01*
X194993200Y-114405000D02*
X194993200Y-97445000D01*
X199686600Y-119098400D02*
X194993200Y-114405000D01*
%TD*%
M02*
