M48
; DRILL file {KiCad 9.0.2} date 2025-07-16T22:26:27+0200
; FORMAT={-:-/ absolute / inch / decimal}
; #@! TF.CreationDate,2025-07-16T22:26:27+02:00
; #@! TF.GenerationSoftware,Kicad,Pcbnew,9.0.2
; #@! TF.FileFunction,Plated,1,2,PTH
FMAT,2
INCH
; #@! TA.AperFunction,Plated,PTH,ViaDrill
T1C0.0118
; #@! TA.AperFunction,Plated,PTH,ComponentDrill
T2C0.0236
; #@! TA.AperFunction,Plated,PTH,ComponentDrill
T3C0.0394
; #@! TA.AperFunction,Plated,PTH,ComponentDrill
T4C0.0598
%
G90
G05
T1
X3.352Y-4.1486
X3.6343Y-3.5267
X4.0014Y-3.293
X4.101Y-3.7603
X4.3887Y-3.7501
X4.4179Y-3.3166
X4.5355Y-3.53
X4.5801Y-3.7883
X4.6843Y-3.1624
X4.6843Y-4.578
X5.0465Y-3.1467
X5.4546Y-4.1171
X5.501Y-3.1761
X5.5341Y-3.3982
X5.633Y-4.5482
X5.7234Y-4.6559
X5.7343Y-3.2708
X5.7343Y-3.5267
X5.7832Y-3.9177
X5.853Y-4.3444
X5.9676Y-4.6202
X6.0776Y-3.4292
X6.0843Y-3.3021
X6.2009Y-3.3679
X6.4343Y-3.4358
X6.4343Y-4.6877
X6.5509Y-3.5267
X6.6998Y-4.6949
X6.8212Y-3.8832
X6.8659Y-4.3137
X6.8672Y-3.1349
X6.886Y-3.9048
X6.9009Y-4.6056
X7.0284Y-3.4
X7.1343Y-4.6949
X7.6769Y-3.8364
X7.8617Y-4.6889
X8.0177Y-3.7732
X8.0324Y-4.3785
X8.0346Y-4.1108
X8.1628Y-3.9141
X8.2319Y-3.5957
X8.2971Y-3.7258
X8.3132Y-3.7727
T2
X3.6093Y-4.0463
X3.6093Y-4.1463
X4.2274Y-3.8691
X4.2274Y-3.9691
X4.2274Y-4.0691
X4.2274Y-4.1691
X4.811Y-4.0443
X4.811Y-4.1443
X5.4291Y-3.8671
X5.4291Y-3.9671
X5.4291Y-4.0671
X5.4291Y-4.1671
X6.0108Y-4.0443
X6.0108Y-4.1443
X6.6289Y-3.8671
X6.6289Y-3.9671
X6.6289Y-4.0671
X6.6289Y-4.1671
X7.2244Y-4.0453
X7.2244Y-4.1453
X7.8425Y-3.8681
X7.8425Y-3.9681
X7.8425Y-4.0681
X7.8425Y-4.1681
T3
X6.5098Y-3.1707
X6.5098Y-3.2707
X6.6098Y-3.1707
X6.6098Y-3.2707
X6.7098Y-3.1707
X6.7098Y-3.2707
X6.8098Y-3.1707
X6.8098Y-3.2707
X6.9098Y-3.1707
X6.9098Y-3.2707
X7.0098Y-3.1707
X7.0098Y-3.2707
X7.1098Y-3.1707
X7.1098Y-3.2707
X7.2098Y-3.1707
X7.2098Y-3.2707
X7.3098Y-3.1707
X7.3098Y-3.2707
X7.4098Y-3.1707
X7.4098Y-3.2707
X7.5098Y-3.1707
X7.5098Y-3.2707
X7.6098Y-3.1707
X7.6098Y-3.2707
X7.7098Y-3.1707
X7.7098Y-3.2707
X7.8098Y-3.1707
X7.8098Y-3.2707
X7.9098Y-3.1707
X7.9098Y-3.2707
X8.0098Y-3.1707
X8.0098Y-3.2707
X8.1098Y-3.1707
X8.1098Y-3.2707
X8.2098Y-3.1707
X8.2098Y-3.2707
X8.3098Y-3.1707
X8.3098Y-3.2707
X8.4098Y-3.1707
X8.4098Y-3.2707
T4
X3.1283Y-4.7087
X3.2681Y-3.1624
X3.3283Y-4.7087
X3.4681Y-3.1624
M30
