%TF.GenerationSoftware,KiCad,Pcbnew,9.0.2*%
%TF.CreationDate,2025-07-16T22:26:27+02:00*%
%TF.ProjectId,flt-ctl-fo,666c742d-6374-46c2-9d66-6f2e6b696361,rev?*%
%TF.SameCoordinates,Original*%
%TF.FileFunction,Soldermask,Top*%
%TF.FilePolarity,Negative*%
%FSLAX46Y46*%
G04 Gerber Fmt 4.6, Leading zero omitted, Abs format (unit mm)*
G04 Created by KiCad (PCBNEW 9.0.2) date 2025-07-16 22:26:27*
%MOMM*%
%LPD*%
G01*
G04 APERTURE LIST*
G04 Aperture macros list*
%AMRoundRect*
0 Rectangle with rounded corners*
0 $1 Rounding radius*
0 $2 $3 $4 $5 $6 $7 $8 $9 X,Y pos of 4 corners*
0 Add a 4 corners polygon primitive as box body*
4,1,4,$2,$3,$4,$5,$6,$7,$8,$9,$2,$3,0*
0 Add four circle primitives for the rounded corners*
1,1,$1+$1,$2,$3*
1,1,$1+$1,$4,$5*
1,1,$1+$1,$6,$7*
1,1,$1+$1,$8,$9*
0 Add four rect primitives between the rounded corners*
20,1,$1+$1,$2,$3,$4,$5,0*
20,1,$1+$1,$4,$5,$6,$7,0*
20,1,$1+$1,$6,$7,$8,$9,0*
20,1,$1+$1,$8,$9,$2,$3,0*%
G04 Aperture macros list end*
%ADD10R,3.000000X3.000000*%
%ADD11C,3.000000*%
%ADD12RoundRect,0.165000X-0.385000X-0.885000X0.385000X-0.885000X0.385000X0.885000X-0.385000X0.885000X0*%
%ADD13RoundRect,0.315000X-0.735000X-0.735000X0.735000X-0.735000X0.735000X0.735000X-0.735000X0.735000X0*%
%ADD14RoundRect,0.250000X-0.400000X-0.625000X0.400000X-0.625000X0.400000X0.625000X-0.400000X0.625000X0*%
%ADD15R,1.500000X1.500000*%
%ADD16R,1.700000X1.700000*%
%ADD17C,1.700000*%
G04 APERTURE END LIST*
D10*
%TO.C,J3*%
X84540000Y-119600000D03*
D11*
X79460000Y-119600000D03*
%TD*%
D12*
%TO.C,D2*%
X82335000Y-98300000D03*
D13*
X84485000Y-98300000D03*
%TD*%
D12*
%TO.C,D19*%
X153610000Y-119050000D03*
D13*
X155760000Y-119050000D03*
%TD*%
D14*
%TO.C,R8*%
X203825000Y-118650000D03*
X206925000Y-118650000D03*
%TD*%
D12*
%TO.C,D13*%
X144035000Y-97925000D03*
D13*
X146185000Y-97925000D03*
%TD*%
D12*
%TO.C,D21*%
X169360000Y-89200000D03*
D13*
X171510000Y-89200000D03*
%TD*%
D14*
%TO.C,R6*%
X143825000Y-118025000D03*
X146925000Y-118025000D03*
%TD*%
D12*
%TO.C,D22*%
X174910000Y-97350000D03*
D13*
X177060000Y-97350000D03*
%TD*%
D12*
%TO.C,D30*%
X142735000Y-85050000D03*
D13*
X144885000Y-85050000D03*
%TD*%
D12*
%TO.C,D8*%
X97385000Y-84675000D03*
D13*
X99535000Y-84675000D03*
%TD*%
D12*
%TO.C,D16*%
X135185000Y-119000000D03*
D13*
X137335000Y-119000000D03*
%TD*%
D12*
%TO.C,D7*%
X113585000Y-97875000D03*
D13*
X115735000Y-97875000D03*
%TD*%
D14*
%TO.C,R2*%
X113075000Y-103975000D03*
X116175000Y-103975000D03*
%TD*%
D15*
%TO.C,KR1*%
X107375000Y-98275000D03*
X107375000Y-100815000D03*
X107375000Y-103355000D03*
X107375000Y-105895000D03*
X91675000Y-102775000D03*
X91675000Y-105315000D03*
%TD*%
D12*
%TO.C,D18*%
X150075000Y-89475000D03*
D13*
X152225000Y-89475000D03*
%TD*%
D12*
%TO.C,D27*%
X205260000Y-97825000D03*
D13*
X207410000Y-97825000D03*
%TD*%
D12*
%TO.C,D29*%
X179725000Y-89075000D03*
D13*
X181875000Y-89075000D03*
%TD*%
D12*
%TO.C,D28*%
X200360000Y-89450000D03*
D13*
X202510000Y-89450000D03*
%TD*%
D14*
%TO.C,R3*%
X114800000Y-84475000D03*
X117900000Y-84475000D03*
%TD*%
%TO.C,R4*%
X106575000Y-84400000D03*
X109675000Y-84400000D03*
%TD*%
D12*
%TO.C,D23*%
X174660000Y-111325000D03*
D13*
X176810000Y-111325000D03*
%TD*%
D12*
%TO.C,D17*%
X158460000Y-81625000D03*
D13*
X160610000Y-81625000D03*
%TD*%
D12*
%TO.C,D9*%
X111010000Y-89275000D03*
D13*
X113160000Y-89275000D03*
%TD*%
D12*
%TO.C,D12*%
X118810000Y-89475000D03*
D13*
X120960000Y-89475000D03*
%TD*%
D14*
%TO.C,R5*%
X113075000Y-117900000D03*
X116175000Y-117900000D03*
%TD*%
D15*
%TO.C,KR4*%
X199200000Y-98250000D03*
X199200000Y-100790000D03*
X199200000Y-103330000D03*
X199200000Y-105870000D03*
X183500000Y-102750000D03*
X183500000Y-105290000D03*
%TD*%
D12*
%TO.C,D10*%
X126035000Y-81925000D03*
D13*
X128185000Y-81925000D03*
%TD*%
D15*
%TO.C,KR3*%
X168375000Y-98225000D03*
X168375000Y-100765000D03*
X168375000Y-103305000D03*
X168375000Y-105845000D03*
X152675000Y-102725000D03*
X152675000Y-105265000D03*
%TD*%
%TO.C,KR2*%
X137900000Y-98225000D03*
X137900000Y-100765000D03*
X137900000Y-103305000D03*
X137900000Y-105845000D03*
X122200000Y-102725000D03*
X122200000Y-105265000D03*
%TD*%
D12*
%TO.C,D26*%
X205160000Y-111550000D03*
D13*
X207310000Y-111550000D03*
%TD*%
D12*
%TO.C,D3*%
X82085000Y-109325000D03*
D13*
X84235000Y-109325000D03*
%TD*%
D12*
%TO.C,D24*%
X184225000Y-119000000D03*
D13*
X186375000Y-119000000D03*
%TD*%
D14*
%TO.C,R1*%
X81625000Y-103975000D03*
X84725000Y-103975000D03*
%TD*%
D12*
%TO.C,D25*%
X195700000Y-119175000D03*
D13*
X197850000Y-119175000D03*
%TD*%
D12*
%TO.C,D15*%
X122885000Y-119000000D03*
D13*
X125035000Y-119000000D03*
%TD*%
D14*
%TO.C,R10*%
X143700000Y-105100000D03*
X146800000Y-105100000D03*
%TD*%
D12*
%TO.C,D14*%
X144035000Y-111450000D03*
D13*
X146185000Y-111450000D03*
%TD*%
D12*
%TO.C,D5*%
X104785000Y-119100000D03*
D13*
X106935000Y-119100000D03*
%TD*%
D12*
%TO.C,D1*%
X86710000Y-89475000D03*
D13*
X88860000Y-89475000D03*
%TD*%
D12*
%TO.C,D11*%
X138400000Y-89450000D03*
D13*
X140550000Y-89450000D03*
%TD*%
D12*
%TO.C,D6*%
X113485000Y-109850000D03*
D13*
X115635000Y-109850000D03*
%TD*%
D14*
%TO.C,R7*%
X174925000Y-118400000D03*
X178025000Y-118400000D03*
%TD*%
D12*
%TO.C,D20*%
X166310000Y-119050000D03*
D13*
X168460000Y-119050000D03*
%TD*%
D14*
%TO.C,R9*%
X205375000Y-104850000D03*
X208475000Y-104850000D03*
%TD*%
D12*
%TO.C,D4*%
X90985000Y-119000000D03*
D13*
X93135000Y-119000000D03*
%TD*%
D10*
%TO.C,J1*%
X83010000Y-80325000D03*
D11*
X88090000Y-80325000D03*
%TD*%
D16*
%TO.C,J2*%
X213610000Y-83075000D03*
D17*
X213610000Y-80535000D03*
X211070000Y-83075000D03*
X211070000Y-80535000D03*
X208530000Y-83075000D03*
X208530000Y-80535000D03*
X205990000Y-83075000D03*
X205990000Y-80535000D03*
X203450000Y-83075000D03*
X203450000Y-80535000D03*
X200910000Y-83075000D03*
X200910000Y-80535000D03*
X198370000Y-83075000D03*
X198370000Y-80535000D03*
X195830000Y-83075000D03*
X195830000Y-80535000D03*
X193290000Y-83075000D03*
X193290000Y-80535000D03*
X190750000Y-83075000D03*
X190750000Y-80535000D03*
X188210000Y-83075000D03*
X188210000Y-80535000D03*
X185670000Y-83075000D03*
X185670000Y-80535000D03*
X183130000Y-83075000D03*
X183130000Y-80535000D03*
X180590000Y-83075000D03*
X180590000Y-80535000D03*
X178050000Y-83075000D03*
X178050000Y-80535000D03*
X175510000Y-83075000D03*
X175510000Y-80535000D03*
X172970000Y-83075000D03*
X172970000Y-80535000D03*
X170430000Y-83075000D03*
X170430000Y-80535000D03*
X167890000Y-83075000D03*
X167890000Y-80535000D03*
X165350000Y-83075000D03*
X165350000Y-80535000D03*
%TD*%
M02*
