%TF.GenerationSoftware,KiCad,Pcbnew,9.0.2*%
%TF.CreationDate,2025-08-26T18:02:08+02:00*%
%TF.ProjectId,KorryPanelsV2,4b6f7272-7950-4616-9e65-6c7356322e6b,rev?*%
%TF.SameCoordinates,Original*%
%TF.FileFunction,Profile,NP*%
%FSLAX46Y46*%
G04 Gerber Fmt 4.6, Leading zero omitted, Abs format (unit mm)*
G04 Created by KiCad (PCBNEW 9.0.2) date 2025-08-26 18:02:08*
%MOMM*%
%LPD*%
G01*
G04 APERTURE LIST*
%TA.AperFunction,Profile*%
%ADD10C,0.100000*%
%TD*%
G04 APERTURE END LIST*
D10*
X79320177Y-105746775D02*
X79331230Y-105723602D01*
X80935810Y-84576984D02*
X81069370Y-84791261D01*
X32531570Y-85767713D02*
X32509710Y-85812276D01*
X105837307Y-67759092D02*
X105840000Y-59497274D01*
X105836329Y-17751818D02*
X107836329Y-17751818D01*
X53955717Y-84029846D02*
X54147298Y-84194314D01*
X41190000Y-108012450D02*
X32899131Y-108010901D01*
X6274206Y-79457198D02*
X6319820Y-79476772D01*
X32464231Y-17751818D02*
X32460000Y-26010000D01*
X85654206Y-105960835D02*
X85699820Y-105980409D01*
X97110000Y-53005736D02*
X105343228Y-53007273D01*
X4964282Y-107491975D02*
X4772701Y-107327507D01*
X79150317Y-79431784D02*
X79191845Y-79401612D01*
X105603935Y-81499984D02*
X105395656Y-81510910D01*
X17730000Y-4001946D02*
X26020445Y-3999988D01*
X97110000Y-79509373D02*
X105343228Y-79510910D01*
X26716183Y-4111740D02*
X26929154Y-4190616D01*
X31232701Y-27816596D02*
X31058742Y-27633591D01*
X28334328Y-79790993D02*
X28240806Y-80034605D01*
X79294510Y-52783954D02*
X79320177Y-52739501D01*
X6144851Y-32660643D02*
X6112519Y-32698305D01*
X6002514Y-105570483D02*
X6010030Y-105619547D01*
X58908249Y-28451547D02*
X58688391Y-28394622D01*
X56920000Y-26009487D02*
X56924231Y-17751818D01*
X52916329Y-70759092D02*
X54916329Y-70759092D01*
X6391363Y-26489969D02*
X6440427Y-26497485D01*
X28453619Y-26065981D02*
X28442710Y-26273935D01*
X58930000Y-86005511D02*
X58925768Y-94262729D01*
X26835682Y-83663497D02*
X27067713Y-83763070D01*
X80935810Y-58073347D02*
X81069370Y-58287624D01*
X58942471Y-26156687D02*
X58959710Y-26203234D01*
X5753816Y-4116340D02*
X5998249Y-4053052D01*
X81376329Y-97262729D02*
X81373619Y-105576892D01*
X26044199Y-85516561D02*
X26019572Y-85513425D01*
X85600078Y-32596062D02*
X85560827Y-32626445D01*
X5768391Y-81401896D02*
X5600988Y-81344676D01*
X84256408Y-84114253D02*
X84456073Y-83959700D01*
X6060075Y-59286080D02*
X6040501Y-59331694D01*
X28260566Y-58514314D02*
X28348259Y-58751090D01*
X53295682Y-83663497D02*
X53527713Y-83763070D01*
X6190068Y-26397480D02*
X6230807Y-26425835D01*
X79261791Y-6170827D02*
X79227593Y-6134851D01*
X54321257Y-4866408D02*
X54475810Y-5066073D01*
X57796408Y-57610616D02*
X57996073Y-57456063D01*
X26309991Y-79367265D02*
X26344338Y-79329119D01*
X41190000Y-55005176D02*
X32899131Y-55003627D01*
X5600988Y-81344676D02*
X5392286Y-81255114D01*
X81380000Y-59446592D02*
X81380000Y-59497599D01*
X79776749Y-107851668D02*
X79528577Y-107932313D01*
X105752174Y-85720989D02*
X105721791Y-85681738D01*
X32480030Y-85906874D02*
X32472514Y-85955938D01*
X56968452Y-26511750D02*
X56930218Y-26262169D01*
X32899131Y-28499990D02*
X32697830Y-28489781D01*
X81091496Y-80175125D02*
X80974136Y-80378390D01*
X53748479Y-30878331D02*
X53955717Y-31022572D01*
X57092597Y-32109225D02*
X57182159Y-31900523D01*
X14730000Y-55005176D02*
X6439131Y-55003627D01*
X4444189Y-27433926D02*
X4310629Y-27219649D01*
X52475656Y-81510910D02*
X52423044Y-81510910D01*
X105689991Y-52863628D02*
X105724338Y-52825482D01*
X31153403Y-31280938D02*
X31336408Y-31106979D01*
X84772286Y-81255114D02*
X84551520Y-81132579D01*
X52931750Y-30552089D02*
X53151608Y-30609014D01*
X41190000Y-4002655D02*
X41190000Y-6002655D01*
X105988577Y-107932313D02*
X105758995Y-107981123D01*
X6020030Y-85906874D02*
X6012514Y-85955938D01*
X6306765Y-6044310D02*
X6262202Y-6066170D01*
X28453619Y-79073255D02*
X28442710Y-79281209D01*
X85390000Y-32998237D02*
X85385768Y-41255455D01*
X32640827Y-32626445D02*
X32604851Y-32660643D01*
X58969710Y-85812276D02*
X58952471Y-85858823D01*
X52525188Y-52996552D02*
X52574769Y-52983264D01*
X41190000Y-30506292D02*
X41190000Y-32506292D01*
X26387926Y-52762063D02*
X26411230Y-52716328D01*
X52902915Y-52618825D02*
X52910947Y-52568126D01*
X85819131Y-108010901D02*
X85643183Y-108001978D01*
X28015810Y-31569710D02*
X28149370Y-31783987D01*
X79264338Y-26321845D02*
X79294510Y-26280317D01*
X54514136Y-27371116D02*
X54360753Y-27582225D01*
X59150807Y-26425835D02*
X59194206Y-26449924D01*
X106113719Y-81391602D02*
X105861667Y-81459150D01*
X6097689Y-83546794D02*
X6273183Y-83524443D01*
X26307593Y-6134851D02*
X26269931Y-6102519D01*
X79401667Y-28451876D02*
X79143935Y-28492710D01*
X85723312Y-26477528D02*
X85771363Y-26489969D01*
X4598742Y-80640865D02*
X4444189Y-80441200D01*
X26429627Y-52668406D02*
X26442915Y-52618825D01*
X26019572Y-59009788D02*
X25970000Y-59007274D01*
X83380000Y-79016761D02*
X83384231Y-70759092D01*
X32909082Y-4004611D02*
X41190000Y-4002655D01*
X31424282Y-107491975D02*
X31232701Y-107327507D01*
X58942471Y-79163961D02*
X58959710Y-79210508D01*
X26437528Y-6343312D02*
X26420289Y-6296765D01*
X52917485Y-85951338D02*
X52909969Y-85902274D01*
X85642202Y-6066170D02*
X85600078Y-6092425D01*
X27532225Y-107461664D02*
X27321116Y-107615047D01*
X54321257Y-84377319D02*
X54475810Y-84576984D01*
X52574769Y-26479627D02*
X52622691Y-26461230D01*
X56968452Y-53015387D02*
X56930218Y-52765806D01*
X52729931Y-59109793D02*
X52689192Y-59081438D01*
X70650000Y-26502099D02*
X78883228Y-26503636D01*
X81254328Y-106294630D02*
X81170208Y-106513751D01*
X79264338Y-105832756D02*
X79294510Y-105791228D01*
X6274206Y-105960835D02*
X6319820Y-105980409D01*
X53992225Y-80958027D02*
X53781116Y-81111410D01*
X31068742Y-84381919D02*
X31242701Y-84198914D01*
X59110068Y-79404754D02*
X59150807Y-79433109D01*
X85440075Y-59286080D02*
X85420501Y-59331694D01*
X59048208Y-85686338D02*
X59017825Y-85725589D01*
X28260566Y-32010677D02*
X28348259Y-32247453D01*
X32861363Y-6014630D02*
X32813312Y-6027071D01*
X81321876Y-53035304D02*
X81254328Y-53287356D01*
X52690317Y-105935421D02*
X52731845Y-105905249D01*
X79189931Y-59109793D02*
X79149192Y-59081438D01*
X105565864Y-105961088D02*
X105610317Y-105935421D01*
X80241116Y-107615047D02*
X80015133Y-107745525D01*
X4199433Y-106503870D02*
X4111740Y-106267094D01*
X52525188Y-79500189D02*
X52574769Y-79486901D01*
X28456329Y-70759092D02*
X28453619Y-79073255D01*
X32578208Y-52832809D02*
X32612406Y-52868785D01*
X83764694Y-31679757D02*
X83908935Y-31472519D01*
X52645864Y-79457451D02*
X52690317Y-79431784D01*
X59072406Y-79372422D02*
X59110068Y-79404754D01*
X5290350Y-4315229D02*
X5517040Y-4204033D01*
X26437528Y-32846949D02*
X26420289Y-32800402D01*
X58908249Y-54955184D02*
X58688391Y-54898259D01*
X105542691Y-79468504D02*
X105565864Y-79457451D01*
X85405642Y-6371780D02*
X85395650Y-6420400D01*
X25963044Y-55007273D02*
X17730000Y-55005736D01*
X79318429Y-85763113D02*
X79292174Y-85720989D01*
X107800212Y-105939906D02*
X107751402Y-106169488D01*
X105837307Y-41255455D02*
X105840000Y-32993637D01*
X26116687Y-59029745D02*
X26068636Y-59017304D01*
X81321876Y-79538941D02*
X81254328Y-79790993D01*
X54920000Y-59446592D02*
X54920000Y-59497599D01*
X53068577Y-107932313D02*
X52838995Y-107981123D01*
X32707830Y-4014818D02*
X32909082Y-4004611D01*
X79261791Y-32674464D02*
X79227593Y-32638488D01*
X32612406Y-79372422D02*
X32650068Y-79404754D01*
X59110068Y-26397480D02*
X59150807Y-26425835D01*
X67650000Y-32506292D02*
X59420000Y-32508237D01*
X26116687Y-32526108D02*
X26068636Y-32513667D01*
X80820753Y-107093136D02*
X80646145Y-107287056D01*
X6010030Y-52612273D02*
X6022471Y-52660324D01*
X32622406Y-85650362D02*
X32588208Y-85686338D01*
X6220078Y-6092425D02*
X6180827Y-6122808D01*
X28334328Y-26783719D02*
X28250208Y-27002840D01*
X53319011Y-57169871D02*
X53527713Y-57259433D01*
X58932514Y-6445027D02*
X58930000Y-6494600D01*
X84456073Y-30952426D02*
X84670350Y-30818866D01*
X26420289Y-32800402D02*
X26398429Y-32755839D01*
X30669433Y-85022551D02*
X30780629Y-84795861D01*
X79369969Y-85902274D02*
X79357528Y-85854223D01*
X105610317Y-26424510D02*
X105651845Y-26394338D01*
X83385768Y-67759092D02*
X83390025Y-59450680D01*
X26222169Y-30513855D02*
X26471750Y-30552089D01*
X105565864Y-52953814D02*
X105610317Y-52928147D01*
X26140179Y-85541412D02*
X26092819Y-85526553D01*
X83542586Y-32132554D02*
X83642159Y-31900523D01*
X4121740Y-32252053D02*
X4200616Y-32039082D01*
X6004231Y-44255455D02*
X6000000Y-52513637D01*
X26856749Y-107851668D02*
X26608577Y-107932313D01*
X56920000Y-79067955D02*
X56920000Y-79016761D01*
X105830947Y-79071763D02*
X105833636Y-79020502D01*
X67650000Y-106012449D02*
X67650000Y-108012450D01*
X28171496Y-27167851D02*
X28054136Y-27371116D01*
X83421283Y-32595926D02*
X83466999Y-32373467D01*
X28134244Y-106747370D02*
X28038716Y-106903250D01*
X59167830Y-30518455D02*
X59369082Y-30508248D01*
X4111740Y-53259820D02*
X4048452Y-53015387D01*
X26372174Y-59217352D02*
X26341791Y-59178101D01*
X57796408Y-31106979D02*
X57996073Y-30952426D01*
X59100827Y-32626445D02*
X59064851Y-32660643D01*
X6296765Y-26460289D02*
X6343312Y-26477528D01*
X32813312Y-6027071D02*
X32766765Y-6044310D01*
X79376329Y-70759092D02*
X81376329Y-70759092D01*
X84772286Y-107758751D02*
X84551520Y-107636216D01*
X97110000Y-59009220D02*
X97110000Y-57009220D01*
X105399572Y-59009788D02*
X105350000Y-59007274D01*
X6152406Y-52868785D02*
X6190068Y-52901117D01*
X105602169Y-30513855D02*
X105851750Y-30552089D01*
X79377307Y-67759092D02*
X79380000Y-59497274D01*
X6425800Y-85521161D02*
X6377180Y-85531153D01*
X30659433Y-53496596D02*
X30571740Y-53259820D01*
X59160807Y-85589675D02*
X59120068Y-85618030D01*
X30460000Y-79016761D02*
X30464231Y-70759092D01*
X31830090Y-28235521D02*
X31631520Y-28125305D01*
X6152406Y-26365148D02*
X6190068Y-26397480D01*
X6449082Y-4004611D02*
X14730000Y-4002655D01*
X106668479Y-4374694D02*
X106875717Y-4518935D01*
X30722159Y-58404160D02*
X30844694Y-58183394D01*
X54631496Y-27167851D02*
X54514136Y-27371116D01*
X70650000Y-55005736D02*
X70650000Y-53005736D01*
X79380000Y-6490000D02*
X79377485Y-6440427D01*
X26453636Y-105524139D02*
X26456329Y-97262729D01*
X79897331Y-28290806D02*
X79653719Y-28384328D01*
X107837307Y-67759092D02*
X105837307Y-67759092D01*
X106469909Y-30768115D02*
X106668479Y-30878331D01*
X53412840Y-54803845D02*
X53193719Y-54887965D01*
X105494769Y-26479627D02*
X105542691Y-26461230D01*
X85733312Y-59034345D02*
X85686765Y-59051584D01*
X59410000Y-79507274D02*
X67650000Y-79508812D01*
X52913636Y-105524139D02*
X52916329Y-97262729D01*
X94110000Y-6002655D02*
X85880000Y-6004600D01*
X105816920Y-105651064D02*
X105827595Y-105600855D01*
X4693403Y-4777301D02*
X4876408Y-4603342D01*
X32492471Y-6347912D02*
X32480030Y-6395963D01*
X53527713Y-83763070D02*
X53748479Y-83885605D01*
X4048452Y-79519024D02*
X4010218Y-79269443D01*
X85405642Y-85882691D02*
X85395650Y-85931311D01*
X105588426Y-26437926D02*
X105610317Y-26424510D01*
X28149370Y-31783987D02*
X28260566Y-32010677D01*
X79370947Y-52568126D02*
X79373636Y-52516865D01*
X106875717Y-84029846D02*
X107067298Y-84194314D01*
X58920000Y-26010000D02*
X58922514Y-26059572D01*
X106497851Y-81228770D02*
X106332840Y-81307482D01*
X6490000Y-26500000D02*
X14730000Y-26501538D01*
X105565864Y-79457451D02*
X105610317Y-79431784D01*
X79264338Y-79329119D02*
X79294510Y-79287591D01*
X83579433Y-106503870D02*
X83491740Y-106267094D01*
X83385768Y-14751818D02*
X83390025Y-6443406D01*
X52574769Y-52983264D02*
X52622691Y-52964867D01*
X44190000Y-6001946D02*
X44190000Y-4001946D01*
X57230629Y-27219649D02*
X57119433Y-26992959D01*
X54909781Y-59245104D02*
X54920000Y-59446592D01*
X58210350Y-30818866D02*
X58437040Y-30707670D01*
X5517040Y-4204033D02*
X5753816Y-4116340D01*
X106668479Y-57381968D02*
X106875717Y-57526209D01*
X56940218Y-59249704D02*
X56978452Y-59000123D01*
X57240629Y-84795861D02*
X57374189Y-84581584D01*
X54920000Y-6490325D02*
X54917307Y-14751818D01*
X54902710Y-26273935D02*
X54861876Y-26531667D01*
X106096183Y-4111740D02*
X106309154Y-4190616D01*
X81180566Y-85017951D02*
X81268259Y-85254727D01*
X78940681Y-57007273D02*
X79142169Y-57017492D01*
X105424199Y-85516561D02*
X105399572Y-85513425D01*
X6343312Y-26477528D02*
X6391363Y-26489969D01*
X27726145Y-27776145D02*
X27532225Y-27950753D01*
X57035377Y-58780265D02*
X57092597Y-58612862D01*
X44190000Y-57009220D02*
X52429765Y-57007273D01*
X57518742Y-107144502D02*
X57364189Y-106944837D01*
X52731845Y-105905249D02*
X52769991Y-105870902D01*
X59038208Y-52832809D02*
X59072406Y-52868785D01*
X57702701Y-84198914D02*
X57894282Y-84034446D01*
X52729931Y-6102519D02*
X52689192Y-6074164D01*
X79294510Y-26280317D02*
X79320177Y-26235864D01*
X105448636Y-6010030D02*
X105399572Y-6002514D01*
X105724338Y-105832756D02*
X105754510Y-105791228D01*
X85870000Y-79507274D02*
X94110000Y-79508812D01*
X85829082Y-83515522D02*
X94110000Y-83513566D01*
X32462514Y-79066846D02*
X32470030Y-79115910D01*
X32472514Y-6445027D02*
X32470000Y-6494600D01*
X105836329Y-97262729D02*
X107836329Y-97262729D01*
X26411230Y-79219965D02*
X26429627Y-79172043D01*
X54631496Y-80175125D02*
X54514136Y-80378390D01*
X52767593Y-85645762D02*
X52729931Y-85613430D01*
X32228391Y-81401896D02*
X32060988Y-81344676D01*
X6000000Y-105520911D02*
X6002514Y-105570483D01*
X84750090Y-28235521D02*
X84551520Y-28125305D01*
X44190000Y-28502099D02*
X44190000Y-26502099D01*
X107840016Y-32943281D02*
X107837307Y-41255455D01*
X107829781Y-59245104D02*
X107840016Y-59446918D01*
X6230807Y-79433109D02*
X6274206Y-79457198D01*
X105780177Y-79243138D02*
X105801056Y-79196245D01*
X32520075Y-6278806D02*
X32509710Y-6301365D01*
X32557689Y-83546794D02*
X32733183Y-83524443D01*
X53781116Y-107615047D02*
X53555133Y-107745525D01*
X32094317Y-83668097D02*
X32335230Y-83592510D01*
X59007825Y-26289921D02*
X59038208Y-26329172D01*
X105343044Y-28503636D02*
X97110000Y-28502099D01*
X26269931Y-32606156D02*
X26229192Y-32577801D01*
X105494769Y-79486901D02*
X105542691Y-79468504D01*
X107241257Y-57873682D02*
X107395810Y-58073347D01*
X59032519Y-6194668D02*
X59004164Y-6235407D01*
X26456329Y-44255455D02*
X28456329Y-44255455D01*
X105801056Y-105699882D02*
X105816920Y-105651064D01*
X59167830Y-4014818D02*
X59369082Y-4004611D01*
X30470025Y-6443406D02*
X30480218Y-6242430D01*
X52917307Y-67759092D02*
X52920000Y-59497274D01*
X32213816Y-30619977D02*
X32458249Y-30556689D01*
X57304694Y-58183394D02*
X57448935Y-57976156D01*
X4058452Y-32496486D02*
X4121740Y-32252053D01*
X52689192Y-32577801D02*
X52645793Y-32553712D01*
X58210350Y-4315229D02*
X58437040Y-4204033D01*
X78883228Y-53007273D02*
X78934489Y-53004584D01*
X52683935Y-54996347D02*
X52475656Y-55007273D01*
X52769991Y-105870902D02*
X52804338Y-105832756D01*
X54475810Y-58073347D02*
X54609370Y-58287624D01*
X59263312Y-52981165D02*
X59311363Y-52993606D01*
X105603935Y-54996347D02*
X105395656Y-55007273D01*
X52622691Y-79468504D02*
X52645864Y-79457451D01*
X32482471Y-26156687D02*
X32499710Y-26203234D01*
X26442915Y-105626099D02*
X26450947Y-105575400D01*
X54360753Y-107093136D02*
X54186145Y-107287056D01*
X85600078Y-59099699D02*
X85560827Y-59130082D01*
X107800212Y-79436269D02*
X107751402Y-79665851D01*
X107564614Y-27145133D02*
X107434136Y-27371116D01*
X85498208Y-105840083D02*
X85532406Y-105876059D01*
X52801791Y-59178101D02*
X52767593Y-59142125D01*
X97110000Y-26502099D02*
X105343228Y-26503636D01*
X59420000Y-32508237D02*
X59370427Y-32510751D01*
X80646145Y-80783419D02*
X80452225Y-80958027D01*
X52430000Y-32503637D02*
X44190000Y-32505583D01*
X52656816Y-83519843D02*
X52832310Y-83542194D01*
X79105793Y-32553712D02*
X79060179Y-32534138D01*
X81380000Y-6490325D02*
X81377307Y-14751818D01*
X32472514Y-85955938D02*
X32470000Y-86005511D01*
X105520179Y-85541412D02*
X105472819Y-85526553D01*
X85405642Y-32875417D02*
X85395650Y-32924037D01*
X83908935Y-84479793D02*
X84073403Y-84288212D01*
X83466999Y-58877104D02*
X83542586Y-58636191D01*
X52832174Y-85720989D02*
X52801791Y-85681738D01*
X54913619Y-105576892D02*
X54902710Y-105784846D01*
X83824189Y-80441200D02*
X83690629Y-80226923D01*
X14730000Y-83513566D02*
X14730000Y-85513566D01*
X32084317Y-107858324D02*
X31852286Y-107758751D01*
X58991570Y-85767713D02*
X58969710Y-85812276D01*
X67650000Y-57009929D02*
X67650000Y-59009929D01*
X59007689Y-107979627D02*
X58785230Y-107933911D01*
X59004164Y-32739044D02*
X58980075Y-32782443D01*
X78939572Y-6002514D02*
X78890000Y-6000000D01*
X105817528Y-59350586D02*
X105800289Y-59304039D01*
X32465768Y-67759092D02*
X30465768Y-67759092D01*
X81180566Y-32010677D02*
X81268259Y-32247453D01*
X58930000Y-32998237D02*
X58925768Y-41255455D01*
X4876408Y-57610616D02*
X5076073Y-57456063D01*
X107395810Y-84576984D02*
X107529370Y-84791261D01*
X32465768Y-14751818D02*
X30465768Y-14751818D01*
X56940218Y-32746067D02*
X56978452Y-32496486D01*
X59239820Y-52973135D02*
X59263312Y-52981165D01*
X105419944Y-106008506D02*
X105470153Y-105997831D01*
X56925768Y-94262729D02*
X56930025Y-85954317D01*
X6439131Y-108010901D02*
X6263183Y-108001978D01*
X5988249Y-28451547D02*
X5743816Y-28388259D01*
X107829781Y-85748741D02*
X107840016Y-85950555D01*
X105448636Y-59017304D02*
X105399572Y-59009788D01*
X32492471Y-59355186D02*
X32480030Y-59403237D01*
X54909781Y-85748741D02*
X54920000Y-85950229D01*
X79292174Y-32713715D02*
X79261791Y-32674464D01*
X85385768Y-41255455D02*
X83385768Y-41255455D01*
X59157830Y-81497055D02*
X58908249Y-81458821D01*
X53193719Y-81391602D02*
X52941667Y-81459150D01*
X106469909Y-4264478D02*
X106668479Y-4374694D01*
X4121740Y-85259327D02*
X4209433Y-85022551D01*
X4010218Y-105773080D02*
X3999974Y-105571080D01*
X85378249Y-83563963D02*
X85627830Y-83525729D01*
X27321116Y-107615047D02*
X27095133Y-107745525D01*
X58437040Y-30707670D02*
X58673816Y-30619977D01*
X59072406Y-105876059D02*
X59110068Y-105908391D01*
X58981570Y-26247797D02*
X59007825Y-26289921D01*
X4598742Y-27633591D02*
X4444189Y-27433926D01*
X6005768Y-94262729D02*
X4005768Y-94262729D01*
X52479572Y-6002514D02*
X52430000Y-6000000D01*
X32448249Y-28451547D02*
X32203816Y-28388259D01*
X85498208Y-52832809D02*
X85532406Y-52868785D01*
X80208479Y-4374694D02*
X80415717Y-4518935D01*
X53992225Y-54454390D02*
X53781116Y-54607773D01*
X97110000Y-4001946D02*
X105400445Y-3999988D01*
X52689192Y-6074164D02*
X52645793Y-6050075D01*
X58940030Y-85906874D02*
X58932514Y-85955938D01*
X79227593Y-85645762D02*
X79189931Y-85613430D01*
X105343228Y-53007273D02*
X105394489Y-53004584D01*
X28449781Y-85748741D02*
X28460000Y-85950229D01*
X85420501Y-85835331D02*
X85405642Y-85882691D01*
X30770629Y-106730560D02*
X30659433Y-106503870D01*
X59064851Y-6157006D02*
X59032519Y-6194668D01*
X59263312Y-79484802D02*
X59311363Y-79497243D01*
X54917307Y-41255455D02*
X52917307Y-41255455D01*
X32734206Y-79457198D02*
X32779820Y-79476772D01*
X30518452Y-59000123D02*
X30575377Y-58780265D01*
X85610807Y-26425835D02*
X85654206Y-26449924D01*
X81362710Y-105784846D02*
X81321876Y-106042578D01*
X32544164Y-32739044D02*
X32520075Y-32782443D01*
X58920000Y-52513637D02*
X58922514Y-52563209D01*
X26039944Y-106008506D02*
X26090153Y-105997831D01*
X85390000Y-86005511D02*
X85385768Y-94262729D01*
X30660616Y-32039082D02*
X30734478Y-31878327D01*
X32547825Y-52793558D02*
X32578208Y-52832809D01*
X78935656Y-55007273D02*
X78883044Y-55007273D01*
X105861667Y-28451876D02*
X105603935Y-28492710D01*
X52880289Y-32800402D02*
X52858429Y-32755839D01*
X85600078Y-6092425D02*
X85560827Y-6122808D01*
X79872840Y-54803845D02*
X79653719Y-54887965D01*
X30904189Y-27433926D02*
X30770629Y-27219649D01*
X32448249Y-54955184D02*
X32228391Y-54898259D01*
X31977040Y-30707670D02*
X32213816Y-30619977D01*
X6190068Y-52901117D02*
X6230807Y-52929472D01*
X85880000Y-85515511D02*
X85830427Y-85518025D01*
X85654206Y-26449924D02*
X85676765Y-26460289D01*
X6162406Y-85650362D02*
X6128208Y-85686338D01*
X85441570Y-26247797D02*
X85467825Y-26289921D01*
X85532406Y-79372422D02*
X85570068Y-79404754D01*
X3999974Y-52563806D02*
X4004231Y-44255455D01*
X32472514Y-32948664D02*
X32470000Y-32998237D01*
X26307593Y-59142125D02*
X26269931Y-59109793D01*
X14730000Y-32506292D02*
X6500000Y-32508237D01*
X85676765Y-26460289D02*
X85723312Y-26477528D01*
X54871547Y-32491886D02*
X54909781Y-32741467D01*
X26223935Y-28492710D02*
X26015656Y-28503636D01*
X107106145Y-107287056D02*
X106912225Y-107461664D01*
X52423228Y-26503636D02*
X52474489Y-26500947D01*
X30470218Y-26262169D02*
X30460000Y-26060681D01*
X56920000Y-105520398D02*
X56924231Y-97262729D01*
X4020218Y-59249704D02*
X4058452Y-59000123D01*
X26014489Y-53004584D02*
X26065188Y-52996552D01*
X28442710Y-26273935D02*
X28401876Y-26531667D01*
X58922514Y-79066846D02*
X58930030Y-79115910D01*
X105577738Y-108004995D02*
X105395469Y-108014557D01*
X4200616Y-32039082D02*
X4274478Y-31878327D01*
X107836329Y-17751818D02*
X107833619Y-26065981D01*
X6247830Y-30518455D02*
X6449082Y-30508248D01*
X4010025Y-32947043D02*
X4020218Y-32746067D01*
X105837485Y-6440427D02*
X105829969Y-6391363D01*
X83466999Y-32373467D02*
X83542586Y-32132554D01*
X85390030Y-52612273D02*
X85402471Y-52660324D01*
X84551520Y-54628942D02*
X84344282Y-54484701D01*
X56930025Y-32947043D02*
X56940218Y-32746067D01*
X107829781Y-32741467D02*
X107840016Y-32943281D01*
X59140078Y-6092425D02*
X59100827Y-6122808D01*
X32875800Y-106005260D02*
X32900427Y-106008396D01*
X26229192Y-32577801D02*
X26185793Y-32553712D01*
X32697830Y-28489781D02*
X32448249Y-28451547D01*
X52858429Y-32755839D02*
X52832174Y-32713715D01*
X32950000Y-53003637D02*
X41190000Y-53005175D01*
X85380000Y-105520911D02*
X85382514Y-105570483D01*
X30508452Y-53015387D02*
X30470218Y-52765806D01*
X85524851Y-6157006D02*
X85492519Y-6194668D01*
X26400177Y-26235864D02*
X26411230Y-26212691D01*
X26398429Y-85763113D02*
X26372174Y-85720989D01*
X26374510Y-52783954D02*
X26387926Y-52762063D01*
X6087689Y-107979627D02*
X5865230Y-107933911D01*
X85390000Y-6494600D02*
X85385768Y-14751818D01*
X107833619Y-105576892D02*
X107824084Y-105758649D01*
X6032471Y-6347912D02*
X6020030Y-6395963D01*
X83390025Y-85954317D02*
X83398932Y-85778694D01*
X28460000Y-59446592D02*
X28460000Y-59497599D01*
X58940030Y-32899600D02*
X58932514Y-32948664D01*
X6118208Y-105840083D02*
X6152406Y-105876059D01*
X84670350Y-4315229D02*
X84897040Y-4204033D01*
X6274206Y-26449924D02*
X6296765Y-26460289D01*
X32960000Y-59011874D02*
X32910427Y-59014388D01*
X3999974Y-26060169D02*
X4004231Y-17751818D01*
X85830427Y-85518025D02*
X85781363Y-85525541D01*
X32213816Y-4116340D02*
X32458249Y-4053052D01*
X4199433Y-80000233D02*
X4111740Y-79763457D01*
X107751402Y-106169488D02*
X107670757Y-106417660D01*
X53319011Y-30666234D02*
X53527713Y-30755796D01*
X97110000Y-6001946D02*
X97110000Y-4001946D01*
X26020681Y-57007273D02*
X26222169Y-57017492D01*
X59226765Y-32547947D02*
X59182202Y-32569807D01*
X59182202Y-32569807D02*
X59140078Y-32596062D01*
X32465768Y-94262729D02*
X30465768Y-94262729D01*
X52682169Y-57017492D02*
X52931750Y-57055726D01*
X53319011Y-4162597D02*
X53527713Y-4252159D01*
X32460000Y-79017274D02*
X32462514Y-79066846D01*
X41190000Y-83513566D02*
X41190000Y-85513566D01*
X57894282Y-84034446D02*
X58101520Y-83890205D01*
X32499710Y-52706871D02*
X32521570Y-52751434D01*
X56978452Y-59000123D02*
X57035377Y-58780265D01*
X58918249Y-4053052D02*
X59167830Y-4014818D01*
X52917307Y-94262729D02*
X52920000Y-86000911D01*
X52423228Y-53007273D02*
X52474489Y-53004584D01*
X78988636Y-32513667D02*
X78939572Y-32506151D01*
X31058742Y-80640865D02*
X30904189Y-80441200D01*
X106566459Y-28184244D02*
X106357331Y-28290806D01*
X52574769Y-79486901D02*
X52622691Y-79468504D01*
X32470030Y-79115910D02*
X32482471Y-79163961D01*
X26460000Y-59497274D02*
X26457485Y-59447701D01*
X6440427Y-26497485D02*
X6490000Y-26500000D01*
X79229991Y-52863628D02*
X79264338Y-52825482D01*
X70650000Y-6001946D02*
X70650000Y-4001946D01*
X59321363Y-6014630D02*
X59273312Y-6027071D01*
X54514136Y-53874753D02*
X54360753Y-54085862D01*
X59038208Y-105840083D02*
X59072406Y-105876059D01*
X57996073Y-57456063D02*
X58210350Y-57322503D01*
X30480218Y-32746067D02*
X30518452Y-32496486D01*
X32060988Y-81344676D02*
X31852286Y-81255114D01*
X52423044Y-28503636D02*
X44190000Y-28502099D01*
X32779820Y-79476772D02*
X32803312Y-79484802D01*
X26092819Y-85526553D02*
X26044199Y-85516561D01*
X79012819Y-85526553D02*
X78964199Y-85516561D01*
X52683935Y-28492710D02*
X52475656Y-28503636D01*
X85390030Y-105619547D02*
X85402471Y-105667598D01*
X79060179Y-85541412D02*
X79012819Y-85526553D01*
X30460000Y-26009487D02*
X30464231Y-17751818D01*
X27726145Y-107287056D02*
X27532225Y-107461664D01*
X52689192Y-59081438D02*
X52645793Y-59057349D01*
X105724338Y-52825482D02*
X105754510Y-52783954D01*
X81268259Y-5743816D02*
X81331547Y-5988249D01*
X106332840Y-81307482D02*
X106113719Y-81391602D01*
X6262202Y-6066170D02*
X6220078Y-6092425D01*
X105752174Y-32713715D02*
X105721791Y-32674464D01*
X78883228Y-106014547D02*
X78934489Y-106011858D01*
X6010000Y-6494600D02*
X6005768Y-14751818D01*
X32861363Y-59021904D02*
X32813312Y-59034345D01*
X44190000Y-32505583D02*
X44190000Y-30505583D01*
X52910947Y-105575400D02*
X52913636Y-105524139D01*
X81362710Y-26273935D02*
X81321876Y-26531667D01*
X4528935Y-57976156D02*
X4693403Y-57784575D01*
X32960000Y-85515511D02*
X32910427Y-85518025D01*
X105817528Y-32846949D02*
X105800289Y-32800402D01*
X107434136Y-53874753D02*
X107280753Y-54085862D01*
X57692701Y-54320233D02*
X57518742Y-54137228D01*
X58520988Y-28337402D02*
X58312286Y-28247840D01*
X0Y-112014547D02*
X111840000Y-112014547D01*
X54909781Y-32741467D02*
X54920000Y-32942955D01*
X17730000Y-28502099D02*
X17730000Y-26502099D01*
X58930000Y-6494600D02*
X58925768Y-14751818D01*
X81376329Y-17751818D02*
X81373619Y-26065981D01*
X25963228Y-79510910D02*
X26014489Y-79508221D01*
X85245230Y-107933911D02*
X85004317Y-107858324D01*
X79060179Y-32534138D02*
X79036687Y-32526108D01*
X52423044Y-55007273D02*
X44190000Y-55005736D01*
X32900427Y-53001122D02*
X32950000Y-53003637D01*
X26014489Y-79508221D02*
X26065188Y-79500189D01*
X105800289Y-85807676D02*
X105778429Y-85763113D01*
X27532225Y-27950753D02*
X27321116Y-28104136D01*
X52834510Y-26280317D02*
X52860177Y-26235864D01*
X17730000Y-53005736D02*
X25963228Y-53007273D01*
X25963228Y-26503636D02*
X26014489Y-26500947D01*
X52804338Y-26321845D02*
X52834510Y-26280317D01*
X105801056Y-52692608D02*
X105816920Y-52643790D01*
X4004231Y-70759092D02*
X6004231Y-70759092D01*
X26374510Y-79287591D02*
X26387926Y-79265700D01*
X59360427Y-106008396D02*
X59410000Y-106010911D01*
X59194206Y-79457198D02*
X59239820Y-79476772D01*
X79369969Y-32895000D02*
X79357528Y-32846949D01*
X107280753Y-54085862D02*
X107106145Y-54279782D01*
X105609192Y-6074164D02*
X105565793Y-6050075D01*
X79653719Y-54887965D02*
X79401667Y-54955513D01*
X78883044Y-55007273D02*
X70650000Y-55005736D01*
X6071570Y-85767713D02*
X6049710Y-85812276D01*
X30460000Y-105571592D02*
X30460000Y-105520398D01*
X85570068Y-105908391D02*
X85610807Y-105936746D01*
X84073403Y-84288212D02*
X84256408Y-84114253D01*
X52941667Y-54955513D02*
X52683935Y-54996347D01*
X58920000Y-105520911D02*
X58922514Y-105570483D01*
X79755682Y-83663497D02*
X79987713Y-83763070D01*
X85829082Y-57011885D02*
X94110000Y-57009929D01*
X27900753Y-27582225D02*
X27726145Y-27776145D01*
X52645793Y-59057349D02*
X52600179Y-59037775D01*
X94110000Y-83513566D02*
X94110000Y-85513566D01*
X85830427Y-6007114D02*
X85781363Y-6014630D01*
X105609192Y-59081438D02*
X105565793Y-59057349D01*
X105602169Y-4010218D02*
X105851750Y-4048452D01*
X105752174Y-6210078D02*
X105721791Y-6170827D01*
X106875717Y-57526209D02*
X107067298Y-57690677D01*
X107241257Y-4866408D02*
X107395810Y-5066073D01*
X6022471Y-105667598D02*
X6039710Y-105714145D01*
X105350000Y-59007274D02*
X97110000Y-59009220D01*
X25970000Y-6000000D02*
X17730000Y-6001946D01*
X85532406Y-26365148D02*
X85570068Y-26397480D01*
X6440427Y-53001122D02*
X6490000Y-53003637D01*
X78935656Y-28503636D02*
X78883044Y-28503636D01*
X106875717Y-4518935D02*
X107067298Y-4683403D01*
X52804338Y-79329119D02*
X52834510Y-79287591D01*
X52902915Y-79122462D02*
X52910947Y-79071763D01*
X44190000Y-59009220D02*
X44190000Y-57009220D01*
X79376329Y-17751818D02*
X81376329Y-17751818D01*
X105778429Y-59259476D02*
X105752174Y-59217352D01*
X31536073Y-30952426D02*
X31750350Y-30818866D01*
X26374510Y-26280317D02*
X26400177Y-26235864D01*
X52668426Y-26437926D02*
X52690317Y-26424510D01*
X79318429Y-6252202D02*
X79292174Y-6210078D01*
X85781363Y-32518267D02*
X85733312Y-32530708D01*
X30464231Y-97262729D02*
X32464231Y-97262729D01*
X4876408Y-31106979D02*
X5076073Y-30952426D01*
X85402471Y-26156687D02*
X85419710Y-26203234D01*
X83385768Y-94262729D02*
X83390025Y-85954317D01*
X85781363Y-59021904D02*
X85733312Y-59034345D01*
X26457307Y-94262729D02*
X26460000Y-86000911D01*
X83398932Y-32771420D02*
X83421283Y-32595926D01*
X52916329Y-44255455D02*
X54916329Y-44255455D01*
X31631520Y-81132579D02*
X31424282Y-80988338D01*
X6020030Y-32899600D02*
X6012514Y-32948664D01*
X32909082Y-30508248D02*
X41190000Y-30506292D01*
X32544164Y-6235407D02*
X32520075Y-6278806D01*
X32650068Y-26397480D02*
X32690807Y-26425835D01*
X32744206Y-85565586D02*
X32700807Y-85589675D01*
X6319820Y-105980409D02*
X6367180Y-105995268D01*
X105836329Y-44255455D02*
X107836329Y-44255455D01*
X84344282Y-80988338D02*
X84152701Y-80823870D01*
X53412840Y-81307482D02*
X53193719Y-81391602D01*
X58908249Y-81458821D02*
X58688391Y-81401896D01*
X83380000Y-105520398D02*
X83384231Y-97262729D01*
X107836329Y-70759092D02*
X107833619Y-79073255D01*
X56925768Y-41255455D02*
X56930025Y-32947043D01*
X52657738Y-108004995D02*
X52475469Y-108014557D01*
X85532406Y-52868785D02*
X85570068Y-52901117D01*
X105827595Y-105600855D02*
X105830947Y-105575400D01*
X85378249Y-57060326D02*
X85627830Y-57022092D01*
X26457485Y-85951338D02*
X26449969Y-85902274D01*
X105974769Y-83587910D02*
X106215682Y-83663497D01*
X105830947Y-52568126D02*
X105833636Y-52516865D01*
X79362915Y-52618825D02*
X79370947Y-52568126D01*
X105610317Y-79431784D02*
X105651845Y-79401612D01*
X52480681Y-57007273D02*
X52682169Y-57017492D01*
X54710208Y-53506477D02*
X54631496Y-53671488D01*
X79128426Y-26437926D02*
X79150317Y-26424510D01*
X26230317Y-52928147D02*
X26271845Y-52897975D01*
X79191845Y-52897975D02*
X79229991Y-52863628D01*
X26269931Y-59109793D02*
X26229192Y-59081438D01*
X83579433Y-80000233D02*
X83491740Y-79763457D01*
X30575377Y-58780265D02*
X30632597Y-58612862D01*
X28240806Y-80034605D02*
X28134244Y-80243733D01*
X79116816Y-83519843D02*
X79292310Y-83542194D01*
X4048452Y-106022661D02*
X4010218Y-105773080D01*
X32766765Y-59051584D02*
X32722202Y-59073444D01*
X85464164Y-32739044D02*
X85440075Y-32782443D01*
X59321363Y-32518267D02*
X59273312Y-32530708D01*
X6450427Y-32510751D02*
X6401363Y-32518267D01*
X4115377Y-58780265D02*
X4172597Y-58612862D01*
X79377485Y-6440427D02*
X79369969Y-6391363D01*
X111840000Y-112014547D02*
X111840000Y0D01*
X28038716Y-106903250D02*
X27900753Y-107093136D01*
X85570068Y-79404754D02*
X85610807Y-79433109D01*
X58673816Y-57123614D02*
X58918249Y-57060326D01*
X83491740Y-53259820D02*
X83428452Y-53015387D01*
X105565793Y-59057349D02*
X105520179Y-59037775D01*
X105400681Y-57007273D02*
X105602169Y-57017492D01*
X26429627Y-26164769D02*
X26442915Y-26115188D01*
X79191845Y-26394338D02*
X79229991Y-26359991D01*
X107067298Y-4683403D02*
X107241257Y-4866408D01*
X83390025Y-59450680D02*
X83398932Y-59275057D01*
X30480218Y-59249704D02*
X30518452Y-59000123D01*
X26457485Y-59447701D02*
X26449969Y-59398637D01*
X79320177Y-52739501D02*
X79331230Y-52716328D01*
X58932514Y-32948664D02*
X58930000Y-32998237D01*
X32482471Y-105667598D02*
X32499710Y-105714145D01*
X28348259Y-5743816D02*
X28411547Y-5988249D01*
X84980988Y-54841039D02*
X84772286Y-54751477D01*
X59359131Y-28499990D02*
X59157830Y-28489781D01*
X78934489Y-79508221D02*
X78985188Y-79500189D01*
X30464231Y-70759092D02*
X32464231Y-70759092D01*
X26456329Y-70759092D02*
X28456329Y-70759092D01*
X85390030Y-79115910D02*
X85402471Y-79163961D01*
X97110000Y-108013010D02*
X97110000Y-106013010D01*
X79653719Y-28384328D02*
X79401667Y-28451876D01*
X52429765Y-83510910D02*
X52480681Y-83510910D01*
X105837307Y-14751818D02*
X105840000Y-6490000D01*
X105542691Y-52964867D02*
X105565864Y-52953814D01*
X4310629Y-53723286D02*
X4199433Y-53496596D01*
X79349627Y-52668406D02*
X79362915Y-52618825D01*
X59004164Y-6235407D02*
X58980075Y-6278806D01*
X6237830Y-81497055D02*
X5988249Y-81458821D01*
X81331547Y-32491886D02*
X81369781Y-32741467D01*
X83491740Y-106267094D02*
X83428452Y-106022661D01*
X57031740Y-26756183D02*
X56968452Y-26511750D01*
X85378249Y-4053052D02*
X85627830Y-4014818D01*
X85395650Y-59427674D02*
X85392514Y-59452301D01*
X79320177Y-79243138D02*
X79331230Y-79219965D01*
X32910427Y-85518025D02*
X32885800Y-85521161D01*
X67650000Y-28501539D02*
X59359131Y-28499990D01*
X85880000Y-59011874D02*
X85830427Y-59014388D01*
X59182202Y-59073444D02*
X59140078Y-59099699D01*
X105778429Y-6252202D02*
X105752174Y-6210078D01*
X105851750Y-4048452D02*
X106096183Y-4111740D01*
X26138971Y-105981967D02*
X26185864Y-105961088D01*
X106668479Y-83885605D02*
X106875717Y-84029846D01*
X30844694Y-31679757D02*
X30988935Y-31472519D01*
X105861667Y-54955513D02*
X105603935Y-54996347D01*
X6180827Y-32626445D02*
X6144851Y-32660643D01*
X81376329Y-70759092D02*
X81373619Y-79073255D01*
X79377485Y-85951338D02*
X79369969Y-85902274D01*
X32520075Y-32782443D02*
X32509710Y-32805002D01*
X84897040Y-83714944D02*
X85133816Y-83627251D01*
X85368249Y-81458821D02*
X85148391Y-81401896D01*
X59007825Y-52793558D02*
X59038208Y-52832809D01*
X6377180Y-85531153D02*
X6329820Y-85546012D01*
X83380000Y-52513124D02*
X83384231Y-44255455D01*
X52871230Y-105723602D02*
X52889627Y-105675680D01*
X85560827Y-85633719D02*
X85524851Y-85667917D01*
X26068636Y-59017304D02*
X26019572Y-59009788D01*
X79189931Y-6102519D02*
X79149192Y-6074164D01*
X67650000Y-30506292D02*
X67650000Y-32506292D01*
X53151608Y-57112651D02*
X53319011Y-57169871D01*
X26229192Y-6074164D02*
X26185793Y-6050075D01*
X32909082Y-83515522D02*
X41190000Y-83513566D01*
X27495717Y-4518935D02*
X27687298Y-4683403D01*
X79370947Y-26064489D02*
X79373636Y-26013228D01*
X70650000Y-30505583D02*
X78889765Y-30503636D01*
X52729931Y-85613430D02*
X52689192Y-85585075D01*
X52858429Y-85763113D02*
X52832174Y-85720989D01*
X28348259Y-58751090D02*
X28411547Y-58995523D01*
X106239011Y-57169871D02*
X106447713Y-57259433D01*
X78935656Y-81510910D02*
X78883044Y-81510910D01*
X78988636Y-59017304D02*
X78939572Y-59009788D01*
X79377307Y-41255455D02*
X79380000Y-32993637D01*
X32521570Y-52751434D02*
X32547825Y-52793558D01*
X105840000Y-32993637D02*
X105837485Y-32944064D01*
X107751402Y-53162214D02*
X107670757Y-53410386D01*
X85532406Y-105876059D02*
X85570068Y-105908391D01*
X52897528Y-85854223D02*
X52880289Y-85807676D01*
X80974136Y-106882027D02*
X80820753Y-107093136D01*
X79318429Y-32755839D02*
X79292174Y-32713715D01*
X107837307Y-41255455D02*
X105837307Y-41255455D01*
X81254328Y-26783719D02*
X81170208Y-27002840D01*
X59150807Y-52929472D02*
X59194206Y-52953561D01*
X6306765Y-32547947D02*
X6262202Y-32569807D01*
X79060179Y-6030501D02*
X79036687Y-6022471D01*
X57119433Y-80000233D02*
X57031740Y-79763457D01*
X85870000Y-106010911D02*
X94110000Y-106012449D01*
X58952471Y-32851549D02*
X58940030Y-32899600D01*
X59249820Y-85546012D02*
X59204206Y-85565586D01*
X67650000Y-4002655D02*
X67650000Y-6002655D01*
X6144851Y-6157006D02*
X6112519Y-6194668D01*
X32722202Y-59073444D02*
X32680078Y-59099699D01*
X67650000Y-83513566D02*
X67650000Y-85513566D01*
X53802339Y-28088716D02*
X53646459Y-28184244D01*
X30464231Y-17751818D02*
X32464231Y-17751818D01*
X84256408Y-4603342D02*
X84456073Y-4448789D01*
X78939572Y-59009788D02*
X78890000Y-59007274D01*
X105400445Y-3999988D02*
X105602169Y-4010218D01*
X26449969Y-59398637D02*
X26437528Y-59350586D01*
X32900427Y-26497485D02*
X32950000Y-26500000D01*
X6005768Y-41255455D02*
X4005768Y-41255455D01*
X54861876Y-53035304D02*
X54794328Y-53287356D01*
X4010025Y-85954317D02*
X4020218Y-85753341D01*
X78985188Y-52996552D02*
X79034769Y-52983264D01*
X5290350Y-57322503D02*
X5517040Y-57211307D01*
X28334328Y-106294630D02*
X28240806Y-106538242D01*
X85771363Y-79497243D02*
X85820427Y-79504759D01*
X54147298Y-4683403D02*
X54321257Y-4866408D01*
X81091496Y-106678762D02*
X80974136Y-106882027D01*
X58925768Y-67759092D02*
X56925768Y-67759092D01*
X105542691Y-26461230D02*
X105588426Y-26437926D01*
X59360427Y-26497485D02*
X59410000Y-26500000D01*
X52804338Y-52825482D02*
X52834510Y-52783954D01*
X52690317Y-79431784D02*
X52731845Y-79401612D01*
X57518742Y-54137228D02*
X57364189Y-53937563D01*
X83491740Y-26756183D02*
X83428452Y-26511750D01*
X105400681Y-83510910D02*
X105576816Y-83519843D01*
X32604851Y-59164280D02*
X32572519Y-59201942D01*
X79391750Y-57055726D02*
X79611608Y-57112651D01*
X85420501Y-32828057D02*
X85405642Y-32875417D01*
X32465768Y-41255455D02*
X30465768Y-41255455D01*
X105445188Y-52996552D02*
X105494769Y-52983264D01*
X85560827Y-32626445D02*
X85524851Y-32660643D01*
X59311363Y-79497243D02*
X59360427Y-79504759D01*
X85830427Y-32510751D02*
X85781363Y-32518267D01*
X79401667Y-81459150D02*
X79143935Y-81499984D01*
X79058971Y-105981967D02*
X79105864Y-105961088D01*
X59420000Y-6004600D02*
X59370427Y-6007114D01*
X26733719Y-54887965D02*
X26481667Y-54955513D01*
X26450947Y-79071763D02*
X26453636Y-79020502D01*
X4005768Y-94262729D02*
X4010025Y-85954317D01*
X54720566Y-58514314D02*
X54808259Y-58751090D01*
X44190000Y-106013010D02*
X52423228Y-106014547D01*
X32521570Y-79255071D02*
X32547825Y-79297195D01*
X105470153Y-105997831D02*
X105518971Y-105981967D01*
X14730000Y-4002655D02*
X14730000Y-6002655D01*
X79036687Y-6022471D02*
X78988636Y-6010030D01*
X107670757Y-79914023D02*
X107564614Y-80152407D01*
X30659433Y-80000233D02*
X30571740Y-79763457D01*
X26015656Y-28503636D02*
X25963044Y-28503636D01*
X32650068Y-105908391D02*
X32690807Y-105936746D01*
X52430000Y-59007274D02*
X44190000Y-59009220D01*
X79292174Y-6210078D02*
X79261791Y-6170827D01*
X4974282Y-84034446D02*
X5181520Y-83890205D01*
X105649931Y-32606156D02*
X105609192Y-32577801D01*
X25963044Y-28503636D02*
X17730000Y-28502099D01*
X85148391Y-81401896D02*
X84980988Y-81344676D01*
X54794328Y-79790993D02*
X54710208Y-80010114D01*
X57884282Y-27981064D02*
X57692701Y-27816596D01*
X32885800Y-85521161D02*
X32837180Y-85531153D01*
X6401363Y-59021904D02*
X6353312Y-59034345D01*
X105349765Y-57007273D02*
X105400681Y-57007273D01*
X6118208Y-26329172D02*
X6152406Y-26365148D01*
X32520075Y-59286080D02*
X32500501Y-59331694D01*
X83978742Y-80640865D02*
X83824189Y-80441200D01*
X105496687Y-59029745D02*
X105448636Y-59017304D01*
X32458249Y-30556689D02*
X32707830Y-30518455D01*
X105752174Y-59217352D02*
X105721791Y-59178101D01*
X105394489Y-106011858D02*
X105419944Y-106008506D01*
X32578208Y-26329172D02*
X32612406Y-26365148D01*
X5171520Y-107636216D02*
X4964282Y-107491975D01*
X79331230Y-105723602D02*
X79349627Y-105675680D01*
X79189931Y-32606156D02*
X79149192Y-32577801D01*
X26014489Y-106011858D02*
X26039944Y-106008506D01*
X4598742Y-54137228D02*
X4444189Y-53937563D01*
X52860177Y-105746775D02*
X52871230Y-105723602D01*
X84551520Y-107636216D02*
X84344282Y-107491975D01*
X6500000Y-6004600D02*
X6450427Y-6007114D01*
X32899131Y-55003627D02*
X32697830Y-54993418D01*
X57119433Y-53496596D02*
X57031740Y-53259820D01*
X85560827Y-59130082D02*
X85524851Y-59164280D01*
X83642159Y-31900523D02*
X83764694Y-31679757D01*
X79373636Y-52516865D02*
X79376329Y-44255455D01*
X105649931Y-85613430D02*
X105609192Y-85585075D01*
X6087825Y-26289921D02*
X6118208Y-26329172D01*
X58952471Y-59355186D02*
X58940030Y-59403237D01*
X105780177Y-105746775D02*
X105801056Y-105699882D01*
X32492471Y-32851549D02*
X32480030Y-32899600D01*
X6061570Y-105758708D02*
X6087825Y-105800832D01*
X85686765Y-59051584D02*
X85642202Y-59073444D01*
X79987713Y-83763070D02*
X80208479Y-83885605D01*
X79362915Y-26115188D02*
X79370947Y-26064489D01*
X32851363Y-79497243D02*
X32900427Y-79504759D01*
X83908935Y-31472519D02*
X84073403Y-31280938D01*
X107395810Y-58073347D02*
X107529370Y-58287624D01*
X70650000Y-106013010D02*
X78883228Y-106014547D01*
X52832174Y-32713715D02*
X52801791Y-32674464D01*
X5865230Y-107933911D02*
X5624317Y-107858324D01*
X58920000Y-79017274D02*
X58922514Y-79066846D01*
X85467825Y-105800832D02*
X85498208Y-105840083D01*
X80646145Y-27776145D02*
X80452225Y-27950753D01*
X58688391Y-28394622D02*
X58520988Y-28337402D01*
X81268259Y-32247453D02*
X81331547Y-32491886D01*
X5171520Y-81132579D02*
X4964282Y-80988338D01*
X53054769Y-83587910D02*
X53295682Y-83663497D01*
X26223935Y-54996347D02*
X26015656Y-55007273D01*
X54360753Y-80589499D02*
X54186145Y-80783419D01*
X79149192Y-85585075D02*
X79105793Y-85560986D01*
X6012514Y-85955938D02*
X6010000Y-86005511D01*
X59273312Y-6027071D02*
X59226765Y-6044310D01*
X26449969Y-6391363D02*
X26437528Y-6343312D01*
X54609370Y-84791261D02*
X54720566Y-85017951D01*
X26457485Y-32944064D02*
X26449969Y-32895000D01*
X85467689Y-107979627D02*
X85245230Y-107933911D01*
X85492519Y-59201942D02*
X85464164Y-59242681D01*
X105651845Y-26394338D02*
X105689991Y-26359991D01*
X28348259Y-32247453D02*
X28411547Y-32491886D01*
X58952471Y-6347912D02*
X58940030Y-6395963D01*
X6032471Y-85858823D02*
X6020030Y-85906874D01*
X107529370Y-31783987D02*
X107640566Y-32010677D01*
X26116687Y-6022471D02*
X26068636Y-6010030D01*
X26068636Y-6010030D02*
X26019572Y-6002514D01*
X105350000Y-85510911D02*
X97110000Y-85512857D01*
X84073403Y-4777301D02*
X84256408Y-4603342D01*
X26344338Y-26321845D02*
X26374510Y-26280317D01*
X59038208Y-79336446D02*
X59072406Y-79372422D01*
X6061570Y-52751434D02*
X6087825Y-52793558D01*
X85617830Y-54993418D02*
X85368249Y-54955184D01*
X32803312Y-79484802D02*
X32851363Y-79497243D01*
X53992225Y-107461664D02*
X53781116Y-107615047D01*
X67650000Y-79508812D02*
X67650000Y-81508813D01*
X26481667Y-81459150D02*
X26223935Y-81499984D01*
X26185793Y-85560986D02*
X26140179Y-85541412D01*
X6500000Y-32508237D02*
X6450427Y-32510751D01*
X56940218Y-6242430D02*
X56978452Y-5992849D01*
X105343228Y-79510910D02*
X105394489Y-79508221D01*
X26929154Y-30694253D02*
X27089909Y-30768115D01*
X4782701Y-84198914D02*
X4974282Y-84034446D01*
X26015656Y-55007273D02*
X25963044Y-55007273D01*
X32509710Y-6301365D02*
X32492471Y-6347912D01*
X6010000Y-32998237D02*
X6005768Y-41255455D01*
X52690317Y-26424510D02*
X52731845Y-26394338D01*
X52913636Y-52516865D02*
X52916329Y-44255455D01*
X31631520Y-107636216D02*
X31424282Y-107491975D01*
X6240807Y-85589675D02*
X6200068Y-85618030D01*
X3999974Y-79067443D02*
X4004231Y-70759092D01*
X54920000Y-32993962D02*
X54917307Y-41255455D01*
X83390025Y-6443406D02*
X83398932Y-6267783D01*
X85380000Y-26010000D02*
X85382514Y-26059572D01*
X4005768Y-41255455D02*
X4010025Y-32947043D01*
X52475469Y-108014557D02*
X44190000Y-108013010D01*
X26372174Y-6210078D02*
X26341791Y-6170827D01*
X54920000Y-32942955D02*
X54920000Y-32993962D01*
X4274478Y-5374690D02*
X4384694Y-5176120D01*
X6084164Y-59242681D02*
X6060075Y-59286080D01*
X67650000Y-59009929D02*
X59420000Y-59011874D01*
X85627830Y-83525729D02*
X85829082Y-83515522D01*
X107728259Y-85254727D02*
X107791547Y-85499160D01*
X32723183Y-108001978D02*
X32547689Y-107979627D01*
X79227593Y-6134851D02*
X79189931Y-6102519D01*
X80974136Y-80378390D02*
X80820753Y-80589499D01*
X58940030Y-59403237D02*
X58932514Y-59452301D01*
X26387926Y-105769337D02*
X26411230Y-105723602D01*
X59194206Y-26449924D02*
X59239820Y-26469498D01*
X59150807Y-105936746D02*
X59194206Y-105960835D01*
X58785230Y-107933911D02*
X58544317Y-107858324D01*
X80820753Y-54085862D02*
X80646145Y-54279782D01*
X105343228Y-106014547D02*
X105394489Y-106011858D01*
X32482471Y-52660324D02*
X32499710Y-52706871D01*
X53555133Y-107745525D02*
X53316749Y-107851668D01*
X79143935Y-81499984D02*
X78935656Y-81510910D01*
X26014489Y-26500947D02*
X26065188Y-26492915D01*
X6032471Y-59355186D02*
X6020030Y-59403237D01*
X6343312Y-79484802D02*
X6391363Y-79497243D01*
X41190000Y-81508813D02*
X32899131Y-81507264D01*
X58932514Y-59452301D02*
X58930000Y-59501874D01*
X26162691Y-79468504D02*
X26185864Y-79457451D01*
X52909969Y-85902274D02*
X52897528Y-85854223D01*
X28453619Y-105576892D02*
X28442710Y-105784846D01*
X106722339Y-28088716D02*
X106566459Y-28184244D01*
X105801056Y-26188971D02*
X105816920Y-26140153D01*
X84152701Y-54320233D02*
X83978742Y-54137228D01*
X26341791Y-32674464D02*
X26307593Y-32638488D01*
X31232701Y-107327507D02*
X31058742Y-107144502D01*
X52880289Y-6296765D02*
X52858429Y-6252202D01*
X52897528Y-59350586D02*
X52880289Y-59304039D01*
X105800289Y-32800402D02*
X105778429Y-32755839D01*
X105800289Y-59304039D02*
X105778429Y-59259476D01*
X26453636Y-52516865D02*
X26456329Y-44255455D01*
X26090153Y-105997831D02*
X26138971Y-105981967D01*
X41190000Y-59009929D02*
X32960000Y-59011874D01*
X4048452Y-53015387D02*
X4010218Y-52765806D01*
X32470000Y-6494600D02*
X32465768Y-14751818D01*
X52430000Y-85510911D02*
X44190000Y-85512857D01*
X28460000Y-85950229D02*
X28460000Y-86001236D01*
X32707830Y-30518455D02*
X32909082Y-30508248D01*
X6237830Y-54993418D02*
X5988249Y-54955184D01*
X52729931Y-32606156D02*
X52689192Y-32577801D01*
X30460000Y-105520398D02*
X30464231Y-97262729D01*
X6061570Y-26247797D02*
X6087825Y-26289921D01*
X52902915Y-26115188D02*
X52910947Y-26064489D01*
X105649931Y-59109793D02*
X105609192Y-59081438D01*
X6005768Y-14751818D02*
X4005768Y-14751818D01*
X30465768Y-41255455D02*
X30470025Y-32947043D01*
X26114769Y-79486901D02*
X26162691Y-79468504D01*
X6439131Y-28499990D02*
X6237830Y-28489781D01*
X84256408Y-57610616D02*
X84456073Y-57456063D01*
X80646145Y-54279782D02*
X80452225Y-54454390D01*
X85733312Y-85537982D02*
X85686765Y-85555221D01*
X79370947Y-105575400D02*
X79373636Y-105524139D01*
X79105864Y-79457451D02*
X79150317Y-79431784D01*
X83978742Y-107144502D02*
X83824189Y-106944837D01*
X52550153Y-105997831D02*
X52598971Y-105981967D01*
X31862286Y-83767670D02*
X32094317Y-83668097D01*
X52576687Y-59029745D02*
X52528636Y-59017304D01*
X54913619Y-79073255D02*
X54902710Y-79281209D01*
X58922514Y-105570483D02*
X58930030Y-105619547D01*
X80935810Y-5066073D02*
X81069370Y-5280350D01*
X32509710Y-85812276D02*
X32492471Y-85858823D01*
X83579433Y-53496596D02*
X83491740Y-53259820D01*
X59004164Y-59242681D02*
X58980075Y-59286080D01*
X26185793Y-59057349D02*
X26140179Y-59037775D01*
X6087825Y-105800832D02*
X6118208Y-105840083D01*
X26309991Y-52863628D02*
X26344338Y-52825482D01*
X26378995Y-107981123D02*
X26197738Y-108004995D01*
X85642202Y-85577081D02*
X85600078Y-85603336D01*
X32680078Y-32596062D02*
X32640827Y-32626445D01*
X107840016Y-6439644D02*
X107837307Y-14751818D01*
X59226765Y-6044310D02*
X59182202Y-6066170D01*
X107751402Y-26658577D02*
X107670757Y-26906749D01*
X79357528Y-59350586D02*
X79340289Y-59304039D01*
X26450947Y-26064489D02*
X26453636Y-26013228D01*
X107840016Y-85950555D02*
X107837307Y-94262729D01*
X79117738Y-108004995D02*
X78935469Y-108014557D01*
X52600179Y-59037775D02*
X52576687Y-59029745D01*
X26269931Y-85613430D02*
X26229192Y-85585075D01*
X79373636Y-105524139D02*
X79376329Y-97262729D01*
X6220078Y-59099699D02*
X6180827Y-59130082D01*
X52834510Y-105791228D02*
X52860177Y-105746775D01*
X52423044Y-81510910D02*
X44190000Y-81509373D01*
X58930000Y-59501874D02*
X58925768Y-67759092D01*
X4310629Y-106730560D02*
X4199433Y-106503870D01*
X4772701Y-54320233D02*
X4598742Y-54137228D01*
X58930030Y-26108636D02*
X58942471Y-26156687D01*
X79611608Y-4105377D02*
X79779011Y-4162597D01*
X79149192Y-6074164D02*
X79105793Y-6050075D01*
X94110000Y-108012450D02*
X85819131Y-108010901D01*
X85133816Y-57123614D02*
X85378249Y-57060326D01*
X52832174Y-6210078D02*
X52801791Y-6170827D01*
X52889627Y-79172043D02*
X52902915Y-79122462D01*
X26341791Y-6170827D02*
X26307593Y-6134851D01*
X5517040Y-57211307D02*
X5753816Y-57123614D01*
X52897528Y-32846949D02*
X52880289Y-32800402D01*
X59311363Y-26489969D02*
X59360427Y-26497485D01*
X85524851Y-85667917D02*
X85492519Y-85705579D01*
X54710208Y-27002840D02*
X54631496Y-27167851D01*
X58980075Y-32782443D02*
X58960501Y-32828057D01*
X94110000Y-4002655D02*
X94110000Y-6002655D01*
X52860177Y-79243138D02*
X52871230Y-79219965D01*
X52423228Y-106014547D02*
X52474489Y-106011858D01*
X26372174Y-32713715D02*
X26341791Y-32674464D01*
X79143935Y-54996347D02*
X78935656Y-55007273D01*
X58544317Y-107858324D02*
X58312286Y-107758751D01*
X85440075Y-85789717D02*
X85420501Y-85835331D01*
X28457307Y-67759092D02*
X26457307Y-67759092D01*
X25969765Y-57007273D02*
X26020681Y-57007273D01*
X83380000Y-52564318D02*
X83380000Y-52513124D01*
X32910427Y-59014388D02*
X32861363Y-59021904D01*
X83642159Y-5396886D02*
X83764694Y-5176120D01*
X83542586Y-85139828D02*
X83642159Y-84907797D01*
X105687593Y-32638488D02*
X105649931Y-32606156D01*
X79294510Y-79287591D02*
X79320177Y-79243138D01*
X107791547Y-32491886D02*
X107829781Y-32741467D01*
X27687298Y-84194314D02*
X27861257Y-84377319D01*
X83690629Y-27219649D02*
X83579433Y-26992959D01*
X6112519Y-6194668D02*
X6084164Y-6235407D01*
X83384231Y-44255455D02*
X85384231Y-44255455D01*
X105687593Y-59142125D02*
X105649931Y-59109793D01*
X54913619Y-26065981D02*
X54902710Y-26273935D01*
X83390218Y-26262169D02*
X83380000Y-26060681D01*
X79349627Y-26164769D02*
X79362915Y-26115188D01*
X30480218Y-85753341D02*
X30518452Y-85503760D01*
X28134244Y-80243733D02*
X28038716Y-80399613D01*
X106701116Y-54607773D02*
X106497851Y-54725133D01*
X31434282Y-84034446D02*
X31641520Y-83890205D01*
X30988935Y-4968882D02*
X31153403Y-4777301D01*
X52920000Y-6490000D02*
X52917485Y-6440427D01*
X27321116Y-81111410D02*
X27117851Y-81228770D01*
X58924231Y-70759092D02*
X58920000Y-79017274D01*
X84897040Y-30707670D02*
X85133816Y-30619977D01*
X105817528Y-85854223D02*
X105800289Y-85807676D01*
X32499710Y-26203234D02*
X32521570Y-26247797D01*
X26307593Y-32638488D02*
X26269931Y-32606156D01*
X31631520Y-28125305D02*
X31424282Y-27981064D01*
X32640827Y-59130082D02*
X32604851Y-59164280D01*
X81091496Y-53671488D02*
X80974136Y-53874753D01*
X85133816Y-83627251D02*
X85378249Y-83563963D01*
X85492519Y-85705579D02*
X85464164Y-85746318D01*
X105400681Y-30503636D02*
X105602169Y-30513855D01*
X105754510Y-52783954D02*
X105780177Y-52739501D01*
X32734206Y-26449924D02*
X32756765Y-26460289D01*
X52731845Y-79401612D02*
X52769991Y-79367265D01*
X59369082Y-57011885D02*
X67650000Y-57009929D01*
X6002514Y-79066846D02*
X6010030Y-79115910D01*
X105399572Y-85513425D02*
X105350000Y-85510911D01*
X59183183Y-108001978D02*
X59007689Y-107979627D01*
X31336408Y-57610616D02*
X31536073Y-57456063D01*
X52690317Y-52928147D02*
X52731845Y-52897975D01*
X6144851Y-59164280D02*
X6112519Y-59201942D01*
X52528636Y-32513667D02*
X52479572Y-32506151D01*
X52871230Y-52716328D02*
X52889627Y-52668406D01*
X106912225Y-54454390D02*
X106701116Y-54607773D01*
X80781257Y-31370045D02*
X80935810Y-31569710D01*
X32680078Y-59099699D02*
X32640827Y-59130082D01*
X105394489Y-53004584D02*
X105445188Y-52996552D01*
X105778429Y-32755839D02*
X105752174Y-32713715D01*
X81362710Y-52777572D02*
X81321876Y-53035304D01*
X52860177Y-52739501D02*
X52871230Y-52716328D01*
X59359131Y-55003627D02*
X59157830Y-54993418D01*
X79349627Y-105675680D02*
X79362915Y-105626099D01*
X52525188Y-26492915D02*
X52574769Y-26479627D01*
X54917307Y-14751818D02*
X52917307Y-14751818D01*
X85771363Y-26489969D02*
X85820427Y-26497485D01*
X26442915Y-79122462D02*
X26450947Y-79071763D01*
X56920000Y-105571592D02*
X56920000Y-105520398D01*
X107728259Y-32247453D02*
X107791547Y-32491886D01*
X56978452Y-5992849D02*
X57035377Y-5772991D01*
X78940681Y-30503636D02*
X79142169Y-30513855D01*
X30470218Y-105773080D02*
X30460000Y-105571592D01*
X79292174Y-85720989D02*
X79261791Y-85681738D01*
X26453636Y-26013228D02*
X26456329Y-17751818D01*
X28456329Y-17751818D02*
X28453619Y-26065981D01*
X56925768Y-14751818D02*
X56930025Y-6443406D01*
X83466999Y-5869830D02*
X83542586Y-5628917D01*
X105816920Y-52643790D02*
X105827595Y-52593581D01*
X28449781Y-32741467D02*
X28460000Y-32942955D01*
X52622691Y-26461230D02*
X52668426Y-26437926D01*
X57129433Y-85022551D02*
X57240629Y-84795861D01*
X83542586Y-5628917D02*
X83642159Y-5396886D01*
X52920000Y-32993637D02*
X52917485Y-32944064D01*
X6319820Y-52973135D02*
X6343312Y-52981165D01*
X32960000Y-6004600D02*
X32910427Y-6007114D01*
X30508452Y-106022661D02*
X30470218Y-105773080D01*
X4048452Y-26511750D02*
X4010218Y-26262169D01*
X105721791Y-32674464D02*
X105687593Y-32638488D01*
X25970000Y-59007274D02*
X17730000Y-59009220D01*
X79034769Y-52983264D02*
X79082691Y-52964867D01*
X25963044Y-81510910D02*
X17730000Y-81509373D01*
X78985188Y-79500189D02*
X79034769Y-79486901D01*
X107564614Y-53648770D02*
X107434136Y-53874753D01*
X52499944Y-106008506D02*
X52550153Y-105997831D01*
X26065188Y-26492915D02*
X26114769Y-26479627D01*
X6449082Y-83515522D02*
X14730000Y-83513566D01*
X85382514Y-105570483D02*
X85390030Y-105619547D01*
X58091520Y-81132579D02*
X57884282Y-80988338D01*
X111840000Y0D02*
X0Y0D01*
X59239820Y-79476772D02*
X59263312Y-79484802D01*
X53748479Y-83885605D02*
X53955717Y-84029846D01*
X26197738Y-108004995D02*
X26015469Y-108014557D01*
X105721791Y-6170827D02*
X105687593Y-6134851D01*
X107640566Y-85017951D02*
X107728259Y-85254727D01*
X79082691Y-52964867D02*
X79105864Y-52953814D01*
X6084164Y-6235407D02*
X6060075Y-6278806D01*
X57119433Y-106503870D02*
X57031740Y-106267094D01*
X79331230Y-79219965D02*
X79349627Y-79172043D01*
X79105793Y-6050075D02*
X79060179Y-6030501D01*
X81170208Y-106513751D02*
X81091496Y-106678762D01*
X85464164Y-6235407D02*
X85440075Y-6278806D01*
X107640566Y-32010677D02*
X107728259Y-32247453D01*
X26196816Y-83519843D02*
X26372310Y-83542194D01*
X26163234Y-32543347D02*
X26116687Y-32526108D01*
X17730000Y-6001946D02*
X17730000Y-4001946D01*
X6039710Y-26203234D02*
X6061570Y-26247797D01*
X58312286Y-107758751D02*
X58091520Y-107636216D01*
X94110000Y-32506292D02*
X85880000Y-32508237D01*
X52917307Y-14751818D02*
X52920000Y-6490000D01*
X79377307Y-94262729D02*
X79380000Y-86000911D01*
X79261791Y-59178101D02*
X79227593Y-59142125D01*
X57448935Y-4968882D02*
X57613403Y-4777301D01*
X6247830Y-57022092D02*
X6449082Y-57011885D01*
X84897040Y-57211307D02*
X85133816Y-57123614D01*
X80037851Y-54725133D02*
X79872840Y-54803845D01*
X54609370Y-58287624D02*
X54720566Y-58514314D01*
X32547825Y-105800832D02*
X32578208Y-105840083D01*
X105840000Y-6490000D02*
X105837485Y-6440427D01*
X26114769Y-26479627D02*
X26162691Y-26461230D01*
X14730000Y-26501538D02*
X14730000Y-28501539D01*
X58210350Y-57322503D02*
X58437040Y-57211307D01*
X6450427Y-85518025D02*
X6425800Y-85521161D01*
X57518742Y-27633591D02*
X57364189Y-27433926D01*
X105829969Y-85902274D02*
X105817528Y-85854223D01*
X53437331Y-28290806D02*
X53193719Y-28384328D01*
X83824189Y-53937563D02*
X83690629Y-53723286D01*
X6353312Y-59034345D02*
X6306765Y-59051584D01*
X81268259Y-58751090D02*
X81331547Y-58995523D01*
X32650068Y-52901117D02*
X32690807Y-52929472D01*
X54913619Y-52569618D02*
X54902710Y-52777572D01*
X81321876Y-26531667D02*
X81254328Y-26783719D01*
X4384694Y-31679757D02*
X4528935Y-31472519D01*
X26344338Y-79329119D02*
X26374510Y-79287591D01*
X26429627Y-105675680D02*
X26442915Y-105626099D01*
X31852286Y-54751477D02*
X31631520Y-54628942D01*
X79298995Y-107981123D02*
X79117738Y-108004995D01*
X106309154Y-4190616D02*
X106469909Y-4264478D01*
X97110000Y-55005736D02*
X97110000Y-53005736D01*
X32950000Y-79507274D02*
X41190000Y-79508812D01*
X6022471Y-52660324D02*
X6039710Y-52706871D01*
X105565793Y-6050075D02*
X105543234Y-6039710D01*
X107837307Y-94262729D02*
X105837307Y-94262729D01*
X52880289Y-59304039D02*
X52858429Y-59259476D01*
X85004317Y-107858324D02*
X84772286Y-107758751D01*
X52920000Y-86000911D02*
X52917485Y-85951338D01*
X59007825Y-79297195D02*
X59038208Y-79336446D01*
X57182159Y-5396886D02*
X57304694Y-5176120D01*
X41190000Y-53005175D02*
X41190000Y-55005176D01*
X28240806Y-106538242D02*
X28134244Y-106747370D01*
X4444189Y-80441200D02*
X4310629Y-80226923D01*
X26222169Y-4010218D02*
X26471750Y-4048452D01*
X79149192Y-32577801D02*
X79105793Y-32553712D01*
X52689192Y-85585075D02*
X52645793Y-85560986D01*
X80415717Y-4518935D02*
X80607298Y-4683403D01*
X59072406Y-52868785D02*
X59110068Y-52901117D01*
X17730000Y-30505583D02*
X25969765Y-30503636D01*
X59193183Y-83524443D02*
X59369082Y-83515522D01*
X52480681Y-83510910D02*
X52656816Y-83519843D01*
X84073403Y-31280938D02*
X84256408Y-31106979D01*
X105840000Y-59497274D02*
X105837485Y-59447701D01*
X27687298Y-57690677D02*
X27861257Y-57873682D01*
X105395656Y-55007273D02*
X105343044Y-55007273D01*
X28015810Y-58073347D02*
X28149370Y-58287624D01*
X26471750Y-30552089D02*
X26716183Y-30615377D01*
X58925768Y-41255455D02*
X56925768Y-41255455D01*
X78934489Y-26500947D02*
X78985188Y-26492915D01*
X52889627Y-26164769D02*
X52902915Y-26115188D01*
X32228391Y-54898259D02*
X32060988Y-54841039D01*
X4693403Y-57784575D02*
X4876408Y-57610616D01*
X32572519Y-6194668D02*
X32544164Y-6235407D01*
X54631496Y-106678762D02*
X54514136Y-106882027D01*
X85498208Y-79336446D02*
X85532406Y-79372422D01*
X32521570Y-26247797D02*
X32547825Y-26289921D01*
X32766765Y-32547947D02*
X32722202Y-32569807D01*
X78890000Y-32503637D02*
X70650000Y-32505583D01*
X78890000Y-6000000D02*
X70650000Y-6001946D01*
X97110000Y-57009220D02*
X105349765Y-57007273D01*
X78890000Y-59007274D02*
X70650000Y-59009220D01*
X54902710Y-52777572D02*
X54861876Y-53035304D01*
X106113719Y-28384328D02*
X105861667Y-28451876D01*
X26733719Y-81391602D02*
X26481667Y-81459150D01*
X81380000Y-32942955D02*
X81380000Y-32993962D01*
X83908935Y-4968882D02*
X84073403Y-4777301D01*
X79189931Y-85613430D02*
X79149192Y-85585075D01*
X52931750Y-4048452D02*
X53151608Y-4105377D01*
X28054136Y-27371116D02*
X27900753Y-27582225D01*
X44190000Y-55005736D02*
X44190000Y-53005736D01*
X58952471Y-85858823D02*
X58940030Y-85906874D01*
X79369969Y-6391363D02*
X79357528Y-6343312D01*
X83908935Y-57976156D02*
X84073403Y-57784575D01*
X79357528Y-32846949D02*
X79340289Y-32800402D01*
X106701116Y-81111410D02*
X106497851Y-81228770D01*
X105816920Y-79147427D02*
X105827595Y-79097218D01*
X6002514Y-52563209D02*
X6010030Y-52612273D01*
X32325230Y-107933911D02*
X32084317Y-107858324D01*
X4209433Y-85022551D02*
X4320629Y-84795861D01*
X54609370Y-31783987D02*
X54720566Y-32010677D01*
X78889765Y-83510910D02*
X78940681Y-83510910D01*
X85686765Y-85555221D02*
X85642202Y-85577081D01*
X78934489Y-53004584D02*
X78985188Y-52996552D01*
X54861876Y-106042578D02*
X54794328Y-106294630D01*
X56930218Y-105773080D02*
X56920000Y-105571592D01*
X81377307Y-14751818D02*
X79377307Y-14751818D01*
X4199433Y-26992959D02*
X4111740Y-26756183D01*
X4528935Y-31472519D02*
X4693403Y-31280938D01*
X105721791Y-59178101D02*
X105687593Y-59142125D01*
X53955717Y-4518935D02*
X54147298Y-4683403D01*
X52731845Y-26394338D02*
X52769991Y-26359991D01*
X26230317Y-79431784D02*
X26271845Y-79401612D01*
X31058742Y-54137228D02*
X30904189Y-53937563D01*
X28442710Y-52777572D02*
X28401876Y-53035304D01*
X57884282Y-80988338D02*
X57692701Y-80823870D01*
X58322286Y-83767670D02*
X58554317Y-83668097D01*
X6367180Y-105995268D02*
X6415800Y-106005260D01*
X4010218Y-26262169D02*
X3999974Y-26060169D01*
X80208479Y-83885605D02*
X80415717Y-84029846D01*
X4608742Y-84381919D02*
X4782701Y-84198914D01*
X107840016Y-59446918D02*
X107837307Y-67759092D01*
X32612406Y-52868785D02*
X32650068Y-52901117D01*
X59239820Y-105980409D02*
X59287180Y-105995268D01*
X14730000Y-106012449D02*
X14730000Y-108012450D01*
X106096183Y-30615377D02*
X106309154Y-30694253D01*
X27089909Y-4264478D02*
X27288479Y-4374694D01*
X107836329Y-44255455D02*
X107833619Y-52569618D01*
X27495717Y-84029846D02*
X27687298Y-84194314D01*
X28457307Y-94262729D02*
X26457307Y-94262729D01*
X79143935Y-28492710D02*
X78935656Y-28503636D01*
X107791547Y-85499160D02*
X107829781Y-85748741D01*
X32572519Y-59201942D02*
X32544164Y-59242681D01*
X32697830Y-81497055D02*
X32448249Y-81458821D01*
X80262339Y-28088716D02*
X80106459Y-28184244D01*
X26015469Y-108014557D02*
X17730000Y-108013010D01*
X31232701Y-80823870D02*
X31058742Y-80640865D01*
X32900427Y-106008396D02*
X32950000Y-106010911D01*
X94110000Y-59009929D02*
X85880000Y-59011874D01*
X83421283Y-59099563D02*
X83466999Y-58877104D01*
X85467825Y-79297195D02*
X85498208Y-79336446D01*
X79376329Y-97262729D02*
X81376329Y-97262729D01*
X5290350Y-30818866D02*
X5517040Y-30707670D01*
X78939572Y-32506151D02*
X78890000Y-32503637D01*
X105754510Y-79287591D02*
X105780177Y-79243138D01*
X84344282Y-27981064D02*
X84152701Y-27816596D01*
X58520988Y-81344676D02*
X58312286Y-81255114D01*
X54861876Y-79538941D02*
X54794328Y-79790993D01*
X44190000Y-79509373D02*
X52423228Y-79510910D01*
X32827180Y-105995268D02*
X32875800Y-106005260D01*
X78889765Y-57007273D02*
X78940681Y-57007273D01*
X85699820Y-52973135D02*
X85723312Y-52981165D01*
X54808259Y-85254727D02*
X54871547Y-85499160D01*
X107529370Y-58287624D02*
X107640566Y-58514314D01*
X28015810Y-5066073D02*
X28149370Y-5280350D01*
X79357528Y-85854223D02*
X79340289Y-85807676D01*
X27321116Y-28104136D02*
X27117851Y-28221496D01*
X4111740Y-106267094D02*
X4048452Y-106022661D01*
X79377485Y-59447701D02*
X79369969Y-59398637D01*
X78883044Y-81510910D02*
X70650000Y-81509373D01*
X58942471Y-52660324D02*
X58959710Y-52706871D01*
X79987713Y-4252159D02*
X80208479Y-4374694D01*
X26185864Y-52953814D02*
X26230317Y-52928147D01*
X30470025Y-85954317D02*
X30480218Y-85753341D01*
X53748479Y-57381968D02*
X53955717Y-57526209D01*
X14730000Y-85513566D02*
X6500000Y-85515511D01*
X81268259Y-85254727D02*
X81331547Y-85499160D01*
X59335800Y-106005260D02*
X59360427Y-106008396D01*
X27861257Y-4866408D02*
X28015810Y-5066073D01*
X106875717Y-31022572D02*
X107067298Y-31187040D01*
X79294510Y-105791228D02*
X79320177Y-105746775D01*
X54920000Y-6439318D02*
X54920000Y-6490325D01*
X6220078Y-32596062D02*
X6180827Y-32626445D01*
X85560827Y-6122808D02*
X85524851Y-6157006D01*
X58673816Y-4116340D02*
X58918249Y-4053052D01*
X32612406Y-105876059D02*
X32650068Y-105908391D01*
X26457307Y-14751818D02*
X26460000Y-6490000D01*
X59140078Y-32596062D02*
X59100827Y-32626445D01*
X6490000Y-53003637D02*
X14730000Y-53005175D01*
X83542586Y-58636191D02*
X83642159Y-58404160D01*
X6112519Y-59201942D02*
X6084164Y-59242681D01*
X78890000Y-85510911D02*
X70650000Y-85512857D01*
X57364189Y-106944837D02*
X57230629Y-106730560D01*
X4876408Y-4603342D02*
X5076073Y-4448789D01*
X85384231Y-17751818D02*
X85380000Y-26010000D01*
X54916329Y-17751818D02*
X54913619Y-26065981D01*
X57996073Y-30952426D02*
X58210350Y-30818866D01*
X32697830Y-54993418D02*
X32448249Y-54955184D01*
X85880000Y-6004600D02*
X85830427Y-6007114D01*
X32588208Y-85686338D02*
X32557825Y-85725589D01*
X105609192Y-85585075D02*
X105565793Y-85560986D01*
X83380000Y-105571592D02*
X83380000Y-105520398D01*
X107280753Y-107093136D02*
X107106145Y-107287056D01*
X85384231Y-70759092D02*
X85380000Y-79017274D01*
X6020030Y-6395963D02*
X6012514Y-6445027D01*
X107067298Y-31187040D02*
X107241257Y-31370045D01*
X30904189Y-53937563D02*
X30770629Y-53723286D01*
X32861363Y-32518267D02*
X32813312Y-32530708D01*
X26271845Y-79401612D02*
X26309991Y-79367265D01*
X85643183Y-108001978D02*
X85467689Y-107979627D01*
X79340289Y-59304039D02*
X79318429Y-59259476D01*
X79034769Y-26479627D02*
X79082691Y-26461230D01*
X80607298Y-4683403D02*
X80781257Y-4866408D01*
X6262202Y-32569807D02*
X6220078Y-32596062D01*
X105780177Y-52739501D02*
X105801056Y-52692608D01*
X44190000Y-81509373D02*
X44190000Y-79509373D01*
X44190000Y-53005736D02*
X52423228Y-53007273D01*
X57796408Y-4603342D02*
X57996073Y-4448789D01*
X52889627Y-52668406D02*
X52902915Y-52618825D01*
X59370427Y-6007114D02*
X59321363Y-6014630D01*
X58437040Y-4204033D02*
X58673816Y-4116340D01*
X107067298Y-57690677D02*
X107241257Y-57873682D01*
X14730000Y-53005175D02*
X14730000Y-55005176D01*
X54720566Y-5507040D02*
X54808259Y-5743816D01*
X79142169Y-30513855D02*
X79391750Y-30552089D01*
X107241257Y-84377319D02*
X107395810Y-84576984D01*
X26344338Y-52825482D02*
X26374510Y-52783954D01*
X6180827Y-6122808D02*
X6144851Y-6157006D01*
X6247830Y-4014818D02*
X6449082Y-4004611D01*
X25970000Y-85510911D02*
X17730000Y-85512857D01*
X85820427Y-26497485D02*
X85870000Y-26500000D01*
X59359131Y-108010901D02*
X59183183Y-108001978D01*
X3999974Y-105571080D02*
X4004231Y-97262729D01*
X106497851Y-54725133D02*
X106332840Y-54803845D01*
X26442915Y-52618825D02*
X26450947Y-52568126D01*
X30465768Y-94262729D02*
X30470025Y-85954317D01*
X32470030Y-105619547D02*
X32482471Y-105667598D01*
X56920000Y-52513124D02*
X56924231Y-44255455D01*
X85610807Y-105936746D02*
X85654206Y-105960835D01*
X52576687Y-6022471D02*
X52528636Y-6010030D01*
X57035377Y-5772991D02*
X57092597Y-5605588D01*
X105837307Y-94262729D02*
X105840000Y-86000911D01*
X27067713Y-83763070D02*
X27288479Y-83885605D01*
X85380000Y-52513637D02*
X85382514Y-52563209D01*
X5753816Y-30619977D02*
X5998249Y-30556689D01*
X57031740Y-53259820D02*
X56968452Y-53015387D01*
X17730000Y-32505583D02*
X17730000Y-30505583D01*
X32950000Y-26500000D02*
X41190000Y-26501538D01*
X32910427Y-6007114D02*
X32861363Y-6014630D01*
X59311363Y-52993606D02*
X59360427Y-53001122D01*
X26185864Y-26450177D02*
X26230317Y-26424510D01*
X28250208Y-27002840D02*
X28171496Y-27167851D01*
X26162691Y-52964867D02*
X26185864Y-52953814D01*
X85133816Y-30619977D02*
X85378249Y-30556689D01*
X106668479Y-30878331D02*
X106875717Y-31022572D01*
X81069370Y-5280350D02*
X81180566Y-5507040D01*
X80241116Y-54607773D02*
X80037851Y-54725133D01*
X54186145Y-27776145D02*
X53992225Y-27950753D01*
X4121740Y-5748416D02*
X4200616Y-5535445D01*
X26608577Y-107932313D02*
X26378995Y-107981123D01*
X30904189Y-106944837D02*
X30770629Y-106730560D01*
X32690807Y-52929472D02*
X32734206Y-52953561D01*
X4111740Y-79763457D02*
X4048452Y-79519024D01*
X105689991Y-105870902D02*
X105724338Y-105832756D01*
X6112519Y-32698305D02*
X6084164Y-32739044D01*
X6230807Y-52929472D02*
X6274206Y-52953561D01*
X97110000Y-32505583D02*
X97110000Y-30505583D01*
X6415800Y-106005260D02*
X6440427Y-106008396D01*
X6128208Y-85686338D02*
X6097825Y-85725589D01*
X52767593Y-32638488D02*
X52729931Y-32606156D01*
X107670757Y-26906749D02*
X107564614Y-27145133D01*
X58688391Y-54898259D02*
X58520988Y-54841039D01*
X53781116Y-81111410D02*
X53577851Y-81228770D01*
X58554317Y-83668097D02*
X58795230Y-83592510D01*
X52480445Y-3999988D02*
X52682169Y-4010218D01*
X79376329Y-44255455D02*
X81376329Y-44255455D01*
X59157830Y-28489781D02*
X58908249Y-28451547D01*
X58930030Y-52612273D02*
X58942471Y-52660324D01*
X83380000Y-26009487D02*
X83384231Y-17751818D01*
X26019572Y-6002514D02*
X25970000Y-6000000D01*
X27095133Y-107745525D02*
X26856749Y-107851668D01*
X54475810Y-84576984D02*
X54609370Y-84791261D01*
X57230629Y-53723286D02*
X57119433Y-53496596D01*
X58924231Y-17751818D02*
X58920000Y-26010000D01*
X84073403Y-57784575D02*
X84256408Y-57610616D01*
X84152701Y-80823870D02*
X83978742Y-80640865D01*
X84772286Y-54751477D02*
X84551520Y-54628942D01*
X6010030Y-105619547D02*
X6022471Y-105667598D01*
X105833636Y-105524139D02*
X105836329Y-97262729D01*
X26222169Y-57017492D02*
X26471750Y-57055726D01*
X32803312Y-26477528D02*
X32851363Y-26489969D01*
X80974136Y-53874753D02*
X80820753Y-54085862D01*
X32612406Y-26365148D02*
X32650068Y-26397480D01*
X52504199Y-85516561D02*
X52479572Y-85513425D01*
X79514769Y-83587910D02*
X79755682Y-83663497D01*
X58959710Y-105714145D02*
X58981570Y-105758708D01*
X17730000Y-55005736D02*
X17730000Y-53005736D01*
X54475810Y-5066073D02*
X54609370Y-5280350D01*
X85686765Y-32547947D02*
X85642202Y-32569807D01*
X52622691Y-52964867D02*
X52645864Y-52953814D01*
X107434136Y-106882027D02*
X107280753Y-107093136D01*
X83380000Y-79067955D02*
X83380000Y-79016761D01*
X52769991Y-26359991D02*
X52804338Y-26321845D01*
X26309991Y-105870902D02*
X26344338Y-105832756D01*
X26457485Y-6440427D02*
X26449969Y-6391363D01*
X79261791Y-85681738D02*
X79227593Y-85645762D01*
X6060075Y-6278806D02*
X6049710Y-6301365D01*
X58980075Y-6278806D02*
X58960501Y-6324420D01*
X54360753Y-54085862D02*
X54186145Y-54279782D01*
X105687593Y-6134851D02*
X105649931Y-6102519D01*
X5875230Y-83592510D02*
X6097689Y-83546794D01*
X58932514Y-85955938D02*
X58930000Y-86005511D01*
X54794328Y-53287356D02*
X54710208Y-53506477D01*
X107824084Y-105758649D02*
X107800212Y-105939906D01*
X79373636Y-79020502D02*
X79376329Y-70759092D01*
X30508452Y-79519024D02*
X30470218Y-79269443D01*
X85781363Y-85525541D02*
X85733312Y-85537982D01*
X85148391Y-54898259D02*
X84980988Y-54841039D01*
X107791547Y-58995523D02*
X107829781Y-59245104D01*
X81373619Y-105576892D02*
X81362710Y-105784846D01*
X79318429Y-59259476D02*
X79292174Y-59217352D01*
X52909969Y-6391363D02*
X52897528Y-6343312D01*
X85880000Y-32508237D02*
X85830427Y-32510751D01*
X57613403Y-31280938D02*
X57796408Y-31106979D01*
X26065188Y-79500189D02*
X26114769Y-79486901D01*
X58925768Y-14751818D02*
X56925768Y-14751818D01*
X26020681Y-83510910D02*
X26196816Y-83519843D01*
X107529370Y-84791261D02*
X107640566Y-85017951D01*
X26065188Y-52996552D02*
X26114769Y-52983264D01*
X80607298Y-31187040D02*
X80781257Y-31370045D01*
X107824084Y-26247738D02*
X107800212Y-26428995D01*
X57182159Y-31900523D02*
X57304694Y-31679757D01*
X80415717Y-31022572D02*
X80607298Y-31187040D01*
X79380000Y-59497274D02*
X79377485Y-59447701D01*
X0Y0D02*
X0Y-112014547D01*
X105837485Y-32944064D02*
X105829969Y-32895000D01*
X107670757Y-106417660D02*
X107564614Y-106656044D01*
X32460000Y-26010000D02*
X32462514Y-26059572D01*
X52423228Y-79510910D02*
X52474489Y-79508221D01*
X59273312Y-59034345D02*
X59226765Y-59051584D01*
X27089909Y-30768115D02*
X27288479Y-30878331D01*
X5743816Y-28388259D02*
X5530845Y-28309383D01*
X58312286Y-81255114D02*
X58091520Y-81132579D01*
X26271845Y-105905249D02*
X26309991Y-105870902D01*
X6449082Y-57011885D02*
X14730000Y-57009929D01*
X26457307Y-67759092D02*
X26460000Y-59497274D01*
X6401363Y-6014630D02*
X6353312Y-6027071D01*
X84551520Y-28125305D02*
X84344282Y-27981064D01*
X97110000Y-28502099D02*
X97110000Y-26502099D01*
X6000000Y-26010000D02*
X6002514Y-26059572D01*
X4310629Y-27219649D02*
X4199433Y-26992959D01*
X53316749Y-107851668D02*
X53068577Y-107932313D01*
X54321257Y-31370045D02*
X54475810Y-31569710D01*
X6000000Y-79017274D02*
X6002514Y-79066846D01*
X26230317Y-26424510D02*
X26271845Y-26394338D01*
X79227593Y-32638488D02*
X79189931Y-32606156D01*
X105827595Y-79097218D02*
X105830947Y-79071763D01*
X28411547Y-32491886D02*
X28449781Y-32741467D01*
X59273312Y-32530708D02*
X59226765Y-32547947D01*
X28460000Y-6490325D02*
X28457307Y-14751818D01*
X80974136Y-27371116D02*
X80820753Y-27582225D01*
X6087825Y-79297195D02*
X6118208Y-79336446D01*
X79036687Y-59029745D02*
X78988636Y-59017304D01*
X57304694Y-5176120D02*
X57448935Y-4968882D01*
X28456329Y-97262729D02*
X28453619Y-105576892D01*
X105687593Y-85645762D02*
X105649931Y-85613430D01*
X81369781Y-32741467D02*
X81380000Y-32942955D01*
X6152406Y-79372422D02*
X6190068Y-79404754D01*
X32680078Y-6092425D02*
X32640827Y-6122808D01*
X32700807Y-85589675D02*
X32660068Y-85618030D01*
X85368249Y-28451547D02*
X85123816Y-28388259D01*
X105689991Y-26359991D02*
X105724338Y-26321845D01*
X85405642Y-59379054D02*
X85395650Y-59427674D01*
X83428452Y-53015387D02*
X83390218Y-52765806D01*
X6005768Y-67759092D02*
X4005768Y-67759092D01*
X30470218Y-79269443D02*
X30460000Y-79067955D01*
X79340289Y-85807676D02*
X79318429Y-85763113D01*
X52645864Y-52953814D02*
X52690317Y-52928147D01*
X105399572Y-6002514D02*
X105350000Y-6000000D01*
X84551520Y-81132579D02*
X84344282Y-80988338D01*
X83390025Y-32947043D02*
X83398932Y-32771420D01*
X6200068Y-85618030D02*
X6162406Y-85650362D01*
X85402471Y-105667598D02*
X85419710Y-105714145D01*
X52832174Y-59217352D02*
X52801791Y-59178101D01*
X58942471Y-105667598D02*
X58959710Y-105714145D01*
X85524851Y-32660643D02*
X85492519Y-32698305D01*
X30632597Y-58612862D02*
X30722159Y-58404160D01*
X58930030Y-105619547D02*
X58942471Y-105667598D01*
X58922514Y-26059572D02*
X58930030Y-26108636D01*
X6012514Y-6445027D02*
X6010000Y-6494600D01*
X54710208Y-80010114D02*
X54631496Y-80175125D01*
X32803312Y-52981165D02*
X32851363Y-52993606D01*
X5624317Y-107858324D02*
X5392286Y-107758751D01*
X26450947Y-105575400D02*
X26453636Y-105524139D01*
X79779011Y-30666234D02*
X79987713Y-30755796D01*
X105851750Y-57055726D02*
X106071608Y-57112651D01*
X94110000Y-28501539D02*
X85819131Y-28499990D01*
X41190000Y-79508812D02*
X41190000Y-81508813D01*
X59410000Y-53003637D02*
X67650000Y-53005175D01*
X6022471Y-26156687D02*
X6039710Y-26203234D01*
X70650000Y-4001946D02*
X78940445Y-3999988D01*
X28460000Y-32993962D02*
X28457307Y-41255455D01*
X28457307Y-14751818D02*
X26457307Y-14751818D01*
X107106145Y-80783419D02*
X106912225Y-80958027D01*
X78985188Y-26492915D02*
X79034769Y-26479627D01*
X26398429Y-59259476D02*
X26372174Y-59217352D01*
X52600179Y-32534138D02*
X52576687Y-32526108D01*
X58918249Y-57060326D02*
X59167830Y-57022092D01*
X54920000Y-86001236D02*
X54917307Y-94262729D01*
X4010025Y-59450680D02*
X4020218Y-59249704D01*
X85441570Y-79255071D02*
X85467825Y-79297195D01*
X105343228Y-26503636D02*
X105394489Y-26500947D01*
X105817528Y-6343312D02*
X105800289Y-6296765D01*
X85820427Y-106008396D02*
X85870000Y-106010911D01*
X107728259Y-58751090D02*
X107791547Y-58995523D01*
X5600988Y-54841039D02*
X5392286Y-54751477D01*
X28460000Y-6439318D02*
X28460000Y-6490325D01*
X6353312Y-32530708D02*
X6306765Y-32547947D01*
X52645793Y-85560986D02*
X52600179Y-85541412D01*
X79401667Y-54955513D02*
X79143935Y-54996347D01*
X32756765Y-26460289D02*
X32803312Y-26477528D01*
X85385768Y-67759092D02*
X83385768Y-67759092D01*
X5181520Y-83890205D02*
X5402286Y-83767670D01*
X105610317Y-105935421D02*
X105651845Y-105905249D01*
X80452225Y-107461664D02*
X80241116Y-107615047D01*
X17730000Y-108013010D02*
X17730000Y-106013010D01*
X17730000Y-26502099D02*
X25963228Y-26503636D01*
X59226765Y-59051584D02*
X59182202Y-59073444D01*
X53955717Y-31022572D02*
X54147298Y-31187040D01*
X105520179Y-59037775D02*
X105496687Y-59029745D01*
X56920000Y-79016761D02*
X56924231Y-70759092D01*
X56940218Y-85753341D02*
X56978452Y-85503760D01*
X79362915Y-105626099D02*
X79370947Y-105575400D01*
X52767593Y-6134851D02*
X52729931Y-6102519D01*
X4384694Y-58183394D02*
X4528935Y-57976156D01*
X80415717Y-84029846D02*
X80607298Y-84194314D01*
X53992225Y-27950753D02*
X53802339Y-28088716D01*
X105610317Y-52928147D02*
X105651845Y-52897975D01*
X52858429Y-6252202D02*
X52832174Y-6210078D01*
X54186145Y-80783419D02*
X53992225Y-80958027D01*
X79373636Y-26013228D02*
X79376329Y-17751818D01*
X17730000Y-106013010D02*
X25963228Y-106014547D01*
X85733312Y-6027071D02*
X85686765Y-6044310D01*
X53527713Y-57259433D02*
X53748479Y-57381968D01*
X30734478Y-5374690D02*
X30844694Y-5176120D01*
X32950000Y-106010911D02*
X41190000Y-106012449D01*
X52767593Y-59142125D02*
X52729931Y-59109793D01*
X83398932Y-6267783D02*
X83421283Y-6092289D01*
X83428452Y-26511750D02*
X83390218Y-26262169D01*
X32707830Y-57022092D02*
X32909082Y-57011885D01*
X54861876Y-26531667D02*
X54794328Y-26783719D01*
X59321363Y-59021904D02*
X59273312Y-59034345D01*
X58312286Y-54751477D02*
X58091520Y-54628942D01*
X4005768Y-67759092D02*
X4010025Y-59450680D01*
X6000000Y-52513637D02*
X6002514Y-52563209D01*
X79872840Y-81307482D02*
X79653719Y-81391602D01*
X30460000Y-79067955D02*
X30460000Y-79016761D01*
X28401876Y-26531667D02*
X28334328Y-26783719D01*
X6061570Y-79255071D02*
X6087825Y-79297195D01*
X54514136Y-80378390D02*
X54360753Y-80589499D01*
X59369082Y-83515522D02*
X67650000Y-83513566D01*
X54186145Y-107287056D02*
X53992225Y-107461664D01*
X54609370Y-5280350D02*
X54720566Y-5507040D01*
X85390000Y-59501874D02*
X85385768Y-67759092D01*
X27067713Y-57259433D02*
X27288479Y-57381968D01*
X17730000Y-85512857D02*
X17730000Y-83512857D01*
X85382514Y-26059572D02*
X85390030Y-26108636D01*
X4772701Y-80823870D02*
X4598742Y-80640865D01*
X59167830Y-57022092D02*
X59369082Y-57011885D01*
X79264338Y-52825482D02*
X79294510Y-52783954D01*
X79380000Y-32993637D02*
X79377485Y-32944064D01*
X85390030Y-26108636D02*
X85402471Y-26156687D01*
X54720566Y-32010677D02*
X54808259Y-32247453D01*
X27288479Y-30878331D02*
X27495717Y-31022572D01*
X85467825Y-26289921D02*
X85498208Y-26329172D01*
X30660616Y-5535445D02*
X30734478Y-5374690D01*
X30780629Y-84795861D02*
X30914189Y-84581584D01*
X107800212Y-26428995D02*
X107751402Y-26658577D01*
X105445188Y-79500189D02*
X105494769Y-79486901D01*
X28411547Y-5988249D02*
X28449781Y-6237830D01*
X85570068Y-26397480D02*
X85610807Y-26425835D01*
X70650000Y-79509373D02*
X78883228Y-79510910D01*
X32690807Y-105936746D02*
X32734206Y-105960835D01*
X79229991Y-105870902D02*
X79264338Y-105832756D01*
X107833619Y-52569618D02*
X107824084Y-52751375D01*
X26398429Y-32755839D02*
X26372174Y-32713715D01*
X107067298Y-84194314D02*
X107241257Y-84377319D01*
X52913636Y-79020502D02*
X52916329Y-70759092D01*
X81180566Y-5507040D02*
X81268259Y-5743816D01*
X54186145Y-54279782D02*
X53992225Y-54454390D01*
X57031740Y-79763457D02*
X56968452Y-79519024D01*
X6439131Y-55003627D02*
X6237830Y-54993418D01*
X56924231Y-44255455D02*
X58924231Y-44255455D01*
X26929154Y-4190616D02*
X27089909Y-4264478D01*
X26015656Y-81510910D02*
X25963044Y-81510910D01*
X14730000Y-81508813D02*
X6439131Y-81507264D01*
X79150317Y-105935421D02*
X79191845Y-105905249D01*
X27687298Y-4683403D02*
X27861257Y-4866408D01*
X57364189Y-27433926D02*
X57230629Y-27219649D01*
X56924231Y-70759092D02*
X58924231Y-70759092D01*
X31852286Y-107758751D02*
X31631520Y-107636216D01*
X85771363Y-52993606D02*
X85820427Y-53001122D01*
X32690807Y-79433109D02*
X32734206Y-79457198D01*
X81170208Y-53506477D02*
X81091496Y-53671488D01*
X5988249Y-81458821D02*
X5768391Y-81401896D01*
X4528935Y-4968882D02*
X4693403Y-4777301D01*
X85419710Y-105714145D02*
X85441570Y-105758708D01*
X26271845Y-26394338D02*
X26309991Y-26359991D01*
X31424282Y-54484701D02*
X31232701Y-54320233D01*
X52552819Y-85526553D02*
X52504199Y-85516561D01*
X53527713Y-30755796D02*
X53748479Y-30878331D01*
X4320629Y-84795861D02*
X4454189Y-84581584D01*
X32779820Y-105980409D02*
X32827180Y-105995268D01*
X106475133Y-107745525D02*
X106236749Y-107851668D01*
X52576687Y-32526108D02*
X52528636Y-32513667D01*
X79010153Y-105997831D02*
X79058971Y-105981967D01*
X57374189Y-84581584D02*
X57528742Y-84381919D01*
X52801791Y-6170827D02*
X52767593Y-6134851D01*
X4058452Y-85503760D02*
X4121740Y-85259327D01*
X31536073Y-4448789D02*
X31750350Y-4315229D01*
X105827595Y-26089944D02*
X105830947Y-26064489D01*
X26449969Y-85902274D02*
X26437528Y-85854223D01*
X79142169Y-57017492D02*
X79391750Y-57055726D01*
X52917485Y-59447701D02*
X52909969Y-59398637D01*
X28015810Y-84576984D02*
X28149370Y-84791261D01*
X32900427Y-79504759D02*
X32950000Y-79507274D01*
X85654206Y-52953561D02*
X85699820Y-52973135D01*
X84256408Y-31106979D02*
X84456073Y-30952426D01*
X32335230Y-83592510D02*
X32557689Y-83546794D01*
X105689991Y-79367265D02*
X105724338Y-79329119D01*
X105721791Y-85681738D02*
X105687593Y-85645762D01*
X85464164Y-59242681D02*
X85440075Y-59286080D01*
X31536073Y-57456063D02*
X31750350Y-57322503D01*
X58924231Y-44255455D02*
X58920000Y-52513637D01*
X56930218Y-26262169D02*
X56920000Y-26060681D01*
X83428452Y-106022661D02*
X83390218Y-105773080D01*
X107836329Y-97262729D02*
X107833619Y-105576892D01*
X54902710Y-79281209D02*
X54861876Y-79538941D01*
X57230629Y-80226923D02*
X57119433Y-80000233D01*
X6500000Y-59011874D02*
X6450427Y-59014388D01*
X83384231Y-97262729D02*
X85384231Y-97262729D01*
X32789820Y-85546012D02*
X32744206Y-85565586D01*
X59072406Y-26365148D02*
X59110068Y-26397480D01*
X27288479Y-57381968D02*
X27495717Y-57526209D01*
X85123816Y-28388259D02*
X84910845Y-28309383D01*
X81380000Y-6439318D02*
X81380000Y-6490325D01*
X26420289Y-85807676D02*
X26398429Y-85763113D01*
X6087825Y-52793558D02*
X6118208Y-52832809D01*
X79227593Y-59142125D02*
X79189931Y-59109793D01*
X58918249Y-30556689D02*
X59167830Y-30518455D01*
X59369082Y-4004611D02*
X67650000Y-4002655D01*
X58960501Y-6324420D02*
X58952471Y-6347912D01*
X78883228Y-79510910D02*
X78934489Y-79508221D01*
X31750350Y-30818866D02*
X31977040Y-30707670D01*
X6097825Y-85725589D02*
X6071570Y-85767713D01*
X80781257Y-57873682D02*
X80935810Y-58073347D01*
X85440075Y-32782443D02*
X85420501Y-32828057D01*
X79370947Y-79071763D02*
X79373636Y-79020502D01*
X26344338Y-105832756D02*
X26374510Y-105791228D01*
X26068636Y-32513667D02*
X26019572Y-32506151D01*
X107280753Y-80589499D02*
X107106145Y-80783419D01*
X107833619Y-79073255D02*
X107824084Y-79255012D01*
X105724338Y-26321845D02*
X105754510Y-26280317D01*
X57996073Y-4448789D02*
X58210350Y-4315229D01*
X85492519Y-6194668D02*
X85464164Y-6235407D01*
X31852286Y-81255114D02*
X31631520Y-81132579D01*
X44190000Y-4001946D02*
X52480445Y-3999988D01*
X32572519Y-32698305D02*
X32544164Y-32739044D01*
X57518742Y-80640865D02*
X57364189Y-80441200D01*
X26429627Y-79172043D02*
X26442915Y-79122462D01*
X56968452Y-79519024D02*
X56930218Y-79269443D01*
X59017689Y-83546794D02*
X59193183Y-83524443D01*
X41190000Y-57009929D02*
X41190000Y-59009929D01*
X32640827Y-6122808D02*
X32604851Y-6157006D01*
X81373619Y-79073255D02*
X81362710Y-79281209D01*
X32650068Y-79404754D02*
X32690807Y-79433109D01*
X27900753Y-80589499D02*
X27726145Y-80783419D01*
X54909781Y-6237830D02*
X54920000Y-6439318D01*
X28348259Y-85254727D02*
X28411547Y-85499160D01*
X4010218Y-79269443D02*
X3999974Y-79067443D01*
X54631496Y-53671488D02*
X54514136Y-53874753D01*
X79779011Y-57169871D02*
X79987713Y-57259433D01*
X85385768Y-94262729D02*
X83385768Y-94262729D01*
X78939572Y-85513425D02*
X78890000Y-85510911D01*
X32470030Y-26108636D02*
X32482471Y-26156687D01*
X32464231Y-44255455D02*
X32460000Y-52513637D01*
X94110000Y-57009929D02*
X94110000Y-59009929D01*
X59359131Y-81507264D02*
X59157830Y-81497055D01*
X79362915Y-79122462D02*
X79370947Y-79071763D01*
X17730000Y-83512857D02*
X25969765Y-83510910D01*
X52682169Y-30513855D02*
X52931750Y-30552089D01*
X70650000Y-32505583D02*
X70650000Y-30505583D01*
X25970000Y-32503637D02*
X17730000Y-32505583D01*
X79391750Y-30552089D02*
X79611608Y-30609014D01*
X52479572Y-32506151D02*
X52430000Y-32503637D01*
X26471750Y-4048452D02*
X26716183Y-4111740D01*
X58922514Y-52563209D02*
X58930030Y-52612273D01*
X41190000Y-28501539D02*
X32899131Y-28499990D01*
X107640566Y-5507040D02*
X107728259Y-5743816D01*
X27288479Y-83885605D02*
X27495717Y-84029846D01*
X78940681Y-83510910D02*
X79116816Y-83519843D01*
X81377307Y-94262729D02*
X79377307Y-94262729D01*
X54360753Y-27582225D02*
X54186145Y-27776145D01*
X105602169Y-57017492D02*
X105851750Y-57055726D01*
X83491740Y-79763457D02*
X83428452Y-79519024D01*
X5076073Y-30952426D02*
X5290350Y-30818866D01*
X85781363Y-6014630D02*
X85733312Y-6027071D01*
X85419710Y-52706871D02*
X85441570Y-52751434D01*
X52917485Y-6440427D02*
X52909969Y-6391363D01*
X81380000Y-32993962D02*
X81377307Y-41255455D01*
X30460000Y-52564318D02*
X30460000Y-52513124D01*
X52920000Y-59497274D02*
X52917485Y-59447701D01*
X85795800Y-106005260D02*
X85820427Y-106008396D01*
X107670757Y-53410386D02*
X107564614Y-53648770D01*
X105445188Y-26492915D02*
X105494769Y-26479627D01*
X105394489Y-79508221D02*
X105445188Y-79500189D01*
X5076073Y-57456063D02*
X5290350Y-57322503D01*
X83642159Y-58404160D02*
X83764694Y-58183394D01*
X59420000Y-59011874D02*
X59370427Y-59014388D01*
X25969765Y-83510910D02*
X26020681Y-83510910D01*
X79082691Y-79468504D02*
X79105864Y-79457451D01*
X105543234Y-32543347D02*
X105496687Y-32526108D01*
X26733719Y-28384328D02*
X26481667Y-28451876D01*
X32203816Y-28388259D02*
X31990845Y-28309383D01*
X107728259Y-5743816D02*
X107791547Y-5988249D01*
X26114769Y-52983264D02*
X26162691Y-52964867D01*
X5392286Y-81255114D02*
X5171520Y-81132579D01*
X70650000Y-57009220D02*
X78889765Y-57007273D01*
X56978452Y-32496486D02*
X57035377Y-32276628D01*
X105758995Y-107981123D02*
X105577738Y-108004995D01*
X28334328Y-53287356D02*
X28240806Y-53530968D01*
X30988935Y-57976156D02*
X31153403Y-57784575D01*
X70650000Y-53005736D02*
X78883228Y-53007273D01*
X59263312Y-26477528D02*
X59311363Y-26489969D01*
X105833636Y-79020502D02*
X105836329Y-70759092D01*
X85819131Y-28499990D02*
X85617830Y-28489781D01*
X106447713Y-57259433D02*
X106668479Y-57381968D01*
X6084164Y-32739044D02*
X6060075Y-32782443D01*
X26163234Y-6039710D02*
X26116687Y-6022471D01*
X52916329Y-97262729D02*
X54916329Y-97262729D01*
X105754510Y-26280317D02*
X105780177Y-26235864D01*
X106357331Y-28290806D02*
X106113719Y-28384328D01*
X79292310Y-83542194D02*
X79514769Y-83587910D01*
X57448935Y-57976156D02*
X57613403Y-57784575D01*
X41190000Y-85513566D02*
X32960000Y-85515511D01*
X78889765Y-30503636D02*
X78940681Y-30503636D01*
X59370427Y-32510751D02*
X59321363Y-32518267D01*
X32547689Y-107979627D02*
X32325230Y-107933911D01*
X26420289Y-6296765D02*
X26398429Y-6252202D01*
X4772701Y-107327507D02*
X4598742Y-107144502D01*
X6004231Y-70759092D02*
X6000000Y-79017274D01*
X78964199Y-85516561D02*
X78939572Y-85513425D01*
X70650000Y-81509373D02*
X70650000Y-79509373D01*
X54871547Y-85499160D02*
X54909781Y-85748741D01*
X32544164Y-59242681D02*
X32520075Y-59286080D01*
X52600179Y-6030501D02*
X52576687Y-6022471D01*
X27117851Y-54725133D02*
X26952840Y-54803845D01*
X83390218Y-79269443D02*
X83380000Y-79067955D01*
X56925768Y-67759092D02*
X56930025Y-59450680D01*
X105752310Y-83542194D02*
X105974769Y-83587910D01*
X25963228Y-106014547D02*
X26014489Y-106011858D01*
X85384231Y-44255455D02*
X85380000Y-52513637D01*
X79036687Y-32526108D02*
X78988636Y-32513667D01*
X54916329Y-44255455D02*
X54913619Y-52569618D01*
X5753816Y-57123614D02*
X5998249Y-57060326D01*
X53577851Y-54725133D02*
X53412840Y-54803845D01*
X6012514Y-32948664D02*
X6010000Y-32998237D01*
X56930218Y-79269443D02*
X56920000Y-79067955D01*
X84670350Y-57322503D02*
X84897040Y-57211307D01*
X85617830Y-81497055D02*
X85368249Y-81458821D01*
X83384231Y-70759092D02*
X85384231Y-70759092D01*
X59194206Y-105960835D02*
X59239820Y-105980409D01*
X6353312Y-6027071D02*
X6306765Y-6044310D01*
X85440075Y-6278806D02*
X85420501Y-6324420D01*
X6230807Y-105936746D02*
X6274206Y-105960835D01*
X26185864Y-79457451D02*
X26230317Y-79431784D01*
X26471750Y-57055726D02*
X26691608Y-57112651D01*
X6500000Y-85515511D02*
X6450427Y-85518025D01*
X4772701Y-27816596D02*
X4598742Y-27633591D01*
X79369969Y-59398637D02*
X79357528Y-59350586D01*
X5402286Y-83767670D02*
X5634317Y-83668097D01*
X6040501Y-59331694D02*
X6032471Y-59355186D01*
X5076073Y-4448789D02*
X5290350Y-4315229D01*
X105780177Y-26235864D02*
X105801056Y-26188971D01*
X83421283Y-85603200D02*
X83466999Y-85380741D01*
X41190000Y-32506292D02*
X32960000Y-32508237D01*
X85419710Y-26203234D02*
X85441570Y-26247797D01*
X94110000Y-30506292D02*
X94110000Y-32506292D01*
X106071608Y-57112651D02*
X106239011Y-57169871D01*
X58091520Y-107636216D02*
X57884282Y-107491975D01*
X81331547Y-85499160D02*
X81369781Y-85748741D01*
X31750350Y-4315229D02*
X31977040Y-4204033D01*
X79149192Y-59081438D02*
X79105793Y-59057349D01*
X26229192Y-59081438D02*
X26185793Y-59057349D01*
X85733312Y-32530708D02*
X85686765Y-32547947D01*
X31424282Y-27981064D02*
X31232701Y-27816596D01*
X5768391Y-54898259D02*
X5600988Y-54841039D01*
X59239820Y-26469498D02*
X59263312Y-26477528D01*
X52804338Y-105832756D02*
X52834510Y-105791228D01*
X27532225Y-80958027D02*
X27321116Y-81111410D01*
X26020445Y-3999988D02*
X26222169Y-4010218D01*
X85870000Y-53003637D02*
X94110000Y-53005175D01*
X32604851Y-32660643D02*
X32572519Y-32698305D01*
X83690629Y-106730560D02*
X83579433Y-106503870D01*
X79340289Y-6296765D02*
X79318429Y-6252202D01*
X26481667Y-54955513D02*
X26223935Y-54996347D01*
X4964282Y-80988338D02*
X4772701Y-80823870D01*
X52910947Y-79071763D02*
X52913636Y-79020502D01*
X58959710Y-52706871D02*
X58981570Y-52751434D01*
X79105864Y-105961088D02*
X79150317Y-105935421D01*
X52801791Y-32674464D02*
X52767593Y-32638488D01*
X52528636Y-6010030D02*
X52479572Y-6002514D01*
X105800289Y-6296765D02*
X105778429Y-6252202D01*
X107837307Y-14751818D02*
X105837307Y-14751818D01*
X17730000Y-59009220D02*
X17730000Y-57009220D01*
X26450947Y-52568126D02*
X26453636Y-52516865D01*
X26411230Y-26212691D02*
X26429627Y-26164769D01*
X105861667Y-81459150D02*
X105603935Y-81499984D01*
X54794328Y-26783719D02*
X54710208Y-27002840D01*
X5171520Y-54628942D02*
X4964282Y-54484701D01*
X78940445Y-3999988D02*
X79142169Y-4010218D01*
X78959944Y-106008506D02*
X79010153Y-105997831D01*
X53527713Y-4252159D02*
X53748479Y-4374694D01*
X27726145Y-80783419D02*
X27532225Y-80958027D01*
X105833636Y-26013228D02*
X105836329Y-17751818D01*
X85830427Y-59014388D02*
X85781363Y-59021904D01*
X59082406Y-85650362D02*
X59048208Y-85686338D01*
X6039710Y-105714145D02*
X6061570Y-105758708D01*
X54808259Y-5743816D02*
X54871547Y-5988249D01*
X58312286Y-28247840D02*
X58091520Y-28125305D01*
X32482471Y-79163961D02*
X32499710Y-79210508D01*
X105496687Y-32526108D02*
X105448636Y-32513667D01*
X107564614Y-106656044D02*
X107434136Y-106882027D01*
X85829082Y-4004611D02*
X94110000Y-4002655D01*
X26437528Y-59350586D02*
X26420289Y-59304039D01*
X26437528Y-85854223D02*
X26420289Y-85807676D01*
X58924231Y-97262729D02*
X58920000Y-105520911D01*
X26859011Y-57169871D02*
X27067713Y-57259433D01*
X32470000Y-32998237D02*
X32465768Y-41255455D01*
X105603935Y-28492710D02*
X105395656Y-28503636D01*
X80820753Y-80589499D02*
X80646145Y-80783419D01*
X54710208Y-106513751D02*
X54631496Y-106678762D01*
X80820753Y-27582225D02*
X80646145Y-27776145D01*
X6004231Y-17751818D02*
X6000000Y-26010000D01*
X32910427Y-32510751D02*
X32861363Y-32518267D01*
X30770629Y-53723286D02*
X30659433Y-53496596D01*
X80935810Y-31569710D02*
X81069370Y-31783987D01*
X53151608Y-30609014D02*
X53319011Y-30666234D01*
X53193719Y-54887965D02*
X52941667Y-54955513D01*
X59032519Y-59201942D02*
X59004164Y-59242681D01*
X79987713Y-30755796D02*
X80208479Y-30878331D01*
X105651845Y-79401612D02*
X105689991Y-79367265D01*
X53193719Y-28384328D02*
X52941667Y-28451876D01*
X85627830Y-57022092D02*
X85829082Y-57011885D01*
X30659433Y-106503870D02*
X30571740Y-106267094D01*
X6012514Y-59452301D02*
X6010000Y-59501874D01*
X52731845Y-52897975D02*
X52769991Y-52863628D01*
X32734206Y-52953561D02*
X32779820Y-52973135D01*
X26185864Y-105961088D02*
X26230317Y-105935421D01*
X6180827Y-59130082D02*
X6144851Y-59164280D01*
X57692701Y-107327507D02*
X57518742Y-107144502D01*
X30518452Y-85503760D02*
X30581740Y-85259327D01*
X6440427Y-79504759D02*
X6490000Y-79507274D01*
X31058742Y-107144502D02*
X30904189Y-106944837D01*
X105448636Y-32513667D02*
X105399572Y-32506151D01*
X84910845Y-28309383D02*
X84750090Y-28235521D01*
X79150317Y-52928147D02*
X79191845Y-52897975D01*
X59345800Y-85521161D02*
X59297180Y-85531153D01*
X27900753Y-54085862D02*
X27726145Y-54279782D01*
X28456329Y-44255455D02*
X28453619Y-52569618D01*
X28260566Y-85017951D02*
X28348259Y-85254727D01*
X83398932Y-59275057D02*
X83421283Y-59099563D01*
X28149370Y-58287624D02*
X28260566Y-58514314D01*
X67650000Y-6002655D02*
X59420000Y-6004600D01*
X105394489Y-26500947D02*
X105445188Y-26492915D01*
X105833636Y-52516865D02*
X105836329Y-44255455D01*
X85380000Y-79017274D02*
X85382514Y-79066846D01*
X84670350Y-30818866D02*
X84897040Y-30707670D01*
X4964282Y-54484701D02*
X4772701Y-54320233D01*
X85617830Y-28489781D02*
X85368249Y-28451547D01*
X70650000Y-83512857D02*
X78889765Y-83510910D01*
X107640566Y-58514314D02*
X107728259Y-58751090D01*
X78934489Y-106011858D02*
X78959944Y-106008506D01*
X83398932Y-85778694D02*
X83421283Y-85603200D01*
X52769991Y-79367265D02*
X52804338Y-79329119D01*
X52834510Y-79287591D02*
X52860177Y-79243138D01*
X59370427Y-85518025D02*
X59345800Y-85521161D01*
X107434136Y-27371116D02*
X107280753Y-27582225D01*
X79191845Y-79401612D02*
X79229991Y-79367265D01*
X52871230Y-79219965D02*
X52889627Y-79172043D01*
X79349627Y-79172043D02*
X79362915Y-79122462D01*
X57613403Y-4777301D02*
X57796408Y-4603342D01*
X59287180Y-105995268D02*
X59335800Y-106005260D01*
X26387926Y-79265700D02*
X26411230Y-79219965D01*
X107824084Y-52751375D02*
X107800212Y-52932632D01*
X52860177Y-26235864D02*
X52871230Y-26212691D01*
X59204206Y-85565586D02*
X59160807Y-85589675D01*
X105349765Y-83510910D02*
X105400681Y-83510910D01*
X58960501Y-32828057D02*
X58952471Y-32851549D01*
X30571740Y-106267094D02*
X30508452Y-106022661D01*
X32766765Y-6044310D02*
X32722202Y-6066170D01*
X59420000Y-85515511D02*
X59370427Y-85518025D01*
X81380000Y-86001236D02*
X81377307Y-94262729D01*
X105829969Y-59398637D02*
X105817528Y-59350586D01*
X32492471Y-85858823D02*
X32480030Y-85906874D01*
X14730000Y-79508812D02*
X14730000Y-81508813D01*
X54321257Y-57873682D02*
X54475810Y-58073347D01*
X6004231Y-97262729D02*
X6000000Y-105520911D01*
X32660068Y-85618030D02*
X32622406Y-85650362D01*
X52645793Y-32553712D02*
X52600179Y-32534138D01*
X27495717Y-57526209D02*
X27687298Y-57690677D01*
X85610807Y-79433109D02*
X85654206Y-79457198D01*
X5392286Y-54751477D02*
X5171520Y-54628942D01*
X105349765Y-30503636D02*
X105400681Y-30503636D01*
X44190000Y-108013010D02*
X44190000Y-106013010D01*
X32460000Y-52513637D02*
X32462514Y-52563209D01*
X80037851Y-81228770D02*
X79872840Y-81307482D01*
X52474489Y-106011858D02*
X52499944Y-106008506D01*
X105395469Y-108014557D02*
X97110000Y-108013010D01*
X30770629Y-27219649D02*
X30659433Y-26992959D01*
X85642202Y-59073444D02*
X85600078Y-59099699D01*
X106912225Y-107461664D02*
X106701116Y-107615047D01*
X6049710Y-32805002D02*
X6032471Y-32851549D01*
X14730000Y-57009929D02*
X14730000Y-59009929D01*
X32464231Y-70759092D02*
X32460000Y-79017274D01*
X105830947Y-26064489D02*
X105833636Y-26013228D01*
X6343312Y-52981165D02*
X6391363Y-52993606D01*
X83642159Y-84907797D02*
X83764694Y-84687031D01*
X54920000Y-85950229D02*
X54920000Y-86001236D01*
X41190000Y-6002655D02*
X32960000Y-6004600D01*
X85686765Y-6044310D02*
X85642202Y-6066170D01*
X26372310Y-83542194D02*
X26594769Y-83587910D01*
X79377307Y-14751818D02*
X79380000Y-6490000D01*
X59100827Y-59130082D02*
X59064851Y-59164280D01*
X31336408Y-4603342D02*
X31536073Y-4448789D01*
X79611608Y-57112651D02*
X79779011Y-57169871D01*
X6263183Y-108001978D02*
X6087689Y-107979627D01*
X59194206Y-52953561D02*
X59239820Y-52973135D01*
X5634317Y-83668097D02*
X5875230Y-83592510D01*
X85368249Y-54955184D02*
X85148391Y-54898259D01*
X52838995Y-107981123D02*
X52657738Y-108004995D01*
X57613403Y-57784575D02*
X57796408Y-57610616D01*
X105609192Y-32577801D02*
X105565793Y-32553712D01*
X52910947Y-52568126D02*
X52913636Y-52516865D01*
X4444189Y-53937563D02*
X4310629Y-53723286D01*
X56930025Y-6443406D02*
X56940218Y-6242430D01*
X81369781Y-85748741D02*
X81380000Y-85950229D01*
X105576816Y-83519843D02*
X105752310Y-83542194D01*
X105395656Y-81510910D02*
X105343044Y-81510910D01*
X4964282Y-27981064D02*
X4772701Y-27816596D01*
X97110000Y-83512857D02*
X105349765Y-83510910D01*
X52474489Y-26500947D02*
X52525188Y-26492915D01*
X31232701Y-54320233D02*
X31058742Y-54137228D01*
X4200616Y-5535445D02*
X4274478Y-5374690D01*
X32604851Y-6157006D02*
X32572519Y-6194668D01*
X79060179Y-59037775D02*
X79036687Y-59029745D01*
X28134244Y-53740096D02*
X28038716Y-53895976D01*
X54920000Y-59497599D02*
X54917307Y-67759092D01*
X84456073Y-83959700D02*
X84670350Y-83826140D01*
X80106459Y-28184244D02*
X79897331Y-28290806D01*
X57230629Y-106730560D02*
X57119433Y-106503870D01*
X70650000Y-108013010D02*
X70650000Y-106013010D01*
X59369082Y-30508248D02*
X67650000Y-30506292D01*
X97110000Y-81509373D02*
X97110000Y-79509373D01*
X79779011Y-4162597D02*
X79987713Y-4252159D01*
X85395650Y-85931311D02*
X85392514Y-85955938D01*
X26449969Y-32895000D02*
X26437528Y-32846949D01*
X4172597Y-58612862D02*
X4262159Y-58404160D01*
X6284206Y-85565586D02*
X6240807Y-85589675D01*
X32499710Y-105714145D02*
X32521570Y-105758708D01*
X81069370Y-84791261D02*
X81180566Y-85017951D01*
X85819131Y-81507264D02*
X85617830Y-81497055D01*
X4262159Y-58404160D02*
X4384694Y-58183394D01*
X80208479Y-30878331D02*
X80415717Y-31022572D01*
X26456329Y-97262729D02*
X28456329Y-97262729D01*
X105518971Y-105981967D02*
X105565864Y-105961088D01*
X81376329Y-44255455D02*
X81373619Y-52569618D01*
X94110000Y-81508813D02*
X85819131Y-81507264D01*
X56920000Y-52564318D02*
X56920000Y-52513124D01*
X57035377Y-32276628D02*
X57092597Y-32109225D01*
X6190068Y-105908391D02*
X6230807Y-105936746D01*
X6237830Y-28489781D02*
X5988249Y-28451547D01*
X30844694Y-58183394D02*
X30988935Y-57976156D01*
X28460000Y-59497599D02*
X28457307Y-67759092D01*
X6230807Y-26425835D02*
X6274206Y-26449924D01*
X85600078Y-85603336D02*
X85560827Y-85633719D01*
X106912225Y-80958027D02*
X106701116Y-81111410D01*
X28038716Y-53895976D02*
X27900753Y-54085862D01*
X26019572Y-32506151D02*
X25970000Y-32503637D01*
X32448249Y-81458821D02*
X32228391Y-81401896D01*
X54808259Y-32247453D02*
X54871547Y-32491886D01*
X26952840Y-81307482D02*
X26733719Y-81391602D01*
X107434136Y-80378390D02*
X107280753Y-80589499D01*
X52889627Y-105675680D02*
X52902915Y-105626099D01*
X52769991Y-52863628D02*
X52804338Y-52825482D01*
X58091520Y-28125305D02*
X57884282Y-27981064D01*
X52880289Y-85807676D02*
X52858429Y-85763113D01*
X105496687Y-6022471D02*
X105448636Y-6010030D01*
X52645793Y-6050075D02*
X52600179Y-6030501D01*
X26594769Y-83587910D02*
X26835682Y-83663497D01*
X54871547Y-58995523D02*
X54909781Y-59245104D01*
X80781257Y-84377319D02*
X80935810Y-84576984D01*
X80452225Y-54454390D02*
X80241116Y-54607773D01*
X79528577Y-107932313D02*
X79298995Y-107981123D01*
X85382514Y-79066846D02*
X85390030Y-79115910D01*
X31977040Y-4204033D02*
X32213816Y-4116340D01*
X6401363Y-32518267D02*
X6353312Y-32530708D01*
X52941667Y-81459150D02*
X52683935Y-81499984D01*
X27861257Y-57873682D02*
X28015810Y-58073347D01*
X107824084Y-79255012D02*
X107800212Y-79436269D01*
X83690629Y-80226923D02*
X83579433Y-80000233D01*
X58960501Y-59331694D02*
X58952471Y-59355186D01*
X26223935Y-81499984D02*
X26015656Y-81510910D01*
X83824189Y-27433926D02*
X83690629Y-27219649D01*
X59140078Y-59099699D02*
X59100827Y-59130082D01*
X85723312Y-52981165D02*
X85771363Y-52993606D01*
X6391363Y-79497243D02*
X6440427Y-79504759D01*
X28460000Y-32942955D02*
X28460000Y-32993962D01*
X44190000Y-26502099D02*
X52423228Y-26503636D01*
X85819131Y-55003627D02*
X85617830Y-54993418D01*
X105816920Y-26140153D02*
X105827595Y-26089944D01*
X107833619Y-26065981D02*
X107824084Y-26247738D01*
X30571740Y-53259820D02*
X30508452Y-53015387D01*
X57182159Y-58404160D02*
X57304694Y-58183394D01*
X84344282Y-107491975D02*
X84152701Y-107327507D01*
X30988935Y-31472519D02*
X31153403Y-31280938D01*
X52858429Y-59259476D02*
X52832174Y-59217352D01*
X85627830Y-4014818D02*
X85829082Y-4004611D01*
X27687298Y-31187040D02*
X27861257Y-31370045D01*
X6022471Y-79163961D02*
X6039710Y-79210508D01*
X59032519Y-32698305D02*
X59004164Y-32739044D01*
X32733183Y-83524443D02*
X32909082Y-83515522D01*
X30518452Y-5992849D02*
X30581740Y-5748416D01*
X32851363Y-52993606D02*
X32900427Y-53001122D01*
X79105864Y-52953814D02*
X79150317Y-52928147D01*
X26341791Y-59178101D02*
X26307593Y-59142125D01*
X52480681Y-30503636D02*
X52682169Y-30513855D01*
X32779820Y-52973135D02*
X32803312Y-52981165D01*
X6039710Y-52706871D02*
X6061570Y-52751434D01*
X57092597Y-58612862D02*
X57182159Y-58404160D01*
X17730000Y-57009220D02*
X25969765Y-57007273D01*
X54514136Y-106882027D02*
X54360753Y-107093136D01*
X107800212Y-52932632D02*
X107751402Y-53162214D01*
X32734206Y-105960835D02*
X32779820Y-105980409D01*
X57884282Y-54484701D02*
X57692701Y-54320233D01*
X105827595Y-52593581D02*
X105830947Y-52568126D01*
X105724338Y-79329119D02*
X105754510Y-79287591D01*
X79229991Y-79367265D02*
X79264338Y-79329119D01*
X4004231Y-97262729D02*
X6004231Y-97262729D01*
X32899131Y-81507264D02*
X32697830Y-81497055D01*
X79987713Y-57259433D02*
X80208479Y-57381968D01*
X83978742Y-27633591D02*
X83824189Y-27433926D01*
X26411230Y-105723602D02*
X26429627Y-105675680D01*
X6010000Y-59501874D02*
X6005768Y-67759092D01*
X81180566Y-58514314D02*
X81268259Y-58751090D01*
X44190000Y-85512857D02*
X44190000Y-83512857D01*
X78883228Y-26503636D02*
X78934489Y-26500947D01*
X53646459Y-28184244D02*
X53437331Y-28290806D01*
X30581740Y-32252053D02*
X30660616Y-32039082D01*
X27117851Y-28221496D02*
X26952840Y-28300208D01*
X31153403Y-4777301D02*
X31336408Y-4603342D01*
X56930025Y-85954317D02*
X56940218Y-85753341D01*
X79105793Y-59057349D02*
X79060179Y-59037775D01*
X6306765Y-59051584D02*
X6262202Y-59073444D01*
X4020218Y-32746067D02*
X4058452Y-32496486D01*
X32909082Y-57011885D02*
X41190000Y-57009929D01*
X67650000Y-26501538D02*
X67650000Y-28501539D01*
X85627830Y-30518455D02*
X85829082Y-30508248D01*
X58981570Y-52751434D02*
X59007825Y-52793558D01*
X81369781Y-6237830D02*
X81380000Y-6439318D01*
X80452225Y-80958027D02*
X80241116Y-81111410D01*
X52834510Y-52783954D02*
X52860177Y-52739501D01*
X5998249Y-57060326D02*
X6247830Y-57022092D01*
X58981570Y-79255071D02*
X59007825Y-79297195D01*
X6010030Y-26108636D02*
X6022471Y-26156687D01*
X81331547Y-5988249D02*
X81369781Y-6237830D01*
X28460000Y-86001236D02*
X28457307Y-94262729D01*
X6440427Y-106008396D02*
X6490000Y-106010911D01*
X4444189Y-106944837D02*
X4310629Y-106730560D01*
X6391363Y-52993606D02*
X6440427Y-53001122D01*
X32060988Y-54841039D02*
X31852286Y-54751477D01*
X52913636Y-26013228D02*
X52916329Y-17751818D01*
X85420501Y-6324420D02*
X85405642Y-6371780D01*
X79331230Y-52716328D02*
X79349627Y-52668406D01*
X59360427Y-79504759D02*
X59410000Y-79507274D01*
X81091496Y-27167851D02*
X80974136Y-27371116D01*
X67650000Y-85513566D02*
X59420000Y-85515511D01*
X5171520Y-28125305D02*
X4964282Y-27981064D01*
X85392514Y-32948664D02*
X85390000Y-32998237D01*
X80607298Y-84194314D02*
X80781257Y-84377319D01*
X80646145Y-107287056D02*
X80452225Y-107461664D01*
X105350000Y-6000000D02*
X97110000Y-6001946D01*
X6450427Y-6007114D02*
X6401363Y-6014630D01*
X85402471Y-52660324D02*
X85419710Y-52706871D01*
X59064851Y-32660643D02*
X59032519Y-32698305D01*
X79331230Y-26212691D02*
X79349627Y-26164769D01*
X54147298Y-57690677D02*
X54321257Y-57873682D01*
X58940030Y-6395963D02*
X58932514Y-6445027D01*
X4384694Y-5176120D02*
X4528935Y-4968882D01*
X52598971Y-105981967D02*
X52645864Y-105961088D01*
X58930030Y-79115910D02*
X58942471Y-79163961D01*
X81380000Y-59497599D02*
X81377307Y-67759092D01*
X97110000Y-30505583D02*
X105349765Y-30503636D01*
X52909969Y-59398637D02*
X52897528Y-59350586D01*
X53748479Y-4374694D02*
X53955717Y-4518935D01*
X32499710Y-79210508D02*
X32521570Y-79255071D01*
X4010025Y-6443406D02*
X4020218Y-6242430D01*
X107564614Y-80152407D02*
X107434136Y-80378390D01*
X85747180Y-105995268D02*
X85795800Y-106005260D01*
X32213816Y-57123614D02*
X32458249Y-57060326D01*
X4005768Y-14751818D02*
X4010025Y-6443406D01*
X28449781Y-59245104D02*
X28460000Y-59446592D01*
X28442710Y-105784846D02*
X28401876Y-106042578D01*
X83579433Y-26992959D02*
X83491740Y-26756183D01*
X4004231Y-44255455D02*
X6004231Y-44255455D01*
X26374510Y-105791228D02*
X26387926Y-105769337D01*
X4199433Y-53496596D02*
X4111740Y-53259820D01*
X32480030Y-6395963D02*
X32472514Y-6445027D01*
X59064851Y-59164280D02*
X59032519Y-59201942D01*
X6450427Y-59014388D02*
X6401363Y-59021904D01*
X105836329Y-70759092D02*
X107836329Y-70759092D01*
X58091520Y-54628942D02*
X57884282Y-54484701D01*
X59150807Y-79433109D02*
X59194206Y-79457198D01*
X80241116Y-81111410D02*
X80037851Y-81228770D01*
X26460000Y-6490000D02*
X26457485Y-6440427D01*
X80015133Y-107745525D02*
X79776749Y-107851668D01*
X105651845Y-52897975D02*
X105689991Y-52863628D01*
X67650000Y-55005176D02*
X59359131Y-55003627D01*
X52897528Y-6343312D02*
X52880289Y-6296765D01*
X32722202Y-6066170D02*
X32680078Y-6092425D01*
X80415717Y-57526209D02*
X80607298Y-57690677D01*
X81170208Y-27002840D02*
X81091496Y-27167851D01*
X85699820Y-79476772D02*
X85723312Y-79484802D01*
X54902710Y-105784846D02*
X54861876Y-106042578D01*
X80208479Y-57381968D02*
X80415717Y-57526209D01*
X32470000Y-59501874D02*
X32465768Y-67759092D01*
X32462514Y-52563209D02*
X32470030Y-52612273D01*
X52871230Y-26212691D02*
X52889627Y-26164769D01*
X59182202Y-6066170D02*
X59140078Y-6092425D01*
X59120068Y-85618030D02*
X59082406Y-85650362D01*
X6273183Y-83524443D02*
X6449082Y-83515522D01*
X26716183Y-30615377D02*
X26929154Y-30694253D01*
X83466999Y-85380741D02*
X83542586Y-85139828D01*
X25963228Y-53007273D02*
X26014489Y-53004584D01*
X85378249Y-30556689D02*
X85627830Y-30518455D01*
X26372174Y-85720989D02*
X26341791Y-85681738D01*
X107791547Y-5988249D02*
X107829781Y-6237830D01*
X5998249Y-30556689D02*
X6247830Y-30518455D01*
X6190068Y-79404754D02*
X6230807Y-79433109D01*
X44190000Y-83512857D02*
X52429765Y-83510910D01*
X84456073Y-57456063D02*
X84670350Y-57322503D01*
X30465768Y-67759092D02*
X30470025Y-59450680D01*
X26185793Y-32553712D02*
X26163234Y-32543347D01*
X70650000Y-85512857D02*
X70650000Y-83512857D01*
X58437040Y-57211307D02*
X58673816Y-57123614D01*
X79611608Y-30609014D02*
X79779011Y-30666234D01*
X31336408Y-31106979D02*
X31536073Y-30952426D01*
X54720566Y-85017951D02*
X54808259Y-85254727D01*
X32960000Y-32508237D02*
X32910427Y-32510751D01*
X105649931Y-6102519D02*
X105609192Y-6074164D01*
X81069370Y-58287624D02*
X81180566Y-58514314D01*
X27117851Y-81228770D02*
X26952840Y-81307482D01*
X52917485Y-32944064D02*
X52909969Y-32895000D01*
X85420501Y-59331694D02*
X85405642Y-59379054D01*
X30770629Y-80226923D02*
X30659433Y-80000233D01*
X30470218Y-52765806D02*
X30460000Y-52564318D01*
X5988249Y-54955184D02*
X5768391Y-54898259D01*
X83390218Y-105773080D02*
X83380000Y-105571592D01*
X85419710Y-79210508D02*
X85441570Y-79255071D01*
X27495717Y-31022572D02*
X27687298Y-31187040D01*
X30508452Y-26511750D02*
X30470218Y-26262169D01*
X6490000Y-79507274D02*
X14730000Y-79508812D01*
X83690629Y-53723286D02*
X83579433Y-53496596D01*
X58795230Y-83592510D02*
X59017689Y-83546794D01*
X4058452Y-5992849D02*
X4121740Y-5748416D01*
X4310629Y-80226923D02*
X4199433Y-80000233D01*
X79034769Y-79486901D02*
X79082691Y-79468504D01*
X81369781Y-59245104D02*
X81380000Y-59446592D01*
X67650000Y-81508813D02*
X59359131Y-81507264D01*
X26952840Y-54803845D02*
X26733719Y-54887965D01*
X85654206Y-79457198D02*
X85699820Y-79476772D01*
X79142169Y-4010218D02*
X79391750Y-4048452D01*
X32462514Y-105570483D02*
X32470030Y-105619547D01*
X27900753Y-107093136D02*
X27726145Y-107287056D01*
X59100827Y-6122808D02*
X59064851Y-6157006D01*
X56924231Y-17751818D02*
X58924231Y-17751818D01*
X105829969Y-6391363D02*
X105817528Y-6343312D01*
X94110000Y-85513566D02*
X85880000Y-85515511D01*
X53781116Y-54607773D02*
X53577851Y-54725133D01*
X85441570Y-105758708D02*
X85467825Y-105800832D01*
X57041740Y-85259327D02*
X57129433Y-85022551D01*
X84980988Y-81344676D02*
X84772286Y-81255114D01*
X105837485Y-85951338D02*
X105829969Y-85902274D01*
X52832310Y-83542194D02*
X53054769Y-83587910D01*
X6319820Y-79476772D02*
X6343312Y-79484802D01*
X52429765Y-30503636D02*
X52480681Y-30503636D01*
X28411547Y-85499160D02*
X28449781Y-85748741D01*
X84670350Y-83826140D02*
X84897040Y-83714944D01*
X58688391Y-81401896D02*
X58520988Y-81344676D01*
X57364189Y-80441200D02*
X57230629Y-80226923D01*
X32813312Y-59034345D02*
X32766765Y-59051584D01*
X85392514Y-85955938D02*
X85390000Y-86005511D01*
X17730000Y-81509373D02*
X17730000Y-79509373D01*
X79150317Y-26424510D02*
X79191845Y-26394338D01*
X32837180Y-85531153D02*
X32789820Y-85546012D01*
X83421283Y-6092289D02*
X83466999Y-5869830D01*
X107395810Y-5066073D02*
X107529370Y-5280350D01*
X6032471Y-32851549D02*
X6020030Y-32899600D01*
X32458249Y-4053052D02*
X32707830Y-4014818D01*
X32547825Y-26289921D02*
X32578208Y-26329172D01*
X30844694Y-5176120D02*
X30988935Y-4968882D01*
X58101520Y-83890205D02*
X58322286Y-83767670D01*
X31641520Y-83890205D02*
X31862286Y-83767670D01*
X94110000Y-55005176D02*
X85819131Y-55003627D01*
X106113719Y-54887965D02*
X105861667Y-54955513D01*
X106912225Y-27950753D02*
X106722339Y-28088716D01*
X79340289Y-32800402D02*
X79318429Y-32755839D01*
X67650000Y-53005175D02*
X67650000Y-55005176D01*
X44190000Y-30505583D02*
X52429765Y-30503636D01*
X52941667Y-28451876D02*
X52683935Y-28492710D01*
X6060075Y-32782443D02*
X6049710Y-32805002D01*
X30659433Y-26992959D02*
X30571740Y-26756183D01*
X59297180Y-85531153D02*
X59249820Y-85546012D01*
X26442915Y-26115188D02*
X26450947Y-26064489D01*
X57448935Y-31472519D02*
X57613403Y-31280938D01*
X52682169Y-4010218D02*
X52931750Y-4048452D01*
X6118208Y-52832809D02*
X6152406Y-52868785D01*
X85402471Y-79163961D02*
X85419710Y-79210508D01*
X26341791Y-85681738D02*
X26307593Y-85645762D01*
X30460000Y-26060681D02*
X30460000Y-26009487D01*
X30470025Y-59450680D02*
X30480218Y-59249704D01*
X30571740Y-79763457D02*
X30508452Y-79519024D01*
X83764694Y-5176120D02*
X83908935Y-4968882D01*
X105343044Y-81510910D02*
X97110000Y-81509373D01*
X32480030Y-59403237D02*
X32472514Y-59452301D01*
X56930025Y-59450680D02*
X56940218Y-59249704D01*
X32480030Y-32899600D02*
X32472514Y-32948664D01*
X52475656Y-28503636D02*
X52423044Y-28503636D01*
X26460000Y-32993637D02*
X26457485Y-32944064D01*
X6049710Y-85812276D02*
X6032471Y-85858823D01*
X4111740Y-26756183D02*
X4048452Y-26511750D01*
X85382514Y-52563209D02*
X85390030Y-52612273D01*
X106447713Y-83763070D02*
X106668479Y-83885605D01*
X107241257Y-31370045D02*
X107395810Y-31569710D01*
X30470025Y-32947043D02*
X30480218Y-32746067D01*
X53955717Y-57526209D02*
X54147298Y-57690677D01*
X79653719Y-81391602D02*
X79401667Y-81459150D01*
X27532225Y-54454390D02*
X27321116Y-54607773D01*
X106215682Y-83663497D02*
X106447713Y-83763070D01*
X57528742Y-84381919D02*
X57702701Y-84198914D01*
X30480218Y-6242430D02*
X30518452Y-5992849D01*
X26481667Y-28451876D02*
X26223935Y-28492710D01*
X4274478Y-31878327D02*
X4384694Y-31679757D01*
X31750350Y-57322503D02*
X31977040Y-57211307D01*
X30460000Y-52513124D02*
X30464231Y-44255455D01*
X5530845Y-28309383D02*
X5370090Y-28235521D01*
X58520988Y-54841039D02*
X58312286Y-54751477D01*
X26271845Y-52897975D02*
X26309991Y-52863628D01*
X4010218Y-52765806D02*
X3999974Y-52563806D01*
X32458249Y-57060326D02*
X32707830Y-57022092D01*
X83764694Y-58183394D02*
X83908935Y-57976156D01*
X26460000Y-86000911D02*
X26457485Y-85951338D01*
X28260566Y-5507040D02*
X28348259Y-5743816D01*
X94110000Y-53005175D02*
X94110000Y-55005176D01*
X79105793Y-85560986D02*
X79060179Y-85541412D01*
X6118208Y-79336446D02*
X6152406Y-79372422D01*
X105778429Y-85763113D02*
X105752174Y-85720989D01*
X105565793Y-85560986D02*
X105520179Y-85541412D01*
X85820427Y-79504759D02*
X85870000Y-79507274D01*
X54917307Y-67759092D02*
X52917307Y-67759092D01*
X52600179Y-85541412D02*
X52552819Y-85526553D01*
X5392286Y-107758751D02*
X5171520Y-107636216D01*
X105830947Y-105575400D02*
X105833636Y-105524139D01*
X81373619Y-52569618D02*
X81362710Y-52777572D01*
X27321116Y-54607773D02*
X27117851Y-54725133D01*
X83978742Y-54137228D02*
X83824189Y-53937563D01*
X52683935Y-81499984D02*
X52475656Y-81510910D01*
X85870000Y-26500000D02*
X94110000Y-26501538D01*
X81254328Y-79790993D02*
X81170208Y-80010114D01*
X83385768Y-41255455D02*
X83390025Y-32947043D01*
X85699820Y-105980409D02*
X85747180Y-105995268D01*
X107280753Y-27582225D02*
X107106145Y-27776145D01*
X54917307Y-94262729D02*
X52917307Y-94262729D01*
X54794328Y-106294630D02*
X54710208Y-106513751D01*
X54147298Y-84194314D02*
X54321257Y-84377319D01*
X80452225Y-27950753D02*
X80262339Y-28088716D01*
X41190000Y-26501538D02*
X41190000Y-28501539D01*
X26691608Y-57112651D02*
X26859011Y-57169871D01*
X105829969Y-32895000D02*
X105817528Y-32846949D01*
X85385768Y-14751818D02*
X83385768Y-14751818D01*
X26269931Y-6102519D02*
X26229192Y-6074164D01*
X59410000Y-26500000D02*
X67650000Y-26501538D01*
X27288479Y-4374694D02*
X27495717Y-4518935D01*
X52474489Y-53004584D02*
X52525188Y-52996552D01*
X70650000Y-59009220D02*
X70650000Y-57009220D01*
X84152701Y-107327507D02*
X83978742Y-107144502D01*
X28401876Y-106042578D02*
X28334328Y-106294630D01*
X32899131Y-108010901D02*
X32723183Y-108001978D01*
X27726145Y-54279782D02*
X27532225Y-54454390D01*
X26307593Y-85645762D02*
X26269931Y-85613430D01*
X31990845Y-28309383D02*
X31830090Y-28235521D01*
X30571740Y-26756183D02*
X30508452Y-26511750D01*
X85395650Y-6420400D02*
X85392514Y-6445027D01*
X85384231Y-97262729D02*
X85380000Y-105520911D01*
X81254328Y-53287356D02*
X81170208Y-53506477D01*
X59410000Y-106010911D02*
X67650000Y-106012449D01*
X5370090Y-28235521D02*
X5171520Y-28125305D01*
X14730000Y-108012450D02*
X6439131Y-108010901D01*
X81069370Y-31783987D02*
X81180566Y-32010677D01*
X58959710Y-79210508D02*
X58981570Y-79255071D01*
X28453619Y-52569618D02*
X28442710Y-52777572D01*
X59370427Y-59014388D02*
X59321363Y-59021904D01*
X80781257Y-4866408D02*
X80935810Y-5066073D01*
X54475810Y-31569710D02*
X54609370Y-31783987D01*
X83384231Y-17751818D02*
X85384231Y-17751818D01*
X28240806Y-53530968D02*
X28134244Y-53740096D01*
X26457307Y-41255455D02*
X26460000Y-32993637D01*
X6449082Y-30508248D02*
X14730000Y-30506292D01*
X85524851Y-59164280D02*
X85492519Y-59201942D01*
X26420289Y-59304039D02*
X26398429Y-59259476D01*
X31977040Y-57211307D02*
X32213816Y-57123614D01*
X81362710Y-79281209D02*
X81321876Y-79538941D01*
X30904189Y-80441200D02*
X30770629Y-80226923D01*
X107829781Y-6237830D02*
X107840016Y-6439644D01*
X56978452Y-85503760D02*
X57041740Y-85259327D01*
X53577851Y-81228770D02*
X53412840Y-81307482D01*
X25969765Y-30503636D02*
X26020681Y-30503636D01*
X105350000Y-32503637D02*
X97110000Y-32505583D01*
X79391750Y-4048452D02*
X79611608Y-4105377D01*
X26456329Y-17751818D02*
X28456329Y-17751818D01*
X59017825Y-85725589D02*
X58991570Y-85767713D01*
X59360427Y-53001122D02*
X59410000Y-53003637D01*
X52916329Y-17751818D02*
X54916329Y-17751818D01*
X107395810Y-31569710D02*
X107529370Y-31783987D01*
X105851750Y-30552089D02*
X106096183Y-30615377D01*
X14730000Y-28501539D02*
X6439131Y-28499990D01*
X4004231Y-17751818D02*
X6004231Y-17751818D01*
X94110000Y-106012449D02*
X94110000Y-108012450D01*
X54916329Y-97262729D02*
X54913619Y-105576892D01*
X4693403Y-31280938D02*
X4876408Y-31106979D01*
X31058742Y-27633591D02*
X30904189Y-27433926D01*
X14730000Y-6002655D02*
X6500000Y-6004600D01*
X59157830Y-54993418D02*
X58908249Y-54955184D01*
X31242701Y-84198914D02*
X31434282Y-84034446D01*
X32460000Y-105520911D02*
X32462514Y-105570483D01*
X52645864Y-105961088D02*
X52690317Y-105935421D01*
X52429765Y-57007273D02*
X52480681Y-57007273D01*
X83824189Y-106944837D02*
X83690629Y-106730560D01*
X32470030Y-52612273D02*
X32482471Y-52660324D01*
X26411230Y-52716328D02*
X26429627Y-52668406D01*
X31424282Y-80988338D02*
X31232701Y-80823870D01*
X70650000Y-28502099D02*
X70650000Y-26502099D01*
X105494769Y-52983264D02*
X105542691Y-52964867D01*
X26019572Y-85513425D02*
X25970000Y-85510911D01*
X32578208Y-105840083D02*
X32612406Y-105876059D01*
X105472819Y-85526553D02*
X105424199Y-85516561D01*
X79377485Y-32944064D02*
X79369969Y-32895000D01*
X97110000Y-85512857D02*
X97110000Y-83512857D01*
X52801791Y-85681738D02*
X52767593Y-85645762D01*
X105651845Y-105905249D02*
X105689991Y-105870902D01*
X5998249Y-4053052D02*
X6247830Y-4014818D01*
X85570068Y-52901117D02*
X85610807Y-52929472D01*
X85392514Y-6445027D02*
X85390000Y-6494600D01*
X59038208Y-26329172D02*
X59072406Y-26365148D01*
X106309154Y-30694253D02*
X106469909Y-30768115D01*
X79082691Y-26461230D02*
X79128426Y-26437926D01*
X106332840Y-54803845D02*
X106113719Y-54887965D01*
X54871547Y-5988249D02*
X54909781Y-6237830D01*
X6439131Y-81507264D02*
X6237830Y-81497055D01*
X32690807Y-26425835D02*
X32734206Y-26449924D01*
X56930218Y-52765806D02*
X56920000Y-52564318D01*
X105840000Y-86000911D02*
X105837485Y-85951338D01*
X81170208Y-80010114D02*
X81091496Y-80175125D01*
X32464231Y-97262729D02*
X32460000Y-105520911D01*
X53151608Y-4105377D02*
X53319011Y-4162597D01*
X52430000Y-6000000D02*
X44190000Y-6001946D01*
X6262202Y-59073444D02*
X6220078Y-59099699D01*
X85467825Y-52793558D02*
X85498208Y-52832809D01*
X67650000Y-108012450D02*
X59359131Y-108010901D01*
X56920000Y-26060681D02*
X56920000Y-26009487D01*
X85820427Y-53001122D02*
X85870000Y-53003637D01*
X4454189Y-84581584D02*
X4608742Y-84381919D01*
X32851363Y-26489969D02*
X32900427Y-26497485D01*
X59110068Y-52901117D02*
X59150807Y-52929472D01*
X57364189Y-53937563D02*
X57230629Y-53723286D01*
X30465768Y-14751818D02*
X30470025Y-6443406D01*
X80607298Y-57690677D02*
X80781257Y-57873682D01*
X52917307Y-41255455D02*
X52920000Y-32993637D01*
X58959710Y-26203234D02*
X58981570Y-26247797D01*
X30518452Y-32496486D02*
X30581740Y-32252053D01*
X32722202Y-32569807D02*
X32680078Y-32596062D01*
X26398429Y-6252202D02*
X26372174Y-6210078D01*
X84344282Y-54484701D02*
X84152701Y-54320233D01*
X83380000Y-26060681D02*
X83380000Y-26009487D01*
X105754510Y-105791228D02*
X105780177Y-105746775D01*
X32521570Y-105758708D02*
X32547825Y-105800832D01*
X79229991Y-26359991D02*
X79264338Y-26321845D01*
X105343044Y-55007273D02*
X97110000Y-55005736D01*
X6020030Y-59403237D02*
X6012514Y-59452301D01*
X85610807Y-52929472D02*
X85654206Y-52953561D01*
X30581740Y-5748416D02*
X30660616Y-5535445D01*
X107106145Y-27776145D02*
X106912225Y-27950753D01*
X30734478Y-31878327D02*
X30844694Y-31679757D01*
X52479572Y-59009788D02*
X52430000Y-59007274D01*
X6049710Y-6301365D02*
X6032471Y-6347912D01*
X52475656Y-55007273D02*
X52423044Y-55007273D01*
X105565793Y-32553712D02*
X105543234Y-32543347D01*
X52910947Y-26064489D02*
X52913636Y-26013228D01*
X26952840Y-28300208D02*
X26733719Y-28384328D01*
X32472514Y-59452301D02*
X32470000Y-59501874D01*
X31153403Y-57784575D02*
X31336408Y-57610616D01*
X28411547Y-58995523D02*
X28449781Y-59245104D01*
X106236749Y-107851668D02*
X105988577Y-107932313D01*
X28401876Y-79538941D02*
X28334328Y-79790993D01*
X78935469Y-108014557D02*
X70650000Y-108013010D01*
X81377307Y-41255455D02*
X79377307Y-41255455D01*
X59110068Y-105908391D02*
X59150807Y-105936746D01*
X5517040Y-30707670D02*
X5753816Y-30619977D01*
X85642202Y-32569807D02*
X85600078Y-32596062D01*
X26020681Y-30503636D02*
X26222169Y-30513855D01*
X79292174Y-59217352D02*
X79261791Y-59178101D01*
X26162691Y-26461230D02*
X26185864Y-26450177D01*
X32557825Y-85725589D02*
X32531570Y-85767713D01*
X26309991Y-26359991D02*
X26344338Y-26321845D01*
X30914189Y-84581584D02*
X31068742Y-84381919D01*
X85395650Y-32924037D02*
X85392514Y-32948664D01*
X78988636Y-6010030D02*
X78939572Y-6002514D01*
X52931750Y-57055726D02*
X53151608Y-57112651D01*
X26185793Y-6050075D02*
X26163234Y-6039710D01*
X84897040Y-4204033D02*
X85133816Y-4116340D01*
X105395656Y-28503636D02*
X105343044Y-28503636D01*
X52902915Y-105626099D02*
X52910947Y-105575400D01*
X94110000Y-26501538D02*
X94110000Y-28501539D01*
X57031740Y-106267094D02*
X56968452Y-106022661D01*
X28449781Y-6237830D02*
X28460000Y-6439318D01*
X78883044Y-28503636D02*
X70650000Y-28502099D01*
X85723312Y-79484802D02*
X85771363Y-79497243D01*
X32813312Y-32530708D02*
X32766765Y-32547947D01*
X28457307Y-41255455D02*
X26457307Y-41255455D01*
X14730000Y-59009929D02*
X6500000Y-59011874D01*
X28442710Y-79281209D02*
X28401876Y-79538941D01*
X105801056Y-79196245D02*
X105816920Y-79147427D01*
X28038716Y-80399613D02*
X27900753Y-80589499D01*
X84152701Y-27816596D02*
X83978742Y-27633591D01*
X81373619Y-26065981D02*
X81362710Y-26273935D01*
X4058452Y-59000123D02*
X4115377Y-58780265D01*
X79320177Y-26235864D02*
X79331230Y-26212691D01*
X85498208Y-26329172D02*
X85532406Y-26365148D01*
X57692701Y-27816596D02*
X57518742Y-27633591D01*
X85492519Y-32698305D02*
X85464164Y-32739044D01*
X106701116Y-107615047D02*
X106475133Y-107745525D01*
X81331547Y-58995523D02*
X81369781Y-59245104D01*
X56968452Y-106022661D02*
X56930218Y-105773080D01*
X105399572Y-32506151D02*
X105350000Y-32503637D01*
X107529370Y-5280350D02*
X107640566Y-5507040D01*
X6274206Y-52953561D02*
X6319820Y-52973135D01*
X58981570Y-105758708D02*
X59007825Y-105800832D01*
X57092597Y-5605588D02*
X57182159Y-5396886D01*
X6329820Y-85546012D02*
X6284206Y-85565586D01*
X107106145Y-54279782D02*
X106912225Y-54454390D01*
X85441570Y-52751434D02*
X85467825Y-52793558D01*
X32509710Y-32805002D02*
X32492471Y-32851549D01*
X26230317Y-105935421D02*
X26271845Y-105905249D01*
X97110000Y-106013010D02*
X105343228Y-106014547D01*
X54147298Y-31187040D02*
X54321257Y-31370045D01*
X58980075Y-59286080D02*
X58960501Y-59331694D01*
X83390218Y-52765806D02*
X83380000Y-52564318D01*
X4020218Y-6242430D02*
X4058452Y-5992849D01*
X14730000Y-30506292D02*
X14730000Y-32506292D01*
X105543234Y-6039710D02*
X105496687Y-6022471D01*
X28401876Y-53035304D02*
X28334328Y-53287356D01*
X6010000Y-86005511D02*
X6005768Y-94262729D01*
X58673816Y-30619977D02*
X58918249Y-30556689D01*
X81321876Y-106042578D02*
X81254328Y-106294630D01*
X83428452Y-79519024D02*
X83390218Y-79269443D01*
X26453636Y-79020502D02*
X26456329Y-70759092D01*
X79380000Y-86000911D02*
X79377485Y-85951338D01*
X52479572Y-85513425D02*
X52430000Y-85510911D01*
X6152406Y-105876059D02*
X6190068Y-105908391D01*
X57304694Y-31679757D02*
X57448935Y-31472519D01*
X30581740Y-85259327D02*
X30669433Y-85022551D01*
X32470000Y-86005511D02*
X32465768Y-94262729D01*
X28149370Y-84791261D02*
X28260566Y-85017951D01*
X84456073Y-4448789D02*
X84670350Y-4315229D01*
X31631520Y-54628942D02*
X31424282Y-54484701D01*
X85392514Y-59452301D02*
X85390000Y-59501874D01*
X59007825Y-105800832D02*
X59038208Y-105840083D01*
X57884282Y-107491975D02*
X57692701Y-107327507D01*
X28149370Y-5280350D02*
X28260566Y-5507040D01*
X54808259Y-58751090D02*
X54871547Y-58995523D01*
X26229192Y-85585075D02*
X26185793Y-85560986D01*
X57692701Y-80823870D02*
X57518742Y-80640865D01*
X105837485Y-59447701D02*
X105829969Y-59398637D01*
X107751402Y-79665851D02*
X107670757Y-79914023D01*
X52474489Y-79508221D02*
X52525188Y-79500189D01*
X52528636Y-59017304D02*
X52479572Y-59009788D01*
X79357528Y-6343312D02*
X79340289Y-6296765D01*
X17730000Y-79509373D02*
X25963228Y-79510910D01*
X32500501Y-59331694D02*
X32492471Y-59355186D01*
X52909969Y-32895000D02*
X52897528Y-32846949D01*
X6002514Y-26059572D02*
X6010030Y-26108636D01*
X6039710Y-79210508D02*
X6061570Y-79255071D01*
X32547825Y-79297195D02*
X32578208Y-79336446D01*
X32578208Y-79336446D02*
X32612406Y-79372422D01*
X81380000Y-85950229D02*
X81380000Y-86001236D01*
X56924231Y-97262729D02*
X58924231Y-97262729D01*
X32462514Y-26059572D02*
X32470030Y-26108636D01*
X6490000Y-106010911D02*
X14730000Y-106012449D01*
X4598742Y-107144502D02*
X4444189Y-106944837D01*
X54916329Y-70759092D02*
X54913619Y-79073255D01*
X94110000Y-79508812D02*
X94110000Y-81508813D01*
X26140179Y-59037775D02*
X26116687Y-59029745D01*
X81377307Y-67759092D02*
X79377307Y-67759092D01*
X85464164Y-85746318D02*
X85440075Y-85789717D01*
X41190000Y-106012449D02*
X41190000Y-108012450D01*
X27861257Y-31370045D02*
X28015810Y-31569710D01*
X57119433Y-26992959D02*
X57031740Y-26756183D01*
X58925768Y-94262729D02*
X56925768Y-94262729D01*
X79191845Y-105905249D02*
X79229991Y-105870902D01*
X27861257Y-84377319D02*
X28015810Y-84576984D01*
X4020218Y-85753341D02*
X4058452Y-85503760D01*
X85133816Y-4116340D02*
X85378249Y-4053052D01*
X6010030Y-79115910D02*
X6022471Y-79163961D01*
X85829082Y-30508248D02*
X94110000Y-30506292D01*
X83764694Y-84687031D02*
X83908935Y-84479793D01*
X30464231Y-44255455D02*
X32464231Y-44255455D01*
M02*
