%TF.GenerationSoftware,KiCad,Pcbnew,9.0.3*%
%TF.CreationDate,2025-08-06T22:13:45+02:00*%
%TF.ProjectId,Korry,4b6f7272-792e-46b6-9963-61645f706362,rev?*%
%TF.SameCoordinates,Original*%
%TF.FileFunction,Copper,L2,Bot*%
%TF.FilePolarity,Positive*%
%FSLAX46Y46*%
G04 Gerber Fmt 4.6, Leading zero omitted, Abs format (unit mm)*
G04 Created by KiCad (PCBNEW 9.0.3) date 2025-08-06 22:13:45*
%MOMM*%
%LPD*%
G01*
G04 APERTURE LIST*
G04 Aperture macros list*
%AMRoundRect*
0 Rectangle with rounded corners*
0 $1 Rounding radius*
0 $2 $3 $4 $5 $6 $7 $8 $9 X,Y pos of 4 corners*
0 Add a 4 corners polygon primitive as box body*
4,1,4,$2,$3,$4,$5,$6,$7,$8,$9,$2,$3,0*
0 Add four circle primitives for the rounded corners*
1,1,$1+$1,$2,$3*
1,1,$1+$1,$4,$5*
1,1,$1+$1,$6,$7*
1,1,$1+$1,$8,$9*
0 Add four rect primitives between the rounded corners*
20,1,$1+$1,$2,$3,$4,$5,0*
20,1,$1+$1,$4,$5,$6,$7,0*
20,1,$1+$1,$6,$7,$8,$9,0*
20,1,$1+$1,$8,$9,$2,$3,0*%
G04 Aperture macros list end*
%TA.AperFunction,ComponentPad*%
%ADD10C,2.100000*%
%TD*%
%TA.AperFunction,ComponentPad*%
%ADD11R,1.800000X1.800000*%
%TD*%
%TA.AperFunction,ComponentPad*%
%ADD12C,1.800000*%
%TD*%
%TA.AperFunction,ComponentPad*%
%ADD13R,1.700000X1.700000*%
%TD*%
%TA.AperFunction,ComponentPad*%
%ADD14C,1.700000*%
%TD*%
%TA.AperFunction,SMDPad,CuDef*%
%ADD15RoundRect,0.250000X-0.400000X-1.075000X0.400000X-1.075000X0.400000X1.075000X-0.400000X1.075000X0*%
%TD*%
%TA.AperFunction,Conductor*%
%ADD16C,0.200000*%
%TD*%
%TA.AperFunction,Conductor*%
%ADD17C,0.500000*%
%TD*%
G04 APERTURE END LIST*
D10*
%TO.P,U1,1,SW_COM*%
%TO.N,Net-(J1-Pin_1)*%
X67187501Y-59562501D03*
%TO.P,U1,2,SW1*%
%TO.N,Net-(J1-Pin_2)*%
X67187501Y-57162501D03*
%TO.P,U1,3,NC*%
%TO.N,unconnected-(U1-NC-Pad3)*%
X67187501Y-54762501D03*
%TO.P,U1,4,NC*%
%TO.N,unconnected-(U1-NC-Pad4)*%
X73437501Y-59562501D03*
%TO.P,U1,5,NC*%
%TO.N,unconnected-(U1-NC-Pad5)*%
X73437501Y-57162501D03*
%TO.P,U1,6,NC*%
%TO.N,unconnected-(U1-NC-Pad6)*%
X73437501Y-54762501D03*
%TD*%
D11*
%TO.P,D2,1,K*%
%TO.N,Net-(D2-K)*%
X65787501Y-52375001D03*
D12*
%TO.P,D2,2,A*%
%TO.N,Net-(D1-A)*%
X68327501Y-52375001D03*
%TD*%
D11*
%TO.P,D1,1,K*%
%TO.N,Net-(D1-K)*%
X72797501Y-52375001D03*
D12*
%TO.P,D1,2,A*%
%TO.N,Net-(D1-A)*%
X75337501Y-52375001D03*
%TD*%
D13*
%TO.P,J2,1,Pin_1*%
%TO.N,Net-(D1-A)*%
X78300000Y-52750000D03*
D14*
%TO.P,J2,2,Pin_2*%
%TO.N,Net-(J2-Pin_2)*%
X78300000Y-55290000D03*
%TO.P,J2,3,Pin_3*%
%TO.N,Net-(D3-A)*%
X78300000Y-57830000D03*
%TO.P,J2,4,Pin_4*%
%TO.N,Net-(J2-Pin_4)*%
X78300000Y-60370000D03*
%TD*%
D11*
%TO.P,D4,1,K*%
%TO.N,Net-(D4-K)*%
X72772501Y-61950001D03*
D12*
%TO.P,D4,2,A*%
%TO.N,Net-(D3-A)*%
X75312501Y-61950001D03*
%TD*%
D13*
%TO.P,J1,1,Pin_1*%
%TO.N,Net-(J1-Pin_1)*%
X62650000Y-58450000D03*
D14*
%TO.P,J1,2,Pin_2*%
%TO.N,Net-(J1-Pin_2)*%
X62650000Y-55910000D03*
%TD*%
D11*
%TO.P,D3,1,K*%
%TO.N,Net-(D3-K)*%
X65787501Y-61975001D03*
D12*
%TO.P,D3,2,A*%
%TO.N,Net-(D3-A)*%
X68327501Y-61975001D03*
%TD*%
D15*
%TO.P,R3,1*%
%TO.N,Net-(D3-K)*%
X64109000Y-64897000D03*
%TO.P,R3,2*%
%TO.N,Net-(J2-Pin_4)*%
X67209000Y-64897000D03*
%TD*%
%TO.P,R1,1*%
%TO.N,Net-(D2-K)*%
X64236000Y-49657000D03*
%TO.P,R1,2*%
%TO.N,Net-(J2-Pin_2)*%
X67336000Y-49657000D03*
%TD*%
%TO.P,R2,1*%
%TO.N,Net-(D1-K)*%
X73507000Y-49650001D03*
%TO.P,R2,2*%
%TO.N,Net-(J2-Pin_2)*%
X76607000Y-49650001D03*
%TD*%
%TO.P,R4,1*%
%TO.N,Net-(D4-K)*%
X74269000Y-64897000D03*
%TO.P,R4,2*%
%TO.N,Net-(J2-Pin_4)*%
X77369000Y-64897000D03*
%TD*%
D16*
%TO.N,Net-(D1-K)*%
X72797501Y-50359500D02*
X73507000Y-49650001D01*
X72797501Y-52375001D02*
X72797501Y-50359500D01*
D17*
%TO.N,Net-(D1-A)*%
X75743700Y-52781200D02*
X76657200Y-52781200D01*
X76688400Y-52750000D02*
X78300000Y-52750000D01*
X76657200Y-52781200D02*
X76688400Y-52750000D01*
X75337501Y-52375001D02*
X75743700Y-52781200D01*
D16*
X75712500Y-52750000D02*
X75337501Y-52375001D01*
D17*
%TO.N,Net-(D2-K)*%
X64236000Y-50823500D02*
X65787501Y-52375001D01*
X64236000Y-49657000D02*
X64236000Y-50823500D01*
%TO.N,Net-(D3-K)*%
X64109000Y-63653502D02*
X65787501Y-61975001D01*
X64109000Y-65151000D02*
X64109000Y-63653502D01*
%TO.N,Net-(D3-A)*%
X75312501Y-61950001D02*
X75312501Y-60817499D01*
X75312501Y-60817499D02*
X78300000Y-57830000D01*
%TO.N,Net-(D4-K)*%
X72772501Y-64390501D02*
X73279000Y-64897000D01*
X72772501Y-61950001D02*
X72772501Y-64390501D01*
X73279000Y-64897000D02*
X74269000Y-64897000D01*
%TO.N,Net-(J2-Pin_2)*%
X67336000Y-49657000D02*
X67336000Y-48488000D01*
X67336000Y-48488000D02*
X68072000Y-47752000D01*
X68072000Y-47752000D02*
X76073000Y-47752000D01*
X79883000Y-54610000D02*
X79203000Y-55290000D01*
X76607000Y-48286000D02*
X76607000Y-49650001D01*
X79883000Y-50673000D02*
X79883000Y-54610000D01*
X76073000Y-47752000D02*
X76607000Y-48286000D01*
X76607000Y-49650001D02*
X78860001Y-49650001D01*
X79203000Y-55290000D02*
X78300000Y-55290000D01*
X78860001Y-49650001D02*
X79883000Y-50673000D01*
%TO.N,Net-(J2-Pin_4)*%
X77369000Y-66522000D02*
X77369000Y-64897000D01*
X67209000Y-64897000D02*
X68987000Y-66675000D01*
X77369000Y-62611000D02*
X77369000Y-65151000D01*
X78300000Y-60370000D02*
X77369000Y-61301000D01*
X77216000Y-66675000D02*
X77369000Y-66522000D01*
X77369000Y-61301000D02*
X77369000Y-62611000D01*
X68987000Y-66675000D02*
X77216000Y-66675000D01*
%TO.N,Net-(J1-Pin_1)*%
X64292000Y-58450000D02*
X65405000Y-59563000D01*
X65405000Y-59563000D02*
X65405499Y-59562501D01*
X62650000Y-58450000D02*
X64292000Y-58450000D01*
X65405499Y-59562501D02*
X67187501Y-59562501D01*
%TO.N,Net-(J1-Pin_2)*%
X65417501Y-57162501D02*
X67187501Y-57162501D01*
X64165000Y-55910000D02*
X65417501Y-57162501D01*
X62650000Y-55910000D02*
X64165000Y-55910000D01*
%TD*%
M02*
