M48
; DRILL file {KiCad 9.0.3} date 2025-08-07T16:58:50+0200
; FORMAT={-:-/ absolute / inch / decimal}
; #@! TF.CreationDate,2025-08-07T16:58:50+02:00
; #@! TF.GenerationSoftware,Kicad,Pcbnew,9.0.3
; #@! TF.FileFunction,Plated,1,2,PTH
FMAT,2
INCH
; #@! TA.AperFunction,Plated,PTH,ComponentDrill
T1C0.0315
; #@! TA.AperFunction,Plated,PTH,ComponentDrill
T2C0.0354
; #@! TA.AperFunction,Plated,PTH,ComponentDrill
T3C0.0394
%
G90
G05
T1
X0.2723Y-0.3072
X0.2723Y-0.4017
X0.2723Y-0.4962
X0.2723Y-1.1932
X0.2723Y-1.2876
X0.2723Y-1.3821
X0.2723Y-2.0791
X0.2723Y-2.1736
X0.2723Y-2.2681
X0.2723Y-2.9651
X0.2723Y-3.0596
X0.2723Y-3.1541
X0.5184Y-0.3072
X0.5184Y-0.4017
X0.5184Y-0.4962
X0.5184Y-1.1932
X0.5184Y-1.2876
X0.5184Y-1.3821
X0.5184Y-2.0791
X0.5184Y-2.1736
X0.5184Y-2.2681
X0.5184Y-2.9651
X0.5184Y-3.0596
X0.5184Y-3.1541
X1.1566Y-0.3072
X1.1566Y-0.4017
X1.1566Y-0.4962
X1.1566Y-1.1932
X1.1566Y-1.2876
X1.1566Y-1.3821
X1.1566Y-2.0791
X1.1566Y-2.1736
X1.1566Y-2.2681
X1.1566Y-2.9651
X1.1566Y-3.0596
X1.1566Y-3.1541
X1.4027Y-0.3072
X1.4027Y-0.4017
X1.4027Y-0.4962
X1.4027Y-1.1932
X1.4027Y-1.2876
X1.4027Y-1.3821
X1.4027Y-2.0791
X1.4027Y-2.1736
X1.4027Y-2.2681
X1.4027Y-2.9651
X1.4027Y-3.0596
X1.4027Y-3.1541
X2.0408Y-0.3072
X2.0408Y-0.4017
X2.0408Y-0.4962
X2.0408Y-1.1932
X2.0408Y-1.2876
X2.0408Y-1.3821
X2.0408Y-2.0791
X2.0408Y-2.1736
X2.0408Y-2.2681
X2.0408Y-2.9651
X2.0408Y-3.0596
X2.0408Y-3.1541
X2.2869Y-0.3072
X2.2869Y-0.4017
X2.2869Y-0.4962
X2.2869Y-1.1932
X2.2869Y-1.2876
X2.2869Y-1.3821
X2.2869Y-2.0791
X2.2869Y-2.1736
X2.2869Y-2.2681
X2.2869Y-2.9651
X2.2869Y-3.0596
X2.2869Y-3.1541
X2.9251Y-0.3072
X2.9251Y-0.4017
X2.9251Y-0.4962
X2.9251Y-1.1932
X2.9251Y-1.2876
X2.9251Y-1.3821
X2.9251Y-2.0791
X2.9251Y-2.1736
X2.9251Y-2.2681
X2.9251Y-2.9651
X2.9251Y-3.0596
X2.9251Y-3.1541
X3.1712Y-0.3072
X3.1712Y-0.4017
X3.1712Y-0.4962
X3.1712Y-1.1932
X3.1712Y-1.2876
X3.1712Y-1.3821
X3.1712Y-2.0791
X3.1712Y-2.1736
X3.1712Y-2.2681
X3.1712Y-2.9651
X3.1712Y-3.0596
X3.1712Y-3.1541
T2
X0.2172Y-0.2132
X0.2172Y-0.5911
X0.2172Y-1.0992
X0.2172Y-1.4771
X0.2172Y-1.9851
X0.2172Y-2.3631
X0.2172Y-2.8711
X0.2172Y-3.2491
X0.3172Y-0.2132
X0.3172Y-0.5911
X0.3172Y-1.0992
X0.3172Y-1.4771
X0.3172Y-1.9851
X0.3172Y-2.3631
X0.3172Y-2.8711
X0.3172Y-3.2491
X0.4922Y-0.5902
X0.4922Y-1.4761
X0.4922Y-2.3621
X0.4922Y-3.2481
X0.4932Y-0.2132
X0.4932Y-1.0992
X0.4932Y-1.9851
X0.4932Y-2.8711
X0.5922Y-0.5902
X0.5922Y-1.4761
X0.5922Y-2.3621
X0.5922Y-3.2481
X0.5932Y-0.2132
X0.5932Y-1.0992
X0.5932Y-1.9851
X0.5932Y-2.8711
X1.1015Y-0.2132
X1.1015Y-0.5911
X1.1015Y-1.0992
X1.1015Y-1.4771
X1.1015Y-1.9851
X1.1015Y-2.3631
X1.1015Y-2.8711
X1.1015Y-3.2491
X1.2015Y-0.2132
X1.2015Y-0.5911
X1.2015Y-1.0992
X1.2015Y-1.4771
X1.2015Y-1.9851
X1.2015Y-2.3631
X1.2015Y-2.8711
X1.2015Y-3.2491
X1.3765Y-0.5902
X1.3765Y-1.4761
X1.3765Y-2.3621
X1.3765Y-3.2481
X1.3775Y-0.2132
X1.3775Y-1.0992
X1.3775Y-1.9851
X1.3775Y-2.8711
X1.4765Y-0.5902
X1.4765Y-1.4761
X1.4765Y-2.3621
X1.4765Y-3.2481
X1.4775Y-0.2132
X1.4775Y-1.0992
X1.4775Y-1.9851
X1.4775Y-2.8711
X1.9857Y-0.2132
X1.9857Y-0.5911
X1.9857Y-1.0992
X1.9857Y-1.4771
X1.9857Y-1.9851
X1.9857Y-2.3631
X1.9857Y-2.8711
X1.9857Y-3.2491
X2.0857Y-0.2132
X2.0857Y-0.5911
X2.0857Y-1.0992
X2.0857Y-1.4771
X2.0857Y-1.9851
X2.0857Y-2.3631
X2.0857Y-2.8711
X2.0857Y-3.2491
X2.2607Y-0.5902
X2.2607Y-1.4761
X2.2607Y-2.3621
X2.2607Y-3.2481
X2.2617Y-0.2132
X2.2617Y-1.0992
X2.2617Y-1.9851
X2.2617Y-2.8711
X2.3607Y-0.5902
X2.3607Y-1.4761
X2.3607Y-2.3621
X2.3607Y-3.2481
X2.3617Y-0.2132
X2.3617Y-1.0992
X2.3617Y-1.9851
X2.3617Y-2.8711
X2.87Y-0.2132
X2.87Y-0.5911
X2.87Y-1.0992
X2.87Y-1.4771
X2.87Y-1.9851
X2.87Y-2.3631
X2.87Y-2.8711
X2.87Y-3.2491
X2.97Y-0.2132
X2.97Y-0.5911
X2.97Y-1.0992
X2.97Y-1.4771
X2.97Y-1.9851
X2.97Y-2.3631
X2.97Y-2.8711
X2.97Y-3.2491
X3.145Y-0.5902
X3.145Y-1.4761
X3.145Y-2.3621
X3.145Y-3.2481
X3.146Y-0.2132
X3.146Y-1.0992
X3.146Y-1.9851
X3.146Y-2.8711
X3.245Y-0.5902
X3.245Y-1.4761
X3.245Y-2.3621
X3.245Y-3.2481
X3.246Y-0.2132
X3.246Y-1.0992
X3.246Y-1.9851
X3.246Y-2.8711
T3
X0.0937Y-0.3524
X0.0937Y-0.4524
X0.0937Y-1.2383
X0.0937Y-1.3383
X0.0937Y-2.1243
X0.0937Y-2.2243
X0.0937Y-3.0103
X0.0937Y-3.1103
X0.7098Y-0.228
X0.7098Y-0.328
X0.7098Y-0.428
X0.7098Y-0.528
X0.7098Y-1.1139
X0.7098Y-1.2139
X0.7098Y-1.3139
X0.7098Y-1.4139
X0.7098Y-1.9999
X0.7098Y-2.0999
X0.7098Y-2.1999
X0.7098Y-2.2999
X0.7098Y-2.8859
X0.7098Y-2.9859
X0.7098Y-3.0859
X0.7098Y-3.1859
X0.978Y-0.3524
X0.978Y-0.4524
X0.978Y-1.2383
X0.978Y-1.3383
X0.978Y-2.1243
X0.978Y-2.2243
X0.978Y-3.0103
X0.978Y-3.1103
X1.5941Y-0.228
X1.5941Y-0.328
X1.5941Y-0.428
X1.5941Y-0.528
X1.5941Y-1.1139
X1.5941Y-1.2139
X1.5941Y-1.3139
X1.5941Y-1.4139
X1.5941Y-1.9999
X1.5941Y-2.0999
X1.5941Y-2.1999
X1.5941Y-2.2999
X1.5941Y-2.8859
X1.5941Y-2.9859
X1.5941Y-3.0859
X1.5941Y-3.1859
X1.8622Y-0.3524
X1.8622Y-0.4524
X1.8622Y-1.2383
X1.8622Y-1.3383
X1.8622Y-2.1243
X1.8622Y-2.2243
X1.8622Y-3.0103
X1.8622Y-3.1103
X2.4783Y-0.228
X2.4783Y-0.328
X2.4783Y-0.428
X2.4783Y-0.528
X2.4783Y-1.1139
X2.4783Y-1.2139
X2.4783Y-1.3139
X2.4783Y-1.4139
X2.4783Y-1.9999
X2.4783Y-2.0999
X2.4783Y-2.1999
X2.4783Y-2.2999
X2.4783Y-2.8859
X2.4783Y-2.9859
X2.4783Y-3.0859
X2.4783Y-3.1859
X2.7465Y-0.3524
X2.7465Y-0.4524
X2.7465Y-1.2383
X2.7465Y-1.3383
X2.7465Y-2.1243
X2.7465Y-2.2243
X2.7465Y-3.0103
X2.7465Y-3.1103
X3.3626Y-0.228
X3.3626Y-0.328
X3.3626Y-0.428
X3.3626Y-0.528
X3.3626Y-1.1139
X3.3626Y-1.2139
X3.3626Y-1.3139
X3.3626Y-1.4139
X3.3626Y-1.9999
X3.3626Y-2.0999
X3.3626Y-2.1999
X3.3626Y-2.2999
X3.3626Y-2.8859
X3.3626Y-2.9859
X3.3626Y-3.0859
X3.3626Y-3.1859
M30
