%TF.GenerationSoftware,KiCad,Pcbnew,9.0.3*%
%TF.CreationDate,2025-08-07T16:58:50+02:00*%
%TF.ProjectId,KorryPanels,4b6f7272-7950-4616-9e65-6c732e6b6963,rev?*%
%TF.SameCoordinates,Original*%
%TF.FileFunction,Soldermask,Bot*%
%TF.FilePolarity,Negative*%
%FSLAX46Y46*%
G04 Gerber Fmt 4.6, Leading zero omitted, Abs format (unit mm)*
G04 Created by KiCad (PCBNEW 9.0.3) date 2025-08-07 16:58:50*
%MOMM*%
%LPD*%
G01*
G04 APERTURE LIST*
G04 Aperture macros list*
%AMRoundRect*
0 Rectangle with rounded corners*
0 $1 Rounding radius*
0 $2 $3 $4 $5 $6 $7 $8 $9 X,Y pos of 4 corners*
0 Add a 4 corners polygon primitive as box body*
4,1,4,$2,$3,$4,$5,$6,$7,$8,$9,$2,$3,0*
0 Add four circle primitives for the rounded corners*
1,1,$1+$1,$2,$3*
1,1,$1+$1,$4,$5*
1,1,$1+$1,$6,$7*
1,1,$1+$1,$8,$9*
0 Add four rect primitives between the rounded corners*
20,1,$1+$1,$2,$3,$4,$5,0*
20,1,$1+$1,$4,$5,$6,$7,0*
20,1,$1+$1,$6,$7,$8,$9,0*
20,1,$1+$1,$8,$9,$2,$3,0*%
G04 Aperture macros list end*
%ADD10RoundRect,0.250000X-0.400000X-1.075000X0.400000X-1.075000X0.400000X1.075000X-0.400000X1.075000X0*%
%ADD11R,1.700000X1.700000*%
%ADD12C,1.700000*%
%ADD13C,1.000000*%
%ADD14C,2.000000*%
%ADD15C,2.100000*%
%ADD16R,1.800000X1.800000*%
%ADD17C,1.800000*%
G04 APERTURE END LIST*
D10*
%TO.C,R3*%
X26299000Y-62944274D03*
X29399000Y-62944274D03*
%TD*%
%TO.C,R2*%
X58157000Y-70200912D03*
X61257000Y-70200912D03*
%TD*%
%TO.C,R3*%
X3839000Y-17937000D03*
X6939000Y-17937000D03*
%TD*%
%TO.C,R2*%
X13237000Y-70200912D03*
X16337000Y-70200912D03*
%TD*%
%TO.C,R2*%
X35697000Y-2690001D03*
X38797000Y-2690001D03*
%TD*%
%TO.C,R1*%
X3966000Y-70207911D03*
X7066000Y-70207911D03*
%TD*%
%TO.C,R3*%
X26299000Y-40440637D03*
X29399000Y-40440637D03*
%TD*%
D11*
%TO.C,J1*%
X69760000Y-33993637D03*
D12*
X69760000Y-31453637D03*
%TD*%
D11*
%TO.C,J2*%
X40490000Y-73300911D03*
D12*
X40490000Y-75840911D03*
X40490000Y-78380911D03*
X40490000Y-80920911D03*
%TD*%
D11*
%TO.C,J2*%
X40490000Y-50797274D03*
D12*
X40490000Y-53337274D03*
X40490000Y-55877274D03*
X40490000Y-58417274D03*
%TD*%
D10*
%TO.C,R4*%
X81379000Y-40440637D03*
X84479000Y-40440637D03*
%TD*%
%TO.C,R1*%
X71346000Y-2697000D03*
X74446000Y-2697000D03*
%TD*%
%TO.C,R4*%
X58919000Y-40440637D03*
X62019000Y-40440637D03*
%TD*%
D11*
%TO.C,J2*%
X85410000Y-73300911D03*
D12*
X85410000Y-75840911D03*
X85410000Y-78380911D03*
X85410000Y-80920911D03*
%TD*%
D11*
%TO.C,J1*%
X2380000Y-79000911D03*
D12*
X2380000Y-76460911D03*
%TD*%
D10*
%TO.C,R1*%
X71346000Y-70207911D03*
X74446000Y-70207911D03*
%TD*%
D13*
%TO.C,KiKit_FID_B_2*%
X81840000Y-3000000D03*
%TD*%
D10*
%TO.C,R3*%
X71219000Y-62944274D03*
X74319000Y-62944274D03*
%TD*%
%TO.C,R2*%
X58157000Y-25193638D03*
X61257000Y-25193638D03*
%TD*%
D11*
%TO.C,J1*%
X24840000Y-56497274D03*
D12*
X24840000Y-53957274D03*
%TD*%
D13*
%TO.C,KiKit_FID_B_3*%
X6000000Y-85014547D03*
%TD*%
D11*
%TO.C,J1*%
X47300000Y-79000911D03*
D12*
X47300000Y-76460911D03*
%TD*%
D10*
%TO.C,R1*%
X48886000Y-2697000D03*
X51986000Y-2697000D03*
%TD*%
%TO.C,R2*%
X80617000Y-70200912D03*
X83717000Y-70200912D03*
%TD*%
%TO.C,R2*%
X35697000Y-25193638D03*
X38797000Y-25193638D03*
%TD*%
D11*
%TO.C,J1*%
X69760000Y-79000911D03*
D12*
X69760000Y-76460911D03*
%TD*%
D10*
%TO.C,R4*%
X36459000Y-85447911D03*
X39559000Y-85447911D03*
%TD*%
%TO.C,R4*%
X58919000Y-17937000D03*
X62019000Y-17937000D03*
%TD*%
%TO.C,R3*%
X48759000Y-62944274D03*
X51859000Y-62944274D03*
%TD*%
%TO.C,R4*%
X36459000Y-62944274D03*
X39559000Y-62944274D03*
%TD*%
%TO.C,R4*%
X13999000Y-17937000D03*
X17099000Y-17937000D03*
%TD*%
%TO.C,R4*%
X81379000Y-62944274D03*
X84479000Y-62944274D03*
%TD*%
%TO.C,R1*%
X48886000Y-70207911D03*
X51986000Y-70207911D03*
%TD*%
D11*
%TO.C,J2*%
X18030000Y-73300911D03*
D12*
X18030000Y-75840911D03*
X18030000Y-78380911D03*
X18030000Y-80920911D03*
%TD*%
D10*
%TO.C,R4*%
X58919000Y-85447911D03*
X62019000Y-85447911D03*
%TD*%
D11*
%TO.C,J2*%
X62950000Y-50797274D03*
D12*
X62950000Y-53337274D03*
X62950000Y-55877274D03*
X62950000Y-58417274D03*
%TD*%
D10*
%TO.C,R3*%
X48759000Y-40440637D03*
X51859000Y-40440637D03*
%TD*%
%TO.C,R1*%
X26426000Y-47704274D03*
X29526000Y-47704274D03*
%TD*%
%TO.C,R4*%
X13999000Y-62944274D03*
X17099000Y-62944274D03*
%TD*%
%TO.C,R2*%
X13237000Y-47697275D03*
X16337000Y-47697275D03*
%TD*%
D11*
%TO.C,J2*%
X18030000Y-28293637D03*
D12*
X18030000Y-30833637D03*
X18030000Y-33373637D03*
X18030000Y-35913637D03*
%TD*%
D10*
%TO.C,R2*%
X35697000Y-47697275D03*
X38797000Y-47697275D03*
%TD*%
%TO.C,R2*%
X13237000Y-2690001D03*
X16337000Y-2690001D03*
%TD*%
%TO.C,R1*%
X71346000Y-25200637D03*
X74446000Y-25200637D03*
%TD*%
%TO.C,R4*%
X36459000Y-40440637D03*
X39559000Y-40440637D03*
%TD*%
%TO.C,R1*%
X71346000Y-47704274D03*
X74446000Y-47704274D03*
%TD*%
%TO.C,R3*%
X26299000Y-85447911D03*
X29399000Y-85447911D03*
%TD*%
%TO.C,R3*%
X71219000Y-17937000D03*
X74319000Y-17937000D03*
%TD*%
D11*
%TO.C,J1*%
X24840000Y-11490000D03*
D12*
X24840000Y-8950000D03*
%TD*%
D10*
%TO.C,R2*%
X80617000Y-47697275D03*
X83717000Y-47697275D03*
%TD*%
%TO.C,R1*%
X48886000Y-47704274D03*
X51986000Y-47704274D03*
%TD*%
%TO.C,R2*%
X58157000Y-2690001D03*
X61257000Y-2690001D03*
%TD*%
%TO.C,R1*%
X26426000Y-2697000D03*
X29526000Y-2697000D03*
%TD*%
D11*
%TO.C,J2*%
X40490000Y-28293637D03*
D12*
X40490000Y-30833637D03*
X40490000Y-33373637D03*
X40490000Y-35913637D03*
%TD*%
D10*
%TO.C,R2*%
X35697000Y-70200912D03*
X38797000Y-70200912D03*
%TD*%
%TO.C,R3*%
X3839000Y-40440637D03*
X6939000Y-40440637D03*
%TD*%
D11*
%TO.C,J1*%
X47300000Y-56497274D03*
D12*
X47300000Y-53957274D03*
%TD*%
D11*
%TO.C,J2*%
X85410000Y-28293637D03*
D12*
X85410000Y-30833637D03*
X85410000Y-33373637D03*
X85410000Y-35913637D03*
%TD*%
D11*
%TO.C,J2*%
X18030000Y-50797274D03*
D12*
X18030000Y-53337274D03*
X18030000Y-55877274D03*
X18030000Y-58417274D03*
%TD*%
D10*
%TO.C,R1*%
X48886000Y-25200637D03*
X51986000Y-25200637D03*
%TD*%
D11*
%TO.C,J2*%
X62950000Y-73300911D03*
D12*
X62950000Y-75840911D03*
X62950000Y-78380911D03*
X62950000Y-80920911D03*
%TD*%
D10*
%TO.C,R1*%
X3966000Y-25200637D03*
X7066000Y-25200637D03*
%TD*%
%TO.C,R2*%
X80617000Y-2690001D03*
X83717000Y-2690001D03*
%TD*%
D11*
%TO.C,J1*%
X2380000Y-11490000D03*
D12*
X2380000Y-8950000D03*
%TD*%
D10*
%TO.C,R1*%
X3966000Y-2697000D03*
X7066000Y-2697000D03*
%TD*%
%TO.C,R3*%
X26299000Y-17937000D03*
X29399000Y-17937000D03*
%TD*%
D11*
%TO.C,J1*%
X69760000Y-11490000D03*
D12*
X69760000Y-8950000D03*
%TD*%
D10*
%TO.C,R4*%
X81379000Y-85447911D03*
X84479000Y-85447911D03*
%TD*%
D11*
%TO.C,J1*%
X24840000Y-79000911D03*
D12*
X24840000Y-76460911D03*
%TD*%
D10*
%TO.C,R4*%
X36459000Y-17937000D03*
X39559000Y-17937000D03*
%TD*%
D11*
%TO.C,J1*%
X47300000Y-33993637D03*
D12*
X47300000Y-31453637D03*
%TD*%
D10*
%TO.C,R1*%
X26426000Y-70207911D03*
X29526000Y-70207911D03*
%TD*%
%TO.C,R2*%
X58157000Y-47697275D03*
X61257000Y-47697275D03*
%TD*%
D11*
%TO.C,J1*%
X2380000Y-56497274D03*
D12*
X2380000Y-53957274D03*
%TD*%
D10*
%TO.C,R2*%
X80617000Y-25193638D03*
X83717000Y-25193638D03*
%TD*%
%TO.C,R4*%
X13999000Y-85447911D03*
X17099000Y-85447911D03*
%TD*%
D11*
%TO.C,J2*%
X62950000Y-28293637D03*
D12*
X62950000Y-30833637D03*
X62950000Y-33373637D03*
X62950000Y-35913637D03*
%TD*%
D11*
%TO.C,J2*%
X85410000Y-50797274D03*
D12*
X85410000Y-53337274D03*
X85410000Y-55877274D03*
X85410000Y-58417274D03*
%TD*%
D10*
%TO.C,R4*%
X58919000Y-62944274D03*
X62019000Y-62944274D03*
%TD*%
%TO.C,R1*%
X3966000Y-47704274D03*
X7066000Y-47704274D03*
%TD*%
%TO.C,R4*%
X81379000Y-17937000D03*
X84479000Y-17937000D03*
%TD*%
D11*
%TO.C,J1*%
X69760000Y-56497274D03*
D12*
X69760000Y-53957274D03*
%TD*%
D10*
%TO.C,R3*%
X71219000Y-85447911D03*
X74319000Y-85447911D03*
%TD*%
D11*
%TO.C,J2*%
X85410000Y-5790000D03*
D12*
X85410000Y-8330000D03*
X85410000Y-10870000D03*
X85410000Y-13410000D03*
%TD*%
D10*
%TO.C,R3*%
X48759000Y-17937000D03*
X51859000Y-17937000D03*
%TD*%
D11*
%TO.C,J1*%
X47300000Y-11490000D03*
D12*
X47300000Y-8950000D03*
%TD*%
D11*
%TO.C,J1*%
X2380000Y-33993637D03*
D12*
X2380000Y-31453637D03*
%TD*%
D11*
%TO.C,J2*%
X40490000Y-5790000D03*
D12*
X40490000Y-8330000D03*
X40490000Y-10870000D03*
X40490000Y-13410000D03*
%TD*%
D10*
%TO.C,R1*%
X26426000Y-25200637D03*
X29526000Y-25200637D03*
%TD*%
D11*
%TO.C,J2*%
X62950000Y-5790000D03*
D12*
X62950000Y-8330000D03*
X62950000Y-10870000D03*
X62950000Y-13410000D03*
%TD*%
D11*
%TO.C,J2*%
X18030000Y-5790000D03*
D12*
X18030000Y-8330000D03*
X18030000Y-10870000D03*
X18030000Y-13410000D03*
%TD*%
D10*
%TO.C,R3*%
X48759000Y-85447911D03*
X51859000Y-85447911D03*
%TD*%
%TO.C,R3*%
X3839000Y-85447911D03*
X6939000Y-85447911D03*
%TD*%
%TO.C,R4*%
X13999000Y-40440637D03*
X17099000Y-40440637D03*
%TD*%
D13*
%TO.C,KiKit_FID_B_1*%
X6000000Y-3000000D03*
%TD*%
D11*
%TO.C,J1*%
X24840000Y-33993637D03*
D12*
X24840000Y-31453637D03*
%TD*%
D10*
%TO.C,R2*%
X13237000Y-25193638D03*
X16337000Y-25193638D03*
%TD*%
%TO.C,R3*%
X3839000Y-62944274D03*
X6939000Y-62944274D03*
%TD*%
%TO.C,R3*%
X71219000Y-40440637D03*
X74319000Y-40440637D03*
%TD*%
D14*
%TO.C,KiKit_TO_2*%
X84840000Y-3000000D03*
%TD*%
D15*
%TO.C,U1*%
X29377501Y-80113412D03*
X29377501Y-77713412D03*
X29377501Y-75313412D03*
X35627501Y-80113412D03*
X35627501Y-77713412D03*
X35627501Y-75313412D03*
%TD*%
D16*
%TO.C,D3*%
X72897501Y-82525912D03*
D17*
X75437501Y-82525912D03*
%TD*%
D16*
%TO.C,D1*%
X12527501Y-27918638D03*
D17*
X15067501Y-27918638D03*
%TD*%
D16*
%TO.C,D4*%
X79882501Y-37493638D03*
D17*
X82422501Y-37493638D03*
%TD*%
D16*
%TO.C,D4*%
X34962501Y-14990001D03*
D17*
X37502501Y-14990001D03*
%TD*%
D16*
%TO.C,D2*%
X72897501Y-27918638D03*
D17*
X75437501Y-27918638D03*
%TD*%
D15*
%TO.C,U1*%
X51837501Y-35106138D03*
X51837501Y-32706138D03*
X51837501Y-30306138D03*
X58087501Y-35106138D03*
X58087501Y-32706138D03*
X58087501Y-30306138D03*
%TD*%
D16*
%TO.C,D2*%
X72897501Y-50422275D03*
D17*
X75437501Y-50422275D03*
%TD*%
D16*
%TO.C,D2*%
X27977501Y-72925912D03*
D17*
X30517501Y-72925912D03*
%TD*%
D15*
%TO.C,U1*%
X74297501Y-35106138D03*
X74297501Y-32706138D03*
X74297501Y-30306138D03*
X80547501Y-35106138D03*
X80547501Y-32706138D03*
X80547501Y-30306138D03*
%TD*%
%TO.C,U1*%
X6917501Y-12602501D03*
X6917501Y-10202501D03*
X6917501Y-7802501D03*
X13167501Y-12602501D03*
X13167501Y-10202501D03*
X13167501Y-7802501D03*
%TD*%
D14*
%TO.C,KiKit_TO_1*%
X3000000Y-3000000D03*
%TD*%
%TO.C,KiKit_TO_4*%
X84840000Y-85014547D03*
%TD*%
D16*
%TO.C,D4*%
X79882501Y-82500912D03*
D17*
X82422501Y-82500912D03*
%TD*%
D16*
%TO.C,D2*%
X5517501Y-27918638D03*
D17*
X8057501Y-27918638D03*
%TD*%
D16*
%TO.C,D3*%
X5517501Y-82525912D03*
D17*
X8057501Y-82525912D03*
%TD*%
D16*
%TO.C,D3*%
X5517501Y-15015001D03*
D17*
X8057501Y-15015001D03*
%TD*%
D16*
%TO.C,D3*%
X72897501Y-15015001D03*
D17*
X75437501Y-15015001D03*
%TD*%
D16*
%TO.C,D2*%
X5517501Y-5415001D03*
D17*
X8057501Y-5415001D03*
%TD*%
D16*
%TO.C,D3*%
X5517501Y-37518638D03*
D17*
X8057501Y-37518638D03*
%TD*%
D15*
%TO.C,U1*%
X74297501Y-12602501D03*
X74297501Y-10202501D03*
X74297501Y-7802501D03*
X80547501Y-12602501D03*
X80547501Y-10202501D03*
X80547501Y-7802501D03*
%TD*%
D16*
%TO.C,D4*%
X57422501Y-59997275D03*
D17*
X59962501Y-59997275D03*
%TD*%
D16*
%TO.C,D1*%
X34987501Y-5415001D03*
D17*
X37527501Y-5415001D03*
%TD*%
D16*
%TO.C,D1*%
X34987501Y-27918638D03*
D17*
X37527501Y-27918638D03*
%TD*%
D16*
%TO.C,D3*%
X27977501Y-37518638D03*
D17*
X30517501Y-37518638D03*
%TD*%
D16*
%TO.C,D4*%
X79882501Y-59997275D03*
D17*
X82422501Y-59997275D03*
%TD*%
D16*
%TO.C,D2*%
X50437501Y-5415001D03*
D17*
X52977501Y-5415001D03*
%TD*%
D15*
%TO.C,U1*%
X6917501Y-80113412D03*
X6917501Y-77713412D03*
X6917501Y-75313412D03*
X13167501Y-80113412D03*
X13167501Y-77713412D03*
X13167501Y-75313412D03*
%TD*%
D16*
%TO.C,D4*%
X57422501Y-37493638D03*
D17*
X59962501Y-37493638D03*
%TD*%
D16*
%TO.C,D2*%
X50437501Y-72925912D03*
D17*
X52977501Y-72925912D03*
%TD*%
D16*
%TO.C,D3*%
X5517501Y-60022275D03*
D17*
X8057501Y-60022275D03*
%TD*%
D16*
%TO.C,D4*%
X12502501Y-59997275D03*
D17*
X15042501Y-59997275D03*
%TD*%
D16*
%TO.C,D1*%
X57447501Y-5415001D03*
D17*
X59987501Y-5415001D03*
%TD*%
D15*
%TO.C,U1*%
X29377501Y-12602501D03*
X29377501Y-10202501D03*
X29377501Y-7802501D03*
X35627501Y-12602501D03*
X35627501Y-10202501D03*
X35627501Y-7802501D03*
%TD*%
D14*
%TO.C,KiKit_TO_3*%
X3000000Y-85014547D03*
%TD*%
D16*
%TO.C,D3*%
X72897501Y-60022275D03*
D17*
X75437501Y-60022275D03*
%TD*%
D15*
%TO.C,U1*%
X74297501Y-57609775D03*
X74297501Y-55209775D03*
X74297501Y-52809775D03*
X80547501Y-57609775D03*
X80547501Y-55209775D03*
X80547501Y-52809775D03*
%TD*%
D16*
%TO.C,D3*%
X72897501Y-37518638D03*
D17*
X75437501Y-37518638D03*
%TD*%
D16*
%TO.C,D2*%
X50437501Y-50422275D03*
D17*
X52977501Y-50422275D03*
%TD*%
D16*
%TO.C,D1*%
X79907501Y-72925912D03*
D17*
X82447501Y-72925912D03*
%TD*%
D16*
%TO.C,D1*%
X79907501Y-27918638D03*
D17*
X82447501Y-27918638D03*
%TD*%
D16*
%TO.C,D1*%
X12527501Y-50422275D03*
D17*
X15067501Y-50422275D03*
%TD*%
D16*
%TO.C,D1*%
X57447501Y-27918638D03*
D17*
X59987501Y-27918638D03*
%TD*%
D16*
%TO.C,D3*%
X50437501Y-15015001D03*
D17*
X52977501Y-15015001D03*
%TD*%
D16*
%TO.C,D2*%
X72897501Y-72925912D03*
D17*
X75437501Y-72925912D03*
%TD*%
D16*
%TO.C,D4*%
X12502501Y-14990001D03*
D17*
X15042501Y-14990001D03*
%TD*%
D16*
%TO.C,D1*%
X34987501Y-72925912D03*
D17*
X37527501Y-72925912D03*
%TD*%
D16*
%TO.C,D1*%
X79907501Y-50422275D03*
D17*
X82447501Y-50422275D03*
%TD*%
D16*
%TO.C,D4*%
X57422501Y-14990001D03*
D17*
X59962501Y-14990001D03*
%TD*%
D16*
%TO.C,D3*%
X27977501Y-82525912D03*
D17*
X30517501Y-82525912D03*
%TD*%
D15*
%TO.C,U1*%
X6917501Y-57609775D03*
X6917501Y-55209775D03*
X6917501Y-52809775D03*
X13167501Y-57609775D03*
X13167501Y-55209775D03*
X13167501Y-52809775D03*
%TD*%
%TO.C,U1*%
X51837501Y-80113412D03*
X51837501Y-77713412D03*
X51837501Y-75313412D03*
X58087501Y-80113412D03*
X58087501Y-77713412D03*
X58087501Y-75313412D03*
%TD*%
D16*
%TO.C,D2*%
X27977501Y-5415001D03*
D17*
X30517501Y-5415001D03*
%TD*%
D16*
%TO.C,D3*%
X27977501Y-60022275D03*
D17*
X30517501Y-60022275D03*
%TD*%
D16*
%TO.C,D2*%
X50437501Y-27918638D03*
D17*
X52977501Y-27918638D03*
%TD*%
D16*
%TO.C,D3*%
X50437501Y-60022275D03*
D17*
X52977501Y-60022275D03*
%TD*%
D15*
%TO.C,U1*%
X29377501Y-57609775D03*
X29377501Y-55209775D03*
X29377501Y-52809775D03*
X35627501Y-57609775D03*
X35627501Y-55209775D03*
X35627501Y-52809775D03*
%TD*%
%TO.C,U1*%
X51837501Y-57609775D03*
X51837501Y-55209775D03*
X51837501Y-52809775D03*
X58087501Y-57609775D03*
X58087501Y-55209775D03*
X58087501Y-52809775D03*
%TD*%
D16*
%TO.C,D2*%
X27977501Y-27918638D03*
D17*
X30517501Y-27918638D03*
%TD*%
D16*
%TO.C,D4*%
X34962501Y-59997275D03*
D17*
X37502501Y-59997275D03*
%TD*%
D16*
%TO.C,D3*%
X27977501Y-15015001D03*
D17*
X30517501Y-15015001D03*
%TD*%
D16*
%TO.C,D4*%
X34962501Y-37493638D03*
D17*
X37502501Y-37493638D03*
%TD*%
D16*
%TO.C,D4*%
X57422501Y-82500912D03*
D17*
X59962501Y-82500912D03*
%TD*%
D16*
%TO.C,D2*%
X5517501Y-72925912D03*
D17*
X8057501Y-72925912D03*
%TD*%
D16*
%TO.C,D1*%
X57447501Y-50422275D03*
D17*
X59987501Y-50422275D03*
%TD*%
D16*
%TO.C,D1*%
X34987501Y-50422275D03*
D17*
X37527501Y-50422275D03*
%TD*%
D16*
%TO.C,D1*%
X57447501Y-72925912D03*
D17*
X59987501Y-72925912D03*
%TD*%
D16*
%TO.C,D4*%
X79882501Y-14990001D03*
D17*
X82422501Y-14990001D03*
%TD*%
D16*
%TO.C,D4*%
X12502501Y-82500912D03*
D17*
X15042501Y-82500912D03*
%TD*%
D15*
%TO.C,U1*%
X74297501Y-80113412D03*
X74297501Y-77713412D03*
X74297501Y-75313412D03*
X80547501Y-80113412D03*
X80547501Y-77713412D03*
X80547501Y-75313412D03*
%TD*%
D16*
%TO.C,D3*%
X50437501Y-82525912D03*
D17*
X52977501Y-82525912D03*
%TD*%
D15*
%TO.C,U1*%
X6917501Y-35106138D03*
X6917501Y-32706138D03*
X6917501Y-30306138D03*
X13167501Y-35106138D03*
X13167501Y-32706138D03*
X13167501Y-30306138D03*
%TD*%
D16*
%TO.C,D2*%
X5517501Y-50422275D03*
D17*
X8057501Y-50422275D03*
%TD*%
D16*
%TO.C,D4*%
X34962501Y-82500912D03*
D17*
X37502501Y-82500912D03*
%TD*%
D16*
%TO.C,D1*%
X12527501Y-5415001D03*
D17*
X15067501Y-5415001D03*
%TD*%
D16*
%TO.C,D4*%
X12502501Y-37493638D03*
D17*
X15042501Y-37493638D03*
%TD*%
D15*
%TO.C,U1*%
X51837501Y-12602501D03*
X51837501Y-10202501D03*
X51837501Y-7802501D03*
X58087501Y-12602501D03*
X58087501Y-10202501D03*
X58087501Y-7802501D03*
%TD*%
D16*
%TO.C,D2*%
X72897501Y-5415001D03*
D17*
X75437501Y-5415001D03*
%TD*%
D15*
%TO.C,U1*%
X29377501Y-35106138D03*
X29377501Y-32706138D03*
X29377501Y-30306138D03*
X35627501Y-35106138D03*
X35627501Y-32706138D03*
X35627501Y-30306138D03*
%TD*%
D16*
%TO.C,D1*%
X79907501Y-5415001D03*
D17*
X82447501Y-5415001D03*
%TD*%
D16*
%TO.C,D2*%
X27977501Y-50422275D03*
D17*
X30517501Y-50422275D03*
%TD*%
D16*
%TO.C,D3*%
X50437501Y-37518638D03*
D17*
X52977501Y-37518638D03*
%TD*%
D16*
%TO.C,D1*%
X12527501Y-72925912D03*
D17*
X15067501Y-72925912D03*
%TD*%
M02*
