M48
; DRILL file {KiCad 9.0.3} date 2025-08-06T22:13:45+0200
; FORMAT={-:-/ absolute / inch / decimal}
; #@! TF.CreationDate,2025-08-06T22:13:45+02:00
; #@! TF.GenerationSoftware,Kicad,Pcbnew,9.0.3
; #@! TF.FileFunction,Plated,1,2,PTH
FMAT,2
INCH
; #@! TA.AperFunction,Plated,PTH,ComponentDrill
T1C0.0315
; #@! TA.AperFunction,Plated,PTH,ComponentDrill
T2C0.0354
; #@! TA.AperFunction,Plated,PTH,ComponentDrill
T3C0.0394
%
G90
G05
T1
X2.6452Y-2.156
X2.6452Y-2.2505
X2.6452Y-2.345
X2.8912Y-2.156
X2.8912Y-2.2505
X2.8912Y-2.345
T2
X2.5901Y-2.062
X2.5901Y-2.44
X2.6901Y-2.062
X2.6901Y-2.44
X2.8651Y-2.439
X2.866Y-2.062
X2.9651Y-2.439
X2.966Y-2.062
T3
X2.4665Y-2.2012
X2.4665Y-2.3012
X3.0827Y-2.0768
X3.0827Y-2.1768
X3.0827Y-2.2768
X3.0827Y-2.3768
M30
