%TF.GenerationSoftware,KiCad,Pcbnew,9.0.2*%
%TF.CreationDate,2025-08-05T20:06:00+02:00*%
%TF.ProjectId,Korry,4b6f7272-792e-46b6-9963-61645f706362,rev?*%
%TF.SameCoordinates,Original*%
%TF.FileFunction,Legend,Top*%
%TF.FilePolarity,Positive*%
%FSLAX46Y46*%
G04 Gerber Fmt 4.6, Leading zero omitted, Abs format (unit mm)*
G04 Created by KiCad (PCBNEW 9.0.2) date 2025-08-05 20:06:00*
%MOMM*%
%LPD*%
G01*
G04 APERTURE LIST*
%ADD10C,0.150000*%
%ADD11C,0.100000*%
%ADD12C,0.200000*%
%ADD13C,0.000000*%
%ADD14C,0.120000*%
%ADD15C,1.000000*%
%ADD16C,0.900000*%
%ADD17C,2.100000*%
%ADD18R,1.800000X1.800000*%
%ADD19C,1.800000*%
%ADD20R,1.700000X1.700000*%
%ADD21C,1.700000*%
G04 APERTURE END LIST*
D10*
X79773294Y-60350400D02*
X80535194Y-60350400D01*
X79773294Y-55372000D02*
X80535194Y-55372000D01*
D11*
X80536209Y-57809866D02*
X79774305Y-57809866D01*
X80155257Y-58190819D02*
X80155257Y-57428914D01*
X80536209Y-52780666D02*
X79774305Y-52780666D01*
X80155257Y-53161619D02*
X80155257Y-52399714D01*
D12*
X67616149Y-65720019D02*
X67806625Y-65720019D01*
X67806625Y-65720019D02*
X67901863Y-65767638D01*
X67901863Y-65767638D02*
X67997101Y-65862876D01*
X67997101Y-65862876D02*
X68044720Y-66053352D01*
X68044720Y-66053352D02*
X68044720Y-66386685D01*
X68044720Y-66386685D02*
X67997101Y-66577161D01*
X67997101Y-66577161D02*
X67901863Y-66672400D01*
X67901863Y-66672400D02*
X67806625Y-66720019D01*
X67806625Y-66720019D02*
X67616149Y-66720019D01*
X67616149Y-66720019D02*
X67520911Y-66672400D01*
X67520911Y-66672400D02*
X67425673Y-66577161D01*
X67425673Y-66577161D02*
X67378054Y-66386685D01*
X67378054Y-66386685D02*
X67378054Y-66053352D01*
X67378054Y-66053352D02*
X67425673Y-65862876D01*
X67425673Y-65862876D02*
X67520911Y-65767638D01*
X67520911Y-65767638D02*
X67616149Y-65720019D01*
X68473292Y-66720019D02*
X68473292Y-65720019D01*
X68473292Y-65720019D02*
X68854244Y-65720019D01*
X68854244Y-65720019D02*
X68949482Y-65767638D01*
X68949482Y-65767638D02*
X68997101Y-65815257D01*
X68997101Y-65815257D02*
X69044720Y-65910495D01*
X69044720Y-65910495D02*
X69044720Y-66053352D01*
X69044720Y-66053352D02*
X68997101Y-66148590D01*
X68997101Y-66148590D02*
X68949482Y-66196209D01*
X68949482Y-66196209D02*
X68854244Y-66243828D01*
X68854244Y-66243828D02*
X68473292Y-66243828D01*
X69473292Y-66196209D02*
X69806625Y-66196209D01*
X69949482Y-66720019D02*
X69473292Y-66720019D01*
X69473292Y-66720019D02*
X69473292Y-65720019D01*
X69473292Y-65720019D02*
X69949482Y-65720019D01*
X70378054Y-66720019D02*
X70378054Y-65720019D01*
X70378054Y-65720019D02*
X70949482Y-66720019D01*
X70949482Y-66720019D02*
X70949482Y-65720019D01*
X71378054Y-66434304D02*
X71854244Y-66434304D01*
X71282816Y-66720019D02*
X71616149Y-65720019D01*
X71616149Y-65720019D02*
X71949482Y-66720019D01*
X72187578Y-65720019D02*
X72806625Y-65720019D01*
X72806625Y-65720019D02*
X72473292Y-66100971D01*
X72473292Y-66100971D02*
X72616149Y-66100971D01*
X72616149Y-66100971D02*
X72711387Y-66148590D01*
X72711387Y-66148590D02*
X72759006Y-66196209D01*
X72759006Y-66196209D02*
X72806625Y-66291447D01*
X72806625Y-66291447D02*
X72806625Y-66529542D01*
X72806625Y-66529542D02*
X72759006Y-66624780D01*
X72759006Y-66624780D02*
X72711387Y-66672400D01*
X72711387Y-66672400D02*
X72616149Y-66720019D01*
X72616149Y-66720019D02*
X72330435Y-66720019D01*
X72330435Y-66720019D02*
X72235197Y-66672400D01*
X72235197Y-66672400D02*
X72187578Y-66624780D01*
X73139959Y-65720019D02*
X73806625Y-66720019D01*
X73806625Y-65720019D02*
X73139959Y-66720019D01*
X74092340Y-65720019D02*
X74759006Y-66720019D01*
X74759006Y-65720019D02*
X74092340Y-66720019D01*
D11*
X69974400Y-56542665D02*
X69926780Y-56685522D01*
X69926780Y-56685522D02*
X69926780Y-56923617D01*
X69926780Y-56923617D02*
X69974400Y-57018855D01*
X69974400Y-57018855D02*
X70022019Y-57066474D01*
X70022019Y-57066474D02*
X70117257Y-57114093D01*
X70117257Y-57114093D02*
X70212495Y-57114093D01*
X70212495Y-57114093D02*
X70307733Y-57066474D01*
X70307733Y-57066474D02*
X70355352Y-57018855D01*
X70355352Y-57018855D02*
X70402971Y-56923617D01*
X70402971Y-56923617D02*
X70450590Y-56733141D01*
X70450590Y-56733141D02*
X70498209Y-56637903D01*
X70498209Y-56637903D02*
X70545828Y-56590284D01*
X70545828Y-56590284D02*
X70641066Y-56542665D01*
X70641066Y-56542665D02*
X70736304Y-56542665D01*
X70736304Y-56542665D02*
X70831542Y-56590284D01*
X70831542Y-56590284D02*
X70879161Y-56637903D01*
X70879161Y-56637903D02*
X70926780Y-56733141D01*
X70926780Y-56733141D02*
X70926780Y-56971236D01*
X70926780Y-56971236D02*
X70879161Y-57114093D01*
X70926780Y-57447427D02*
X69926780Y-57685522D01*
X69926780Y-57685522D02*
X70641066Y-57875998D01*
X70641066Y-57875998D02*
X69926780Y-58066474D01*
X69926780Y-58066474D02*
X70926780Y-58304570D01*
X76785115Y-51434466D02*
X76023211Y-51434466D01*
X76404163Y-51815419D02*
X76404163Y-51053514D01*
X69927115Y-51434466D02*
X69165211Y-51434466D01*
X69546163Y-51815419D02*
X69546163Y-51053514D01*
X76785115Y-62864466D02*
X76023211Y-62864466D01*
X76404163Y-63245419D02*
X76404163Y-62483514D01*
X69800115Y-62737466D02*
X69038211Y-62737466D01*
X69419163Y-63118419D02*
X69419163Y-62356514D01*
D13*
G36*
X63772770Y-48219830D02*
G01*
X63803170Y-48250230D01*
X63837430Y-48318750D01*
X63837430Y-48426200D01*
X63803170Y-48494710D01*
X63772770Y-48525120D01*
X63704250Y-48559380D01*
X63416000Y-48559380D01*
X63416000Y-48185570D01*
X63704250Y-48185570D01*
X63772770Y-48219830D01*
G37*
G36*
X62725150Y-48219830D02*
G01*
X62797090Y-48291770D01*
X62837430Y-48453140D01*
X62837430Y-48768000D01*
X62797090Y-48929370D01*
X62725150Y-49001310D01*
X62656630Y-49035570D01*
X62501570Y-49035570D01*
X62433050Y-49001310D01*
X62361110Y-48929370D01*
X62320770Y-48768000D01*
X62320770Y-48453140D01*
X62361110Y-48291770D01*
X62433050Y-48219830D01*
X62501560Y-48185570D01*
X62656630Y-48185570D01*
X62725150Y-48219830D01*
G37*
G36*
X76620390Y-48219830D02*
G01*
X76650790Y-48250230D01*
X76685050Y-48318750D01*
X76685050Y-48426200D01*
X76650790Y-48494710D01*
X76620380Y-48525120D01*
X76551870Y-48559380D01*
X76430590Y-48559380D01*
X76412540Y-48557510D01*
X76408840Y-48559380D01*
X76263620Y-48559380D01*
X76263620Y-48185570D01*
X76551870Y-48185570D01*
X76620390Y-48219830D01*
G37*
G36*
X64547080Y-49608610D02*
G01*
X60826840Y-49608610D01*
X60826840Y-48121690D01*
X61311250Y-48121690D01*
X61329550Y-48161760D01*
X61366600Y-48185570D01*
X61599340Y-48185570D01*
X61599340Y-49121350D01*
X61608580Y-49152830D01*
X61641870Y-49181670D01*
X61685460Y-49187940D01*
X61725520Y-49169640D01*
X61749340Y-49132590D01*
X61749340Y-48774060D01*
X62167660Y-48774060D01*
X62170770Y-48786470D01*
X62170770Y-48788020D01*
X62173370Y-48796890D01*
X62220350Y-48984790D01*
X62224780Y-49005170D01*
X62233560Y-49013950D01*
X62239840Y-49024660D01*
X62248810Y-49029200D01*
X62328940Y-49109330D01*
X62335380Y-49120180D01*
X62353890Y-49129430D01*
X62372010Y-49139330D01*
X62373470Y-49139230D01*
X62446710Y-49175850D01*
X62461840Y-49185570D01*
X62477170Y-49185570D01*
X62492250Y-49188280D01*
X62498800Y-49185570D01*
X62670300Y-49185570D01*
X62688180Y-49187500D01*
X62701890Y-49180640D01*
X62716600Y-49176330D01*
X62721230Y-49170970D01*
X62794700Y-49134240D01*
X62807040Y-49131560D01*
X62821660Y-49116930D01*
X62836780Y-49102870D01*
X62837140Y-49101450D01*
X62917030Y-49021560D01*
X62932230Y-49007270D01*
X62935240Y-48995220D01*
X62941190Y-48984330D01*
X62940470Y-48974300D01*
X62982200Y-48807400D01*
X62987430Y-48799260D01*
X62987430Y-48786470D01*
X62987810Y-48784970D01*
X62987430Y-48775720D01*
X62987430Y-48645500D01*
X62987430Y-48456240D01*
X62990530Y-48447080D01*
X62987430Y-48434670D01*
X62987430Y-48433120D01*
X62984830Y-48424250D01*
X62937850Y-48236350D01*
X62933420Y-48215970D01*
X62924640Y-48207190D01*
X62918360Y-48196480D01*
X62909390Y-48191930D01*
X62839150Y-48121690D01*
X63263630Y-48121690D01*
X63266000Y-48126880D01*
X63266000Y-48629020D01*
X63263630Y-48645500D01*
X63266000Y-48650690D01*
X63266000Y-49121350D01*
X63275250Y-49152830D01*
X63308530Y-49181670D01*
X63352130Y-49187940D01*
X63392190Y-49169640D01*
X63416000Y-49132590D01*
X63416000Y-48709380D01*
X63717920Y-48709380D01*
X63735800Y-48711310D01*
X63749510Y-48704450D01*
X63764220Y-48700140D01*
X63768850Y-48694780D01*
X63842320Y-48658050D01*
X63854650Y-48655360D01*
X63869280Y-48640740D01*
X63884400Y-48626680D01*
X63884760Y-48625260D01*
X63911200Y-48598820D01*
X63922050Y-48592380D01*
X63931300Y-48573870D01*
X63941190Y-48555760D01*
X63941090Y-48554300D01*
X63977710Y-48481050D01*
X63987430Y-48465920D01*
X63987430Y-48450590D01*
X63990150Y-48435510D01*
X63987430Y-48428970D01*
X63987430Y-48305080D01*
X63989360Y-48287200D01*
X63982510Y-48273490D01*
X63978190Y-48258790D01*
X63972830Y-48254150D01*
X63936100Y-48180680D01*
X63933420Y-48168350D01*
X63918800Y-48153730D01*
X63904730Y-48138600D01*
X63903310Y-48138240D01*
X63876870Y-48111800D01*
X63870430Y-48100950D01*
X63851930Y-48091700D01*
X63833810Y-48081810D01*
X63832350Y-48081910D01*
X63759110Y-48045290D01*
X63743980Y-48035570D01*
X63728650Y-48035570D01*
X63713560Y-48032860D01*
X63707020Y-48035570D01*
X63346360Y-48035570D01*
X63329880Y-48033200D01*
X63314730Y-48040120D01*
X63298740Y-48044810D01*
X63295010Y-48049120D01*
X63289820Y-48051500D01*
X63280810Y-48065510D01*
X63269900Y-48078100D01*
X63269090Y-48083740D01*
X63266000Y-48088550D01*
X63266000Y-48105210D01*
X63263630Y-48121690D01*
X62839150Y-48121690D01*
X62829260Y-48111800D01*
X62822810Y-48100950D01*
X62804310Y-48091700D01*
X62786190Y-48081810D01*
X62784730Y-48081910D01*
X62711490Y-48045290D01*
X62696360Y-48035570D01*
X62681030Y-48035570D01*
X62665950Y-48032860D01*
X62659400Y-48035570D01*
X62487890Y-48035570D01*
X62470020Y-48033640D01*
X62456310Y-48040490D01*
X62441600Y-48044810D01*
X62436960Y-48050170D01*
X62363490Y-48086900D01*
X62351160Y-48089580D01*
X62336540Y-48104200D01*
X62321420Y-48118270D01*
X62321050Y-48119690D01*
X62241160Y-48199580D01*
X62225960Y-48213870D01*
X62222950Y-48225920D01*
X62217000Y-48236810D01*
X62217720Y-48246840D01*
X62176000Y-48413740D01*
X62170770Y-48421880D01*
X62170770Y-48434670D01*
X62170390Y-48436170D01*
X62170770Y-48445420D01*
X62170770Y-48764890D01*
X62167660Y-48774060D01*
X61749340Y-48774060D01*
X61749340Y-48185570D01*
X61970830Y-48185570D01*
X62002310Y-48176330D01*
X62031150Y-48143040D01*
X62037420Y-48099450D01*
X62019120Y-48059380D01*
X61982070Y-48035570D01*
X61679700Y-48035570D01*
X61663210Y-48033200D01*
X61658020Y-48035570D01*
X61377840Y-48035570D01*
X61346360Y-48044810D01*
X61317520Y-48078100D01*
X61311250Y-48121690D01*
X60826840Y-48121690D01*
X60826840Y-47497890D01*
X64547080Y-47497890D01*
X64547080Y-49608610D01*
G37*
G36*
X80251840Y-49608610D02*
G01*
X74626840Y-49608610D01*
X74626840Y-48597880D01*
X74626840Y-48121690D01*
X75254110Y-48121690D01*
X75256480Y-48126880D01*
X75256480Y-48581400D01*
X75254110Y-48597880D01*
X75256480Y-48603070D01*
X75256480Y-49121350D01*
X75265720Y-49152830D01*
X75299010Y-49181670D01*
X75342600Y-49187940D01*
X75382670Y-49169640D01*
X75406480Y-49132590D01*
X75406480Y-48661760D01*
X75675590Y-48661760D01*
X75707070Y-48652520D01*
X75713150Y-48645500D01*
X75735910Y-48619230D01*
X75742180Y-48575640D01*
X75723890Y-48535570D01*
X75686830Y-48511760D01*
X75406480Y-48511760D01*
X75406480Y-48185570D01*
X75818450Y-48185570D01*
X75849930Y-48176330D01*
X75878770Y-48143040D01*
X75881841Y-48121690D01*
X76111250Y-48121690D01*
X76113620Y-48126880D01*
X76113620Y-48629020D01*
X76111250Y-48645500D01*
X76113620Y-48650690D01*
X76113620Y-49121350D01*
X76122870Y-49152830D01*
X76156150Y-49181670D01*
X76199750Y-49187940D01*
X76239810Y-49169640D01*
X76263620Y-49132590D01*
X76263620Y-48709380D01*
X76387670Y-48709380D01*
X76704790Y-49162410D01*
X76730410Y-49182900D01*
X76774220Y-49187440D01*
X76813530Y-49167570D01*
X76835860Y-49129610D01*
X76834120Y-49085600D01*
X76616040Y-48774060D01*
X77062900Y-48774060D01*
X77066000Y-48786470D01*
X77066000Y-48788020D01*
X77068610Y-48796890D01*
X77115580Y-48984790D01*
X77120020Y-49005170D01*
X77128800Y-49013950D01*
X77135080Y-49024660D01*
X77144050Y-49029200D01*
X77224180Y-49109330D01*
X77230620Y-49120180D01*
X77249120Y-49129430D01*
X77267250Y-49139330D01*
X77268710Y-49139230D01*
X77341950Y-49175850D01*
X77357080Y-49185570D01*
X77372410Y-49185570D01*
X77387490Y-49188280D01*
X77394030Y-49185570D01*
X77565530Y-49185570D01*
X77583420Y-49187500D01*
X77597130Y-49180640D01*
X77611830Y-49176330D01*
X77616470Y-49170970D01*
X77689940Y-49134240D01*
X77702270Y-49131560D01*
X77716900Y-49116930D01*
X77732020Y-49102870D01*
X77732380Y-49101450D01*
X77812260Y-49021560D01*
X77827470Y-49007270D01*
X77830480Y-48995220D01*
X77836430Y-48984330D01*
X77835710Y-48974300D01*
X77877440Y-48807400D01*
X77882670Y-48799260D01*
X77882670Y-48786470D01*
X77883050Y-48784970D01*
X77882670Y-48775720D01*
X77882670Y-48456240D01*
X77885770Y-48447080D01*
X77882670Y-48434670D01*
X77882670Y-48433120D01*
X77880060Y-48424250D01*
X77833090Y-48236350D01*
X77828660Y-48215970D01*
X77819880Y-48207190D01*
X77813590Y-48196480D01*
X77804620Y-48191930D01*
X77741350Y-48128660D01*
X78160200Y-48128660D01*
X78161240Y-48130490D01*
X78161240Y-49121350D01*
X78170480Y-49152830D01*
X78203770Y-49181670D01*
X78247370Y-49187940D01*
X78287430Y-49169640D01*
X78311240Y-49132590D01*
X78311240Y-48392990D01*
X78738190Y-49140140D01*
X78741910Y-49152830D01*
X78757080Y-49165970D01*
X78771540Y-49179890D01*
X78773610Y-49180290D01*
X78775200Y-49181670D01*
X78795060Y-49184530D01*
X78814750Y-49188410D01*
X78816710Y-49187640D01*
X78818790Y-49187940D01*
X78837050Y-49179600D01*
X78855710Y-49172230D01*
X78856940Y-49170520D01*
X78858860Y-49169640D01*
X78869710Y-49152760D01*
X78881420Y-49136460D01*
X78881530Y-49134360D01*
X78882670Y-49132590D01*
X78882670Y-49112520D01*
X78883710Y-49092480D01*
X78882670Y-49090650D01*
X78882670Y-48121690D01*
X79063630Y-48121690D01*
X79081930Y-48161760D01*
X79118980Y-48185570D01*
X79351720Y-48185570D01*
X79351720Y-49121350D01*
X79360960Y-49152830D01*
X79394250Y-49181670D01*
X79437840Y-49187940D01*
X79477910Y-49169640D01*
X79501720Y-49132590D01*
X79501720Y-48185570D01*
X79723210Y-48185570D01*
X79754690Y-48176330D01*
X79783530Y-48143040D01*
X79789800Y-48099450D01*
X79771510Y-48059380D01*
X79734450Y-48035570D01*
X79432080Y-48035570D01*
X79415590Y-48033200D01*
X79410400Y-48035570D01*
X79130220Y-48035570D01*
X79098740Y-48044810D01*
X79069900Y-48078100D01*
X79063630Y-48121690D01*
X78882670Y-48121690D01*
X78882670Y-48099790D01*
X78873430Y-48068310D01*
X78840140Y-48039470D01*
X78796550Y-48033200D01*
X78756480Y-48051500D01*
X78732670Y-48088550D01*
X78732670Y-48828150D01*
X78305720Y-48080990D01*
X78302000Y-48068310D01*
X78286830Y-48055170D01*
X78272370Y-48041250D01*
X78270300Y-48040840D01*
X78268710Y-48039470D01*
X78248850Y-48036610D01*
X78229160Y-48032730D01*
X78227200Y-48033500D01*
X78225120Y-48033200D01*
X78206860Y-48041540D01*
X78188200Y-48048910D01*
X78186970Y-48050620D01*
X78185050Y-48051500D01*
X78174200Y-48068380D01*
X78162490Y-48084680D01*
X78162380Y-48086780D01*
X78161240Y-48088550D01*
X78161240Y-48108620D01*
X78160200Y-48128660D01*
X77741350Y-48128660D01*
X77724490Y-48111800D01*
X77718050Y-48100950D01*
X77699550Y-48091700D01*
X77681430Y-48081810D01*
X77679970Y-48081910D01*
X77606730Y-48045290D01*
X77591600Y-48035570D01*
X77576270Y-48035570D01*
X77561180Y-48032860D01*
X77554640Y-48035570D01*
X77383130Y-48035570D01*
X77365250Y-48033640D01*
X77351540Y-48040490D01*
X77336840Y-48044810D01*
X77332200Y-48050170D01*
X77258730Y-48086900D01*
X77246400Y-48089580D01*
X77231780Y-48104200D01*
X77216650Y-48118270D01*
X77216290Y-48119690D01*
X77136400Y-48199580D01*
X77121200Y-48213870D01*
X77118190Y-48225920D01*
X77112240Y-48236810D01*
X77112960Y-48246840D01*
X77071240Y-48413740D01*
X77066000Y-48421880D01*
X77066000Y-48434670D01*
X77065630Y-48436170D01*
X77066000Y-48445420D01*
X77066000Y-48764890D01*
X77062900Y-48774060D01*
X76616040Y-48774060D01*
X76571190Y-48709990D01*
X76583420Y-48711310D01*
X76597130Y-48704450D01*
X76611830Y-48700140D01*
X76616470Y-48694780D01*
X76689940Y-48658050D01*
X76702270Y-48655360D01*
X76716900Y-48640740D01*
X76732020Y-48626680D01*
X76732380Y-48625260D01*
X76758820Y-48598820D01*
X76769670Y-48592380D01*
X76778920Y-48573870D01*
X76788810Y-48555760D01*
X76788710Y-48554300D01*
X76825330Y-48481050D01*
X76835050Y-48465920D01*
X76835050Y-48450590D01*
X76837760Y-48435510D01*
X76835050Y-48428970D01*
X76835050Y-48305080D01*
X76836980Y-48287200D01*
X76830130Y-48273490D01*
X76825810Y-48258790D01*
X76820450Y-48254150D01*
X76783720Y-48180680D01*
X76781040Y-48168350D01*
X76766420Y-48153730D01*
X76752350Y-48138600D01*
X76750930Y-48138240D01*
X76724490Y-48111800D01*
X76718050Y-48100950D01*
X76699550Y-48091700D01*
X76681430Y-48081810D01*
X76679970Y-48081910D01*
X76606730Y-48045290D01*
X76591600Y-48035570D01*
X76576270Y-48035570D01*
X76561180Y-48032860D01*
X76554640Y-48035570D01*
X76193980Y-48035570D01*
X76177500Y-48033200D01*
X76162350Y-48040120D01*
X76146360Y-48044810D01*
X76142630Y-48049120D01*
X76137430Y-48051500D01*
X76128430Y-48065510D01*
X76117520Y-48078100D01*
X76116710Y-48083740D01*
X76113620Y-48088550D01*
X76113620Y-48105210D01*
X76111250Y-48121690D01*
X75881841Y-48121690D01*
X75885040Y-48099450D01*
X75866740Y-48059380D01*
X75829690Y-48035570D01*
X75336840Y-48035570D01*
X75320360Y-48033200D01*
X75305200Y-48040120D01*
X75289220Y-48044810D01*
X75285480Y-48049120D01*
X75280290Y-48051500D01*
X75271280Y-48065510D01*
X75260380Y-48078100D01*
X75259570Y-48083740D01*
X75256480Y-48088550D01*
X75256480Y-48105210D01*
X75254110Y-48121690D01*
X74626840Y-48121690D01*
X74626840Y-47497890D01*
X80251840Y-47497890D01*
X80251840Y-49608610D01*
G37*
G36*
X77620390Y-48219830D02*
G01*
X77692330Y-48291770D01*
X77732670Y-48453140D01*
X77732670Y-48768000D01*
X77692330Y-48929370D01*
X77620380Y-49001310D01*
X77551870Y-49035570D01*
X77396800Y-49035570D01*
X77328290Y-49001310D01*
X77256340Y-48929370D01*
X77216000Y-48768000D01*
X77216000Y-48453140D01*
X77256340Y-48291770D01*
X77328290Y-48219830D01*
X77396800Y-48185570D01*
X77551870Y-48185570D01*
X77620390Y-48219830D01*
G37*
D11*
X75525596Y-60219920D02*
X75525596Y-61029443D01*
X75525596Y-61029443D02*
X75573215Y-61124681D01*
X75573215Y-61124681D02*
X75620834Y-61172301D01*
X75620834Y-61172301D02*
X75716072Y-61219920D01*
X75716072Y-61219920D02*
X75906548Y-61219920D01*
X75906548Y-61219920D02*
X76001786Y-61172301D01*
X76001786Y-61172301D02*
X76049405Y-61124681D01*
X76049405Y-61124681D02*
X76097024Y-61029443D01*
X76097024Y-61029443D02*
X76097024Y-60219920D01*
X77097024Y-61219920D02*
X76525596Y-61219920D01*
X76811310Y-61219920D02*
X76811310Y-60219920D01*
X76811310Y-60219920D02*
X76716072Y-60362777D01*
X76716072Y-60362777D02*
X76620834Y-60458015D01*
X76620834Y-60458015D02*
X76525596Y-60505634D01*
D10*
X66319406Y-49869820D02*
X66319406Y-48869820D01*
X66319406Y-48869820D02*
X66557501Y-48869820D01*
X66557501Y-48869820D02*
X66700358Y-48917439D01*
X66700358Y-48917439D02*
X66795596Y-49012677D01*
X66795596Y-49012677D02*
X66843215Y-49107915D01*
X66843215Y-49107915D02*
X66890834Y-49298391D01*
X66890834Y-49298391D02*
X66890834Y-49441248D01*
X66890834Y-49441248D02*
X66843215Y-49631724D01*
X66843215Y-49631724D02*
X66795596Y-49726962D01*
X66795596Y-49726962D02*
X66700358Y-49822201D01*
X66700358Y-49822201D02*
X66557501Y-49869820D01*
X66557501Y-49869820D02*
X66319406Y-49869820D01*
X67271787Y-48965058D02*
X67319406Y-48917439D01*
X67319406Y-48917439D02*
X67414644Y-48869820D01*
X67414644Y-48869820D02*
X67652739Y-48869820D01*
X67652739Y-48869820D02*
X67747977Y-48917439D01*
X67747977Y-48917439D02*
X67795596Y-48965058D01*
X67795596Y-48965058D02*
X67843215Y-49060296D01*
X67843215Y-49060296D02*
X67843215Y-49155534D01*
X67843215Y-49155534D02*
X67795596Y-49298391D01*
X67795596Y-49298391D02*
X67224168Y-49869820D01*
X67224168Y-49869820D02*
X67843215Y-49869820D01*
X73329406Y-49869820D02*
X73329406Y-48869820D01*
X73329406Y-48869820D02*
X73567501Y-48869820D01*
X73567501Y-48869820D02*
X73710358Y-48917439D01*
X73710358Y-48917439D02*
X73805596Y-49012677D01*
X73805596Y-49012677D02*
X73853215Y-49107915D01*
X73853215Y-49107915D02*
X73900834Y-49298391D01*
X73900834Y-49298391D02*
X73900834Y-49441248D01*
X73900834Y-49441248D02*
X73853215Y-49631724D01*
X73853215Y-49631724D02*
X73805596Y-49726962D01*
X73805596Y-49726962D02*
X73710358Y-49822201D01*
X73710358Y-49822201D02*
X73567501Y-49869820D01*
X73567501Y-49869820D02*
X73329406Y-49869820D01*
X74853215Y-49869820D02*
X74281787Y-49869820D01*
X74567501Y-49869820D02*
X74567501Y-48869820D01*
X74567501Y-48869820D02*
X74472263Y-49012677D01*
X74472263Y-49012677D02*
X74377025Y-49107915D01*
X74377025Y-49107915D02*
X74281787Y-49155534D01*
X77966666Y-49824819D02*
X77966666Y-50539104D01*
X77966666Y-50539104D02*
X77919047Y-50681961D01*
X77919047Y-50681961D02*
X77823809Y-50777200D01*
X77823809Y-50777200D02*
X77680952Y-50824819D01*
X77680952Y-50824819D02*
X77585714Y-50824819D01*
X78395238Y-49920057D02*
X78442857Y-49872438D01*
X78442857Y-49872438D02*
X78538095Y-49824819D01*
X78538095Y-49824819D02*
X78776190Y-49824819D01*
X78776190Y-49824819D02*
X78871428Y-49872438D01*
X78871428Y-49872438D02*
X78919047Y-49920057D01*
X78919047Y-49920057D02*
X78966666Y-50015295D01*
X78966666Y-50015295D02*
X78966666Y-50110533D01*
X78966666Y-50110533D02*
X78919047Y-50253390D01*
X78919047Y-50253390D02*
X78347619Y-50824819D01*
X78347619Y-50824819D02*
X78966666Y-50824819D01*
X70127905Y-62557819D02*
X70127905Y-61557819D01*
X70127905Y-61557819D02*
X70366000Y-61557819D01*
X70366000Y-61557819D02*
X70508857Y-61605438D01*
X70508857Y-61605438D02*
X70604095Y-61700676D01*
X70604095Y-61700676D02*
X70651714Y-61795914D01*
X70651714Y-61795914D02*
X70699333Y-61986390D01*
X70699333Y-61986390D02*
X70699333Y-62129247D01*
X70699333Y-62129247D02*
X70651714Y-62319723D01*
X70651714Y-62319723D02*
X70604095Y-62414961D01*
X70604095Y-62414961D02*
X70508857Y-62510200D01*
X70508857Y-62510200D02*
X70366000Y-62557819D01*
X70366000Y-62557819D02*
X70127905Y-62557819D01*
X71556476Y-61891152D02*
X71556476Y-62557819D01*
X71318381Y-61510200D02*
X71080286Y-62224485D01*
X71080286Y-62224485D02*
X71699333Y-62224485D01*
X62404666Y-53175819D02*
X62404666Y-53890104D01*
X62404666Y-53890104D02*
X62357047Y-54032961D01*
X62357047Y-54032961D02*
X62261809Y-54128200D01*
X62261809Y-54128200D02*
X62118952Y-54175819D01*
X62118952Y-54175819D02*
X62023714Y-54175819D01*
X63404666Y-54175819D02*
X62833238Y-54175819D01*
X63118952Y-54175819D02*
X63118952Y-53175819D01*
X63118952Y-53175819D02*
X63023714Y-53318676D01*
X63023714Y-53318676D02*
X62928476Y-53413914D01*
X62928476Y-53413914D02*
X62833238Y-53461533D01*
X63015905Y-62430819D02*
X63015905Y-61430819D01*
X63015905Y-61430819D02*
X63254000Y-61430819D01*
X63254000Y-61430819D02*
X63396857Y-61478438D01*
X63396857Y-61478438D02*
X63492095Y-61573676D01*
X63492095Y-61573676D02*
X63539714Y-61668914D01*
X63539714Y-61668914D02*
X63587333Y-61859390D01*
X63587333Y-61859390D02*
X63587333Y-62002247D01*
X63587333Y-62002247D02*
X63539714Y-62192723D01*
X63539714Y-62192723D02*
X63492095Y-62287961D01*
X63492095Y-62287961D02*
X63396857Y-62383200D01*
X63396857Y-62383200D02*
X63254000Y-62430819D01*
X63254000Y-62430819D02*
X63015905Y-62430819D01*
X63920667Y-61430819D02*
X64539714Y-61430819D01*
X64539714Y-61430819D02*
X64206381Y-61811771D01*
X64206381Y-61811771D02*
X64349238Y-61811771D01*
X64349238Y-61811771D02*
X64444476Y-61859390D01*
X64444476Y-61859390D02*
X64492095Y-61907009D01*
X64492095Y-61907009D02*
X64539714Y-62002247D01*
X64539714Y-62002247D02*
X64539714Y-62240342D01*
X64539714Y-62240342D02*
X64492095Y-62335580D01*
X64492095Y-62335580D02*
X64444476Y-62383200D01*
X64444476Y-62383200D02*
X64349238Y-62430819D01*
X64349238Y-62430819D02*
X64063524Y-62430819D01*
X64063524Y-62430819D02*
X63968286Y-62383200D01*
X63968286Y-62383200D02*
X63920667Y-62335580D01*
%TO.C,U1*%
D11*
X66262501Y-53137501D02*
X74350001Y-53137501D01*
X74350001Y-61187501D01*
X66262501Y-61187501D01*
X66262501Y-53137501D01*
D14*
%TO.C,D2*%
X65497501Y-51139001D02*
X65497501Y-51295001D01*
X65497501Y-53455001D02*
X65497501Y-53611001D01*
X65497501Y-51139485D02*
G75*
G02*
X68728938Y-51295001I1560000J-1235516D01*
G01*
X66016540Y-51295001D02*
G75*
G02*
X68098462Y-51295001I1040961J-1080000D01*
G01*
X68098462Y-53455001D02*
G75*
G02*
X66016540Y-53455001I-1040961J1080000D01*
G01*
X68728938Y-53455001D02*
G75*
G02*
X65497501Y-53610517I-1671437J1080000D01*
G01*
%TO.C,D1*%
X72507501Y-51139001D02*
X72507501Y-51295001D01*
X72507501Y-53455001D02*
X72507501Y-53611001D01*
X72507501Y-51139485D02*
G75*
G02*
X75738938Y-51295001I1560000J-1235516D01*
G01*
X73026540Y-51295001D02*
G75*
G02*
X75108462Y-51295001I1040961J-1080000D01*
G01*
X75108462Y-53455001D02*
G75*
G02*
X73026540Y-53455001I-1040961J1080000D01*
G01*
X75738938Y-53455001D02*
G75*
G02*
X72507501Y-53610517I-1671437J1080000D01*
G01*
%TO.C,J2*%
X76920000Y-51370000D02*
X78300000Y-51370000D01*
X76920000Y-52750000D02*
X76920000Y-51370000D01*
X76920000Y-54020000D02*
X76920000Y-61750000D01*
X76920000Y-54020000D02*
X79680000Y-54020000D01*
X76920000Y-61750000D02*
X79680000Y-61750000D01*
X79680000Y-54020000D02*
X79680000Y-61750000D01*
%TO.C,D4*%
X72482501Y-60714001D02*
X72482501Y-60870001D01*
X72482501Y-63030001D02*
X72482501Y-63186001D01*
X72482501Y-60714485D02*
G75*
G02*
X75713938Y-60870001I1560000J-1235516D01*
G01*
X73001540Y-60870001D02*
G75*
G02*
X75083462Y-60870001I1040961J-1080000D01*
G01*
X75083462Y-63030001D02*
G75*
G02*
X73001540Y-63030001I-1040961J1080000D01*
G01*
X75713938Y-63030001D02*
G75*
G02*
X72482501Y-63185517I-1671437J1080000D01*
G01*
%TO.C,J1*%
X61270000Y-57180000D02*
X61270000Y-54530000D01*
X64030000Y-54530000D02*
X61270000Y-54530000D01*
X64030000Y-57180000D02*
X61270000Y-57180000D01*
X64030000Y-57180000D02*
X64030000Y-54530000D01*
X64030000Y-58450000D02*
X64030000Y-59830000D01*
X64030000Y-59830000D02*
X62650000Y-59830000D01*
%TO.C,D3*%
X65497501Y-60739001D02*
X65497501Y-60895001D01*
X65497501Y-63055001D02*
X65497501Y-63211001D01*
X65497501Y-60739485D02*
G75*
G02*
X68728938Y-60895001I1560000J-1235516D01*
G01*
X66016540Y-60895001D02*
G75*
G02*
X68098462Y-60895001I1040961J-1080000D01*
G01*
X68098462Y-63055001D02*
G75*
G02*
X66016540Y-63055001I-1040961J1080000D01*
G01*
X68728938Y-63055001D02*
G75*
G02*
X65497501Y-63210517I-1671437J1080000D01*
G01*
%TD*%
%LPC*%
D15*
X34953690Y-128643690D02*
G75*
G02*
X33953690Y-128643690I-500000J0D01*
G01*
X33953690Y-128643690D02*
G75*
G02*
X34953690Y-128643690I500000J0D01*
G01*
D13*
G36*
X45212000Y-128457780D02*
G01*
X45294520Y-128470020D01*
X45375430Y-128490290D01*
X45453970Y-128518390D01*
X45529380Y-128554060D01*
X45600920Y-128596940D01*
X45667920Y-128646630D01*
X45729730Y-128702650D01*
X45785750Y-128764460D01*
X45835440Y-128831460D01*
X45878320Y-128903000D01*
X45913990Y-128978410D01*
X45942090Y-129056950D01*
X45962360Y-129137860D01*
X45974600Y-129220380D01*
X45978690Y-129303690D01*
X45974600Y-129387000D01*
X45962360Y-129469520D01*
X45942090Y-129550430D01*
X45913990Y-129628970D01*
X45878320Y-129704380D01*
X45835440Y-129775920D01*
X45785750Y-129842920D01*
X45729730Y-129904730D01*
X45667920Y-129960750D01*
X45600920Y-130010440D01*
X45529380Y-130053320D01*
X45453970Y-130088990D01*
X45375430Y-130117090D01*
X45294520Y-130137360D01*
X45212000Y-130149600D01*
X45128690Y-130153690D01*
X45045380Y-130149600D01*
X44962860Y-130137360D01*
X44881950Y-130117090D01*
X44803410Y-130088990D01*
X44728000Y-130053320D01*
X44656460Y-130010440D01*
X44589460Y-129960750D01*
X44527650Y-129904730D01*
X44471630Y-129842920D01*
X44421940Y-129775920D01*
X44379060Y-129704380D01*
X44343390Y-129628970D01*
X44315290Y-129550430D01*
X44295020Y-129469520D01*
X44282780Y-129387000D01*
X44278690Y-129303690D01*
X44282780Y-129220380D01*
X44295020Y-129137860D01*
X44315290Y-129056950D01*
X44343390Y-128978410D01*
X44379060Y-128903000D01*
X44421940Y-128831460D01*
X44471630Y-128764460D01*
X44527650Y-128702650D01*
X44589460Y-128646630D01*
X44656460Y-128596940D01*
X44728000Y-128554060D01*
X44803410Y-128518390D01*
X44881950Y-128490290D01*
X44962860Y-128470020D01*
X45045380Y-128457780D01*
X45128690Y-128453690D01*
X45212000Y-128457780D01*
G37*
G36*
X30303690Y-133283690D02*
G01*
X28603690Y-133283690D01*
X28603690Y-131583690D01*
X30303690Y-131583690D01*
X30303690Y-133283690D01*
G37*
D15*
X40753690Y-133643690D02*
G75*
G02*
X39753690Y-133643690I-500000J0D01*
G01*
X39753690Y-133643690D02*
G75*
G02*
X40753690Y-133643690I500000J0D01*
G01*
X40753690Y-131143690D02*
G75*
G02*
X39753690Y-131143690I-500000J0D01*
G01*
X39753690Y-131143690D02*
G75*
G02*
X40753690Y-131143690I500000J0D01*
G01*
D13*
G36*
X45212000Y-130997780D02*
G01*
X45294520Y-131010020D01*
X45375430Y-131030290D01*
X45453970Y-131058390D01*
X45529380Y-131094060D01*
X45600920Y-131136940D01*
X45667920Y-131186630D01*
X45729730Y-131242650D01*
X45785750Y-131304460D01*
X45835440Y-131371460D01*
X45878320Y-131443000D01*
X45913990Y-131518410D01*
X45942090Y-131596950D01*
X45962360Y-131677860D01*
X45974600Y-131760380D01*
X45978690Y-131843690D01*
X45974600Y-131927000D01*
X45962360Y-132009520D01*
X45942090Y-132090430D01*
X45913990Y-132168970D01*
X45878320Y-132244380D01*
X45835440Y-132315920D01*
X45785750Y-132382920D01*
X45729730Y-132444730D01*
X45667920Y-132500750D01*
X45600920Y-132550440D01*
X45529380Y-132593320D01*
X45453970Y-132628990D01*
X45375430Y-132657090D01*
X45294520Y-132677360D01*
X45212000Y-132689600D01*
X45128690Y-132693690D01*
X45045380Y-132689600D01*
X44962860Y-132677360D01*
X44881950Y-132657090D01*
X44803410Y-132628990D01*
X44728000Y-132593320D01*
X44656460Y-132550440D01*
X44589460Y-132500750D01*
X44527650Y-132444730D01*
X44471630Y-132382920D01*
X44421940Y-132315920D01*
X44379060Y-132244380D01*
X44343390Y-132168970D01*
X44315290Y-132090430D01*
X44295020Y-132009520D01*
X44282780Y-131927000D01*
X44278690Y-131843690D01*
X44282780Y-131760380D01*
X44295020Y-131677860D01*
X44315290Y-131596950D01*
X44343390Y-131518410D01*
X44379060Y-131443000D01*
X44421940Y-131371460D01*
X44471630Y-131304460D01*
X44527650Y-131242650D01*
X44589460Y-131186630D01*
X44656460Y-131136940D01*
X44728000Y-131094060D01*
X44803410Y-131058390D01*
X44881950Y-131030290D01*
X44962860Y-131010020D01*
X45045380Y-130997780D01*
X45128690Y-130993690D01*
X45212000Y-130997780D01*
G37*
G36*
X45978690Y-127613690D02*
G01*
X44278690Y-127613690D01*
X44278690Y-125913690D01*
X45978690Y-125913690D01*
X45978690Y-127613690D01*
G37*
D15*
X40753690Y-128643690D02*
G75*
G02*
X39753690Y-128643690I-500000J0D01*
G01*
X39753690Y-128643690D02*
G75*
G02*
X40753690Y-128643690I500000J0D01*
G01*
D16*
X42578690Y-126343690D02*
G75*
G02*
X41678690Y-126343690I-450000J0D01*
G01*
X41678690Y-126343690D02*
G75*
G02*
X42578690Y-126343690I450000J0D01*
G01*
D13*
G36*
X40478690Y-136843690D02*
G01*
X38678690Y-136843690D01*
X38678690Y-135043690D01*
X40478690Y-135043690D01*
X40478690Y-136843690D01*
G37*
D16*
X42568690Y-135943690D02*
G75*
G02*
X41668690Y-135943690I-450000J0D01*
G01*
X41668690Y-135943690D02*
G75*
G02*
X42568690Y-135943690I450000J0D01*
G01*
D13*
G36*
X33478690Y-127243690D02*
G01*
X31678690Y-127243690D01*
X31678690Y-125443690D01*
X33478690Y-125443690D01*
X33478690Y-127243690D01*
G37*
D16*
X35568690Y-135943690D02*
G75*
G02*
X34668690Y-135943690I-450000J0D01*
G01*
X34668690Y-135943690D02*
G75*
G02*
X35568690Y-135943690I450000J0D01*
G01*
D13*
G36*
X33478690Y-136843690D02*
G01*
X31678690Y-136843690D01*
X31678690Y-135043690D01*
X33478690Y-135043690D01*
X33478690Y-136843690D01*
G37*
G36*
X45212000Y-133537780D02*
G01*
X45294520Y-133550020D01*
X45375430Y-133570290D01*
X45453970Y-133598390D01*
X45529380Y-133634060D01*
X45600920Y-133676940D01*
X45667920Y-133726630D01*
X45729730Y-133782650D01*
X45785750Y-133844460D01*
X45835440Y-133911460D01*
X45878320Y-133983000D01*
X45913990Y-134058410D01*
X45942090Y-134136950D01*
X45962360Y-134217860D01*
X45974600Y-134300380D01*
X45978690Y-134383690D01*
X45974600Y-134467000D01*
X45962360Y-134549520D01*
X45942090Y-134630430D01*
X45913990Y-134708970D01*
X45878320Y-134784380D01*
X45835440Y-134855920D01*
X45785750Y-134922920D01*
X45729730Y-134984730D01*
X45667920Y-135040750D01*
X45600920Y-135090440D01*
X45529380Y-135133320D01*
X45453970Y-135168990D01*
X45375430Y-135197090D01*
X45294520Y-135217360D01*
X45212000Y-135229600D01*
X45128690Y-135233690D01*
X45045380Y-135229600D01*
X44962860Y-135217360D01*
X44881950Y-135197090D01*
X44803410Y-135168990D01*
X44728000Y-135133320D01*
X44656460Y-135090440D01*
X44589460Y-135040750D01*
X44527650Y-134984730D01*
X44471630Y-134922920D01*
X44421940Y-134855920D01*
X44379060Y-134784380D01*
X44343390Y-134708970D01*
X44315290Y-134630430D01*
X44295020Y-134549520D01*
X44282780Y-134467000D01*
X44278690Y-134383690D01*
X44282780Y-134300380D01*
X44295020Y-134217860D01*
X44315290Y-134136950D01*
X44343390Y-134058410D01*
X44379060Y-133983000D01*
X44421940Y-133911460D01*
X44471630Y-133844460D01*
X44527650Y-133782650D01*
X44589460Y-133726630D01*
X44656460Y-133676940D01*
X44728000Y-133634060D01*
X44803410Y-133598390D01*
X44881950Y-133570290D01*
X44962860Y-133550020D01*
X45045380Y-133537780D01*
X45128690Y-133533690D01*
X45212000Y-133537780D01*
G37*
G36*
X40488690Y-127243690D02*
G01*
X38688690Y-127243690D01*
X38688690Y-125443690D01*
X40488690Y-125443690D01*
X40488690Y-127243690D01*
G37*
G36*
X29537000Y-129047780D02*
G01*
X29619520Y-129060020D01*
X29700430Y-129080290D01*
X29778970Y-129108390D01*
X29854380Y-129144060D01*
X29925920Y-129186940D01*
X29992920Y-129236630D01*
X30054730Y-129292650D01*
X30110750Y-129354460D01*
X30160440Y-129421460D01*
X30203320Y-129493000D01*
X30238990Y-129568410D01*
X30267090Y-129646950D01*
X30287360Y-129727860D01*
X30299600Y-129810380D01*
X30303690Y-129893690D01*
X30299600Y-129977000D01*
X30287360Y-130059520D01*
X30267090Y-130140430D01*
X30238990Y-130218970D01*
X30203320Y-130294380D01*
X30160440Y-130365920D01*
X30110750Y-130432920D01*
X30054730Y-130494730D01*
X29992920Y-130550750D01*
X29925920Y-130600440D01*
X29854380Y-130643320D01*
X29778970Y-130678990D01*
X29700430Y-130707090D01*
X29619520Y-130727360D01*
X29537000Y-130739600D01*
X29453690Y-130743690D01*
X29370380Y-130739600D01*
X29287860Y-130727360D01*
X29206950Y-130707090D01*
X29128410Y-130678990D01*
X29053000Y-130643320D01*
X28981460Y-130600440D01*
X28914460Y-130550750D01*
X28852650Y-130494730D01*
X28796630Y-130432920D01*
X28746940Y-130365920D01*
X28704060Y-130294380D01*
X28668390Y-130218970D01*
X28640290Y-130140430D01*
X28620020Y-130059520D01*
X28607780Y-129977000D01*
X28603690Y-129893690D01*
X28607780Y-129810380D01*
X28620020Y-129727860D01*
X28640290Y-129646950D01*
X28668390Y-129568410D01*
X28704060Y-129493000D01*
X28746940Y-129421460D01*
X28796630Y-129354460D01*
X28852650Y-129292650D01*
X28914460Y-129236630D01*
X28981460Y-129186940D01*
X29053000Y-129144060D01*
X29128410Y-129108390D01*
X29206950Y-129080290D01*
X29287860Y-129060020D01*
X29370380Y-129047780D01*
X29453690Y-129043690D01*
X29537000Y-129047780D01*
G37*
D15*
X34953690Y-133643690D02*
G75*
G02*
X33953690Y-133643690I-500000J0D01*
G01*
X33953690Y-133643690D02*
G75*
G02*
X34953690Y-133643690I500000J0D01*
G01*
X34953690Y-131143690D02*
G75*
G02*
X33953690Y-131143690I-500000J0D01*
G01*
X33953690Y-131143690D02*
G75*
G02*
X34953690Y-131143690I500000J0D01*
G01*
D16*
X35568690Y-126343690D02*
G75*
G02*
X34668690Y-126343690I-450000J0D01*
G01*
X34668690Y-126343690D02*
G75*
G02*
X35568690Y-126343690I450000J0D01*
G01*
D17*
%TO.C,U1*%
X67187501Y-59562501D03*
X67187501Y-57162501D03*
X67187501Y-54762501D03*
X73437501Y-59562501D03*
X73437501Y-57162501D03*
X73437501Y-54762501D03*
%TD*%
D18*
%TO.C,D2*%
X65787501Y-52375001D03*
D19*
X68327501Y-52375001D03*
%TD*%
D18*
%TO.C,D1*%
X72797501Y-52375001D03*
D19*
X75337501Y-52375001D03*
%TD*%
D20*
%TO.C,J2*%
X78300000Y-52750000D03*
D21*
X78300000Y-55290000D03*
X78300000Y-57830000D03*
X78300000Y-60370000D03*
%TD*%
D18*
%TO.C,D4*%
X72772501Y-61950001D03*
D19*
X75312501Y-61950001D03*
%TD*%
D20*
%TO.C,J1*%
X62650000Y-58450000D03*
D21*
X62650000Y-55910000D03*
%TD*%
D18*
%TO.C,D3*%
X65787501Y-61975001D03*
D19*
X68327501Y-61975001D03*
%TD*%
%LPD*%
M02*
