%TF.GenerationSoftware,KiCad,Pcbnew,9.0.5*%
%TF.CreationDate,2025-10-19T16:32:40+02:00*%
%TF.ProjectId,Korry,4b6f7272-792e-46b6-9963-61645f706362,rev?*%
%TF.SameCoordinates,Original*%
%TF.FileFunction,Soldermask,Top*%
%TF.FilePolarity,Negative*%
%FSLAX46Y46*%
G04 Gerber Fmt 4.6, Leading zero omitted, Abs format (unit mm)*
G04 Created by KiCad (PCBNEW 9.0.5) date 2025-10-19 16:32:40*
%MOMM*%
%LPD*%
G01*
G04 APERTURE LIST*
%ADD10R,1.800000X1.800000*%
%ADD11C,1.800000*%
%ADD12C,2.100000*%
%ADD13R,1.700000X1.700000*%
%ADD14C,1.700000*%
G04 APERTURE END LIST*
D10*
%TO.C,D4*%
X66422501Y-21990001D03*
D11*
X68962501Y-21990001D03*
%TD*%
D12*
%TO.C,U1*%
X37377501Y-43106138D03*
X37377501Y-40706138D03*
X37377501Y-38306138D03*
X43627501Y-43106138D03*
X43627501Y-40706138D03*
X43627501Y-38306138D03*
%TD*%
%TO.C,U1*%
X84297501Y-66609775D03*
X84297501Y-64209775D03*
X84297501Y-61809775D03*
X90547501Y-66609775D03*
X90547501Y-64209775D03*
X90547501Y-61809775D03*
%TD*%
D10*
%TO.C,D2*%
X12517501Y-35918638D03*
D11*
X15057501Y-35918638D03*
%TD*%
D10*
%TO.C,D1*%
X42987501Y-59422275D03*
D11*
X45527501Y-59422275D03*
%TD*%
D12*
%TO.C,U1*%
X84297501Y-43106138D03*
X84297501Y-40706138D03*
X84297501Y-38306138D03*
X90547501Y-43106138D03*
X90547501Y-40706138D03*
X90547501Y-38306138D03*
%TD*%
D10*
%TO.C,D2*%
X59437501Y-12415001D03*
D11*
X61977501Y-12415001D03*
%TD*%
D10*
%TO.C,D3*%
X12517501Y-45518638D03*
D11*
X15057501Y-45518638D03*
%TD*%
D10*
%TO.C,D1*%
X89907501Y-82925912D03*
D11*
X92447501Y-82925912D03*
%TD*%
D10*
%TO.C,D4*%
X89882501Y-45493638D03*
D11*
X92422501Y-45493638D03*
%TD*%
D10*
%TO.C,D4*%
X66422501Y-92500912D03*
D11*
X68962501Y-92500912D03*
%TD*%
D10*
%TO.C,D2*%
X59437501Y-82925912D03*
D11*
X61977501Y-82925912D03*
%TD*%
D10*
%TO.C,D1*%
X19527501Y-12415001D03*
D11*
X22067501Y-12415001D03*
%TD*%
D10*
%TO.C,D4*%
X19502501Y-68997275D03*
D11*
X22042501Y-68997275D03*
%TD*%
D10*
%TO.C,D3*%
X35977501Y-22015001D03*
D11*
X38517501Y-22015001D03*
%TD*%
D10*
%TO.C,D4*%
X89882501Y-92500912D03*
D11*
X92422501Y-92500912D03*
%TD*%
D10*
%TO.C,D3*%
X35977501Y-92525912D03*
D11*
X38517501Y-92525912D03*
%TD*%
D10*
%TO.C,D2*%
X59437501Y-35918638D03*
D11*
X61977501Y-35918638D03*
%TD*%
D10*
%TO.C,D4*%
X42962501Y-68997275D03*
D11*
X45502501Y-68997275D03*
%TD*%
D10*
%TO.C,D4*%
X19502501Y-21990001D03*
D11*
X22042501Y-21990001D03*
%TD*%
D10*
%TO.C,D2*%
X12517501Y-59422275D03*
D11*
X15057501Y-59422275D03*
%TD*%
D10*
%TO.C,D1*%
X42987501Y-35918638D03*
D11*
X45527501Y-35918638D03*
%TD*%
D12*
%TO.C,U1*%
X84297501Y-19602501D03*
X84297501Y-17202501D03*
X84297501Y-14802501D03*
X90547501Y-19602501D03*
X90547501Y-17202501D03*
X90547501Y-14802501D03*
%TD*%
%TO.C,U1*%
X60837501Y-19602501D03*
X60837501Y-17202501D03*
X60837501Y-14802501D03*
X67087501Y-19602501D03*
X67087501Y-17202501D03*
X67087501Y-14802501D03*
%TD*%
D10*
%TO.C,D3*%
X12517501Y-22015001D03*
D11*
X15057501Y-22015001D03*
%TD*%
D10*
%TO.C,D3*%
X82897501Y-22015001D03*
D11*
X85437501Y-22015001D03*
%TD*%
D10*
%TO.C,D2*%
X82897501Y-35918638D03*
D11*
X85437501Y-35918638D03*
%TD*%
D10*
%TO.C,D1*%
X19527501Y-35918638D03*
D11*
X22067501Y-35918638D03*
%TD*%
D12*
%TO.C,U1*%
X84297501Y-90113412D03*
X84297501Y-87713412D03*
X84297501Y-85313412D03*
X90547501Y-90113412D03*
X90547501Y-87713412D03*
X90547501Y-85313412D03*
%TD*%
D10*
%TO.C,D2*%
X82897501Y-82925912D03*
D11*
X85437501Y-82925912D03*
%TD*%
D10*
%TO.C,D2*%
X35977501Y-59422275D03*
D11*
X38517501Y-59422275D03*
%TD*%
D10*
%TO.C,D3*%
X82897501Y-69022275D03*
D11*
X85437501Y-69022275D03*
%TD*%
D10*
%TO.C,D4*%
X42962501Y-45493638D03*
D11*
X45502501Y-45493638D03*
%TD*%
D10*
%TO.C,D2*%
X82897501Y-59422275D03*
D11*
X85437501Y-59422275D03*
%TD*%
D10*
%TO.C,D3*%
X59437501Y-92525912D03*
D11*
X61977501Y-92525912D03*
%TD*%
D12*
%TO.C,U1*%
X13917501Y-66609775D03*
X13917501Y-64209775D03*
X13917501Y-61809775D03*
X20167501Y-66609775D03*
X20167501Y-64209775D03*
X20167501Y-61809775D03*
%TD*%
%TO.C,U1*%
X13917501Y-19602501D03*
X13917501Y-17202501D03*
X13917501Y-14802501D03*
X20167501Y-19602501D03*
X20167501Y-17202501D03*
X20167501Y-14802501D03*
%TD*%
D10*
%TO.C,D4*%
X66422501Y-68997275D03*
D11*
X68962501Y-68997275D03*
%TD*%
D10*
%TO.C,D3*%
X59437501Y-22015001D03*
D11*
X61977501Y-22015001D03*
%TD*%
D10*
%TO.C,D1*%
X42987501Y-82925912D03*
D11*
X45527501Y-82925912D03*
%TD*%
D12*
%TO.C,U1*%
X13917501Y-90113412D03*
X13917501Y-87713412D03*
X13917501Y-85313412D03*
X20167501Y-90113412D03*
X20167501Y-87713412D03*
X20167501Y-85313412D03*
%TD*%
D10*
%TO.C,D4*%
X19502501Y-92500912D03*
D11*
X22042501Y-92500912D03*
%TD*%
D10*
%TO.C,D4*%
X89882501Y-68997275D03*
D11*
X92422501Y-68997275D03*
%TD*%
D10*
%TO.C,D1*%
X89907501Y-35918638D03*
D11*
X92447501Y-35918638D03*
%TD*%
D10*
%TO.C,D3*%
X12517501Y-92525912D03*
D11*
X15057501Y-92525912D03*
%TD*%
D10*
%TO.C,D1*%
X66447501Y-35918638D03*
D11*
X68987501Y-35918638D03*
%TD*%
D10*
%TO.C,D1*%
X66447501Y-59422275D03*
D11*
X68987501Y-59422275D03*
%TD*%
D10*
%TO.C,D1*%
X66447501Y-82925912D03*
D11*
X68987501Y-82925912D03*
%TD*%
D10*
%TO.C,D3*%
X35977501Y-45518638D03*
D11*
X38517501Y-45518638D03*
%TD*%
D10*
%TO.C,D2*%
X12517501Y-82925912D03*
D11*
X15057501Y-82925912D03*
%TD*%
D10*
%TO.C,D3*%
X82897501Y-92525912D03*
D11*
X85437501Y-92525912D03*
%TD*%
D10*
%TO.C,D4*%
X19502501Y-45493638D03*
D11*
X22042501Y-45493638D03*
%TD*%
D12*
%TO.C,U1*%
X37377501Y-19602501D03*
X37377501Y-17202501D03*
X37377501Y-14802501D03*
X43627501Y-19602501D03*
X43627501Y-17202501D03*
X43627501Y-14802501D03*
%TD*%
%TO.C,U1*%
X60837501Y-66609775D03*
X60837501Y-64209775D03*
X60837501Y-61809775D03*
X67087501Y-66609775D03*
X67087501Y-64209775D03*
X67087501Y-61809775D03*
%TD*%
D10*
%TO.C,D2*%
X59437501Y-59422275D03*
D11*
X61977501Y-59422275D03*
%TD*%
D12*
%TO.C,U1*%
X13917501Y-43106138D03*
X13917501Y-40706138D03*
X13917501Y-38306138D03*
X20167501Y-43106138D03*
X20167501Y-40706138D03*
X20167501Y-38306138D03*
%TD*%
D10*
%TO.C,D3*%
X12517501Y-69022275D03*
D11*
X15057501Y-69022275D03*
%TD*%
D10*
%TO.C,D3*%
X35977501Y-69022275D03*
D11*
X38517501Y-69022275D03*
%TD*%
D10*
%TO.C,D2*%
X12517501Y-12415001D03*
D11*
X15057501Y-12415001D03*
%TD*%
D10*
%TO.C,D4*%
X89882501Y-21990001D03*
D11*
X92422501Y-21990001D03*
%TD*%
D12*
%TO.C,U1*%
X60837501Y-43106138D03*
X60837501Y-40706138D03*
X60837501Y-38306138D03*
X67087501Y-43106138D03*
X67087501Y-40706138D03*
X67087501Y-38306138D03*
%TD*%
D10*
%TO.C,D3*%
X82897501Y-45518638D03*
D11*
X85437501Y-45518638D03*
%TD*%
D10*
%TO.C,D2*%
X35977501Y-82925912D03*
D11*
X38517501Y-82925912D03*
%TD*%
D12*
%TO.C,U1*%
X60837501Y-90113412D03*
X60837501Y-87713412D03*
X60837501Y-85313412D03*
X67087501Y-90113412D03*
X67087501Y-87713412D03*
X67087501Y-85313412D03*
%TD*%
%TO.C,U1*%
X37377501Y-90113412D03*
X37377501Y-87713412D03*
X37377501Y-85313412D03*
X43627501Y-90113412D03*
X43627501Y-87713412D03*
X43627501Y-85313412D03*
%TD*%
D10*
%TO.C,D3*%
X59437501Y-45518638D03*
D11*
X61977501Y-45518638D03*
%TD*%
D10*
%TO.C,D2*%
X35977501Y-12415001D03*
D11*
X38517501Y-12415001D03*
%TD*%
D10*
%TO.C,D4*%
X42962501Y-92500912D03*
D11*
X45502501Y-92500912D03*
%TD*%
D10*
%TO.C,D4*%
X66422501Y-45493638D03*
D11*
X68962501Y-45493638D03*
%TD*%
D10*
%TO.C,D2*%
X35977501Y-35918638D03*
D11*
X38517501Y-35918638D03*
%TD*%
D10*
%TO.C,D4*%
X42962501Y-21990001D03*
D11*
X45502501Y-21990001D03*
%TD*%
D10*
%TO.C,D1*%
X89907501Y-59422275D03*
D11*
X92447501Y-59422275D03*
%TD*%
D10*
%TO.C,D1*%
X19527501Y-59422275D03*
D11*
X22067501Y-59422275D03*
%TD*%
D10*
%TO.C,D3*%
X59437501Y-69022275D03*
D11*
X61977501Y-69022275D03*
%TD*%
D10*
%TO.C,D1*%
X19527501Y-82925912D03*
D11*
X22067501Y-82925912D03*
%TD*%
D10*
%TO.C,D2*%
X82897501Y-12415001D03*
D11*
X85437501Y-12415001D03*
%TD*%
D12*
%TO.C,U1*%
X37377501Y-66609775D03*
X37377501Y-64209775D03*
X37377501Y-61809775D03*
X43627501Y-66609775D03*
X43627501Y-64209775D03*
X43627501Y-61809775D03*
%TD*%
D10*
%TO.C,D1*%
X89907501Y-12415001D03*
D11*
X92447501Y-12415001D03*
%TD*%
D10*
%TO.C,D1*%
X42987501Y-12415001D03*
D11*
X45527501Y-12415001D03*
%TD*%
D10*
%TO.C,D1*%
X66447501Y-12415001D03*
D11*
X68987501Y-12415001D03*
%TD*%
D13*
%TO.C,J2*%
X48430000Y-11530000D03*
D14*
X48430000Y-14070000D03*
X48430000Y-16610000D03*
X48430000Y-19150000D03*
%TD*%
D13*
%TO.C,J1*%
X79760000Y-65497274D03*
D14*
X79760000Y-62957274D03*
%TD*%
D13*
%TO.C,J1*%
X56300000Y-41993637D03*
D14*
X56300000Y-39453637D03*
%TD*%
D13*
%TO.C,J1*%
X79760000Y-41993637D03*
D14*
X79760000Y-39453637D03*
%TD*%
D13*
%TO.C,J2*%
X71890000Y-58537274D03*
D14*
X71890000Y-61077274D03*
X71890000Y-63617274D03*
X71890000Y-66157274D03*
%TD*%
D13*
%TO.C,J2*%
X48430000Y-58537274D03*
D14*
X48430000Y-61077274D03*
X48430000Y-63617274D03*
X48430000Y-66157274D03*
%TD*%
D13*
%TO.C,J2*%
X95350000Y-35033637D03*
D14*
X95350000Y-37573637D03*
X95350000Y-40113637D03*
X95350000Y-42653637D03*
%TD*%
D13*
%TO.C,J2*%
X48430000Y-35033637D03*
D14*
X48430000Y-37573637D03*
X48430000Y-40113637D03*
X48430000Y-42653637D03*
%TD*%
D13*
%TO.C,J1*%
X56300000Y-18490000D03*
D14*
X56300000Y-15950000D03*
%TD*%
D13*
%TO.C,J1*%
X32840000Y-89000911D03*
D14*
X32840000Y-86460911D03*
%TD*%
D13*
%TO.C,J1*%
X9380000Y-41993637D03*
D14*
X9380000Y-39453637D03*
%TD*%
D13*
%TO.C,J1*%
X9380000Y-65497274D03*
D14*
X9380000Y-62957274D03*
%TD*%
D13*
%TO.C,J2*%
X71890000Y-35033637D03*
D14*
X71890000Y-37573637D03*
X71890000Y-40113637D03*
X71890000Y-42653637D03*
%TD*%
D13*
%TO.C,J2*%
X71890000Y-82040911D03*
D14*
X71890000Y-84580911D03*
X71890000Y-87120911D03*
X71890000Y-89660911D03*
%TD*%
D13*
%TO.C,J1*%
X32840000Y-18490000D03*
D14*
X32840000Y-15950000D03*
%TD*%
D13*
%TO.C,J1*%
X79760000Y-89000911D03*
D14*
X79760000Y-86460911D03*
%TD*%
D13*
%TO.C,J1*%
X32840000Y-41993637D03*
D14*
X32840000Y-39453637D03*
%TD*%
D13*
%TO.C,J1*%
X9380000Y-18490000D03*
D14*
X9380000Y-15950000D03*
%TD*%
D13*
%TO.C,J1*%
X79760000Y-18490000D03*
D14*
X79760000Y-15950000D03*
%TD*%
D13*
%TO.C,J2*%
X48430000Y-82040911D03*
D14*
X48430000Y-84580911D03*
X48430000Y-87120911D03*
X48430000Y-89660911D03*
%TD*%
D13*
%TO.C,J2*%
X95350000Y-11530000D03*
D14*
X95350000Y-14070000D03*
X95350000Y-16610000D03*
X95350000Y-19150000D03*
%TD*%
D13*
%TO.C,J2*%
X24970000Y-11530000D03*
D14*
X24970000Y-14070000D03*
X24970000Y-16610000D03*
X24970000Y-19150000D03*
%TD*%
D13*
%TO.C,J1*%
X56300000Y-65497274D03*
D14*
X56300000Y-62957274D03*
%TD*%
D13*
%TO.C,J1*%
X32840000Y-65497274D03*
D14*
X32840000Y-62957274D03*
%TD*%
D13*
%TO.C,J2*%
X24970000Y-35033637D03*
D14*
X24970000Y-37573637D03*
X24970000Y-40113637D03*
X24970000Y-42653637D03*
%TD*%
D13*
%TO.C,J2*%
X24970000Y-58537274D03*
D14*
X24970000Y-61077274D03*
X24970000Y-63617274D03*
X24970000Y-66157274D03*
%TD*%
D13*
%TO.C,J2*%
X24970000Y-82040911D03*
D14*
X24970000Y-84580911D03*
X24970000Y-87120911D03*
X24970000Y-89660911D03*
%TD*%
D13*
%TO.C,J1*%
X9380000Y-89000911D03*
D14*
X9380000Y-86460911D03*
%TD*%
D13*
%TO.C,J2*%
X71890000Y-11530000D03*
D14*
X71890000Y-14070000D03*
X71890000Y-16610000D03*
X71890000Y-19150000D03*
%TD*%
D13*
%TO.C,J1*%
X56300000Y-89000911D03*
D14*
X56300000Y-86460911D03*
%TD*%
D13*
%TO.C,J2*%
X95350000Y-58537274D03*
D14*
X95350000Y-61077274D03*
X95350000Y-63617274D03*
X95350000Y-66157274D03*
%TD*%
D13*
%TO.C,J2*%
X95350000Y-82040911D03*
D14*
X95350000Y-84580911D03*
X95350000Y-87120911D03*
X95350000Y-89660911D03*
%TD*%
M02*
