%TF.GenerationSoftware,KiCad,Pcbnew,9.0.2*%
%TF.CreationDate,2025-08-26T18:02:08+02:00*%
%TF.ProjectId,KorryPanelsV2,4b6f7272-7950-4616-9e65-6c7356322e6b,rev?*%
%TF.SameCoordinates,Original*%
%TF.FileFunction,Soldermask,Bot*%
%TF.FilePolarity,Negative*%
%FSLAX46Y46*%
G04 Gerber Fmt 4.6, Leading zero omitted, Abs format (unit mm)*
G04 Created by KiCad (PCBNEW 9.0.2) date 2025-08-26 18:02:08*
%MOMM*%
%LPD*%
G01*
G04 APERTURE LIST*
G04 Aperture macros list*
%AMRoundRect*
0 Rectangle with rounded corners*
0 $1 Rounding radius*
0 $2 $3 $4 $5 $6 $7 $8 $9 X,Y pos of 4 corners*
0 Add a 4 corners polygon primitive as box body*
4,1,4,$2,$3,$4,$5,$6,$7,$8,$9,$2,$3,0*
0 Add four circle primitives for the rounded corners*
1,1,$1+$1,$2,$3*
1,1,$1+$1,$4,$5*
1,1,$1+$1,$6,$7*
1,1,$1+$1,$8,$9*
0 Add four rect primitives between the rounded corners*
20,1,$1+$1,$2,$3,$4,$5,0*
20,1,$1+$1,$4,$5,$6,$7,0*
20,1,$1+$1,$6,$7,$8,$9,0*
20,1,$1+$1,$8,$9,$2,$3,0*%
G04 Aperture macros list end*
%ADD10RoundRect,0.250000X-0.400000X-1.075000X0.400000X-1.075000X0.400000X1.075000X-0.400000X1.075000X0*%
%ADD11R,1.700000X1.700000*%
%ADD12C,1.700000*%
%ADD13R,1.800000X1.800000*%
%ADD14C,1.800000*%
%ADD15C,2.100000*%
G04 APERTURE END LIST*
D10*
%TO.C,R3*%
X62759000Y-23937000D03*
X65859000Y-23937000D03*
%TD*%
%TO.C,R3*%
X36299000Y-103447911D03*
X39399000Y-103447911D03*
%TD*%
D11*
%TO.C,J1*%
X87760000Y-97000911D03*
D12*
X87760000Y-94460911D03*
%TD*%
D11*
%TO.C,J1*%
X61300000Y-97000911D03*
D12*
X61300000Y-94460911D03*
%TD*%
D10*
%TO.C,R1*%
X62886000Y-61704274D03*
X65986000Y-61704274D03*
%TD*%
%TO.C,R2*%
X72157000Y-61697275D03*
X75257000Y-61697275D03*
%TD*%
%TO.C,R3*%
X89219000Y-23937000D03*
X92319000Y-23937000D03*
%TD*%
D11*
%TO.C,J1*%
X61300000Y-17490000D03*
D12*
X61300000Y-14950000D03*
%TD*%
D10*
%TO.C,R2*%
X45697000Y-61697275D03*
X48797000Y-61697275D03*
%TD*%
D11*
%TO.C,J2*%
X76950000Y-11790000D03*
D12*
X76950000Y-14330000D03*
X76950000Y-16870000D03*
X76950000Y-19410000D03*
%TD*%
D10*
%TO.C,R4*%
X99379000Y-76944274D03*
X102479000Y-76944274D03*
%TD*%
%TO.C,R3*%
X62759000Y-103447911D03*
X65859000Y-103447911D03*
%TD*%
%TO.C,R1*%
X89346000Y-35200637D03*
X92446000Y-35200637D03*
%TD*%
%TO.C,R2*%
X98617000Y-35193638D03*
X101717000Y-35193638D03*
%TD*%
%TO.C,R2*%
X45697000Y-88200912D03*
X48797000Y-88200912D03*
%TD*%
D11*
%TO.C,J1*%
X8380000Y-43993637D03*
D12*
X8380000Y-41453637D03*
%TD*%
D10*
%TO.C,R2*%
X45697000Y-8690001D03*
X48797000Y-8690001D03*
%TD*%
D11*
%TO.C,J1*%
X61300000Y-70497274D03*
D12*
X61300000Y-67957274D03*
%TD*%
D10*
%TO.C,R4*%
X19999000Y-103447911D03*
X23099000Y-103447911D03*
%TD*%
%TO.C,R4*%
X19999000Y-23937000D03*
X23099000Y-23937000D03*
%TD*%
D11*
%TO.C,J1*%
X8380000Y-97000911D03*
D12*
X8380000Y-94460911D03*
%TD*%
D11*
%TO.C,J1*%
X87760000Y-17490000D03*
D12*
X87760000Y-14950000D03*
%TD*%
D10*
%TO.C,R2*%
X72157000Y-8690001D03*
X75257000Y-8690001D03*
%TD*%
%TO.C,R2*%
X19237000Y-61697275D03*
X22337000Y-61697275D03*
%TD*%
%TO.C,R2*%
X98617000Y-88200912D03*
X101717000Y-88200912D03*
%TD*%
%TO.C,R2*%
X19237000Y-8690001D03*
X22337000Y-8690001D03*
%TD*%
D11*
%TO.C,J2*%
X76950000Y-64797274D03*
D12*
X76950000Y-67337274D03*
X76950000Y-69877274D03*
X76950000Y-72417274D03*
%TD*%
D10*
%TO.C,R1*%
X89346000Y-61704274D03*
X92446000Y-61704274D03*
%TD*%
%TO.C,R4*%
X46459000Y-23937000D03*
X49559000Y-23937000D03*
%TD*%
D11*
%TO.C,J2*%
X24030000Y-38293637D03*
D12*
X24030000Y-40833637D03*
X24030000Y-43373637D03*
X24030000Y-45913637D03*
%TD*%
D11*
%TO.C,J1*%
X34840000Y-17490000D03*
D12*
X34840000Y-14950000D03*
%TD*%
D11*
%TO.C,J2*%
X103410000Y-64797274D03*
D12*
X103410000Y-67337274D03*
X103410000Y-69877274D03*
X103410000Y-72417274D03*
%TD*%
D10*
%TO.C,R1*%
X62886000Y-8697000D03*
X65986000Y-8697000D03*
%TD*%
D11*
%TO.C,J1*%
X61300000Y-43993637D03*
D12*
X61300000Y-41453637D03*
%TD*%
D11*
%TO.C,J2*%
X103410000Y-11790000D03*
D12*
X103410000Y-14330000D03*
X103410000Y-16870000D03*
X103410000Y-19410000D03*
%TD*%
D10*
%TO.C,R3*%
X36299000Y-50440637D03*
X39399000Y-50440637D03*
%TD*%
%TO.C,R4*%
X46459000Y-103447911D03*
X49559000Y-103447911D03*
%TD*%
%TO.C,R1*%
X36426000Y-61704274D03*
X39526000Y-61704274D03*
%TD*%
D11*
%TO.C,J1*%
X87760000Y-43993637D03*
D12*
X87760000Y-41453637D03*
%TD*%
D10*
%TO.C,R1*%
X36426000Y-88207911D03*
X39526000Y-88207911D03*
%TD*%
%TO.C,R4*%
X72919000Y-103447911D03*
X76019000Y-103447911D03*
%TD*%
D11*
%TO.C,J2*%
X50490000Y-64797274D03*
D12*
X50490000Y-67337274D03*
X50490000Y-69877274D03*
X50490000Y-72417274D03*
%TD*%
D10*
%TO.C,R3*%
X9839000Y-23937000D03*
X12939000Y-23937000D03*
%TD*%
%TO.C,R4*%
X99379000Y-23937000D03*
X102479000Y-23937000D03*
%TD*%
D11*
%TO.C,J2*%
X50490000Y-91300911D03*
D12*
X50490000Y-93840911D03*
X50490000Y-96380911D03*
X50490000Y-98920911D03*
%TD*%
D11*
%TO.C,J2*%
X76950000Y-91300911D03*
D12*
X76950000Y-93840911D03*
X76950000Y-96380911D03*
X76950000Y-98920911D03*
%TD*%
D10*
%TO.C,R4*%
X46459000Y-50440637D03*
X49559000Y-50440637D03*
%TD*%
D11*
%TO.C,J2*%
X24030000Y-64797274D03*
D12*
X24030000Y-67337274D03*
X24030000Y-69877274D03*
X24030000Y-72417274D03*
%TD*%
D10*
%TO.C,R2*%
X19237000Y-35193638D03*
X22337000Y-35193638D03*
%TD*%
%TO.C,R1*%
X36426000Y-8697000D03*
X39526000Y-8697000D03*
%TD*%
%TO.C,R1*%
X9966000Y-8697000D03*
X13066000Y-8697000D03*
%TD*%
D11*
%TO.C,J2*%
X103410000Y-38293637D03*
D12*
X103410000Y-40833637D03*
X103410000Y-43373637D03*
X103410000Y-45913637D03*
%TD*%
D11*
%TO.C,J1*%
X8380000Y-17490000D03*
D12*
X8380000Y-14950000D03*
%TD*%
D10*
%TO.C,R2*%
X45697000Y-35193638D03*
X48797000Y-35193638D03*
%TD*%
%TO.C,R3*%
X89219000Y-50440637D03*
X92319000Y-50440637D03*
%TD*%
%TO.C,R4*%
X72919000Y-23937000D03*
X76019000Y-23937000D03*
%TD*%
%TO.C,R3*%
X62759000Y-76944274D03*
X65859000Y-76944274D03*
%TD*%
D11*
%TO.C,J2*%
X24030000Y-11790000D03*
D12*
X24030000Y-14330000D03*
X24030000Y-16870000D03*
X24030000Y-19410000D03*
%TD*%
D11*
%TO.C,J1*%
X8380000Y-70497274D03*
D12*
X8380000Y-67957274D03*
%TD*%
D10*
%TO.C,R3*%
X89219000Y-103447911D03*
X92319000Y-103447911D03*
%TD*%
%TO.C,R2*%
X72157000Y-35193638D03*
X75257000Y-35193638D03*
%TD*%
%TO.C,R3*%
X62759000Y-50440637D03*
X65859000Y-50440637D03*
%TD*%
%TO.C,R1*%
X9966000Y-35200637D03*
X13066000Y-35200637D03*
%TD*%
%TO.C,R3*%
X9839000Y-50440637D03*
X12939000Y-50440637D03*
%TD*%
%TO.C,R4*%
X72919000Y-50440637D03*
X76019000Y-50440637D03*
%TD*%
D11*
%TO.C,J1*%
X34840000Y-70497274D03*
D12*
X34840000Y-67957274D03*
%TD*%
D10*
%TO.C,R2*%
X98617000Y-8690001D03*
X101717000Y-8690001D03*
%TD*%
%TO.C,R4*%
X99379000Y-103447911D03*
X102479000Y-103447911D03*
%TD*%
%TO.C,R1*%
X62886000Y-35200637D03*
X65986000Y-35200637D03*
%TD*%
%TO.C,R2*%
X72157000Y-88200912D03*
X75257000Y-88200912D03*
%TD*%
%TO.C,R4*%
X46459000Y-76944274D03*
X49559000Y-76944274D03*
%TD*%
D11*
%TO.C,J2*%
X50490000Y-38293637D03*
D12*
X50490000Y-40833637D03*
X50490000Y-43373637D03*
X50490000Y-45913637D03*
%TD*%
D10*
%TO.C,R3*%
X89219000Y-76944274D03*
X92319000Y-76944274D03*
%TD*%
D11*
%TO.C,J2*%
X24030000Y-91300911D03*
D12*
X24030000Y-93840911D03*
X24030000Y-96380911D03*
X24030000Y-98920911D03*
%TD*%
D10*
%TO.C,R1*%
X89346000Y-8697000D03*
X92446000Y-8697000D03*
%TD*%
D11*
%TO.C,J2*%
X76950000Y-38293637D03*
D12*
X76950000Y-40833637D03*
X76950000Y-43373637D03*
X76950000Y-45913637D03*
%TD*%
D11*
%TO.C,J1*%
X87760000Y-70497274D03*
D12*
X87760000Y-67957274D03*
%TD*%
D10*
%TO.C,R3*%
X36299000Y-23937000D03*
X39399000Y-23937000D03*
%TD*%
%TO.C,R1*%
X9966000Y-61704274D03*
X13066000Y-61704274D03*
%TD*%
D11*
%TO.C,J2*%
X103410000Y-91300911D03*
D12*
X103410000Y-93840911D03*
X103410000Y-96380911D03*
X103410000Y-98920911D03*
%TD*%
D10*
%TO.C,R1*%
X62886000Y-88207911D03*
X65986000Y-88207911D03*
%TD*%
%TO.C,R2*%
X98617000Y-61697275D03*
X101717000Y-61697275D03*
%TD*%
D11*
%TO.C,J1*%
X34840000Y-97000911D03*
D12*
X34840000Y-94460911D03*
%TD*%
D10*
%TO.C,R4*%
X99379000Y-50440637D03*
X102479000Y-50440637D03*
%TD*%
D11*
%TO.C,J1*%
X34840000Y-43993637D03*
D12*
X34840000Y-41453637D03*
%TD*%
D11*
%TO.C,J2*%
X50490000Y-11790000D03*
D12*
X50490000Y-14330000D03*
X50490000Y-16870000D03*
X50490000Y-19410000D03*
%TD*%
D10*
%TO.C,R1*%
X9966000Y-88207911D03*
X13066000Y-88207911D03*
%TD*%
%TO.C,R1*%
X36426000Y-35200637D03*
X39526000Y-35200637D03*
%TD*%
%TO.C,R2*%
X19237000Y-88200912D03*
X22337000Y-88200912D03*
%TD*%
%TO.C,R4*%
X19999000Y-50440637D03*
X23099000Y-50440637D03*
%TD*%
%TO.C,R3*%
X9839000Y-103447911D03*
X12939000Y-103447911D03*
%TD*%
%TO.C,R4*%
X19999000Y-76944274D03*
X23099000Y-76944274D03*
%TD*%
%TO.C,R4*%
X72919000Y-76944274D03*
X76019000Y-76944274D03*
%TD*%
%TO.C,R1*%
X89346000Y-88207911D03*
X92446000Y-88207911D03*
%TD*%
%TO.C,R3*%
X36299000Y-76944274D03*
X39399000Y-76944274D03*
%TD*%
%TO.C,R3*%
X9839000Y-76944274D03*
X12939000Y-76944274D03*
%TD*%
D13*
%TO.C,D3*%
X90897501Y-74022275D03*
D14*
X93437501Y-74022275D03*
%TD*%
D15*
%TO.C,U1*%
X65837501Y-45106138D03*
X65837501Y-42706138D03*
X65837501Y-40306138D03*
X72087501Y-45106138D03*
X72087501Y-42706138D03*
X72087501Y-40306138D03*
%TD*%
D13*
%TO.C,D2*%
X64437501Y-64422275D03*
D14*
X66977501Y-64422275D03*
%TD*%
D13*
%TO.C,D3*%
X37977501Y-100525912D03*
D14*
X40517501Y-100525912D03*
%TD*%
D13*
%TO.C,D1*%
X44987501Y-37918638D03*
D14*
X47527501Y-37918638D03*
%TD*%
D13*
%TO.C,D2*%
X90897501Y-37918638D03*
D14*
X93437501Y-37918638D03*
%TD*%
D13*
%TO.C,D3*%
X11517501Y-74022275D03*
D14*
X14057501Y-74022275D03*
%TD*%
D13*
%TO.C,D3*%
X37977501Y-21015001D03*
D14*
X40517501Y-21015001D03*
%TD*%
D13*
%TO.C,D3*%
X11517501Y-100525912D03*
D14*
X14057501Y-100525912D03*
%TD*%
D15*
%TO.C,U1*%
X12917501Y-18602501D03*
X12917501Y-16202501D03*
X12917501Y-13802501D03*
X19167501Y-18602501D03*
X19167501Y-16202501D03*
X19167501Y-13802501D03*
%TD*%
D13*
%TO.C,D2*%
X37977501Y-37918638D03*
D14*
X40517501Y-37918638D03*
%TD*%
D13*
%TO.C,D4*%
X71422501Y-47493638D03*
D14*
X73962501Y-47493638D03*
%TD*%
D15*
%TO.C,U1*%
X65837501Y-18602501D03*
X65837501Y-16202501D03*
X65837501Y-13802501D03*
X72087501Y-18602501D03*
X72087501Y-16202501D03*
X72087501Y-13802501D03*
%TD*%
D13*
%TO.C,D1*%
X97907501Y-11415001D03*
D14*
X100447501Y-11415001D03*
%TD*%
D13*
%TO.C,D2*%
X90897501Y-90925912D03*
D14*
X93437501Y-90925912D03*
%TD*%
D13*
%TO.C,D2*%
X90897501Y-64422275D03*
D14*
X93437501Y-64422275D03*
%TD*%
D13*
%TO.C,D1*%
X44987501Y-90925912D03*
D14*
X47527501Y-90925912D03*
%TD*%
D13*
%TO.C,D4*%
X44962501Y-73997275D03*
D14*
X47502501Y-73997275D03*
%TD*%
D13*
%TO.C,D3*%
X64437501Y-74022275D03*
D14*
X66977501Y-74022275D03*
%TD*%
D13*
%TO.C,D4*%
X97882501Y-47493638D03*
D14*
X100422501Y-47493638D03*
%TD*%
D13*
%TO.C,D4*%
X18502501Y-73997275D03*
D14*
X21042501Y-73997275D03*
%TD*%
D13*
%TO.C,D4*%
X18502501Y-100500912D03*
D14*
X21042501Y-100500912D03*
%TD*%
D13*
%TO.C,D2*%
X90897501Y-11415001D03*
D14*
X93437501Y-11415001D03*
%TD*%
D13*
%TO.C,D2*%
X11517501Y-11415001D03*
D14*
X14057501Y-11415001D03*
%TD*%
D13*
%TO.C,D1*%
X18527501Y-64422275D03*
D14*
X21067501Y-64422275D03*
%TD*%
D15*
%TO.C,U1*%
X92297501Y-18602501D03*
X92297501Y-16202501D03*
X92297501Y-13802501D03*
X98547501Y-18602501D03*
X98547501Y-16202501D03*
X98547501Y-13802501D03*
%TD*%
D13*
%TO.C,D4*%
X71422501Y-100500912D03*
D14*
X73962501Y-100500912D03*
%TD*%
D13*
%TO.C,D3*%
X64437501Y-47518638D03*
D14*
X66977501Y-47518638D03*
%TD*%
D13*
%TO.C,D4*%
X18502501Y-47493638D03*
D14*
X21042501Y-47493638D03*
%TD*%
D13*
%TO.C,D1*%
X44987501Y-64422275D03*
D14*
X47527501Y-64422275D03*
%TD*%
D13*
%TO.C,D3*%
X37977501Y-74022275D03*
D14*
X40517501Y-74022275D03*
%TD*%
D13*
%TO.C,D4*%
X18502501Y-20990001D03*
D14*
X21042501Y-20990001D03*
%TD*%
D15*
%TO.C,U1*%
X65837501Y-98113412D03*
X65837501Y-95713412D03*
X65837501Y-93313412D03*
X72087501Y-98113412D03*
X72087501Y-95713412D03*
X72087501Y-93313412D03*
%TD*%
D13*
%TO.C,D2*%
X11517501Y-90925912D03*
D14*
X14057501Y-90925912D03*
%TD*%
D13*
%TO.C,D1*%
X71447501Y-90925912D03*
D14*
X73987501Y-90925912D03*
%TD*%
D13*
%TO.C,D1*%
X71447501Y-64422275D03*
D14*
X73987501Y-64422275D03*
%TD*%
D13*
%TO.C,D1*%
X71447501Y-37918638D03*
D14*
X73987501Y-37918638D03*
%TD*%
D13*
%TO.C,D1*%
X97907501Y-37918638D03*
D14*
X100447501Y-37918638D03*
%TD*%
D13*
%TO.C,D3*%
X11517501Y-47518638D03*
D14*
X14057501Y-47518638D03*
%TD*%
D13*
%TO.C,D2*%
X11517501Y-37918638D03*
D14*
X14057501Y-37918638D03*
%TD*%
D13*
%TO.C,D2*%
X37977501Y-11415001D03*
D14*
X40517501Y-11415001D03*
%TD*%
D15*
%TO.C,U1*%
X12917501Y-45106138D03*
X12917501Y-42706138D03*
X12917501Y-40306138D03*
X19167501Y-45106138D03*
X19167501Y-42706138D03*
X19167501Y-40306138D03*
%TD*%
D13*
%TO.C,D3*%
X90897501Y-47518638D03*
D14*
X93437501Y-47518638D03*
%TD*%
D15*
%TO.C,U1*%
X65837501Y-71609775D03*
X65837501Y-69209775D03*
X65837501Y-66809775D03*
X72087501Y-71609775D03*
X72087501Y-69209775D03*
X72087501Y-66809775D03*
%TD*%
D13*
%TO.C,D4*%
X71422501Y-20990001D03*
D14*
X73962501Y-20990001D03*
%TD*%
D13*
%TO.C,D2*%
X11517501Y-64422275D03*
D14*
X14057501Y-64422275D03*
%TD*%
D13*
%TO.C,D4*%
X97882501Y-100500912D03*
D14*
X100422501Y-100500912D03*
%TD*%
D15*
%TO.C,U1*%
X12917501Y-71609775D03*
X12917501Y-69209775D03*
X12917501Y-66809775D03*
X19167501Y-71609775D03*
X19167501Y-69209775D03*
X19167501Y-66809775D03*
%TD*%
D13*
%TO.C,D2*%
X37977501Y-90925912D03*
D14*
X40517501Y-90925912D03*
%TD*%
D13*
%TO.C,D3*%
X64437501Y-21015001D03*
D14*
X66977501Y-21015001D03*
%TD*%
D13*
%TO.C,D1*%
X44987501Y-11415001D03*
D14*
X47527501Y-11415001D03*
%TD*%
D13*
%TO.C,D2*%
X64437501Y-11415001D03*
D14*
X66977501Y-11415001D03*
%TD*%
D13*
%TO.C,D1*%
X71447501Y-11415001D03*
D14*
X73987501Y-11415001D03*
%TD*%
D13*
%TO.C,D1*%
X97907501Y-90925912D03*
D14*
X100447501Y-90925912D03*
%TD*%
D13*
%TO.C,D4*%
X44962501Y-100500912D03*
D14*
X47502501Y-100500912D03*
%TD*%
D15*
%TO.C,U1*%
X92297501Y-98113412D03*
X92297501Y-95713412D03*
X92297501Y-93313412D03*
X98547501Y-98113412D03*
X98547501Y-95713412D03*
X98547501Y-93313412D03*
%TD*%
D13*
%TO.C,D4*%
X97882501Y-73997275D03*
D14*
X100422501Y-73997275D03*
%TD*%
D15*
%TO.C,U1*%
X12917501Y-98113412D03*
X12917501Y-95713412D03*
X12917501Y-93313412D03*
X19167501Y-98113412D03*
X19167501Y-95713412D03*
X19167501Y-93313412D03*
%TD*%
D13*
%TO.C,D3*%
X90897501Y-21015001D03*
D14*
X93437501Y-21015001D03*
%TD*%
D13*
%TO.C,D3*%
X90897501Y-100525912D03*
D14*
X93437501Y-100525912D03*
%TD*%
D13*
%TO.C,D4*%
X44962501Y-20990001D03*
D14*
X47502501Y-20990001D03*
%TD*%
D13*
%TO.C,D1*%
X18527501Y-90925912D03*
D14*
X21067501Y-90925912D03*
%TD*%
D13*
%TO.C,D1*%
X18527501Y-37918638D03*
D14*
X21067501Y-37918638D03*
%TD*%
D15*
%TO.C,U1*%
X92297501Y-71609775D03*
X92297501Y-69209775D03*
X92297501Y-66809775D03*
X98547501Y-71609775D03*
X98547501Y-69209775D03*
X98547501Y-66809775D03*
%TD*%
D13*
%TO.C,D2*%
X64437501Y-37918638D03*
D14*
X66977501Y-37918638D03*
%TD*%
D15*
%TO.C,U1*%
X39377501Y-18602501D03*
X39377501Y-16202501D03*
X39377501Y-13802501D03*
X45627501Y-18602501D03*
X45627501Y-16202501D03*
X45627501Y-13802501D03*
%TD*%
D13*
%TO.C,D2*%
X64437501Y-90925912D03*
D14*
X66977501Y-90925912D03*
%TD*%
D13*
%TO.C,D3*%
X37977501Y-47518638D03*
D14*
X40517501Y-47518638D03*
%TD*%
D15*
%TO.C,U1*%
X92297501Y-45106138D03*
X92297501Y-42706138D03*
X92297501Y-40306138D03*
X98547501Y-45106138D03*
X98547501Y-42706138D03*
X98547501Y-40306138D03*
%TD*%
D13*
%TO.C,D1*%
X97907501Y-64422275D03*
D14*
X100447501Y-64422275D03*
%TD*%
D13*
%TO.C,D4*%
X97882501Y-20990001D03*
D14*
X100422501Y-20990001D03*
%TD*%
D15*
%TO.C,U1*%
X39377501Y-71609775D03*
X39377501Y-69209775D03*
X39377501Y-66809775D03*
X45627501Y-71609775D03*
X45627501Y-69209775D03*
X45627501Y-66809775D03*
%TD*%
D13*
%TO.C,D4*%
X44962501Y-47493638D03*
D14*
X47502501Y-47493638D03*
%TD*%
D13*
%TO.C,D3*%
X64437501Y-100525912D03*
D14*
X66977501Y-100525912D03*
%TD*%
D13*
%TO.C,D2*%
X37977501Y-64422275D03*
D14*
X40517501Y-64422275D03*
%TD*%
D13*
%TO.C,D4*%
X71422501Y-73997275D03*
D14*
X73962501Y-73997275D03*
%TD*%
D15*
%TO.C,U1*%
X39377501Y-45106138D03*
X39377501Y-42706138D03*
X39377501Y-40306138D03*
X45627501Y-45106138D03*
X45627501Y-42706138D03*
X45627501Y-40306138D03*
%TD*%
D13*
%TO.C,D1*%
X18527501Y-11415001D03*
D14*
X21067501Y-11415001D03*
%TD*%
D15*
%TO.C,U1*%
X39377501Y-98113412D03*
X39377501Y-95713412D03*
X39377501Y-93313412D03*
X45627501Y-98113412D03*
X45627501Y-95713412D03*
X45627501Y-93313412D03*
%TD*%
D13*
%TO.C,D3*%
X11517501Y-21015001D03*
D14*
X14057501Y-21015001D03*
%TD*%
M02*
