%TF.GenerationSoftware,KiCad,Pcbnew,9.0.3*%
%TF.CreationDate,2025-08-07T16:58:50+02:00*%
%TF.ProjectId,KorryPanels,4b6f7272-7950-4616-9e65-6c732e6b6963,rev?*%
%TF.SameCoordinates,Original*%
%TF.FileFunction,Profile,NP*%
%FSLAX46Y46*%
G04 Gerber Fmt 4.6, Leading zero omitted, Abs format (unit mm)*
G04 Created by KiCad (PCBNEW 9.0.3) date 2025-08-07 16:58:50*
%MOMM*%
%LPD*%
G01*
G04 APERTURE LIST*
%TA.AperFunction,Profile*%
%ADD10C,0.100000*%
%TD*%
G04 APERTURE END LIST*
D10*
X67699820Y-65476772D02*
X67723312Y-65484802D01*
X67723312Y-20477528D02*
X67771363Y-20489969D01*
X20140179Y-45037775D02*
X20116687Y-45029745D01*
X67402471Y-65163961D02*
X67419710Y-65210508D01*
X42832174Y-67720989D02*
X42801791Y-67681738D01*
X42574769Y-65486901D02*
X42622691Y-65468504D01*
X42917485Y-440427D02*
X42909969Y-391363D01*
X67400030Y-45403237D02*
X67392514Y-45452301D01*
X22900427Y-65504759D02*
X22950000Y-65507274D01*
X20185864Y-87961088D02*
X20230317Y-87935421D01*
X42909969Y-22895000D02*
X42897528Y-22846949D01*
X67380000Y-20010000D02*
X67382514Y-20059572D01*
X65357528Y-343312D02*
X65340289Y-296765D01*
X45321363Y-14630D02*
X45273312Y-27071D01*
X42920000Y-45497274D02*
X42917485Y-45447701D01*
X56650000Y-20502099D02*
X64883228Y-20503636D01*
X22722202Y-67577081D02*
X22680078Y-67603336D01*
X87419944Y-43001232D02*
X87470153Y-42990557D01*
X22470030Y-20108636D02*
X22482471Y-20156687D01*
X22544164Y-22739044D02*
X22520075Y-22782443D01*
X22950000Y-43003637D02*
X31190000Y-43005175D01*
X10030Y-42612273D02*
X22471Y-42660324D01*
X20457307Y-76262729D02*
X20460000Y-68000911D01*
X67524851Y-157006D02*
X67492519Y-194668D01*
X19970000Y0D02*
X500000Y-4600D01*
X401363Y-14630D02*
X353312Y-27071D01*
X87496687Y-67533382D02*
X87448636Y-67520941D01*
X22499710Y-87714145D02*
X22521570Y-87758708D01*
X22462514Y-42563209D02*
X22470030Y-42612273D01*
X44980075Y-67789717D02*
X44960501Y-67835331D01*
X67820427Y-43001122D02*
X67870000Y-43003637D01*
X440427Y-65504759D02*
X490000Y-65507274D01*
X87816920Y-42643790D02*
X87827595Y-42593581D01*
X401363Y-67525541D02*
X353312Y-67537982D01*
X42729931Y-45109793D02*
X42689192Y-45081438D01*
X43919000Y-31255455D02*
X42917307Y-31255455D01*
X11730000Y-45009220D02*
X11730000Y-44008273D01*
X20269931Y-102519D02*
X20229192Y-74164D01*
X42897528Y-45350586D02*
X42880289Y-45304039D01*
X87827595Y-87600855D02*
X87830947Y-87575400D01*
X34190000Y-66509910D02*
X34190000Y-65509373D01*
X22471Y-87667598D02*
X39710Y-87714145D01*
X42645864Y-87961088D02*
X42690317Y-87935421D01*
X65340289Y-22800402D02*
X65318429Y-22755839D01*
X66379000Y-79262729D02*
X66381000Y-79262729D01*
X22851363Y-42993606D02*
X22900427Y-43001122D01*
X22544164Y-235407D02*
X22520075Y-278806D01*
X22464231Y-79262729D02*
X22460000Y-87520911D01*
X22910427Y-22510751D02*
X22861363Y-22518267D01*
X42731845Y-20394338D02*
X42769991Y-20359991D01*
X67570068Y-42901117D02*
X67610807Y-42929472D01*
X44932514Y-445027D02*
X44930000Y-494600D01*
X65320177Y-87746775D02*
X65331230Y-87723602D01*
X67420501Y-45331694D02*
X67412471Y-45355186D01*
X87651845Y-42897975D02*
X87689991Y-42863628D01*
X65292174Y-67720989D02*
X65261791Y-67681738D01*
X42729931Y-102519D02*
X42709921Y-87825D01*
X43919000Y-76262729D02*
X42917307Y-76262729D01*
X42896920Y-65147427D02*
X42907595Y-65097218D01*
X22900427Y-88008396D02*
X22950000Y-88010911D01*
X43921000Y-31255455D02*
X43919000Y-31255455D01*
X67560827Y-67633719D02*
X67524851Y-67667917D01*
X20420289Y-45304039D02*
X20398429Y-45259476D01*
X20307593Y-134851D02*
X20269931Y-102519D01*
X87780177Y-20235864D02*
X87801056Y-20188971D01*
X87830947Y-87575400D02*
X87833636Y-87524139D01*
X20456329Y-11751818D02*
X21459000Y-11751818D01*
X67880000Y-4600D02*
X67830427Y-7114D01*
X20450947Y-42568126D02*
X20453636Y-42516865D01*
X79110000Y-20502099D02*
X87343228Y-20503636D01*
X87721791Y-45178101D02*
X87687593Y-45142125D01*
X44960501Y-67835331D02*
X44952471Y-67858823D01*
X67412471Y-347912D02*
X67400030Y-395963D01*
X87837485Y-22944064D02*
X87829969Y-22895000D01*
X45194206Y-20449924D02*
X45239820Y-20469498D01*
X87543234Y-22543347D02*
X87496687Y-22526108D01*
X65191845Y-42897975D02*
X65229991Y-42863628D01*
X490000Y-20500000D02*
X8730000Y-20501538D01*
X45321363Y-45021904D02*
X45273312Y-45034345D01*
X42916329Y-79262729D02*
X43919000Y-79262729D01*
X31190000Y-43005175D02*
X31190000Y-44006273D01*
X450427Y-45014388D02*
X401363Y-45021904D01*
X42880289Y-67807676D02*
X42858429Y-67763113D01*
X42767593Y-22638488D02*
X42729931Y-22606156D01*
X87343228Y-88014547D02*
X87394489Y-88011858D01*
X45064851Y-22660643D02*
X45032519Y-22698305D01*
X20230317Y-20424510D02*
X20271845Y-20394338D01*
X87470153Y-87997831D02*
X87518971Y-87981967D01*
X67560827Y-22626445D02*
X67524851Y-22660643D01*
X64985188Y-65500189D02*
X65034769Y-65486901D01*
X44925768Y-8751818D02*
X43921000Y-8751818D01*
X45420000Y-67515511D02*
X45370427Y-67518025D01*
X42920000Y-68000911D02*
X42917485Y-67951338D01*
X22680078Y-67603336D02*
X22640827Y-67633719D01*
X22521570Y-20247797D02*
X22547825Y-20289921D01*
X56650000Y-22505583D02*
X56650000Y-21505136D01*
X2514Y-87570483D02*
X10030Y-87619547D01*
X10030Y-65115910D02*
X22471Y-65163961D01*
X45007825Y-65297195D02*
X45038208Y-65336446D01*
X67492519Y-194668D02*
X67464164Y-235407D01*
X42769991Y-65367265D02*
X42804338Y-65329119D01*
X42423228Y-88014547D02*
X42474489Y-88011858D01*
X42528636Y-67520941D02*
X42479572Y-67513425D01*
X67441570Y-42751434D02*
X67467825Y-42793558D01*
X22520075Y-45286080D02*
X22500501Y-45331694D01*
X45239820Y-20469498D02*
X45263312Y-20477528D01*
X87610317Y-65431784D02*
X87651845Y-65401612D01*
X20230317Y-87935421D02*
X20271845Y-87905249D01*
X87827595Y-20089944D02*
X87830947Y-20064489D01*
X20116687Y-22526108D02*
X20068636Y-22513667D01*
X20374510Y-42783954D02*
X20400177Y-42739501D01*
X22471Y-42660324D02*
X39710Y-42706871D01*
X19963228Y-88014547D02*
X20014489Y-88011858D01*
X67699820Y-87980409D02*
X67747180Y-87995268D01*
X22471Y-65163961D02*
X39710Y-65210508D01*
X20450947Y-20064489D02*
X20453636Y-20013228D01*
X44981570Y-42751434D02*
X45007825Y-42793558D01*
X42804338Y-87832756D02*
X42834510Y-87791228D01*
X20185793Y-45057349D02*
X20140179Y-45037775D01*
X76110000Y-22506292D02*
X67880000Y-22508237D01*
X44925768Y-53759092D02*
X43921000Y-53759092D01*
X22612406Y-42868785D02*
X22650068Y-42901117D01*
X65149192Y-22577801D02*
X65105793Y-22553712D01*
X180827Y-22626445D02*
X144851Y-22660643D01*
X42896920Y-20140153D02*
X42907595Y-20089944D01*
X45150807Y-42929472D02*
X45194206Y-42953561D01*
X20372174Y-210078D02*
X20341791Y-170827D01*
X20309991Y-42863628D02*
X20344338Y-42825482D01*
X67870000Y-65507274D02*
X76110000Y-65508812D01*
X22766765Y-22547947D02*
X22722202Y-22569807D01*
X87651845Y-87905249D02*
X87689991Y-87870902D01*
X65036687Y-22471D02*
X64988636Y-10030D01*
X44959710Y-20203234D02*
X44981570Y-20247797D01*
X230807Y-87936746D02*
X274206Y-87960835D01*
X87754510Y-20280317D02*
X87780177Y-20235864D01*
X42598971Y-87981967D02*
X42645864Y-87961088D01*
X43921000Y-56759092D02*
X44924231Y-56759092D01*
X20429627Y-42668406D02*
X20442915Y-42618825D01*
X21461000Y-79262729D02*
X22464231Y-79262729D01*
X20309991Y-20359991D02*
X20344338Y-20321845D01*
X22779820Y-65476772D02*
X22803312Y-65484802D01*
X45263312Y-20477528D02*
X45311363Y-20489969D01*
X65227593Y-45142125D02*
X65189931Y-45109793D01*
X22480030Y-45403237D02*
X22472514Y-45452301D01*
X306765Y-22547947D02*
X262202Y-22569807D01*
X64939572Y-45009788D02*
X64890000Y-45007274D01*
X0Y-20010000D02*
X2514Y-20059572D01*
X20185793Y-67560986D02*
X20140179Y-67541412D01*
X65149192Y-45081438D02*
X65105793Y-45057349D01*
X67467825Y-20289921D02*
X67498208Y-20329172D01*
X45194206Y-65457198D02*
X45239820Y-65476772D01*
X42858429Y-67763113D02*
X42832174Y-67720989D01*
X67492519Y-45201942D02*
X67464164Y-45242681D01*
X22756765Y-20460289D02*
X22803312Y-20477528D01*
X44952471Y-22851549D02*
X44940030Y-22899600D01*
X67600078Y-45099699D02*
X67560827Y-45130082D01*
X87343228Y-43007273D02*
X87394489Y-43004584D01*
X230807Y-42929472D02*
X274206Y-42953561D01*
X87565864Y-87961088D02*
X87610317Y-87935421D01*
X87724338Y-42825482D02*
X87754510Y-42783954D01*
X32471Y-45355186D02*
X20030Y-45403237D01*
X67402471Y-87667598D02*
X67419710Y-87714145D01*
X67771363Y-42993606D02*
X67820427Y-43001122D01*
X118208Y-20329172D02*
X152406Y-20365148D01*
X21461000Y-53759092D02*
X21459000Y-53759092D01*
X66379000Y-53759092D02*
X65377307Y-53759092D01*
X87470153Y-42990557D02*
X87518971Y-42974693D01*
X65105864Y-87961088D02*
X65150317Y-87935421D01*
X42499944Y-88008506D02*
X42550153Y-87997831D01*
X42907595Y-42593581D02*
X42910947Y-42568126D01*
X56650000Y-44008273D02*
X56650000Y-44006273D01*
X20114769Y-20479627D02*
X20162691Y-20461230D01*
X8730000Y-21505136D02*
X8730000Y-22506292D01*
X22547825Y-87800832D02*
X22578208Y-87840083D01*
X61570Y-65255071D02*
X87825Y-65297195D01*
X10000Y-22998237D02*
X0Y-42513637D01*
X22861363Y-22518267D02*
X22813312Y-22530708D01*
X353312Y-22530708D02*
X306765Y-22547947D01*
X42916329Y-56759092D02*
X43919000Y-56759092D01*
X31190000Y-21505136D02*
X31190000Y-22506292D01*
X64934489Y-43004584D02*
X64959944Y-43001232D01*
X64959944Y-43001232D02*
X65010153Y-42990557D01*
X22722202Y-66170D02*
X22680078Y-92425D01*
X87496687Y-45029745D02*
X87448636Y-45017304D01*
X65058971Y-42974693D02*
X65105864Y-42953814D01*
X42804338Y-65329119D02*
X42834510Y-65287591D01*
X65150317Y-65431784D02*
X65191845Y-65401612D01*
X22680078Y-92425D02*
X22640827Y-122808D01*
X87565793Y-22553712D02*
X87543234Y-22543347D01*
X22851363Y-65497243D02*
X22900427Y-65504759D01*
X65373636Y-65020502D02*
X65376329Y-56759092D01*
X42801791Y-22674464D02*
X42767593Y-22638488D01*
X22547825Y-65297195D02*
X22578208Y-65336446D01*
X45321363Y-22518267D02*
X45273312Y-22530708D01*
X353312Y-67537982D02*
X306765Y-67555221D01*
X65264338Y-20321845D02*
X65294510Y-20280317D01*
X44930030Y-87619547D02*
X44942471Y-87667598D01*
X20065188Y-20492915D02*
X20114769Y-20479627D01*
X42690317Y-87935421D02*
X42731845Y-87905249D01*
X87724338Y-87832756D02*
X87754510Y-87791228D01*
X45263312Y-65484802D02*
X45311363Y-65497243D01*
X31190000Y-65508812D02*
X31190000Y-66509910D01*
X306765Y-45051584D02*
X262202Y-45073444D01*
X67440075Y-67789717D02*
X67420501Y-67835331D01*
X67870000Y-43003637D02*
X76110000Y-43005175D01*
X42430000Y0D02*
X22960000Y-4600D01*
X65105864Y-42953814D02*
X65150317Y-42928147D01*
X64890000Y-45007274D02*
X56650000Y-45009220D01*
X87518971Y-42974693D02*
X87565864Y-42953814D01*
X22465768Y-8751818D02*
X21461000Y-8751818D01*
X20457307Y-8751818D02*
X20460000Y-490000D01*
X42645793Y-45057349D02*
X42600179Y-45037775D01*
X22604851Y-67667917D02*
X22572519Y-67705579D01*
X20400177Y-20235864D02*
X20411230Y-20212691D01*
X67570068Y-65404754D02*
X67610807Y-65433109D01*
X20442915Y-42618825D02*
X20450947Y-42568126D01*
X43919000Y-53759092D02*
X42917307Y-53759092D01*
X44920000Y-20010000D02*
X44922514Y-20059572D01*
X67420501Y-67835331D02*
X67412471Y-67858823D01*
X20341791Y-22674464D02*
X20307593Y-22638488D01*
X42917485Y-67951338D02*
X42909969Y-67902274D01*
X21459000Y-31255455D02*
X20457307Y-31255455D01*
X20456329Y-79262729D02*
X21459000Y-79262729D01*
X45064851Y-157006D02*
X45032519Y-194668D01*
X22472514Y-445027D02*
X22470000Y-494600D01*
X87800289Y-67807676D02*
X87778429Y-67763113D01*
X67654206Y-87960835D02*
X67699820Y-87980409D01*
X45100827Y-45130082D02*
X45064851Y-45164280D01*
X20307593Y-22638488D02*
X20269931Y-22606156D01*
X20411230Y-20212691D02*
X20429627Y-20164769D01*
X353312Y-27071D02*
X306765Y-44310D01*
X367180Y-87995268D02*
X415800Y-88005260D01*
X44940030Y-67906874D02*
X44932514Y-67955938D01*
X42896920Y-87651064D02*
X42907595Y-87600855D01*
X22680078Y-22596062D02*
X22640827Y-22626445D01*
X20271845Y-20394338D02*
X20309991Y-20359991D01*
X42907595Y-20089944D02*
X42910947Y-20064489D01*
X20019572Y-45009788D02*
X19970000Y-45007274D01*
X20341791Y-45178101D02*
X20307593Y-45142125D01*
X45287180Y-87995268D02*
X45335800Y-88005260D01*
X32471Y-22851549D02*
X20030Y-22899600D01*
X65376329Y-11751818D02*
X66379000Y-11751818D01*
X87833636Y-87524139D02*
X87840000Y-68000911D01*
X67532406Y-42868785D02*
X67570068Y-42901117D01*
X39710Y-42706871D02*
X61570Y-42751434D01*
X84164Y-22739044D02*
X60075Y-22782443D01*
X56650000Y-45009220D02*
X56650000Y-44008273D01*
X45311363Y-20489969D02*
X45360427Y-20497485D01*
X31190000Y-44006273D02*
X31190000Y-44008273D01*
X45273312Y-27071D02*
X45226765Y-44310D01*
X45038208Y-87840083D02*
X45072406Y-87876059D01*
X60075Y-278806D02*
X49710Y-301365D01*
X144851Y-45164280D02*
X112519Y-45201942D01*
X262202Y-45073444D02*
X220078Y-45099699D01*
X11730000Y-67512857D02*
X11730000Y-66511910D01*
X20116687Y-45029745D02*
X20068636Y-45017304D01*
X87801056Y-65196245D02*
X87816920Y-65147427D01*
X87800289Y-45304039D02*
X87778429Y-45259476D01*
X144851Y-22660643D02*
X112519Y-22698305D01*
X67600078Y-92425D02*
X67560827Y-122808D01*
X42622691Y-65468504D02*
X42645864Y-65457451D01*
X87448636Y-45017304D02*
X87399572Y-45009788D01*
X42858429Y-252202D02*
X42832174Y-210078D01*
X296765Y-42963926D02*
X343312Y-42981165D01*
X20460000Y-22993637D02*
X20457485Y-22944064D01*
X415800Y-88005260D02*
X440427Y-88008396D01*
X22734206Y-42953561D02*
X22756765Y-42963926D01*
X65034769Y-65486901D02*
X65082691Y-65468504D01*
X22910427Y-45014388D02*
X22861363Y-45021904D01*
X42576687Y-22471D02*
X42528636Y-10030D01*
X65369969Y-22895000D02*
X65357528Y-22846949D01*
X10000Y-45501874D02*
X0Y-65017274D01*
X79110000Y-22505583D02*
X79110000Y-21505136D01*
X67467825Y-65297195D02*
X67498208Y-65336446D01*
X42576687Y-45029745D02*
X42528636Y-45017304D01*
X8730000Y-43005175D02*
X8730000Y-44006273D01*
X22470030Y-65115910D02*
X22482471Y-65163961D01*
X56650000Y-65509373D02*
X64883228Y-65510910D01*
X87800289Y-296765D02*
X87778429Y-252202D01*
X20442915Y-20115188D02*
X20450947Y-20064489D01*
X67492519Y-67705579D02*
X67464164Y-67746318D01*
X343312Y-20477528D02*
X391363Y-20489969D01*
X20450947Y-87575400D02*
X20453636Y-87524139D01*
X44930030Y-42612273D02*
X44942471Y-42660324D01*
X67419710Y-87714145D02*
X67441570Y-87758708D01*
X84164Y-235407D02*
X60075Y-278806D01*
X22734206Y-20449924D02*
X22756765Y-20460289D01*
X67382514Y-42563209D02*
X67390030Y-42612273D01*
X20014489Y-43004584D02*
X20065188Y-42996552D01*
X65149192Y-67585075D02*
X65105793Y-67560986D01*
X65340289Y-45304039D02*
X65318429Y-45259476D01*
X67532406Y-65372422D02*
X67570068Y-65404754D01*
X10000Y-68005511D02*
X0Y-87520911D01*
X65060179Y-30501D02*
X65036687Y-22471D01*
X22640827Y-22626445D02*
X22604851Y-22660643D01*
X65380000Y-22993637D02*
X65377485Y-22944064D01*
X21459000Y-11751818D02*
X21461000Y-11751818D01*
X67390030Y-87619547D02*
X67402471Y-87667598D01*
X65264338Y-42825482D02*
X65294510Y-42783954D01*
X44930000Y-22998237D02*
X44925768Y-31255455D01*
X20229192Y-45081438D02*
X20185793Y-45057349D01*
X20398429Y-22755839D02*
X20372174Y-22713715D01*
X66381000Y-8751818D02*
X66379000Y-8751818D01*
X87609192Y-67585075D02*
X87565793Y-67560986D01*
X22578208Y-87840083D02*
X22612406Y-87876059D01*
X31190000Y-45009929D02*
X22960000Y-45011874D01*
X65082691Y-65468504D02*
X65105864Y-65457451D01*
X20116687Y-22471D02*
X20068636Y-10030D01*
X53650000Y-22506292D02*
X45420000Y-22508237D01*
X118208Y-87840083D02*
X152406Y-87876059D01*
X22464231Y-34255455D02*
X22460000Y-42513637D01*
X65227593Y-134851D02*
X65189931Y-102519D01*
X65060179Y-22534138D02*
X65036687Y-22526108D01*
X8730000Y-45009929D02*
X500000Y-45011874D01*
X45110068Y-87908391D02*
X45150807Y-87936746D01*
X65376329Y-79262729D02*
X66379000Y-79262729D01*
X65362915Y-65122462D02*
X65370947Y-65071763D01*
X42474489Y-20500947D02*
X42525188Y-20492915D01*
X87565793Y-67560986D02*
X87520179Y-67541412D01*
X67440075Y-22782443D02*
X67420501Y-22828057D01*
X20460000Y-45497274D02*
X20457485Y-45447701D01*
X42897528Y-22846949D02*
X42880289Y-22800402D01*
X65369969Y-45398637D02*
X65357528Y-45350586D01*
X67467825Y-42793558D02*
X67498208Y-42832809D01*
X8730000Y-44006273D02*
X8730000Y-44008273D01*
X67384231Y-56759092D02*
X67380000Y-65017274D01*
X20460000Y-68000911D02*
X20457485Y-67951338D01*
X0Y-87520911D02*
X2514Y-87570483D01*
X22813312Y-22530708D02*
X22766765Y-22547947D01*
X45004164Y-45242681D02*
X44980075Y-45286080D01*
X87833636Y-20013228D02*
X87840000Y-490000D01*
X22572519Y-45201942D02*
X22544164Y-45242681D01*
X20341791Y-170827D02*
X20307593Y-134851D01*
X79110000Y-45009220D02*
X79110000Y-44008273D01*
X65150317Y-20424510D02*
X65191845Y-20394338D01*
X42600179Y-67541412D02*
X42576687Y-67533382D01*
X67820427Y-88008396D02*
X67870000Y-88010911D01*
X87609192Y-45081438D02*
X87565793Y-45057349D01*
X44960501Y-324420D02*
X44952471Y-347912D01*
X43919000Y-56759092D02*
X43921000Y-56759092D01*
X87496687Y-22471D02*
X87448636Y-10030D01*
X20449969Y-67902274D02*
X20437528Y-67854223D01*
X65318429Y-22755839D02*
X65292174Y-22713715D01*
X20114769Y-65486901D02*
X20162691Y-65468504D01*
X87565793Y-45057349D02*
X87520179Y-45037775D01*
X45004164Y-235407D02*
X44980075Y-278806D01*
X20068636Y-10030D02*
X20019572Y-2514D01*
X42499944Y-43001232D02*
X42550153Y-42990557D01*
X67467825Y-87800832D02*
X67498208Y-87840083D01*
X67464164Y-235407D02*
X67440075Y-278806D01*
X56650000Y-21505136D02*
X56650000Y-21503136D01*
X22572519Y-67705579D02*
X22544164Y-67746318D01*
X22471Y-20156687D02*
X39710Y-20203234D01*
X49710Y-22805002D02*
X32471Y-22851549D01*
X65191845Y-65401612D02*
X65229991Y-65367265D01*
X262202Y-67577081D02*
X220078Y-67603336D01*
X20374510Y-87791228D02*
X20387926Y-87769337D01*
X20344338Y-20321845D02*
X20374510Y-20280317D01*
X44924231Y-34255455D02*
X44920000Y-42513637D01*
X42897528Y-343312D02*
X42880289Y-296765D01*
X64934489Y-20500947D02*
X64985188Y-20492915D01*
X67570068Y-20397480D02*
X67610807Y-20425835D01*
X87687593Y-45142125D02*
X87649931Y-45109793D01*
X20449969Y-45398637D02*
X20437528Y-45350586D01*
X22544164Y-45242681D02*
X22520075Y-45286080D01*
X22482471Y-65163961D02*
X22499710Y-65210508D01*
X65357528Y-67854223D02*
X65340289Y-67807676D01*
X67686765Y-67555221D02*
X67642202Y-67577081D01*
X44924231Y-56759092D02*
X44920000Y-65017274D01*
X67441570Y-87758708D02*
X67467825Y-87800832D01*
X42834510Y-20280317D02*
X42860177Y-20235864D01*
X67560827Y-122808D02*
X67524851Y-157006D01*
X67654206Y-42953561D02*
X67699820Y-42973135D01*
X22520075Y-67789717D02*
X22500501Y-67835331D01*
X67392514Y-67955938D02*
X67390000Y-68005511D01*
X22910427Y-7114D02*
X22861363Y-14630D01*
X43921000Y-8751818D02*
X43919000Y-8751818D01*
X12514Y-45452301D02*
X10000Y-45501874D01*
X87350000Y-67510911D02*
X79110000Y-67512857D01*
X65362915Y-20115188D02*
X65370947Y-20064489D01*
X11730000Y-21503136D02*
X11730000Y-20502099D01*
X76110000Y-20501538D02*
X76110000Y-21503136D01*
X20019572Y-2514D02*
X19970000Y0D01*
X20030Y-45403237D02*
X12514Y-45452301D01*
X230807Y-20425835D02*
X274206Y-20449924D01*
X20163234Y-39710D02*
X20116687Y-22471D01*
X20271845Y-42897975D02*
X20309991Y-42863628D01*
X42910947Y-87575400D02*
X42913636Y-87524139D01*
X87816920Y-20140153D02*
X87827595Y-20089944D01*
X39710Y-65210508D02*
X61570Y-65255071D01*
X20271845Y-87905249D02*
X20309991Y-87870902D01*
X45360427Y-20497485D02*
X45410000Y-20500000D01*
X450427Y-7114D02*
X401363Y-14630D01*
X22500501Y-67835331D02*
X22492471Y-67858823D01*
X44980075Y-22782443D02*
X44960501Y-22828057D01*
X22640827Y-45130082D02*
X22604851Y-45164280D01*
X22464231Y-11751818D02*
X22460000Y-20010000D01*
X45321363Y-67525541D02*
X45273312Y-67537982D01*
X42729931Y-22606156D02*
X42709921Y-22591462D01*
X43919000Y-11751818D02*
X43921000Y-11751818D01*
X87649931Y-45109793D02*
X87609192Y-45081438D01*
X76110000Y-45009929D02*
X67880000Y-45011874D01*
X67385768Y-8751818D02*
X66381000Y-8751818D01*
X67384231Y-34255455D02*
X67380000Y-42513637D01*
X20457485Y-67951338D02*
X20449969Y-67902274D01*
X42576687Y-67533382D02*
X42528636Y-67520941D01*
X65105793Y-22553712D02*
X65060179Y-22534138D01*
X65349627Y-87675680D02*
X65362915Y-87626099D01*
X65320177Y-42739501D02*
X65331230Y-42716328D01*
X65150317Y-87935421D02*
X65191845Y-87905249D01*
X87350000Y0D02*
X67880000Y-4600D01*
X44952471Y-347912D02*
X44940030Y-395963D01*
X20185793Y-50075D02*
X20163234Y-39710D01*
X34190000Y-20502099D02*
X42423228Y-20503636D01*
X22612406Y-87876059D02*
X22650068Y-87908391D01*
X31190000Y-21503136D02*
X31190000Y-21505136D01*
X22680078Y-45099699D02*
X22640827Y-45130082D01*
X65036687Y-22526108D02*
X64988636Y-22513667D01*
X65377307Y-53759092D02*
X65380000Y-45497274D01*
X22813312Y-27071D02*
X22766765Y-44310D01*
X67385768Y-31255455D02*
X66381000Y-31255455D01*
X87689991Y-20359991D02*
X87724338Y-20321845D01*
X65380000Y-490000D02*
X65377485Y-440427D01*
X20185864Y-42953814D02*
X20230317Y-42928147D01*
X22950000Y-88010911D02*
X42423228Y-88014547D01*
X45239820Y-65476772D02*
X45263312Y-65484802D01*
X353312Y-45034345D02*
X306765Y-45051584D01*
X67747180Y-87995268D02*
X67795800Y-88005260D01*
X66381000Y-79262729D02*
X67384231Y-79262729D01*
X44960501Y-45331694D02*
X44952471Y-45355186D01*
X20229192Y-22577801D02*
X20185793Y-22553712D01*
X20411230Y-42716328D02*
X20429627Y-42668406D01*
X64883228Y-65510910D02*
X64934489Y-65508221D01*
X64959944Y-88008506D02*
X65010153Y-87997831D01*
X22521570Y-42751434D02*
X22547825Y-42793558D01*
X34190000Y-43005736D02*
X42423228Y-43007273D01*
X87778429Y-22755839D02*
X87752174Y-22713715D01*
X45150807Y-87936746D02*
X45194206Y-87960835D01*
X76110000Y-66509910D02*
X76110000Y-66511910D01*
X87689991Y-87870902D02*
X87724338Y-87832756D01*
X67390000Y-22998237D02*
X67385768Y-31255455D01*
X220078Y-92425D02*
X180827Y-122808D01*
X22464231Y-56759092D02*
X22460000Y-65017274D01*
X42860177Y-20235864D02*
X42881056Y-20188971D01*
X42423228Y-65510910D02*
X42474489Y-65508221D01*
X20442915Y-65122462D02*
X20450947Y-65071763D01*
X20398429Y-45259476D02*
X20372174Y-45217352D01*
X22499710Y-42706871D02*
X22521570Y-42751434D01*
X319820Y-87980409D02*
X367180Y-87995268D01*
X65377485Y-67951338D02*
X65369969Y-67902274D01*
X22470000Y-22998237D02*
X22465768Y-31255455D01*
X42430000Y-22503637D02*
X34190000Y-22505583D01*
X87520179Y-67541412D02*
X87496687Y-67533382D01*
X87778429Y-67763113D02*
X87752174Y-67720989D01*
X20140179Y-67541412D02*
X20116687Y-67533382D01*
X45140078Y-45099699D02*
X45100827Y-45130082D01*
X87651845Y-65401612D02*
X87689991Y-65367265D01*
X42645793Y-67560986D02*
X42600179Y-67541412D01*
X42860177Y-65243138D02*
X42881056Y-65196245D01*
X79110000Y-43005736D02*
X87343228Y-43007273D01*
X43921000Y-53759092D02*
X43919000Y-53759092D01*
X65331230Y-65219965D02*
X65349627Y-65172043D01*
X8730000Y-66509910D02*
X8730000Y-66511910D01*
X20429627Y-20164769D02*
X20442915Y-20115188D01*
X22690807Y-87936746D02*
X22734206Y-87960835D01*
X20344338Y-65329119D02*
X20374510Y-65287591D01*
X45410000Y-43003637D02*
X53650000Y-43005175D01*
X20185864Y-65457451D02*
X20230317Y-65431784D01*
X20030Y-67906874D02*
X12514Y-67955938D01*
X44922514Y-65066846D02*
X44930030Y-65115910D01*
X67870000Y-20500000D02*
X76110000Y-20501538D01*
X22572519Y-22698305D02*
X22544164Y-22739044D01*
X20162691Y-65468504D02*
X20185864Y-65457451D01*
X65331230Y-20212691D02*
X65349627Y-20164769D01*
X87816920Y-65147427D02*
X87827595Y-65097218D01*
X79110000Y-66509910D02*
X79110000Y-65509373D01*
X66379000Y-56759092D02*
X66381000Y-56759092D01*
X22472514Y-45452301D02*
X22470000Y-45501874D01*
X56650000Y-21503136D02*
X56650000Y-20502099D01*
X87817528Y-22846949D02*
X87800289Y-22800402D01*
X500000Y-22508237D02*
X450427Y-22510751D01*
X53650000Y-44008273D02*
X53650000Y-45009929D01*
X76110000Y-21505136D02*
X76110000Y-22506292D01*
X87829969Y-45398637D02*
X87817528Y-45350586D01*
X19970000Y-22503637D02*
X11730000Y-22505583D01*
X87399572Y-2514D02*
X87350000Y0D01*
X45032519Y-22698305D02*
X45004164Y-22739044D01*
X22465768Y-76262729D02*
X21461000Y-76262729D01*
X22499710Y-65210508D02*
X22521570Y-65255071D01*
X67400030Y-395963D02*
X67392514Y-445027D01*
X401363Y-22518267D02*
X353312Y-22530708D01*
X42909969Y-45398637D02*
X42897528Y-45350586D01*
X65261791Y-22674464D02*
X65227593Y-22638488D01*
X22520075Y-22782443D02*
X22509710Y-22805002D01*
X343312Y-42981165D02*
X391363Y-42993606D01*
X87520179Y-45037775D02*
X87496687Y-45029745D01*
X42881056Y-20188971D02*
X42896920Y-20140153D01*
X65357528Y-22846949D02*
X65340289Y-22800402D01*
X87565864Y-42953814D02*
X87610317Y-42928147D01*
X87721791Y-170827D02*
X87687593Y-134851D01*
X87829969Y-67902274D02*
X87817528Y-67854223D01*
X20449969Y-391363D02*
X20437528Y-343312D01*
X45004164Y-67746318D02*
X44980075Y-67789717D01*
X45370427Y-67518025D02*
X45321363Y-67525541D01*
X65376329Y-34255455D02*
X66379000Y-34255455D01*
X21459000Y-34255455D02*
X21461000Y-34255455D01*
X45420000Y-4600D02*
X45370427Y-7114D01*
X67412471Y-67858823D02*
X67400030Y-67906874D01*
X65105793Y-45057349D02*
X65060179Y-45037775D01*
X42917485Y-22944064D02*
X42909969Y-22895000D01*
X67524851Y-45164280D02*
X67492519Y-45201942D01*
X490000Y-88010911D02*
X19963228Y-88014547D01*
X11730000Y-65509373D02*
X19963228Y-65510910D01*
X20114769Y-42983264D02*
X20138971Y-42974693D01*
X42430000Y-45007274D02*
X34190000Y-45009220D01*
X67392514Y-445027D02*
X67390000Y-494600D01*
X65370947Y-20064489D02*
X65373636Y-20013228D01*
X67402471Y-42660324D02*
X67419710Y-42706871D01*
X65264338Y-65329119D02*
X65294510Y-65287591D01*
X67384231Y-11751818D02*
X67380000Y-20010000D01*
X490000Y-65507274D02*
X8730000Y-65508812D01*
X87829969Y-22895000D02*
X87817528Y-22846949D01*
X65149192Y-74164D02*
X65105793Y-50075D01*
X87343228Y-20503636D02*
X87394489Y-20500947D01*
X45410000Y-20500000D02*
X53650000Y-20501538D01*
X87687593Y-22638488D02*
X87649931Y-22606156D01*
X118208Y-65336446D02*
X152406Y-65372422D01*
X42479572Y-45009788D02*
X42430000Y-45007274D01*
X391363Y-42993606D02*
X440427Y-43001122D01*
X40501Y-67835331D02*
X32471Y-67858823D01*
X220078Y-22596062D02*
X180827Y-22626445D01*
X22827180Y-87995268D02*
X22875800Y-88005260D01*
X44981570Y-20247797D02*
X45007825Y-20289921D01*
X87837485Y-67951338D02*
X87829969Y-67902274D01*
X20398429Y-67763113D02*
X20372174Y-67720989D01*
X21461000Y-11751818D02*
X22464231Y-11751818D01*
X66379000Y-76262729D02*
X65377307Y-76262729D01*
X65128426Y-20437926D02*
X65150317Y-20424510D01*
X43921000Y-11751818D02*
X44924231Y-11751818D01*
X22813312Y-67537982D02*
X22766765Y-67555221D01*
X56650000Y-66511910D02*
X56650000Y-66509910D01*
X87840000Y-490000D02*
X87837485Y-440427D01*
X22766765Y-45051584D02*
X22722202Y-45073444D01*
X66381000Y-56759092D02*
X67384231Y-56759092D01*
X42479572Y-67513425D02*
X42430000Y-67510911D01*
X65105864Y-65457451D02*
X65150317Y-65431784D01*
X20420289Y-296765D02*
X20398429Y-252202D01*
X84164Y-67746318D02*
X60075Y-67789717D01*
X11730000Y-21505136D02*
X11730000Y-21503136D01*
X87343228Y-65510910D02*
X87394489Y-65508221D01*
X44930030Y-20108636D02*
X44942471Y-20156687D01*
X32471Y-347912D02*
X20030Y-395963D01*
X20065188Y-65500189D02*
X20114769Y-65486901D01*
X65060179Y-67541412D02*
X65036687Y-67533382D01*
X67830427Y-45014388D02*
X67781363Y-45021904D01*
X20457485Y-45447701D02*
X20449969Y-45398637D01*
X64890000Y0D02*
X45420000Y-4600D01*
X45263312Y-42981165D02*
X45311363Y-42993606D01*
X67382514Y-65066846D02*
X67390030Y-65115910D01*
X42645864Y-20450177D02*
X42690317Y-20424510D01*
X87837485Y-45447701D02*
X87829969Y-45398637D01*
X49710Y-301365D02*
X32471Y-347912D01*
X44981570Y-65255071D02*
X45007825Y-65297195D01*
X44952471Y-67858823D02*
X44940030Y-67906874D01*
X42880289Y-22800402D02*
X42858429Y-22755839D01*
X67642202Y-22569807D02*
X67600078Y-22596062D01*
X65377485Y-45447701D02*
X65369969Y-45398637D01*
X67771363Y-65497243D02*
X67820427Y-65504759D01*
X87752174Y-45217352D02*
X87721791Y-45178101D01*
X42550153Y-87997831D02*
X42598971Y-87981967D01*
X65294510Y-42783954D02*
X65320177Y-42739501D01*
X65370947Y-87575400D02*
X65373636Y-87524139D01*
X42909969Y-67902274D02*
X42897528Y-67854223D01*
X44940030Y-395963D02*
X44932514Y-445027D01*
X65377307Y-8751818D02*
X65380000Y-490000D01*
X20019572Y-22506151D02*
X19970000Y-22503637D01*
X401363Y-45021904D02*
X353312Y-45034345D01*
X64883228Y-20503636D02*
X64934489Y-20500947D01*
X42916329Y-34255455D02*
X43919000Y-34255455D01*
X44942471Y-65163961D02*
X44959710Y-65210508D01*
X65191845Y-87905249D02*
X65229991Y-87870902D01*
X42832174Y-210078D02*
X42801791Y-170827D01*
X45038208Y-42832809D02*
X45072406Y-42868785D01*
X42423228Y-20503636D02*
X42474489Y-20500947D01*
X87801056Y-20188971D02*
X87816920Y-20140153D01*
X65150317Y-42928147D02*
X65191845Y-42897975D01*
X45100827Y-22626445D02*
X45064851Y-22660643D01*
X2514Y-65066846D02*
X10030Y-65115910D01*
X65380000Y-68000911D02*
X65377485Y-67951338D01*
X230807Y-65433109D02*
X274206Y-65457198D01*
X67440075Y-278806D02*
X67420501Y-324420D01*
X19963228Y-20503636D02*
X20014489Y-20500947D01*
X45370427Y-7114D02*
X45321363Y-14630D01*
X87565793Y-50075D02*
X87543234Y-39710D01*
X87445188Y-65500189D02*
X87494769Y-65486901D01*
X79110000Y-21503136D02*
X79110000Y-20502099D01*
X20387926Y-65265700D02*
X20411230Y-65219965D01*
X22813312Y-45034345D02*
X22766765Y-45051584D01*
X44930000Y-494600D02*
X44925768Y-8751818D01*
X66381000Y-34255455D02*
X67384231Y-34255455D01*
X22480030Y-395963D02*
X22472514Y-445027D01*
X67524851Y-22660643D02*
X67492519Y-22698305D01*
X87840000Y-45497274D02*
X87837485Y-45447701D01*
X45004164Y-22739044D02*
X44980075Y-22782443D01*
X22492471Y-347912D02*
X22480030Y-395963D01*
X42623234Y-39710D02*
X42576687Y-22471D01*
X67420501Y-324420D02*
X67412471Y-347912D01*
X22875800Y-88005260D02*
X22900427Y-88008396D01*
X87825Y-20289921D02*
X118208Y-20329172D01*
X67524851Y-67667917D02*
X67492519Y-67705579D01*
X43919000Y-34255455D02*
X43921000Y-34255455D01*
X20460000Y-490000D02*
X20457485Y-440427D01*
X22960000Y-22508237D02*
X22910427Y-22510751D01*
X53650000Y-65508812D02*
X53650000Y-66509910D01*
X65320177Y-20235864D02*
X65331230Y-20212691D01*
X87448636Y-22513667D02*
X87399572Y-22506151D01*
X180827Y-67633719D02*
X144851Y-67667917D01*
X42917307Y-31255455D02*
X42920000Y-22993637D01*
X22482471Y-87667598D02*
X22499710Y-87714145D01*
X60075Y-45286080D02*
X40501Y-45331694D01*
X87830947Y-42568126D02*
X87833636Y-42516865D01*
X44932514Y-22948664D02*
X44930000Y-22998237D01*
X64883228Y-43007273D02*
X64934489Y-43004584D01*
X87778429Y-252202D02*
X87752174Y-210078D01*
X42645864Y-42953814D02*
X42690317Y-42928147D01*
X20344338Y-87832756D02*
X20374510Y-87791228D01*
X22500501Y-45331694D02*
X22492471Y-45355186D01*
X67880000Y-22508237D02*
X67830427Y-22510751D01*
X20372174Y-67720989D02*
X20341791Y-67681738D01*
X20437528Y-67854223D02*
X20420289Y-67807676D01*
X20307593Y-67645762D02*
X20269931Y-67613430D01*
X45420000Y-45011874D02*
X45370427Y-45014388D01*
X42709921Y-22591462D02*
X42667797Y-22565207D01*
X20307593Y-45142125D02*
X20269931Y-45109793D01*
X22650068Y-65404754D02*
X22690807Y-65433109D01*
X42690317Y-65431784D02*
X42731845Y-65401612D01*
X440427Y-20497485D02*
X490000Y-20500000D01*
X20162691Y-20461230D02*
X20185864Y-20450177D01*
X67733312Y-22530708D02*
X67686765Y-22547947D01*
X67412471Y-45355186D02*
X67400030Y-45403237D01*
X500000Y-67515511D02*
X450427Y-67518025D01*
X79110000Y-21505136D02*
X79110000Y-21503136D01*
X67733312Y-67537982D02*
X67686765Y-67555221D01*
X65227593Y-67645762D02*
X65189931Y-67613430D01*
X8730000Y-65508812D02*
X8730000Y-66509910D01*
X490000Y-43003637D02*
X8730000Y-43005175D01*
X65370947Y-42568126D02*
X65373636Y-42516865D01*
X12514Y-445027D02*
X10000Y-494600D01*
X8730000Y-67513566D02*
X500000Y-67515511D01*
X67781363Y-67525541D02*
X67733312Y-67537982D01*
X44959710Y-65210508D02*
X44981570Y-65255071D01*
X0Y-42513637D02*
X2514Y-42563209D01*
X306765Y-67555221D02*
X262202Y-67577081D01*
X67380000Y-42513637D02*
X67382514Y-42563209D01*
X44922514Y-87570483D02*
X44930030Y-87619547D01*
X44920000Y-65017274D02*
X44922514Y-65066846D01*
X45194206Y-87960835D02*
X45239820Y-87980409D01*
X87825Y-65297195D02*
X118208Y-65336446D01*
X67380000Y-65017274D02*
X67382514Y-65066846D01*
X20138971Y-42974693D02*
X20185864Y-42953814D01*
X440427Y-43001122D02*
X490000Y-43003637D01*
X65362915Y-42618825D02*
X65370947Y-42568126D01*
X87840000Y-22993637D02*
X87837485Y-22944064D01*
X65229991Y-20359991D02*
X65264338Y-20321845D01*
X76110000Y-44008273D02*
X76110000Y-45009929D01*
X42474489Y-65508221D02*
X42525188Y-65500189D01*
X42430000Y-67510911D02*
X34190000Y-67512857D01*
X87829969Y-391363D02*
X87817528Y-343312D01*
X65034769Y-20479627D02*
X65082691Y-20461230D01*
X20411230Y-65219965D02*
X20429627Y-65172043D01*
X20453636Y-20013228D02*
X20456329Y-11751818D01*
X11730000Y-43005736D02*
X19963228Y-43007273D01*
X87827595Y-65097218D02*
X87830947Y-65071763D01*
X12514Y-67955938D02*
X10000Y-68005511D01*
X22803312Y-20477528D02*
X22851363Y-20489969D01*
X67385768Y-53759092D02*
X66381000Y-53759092D01*
X42880289Y-45304039D02*
X42858429Y-45259476D01*
X22734206Y-65457198D02*
X22779820Y-65476772D01*
X45226765Y-67555221D02*
X45182202Y-67577081D01*
X67390000Y-494600D02*
X67385768Y-8751818D01*
X67699820Y-42973135D02*
X67723312Y-42981165D01*
X42576687Y-22526108D02*
X42528636Y-22513667D01*
X53650000Y-21503136D02*
X53650000Y-21505136D01*
X22578208Y-65336446D02*
X22612406Y-65372422D01*
X64939572Y-67513425D02*
X64890000Y-67510911D01*
X87609192Y-22577801D02*
X87565793Y-22553712D01*
X67781363Y-22518267D02*
X67733312Y-22530708D01*
X22900427Y-20497485D02*
X22950000Y-20500000D01*
X65376329Y-56759092D02*
X66379000Y-56759092D01*
X34190000Y-21505136D02*
X34190000Y-21503136D01*
X66379000Y-11751818D02*
X66381000Y-11751818D01*
X67820427Y-65504759D02*
X67870000Y-65507274D01*
X22499710Y-20203234D02*
X22521570Y-20247797D01*
X20437528Y-343312D02*
X20420289Y-296765D01*
X87610317Y-87935421D02*
X87651845Y-87905249D01*
X45360427Y-43001122D02*
X45410000Y-43003637D01*
X450427Y-22510751D02*
X401363Y-22518267D01*
X42858429Y-45259476D02*
X42832174Y-45217352D01*
X45100827Y-122808D02*
X45064851Y-157006D01*
X64883228Y-88014547D02*
X64934489Y-88011858D01*
X87394489Y-88011858D02*
X87419944Y-88008506D01*
X67686765Y-22547947D02*
X67642202Y-22569807D01*
X20014489Y-65508221D02*
X20065188Y-65500189D01*
X42910947Y-42568126D02*
X42913636Y-42516865D01*
X67733312Y-45034345D02*
X67686765Y-45051584D01*
X65373636Y-87524139D02*
X65376329Y-79262729D01*
X22460000Y-42513637D02*
X22462514Y-42563209D01*
X12514Y-22948664D02*
X10000Y-22998237D01*
X262202Y-22569807D02*
X220078Y-22596062D01*
X42913636Y-87524139D02*
X42916329Y-79262729D01*
X67464164Y-67746318D02*
X67440075Y-67789717D01*
X67441570Y-65255071D02*
X67467825Y-65297195D01*
X44960501Y-22828057D02*
X44952471Y-22851549D01*
X21461000Y-76262729D02*
X21459000Y-76262729D01*
X20229192Y-67585075D02*
X20185793Y-67560986D01*
X67498208Y-87840083D02*
X67532406Y-87876059D01*
X87588426Y-20437926D02*
X87610317Y-20424510D01*
X67498208Y-65336446D02*
X67532406Y-65372422D01*
X22604851Y-45164280D02*
X22572519Y-45201942D01*
X45150807Y-20425835D02*
X45194206Y-20449924D01*
X44981570Y-87758708D02*
X45007825Y-87800832D01*
X65261791Y-67681738D02*
X65227593Y-67645762D01*
X20269931Y-22606156D02*
X20229192Y-22577801D01*
X56650000Y-44006273D02*
X56650000Y-43005736D01*
X67492519Y-22698305D02*
X67464164Y-22739044D01*
X67390000Y-45501874D02*
X67385768Y-53759092D01*
X42913636Y-65020502D02*
X42916329Y-56759092D01*
X20163234Y-22543347D02*
X20116687Y-22526108D01*
X34190000Y-66511910D02*
X34190000Y-66509910D01*
X22470000Y-68005511D02*
X22465768Y-76262729D01*
X44925768Y-76262729D02*
X43921000Y-76262729D01*
X65191845Y-20394338D02*
X65229991Y-20359991D01*
X22650068Y-87908391D02*
X22690807Y-87936746D01*
X44959710Y-87714145D02*
X44981570Y-87758708D01*
X20372174Y-22713715D02*
X20341791Y-22674464D01*
X87394489Y-20500947D02*
X87445188Y-20492915D01*
X87649931Y-102519D02*
X87609192Y-74164D01*
X43919000Y-79262729D02*
X43921000Y-79262729D01*
X42689192Y-45081438D02*
X42645793Y-45057349D01*
X20309991Y-65367265D02*
X20344338Y-65329119D01*
X45110068Y-65404754D02*
X45150807Y-65433109D01*
X42917307Y-76262729D02*
X42920000Y-68000911D01*
X42474489Y-88011858D02*
X42499944Y-88008506D01*
X79110000Y-66511910D02*
X79110000Y-66509910D01*
X42731845Y-42897975D02*
X42769991Y-42863628D01*
X44922514Y-20059572D02*
X44930030Y-20108636D01*
X20420289Y-67807676D02*
X20398429Y-67763113D01*
X42881056Y-42692608D02*
X42896920Y-42643790D01*
X87827595Y-42593581D02*
X87830947Y-42568126D01*
X42920000Y-22993637D02*
X42917485Y-22944064D01*
X45226765Y-45051584D02*
X45182202Y-45073444D01*
X87542691Y-65468504D02*
X87565864Y-65457451D01*
X152406Y-65372422D02*
X190068Y-65404754D01*
X42689192Y-67585075D02*
X42645793Y-67560986D01*
X20039944Y-88008506D02*
X20090153Y-87997831D01*
X45064851Y-45164280D02*
X45032519Y-45201942D01*
X67880000Y-67515511D02*
X67830427Y-67518025D01*
X87494769Y-65486901D02*
X87542691Y-65468504D01*
X45072406Y-42868785D02*
X45110068Y-42901117D01*
X87399572Y-22506151D02*
X87350000Y-22503637D01*
X22462514Y-87570483D02*
X22470030Y-87619547D01*
X67600078Y-67603336D02*
X67560827Y-67633719D01*
X44980075Y-45286080D02*
X44960501Y-45331694D01*
X42623234Y-22543347D02*
X42576687Y-22526108D01*
X45410000Y-88010911D02*
X64883228Y-88014547D01*
X20030Y-395963D02*
X12514Y-445027D01*
X87542691Y-20461230D02*
X87588426Y-20437926D01*
X45007825Y-42793558D02*
X45038208Y-42832809D01*
X67382514Y-87570483D02*
X67390030Y-87619547D01*
X87649931Y-22606156D02*
X87609192Y-22577801D01*
X44930000Y-45501874D02*
X44925768Y-53759092D01*
X79110000Y-65509373D02*
X87343228Y-65510910D01*
X8730000Y-44008273D02*
X8730000Y-45009929D01*
X190068Y-42901117D02*
X230807Y-42929472D01*
X22465768Y-53759092D02*
X21461000Y-53759092D01*
X53650000Y-21505136D02*
X53650000Y-22506292D01*
X65349627Y-42668406D02*
X65362915Y-42618825D01*
X67610807Y-42929472D02*
X67654206Y-42953561D01*
X152406Y-87876059D02*
X190068Y-87908391D01*
X22509710Y-22805002D02*
X22492471Y-22851549D01*
X42731845Y-87905249D02*
X42769991Y-87870902D01*
X42525188Y-20492915D02*
X42574769Y-20479627D01*
X22521570Y-87758708D02*
X22547825Y-87800832D01*
X67419710Y-65210508D02*
X67441570Y-65255071D01*
X43921000Y-79262729D02*
X44924231Y-79262729D01*
X22950000Y-20500000D02*
X31190000Y-20501538D01*
X45420000Y-22508237D02*
X45370427Y-22510751D01*
X42804338Y-20321845D02*
X42834510Y-20280317D01*
X144851Y-67667917D02*
X112519Y-67705579D01*
X44920000Y-42513637D02*
X44922514Y-42563209D01*
X65331230Y-42716328D02*
X65349627Y-42668406D01*
X42881056Y-65196245D02*
X42896920Y-65147427D01*
X87840000Y-68000911D02*
X87837485Y-67951338D01*
X42479572Y-2514D02*
X42430000Y0D01*
X87689991Y-42863628D02*
X87724338Y-42825482D01*
X44952471Y-45355186D02*
X44940030Y-45403237D01*
X20068636Y-67520941D02*
X20019572Y-67513425D01*
X67384231Y-79262729D02*
X67380000Y-87520911D01*
X22722202Y-45073444D02*
X22680078Y-45099699D01*
X87687593Y-134851D02*
X87649931Y-102519D01*
X112519Y-45201942D02*
X84164Y-45242681D01*
X87800289Y-22800402D02*
X87778429Y-22755839D01*
X67642202Y-66170D02*
X67600078Y-92425D01*
X20456329Y-56759092D02*
X21459000Y-56759092D01*
X22462514Y-65066846D02*
X22470030Y-65115910D01*
X66379000Y-8751818D02*
X65377307Y-8751818D01*
X67464164Y-45242681D02*
X67440075Y-45286080D01*
X22547825Y-42793558D02*
X22578208Y-42832809D01*
X20453636Y-65020502D02*
X20456329Y-56759092D01*
X20019572Y-67513425D02*
X19970000Y-67510911D01*
X22460000Y-87520911D02*
X22462514Y-87570483D01*
X65318429Y-45259476D02*
X65292174Y-45217352D01*
X45370427Y-22510751D02*
X45321363Y-22518267D01*
X42907595Y-65097218D02*
X42910947Y-65071763D01*
X66379000Y-34255455D02*
X66381000Y-34255455D01*
X67390030Y-65115910D02*
X67402471Y-65163961D01*
X22900427Y-43001122D02*
X22950000Y-43003637D01*
X87721791Y-67681738D02*
X87687593Y-67645762D01*
X76110000Y-67513566D02*
X67880000Y-67515511D01*
X296765Y-20460289D02*
X343312Y-20477528D01*
X42834510Y-42783954D02*
X42860177Y-42739501D01*
X67385768Y-76262729D02*
X66381000Y-76262729D01*
X20065188Y-42996552D02*
X20114769Y-42983264D01*
X67560827Y-45130082D02*
X67524851Y-45164280D01*
X19963228Y-65510910D02*
X20014489Y-65508221D01*
X65292174Y-22713715D02*
X65261791Y-22674464D01*
X22861363Y-67525541D02*
X22813312Y-67537982D01*
X20271845Y-65401612D02*
X20309991Y-65367265D01*
X31190000Y-44008273D02*
X31190000Y-45009929D01*
X76110000Y-66511910D02*
X76110000Y-67513566D01*
X45032519Y-45201942D02*
X45004164Y-45242681D01*
X274206Y-42953561D02*
X296765Y-42963926D01*
X65058971Y-87981967D02*
X65105864Y-87961088D01*
X67390030Y-20108636D02*
X67402471Y-20156687D01*
X45110068Y-20397480D02*
X45150807Y-20425835D01*
X42769991Y-42863628D02*
X42804338Y-42825482D01*
X65318429Y-67763113D02*
X65292174Y-67720989D01*
X20068636Y-22513667D02*
X20019572Y-22506151D01*
X20400177Y-42739501D02*
X20411230Y-42716328D01*
X34190000Y-65509373D02*
X42423228Y-65510910D01*
X87754510Y-87791228D02*
X87780177Y-87746775D01*
X67400030Y-22899600D02*
X67392514Y-22948664D01*
X22734206Y-87960835D02*
X22779820Y-87980409D01*
X66381000Y-76262729D02*
X66379000Y-76262729D01*
X20014489Y-20500947D02*
X20065188Y-20492915D01*
X65370947Y-65071763D02*
X65373636Y-65020502D01*
X22612406Y-20365148D02*
X22650068Y-20397480D01*
X87399572Y-67513425D02*
X87350000Y-67510911D01*
X20457307Y-53759092D02*
X20460000Y-45497274D01*
X22910427Y-67518025D02*
X22861363Y-67525541D01*
X22492471Y-22851549D02*
X22480030Y-22899600D01*
X67498208Y-20329172D02*
X67532406Y-20365148D01*
X22803312Y-42981165D02*
X22851363Y-42993606D01*
X67610807Y-65433109D02*
X67654206Y-65457198D01*
X67654206Y-20449924D02*
X67699820Y-20469498D01*
X87780177Y-87746775D02*
X87801056Y-87699882D01*
X65331230Y-87723602D02*
X65349627Y-87675680D01*
X42910947Y-20064489D02*
X42913636Y-20013228D01*
X87754510Y-42783954D02*
X87780177Y-42739501D01*
X39710Y-20203234D02*
X61570Y-20247797D01*
X65340289Y-296765D02*
X65318429Y-252202D01*
X22722202Y-22569807D02*
X22680078Y-22596062D01*
X31190000Y-66509910D02*
X31190000Y-66511910D01*
X67830427Y-7114D02*
X67781363Y-14630D01*
X20269931Y-45109793D02*
X20229192Y-45081438D01*
X8730000Y-22506292D02*
X500000Y-22508237D01*
X42920000Y-490000D02*
X42917485Y-440427D01*
X45273312Y-45034345D02*
X45226765Y-45051584D01*
X19963228Y-43007273D02*
X20014489Y-43004584D01*
X42769991Y-87870902D02*
X42804338Y-87832756D01*
X20138971Y-87981967D02*
X20185864Y-87961088D01*
X22851363Y-20489969D02*
X22900427Y-20497485D01*
X45226765Y-44310D02*
X45182202Y-66170D01*
X21459000Y-53759092D02*
X20457307Y-53759092D01*
X87610317Y-20424510D02*
X87651845Y-20394338D01*
X45182202Y-22569807D02*
X45140078Y-22596062D01*
X45335800Y-88005260D02*
X45360427Y-88008396D01*
X87419944Y-88008506D02*
X87470153Y-87997831D01*
X65373636Y-42516865D02*
X65376329Y-34255455D01*
X180827Y-45130082D02*
X144851Y-45164280D01*
X65377485Y-440427D02*
X65369969Y-391363D01*
X45038208Y-20329172D02*
X45072406Y-20365148D01*
X42834510Y-87791228D02*
X42860177Y-87746775D01*
X66379000Y-31255455D02*
X65377307Y-31255455D01*
X67723312Y-65484802D02*
X67771363Y-65497243D01*
X65010153Y-42990557D02*
X65058971Y-42974693D01*
X22472514Y-22948664D02*
X22470000Y-22998237D01*
X66381000Y-11751818D02*
X67384231Y-11751818D01*
X67733312Y-27071D02*
X67686765Y-44310D01*
X42423228Y-43007273D02*
X42474489Y-43004584D01*
X22470030Y-87619547D02*
X22482471Y-87667598D01*
X76110000Y-43005175D02*
X76110000Y-44006273D01*
X22578208Y-20329172D02*
X22612406Y-20365148D01*
X11730000Y-20502099D02*
X19963228Y-20503636D01*
X67390000Y-68005511D02*
X67385768Y-76262729D01*
X39710Y-87714145D02*
X61570Y-87758708D01*
X42804338Y-42825482D02*
X42834510Y-42783954D01*
X22572519Y-194668D02*
X22544164Y-235407D01*
X112519Y-194668D02*
X84164Y-235407D01*
X22482471Y-20156687D02*
X22499710Y-20203234D01*
X53650000Y-43005175D02*
X53650000Y-44006273D01*
X87816920Y-87651064D02*
X87827595Y-87600855D01*
X190068Y-87908391D02*
X230807Y-87936746D01*
X22460000Y-20010000D02*
X22462514Y-20059572D01*
X42528636Y-45017304D02*
X42479572Y-45009788D01*
X44930030Y-65115910D02*
X44942471Y-65163961D01*
X65369969Y-391363D02*
X65357528Y-343312D01*
X450427Y-67518025D02*
X401363Y-67525541D01*
X21461000Y-8751818D02*
X21459000Y-8751818D01*
X42667797Y-22565207D02*
X42623234Y-22543347D01*
X34190000Y-44008273D02*
X34190000Y-44006273D01*
X45273312Y-22530708D02*
X45226765Y-22547947D01*
X67781363Y-45021904D02*
X67733312Y-45034345D01*
X42479572Y-22506151D02*
X42430000Y-22503637D01*
X87689991Y-65367265D02*
X87724338Y-65329119D01*
X22960000Y-45011874D02*
X22910427Y-45014388D01*
X64934489Y-65508221D02*
X64985188Y-65500189D01*
X87825Y-42793558D02*
X118208Y-42832809D01*
X20457485Y-22944064D02*
X20449969Y-22895000D01*
X44940030Y-22899600D02*
X44932514Y-22948664D01*
X112519Y-67705579D02*
X84164Y-67746318D01*
X67441570Y-20247797D02*
X67467825Y-20289921D01*
X87496687Y-22526108D02*
X87448636Y-22513667D01*
X87801056Y-42692608D02*
X87816920Y-42643790D01*
X21459000Y-79262729D02*
X21461000Y-79262729D01*
X19970000Y-45007274D02*
X11730000Y-45009220D01*
X65292174Y-45217352D02*
X65261791Y-45178101D01*
X87543234Y-39710D02*
X87496687Y-22471D01*
X21459000Y-76262729D02*
X20457307Y-76262729D01*
X65318429Y-252202D02*
X65292174Y-210078D01*
X66381000Y-31255455D02*
X66379000Y-31255455D01*
X42801791Y-170827D02*
X42767593Y-134851D01*
X42832174Y-45217352D02*
X42801791Y-45178101D01*
X67464164Y-22739044D02*
X67440075Y-22782443D01*
X87721791Y-22674464D02*
X87687593Y-22638488D01*
X65261791Y-45178101D02*
X65227593Y-45142125D01*
X20372174Y-45217352D02*
X20341791Y-45178101D01*
X42834510Y-65287591D02*
X42860177Y-65243138D01*
X67380000Y-87520911D02*
X67382514Y-87570483D01*
X42767593Y-134851D02*
X42729931Y-102519D01*
X34190000Y-67512857D02*
X34190000Y-66511910D01*
X180827Y-122808D02*
X144851Y-157006D01*
X42858429Y-22755839D02*
X42832174Y-22713715D01*
X64939572Y-2514D02*
X64890000Y0D01*
X65060179Y-45037775D02*
X65036687Y-45029745D01*
X10030Y-20108636D02*
X22471Y-20156687D01*
X42690317Y-42928147D02*
X42731845Y-42897975D01*
X67390030Y-42612273D02*
X67402471Y-42660324D01*
X22462514Y-20059572D02*
X22470030Y-20108636D01*
X34190000Y-22505583D02*
X34190000Y-21505136D01*
X500000Y-45011874D02*
X450427Y-45014388D01*
X22766765Y-67555221D02*
X22722202Y-67577081D01*
X65377485Y-22944064D02*
X65369969Y-22895000D01*
X87609192Y-74164D02*
X87565793Y-50075D01*
X22690807Y-42929472D02*
X22734206Y-42953561D01*
X343312Y-65484802D02*
X391363Y-65497243D01*
X44920000Y-87520911D02*
X44922514Y-87570483D01*
X64988636Y-45017304D02*
X64939572Y-45009788D01*
X66381000Y-53759092D02*
X66379000Y-53759092D01*
X87837485Y-440427D02*
X87829969Y-391363D01*
X65189931Y-45109793D02*
X65149192Y-45081438D01*
X87448636Y-67520941D02*
X87399572Y-67513425D01*
X53650000Y-45009929D02*
X45420000Y-45011874D01*
X42916329Y-11751818D02*
X43919000Y-11751818D01*
X64934489Y-88011858D02*
X64959944Y-88008506D01*
X87350000Y-45007274D02*
X79110000Y-45009220D01*
X67382514Y-20059572D02*
X67390030Y-20108636D01*
X65189931Y-102519D02*
X65149192Y-74164D01*
X53650000Y-67513566D02*
X45420000Y-67515511D01*
X64988636Y-10030D02*
X64939572Y-2514D01*
X67392514Y-45452301D02*
X67390000Y-45501874D01*
X42910947Y-65071763D02*
X42913636Y-65020502D01*
X87350000Y-22503637D02*
X79110000Y-22505583D01*
X87445188Y-20492915D02*
X87494769Y-20479627D01*
X65229991Y-87870902D02*
X65264338Y-87832756D01*
X45182202Y-66170D02*
X45140078Y-92425D01*
X87399572Y-45009788D02*
X87350000Y-45007274D01*
X22861363Y-14630D02*
X22813312Y-27071D01*
X65320177Y-65243138D02*
X65331230Y-65219965D01*
X67642202Y-67577081D02*
X67600078Y-67603336D01*
X67440075Y-45286080D02*
X67420501Y-45331694D01*
X45032519Y-194668D02*
X45004164Y-235407D01*
X65340289Y-67807676D02*
X65318429Y-67763113D01*
X64939572Y-22506151D02*
X64890000Y-22503637D01*
X43921000Y-76262729D02*
X43919000Y-76262729D01*
X67419710Y-42706871D02*
X67441570Y-42751434D01*
X20429627Y-87675680D02*
X20442915Y-87626099D01*
X20269931Y-67613430D02*
X20229192Y-67585075D01*
X306765Y-44310D02*
X262202Y-66170D01*
X87780177Y-42739501D02*
X87801056Y-42692608D01*
X65264338Y-87832756D02*
X65294510Y-87791228D01*
X45007825Y-20289921D02*
X45038208Y-20329172D01*
X20411230Y-87723602D02*
X20429627Y-87675680D01*
X65294510Y-20280317D02*
X65320177Y-20235864D01*
X22544164Y-67746318D02*
X22520075Y-67789717D01*
X190068Y-65404754D02*
X230807Y-65433109D01*
X20437528Y-22846949D02*
X20420289Y-22800402D01*
X42550153Y-42990557D02*
X42598971Y-42974693D01*
X42645864Y-65457451D02*
X42690317Y-65431784D01*
X87518971Y-87981967D02*
X87565864Y-87961088D01*
X87780177Y-65243138D02*
X87801056Y-65196245D01*
X22470000Y-45501874D02*
X22465768Y-53759092D01*
X21461000Y-56759092D02*
X22464231Y-56759092D01*
X44924231Y-79262729D02*
X44920000Y-87520911D01*
X67412471Y-22851549D02*
X67400030Y-22899600D01*
X64985188Y-20492915D02*
X65034769Y-20479627D01*
X87754510Y-65287591D02*
X87780177Y-65243138D01*
X20457485Y-440427D02*
X20449969Y-391363D01*
X67880000Y-45011874D02*
X67830427Y-45014388D01*
X65357528Y-45350586D02*
X65340289Y-45304039D01*
X45032519Y-67705579D02*
X45004164Y-67746318D01*
X22480030Y-67906874D02*
X22472514Y-67955938D01*
X22604851Y-22660643D02*
X22572519Y-22698305D01*
X65189931Y-22606156D02*
X65149192Y-22577801D01*
X10030Y-87619547D02*
X22471Y-87667598D01*
X112519Y-22698305D02*
X84164Y-22739044D01*
X61570Y-87758708D02*
X87825Y-87800832D01*
X65292174Y-210078D02*
X65261791Y-170827D01*
X2514Y-42563209D02*
X10030Y-42612273D01*
X87830947Y-20064489D02*
X87833636Y-20013228D01*
X22470030Y-42612273D02*
X22482471Y-42660324D01*
X10000Y-494600D02*
X0Y-20010000D01*
X45140078Y-67603336D02*
X45100827Y-67633719D01*
X56650000Y-67512857D02*
X56650000Y-66511910D01*
X20456329Y-34255455D02*
X21459000Y-34255455D01*
X42801791Y-67681738D02*
X42767593Y-67645762D01*
X53650000Y-20501538D02*
X53650000Y-21503136D01*
X20374510Y-20280317D02*
X20400177Y-20235864D01*
X42667797Y-61570D02*
X42623234Y-39710D01*
X22960000Y-4600D02*
X22910427Y-7114D01*
X56650000Y-66509910D02*
X56650000Y-65509373D01*
X391363Y-65497243D02*
X440427Y-65504759D01*
X22492471Y-45355186D02*
X22480030Y-45403237D01*
X22460000Y-65017274D02*
X22462514Y-65066846D01*
X8730000Y-66511910D02*
X8730000Y-67513566D01*
X65036687Y-67533382D02*
X64988636Y-67520941D01*
X19970000Y-67510911D02*
X11730000Y-67512857D01*
X8730000Y-20501538D02*
X8730000Y-21503136D01*
X42917307Y-53759092D02*
X42920000Y-45497274D01*
X45072406Y-65372422D02*
X45110068Y-65404754D01*
X87752174Y-67720989D02*
X87721791Y-67681738D01*
X20116687Y-67533382D02*
X20068636Y-67520941D01*
X118208Y-42832809D02*
X152406Y-42868785D01*
X20230317Y-42928147D02*
X20271845Y-42897975D01*
X22756765Y-42963926D02*
X22803312Y-42981165D01*
X22861363Y-45021904D02*
X22813312Y-45034345D01*
X87825Y-87800832D02*
X118208Y-87840083D01*
X44930000Y-68005511D02*
X44925768Y-76262729D01*
X67498208Y-42832809D02*
X67532406Y-42868785D01*
X20185793Y-22553712D02*
X20163234Y-22543347D01*
X67723312Y-42981165D02*
X67771363Y-42993606D01*
X42528636Y-22513667D02*
X42479572Y-22506151D01*
X42881056Y-87699882D02*
X42896920Y-87651064D01*
X43921000Y-34255455D02*
X44924231Y-34255455D01*
X65261791Y-170827D02*
X65227593Y-134851D01*
X67699820Y-20469498D02*
X67723312Y-20477528D01*
X65380000Y-45497274D02*
X65377485Y-45447701D01*
X22578208Y-42832809D02*
X22612406Y-42868785D01*
X44980075Y-278806D02*
X44960501Y-324420D01*
X190068Y-20397480D02*
X230807Y-20425835D01*
X42767593Y-67645762D02*
X42729931Y-67613430D01*
X65229991Y-65367265D02*
X65264338Y-65329119D01*
X61570Y-42751434D02*
X87825Y-42793558D01*
X20442915Y-87626099D02*
X20450947Y-87575400D01*
X31190000Y-67513566D02*
X22960000Y-67515511D01*
X319820Y-65476772D02*
X343312Y-65484802D01*
X65010153Y-87997831D02*
X65058971Y-87981967D01*
X45360427Y-65504759D02*
X45410000Y-65507274D01*
X500000Y-4600D02*
X450427Y-7114D01*
X42767593Y-45142125D02*
X42729931Y-45109793D01*
X21459000Y-8751818D02*
X20457307Y-8751818D01*
X67570068Y-87908391D02*
X67610807Y-87936746D01*
X60075Y-22782443D02*
X49710Y-22805002D01*
X22779820Y-87980409D02*
X22827180Y-87995268D01*
X45182202Y-45073444D02*
X45140078Y-45099699D01*
X42880289Y-296765D02*
X42858429Y-252202D01*
X45064851Y-67667917D02*
X45032519Y-67705579D01*
X20185864Y-20450177D02*
X20230317Y-20424510D01*
X22612406Y-65372422D02*
X22650068Y-65404754D01*
X42909969Y-391363D02*
X42897528Y-343312D01*
X87752174Y-22713715D02*
X87721791Y-22674464D01*
X42731845Y-65401612D02*
X42769991Y-65367265D01*
X44932514Y-45452301D02*
X44930000Y-45501874D01*
X44940030Y-45403237D02*
X44932514Y-45452301D01*
X42729931Y-67613430D02*
X42689192Y-67585075D01*
X67870000Y-88010911D02*
X87343228Y-88014547D01*
X44942471Y-20156687D02*
X44959710Y-20203234D01*
X45370427Y-45014388D02*
X45321363Y-45021904D01*
X60075Y-67789717D02*
X40501Y-67835331D01*
X0Y-65017274D02*
X2514Y-65066846D01*
X65377307Y-76262729D02*
X65380000Y-68000911D01*
X87817528Y-343312D02*
X87800289Y-296765D01*
X11730000Y-44008273D02*
X11730000Y-44006273D01*
X87651845Y-20394338D02*
X87689991Y-20359991D01*
X65294510Y-87791228D02*
X65320177Y-87746775D01*
X22766765Y-44310D02*
X22722202Y-66170D01*
X44925768Y-31255455D02*
X43921000Y-31255455D01*
X45038208Y-65336446D02*
X45072406Y-65372422D01*
X22803312Y-65484802D02*
X22851363Y-65497243D01*
X67642202Y-45073444D02*
X67600078Y-45099699D01*
X65189931Y-67613430D02*
X65149192Y-67585075D01*
X65349627Y-65172043D02*
X65362915Y-65122462D01*
X87394489Y-65508221D02*
X87445188Y-65500189D01*
X45150807Y-65433109D02*
X45194206Y-65457198D01*
X87565864Y-65457451D02*
X87610317Y-65431784D01*
X67610807Y-20425835D02*
X67654206Y-20449924D01*
X87833636Y-42516865D02*
X87840000Y-22993637D01*
X44959710Y-42706871D02*
X44981570Y-42751434D01*
X65373636Y-20013228D02*
X65376329Y-11751818D01*
X22950000Y-65507274D02*
X31190000Y-65508812D01*
X44942471Y-42660324D02*
X44959710Y-42706871D01*
X87494769Y-20479627D02*
X87542691Y-20461230D01*
X42622691Y-20461230D02*
X42645864Y-20450177D01*
X20450947Y-65071763D02*
X20453636Y-65020502D01*
X45311363Y-42993606D02*
X45360427Y-43001122D01*
X79110000Y-44006273D02*
X79110000Y-43005736D01*
X64890000Y-22503637D02*
X56650000Y-22505583D01*
X45410000Y-65507274D02*
X53650000Y-65508812D01*
X45273312Y-67537982D02*
X45226765Y-67555221D01*
X67771363Y-20489969D02*
X67820427Y-20497485D01*
X67532406Y-87876059D02*
X67570068Y-87908391D01*
X67781363Y-14630D02*
X67733312Y-27071D01*
X76110000Y-65508812D02*
X76110000Y-66509910D01*
X67820427Y-20497485D02*
X67870000Y-20500000D01*
X34190000Y-21503136D02*
X34190000Y-20502099D01*
X22650068Y-20397480D02*
X22690807Y-20425835D01*
X45311363Y-65497243D02*
X45360427Y-65504759D01*
X20090153Y-87997831D02*
X20138971Y-87981967D01*
X67532406Y-20365148D02*
X67570068Y-20397480D01*
X42917485Y-45447701D02*
X42909969Y-45398637D01*
X22509710Y-301365D02*
X22492471Y-347912D01*
X65036687Y-45029745D02*
X64988636Y-45017304D01*
X87649931Y-67613430D02*
X87609192Y-67585075D01*
X22960000Y-67515511D02*
X22910427Y-67518025D01*
X67392514Y-22948664D02*
X67390000Y-22998237D01*
X40501Y-45331694D02*
X32471Y-45355186D01*
X64890000Y-67510911D02*
X56650000Y-67512857D01*
X45110068Y-42901117D02*
X45150807Y-42929472D01*
X65105793Y-50075D02*
X65060179Y-30501D01*
X67419710Y-20203234D02*
X67441570Y-20247797D01*
X65369969Y-67902274D02*
X65357528Y-67854223D01*
X22547825Y-20289921D02*
X22578208Y-20329172D01*
X22470000Y-494600D02*
X22465768Y-8751818D01*
X21461000Y-34255455D02*
X22464231Y-34255455D01*
X65229991Y-42863628D02*
X65264338Y-42825482D01*
X42574769Y-20479627D02*
X42622691Y-20461230D01*
X42690317Y-20424510D02*
X42731845Y-20394338D01*
X8730000Y-21503136D02*
X8730000Y-21505136D01*
X42860177Y-87746775D02*
X42881056Y-87699882D01*
X76110000Y-44006273D02*
X76110000Y-44008273D01*
X22482471Y-42660324D02*
X22499710Y-42706871D01*
X65227593Y-22638488D02*
X65189931Y-22606156D01*
X20457307Y-31255455D02*
X20460000Y-22993637D01*
X87752174Y-210078D02*
X87721791Y-170827D01*
X20229192Y-74164D02*
X20185793Y-50075D01*
X44922514Y-42563209D02*
X44930030Y-42612273D01*
X42801791Y-45178101D02*
X42767593Y-45142125D01*
X87687593Y-67645762D02*
X87649931Y-67613430D01*
X20429627Y-65172043D02*
X20442915Y-65122462D01*
X65377307Y-31255455D02*
X65380000Y-22993637D01*
X67830427Y-67518025D02*
X67781363Y-67525541D01*
X42913636Y-20013228D02*
X42916329Y-11751818D01*
X42474489Y-43004584D02*
X42499944Y-43001232D01*
X20449969Y-22895000D02*
X20437528Y-22846949D01*
X67795800Y-88005260D02*
X67820427Y-88008396D01*
X20309991Y-87870902D02*
X20344338Y-87832756D01*
X53650000Y-66509910D02*
X53650000Y-66511910D01*
X2514Y-20059572D02*
X10030Y-20108636D01*
X42600179Y-45037775D02*
X42576687Y-45029745D01*
X87833636Y-65020502D02*
X87840000Y-45497274D01*
X22690807Y-20425835D02*
X22734206Y-20449924D01*
X22520075Y-278806D02*
X22509710Y-301365D01*
X42896920Y-42643790D02*
X42907595Y-42593581D01*
X22690807Y-65433109D02*
X22734206Y-65457198D01*
X22640827Y-67633719D02*
X22604851Y-67667917D01*
X274206Y-65457198D02*
X319820Y-65476772D01*
X42832174Y-22713715D02*
X42801791Y-22674464D01*
X22492471Y-67858823D02*
X22480030Y-67906874D01*
X45182202Y-67577081D02*
X45140078Y-67603336D01*
X20453636Y-42516865D02*
X20456329Y-34255455D01*
X79110000Y-67512857D02*
X79110000Y-66511910D01*
X44942471Y-87667598D02*
X44959710Y-87714145D01*
X45007825Y-87800832D02*
X45038208Y-87840083D01*
X34190000Y-45009220D02*
X34190000Y-44008273D01*
X152406Y-20365148D02*
X190068Y-20397480D01*
X45140078Y-22596062D02*
X45100827Y-22626445D01*
X87817528Y-45350586D02*
X87800289Y-45304039D01*
X67686765Y-45051584D02*
X67642202Y-45073444D01*
X274206Y-20449924D02*
X296765Y-20460289D01*
X45072406Y-20365148D02*
X45110068Y-20397480D01*
X11730000Y-44006273D02*
X11730000Y-43005736D01*
X67830427Y-22510751D02*
X67781363Y-22518267D01*
X220078Y-45099699D02*
X180827Y-45130082D01*
X42917307Y-8751818D02*
X42920000Y-490000D01*
X79110000Y-44008273D02*
X79110000Y-44006273D01*
X42598971Y-42974693D02*
X42645864Y-42953814D01*
X22472514Y-67955938D02*
X22470000Y-68005511D01*
X87778429Y-45259476D02*
X87752174Y-45217352D01*
X42860177Y-42739501D02*
X42881056Y-42692608D01*
X21459000Y-56759092D02*
X21461000Y-56759092D01*
X20230317Y-65431784D02*
X20271845Y-65401612D01*
X65362915Y-87626099D02*
X65370947Y-87575400D01*
X20068636Y-45017304D02*
X20019572Y-45009788D01*
X43919000Y-8751818D02*
X42917307Y-8751818D01*
X67600078Y-22596062D02*
X67560827Y-22626445D01*
X44932514Y-67955938D02*
X44930000Y-68005511D01*
X67654206Y-65457198D02*
X67699820Y-65476772D01*
X22650068Y-42901117D02*
X22690807Y-42929472D01*
X31190000Y-66511910D02*
X31190000Y-67513566D01*
X20387926Y-87769337D02*
X20411230Y-87723602D01*
X45072406Y-87876059D02*
X45110068Y-87908391D01*
X87801056Y-87699882D02*
X87816920Y-87651064D01*
X67420501Y-22828057D02*
X67412471Y-22851549D01*
X84164Y-45242681D02*
X60075Y-45286080D01*
X65082691Y-20461230D02*
X65128426Y-20437926D01*
X31190000Y-22506292D02*
X22960000Y-22508237D01*
X20344338Y-42825482D02*
X20374510Y-42783954D01*
X22640827Y-122808D02*
X22604851Y-157006D01*
X42907595Y-87600855D02*
X42910947Y-87575400D01*
X87817528Y-67854223D02*
X87800289Y-67807676D01*
X64988636Y-67520941D02*
X64939572Y-67513425D01*
X11730000Y-66511910D02*
X11730000Y-66509910D01*
X22604851Y-157006D02*
X22572519Y-194668D01*
X34190000Y-44006273D02*
X34190000Y-43005736D01*
X391363Y-20489969D02*
X440427Y-20497485D01*
X11730000Y-22505583D02*
X11730000Y-21505136D01*
X87610317Y-42928147D02*
X87651845Y-42897975D01*
X42528636Y-10030D02*
X42479572Y-2514D01*
X67610807Y-87936746D02*
X67654206Y-87960835D01*
X56650000Y-43005736D02*
X64883228Y-43007273D01*
X53650000Y-44006273D02*
X53650000Y-44008273D01*
X65105793Y-67560986D02*
X65060179Y-67541412D01*
X20420289Y-22800402D02*
X20398429Y-22755839D01*
X53650000Y-66511910D02*
X53650000Y-67513566D01*
X32471Y-67858823D02*
X20030Y-67906874D01*
X20341791Y-67681738D02*
X20307593Y-67645762D01*
X87724338Y-65329119D02*
X87754510Y-65287591D01*
X44924231Y-11751818D02*
X44920000Y-20010000D01*
X11730000Y-66509910D02*
X11730000Y-65509373D01*
X22521570Y-65255071D02*
X22547825Y-65297195D01*
X42897528Y-67854223D02*
X42880289Y-67807676D01*
X21461000Y-31255455D02*
X21459000Y-31255455D01*
X220078Y-67603336D02*
X180827Y-67633719D01*
X45194206Y-42953561D02*
X45239820Y-42973135D01*
X64988636Y-22513667D02*
X64939572Y-22506151D01*
X440427Y-88008396D02*
X490000Y-88010911D01*
X67400030Y-67906874D02*
X67392514Y-67955938D01*
X65294510Y-65287591D02*
X65320177Y-65243138D01*
X45100827Y-67633719D02*
X45064851Y-67667917D01*
X87830947Y-65071763D02*
X87833636Y-65020502D01*
X67402471Y-20156687D02*
X67419710Y-20203234D01*
X20437528Y-45350586D02*
X20420289Y-45304039D01*
X76110000Y-21503136D02*
X76110000Y-21505136D01*
X20374510Y-65287591D02*
X20387926Y-65265700D01*
X45226765Y-22547947D02*
X45182202Y-22569807D01*
X20030Y-22899600D02*
X12514Y-22948664D01*
X42709921Y-87825D02*
X42667797Y-61570D01*
X42769991Y-20359991D02*
X42804338Y-20321845D01*
X42525188Y-65500189D02*
X42574769Y-65486901D01*
X61570Y-20247797D02*
X87825Y-20289921D01*
X31190000Y-20501538D02*
X31190000Y-21503136D01*
X152406Y-42868785D02*
X190068Y-42901117D01*
X262202Y-66170D02*
X220078Y-92425D01*
X87394489Y-43004584D02*
X87419944Y-43001232D01*
X20014489Y-88011858D02*
X20039944Y-88008506D01*
X42913636Y-42516865D02*
X42916329Y-34255455D01*
X87448636Y-10030D02*
X87399572Y-2514D01*
X20453636Y-87524139D02*
X20456329Y-79262729D01*
X22465768Y-31255455D02*
X21461000Y-31255455D01*
X45239820Y-42973135D02*
X45263312Y-42981165D01*
X67686765Y-44310D02*
X67642202Y-66170D01*
X87724338Y-20321845D02*
X87754510Y-20280317D01*
X45360427Y-88008396D02*
X45410000Y-88010911D01*
X144851Y-157006D02*
X112519Y-194668D01*
X20398429Y-252202D02*
X20372174Y-210078D01*
X45239820Y-87980409D02*
X45287180Y-87995268D01*
X274206Y-87960835D02*
X319820Y-87980409D01*
X65349627Y-20164769D02*
X65362915Y-20115188D01*
X45140078Y-92425D02*
X45100827Y-122808D01*
X22480030Y-22899600D02*
X22472514Y-22948664D01*
M02*
