M48
; DRILL file {KiCad 9.0.2} date 2025-08-26T18:02:08+0200
; FORMAT={-:-/ absolute / inch / decimal}
; #@! TF.CreationDate,2025-08-26T18:02:08+02:00
; #@! TF.GenerationSoftware,Kicad,Pcbnew,9.0.2
; #@! TF.FileFunction,Plated,1,2,PTH
FMAT,2
INCH
; #@! TA.AperFunction,Plated,PTH,ComponentDrill
T1C0.0315
; #@! TA.AperFunction,Plated,PTH,ComponentDrill
T2C0.0354
; #@! TA.AperFunction,Plated,PTH,ComponentDrill
T3C0.0394
%
G90
G05
T1
X0.5086Y-0.5434
X0.5086Y-0.6379
X0.5086Y-0.7324
X0.5086Y-1.5869
X0.5086Y-1.6813
X0.5086Y-1.7758
X0.5086Y-2.6303
X0.5086Y-2.7248
X0.5086Y-2.8193
X0.5086Y-3.6738
X0.5086Y-3.7682
X0.5086Y-3.8627
X0.7546Y-0.5434
X0.7546Y-0.6379
X0.7546Y-0.7324
X0.7546Y-1.5869
X0.7546Y-1.6813
X0.7546Y-1.7758
X0.7546Y-2.6303
X0.7546Y-2.7248
X0.7546Y-2.8193
X0.7546Y-3.6738
X0.7546Y-3.7682
X0.7546Y-3.8627
X1.5503Y-0.5434
X1.5503Y-0.6379
X1.5503Y-0.7324
X1.5503Y-1.5869
X1.5503Y-1.6813
X1.5503Y-1.7758
X1.5503Y-2.6303
X1.5503Y-2.7248
X1.5503Y-2.8193
X1.5503Y-3.6738
X1.5503Y-3.7682
X1.5503Y-3.8627
X1.7964Y-0.5434
X1.7964Y-0.6379
X1.7964Y-0.7324
X1.7964Y-1.5869
X1.7964Y-1.6813
X1.7964Y-1.7758
X1.7964Y-2.6303
X1.7964Y-2.7248
X1.7964Y-2.8193
X1.7964Y-3.6738
X1.7964Y-3.7682
X1.7964Y-3.8627
X2.592Y-0.5434
X2.592Y-0.6379
X2.592Y-0.7324
X2.592Y-1.5869
X2.592Y-1.6813
X2.592Y-1.7758
X2.592Y-2.6303
X2.592Y-2.7248
X2.592Y-2.8193
X2.592Y-3.6738
X2.592Y-3.7682
X2.592Y-3.8627
X2.8381Y-0.5434
X2.8381Y-0.6379
X2.8381Y-0.7324
X2.8381Y-1.5869
X2.8381Y-1.6813
X2.8381Y-1.7758
X2.8381Y-2.6303
X2.8381Y-2.7248
X2.8381Y-2.8193
X2.8381Y-3.6738
X2.8381Y-3.7682
X2.8381Y-3.8627
X3.6338Y-0.5434
X3.6338Y-0.6379
X3.6338Y-0.7324
X3.6338Y-1.5869
X3.6338Y-1.6813
X3.6338Y-1.7758
X3.6338Y-2.6303
X3.6338Y-2.7248
X3.6338Y-2.8193
X3.6338Y-3.6738
X3.6338Y-3.7682
X3.6338Y-3.8627
X3.8798Y-0.5434
X3.8798Y-0.6379
X3.8798Y-0.7324
X3.8798Y-1.5869
X3.8798Y-1.6813
X3.8798Y-1.7758
X3.8798Y-2.6303
X3.8798Y-2.7248
X3.8798Y-2.8193
X3.8798Y-3.6738
X3.8798Y-3.7682
X3.8798Y-3.8627
T2
X0.4534Y-0.4494
X0.4534Y-0.8274
X0.4534Y-1.4929
X0.4534Y-1.8708
X0.4534Y-2.5363
X0.4534Y-2.9143
X0.4534Y-3.5798
X0.4534Y-3.9577
X0.5534Y-0.4494
X0.5534Y-0.8274
X0.5534Y-1.4929
X0.5534Y-1.8708
X0.5534Y-2.5363
X0.5534Y-2.9143
X0.5534Y-3.5798
X0.5534Y-3.9577
X0.7284Y-0.8264
X0.7284Y-1.8698
X0.7284Y-2.9133
X0.7284Y-3.9567
X0.7294Y-0.4494
X0.7294Y-1.4929
X0.7294Y-2.5363
X0.7294Y-3.5798
X0.8284Y-0.8264
X0.8284Y-1.8698
X0.8284Y-2.9133
X0.8284Y-3.9567
X0.8294Y-0.4494
X0.8294Y-1.4929
X0.8294Y-2.5363
X0.8294Y-3.5798
X1.4952Y-0.4494
X1.4952Y-0.8274
X1.4952Y-1.4929
X1.4952Y-1.8708
X1.4952Y-2.5363
X1.4952Y-2.9143
X1.4952Y-3.5798
X1.4952Y-3.9577
X1.5952Y-0.4494
X1.5952Y-0.8274
X1.5952Y-1.4929
X1.5952Y-1.8708
X1.5952Y-2.5363
X1.5952Y-2.9143
X1.5952Y-3.5798
X1.5952Y-3.9577
X1.7702Y-0.8264
X1.7702Y-1.8698
X1.7702Y-2.9133
X1.7702Y-3.9567
X1.7712Y-0.4494
X1.7712Y-1.4929
X1.7712Y-2.5363
X1.7712Y-3.5798
X1.8702Y-0.8264
X1.8702Y-1.8698
X1.8702Y-2.9133
X1.8702Y-3.9567
X1.8712Y-0.4494
X1.8712Y-1.4929
X1.8712Y-2.5363
X1.8712Y-3.5798
X2.5369Y-0.4494
X2.5369Y-0.8274
X2.5369Y-1.4929
X2.5369Y-1.8708
X2.5369Y-2.5363
X2.5369Y-2.9143
X2.5369Y-3.5798
X2.5369Y-3.9577
X2.6369Y-0.4494
X2.6369Y-0.8274
X2.6369Y-1.4929
X2.6369Y-1.8708
X2.6369Y-2.5363
X2.6369Y-2.9143
X2.6369Y-3.5798
X2.6369Y-3.9577
X2.8119Y-0.8264
X2.8119Y-1.8698
X2.8119Y-2.9133
X2.8119Y-3.9567
X2.8129Y-0.4494
X2.8129Y-1.4929
X2.8129Y-2.5363
X2.8129Y-3.5798
X2.9119Y-0.8264
X2.9119Y-1.8698
X2.9119Y-2.9133
X2.9119Y-3.9567
X2.9129Y-0.4494
X2.9129Y-1.4929
X2.9129Y-2.5363
X2.9129Y-3.5798
X3.5786Y-0.4494
X3.5786Y-0.8274
X3.5786Y-1.4929
X3.5786Y-1.8708
X3.5786Y-2.5363
X3.5786Y-2.9143
X3.5786Y-3.5798
X3.5786Y-3.9577
X3.6786Y-0.4494
X3.6786Y-0.8274
X3.6786Y-1.4929
X3.6786Y-1.8708
X3.6786Y-2.5363
X3.6786Y-2.9143
X3.6786Y-3.5798
X3.6786Y-3.9577
X3.8536Y-0.8264
X3.8536Y-1.8698
X3.8536Y-2.9133
X3.8536Y-3.9567
X3.8546Y-0.4494
X3.8546Y-1.4929
X3.8546Y-2.5363
X3.8546Y-3.5798
X3.9536Y-0.8264
X3.9536Y-1.8698
X3.9536Y-2.9133
X3.9536Y-3.9567
X3.9546Y-0.4494
X3.9546Y-1.4929
X3.9546Y-2.5363
X3.9546Y-3.5798
T3
X0.3299Y-0.5886
X0.3299Y-0.6886
X0.3299Y-1.632
X0.3299Y-1.732
X0.3299Y-2.6755
X0.3299Y-2.7755
X0.3299Y-3.7189
X0.3299Y-3.8189
X0.9461Y-0.4642
X0.9461Y-0.5642
X0.9461Y-0.6642
X0.9461Y-0.7642
X0.9461Y-1.5076
X0.9461Y-1.6076
X0.9461Y-1.7076
X0.9461Y-1.8076
X0.9461Y-2.5511
X0.9461Y-2.6511
X0.9461Y-2.7511
X0.9461Y-2.8511
X0.9461Y-3.5945
X0.9461Y-3.6945
X0.9461Y-3.7945
X0.9461Y-3.8945
X1.3717Y-0.5886
X1.3717Y-0.6886
X1.3717Y-1.632
X1.3717Y-1.732
X1.3717Y-2.6755
X1.3717Y-2.7755
X1.3717Y-3.7189
X1.3717Y-3.8189
X1.9878Y-0.4642
X1.9878Y-0.5642
X1.9878Y-0.6642
X1.9878Y-0.7642
X1.9878Y-1.5076
X1.9878Y-1.6076
X1.9878Y-1.7076
X1.9878Y-1.8076
X1.9878Y-2.5511
X1.9878Y-2.6511
X1.9878Y-2.7511
X1.9878Y-2.8511
X1.9878Y-3.5945
X1.9878Y-3.6945
X1.9878Y-3.7945
X1.9878Y-3.8945
X2.4134Y-0.5886
X2.4134Y-0.6886
X2.4134Y-1.632
X2.4134Y-1.732
X2.4134Y-2.6755
X2.4134Y-2.7755
X2.4134Y-3.7189
X2.4134Y-3.8189
X3.0295Y-0.4642
X3.0295Y-0.5642
X3.0295Y-0.6642
X3.0295Y-0.7642
X3.0295Y-1.5076
X3.0295Y-1.6076
X3.0295Y-1.7076
X3.0295Y-1.8076
X3.0295Y-2.5511
X3.0295Y-2.6511
X3.0295Y-2.7511
X3.0295Y-2.8511
X3.0295Y-3.5945
X3.0295Y-3.6945
X3.0295Y-3.7945
X3.0295Y-3.8945
X3.4551Y-0.5886
X3.4551Y-0.6886
X3.4551Y-1.632
X3.4551Y-1.732
X3.4551Y-2.6755
X3.4551Y-2.7755
X3.4551Y-3.7189
X3.4551Y-3.8189
X4.0713Y-0.4642
X4.0713Y-0.5642
X4.0713Y-0.6642
X4.0713Y-0.7642
X4.0713Y-1.5076
X4.0713Y-1.6076
X4.0713Y-1.7076
X4.0713Y-1.8076
X4.0713Y-2.5511
X4.0713Y-2.6511
X4.0713Y-2.7511
X4.0713Y-2.8511
X4.0713Y-3.5945
X4.0713Y-3.6945
X4.0713Y-3.7945
X4.0713Y-3.8945
M30
