%TF.GenerationSoftware,KiCad,Pcbnew,9.0.3*%
%TF.CreationDate,2025-08-06T22:13:45+02:00*%
%TF.ProjectId,Korry,4b6f7272-792e-46b6-9963-61645f706362,rev?*%
%TF.SameCoordinates,Original*%
%TF.FileFunction,Copper,L1,Top*%
%TF.FilePolarity,Positive*%
%FSLAX46Y46*%
G04 Gerber Fmt 4.6, Leading zero omitted, Abs format (unit mm)*
G04 Created by KiCad (PCBNEW 9.0.3) date 2025-08-06 22:13:45*
%MOMM*%
%LPD*%
G01*
G04 APERTURE LIST*
%TA.AperFunction,ComponentPad*%
%ADD10C,2.100000*%
%TD*%
%TA.AperFunction,ComponentPad*%
%ADD11R,1.800000X1.800000*%
%TD*%
%TA.AperFunction,ComponentPad*%
%ADD12C,1.800000*%
%TD*%
%TA.AperFunction,ComponentPad*%
%ADD13R,1.700000X1.700000*%
%TD*%
%TA.AperFunction,ComponentPad*%
%ADD14C,1.700000*%
%TD*%
%TA.AperFunction,Conductor*%
%ADD15C,0.200000*%
%TD*%
%TA.AperFunction,Conductor*%
%ADD16C,0.500000*%
%TD*%
G04 APERTURE END LIST*
D10*
%TO.P,U1,1,SW_COM*%
%TO.N,Net-(J1-Pin_1)*%
X67187501Y-59562501D03*
%TO.P,U1,2,SW1*%
%TO.N,Net-(J1-Pin_2)*%
X67187501Y-57162501D03*
%TO.P,U1,3,NC*%
%TO.N,unconnected-(U1-NC-Pad3)*%
X67187501Y-54762501D03*
%TO.P,U1,4,NC*%
%TO.N,unconnected-(U1-NC-Pad4)*%
X73437501Y-59562501D03*
%TO.P,U1,5,NC*%
%TO.N,unconnected-(U1-NC-Pad5)*%
X73437501Y-57162501D03*
%TO.P,U1,6,NC*%
%TO.N,unconnected-(U1-NC-Pad6)*%
X73437501Y-54762501D03*
%TD*%
D11*
%TO.P,D2,1,K*%
%TO.N,Net-(D2-K)*%
X65787501Y-52375001D03*
D12*
%TO.P,D2,2,A*%
%TO.N,Net-(D1-A)*%
X68327501Y-52375001D03*
%TD*%
D11*
%TO.P,D1,1,K*%
%TO.N,Net-(D1-K)*%
X72797501Y-52375001D03*
D12*
%TO.P,D1,2,A*%
%TO.N,Net-(D1-A)*%
X75337501Y-52375001D03*
%TD*%
D13*
%TO.P,J2,1,Pin_1*%
%TO.N,Net-(D1-A)*%
X78300000Y-52750000D03*
D14*
%TO.P,J2,2,Pin_2*%
%TO.N,Net-(J2-Pin_2)*%
X78300000Y-55290000D03*
%TO.P,J2,3,Pin_3*%
%TO.N,Net-(D3-A)*%
X78300000Y-57830000D03*
%TO.P,J2,4,Pin_4*%
%TO.N,Net-(J2-Pin_4)*%
X78300000Y-60370000D03*
%TD*%
D11*
%TO.P,D4,1,K*%
%TO.N,Net-(D4-K)*%
X72772501Y-61950001D03*
D12*
%TO.P,D4,2,A*%
%TO.N,Net-(D3-A)*%
X75312501Y-61950001D03*
%TD*%
D13*
%TO.P,J1,1,Pin_1*%
%TO.N,Net-(J1-Pin_1)*%
X62650000Y-58450000D03*
D14*
%TO.P,J1,2,Pin_2*%
%TO.N,Net-(J1-Pin_2)*%
X62650000Y-55910000D03*
%TD*%
D11*
%TO.P,D3,1,K*%
%TO.N,Net-(D3-K)*%
X65787501Y-61975001D03*
D12*
%TO.P,D3,2,A*%
%TO.N,Net-(D3-A)*%
X68327501Y-61975001D03*
%TD*%
D15*
%TO.N,Net-(D1-A)*%
X68327501Y-52375001D02*
X68326000Y-52373500D01*
D16*
X68707000Y-50673000D02*
X74803000Y-50673000D01*
X75337501Y-51207501D02*
X75337501Y-52375001D01*
X68327501Y-51052499D02*
X68707000Y-50673000D01*
X68327501Y-52375001D02*
X68327501Y-51052499D01*
X74803000Y-50673000D02*
X75337501Y-51207501D01*
%TO.N,Net-(D3-A)*%
X75312501Y-63244499D02*
X74676000Y-63881000D01*
X75312501Y-61950001D02*
X75312501Y-63244499D01*
X74676000Y-63881000D02*
X68580000Y-63881000D01*
X68327501Y-63628501D02*
X68580000Y-63881000D01*
X68327501Y-61975001D02*
X68327501Y-63628501D01*
%TD*%
M02*
