%TF.GenerationSoftware,KiCad,Pcbnew,9.0.2*%
%TF.CreationDate,2025-08-26T18:02:08+02:00*%
%TF.ProjectId,KorryPanelsV2,4b6f7272-7950-4616-9e65-6c7356322e6b,rev?*%
%TF.SameCoordinates,Original*%
%TF.FileFunction,Copper,L2,Bot*%
%TF.FilePolarity,Positive*%
%FSLAX46Y46*%
G04 Gerber Fmt 4.6, Leading zero omitted, Abs format (unit mm)*
G04 Created by KiCad (PCBNEW 9.0.2) date 2025-08-26 18:02:08*
%MOMM*%
%LPD*%
G01*
G04 APERTURE LIST*
G04 Aperture macros list*
%AMRoundRect*
0 Rectangle with rounded corners*
0 $1 Rounding radius*
0 $2 $3 $4 $5 $6 $7 $8 $9 X,Y pos of 4 corners*
0 Add a 4 corners polygon primitive as box body*
4,1,4,$2,$3,$4,$5,$6,$7,$8,$9,$2,$3,0*
0 Add four circle primitives for the rounded corners*
1,1,$1+$1,$2,$3*
1,1,$1+$1,$4,$5*
1,1,$1+$1,$6,$7*
1,1,$1+$1,$8,$9*
0 Add four rect primitives between the rounded corners*
20,1,$1+$1,$2,$3,$4,$5,0*
20,1,$1+$1,$4,$5,$6,$7,0*
20,1,$1+$1,$6,$7,$8,$9,0*
20,1,$1+$1,$8,$9,$2,$3,0*%
G04 Aperture macros list end*
%TA.AperFunction,SMDPad,CuDef*%
%ADD10RoundRect,0.250000X-0.400000X-1.075000X0.400000X-1.075000X0.400000X1.075000X-0.400000X1.075000X0*%
%TD*%
%TA.AperFunction,ComponentPad*%
%ADD11R,1.700000X1.700000*%
%TD*%
%TA.AperFunction,ComponentPad*%
%ADD12C,1.700000*%
%TD*%
%TA.AperFunction,ComponentPad*%
%ADD13R,1.800000X1.800000*%
%TD*%
%TA.AperFunction,ComponentPad*%
%ADD14C,1.800000*%
%TD*%
%TA.AperFunction,ComponentPad*%
%ADD15C,2.100000*%
%TD*%
%TA.AperFunction,Conductor*%
%ADD16C,0.500000*%
%TD*%
%TA.AperFunction,Conductor*%
%ADD17C,0.200000*%
%TD*%
G04 APERTURE END LIST*
D10*
%TO.P,R3,1*%
%TO.N,Board_2-Net-(D3-K)*%
X62759000Y-23937000D03*
%TO.P,R3,2*%
%TO.N,Board_2-Net-(J2-Pin_4)*%
X65859000Y-23937000D03*
%TD*%
%TO.P,R3,1*%
%TO.N,Board_13-Net-(D3-K)*%
X36299000Y-103447911D03*
%TO.P,R3,2*%
%TO.N,Board_13-Net-(J2-Pin_4)*%
X39399000Y-103447911D03*
%TD*%
D11*
%TO.P,J1,1,Pin_1*%
%TO.N,Board_15-Net-(J1-Pin_1)*%
X87760000Y-97000911D03*
D12*
%TO.P,J1,2,Pin_2*%
%TO.N,Board_15-Net-(J1-Pin_2)*%
X87760000Y-94460911D03*
%TD*%
D11*
%TO.P,J1,1,Pin_1*%
%TO.N,Board_14-Net-(J1-Pin_1)*%
X61300000Y-97000911D03*
D12*
%TO.P,J1,2,Pin_2*%
%TO.N,Board_14-Net-(J1-Pin_2)*%
X61300000Y-94460911D03*
%TD*%
D10*
%TO.P,R1,1*%
%TO.N,Board_10-Net-(D2-K)*%
X62886000Y-61704274D03*
%TO.P,R1,2*%
%TO.N,Board_10-Net-(J2-Pin_2)*%
X65986000Y-61704274D03*
%TD*%
%TO.P,R2,1*%
%TO.N,Board_10-Net-(D1-K)*%
X72157000Y-61697275D03*
%TO.P,R2,2*%
%TO.N,Board_10-Net-(J2-Pin_2)*%
X75257000Y-61697275D03*
%TD*%
%TO.P,R3,1*%
%TO.N,Board_3-Net-(D3-K)*%
X89219000Y-23937000D03*
%TO.P,R3,2*%
%TO.N,Board_3-Net-(J2-Pin_4)*%
X92319000Y-23937000D03*
%TD*%
D11*
%TO.P,J1,1,Pin_1*%
%TO.N,Board_2-Net-(J1-Pin_1)*%
X61300000Y-17490000D03*
D12*
%TO.P,J1,2,Pin_2*%
%TO.N,Board_2-Net-(J1-Pin_2)*%
X61300000Y-14950000D03*
%TD*%
D10*
%TO.P,R2,1*%
%TO.N,Board_9-Net-(D1-K)*%
X45697000Y-61697275D03*
%TO.P,R2,2*%
%TO.N,Board_9-Net-(J2-Pin_2)*%
X48797000Y-61697275D03*
%TD*%
D11*
%TO.P,J2,1,Pin_1*%
%TO.N,Board_2-Net-(D1-A)*%
X76950000Y-11790000D03*
D12*
%TO.P,J2,2,Pin_2*%
%TO.N,Board_2-Net-(J2-Pin_2)*%
X76950000Y-14330000D03*
%TO.P,J2,3,Pin_3*%
%TO.N,Board_2-Net-(D3-A)*%
X76950000Y-16870000D03*
%TO.P,J2,4,Pin_4*%
%TO.N,Board_2-Net-(J2-Pin_4)*%
X76950000Y-19410000D03*
%TD*%
D10*
%TO.P,R4,1*%
%TO.N,Board_11-Net-(D4-K)*%
X99379000Y-76944274D03*
%TO.P,R4,2*%
%TO.N,Board_11-Net-(J2-Pin_4)*%
X102479000Y-76944274D03*
%TD*%
%TO.P,R3,1*%
%TO.N,Board_14-Net-(D3-K)*%
X62759000Y-103447911D03*
%TO.P,R3,2*%
%TO.N,Board_14-Net-(J2-Pin_4)*%
X65859000Y-103447911D03*
%TD*%
%TO.P,R1,1*%
%TO.N,Board_7-Net-(D2-K)*%
X89346000Y-35200637D03*
%TO.P,R1,2*%
%TO.N,Board_7-Net-(J2-Pin_2)*%
X92446000Y-35200637D03*
%TD*%
%TO.P,R2,1*%
%TO.N,Board_7-Net-(D1-K)*%
X98617000Y-35193638D03*
%TO.P,R2,2*%
%TO.N,Board_7-Net-(J2-Pin_2)*%
X101717000Y-35193638D03*
%TD*%
%TO.P,R2,1*%
%TO.N,Board_13-Net-(D1-K)*%
X45697000Y-88200912D03*
%TO.P,R2,2*%
%TO.N,Board_13-Net-(J2-Pin_2)*%
X48797000Y-88200912D03*
%TD*%
D11*
%TO.P,J1,1,Pin_1*%
%TO.N,Board_4-Net-(J1-Pin_1)*%
X8380000Y-43993637D03*
D12*
%TO.P,J1,2,Pin_2*%
%TO.N,Board_4-Net-(J1-Pin_2)*%
X8380000Y-41453637D03*
%TD*%
D10*
%TO.P,R2,1*%
%TO.N,Board_1-Net-(D1-K)*%
X45697000Y-8690001D03*
%TO.P,R2,2*%
%TO.N,Board_1-Net-(J2-Pin_2)*%
X48797000Y-8690001D03*
%TD*%
D11*
%TO.P,J1,1,Pin_1*%
%TO.N,Board_10-Net-(J1-Pin_1)*%
X61300000Y-70497274D03*
D12*
%TO.P,J1,2,Pin_2*%
%TO.N,Board_10-Net-(J1-Pin_2)*%
X61300000Y-67957274D03*
%TD*%
D10*
%TO.P,R4,1*%
%TO.N,Board_12-Net-(D4-K)*%
X19999000Y-103447911D03*
%TO.P,R4,2*%
%TO.N,Board_12-Net-(J2-Pin_4)*%
X23099000Y-103447911D03*
%TD*%
%TO.P,R4,1*%
%TO.N,Board_0-Net-(D4-K)*%
X19999000Y-23937000D03*
%TO.P,R4,2*%
%TO.N,Board_0-Net-(J2-Pin_4)*%
X23099000Y-23937000D03*
%TD*%
D11*
%TO.P,J1,1,Pin_1*%
%TO.N,Board_12-Net-(J1-Pin_1)*%
X8380000Y-97000911D03*
D12*
%TO.P,J1,2,Pin_2*%
%TO.N,Board_12-Net-(J1-Pin_2)*%
X8380000Y-94460911D03*
%TD*%
D11*
%TO.P,J1,1,Pin_1*%
%TO.N,Board_3-Net-(J1-Pin_1)*%
X87760000Y-17490000D03*
D12*
%TO.P,J1,2,Pin_2*%
%TO.N,Board_3-Net-(J1-Pin_2)*%
X87760000Y-14950000D03*
%TD*%
D10*
%TO.P,R2,1*%
%TO.N,Board_2-Net-(D1-K)*%
X72157000Y-8690001D03*
%TO.P,R2,2*%
%TO.N,Board_2-Net-(J2-Pin_2)*%
X75257000Y-8690001D03*
%TD*%
%TO.P,R2,1*%
%TO.N,Board_8-Net-(D1-K)*%
X19237000Y-61697275D03*
%TO.P,R2,2*%
%TO.N,Board_8-Net-(J2-Pin_2)*%
X22337000Y-61697275D03*
%TD*%
%TO.P,R2,1*%
%TO.N,Board_15-Net-(D1-K)*%
X98617000Y-88200912D03*
%TO.P,R2,2*%
%TO.N,Board_15-Net-(J2-Pin_2)*%
X101717000Y-88200912D03*
%TD*%
%TO.P,R2,1*%
%TO.N,Board_0-Net-(D1-K)*%
X19237000Y-8690001D03*
%TO.P,R2,2*%
%TO.N,Board_0-Net-(J2-Pin_2)*%
X22337000Y-8690001D03*
%TD*%
D11*
%TO.P,J2,1,Pin_1*%
%TO.N,Board_10-Net-(D1-A)*%
X76950000Y-64797274D03*
D12*
%TO.P,J2,2,Pin_2*%
%TO.N,Board_10-Net-(J2-Pin_2)*%
X76950000Y-67337274D03*
%TO.P,J2,3,Pin_3*%
%TO.N,Board_10-Net-(D3-A)*%
X76950000Y-69877274D03*
%TO.P,J2,4,Pin_4*%
%TO.N,Board_10-Net-(J2-Pin_4)*%
X76950000Y-72417274D03*
%TD*%
D10*
%TO.P,R1,1*%
%TO.N,Board_11-Net-(D2-K)*%
X89346000Y-61704274D03*
%TO.P,R1,2*%
%TO.N,Board_11-Net-(J2-Pin_2)*%
X92446000Y-61704274D03*
%TD*%
%TO.P,R4,1*%
%TO.N,Board_1-Net-(D4-K)*%
X46459000Y-23937000D03*
%TO.P,R4,2*%
%TO.N,Board_1-Net-(J2-Pin_4)*%
X49559000Y-23937000D03*
%TD*%
D11*
%TO.P,J2,1,Pin_1*%
%TO.N,Board_4-Net-(D1-A)*%
X24030000Y-38293637D03*
D12*
%TO.P,J2,2,Pin_2*%
%TO.N,Board_4-Net-(J2-Pin_2)*%
X24030000Y-40833637D03*
%TO.P,J2,3,Pin_3*%
%TO.N,Board_4-Net-(D3-A)*%
X24030000Y-43373637D03*
%TO.P,J2,4,Pin_4*%
%TO.N,Board_4-Net-(J2-Pin_4)*%
X24030000Y-45913637D03*
%TD*%
D11*
%TO.P,J1,1,Pin_1*%
%TO.N,Board_1-Net-(J1-Pin_1)*%
X34840000Y-17490000D03*
D12*
%TO.P,J1,2,Pin_2*%
%TO.N,Board_1-Net-(J1-Pin_2)*%
X34840000Y-14950000D03*
%TD*%
D11*
%TO.P,J2,1,Pin_1*%
%TO.N,Board_11-Net-(D1-A)*%
X103410000Y-64797274D03*
D12*
%TO.P,J2,2,Pin_2*%
%TO.N,Board_11-Net-(J2-Pin_2)*%
X103410000Y-67337274D03*
%TO.P,J2,3,Pin_3*%
%TO.N,Board_11-Net-(D3-A)*%
X103410000Y-69877274D03*
%TO.P,J2,4,Pin_4*%
%TO.N,Board_11-Net-(J2-Pin_4)*%
X103410000Y-72417274D03*
%TD*%
D10*
%TO.P,R1,1*%
%TO.N,Board_2-Net-(D2-K)*%
X62886000Y-8697000D03*
%TO.P,R1,2*%
%TO.N,Board_2-Net-(J2-Pin_2)*%
X65986000Y-8697000D03*
%TD*%
D11*
%TO.P,J1,1,Pin_1*%
%TO.N,Board_6-Net-(J1-Pin_1)*%
X61300000Y-43993637D03*
D12*
%TO.P,J1,2,Pin_2*%
%TO.N,Board_6-Net-(J1-Pin_2)*%
X61300000Y-41453637D03*
%TD*%
D11*
%TO.P,J2,1,Pin_1*%
%TO.N,Board_3-Net-(D1-A)*%
X103410000Y-11790000D03*
D12*
%TO.P,J2,2,Pin_2*%
%TO.N,Board_3-Net-(J2-Pin_2)*%
X103410000Y-14330000D03*
%TO.P,J2,3,Pin_3*%
%TO.N,Board_3-Net-(D3-A)*%
X103410000Y-16870000D03*
%TO.P,J2,4,Pin_4*%
%TO.N,Board_3-Net-(J2-Pin_4)*%
X103410000Y-19410000D03*
%TD*%
D10*
%TO.P,R3,1*%
%TO.N,Board_5-Net-(D3-K)*%
X36299000Y-50440637D03*
%TO.P,R3,2*%
%TO.N,Board_5-Net-(J2-Pin_4)*%
X39399000Y-50440637D03*
%TD*%
%TO.P,R4,1*%
%TO.N,Board_13-Net-(D4-K)*%
X46459000Y-103447911D03*
%TO.P,R4,2*%
%TO.N,Board_13-Net-(J2-Pin_4)*%
X49559000Y-103447911D03*
%TD*%
%TO.P,R1,1*%
%TO.N,Board_9-Net-(D2-K)*%
X36426000Y-61704274D03*
%TO.P,R1,2*%
%TO.N,Board_9-Net-(J2-Pin_2)*%
X39526000Y-61704274D03*
%TD*%
D11*
%TO.P,J1,1,Pin_1*%
%TO.N,Board_7-Net-(J1-Pin_1)*%
X87760000Y-43993637D03*
D12*
%TO.P,J1,2,Pin_2*%
%TO.N,Board_7-Net-(J1-Pin_2)*%
X87760000Y-41453637D03*
%TD*%
D10*
%TO.P,R1,1*%
%TO.N,Board_13-Net-(D2-K)*%
X36426000Y-88207911D03*
%TO.P,R1,2*%
%TO.N,Board_13-Net-(J2-Pin_2)*%
X39526000Y-88207911D03*
%TD*%
%TO.P,R4,1*%
%TO.N,Board_14-Net-(D4-K)*%
X72919000Y-103447911D03*
%TO.P,R4,2*%
%TO.N,Board_14-Net-(J2-Pin_4)*%
X76019000Y-103447911D03*
%TD*%
D11*
%TO.P,J2,1,Pin_1*%
%TO.N,Board_9-Net-(D1-A)*%
X50490000Y-64797274D03*
D12*
%TO.P,J2,2,Pin_2*%
%TO.N,Board_9-Net-(J2-Pin_2)*%
X50490000Y-67337274D03*
%TO.P,J2,3,Pin_3*%
%TO.N,Board_9-Net-(D3-A)*%
X50490000Y-69877274D03*
%TO.P,J2,4,Pin_4*%
%TO.N,Board_9-Net-(J2-Pin_4)*%
X50490000Y-72417274D03*
%TD*%
D10*
%TO.P,R3,1*%
%TO.N,Board_0-Net-(D3-K)*%
X9839000Y-23937000D03*
%TO.P,R3,2*%
%TO.N,Board_0-Net-(J2-Pin_4)*%
X12939000Y-23937000D03*
%TD*%
%TO.P,R4,1*%
%TO.N,Board_3-Net-(D4-K)*%
X99379000Y-23937000D03*
%TO.P,R4,2*%
%TO.N,Board_3-Net-(J2-Pin_4)*%
X102479000Y-23937000D03*
%TD*%
D11*
%TO.P,J2,1,Pin_1*%
%TO.N,Board_13-Net-(D1-A)*%
X50490000Y-91300911D03*
D12*
%TO.P,J2,2,Pin_2*%
%TO.N,Board_13-Net-(J2-Pin_2)*%
X50490000Y-93840911D03*
%TO.P,J2,3,Pin_3*%
%TO.N,Board_13-Net-(D3-A)*%
X50490000Y-96380911D03*
%TO.P,J2,4,Pin_4*%
%TO.N,Board_13-Net-(J2-Pin_4)*%
X50490000Y-98920911D03*
%TD*%
D11*
%TO.P,J2,1,Pin_1*%
%TO.N,Board_14-Net-(D1-A)*%
X76950000Y-91300911D03*
D12*
%TO.P,J2,2,Pin_2*%
%TO.N,Board_14-Net-(J2-Pin_2)*%
X76950000Y-93840911D03*
%TO.P,J2,3,Pin_3*%
%TO.N,Board_14-Net-(D3-A)*%
X76950000Y-96380911D03*
%TO.P,J2,4,Pin_4*%
%TO.N,Board_14-Net-(J2-Pin_4)*%
X76950000Y-98920911D03*
%TD*%
D10*
%TO.P,R4,1*%
%TO.N,Board_5-Net-(D4-K)*%
X46459000Y-50440637D03*
%TO.P,R4,2*%
%TO.N,Board_5-Net-(J2-Pin_4)*%
X49559000Y-50440637D03*
%TD*%
D11*
%TO.P,J2,1,Pin_1*%
%TO.N,Board_8-Net-(D1-A)*%
X24030000Y-64797274D03*
D12*
%TO.P,J2,2,Pin_2*%
%TO.N,Board_8-Net-(J2-Pin_2)*%
X24030000Y-67337274D03*
%TO.P,J2,3,Pin_3*%
%TO.N,Board_8-Net-(D3-A)*%
X24030000Y-69877274D03*
%TO.P,J2,4,Pin_4*%
%TO.N,Board_8-Net-(J2-Pin_4)*%
X24030000Y-72417274D03*
%TD*%
D10*
%TO.P,R2,1*%
%TO.N,Board_4-Net-(D1-K)*%
X19237000Y-35193638D03*
%TO.P,R2,2*%
%TO.N,Board_4-Net-(J2-Pin_2)*%
X22337000Y-35193638D03*
%TD*%
%TO.P,R1,1*%
%TO.N,Board_1-Net-(D2-K)*%
X36426000Y-8697000D03*
%TO.P,R1,2*%
%TO.N,Board_1-Net-(J2-Pin_2)*%
X39526000Y-8697000D03*
%TD*%
%TO.P,R1,1*%
%TO.N,Board_0-Net-(D2-K)*%
X9966000Y-8697000D03*
%TO.P,R1,2*%
%TO.N,Board_0-Net-(J2-Pin_2)*%
X13066000Y-8697000D03*
%TD*%
D11*
%TO.P,J2,1,Pin_1*%
%TO.N,Board_7-Net-(D1-A)*%
X103410000Y-38293637D03*
D12*
%TO.P,J2,2,Pin_2*%
%TO.N,Board_7-Net-(J2-Pin_2)*%
X103410000Y-40833637D03*
%TO.P,J2,3,Pin_3*%
%TO.N,Board_7-Net-(D3-A)*%
X103410000Y-43373637D03*
%TO.P,J2,4,Pin_4*%
%TO.N,Board_7-Net-(J2-Pin_4)*%
X103410000Y-45913637D03*
%TD*%
D11*
%TO.P,J1,1,Pin_1*%
%TO.N,Board_0-Net-(J1-Pin_1)*%
X8380000Y-17490000D03*
D12*
%TO.P,J1,2,Pin_2*%
%TO.N,Board_0-Net-(J1-Pin_2)*%
X8380000Y-14950000D03*
%TD*%
D10*
%TO.P,R2,1*%
%TO.N,Board_5-Net-(D1-K)*%
X45697000Y-35193638D03*
%TO.P,R2,2*%
%TO.N,Board_5-Net-(J2-Pin_2)*%
X48797000Y-35193638D03*
%TD*%
%TO.P,R3,1*%
%TO.N,Board_7-Net-(D3-K)*%
X89219000Y-50440637D03*
%TO.P,R3,2*%
%TO.N,Board_7-Net-(J2-Pin_4)*%
X92319000Y-50440637D03*
%TD*%
%TO.P,R4,1*%
%TO.N,Board_2-Net-(D4-K)*%
X72919000Y-23937000D03*
%TO.P,R4,2*%
%TO.N,Board_2-Net-(J2-Pin_4)*%
X76019000Y-23937000D03*
%TD*%
%TO.P,R3,1*%
%TO.N,Board_10-Net-(D3-K)*%
X62759000Y-76944274D03*
%TO.P,R3,2*%
%TO.N,Board_10-Net-(J2-Pin_4)*%
X65859000Y-76944274D03*
%TD*%
D11*
%TO.P,J2,1,Pin_1*%
%TO.N,Board_0-Net-(D1-A)*%
X24030000Y-11790000D03*
D12*
%TO.P,J2,2,Pin_2*%
%TO.N,Board_0-Net-(J2-Pin_2)*%
X24030000Y-14330000D03*
%TO.P,J2,3,Pin_3*%
%TO.N,Board_0-Net-(D3-A)*%
X24030000Y-16870000D03*
%TO.P,J2,4,Pin_4*%
%TO.N,Board_0-Net-(J2-Pin_4)*%
X24030000Y-19410000D03*
%TD*%
D11*
%TO.P,J1,1,Pin_1*%
%TO.N,Board_8-Net-(J1-Pin_1)*%
X8380000Y-70497274D03*
D12*
%TO.P,J1,2,Pin_2*%
%TO.N,Board_8-Net-(J1-Pin_2)*%
X8380000Y-67957274D03*
%TD*%
D10*
%TO.P,R3,1*%
%TO.N,Board_15-Net-(D3-K)*%
X89219000Y-103447911D03*
%TO.P,R3,2*%
%TO.N,Board_15-Net-(J2-Pin_4)*%
X92319000Y-103447911D03*
%TD*%
%TO.P,R2,1*%
%TO.N,Board_6-Net-(D1-K)*%
X72157000Y-35193638D03*
%TO.P,R2,2*%
%TO.N,Board_6-Net-(J2-Pin_2)*%
X75257000Y-35193638D03*
%TD*%
%TO.P,R3,1*%
%TO.N,Board_6-Net-(D3-K)*%
X62759000Y-50440637D03*
%TO.P,R3,2*%
%TO.N,Board_6-Net-(J2-Pin_4)*%
X65859000Y-50440637D03*
%TD*%
%TO.P,R1,1*%
%TO.N,Board_4-Net-(D2-K)*%
X9966000Y-35200637D03*
%TO.P,R1,2*%
%TO.N,Board_4-Net-(J2-Pin_2)*%
X13066000Y-35200637D03*
%TD*%
%TO.P,R3,1*%
%TO.N,Board_4-Net-(D3-K)*%
X9839000Y-50440637D03*
%TO.P,R3,2*%
%TO.N,Board_4-Net-(J2-Pin_4)*%
X12939000Y-50440637D03*
%TD*%
%TO.P,R4,1*%
%TO.N,Board_6-Net-(D4-K)*%
X72919000Y-50440637D03*
%TO.P,R4,2*%
%TO.N,Board_6-Net-(J2-Pin_4)*%
X76019000Y-50440637D03*
%TD*%
D11*
%TO.P,J1,1,Pin_1*%
%TO.N,Board_9-Net-(J1-Pin_1)*%
X34840000Y-70497274D03*
D12*
%TO.P,J1,2,Pin_2*%
%TO.N,Board_9-Net-(J1-Pin_2)*%
X34840000Y-67957274D03*
%TD*%
D10*
%TO.P,R2,1*%
%TO.N,Board_3-Net-(D1-K)*%
X98617000Y-8690001D03*
%TO.P,R2,2*%
%TO.N,Board_3-Net-(J2-Pin_2)*%
X101717000Y-8690001D03*
%TD*%
%TO.P,R4,1*%
%TO.N,Board_15-Net-(D4-K)*%
X99379000Y-103447911D03*
%TO.P,R4,2*%
%TO.N,Board_15-Net-(J2-Pin_4)*%
X102479000Y-103447911D03*
%TD*%
%TO.P,R1,1*%
%TO.N,Board_6-Net-(D2-K)*%
X62886000Y-35200637D03*
%TO.P,R1,2*%
%TO.N,Board_6-Net-(J2-Pin_2)*%
X65986000Y-35200637D03*
%TD*%
%TO.P,R2,1*%
%TO.N,Board_14-Net-(D1-K)*%
X72157000Y-88200912D03*
%TO.P,R2,2*%
%TO.N,Board_14-Net-(J2-Pin_2)*%
X75257000Y-88200912D03*
%TD*%
%TO.P,R4,1*%
%TO.N,Board_9-Net-(D4-K)*%
X46459000Y-76944274D03*
%TO.P,R4,2*%
%TO.N,Board_9-Net-(J2-Pin_4)*%
X49559000Y-76944274D03*
%TD*%
D11*
%TO.P,J2,1,Pin_1*%
%TO.N,Board_5-Net-(D1-A)*%
X50490000Y-38293637D03*
D12*
%TO.P,J2,2,Pin_2*%
%TO.N,Board_5-Net-(J2-Pin_2)*%
X50490000Y-40833637D03*
%TO.P,J2,3,Pin_3*%
%TO.N,Board_5-Net-(D3-A)*%
X50490000Y-43373637D03*
%TO.P,J2,4,Pin_4*%
%TO.N,Board_5-Net-(J2-Pin_4)*%
X50490000Y-45913637D03*
%TD*%
D10*
%TO.P,R3,1*%
%TO.N,Board_11-Net-(D3-K)*%
X89219000Y-76944274D03*
%TO.P,R3,2*%
%TO.N,Board_11-Net-(J2-Pin_4)*%
X92319000Y-76944274D03*
%TD*%
D11*
%TO.P,J2,1,Pin_1*%
%TO.N,Board_12-Net-(D1-A)*%
X24030000Y-91300911D03*
D12*
%TO.P,J2,2,Pin_2*%
%TO.N,Board_12-Net-(J2-Pin_2)*%
X24030000Y-93840911D03*
%TO.P,J2,3,Pin_3*%
%TO.N,Board_12-Net-(D3-A)*%
X24030000Y-96380911D03*
%TO.P,J2,4,Pin_4*%
%TO.N,Board_12-Net-(J2-Pin_4)*%
X24030000Y-98920911D03*
%TD*%
D10*
%TO.P,R1,1*%
%TO.N,Board_3-Net-(D2-K)*%
X89346000Y-8697000D03*
%TO.P,R1,2*%
%TO.N,Board_3-Net-(J2-Pin_2)*%
X92446000Y-8697000D03*
%TD*%
D11*
%TO.P,J2,1,Pin_1*%
%TO.N,Board_6-Net-(D1-A)*%
X76950000Y-38293637D03*
D12*
%TO.P,J2,2,Pin_2*%
%TO.N,Board_6-Net-(J2-Pin_2)*%
X76950000Y-40833637D03*
%TO.P,J2,3,Pin_3*%
%TO.N,Board_6-Net-(D3-A)*%
X76950000Y-43373637D03*
%TO.P,J2,4,Pin_4*%
%TO.N,Board_6-Net-(J2-Pin_4)*%
X76950000Y-45913637D03*
%TD*%
D11*
%TO.P,J1,1,Pin_1*%
%TO.N,Board_11-Net-(J1-Pin_1)*%
X87760000Y-70497274D03*
D12*
%TO.P,J1,2,Pin_2*%
%TO.N,Board_11-Net-(J1-Pin_2)*%
X87760000Y-67957274D03*
%TD*%
D10*
%TO.P,R3,1*%
%TO.N,Board_1-Net-(D3-K)*%
X36299000Y-23937000D03*
%TO.P,R3,2*%
%TO.N,Board_1-Net-(J2-Pin_4)*%
X39399000Y-23937000D03*
%TD*%
%TO.P,R1,1*%
%TO.N,Board_8-Net-(D2-K)*%
X9966000Y-61704274D03*
%TO.P,R1,2*%
%TO.N,Board_8-Net-(J2-Pin_2)*%
X13066000Y-61704274D03*
%TD*%
D11*
%TO.P,J2,1,Pin_1*%
%TO.N,Board_15-Net-(D1-A)*%
X103410000Y-91300911D03*
D12*
%TO.P,J2,2,Pin_2*%
%TO.N,Board_15-Net-(J2-Pin_2)*%
X103410000Y-93840911D03*
%TO.P,J2,3,Pin_3*%
%TO.N,Board_15-Net-(D3-A)*%
X103410000Y-96380911D03*
%TO.P,J2,4,Pin_4*%
%TO.N,Board_15-Net-(J2-Pin_4)*%
X103410000Y-98920911D03*
%TD*%
D10*
%TO.P,R1,1*%
%TO.N,Board_14-Net-(D2-K)*%
X62886000Y-88207911D03*
%TO.P,R1,2*%
%TO.N,Board_14-Net-(J2-Pin_2)*%
X65986000Y-88207911D03*
%TD*%
%TO.P,R2,1*%
%TO.N,Board_11-Net-(D1-K)*%
X98617000Y-61697275D03*
%TO.P,R2,2*%
%TO.N,Board_11-Net-(J2-Pin_2)*%
X101717000Y-61697275D03*
%TD*%
D11*
%TO.P,J1,1,Pin_1*%
%TO.N,Board_13-Net-(J1-Pin_1)*%
X34840000Y-97000911D03*
D12*
%TO.P,J1,2,Pin_2*%
%TO.N,Board_13-Net-(J1-Pin_2)*%
X34840000Y-94460911D03*
%TD*%
D10*
%TO.P,R4,1*%
%TO.N,Board_7-Net-(D4-K)*%
X99379000Y-50440637D03*
%TO.P,R4,2*%
%TO.N,Board_7-Net-(J2-Pin_4)*%
X102479000Y-50440637D03*
%TD*%
D11*
%TO.P,J1,1,Pin_1*%
%TO.N,Board_5-Net-(J1-Pin_1)*%
X34840000Y-43993637D03*
D12*
%TO.P,J1,2,Pin_2*%
%TO.N,Board_5-Net-(J1-Pin_2)*%
X34840000Y-41453637D03*
%TD*%
D11*
%TO.P,J2,1,Pin_1*%
%TO.N,Board_1-Net-(D1-A)*%
X50490000Y-11790000D03*
D12*
%TO.P,J2,2,Pin_2*%
%TO.N,Board_1-Net-(J2-Pin_2)*%
X50490000Y-14330000D03*
%TO.P,J2,3,Pin_3*%
%TO.N,Board_1-Net-(D3-A)*%
X50490000Y-16870000D03*
%TO.P,J2,4,Pin_4*%
%TO.N,Board_1-Net-(J2-Pin_4)*%
X50490000Y-19410000D03*
%TD*%
D10*
%TO.P,R1,1*%
%TO.N,Board_12-Net-(D2-K)*%
X9966000Y-88207911D03*
%TO.P,R1,2*%
%TO.N,Board_12-Net-(J2-Pin_2)*%
X13066000Y-88207911D03*
%TD*%
%TO.P,R1,1*%
%TO.N,Board_5-Net-(D2-K)*%
X36426000Y-35200637D03*
%TO.P,R1,2*%
%TO.N,Board_5-Net-(J2-Pin_2)*%
X39526000Y-35200637D03*
%TD*%
%TO.P,R2,1*%
%TO.N,Board_12-Net-(D1-K)*%
X19237000Y-88200912D03*
%TO.P,R2,2*%
%TO.N,Board_12-Net-(J2-Pin_2)*%
X22337000Y-88200912D03*
%TD*%
%TO.P,R4,1*%
%TO.N,Board_4-Net-(D4-K)*%
X19999000Y-50440637D03*
%TO.P,R4,2*%
%TO.N,Board_4-Net-(J2-Pin_4)*%
X23099000Y-50440637D03*
%TD*%
%TO.P,R3,1*%
%TO.N,Board_12-Net-(D3-K)*%
X9839000Y-103447911D03*
%TO.P,R3,2*%
%TO.N,Board_12-Net-(J2-Pin_4)*%
X12939000Y-103447911D03*
%TD*%
%TO.P,R4,1*%
%TO.N,Board_8-Net-(D4-K)*%
X19999000Y-76944274D03*
%TO.P,R4,2*%
%TO.N,Board_8-Net-(J2-Pin_4)*%
X23099000Y-76944274D03*
%TD*%
%TO.P,R4,1*%
%TO.N,Board_10-Net-(D4-K)*%
X72919000Y-76944274D03*
%TO.P,R4,2*%
%TO.N,Board_10-Net-(J2-Pin_4)*%
X76019000Y-76944274D03*
%TD*%
%TO.P,R1,1*%
%TO.N,Board_15-Net-(D2-K)*%
X89346000Y-88207911D03*
%TO.P,R1,2*%
%TO.N,Board_15-Net-(J2-Pin_2)*%
X92446000Y-88207911D03*
%TD*%
%TO.P,R3,1*%
%TO.N,Board_9-Net-(D3-K)*%
X36299000Y-76944274D03*
%TO.P,R3,2*%
%TO.N,Board_9-Net-(J2-Pin_4)*%
X39399000Y-76944274D03*
%TD*%
%TO.P,R3,1*%
%TO.N,Board_8-Net-(D3-K)*%
X9839000Y-76944274D03*
%TO.P,R3,2*%
%TO.N,Board_8-Net-(J2-Pin_4)*%
X12939000Y-76944274D03*
%TD*%
D13*
%TO.P,D3,1,K*%
%TO.N,Board_11-Net-(D3-K)*%
X90897501Y-74022275D03*
D14*
%TO.P,D3,2,A*%
%TO.N,Board_11-Net-(D3-A)*%
X93437501Y-74022275D03*
%TD*%
D15*
%TO.P,U1,1,SW_COM*%
%TO.N,Board_6-Net-(J1-Pin_1)*%
X65837501Y-45106138D03*
%TO.P,U1,2,SW1*%
%TO.N,Board_6-Net-(J1-Pin_2)*%
X65837501Y-42706138D03*
%TO.P,U1,3,NC*%
%TO.N,Board_6-unconnected-(U1-NC-Pad3)*%
X65837501Y-40306138D03*
%TO.P,U1,4,NC*%
%TO.N,Board_6-unconnected-(U1-NC-Pad4)*%
X72087501Y-45106138D03*
%TO.P,U1,5,NC*%
%TO.N,Board_6-unconnected-(U1-NC-Pad5)*%
X72087501Y-42706138D03*
%TO.P,U1,6,NC*%
%TO.N,Board_6-unconnected-(U1-NC-Pad6)*%
X72087501Y-40306138D03*
%TD*%
D13*
%TO.P,D2,1,K*%
%TO.N,Board_10-Net-(D2-K)*%
X64437501Y-64422275D03*
D14*
%TO.P,D2,2,A*%
%TO.N,Board_10-Net-(D1-A)*%
X66977501Y-64422275D03*
%TD*%
D13*
%TO.P,D3,1,K*%
%TO.N,Board_13-Net-(D3-K)*%
X37977501Y-100525912D03*
D14*
%TO.P,D3,2,A*%
%TO.N,Board_13-Net-(D3-A)*%
X40517501Y-100525912D03*
%TD*%
D13*
%TO.P,D1,1,K*%
%TO.N,Board_5-Net-(D1-K)*%
X44987501Y-37918638D03*
D14*
%TO.P,D1,2,A*%
%TO.N,Board_5-Net-(D1-A)*%
X47527501Y-37918638D03*
%TD*%
D13*
%TO.P,D2,1,K*%
%TO.N,Board_7-Net-(D2-K)*%
X90897501Y-37918638D03*
D14*
%TO.P,D2,2,A*%
%TO.N,Board_7-Net-(D1-A)*%
X93437501Y-37918638D03*
%TD*%
D13*
%TO.P,D3,1,K*%
%TO.N,Board_8-Net-(D3-K)*%
X11517501Y-74022275D03*
D14*
%TO.P,D3,2,A*%
%TO.N,Board_8-Net-(D3-A)*%
X14057501Y-74022275D03*
%TD*%
D13*
%TO.P,D3,1,K*%
%TO.N,Board_1-Net-(D3-K)*%
X37977501Y-21015001D03*
D14*
%TO.P,D3,2,A*%
%TO.N,Board_1-Net-(D3-A)*%
X40517501Y-21015001D03*
%TD*%
D13*
%TO.P,D3,1,K*%
%TO.N,Board_12-Net-(D3-K)*%
X11517501Y-100525912D03*
D14*
%TO.P,D3,2,A*%
%TO.N,Board_12-Net-(D3-A)*%
X14057501Y-100525912D03*
%TD*%
D15*
%TO.P,U1,1,SW_COM*%
%TO.N,Board_0-Net-(J1-Pin_1)*%
X12917501Y-18602501D03*
%TO.P,U1,2,SW1*%
%TO.N,Board_0-Net-(J1-Pin_2)*%
X12917501Y-16202501D03*
%TO.P,U1,3,NC*%
%TO.N,Board_0-unconnected-(U1-NC-Pad3)*%
X12917501Y-13802501D03*
%TO.P,U1,4,NC*%
%TO.N,Board_0-unconnected-(U1-NC-Pad4)*%
X19167501Y-18602501D03*
%TO.P,U1,5,NC*%
%TO.N,Board_0-unconnected-(U1-NC-Pad5)*%
X19167501Y-16202501D03*
%TO.P,U1,6,NC*%
%TO.N,Board_0-unconnected-(U1-NC-Pad6)*%
X19167501Y-13802501D03*
%TD*%
D13*
%TO.P,D2,1,K*%
%TO.N,Board_5-Net-(D2-K)*%
X37977501Y-37918638D03*
D14*
%TO.P,D2,2,A*%
%TO.N,Board_5-Net-(D1-A)*%
X40517501Y-37918638D03*
%TD*%
D13*
%TO.P,D4,1,K*%
%TO.N,Board_6-Net-(D4-K)*%
X71422501Y-47493638D03*
D14*
%TO.P,D4,2,A*%
%TO.N,Board_6-Net-(D3-A)*%
X73962501Y-47493638D03*
%TD*%
D15*
%TO.P,U1,1,SW_COM*%
%TO.N,Board_2-Net-(J1-Pin_1)*%
X65837501Y-18602501D03*
%TO.P,U1,2,SW1*%
%TO.N,Board_2-Net-(J1-Pin_2)*%
X65837501Y-16202501D03*
%TO.P,U1,3,NC*%
%TO.N,Board_2-unconnected-(U1-NC-Pad3)*%
X65837501Y-13802501D03*
%TO.P,U1,4,NC*%
%TO.N,Board_2-unconnected-(U1-NC-Pad4)*%
X72087501Y-18602501D03*
%TO.P,U1,5,NC*%
%TO.N,Board_2-unconnected-(U1-NC-Pad5)*%
X72087501Y-16202501D03*
%TO.P,U1,6,NC*%
%TO.N,Board_2-unconnected-(U1-NC-Pad6)*%
X72087501Y-13802501D03*
%TD*%
D13*
%TO.P,D1,1,K*%
%TO.N,Board_3-Net-(D1-K)*%
X97907501Y-11415001D03*
D14*
%TO.P,D1,2,A*%
%TO.N,Board_3-Net-(D1-A)*%
X100447501Y-11415001D03*
%TD*%
D13*
%TO.P,D2,1,K*%
%TO.N,Board_15-Net-(D2-K)*%
X90897501Y-90925912D03*
D14*
%TO.P,D2,2,A*%
%TO.N,Board_15-Net-(D1-A)*%
X93437501Y-90925912D03*
%TD*%
D13*
%TO.P,D2,1,K*%
%TO.N,Board_11-Net-(D2-K)*%
X90897501Y-64422275D03*
D14*
%TO.P,D2,2,A*%
%TO.N,Board_11-Net-(D1-A)*%
X93437501Y-64422275D03*
%TD*%
D13*
%TO.P,D1,1,K*%
%TO.N,Board_13-Net-(D1-K)*%
X44987501Y-90925912D03*
D14*
%TO.P,D1,2,A*%
%TO.N,Board_13-Net-(D1-A)*%
X47527501Y-90925912D03*
%TD*%
D13*
%TO.P,D4,1,K*%
%TO.N,Board_9-Net-(D4-K)*%
X44962501Y-73997275D03*
D14*
%TO.P,D4,2,A*%
%TO.N,Board_9-Net-(D3-A)*%
X47502501Y-73997275D03*
%TD*%
D13*
%TO.P,D3,1,K*%
%TO.N,Board_10-Net-(D3-K)*%
X64437501Y-74022275D03*
D14*
%TO.P,D3,2,A*%
%TO.N,Board_10-Net-(D3-A)*%
X66977501Y-74022275D03*
%TD*%
D13*
%TO.P,D4,1,K*%
%TO.N,Board_7-Net-(D4-K)*%
X97882501Y-47493638D03*
D14*
%TO.P,D4,2,A*%
%TO.N,Board_7-Net-(D3-A)*%
X100422501Y-47493638D03*
%TD*%
D13*
%TO.P,D4,1,K*%
%TO.N,Board_8-Net-(D4-K)*%
X18502501Y-73997275D03*
D14*
%TO.P,D4,2,A*%
%TO.N,Board_8-Net-(D3-A)*%
X21042501Y-73997275D03*
%TD*%
D13*
%TO.P,D4,1,K*%
%TO.N,Board_12-Net-(D4-K)*%
X18502501Y-100500912D03*
D14*
%TO.P,D4,2,A*%
%TO.N,Board_12-Net-(D3-A)*%
X21042501Y-100500912D03*
%TD*%
D13*
%TO.P,D2,1,K*%
%TO.N,Board_3-Net-(D2-K)*%
X90897501Y-11415001D03*
D14*
%TO.P,D2,2,A*%
%TO.N,Board_3-Net-(D1-A)*%
X93437501Y-11415001D03*
%TD*%
D13*
%TO.P,D2,1,K*%
%TO.N,Board_0-Net-(D2-K)*%
X11517501Y-11415001D03*
D14*
%TO.P,D2,2,A*%
%TO.N,Board_0-Net-(D1-A)*%
X14057501Y-11415001D03*
%TD*%
D13*
%TO.P,D1,1,K*%
%TO.N,Board_8-Net-(D1-K)*%
X18527501Y-64422275D03*
D14*
%TO.P,D1,2,A*%
%TO.N,Board_8-Net-(D1-A)*%
X21067501Y-64422275D03*
%TD*%
D15*
%TO.P,U1,1,SW_COM*%
%TO.N,Board_3-Net-(J1-Pin_1)*%
X92297501Y-18602501D03*
%TO.P,U1,2,SW1*%
%TO.N,Board_3-Net-(J1-Pin_2)*%
X92297501Y-16202501D03*
%TO.P,U1,3,NC*%
%TO.N,Board_3-unconnected-(U1-NC-Pad3)*%
X92297501Y-13802501D03*
%TO.P,U1,4,NC*%
%TO.N,Board_3-unconnected-(U1-NC-Pad4)*%
X98547501Y-18602501D03*
%TO.P,U1,5,NC*%
%TO.N,Board_3-unconnected-(U1-NC-Pad5)*%
X98547501Y-16202501D03*
%TO.P,U1,6,NC*%
%TO.N,Board_3-unconnected-(U1-NC-Pad6)*%
X98547501Y-13802501D03*
%TD*%
D13*
%TO.P,D4,1,K*%
%TO.N,Board_14-Net-(D4-K)*%
X71422501Y-100500912D03*
D14*
%TO.P,D4,2,A*%
%TO.N,Board_14-Net-(D3-A)*%
X73962501Y-100500912D03*
%TD*%
D13*
%TO.P,D3,1,K*%
%TO.N,Board_6-Net-(D3-K)*%
X64437501Y-47518638D03*
D14*
%TO.P,D3,2,A*%
%TO.N,Board_6-Net-(D3-A)*%
X66977501Y-47518638D03*
%TD*%
D13*
%TO.P,D4,1,K*%
%TO.N,Board_4-Net-(D4-K)*%
X18502501Y-47493638D03*
D14*
%TO.P,D4,2,A*%
%TO.N,Board_4-Net-(D3-A)*%
X21042501Y-47493638D03*
%TD*%
D13*
%TO.P,D1,1,K*%
%TO.N,Board_9-Net-(D1-K)*%
X44987501Y-64422275D03*
D14*
%TO.P,D1,2,A*%
%TO.N,Board_9-Net-(D1-A)*%
X47527501Y-64422275D03*
%TD*%
D13*
%TO.P,D3,1,K*%
%TO.N,Board_9-Net-(D3-K)*%
X37977501Y-74022275D03*
D14*
%TO.P,D3,2,A*%
%TO.N,Board_9-Net-(D3-A)*%
X40517501Y-74022275D03*
%TD*%
D13*
%TO.P,D4,1,K*%
%TO.N,Board_0-Net-(D4-K)*%
X18502501Y-20990001D03*
D14*
%TO.P,D4,2,A*%
%TO.N,Board_0-Net-(D3-A)*%
X21042501Y-20990001D03*
%TD*%
D15*
%TO.P,U1,1,SW_COM*%
%TO.N,Board_14-Net-(J1-Pin_1)*%
X65837501Y-98113412D03*
%TO.P,U1,2,SW1*%
%TO.N,Board_14-Net-(J1-Pin_2)*%
X65837501Y-95713412D03*
%TO.P,U1,3,NC*%
%TO.N,Board_14-unconnected-(U1-NC-Pad3)*%
X65837501Y-93313412D03*
%TO.P,U1,4,NC*%
%TO.N,Board_14-unconnected-(U1-NC-Pad4)*%
X72087501Y-98113412D03*
%TO.P,U1,5,NC*%
%TO.N,Board_14-unconnected-(U1-NC-Pad5)*%
X72087501Y-95713412D03*
%TO.P,U1,6,NC*%
%TO.N,Board_14-unconnected-(U1-NC-Pad6)*%
X72087501Y-93313412D03*
%TD*%
D13*
%TO.P,D2,1,K*%
%TO.N,Board_12-Net-(D2-K)*%
X11517501Y-90925912D03*
D14*
%TO.P,D2,2,A*%
%TO.N,Board_12-Net-(D1-A)*%
X14057501Y-90925912D03*
%TD*%
D13*
%TO.P,D1,1,K*%
%TO.N,Board_14-Net-(D1-K)*%
X71447501Y-90925912D03*
D14*
%TO.P,D1,2,A*%
%TO.N,Board_14-Net-(D1-A)*%
X73987501Y-90925912D03*
%TD*%
D13*
%TO.P,D1,1,K*%
%TO.N,Board_10-Net-(D1-K)*%
X71447501Y-64422275D03*
D14*
%TO.P,D1,2,A*%
%TO.N,Board_10-Net-(D1-A)*%
X73987501Y-64422275D03*
%TD*%
D13*
%TO.P,D1,1,K*%
%TO.N,Board_6-Net-(D1-K)*%
X71447501Y-37918638D03*
D14*
%TO.P,D1,2,A*%
%TO.N,Board_6-Net-(D1-A)*%
X73987501Y-37918638D03*
%TD*%
D13*
%TO.P,D1,1,K*%
%TO.N,Board_7-Net-(D1-K)*%
X97907501Y-37918638D03*
D14*
%TO.P,D1,2,A*%
%TO.N,Board_7-Net-(D1-A)*%
X100447501Y-37918638D03*
%TD*%
D13*
%TO.P,D3,1,K*%
%TO.N,Board_4-Net-(D3-K)*%
X11517501Y-47518638D03*
D14*
%TO.P,D3,2,A*%
%TO.N,Board_4-Net-(D3-A)*%
X14057501Y-47518638D03*
%TD*%
D13*
%TO.P,D2,1,K*%
%TO.N,Board_4-Net-(D2-K)*%
X11517501Y-37918638D03*
D14*
%TO.P,D2,2,A*%
%TO.N,Board_4-Net-(D1-A)*%
X14057501Y-37918638D03*
%TD*%
D13*
%TO.P,D2,1,K*%
%TO.N,Board_1-Net-(D2-K)*%
X37977501Y-11415001D03*
D14*
%TO.P,D2,2,A*%
%TO.N,Board_1-Net-(D1-A)*%
X40517501Y-11415001D03*
%TD*%
D15*
%TO.P,U1,1,SW_COM*%
%TO.N,Board_4-Net-(J1-Pin_1)*%
X12917501Y-45106138D03*
%TO.P,U1,2,SW1*%
%TO.N,Board_4-Net-(J1-Pin_2)*%
X12917501Y-42706138D03*
%TO.P,U1,3,NC*%
%TO.N,Board_4-unconnected-(U1-NC-Pad3)*%
X12917501Y-40306138D03*
%TO.P,U1,4,NC*%
%TO.N,Board_4-unconnected-(U1-NC-Pad4)*%
X19167501Y-45106138D03*
%TO.P,U1,5,NC*%
%TO.N,Board_4-unconnected-(U1-NC-Pad5)*%
X19167501Y-42706138D03*
%TO.P,U1,6,NC*%
%TO.N,Board_4-unconnected-(U1-NC-Pad6)*%
X19167501Y-40306138D03*
%TD*%
D13*
%TO.P,D3,1,K*%
%TO.N,Board_7-Net-(D3-K)*%
X90897501Y-47518638D03*
D14*
%TO.P,D3,2,A*%
%TO.N,Board_7-Net-(D3-A)*%
X93437501Y-47518638D03*
%TD*%
D15*
%TO.P,U1,1,SW_COM*%
%TO.N,Board_10-Net-(J1-Pin_1)*%
X65837501Y-71609775D03*
%TO.P,U1,2,SW1*%
%TO.N,Board_10-Net-(J1-Pin_2)*%
X65837501Y-69209775D03*
%TO.P,U1,3,NC*%
%TO.N,Board_10-unconnected-(U1-NC-Pad3)*%
X65837501Y-66809775D03*
%TO.P,U1,4,NC*%
%TO.N,Board_10-unconnected-(U1-NC-Pad4)*%
X72087501Y-71609775D03*
%TO.P,U1,5,NC*%
%TO.N,Board_10-unconnected-(U1-NC-Pad5)*%
X72087501Y-69209775D03*
%TO.P,U1,6,NC*%
%TO.N,Board_10-unconnected-(U1-NC-Pad6)*%
X72087501Y-66809775D03*
%TD*%
D13*
%TO.P,D4,1,K*%
%TO.N,Board_2-Net-(D4-K)*%
X71422501Y-20990001D03*
D14*
%TO.P,D4,2,A*%
%TO.N,Board_2-Net-(D3-A)*%
X73962501Y-20990001D03*
%TD*%
D13*
%TO.P,D2,1,K*%
%TO.N,Board_8-Net-(D2-K)*%
X11517501Y-64422275D03*
D14*
%TO.P,D2,2,A*%
%TO.N,Board_8-Net-(D1-A)*%
X14057501Y-64422275D03*
%TD*%
D13*
%TO.P,D4,1,K*%
%TO.N,Board_15-Net-(D4-K)*%
X97882501Y-100500912D03*
D14*
%TO.P,D4,2,A*%
%TO.N,Board_15-Net-(D3-A)*%
X100422501Y-100500912D03*
%TD*%
D15*
%TO.P,U1,1,SW_COM*%
%TO.N,Board_8-Net-(J1-Pin_1)*%
X12917501Y-71609775D03*
%TO.P,U1,2,SW1*%
%TO.N,Board_8-Net-(J1-Pin_2)*%
X12917501Y-69209775D03*
%TO.P,U1,3,NC*%
%TO.N,Board_8-unconnected-(U1-NC-Pad3)*%
X12917501Y-66809775D03*
%TO.P,U1,4,NC*%
%TO.N,Board_8-unconnected-(U1-NC-Pad4)*%
X19167501Y-71609775D03*
%TO.P,U1,5,NC*%
%TO.N,Board_8-unconnected-(U1-NC-Pad5)*%
X19167501Y-69209775D03*
%TO.P,U1,6,NC*%
%TO.N,Board_8-unconnected-(U1-NC-Pad6)*%
X19167501Y-66809775D03*
%TD*%
D13*
%TO.P,D2,1,K*%
%TO.N,Board_13-Net-(D2-K)*%
X37977501Y-90925912D03*
D14*
%TO.P,D2,2,A*%
%TO.N,Board_13-Net-(D1-A)*%
X40517501Y-90925912D03*
%TD*%
D13*
%TO.P,D3,1,K*%
%TO.N,Board_2-Net-(D3-K)*%
X64437501Y-21015001D03*
D14*
%TO.P,D3,2,A*%
%TO.N,Board_2-Net-(D3-A)*%
X66977501Y-21015001D03*
%TD*%
D13*
%TO.P,D1,1,K*%
%TO.N,Board_1-Net-(D1-K)*%
X44987501Y-11415001D03*
D14*
%TO.P,D1,2,A*%
%TO.N,Board_1-Net-(D1-A)*%
X47527501Y-11415001D03*
%TD*%
D13*
%TO.P,D2,1,K*%
%TO.N,Board_2-Net-(D2-K)*%
X64437501Y-11415001D03*
D14*
%TO.P,D2,2,A*%
%TO.N,Board_2-Net-(D1-A)*%
X66977501Y-11415001D03*
%TD*%
D13*
%TO.P,D1,1,K*%
%TO.N,Board_2-Net-(D1-K)*%
X71447501Y-11415001D03*
D14*
%TO.P,D1,2,A*%
%TO.N,Board_2-Net-(D1-A)*%
X73987501Y-11415001D03*
%TD*%
D13*
%TO.P,D1,1,K*%
%TO.N,Board_15-Net-(D1-K)*%
X97907501Y-90925912D03*
D14*
%TO.P,D1,2,A*%
%TO.N,Board_15-Net-(D1-A)*%
X100447501Y-90925912D03*
%TD*%
D13*
%TO.P,D4,1,K*%
%TO.N,Board_13-Net-(D4-K)*%
X44962501Y-100500912D03*
D14*
%TO.P,D4,2,A*%
%TO.N,Board_13-Net-(D3-A)*%
X47502501Y-100500912D03*
%TD*%
D15*
%TO.P,U1,1,SW_COM*%
%TO.N,Board_15-Net-(J1-Pin_1)*%
X92297501Y-98113412D03*
%TO.P,U1,2,SW1*%
%TO.N,Board_15-Net-(J1-Pin_2)*%
X92297501Y-95713412D03*
%TO.P,U1,3,NC*%
%TO.N,Board_15-unconnected-(U1-NC-Pad3)*%
X92297501Y-93313412D03*
%TO.P,U1,4,NC*%
%TO.N,Board_15-unconnected-(U1-NC-Pad4)*%
X98547501Y-98113412D03*
%TO.P,U1,5,NC*%
%TO.N,Board_15-unconnected-(U1-NC-Pad5)*%
X98547501Y-95713412D03*
%TO.P,U1,6,NC*%
%TO.N,Board_15-unconnected-(U1-NC-Pad6)*%
X98547501Y-93313412D03*
%TD*%
D13*
%TO.P,D4,1,K*%
%TO.N,Board_11-Net-(D4-K)*%
X97882501Y-73997275D03*
D14*
%TO.P,D4,2,A*%
%TO.N,Board_11-Net-(D3-A)*%
X100422501Y-73997275D03*
%TD*%
D15*
%TO.P,U1,1,SW_COM*%
%TO.N,Board_12-Net-(J1-Pin_1)*%
X12917501Y-98113412D03*
%TO.P,U1,2,SW1*%
%TO.N,Board_12-Net-(J1-Pin_2)*%
X12917501Y-95713412D03*
%TO.P,U1,3,NC*%
%TO.N,Board_12-unconnected-(U1-NC-Pad3)*%
X12917501Y-93313412D03*
%TO.P,U1,4,NC*%
%TO.N,Board_12-unconnected-(U1-NC-Pad4)*%
X19167501Y-98113412D03*
%TO.P,U1,5,NC*%
%TO.N,Board_12-unconnected-(U1-NC-Pad5)*%
X19167501Y-95713412D03*
%TO.P,U1,6,NC*%
%TO.N,Board_12-unconnected-(U1-NC-Pad6)*%
X19167501Y-93313412D03*
%TD*%
D13*
%TO.P,D3,1,K*%
%TO.N,Board_3-Net-(D3-K)*%
X90897501Y-21015001D03*
D14*
%TO.P,D3,2,A*%
%TO.N,Board_3-Net-(D3-A)*%
X93437501Y-21015001D03*
%TD*%
D13*
%TO.P,D3,1,K*%
%TO.N,Board_15-Net-(D3-K)*%
X90897501Y-100525912D03*
D14*
%TO.P,D3,2,A*%
%TO.N,Board_15-Net-(D3-A)*%
X93437501Y-100525912D03*
%TD*%
D13*
%TO.P,D4,1,K*%
%TO.N,Board_1-Net-(D4-K)*%
X44962501Y-20990001D03*
D14*
%TO.P,D4,2,A*%
%TO.N,Board_1-Net-(D3-A)*%
X47502501Y-20990001D03*
%TD*%
D13*
%TO.P,D1,1,K*%
%TO.N,Board_12-Net-(D1-K)*%
X18527501Y-90925912D03*
D14*
%TO.P,D1,2,A*%
%TO.N,Board_12-Net-(D1-A)*%
X21067501Y-90925912D03*
%TD*%
D13*
%TO.P,D1,1,K*%
%TO.N,Board_4-Net-(D1-K)*%
X18527501Y-37918638D03*
D14*
%TO.P,D1,2,A*%
%TO.N,Board_4-Net-(D1-A)*%
X21067501Y-37918638D03*
%TD*%
D15*
%TO.P,U1,1,SW_COM*%
%TO.N,Board_11-Net-(J1-Pin_1)*%
X92297501Y-71609775D03*
%TO.P,U1,2,SW1*%
%TO.N,Board_11-Net-(J1-Pin_2)*%
X92297501Y-69209775D03*
%TO.P,U1,3,NC*%
%TO.N,Board_11-unconnected-(U1-NC-Pad3)*%
X92297501Y-66809775D03*
%TO.P,U1,4,NC*%
%TO.N,Board_11-unconnected-(U1-NC-Pad4)*%
X98547501Y-71609775D03*
%TO.P,U1,5,NC*%
%TO.N,Board_11-unconnected-(U1-NC-Pad5)*%
X98547501Y-69209775D03*
%TO.P,U1,6,NC*%
%TO.N,Board_11-unconnected-(U1-NC-Pad6)*%
X98547501Y-66809775D03*
%TD*%
D13*
%TO.P,D2,1,K*%
%TO.N,Board_6-Net-(D2-K)*%
X64437501Y-37918638D03*
D14*
%TO.P,D2,2,A*%
%TO.N,Board_6-Net-(D1-A)*%
X66977501Y-37918638D03*
%TD*%
D15*
%TO.P,U1,1,SW_COM*%
%TO.N,Board_1-Net-(J1-Pin_1)*%
X39377501Y-18602501D03*
%TO.P,U1,2,SW1*%
%TO.N,Board_1-Net-(J1-Pin_2)*%
X39377501Y-16202501D03*
%TO.P,U1,3,NC*%
%TO.N,Board_1-unconnected-(U1-NC-Pad3)*%
X39377501Y-13802501D03*
%TO.P,U1,4,NC*%
%TO.N,Board_1-unconnected-(U1-NC-Pad4)*%
X45627501Y-18602501D03*
%TO.P,U1,5,NC*%
%TO.N,Board_1-unconnected-(U1-NC-Pad5)*%
X45627501Y-16202501D03*
%TO.P,U1,6,NC*%
%TO.N,Board_1-unconnected-(U1-NC-Pad6)*%
X45627501Y-13802501D03*
%TD*%
D13*
%TO.P,D2,1,K*%
%TO.N,Board_14-Net-(D2-K)*%
X64437501Y-90925912D03*
D14*
%TO.P,D2,2,A*%
%TO.N,Board_14-Net-(D1-A)*%
X66977501Y-90925912D03*
%TD*%
D13*
%TO.P,D3,1,K*%
%TO.N,Board_5-Net-(D3-K)*%
X37977501Y-47518638D03*
D14*
%TO.P,D3,2,A*%
%TO.N,Board_5-Net-(D3-A)*%
X40517501Y-47518638D03*
%TD*%
D15*
%TO.P,U1,1,SW_COM*%
%TO.N,Board_7-Net-(J1-Pin_1)*%
X92297501Y-45106138D03*
%TO.P,U1,2,SW1*%
%TO.N,Board_7-Net-(J1-Pin_2)*%
X92297501Y-42706138D03*
%TO.P,U1,3,NC*%
%TO.N,Board_7-unconnected-(U1-NC-Pad3)*%
X92297501Y-40306138D03*
%TO.P,U1,4,NC*%
%TO.N,Board_7-unconnected-(U1-NC-Pad4)*%
X98547501Y-45106138D03*
%TO.P,U1,5,NC*%
%TO.N,Board_7-unconnected-(U1-NC-Pad5)*%
X98547501Y-42706138D03*
%TO.P,U1,6,NC*%
%TO.N,Board_7-unconnected-(U1-NC-Pad6)*%
X98547501Y-40306138D03*
%TD*%
D13*
%TO.P,D1,1,K*%
%TO.N,Board_11-Net-(D1-K)*%
X97907501Y-64422275D03*
D14*
%TO.P,D1,2,A*%
%TO.N,Board_11-Net-(D1-A)*%
X100447501Y-64422275D03*
%TD*%
D13*
%TO.P,D4,1,K*%
%TO.N,Board_3-Net-(D4-K)*%
X97882501Y-20990001D03*
D14*
%TO.P,D4,2,A*%
%TO.N,Board_3-Net-(D3-A)*%
X100422501Y-20990001D03*
%TD*%
D15*
%TO.P,U1,1,SW_COM*%
%TO.N,Board_9-Net-(J1-Pin_1)*%
X39377501Y-71609775D03*
%TO.P,U1,2,SW1*%
%TO.N,Board_9-Net-(J1-Pin_2)*%
X39377501Y-69209775D03*
%TO.P,U1,3,NC*%
%TO.N,Board_9-unconnected-(U1-NC-Pad3)*%
X39377501Y-66809775D03*
%TO.P,U1,4,NC*%
%TO.N,Board_9-unconnected-(U1-NC-Pad4)*%
X45627501Y-71609775D03*
%TO.P,U1,5,NC*%
%TO.N,Board_9-unconnected-(U1-NC-Pad5)*%
X45627501Y-69209775D03*
%TO.P,U1,6,NC*%
%TO.N,Board_9-unconnected-(U1-NC-Pad6)*%
X45627501Y-66809775D03*
%TD*%
D13*
%TO.P,D4,1,K*%
%TO.N,Board_5-Net-(D4-K)*%
X44962501Y-47493638D03*
D14*
%TO.P,D4,2,A*%
%TO.N,Board_5-Net-(D3-A)*%
X47502501Y-47493638D03*
%TD*%
D13*
%TO.P,D3,1,K*%
%TO.N,Board_14-Net-(D3-K)*%
X64437501Y-100525912D03*
D14*
%TO.P,D3,2,A*%
%TO.N,Board_14-Net-(D3-A)*%
X66977501Y-100525912D03*
%TD*%
D13*
%TO.P,D2,1,K*%
%TO.N,Board_9-Net-(D2-K)*%
X37977501Y-64422275D03*
D14*
%TO.P,D2,2,A*%
%TO.N,Board_9-Net-(D1-A)*%
X40517501Y-64422275D03*
%TD*%
D13*
%TO.P,D4,1,K*%
%TO.N,Board_10-Net-(D4-K)*%
X71422501Y-73997275D03*
D14*
%TO.P,D4,2,A*%
%TO.N,Board_10-Net-(D3-A)*%
X73962501Y-73997275D03*
%TD*%
D15*
%TO.P,U1,1,SW_COM*%
%TO.N,Board_5-Net-(J1-Pin_1)*%
X39377501Y-45106138D03*
%TO.P,U1,2,SW1*%
%TO.N,Board_5-Net-(J1-Pin_2)*%
X39377501Y-42706138D03*
%TO.P,U1,3,NC*%
%TO.N,Board_5-unconnected-(U1-NC-Pad3)*%
X39377501Y-40306138D03*
%TO.P,U1,4,NC*%
%TO.N,Board_5-unconnected-(U1-NC-Pad4)*%
X45627501Y-45106138D03*
%TO.P,U1,5,NC*%
%TO.N,Board_5-unconnected-(U1-NC-Pad5)*%
X45627501Y-42706138D03*
%TO.P,U1,6,NC*%
%TO.N,Board_5-unconnected-(U1-NC-Pad6)*%
X45627501Y-40306138D03*
%TD*%
D13*
%TO.P,D1,1,K*%
%TO.N,Board_0-Net-(D1-K)*%
X18527501Y-11415001D03*
D14*
%TO.P,D1,2,A*%
%TO.N,Board_0-Net-(D1-A)*%
X21067501Y-11415001D03*
%TD*%
D15*
%TO.P,U1,1,SW_COM*%
%TO.N,Board_13-Net-(J1-Pin_1)*%
X39377501Y-98113412D03*
%TO.P,U1,2,SW1*%
%TO.N,Board_13-Net-(J1-Pin_2)*%
X39377501Y-95713412D03*
%TO.P,U1,3,NC*%
%TO.N,Board_13-unconnected-(U1-NC-Pad3)*%
X39377501Y-93313412D03*
%TO.P,U1,4,NC*%
%TO.N,Board_13-unconnected-(U1-NC-Pad4)*%
X45627501Y-98113412D03*
%TO.P,U1,5,NC*%
%TO.N,Board_13-unconnected-(U1-NC-Pad5)*%
X45627501Y-95713412D03*
%TO.P,U1,6,NC*%
%TO.N,Board_13-unconnected-(U1-NC-Pad6)*%
X45627501Y-93313412D03*
%TD*%
D13*
%TO.P,D3,1,K*%
%TO.N,Board_0-Net-(D3-K)*%
X11517501Y-21015001D03*
D14*
%TO.P,D3,2,A*%
%TO.N,Board_0-Net-(D3-A)*%
X14057501Y-21015001D03*
%TD*%
D16*
%TO.N,Board_15-Net-(J2-Pin_4)*%
X102479000Y-99851911D02*
X102479000Y-101161911D01*
X103410000Y-98920911D02*
X102479000Y-99851911D01*
X102326000Y-105225911D02*
X102479000Y-105072911D01*
X94097000Y-105225911D02*
X102326000Y-105225911D01*
X102479000Y-105072911D02*
X102479000Y-103447911D01*
X92319000Y-103447911D02*
X94097000Y-105225911D01*
X102479000Y-101161911D02*
X102479000Y-103701911D01*
%TO.N,Board_15-Net-(J2-Pin_2)*%
X101717000Y-86836911D02*
X101717000Y-88200912D01*
X92446000Y-88207911D02*
X92446000Y-87038911D01*
X92446000Y-87038911D02*
X93182000Y-86302911D01*
X104313000Y-93840911D02*
X103410000Y-93840911D01*
X103970001Y-88200912D02*
X104993000Y-89223911D01*
X104993000Y-93160911D02*
X104313000Y-93840911D01*
X101183000Y-86302911D02*
X101717000Y-86836911D01*
X101717000Y-88200912D02*
X103970001Y-88200912D01*
X93182000Y-86302911D02*
X101183000Y-86302911D01*
X104993000Y-89223911D02*
X104993000Y-93160911D01*
%TO.N,Board_15-Net-(J1-Pin_2)*%
X89275000Y-94460911D02*
X90527501Y-95713412D01*
X90527501Y-95713412D02*
X92297501Y-95713412D01*
X87760000Y-94460911D02*
X89275000Y-94460911D01*
%TO.N,Board_15-Net-(J1-Pin_1)*%
X87760000Y-97000911D02*
X89402000Y-97000911D01*
X89402000Y-97000911D02*
X90515000Y-98113911D01*
X90515000Y-98113911D02*
X90515499Y-98113412D01*
X90515499Y-98113412D02*
X92297501Y-98113412D01*
%TO.N,Board_15-Net-(D4-K)*%
X98389000Y-103447911D02*
X99379000Y-103447911D01*
X97882501Y-102941412D02*
X98389000Y-103447911D01*
X97882501Y-100500912D02*
X97882501Y-102941412D01*
%TO.N,Board_15-Net-(D3-K)*%
X89219000Y-102204413D02*
X90897501Y-100525912D01*
X89219000Y-103701911D02*
X89219000Y-102204413D01*
%TO.N,Board_15-Net-(D3-A)*%
X100422501Y-99368410D02*
X103410000Y-96380911D01*
X100422501Y-100500912D02*
X100422501Y-99368410D01*
%TO.N,Board_15-Net-(D2-K)*%
X89346000Y-88207911D02*
X89346000Y-89374411D01*
X89346000Y-89374411D02*
X90897501Y-90925912D01*
D17*
%TO.N,Board_15-Net-(D1-K)*%
X97907501Y-90925912D02*
X97907501Y-88910411D01*
X97907501Y-88910411D02*
X98617000Y-88200912D01*
D16*
%TO.N,Board_15-Net-(D1-A)*%
X101767200Y-91332111D02*
X101798400Y-91300911D01*
D17*
X100822500Y-91300911D02*
X100447501Y-90925912D01*
D16*
X100853700Y-91332111D02*
X101767200Y-91332111D01*
X101798400Y-91300911D02*
X103410000Y-91300911D01*
X100447501Y-90925912D02*
X100853700Y-91332111D01*
%TO.N,Board_14-Net-(J2-Pin_4)*%
X76019000Y-99851911D02*
X76019000Y-101161911D01*
X75866000Y-105225911D02*
X76019000Y-105072911D01*
X76950000Y-98920911D02*
X76019000Y-99851911D01*
X76019000Y-101161911D02*
X76019000Y-103701911D01*
X65859000Y-103447911D02*
X67637000Y-105225911D01*
X76019000Y-105072911D02*
X76019000Y-103447911D01*
X67637000Y-105225911D02*
X75866000Y-105225911D01*
%TO.N,Board_14-Net-(J2-Pin_2)*%
X66722000Y-86302911D02*
X74723000Y-86302911D01*
X78533000Y-93160911D02*
X77853000Y-93840911D01*
X65986000Y-88207911D02*
X65986000Y-87038911D01*
X74723000Y-86302911D02*
X75257000Y-86836911D01*
X78533000Y-89223911D02*
X78533000Y-93160911D01*
X77853000Y-93840911D02*
X76950000Y-93840911D01*
X75257000Y-86836911D02*
X75257000Y-88200912D01*
X65986000Y-87038911D02*
X66722000Y-86302911D01*
X75257000Y-88200912D02*
X77510001Y-88200912D01*
X77510001Y-88200912D02*
X78533000Y-89223911D01*
%TO.N,Board_14-Net-(J1-Pin_2)*%
X64067501Y-95713412D02*
X65837501Y-95713412D01*
X62815000Y-94460911D02*
X64067501Y-95713412D01*
X61300000Y-94460911D02*
X62815000Y-94460911D01*
%TO.N,Board_14-Net-(J1-Pin_1)*%
X62942000Y-97000911D02*
X64055000Y-98113911D01*
X64055499Y-98113412D02*
X65837501Y-98113412D01*
X61300000Y-97000911D02*
X62942000Y-97000911D01*
X64055000Y-98113911D02*
X64055499Y-98113412D01*
%TO.N,Board_14-Net-(D4-K)*%
X71422501Y-100500912D02*
X71422501Y-102941412D01*
X71422501Y-102941412D02*
X71929000Y-103447911D01*
X71929000Y-103447911D02*
X72919000Y-103447911D01*
%TO.N,Board_14-Net-(D3-K)*%
X62759000Y-102204413D02*
X64437501Y-100525912D01*
X62759000Y-103701911D02*
X62759000Y-102204413D01*
%TO.N,Board_14-Net-(D3-A)*%
X73962501Y-99368410D02*
X76950000Y-96380911D01*
X73962501Y-100500912D02*
X73962501Y-99368410D01*
%TO.N,Board_14-Net-(D2-K)*%
X62886000Y-89374411D02*
X64437501Y-90925912D01*
X62886000Y-88207911D02*
X62886000Y-89374411D01*
D17*
%TO.N,Board_14-Net-(D1-K)*%
X71447501Y-88910411D02*
X72157000Y-88200912D01*
X71447501Y-90925912D02*
X71447501Y-88910411D01*
D16*
%TO.N,Board_14-Net-(D1-A)*%
X75338400Y-91300911D02*
X76950000Y-91300911D01*
X73987501Y-90925912D02*
X74393700Y-91332111D01*
D17*
X74362500Y-91300911D02*
X73987501Y-90925912D01*
D16*
X75307200Y-91332111D02*
X75338400Y-91300911D01*
X74393700Y-91332111D02*
X75307200Y-91332111D01*
%TO.N,Board_13-Net-(J2-Pin_4)*%
X50490000Y-98920911D02*
X49559000Y-99851911D01*
X49559000Y-99851911D02*
X49559000Y-101161911D01*
X49406000Y-105225911D02*
X49559000Y-105072911D01*
X49559000Y-101161911D02*
X49559000Y-103701911D01*
X39399000Y-103447911D02*
X41177000Y-105225911D01*
X41177000Y-105225911D02*
X49406000Y-105225911D01*
X49559000Y-105072911D02*
X49559000Y-103447911D01*
%TO.N,Board_13-Net-(J2-Pin_2)*%
X39526000Y-88207911D02*
X39526000Y-87038911D01*
X51393000Y-93840911D02*
X50490000Y-93840911D01*
X40262000Y-86302911D02*
X48263000Y-86302911D01*
X48797000Y-86836911D02*
X48797000Y-88200912D01*
X52073000Y-89223911D02*
X52073000Y-93160911D01*
X48263000Y-86302911D02*
X48797000Y-86836911D01*
X39526000Y-87038911D02*
X40262000Y-86302911D01*
X52073000Y-93160911D02*
X51393000Y-93840911D01*
X48797000Y-88200912D02*
X51050001Y-88200912D01*
X51050001Y-88200912D02*
X52073000Y-89223911D01*
%TO.N,Board_13-Net-(J1-Pin_2)*%
X37607501Y-95713412D02*
X39377501Y-95713412D01*
X34840000Y-94460911D02*
X36355000Y-94460911D01*
X36355000Y-94460911D02*
X37607501Y-95713412D01*
%TO.N,Board_13-Net-(J1-Pin_1)*%
X37595000Y-98113911D02*
X37595499Y-98113412D01*
X36482000Y-97000911D02*
X37595000Y-98113911D01*
X34840000Y-97000911D02*
X36482000Y-97000911D01*
X37595499Y-98113412D02*
X39377501Y-98113412D01*
%TO.N,Board_13-Net-(D4-K)*%
X44962501Y-102941412D02*
X45469000Y-103447911D01*
X44962501Y-100500912D02*
X44962501Y-102941412D01*
X45469000Y-103447911D02*
X46459000Y-103447911D01*
%TO.N,Board_13-Net-(D3-K)*%
X36299000Y-103701911D02*
X36299000Y-102204413D01*
X36299000Y-102204413D02*
X37977501Y-100525912D01*
%TO.N,Board_13-Net-(D3-A)*%
X47502501Y-100500912D02*
X47502501Y-99368410D01*
X47502501Y-99368410D02*
X50490000Y-96380911D01*
%TO.N,Board_13-Net-(D2-K)*%
X36426000Y-88207911D02*
X36426000Y-89374411D01*
X36426000Y-89374411D02*
X37977501Y-90925912D01*
D17*
%TO.N,Board_13-Net-(D1-K)*%
X44987501Y-90925912D02*
X44987501Y-88910411D01*
X44987501Y-88910411D02*
X45697000Y-88200912D01*
D16*
%TO.N,Board_13-Net-(D1-A)*%
X48878400Y-91300911D02*
X50490000Y-91300911D01*
D17*
X47902500Y-91300911D02*
X47527501Y-90925912D01*
D16*
X47527501Y-90925912D02*
X47933700Y-91332111D01*
X48847200Y-91332111D02*
X48878400Y-91300911D01*
X47933700Y-91332111D02*
X48847200Y-91332111D01*
%TO.N,Board_12-Net-(J2-Pin_4)*%
X24030000Y-98920911D02*
X23099000Y-99851911D01*
X12939000Y-103447911D02*
X14717000Y-105225911D01*
X14717000Y-105225911D02*
X22946000Y-105225911D01*
X23099000Y-101161911D02*
X23099000Y-103701911D01*
X22946000Y-105225911D02*
X23099000Y-105072911D01*
X23099000Y-99851911D02*
X23099000Y-101161911D01*
X23099000Y-105072911D02*
X23099000Y-103447911D01*
%TO.N,Board_12-Net-(J2-Pin_2)*%
X22337000Y-88200912D02*
X24590001Y-88200912D01*
X21803000Y-86302911D02*
X22337000Y-86836911D01*
X13066000Y-88207911D02*
X13066000Y-87038911D01*
X25613000Y-93160911D02*
X24933000Y-93840911D01*
X13066000Y-87038911D02*
X13802000Y-86302911D01*
X24933000Y-93840911D02*
X24030000Y-93840911D01*
X25613000Y-89223911D02*
X25613000Y-93160911D01*
X24590001Y-88200912D02*
X25613000Y-89223911D01*
X22337000Y-86836911D02*
X22337000Y-88200912D01*
X13802000Y-86302911D02*
X21803000Y-86302911D01*
%TO.N,Board_12-Net-(J1-Pin_2)*%
X8380000Y-94460911D02*
X9895000Y-94460911D01*
X11147501Y-95713412D02*
X12917501Y-95713412D01*
X9895000Y-94460911D02*
X11147501Y-95713412D01*
%TO.N,Board_12-Net-(J1-Pin_1)*%
X10022000Y-97000911D02*
X11135000Y-98113911D01*
X11135499Y-98113412D02*
X12917501Y-98113412D01*
X11135000Y-98113911D02*
X11135499Y-98113412D01*
X8380000Y-97000911D02*
X10022000Y-97000911D01*
%TO.N,Board_12-Net-(D4-K)*%
X18502501Y-100500912D02*
X18502501Y-102941412D01*
X18502501Y-102941412D02*
X19009000Y-103447911D01*
X19009000Y-103447911D02*
X19999000Y-103447911D01*
%TO.N,Board_12-Net-(D3-K)*%
X9839000Y-102204413D02*
X11517501Y-100525912D01*
X9839000Y-103701911D02*
X9839000Y-102204413D01*
%TO.N,Board_12-Net-(D3-A)*%
X21042501Y-99368410D02*
X24030000Y-96380911D01*
X21042501Y-100500912D02*
X21042501Y-99368410D01*
%TO.N,Board_12-Net-(D2-K)*%
X9966000Y-89374411D02*
X11517501Y-90925912D01*
X9966000Y-88207911D02*
X9966000Y-89374411D01*
D17*
%TO.N,Board_12-Net-(D1-K)*%
X18527501Y-88910411D02*
X19237000Y-88200912D01*
X18527501Y-90925912D02*
X18527501Y-88910411D01*
%TO.N,Board_12-Net-(D1-A)*%
X21442500Y-91300911D02*
X21067501Y-90925912D01*
D16*
X21067501Y-90925912D02*
X21473700Y-91332111D01*
X22418400Y-91300911D02*
X24030000Y-91300911D01*
X21473700Y-91332111D02*
X22387200Y-91332111D01*
X22387200Y-91332111D02*
X22418400Y-91300911D01*
%TO.N,Board_11-Net-(J2-Pin_4)*%
X103410000Y-72417274D02*
X102479000Y-73348274D01*
X94097000Y-78722274D02*
X102326000Y-78722274D01*
X102326000Y-78722274D02*
X102479000Y-78569274D01*
X92319000Y-76944274D02*
X94097000Y-78722274D01*
X102479000Y-73348274D02*
X102479000Y-74658274D01*
X102479000Y-78569274D02*
X102479000Y-76944274D01*
X102479000Y-74658274D02*
X102479000Y-77198274D01*
%TO.N,Board_11-Net-(J2-Pin_2)*%
X103970001Y-61697275D02*
X104993000Y-62720274D01*
X93182000Y-59799274D02*
X101183000Y-59799274D01*
X101183000Y-59799274D02*
X101717000Y-60333274D01*
X104993000Y-62720274D02*
X104993000Y-66657274D01*
X101717000Y-61697275D02*
X103970001Y-61697275D01*
X92446000Y-60535274D02*
X93182000Y-59799274D01*
X101717000Y-60333274D02*
X101717000Y-61697275D01*
X104993000Y-66657274D02*
X104313000Y-67337274D01*
X92446000Y-61704274D02*
X92446000Y-60535274D01*
X104313000Y-67337274D02*
X103410000Y-67337274D01*
%TO.N,Board_11-Net-(J1-Pin_2)*%
X87760000Y-67957274D02*
X89275000Y-67957274D01*
X90527501Y-69209775D02*
X92297501Y-69209775D01*
X89275000Y-67957274D02*
X90527501Y-69209775D01*
%TO.N,Board_11-Net-(J1-Pin_1)*%
X90515000Y-71610274D02*
X90515499Y-71609775D01*
X87760000Y-70497274D02*
X89402000Y-70497274D01*
X90515499Y-71609775D02*
X92297501Y-71609775D01*
X89402000Y-70497274D02*
X90515000Y-71610274D01*
%TO.N,Board_11-Net-(D4-K)*%
X97882501Y-76437775D02*
X98389000Y-76944274D01*
X98389000Y-76944274D02*
X99379000Y-76944274D01*
X97882501Y-73997275D02*
X97882501Y-76437775D01*
%TO.N,Board_11-Net-(D3-K)*%
X89219000Y-75700776D02*
X90897501Y-74022275D01*
X89219000Y-77198274D02*
X89219000Y-75700776D01*
%TO.N,Board_11-Net-(D3-A)*%
X100422501Y-72864773D02*
X103410000Y-69877274D01*
X100422501Y-73997275D02*
X100422501Y-72864773D01*
%TO.N,Board_11-Net-(D2-K)*%
X89346000Y-62870774D02*
X90897501Y-64422275D01*
X89346000Y-61704274D02*
X89346000Y-62870774D01*
D17*
%TO.N,Board_11-Net-(D1-K)*%
X97907501Y-62406774D02*
X98617000Y-61697275D01*
X97907501Y-64422275D02*
X97907501Y-62406774D01*
D16*
%TO.N,Board_11-Net-(D1-A)*%
X101767200Y-64828474D02*
X101798400Y-64797274D01*
X100853700Y-64828474D02*
X101767200Y-64828474D01*
D17*
X100822500Y-64797274D02*
X100447501Y-64422275D01*
D16*
X100447501Y-64422275D02*
X100853700Y-64828474D01*
X101798400Y-64797274D02*
X103410000Y-64797274D01*
%TO.N,Board_10-Net-(J2-Pin_4)*%
X76019000Y-74658274D02*
X76019000Y-77198274D01*
X67637000Y-78722274D02*
X75866000Y-78722274D01*
X76019000Y-73348274D02*
X76019000Y-74658274D01*
X75866000Y-78722274D02*
X76019000Y-78569274D01*
X65859000Y-76944274D02*
X67637000Y-78722274D01*
X76950000Y-72417274D02*
X76019000Y-73348274D01*
X76019000Y-78569274D02*
X76019000Y-76944274D01*
%TO.N,Board_10-Net-(J2-Pin_2)*%
X74723000Y-59799274D02*
X75257000Y-60333274D01*
X66722000Y-59799274D02*
X74723000Y-59799274D01*
X77510001Y-61697275D02*
X78533000Y-62720274D01*
X77853000Y-67337274D02*
X76950000Y-67337274D01*
X75257000Y-61697275D02*
X77510001Y-61697275D01*
X75257000Y-60333274D02*
X75257000Y-61697275D01*
X65986000Y-61704274D02*
X65986000Y-60535274D01*
X78533000Y-62720274D02*
X78533000Y-66657274D01*
X78533000Y-66657274D02*
X77853000Y-67337274D01*
X65986000Y-60535274D02*
X66722000Y-59799274D01*
%TO.N,Board_10-Net-(J1-Pin_2)*%
X64067501Y-69209775D02*
X65837501Y-69209775D01*
X61300000Y-67957274D02*
X62815000Y-67957274D01*
X62815000Y-67957274D02*
X64067501Y-69209775D01*
%TO.N,Board_10-Net-(J1-Pin_1)*%
X62942000Y-70497274D02*
X64055000Y-71610274D01*
X64055000Y-71610274D02*
X64055499Y-71609775D01*
X61300000Y-70497274D02*
X62942000Y-70497274D01*
X64055499Y-71609775D02*
X65837501Y-71609775D01*
%TO.N,Board_10-Net-(D4-K)*%
X71422501Y-76437775D02*
X71929000Y-76944274D01*
X71422501Y-73997275D02*
X71422501Y-76437775D01*
X71929000Y-76944274D02*
X72919000Y-76944274D01*
%TO.N,Board_10-Net-(D3-K)*%
X62759000Y-77198274D02*
X62759000Y-75700776D01*
X62759000Y-75700776D02*
X64437501Y-74022275D01*
%TO.N,Board_10-Net-(D3-A)*%
X73962501Y-73997275D02*
X73962501Y-72864773D01*
X73962501Y-72864773D02*
X76950000Y-69877274D01*
%TO.N,Board_10-Net-(D2-K)*%
X62886000Y-61704274D02*
X62886000Y-62870774D01*
X62886000Y-62870774D02*
X64437501Y-64422275D01*
D17*
%TO.N,Board_10-Net-(D1-K)*%
X71447501Y-62406774D02*
X72157000Y-61697275D01*
X71447501Y-64422275D02*
X71447501Y-62406774D01*
D16*
%TO.N,Board_10-Net-(D1-A)*%
X75338400Y-64797274D02*
X76950000Y-64797274D01*
X74393700Y-64828474D02*
X75307200Y-64828474D01*
X75307200Y-64828474D02*
X75338400Y-64797274D01*
D17*
X74362500Y-64797274D02*
X73987501Y-64422275D01*
D16*
X73987501Y-64422275D02*
X74393700Y-64828474D01*
%TO.N,Board_9-Net-(J2-Pin_4)*%
X49559000Y-78569274D02*
X49559000Y-76944274D01*
X50490000Y-72417274D02*
X49559000Y-73348274D01*
X41177000Y-78722274D02*
X49406000Y-78722274D01*
X49559000Y-73348274D02*
X49559000Y-74658274D01*
X39399000Y-76944274D02*
X41177000Y-78722274D01*
X49559000Y-74658274D02*
X49559000Y-77198274D01*
X49406000Y-78722274D02*
X49559000Y-78569274D01*
%TO.N,Board_9-Net-(J2-Pin_2)*%
X52073000Y-62720274D02*
X52073000Y-66657274D01*
X48797000Y-61697275D02*
X51050001Y-61697275D01*
X51050001Y-61697275D02*
X52073000Y-62720274D01*
X39526000Y-61704274D02*
X39526000Y-60535274D01*
X48797000Y-60333274D02*
X48797000Y-61697275D01*
X48263000Y-59799274D02*
X48797000Y-60333274D01*
X39526000Y-60535274D02*
X40262000Y-59799274D01*
X40262000Y-59799274D02*
X48263000Y-59799274D01*
X51393000Y-67337274D02*
X50490000Y-67337274D01*
X52073000Y-66657274D02*
X51393000Y-67337274D01*
%TO.N,Board_9-Net-(J1-Pin_2)*%
X36355000Y-67957274D02*
X37607501Y-69209775D01*
X34840000Y-67957274D02*
X36355000Y-67957274D01*
X37607501Y-69209775D02*
X39377501Y-69209775D01*
%TO.N,Board_9-Net-(J1-Pin_1)*%
X37595499Y-71609775D02*
X39377501Y-71609775D01*
X34840000Y-70497274D02*
X36482000Y-70497274D01*
X37595000Y-71610274D02*
X37595499Y-71609775D01*
X36482000Y-70497274D02*
X37595000Y-71610274D01*
%TO.N,Board_9-Net-(D4-K)*%
X44962501Y-76437775D02*
X45469000Y-76944274D01*
X45469000Y-76944274D02*
X46459000Y-76944274D01*
X44962501Y-73997275D02*
X44962501Y-76437775D01*
%TO.N,Board_9-Net-(D3-K)*%
X36299000Y-77198274D02*
X36299000Y-75700776D01*
X36299000Y-75700776D02*
X37977501Y-74022275D01*
%TO.N,Board_9-Net-(D3-A)*%
X47502501Y-73997275D02*
X47502501Y-72864773D01*
X47502501Y-72864773D02*
X50490000Y-69877274D01*
%TO.N,Board_9-Net-(D2-K)*%
X36426000Y-62870774D02*
X37977501Y-64422275D01*
X36426000Y-61704274D02*
X36426000Y-62870774D01*
D17*
%TO.N,Board_9-Net-(D1-K)*%
X44987501Y-64422275D02*
X44987501Y-62406774D01*
X44987501Y-62406774D02*
X45697000Y-61697275D01*
D16*
%TO.N,Board_9-Net-(D1-A)*%
X48847200Y-64828474D02*
X48878400Y-64797274D01*
D17*
X47902500Y-64797274D02*
X47527501Y-64422275D01*
D16*
X47933700Y-64828474D02*
X48847200Y-64828474D01*
X47527501Y-64422275D02*
X47933700Y-64828474D01*
X48878400Y-64797274D02*
X50490000Y-64797274D01*
%TO.N,Board_8-Net-(J2-Pin_4)*%
X14717000Y-78722274D02*
X22946000Y-78722274D01*
X22946000Y-78722274D02*
X23099000Y-78569274D01*
X23099000Y-78569274D02*
X23099000Y-76944274D01*
X23099000Y-73348274D02*
X23099000Y-74658274D01*
X12939000Y-76944274D02*
X14717000Y-78722274D01*
X23099000Y-74658274D02*
X23099000Y-77198274D01*
X24030000Y-72417274D02*
X23099000Y-73348274D01*
%TO.N,Board_8-Net-(J2-Pin_2)*%
X13802000Y-59799274D02*
X21803000Y-59799274D01*
X13066000Y-61704274D02*
X13066000Y-60535274D01*
X22337000Y-61697275D02*
X24590001Y-61697275D01*
X13066000Y-60535274D02*
X13802000Y-59799274D01*
X24933000Y-67337274D02*
X24030000Y-67337274D01*
X25613000Y-66657274D02*
X24933000Y-67337274D01*
X21803000Y-59799274D02*
X22337000Y-60333274D01*
X24590001Y-61697275D02*
X25613000Y-62720274D01*
X25613000Y-62720274D02*
X25613000Y-66657274D01*
X22337000Y-60333274D02*
X22337000Y-61697275D01*
%TO.N,Board_8-Net-(J1-Pin_2)*%
X9895000Y-67957274D02*
X11147501Y-69209775D01*
X11147501Y-69209775D02*
X12917501Y-69209775D01*
X8380000Y-67957274D02*
X9895000Y-67957274D01*
%TO.N,Board_8-Net-(J1-Pin_1)*%
X11135499Y-71609775D02*
X12917501Y-71609775D01*
X8380000Y-70497274D02*
X10022000Y-70497274D01*
X10022000Y-70497274D02*
X11135000Y-71610274D01*
X11135000Y-71610274D02*
X11135499Y-71609775D01*
%TO.N,Board_8-Net-(D4-K)*%
X18502501Y-76437775D02*
X19009000Y-76944274D01*
X18502501Y-73997275D02*
X18502501Y-76437775D01*
X19009000Y-76944274D02*
X19999000Y-76944274D01*
%TO.N,Board_8-Net-(D3-K)*%
X9839000Y-75700776D02*
X11517501Y-74022275D01*
X9839000Y-77198274D02*
X9839000Y-75700776D01*
%TO.N,Board_8-Net-(D3-A)*%
X21042501Y-72864773D02*
X24030000Y-69877274D01*
X21042501Y-73997275D02*
X21042501Y-72864773D01*
%TO.N,Board_8-Net-(D2-K)*%
X9966000Y-62870774D02*
X11517501Y-64422275D01*
X9966000Y-61704274D02*
X9966000Y-62870774D01*
D17*
%TO.N,Board_8-Net-(D1-K)*%
X18527501Y-64422275D02*
X18527501Y-62406774D01*
X18527501Y-62406774D02*
X19237000Y-61697275D01*
D16*
%TO.N,Board_8-Net-(D1-A)*%
X21473700Y-64828474D02*
X22387200Y-64828474D01*
X21067501Y-64422275D02*
X21473700Y-64828474D01*
X22418400Y-64797274D02*
X24030000Y-64797274D01*
D17*
X21442500Y-64797274D02*
X21067501Y-64422275D01*
D16*
X22387200Y-64828474D02*
X22418400Y-64797274D01*
%TO.N,Board_7-Net-(J2-Pin_4)*%
X102479000Y-46844637D02*
X102479000Y-48154637D01*
X102479000Y-48154637D02*
X102479000Y-50694637D01*
X94097000Y-52218637D02*
X102326000Y-52218637D01*
X92319000Y-50440637D02*
X94097000Y-52218637D01*
X103410000Y-45913637D02*
X102479000Y-46844637D01*
X102479000Y-52065637D02*
X102479000Y-50440637D01*
X102326000Y-52218637D02*
X102479000Y-52065637D01*
%TO.N,Board_7-Net-(J2-Pin_2)*%
X101183000Y-33295637D02*
X101717000Y-33829637D01*
X101717000Y-35193638D02*
X103970001Y-35193638D01*
X101717000Y-33829637D02*
X101717000Y-35193638D01*
X104313000Y-40833637D02*
X103410000Y-40833637D01*
X103970001Y-35193638D02*
X104993000Y-36216637D01*
X104993000Y-36216637D02*
X104993000Y-40153637D01*
X92446000Y-35200637D02*
X92446000Y-34031637D01*
X92446000Y-34031637D02*
X93182000Y-33295637D01*
X104993000Y-40153637D02*
X104313000Y-40833637D01*
X93182000Y-33295637D02*
X101183000Y-33295637D01*
%TO.N,Board_7-Net-(J1-Pin_2)*%
X89275000Y-41453637D02*
X90527501Y-42706138D01*
X87760000Y-41453637D02*
X89275000Y-41453637D01*
X90527501Y-42706138D02*
X92297501Y-42706138D01*
%TO.N,Board_7-Net-(J1-Pin_1)*%
X89402000Y-43993637D02*
X90515000Y-45106637D01*
X90515000Y-45106637D02*
X90515499Y-45106138D01*
X90515499Y-45106138D02*
X92297501Y-45106138D01*
X87760000Y-43993637D02*
X89402000Y-43993637D01*
%TO.N,Board_7-Net-(D4-K)*%
X98389000Y-50440637D02*
X99379000Y-50440637D01*
X97882501Y-49934138D02*
X98389000Y-50440637D01*
X97882501Y-47493638D02*
X97882501Y-49934138D01*
%TO.N,Board_7-Net-(D3-K)*%
X89219000Y-49197139D02*
X90897501Y-47518638D01*
X89219000Y-50694637D02*
X89219000Y-49197139D01*
%TO.N,Board_7-Net-(D3-A)*%
X100422501Y-47493638D02*
X100422501Y-46361136D01*
X100422501Y-46361136D02*
X103410000Y-43373637D01*
%TO.N,Board_7-Net-(D2-K)*%
X89346000Y-35200637D02*
X89346000Y-36367137D01*
X89346000Y-36367137D02*
X90897501Y-37918638D01*
D17*
%TO.N,Board_7-Net-(D1-K)*%
X97907501Y-37918638D02*
X97907501Y-35903137D01*
X97907501Y-35903137D02*
X98617000Y-35193638D01*
%TO.N,Board_7-Net-(D1-A)*%
X100822500Y-38293637D02*
X100447501Y-37918638D01*
D16*
X100447501Y-37918638D02*
X100853700Y-38324837D01*
X100853700Y-38324837D02*
X101767200Y-38324837D01*
X101798400Y-38293637D02*
X103410000Y-38293637D01*
X101767200Y-38324837D02*
X101798400Y-38293637D01*
%TO.N,Board_6-Net-(J2-Pin_4)*%
X76019000Y-48154637D02*
X76019000Y-50694637D01*
X76019000Y-46844637D02*
X76019000Y-48154637D01*
X65859000Y-50440637D02*
X67637000Y-52218637D01*
X75866000Y-52218637D02*
X76019000Y-52065637D01*
X76019000Y-52065637D02*
X76019000Y-50440637D01*
X76950000Y-45913637D02*
X76019000Y-46844637D01*
X67637000Y-52218637D02*
X75866000Y-52218637D01*
%TO.N,Board_6-Net-(J2-Pin_2)*%
X66722000Y-33295637D02*
X74723000Y-33295637D01*
X65986000Y-35200637D02*
X65986000Y-34031637D01*
X78533000Y-36216637D02*
X78533000Y-40153637D01*
X65986000Y-34031637D02*
X66722000Y-33295637D01*
X74723000Y-33295637D02*
X75257000Y-33829637D01*
X77853000Y-40833637D02*
X76950000Y-40833637D01*
X78533000Y-40153637D02*
X77853000Y-40833637D01*
X77510001Y-35193638D02*
X78533000Y-36216637D01*
X75257000Y-33829637D02*
X75257000Y-35193638D01*
X75257000Y-35193638D02*
X77510001Y-35193638D01*
%TO.N,Board_6-Net-(J1-Pin_2)*%
X62815000Y-41453637D02*
X64067501Y-42706138D01*
X64067501Y-42706138D02*
X65837501Y-42706138D01*
X61300000Y-41453637D02*
X62815000Y-41453637D01*
%TO.N,Board_6-Net-(J1-Pin_1)*%
X61300000Y-43993637D02*
X62942000Y-43993637D01*
X64055499Y-45106138D02*
X65837501Y-45106138D01*
X64055000Y-45106637D02*
X64055499Y-45106138D01*
X62942000Y-43993637D02*
X64055000Y-45106637D01*
%TO.N,Board_6-Net-(D4-K)*%
X71929000Y-50440637D02*
X72919000Y-50440637D01*
X71422501Y-47493638D02*
X71422501Y-49934138D01*
X71422501Y-49934138D02*
X71929000Y-50440637D01*
%TO.N,Board_6-Net-(D3-K)*%
X62759000Y-49197139D02*
X64437501Y-47518638D01*
X62759000Y-50694637D02*
X62759000Y-49197139D01*
%TO.N,Board_6-Net-(D3-A)*%
X73962501Y-46361136D02*
X76950000Y-43373637D01*
X73962501Y-47493638D02*
X73962501Y-46361136D01*
%TO.N,Board_6-Net-(D2-K)*%
X62886000Y-35200637D02*
X62886000Y-36367137D01*
X62886000Y-36367137D02*
X64437501Y-37918638D01*
D17*
%TO.N,Board_6-Net-(D1-K)*%
X71447501Y-35903137D02*
X72157000Y-35193638D01*
X71447501Y-37918638D02*
X71447501Y-35903137D01*
D16*
%TO.N,Board_6-Net-(D1-A)*%
X73987501Y-37918638D02*
X74393700Y-38324837D01*
X75338400Y-38293637D02*
X76950000Y-38293637D01*
X74393700Y-38324837D02*
X75307200Y-38324837D01*
D17*
X74362500Y-38293637D02*
X73987501Y-37918638D01*
D16*
X75307200Y-38324837D02*
X75338400Y-38293637D01*
%TO.N,Board_5-Net-(J2-Pin_4)*%
X50490000Y-45913637D02*
X49559000Y-46844637D01*
X39399000Y-50440637D02*
X41177000Y-52218637D01*
X49406000Y-52218637D02*
X49559000Y-52065637D01*
X41177000Y-52218637D02*
X49406000Y-52218637D01*
X49559000Y-52065637D02*
X49559000Y-50440637D01*
X49559000Y-46844637D02*
X49559000Y-48154637D01*
X49559000Y-48154637D02*
X49559000Y-50694637D01*
%TO.N,Board_5-Net-(J2-Pin_2)*%
X48263000Y-33295637D02*
X48797000Y-33829637D01*
X52073000Y-40153637D02*
X51393000Y-40833637D01*
X40262000Y-33295637D02*
X48263000Y-33295637D01*
X48797000Y-33829637D02*
X48797000Y-35193638D01*
X39526000Y-35200637D02*
X39526000Y-34031637D01*
X51393000Y-40833637D02*
X50490000Y-40833637D01*
X39526000Y-34031637D02*
X40262000Y-33295637D01*
X52073000Y-36216637D02*
X52073000Y-40153637D01*
X48797000Y-35193638D02*
X51050001Y-35193638D01*
X51050001Y-35193638D02*
X52073000Y-36216637D01*
%TO.N,Board_5-Net-(J1-Pin_2)*%
X37607501Y-42706138D02*
X39377501Y-42706138D01*
X36355000Y-41453637D02*
X37607501Y-42706138D01*
X34840000Y-41453637D02*
X36355000Y-41453637D01*
%TO.N,Board_5-Net-(J1-Pin_1)*%
X34840000Y-43993637D02*
X36482000Y-43993637D01*
X37595000Y-45106637D02*
X37595499Y-45106138D01*
X36482000Y-43993637D02*
X37595000Y-45106637D01*
X37595499Y-45106138D02*
X39377501Y-45106138D01*
%TO.N,Board_5-Net-(D4-K)*%
X45469000Y-50440637D02*
X46459000Y-50440637D01*
X44962501Y-49934138D02*
X45469000Y-50440637D01*
X44962501Y-47493638D02*
X44962501Y-49934138D01*
%TO.N,Board_5-Net-(D3-K)*%
X36299000Y-50694637D02*
X36299000Y-49197139D01*
X36299000Y-49197139D02*
X37977501Y-47518638D01*
%TO.N,Board_5-Net-(D3-A)*%
X47502501Y-46361136D02*
X50490000Y-43373637D01*
X47502501Y-47493638D02*
X47502501Y-46361136D01*
%TO.N,Board_5-Net-(D2-K)*%
X36426000Y-35200637D02*
X36426000Y-36367137D01*
X36426000Y-36367137D02*
X37977501Y-37918638D01*
D17*
%TO.N,Board_5-Net-(D1-K)*%
X44987501Y-35903137D02*
X45697000Y-35193638D01*
X44987501Y-37918638D02*
X44987501Y-35903137D01*
D16*
%TO.N,Board_5-Net-(D1-A)*%
X48878400Y-38293637D02*
X50490000Y-38293637D01*
X48847200Y-38324837D02*
X48878400Y-38293637D01*
X47933700Y-38324837D02*
X48847200Y-38324837D01*
X47527501Y-37918638D02*
X47933700Y-38324837D01*
D17*
X47902500Y-38293637D02*
X47527501Y-37918638D01*
D16*
%TO.N,Board_4-Net-(J2-Pin_4)*%
X12939000Y-50440637D02*
X14717000Y-52218637D01*
X23099000Y-48154637D02*
X23099000Y-50694637D01*
X24030000Y-45913637D02*
X23099000Y-46844637D01*
X14717000Y-52218637D02*
X22946000Y-52218637D01*
X22946000Y-52218637D02*
X23099000Y-52065637D01*
X23099000Y-46844637D02*
X23099000Y-48154637D01*
X23099000Y-52065637D02*
X23099000Y-50440637D01*
%TO.N,Board_4-Net-(J2-Pin_2)*%
X22337000Y-33829637D02*
X22337000Y-35193638D01*
X22337000Y-35193638D02*
X24590001Y-35193638D01*
X13066000Y-35200637D02*
X13066000Y-34031637D01*
X25613000Y-40153637D02*
X24933000Y-40833637D01*
X24933000Y-40833637D02*
X24030000Y-40833637D01*
X24590001Y-35193638D02*
X25613000Y-36216637D01*
X13066000Y-34031637D02*
X13802000Y-33295637D01*
X21803000Y-33295637D02*
X22337000Y-33829637D01*
X25613000Y-36216637D02*
X25613000Y-40153637D01*
X13802000Y-33295637D02*
X21803000Y-33295637D01*
%TO.N,Board_4-Net-(J1-Pin_2)*%
X11147501Y-42706138D02*
X12917501Y-42706138D01*
X9895000Y-41453637D02*
X11147501Y-42706138D01*
X8380000Y-41453637D02*
X9895000Y-41453637D01*
%TO.N,Board_4-Net-(J1-Pin_1)*%
X10022000Y-43993637D02*
X11135000Y-45106637D01*
X8380000Y-43993637D02*
X10022000Y-43993637D01*
X11135000Y-45106637D02*
X11135499Y-45106138D01*
X11135499Y-45106138D02*
X12917501Y-45106138D01*
%TO.N,Board_4-Net-(D4-K)*%
X18502501Y-47493638D02*
X18502501Y-49934138D01*
X18502501Y-49934138D02*
X19009000Y-50440637D01*
X19009000Y-50440637D02*
X19999000Y-50440637D01*
%TO.N,Board_4-Net-(D3-K)*%
X9839000Y-49197139D02*
X11517501Y-47518638D01*
X9839000Y-50694637D02*
X9839000Y-49197139D01*
%TO.N,Board_4-Net-(D3-A)*%
X21042501Y-47493638D02*
X21042501Y-46361136D01*
X21042501Y-46361136D02*
X24030000Y-43373637D01*
%TO.N,Board_4-Net-(D2-K)*%
X9966000Y-36367137D02*
X11517501Y-37918638D01*
X9966000Y-35200637D02*
X9966000Y-36367137D01*
D17*
%TO.N,Board_4-Net-(D1-K)*%
X18527501Y-37918638D02*
X18527501Y-35903137D01*
X18527501Y-35903137D02*
X19237000Y-35193638D01*
D16*
%TO.N,Board_4-Net-(D1-A)*%
X22418400Y-38293637D02*
X24030000Y-38293637D01*
X21473700Y-38324837D02*
X22387200Y-38324837D01*
D17*
X21442500Y-38293637D02*
X21067501Y-37918638D01*
D16*
X22387200Y-38324837D02*
X22418400Y-38293637D01*
X21067501Y-37918638D02*
X21473700Y-38324837D01*
%TO.N,Board_3-Net-(J2-Pin_4)*%
X102479000Y-25562000D02*
X102479000Y-23937000D01*
X103410000Y-19410000D02*
X102479000Y-20341000D01*
X102479000Y-21651000D02*
X102479000Y-24191000D01*
X102326000Y-25715000D02*
X102479000Y-25562000D01*
X92319000Y-23937000D02*
X94097000Y-25715000D01*
X94097000Y-25715000D02*
X102326000Y-25715000D01*
X102479000Y-20341000D02*
X102479000Y-21651000D01*
%TO.N,Board_3-Net-(J2-Pin_2)*%
X101717000Y-8690001D02*
X103970001Y-8690001D01*
X92446000Y-7528000D02*
X93182000Y-6792000D01*
X101717000Y-7326000D02*
X101717000Y-8690001D01*
X104313000Y-14330000D02*
X103410000Y-14330000D01*
X93182000Y-6792000D02*
X101183000Y-6792000D01*
X92446000Y-8697000D02*
X92446000Y-7528000D01*
X104993000Y-13650000D02*
X104313000Y-14330000D01*
X103970001Y-8690001D02*
X104993000Y-9713000D01*
X101183000Y-6792000D02*
X101717000Y-7326000D01*
X104993000Y-9713000D02*
X104993000Y-13650000D01*
%TO.N,Board_3-Net-(J1-Pin_2)*%
X87760000Y-14950000D02*
X89275000Y-14950000D01*
X89275000Y-14950000D02*
X90527501Y-16202501D01*
X90527501Y-16202501D02*
X92297501Y-16202501D01*
%TO.N,Board_3-Net-(J1-Pin_1)*%
X90515499Y-18602501D02*
X92297501Y-18602501D01*
X89402000Y-17490000D02*
X90515000Y-18603000D01*
X87760000Y-17490000D02*
X89402000Y-17490000D01*
X90515000Y-18603000D02*
X90515499Y-18602501D01*
%TO.N,Board_3-Net-(D4-K)*%
X97882501Y-23430501D02*
X98389000Y-23937000D01*
X98389000Y-23937000D02*
X99379000Y-23937000D01*
X97882501Y-20990001D02*
X97882501Y-23430501D01*
%TO.N,Board_3-Net-(D3-K)*%
X89219000Y-24191000D02*
X89219000Y-22693502D01*
X89219000Y-22693502D02*
X90897501Y-21015001D01*
%TO.N,Board_3-Net-(D3-A)*%
X100422501Y-19857499D02*
X103410000Y-16870000D01*
X100422501Y-20990001D02*
X100422501Y-19857499D01*
%TO.N,Board_3-Net-(D2-K)*%
X89346000Y-8697000D02*
X89346000Y-9863500D01*
X89346000Y-9863500D02*
X90897501Y-11415001D01*
D17*
%TO.N,Board_3-Net-(D1-K)*%
X97907501Y-11415001D02*
X97907501Y-9399500D01*
X97907501Y-9399500D02*
X98617000Y-8690001D01*
D16*
%TO.N,Board_3-Net-(D1-A)*%
X101798400Y-11790000D02*
X103410000Y-11790000D01*
X100853700Y-11821200D02*
X101767200Y-11821200D01*
X100447501Y-11415001D02*
X100853700Y-11821200D01*
D17*
X100822500Y-11790000D02*
X100447501Y-11415001D01*
D16*
X101767200Y-11821200D02*
X101798400Y-11790000D01*
%TO.N,Board_2-Net-(J2-Pin_4)*%
X76019000Y-25562000D02*
X76019000Y-23937000D01*
X75866000Y-25715000D02*
X76019000Y-25562000D01*
X65859000Y-23937000D02*
X67637000Y-25715000D01*
X76019000Y-20341000D02*
X76019000Y-21651000D01*
X67637000Y-25715000D02*
X75866000Y-25715000D01*
X76019000Y-21651000D02*
X76019000Y-24191000D01*
X76950000Y-19410000D02*
X76019000Y-20341000D01*
%TO.N,Board_2-Net-(J2-Pin_2)*%
X65986000Y-7528000D02*
X66722000Y-6792000D01*
X78533000Y-9713000D02*
X78533000Y-13650000D01*
X75257000Y-7326000D02*
X75257000Y-8690001D01*
X77510001Y-8690001D02*
X78533000Y-9713000D01*
X75257000Y-8690001D02*
X77510001Y-8690001D01*
X77853000Y-14330000D02*
X76950000Y-14330000D01*
X66722000Y-6792000D02*
X74723000Y-6792000D01*
X78533000Y-13650000D02*
X77853000Y-14330000D01*
X74723000Y-6792000D02*
X75257000Y-7326000D01*
X65986000Y-8697000D02*
X65986000Y-7528000D01*
%TO.N,Board_2-Net-(J1-Pin_2)*%
X64067501Y-16202501D02*
X65837501Y-16202501D01*
X61300000Y-14950000D02*
X62815000Y-14950000D01*
X62815000Y-14950000D02*
X64067501Y-16202501D01*
%TO.N,Board_2-Net-(J1-Pin_1)*%
X61300000Y-17490000D02*
X62942000Y-17490000D01*
X62942000Y-17490000D02*
X64055000Y-18603000D01*
X64055499Y-18602501D02*
X65837501Y-18602501D01*
X64055000Y-18603000D02*
X64055499Y-18602501D01*
%TO.N,Board_2-Net-(D4-K)*%
X71929000Y-23937000D02*
X72919000Y-23937000D01*
X71422501Y-23430501D02*
X71929000Y-23937000D01*
X71422501Y-20990001D02*
X71422501Y-23430501D01*
%TO.N,Board_2-Net-(D3-K)*%
X62759000Y-24191000D02*
X62759000Y-22693502D01*
X62759000Y-22693502D02*
X64437501Y-21015001D01*
%TO.N,Board_2-Net-(D3-A)*%
X73962501Y-19857499D02*
X76950000Y-16870000D01*
X73962501Y-20990001D02*
X73962501Y-19857499D01*
%TO.N,Board_2-Net-(D2-K)*%
X62886000Y-8697000D02*
X62886000Y-9863500D01*
X62886000Y-9863500D02*
X64437501Y-11415001D01*
D17*
%TO.N,Board_2-Net-(D1-K)*%
X71447501Y-9399500D02*
X72157000Y-8690001D01*
X71447501Y-11415001D02*
X71447501Y-9399500D01*
D16*
%TO.N,Board_2-Net-(D1-A)*%
X75307200Y-11821200D02*
X75338400Y-11790000D01*
X75338400Y-11790000D02*
X76950000Y-11790000D01*
X74393700Y-11821200D02*
X75307200Y-11821200D01*
D17*
X74362500Y-11790000D02*
X73987501Y-11415001D01*
D16*
X73987501Y-11415001D02*
X74393700Y-11821200D01*
%TO.N,Board_1-Net-(J2-Pin_4)*%
X49559000Y-25562000D02*
X49559000Y-23937000D01*
X41177000Y-25715000D02*
X49406000Y-25715000D01*
X49559000Y-20341000D02*
X49559000Y-21651000D01*
X49406000Y-25715000D02*
X49559000Y-25562000D01*
X50490000Y-19410000D02*
X49559000Y-20341000D01*
X39399000Y-23937000D02*
X41177000Y-25715000D01*
X49559000Y-21651000D02*
X49559000Y-24191000D01*
%TO.N,Board_1-Net-(J2-Pin_2)*%
X52073000Y-13650000D02*
X51393000Y-14330000D01*
X40262000Y-6792000D02*
X48263000Y-6792000D01*
X51393000Y-14330000D02*
X50490000Y-14330000D01*
X39526000Y-7528000D02*
X40262000Y-6792000D01*
X48263000Y-6792000D02*
X48797000Y-7326000D01*
X48797000Y-7326000D02*
X48797000Y-8690001D01*
X48797000Y-8690001D02*
X51050001Y-8690001D01*
X51050001Y-8690001D02*
X52073000Y-9713000D01*
X39526000Y-8697000D02*
X39526000Y-7528000D01*
X52073000Y-9713000D02*
X52073000Y-13650000D01*
%TO.N,Board_1-Net-(J1-Pin_2)*%
X34840000Y-14950000D02*
X36355000Y-14950000D01*
X36355000Y-14950000D02*
X37607501Y-16202501D01*
X37607501Y-16202501D02*
X39377501Y-16202501D01*
%TO.N,Board_1-Net-(J1-Pin_1)*%
X36482000Y-17490000D02*
X37595000Y-18603000D01*
X37595000Y-18603000D02*
X37595499Y-18602501D01*
X37595499Y-18602501D02*
X39377501Y-18602501D01*
X34840000Y-17490000D02*
X36482000Y-17490000D01*
%TO.N,Board_1-Net-(D4-K)*%
X45469000Y-23937000D02*
X46459000Y-23937000D01*
X44962501Y-23430501D02*
X45469000Y-23937000D01*
X44962501Y-20990001D02*
X44962501Y-23430501D01*
%TO.N,Board_1-Net-(D3-K)*%
X36299000Y-22693502D02*
X37977501Y-21015001D01*
X36299000Y-24191000D02*
X36299000Y-22693502D01*
%TO.N,Board_1-Net-(D3-A)*%
X47502501Y-20990001D02*
X47502501Y-19857499D01*
X47502501Y-19857499D02*
X50490000Y-16870000D01*
%TO.N,Board_1-Net-(D2-K)*%
X36426000Y-8697000D02*
X36426000Y-9863500D01*
X36426000Y-9863500D02*
X37977501Y-11415001D01*
D17*
%TO.N,Board_1-Net-(D1-K)*%
X44987501Y-9399500D02*
X45697000Y-8690001D01*
X44987501Y-11415001D02*
X44987501Y-9399500D01*
D16*
%TO.N,Board_1-Net-(D1-A)*%
X48878400Y-11790000D02*
X50490000Y-11790000D01*
D17*
X47902500Y-11790000D02*
X47527501Y-11415001D01*
D16*
X47933700Y-11821200D02*
X48847200Y-11821200D01*
X47527501Y-11415001D02*
X47933700Y-11821200D01*
X48847200Y-11821200D02*
X48878400Y-11790000D01*
%TO.N,Board_0-Net-(J2-Pin_4)*%
X24030000Y-19410000D02*
X23099000Y-20341000D01*
X14717000Y-25715000D02*
X22946000Y-25715000D01*
X22946000Y-25715000D02*
X23099000Y-25562000D01*
X23099000Y-20341000D02*
X23099000Y-21651000D01*
X23099000Y-21651000D02*
X23099000Y-24191000D01*
X23099000Y-25562000D02*
X23099000Y-23937000D01*
X12939000Y-23937000D02*
X14717000Y-25715000D01*
%TO.N,Board_0-Net-(J2-Pin_2)*%
X13066000Y-8697000D02*
X13066000Y-7528000D01*
X24590001Y-8690001D02*
X25613000Y-9713000D01*
X21803000Y-6792000D02*
X22337000Y-7326000D01*
X25613000Y-9713000D02*
X25613000Y-13650000D01*
X25613000Y-13650000D02*
X24933000Y-14330000D01*
X24933000Y-14330000D02*
X24030000Y-14330000D01*
X22337000Y-8690001D02*
X24590001Y-8690001D01*
X13066000Y-7528000D02*
X13802000Y-6792000D01*
X22337000Y-7326000D02*
X22337000Y-8690001D01*
X13802000Y-6792000D02*
X21803000Y-6792000D01*
%TO.N,Board_0-Net-(J1-Pin_2)*%
X8380000Y-14950000D02*
X9895000Y-14950000D01*
X11147501Y-16202501D02*
X12917501Y-16202501D01*
X9895000Y-14950000D02*
X11147501Y-16202501D01*
%TO.N,Board_0-Net-(J1-Pin_1)*%
X8380000Y-17490000D02*
X10022000Y-17490000D01*
X11135499Y-18602501D02*
X12917501Y-18602501D01*
X11135000Y-18603000D02*
X11135499Y-18602501D01*
X10022000Y-17490000D02*
X11135000Y-18603000D01*
%TO.N,Board_0-Net-(D4-K)*%
X18502501Y-23430501D02*
X19009000Y-23937000D01*
X19009000Y-23937000D02*
X19999000Y-23937000D01*
X18502501Y-20990001D02*
X18502501Y-23430501D01*
%TO.N,Board_0-Net-(D3-K)*%
X9839000Y-22693502D02*
X11517501Y-21015001D01*
X9839000Y-24191000D02*
X9839000Y-22693502D01*
%TO.N,Board_0-Net-(D3-A)*%
X21042501Y-20990001D02*
X21042501Y-19857499D01*
X21042501Y-19857499D02*
X24030000Y-16870000D01*
%TO.N,Board_0-Net-(D2-K)*%
X9966000Y-8697000D02*
X9966000Y-9863500D01*
X9966000Y-9863500D02*
X11517501Y-11415001D01*
D17*
%TO.N,Board_0-Net-(D1-K)*%
X18527501Y-9399500D02*
X19237000Y-8690001D01*
X18527501Y-11415001D02*
X18527501Y-9399500D01*
D16*
%TO.N,Board_0-Net-(D1-A)*%
X21473700Y-11821200D02*
X22387200Y-11821200D01*
D17*
X21442500Y-11790000D02*
X21067501Y-11415001D01*
D16*
X22387200Y-11821200D02*
X22418400Y-11790000D01*
X22418400Y-11790000D02*
X24030000Y-11790000D01*
X21067501Y-11415001D02*
X21473700Y-11821200D01*
%TD*%
M02*
