M48
; DRILL file {KiCad 9.0.5} date 2025-10-19T16:32:40+0200
; FORMAT={-:-/ absolute / inch / decimal}
; #@! TF.CreationDate,2025-10-19T16:32:40+02:00
; #@! TF.GenerationSoftware,Kicad,Pcbnew,9.0.5
; #@! TF.FileFunction,Plated,1,2,PTH
FMAT,2
INCH
; #@! TA.AperFunction,Plated,PTH,ComponentDrill
T1C0.0315
; #@! TA.AperFunction,Plated,PTH,ComponentDrill
T2C0.0354
; #@! TA.AperFunction,Plated,PTH,ComponentDrill
T3C0.0394
%
G90
G05
T1
X0.5479Y-0.5828
X0.5479Y-0.6773
X0.5479Y-0.7718
X0.5479Y-1.5081
X0.5479Y-1.6026
X0.5479Y-1.6971
X0.5479Y-2.4335
X0.5479Y-2.5279
X0.5479Y-2.6224
X0.5479Y-3.3588
X0.5479Y-3.4533
X0.5479Y-3.5478
X0.794Y-0.5828
X0.794Y-0.6773
X0.794Y-0.7718
X0.794Y-1.5081
X0.794Y-1.6026
X0.794Y-1.6971
X0.794Y-2.4335
X0.794Y-2.5279
X0.794Y-2.6224
X0.794Y-3.3588
X0.794Y-3.4533
X0.794Y-3.5478
X1.4716Y-0.5828
X1.4716Y-0.6773
X1.4716Y-0.7718
X1.4716Y-1.5081
X1.4716Y-1.6026
X1.4716Y-1.6971
X1.4716Y-2.4335
X1.4716Y-2.5279
X1.4716Y-2.6224
X1.4716Y-3.3588
X1.4716Y-3.4533
X1.4716Y-3.5478
X1.7176Y-0.5828
X1.7176Y-0.6773
X1.7176Y-0.7718
X1.7176Y-1.5081
X1.7176Y-1.6026
X1.7176Y-1.6971
X1.7176Y-2.4335
X1.7176Y-2.5279
X1.7176Y-2.6224
X1.7176Y-3.3588
X1.7176Y-3.4533
X1.7176Y-3.5478
X2.3952Y-0.5828
X2.3952Y-0.6773
X2.3952Y-0.7718
X2.3952Y-1.5081
X2.3952Y-1.6026
X2.3952Y-1.6971
X2.3952Y-2.4335
X2.3952Y-2.5279
X2.3952Y-2.6224
X2.3952Y-3.3588
X2.3952Y-3.4533
X2.3952Y-3.5478
X2.6412Y-0.5828
X2.6412Y-0.6773
X2.6412Y-0.7718
X2.6412Y-1.5081
X2.6412Y-1.6026
X2.6412Y-1.6971
X2.6412Y-2.4335
X2.6412Y-2.5279
X2.6412Y-2.6224
X2.6412Y-3.3588
X2.6412Y-3.4533
X2.6412Y-3.5478
X3.3188Y-0.5828
X3.3188Y-0.6773
X3.3188Y-0.7718
X3.3188Y-1.5081
X3.3188Y-1.6026
X3.3188Y-1.6971
X3.3188Y-2.4335
X3.3188Y-2.5279
X3.3188Y-2.6224
X3.3188Y-3.3588
X3.3188Y-3.4533
X3.3188Y-3.5478
X3.5649Y-0.5828
X3.5649Y-0.6773
X3.5649Y-0.7718
X3.5649Y-1.5081
X3.5649Y-1.6026
X3.5649Y-1.6971
X3.5649Y-2.4335
X3.5649Y-2.5279
X3.5649Y-2.6224
X3.5649Y-3.3588
X3.5649Y-3.4533
X3.5649Y-3.5478
T2
X0.4928Y-0.4888
X0.4928Y-0.8667
X0.4928Y-1.4141
X0.4928Y-1.7921
X0.4928Y-2.3395
X0.4928Y-2.7174
X0.4928Y-3.2648
X0.4928Y-3.6428
X0.5928Y-0.4888
X0.5928Y-0.8667
X0.5928Y-1.4141
X0.5928Y-1.7921
X0.5928Y-2.3395
X0.5928Y-2.7174
X0.5928Y-3.2648
X0.5928Y-3.6428
X0.7678Y-0.8657
X0.7678Y-1.7911
X0.7678Y-2.7164
X0.7678Y-3.6418
X0.7688Y-0.4888
X0.7688Y-1.4141
X0.7688Y-2.3395
X0.7688Y-3.2648
X0.8678Y-0.8657
X0.8678Y-1.7911
X0.8678Y-2.7164
X0.8678Y-3.6418
X0.8688Y-0.4888
X0.8688Y-1.4141
X0.8688Y-2.3395
X0.8688Y-3.2648
X1.4164Y-0.4888
X1.4164Y-0.8667
X1.4164Y-1.4141
X1.4164Y-1.7921
X1.4164Y-2.3395
X1.4164Y-2.7174
X1.4164Y-3.2648
X1.4164Y-3.6428
X1.5164Y-0.4888
X1.5164Y-0.8667
X1.5164Y-1.4141
X1.5164Y-1.7921
X1.5164Y-2.3395
X1.5164Y-2.7174
X1.5164Y-3.2648
X1.5164Y-3.6428
X1.6914Y-0.8657
X1.6914Y-1.7911
X1.6914Y-2.7164
X1.6914Y-3.6418
X1.6924Y-0.4888
X1.6924Y-1.4141
X1.6924Y-2.3395
X1.6924Y-3.2648
X1.7914Y-0.8657
X1.7914Y-1.7911
X1.7914Y-2.7164
X1.7914Y-3.6418
X1.7924Y-0.4888
X1.7924Y-1.4141
X1.7924Y-2.3395
X1.7924Y-3.2648
X2.3401Y-0.4888
X2.3401Y-0.8667
X2.3401Y-1.4141
X2.3401Y-1.7921
X2.3401Y-2.3395
X2.3401Y-2.7174
X2.3401Y-3.2648
X2.3401Y-3.6428
X2.4401Y-0.4888
X2.4401Y-0.8667
X2.4401Y-1.4141
X2.4401Y-1.7921
X2.4401Y-2.3395
X2.4401Y-2.7174
X2.4401Y-3.2648
X2.4401Y-3.6428
X2.6151Y-0.8657
X2.6151Y-1.7911
X2.6151Y-2.7164
X2.6151Y-3.6418
X2.616Y-0.4888
X2.616Y-1.4141
X2.616Y-2.3395
X2.616Y-3.2648
X2.7151Y-0.8657
X2.7151Y-1.7911
X2.7151Y-2.7164
X2.7151Y-3.6418
X2.716Y-0.4888
X2.716Y-1.4141
X2.716Y-2.3395
X2.716Y-3.2648
X3.2637Y-0.4888
X3.2637Y-0.8667
X3.2637Y-1.4141
X3.2637Y-1.7921
X3.2637Y-2.3395
X3.2637Y-2.7174
X3.2637Y-3.2648
X3.2637Y-3.6428
X3.3637Y-0.4888
X3.3637Y-0.8667
X3.3637Y-1.4141
X3.3637Y-1.7921
X3.3637Y-2.3395
X3.3637Y-2.7174
X3.3637Y-3.2648
X3.3637Y-3.6428
X3.5387Y-0.8657
X3.5387Y-1.7911
X3.5387Y-2.7164
X3.5387Y-3.6418
X3.5397Y-0.4888
X3.5397Y-1.4141
X3.5397Y-2.3395
X3.5397Y-3.2648
X3.6387Y-0.8657
X3.6387Y-1.7911
X3.6387Y-2.7164
X3.6387Y-3.6418
X3.6397Y-0.4888
X3.6397Y-1.4141
X3.6397Y-2.3395
X3.6397Y-3.2648
T3
X0.3693Y-0.628
X0.3693Y-0.728
X0.3693Y-1.5533
X0.3693Y-1.6533
X0.3693Y-2.4786
X0.3693Y-2.5786
X0.3693Y-3.404
X0.3693Y-3.504
X0.9831Y-0.4539
X0.9831Y-0.5539
X0.9831Y-0.6539
X0.9831Y-0.7539
X0.9831Y-1.3793
X0.9831Y-1.4793
X0.9831Y-1.5793
X0.9831Y-1.6793
X0.9831Y-2.3046
X0.9831Y-2.4046
X0.9831Y-2.5046
X0.9831Y-2.6046
X0.9831Y-3.23
X0.9831Y-3.33
X0.9831Y-3.43
X0.9831Y-3.53
X1.2929Y-0.628
X1.2929Y-0.728
X1.2929Y-1.5533
X1.2929Y-1.6533
X1.2929Y-2.4786
X1.2929Y-2.5786
X1.2929Y-3.404
X1.2929Y-3.504
X1.9067Y-0.4539
X1.9067Y-0.5539
X1.9067Y-0.6539
X1.9067Y-0.7539
X1.9067Y-1.3793
X1.9067Y-1.4793
X1.9067Y-1.5793
X1.9067Y-1.6793
X1.9067Y-2.3046
X1.9067Y-2.4046
X1.9067Y-2.5046
X1.9067Y-2.6046
X1.9067Y-3.23
X1.9067Y-3.33
X1.9067Y-3.43
X1.9067Y-3.53
X2.2165Y-0.628
X2.2165Y-0.728
X2.2165Y-1.5533
X2.2165Y-1.6533
X2.2165Y-2.4786
X2.2165Y-2.5786
X2.2165Y-3.404
X2.2165Y-3.504
X2.8303Y-0.4539
X2.8303Y-0.5539
X2.8303Y-0.6539
X2.8303Y-0.7539
X2.8303Y-1.3793
X2.8303Y-1.4793
X2.8303Y-1.5793
X2.8303Y-1.6793
X2.8303Y-2.3046
X2.8303Y-2.4046
X2.8303Y-2.5046
X2.8303Y-2.6046
X2.8303Y-3.23
X2.8303Y-3.33
X2.8303Y-3.43
X2.8303Y-3.53
X3.1402Y-0.628
X3.1402Y-0.728
X3.1402Y-1.5533
X3.1402Y-1.6533
X3.1402Y-2.4786
X3.1402Y-2.5786
X3.1402Y-3.404
X3.1402Y-3.504
X3.7539Y-0.4539
X3.7539Y-0.5539
X3.7539Y-0.6539
X3.7539Y-0.7539
X3.7539Y-1.3793
X3.7539Y-1.4793
X3.7539Y-1.5793
X3.7539Y-1.6793
X3.7539Y-2.3046
X3.7539Y-2.4046
X3.7539Y-2.5046
X3.7539Y-2.6046
X3.7539Y-3.23
X3.7539Y-3.33
X3.7539Y-3.43
X3.7539Y-3.53
M30
