%TF.GenerationSoftware,KiCad,Pcbnew,9.0.3*%
%TF.CreationDate,2025-08-07T16:58:50+02:00*%
%TF.ProjectId,KorryPanels,4b6f7272-7950-4616-9e65-6c732e6b6963,rev?*%
%TF.SameCoordinates,Original*%
%TF.FileFunction,Soldermask,Top*%
%TF.FilePolarity,Negative*%
%FSLAX46Y46*%
G04 Gerber Fmt 4.6, Leading zero omitted, Abs format (unit mm)*
G04 Created by KiCad (PCBNEW 9.0.3) date 2025-08-07 16:58:50*
%MOMM*%
%LPD*%
G01*
G04 APERTURE LIST*
%ADD10R,1.700000X1.700000*%
%ADD11C,1.700000*%
%ADD12C,2.100000*%
%ADD13R,1.800000X1.800000*%
%ADD14C,1.800000*%
%ADD15C,1.000000*%
G04 APERTURE END LIST*
D10*
%TO.C,J1*%
X69760000Y-33993637D03*
D11*
X69760000Y-31453637D03*
%TD*%
D10*
%TO.C,J2*%
X40490000Y-73300911D03*
D11*
X40490000Y-75840911D03*
X40490000Y-78380911D03*
X40490000Y-80920911D03*
%TD*%
D10*
%TO.C,J2*%
X40490000Y-50797274D03*
D11*
X40490000Y-53337274D03*
X40490000Y-55877274D03*
X40490000Y-58417274D03*
%TD*%
D10*
%TO.C,J2*%
X85410000Y-73300911D03*
D11*
X85410000Y-75840911D03*
X85410000Y-78380911D03*
X85410000Y-80920911D03*
%TD*%
D10*
%TO.C,J1*%
X2380000Y-79000911D03*
D11*
X2380000Y-76460911D03*
%TD*%
D10*
%TO.C,J1*%
X24840000Y-56497274D03*
D11*
X24840000Y-53957274D03*
%TD*%
D10*
%TO.C,J1*%
X47300000Y-79000911D03*
D11*
X47300000Y-76460911D03*
%TD*%
D10*
%TO.C,J1*%
X69760000Y-79000911D03*
D11*
X69760000Y-76460911D03*
%TD*%
D10*
%TO.C,J2*%
X18030000Y-73300911D03*
D11*
X18030000Y-75840911D03*
X18030000Y-78380911D03*
X18030000Y-80920911D03*
%TD*%
D10*
%TO.C,J2*%
X62950000Y-50797274D03*
D11*
X62950000Y-53337274D03*
X62950000Y-55877274D03*
X62950000Y-58417274D03*
%TD*%
D10*
%TO.C,J2*%
X18030000Y-28293637D03*
D11*
X18030000Y-30833637D03*
X18030000Y-33373637D03*
X18030000Y-35913637D03*
%TD*%
D10*
%TO.C,J1*%
X24840000Y-11490000D03*
D11*
X24840000Y-8950000D03*
%TD*%
D10*
%TO.C,J2*%
X40490000Y-28293637D03*
D11*
X40490000Y-30833637D03*
X40490000Y-33373637D03*
X40490000Y-35913637D03*
%TD*%
D10*
%TO.C,J1*%
X47300000Y-56497274D03*
D11*
X47300000Y-53957274D03*
%TD*%
D10*
%TO.C,J2*%
X85410000Y-28293637D03*
D11*
X85410000Y-30833637D03*
X85410000Y-33373637D03*
X85410000Y-35913637D03*
%TD*%
D10*
%TO.C,J2*%
X18030000Y-50797274D03*
D11*
X18030000Y-53337274D03*
X18030000Y-55877274D03*
X18030000Y-58417274D03*
%TD*%
D10*
%TO.C,J2*%
X62950000Y-73300911D03*
D11*
X62950000Y-75840911D03*
X62950000Y-78380911D03*
X62950000Y-80920911D03*
%TD*%
D10*
%TO.C,J1*%
X2380000Y-11490000D03*
D11*
X2380000Y-8950000D03*
%TD*%
D10*
%TO.C,J1*%
X69760000Y-11490000D03*
D11*
X69760000Y-8950000D03*
%TD*%
D10*
%TO.C,J1*%
X24840000Y-79000911D03*
D11*
X24840000Y-76460911D03*
%TD*%
D10*
%TO.C,J1*%
X47300000Y-33993637D03*
D11*
X47300000Y-31453637D03*
%TD*%
D10*
%TO.C,J1*%
X2380000Y-56497274D03*
D11*
X2380000Y-53957274D03*
%TD*%
D10*
%TO.C,J2*%
X62950000Y-28293637D03*
D11*
X62950000Y-30833637D03*
X62950000Y-33373637D03*
X62950000Y-35913637D03*
%TD*%
D10*
%TO.C,J2*%
X85410000Y-50797274D03*
D11*
X85410000Y-53337274D03*
X85410000Y-55877274D03*
X85410000Y-58417274D03*
%TD*%
D10*
%TO.C,J1*%
X69760000Y-56497274D03*
D11*
X69760000Y-53957274D03*
%TD*%
D10*
%TO.C,J2*%
X85410000Y-5790000D03*
D11*
X85410000Y-8330000D03*
X85410000Y-10870000D03*
X85410000Y-13410000D03*
%TD*%
D10*
%TO.C,J1*%
X47300000Y-11490000D03*
D11*
X47300000Y-8950000D03*
%TD*%
D10*
%TO.C,J1*%
X2380000Y-33993637D03*
D11*
X2380000Y-31453637D03*
%TD*%
D10*
%TO.C,J2*%
X40490000Y-5790000D03*
D11*
X40490000Y-8330000D03*
X40490000Y-10870000D03*
X40490000Y-13410000D03*
%TD*%
D10*
%TO.C,J2*%
X62950000Y-5790000D03*
D11*
X62950000Y-8330000D03*
X62950000Y-10870000D03*
X62950000Y-13410000D03*
%TD*%
D10*
%TO.C,J2*%
X18030000Y-5790000D03*
D11*
X18030000Y-8330000D03*
X18030000Y-10870000D03*
X18030000Y-13410000D03*
%TD*%
D10*
%TO.C,J1*%
X24840000Y-33993637D03*
D11*
X24840000Y-31453637D03*
%TD*%
D12*
%TO.C,U1*%
X29377501Y-80113412D03*
X29377501Y-77713412D03*
X29377501Y-75313412D03*
X35627501Y-80113412D03*
X35627501Y-77713412D03*
X35627501Y-75313412D03*
%TD*%
D13*
%TO.C,D3*%
X72897501Y-82525912D03*
D14*
X75437501Y-82525912D03*
%TD*%
D13*
%TO.C,D1*%
X12527501Y-27918638D03*
D14*
X15067501Y-27918638D03*
%TD*%
D13*
%TO.C,D4*%
X79882501Y-37493638D03*
D14*
X82422501Y-37493638D03*
%TD*%
D13*
%TO.C,D4*%
X34962501Y-14990001D03*
D14*
X37502501Y-14990001D03*
%TD*%
D13*
%TO.C,D2*%
X72897501Y-27918638D03*
D14*
X75437501Y-27918638D03*
%TD*%
D12*
%TO.C,U1*%
X51837501Y-35106138D03*
X51837501Y-32706138D03*
X51837501Y-30306138D03*
X58087501Y-35106138D03*
X58087501Y-32706138D03*
X58087501Y-30306138D03*
%TD*%
D13*
%TO.C,D2*%
X72897501Y-50422275D03*
D14*
X75437501Y-50422275D03*
%TD*%
D13*
%TO.C,D2*%
X27977501Y-72925912D03*
D14*
X30517501Y-72925912D03*
%TD*%
D12*
%TO.C,U1*%
X74297501Y-35106138D03*
X74297501Y-32706138D03*
X74297501Y-30306138D03*
X80547501Y-35106138D03*
X80547501Y-32706138D03*
X80547501Y-30306138D03*
%TD*%
%TO.C,U1*%
X6917501Y-12602501D03*
X6917501Y-10202501D03*
X6917501Y-7802501D03*
X13167501Y-12602501D03*
X13167501Y-10202501D03*
X13167501Y-7802501D03*
%TD*%
D15*
%TO.C,KiKit_FID_T_3*%
X6000000Y-85014547D03*
%TD*%
D13*
%TO.C,D4*%
X79882501Y-82500912D03*
D14*
X82422501Y-82500912D03*
%TD*%
D13*
%TO.C,D2*%
X5517501Y-27918638D03*
D14*
X8057501Y-27918638D03*
%TD*%
D13*
%TO.C,D3*%
X5517501Y-82525912D03*
D14*
X8057501Y-82525912D03*
%TD*%
D13*
%TO.C,D3*%
X5517501Y-15015001D03*
D14*
X8057501Y-15015001D03*
%TD*%
D13*
%TO.C,D3*%
X72897501Y-15015001D03*
D14*
X75437501Y-15015001D03*
%TD*%
D13*
%TO.C,D2*%
X5517501Y-5415001D03*
D14*
X8057501Y-5415001D03*
%TD*%
D15*
%TO.C,KiKit_FID_T_1*%
X6000000Y-3000000D03*
%TD*%
D13*
%TO.C,D3*%
X5517501Y-37518638D03*
D14*
X8057501Y-37518638D03*
%TD*%
D12*
%TO.C,U1*%
X74297501Y-12602501D03*
X74297501Y-10202501D03*
X74297501Y-7802501D03*
X80547501Y-12602501D03*
X80547501Y-10202501D03*
X80547501Y-7802501D03*
%TD*%
D13*
%TO.C,D4*%
X57422501Y-59997275D03*
D14*
X59962501Y-59997275D03*
%TD*%
D13*
%TO.C,D1*%
X34987501Y-5415001D03*
D14*
X37527501Y-5415001D03*
%TD*%
D13*
%TO.C,D1*%
X34987501Y-27918638D03*
D14*
X37527501Y-27918638D03*
%TD*%
D13*
%TO.C,D3*%
X27977501Y-37518638D03*
D14*
X30517501Y-37518638D03*
%TD*%
D13*
%TO.C,D4*%
X79882501Y-59997275D03*
D14*
X82422501Y-59997275D03*
%TD*%
D13*
%TO.C,D2*%
X50437501Y-5415001D03*
D14*
X52977501Y-5415001D03*
%TD*%
D12*
%TO.C,U1*%
X6917501Y-80113412D03*
X6917501Y-77713412D03*
X6917501Y-75313412D03*
X13167501Y-80113412D03*
X13167501Y-77713412D03*
X13167501Y-75313412D03*
%TD*%
D13*
%TO.C,D4*%
X57422501Y-37493638D03*
D14*
X59962501Y-37493638D03*
%TD*%
D13*
%TO.C,D2*%
X50437501Y-72925912D03*
D14*
X52977501Y-72925912D03*
%TD*%
D13*
%TO.C,D3*%
X5517501Y-60022275D03*
D14*
X8057501Y-60022275D03*
%TD*%
D13*
%TO.C,D4*%
X12502501Y-59997275D03*
D14*
X15042501Y-59997275D03*
%TD*%
D13*
%TO.C,D1*%
X57447501Y-5415001D03*
D14*
X59987501Y-5415001D03*
%TD*%
D12*
%TO.C,U1*%
X29377501Y-12602501D03*
X29377501Y-10202501D03*
X29377501Y-7802501D03*
X35627501Y-12602501D03*
X35627501Y-10202501D03*
X35627501Y-7802501D03*
%TD*%
D13*
%TO.C,D3*%
X72897501Y-60022275D03*
D14*
X75437501Y-60022275D03*
%TD*%
D12*
%TO.C,U1*%
X74297501Y-57609775D03*
X74297501Y-55209775D03*
X74297501Y-52809775D03*
X80547501Y-57609775D03*
X80547501Y-55209775D03*
X80547501Y-52809775D03*
%TD*%
D13*
%TO.C,D3*%
X72897501Y-37518638D03*
D14*
X75437501Y-37518638D03*
%TD*%
D13*
%TO.C,D2*%
X50437501Y-50422275D03*
D14*
X52977501Y-50422275D03*
%TD*%
D13*
%TO.C,D1*%
X79907501Y-72925912D03*
D14*
X82447501Y-72925912D03*
%TD*%
D13*
%TO.C,D1*%
X79907501Y-27918638D03*
D14*
X82447501Y-27918638D03*
%TD*%
D13*
%TO.C,D1*%
X12527501Y-50422275D03*
D14*
X15067501Y-50422275D03*
%TD*%
D13*
%TO.C,D1*%
X57447501Y-27918638D03*
D14*
X59987501Y-27918638D03*
%TD*%
D13*
%TO.C,D3*%
X50437501Y-15015001D03*
D14*
X52977501Y-15015001D03*
%TD*%
D13*
%TO.C,D2*%
X72897501Y-72925912D03*
D14*
X75437501Y-72925912D03*
%TD*%
D13*
%TO.C,D4*%
X12502501Y-14990001D03*
D14*
X15042501Y-14990001D03*
%TD*%
D13*
%TO.C,D1*%
X34987501Y-72925912D03*
D14*
X37527501Y-72925912D03*
%TD*%
D13*
%TO.C,D1*%
X79907501Y-50422275D03*
D14*
X82447501Y-50422275D03*
%TD*%
D13*
%TO.C,D4*%
X57422501Y-14990001D03*
D14*
X59962501Y-14990001D03*
%TD*%
D13*
%TO.C,D3*%
X27977501Y-82525912D03*
D14*
X30517501Y-82525912D03*
%TD*%
D12*
%TO.C,U1*%
X6917501Y-57609775D03*
X6917501Y-55209775D03*
X6917501Y-52809775D03*
X13167501Y-57609775D03*
X13167501Y-55209775D03*
X13167501Y-52809775D03*
%TD*%
%TO.C,U1*%
X51837501Y-80113412D03*
X51837501Y-77713412D03*
X51837501Y-75313412D03*
X58087501Y-80113412D03*
X58087501Y-77713412D03*
X58087501Y-75313412D03*
%TD*%
D13*
%TO.C,D2*%
X27977501Y-5415001D03*
D14*
X30517501Y-5415001D03*
%TD*%
D13*
%TO.C,D3*%
X27977501Y-60022275D03*
D14*
X30517501Y-60022275D03*
%TD*%
D13*
%TO.C,D2*%
X50437501Y-27918638D03*
D14*
X52977501Y-27918638D03*
%TD*%
D13*
%TO.C,D3*%
X50437501Y-60022275D03*
D14*
X52977501Y-60022275D03*
%TD*%
D12*
%TO.C,U1*%
X29377501Y-57609775D03*
X29377501Y-55209775D03*
X29377501Y-52809775D03*
X35627501Y-57609775D03*
X35627501Y-55209775D03*
X35627501Y-52809775D03*
%TD*%
%TO.C,U1*%
X51837501Y-57609775D03*
X51837501Y-55209775D03*
X51837501Y-52809775D03*
X58087501Y-57609775D03*
X58087501Y-55209775D03*
X58087501Y-52809775D03*
%TD*%
D13*
%TO.C,D2*%
X27977501Y-27918638D03*
D14*
X30517501Y-27918638D03*
%TD*%
D13*
%TO.C,D4*%
X34962501Y-59997275D03*
D14*
X37502501Y-59997275D03*
%TD*%
D13*
%TO.C,D3*%
X27977501Y-15015001D03*
D14*
X30517501Y-15015001D03*
%TD*%
D13*
%TO.C,D4*%
X34962501Y-37493638D03*
D14*
X37502501Y-37493638D03*
%TD*%
D13*
%TO.C,D4*%
X57422501Y-82500912D03*
D14*
X59962501Y-82500912D03*
%TD*%
D13*
%TO.C,D2*%
X5517501Y-72925912D03*
D14*
X8057501Y-72925912D03*
%TD*%
D13*
%TO.C,D1*%
X57447501Y-50422275D03*
D14*
X59987501Y-50422275D03*
%TD*%
D13*
%TO.C,D1*%
X34987501Y-50422275D03*
D14*
X37527501Y-50422275D03*
%TD*%
D13*
%TO.C,D1*%
X57447501Y-72925912D03*
D14*
X59987501Y-72925912D03*
%TD*%
D13*
%TO.C,D4*%
X79882501Y-14990001D03*
D14*
X82422501Y-14990001D03*
%TD*%
D15*
%TO.C,KiKit_FID_T_2*%
X81840000Y-3000000D03*
%TD*%
D13*
%TO.C,D4*%
X12502501Y-82500912D03*
D14*
X15042501Y-82500912D03*
%TD*%
D12*
%TO.C,U1*%
X74297501Y-80113412D03*
X74297501Y-77713412D03*
X74297501Y-75313412D03*
X80547501Y-80113412D03*
X80547501Y-77713412D03*
X80547501Y-75313412D03*
%TD*%
D13*
%TO.C,D3*%
X50437501Y-82525912D03*
D14*
X52977501Y-82525912D03*
%TD*%
D12*
%TO.C,U1*%
X6917501Y-35106138D03*
X6917501Y-32706138D03*
X6917501Y-30306138D03*
X13167501Y-35106138D03*
X13167501Y-32706138D03*
X13167501Y-30306138D03*
%TD*%
D13*
%TO.C,D2*%
X5517501Y-50422275D03*
D14*
X8057501Y-50422275D03*
%TD*%
D13*
%TO.C,D4*%
X34962501Y-82500912D03*
D14*
X37502501Y-82500912D03*
%TD*%
D13*
%TO.C,D1*%
X12527501Y-5415001D03*
D14*
X15067501Y-5415001D03*
%TD*%
D13*
%TO.C,D4*%
X12502501Y-37493638D03*
D14*
X15042501Y-37493638D03*
%TD*%
D12*
%TO.C,U1*%
X51837501Y-12602501D03*
X51837501Y-10202501D03*
X51837501Y-7802501D03*
X58087501Y-12602501D03*
X58087501Y-10202501D03*
X58087501Y-7802501D03*
%TD*%
D13*
%TO.C,D2*%
X72897501Y-5415001D03*
D14*
X75437501Y-5415001D03*
%TD*%
D12*
%TO.C,U1*%
X29377501Y-35106138D03*
X29377501Y-32706138D03*
X29377501Y-30306138D03*
X35627501Y-35106138D03*
X35627501Y-32706138D03*
X35627501Y-30306138D03*
%TD*%
D13*
%TO.C,D1*%
X79907501Y-5415001D03*
D14*
X82447501Y-5415001D03*
%TD*%
D13*
%TO.C,D2*%
X27977501Y-50422275D03*
D14*
X30517501Y-50422275D03*
%TD*%
D13*
%TO.C,D3*%
X50437501Y-37518638D03*
D14*
X52977501Y-37518638D03*
%TD*%
D13*
%TO.C,D1*%
X12527501Y-72925912D03*
D14*
X15067501Y-72925912D03*
%TD*%
M02*
