<?xml version="1.0" encoding="UTF-8"?>
<!-- Created by Vectric (http://www.vectric.com/) -->
<svg width="1800.00000000mm" height="700.00000000mm" viewBox="0.00000000 0.00000000 1800.00000000 700.00000000" id="svg2" version="1.1" xmlns="http://www.w3.org/2000/svg" xmlns:xlink="http://www.w3.org/1999/xlink" xmlns:inkscape="http://www.inkscape.org/namespaces/inkscape">
    <g inkscape:groupmode="layer" id="85667243-1302-4a85-b3ac-c7bf39b332ec" inkscape:label="Toolpath Previews" style="stroke:#000000;"/>
    <g inkscape:groupmode="layer" id="f214414e-ab3c-47f2-be51-63dc126dd18d" inkscape:label="Images" style="stroke:#000000;"/>
    <g inkscape:groupmode="layer" id="f131e4f8-88bf-4ff8-82ae-e609d563f43b" inkscape:label="_Engraving" style="stroke:#339966;">
        <path style="fill:none;stroke-width:0.280000;stroke-linecap:round;stroke-linejoin:round;stroke-opacity:1;stroke:#339966;" d="M 705.388664,484.301355 L 841.206057,484.301355 L 841.206057,483.665000 L 705.388664,483.665000 L 705.388664,484.301355 "/>
        <path style="fill:none;stroke-width:0.280000;stroke-linecap:round;stroke-linejoin:round;stroke-opacity:1;stroke:#339966;" d="M 712.272107,453.332570 L 732.488067,453.332570 C 733.120752,453.332570 733.630087,453.898498 733.630087,454.601481 L 733.630087,477.063659 C 733.630087,477.766629 733.120752,478.332570 732.488067,478.332570 L 712.272107,478.332570 C 711.639422,478.332570 711.130087,477.766629 711.130087,477.063659 L 711.130087,454.601481 C 711.130087,453.898498 711.639422,453.332570 712.272107,453.332570 "/>
        <path style="fill:none;stroke-width:0.280000;stroke-linecap:round;stroke-linejoin:round;stroke-opacity:1;stroke:#339966;" d="M 711.864081,452.832570 L 732.939515,452.832570 C 733.599097,452.832570 734.130087,453.420644 734.130087,454.151135 L 734.130087,477.492293 C 734.130087,478.222772 733.599097,478.810859 732.939515,478.810859 L 711.864081,478.810859 C 711.204498,478.810859 710.673509,478.222772 710.673509,477.492293 L 710.673509,454.151135 C 710.673509,453.420644 711.204498,452.832570 711.864081,452.832570 "/>
        <path style="fill:none;stroke-width:0.280000;stroke-linecap:round;stroke-linejoin:round;stroke-opacity:1;stroke:#339966;" d="M 811.393904,453.260855 L 831.609864,453.260855 C 832.242548,453.260855 832.751884,453.826784 832.751884,454.529766 L 832.751884,476.991945 C 832.751884,477.694915 832.242548,478.260855 831.609864,478.260855 L 811.393904,478.260855 C 810.761219,478.260855 810.251884,477.694915 810.251884,476.991945 L 810.251884,454.529766 C 810.251884,453.826784 810.761219,453.260855 811.393904,453.260855 "/>
        <path style="fill:none;stroke-width:0.280000;stroke-linecap:round;stroke-linejoin:round;stroke-opacity:1;stroke:#339966;" d="M 810.985878,452.760855 L 832.061312,452.760855 C 832.720894,452.760855 833.251884,453.348929 833.251884,454.079421 L 833.251884,477.420579 C 833.251884,478.151058 832.720894,478.739145 832.061312,478.739145 L 810.985878,478.739145 C 810.326295,478.739145 809.795306,478.151058 809.795306,477.420579 L 809.795306,454.079421 C 809.795306,453.348929 810.326295,452.760855 810.985878,452.760855 "/>
    </g>
    <g inkscape:groupmode="layer" id="abb0eef1-77ef-465b-b55c-ee9ff62fe786" inkscape:label="_BackPanel" style="stroke:#0000ff;">
        <path style="fill:none;stroke-width:0.280000;stroke-linecap:round;stroke-linejoin:round;stroke-opacity:1;stroke:#0000ff;" d="M 711.854016,455.507571 L 732.949579,455.507571 C 733.518658,455.507571 733.976798,455.965831 733.976798,456.535070 L 733.976798,477.630069 C 733.976798,478.199308 733.518658,478.657568 732.949579,478.657568 L 711.854016,478.657568 C 711.284937,478.657568 710.826798,478.199308 710.826798,477.630069 L 710.826798,456.535070 C 710.826798,455.965831 711.284937,455.507571 711.854016,455.507571 "/>
        <path style="fill:none;stroke-width:0.280000;stroke-linecap:round;stroke-linejoin:round;stroke-opacity:1;stroke:#0000ff;" d="M 810.975813,455.435857 L 832.071376,455.435857 C 832.640455,455.435857 833.098595,455.894117 833.098595,456.463356 L 833.098595,477.558355 C 833.098595,478.127594 832.640455,478.585854 832.071376,478.585854 L 810.975813,478.585854 C 810.406734,478.585854 809.948595,478.127594 809.948595,477.558355 L 809.948595,456.463356 C 809.948595,455.894117 810.406734,455.435857 810.975813,455.435857 "/>
    </g>
    <g inkscape:groupmode="layer" id="a2f76286-dc96-484e-ab40-6a818f23b20f" inkscape:label="_TopLayer" style="stroke:#ff0000;">
        <path style="fill:none;stroke-width:0.280000;stroke-linecap:round;stroke-linejoin:round;stroke-opacity:1;stroke:#ff0000;" d="M 713.384433,456.839053 L 731.533874,456.839053 C 732.101884,456.839053 732.559154,457.296323 732.559154,457.864333 L 732.559154,476.013771 C 732.559154,476.581771 732.101884,477.039051 731.533874,477.039051 L 713.384433,477.039051 C 712.816423,477.039051 712.359153,476.581771 712.359153,476.013771 L 712.359153,457.864333 C 712.359153,457.296323 712.816423,456.839053 713.384433,456.839053 "/>
        <path style="fill:none;stroke-width:0.280000;stroke-linecap:round;stroke-linejoin:round;stroke-opacity:1;stroke:#ff0000;" d="M 812.506230,456.767338 L 830.655671,456.767338 C 831.223681,456.767338 831.680951,457.224608 831.680951,457.792618 L 831.680951,475.942057 C 831.680951,476.510057 831.223681,476.967337 830.655671,476.967337 L 812.506230,476.967337 C 811.938220,476.967337 811.480950,476.510057 811.480950,475.942057 L 811.480950,457.792618 C 811.480950,457.224608 811.938220,456.767338 812.506230,456.767338 "/>
    </g>
    <g inkscape:groupmode="layer" id="4a995c5a-5ff3-41c5-819c-567a58f23ad7" inkscape:label="_Labels" style="stroke:#ff6600;">
        <path style="fill:none;stroke-width:0.280000;stroke-linecap:round;stroke-linejoin:round;stroke-opacity:1;stroke:#ff6600;" d="M 730.401792,475.083570 L 730.401792,459.081570 L 714.401803,459.081570 L 714.401803,475.083570 L 730.401792,475.083570 "/>
        <path style="fill:none;stroke-width:0.280000;stroke-linecap:round;stroke-linejoin:round;stroke-opacity:1;stroke:#ff6600;" d="M 829.523589,475.011855 L 829.523589,459.009856 L 813.523600,459.009856 L 813.523600,475.011855 L 829.523589,475.011855 "/>
    </g>
    <g inkscape:groupmode="layer" id="351031d5-fbd6-459c-85b6-2a8c7c3aa8e6" inkscape:label="Layer 1" style="stroke:#000000;"/>
    <g inkscape:groupmode="layer" id="be255d8d-e31f-4306-9488-3358e355402e" inkscape:label="Import - a320_legends2.pdf" style="stroke:#000000;"/>
</svg>
