<?xml version="1.0" encoding="UTF-8"?>
<!-- Created by Vectric (http://www.vectric.com/) -->
<svg width="205.00000000mm" height="185.00000000mm" viewBox="0.00000000 0.00000000 205.00000000 185.00000000" id="svg2" version="1.1" xmlns="http://www.w3.org/2000/svg" xmlns:xlink="http://www.w3.org/1999/xlink" xmlns:inkscape="http://www.inkscape.org/namespaces/inkscape">
    <g inkscape:groupmode="layer" id="85667243-1302-4a85-b3ac-c7bf39b332ec" inkscape:label="Toolpath Previews" style="stroke:#000000;"/>
    <g inkscape:groupmode="layer" id="f131e4f8-88bf-4ff8-82ae-e609d563f43b" inkscape:label="_Engraving" style="stroke:#339966;">
        <path style="fill:none;stroke-width:0.280000;stroke-linecap:round;stroke-linejoin:round;stroke-opacity:1;stroke:#339966;" d="M 51.746323,140.499706 L 71.962283,140.499706 C 72.594967,140.499706 73.104303,141.009041 73.104303,141.641725 L 73.104303,161.857686 C 73.104303,162.490359 72.594967,162.999706 71.962283,162.999706 L 51.746323,162.999706 C 51.113638,162.999706 50.604303,162.490359 50.604303,161.857686 L 50.604303,141.641725 C 50.604303,141.009041 51.113638,140.499706 51.746323,140.499706 "/>
        <path style="fill:none;stroke-width:0.280000;stroke-linecap:round;stroke-linejoin:round;stroke-opacity:1;stroke:#339966;" d="M 51.338297,140.021417 L 72.413731,140.021417 C 73.073313,140.021417 73.604303,140.552406 73.604303,141.211989 L 73.604303,162.287423 C 73.604303,162.946994 73.073313,163.477995 72.413731,163.477995 L 51.338297,163.477995 C 50.678714,163.477995 50.147725,162.946994 50.147725,162.287423 L 50.147725,141.211989 C 50.147725,140.552406 50.678714,140.021417 51.338297,140.021417 "/>
        <path style="fill:none;stroke-width:0.280000;stroke-linecap:round;stroke-linejoin:round;stroke-opacity:1;stroke:#339966;" d="M 83.786870,140.500000 L 104.002830,140.500000 C 104.635515,140.500000 105.144850,141.009336 105.144850,141.642020 L 105.144850,161.857980 C 105.144850,162.490654 104.635515,163.000000 104.002830,163.000000 L 83.786870,163.000000 C 83.154185,163.000000 82.644850,162.490654 82.644850,161.857980 L 82.644850,141.642020 C 82.644850,141.009336 83.154185,140.500000 83.786870,140.500000 "/>
        <path style="fill:none;stroke-width:0.280000;stroke-linecap:round;stroke-linejoin:round;stroke-opacity:1;stroke:#339966;" d="M 83.378844,140.021711 L 104.454278,140.021711 C 105.113860,140.021711 105.644850,140.552701 105.644850,141.212283 L 105.644850,162.287717 C 105.644850,162.947288 105.113860,163.478289 104.454278,163.478289 L 83.378844,163.478289 C 82.719261,163.478289 82.188272,162.947288 82.188272,162.287717 L 82.188272,141.212283 C 82.188272,140.552701 82.719261,140.021711 83.378844,140.021711 "/>
        <path style="fill:none;stroke-width:0.280000;stroke-linecap:round;stroke-linejoin:round;stroke-opacity:1;stroke:#339966;" d="M 115.712743,140.499706 L 135.928703,140.499706 C 136.561388,140.499706 137.070723,141.009041 137.070723,141.641725 L 137.070723,161.857686 C 137.070723,162.490359 136.561388,162.999706 135.928703,162.999706 L 115.712743,162.999706 C 115.080059,162.999706 114.570723,162.490359 114.570723,161.857686 L 114.570723,141.641725 C 114.570723,141.009041 115.080059,140.499706 115.712743,140.499706 "/>
        <path style="fill:none;stroke-width:0.280000;stroke-linecap:round;stroke-linejoin:round;stroke-opacity:1;stroke:#339966;" d="M 115.304717,140.021417 L 136.380151,140.021417 C 137.039734,140.021417 137.570723,140.552406 137.570723,141.211989 L 137.570723,162.287423 C 137.570723,162.946994 137.039734,163.477995 136.380151,163.477995 L 115.304717,163.477995 C 114.645134,163.477995 114.114145,162.946994 114.114145,162.287423 L 114.114145,141.211989 C 114.114145,140.552406 114.645134,140.021417 115.304717,140.021417 "/>
        <path style="fill:none;stroke-width:0.280000;stroke-linecap:round;stroke-linejoin:round;stroke-opacity:1;stroke:#339966;" d="M 69.325065,138.978762 L 68.717146,138.978762 L 68.717146,135.540268 L 68.134788,135.870288 L 68.134788,135.238441 L 68.717146,134.877389 L 69.325065,134.877389 L 69.325065,138.978762 "/>
        <path style="fill:none;stroke-width:0.280000;stroke-linecap:round;stroke-linejoin:round;stroke-opacity:1;stroke:#339966;" d="M 99.520717,138.995394 L 98.911261,138.995394 L 98.911261,135.548213 L 98.327432,135.879067 L 98.327432,135.245623 L 98.911261,134.883659 L 99.520717,134.883659 L 99.520717,138.995394 "/>
        <path style="fill:none;stroke-width:0.280000;stroke-linecap:round;stroke-linejoin:round;stroke-opacity:1;stroke:#339966;" d="M 131.503544,138.983806 L 130.888601,138.983806 L 130.888601,135.538607 L 130.299516,135.869271 L 130.299516,135.236191 L 130.888601,134.874436 L 131.503544,134.874436 L 131.503544,138.983806 "/>
        <path style="fill:none;stroke-width:0.280000;stroke-linecap:round;stroke-linejoin:round;stroke-opacity:1;stroke:#339966;" d="M 56.649979,135.438685 L 55.019988,135.438685 L 55.019988,136.534566 L 56.262635,136.534566 C 56.448770,136.562614 56.541510,136.657778 56.540854,136.820056 C 56.540199,136.982335 56.447459,137.076830 56.262635,137.103543 L 55.019988,137.103543 L 55.019988,138.419802 L 56.649979,138.419802 C 56.834803,138.447850 56.927215,138.542012 56.927215,138.702287 C 56.927215,138.862562 56.834803,138.956056 56.649979,138.982769 L 54.746685,138.982769 C 54.582833,138.961399 54.489766,138.866569 54.467482,138.698280 L 54.467482,135.160207 C 54.492388,134.983904 54.585455,134.890411 54.746685,134.879726 L 56.649979,134.879726 C 56.834803,134.894417 56.926888,134.988245 56.926232,135.161209 C 56.925577,135.334172 56.833492,135.426664 56.649979,135.438685 "/>
        <path style="fill:none;stroke-width:0.280000;stroke-linecap:round;stroke-linejoin:round;stroke-opacity:1;stroke:#339966;" d="M 57.753025,138.984772 C 57.591795,138.974087 57.498728,138.881261 57.473823,138.706294 L 57.473823,135.164214 C 57.501350,134.971884 57.597039,134.877388 57.760890,134.880727 C 57.924741,134.884066 58.013876,134.978562 58.028295,135.164214 L 58.028295,138.425813 L 59.843110,138.423809 C 60.029245,138.445179 60.121329,138.541010 60.119363,138.711303 C 60.117396,138.881595 60.024657,138.972752 59.841143,138.984772 L 57.753025,138.984772 "/>
        <path style="fill:none;stroke-width:0.280000;stroke-linecap:round;stroke-linejoin:round;stroke-opacity:1;stroke:#339966;" d="M 62.808159,137.666509 L 62.210431,135.983620 L 61.608769,137.666509 L 62.808159,137.666509 "/>
        <path style="fill:none;stroke-width:0.280000;stroke-linecap:round;stroke-linejoin:round;stroke-opacity:1;stroke:#339966;" d="M 62.210431,135.983620 L 62.808159,137.666509 L 62.210431,135.983620 "/>
        <path style="fill:none;stroke-width:0.280000;stroke-linecap:round;stroke-linejoin:round;stroke-opacity:1;stroke:#339966;" d="M 60.692514,138.596105 C 60.902243,138.007094 61.112300,137.418417 61.322685,136.830073 C 61.533070,136.241730 61.743783,135.653053 61.954823,135.064042 C 61.998080,134.942500 62.083938,134.881061 62.212397,134.879726 C 62.340856,134.878390 62.427369,134.939829 62.471937,135.064042 L 63.732280,138.606122 C 63.771604,138.794445 63.715239,138.915987 63.563185,138.970748 C 63.411132,139.025509 63.293814,138.969412 63.211233,138.802459 L 63.008713,138.229476 L 61.406249,138.229476 L 61.209628,138.788435 C 61.125736,138.956724 61.006453,139.011819 60.851777,138.953719 C 60.697102,138.895619 60.644014,138.776414 60.692514,138.596105 "/>
        <path style="fill:none;stroke-width:0.280000;stroke-linecap:round;stroke-linejoin:round;stroke-opacity:1;stroke:#339966;" d="M 66.652107,138.341668 L 66.634411,138.367713 C 66.630478,138.373055 66.627201,138.377730 66.624580,138.381737 C 66.621958,138.385744 66.619336,138.389751 66.616715,138.393758 C 66.437134,138.640848 66.201516,138.816817 65.909861,138.921664 C 65.618206,139.026510 65.330811,139.007478 65.047677,138.864566 C 64.718663,138.697613 64.477147,138.414460 64.323127,138.015108 C 64.169107,137.615755 64.102911,137.200710 64.124539,136.769970 C 64.146168,136.339231 64.257586,135.943552 64.458796,135.582933 C 64.660005,135.222314 64.951987,134.996593 65.334744,134.905770 C 65.554960,134.853681 65.774520,134.875385 65.993425,134.970882 C 66.212330,135.066379 66.391911,135.200276 66.532168,135.372572 C 66.533478,135.372572 66.536755,135.377246 66.541999,135.386596 C 66.602296,135.466733 66.614749,135.554551 66.579357,135.650048 C 66.543965,135.745545 66.479080,135.805314 66.384702,135.829356 C 66.283769,135.856068 66.190702,135.825349 66.105499,135.737197 C 65.929851,135.528840 65.760757,135.428668 65.598216,135.436682 C 65.435676,135.444695 65.290176,135.512812 65.161717,135.641032 C 65.033258,135.769252 64.926427,135.933535 64.841224,136.133878 C 64.756022,136.334222 64.703589,136.521878 64.683927,136.696845 C 64.660332,136.891846 64.662626,137.087849 64.690809,137.284854 C 64.718991,137.481859 64.778305,137.667177 64.868751,137.840808 C 65.026048,138.145331 65.224308,138.335992 65.463531,138.412790 C 65.702753,138.489589 65.936405,138.373055 66.164486,138.063190 C 66.174972,138.049834 66.187425,138.032471 66.201844,138.011101 C 66.325060,137.872196 66.455158,137.857838 66.592137,137.968027 C 66.729117,138.078216 66.749107,138.202763 66.652107,138.341668 "/>
        <path style="fill:none;stroke-width:0.280000;stroke-linecap:round;stroke-linejoin:round;stroke-opacity:1;stroke:#339966;" d="M 90.529272,136.798192 L 90.560740,136.812219 L 90.596141,136.830255 L 90.627609,136.848290 C 90.636787,136.854970 90.646948,136.861316 90.658093,136.867328 C 90.669238,136.873340 90.680055,136.879686 90.690544,136.886366 C 90.950151,137.060042 91.110767,137.300517 91.172391,137.607791 C 91.195992,137.728028 91.201236,137.851606 91.188125,137.978523 C 91.167146,138.160215 91.104539,138.328214 91.000303,138.482519 C 90.896066,138.636824 90.765279,138.756059 90.607941,138.840225 C 90.438803,138.931072 90.263765,138.976495 90.082826,138.976495 C 89.778640,138.976495 89.488220,138.936749 89.211568,138.857259 C 88.934915,138.777769 88.737587,138.565015 88.619584,138.218998 C 88.603850,138.174911 88.592050,138.129488 88.584183,138.082729 C 88.576316,138.035970 88.567138,137.989211 88.556649,137.942452 C 88.536982,137.846262 88.560255,137.761428 88.626468,137.687949 C 88.692681,137.614471 88.774955,137.586415 88.873291,137.603783 C 88.976872,137.625158 89.048985,137.690621 89.089631,137.800171 L 89.095531,137.818206 C 89.158466,138.108112 89.268275,138.281121 89.424957,138.337232 C 89.581640,138.393343 89.799618,138.418726 90.078893,138.413382 C 90.335878,138.413382 90.512227,138.290473 90.607941,138.044654 C 90.649898,137.935104 90.656454,137.821212 90.627609,137.702979 C 90.598763,137.584745 90.541728,137.486217 90.456504,137.407395 C 90.418480,137.373996 90.368657,137.342600 90.307033,137.313209 L 89.396440,136.906405 L 89.366939,136.890374 C 89.069308,136.730057 88.884436,136.502274 88.812323,136.207024 C 88.724476,135.865015 88.785772,135.558075 88.996212,135.286205 C 89.206651,135.014334 89.482976,134.878399 89.825185,134.878399 L 90.041525,134.884411 C 90.112327,134.897771 90.180507,134.910796 90.246064,134.923488 C 90.311622,134.936180 90.377835,134.957889 90.444703,134.988617 C 90.609908,135.067439 90.736434,135.175653 90.824281,135.313258 C 90.912128,135.450863 90.991452,135.599824 91.062254,135.760141 C 91.068810,135.774837 91.074710,135.792204 91.079955,135.812244 C 91.094378,135.877706 91.087822,135.937157 91.060288,135.990596 C 91.044554,136.023995 91.028165,136.049379 91.011120,136.066747 C 90.994075,136.084114 90.980308,136.096138 90.969818,136.102818 C 90.901639,136.152249 90.826903,136.166945 90.745612,136.146905 C 90.664321,136.128201 90.602041,136.074762 90.558773,135.986588 C 90.524683,135.909102 90.488299,135.829945 90.449620,135.749119 C 90.410941,135.668293 90.356856,135.601160 90.287365,135.547721 C 90.258520,135.526346 90.230658,135.510648 90.203780,135.500628 C 90.176901,135.490608 90.147072,135.479587 90.114294,135.467563 L 89.986457,135.445519 L 89.805518,135.439508 C 89.629824,135.442179 89.495431,135.519666 89.402340,135.671967 C 89.339405,135.769493 89.315804,135.878374 89.331538,135.998612 C 89.349894,136.146905 89.418074,136.261799 89.536077,136.343293 C 89.541322,136.347301 89.547222,136.351643 89.553778,136.356319 C 89.560333,136.360995 89.567545,136.365336 89.575412,136.369344 L 89.597046,136.379364 L 89.620646,136.389384 L 90.529272,136.798192 "/>
        <path style="fill:none;stroke-width:0.280000;stroke-linecap:round;stroke-linejoin:round;stroke-opacity:1;stroke:#339966;" d="M 93.864835,135.437504 L 92.234422,135.437504 L 92.234422,136.533669 L 93.477391,136.533669 C 93.663574,136.561724 93.756338,136.656912 93.755682,136.819233 C 93.755027,136.981554 93.662263,137.076074 93.477391,137.102793 L 92.234422,137.102793 L 92.234422,138.419394 L 93.864835,138.419394 C 94.049707,138.447449 94.142143,138.541636 94.142143,138.701952 C 94.142143,138.862269 94.049707,138.955787 93.864835,138.982506 L 91.961047,138.982506 C 91.797153,138.961131 91.704062,138.866277 91.681772,138.697944 L 91.681772,135.158953 C 91.706684,134.982605 91.799776,134.889087 91.961047,134.878399 L 93.864835,134.878399 C 94.049707,134.893095 94.141815,134.986947 94.141160,135.159955 C 94.140504,135.332964 94.048396,135.425480 93.864835,135.437504 "/>
        <path style="fill:none;stroke-width:0.280000;stroke-linecap:round;stroke-linejoin:round;stroke-opacity:1;stroke:#339966;" d="M 97.222032,138.341240 L 97.204332,138.367291 C 97.200398,138.372635 97.197120,138.377311 97.194498,138.381319 C 97.191876,138.385327 97.189253,138.389335 97.186631,138.393343 C 97.007004,138.640498 96.771325,138.816512 96.479594,138.921386 C 96.187863,139.026260 95.900394,139.007222 95.617186,138.864273 C 95.288087,138.697276 95.046508,138.414050 94.892448,138.014594 C 94.738388,137.615139 94.672175,137.199985 94.693809,136.769134 C 94.715443,136.338283 94.826891,135.942501 95.028152,135.581789 C 95.229413,135.221076 95.521472,134.995297 95.904327,134.904451 C 96.124600,134.852348 96.344218,134.874057 96.563180,134.969579 C 96.782142,135.065101 96.961769,135.199032 97.102062,135.371373 C 97.103373,135.371373 97.106651,135.376049 97.111896,135.385401 C 97.172208,135.465559 97.184664,135.553399 97.149263,135.648921 C 97.113862,135.744443 97.048960,135.804228 96.954558,135.828276 C 96.853599,135.854995 96.760508,135.824268 96.675283,135.736093 C 96.499589,135.527682 96.330451,135.427484 96.167868,135.435500 C 96.005286,135.443515 95.859748,135.511650 95.731256,135.639903 C 95.602763,135.768157 95.495905,135.932481 95.410680,136.132877 C 95.325455,136.333273 95.273009,136.520977 95.253342,136.695990 C 95.229741,136.891042 95.232036,137.087096 95.260225,137.284151 C 95.288415,137.481207 95.347745,137.666574 95.438214,137.840250 C 95.595552,138.144852 95.793863,138.335562 96.033148,138.412380 C 96.272432,138.489199 96.506145,138.372635 96.734285,138.062689 C 96.744774,138.049330 96.757230,138.031962 96.771652,138.010587 C 96.894900,137.871645 97.025032,137.857284 97.162047,137.967501 C 97.299062,138.077719 97.319057,138.202299 97.222032,138.341240 "/>
        <path style="fill:none;stroke-width:0.280000;stroke-linecap:round;stroke-linejoin:round;stroke-opacity:1;stroke:#339966;" d="M 120.209775,138.704819 L 120.209775,135.160406 C 120.233438,134.983587 120.326778,134.888480 120.489794,134.875084 L 122.398661,134.875084 C 122.581397,134.889819 122.672765,134.984592 122.672765,135.159401 C 122.672765,135.334211 122.580083,135.427643 122.394718,135.439699 L 120.763898,135.439699 L 120.763898,136.538789 L 122.035819,136.538789 C 122.217240,136.552184 122.309265,136.642603 122.311895,136.810045 C 122.314524,136.977487 122.222499,137.075273 122.035819,137.103403 L 120.763898,137.103403 L 120.763898,138.704819 C 120.750752,138.889675 120.661685,138.983443 120.496696,138.986122 C 120.331708,138.988801 120.236068,138.895033 120.209775,138.704819 "/>
        <path style="fill:none;stroke-width:0.280000;stroke-linecap:round;stroke-linejoin:round;stroke-opacity:1;stroke:#339966;" d="M 125.360560,137.670027 L 124.761082,135.982211 L 124.157659,137.670027 L 125.360560,137.670027 "/>
        <path style="fill:none;stroke-width:0.280000;stroke-linecap:round;stroke-linejoin:round;stroke-opacity:1;stroke:#339966;" d="M 124.761082,135.982211 L 125.360560,137.670027 L 124.761082,135.982211 "/>
        <path style="fill:none;stroke-width:0.280000;stroke-linecap:round;stroke-linejoin:round;stroke-opacity:1;stroke:#339966;" d="M 123.238721,138.602345 C 123.449064,138.011609 123.659736,137.421208 123.870737,136.831143 C 124.081738,136.241077 124.293067,135.650676 124.504725,135.059940 C 124.548109,134.938043 124.634218,134.876424 124.763054,134.875084 C 124.891889,134.873745 124.978656,134.935364 125.023354,135.059940 L 126.287386,138.612391 C 126.326826,138.801266 126.270296,138.923164 126.117797,138.978085 C 125.965298,139.033006 125.847637,138.976745 125.764814,138.809303 L 125.561701,138.234642 L 123.954546,138.234642 L 123.757349,138.795238 C 123.673211,138.964019 123.553579,139.019275 123.398450,138.961005 C 123.243322,138.902736 123.190079,138.783182 123.238721,138.602345 "/>
        <path style="fill:none;stroke-width:0.280000;stroke-linecap:round;stroke-linejoin:round;stroke-opacity:1;stroke:#339966;" d="M 129.215762,138.347163 L 129.198014,138.373284 C 129.194070,138.378642 129.190784,138.383330 129.188154,138.387349 C 129.185525,138.391368 129.182896,138.395386 129.180266,138.399405 C 129.000160,138.647219 128.763852,138.823703 128.471343,138.928857 C 128.178834,139.034010 127.890598,139.014922 127.606634,138.871591 C 127.276658,138.704149 127.034434,138.420168 126.879963,138.019646 C 126.725492,137.619125 126.659103,137.202864 126.680794,136.770863 C 126.702486,136.338863 126.814231,135.942025 127.016029,135.580350 C 127.217828,135.218676 127.510665,134.992294 127.894542,134.901205 C 128.115403,134.848964 128.335606,134.870731 128.555152,134.966508 C 128.774698,135.062285 128.954804,135.196573 129.095472,135.369373 C 129.096786,135.369373 129.100073,135.374062 129.105332,135.383439 C 129.165805,135.463811 129.178294,135.551885 129.142799,135.647662 C 129.107303,135.743439 129.042228,135.803383 128.947574,135.827495 C 128.846346,135.854286 128.753006,135.823476 128.667554,135.735067 C 128.491392,135.526099 128.321802,135.425634 128.158786,135.433671 C 127.995770,135.441708 127.849844,135.510025 127.721009,135.638620 C 127.592173,135.767216 127.485029,135.931979 127.399577,136.132909 C 127.314125,136.333840 127.261540,136.522045 127.241820,136.697524 C 127.218156,136.893096 127.220457,137.089673 127.248722,137.287255 C 127.276987,137.484836 127.336474,137.670697 127.427185,137.844837 C 127.584943,138.150251 127.783783,138.341470 128.023706,138.418493 C 128.263629,138.495517 128.497965,138.378642 128.726713,138.067870 C 128.737230,138.054474 128.749720,138.037060 128.764181,138.015628 C 128.887757,137.876316 129.018236,137.861916 129.155617,137.972428 C 129.292997,138.082939 129.313046,138.207851 129.215762,138.347163 "/>
        <path style="fill:none;stroke-width:0.280000;stroke-linecap:round;stroke-linejoin:round;stroke-opacity:1;stroke:#339966;" d="M 65.447690,131.594679 L 65.447690,127.466777 C 65.475250,127.260850 65.583955,127.150086 65.773808,127.134486 L 67.996916,127.134486 C 68.209735,127.151646 68.316144,127.262020 68.316144,127.465607 C 68.316144,127.669194 68.208204,127.778008 67.992323,127.792048 L 66.093035,127.792048 L 66.093035,129.072072 L 67.574342,129.072072 C 67.785629,129.087673 67.892804,129.192977 67.895866,129.387983 C 67.898928,129.582990 67.791753,129.696874 67.574342,129.729635 L 66.093035,129.729635 L 66.093035,131.594679 C 66.077724,131.809967 65.973995,131.919170 65.781846,131.922291 C 65.589697,131.925411 65.478312,131.816207 65.447690,131.594679 "/>
        <path style="fill:none;stroke-width:0.280000;stroke-linecap:round;stroke-linejoin:round;stroke-opacity:1;stroke:#339966;" d="M 69.285309,131.929311 C 69.096988,131.916830 68.988282,131.808407 68.959192,131.604040 L 68.959192,127.466777 C 68.991344,127.242129 69.103112,127.131756 69.294495,127.135656 C 69.485879,127.139556 69.589991,127.249930 69.606833,127.466777 L 69.606833,131.276428 L 71.726595,131.274088 C 71.944006,131.299049 72.051563,131.410983 72.049267,131.609890 C 72.046970,131.808797 71.938647,131.915270 71.724298,131.929311 L 69.285309,131.929311 "/>
        <path style="fill:none;stroke-width:0.280000;stroke-linecap:round;stroke-linejoin:round;stroke-opacity:1;stroke:#339966;" d="M 73.118334,131.599359 L 73.118334,127.794388 L 72.275482,127.794388 C 72.061133,127.777228 71.954341,127.667634 71.955106,127.465607 C 71.955872,127.263580 72.062664,127.153206 72.275482,127.134486 L 74.606531,127.134486 C 74.817818,127.151646 74.923844,127.262020 74.924610,127.465607 C 74.925376,127.669194 74.819349,127.778788 74.606531,127.794388 L 73.765975,127.794388 L 73.765975,131.599359 C 73.730761,131.820887 73.617845,131.930091 73.427227,131.926971 C 73.236609,131.923851 73.133645,131.814647 73.118334,131.599359 "/>
        <path style="fill:none;stroke-width:0.280000;stroke-linecap:round;stroke-linejoin:round;stroke-opacity:1;stroke:#339966;" d="M 83.271602,131.178145 L 83.250933,131.208566 C 83.246340,131.214806 83.242512,131.220266 83.239450,131.224947 C 83.236388,131.229627 83.233326,131.234307 83.230263,131.238987 C 83.020507,131.527597 82.745298,131.733134 82.404636,131.855598 C 82.063974,131.978063 81.728287,131.955832 81.397577,131.788906 C 81.013279,131.593899 80.731180,131.263168 80.551280,130.796712 C 80.371379,130.330256 80.294061,129.845469 80.319323,129.342352 C 80.344586,128.839234 80.474726,128.377068 80.709745,127.955854 C 80.944764,127.534639 81.285809,127.270990 81.732880,127.164907 C 81.990100,127.104065 82.246553,127.129415 82.502241,127.240959 C 82.757929,127.352503 82.967686,127.508899 83.131510,127.710145 C 83.133041,127.710145 83.136868,127.715606 83.142993,127.726526 C 83.213422,127.820129 83.227967,127.922703 83.186628,128.034247 C 83.145289,128.145790 83.069502,128.215603 82.959265,128.243684 C 82.841373,128.274885 82.732667,128.239004 82.633148,128.136040 C 82.427985,127.892672 82.230477,127.775668 82.040625,127.785028 C 81.850772,127.794388 81.680824,127.873951 81.530780,128.023716 C 81.380735,128.173481 81.255953,128.365368 81.156434,128.599376 C 81.056914,128.833384 80.995672,129.052572 80.972706,129.256939 C 80.945147,129.484707 80.947826,129.713644 80.980744,129.943752 C 81.013662,130.173860 81.082943,130.390318 81.188586,130.593125 C 81.372314,130.948817 81.603888,131.171515 81.883308,131.261218 C 82.162727,131.350921 82.435640,131.214806 82.702046,130.852874 C 82.714294,130.837273 82.728839,130.816993 82.745681,130.792032 C 82.889601,130.629786 83.041560,130.613015 83.201556,130.741720 C 83.361552,130.870424 83.384901,131.015899 83.271602,131.178145 "/>
        <path style="fill:none;stroke-width:0.280000;stroke-linecap:round;stroke-linejoin:round;stroke-opacity:1;stroke:#339966;" d="M 85.076730,131.599359 L 85.076730,127.794388 L 84.233878,127.794388 C 84.019528,127.777228 83.912736,127.667634 83.913502,127.465607 C 83.914267,127.263580 84.021059,127.153206 84.233878,127.134486 L 86.564927,127.134486 C 86.776214,127.151646 86.882240,127.262020 86.883006,127.465607 C 86.883771,127.669194 86.777745,127.778788 86.564927,127.794388 L 85.724371,127.794388 L 85.724371,131.599359 C 85.689156,131.820887 85.576240,131.930091 85.385622,131.926971 C 85.195005,131.923851 85.092040,131.814647 85.076730,131.599359 "/>
        <path style="fill:none;stroke-width:0.280000;stroke-linecap:round;stroke-linejoin:round;stroke-opacity:1;stroke:#339966;" d="M 88.625895,131.929311 C 88.437574,131.916830 88.328868,131.808407 88.299778,131.604040 L 88.299778,127.466777 C 88.331931,127.242129 88.443698,127.131756 88.635082,127.135656 C 88.826465,127.139556 88.930578,127.249930 88.947419,127.466777 L 88.947419,131.276428 L 91.067181,131.274088 C 91.284592,131.299049 91.392150,131.410983 91.389853,131.609890 C 91.387557,131.808797 91.279234,131.915270 91.064884,131.929311 L 88.625895,131.929311 "/>
    </g>
    <g inkscape:groupmode="layer" id="abb0eef1-77ef-465b-b55c-ee9ff62fe786" inkscape:label="_BackPanel" style="stroke:#0000ff;">
        <path style="fill:none;stroke-width:0.280000;stroke-linecap:round;stroke-linejoin:round;stroke-opacity:1;stroke:#0000ff;" d="M 51.328232,140.174707 L 72.423795,140.174707 C 72.992874,140.174707 73.451014,140.632967 73.451014,141.202206 L 73.451014,162.297205 C 73.451014,162.866444 72.992874,163.324704 72.423795,163.324704 L 51.328232,163.324704 C 50.759153,163.324704 50.301014,162.866444 50.301014,162.297205 L 50.301014,141.202206 C 50.301014,140.632967 50.759153,140.174707 51.328232,140.174707 "/>
        <path style="fill:none;stroke-width:0.280000;stroke-linecap:round;stroke-linejoin:round;stroke-opacity:1;stroke:#0000ff;" d="M 7.454453,124.108401 L 7.454453,128.836662 L 7.454453,138.293184 L 7.454453,157.206227 L 7.454453,161.934488 L 7.454453,171.391010 L 152.454453,171.391010 L 152.454453,161.934488 L 152.454453,157.206227 L 152.454453,138.293184 L 152.454453,128.836662 L 152.454453,124.108401 L 7.454453,124.108401 "/>
        <path style="fill:none;stroke-width:0.280000;stroke-linecap:round;stroke-linejoin:round;stroke-opacity:1;stroke:#0000ff;" d="M 11.819283,140.253216 A 2.488170,2.488170 0 0,0 14.307453,137.765046 A 2.488170,2.488170 0 0,0 11.819283,135.276876 A 2.488170,2.488170 0 0,0 9.331113,137.765046 A 2.488170,2.488170 0 0,0 11.819283,140.253216 "/>
        <path style="fill:none;stroke-width:0.280000;stroke-linecap:round;stroke-linejoin:round;stroke-opacity:1;stroke:#0000ff;" d="M 148.090403,159.763036 A 2.488170,2.488170 0 0,0 150.578573,157.274866 A 2.488170,2.488170 0 0,0 148.090403,154.786696 A 2.488170,2.488170 0 0,0 145.602233,157.274866 A 2.488170,2.488170 0 0,0 148.090403,159.763036 "/>
        <path style="fill:none;stroke-width:0.280000;stroke-linecap:round;stroke-linejoin:round;stroke-opacity:1;stroke:#0000ff;" d="M 83.368779,140.175002 L 104.464342,140.175002 C 105.033421,140.175002 105.491561,140.633261 105.491561,141.202501 L 105.491561,162.297499 C 105.491561,162.866739 105.033421,163.324998 104.464342,163.324998 L 83.368779,163.324998 C 82.799700,163.324998 82.341561,162.866739 82.341561,162.297499 L 82.341561,141.202501 C 82.341561,140.633261 82.799700,140.175002 83.368779,140.175002 "/>
        <path style="fill:none;stroke-width:0.280000;stroke-linecap:round;stroke-linejoin:round;stroke-opacity:1;stroke:#0000ff;" d="M 115.294653,140.174707 L 136.390215,140.174707 C 136.959295,140.174707 137.417434,140.632967 137.417434,141.202206 L 137.417434,162.297205 C 137.417434,162.866444 136.959295,163.324704 136.390215,163.324704 L 115.294653,163.324704 C 114.725574,163.324704 114.267434,162.866444 114.267434,162.297205 L 114.267434,141.202206 C 114.267434,140.632967 114.725574,140.174707 115.294653,140.174707 "/>
    </g>
</svg>
