<?xml version="1.0" encoding="UTF-8"?>
<!-- Created by Vectric (http://www.vectric.com/) -->
<svg width="205.00000000mm" height="185.00000000mm" viewBox="0.00000000 0.00000000 205.00000000 185.00000000" id="svg2" version="1.1" xmlns="http://www.w3.org/2000/svg" xmlns:xlink="http://www.w3.org/1999/xlink" xmlns:inkscape="http://www.inkscape.org/namespaces/inkscape">
    <g inkscape:groupmode="layer" id="85667243-1302-4a85-b3ac-c7bf39b332ec" inkscape:label="Toolpath Previews" style="stroke:#000000;"/>
    <g inkscape:groupmode="layer" id="f131e4f8-88bf-4ff8-82ae-e609d563f43b" inkscape:label="_Engraving" style="stroke:#339966;">
        <path style="fill:none;stroke-width:0.280000;stroke-linecap:round;stroke-linejoin:round;stroke-opacity:1;stroke:#339966;" d="M 50.541869,149.000000 L 70.757830,149.000000 C 71.390514,149.000000 71.899850,149.509335 71.899850,150.142020 L 71.899850,170.357980 C 71.899850,170.990653 71.390514,171.500000 70.757830,171.500000 L 50.541869,171.500000 C 49.909185,171.500000 49.399850,170.990653 49.399850,170.357980 L 49.399850,150.142020 C 49.399850,149.509335 49.909185,149.000000 50.541869,149.000000 "/>
        <path style="fill:none;stroke-width:0.280000;stroke-linecap:round;stroke-linejoin:round;stroke-opacity:1;stroke:#339966;" d="M 50.133844,148.521711 L 71.209277,148.521711 C 71.868860,148.521711 72.399850,149.052700 72.399850,149.712283 L 72.399850,170.787717 C 72.399850,171.447288 71.868860,171.978289 71.209277,171.978289 L 50.133844,171.978289 C 49.474261,171.978289 48.943271,171.447288 48.943271,170.787717 L 48.943271,149.712283 C 48.943271,149.052700 49.474261,148.521711 50.133844,148.521711 "/>
        <path style="fill:none;stroke-width:0.280000;stroke-linecap:round;stroke-linejoin:round;stroke-opacity:1;stroke:#339966;" d="M 82.582417,149.000294 L 102.798377,149.000294 C 103.431061,149.000294 103.940397,149.509630 103.940397,150.142314 L 103.940397,170.358275 C 103.940397,170.990948 103.431061,171.500294 102.798377,171.500294 L 82.582417,171.500294 C 81.949732,171.500294 81.440397,170.990948 81.440397,170.358275 L 81.440397,150.142314 C 81.440397,149.509630 81.949732,149.000294 82.582417,149.000294 "/>
        <path style="fill:none;stroke-width:0.280000;stroke-linecap:round;stroke-linejoin:round;stroke-opacity:1;stroke:#339966;" d="M 82.174391,148.522005 L 103.249824,148.522005 C 103.909407,148.522005 104.440397,149.052995 104.440397,149.712578 L 104.440397,170.788011 C 104.440397,171.447582 103.909407,171.978584 103.249824,171.978584 L 82.174391,171.978584 C 81.514808,171.978584 80.983818,171.447582 80.983818,170.788011 L 80.983818,149.712578 C 80.983818,149.052995 81.514808,148.522005 82.174391,148.522005 "/>
        <path style="fill:none;stroke-width:0.280000;stroke-linecap:round;stroke-linejoin:round;stroke-opacity:1;stroke:#339966;" d="M 114.508290,149.000000 L 134.724250,149.000000 C 135.356935,149.000000 135.866270,149.509335 135.866270,150.142020 L 135.866270,170.357980 C 135.866270,170.990653 135.356935,171.500000 134.724250,171.500000 L 114.508290,171.500000 C 113.875605,171.500000 113.366270,170.990653 113.366270,170.357980 L 113.366270,150.142020 C 113.366270,149.509335 113.875605,149.000000 114.508290,149.000000 "/>
        <path style="fill:none;stroke-width:0.280000;stroke-linecap:round;stroke-linejoin:round;stroke-opacity:1;stroke:#339966;" d="M 114.100264,148.521711 L 135.175698,148.521711 C 135.835280,148.521711 136.366270,149.052700 136.366270,149.712283 L 136.366270,170.787717 C 136.366270,171.447288 135.835280,171.978289 135.175698,171.978289 L 114.100264,171.978289 C 113.440681,171.978289 112.909692,171.447288 112.909692,170.787717 L 112.909692,149.712283 C 112.909692,149.052700 113.440681,148.521711 114.100264,148.521711 "/>
        <path style="fill:none;stroke-width:0.280000;stroke-linecap:round;stroke-linejoin:round;stroke-opacity:1;stroke:#339966;" d="M 68.120612,147.479057 L 67.512692,147.479057 L 67.512692,144.040562 L 66.930334,144.370583 L 66.930334,143.738735 L 67.512692,143.377683 L 68.120612,143.377683 L 68.120612,147.479057 "/>
        <path style="fill:none;stroke-width:0.280000;stroke-linecap:round;stroke-linejoin:round;stroke-opacity:1;stroke:#339966;" d="M 98.316264,147.495688 L 97.706808,147.495688 L 97.706808,144.048507 L 97.122979,144.379361 L 97.122979,143.745917 L 97.706808,143.383953 L 98.316264,143.383953 L 98.316264,147.495688 "/>
        <path style="fill:none;stroke-width:0.280000;stroke-linecap:round;stroke-linejoin:round;stroke-opacity:1;stroke:#339966;" d="M 130.299090,147.484100 L 129.684148,147.484100 L 129.684148,144.038901 L 129.095063,144.369565 L 129.095063,143.736486 L 129.684148,143.374730 L 130.299090,143.374730 L 130.299090,147.484100 "/>
        <path style="fill:none;stroke-width:0.280000;stroke-linecap:round;stroke-linejoin:round;stroke-opacity:1;stroke:#339966;" d="M 55.445526,143.938979 L 53.815535,143.938979 L 53.815535,145.034861 L 55.058182,145.034861 C 55.244317,145.062909 55.337056,145.158072 55.336401,145.320351 C 55.335746,145.482629 55.243006,145.577125 55.058182,145.603837 L 53.815535,145.603837 L 53.815535,146.920097 L 55.445526,146.920097 C 55.630350,146.948145 55.722762,147.042306 55.722762,147.202582 C 55.722762,147.362857 55.630350,147.456351 55.445526,147.483063 L 53.542231,147.483063 C 53.378380,147.461693 53.285313,147.366864 53.263029,147.198575 L 53.263029,143.660501 C 53.287934,143.484199 53.381002,143.390705 53.542231,143.380020 L 55.445526,143.380020 C 55.630350,143.394712 55.722434,143.488539 55.721779,143.661503 C 55.721124,143.834467 55.629039,143.926959 55.445526,143.938979 "/>
        <path style="fill:none;stroke-width:0.280000;stroke-linecap:round;stroke-linejoin:round;stroke-opacity:1;stroke:#339966;" d="M 56.548572,147.485066 C 56.387342,147.474381 56.294275,147.381555 56.269369,147.206588 L 56.269369,143.664508 C 56.296896,143.472178 56.392585,143.377683 56.556436,143.381022 C 56.720288,143.384361 56.809423,143.478856 56.823842,143.664508 L 56.823842,146.926107 L 58.638656,146.924104 C 58.824791,146.945474 58.916876,147.041305 58.914909,147.211597 C 58.912943,147.381889 58.820204,147.473046 58.636690,147.485066 L 56.548572,147.485066 "/>
        <path style="fill:none;stroke-width:0.280000;stroke-linecap:round;stroke-linejoin:round;stroke-opacity:1;stroke:#339966;" d="M 61.603706,146.166804 L 61.005977,144.483915 L 60.404316,146.166804 L 61.603706,146.166804 "/>
        <path style="fill:none;stroke-width:0.280000;stroke-linecap:round;stroke-linejoin:round;stroke-opacity:1;stroke:#339966;" d="M 61.005977,144.483915 L 61.603706,146.166804 L 61.005977,144.483915 "/>
        <path style="fill:none;stroke-width:0.280000;stroke-linecap:round;stroke-linejoin:round;stroke-opacity:1;stroke:#339966;" d="M 59.488061,147.096399 C 59.697790,146.507388 59.907847,145.918711 60.118232,145.330368 C 60.328617,144.742025 60.539329,144.153347 60.750370,143.564336 C 60.793626,143.442794 60.879484,143.381356 61.007944,143.380020 C 61.136403,143.378684 61.222916,143.440123 61.267484,143.564336 L 62.527827,147.106416 C 62.567151,147.294740 62.510786,147.416282 62.358732,147.471042 C 62.206678,147.525803 62.089361,147.469707 62.006780,147.302754 L 61.804260,146.729770 L 60.201796,146.729770 L 60.005175,147.288729 C 59.921283,147.457018 59.801999,147.512113 59.647324,147.454013 C 59.492648,147.395913 59.439561,147.276709 59.488061,147.096399 "/>
        <path style="fill:none;stroke-width:0.280000;stroke-linecap:round;stroke-linejoin:round;stroke-opacity:1;stroke:#339966;" d="M 65.447653,146.841963 L 65.429958,146.868007 C 65.426025,146.873350 65.422748,146.878024 65.420126,146.882031 C 65.417505,146.886038 65.414883,146.890045 65.412262,146.894052 C 65.232681,147.141143 64.997063,147.317111 64.705408,147.421958 C 64.413753,147.526805 64.126358,147.507772 63.843223,147.364860 C 63.514210,147.197907 63.272694,146.914754 63.118674,146.515402 C 62.964654,146.116050 62.898458,145.701004 62.920086,145.270265 C 62.941714,144.839525 63.053133,144.443846 63.254342,144.083227 C 63.455552,143.722608 63.747534,143.496887 64.130290,143.406065 C 64.350506,143.353975 64.570067,143.375679 64.788972,143.471176 C 65.007877,143.566674 65.187458,143.700570 65.327714,143.872866 C 65.329025,143.872866 65.332302,143.877541 65.337545,143.886890 C 65.397843,143.967028 65.410295,144.054845 65.374904,144.150342 C 65.339512,144.245839 65.274627,144.305609 65.180248,144.329650 C 65.079316,144.356363 64.986249,144.325643 64.901046,144.237492 C 64.725398,144.029134 64.556303,143.928962 64.393763,143.936976 C 64.231223,143.944990 64.085723,144.013107 63.957264,144.141327 C 63.828804,144.269547 63.721973,144.433829 63.636771,144.634173 C 63.551568,144.834517 63.499136,145.022172 63.479474,145.197139 C 63.455879,145.392140 63.458173,145.588144 63.486356,145.785148 C 63.514538,145.982153 63.573852,146.167471 63.664298,146.341103 C 63.821595,146.645626 64.019855,146.836286 64.259077,146.913085 C 64.498300,146.989883 64.731952,146.873350 64.960033,146.563485 C 64.970519,146.550128 64.982972,146.532765 64.997391,146.511395 C 65.120607,146.372490 65.250704,146.358132 65.387684,146.468321 C 65.524663,146.578510 65.544653,146.703057 65.447653,146.841963 "/>
        <path style="fill:none;stroke-width:0.280000;stroke-linecap:round;stroke-linejoin:round;stroke-opacity:1;stroke:#339966;" d="M 89.324819,145.298486 L 89.356287,145.312514 L 89.391688,145.330549 L 89.423155,145.348585 C 89.432333,145.355265 89.442495,145.361611 89.453640,145.367622 C 89.464784,145.373634 89.475601,145.379980 89.486091,145.386660 C 89.745698,145.560336 89.906314,145.800811 89.967938,146.108085 C 89.991538,146.228323 89.996783,146.351900 89.983672,146.478817 C 89.962693,146.660510 89.900086,146.828508 89.795849,146.982813 C 89.691613,147.137118 89.560826,147.256353 89.403488,147.340520 C 89.234350,147.431366 89.059312,147.476789 88.878373,147.476789 C 88.574186,147.476789 88.283767,147.437044 88.007115,147.357553 C 87.730462,147.278063 87.533134,147.065309 87.415131,146.719293 C 87.399397,146.675205 87.387597,146.629782 87.379730,146.583023 C 87.371863,146.536264 87.362685,146.489505 87.352196,146.442746 C 87.332528,146.346556 87.355801,146.261722 87.422014,146.188243 C 87.488227,146.114765 87.570502,146.086710 87.668838,146.104077 C 87.772419,146.125453 87.844532,146.190915 87.885178,146.300465 L 87.891078,146.318501 C 87.954013,146.608407 88.063822,146.781415 88.220504,146.837526 C 88.377186,146.893637 88.595165,146.919020 88.874440,146.913677 C 89.131425,146.913677 89.307774,146.790767 89.403488,146.544948 C 89.445445,146.435398 89.452001,146.321507 89.423155,146.203273 C 89.394310,146.085040 89.337275,145.986512 89.252050,145.907689 C 89.214027,145.874290 89.164203,145.842895 89.102579,145.813503 L 88.191987,145.406700 L 88.162486,145.390668 C 87.864855,145.230351 87.679983,145.002568 87.607870,144.707318 C 87.520023,144.365309 87.581319,144.058369 87.791758,143.786499 C 88.002198,143.514629 88.278522,143.378693 88.620732,143.378693 L 88.837072,143.384705 C 88.907874,143.398065 88.976054,143.411091 89.041611,143.423782 C 89.107168,143.436474 89.173381,143.458184 89.240250,143.488911 C 89.405455,143.567734 89.531981,143.675947 89.619828,143.813552 C 89.707675,143.951158 89.786999,144.100119 89.857801,144.260435 C 89.864357,144.275131 89.870257,144.292499 89.875502,144.312538 C 89.889924,144.378001 89.883369,144.437452 89.855835,144.490890 C 89.840101,144.524290 89.823711,144.549673 89.806666,144.567041 C 89.789621,144.584409 89.775854,144.596432 89.765365,144.603112 C 89.697185,144.652543 89.622450,144.667239 89.541159,144.647199 C 89.459868,144.628496 89.397588,144.575057 89.354320,144.486883 C 89.320230,144.409396 89.283846,144.330240 89.245167,144.249413 C 89.206488,144.168587 89.152403,144.101455 89.082912,144.048016 C 89.054067,144.026640 89.026205,144.010942 88.999326,144.000923 C 88.972448,143.990903 88.942619,143.979881 88.909841,143.967857 L 88.782004,143.945814 L 88.601065,143.939802 C 88.425371,143.942474 88.290978,144.019960 88.197887,144.172261 C 88.134952,144.269787 88.111351,144.378669 88.127085,144.498906 C 88.145441,144.647199 88.213620,144.762093 88.331624,144.843587 C 88.336868,144.847595 88.342769,144.851937 88.349324,144.856613 C 88.355880,144.861289 88.363091,144.865631 88.370958,144.869639 L 88.392592,144.879658 L 88.416193,144.889678 L 89.324819,145.298486 "/>
        <path style="fill:none;stroke-width:0.280000;stroke-linecap:round;stroke-linejoin:round;stroke-opacity:1;stroke:#339966;" d="M 92.660382,143.937798 L 91.029968,143.937798 L 91.029968,145.033963 L 92.272938,145.033963 C 92.459121,145.062019 92.551884,145.157207 92.551229,145.319527 C 92.550573,145.481848 92.457810,145.576368 92.272938,145.603088 L 91.029968,145.603088 L 91.029968,146.919688 L 92.660382,146.919688 C 92.845254,146.947744 92.937690,147.041930 92.937690,147.202247 C 92.937690,147.362563 92.845254,147.456081 92.660382,147.482801 L 90.756594,147.482801 C 90.592700,147.461425 90.499609,147.366571 90.477319,147.198239 L 90.477319,143.659248 C 90.502231,143.482899 90.595322,143.389381 90.756594,143.378693 L 92.660382,143.378693 C 92.845254,143.393389 92.937362,143.487241 92.936707,143.660250 C 92.936051,143.833258 92.843943,143.925774 92.660382,143.937798 "/>
        <path style="fill:none;stroke-width:0.280000;stroke-linecap:round;stroke-linejoin:round;stroke-opacity:1;stroke:#339966;" d="M 96.017579,146.841534 L 95.999878,146.867585 C 95.995945,146.872929 95.992667,146.877605 95.990045,146.881613 C 95.987422,146.885621 95.984800,146.889629 95.982178,146.893637 C 95.802550,147.140792 95.566871,147.316806 95.275141,147.421680 C 94.983410,147.526554 94.695941,147.507516 94.412733,147.364567 C 94.083634,147.197571 93.842055,146.914344 93.687995,146.514889 C 93.533935,146.115433 93.467722,145.700280 93.489356,145.269428 C 93.510990,144.838577 93.622438,144.442795 93.823699,144.082083 C 94.024960,143.721370 94.317019,143.495591 94.699874,143.404745 C 94.920147,143.352642 95.139765,143.374351 95.358727,143.469874 C 95.577688,143.565396 95.757316,143.699327 95.897609,143.871667 C 95.898920,143.871667 95.902198,143.876343 95.907442,143.885695 C 95.967755,143.965853 95.980211,144.053693 95.944810,144.149216 C 95.909409,144.244738 95.844507,144.304522 95.750104,144.328570 C 95.649146,144.355289 95.556054,144.324562 95.470830,144.236388 C 95.295136,144.027976 95.125998,143.927778 94.963415,143.935794 C 94.800833,143.943810 94.655295,144.011944 94.526803,144.140198 C 94.398310,144.268451 94.291451,144.432776 94.206227,144.633172 C 94.121002,144.833567 94.068556,145.021272 94.048889,145.196284 C 94.025288,145.391336 94.027583,145.587390 94.055772,145.784446 C 94.083962,145.981502 94.143291,146.166868 94.233761,146.340544 C 94.391099,146.645146 94.589410,146.835856 94.828695,146.912675 C 95.067979,146.989493 95.301692,146.872929 95.529831,146.562984 C 95.540321,146.549624 95.552777,146.532256 95.567199,146.510881 C 95.690447,146.371940 95.820579,146.357578 95.957594,146.467796 C 96.094609,146.578013 96.114604,146.702593 96.017579,146.841534 "/>
        <path style="fill:none;stroke-width:0.280000;stroke-linecap:round;stroke-linejoin:round;stroke-opacity:1;stroke:#339966;" d="M 119.005322,147.205113 L 119.005322,143.660700 C 119.028985,143.483881 119.122325,143.388774 119.285341,143.375379 L 121.194208,143.375379 C 121.376944,143.390114 121.468312,143.484886 121.468312,143.659695 C 121.468312,143.834505 121.375629,143.927938 121.190264,143.939993 L 119.559445,143.939993 L 119.559445,145.039083 L 120.831366,145.039083 C 121.012787,145.052478 121.104812,145.142897 121.107442,145.310339 C 121.110071,145.477781 121.018046,145.575567 120.831366,145.603698 L 119.559445,145.603698 L 119.559445,147.205113 C 119.546299,147.389969 119.457231,147.483737 119.292243,147.486416 C 119.127255,147.489095 119.031614,147.395328 119.005322,147.205113 "/>
        <path style="fill:none;stroke-width:0.280000;stroke-linecap:round;stroke-linejoin:round;stroke-opacity:1;stroke:#339966;" d="M 124.156107,146.170322 L 123.556628,144.482506 L 122.953205,146.170322 L 124.156107,146.170322 "/>
        <path style="fill:none;stroke-width:0.280000;stroke-linecap:round;stroke-linejoin:round;stroke-opacity:1;stroke:#339966;" d="M 123.556628,144.482506 L 124.156107,146.170322 L 123.556628,144.482506 "/>
        <path style="fill:none;stroke-width:0.280000;stroke-linecap:round;stroke-linejoin:round;stroke-opacity:1;stroke:#339966;" d="M 122.034267,147.102639 C 122.244611,146.511903 122.455283,145.921503 122.666284,145.331437 C 122.877285,144.741371 123.088614,144.150970 123.300272,143.560235 C 123.343656,143.438337 123.429765,143.376718 123.558600,143.375379 C 123.687436,143.374039 123.774202,143.435658 123.818900,143.560235 L 125.082933,147.112685 C 125.122373,147.301560 125.065843,147.423458 124.913344,147.478379 C 124.760845,147.533300 124.643184,147.477039 124.560361,147.309597 L 124.357248,146.734936 L 122.750093,146.734936 L 122.552896,147.295532 C 122.468758,147.464314 122.349125,147.519570 122.193997,147.461300 C 122.038869,147.403030 121.985626,147.283476 122.034267,147.102639 "/>
        <path style="fill:none;stroke-width:0.280000;stroke-linecap:round;stroke-linejoin:round;stroke-opacity:1;stroke:#339966;" d="M 128.011309,146.847457 L 127.993561,146.873578 C 127.989617,146.878936 127.986330,146.883625 127.983701,146.887643 C 127.981072,146.891662 127.978442,146.895681 127.975813,146.899699 C 127.795707,147.147513 127.559399,147.323997 127.266890,147.429151 C 126.974381,147.534305 126.686145,147.515216 126.402181,147.371886 C 126.072205,147.204444 125.829981,146.920462 125.675510,146.519941 C 125.521039,146.119419 125.454649,145.703158 125.476341,145.271158 C 125.498033,144.839157 125.609778,144.442320 125.811576,144.080645 C 126.013374,143.718970 126.306212,143.492588 126.690089,143.401500 C 126.910949,143.349258 127.131153,143.371025 127.350699,143.466802 C 127.570245,143.562579 127.750351,143.696868 127.891018,143.869668 C 127.892333,143.869668 127.895620,143.874356 127.900878,143.883733 C 127.961352,143.964105 127.973841,144.052180 127.938346,144.147956 C 127.902850,144.243733 127.837775,144.303678 127.743121,144.327789 C 127.641893,144.354580 127.548553,144.323771 127.463101,144.235361 C 127.286938,144.026393 127.117349,143.925928 126.954333,143.933965 C 126.791316,143.942003 126.645391,144.010319 126.516555,144.138915 C 126.387720,144.267510 126.280576,144.432273 126.195124,144.633203 C 126.109672,144.834134 126.057086,145.022339 126.037367,145.197818 C 126.013703,145.393390 126.016004,145.589967 126.044269,145.787549 C 126.072533,145.985131 126.132021,146.170991 126.222732,146.345131 C 126.380489,146.650545 126.579330,146.841764 126.819253,146.918788 C 127.059176,146.995811 127.293512,146.878936 127.522260,146.568164 C 127.532777,146.554769 127.545266,146.537355 127.559727,146.515922 C 127.683304,146.376610 127.813783,146.362210 127.951164,146.472722 C 128.088544,146.583234 128.108592,146.708145 128.011309,146.847457 "/>
        <path style="fill:none;stroke-width:0.280000;stroke-linecap:round;stroke-linejoin:round;stroke-opacity:1;stroke:#339966;" d="M 64.243237,140.094974 L 64.243237,135.967071 C 64.270796,135.761144 64.379502,135.650380 64.569354,135.634780 L 66.792463,135.634780 C 67.005281,135.651941 67.111691,135.762314 67.111691,135.965901 C 67.111691,136.169488 67.003750,136.278302 66.787870,136.292343 L 64.888582,136.292343 L 64.888582,137.572367 L 66.369889,137.572367 C 66.581176,137.587967 66.688351,137.693271 66.691413,137.888278 C 66.694475,138.083284 66.587300,138.197168 66.369889,138.229929 L 64.888582,138.229929 L 64.888582,140.094974 C 64.873271,140.310261 64.769541,140.419465 64.577393,140.422585 C 64.385244,140.425705 64.273859,140.316501 64.243237,140.094974 "/>
        <path style="fill:none;stroke-width:0.280000;stroke-linecap:round;stroke-linejoin:round;stroke-opacity:1;stroke:#339966;" d="M 68.080856,140.429605 C 67.892535,140.417125 67.783829,140.308701 67.754739,140.104334 L 67.754739,135.967071 C 67.786891,135.742424 67.898659,135.632050 68.090042,135.635950 C 68.281425,135.639850 68.385538,135.750224 68.402380,135.967071 L 68.402380,139.776723 L 70.522141,139.774383 C 70.739553,139.799343 70.847110,139.911277 70.844814,140.110184 C 70.842517,140.309091 70.734194,140.415565 70.519845,140.429605 L 68.080856,140.429605 "/>
        <path style="fill:none;stroke-width:0.280000;stroke-linecap:round;stroke-linejoin:round;stroke-opacity:1;stroke:#339966;" d="M 71.913881,140.099654 L 71.913881,136.294683 L 71.071029,136.294683 C 70.856679,136.277522 70.749888,136.167928 70.750653,135.965901 C 70.751419,135.763874 70.858211,135.653501 71.071029,135.634780 L 73.402078,135.634780 C 73.613365,135.651941 73.719391,135.762314 73.720157,135.965901 C 73.720922,136.169488 73.614896,136.279082 73.402078,136.294683 L 72.561522,136.294683 L 72.561522,140.099654 C 72.526308,140.321181 72.413391,140.430385 72.222774,140.427265 C 72.032156,140.424145 71.929192,140.314941 71.913881,140.099654 "/>
        <path style="fill:none;stroke-width:0.280000;stroke-linecap:round;stroke-linejoin:round;stroke-opacity:1;stroke:#339966;" d="M 82.067149,139.678439 L 82.046480,139.708860 C 82.041886,139.715101 82.038059,139.720561 82.034997,139.725241 C 82.031935,139.729921 82.028872,139.734601 82.025810,139.739281 C 81.816054,140.027891 81.540845,140.233428 81.200183,140.355893 C 80.859520,140.478357 80.523834,140.456126 80.193124,140.289200 C 79.808826,140.094194 79.526727,139.763462 79.346826,139.297006 C 79.166926,138.830550 79.089607,138.345763 79.114870,137.842646 C 79.140133,137.339529 79.270273,136.877363 79.505292,136.456148 C 79.740311,136.034934 80.081356,135.771285 80.528427,135.665201 C 80.785646,135.604359 81.042100,135.629710 81.297788,135.741254 C 81.553476,135.852797 81.763232,136.009193 81.927056,136.210440 C 81.928588,136.210440 81.932415,136.215900 81.938539,136.226820 C 82.008969,136.320424 82.023514,136.422997 81.982175,136.534541 C 81.940836,136.646085 81.865048,136.715897 81.754811,136.743978 C 81.636919,136.775179 81.528214,136.739298 81.428694,136.636334 C 81.223531,136.392966 81.026024,136.275962 80.836172,136.285322 C 80.646319,136.294683 80.476371,136.374245 80.326326,136.524011 C 80.176282,136.673776 80.051500,136.865662 79.951981,137.099670 C 79.852461,137.333678 79.791219,137.552866 79.768253,137.757233 C 79.740693,137.985001 79.743373,138.213939 79.776291,138.444047 C 79.809209,138.674155 79.878489,138.890612 79.984133,139.093419 C 80.167861,139.449111 80.399435,139.671809 80.678854,139.761512 C 80.958274,139.851215 81.231187,139.715101 81.497592,139.353168 C 81.509841,139.337568 81.524386,139.317287 81.541228,139.292326 C 81.685148,139.130080 81.837106,139.113310 81.997103,139.242014 C 82.157099,139.370719 82.180448,139.516194 82.067149,139.678439 "/>
        <path style="fill:none;stroke-width:0.280000;stroke-linecap:round;stroke-linejoin:round;stroke-opacity:1;stroke:#339966;" d="M 83.872277,140.099654 L 83.872277,136.294683 L 83.029424,136.294683 C 82.815075,136.277522 82.708283,136.167928 82.709049,135.965901 C 82.709814,135.763874 82.816606,135.653501 83.029424,135.634780 L 85.360473,135.634780 C 85.571761,135.651941 85.677787,135.762314 85.678552,135.965901 C 85.679318,136.169488 85.573292,136.279082 85.360473,136.294683 L 84.519918,136.294683 L 84.519918,140.099654 C 84.484703,140.321181 84.371787,140.430385 84.181169,140.427265 C 83.990551,140.424145 83.887587,140.314941 83.872277,140.099654 "/>
        <path style="fill:none;stroke-width:0.280000;stroke-linecap:round;stroke-linejoin:round;stroke-opacity:1;stroke:#339966;" d="M 87.421442,140.429605 C 87.233121,140.417125 87.124415,140.308701 87.095325,140.104334 L 87.095325,135.967071 C 87.127477,135.742424 87.239245,135.632050 87.430628,135.635950 C 87.622012,135.639850 87.726124,135.750224 87.742966,135.967071 L 87.742966,139.776723 L 89.862728,139.774383 C 90.080139,139.799343 90.187697,139.911277 90.185400,140.110184 C 90.183103,140.309091 90.074780,140.415565 89.860431,140.429605 L 87.421442,140.429605 "/>
    </g>
    <g inkscape:groupmode="layer" id="abb0eef1-77ef-465b-b55c-ee9ff62fe786" inkscape:label="_BackPanel" style="stroke:#0000ff;">
        <path style="fill:none;stroke-width:0.280000;stroke-linecap:round;stroke-linejoin:round;stroke-opacity:1;stroke:#0000ff;" d="M 50.123779,148.675002 L 71.219342,148.675002 C 71.788421,148.675002 72.246560,149.133261 72.246560,149.702501 L 72.246560,170.797499 C 72.246560,171.366739 71.788421,171.824998 71.219342,171.824998 L 50.123779,171.824998 C 49.554700,171.824998 49.096560,171.366739 49.096560,170.797499 L 49.096560,149.702501 C 49.096560,149.133261 49.554700,148.675002 50.123779,148.675002 "/>
        <path style="fill:none;stroke-width:0.280000;stroke-linecap:round;stroke-linejoin:round;stroke-opacity:1;stroke:#0000ff;" d="M 6.250000,132.608696 L 6.250000,137.336957 L 6.250000,146.793478 L 6.250000,165.706522 L 6.250000,170.434783 L 6.250000,179.891304 L 151.250000,179.891304 L 151.250000,170.434783 L 151.250000,165.706522 L 151.250000,146.793478 L 151.250000,137.336957 L 151.250000,132.608696 L 6.250000,132.608696 "/>
        <path style="fill:none;stroke-width:0.280000;stroke-linecap:round;stroke-linejoin:round;stroke-opacity:1;stroke:#0000ff;" d="M 10.614830,148.753510 A 2.488170,2.488170 0 0,0 13.103000,146.265340 A 2.488170,2.488170 0 0,0 10.614830,143.777170 A 2.488170,2.488170 0 0,0 8.126660,146.265340 A 2.488170,2.488170 0 0,0 10.614830,148.753510 "/>
        <path style="fill:none;stroke-width:0.280000;stroke-linecap:round;stroke-linejoin:round;stroke-opacity:1;stroke:#0000ff;" d="M 146.885950,168.263330 A 2.488170,2.488170 0 0,0 149.374120,165.775160 A 2.488170,2.488170 0 0,0 146.885950,163.286990 A 2.488170,2.488170 0 0,0 144.397780,165.775160 A 2.488170,2.488170 0 0,0 146.885950,168.263330 "/>
        <path style="fill:none;stroke-width:0.280000;stroke-linecap:round;stroke-linejoin:round;stroke-opacity:1;stroke:#0000ff;" d="M 82.164326,148.675296 L 103.259889,148.675296 C 103.828968,148.675296 104.287108,149.133556 104.287108,149.702795 L 104.287108,170.797794 C 104.287108,171.367033 103.828968,171.825293 103.259889,171.825293 L 82.164326,171.825293 C 81.595247,171.825293 81.137108,171.367033 81.137108,170.797794 L 81.137108,149.702795 C 81.137108,149.133556 81.595247,148.675296 82.164326,148.675296 "/>
        <path style="fill:none;stroke-width:0.280000;stroke-linecap:round;stroke-linejoin:round;stroke-opacity:1;stroke:#0000ff;" d="M 114.090199,148.675002 L 135.185762,148.675002 C 135.754841,148.675002 136.212981,149.133261 136.212981,149.702501 L 136.212981,170.797499 C 136.212981,171.366739 135.754841,171.824998 135.185762,171.824998 L 114.090199,171.824998 C 113.521120,171.824998 113.062981,171.366739 113.062981,170.797499 L 113.062981,149.702501 C 113.062981,149.133261 113.521120,148.675002 114.090199,148.675002 "/>
    </g>
    <g inkscape:groupmode="layer" id="a2f76286-dc96-484e-ab40-6a818f23b20f" inkscape:label="_TopLayer" style="stroke:#ff0000;">
        <path style="fill:none;stroke-width:0.280000;stroke-linecap:round;stroke-linejoin:round;stroke-opacity:1;stroke:#ff0000;" d="M 51.654195,150.006483 L 69.803637,150.006483 C 70.371647,150.006483 70.828917,150.463753 70.828917,151.031763 L 70.828917,169.181202 C 70.828917,169.749202 70.371647,170.206481 69.803637,170.206481 L 51.654195,170.206481 C 51.086185,170.206481 50.628915,169.749202 50.628915,169.181202 L 50.628915,151.031763 C 50.628915,150.463753 51.086185,150.006483 51.654195,150.006483 "/>
        <path style="fill:none;stroke-width:0.280000;stroke-linecap:round;stroke-linejoin:round;stroke-opacity:1;stroke:#ff0000;" d="M 9.468220,179.891372 L 8.557671,179.890593 C 7.288921,179.871343 6.272846,178.845596 6.263833,177.583760 L 6.243656,177.573707 L 6.244797,176.263274 L 6.244413,175.069314 L 6.244413,167.358447 L 6.249321,153.525590 C 6.249421,152.243500 7.279618,151.206464 8.554593,151.196372 L 10.367197,151.196372 C 13.076619,151.196069 15.272900,148.961521 15.272800,146.236766 C 15.272900,143.512111 13.076619,141.276251 10.367197,141.276251 L 8.565933,141.276251 C 8.488154,141.276251 8.411479,141.275242 8.335206,141.265149 C 8.333198,141.265149 8.323283,141.265149 8.323162,141.265149 C 8.252208,141.258084 8.182859,141.246982 8.113610,141.232852 L 8.087517,141.232852 C 8.021279,141.218722 7.956647,141.201564 7.892417,141.182388 C 7.881377,141.182388 7.871341,141.172295 7.860301,141.172295 C 7.799985,141.152110 7.741074,141.130915 7.682865,141.106692 C 7.670821,141.101646 7.658778,141.101646 7.646735,141.091553 C 7.589429,141.066321 7.533228,141.039070 7.478030,141.009801 L 7.467994,141.009801 C 7.459965,141.006773 7.454947,140.996680 7.444911,140.996680 C 7.385096,140.963980 7.325783,140.928655 7.269582,140.890302 C 7.269582,140.879907 7.259646,140.880310 7.259546,140.880209 C 7.200133,140.839636 7.142526,140.796237 7.087328,140.750820 C 7.033234,140.705301 6.981448,140.657865 6.931268,140.608410 L 6.920228,140.597308 C 6.872055,140.548257 6.825890,140.496986 6.781731,140.443494 L 6.771695,140.433401 C 6.728038,140.379909 6.686891,140.324499 6.647750,140.266970 C 6.647750,140.264952 6.637815,140.254980 6.637714,140.254859 C 6.601284,140.199954 6.567161,140.143939 6.535046,140.085401 C 6.530028,140.075308 6.519992,140.066224 6.519992,140.056132 C 6.488880,139.999107 6.460779,139.939963 6.435689,139.880416 C 6.433682,139.871332 6.423646,139.862249 6.423646,139.852156 C 6.398556,139.790893 6.375473,139.728519 6.355401,139.664934 C 6.355401,139.655851 6.345365,139.646767 6.345365,139.636675 C 6.325293,139.570769 6.308232,139.502945 6.294182,139.435323 C 6.294182,139.435222 6.294182,139.425331 6.294182,139.425230 C 6.280131,139.354681 6.271099,139.282922 6.261063,139.210253 L 6.261063,139.195114 C 6.249923,139.119317 6.250023,139.042309 6.250023,138.964594 L 6.250023,137.276269 L 6.250023,135.834992 L 6.250023,134.924443 C 6.268188,133.655676 7.293066,132.638725 8.554894,132.628632 L 8.564930,132.608447 L 9.875363,132.608466 L 148.963529,132.610566 C 150.242719,132.610566 151.243309,133.652850 151.243410,134.939280 L 151.243410,137.257598 L 151.249991,152.183401 L 151.249991,156.184410 L 151.249991,158.508481 C 151.249891,159.794911 150.213070,160.837700 148.933880,160.837801 L 147.132616,160.837801 C 144.423194,160.838003 142.227013,163.073560 142.227013,165.798315 C 142.227013,168.523070 144.423194,170.757618 147.132616,170.757820 L 148.945221,170.757820 C 150.220095,170.763876 151.250392,171.805050 151.250493,173.087139 L 151.250493,175.090965 L 151.249411,176.263133 L 151.250551,177.573565 L 151.230374,177.583618 C 151.221361,178.845455 150.205287,179.871202 148.936536,179.890452 L 148.025987,179.891231 L 9.468220,179.891372 "/>
        <path style="fill:none;stroke-width:0.280000;stroke-linecap:round;stroke-linejoin:round;stroke-opacity:1;stroke:#ff0000;" d="M 83.694743,150.006777 L 101.844184,150.006777 C 102.412194,150.006777 102.869464,150.464047 102.869464,151.032057 L 102.869464,169.181496 C 102.869464,169.749496 102.412194,170.206776 101.844184,170.206776 L 83.694743,170.206776 C 83.126732,170.206776 82.669462,169.749496 82.669462,169.181496 L 82.669462,151.032057 C 82.669462,150.464047 83.126732,150.006777 83.694743,150.006777 "/>
        <path style="fill:none;stroke-width:0.280000;stroke-linecap:round;stroke-linejoin:round;stroke-opacity:1;stroke:#ff0000;" d="M 115.620616,150.006483 L 133.770057,150.006483 C 134.338067,150.006483 134.795337,150.463753 134.795337,151.031763 L 134.795337,169.181202 C 134.795337,169.749202 134.338067,170.206481 133.770057,170.206481 L 115.620616,170.206481 C 115.052606,170.206481 114.595336,169.749202 114.595336,169.181202 L 114.595336,151.031763 C 114.595336,150.463753 115.052606,150.006483 115.620616,150.006483 "/>
    </g>
</svg>
