<?xml version="1.0" encoding="UTF-8"?>
<!-- Created by Vectric (http://www.vectric.com/) -->
<svg width="1800.00000000mm" height="700.00000000mm" viewBox="0.00000000 0.00000000 1800.00000000 700.00000000" id="svg2" version="1.1" xmlns="http://www.w3.org/2000/svg" xmlns:xlink="http://www.w3.org/1999/xlink" xmlns:inkscape="http://www.inkscape.org/namespaces/inkscape">
    <g inkscape:groupmode="layer" id="85667243-1302-4a85-b3ac-c7bf39b332ec" inkscape:label="Toolpath Previews" style="stroke:#000000;"/>
    <g inkscape:groupmode="layer" id="f214414e-ab3c-47f2-be51-63dc126dd18d" inkscape:label="Images" style="stroke:#000000;"/>
    <g inkscape:groupmode="layer" id="f131e4f8-88bf-4ff8-82ae-e609d563f43b" inkscape:label="_Engraving" style="stroke:#339966;">
        <path style="fill:none;stroke-width:0.280000;stroke-linecap:round;stroke-linejoin:round;stroke-opacity:1;stroke:#339966;" d="M 746.504103,318.170921 L 766.720064,318.170921 C 767.352748,318.170921 767.862084,318.680257 767.862084,319.312941 L 767.862084,339.528901 C 767.862084,340.161575 767.352748,340.670921 766.720064,340.670921 L 746.504103,340.670921 C 745.871419,340.670921 745.362084,340.161575 745.362084,339.528901 L 745.362084,319.312941 C 745.362084,318.680257 745.871419,318.170921 746.504103,318.170921 "/>
        <path style="fill:none;stroke-width:0.280000;stroke-linecap:round;stroke-linejoin:round;stroke-opacity:1;stroke:#339966;" d="M 746.096078,317.692632 L 767.171511,317.692632 C 767.831094,317.692632 768.362084,318.223622 768.362084,318.883204 L 768.362084,339.958638 C 768.362084,340.618209 767.831094,341.149210 767.171511,341.149210 L 746.096078,341.149210 C 745.436495,341.149210 744.905505,340.618209 744.905505,339.958638 L 744.905505,318.883204 C 744.905505,318.223622 745.436495,317.692632 746.096078,317.692632 "/>
        <path style="fill:none;stroke-width:0.280000;stroke-linecap:round;stroke-linejoin:round;stroke-opacity:1;stroke:#339966;" d="M 777.020232,318.171216 L 797.236193,318.171216 C 797.868877,318.171216 798.378213,318.680551 798.378213,319.313235 L 798.378213,339.529196 C 798.378213,340.161869 797.868877,340.671216 797.236193,340.671216 L 777.020232,340.671216 C 776.387548,340.671216 775.878213,340.161869 775.878213,339.529196 L 775.878213,319.313235 C 775.878213,318.680551 776.387548,318.171216 777.020232,318.171216 "/>
        <path style="fill:none;stroke-width:0.280000;stroke-linecap:round;stroke-linejoin:round;stroke-opacity:1;stroke:#339966;" d="M 776.612207,317.692926 L 797.687640,317.692926 C 798.347223,317.692926 798.878213,318.223916 798.878213,318.883499 L 798.878213,339.958932 C 798.878213,340.618504 798.347223,341.149505 797.687640,341.149505 L 776.612207,341.149505 C 775.952624,341.149505 775.421634,340.618504 775.421634,339.958932 L 775.421634,318.883499 C 775.421634,318.223916 775.952624,317.692926 776.612207,317.692926 "/>
        <path style="fill:none;stroke-width:0.280000;stroke-linecap:round;stroke-linejoin:round;stroke-opacity:1;stroke:#339966;" d="M 807.802792,318.170921 L 828.018752,318.170921 C 828.651437,318.170921 829.160772,318.680257 829.160772,319.312941 L 829.160772,339.528901 C 829.160772,340.161575 828.651437,340.670921 828.018752,340.670921 L 807.802792,340.670921 C 807.170107,340.670921 806.660772,340.161575 806.660772,339.528901 L 806.660772,319.312941 C 806.660772,318.680257 807.170107,318.170921 807.802792,318.170921 "/>
        <path style="fill:none;stroke-width:0.280000;stroke-linecap:round;stroke-linejoin:round;stroke-opacity:1;stroke:#339966;" d="M 807.394766,317.692632 L 828.470200,317.692632 C 829.129782,317.692632 829.660772,318.223622 829.660772,318.883204 L 829.660772,339.958638 C 829.660772,340.618209 829.129782,341.149210 828.470200,341.149210 L 807.394766,341.149210 C 806.735183,341.149210 806.204194,340.618209 806.204194,339.958638 L 806.204194,318.883204 C 806.204194,318.223622 806.735183,317.692632 807.394766,317.692632 "/>
        <path style="fill:none;stroke-width:0.280000;stroke-linecap:round;stroke-linejoin:round;stroke-opacity:1;stroke:#339966;" d="M 783.013353,314.551249 L 783.044820,314.565276 L 783.080221,314.583312 L 783.111689,314.601348 C 783.120867,314.608027 783.131029,314.614373 783.142173,314.620385 C 783.153318,314.626397 783.164135,314.632743 783.174624,314.639423 C 783.434232,314.813099 783.594847,315.053574 783.656471,315.360848 C 783.680072,315.481085 783.685317,315.604663 783.672205,315.731580 C 783.651227,315.913272 783.588619,316.081271 783.484383,316.235576 C 783.380147,316.389881 783.249360,316.509116 783.092022,316.593282 C 782.922884,316.684129 782.747845,316.729552 782.566907,316.729552 C 782.262720,316.729552 781.972301,316.689806 781.695648,316.610316 C 781.418996,316.530826 781.221668,316.318072 781.103665,315.972055 C 781.087931,315.927968 781.076130,315.882545 781.068263,315.835786 C 781.060397,315.789027 781.051219,315.742268 781.040729,315.695509 C 781.021062,315.599319 781.044335,315.514485 781.110548,315.441006 C 781.176761,315.367528 781.259036,315.339472 781.357372,315.356840 C 781.460953,315.378215 781.533066,315.443678 781.573711,315.553228 L 781.579612,315.571263 C 781.642547,315.861170 781.752355,316.034178 781.909038,316.090289 C 782.065720,316.146400 782.283699,316.171783 782.562973,316.166439 C 782.819958,316.166439 782.996308,316.043530 783.092022,315.797711 C 783.133979,315.688161 783.140534,315.574269 783.111689,315.456036 C 783.082844,315.337802 783.025809,315.239274 782.940584,315.160452 C 782.902561,315.127053 782.852737,315.095657 782.791113,315.066266 L 781.880520,314.659462 L 781.851019,314.643431 C 781.553389,314.483114 781.368517,314.255331 781.296403,313.960081 C 781.208556,313.618072 781.269853,313.311132 781.480292,313.039262 C 781.690731,312.767391 781.967056,312.631456 782.309266,312.631456 L 782.525606,312.637468 C 782.596408,312.650828 782.664587,312.663853 782.730145,312.676545 C 782.795702,312.689237 782.861915,312.710946 782.928784,312.741674 C 783.093989,312.820496 783.220514,312.928710 783.308361,313.066315 C 783.396208,313.203920 783.475533,313.352881 783.546335,313.513198 C 783.552891,313.527894 783.558791,313.545261 783.564035,313.565301 C 783.578458,313.630764 783.571902,313.690214 783.544368,313.743653 C 783.528634,313.777052 783.512245,313.802436 783.495200,313.819804 C 783.478155,313.837171 783.464388,313.849195 783.453899,313.855875 C 783.385719,313.905306 783.310984,313.920002 783.229692,313.899962 C 783.148401,313.881258 783.086122,313.827819 783.042854,313.739645 C 783.008764,313.662159 782.972380,313.583003 782.933701,313.502176 C 782.895022,313.421350 782.840937,313.354217 782.771446,313.300778 C 782.742601,313.279403 782.714739,313.263705 782.687860,313.253685 C 782.660982,313.243665 782.631153,313.232644 782.598374,313.220620 L 782.470537,313.198576 L 782.289599,313.192565 C 782.113905,313.195236 781.979512,313.272723 781.886420,313.425024 C 781.823485,313.522550 781.799885,313.631432 781.815618,313.751669 C 781.833974,313.899962 781.902154,314.014856 782.020158,314.096350 C 782.025402,314.100358 782.031302,314.104700 782.037858,314.109376 C 782.044414,314.114052 782.051625,314.118393 782.059492,314.122401 L 782.081126,314.132421 L 782.104727,314.142441 L 783.013353,314.551249 "/>
        <path style="fill:none;stroke-width:0.280000;stroke-linecap:round;stroke-linejoin:round;stroke-opacity:1;stroke:#339966;" d="M 786.348916,313.190561 L 784.718502,313.190561 L 784.718502,314.286726 L 785.961471,314.286726 C 786.147654,314.314781 786.240418,314.409969 786.239763,314.572290 C 786.239107,314.734611 786.146343,314.829131 785.961471,314.855850 L 784.718502,314.855850 L 784.718502,316.172451 L 786.348916,316.172451 C 786.533788,316.200507 786.626224,316.294693 786.626224,316.455009 C 786.626224,316.615326 786.533788,316.708844 786.348916,316.735563 L 784.445128,316.735563 C 784.281234,316.714188 784.188142,316.619334 784.165853,316.451001 L 784.165853,312.912010 C 784.190765,312.735662 784.283856,312.642144 784.445128,312.631456 L 786.348916,312.631456 C 786.533788,312.646152 786.625896,312.740004 786.625240,312.913012 C 786.624585,313.086021 786.532477,313.178537 786.348916,313.190561 "/>
        <path style="fill:none;stroke-width:0.280000;stroke-linecap:round;stroke-linejoin:round;stroke-opacity:1;stroke:#339966;" d="M 789.706113,316.094297 L 789.688412,316.120348 C 789.684479,316.125692 789.681201,316.130368 789.678578,316.134376 C 789.675956,316.138384 789.673334,316.142392 789.670712,316.146400 C 789.491084,316.393555 789.255405,316.569569 788.963674,316.674443 C 788.671944,316.779317 788.384474,316.760279 788.101266,316.617330 C 787.772168,316.450333 787.530589,316.167107 787.376529,315.767651 C 787.222469,315.368196 787.156256,314.953042 787.177890,314.522191 C 787.199524,314.091340 787.310971,313.695558 787.512233,313.334846 C 787.713494,312.974133 788.005552,312.748354 788.388408,312.657508 C 788.608681,312.605405 788.828298,312.627114 789.047260,312.722636 C 789.266222,312.818158 789.445849,312.952090 789.586142,313.124430 C 789.587454,313.124430 789.590731,313.129106 789.595976,313.138458 C 789.656289,313.218616 789.668745,313.306456 789.633344,313.401978 C 789.597943,313.497500 789.533041,313.557285 789.438638,313.581333 C 789.337680,313.608052 789.244588,313.577325 789.159363,313.489150 C 788.983670,313.280739 788.814531,313.180541 788.651949,313.188557 C 788.489366,313.196572 788.343829,313.264707 788.215336,313.392960 C 788.086844,313.521214 787.979985,313.685538 787.894760,313.885934 C 787.809536,314.086330 787.757090,314.274034 787.737422,314.449047 C 787.713822,314.644099 787.716116,314.840153 787.744306,315.037209 C 787.772496,315.234264 787.831825,315.419631 787.922294,315.593307 C 788.079632,315.897909 788.277944,316.088619 788.517228,316.165437 C 788.756513,316.242256 788.990225,316.125692 789.218365,315.815746 C 789.228854,315.802387 789.241310,315.785019 789.255733,315.763644 C 789.378981,315.624702 789.509112,315.610341 789.646127,315.720558 C 789.783143,315.830776 789.803138,315.955356 789.706113,316.094297 "/>
        <path style="fill:none;stroke-width:0.280000;stroke-linecap:round;stroke-linejoin:round;stroke-opacity:1;stroke:#339966;" d="M 811.675422,316.427186 L 811.675422,312.882772 C 811.699085,312.705953 811.792425,312.610846 811.955442,312.597451 L 813.864309,312.597451 C 814.047044,312.612186 814.138412,312.706958 814.138412,312.881768 C 814.138412,313.056577 814.045730,313.150010 813.860365,313.162066 L 812.229545,313.162066 L 812.229545,314.261155 L 813.501466,314.261155 C 813.682887,314.274551 813.774913,314.364969 813.777542,314.532411 C 813.780171,314.699853 813.688146,314.797640 813.501466,314.825770 L 812.229545,314.825770 L 812.229545,316.427186 C 812.216399,316.612042 812.127332,316.705809 811.962343,316.708488 C 811.797355,316.711167 811.701715,316.617400 811.675422,316.427186 "/>
        <path style="fill:none;stroke-width:0.280000;stroke-linecap:round;stroke-linejoin:round;stroke-opacity:1;stroke:#339966;" d="M 816.826208,315.392394 L 816.226729,313.704578 L 815.623306,315.392394 L 816.826208,315.392394 "/>
        <path style="fill:none;stroke-width:0.280000;stroke-linecap:round;stroke-linejoin:round;stroke-opacity:1;stroke:#339966;" d="M 816.226729,313.704578 L 816.826208,315.392394 L 816.226729,313.704578 "/>
        <path style="fill:none;stroke-width:0.280000;stroke-linecap:round;stroke-linejoin:round;stroke-opacity:1;stroke:#339966;" d="M 814.704368,316.324711 C 814.914711,315.733975 815.125383,315.143575 815.336384,314.553509 C 815.547385,313.963443 815.758714,313.373043 815.970373,312.782307 C 816.013756,312.660409 816.099865,312.598790 816.228701,312.597451 C 816.357536,312.596111 816.444303,312.657730 816.489001,312.782307 L 817.753033,316.334758 C 817.792473,316.523632 817.735943,316.645530 817.583444,316.700451 C 817.430945,316.755372 817.313284,316.699111 817.230461,316.531669 L 817.027348,315.957008 L 815.420193,315.957008 L 815.222996,316.517604 C 815.138859,316.686386 815.019226,316.741642 814.864097,316.683372 C 814.708969,316.625102 814.655726,316.505548 814.704368,316.324711 "/>
        <path style="fill:none;stroke-width:0.280000;stroke-linecap:round;stroke-linejoin:round;stroke-opacity:1;stroke:#339966;" d="M 820.681409,316.069529 L 820.663661,316.095650 C 820.659717,316.101008 820.656431,316.105697 820.653801,316.109715 C 820.651172,316.113734 820.648543,316.117753 820.645913,316.121771 C 820.465807,316.369586 820.229499,316.546069 819.936990,316.651223 C 819.644481,316.756377 819.356245,316.737288 819.072281,316.593958 C 818.742305,316.426516 818.500081,316.142534 818.345610,315.742013 C 818.191139,315.341491 818.124750,314.925230 818.146441,314.493230 C 818.168133,314.061229 818.279878,313.664392 818.481676,313.302717 C 818.683475,312.941042 818.976312,312.714660 819.360189,312.623572 C 819.581050,312.571330 819.801253,312.593097 820.020799,312.688874 C 820.240345,312.784651 820.420452,312.918940 820.561119,313.091740 C 820.562433,313.091740 820.565720,313.096428 820.570979,313.105805 C 820.631452,313.186177 820.643942,313.274252 820.608446,313.370029 C 820.572951,313.465805 820.507876,313.525750 820.413221,313.549861 C 820.311993,313.576652 820.218653,313.545843 820.133201,313.457433 C 819.957039,313.248466 819.787449,313.148000 819.624433,313.156038 C 819.461417,313.164075 819.315491,313.232391 819.186656,313.360987 C 819.057820,313.489582 818.950677,313.654345 818.865225,313.855276 C 818.779773,314.056206 818.727187,314.244411 818.707467,314.419890 C 818.683803,314.615463 818.686104,314.812040 818.714369,315.009621 C 818.742634,315.207203 818.802122,315.393063 818.892832,315.567203 C 819.050590,315.872617 819.249430,316.063836 819.489353,316.140860 C 819.729276,316.217883 819.963612,316.101008 820.192360,315.790236 C 820.202878,315.776841 820.215367,315.759427 820.229828,315.737994 C 820.353405,315.598682 820.483883,315.584282 820.621264,315.694794 C 820.758644,315.805306 820.778693,315.930218 820.681409,316.069529 "/>
        <path style="fill:none;stroke-width:0.280000;stroke-linecap:round;stroke-linejoin:round;stroke-opacity:1;stroke:#339966;" d="M 757.537739,309.265895 L 757.537739,305.137993 C 757.565299,304.932065 757.674004,304.821302 757.863857,304.805701 L 760.086965,304.805701 C 760.299783,304.822862 760.406193,304.933235 760.406193,305.136822 C 760.406193,305.340409 760.298252,305.449223 760.082372,305.463264 L 758.183084,305.463264 L 758.183084,306.743288 L 759.664391,306.743288 C 759.875678,306.758888 759.982853,306.864192 759.985915,307.059199 C 759.988977,307.254205 759.881802,307.368089 759.664391,307.400850 L 758.183084,307.400850 L 758.183084,309.265895 C 758.167773,309.481182 758.064043,309.590386 757.871895,309.593506 C 757.679746,309.596626 757.568361,309.487422 757.537739,309.265895 "/>
        <path style="fill:none;stroke-width:0.280000;stroke-linecap:round;stroke-linejoin:round;stroke-opacity:1;stroke:#339966;" d="M 761.375358,309.600526 C 761.187037,309.588046 761.078331,309.479622 761.049241,309.275255 L 761.049241,305.137993 C 761.081393,304.913345 761.193161,304.802971 761.384544,304.806871 C 761.575928,304.810771 761.680040,304.921145 761.696882,305.137993 L 761.696882,308.947644 L 763.816643,308.945304 C 764.034055,308.970265 764.141612,309.082198 764.139316,309.281105 C 764.137019,309.480012 764.028696,309.586486 763.814347,309.600526 L 761.375358,309.600526 "/>
        <path style="fill:none;stroke-width:0.280000;stroke-linecap:round;stroke-linejoin:round;stroke-opacity:1;stroke:#339966;" d="M 765.208383,309.270575 L 765.208383,305.465604 L 764.365531,305.465604 C 764.151182,305.448443 764.044390,305.338849 764.045155,305.136822 C 764.045921,304.934796 764.152713,304.824422 764.365531,304.805701 L 766.696580,304.805701 C 766.907867,304.822862 767.013893,304.933235 767.014659,305.136822 C 767.015424,305.340409 766.909398,305.450003 766.696580,305.465604 L 765.856024,305.465604 L 765.856024,309.270575 C 765.820810,309.492103 765.707893,309.601306 765.517276,309.598186 C 765.326658,309.595066 765.223694,309.485862 765.208383,309.270575 "/>
        <path style="fill:none;stroke-width:0.280000;stroke-linecap:round;stroke-linejoin:round;stroke-opacity:1;stroke:#339966;" d="M 775.361651,308.849360 L 775.340982,308.879781 C 775.336389,308.886022 775.332561,308.891482 775.329499,308.896162 C 775.326437,308.900842 775.323374,308.905522 775.320312,308.910203 C 775.110556,309.198812 774.835347,309.404350 774.494685,309.526814 C 774.154022,309.649278 773.818336,309.627047 773.487626,309.460121 C 773.103328,309.265115 772.821229,308.934383 772.641329,308.467927 C 772.461428,308.001471 772.384109,307.516684 772.409372,307.013567 C 772.434635,306.510450 772.564775,306.048284 772.799794,305.627069 C 773.034813,305.205855 773.375858,304.942206 773.822929,304.836122 C 774.080148,304.775280 774.336602,304.800631 774.592290,304.912175 C 774.847978,305.023719 775.057734,305.180114 775.221559,305.381361 C 775.223090,305.381361 775.226917,305.386821 775.233042,305.397741 C 775.303471,305.491345 775.318016,305.593918 775.276677,305.705462 C 775.235338,305.817006 775.159550,305.886818 775.049314,305.914899 C 774.931421,305.946100 774.822716,305.910219 774.723196,305.807256 C 774.518033,305.563887 774.320526,305.446883 774.130674,305.456243 C 773.940821,305.465604 773.770873,305.545167 773.620828,305.694932 C 773.470784,305.844697 773.346002,306.036583 773.246483,306.270592 C 773.146963,306.504600 773.085721,306.723787 773.062755,306.928154 C 773.035195,307.155922 773.037875,307.384860 773.070793,307.614968 C 773.103711,307.845076 773.172991,308.061533 773.278635,308.264340 C 773.462363,308.620033 773.693937,308.842730 773.973357,308.932433 C 774.252776,309.022136 774.525689,308.886022 774.792094,308.524089 C 774.804343,308.508489 774.818888,308.488208 774.835730,308.463247 C 774.979650,308.301002 775.131608,308.284231 775.291605,308.412935 C 775.451601,308.541640 775.474950,308.687115 775.361651,308.849360 "/>
        <path style="fill:none;stroke-width:0.280000;stroke-linecap:round;stroke-linejoin:round;stroke-opacity:1;stroke:#339966;" d="M 777.166779,309.270575 L 777.166779,305.465604 L 776.323927,305.465604 C 776.109577,305.448443 776.002785,305.338849 776.003551,305.136822 C 776.004316,304.934796 776.111108,304.824422 776.323927,304.805701 L 778.654975,304.805701 C 778.866263,304.822862 778.972289,304.933235 778.973054,305.136822 C 778.973820,305.340409 778.867794,305.450003 778.654975,305.465604 L 777.814420,305.465604 L 777.814420,309.270575 C 777.779205,309.492103 777.666289,309.601306 777.475671,309.598186 C 777.285054,309.595066 777.182089,309.485862 777.166779,309.270575 "/>
        <path style="fill:none;stroke-width:0.280000;stroke-linecap:round;stroke-linejoin:round;stroke-opacity:1;stroke:#339966;" d="M 780.715944,309.600526 C 780.527623,309.588046 780.418917,309.479622 780.389827,309.275255 L 780.389827,305.137993 C 780.421979,304.913345 780.533747,304.802971 780.725131,304.806871 C 780.916514,304.810771 781.020626,304.921145 781.037468,305.137993 L 781.037468,308.947644 L 783.157230,308.945304 C 783.374641,308.970265 783.482199,309.082198 783.479902,309.281105 C 783.477606,309.480012 783.369283,309.586486 783.154933,309.600526 L 780.715944,309.600526 "/>
        <path style="fill:none;stroke-width:0.280000;stroke-linecap:round;stroke-linejoin:round;stroke-opacity:1;stroke:#339966;" d="M 715.911915,318.242844 L 736.127875,318.242844 C 736.760559,318.242844 737.269895,318.752180 737.269895,319.384864 L 737.269895,339.600825 C 737.269895,340.233498 736.760559,340.742844 736.127875,340.742844 L 715.911915,340.742844 C 715.279230,340.742844 714.769895,340.233498 714.769895,339.600825 L 714.769895,319.384864 C 714.769895,318.752180 715.279230,318.242844 715.911915,318.242844 "/>
        <path style="fill:none;stroke-width:0.280000;stroke-linecap:round;stroke-linejoin:round;stroke-opacity:1;stroke:#339966;" d="M 715.503889,317.764555 L 736.579323,317.764555 C 737.238905,317.764555 737.769895,318.295545 737.769895,318.955128 L 737.769895,340.030561 C 737.769895,340.690132 737.238905,341.221134 736.579323,341.221134 L 715.503889,341.221134 C 714.844306,341.221134 714.313317,340.690132 714.313317,340.030561 L 714.313317,318.955128 C 714.313317,318.295545 714.844306,317.764555 715.503889,317.764555 "/>
        <path style="fill:none;stroke-width:0.280000;stroke-linecap:round;stroke-linejoin:round;stroke-opacity:1;stroke:#339966;" d="M 720.440930,313.181824 L 718.810939,313.181824 L 718.810939,314.277705 L 720.053586,314.277705 C 720.239721,314.305753 720.332461,314.400916 720.331805,314.563195 C 720.331150,314.725474 720.238410,314.819969 720.053586,314.846682 L 718.810939,314.846682 L 718.810939,316.162941 L 720.440930,316.162941 C 720.625754,316.190989 720.718166,316.285151 720.718166,316.445426 C 720.718166,316.605701 720.625754,316.699195 720.440930,316.725907 L 718.537636,316.725907 C 718.373784,316.704537 718.280717,316.609708 718.258433,316.441419 L 718.258433,312.903346 C 718.283339,312.727043 718.376406,312.633549 718.537636,312.622864 L 720.440930,312.622864 C 720.625754,312.637556 720.717839,312.731384 720.717183,312.904347 C 720.716528,313.077311 720.624443,313.169803 720.440930,313.181824 "/>
        <path style="fill:none;stroke-width:0.280000;stroke-linecap:round;stroke-linejoin:round;stroke-opacity:1;stroke:#339966;" d="M 721.543976,316.727911 C 721.382746,316.717226 721.289679,316.624400 721.264774,316.449433 L 721.264774,312.907353 C 721.292301,312.715022 721.387990,312.620527 721.551841,312.623866 C 721.715692,312.627205 721.804827,312.721701 721.819246,312.907353 L 721.819246,316.168951 L 723.634061,316.166948 C 723.820196,316.188318 723.912280,316.284149 723.910314,316.454441 C 723.908347,316.624734 723.815608,316.715890 723.632094,316.727911 L 721.543976,316.727911 "/>
        <path style="fill:none;stroke-width:0.280000;stroke-linecap:round;stroke-linejoin:round;stroke-opacity:1;stroke:#339966;" d="M 726.599110,315.409648 L 726.001382,313.726759 L 725.399720,315.409648 L 726.599110,315.409648 "/>
        <path style="fill:none;stroke-width:0.280000;stroke-linecap:round;stroke-linejoin:round;stroke-opacity:1;stroke:#339966;" d="M 726.001382,313.726759 L 726.599110,315.409648 L 726.001382,313.726759 "/>
        <path style="fill:none;stroke-width:0.280000;stroke-linecap:round;stroke-linejoin:round;stroke-opacity:1;stroke:#339966;" d="M 724.483465,316.339244 C 724.693194,315.750233 724.903251,315.161555 725.113636,314.573212 C 725.324021,313.984869 725.534734,313.396192 725.745774,312.807181 C 725.789031,312.685639 725.874889,312.624200 726.003348,312.622864 C 726.131807,312.621529 726.218320,312.682967 726.262888,312.807181 L 727.523231,316.349261 C 727.562555,316.537584 727.506190,316.659126 727.354136,316.713887 C 727.202083,316.768647 727.084765,316.712551 727.002184,316.545598 L 726.799664,315.972614 L 725.197200,315.972614 L 725.000579,316.531574 C 724.916687,316.699863 724.797404,316.754957 724.642728,316.696858 C 724.488053,316.638758 724.434965,316.519553 724.483465,316.339244 "/>
        <path style="fill:none;stroke-width:0.280000;stroke-linecap:round;stroke-linejoin:round;stroke-opacity:1;stroke:#339966;" d="M 730.443058,316.084807 L 730.425362,316.110852 C 730.421429,316.116194 730.418152,316.120869 730.415531,316.124876 C 730.412909,316.128883 730.410287,316.132889 730.407666,316.136896 C 730.228085,316.383987 729.992467,316.559956 729.700812,316.664803 C 729.409157,316.769649 729.121762,316.750616 728.838628,316.607704 C 728.509614,316.440751 728.268098,316.157599 728.114078,315.758246 C 727.960058,315.358894 727.893862,314.943848 727.915490,314.513109 C 727.937119,314.082370 728.048537,313.686690 728.249747,313.326071 C 728.450956,312.965452 728.742938,312.739732 729.125695,312.648909 C 729.345911,312.596820 729.565471,312.618523 729.784376,312.714021 C 730.003281,312.809518 730.182862,312.943415 730.323119,313.115710 C 730.324429,313.115710 730.327706,313.120385 730.332950,313.129734 C 730.393247,313.209872 730.405700,313.297689 730.370308,313.393187 C 730.334916,313.488684 730.270031,313.548453 730.175653,313.572494 C 730.074720,313.599207 729.981653,313.568487 729.896450,313.480336 C 729.720802,313.271979 729.551708,313.171807 729.389167,313.179820 C 729.226627,313.187834 729.081127,313.255951 728.952668,313.384171 C 728.824209,313.512391 728.717378,313.676673 728.632175,313.877017 C 728.546973,314.077361 728.494540,314.265016 728.474878,314.439983 C 728.451283,314.634985 728.453577,314.830988 728.481760,315.027993 C 728.509942,315.224998 728.569256,315.410316 728.659702,315.583947 C 728.816999,315.888470 729.015259,316.079130 729.254482,316.155929 C 729.493704,316.232727 729.727356,316.116194 729.955437,315.806329 C 729.965923,315.792973 729.978376,315.775609 729.992795,315.754239 C 730.116011,315.615334 730.246109,315.600976 730.383088,315.711166 C 730.520068,315.821355 730.540058,315.945902 730.443058,316.084807 "/>
        <path style="fill:none;stroke-width:0.280000;stroke-linecap:round;stroke-linejoin:round;stroke-opacity:1;stroke:#339966;" d="M 733.149446,312.623709 C 733.555933,312.623709 733.866841,312.712144 734.082170,312.889015 C 734.299700,313.064029 734.408464,313.317234 734.408464,313.648628 L 734.408464,313.656734 C 734.408464,313.811267 734.372217,313.977901 734.299721,314.156635 C 734.227225,314.335361 734.120661,314.515956 733.980027,314.698419 L 732.833053,316.153403 L 734.421667,316.153403 L 734.421667,316.725910 L 731.916833,316.725748 L 731.916833,316.200717 L 733.334055,314.446908 C 733.446115,314.301688 733.531808,314.162053 733.591133,314.028002 C 733.650448,313.892096 733.680106,313.769218 733.680106,313.659369 L 733.680106,313.648560 C 733.680106,313.503341 733.636151,313.392564 733.548242,313.316230 C 733.460333,313.239940 733.332891,313.201796 733.165917,313.201796 C 732.998933,313.201796 732.866001,313.249272 732.767122,313.344223 C 732.668264,313.437319 732.612234,313.573230 732.599032,313.751956 L 732.599032,313.771546 L 731.870641,313.771546 L 731.870641,313.751956 C 731.901361,313.388911 732.027702,313.110573 732.249665,312.916941 C 732.471585,312.721453 732.771512,312.623709 733.149446,312.623709 "/>
        <path style="fill:none;stroke-width:0.280000;stroke-linecap:round;stroke-linejoin:round;stroke-opacity:1;stroke:#339966;" d="M 752.113947,314.536305 L 752.145414,314.550333 L 752.180815,314.568369 L 752.212283,314.586404 C 752.221461,314.593084 752.231622,314.599430 752.242767,314.605442 C 752.253912,314.611454 752.264729,314.617800 752.275218,314.624480 C 752.534826,314.798156 752.695441,315.038631 752.757065,315.345905 C 752.780666,315.466142 752.785911,315.589720 752.772799,315.716637 C 752.751821,315.898329 752.689213,316.066328 752.584977,316.220633 C 752.480741,316.374938 752.349954,316.494173 752.192616,316.578339 C 752.023478,316.669185 751.848439,316.714609 751.667501,316.714609 C 751.363314,316.714609 751.072895,316.674863 750.796242,316.595373 C 750.519590,316.515883 750.322262,316.303129 750.204258,315.957112 C 750.188525,315.913025 750.176724,315.867602 750.168857,315.820843 C 750.160991,315.774084 750.151812,315.727325 750.141323,315.680566 C 750.121656,315.584376 750.144929,315.499542 750.211142,315.426063 C 750.277355,315.352585 750.359630,315.324529 750.457966,315.341897 C 750.561547,315.363272 750.633660,315.428735 750.674305,315.538285 L 750.680206,315.556320 C 750.743141,315.846226 750.852949,316.019235 751.009632,316.075346 C 751.166314,316.131457 751.384292,316.156840 751.663567,316.151496 C 751.920552,316.151496 752.096902,316.028587 752.192616,315.782768 C 752.234573,315.673218 752.241128,315.559326 752.212283,315.441093 C 752.183438,315.322859 752.126403,315.224331 752.041178,315.145509 C 752.003155,315.112110 751.953331,315.080714 751.891707,315.051323 L 750.981114,314.644519 L 750.951613,314.628488 C 750.653983,314.468171 750.469111,314.240388 750.396997,313.945138 C 750.309150,313.603129 750.370447,313.296189 750.580886,313.024319 C 750.791325,312.752448 751.067650,312.616513 751.409860,312.616513 L 751.626199,312.622525 C 751.697001,312.635885 751.765181,312.648910 751.830739,312.661602 C 751.896296,312.674294 751.962509,312.696003 752.029378,312.726731 C 752.194583,312.805553 752.321108,312.913767 752.408955,313.051372 C 752.496802,313.188977 752.576127,313.337938 752.646929,313.498255 C 752.653485,313.512951 752.659385,313.530318 752.664629,313.550358 C 752.679052,313.615820 752.672496,313.675271 752.644962,313.728710 C 752.629228,313.762109 752.612839,313.787493 752.595794,313.804861 C 752.578749,313.822228 752.564982,313.834252 752.554493,313.840932 C 752.486313,313.890363 752.411578,313.905058 752.330286,313.885019 C 752.248995,313.866315 752.186716,313.812876 752.143448,313.724702 C 752.109358,313.647216 752.072973,313.568059 752.034295,313.487233 C 751.995616,313.406407 751.941531,313.339274 751.872040,313.285835 C 751.843195,313.264460 751.815333,313.248762 751.788454,313.238742 C 751.761576,313.228722 751.731747,313.217701 751.698968,313.205677 L 751.571131,313.183633 L 751.390193,313.177621 C 751.214499,313.180293 751.080106,313.257780 750.987014,313.410081 C 750.924079,313.507607 750.900479,313.616488 750.916212,313.736726 C 750.934568,313.885019 751.002748,313.999913 751.120752,314.081407 C 751.125996,314.085415 751.131896,314.089757 751.138452,314.094433 C 751.145008,314.099108 751.152219,314.103450 751.160086,314.107458 L 751.181720,314.117478 L 751.205321,314.127498 L 752.113947,314.536305 "/>
        <path style="fill:none;stroke-width:0.280000;stroke-linecap:round;stroke-linejoin:round;stroke-opacity:1;stroke:#339966;" d="M 755.449510,313.175618 L 753.819096,313.175618 L 753.819096,314.271783 L 755.062065,314.271783 C 755.248248,314.299838 755.341012,314.395026 755.340357,314.557347 C 755.339701,314.719668 755.246937,314.814188 755.062065,314.840907 L 753.819096,314.840907 L 753.819096,316.157508 L 755.449510,316.157508 C 755.634382,316.185563 755.726818,316.279750 755.726818,316.440066 C 755.726818,316.600383 755.634382,316.693901 755.449510,316.720620 L 753.545721,316.720620 C 753.381828,316.699245 753.288736,316.604391 753.266447,316.436058 L 753.266447,312.897067 C 753.291359,312.720719 753.384450,312.627201 753.545721,312.616513 L 755.449510,312.616513 C 755.634382,312.631209 755.726490,312.725061 755.725834,312.898069 C 755.725179,313.071078 755.633071,313.163594 755.449510,313.175618 "/>
        <path style="fill:none;stroke-width:0.280000;stroke-linecap:round;stroke-linejoin:round;stroke-opacity:1;stroke:#339966;" d="M 758.806706,316.079354 L 758.789006,316.105405 C 758.785073,316.110749 758.781795,316.115425 758.779172,316.119433 C 758.776550,316.123441 758.773928,316.127449 758.771305,316.131457 C 758.591678,316.378611 758.355999,316.554626 758.064268,316.659500 C 757.772538,316.764374 757.485068,316.745336 757.201860,316.602387 C 756.872762,316.435390 756.631183,316.152164 756.477123,315.752708 C 756.323063,315.353253 756.256850,314.938099 756.278484,314.507248 C 756.300118,314.076397 756.411565,313.680615 756.612827,313.319903 C 756.814088,312.959190 757.106146,312.733411 757.489002,312.642565 C 757.709275,312.590462 757.928892,312.612171 758.147854,312.707693 C 758.366816,312.803215 758.546443,312.937146 758.686736,313.109487 C 758.688048,313.109487 758.691325,313.114163 758.696570,313.123515 C 758.756883,313.203673 758.769339,313.291513 758.733938,313.387035 C 758.698537,313.482557 758.633635,313.542342 758.539232,313.566389 C 758.438274,313.593109 758.345182,313.562382 758.259957,313.474207 C 758.084263,313.265796 757.915125,313.165598 757.752543,313.173614 C 757.589960,313.181629 757.444423,313.249764 757.315930,313.378017 C 757.187438,313.506271 757.080579,313.670595 756.995354,313.870991 C 756.910130,314.071387 756.857684,314.259091 756.838016,314.434104 C 756.814416,314.629156 756.816710,314.825210 756.844900,315.022265 C 756.873090,315.219321 756.932419,315.404688 757.022888,315.578364 C 757.180226,315.882966 757.378538,316.073676 757.617822,316.150494 C 757.857107,316.227313 758.090819,316.110749 758.318959,315.800803 C 758.329448,315.787444 758.341904,315.770076 758.356327,315.748700 C 758.479575,315.609759 758.609706,315.595398 758.746721,315.705615 C 758.883736,315.815833 758.903732,315.940413 758.806706,316.079354 "/>
        <path style="fill:none;stroke-width:0.280000;stroke-linecap:round;stroke-linejoin:round;stroke-opacity:1;stroke:#339966;" d="M 761.315358,312.619730 C 761.721844,312.619730 762.032752,312.708165 762.248081,312.885036 C 762.465611,313.060050 762.574376,313.313255 762.574376,313.644649 L 762.574376,313.652755 C 762.574376,313.807288 762.538128,313.973922 762.465632,314.152656 C 762.393137,314.331382 762.286572,314.511977 762.145939,314.694440 L 760.998965,316.149424 L 762.587578,316.149424 L 762.587578,316.721931 L 760.082744,316.721769 L 760.082744,316.196738 L 761.499967,314.442929 C 761.612027,314.297709 761.697720,314.158074 761.757045,314.024023 C 761.816360,313.888117 761.846017,313.765239 761.846017,313.655390 L 761.846017,313.644581 C 761.846017,313.499362 761.802062,313.388585 761.714153,313.312250 C 761.626244,313.235961 761.498803,313.197817 761.331829,313.197817 C 761.164844,313.197817 761.031912,313.245292 760.933033,313.340244 C 760.834175,313.433340 760.778145,313.569251 760.764943,313.747977 L 760.764943,313.767567 L 760.036552,313.767567 L 760.036552,313.747977 C 760.067273,313.384932 760.193614,313.106594 760.415576,312.912962 C 760.637496,312.717474 760.937423,312.619730 761.315358,312.619730 "/>
        <path style="fill:none;stroke-width:0.280000;stroke-linecap:round;stroke-linejoin:round;stroke-opacity:1;stroke:#339966;" d="M 822.920497,312.619730 C 823.326983,312.619730 823.637891,312.708165 823.853220,312.885036 C 824.070750,313.060050 824.179515,313.313255 824.179515,313.644649 L 824.179515,313.652755 C 824.179515,313.807288 824.143267,313.973922 824.070771,314.152656 C 823.998275,314.331382 823.891711,314.511977 823.751078,314.694440 L 822.604104,316.149424 L 824.192717,316.149424 L 824.192717,316.721931 L 821.687883,316.721769 L 821.687883,316.196738 L 823.105106,314.442929 C 823.217166,314.297709 823.302858,314.158074 823.362184,314.024023 C 823.421498,313.888117 823.451156,313.765239 823.451156,313.655390 L 823.451156,313.644581 C 823.451156,313.499362 823.407201,313.388585 823.319292,313.312250 C 823.231383,313.235961 823.103942,313.197817 822.936968,313.197817 C 822.769983,313.197817 822.637051,313.245292 822.538172,313.340244 C 822.439314,313.433340 822.383284,313.569251 822.370082,313.747977 L 822.370082,313.767567 L 821.641691,313.767567 L 821.641691,313.747977 C 821.672411,313.384932 821.798753,313.106594 822.020715,312.912962 C 822.242635,312.717474 822.542562,312.619730 822.920497,312.619730 "/>
        <path style="fill:none;stroke-width:0.280000;stroke-linecap:round;stroke-linejoin:round;stroke-opacity:1;stroke:#339966;" d="M 792.213111,312.629017 C 792.589980,312.629017 792.880897,312.712370 793.085863,312.879076 C 793.293025,313.045773 793.396606,313.281165 793.396606,313.585252 L 793.396606,313.854533 C 793.396606,314.012076 793.343722,314.154043 793.237955,314.280435 C 793.132189,314.406836 792.983428,314.506673 792.791672,314.579945 C 793.007652,314.627623 793.175146,314.723795 793.294155,314.868461 C 793.415371,315.013180 793.475979,315.193618 793.475979,315.409775 L 793.475979,315.687311 C 793.475979,316.011542 793.364684,316.262505 793.142094,316.440200 C 792.919493,316.617886 792.607641,316.706729 792.206538,316.706729 L 792.206458,316.706782 C 791.928767,316.706782 791.692951,316.667390 791.499010,316.588605 C 791.307276,316.507960 791.159613,316.387058 791.056022,316.225900 C 790.952494,316.062863 790.892989,315.858612 790.877508,315.613148 L 791.598182,315.613148 C 791.613642,315.794494 791.670945,315.927303 791.770091,316.011573 C 791.869247,316.093991 792.009191,316.135200 792.189922,316.135200 C 792.368446,316.135200 792.507291,316.094877 792.606458,316.014231 C 792.705614,315.931813 792.755192,315.817319 792.755192,315.670748 L 792.755192,315.379493 C 792.755192,315.216456 792.710039,315.090972 792.619732,315.003042 C 792.529425,314.913277 792.402702,314.868395 792.239564,314.868395 L 791.899058,314.868395 L 791.899058,314.305107 L 792.239564,314.305107 C 792.378414,314.305107 792.485301,314.268462 792.560222,314.195172 C 792.637415,314.120110 792.676011,314.013866 792.676011,313.876441 L 792.676011,313.596166 C 792.676011,313.469765 792.634110,313.372676 792.550307,313.304898 C 792.468743,313.235330 792.350837,313.200546 792.196591,313.200546 C 792.044519,313.200546 791.924407,313.242686 791.836254,313.326965 C 791.750318,313.411244 791.696321,313.545882 791.674261,313.730880 L 790.956897,313.730880 C 790.987710,313.359015 791.108926,313.082405 791.320545,312.901050 C 791.532121,312.719695 791.829643,312.629017 792.213111,312.629017 "/>
    </g>
    <g inkscape:groupmode="layer" id="abb0eef1-77ef-465b-b55c-ee9ff62fe786" inkscape:label="_BackPanel" style="stroke:#0000ff;">
        <path style="fill:none;stroke-width:0.280000;stroke-linecap:round;stroke-linejoin:round;stroke-opacity:1;stroke:#0000ff;" d="M 746.086013,317.845923 L 767.181576,317.845923 C 767.750655,317.845923 768.208795,318.304182 768.208795,318.873422 L 768.208795,339.968420 C 768.208795,340.537660 767.750655,340.995919 767.181576,340.995919 L 746.086013,340.995919 C 745.516934,340.995919 745.058795,340.537660 745.058795,339.968420 L 745.058795,318.873422 C 745.058795,318.304182 745.516934,317.845923 746.086013,317.845923 "/>
        <path style="fill:none;stroke-width:0.280000;stroke-linecap:round;stroke-linejoin:round;stroke-opacity:1;stroke:#0000ff;" d="M 699.544502,301.779617 L 699.544502,306.507878 L 699.544502,315.964399 L 699.544502,334.877443 L 699.544502,339.605704 L 699.544502,349.062225 L 844.544502,349.062225 L 844.544502,339.605704 L 844.544502,334.877443 L 844.544502,315.964399 L 844.544502,306.507878 L 844.544502,301.779617 L 699.544502,301.779617 "/>
        <path style="fill:none;stroke-width:0.280000;stroke-linecap:round;stroke-linejoin:round;stroke-opacity:1;stroke:#0000ff;" d="M 703.909332,317.924431 A 2.488170,2.488170 0 0,0 706.397502,315.436261 A 2.488170,2.488170 0 0,0 703.909332,312.948091 A 2.488170,2.488170 0 0,0 701.421162,315.436261 A 2.488170,2.488170 0 0,0 703.909332,317.924431 "/>
        <path style="fill:none;stroke-width:0.280000;stroke-linecap:round;stroke-linejoin:round;stroke-opacity:1;stroke:#0000ff;" d="M 840.180452,337.434251 A 2.488170,2.488170 0 0,0 842.668622,334.946081 A 2.488170,2.488170 0 0,0 840.180452,332.457911 A 2.488170,2.488170 0 0,0 837.692282,334.946081 A 2.488170,2.488170 0 0,0 840.180452,337.434251 "/>
        <path style="fill:none;stroke-width:0.280000;stroke-linecap:round;stroke-linejoin:round;stroke-opacity:1;stroke:#0000ff;" d="M 776.602142,317.846217 L 797.697705,317.846217 C 798.266784,317.846217 798.724923,318.304477 798.724923,318.873716 L 798.724923,339.968715 C 798.724923,340.537954 798.266784,340.996214 797.697705,340.996214 L 776.602142,340.996214 C 776.033063,340.996214 775.574923,340.537954 775.574923,339.968715 L 775.574923,318.873716 C 775.574923,318.304477 776.033063,317.846217 776.602142,317.846217 "/>
        <path style="fill:none;stroke-width:0.280000;stroke-linecap:round;stroke-linejoin:round;stroke-opacity:1;stroke:#0000ff;" d="M 807.384702,317.845923 L 828.480264,317.845923 C 829.049343,317.845923 829.507483,318.304182 829.507483,318.873422 L 829.507483,339.968420 C 829.507483,340.537660 829.049343,340.995919 828.480264,340.995919 L 807.384702,340.995919 C 806.815622,340.995919 806.357483,340.537660 806.357483,339.968420 L 806.357483,318.873422 C 806.357483,318.304182 806.815622,317.845923 807.384702,317.845923 "/>
        <path style="fill:none;stroke-width:0.280000;stroke-linecap:round;stroke-linejoin:round;stroke-opacity:1;stroke:#0000ff;" d="M 715.493824,317.917846 L 736.589387,317.917846 C 737.158466,317.917846 737.616606,318.376106 737.616606,318.945345 L 737.616606,340.040344 C 737.616606,340.609583 737.158466,341.067843 736.589387,341.067843 L 715.493824,341.067843 C 714.924745,341.067843 714.466606,340.609583 714.466606,340.040344 L 714.466606,318.945345 C 714.466606,318.376106 714.924745,317.917846 715.493824,317.917846 "/>
    </g>
    <g inkscape:groupmode="layer" id="351031d5-fbd6-459c-85b6-2a8c7c3aa8e6" inkscape:label="Layer 1" style="stroke:#000000;"/>
    <g inkscape:groupmode="layer" id="be255d8d-e31f-4306-9488-3358e355402e" inkscape:label="Import - a320_legends2.pdf" style="stroke:#000000;"/>
</svg>
