%TF.GenerationSoftware,KiCad,Pcbnew,9.0.2*%
%TF.CreationDate,2025-09-13T21:02:54+02:00*%
%TF.ProjectId,emer-elec-power_gpws_rcdr,656d6572-2d65-46c6-9563-2d706f776572,rev?*%
%TF.SameCoordinates,Original*%
%TF.FileFunction,Copper,L1,Top*%
%TF.FilePolarity,Positive*%
%FSLAX46Y46*%
G04 Gerber Fmt 4.6, Leading zero omitted, Abs format (unit mm)*
G04 Created by KiCad (PCBNEW 9.0.2) date 2025-09-13 21:02:54*
%MOMM*%
%LPD*%
G01*
G04 APERTURE LIST*
G04 Aperture macros list*
%AMRoundRect*
0 Rectangle with rounded corners*
0 $1 Rounding radius*
0 $2 $3 $4 $5 $6 $7 $8 $9 X,Y pos of 4 corners*
0 Add a 4 corners polygon primitive as box body*
4,1,4,$2,$3,$4,$5,$6,$7,$8,$9,$2,$3,0*
0 Add four circle primitives for the rounded corners*
1,1,$1+$1,$2,$3*
1,1,$1+$1,$4,$5*
1,1,$1+$1,$6,$7*
1,1,$1+$1,$8,$9*
0 Add four rect primitives between the rounded corners*
20,1,$1+$1,$2,$3,$4,$5,0*
20,1,$1+$1,$4,$5,$6,$7,0*
20,1,$1+$1,$6,$7,$8,$9,0*
20,1,$1+$1,$8,$9,$2,$3,0*%
G04 Aperture macros list end*
%TA.AperFunction,SMDPad,CuDef*%
%ADD10RoundRect,0.165000X-0.385000X-0.885000X0.385000X-0.885000X0.385000X0.885000X-0.385000X0.885000X0*%
%TD*%
%TA.AperFunction,SMDPad,CuDef*%
%ADD11RoundRect,0.315000X-0.735000X-0.735000X0.735000X-0.735000X0.735000X0.735000X-0.735000X0.735000X0*%
%TD*%
%TA.AperFunction,ComponentPad*%
%ADD12R,1.700000X1.700000*%
%TD*%
%TA.AperFunction,ComponentPad*%
%ADD13C,1.700000*%
%TD*%
%TA.AperFunction,SMDPad,CuDef*%
%ADD14RoundRect,0.250000X-0.400000X-0.625000X0.400000X-0.625000X0.400000X0.625000X-0.400000X0.625000X0*%
%TD*%
%TA.AperFunction,ComponentPad*%
%ADD15R,1.500000X1.500000*%
%TD*%
%TA.AperFunction,SMDPad,CuDef*%
%ADD16RoundRect,0.165000X0.885000X-0.385000X0.885000X0.385000X-0.885000X0.385000X-0.885000X-0.385000X0*%
%TD*%
%TA.AperFunction,SMDPad,CuDef*%
%ADD17RoundRect,0.315000X0.735000X-0.735000X0.735000X0.735000X-0.735000X0.735000X-0.735000X-0.735000X0*%
%TD*%
%TA.AperFunction,ComponentPad*%
%ADD18R,3.000000X3.000000*%
%TD*%
%TA.AperFunction,ComponentPad*%
%ADD19C,3.000000*%
%TD*%
%TA.AperFunction,ViaPad*%
%ADD20C,0.600000*%
%TD*%
%TA.AperFunction,Conductor*%
%ADD21C,0.200000*%
%TD*%
%TA.AperFunction,Conductor*%
%ADD22C,0.600000*%
%TD*%
G04 APERTURE END LIST*
D10*
%TO.P,D29,1,K*%
%TO.N,Net-(D29-K)*%
X174250000Y-97200000D03*
D11*
%TO.P,D29,2,A*%
%TO.N,+12V*%
X176400000Y-97200000D03*
%TD*%
D10*
%TO.P,D43,1,K*%
%TO.N,Net-(D43-K)*%
X113160000Y-152300000D03*
D11*
%TO.P,D43,2,A*%
%TO.N,Net-(D42-K)*%
X115310000Y-152300000D03*
%TD*%
D10*
%TO.P,D52,1,K*%
%TO.N,Net-(D52-K)*%
X210060000Y-73600000D03*
D11*
%TO.P,D52,2,A*%
%TO.N,Net-(D51-K)*%
X212210000Y-73600000D03*
%TD*%
D10*
%TO.P,D27,1,K*%
%TO.N,Net-(D27-K)*%
X116850000Y-97300000D03*
D11*
%TO.P,D27,2,A*%
%TO.N,Net-(D26-K)*%
X119000000Y-97300000D03*
%TD*%
D10*
%TO.P,D1,1,K*%
%TO.N,Net-(D1-K)*%
X87550000Y-41850000D03*
D11*
%TO.P,D1,2,A*%
%TO.N,+12V*%
X89700000Y-41850000D03*
%TD*%
D10*
%TO.P,D22,1,K*%
%TO.N,Net-(D22-K)*%
X100860000Y-88600000D03*
D11*
%TO.P,D22,2,A*%
%TO.N,+12V*%
X103010000Y-88600000D03*
%TD*%
D12*
%TO.P,J5,1,Pin_1*%
%TO.N,GND*%
X161525000Y-144800000D03*
D13*
%TO.P,J5,2,Pin_2*%
%TO.N,Net-(J2-Pin_26)*%
X164065000Y-144800000D03*
%TD*%
D10*
%TO.P,D24,1,K*%
%TO.N,Net-(D24-K)*%
X159160000Y-89700000D03*
D11*
%TO.P,D24,2,A*%
%TO.N,Net-(D23-K)*%
X161310000Y-89700000D03*
%TD*%
D10*
%TO.P,D36,1,K*%
%TO.N,Net-(D36-K)*%
X160860000Y-107100000D03*
D11*
%TO.P,D36,2,A*%
%TO.N,Net-(D35-K)*%
X163010000Y-107100000D03*
%TD*%
D10*
%TO.P,D18,1,K*%
%TO.N,Net-(D18-K)*%
X166800000Y-80900000D03*
D11*
%TO.P,D18,2,A*%
%TO.N,Net-(D17-K)*%
X168950000Y-80900000D03*
%TD*%
D14*
%TO.P,R14,1*%
%TO.N,Net-(D40-K)*%
X208300000Y-122200000D03*
%TO.P,R14,2*%
%TO.N,GND*%
X211400000Y-122200000D03*
%TD*%
D10*
%TO.P,D13,1,K*%
%TO.N,Net-(D13-K)*%
X116560000Y-81000000D03*
D11*
%TO.P,D13,2,A*%
%TO.N,+12V*%
X118710000Y-81000000D03*
%TD*%
D10*
%TO.P,D8,1,K*%
%TO.N,Net-(D8-K)*%
X144660000Y-51800000D03*
D11*
%TO.P,D8,2,A*%
%TO.N,Net-(D7-K)*%
X146810000Y-51800000D03*
%TD*%
D10*
%TO.P,D51,1,K*%
%TO.N,Net-(D51-K)*%
X129760000Y-154500000D03*
D11*
%TO.P,D51,2,A*%
%TO.N,Net-(D50-K)*%
X131910000Y-154500000D03*
%TD*%
D10*
%TO.P,D2,1,K*%
%TO.N,Net-(D2-K)*%
X80075000Y-54400000D03*
D11*
%TO.P,D2,2,A*%
%TO.N,Net-(D1-K)*%
X82225000Y-54400000D03*
%TD*%
D10*
%TO.P,D5,1,K*%
%TO.N,Net-(D5-K)*%
X104610000Y-42050000D03*
D11*
%TO.P,D5,2,A*%
%TO.N,Net-(D4-K)*%
X106760000Y-42050000D03*
%TD*%
D10*
%TO.P,D20,1,K*%
%TO.N,Net-(D20-K)*%
X199460000Y-81100000D03*
D11*
%TO.P,D20,2,A*%
%TO.N,Net-(D19-K)*%
X201610000Y-81100000D03*
%TD*%
D14*
%TO.P,R15,1*%
%TO.N,Net-(D43-K)*%
X105400000Y-152100000D03*
%TO.P,R15,2*%
%TO.N,GND*%
X108500000Y-152100000D03*
%TD*%
D10*
%TO.P,D46,1,K*%
%TO.N,Net-(D46-K)*%
X209250000Y-137000000D03*
D11*
%TO.P,D46,2,A*%
%TO.N,Net-(D45-K)*%
X211400000Y-137000000D03*
%TD*%
D10*
%TO.P,D11,1,K*%
%TO.N,Net-(D11-K)*%
X173560000Y-40800000D03*
D11*
%TO.P,D11,2,A*%
%TO.N,Net-(D10-K)*%
X175710000Y-40800000D03*
%TD*%
D15*
%TO.P,KR5,1,+5V_TOP_LED*%
%TO.N,Net-(J2-Pin_7)*%
X156400000Y-99100000D03*
%TO.P,KR5,2,GND_TOP_LED*%
%TO.N,GND*%
X156400000Y-101640000D03*
%TO.P,KR5,3,+5V_BOTTOM_LED*%
%TO.N,Net-(J2-Pin_8)*%
X156400000Y-104180000D03*
%TO.P,KR5,4,GND_BOTTOM_LED*%
%TO.N,GND*%
X156400000Y-106720000D03*
%TO.P,KR5,5,SW_IN*%
%TO.N,Net-(J2-Pin_9)*%
X140700000Y-103600000D03*
%TO.P,KR5,6,SW_OUT*%
%TO.N,GND*%
X140700000Y-106140000D03*
%TD*%
D14*
%TO.P,R1,1*%
%TO.N,Net-(D3-K)*%
X95050000Y-81400000D03*
%TO.P,R1,2*%
%TO.N,GND*%
X98150000Y-81400000D03*
%TD*%
%TO.P,R2,1*%
%TO.N,Net-(D6-K)*%
X135550000Y-41400000D03*
%TO.P,R2,2*%
%TO.N,GND*%
X138650000Y-41400000D03*
%TD*%
D10*
%TO.P,D3,1,K*%
%TO.N,Net-(D3-K)*%
X80075000Y-72650000D03*
D11*
%TO.P,D3,2,A*%
%TO.N,Net-(D2-K)*%
X82225000Y-72650000D03*
%TD*%
D10*
%TO.P,D38,1,K*%
%TO.N,Net-(D38-K)*%
X202350000Y-122600000D03*
D11*
%TO.P,D38,2,A*%
%TO.N,+12V*%
X204500000Y-122600000D03*
%TD*%
D14*
%TO.P,R3,1*%
%TO.N,Net-(D9-K)*%
X144550000Y-64300000D03*
%TO.P,R3,2*%
%TO.N,GND*%
X147650000Y-64300000D03*
%TD*%
D10*
%TO.P,D21,1,K*%
%TO.N,Net-(D21-K)*%
X208275000Y-47050000D03*
D11*
%TO.P,D21,2,A*%
%TO.N,Net-(D20-K)*%
X210425000Y-47050000D03*
%TD*%
D15*
%TO.P,KR6,1,+5V_TOP_LED*%
%TO.N,Net-(J2-Pin_16)*%
X182700000Y-99300000D03*
%TO.P,KR6,2,GND_TOP_LED*%
%TO.N,GND*%
X182700000Y-101840000D03*
%TO.P,KR6,3,+5V_BOTTOM_LED*%
%TO.N,Net-(J2-Pin_17)*%
X182700000Y-104380000D03*
%TO.P,KR6,4,GND_BOTTOM_LED*%
%TO.N,GND*%
X182700000Y-106920000D03*
%TO.P,KR6,5,SW_IN*%
%TO.N,Net-(J2-Pin_18)*%
X167000000Y-103800000D03*
%TO.P,KR6,6,SW_OUT*%
%TO.N,GND*%
X167000000Y-106340000D03*
%TD*%
D10*
%TO.P,D23,1,K*%
%TO.N,Net-(D23-K)*%
X132350000Y-89700000D03*
D11*
%TO.P,D23,2,A*%
%TO.N,+12V*%
X134500000Y-89700000D03*
%TD*%
D10*
%TO.P,D49,1,K*%
%TO.N,Net-(D49-K)*%
X148360000Y-156000000D03*
D11*
%TO.P,D49,2,A*%
%TO.N,Net-(D48-K)*%
X150510000Y-156000000D03*
%TD*%
D14*
%TO.P,R6,1*%
%TO.N,Net-(D18-K)*%
X188200000Y-81900000D03*
%TO.P,R6,2*%
%TO.N,GND*%
X191300000Y-81900000D03*
%TD*%
D10*
%TO.P,D7,1,K*%
%TO.N,Net-(D7-K)*%
X147360000Y-41400000D03*
D11*
%TO.P,D7,2,A*%
%TO.N,+12V*%
X149510000Y-41400000D03*
%TD*%
D10*
%TO.P,D19,1,K*%
%TO.N,Net-(D19-K)*%
X80150000Y-81700000D03*
D11*
%TO.P,D19,2,A*%
%TO.N,+12V*%
X82300000Y-81700000D03*
%TD*%
D14*
%TO.P,R17,1*%
%TO.N,Net-(D49-K)*%
X171300000Y-155800000D03*
%TO.P,R17,2*%
%TO.N,GND*%
X174400000Y-155800000D03*
%TD*%
D10*
%TO.P,D25,1,K*%
%TO.N,Net-(D25-K)*%
X186860000Y-89200000D03*
D11*
%TO.P,D25,2,A*%
%TO.N,Net-(D24-K)*%
X189010000Y-89200000D03*
%TD*%
D10*
%TO.P,D10,1,K*%
%TO.N,Net-(D10-K)*%
X139610000Y-81700000D03*
D11*
%TO.P,D10,2,A*%
%TO.N,+12V*%
X141760000Y-81700000D03*
%TD*%
D15*
%TO.P,KR4,1,+5V_TOP_LED*%
%TO.N,Net-(J2-Pin_13)*%
X125700000Y-99300000D03*
%TO.P,KR4,2,GND_TOP_LED*%
%TO.N,GND*%
X125700000Y-101840000D03*
%TO.P,KR4,3,+5V_BOTTOM_LED*%
%TO.N,Net-(J2-Pin_14)*%
X125700000Y-104380000D03*
%TO.P,KR4,4,GND_BOTTOM_LED*%
%TO.N,GND*%
X125700000Y-106920000D03*
%TO.P,KR4,5,SW_IN*%
%TO.N,Net-(J2-Pin_15)*%
X110000000Y-103800000D03*
%TO.P,KR4,6,SW_OUT*%
%TO.N,GND*%
X110000000Y-106340000D03*
%TD*%
D10*
%TO.P,D42,1,K*%
%TO.N,Net-(D42-K)*%
X113160000Y-132700000D03*
D11*
%TO.P,D42,2,A*%
%TO.N,Net-(D41-K)*%
X115310000Y-132700000D03*
%TD*%
D10*
%TO.P,D40,1,K*%
%TO.N,Net-(D40-K)*%
X213560000Y-106600000D03*
D11*
%TO.P,D40,2,A*%
%TO.N,Net-(D39-K)*%
X215710000Y-106600000D03*
%TD*%
D14*
%TO.P,R18,1*%
%TO.N,Net-(D52-K)*%
X209600000Y-81800000D03*
%TO.P,R18,2*%
%TO.N,GND*%
X212700000Y-81800000D03*
%TD*%
%TO.P,R12,1*%
%TO.N,Net-(D34-K)*%
X132800000Y-122200000D03*
%TO.P,R12,2*%
%TO.N,GND*%
X135900000Y-122200000D03*
%TD*%
D10*
%TO.P,D33,1,K*%
%TO.N,Net-(D33-K)*%
X103460000Y-104700000D03*
D11*
%TO.P,D33,2,A*%
%TO.N,Net-(D32-K)*%
X105610000Y-104700000D03*
%TD*%
D14*
%TO.P,R4,1*%
%TO.N,Net-(D12-K)*%
X112950000Y-45300000D03*
%TO.P,R4,2*%
%TO.N,GND*%
X116050000Y-45300000D03*
%TD*%
%TO.P,R9,1*%
%TO.N,Net-(D25-K)*%
X178500000Y-80700000D03*
%TO.P,R9,2*%
%TO.N,GND*%
X181600000Y-80700000D03*
%TD*%
%TO.P,R8,1*%
%TO.N,Net-(D22-K)*%
X106200000Y-82200000D03*
%TO.P,R8,2*%
%TO.N,GND*%
X109300000Y-82200000D03*
%TD*%
D15*
%TO.P,KR8,1,+5V_TOP_LED*%
%TO.N,Net-(J2-Pin_22)*%
X137500000Y-139400000D03*
%TO.P,KR8,2,GND_TOP_LED*%
%TO.N,unconnected-(KR8-GND_TOP_LED-Pad2)*%
X137500000Y-141940000D03*
%TO.P,KR8,3,+5V_BOTTOM_LED*%
%TO.N,Net-(J2-Pin_23)*%
X137500000Y-144480000D03*
%TO.P,KR8,4,GND_BOTTOM_LED*%
%TO.N,unconnected-(KR8-GND_BOTTOM_LED-Pad4)*%
X137500000Y-147020000D03*
%TO.P,KR8,5,SW_IN*%
%TO.N,Net-(J2-Pin_24)*%
X121800000Y-143900000D03*
%TO.P,KR8,6,SW_OUT*%
%TO.N,unconnected-(KR8-SW_OUT-Pad6)*%
X121800000Y-146440000D03*
%TD*%
D10*
%TO.P,D12,1,K*%
%TO.N,Net-(D12-K)*%
X113360000Y-36300000D03*
D11*
%TO.P,D12,2,A*%
%TO.N,Net-(D11-K)*%
X115510000Y-36300000D03*
%TD*%
D16*
%TO.P,D4,1,K*%
%TO.N,Net-(D4-K)*%
X110450000Y-62500000D03*
D17*
%TO.P,D4,2,A*%
%TO.N,+12V*%
X110450000Y-60350000D03*
%TD*%
D10*
%TO.P,D14,1,K*%
%TO.N,Net-(D14-K)*%
X177750000Y-54700000D03*
D11*
%TO.P,D14,2,A*%
%TO.N,Net-(D13-K)*%
X179900000Y-54700000D03*
%TD*%
D14*
%TO.P,R13,1*%
%TO.N,Net-(D37-K)*%
X184500000Y-122500000D03*
%TO.P,R13,2*%
%TO.N,GND*%
X187600000Y-122500000D03*
%TD*%
D15*
%TO.P,KR10,1,+5V_TOP_LED*%
%TO.N,unconnected-(KR10-+5V_TOP_LED-Pad1)*%
X203375000Y-57775000D03*
%TO.P,KR10,2,GND_TOP_LED*%
%TO.N,unconnected-(KR10-GND_TOP_LED-Pad2)*%
X203375000Y-60315000D03*
%TO.P,KR10,3,+5V_BOTTOM_LED*%
%TO.N,unconnected-(KR10-+5V_BOTTOM_LED-Pad3)*%
X203375000Y-62855000D03*
%TO.P,KR10,4,GND_BOTTOM_LED*%
%TO.N,unconnected-(KR10-GND_BOTTOM_LED-Pad4)*%
X203375000Y-65395000D03*
%TO.P,KR10,5,SW_IN*%
%TO.N,Net-(J2-Pin_27)*%
X187675000Y-62275000D03*
%TO.P,KR10,6,SW_OUT*%
%TO.N,GND*%
X187675000Y-64815000D03*
%TD*%
%TO.P,KR7,1,+5V_TOP_LED*%
%TO.N,Net-(J2-Pin_19)*%
X209100000Y-99300000D03*
%TO.P,KR7,2,GND_TOP_LED*%
%TO.N,unconnected-(KR7-GND_TOP_LED-Pad2)*%
X209100000Y-101840000D03*
%TO.P,KR7,3,+5V_BOTTOM_LED*%
%TO.N,Net-(J2-Pin_20)*%
X209100000Y-104380000D03*
%TO.P,KR7,4,GND_BOTTOM_LED*%
%TO.N,unconnected-(KR7-GND_BOTTOM_LED-Pad4)*%
X209100000Y-106920000D03*
%TO.P,KR7,5,SW_IN*%
%TO.N,Net-(J2-Pin_21)*%
X193400000Y-103800000D03*
%TO.P,KR7,6,SW_OUT*%
%TO.N,unconnected-(KR7-SW_OUT-Pad6)*%
X193400000Y-106340000D03*
%TD*%
D14*
%TO.P,R11,1*%
%TO.N,Net-(D31-K)*%
X98900000Y-122300000D03*
%TO.P,R11,2*%
%TO.N,GND*%
X102000000Y-122300000D03*
%TD*%
D15*
%TO.P,KR3,1,+5V_TOP_LED*%
%TO.N,Net-(J2-Pin_4)*%
X98750000Y-99250000D03*
%TO.P,KR3,2,GND_TOP_LED*%
%TO.N,GND*%
X98750000Y-101790000D03*
%TO.P,KR3,3,+5V_BOTTOM_LED*%
%TO.N,Net-(J2-Pin_5)*%
X98750000Y-104330000D03*
%TO.P,KR3,4,GND_BOTTOM_LED*%
%TO.N,GND*%
X98750000Y-106870000D03*
%TO.P,KR3,5,SW_IN*%
%TO.N,Net-(J2-Pin_6)*%
X83050000Y-103750000D03*
%TO.P,KR3,6,SW_OUT*%
%TO.N,GND*%
X83050000Y-106290000D03*
%TD*%
D10*
%TO.P,D9,1,K*%
%TO.N,Net-(D9-K)*%
X144660000Y-73500000D03*
D11*
%TO.P,D9,2,A*%
%TO.N,Net-(D8-K)*%
X146810000Y-73500000D03*
%TD*%
D10*
%TO.P,D39,1,K*%
%TO.N,Net-(D39-K)*%
X187060000Y-106200000D03*
D11*
%TO.P,D39,2,A*%
%TO.N,Net-(D38-K)*%
X189210000Y-106200000D03*
%TD*%
D10*
%TO.P,D15,1,K*%
%TO.N,Net-(D15-K)*%
X177450000Y-73800000D03*
D11*
%TO.P,D15,2,A*%
%TO.N,Net-(D14-K)*%
X179600000Y-73800000D03*
%TD*%
D10*
%TO.P,D50,1,K*%
%TO.N,Net-(D50-K)*%
X82000000Y-157100000D03*
D11*
%TO.P,D50,2,A*%
%TO.N,+12V*%
X84150000Y-157100000D03*
%TD*%
D10*
%TO.P,D35,1,K*%
%TO.N,Net-(D35-K)*%
X132150000Y-105800000D03*
D11*
%TO.P,D35,2,A*%
%TO.N,+12V*%
X134300000Y-105800000D03*
%TD*%
D10*
%TO.P,D48,1,K*%
%TO.N,Net-(D48-K)*%
X178700000Y-155800000D03*
D11*
%TO.P,D48,2,A*%
%TO.N,Net-(D47-K)*%
X180850000Y-155800000D03*
%TD*%
D10*
%TO.P,D28,1,K*%
%TO.N,Net-(D28-K)*%
X147560000Y-97000000D03*
D11*
%TO.P,D28,2,A*%
%TO.N,Net-(D27-K)*%
X149710000Y-97000000D03*
%TD*%
D15*
%TO.P,KR2,1,+5V_TOP_LED*%
%TO.N,Net-(J2-Pin_10)*%
X170500000Y-58200000D03*
%TO.P,KR2,2,GND_TOP_LED*%
%TO.N,GND*%
X170500000Y-60740000D03*
%TO.P,KR2,3,+5V_BOTTOM_LED*%
%TO.N,Net-(J2-Pin_11)*%
X170500000Y-63280000D03*
%TO.P,KR2,4,GND_BOTTOM_LED*%
%TO.N,GND*%
X170500000Y-65820000D03*
%TO.P,KR2,5,SW_IN*%
%TO.N,Net-(J2-Pin_12)*%
X154800000Y-62700000D03*
%TO.P,KR2,6,SW_OUT*%
%TO.N,GND*%
X154800000Y-65240000D03*
%TD*%
D10*
%TO.P,D44,1,K*%
%TO.N,Net-(D44-K)*%
X145960000Y-134900000D03*
D11*
%TO.P,D44,2,A*%
%TO.N,+12V*%
X148110000Y-134900000D03*
%TD*%
D10*
%TO.P,D34,1,K*%
%TO.N,Net-(D34-K)*%
X147750000Y-122600000D03*
D11*
%TO.P,D34,2,A*%
%TO.N,Net-(D33-K)*%
X149900000Y-122600000D03*
%TD*%
D10*
%TO.P,D26,1,K*%
%TO.N,Net-(D26-K)*%
X88960000Y-97200000D03*
D11*
%TO.P,D26,2,A*%
%TO.N,+12V*%
X91110000Y-97200000D03*
%TD*%
D10*
%TO.P,D37,1,K*%
%TO.N,Net-(D37-K)*%
X175450000Y-122700000D03*
D11*
%TO.P,D37,2,A*%
%TO.N,Net-(D36-K)*%
X177600000Y-122700000D03*
%TD*%
D15*
%TO.P,KR1,1,+5V_TOP_LED*%
%TO.N,Net-(J2-Pin_1)*%
X137500000Y-58200000D03*
%TO.P,KR1,2,GND_TOP_LED*%
%TO.N,GND*%
X137500000Y-60740000D03*
%TO.P,KR1,3,+5V_BOTTOM_LED*%
%TO.N,Net-(J2-Pin_2)*%
X137500000Y-63280000D03*
%TO.P,KR1,4,GND_BOTTOM_LED*%
%TO.N,GND*%
X137500000Y-65820000D03*
%TO.P,KR1,5,SW_IN*%
%TO.N,Net-(J2-Pin_3)*%
X121800000Y-62700000D03*
%TO.P,KR1,6,SW_OUT*%
%TO.N,GND*%
X121800000Y-65240000D03*
%TD*%
D10*
%TO.P,D32,1,K*%
%TO.N,Net-(D32-K)*%
X116650000Y-122600000D03*
D11*
%TO.P,D32,2,A*%
%TO.N,+12V*%
X118800000Y-122600000D03*
%TD*%
D14*
%TO.P,R16,1*%
%TO.N,Net-(D46-K)*%
X209600000Y-146200000D03*
%TO.P,R16,2*%
%TO.N,GND*%
X212700000Y-146200000D03*
%TD*%
%TO.P,R10,1*%
%TO.N,Net-(D28-K)*%
X131800000Y-96400000D03*
%TO.P,R10,2*%
%TO.N,GND*%
X134900000Y-96400000D03*
%TD*%
D10*
%TO.P,D17,1,K*%
%TO.N,Net-(D17-K)*%
X213335000Y-60375000D03*
D11*
%TO.P,D17,2,A*%
%TO.N,Net-(D16-K)*%
X215485000Y-60375000D03*
%TD*%
D12*
%TO.P,J6,1,Pin_1*%
%TO.N,GND*%
X194100000Y-144900000D03*
D13*
%TO.P,J6,2,Pin_2*%
%TO.N,Net-(J2-Pin_28)*%
X196640000Y-144900000D03*
%TD*%
D10*
%TO.P,D6,1,K*%
%TO.N,Net-(D6-K)*%
X124360000Y-41400000D03*
D11*
%TO.P,D6,2,A*%
%TO.N,Net-(D5-K)*%
X126510000Y-41400000D03*
%TD*%
D10*
%TO.P,D16,1,K*%
%TO.N,Net-(D16-K)*%
X193635000Y-41900000D03*
D11*
%TO.P,D16,2,A*%
%TO.N,+12V*%
X195785000Y-41900000D03*
%TD*%
D14*
%TO.P,R5,1*%
%TO.N,Net-(D15-K)*%
X177350000Y-64600000D03*
%TO.P,R5,2*%
%TO.N,GND*%
X180450000Y-64600000D03*
%TD*%
D10*
%TO.P,D30,1,K*%
%TO.N,Net-(D30-K)*%
X200160000Y-97400000D03*
D11*
%TO.P,D30,2,A*%
%TO.N,Net-(D29-K)*%
X202310000Y-97400000D03*
%TD*%
D16*
%TO.P,D41,1,K*%
%TO.N,Net-(D41-K)*%
X77575000Y-107350000D03*
D17*
%TO.P,D41,2,A*%
%TO.N,+12V*%
X77575000Y-105200000D03*
%TD*%
D10*
%TO.P,D31,1,K*%
%TO.N,Net-(D31-K)*%
X89150000Y-122700000D03*
D11*
%TO.P,D31,2,A*%
%TO.N,Net-(D30-K)*%
X91300000Y-122700000D03*
%TD*%
D15*
%TO.P,KR9,1,+5V_TOP_LED*%
%TO.N,unconnected-(KR9-+5V_TOP_LED-Pad1)*%
X104250000Y-58000000D03*
%TO.P,KR9,2,GND_TOP_LED*%
%TO.N,unconnected-(KR9-GND_TOP_LED-Pad2)*%
X104250000Y-60540000D03*
%TO.P,KR9,3,+5V_BOTTOM_LED*%
%TO.N,unconnected-(KR9-+5V_BOTTOM_LED-Pad3)*%
X104250000Y-63080000D03*
%TO.P,KR9,4,GND_BOTTOM_LED*%
%TO.N,unconnected-(KR9-GND_BOTTOM_LED-Pad4)*%
X104250000Y-65620000D03*
%TO.P,KR9,5,SW_IN*%
%TO.N,Net-(J2-Pin_25)*%
X88550000Y-62500000D03*
%TO.P,KR9,6,SW_OUT*%
%TO.N,GND*%
X88550000Y-65040000D03*
%TD*%
D10*
%TO.P,D45,1,K*%
%TO.N,Net-(D45-K)*%
X178960000Y-136700000D03*
D11*
%TO.P,D45,2,A*%
%TO.N,Net-(D44-K)*%
X181110000Y-136700000D03*
%TD*%
D10*
%TO.P,D47,1,K*%
%TO.N,Net-(D47-K)*%
X208160000Y-155300000D03*
D11*
%TO.P,D47,2,A*%
%TO.N,+12V*%
X210310000Y-155300000D03*
%TD*%
D14*
%TO.P,R7,1*%
%TO.N,Net-(D21-K)*%
X154550000Y-81600000D03*
%TO.P,R7,2*%
%TO.N,GND*%
X157650000Y-81600000D03*
%TD*%
D12*
%TO.P,J2,1,Pin_1*%
%TO.N,Net-(J2-Pin_1)*%
X213220000Y-35200000D03*
D13*
%TO.P,J2,2,Pin_2*%
%TO.N,Net-(J2-Pin_2)*%
X213220000Y-32660000D03*
%TO.P,J2,3,Pin_3*%
%TO.N,Net-(J2-Pin_3)*%
X210680000Y-35200000D03*
%TO.P,J2,4,Pin_4*%
%TO.N,Net-(J2-Pin_4)*%
X210680000Y-32660000D03*
%TO.P,J2,5,Pin_5*%
%TO.N,Net-(J2-Pin_5)*%
X208140000Y-35200000D03*
%TO.P,J2,6,Pin_6*%
%TO.N,Net-(J2-Pin_6)*%
X208140000Y-32660000D03*
%TO.P,J2,7,Pin_7*%
%TO.N,Net-(J2-Pin_7)*%
X205600000Y-35200000D03*
%TO.P,J2,8,Pin_8*%
%TO.N,Net-(J2-Pin_8)*%
X205600000Y-32660000D03*
%TO.P,J2,9,Pin_9*%
%TO.N,Net-(J2-Pin_9)*%
X203060000Y-35200000D03*
%TO.P,J2,10,Pin_10*%
%TO.N,Net-(J2-Pin_10)*%
X203060000Y-32660000D03*
%TO.P,J2,11,Pin_11*%
%TO.N,Net-(J2-Pin_11)*%
X200520000Y-35200000D03*
%TO.P,J2,12,Pin_12*%
%TO.N,Net-(J2-Pin_12)*%
X200520000Y-32660000D03*
%TO.P,J2,13,Pin_13*%
%TO.N,Net-(J2-Pin_13)*%
X197980000Y-35200000D03*
%TO.P,J2,14,Pin_14*%
%TO.N,Net-(J2-Pin_14)*%
X197980000Y-32660000D03*
%TO.P,J2,15,Pin_15*%
%TO.N,Net-(J2-Pin_15)*%
X195440000Y-35200000D03*
%TO.P,J2,16,Pin_16*%
%TO.N,Net-(J2-Pin_16)*%
X195440000Y-32660000D03*
%TO.P,J2,17,Pin_17*%
%TO.N,Net-(J2-Pin_17)*%
X192900000Y-35200000D03*
%TO.P,J2,18,Pin_18*%
%TO.N,Net-(J2-Pin_18)*%
X192900000Y-32660000D03*
%TO.P,J2,19,Pin_19*%
%TO.N,Net-(J2-Pin_19)*%
X190360000Y-35200000D03*
%TO.P,J2,20,Pin_20*%
%TO.N,Net-(J2-Pin_20)*%
X190360000Y-32660000D03*
%TO.P,J2,21,Pin_21*%
%TO.N,Net-(J2-Pin_21)*%
X187820000Y-35200000D03*
%TO.P,J2,22,Pin_22*%
%TO.N,Net-(J2-Pin_22)*%
X187820000Y-32660000D03*
%TO.P,J2,23,Pin_23*%
%TO.N,Net-(J2-Pin_23)*%
X185280000Y-35200000D03*
%TO.P,J2,24,Pin_24*%
%TO.N,Net-(J2-Pin_24)*%
X185280000Y-32660000D03*
%TO.P,J2,25,Pin_25*%
%TO.N,Net-(J2-Pin_25)*%
X182740000Y-35200000D03*
%TO.P,J2,26,Pin_26*%
%TO.N,Net-(J2-Pin_26)*%
X182740000Y-32660000D03*
%TO.P,J2,27,Pin_27*%
%TO.N,Net-(J2-Pin_27)*%
X180200000Y-35200000D03*
%TO.P,J2,28,Pin_28*%
%TO.N,Net-(J2-Pin_28)*%
X180200000Y-32660000D03*
%TO.P,J2,29,Pin_29*%
%TO.N,unconnected-(J2-Pin_29-Pad29)*%
X177660000Y-35200000D03*
%TO.P,J2,30,Pin_30*%
%TO.N,unconnected-(J2-Pin_30-Pad30)*%
X177660000Y-32660000D03*
%TO.P,J2,31,Pin_31*%
%TO.N,unconnected-(J2-Pin_31-Pad31)*%
X175120000Y-35200000D03*
%TO.P,J2,32,Pin_32*%
%TO.N,unconnected-(J2-Pin_32-Pad32)*%
X175120000Y-32660000D03*
%TO.P,J2,33,Pin_33*%
%TO.N,unconnected-(J2-Pin_33-Pad33)*%
X172580000Y-35200000D03*
%TO.P,J2,34,Pin_34*%
%TO.N,unconnected-(J2-Pin_34-Pad34)*%
X172580000Y-32660000D03*
%TO.P,J2,35,Pin_35*%
%TO.N,unconnected-(J2-Pin_35-Pad35)*%
X170040000Y-35200000D03*
%TO.P,J2,36,Pin_36*%
%TO.N,unconnected-(J2-Pin_36-Pad36)*%
X170040000Y-32660000D03*
%TO.P,J2,37,Pin_37*%
%TO.N,unconnected-(J2-Pin_37-Pad37)*%
X167500000Y-35200000D03*
%TO.P,J2,38,Pin_38*%
%TO.N,unconnected-(J2-Pin_38-Pad38)*%
X167500000Y-32660000D03*
%TO.P,J2,39,Pin_39*%
%TO.N,unconnected-(J2-Pin_39-Pad39)*%
X164960000Y-35200000D03*
%TO.P,J2,40,Pin_40*%
%TO.N,unconnected-(J2-Pin_40-Pad40)*%
X164960000Y-32660000D03*
%TD*%
D18*
%TO.P,J1,1,Pin_1*%
%TO.N,GND*%
X87660000Y-31800000D03*
D19*
%TO.P,J1,2,Pin_2*%
%TO.N,+12V*%
X92740000Y-31800000D03*
%TD*%
D18*
%TO.P,J7,1,Pin_1*%
%TO.N,GND*%
X96200000Y-157650000D03*
D19*
%TO.P,J7,2,Pin_2*%
%TO.N,+12V*%
X91120000Y-157650000D03*
%TD*%
D20*
%TO.N,+12V*%
X93402200Y-97302300D03*
X202803600Y-151270000D03*
X143537600Y-104851700D03*
X199803700Y-127393400D03*
X106064200Y-88600000D03*
X143049900Y-129905600D03*
X143602300Y-99585800D03*
X108757300Y-61040900D03*
X143602300Y-90568600D03*
X91120000Y-105635000D03*
%TO.N,Net-(D4-K)*%
X108635400Y-41290100D03*
X107947600Y-61870000D03*
%TO.N,Net-(D7-K)*%
X146146000Y-43635100D03*
X146500900Y-53635600D03*
%TO.N,Net-(D8-K)*%
X146500900Y-70810000D03*
X143082700Y-52930000D03*
%TO.N,Net-(D10-K)*%
X166470500Y-39705500D03*
X164015000Y-81042600D03*
%TO.N,Net-(D13-K)*%
X177078000Y-80426200D03*
X178442800Y-56472500D03*
%TO.N,Net-(D14-K)*%
X180118800Y-58987600D03*
X182096700Y-73790000D03*
%TO.N,Net-(D16-K)*%
X208631000Y-52567400D03*
X206107800Y-38187400D03*
%TO.N,Net-(D17-K)*%
X173170600Y-80426100D03*
X175496300Y-60510000D03*
%TO.N,Net-(D20-K)*%
X209640900Y-79592000D03*
X212484300Y-46970000D03*
%TO.N,Net-(D21-K)*%
X156036700Y-81784400D03*
X158327900Y-55934600D03*
%TO.N,Net-(D30-K)*%
X93497200Y-122190700D03*
X93497200Y-107560700D03*
%TO.N,Net-(D32-K)*%
X107955600Y-103590000D03*
X105014700Y-122036100D03*
%TO.N,Net-(D42-K)*%
X110941300Y-133390000D03*
X113340900Y-150514700D03*
%TO.N,Net-(D51-K)*%
X208730200Y-148428000D03*
X211693500Y-76770000D03*
%TO.N,GND*%
X212613100Y-122215600D03*
X164280700Y-154250000D03*
X132977700Y-45300000D03*
X100477500Y-120941900D03*
X212484300Y-144572000D03*
X185023800Y-120802000D03*
X88550000Y-82860000D03*
X187566100Y-79905300D03*
%TO.N,Net-(J2-Pin_8)*%
X203003700Y-39566200D03*
X158624100Y-45617600D03*
%TO.N,Net-(J2-Pin_13)*%
X199306200Y-37413800D03*
X128721100Y-38004800D03*
%TO.N,Net-(J2-Pin_2)*%
X143537600Y-30781100D03*
%TO.N,Net-(J2-Pin_6)*%
X84271600Y-32070000D03*
%TO.N,Net-(J2-Pin_7)*%
X161317400Y-35050000D03*
%TO.N,Net-(J2-Pin_18)*%
X171198600Y-36204100D03*
%TO.N,Net-(J2-Pin_17)*%
X203532100Y-47641200D03*
X202126100Y-102748300D03*
X199242300Y-47968700D03*
%TO.N,Net-(J2-Pin_5)*%
X107978000Y-34880000D03*
%TO.N,Net-(J2-Pin_4)*%
X201661000Y-31790600D03*
X102051400Y-35050000D03*
%TO.N,Net-(J2-Pin_25)*%
X180936600Y-52343500D03*
%TO.N,Net-(J2-Pin_10)*%
X173170600Y-29141700D03*
%TO.N,Net-(J2-Pin_9)*%
X143537600Y-36157300D03*
%TO.N,Net-(J2-Pin_11)*%
X175670700Y-37817900D03*
%TO.N,Net-(J2-Pin_23)*%
X179097200Y-142330000D03*
%TO.N,Net-(J2-Pin_24)*%
X122876700Y-35050000D03*
%TO.N,Net-(J2-Pin_16)*%
X197861100Y-39278200D03*
X187698100Y-39588800D03*
%TO.N,Net-(J2-Pin_15)*%
X119834400Y-35046800D03*
%TO.N,Net-(J2-Pin_14)*%
X196825100Y-29841300D03*
X160484900Y-103368400D03*
X164280700Y-29641200D03*
%TO.N,Net-(J2-Pin_12)*%
X160313000Y-31268000D03*
%TO.N,Net-(J2-Pin_22)*%
X140799500Y-31085400D03*
%TD*%
D21*
%TO.N,Net-(D1-K)*%
X82225000Y-54400000D02*
X82225000Y-47175000D01*
X82225000Y-47175000D02*
X87550000Y-41850000D01*
D22*
%TO.N,+12V*%
X97712800Y-49862800D02*
X89700000Y-41850000D01*
X94455000Y-93855000D02*
X82300000Y-81700000D01*
X143049900Y-129905600D02*
X126105600Y-129905600D01*
X134500000Y-86833900D02*
X136718600Y-86833900D01*
X187316600Y-42404700D02*
X189440000Y-40281300D01*
X89700000Y-41850000D02*
X92739900Y-38810100D01*
X141185000Y-49862800D02*
X149578900Y-41468900D01*
X111192000Y-88600000D02*
X106064200Y-88600000D01*
X103010000Y-88689600D02*
X103010000Y-88600000D01*
X118710000Y-81082000D02*
X118710000Y-81000000D01*
X84150000Y-157100000D02*
X90570000Y-157100000D01*
X143602300Y-90568600D02*
X143602300Y-90568500D01*
X93299900Y-97200000D02*
X91110000Y-97200000D01*
X110450000Y-49862800D02*
X97712800Y-49862800D01*
X135248300Y-104851700D02*
X134300000Y-105800000D01*
X124461900Y-86833900D02*
X118710000Y-81082000D01*
X91110000Y-97200000D02*
X94455000Y-93855000D01*
X91120000Y-105635000D02*
X90523300Y-105038300D01*
X149578900Y-41468900D02*
X149510000Y-41400000D01*
X172641700Y-97848300D02*
X173549100Y-98755700D01*
X194251800Y-40281300D02*
X195785000Y-41814500D01*
X97844600Y-93855000D02*
X103010000Y-88689600D01*
X143537600Y-104851700D02*
X135248300Y-104851700D01*
X90523300Y-105038300D02*
X77736700Y-105038300D01*
X173549100Y-98755700D02*
X174915200Y-98755700D01*
X90570000Y-157100000D02*
X91120000Y-157650000D01*
X153163400Y-97848300D02*
X172641700Y-97848300D01*
X126105600Y-129905600D02*
X118800000Y-122600000D01*
X136718600Y-86833900D02*
X141760000Y-81792500D01*
X110450000Y-60350000D02*
X110450000Y-49862800D01*
X143602300Y-90568500D02*
X135368500Y-90568500D01*
X210310000Y-155223100D02*
X206356900Y-151270000D01*
X94455000Y-93855000D02*
X97844600Y-93855000D01*
X118710000Y-81082000D02*
X111192000Y-88600000D01*
X103010000Y-88600000D02*
X106064200Y-88600000D01*
X204500000Y-122600000D02*
X204500000Y-122697100D01*
X206356900Y-151270000D02*
X202803600Y-151270000D01*
X93402200Y-97302300D02*
X93299900Y-97200000D01*
X110450000Y-49862800D02*
X141185000Y-49862800D01*
X134500000Y-86833900D02*
X124461900Y-86833900D01*
X143602300Y-99585700D02*
X151426000Y-99585700D01*
X149578900Y-41468900D02*
X150514700Y-42404700D01*
X134500000Y-89700000D02*
X134500000Y-86833900D01*
X174915200Y-98755700D02*
X176400000Y-97270900D01*
X148110000Y-129905600D02*
X143049900Y-129905600D01*
X135368500Y-90568500D02*
X134500000Y-89700000D01*
X195785000Y-41814500D02*
X195785000Y-41900000D01*
X92739900Y-38810100D02*
X92739900Y-31800000D01*
X77736700Y-105038300D02*
X77575000Y-105200000D01*
X109759100Y-61040900D02*
X110450000Y-60350000D01*
X92739900Y-31800000D02*
X92740000Y-31800000D01*
X141760000Y-81792500D02*
X141760000Y-81700000D01*
X204500000Y-122697100D02*
X199803700Y-127393400D01*
X210310000Y-155300000D02*
X210310000Y-155223100D01*
X176400000Y-97270900D02*
X176400000Y-97200000D01*
X108757300Y-61040900D02*
X109759100Y-61040900D01*
X148110000Y-134900000D02*
X148110000Y-129905600D01*
X197291500Y-129905600D02*
X148110000Y-129905600D01*
X199803700Y-127393400D02*
X197291500Y-129905600D01*
X151426000Y-99585700D02*
X153163400Y-97848300D01*
X143602300Y-99585800D02*
X143602300Y-99585700D01*
X189440000Y-40281300D02*
X194251800Y-40281300D01*
X150514700Y-42404700D02*
X187316600Y-42404700D01*
D21*
%TO.N,Net-(D2-K)*%
X82225000Y-72650000D02*
X80075000Y-70500000D01*
X80075000Y-70500000D02*
X80075000Y-54400000D01*
%TO.N,Net-(D3-K)*%
X88552800Y-81398500D02*
X80075000Y-72920700D01*
X95048500Y-81398500D02*
X88552800Y-81398500D01*
X80075000Y-72920700D02*
X80075000Y-72650000D01*
X95050000Y-81400000D02*
X95048500Y-81398500D01*
%TO.N,Net-(D4-K)*%
X108577600Y-62500000D02*
X107947600Y-61870000D01*
X110450000Y-62500000D02*
X108577600Y-62500000D01*
X108635400Y-41290100D02*
X107519900Y-41290100D01*
X107519900Y-41290100D02*
X106760000Y-42050000D01*
%TO.N,Net-(D5-K)*%
X125090200Y-39980200D02*
X126510000Y-41400000D01*
X104610000Y-42050000D02*
X104610000Y-41779300D01*
X106409100Y-39980200D02*
X125090200Y-39980200D01*
X104610000Y-41779300D02*
X106409100Y-39980200D01*
%TO.N,Net-(D6-K)*%
X124360000Y-41400000D02*
X124360000Y-41649300D01*
X134147000Y-42803000D02*
X135550000Y-41400000D01*
X125513700Y-42803000D02*
X134147000Y-42803000D01*
X124360000Y-41649300D02*
X125513700Y-42803000D01*
%TO.N,Net-(D7-K)*%
X146146000Y-43635100D02*
X147360000Y-42421100D01*
X146500900Y-52109100D02*
X146500900Y-53635600D01*
X147360000Y-42421100D02*
X147360000Y-41400000D01*
X146810000Y-51800000D02*
X146500900Y-52109100D01*
%TO.N,Net-(D8-K)*%
X143082700Y-52930000D02*
X143530000Y-52930000D01*
X146810000Y-73500000D02*
X146500900Y-73190900D01*
X146500900Y-73190900D02*
X146500900Y-70810000D01*
X143530000Y-52930000D02*
X144660000Y-51800000D01*
%TO.N,Net-(D9-K)*%
X144660000Y-73500000D02*
X144660000Y-64410000D01*
X144660000Y-64410000D02*
X144550000Y-64300000D01*
%TO.N,Net-(D10-K)*%
X174354000Y-39444000D02*
X175710000Y-40800000D01*
X140818700Y-80280000D02*
X139610000Y-81488700D01*
X145658500Y-83180000D02*
X142758500Y-80280000D01*
X139610000Y-81488700D02*
X139610000Y-81700000D01*
X161877600Y-83180000D02*
X145658500Y-83180000D01*
X166470500Y-39705500D02*
X166732000Y-39444000D01*
X166732000Y-39444000D02*
X174354000Y-39444000D01*
X164015000Y-81042600D02*
X161877600Y-83180000D01*
X142758500Y-80280000D02*
X140818700Y-80280000D01*
%TO.N,Net-(D11-K)*%
X140876000Y-39569600D02*
X141297400Y-39991000D01*
X141297400Y-39991000D02*
X165905200Y-39991000D01*
X115510000Y-36300000D02*
X118779600Y-39569600D01*
X118779600Y-39569600D02*
X140876000Y-39569600D01*
X166714200Y-40800000D02*
X173560000Y-40800000D01*
X165905200Y-39991000D02*
X166714200Y-40800000D01*
%TO.N,Net-(D12-K)*%
X113360000Y-36300000D02*
X108369900Y-36300000D01*
X103691900Y-43065200D02*
X105926700Y-45300000D01*
X108369900Y-36300000D02*
X103691900Y-40978000D01*
X105926700Y-45300000D02*
X112950000Y-45300000D01*
X103691900Y-40978000D02*
X103691900Y-43065200D01*
%TO.N,Net-(D13-K)*%
X158278200Y-82778300D02*
X145924800Y-82778300D01*
X176164300Y-79512500D02*
X161544000Y-79512500D01*
X161544000Y-79512500D02*
X158278200Y-82778300D01*
X179900000Y-54700000D02*
X179900000Y-55015300D01*
X145924800Y-82778300D02*
X142793600Y-79647100D01*
X177078000Y-80426200D02*
X176164300Y-79512500D01*
X116560000Y-80802600D02*
X116560000Y-81000000D01*
X117715500Y-79647100D02*
X116560000Y-80802600D01*
X179900000Y-55015300D02*
X178442800Y-56472500D01*
X142793600Y-79647100D02*
X117715500Y-79647100D01*
%TO.N,Net-(D14-K)*%
X180107100Y-58987600D02*
X180118800Y-58987600D01*
X177750000Y-54700000D02*
X177750000Y-56630500D01*
X179610000Y-73790000D02*
X179600000Y-73800000D01*
X182096700Y-73790000D02*
X179610000Y-73790000D01*
X177750000Y-56630500D02*
X180107100Y-58987600D01*
%TO.N,Net-(D15-K)*%
X177450000Y-64700000D02*
X177350000Y-64600000D01*
X177450000Y-73800000D02*
X177450000Y-64700000D01*
%TO.N,Net-(D16-K)*%
X208631000Y-53521000D02*
X208631000Y-52567400D01*
X194858600Y-43310700D02*
X193635000Y-42087100D01*
X202519600Y-38919800D02*
X198128700Y-43310700D01*
X203205300Y-39037500D02*
X203087600Y-38919800D01*
X198128700Y-43310700D02*
X194858600Y-43310700D01*
X206107800Y-38187400D02*
X204103200Y-40192000D01*
X203205300Y-40133600D02*
X203205300Y-39037500D01*
X203263700Y-40192000D02*
X203205300Y-40133600D01*
X193635000Y-42087100D02*
X193635000Y-41900000D01*
X204103200Y-40192000D02*
X203263700Y-40192000D01*
X215485000Y-60375000D02*
X208631000Y-53521000D01*
X203087600Y-38919800D02*
X202519600Y-38919800D01*
%TO.N,Net-(D17-K)*%
X195494000Y-61366700D02*
X212343300Y-61366700D01*
X212343300Y-61366700D02*
X213335000Y-60375000D01*
X175496300Y-60510000D02*
X194637300Y-60510000D01*
X194637300Y-60510000D02*
X195494000Y-61366700D01*
X172696700Y-80900000D02*
X173170600Y-80426100D01*
X168950000Y-80900000D02*
X172696700Y-80900000D01*
%TO.N,Net-(D18-K)*%
X182752900Y-82429700D02*
X182917700Y-82264900D01*
X166800000Y-80900000D02*
X166800000Y-81088100D01*
X187835100Y-82264900D02*
X188200000Y-81900000D01*
X182752900Y-82429700D02*
X182917700Y-82264900D01*
X182917700Y-82264900D02*
X187835100Y-82264900D01*
X168141600Y-82429700D02*
X182752900Y-82429700D01*
X166800000Y-81088100D02*
X168141600Y-82429700D01*
%TO.N,Net-(D19-K)*%
X80150000Y-81454400D02*
X80150000Y-81700000D01*
X97016300Y-81245400D02*
X95643700Y-82618000D01*
X81291600Y-80312800D02*
X80150000Y-81454400D01*
X92071400Y-82618000D02*
X91253600Y-81800200D01*
X85510800Y-80312800D02*
X81291600Y-80312800D01*
X95643700Y-82618000D02*
X92071400Y-82618000D01*
X86998200Y-81800200D02*
X85510800Y-80312800D01*
X97016300Y-80713600D02*
X97016300Y-81245400D01*
X99020800Y-78709100D02*
X97016300Y-80713600D01*
X199219100Y-78709100D02*
X99020800Y-78709100D01*
X91253600Y-81800200D02*
X86998200Y-81800200D01*
X201610000Y-81100000D02*
X199219100Y-78709100D01*
%TO.N,Net-(D20-K)*%
X200557200Y-82461700D02*
X206771200Y-82461700D01*
X206771200Y-82461700D02*
X209640900Y-79592000D01*
X212484300Y-46970000D02*
X210505000Y-46970000D01*
X199460000Y-81100000D02*
X199460000Y-81364500D01*
X199460000Y-81364500D02*
X200557200Y-82461700D01*
X210505000Y-46970000D02*
X210425000Y-47050000D01*
%TO.N,Net-(D21-K)*%
X156036700Y-81784400D02*
X154734400Y-81784400D01*
X208264500Y-47039500D02*
X167223000Y-47039500D01*
X208275000Y-47050000D02*
X208264500Y-47039500D01*
X154734400Y-81784400D02*
X154550000Y-81600000D01*
X167223000Y-47039500D02*
X158327900Y-55934600D01*
%TO.N,Net-(D22-K)*%
X106200000Y-82200000D02*
X100860000Y-87540000D01*
X100860000Y-87540000D02*
X100860000Y-88600000D01*
%TO.N,Net-(D23-K)*%
X159939000Y-88329000D02*
X161310000Y-89700000D01*
X133568800Y-91170300D02*
X154643400Y-91170300D01*
X132350000Y-89951500D02*
X133568800Y-91170300D01*
X132350000Y-89700000D02*
X132350000Y-89951500D01*
X154643400Y-91170300D02*
X157484700Y-88329000D01*
X157484700Y-88329000D02*
X159939000Y-88329000D01*
%TO.N,Net-(D24-K)*%
X160254400Y-91065100D02*
X187144900Y-91065100D01*
X187144900Y-91065100D02*
X189010000Y-89200000D01*
X159160000Y-89970700D02*
X160254400Y-91065100D01*
X159160000Y-89700000D02*
X159160000Y-89970700D01*
%TO.N,Net-(D25-K)*%
X187193400Y-81100100D02*
X187193400Y-81100200D01*
X189210900Y-81094900D02*
X188816000Y-80700000D01*
X179699500Y-81899500D02*
X178500000Y-80700000D01*
X186860000Y-89200000D02*
X186860000Y-85206600D01*
X189210900Y-82855700D02*
X189210900Y-81094900D01*
X182661200Y-81899500D02*
X179699500Y-81899500D01*
X183460500Y-81100200D02*
X182661200Y-81899500D01*
X186860000Y-85206600D02*
X189210900Y-82855700D01*
X188816000Y-80700000D02*
X187593500Y-80700000D01*
X187593500Y-80700000D02*
X187193400Y-81100100D01*
X187193400Y-81100200D02*
X183460500Y-81100200D01*
%TO.N,Net-(D26-K)*%
X90137500Y-98564600D02*
X97508700Y-98564600D01*
X117616300Y-98683700D02*
X119000000Y-97300000D01*
X116024000Y-98683700D02*
X117616300Y-98683700D01*
X88960000Y-97387100D02*
X90137500Y-98564600D01*
X97875000Y-98198300D02*
X115538600Y-98198300D01*
X115538600Y-98198300D02*
X116024000Y-98683700D01*
X88960000Y-97200000D02*
X88960000Y-97387100D01*
X97508700Y-98564600D02*
X97875000Y-98198300D01*
%TO.N,Net-(D27-K)*%
X119108400Y-94764800D02*
X116850000Y-97023200D01*
X147474800Y-94764800D02*
X119108400Y-94764800D01*
X149710000Y-97000000D02*
X147474800Y-94764800D01*
X116850000Y-97023200D02*
X116850000Y-97300000D01*
%TO.N,Net-(D28-K)*%
X132978100Y-95221900D02*
X145781900Y-95221900D01*
X131800000Y-96400000D02*
X132978100Y-95221900D01*
X145781900Y-95221900D02*
X147560000Y-97000000D01*
%TO.N,Net-(D29-K)*%
X175390600Y-95807500D02*
X174250000Y-96948100D01*
X174250000Y-96948100D02*
X174250000Y-97200000D01*
X200717500Y-95807500D02*
X175390600Y-95807500D01*
X202310000Y-97400000D02*
X200717500Y-95807500D01*
%TO.N,Net-(D30-K)*%
X91809300Y-122190700D02*
X91300000Y-122700000D01*
X178537100Y-97400000D02*
X200160000Y-97400000D01*
X129865100Y-102891700D02*
X132569300Y-100187500D01*
X99877300Y-107719400D02*
X99877300Y-106314100D01*
X132569300Y-100187500D02*
X175749600Y-100187500D01*
X175749600Y-100187500D02*
X178537100Y-97400000D01*
X99877300Y-106314100D02*
X103457700Y-102733700D01*
X103457700Y-102733700D02*
X111351200Y-102733700D01*
X99675000Y-107921700D02*
X99877300Y-107719400D01*
X93497200Y-107560700D02*
X93858200Y-107921700D01*
X111351200Y-102733700D02*
X111509200Y-102891700D01*
X111509200Y-102891700D02*
X129865100Y-102891700D01*
X93497200Y-122190700D02*
X91809300Y-122190700D01*
X93858200Y-107921700D02*
X99675000Y-107921700D01*
%TO.N,Net-(D31-K)*%
X97921500Y-121321500D02*
X90295200Y-121321500D01*
X98900000Y-122300000D02*
X97921500Y-121321500D01*
X89150000Y-122466700D02*
X89150000Y-122700000D01*
X90295200Y-121321500D02*
X89150000Y-122466700D01*
%TO.N,Net-(D32-K)*%
X106720000Y-103590000D02*
X105610000Y-104700000D01*
X107955600Y-103590000D02*
X106720000Y-103590000D01*
X116086100Y-122036100D02*
X105014700Y-122036100D01*
X116650000Y-122600000D02*
X116086100Y-122036100D01*
%TO.N,Net-(D33-K)*%
X136540400Y-109240400D02*
X107757600Y-109240400D01*
X103460000Y-104942800D02*
X103460000Y-104700000D01*
X149900000Y-122600000D02*
X136540400Y-109240400D01*
X107757600Y-109240400D02*
X103460000Y-104942800D01*
%TO.N,Net-(D34-K)*%
X133987800Y-123387800D02*
X132800000Y-122200000D01*
X146962200Y-123387800D02*
X133987800Y-123387800D01*
X147750000Y-122600000D02*
X146962200Y-123387800D01*
%TO.N,Net-(D35-K)*%
X153778200Y-105529400D02*
X161439400Y-105529400D01*
X132150000Y-105564200D02*
X135172500Y-102541700D01*
X132150000Y-105800000D02*
X132150000Y-105564200D01*
X161439400Y-105529400D02*
X163010000Y-107100000D01*
X135172500Y-102541700D02*
X150790500Y-102541700D01*
X150790500Y-102541700D02*
X153778200Y-105529400D01*
%TO.N,Net-(D36-K)*%
X160860000Y-107377700D02*
X160860000Y-107100000D01*
X164220800Y-109320800D02*
X162803100Y-109320800D01*
X177600000Y-122700000D02*
X164220800Y-109320800D01*
X162803100Y-109320800D02*
X160860000Y-107377700D01*
%TO.N,Net-(D37-K)*%
X176548000Y-124065300D02*
X182934700Y-124065300D01*
X175450000Y-122700000D02*
X175450000Y-122967300D01*
X175450000Y-122967300D02*
X176548000Y-124065300D01*
X182934700Y-124065300D02*
X184500000Y-122500000D01*
%TO.N,Net-(D38-K)*%
X189210000Y-106200000D02*
X189210000Y-109460000D01*
X189210000Y-109460000D02*
X202350000Y-122600000D01*
%TO.N,Net-(D39-K)*%
X187060000Y-105973600D02*
X188240800Y-104792800D01*
X211484000Y-105245200D02*
X214355200Y-105245200D01*
X192466100Y-104792800D02*
X192525000Y-104851700D01*
X214355200Y-105245200D02*
X215710000Y-106600000D01*
X207645000Y-104851700D02*
X208225000Y-105431700D01*
X192525000Y-104851700D02*
X207645000Y-104851700D01*
X211297500Y-105431700D02*
X211484000Y-105245200D01*
X208225000Y-105431700D02*
X211297500Y-105431700D01*
X187060000Y-106200000D02*
X187060000Y-105973600D01*
X188240800Y-104792800D02*
X192466100Y-104792800D01*
%TO.N,Net-(D40-K)*%
X208300000Y-111860000D02*
X208300000Y-122200000D01*
X213560000Y-106600000D02*
X208300000Y-111860000D01*
%TO.N,Net-(D41-K)*%
X100450000Y-122588200D02*
X100450000Y-122039100D01*
X102386800Y-124525000D02*
X100450000Y-122588200D01*
X107135000Y-124525000D02*
X102386800Y-124525000D01*
X85760900Y-107350000D02*
X77575000Y-107350000D01*
X100450000Y-122039100D02*
X85760900Y-107350000D01*
X115310000Y-132700000D02*
X107135000Y-124525000D01*
%TO.N,Net-(D42-K)*%
X110941300Y-133390000D02*
X112470000Y-133390000D01*
X113524700Y-150514700D02*
X113340900Y-150514700D01*
X112470000Y-133390000D02*
X113160000Y-132700000D01*
X115310000Y-152300000D02*
X113524700Y-150514700D01*
%TO.N,Net-(D43-K)*%
X105400000Y-152100000D02*
X106590500Y-150909500D01*
X111769500Y-150909500D02*
X113160000Y-152300000D01*
X106590500Y-150909500D02*
X111769500Y-150909500D01*
%TO.N,Net-(D44-K)*%
X145960000Y-135144500D02*
X148891600Y-138076100D01*
X145960000Y-134900000D02*
X145960000Y-135144500D01*
X148891600Y-138076100D02*
X179733900Y-138076100D01*
X179733900Y-138076100D02*
X181110000Y-136700000D01*
%TO.N,Net-(D45-K)*%
X178960000Y-136700000D02*
X178960000Y-136429300D01*
X178960000Y-136429300D02*
X180043500Y-135345800D01*
X209745800Y-135345800D02*
X211400000Y-137000000D01*
X180043500Y-135345800D02*
X209745800Y-135345800D01*
%TO.N,Net-(D46-K)*%
X209250000Y-145850000D02*
X209600000Y-146200000D01*
X209250000Y-137000000D02*
X209250000Y-145850000D01*
%TO.N,Net-(D47-K)*%
X208160000Y-155300000D02*
X181350000Y-155300000D01*
X181350000Y-155300000D02*
X180850000Y-155800000D01*
%TO.N,Net-(D48-K)*%
X152904400Y-153605600D02*
X150510000Y-156000000D01*
X178700000Y-155800000D02*
X176505600Y-153605600D01*
X176505600Y-153605600D02*
X152904400Y-153605600D01*
%TO.N,Net-(D49-K)*%
X148360000Y-156205800D02*
X149551300Y-157397100D01*
X149551300Y-157397100D02*
X169702900Y-157397100D01*
X148360000Y-156000000D02*
X148360000Y-156205800D01*
X169702900Y-157397100D02*
X171300000Y-155800000D01*
%TO.N,Net-(D50-K)*%
X126902300Y-159507700D02*
X131910000Y-154500000D01*
X84146900Y-159507700D02*
X126902300Y-159507700D01*
X82000000Y-157100000D02*
X82000000Y-157360800D01*
X82000000Y-157360800D02*
X84146900Y-159507700D01*
%TO.N,Net-(D51-K)*%
X135585100Y-148428000D02*
X129760000Y-154253100D01*
X212210000Y-73600000D02*
X212210000Y-76253500D01*
X208730200Y-148428000D02*
X135585100Y-148428000D01*
X212210000Y-76253500D02*
X211693500Y-76770000D01*
X129760000Y-154253100D02*
X129760000Y-154500000D01*
%TO.N,Net-(D52-K)*%
X210242600Y-73782600D02*
X210060000Y-73600000D01*
X209600000Y-81800000D02*
X210242600Y-81157400D01*
X210242600Y-81157400D02*
X210242600Y-73782600D01*
%TO.N,GND*%
X83050000Y-106290000D02*
X97118300Y-106290000D01*
X155325900Y-65240000D02*
X154800000Y-65240000D01*
X134900000Y-96400000D02*
X129460000Y-101840000D01*
X140700000Y-106140000D02*
X141751700Y-106140000D01*
X211415600Y-122215600D02*
X211400000Y-122200000D01*
X96489200Y-83060800D02*
X98150000Y-81400000D01*
X170500000Y-65820000D02*
X156431700Y-65820000D01*
X103287700Y-121012300D02*
X102000000Y-122300000D01*
X167000000Y-106340000D02*
X168051700Y-106340000D01*
X125645900Y-106340000D02*
X110000000Y-106340000D01*
X189698300Y-80298300D02*
X187566100Y-80298300D01*
X161525000Y-144800000D02*
X162676700Y-144800000D01*
X156400000Y-106720000D02*
X142331700Y-106720000D01*
X187566100Y-79905300D02*
X187566100Y-80298300D01*
X156431700Y-65820000D02*
X155851700Y-65240000D01*
X127003500Y-107171800D02*
X126751700Y-106920000D01*
X90073400Y-64568300D02*
X89601700Y-65040000D01*
X98566500Y-80983500D02*
X98150000Y-81400000D01*
X191300000Y-81900000D02*
X192419900Y-83019900D01*
X137500000Y-65820000D02*
X136448300Y-65820000D01*
X142331700Y-106720000D02*
X141751700Y-106140000D01*
X154800000Y-65240000D02*
X148590000Y-65240000D01*
X187600000Y-122500000D02*
X185902000Y-120802000D01*
X88550000Y-82860000D02*
X88750800Y-83060800D01*
X100477500Y-120941900D02*
X100641900Y-120941900D01*
X137500000Y-60740000D02*
X144090000Y-60740000D01*
X160139200Y-79110800D02*
X157650000Y-81600000D01*
X132977700Y-45300000D02*
X134750000Y-45300000D01*
X138616500Y-107171800D02*
X127003500Y-107171800D01*
X125700000Y-106920000D02*
X126225900Y-106920000D01*
X88550000Y-65040000D02*
X89601700Y-65040000D01*
X155325900Y-65240000D02*
X155851700Y-65240000D01*
X121800000Y-65240000D02*
X120748300Y-65240000D01*
X135900000Y-122200000D02*
X134712300Y-121012300D01*
X191300000Y-81900000D02*
X189698300Y-80298300D01*
X144090000Y-60740000D02*
X147650000Y-64300000D01*
X211300200Y-147384100D02*
X197447900Y-147384100D01*
X182700000Y-101840000D02*
X181648300Y-101840000D01*
X176991700Y-61141700D02*
X180450000Y-64600000D01*
X165948300Y-106340000D02*
X161248300Y-101640000D01*
X186408300Y-64600000D02*
X186623300Y-64815000D01*
X121800000Y-65240000D02*
X135868300Y-65240000D01*
X120748300Y-65240000D02*
X120076600Y-64568300D01*
X170500000Y-60740000D02*
X171551700Y-60740000D01*
X134750000Y-45300000D02*
X138650000Y-41400000D01*
X135868300Y-65240000D02*
X136448300Y-65820000D01*
X140700000Y-106140000D02*
X139648300Y-106140000D01*
X108083500Y-80983500D02*
X98566500Y-80983500D01*
X187675000Y-64815000D02*
X186623300Y-64815000D01*
X163578200Y-145989400D02*
X191858900Y-145989400D01*
X191858900Y-145989400D02*
X192948300Y-144900000D01*
X120076600Y-64568300D02*
X90073400Y-64568300D01*
X162676700Y-144800000D02*
X162676700Y-145087900D01*
X192419900Y-83019900D02*
X211480100Y-83019900D01*
X108500000Y-152100000D02*
X102950000Y-157650000D01*
X185902000Y-120802000D02*
X185023800Y-120802000D01*
X171551700Y-60740000D02*
X171953400Y-61141700D01*
X181600000Y-80700000D02*
X180010800Y-79110800D01*
X177148300Y-106340000D02*
X181648300Y-101840000D01*
X194100000Y-144900000D02*
X195251700Y-144900000D01*
X98750000Y-106870000D02*
X97698300Y-106870000D01*
X161248300Y-101640000D02*
X156400000Y-101640000D01*
X171953400Y-61141700D02*
X176991700Y-61141700D01*
X139648300Y-106140000D02*
X138616500Y-107171800D01*
X148590000Y-65240000D02*
X147650000Y-64300000D01*
X172850000Y-154250000D02*
X164280700Y-154250000D01*
X212484300Y-146200000D02*
X212484300Y-144572000D01*
X88750800Y-83060800D02*
X96489200Y-83060800D01*
X100641900Y-120941900D02*
X102000000Y-122300000D01*
X129460000Y-101840000D02*
X125700000Y-101840000D01*
X180450000Y-64600000D02*
X186408300Y-64600000D01*
X211480100Y-83019900D02*
X212700000Y-81800000D01*
X167000000Y-106340000D02*
X165948300Y-106340000D01*
X125700000Y-101840000D02*
X124648300Y-101840000D01*
X162676700Y-145087900D02*
X163578200Y-145989400D01*
X180010800Y-79110800D02*
X160139200Y-79110800D01*
X182001700Y-80298300D02*
X181600000Y-80700000D01*
X116050000Y-45300000D02*
X132977700Y-45300000D01*
X126225900Y-106920000D02*
X126751700Y-106920000D01*
X187566100Y-80298300D02*
X182001700Y-80298300D01*
X102950000Y-157650000D02*
X96200000Y-157650000D01*
X197447900Y-147384100D02*
X195251700Y-145187900D01*
X168051700Y-106340000D02*
X177148300Y-106340000D01*
X212484300Y-146200000D02*
X211300200Y-147384100D01*
X134712300Y-121012300D02*
X103287700Y-121012300D01*
X212613100Y-122215600D02*
X211415600Y-122215600D01*
X212700000Y-146200000D02*
X212484300Y-146200000D01*
X98750000Y-101790000D02*
X124598300Y-101790000D01*
X194100000Y-144900000D02*
X192948300Y-144900000D01*
X174400000Y-155800000D02*
X172850000Y-154250000D01*
X97118300Y-106290000D02*
X97698300Y-106870000D01*
X126225900Y-106920000D02*
X125645900Y-106340000D01*
X124598300Y-101790000D02*
X124648300Y-101840000D01*
X109300000Y-82200000D02*
X108083500Y-80983500D01*
X195251700Y-145187900D02*
X195251700Y-144900000D01*
%TO.N,Net-(J2-Pin_8)*%
X196752200Y-45617600D02*
X158624100Y-45617600D01*
X202803600Y-39566200D02*
X196752200Y-45617600D01*
X203003700Y-39566200D02*
X202803600Y-39566200D01*
%TO.N,Net-(J2-Pin_13)*%
X174700900Y-38419700D02*
X175102600Y-38821400D01*
X197171500Y-38548600D02*
X197573200Y-38146900D01*
X176084700Y-38821300D02*
X176086200Y-38821300D01*
X176084600Y-38821400D02*
X176084700Y-38821300D01*
X198573100Y-38146900D02*
X199306200Y-37413800D01*
X176358900Y-38548600D02*
X197171500Y-38548600D01*
X129136000Y-38419700D02*
X174700900Y-38419700D01*
X128721100Y-38004800D02*
X129136000Y-38419700D01*
X176086200Y-38821300D02*
X176358900Y-38548600D01*
X175102600Y-38821400D02*
X176084600Y-38821400D01*
X197573200Y-38146900D02*
X198573100Y-38146900D01*
%TO.N,Net-(J2-Pin_2)*%
X207642700Y-33819600D02*
X206870000Y-33046900D01*
X213220000Y-32660000D02*
X212060400Y-33819600D01*
X203125400Y-28539100D02*
X172870700Y-28539100D01*
X172870700Y-28539100D02*
X172370300Y-29039500D01*
X145279200Y-29039500D02*
X143537600Y-30781100D01*
X206870000Y-32283700D02*
X203125400Y-28539100D01*
X172370300Y-29039500D02*
X145279200Y-29039500D01*
X206870000Y-33046900D02*
X206870000Y-32283700D01*
X212060400Y-33819600D02*
X207642700Y-33819600D01*
%TO.N,Net-(J2-Pin_6)*%
X208140000Y-32660000D02*
X203617400Y-28137400D01*
X84271600Y-31700800D02*
X84271600Y-32070000D01*
X203617400Y-28137400D02*
X172604100Y-28137400D01*
X172368700Y-28372800D02*
X172202400Y-28539100D01*
X172604100Y-28137400D02*
X172368700Y-28372800D01*
X172202400Y-28539100D02*
X87433300Y-28539100D01*
X172368700Y-28372800D02*
X172202400Y-28539100D01*
X87433300Y-28539100D02*
X84271600Y-31700800D01*
%TO.N,Net-(J2-Pin_7)*%
X204447400Y-34047400D02*
X197444200Y-34047400D01*
X196591700Y-34899900D02*
X196591700Y-35677100D01*
X196591700Y-35677100D02*
X195052600Y-37216200D01*
X205600000Y-35200000D02*
X204447400Y-34047400D01*
X163483600Y-37216200D02*
X161317400Y-35050000D01*
X195052600Y-37216200D02*
X163483600Y-37216200D01*
X197444200Y-34047400D02*
X196591700Y-34899900D01*
%TO.N,Net-(J2-Pin_3)*%
X130217300Y-55334400D02*
X149839500Y-55334400D01*
X159154600Y-46019300D02*
X199860700Y-46019300D01*
X199860700Y-46019300D02*
X210680000Y-35200000D01*
X121800000Y-62700000D02*
X122851700Y-62700000D01*
X149839500Y-55334400D02*
X159154600Y-46019300D01*
X122851700Y-62700000D02*
X130217300Y-55334400D01*
%TO.N,Net-(J2-Pin_18)*%
X171358400Y-36363900D02*
X171198600Y-36204100D01*
X181470000Y-34781600D02*
X181470000Y-35627100D01*
X180733200Y-36363900D02*
X171358400Y-36363900D01*
X192900000Y-32660000D02*
X191630000Y-33930000D01*
X191630000Y-33930000D02*
X182321600Y-33930000D01*
X182321600Y-33930000D02*
X181470000Y-34781600D01*
X181470000Y-35627100D02*
X180733200Y-36363900D01*
%TO.N,Net-(J2-Pin_1)*%
X212068300Y-35487900D02*
X200936800Y-46619400D01*
X154285300Y-58200000D02*
X137500000Y-58200000D01*
X213220000Y-35200000D02*
X212068300Y-35200000D01*
X165865900Y-46619400D02*
X154285300Y-58200000D01*
X212068300Y-35200000D02*
X212068300Y-35487900D01*
X200936800Y-46619400D02*
X165865900Y-46619400D01*
%TO.N,Net-(J2-Pin_17)*%
X185383400Y-102748300D02*
X202126100Y-102748300D01*
X182700000Y-104380000D02*
X183751700Y-104380000D01*
X199569800Y-47641200D02*
X199242300Y-47968700D01*
X183751700Y-104380000D02*
X185383400Y-102748300D01*
X203532100Y-47641200D02*
X199569800Y-47641200D01*
%TO.N,Net-(J2-Pin_5)*%
X200677300Y-38675200D02*
X200877100Y-38475400D01*
X197337900Y-38950300D02*
X197573300Y-38714900D01*
X200877100Y-38475400D02*
X204864600Y-38475400D01*
X174534600Y-38821400D02*
X174936300Y-39223100D01*
X107978000Y-34880000D02*
X116573900Y-34880000D01*
X176487900Y-38987600D02*
X176525200Y-38950300D01*
X116573900Y-34880000D02*
X120515300Y-38821400D01*
X174936300Y-39223100D02*
X176252400Y-39223100D01*
X120515300Y-38821400D02*
X174534600Y-38821400D01*
X176252400Y-39223100D02*
X176487900Y-38987600D01*
X204864600Y-38475400D02*
X208140000Y-35200000D01*
X197573300Y-38714900D02*
X197613000Y-38675200D01*
X176525200Y-38950300D02*
X197337900Y-38950300D01*
X197613000Y-38675200D02*
X200677300Y-38675200D01*
X197573300Y-38714900D02*
X197613000Y-38675200D01*
X176487900Y-38987600D02*
X176525200Y-38950300D01*
%TO.N,Net-(J2-Pin_4)*%
X106673900Y-30427500D02*
X102051400Y-35050000D01*
X160087000Y-30643200D02*
X159308600Y-31421600D01*
X160631700Y-30478400D02*
X160466900Y-30643200D01*
X143292200Y-31421600D02*
X142298100Y-30427500D01*
X200351100Y-30480700D02*
X187115400Y-30480700D01*
X159308600Y-31421600D02*
X143292200Y-31421600D01*
X160867100Y-30243000D02*
X160631700Y-30478400D01*
X160466900Y-30643200D02*
X160087000Y-30643200D01*
X201661000Y-31790600D02*
X200351100Y-30480700D01*
X186877700Y-30243000D02*
X160867100Y-30243000D01*
X187115400Y-30480700D02*
X186877700Y-30243000D01*
X142298100Y-30427500D02*
X106673900Y-30427500D01*
X160631700Y-30478400D02*
X160466900Y-30643200D01*
%TO.N,Net-(J2-Pin_25)*%
X167161800Y-59611500D02*
X174429800Y-52343500D01*
X91233400Y-64131700D02*
X130290400Y-64131700D01*
X89601700Y-62500000D02*
X91233400Y-64131700D01*
X130290400Y-64131700D02*
X134810600Y-59611500D01*
X88550000Y-62500000D02*
X89601700Y-62500000D01*
X174429800Y-52343500D02*
X180936600Y-52343500D01*
X134810600Y-59611500D02*
X167161800Y-59611500D01*
%TO.N,Net-(J2-Pin_10)*%
X199863000Y-29141700D02*
X173170600Y-29141700D01*
X203060000Y-32660000D02*
X203060000Y-32338700D01*
X203060000Y-32338700D02*
X199863000Y-29141700D01*
%TO.N,Net-(J2-Pin_9)*%
X198102100Y-37617900D02*
X197287600Y-37617900D01*
X199344600Y-36375400D02*
X198102100Y-37617900D01*
X145339800Y-37959500D02*
X143537600Y-36157300D01*
X176192600Y-38146900D02*
X175919900Y-38419600D01*
X203060000Y-35200000D02*
X201884600Y-36375400D01*
X175369000Y-38419600D02*
X174908900Y-37959500D01*
X196758600Y-38146900D02*
X176192600Y-38146900D01*
X201884600Y-36375400D02*
X199344600Y-36375400D01*
X174908900Y-37959500D02*
X145339800Y-37959500D01*
X175919900Y-38419600D02*
X175369000Y-38419600D01*
X197287600Y-37617900D02*
X196758600Y-38146900D01*
%TO.N,Net-(J2-Pin_11)*%
X197039000Y-37216200D02*
X196637300Y-37617900D01*
X200520000Y-35200000D02*
X199952000Y-35200000D01*
X199952000Y-35200000D02*
X197935800Y-37216200D01*
X196637300Y-37617900D02*
X175870700Y-37617900D01*
X175870700Y-37617900D02*
X175670700Y-37817900D01*
X197935800Y-37216200D02*
X197039000Y-37216200D01*
%TO.N,Net-(J2-Pin_23)*%
X140701700Y-142330000D02*
X179097200Y-142330000D01*
X137500000Y-144480000D02*
X138551700Y-144480000D01*
X138551700Y-144480000D02*
X140701700Y-142330000D01*
%TO.N,Net-(J2-Pin_24)*%
X162357600Y-31507500D02*
X158815100Y-35050000D01*
X184127500Y-31507500D02*
X162357600Y-31507500D01*
X158815100Y-35050000D02*
X122876700Y-35050000D01*
X185280000Y-32660000D02*
X184127500Y-31507500D01*
%TO.N,Net-(J2-Pin_16)*%
X187698100Y-39588800D02*
X197550500Y-39588800D01*
X197550500Y-39588800D02*
X197861100Y-39278200D01*
%TO.N,Net-(J2-Pin_15)*%
X195440000Y-35200000D02*
X193825500Y-36814500D01*
X158960400Y-35555600D02*
X143288500Y-35555600D01*
X193825500Y-36814500D02*
X164390400Y-36814500D01*
X162015700Y-34439800D02*
X160076200Y-34439800D01*
X143169400Y-35674700D02*
X120462300Y-35674700D01*
X143288500Y-35555600D02*
X143169400Y-35674700D01*
X160076200Y-34439800D02*
X158960400Y-35555600D01*
X120462300Y-35674700D02*
X119834400Y-35046800D01*
X164390400Y-36814500D02*
X162015700Y-34439800D01*
%TO.N,Net-(J2-Pin_14)*%
X133606400Y-102094100D02*
X153377700Y-102094100D01*
X154052000Y-102768400D02*
X159884900Y-102768400D01*
X131320500Y-104380000D02*
X133606400Y-102094100D01*
X196825100Y-29841300D02*
X164480800Y-29841300D01*
X159884900Y-102768400D02*
X160484900Y-103368400D01*
X125700000Y-104380000D02*
X131320500Y-104380000D01*
X153377700Y-102094100D02*
X154052000Y-102768400D01*
X164480800Y-29841300D02*
X164280700Y-29641200D01*
%TO.N,Net-(J2-Pin_12)*%
X186611500Y-30644700D02*
X161233600Y-30644700D01*
X160610300Y-31268000D02*
X160313000Y-31268000D01*
X187475100Y-31508300D02*
X186611500Y-30644700D01*
X199368300Y-31508300D02*
X187475100Y-31508300D01*
X200520000Y-32660000D02*
X199368300Y-31508300D01*
X161233600Y-30644700D02*
X160610300Y-31268000D01*
%TO.N,Net-(J2-Pin_22)*%
X140799500Y-31085400D02*
X141591100Y-31877000D01*
X160651900Y-31877000D02*
X161446500Y-31082400D01*
X141591100Y-31877000D02*
X160651900Y-31877000D01*
X161446500Y-31082400D02*
X186242400Y-31082400D01*
X186242400Y-31082400D02*
X187820000Y-32660000D01*
%TD*%
M02*
