M48
; DRILL file {KiCad 9.0.2} date 2025-09-13T21:02:54+0200
; FORMAT={-:-/ absolute / inch / decimal}
; #@! TF.CreationDate,2025-09-13T21:02:54+02:00
; #@! TF.GenerationSoftware,Kicad,Pcbnew,9.0.2
; #@! TF.FileFunction,Plated,1,2,PTH
FMAT,2
INCH
; #@! TA.AperFunction,Plated,PTH,ViaDrill
T1C0.0118
; #@! TA.AperFunction,Plated,PTH,ComponentDrill
T2C0.0394
; #@! TA.AperFunction,Plated,PTH,ComponentDrill
T3C0.0598
%
G90
G05
T1
X3.3178Y-1.2626
X3.4862Y-3.2622
X3.5874Y-4.1589
X3.6773Y-3.8308
X3.681Y-4.2347
X3.681Y-4.8107
X3.9558Y-4.7615
X4.0178Y-1.3799
X4.1344Y-4.8046
X4.1758Y-3.4882
X4.2499Y-2.4358
X4.2502Y-4.0783
X4.2511Y-1.3732
X4.277Y-1.6256
X4.2818Y-2.4032
X4.3678Y-5.2516
X4.4622Y-5.9258
X4.7179Y-1.3798
X4.8377Y-1.3799
X5.0678Y-1.4963
X5.2353Y-1.7835
X5.5433Y-1.2238
X5.6319Y-5.1144
X5.6332Y-2.0839
X5.6511Y-1.2119
X5.6511Y-1.4235
X5.6511Y-4.128
X5.6536Y-3.5657
X5.6536Y-3.9207
X5.7538Y-1.7179
X5.7678Y-2.1116
X5.7678Y-2.7878
X6.1432Y-3.2199
X6.2334Y-2.2021
X6.245Y-1.796
X6.3115Y-1.231
X6.3183Y-4.0696
X6.3511Y-1.3799
X6.4573Y-3.1907
X6.4677Y-1.167
X6.4677Y-6.0728
X6.554Y-1.5632
X6.7401Y-1.4254
X6.8177Y-1.1473
X6.8177Y-3.1664
X6.9093Y-2.3823
X6.9162Y-1.4889
X6.9716Y-3.1664
X7.0253Y-2.2233
X7.0511Y-5.6035
X7.0913Y-2.3223
X7.1235Y-2.0608
X7.1692Y-2.9051
X7.2844Y-4.756
X7.3845Y-3.1459
X7.3897Y-1.5586
X7.749Y-1.1749
X7.7898Y-1.5464
X7.8442Y-1.8885
X7.8467Y-1.473
X7.8663Y-5.0155
X7.9394Y-1.2516
X7.9577Y-4.0452
X7.9844Y-5.9555
X7.9923Y-1.5577
X8.0131Y-1.8756
X8.1145Y-1.5034
X8.2138Y-2.0696
X8.2177Y-5.8436
X8.2536Y-3.1335
X8.3344Y-3.0224
X8.3655Y-1.8492
X8.3655Y-5.6918
X8.3706Y-4.8116
T2
X3.2697Y-4.0846
X3.2697Y-4.1846
X3.4862Y-2.4606
X3.4862Y-2.5606
X3.8878Y-3.9075
X3.8878Y-4.0075
X3.8878Y-4.1075
X3.8878Y-4.2075
X4.1043Y-2.2835
X4.1043Y-2.3835
X4.1043Y-2.4835
X4.1043Y-2.5835
X4.3307Y-4.0866
X4.3307Y-4.1866
X4.7953Y-2.4685
X4.7953Y-2.5685
X4.7953Y-5.6654
X4.7953Y-5.7654
X4.9488Y-3.9094
X4.9488Y-4.0094
X4.9488Y-4.1094
X4.9488Y-4.2094
X5.4134Y-2.2913
X5.4134Y-2.3913
X5.4134Y-2.4913
X5.4134Y-2.5913
X5.4134Y-5.4882
X5.4134Y-5.5882
X5.4134Y-5.6882
X5.4134Y-5.7882
X5.5394Y-4.0787
X5.5394Y-4.1787
X6.0945Y-2.4685
X6.0945Y-2.5685
X6.1575Y-3.9016
X6.1575Y-4.0016
X6.1575Y-4.1016
X6.1575Y-4.2016
X6.3593Y-5.7008
X6.4593Y-5.7008
X6.4945Y-1.2858
X6.4945Y-1.3858
X6.5748Y-4.0866
X6.5748Y-4.1866
X6.5945Y-1.2858
X6.5945Y-1.3858
X6.6945Y-1.2858
X6.6945Y-1.3858
X6.7126Y-2.2913
X6.7126Y-2.3913
X6.7126Y-2.4913
X6.7126Y-2.5913
X6.7945Y-1.2858
X6.7945Y-1.3858
X6.8945Y-1.2858
X6.8945Y-1.3858
X6.9945Y-1.2858
X6.9945Y-1.3858
X7.0945Y-1.2858
X7.0945Y-1.3858
X7.1929Y-3.9094
X7.1929Y-4.0094
X7.1929Y-4.1094
X7.1929Y-4.2094
X7.1945Y-1.2858
X7.1945Y-1.3858
X7.2945Y-1.2858
X7.2945Y-1.3858
X7.3888Y-2.4518
X7.3888Y-2.5518
X7.3945Y-1.2858
X7.3945Y-1.3858
X7.4945Y-1.2858
X7.4945Y-1.3858
X7.5945Y-1.2858
X7.5945Y-1.3858
X7.6142Y-4.0866
X7.6142Y-4.1866
X7.6417Y-5.7047
X7.6945Y-1.2858
X7.6945Y-1.3858
X7.7417Y-5.7047
X7.7945Y-1.2858
X7.7945Y-1.3858
X7.8945Y-1.2858
X7.8945Y-1.3858
X7.9945Y-1.2858
X7.9945Y-1.3858
X8.0069Y-2.2746
X8.0069Y-2.3746
X8.0069Y-2.4746
X8.0069Y-2.5746
X8.0945Y-1.2858
X8.0945Y-1.3858
X8.1945Y-1.2858
X8.1945Y-1.3858
X8.2323Y-3.9094
X8.2323Y-4.0094
X8.2323Y-4.1094
X8.2323Y-4.2094
X8.2945Y-1.2858
X8.2945Y-1.3858
X8.3945Y-1.2858
X8.3945Y-1.3858
T3
X3.4512Y-1.252
X3.5874Y-6.2067
X3.6512Y-1.252
X3.7874Y-6.2067
M30
