%TF.GenerationSoftware,KiCad,Pcbnew,9.0.2*%
%TF.CreationDate,2025-09-13T21:02:54+02:00*%
%TF.ProjectId,emer-elec-power_gpws_rcdr,656d6572-2d65-46c6-9563-2d706f776572,rev?*%
%TF.SameCoordinates,Original*%
%TF.FileFunction,Copper,L2,Bot*%
%TF.FilePolarity,Positive*%
%FSLAX46Y46*%
G04 Gerber Fmt 4.6, Leading zero omitted, Abs format (unit mm)*
G04 Created by KiCad (PCBNEW 9.0.2) date 2025-09-13 21:02:54*
%MOMM*%
%LPD*%
G01*
G04 APERTURE LIST*
%TA.AperFunction,ComponentPad*%
%ADD10R,1.700000X1.700000*%
%TD*%
%TA.AperFunction,ComponentPad*%
%ADD11C,1.700000*%
%TD*%
%TA.AperFunction,ComponentPad*%
%ADD12R,1.500000X1.500000*%
%TD*%
%TA.AperFunction,ComponentPad*%
%ADD13R,3.000000X3.000000*%
%TD*%
%TA.AperFunction,ComponentPad*%
%ADD14C,3.000000*%
%TD*%
%TA.AperFunction,ViaPad*%
%ADD15C,0.600000*%
%TD*%
%TA.AperFunction,Conductor*%
%ADD16C,0.600000*%
%TD*%
%TA.AperFunction,Conductor*%
%ADD17C,0.200000*%
%TD*%
G04 APERTURE END LIST*
D10*
%TO.P,J5,1,Pin_1*%
%TO.N,GND*%
X161525000Y-144800000D03*
D11*
%TO.P,J5,2,Pin_2*%
%TO.N,Net-(J2-Pin_26)*%
X164065000Y-144800000D03*
%TD*%
D12*
%TO.P,KR5,1,+5V_TOP_LED*%
%TO.N,Net-(J2-Pin_7)*%
X156400000Y-99100000D03*
%TO.P,KR5,2,GND_TOP_LED*%
%TO.N,GND*%
X156400000Y-101640000D03*
%TO.P,KR5,3,+5V_BOTTOM_LED*%
%TO.N,Net-(J2-Pin_8)*%
X156400000Y-104180000D03*
%TO.P,KR5,4,GND_BOTTOM_LED*%
%TO.N,GND*%
X156400000Y-106720000D03*
%TO.P,KR5,5,SW_IN*%
%TO.N,Net-(J2-Pin_9)*%
X140700000Y-103600000D03*
%TO.P,KR5,6,SW_OUT*%
%TO.N,GND*%
X140700000Y-106140000D03*
%TD*%
%TO.P,KR6,1,+5V_TOP_LED*%
%TO.N,Net-(J2-Pin_16)*%
X182700000Y-99300000D03*
%TO.P,KR6,2,GND_TOP_LED*%
%TO.N,GND*%
X182700000Y-101840000D03*
%TO.P,KR6,3,+5V_BOTTOM_LED*%
%TO.N,Net-(J2-Pin_17)*%
X182700000Y-104380000D03*
%TO.P,KR6,4,GND_BOTTOM_LED*%
%TO.N,GND*%
X182700000Y-106920000D03*
%TO.P,KR6,5,SW_IN*%
%TO.N,Net-(J2-Pin_18)*%
X167000000Y-103800000D03*
%TO.P,KR6,6,SW_OUT*%
%TO.N,GND*%
X167000000Y-106340000D03*
%TD*%
%TO.P,KR4,1,+5V_TOP_LED*%
%TO.N,Net-(J2-Pin_13)*%
X125700000Y-99300000D03*
%TO.P,KR4,2,GND_TOP_LED*%
%TO.N,GND*%
X125700000Y-101840000D03*
%TO.P,KR4,3,+5V_BOTTOM_LED*%
%TO.N,Net-(J2-Pin_14)*%
X125700000Y-104380000D03*
%TO.P,KR4,4,GND_BOTTOM_LED*%
%TO.N,GND*%
X125700000Y-106920000D03*
%TO.P,KR4,5,SW_IN*%
%TO.N,Net-(J2-Pin_15)*%
X110000000Y-103800000D03*
%TO.P,KR4,6,SW_OUT*%
%TO.N,GND*%
X110000000Y-106340000D03*
%TD*%
%TO.P,KR8,1,+5V_TOP_LED*%
%TO.N,Net-(J2-Pin_22)*%
X137500000Y-139400000D03*
%TO.P,KR8,2,GND_TOP_LED*%
%TO.N,unconnected-(KR8-GND_TOP_LED-Pad2)*%
X137500000Y-141940000D03*
%TO.P,KR8,3,+5V_BOTTOM_LED*%
%TO.N,Net-(J2-Pin_23)*%
X137500000Y-144480000D03*
%TO.P,KR8,4,GND_BOTTOM_LED*%
%TO.N,unconnected-(KR8-GND_BOTTOM_LED-Pad4)*%
X137500000Y-147020000D03*
%TO.P,KR8,5,SW_IN*%
%TO.N,Net-(J2-Pin_24)*%
X121800000Y-143900000D03*
%TO.P,KR8,6,SW_OUT*%
%TO.N,unconnected-(KR8-SW_OUT-Pad6)*%
X121800000Y-146440000D03*
%TD*%
%TO.P,KR10,1,+5V_TOP_LED*%
%TO.N,unconnected-(KR10-+5V_TOP_LED-Pad1)*%
X203375000Y-57775000D03*
%TO.P,KR10,2,GND_TOP_LED*%
%TO.N,unconnected-(KR10-GND_TOP_LED-Pad2)*%
X203375000Y-60315000D03*
%TO.P,KR10,3,+5V_BOTTOM_LED*%
%TO.N,unconnected-(KR10-+5V_BOTTOM_LED-Pad3)*%
X203375000Y-62855000D03*
%TO.P,KR10,4,GND_BOTTOM_LED*%
%TO.N,unconnected-(KR10-GND_BOTTOM_LED-Pad4)*%
X203375000Y-65395000D03*
%TO.P,KR10,5,SW_IN*%
%TO.N,Net-(J2-Pin_27)*%
X187675000Y-62275000D03*
%TO.P,KR10,6,SW_OUT*%
%TO.N,GND*%
X187675000Y-64815000D03*
%TD*%
%TO.P,KR7,1,+5V_TOP_LED*%
%TO.N,Net-(J2-Pin_19)*%
X209100000Y-99300000D03*
%TO.P,KR7,2,GND_TOP_LED*%
%TO.N,unconnected-(KR7-GND_TOP_LED-Pad2)*%
X209100000Y-101840000D03*
%TO.P,KR7,3,+5V_BOTTOM_LED*%
%TO.N,Net-(J2-Pin_20)*%
X209100000Y-104380000D03*
%TO.P,KR7,4,GND_BOTTOM_LED*%
%TO.N,unconnected-(KR7-GND_BOTTOM_LED-Pad4)*%
X209100000Y-106920000D03*
%TO.P,KR7,5,SW_IN*%
%TO.N,Net-(J2-Pin_21)*%
X193400000Y-103800000D03*
%TO.P,KR7,6,SW_OUT*%
%TO.N,unconnected-(KR7-SW_OUT-Pad6)*%
X193400000Y-106340000D03*
%TD*%
%TO.P,KR3,1,+5V_TOP_LED*%
%TO.N,Net-(J2-Pin_4)*%
X98750000Y-99250000D03*
%TO.P,KR3,2,GND_TOP_LED*%
%TO.N,GND*%
X98750000Y-101790000D03*
%TO.P,KR3,3,+5V_BOTTOM_LED*%
%TO.N,Net-(J2-Pin_5)*%
X98750000Y-104330000D03*
%TO.P,KR3,4,GND_BOTTOM_LED*%
%TO.N,GND*%
X98750000Y-106870000D03*
%TO.P,KR3,5,SW_IN*%
%TO.N,Net-(J2-Pin_6)*%
X83050000Y-103750000D03*
%TO.P,KR3,6,SW_OUT*%
%TO.N,GND*%
X83050000Y-106290000D03*
%TD*%
%TO.P,KR2,1,+5V_TOP_LED*%
%TO.N,Net-(J2-Pin_10)*%
X170500000Y-58200000D03*
%TO.P,KR2,2,GND_TOP_LED*%
%TO.N,GND*%
X170500000Y-60740000D03*
%TO.P,KR2,3,+5V_BOTTOM_LED*%
%TO.N,Net-(J2-Pin_11)*%
X170500000Y-63280000D03*
%TO.P,KR2,4,GND_BOTTOM_LED*%
%TO.N,GND*%
X170500000Y-65820000D03*
%TO.P,KR2,5,SW_IN*%
%TO.N,Net-(J2-Pin_12)*%
X154800000Y-62700000D03*
%TO.P,KR2,6,SW_OUT*%
%TO.N,GND*%
X154800000Y-65240000D03*
%TD*%
%TO.P,KR1,1,+5V_TOP_LED*%
%TO.N,Net-(J2-Pin_1)*%
X137500000Y-58200000D03*
%TO.P,KR1,2,GND_TOP_LED*%
%TO.N,GND*%
X137500000Y-60740000D03*
%TO.P,KR1,3,+5V_BOTTOM_LED*%
%TO.N,Net-(J2-Pin_2)*%
X137500000Y-63280000D03*
%TO.P,KR1,4,GND_BOTTOM_LED*%
%TO.N,GND*%
X137500000Y-65820000D03*
%TO.P,KR1,5,SW_IN*%
%TO.N,Net-(J2-Pin_3)*%
X121800000Y-62700000D03*
%TO.P,KR1,6,SW_OUT*%
%TO.N,GND*%
X121800000Y-65240000D03*
%TD*%
D10*
%TO.P,J6,1,Pin_1*%
%TO.N,GND*%
X194100000Y-144900000D03*
D11*
%TO.P,J6,2,Pin_2*%
%TO.N,Net-(J2-Pin_28)*%
X196640000Y-144900000D03*
%TD*%
D12*
%TO.P,KR9,1,+5V_TOP_LED*%
%TO.N,unconnected-(KR9-+5V_TOP_LED-Pad1)*%
X104250000Y-58000000D03*
%TO.P,KR9,2,GND_TOP_LED*%
%TO.N,unconnected-(KR9-GND_TOP_LED-Pad2)*%
X104250000Y-60540000D03*
%TO.P,KR9,3,+5V_BOTTOM_LED*%
%TO.N,unconnected-(KR9-+5V_BOTTOM_LED-Pad3)*%
X104250000Y-63080000D03*
%TO.P,KR9,4,GND_BOTTOM_LED*%
%TO.N,unconnected-(KR9-GND_BOTTOM_LED-Pad4)*%
X104250000Y-65620000D03*
%TO.P,KR9,5,SW_IN*%
%TO.N,Net-(J2-Pin_25)*%
X88550000Y-62500000D03*
%TO.P,KR9,6,SW_OUT*%
%TO.N,GND*%
X88550000Y-65040000D03*
%TD*%
D10*
%TO.P,J2,1,Pin_1*%
%TO.N,Net-(J2-Pin_1)*%
X213220000Y-35200000D03*
D11*
%TO.P,J2,2,Pin_2*%
%TO.N,Net-(J2-Pin_2)*%
X213220000Y-32660000D03*
%TO.P,J2,3,Pin_3*%
%TO.N,Net-(J2-Pin_3)*%
X210680000Y-35200000D03*
%TO.P,J2,4,Pin_4*%
%TO.N,Net-(J2-Pin_4)*%
X210680000Y-32660000D03*
%TO.P,J2,5,Pin_5*%
%TO.N,Net-(J2-Pin_5)*%
X208140000Y-35200000D03*
%TO.P,J2,6,Pin_6*%
%TO.N,Net-(J2-Pin_6)*%
X208140000Y-32660000D03*
%TO.P,J2,7,Pin_7*%
%TO.N,Net-(J2-Pin_7)*%
X205600000Y-35200000D03*
%TO.P,J2,8,Pin_8*%
%TO.N,Net-(J2-Pin_8)*%
X205600000Y-32660000D03*
%TO.P,J2,9,Pin_9*%
%TO.N,Net-(J2-Pin_9)*%
X203060000Y-35200000D03*
%TO.P,J2,10,Pin_10*%
%TO.N,Net-(J2-Pin_10)*%
X203060000Y-32660000D03*
%TO.P,J2,11,Pin_11*%
%TO.N,Net-(J2-Pin_11)*%
X200520000Y-35200000D03*
%TO.P,J2,12,Pin_12*%
%TO.N,Net-(J2-Pin_12)*%
X200520000Y-32660000D03*
%TO.P,J2,13,Pin_13*%
%TO.N,Net-(J2-Pin_13)*%
X197980000Y-35200000D03*
%TO.P,J2,14,Pin_14*%
%TO.N,Net-(J2-Pin_14)*%
X197980000Y-32660000D03*
%TO.P,J2,15,Pin_15*%
%TO.N,Net-(J2-Pin_15)*%
X195440000Y-35200000D03*
%TO.P,J2,16,Pin_16*%
%TO.N,Net-(J2-Pin_16)*%
X195440000Y-32660000D03*
%TO.P,J2,17,Pin_17*%
%TO.N,Net-(J2-Pin_17)*%
X192900000Y-35200000D03*
%TO.P,J2,18,Pin_18*%
%TO.N,Net-(J2-Pin_18)*%
X192900000Y-32660000D03*
%TO.P,J2,19,Pin_19*%
%TO.N,Net-(J2-Pin_19)*%
X190360000Y-35200000D03*
%TO.P,J2,20,Pin_20*%
%TO.N,Net-(J2-Pin_20)*%
X190360000Y-32660000D03*
%TO.P,J2,21,Pin_21*%
%TO.N,Net-(J2-Pin_21)*%
X187820000Y-35200000D03*
%TO.P,J2,22,Pin_22*%
%TO.N,Net-(J2-Pin_22)*%
X187820000Y-32660000D03*
%TO.P,J2,23,Pin_23*%
%TO.N,Net-(J2-Pin_23)*%
X185280000Y-35200000D03*
%TO.P,J2,24,Pin_24*%
%TO.N,Net-(J2-Pin_24)*%
X185280000Y-32660000D03*
%TO.P,J2,25,Pin_25*%
%TO.N,Net-(J2-Pin_25)*%
X182740000Y-35200000D03*
%TO.P,J2,26,Pin_26*%
%TO.N,Net-(J2-Pin_26)*%
X182740000Y-32660000D03*
%TO.P,J2,27,Pin_27*%
%TO.N,Net-(J2-Pin_27)*%
X180200000Y-35200000D03*
%TO.P,J2,28,Pin_28*%
%TO.N,Net-(J2-Pin_28)*%
X180200000Y-32660000D03*
%TO.P,J2,29,Pin_29*%
%TO.N,unconnected-(J2-Pin_29-Pad29)*%
X177660000Y-35200000D03*
%TO.P,J2,30,Pin_30*%
%TO.N,unconnected-(J2-Pin_30-Pad30)*%
X177660000Y-32660000D03*
%TO.P,J2,31,Pin_31*%
%TO.N,unconnected-(J2-Pin_31-Pad31)*%
X175120000Y-35200000D03*
%TO.P,J2,32,Pin_32*%
%TO.N,unconnected-(J2-Pin_32-Pad32)*%
X175120000Y-32660000D03*
%TO.P,J2,33,Pin_33*%
%TO.N,unconnected-(J2-Pin_33-Pad33)*%
X172580000Y-35200000D03*
%TO.P,J2,34,Pin_34*%
%TO.N,unconnected-(J2-Pin_34-Pad34)*%
X172580000Y-32660000D03*
%TO.P,J2,35,Pin_35*%
%TO.N,unconnected-(J2-Pin_35-Pad35)*%
X170040000Y-35200000D03*
%TO.P,J2,36,Pin_36*%
%TO.N,unconnected-(J2-Pin_36-Pad36)*%
X170040000Y-32660000D03*
%TO.P,J2,37,Pin_37*%
%TO.N,unconnected-(J2-Pin_37-Pad37)*%
X167500000Y-35200000D03*
%TO.P,J2,38,Pin_38*%
%TO.N,unconnected-(J2-Pin_38-Pad38)*%
X167500000Y-32660000D03*
%TO.P,J2,39,Pin_39*%
%TO.N,unconnected-(J2-Pin_39-Pad39)*%
X164960000Y-35200000D03*
%TO.P,J2,40,Pin_40*%
%TO.N,unconnected-(J2-Pin_40-Pad40)*%
X164960000Y-32660000D03*
%TD*%
D13*
%TO.P,J1,1,Pin_1*%
%TO.N,GND*%
X87660000Y-31800000D03*
D14*
%TO.P,J1,2,Pin_2*%
%TO.N,+12V*%
X92740000Y-31800000D03*
%TD*%
D13*
%TO.P,J7,1,Pin_1*%
%TO.N,GND*%
X96200000Y-157650000D03*
D14*
%TO.P,J7,2,Pin_2*%
%TO.N,+12V*%
X91120000Y-157650000D03*
%TD*%
D15*
%TO.N,+12V*%
X93402200Y-97302300D03*
X202803600Y-151270000D03*
X143537600Y-104851700D03*
X199803700Y-127393400D03*
X106064200Y-88600000D03*
X143049900Y-129905600D03*
X143602300Y-99585800D03*
X108757300Y-61040900D03*
X143602300Y-90568600D03*
X91120000Y-105635000D03*
%TO.N,Net-(D4-K)*%
X108635400Y-41290100D03*
X107947600Y-61870000D03*
%TO.N,Net-(D7-K)*%
X146146000Y-43635100D03*
X146500900Y-53635600D03*
%TO.N,Net-(D8-K)*%
X146500900Y-70810000D03*
X143082700Y-52930000D03*
%TO.N,Net-(D10-K)*%
X166470500Y-39705500D03*
X164015000Y-81042600D03*
%TO.N,Net-(D13-K)*%
X177078000Y-80426200D03*
X178442800Y-56472500D03*
%TO.N,Net-(D14-K)*%
X180118800Y-58987600D03*
X182096700Y-73790000D03*
%TO.N,Net-(D16-K)*%
X208631000Y-52567400D03*
X206107800Y-38187400D03*
%TO.N,Net-(D17-K)*%
X173170600Y-80426100D03*
X175496300Y-60510000D03*
%TO.N,Net-(D20-K)*%
X209640900Y-79592000D03*
X212484300Y-46970000D03*
%TO.N,Net-(D21-K)*%
X156036700Y-81784400D03*
X158327900Y-55934600D03*
%TO.N,Net-(D30-K)*%
X93497200Y-122190700D03*
X93497200Y-107560700D03*
%TO.N,Net-(D32-K)*%
X107955600Y-103590000D03*
X105014700Y-122036100D03*
%TO.N,Net-(D42-K)*%
X110941300Y-133390000D03*
X113340900Y-150514700D03*
%TO.N,Net-(D51-K)*%
X208730200Y-148428000D03*
X211693500Y-76770000D03*
%TO.N,GND*%
X212613100Y-122215600D03*
X164280700Y-154250000D03*
X132977700Y-45300000D03*
X100477500Y-120941900D03*
X212484300Y-144572000D03*
X185023800Y-120802000D03*
X88550000Y-82860000D03*
X187566100Y-79905300D03*
%TO.N,Net-(J2-Pin_8)*%
X203003700Y-39566200D03*
X158624100Y-45617600D03*
%TO.N,Net-(J2-Pin_13)*%
X199306200Y-37413800D03*
X128721100Y-38004800D03*
%TO.N,Net-(J2-Pin_2)*%
X143537600Y-30781100D03*
%TO.N,Net-(J2-Pin_6)*%
X84271600Y-32070000D03*
%TO.N,Net-(J2-Pin_7)*%
X161317400Y-35050000D03*
%TO.N,Net-(J2-Pin_18)*%
X171198600Y-36204100D03*
%TO.N,Net-(J2-Pin_17)*%
X203532100Y-47641200D03*
X202126100Y-102748300D03*
X199242300Y-47968700D03*
%TO.N,Net-(J2-Pin_5)*%
X107978000Y-34880000D03*
%TO.N,Net-(J2-Pin_4)*%
X201661000Y-31790600D03*
X102051400Y-35050000D03*
%TO.N,Net-(J2-Pin_25)*%
X180936600Y-52343500D03*
%TO.N,Net-(J2-Pin_10)*%
X173170600Y-29141700D03*
%TO.N,Net-(J2-Pin_9)*%
X143537600Y-36157300D03*
%TO.N,Net-(J2-Pin_11)*%
X175670700Y-37817900D03*
%TO.N,Net-(J2-Pin_23)*%
X179097200Y-142330000D03*
%TO.N,Net-(J2-Pin_24)*%
X122876700Y-35050000D03*
%TO.N,Net-(J2-Pin_16)*%
X197861100Y-39278200D03*
X187698100Y-39588800D03*
%TO.N,Net-(J2-Pin_15)*%
X119834400Y-35046800D03*
%TO.N,Net-(J2-Pin_14)*%
X196825100Y-29841300D03*
X160484900Y-103368400D03*
X164280700Y-29641200D03*
%TO.N,Net-(J2-Pin_12)*%
X160313000Y-31268000D03*
%TO.N,Net-(J2-Pin_22)*%
X140799500Y-31085400D03*
%TD*%
D16*
%TO.N,+12V*%
X143049900Y-105339400D02*
X143537600Y-104851700D01*
X143049900Y-129905600D02*
X143049900Y-105339400D01*
X91120000Y-157650000D02*
X91120000Y-105635000D01*
X91120000Y-105635000D02*
X91120000Y-99584500D01*
X143537600Y-104851700D02*
X143602300Y-104787000D01*
X108757300Y-61040900D02*
X108757300Y-85906900D01*
X108757300Y-85906900D02*
X106064200Y-88600000D01*
X202803600Y-130393300D02*
X199803700Y-127393400D01*
X143602300Y-104787000D02*
X143602300Y-99585800D01*
X202803600Y-151270000D02*
X202803600Y-130393300D01*
X143602300Y-99585800D02*
X143602300Y-90568600D01*
X91120000Y-99584500D02*
X93402200Y-97302300D01*
D17*
%TO.N,Net-(D4-K)*%
X107947600Y-41977900D02*
X108635400Y-41290100D01*
X107947600Y-61870000D02*
X107947600Y-41977900D01*
%TO.N,Net-(D7-K)*%
X146500900Y-43990000D02*
X146146000Y-43635100D01*
X146500900Y-53635600D02*
X146500900Y-43990000D01*
%TO.N,Net-(D8-K)*%
X146500900Y-70810000D02*
X143082700Y-67391800D01*
X143082700Y-67391800D02*
X143082700Y-52930000D01*
%TO.N,Net-(D10-K)*%
X164015000Y-42161000D02*
X164015000Y-81042600D01*
X166470500Y-39705500D02*
X164015000Y-42161000D01*
%TO.N,Net-(D13-K)*%
X178442800Y-56472500D02*
X177078000Y-57837300D01*
X177078000Y-57837300D02*
X177078000Y-80426200D01*
%TO.N,Net-(D14-K)*%
X182096700Y-60965500D02*
X182096700Y-73790000D01*
X180118800Y-58987600D02*
X182096700Y-60965500D01*
%TO.N,Net-(D16-K)*%
X208631000Y-40710600D02*
X206107800Y-38187400D01*
X208631000Y-52567400D02*
X208631000Y-40710600D01*
%TO.N,Net-(D17-K)*%
X175496300Y-78100400D02*
X175496300Y-60510000D01*
X173170600Y-80426100D02*
X175496300Y-78100400D01*
%TO.N,Net-(D20-K)*%
X209640900Y-49813400D02*
X212484300Y-46970000D01*
X209640900Y-79592000D02*
X209640900Y-49813400D01*
%TO.N,Net-(D21-K)*%
X158327900Y-55934600D02*
X158327900Y-79493200D01*
X158327900Y-79493200D02*
X156036700Y-81784400D01*
%TO.N,Net-(D30-K)*%
X93497200Y-122190700D02*
X93497200Y-107560700D01*
%TO.N,Net-(D32-K)*%
X105014700Y-122036100D02*
X107955600Y-119095200D01*
X107955600Y-119095200D02*
X107955600Y-103590000D01*
%TO.N,Net-(D42-K)*%
X113340900Y-150514700D02*
X113340900Y-135789600D01*
X113340900Y-135789600D02*
X110941300Y-133390000D01*
%TO.N,Net-(D51-K)*%
X211693500Y-76770000D02*
X211693500Y-145464700D01*
X211693500Y-145464700D02*
X208730200Y-148428000D01*
%TO.N,GND*%
X126225900Y-102891700D02*
X126751700Y-103417500D01*
X169448300Y-62317500D02*
X169448300Y-64242500D01*
X170500000Y-65820000D02*
X170500000Y-64768300D01*
X212484300Y-122344400D02*
X212613100Y-122215600D01*
X187566100Y-79905300D02*
X187675000Y-79796400D01*
X136448300Y-48770600D02*
X136448300Y-61791700D01*
X132977700Y-45300000D02*
X136448300Y-48770600D01*
X125700000Y-102891700D02*
X126225900Y-102891700D01*
X182700000Y-118478200D02*
X182700000Y-106920000D01*
X88550000Y-65040000D02*
X88550000Y-63988300D01*
X182700000Y-102891700D02*
X183225800Y-102891700D01*
X170500000Y-61791700D02*
X169974100Y-61791700D01*
X157451700Y-103305000D02*
X157451700Y-105142500D01*
X98750000Y-120941900D02*
X100477500Y-120941900D01*
X212484300Y-144572000D02*
X212484300Y-122344400D01*
X88550000Y-65040000D02*
X88550000Y-82860000D01*
X183751700Y-105342500D02*
X183225900Y-105868300D01*
X156925900Y-105668300D02*
X156400000Y-105668300D01*
X157451700Y-105142500D02*
X156925900Y-105668300D01*
X137500000Y-60740000D02*
X137500000Y-61791700D01*
X83575800Y-105238300D02*
X83050000Y-105238300D01*
X87498300Y-33763400D02*
X87498300Y-63462500D01*
X98224100Y-102841700D02*
X97698300Y-103367500D01*
X183225800Y-102891700D02*
X183751700Y-103417600D01*
X183751700Y-103417600D02*
X183751700Y-105342500D01*
X136448300Y-64242500D02*
X136974100Y-64768300D01*
X169448300Y-64242500D02*
X169974100Y-64768300D01*
X98750000Y-120941900D02*
X98750000Y-106870000D01*
X126225900Y-105868300D02*
X125700000Y-105868300D01*
X88024100Y-63988300D02*
X88550000Y-63988300D01*
X88550000Y-100264100D02*
X83575800Y-105238300D01*
X136974100Y-64768300D02*
X137500000Y-64768300D01*
X97698300Y-105292500D02*
X98224100Y-105818300D01*
X161525000Y-112866700D02*
X167000000Y-107391700D01*
X137500000Y-65820000D02*
X137500000Y-64768300D01*
X169974100Y-61791700D02*
X169448300Y-62317500D01*
X156400000Y-101640000D02*
X156400000Y-102691700D01*
X136448300Y-61791700D02*
X136448300Y-64242500D01*
X126751700Y-105342500D02*
X126225900Y-105868300D01*
X87660000Y-33601700D02*
X87498300Y-33763400D01*
X98750000Y-153298300D02*
X98750000Y-120941900D01*
X83050000Y-106290000D02*
X83050000Y-105238300D01*
X87498300Y-63462500D02*
X88024100Y-63988300D01*
X156838400Y-102691700D02*
X157451700Y-103305000D01*
X96200000Y-155848300D02*
X98750000Y-153298300D01*
X98224100Y-105818300D02*
X98750000Y-105818300D01*
X156400000Y-106720000D02*
X156400000Y-105668300D01*
X137500000Y-61791700D02*
X136448300Y-61791700D01*
X98750000Y-102841700D02*
X98224100Y-102841700D01*
X182700000Y-101840000D02*
X182700000Y-102891700D01*
X169974100Y-64768300D02*
X170500000Y-64768300D01*
X170500000Y-60740000D02*
X170500000Y-61791700D01*
X98750000Y-106870000D02*
X98750000Y-105818300D01*
X161525000Y-151494300D02*
X161525000Y-144800000D01*
X167000000Y-106340000D02*
X167000000Y-107391700D01*
X125700000Y-106920000D02*
X125700000Y-105868300D01*
X161525000Y-144800000D02*
X161525000Y-112866700D01*
X87660000Y-31800000D02*
X87660000Y-33601700D01*
X156400000Y-102691700D02*
X156838400Y-102691700D01*
X98750000Y-101790000D02*
X98750000Y-102841700D01*
X126751700Y-103417500D02*
X126751700Y-105342500D01*
X164280700Y-154250000D02*
X161525000Y-151494300D01*
X96200000Y-157650000D02*
X96200000Y-155848300D01*
X182700000Y-106920000D02*
X182700000Y-105868300D01*
X183225900Y-105868300D02*
X182700000Y-105868300D01*
X185023800Y-120802000D02*
X182700000Y-118478200D01*
X97698300Y-103367500D02*
X97698300Y-105292500D01*
X88550000Y-82860000D02*
X88550000Y-100264100D01*
X125700000Y-101840000D02*
X125700000Y-102891700D01*
X187675000Y-79796400D02*
X187675000Y-64815000D01*
%TO.N,Net-(J2-Pin_8)*%
X203003700Y-39566200D02*
X204211700Y-38358200D01*
X157164900Y-47076800D02*
X158624100Y-45617600D01*
X156400000Y-103128300D02*
X155874200Y-103128300D01*
X157164900Y-72450200D02*
X157164900Y-47076800D01*
X204211700Y-38358200D02*
X204211700Y-34048300D01*
X156400000Y-104180000D02*
X156400000Y-103128300D01*
X155319300Y-74295800D02*
X157164900Y-72450200D01*
X204211700Y-34048300D02*
X205600000Y-32660000D01*
X155319300Y-102573400D02*
X155319300Y-74295800D01*
X155874200Y-103128300D02*
X155319300Y-102573400D01*
%TO.N,Net-(J2-Pin_26)*%
X181470000Y-33930000D02*
X182740000Y-32660000D01*
X164065000Y-144800000D02*
X179044500Y-129820500D01*
X179044500Y-129820500D02*
X179044500Y-34667100D01*
X179781600Y-33930000D02*
X181470000Y-33930000D01*
X179044500Y-34667100D02*
X179781600Y-33930000D01*
%TO.N,Net-(J2-Pin_13)*%
X197980000Y-35200000D02*
X199306200Y-36526200D01*
X128721100Y-38004800D02*
X128721100Y-95227200D01*
X125700000Y-99300000D02*
X125700000Y-98248300D01*
X128721100Y-95227200D02*
X125700000Y-98248300D01*
X199306200Y-36526200D02*
X199306200Y-37413800D01*
%TO.N,Net-(J2-Pin_20)*%
X209100000Y-103328300D02*
X208574100Y-103328300D01*
X208574100Y-103328300D02*
X208048300Y-102802500D01*
X189160400Y-33859600D02*
X190360000Y-32660000D01*
X208048300Y-102802500D02*
X208048300Y-55913500D01*
X189160400Y-37025600D02*
X189160400Y-33859600D01*
X208048300Y-55913500D02*
X189160400Y-37025600D01*
X209100000Y-104380000D02*
X209100000Y-103328300D01*
%TO.N,Net-(J2-Pin_2)*%
X137500000Y-62228300D02*
X137950700Y-62228300D01*
X137950700Y-62228300D02*
X139783500Y-60395500D01*
X137500000Y-63280000D02*
X137500000Y-62228300D01*
X143238500Y-30482000D02*
X143537600Y-30781100D01*
X140491400Y-30482000D02*
X143238500Y-30482000D01*
X139783500Y-60395500D02*
X139783500Y-31189900D01*
X139783500Y-31189900D02*
X140491400Y-30482000D01*
%TO.N,Net-(J2-Pin_6)*%
X83050000Y-103750000D02*
X83050000Y-102698300D01*
X84271600Y-101476700D02*
X83050000Y-102698300D01*
X84271600Y-32070000D02*
X84271600Y-101476700D01*
%TO.N,Net-(J2-Pin_7)*%
X156400000Y-99100000D02*
X156400000Y-98048300D01*
X161317400Y-35050000D02*
X161317400Y-93130900D01*
X161317400Y-93130900D02*
X156400000Y-98048300D01*
%TO.N,Net-(J2-Pin_18)*%
X167000000Y-103800000D02*
X167000000Y-40402700D01*
X167000000Y-40402700D02*
X171198600Y-36204100D01*
%TO.N,Net-(J2-Pin_19)*%
X209100000Y-99300000D02*
X209100000Y-98248300D01*
X190360000Y-35200000D02*
X190360000Y-35529600D01*
X190360000Y-35529600D02*
X209039200Y-54208800D01*
X209039200Y-54208800D02*
X209039200Y-98187500D01*
X209039200Y-98187500D02*
X209100000Y-98248300D01*
%TO.N,Net-(J2-Pin_17)*%
X192900000Y-35200000D02*
X203532100Y-45832100D01*
X199242300Y-99864500D02*
X202126100Y-102748300D01*
X199242300Y-47968700D02*
X199242300Y-99864500D01*
X203532100Y-45832100D02*
X203532100Y-47641200D01*
%TO.N,Net-(J2-Pin_5)*%
X99275900Y-103278300D02*
X98750000Y-103278300D01*
X99801700Y-102752500D02*
X99275900Y-103278300D01*
X99801700Y-43056300D02*
X99801700Y-102752500D01*
X107978000Y-34880000D02*
X99801700Y-43056300D01*
X98750000Y-104330000D02*
X98750000Y-103278300D01*
%TO.N,Net-(J2-Pin_4)*%
X209528300Y-31508300D02*
X201943300Y-31508300D01*
X102051400Y-35050000D02*
X98750000Y-38351400D01*
X98750000Y-38351400D02*
X98750000Y-98198300D01*
X210680000Y-32660000D02*
X209528300Y-31508300D01*
X201943300Y-31508300D02*
X201661000Y-31790600D01*
X98750000Y-99250000D02*
X98750000Y-98198300D01*
%TO.N,Net-(J2-Pin_25)*%
X180936600Y-52343500D02*
X180936600Y-37003400D01*
X180936600Y-37003400D02*
X182740000Y-35200000D01*
%TO.N,Net-(J2-Pin_10)*%
X173765100Y-29736200D02*
X173765100Y-53883200D01*
X173170600Y-29141700D02*
X173765100Y-29736200D01*
X173765100Y-53883200D02*
X170500000Y-57148300D01*
X170500000Y-58200000D02*
X170500000Y-57148300D01*
%TO.N,Net-(J2-Pin_28)*%
X189530100Y-39131600D02*
X186668300Y-36269800D01*
X184010000Y-32276900D02*
X183212100Y-31479000D01*
X181381000Y-31479000D02*
X180200000Y-32660000D01*
X196640000Y-144900000D02*
X189530100Y-137790100D01*
X185698400Y-33930000D02*
X184861600Y-33930000D01*
X184010000Y-33078400D02*
X184010000Y-32276900D01*
X183212100Y-31479000D02*
X181381000Y-31479000D01*
X186668300Y-36269800D02*
X186668300Y-34899900D01*
X189530100Y-137790100D02*
X189530100Y-39131600D01*
X184861600Y-33930000D02*
X184010000Y-33078400D01*
X186668300Y-34899900D02*
X185698400Y-33930000D01*
%TO.N,Net-(J2-Pin_27)*%
X180200000Y-35200000D02*
X180200000Y-53748300D01*
X187675000Y-62275000D02*
X187675000Y-61223300D01*
X180200000Y-53748300D02*
X187675000Y-61223300D01*
%TO.N,Net-(J2-Pin_9)*%
X140700000Y-103600000D02*
X140700000Y-102548300D01*
X141751700Y-101496600D02*
X140700000Y-102548300D01*
X143537600Y-36157300D02*
X141751700Y-37943200D01*
X141751700Y-37943200D02*
X141751700Y-101496600D01*
%TO.N,Net-(J2-Pin_11)*%
X175670700Y-57583400D02*
X171025800Y-62228300D01*
X175670700Y-37817900D02*
X175670700Y-57583400D01*
X171025800Y-62228300D02*
X170500000Y-62228300D01*
X170500000Y-63280000D02*
X170500000Y-62228300D01*
%TO.N,Net-(J2-Pin_23)*%
X185280000Y-35767900D02*
X185280000Y-35200000D01*
X179097200Y-142330000D02*
X189128400Y-132298800D01*
X189128400Y-132298800D02*
X189128400Y-39616300D01*
X189128400Y-39616300D02*
X185280000Y-35767900D01*
%TO.N,Net-(J2-Pin_24)*%
X121800000Y-142848300D02*
X122876700Y-141771600D01*
X122876700Y-141771600D02*
X122876700Y-35050000D01*
X121800000Y-143900000D02*
X121800000Y-142848300D01*
%TO.N,Net-(J2-Pin_16)*%
X196828300Y-34048300D02*
X196828300Y-38245400D01*
X195440000Y-32660000D02*
X196828300Y-34048300D01*
X187698100Y-39588800D02*
X188726700Y-40617400D01*
X182700000Y-99300000D02*
X182700000Y-98248300D01*
X196828300Y-38245400D02*
X197861100Y-39278200D01*
X188726700Y-40617400D02*
X188726700Y-92221600D01*
X188726700Y-92221600D02*
X182700000Y-98248300D01*
%TO.N,Net-(J2-Pin_21)*%
X187820000Y-36335800D02*
X193400000Y-41915800D01*
X187820000Y-35200000D02*
X187820000Y-36335800D01*
X193400000Y-41915800D02*
X193400000Y-102748300D01*
X193400000Y-103800000D02*
X193400000Y-102748300D01*
%TO.N,Net-(J2-Pin_15)*%
X110000000Y-102748300D02*
X119834400Y-92913900D01*
X119834400Y-92913900D02*
X119834400Y-35046800D01*
X110000000Y-103800000D02*
X110000000Y-102748300D01*
%TO.N,Net-(J2-Pin_14)*%
X163400400Y-30521500D02*
X163400400Y-100452900D01*
X197980000Y-32660000D02*
X196825100Y-31505100D01*
X164280700Y-29641200D02*
X163400400Y-30521500D01*
X196825100Y-31505100D02*
X196825100Y-29841300D01*
X163400400Y-100452900D02*
X160484900Y-103368400D01*
%TO.N,Net-(J2-Pin_12)*%
X154800000Y-36781000D02*
X154800000Y-62700000D01*
X160313000Y-31268000D02*
X154800000Y-36781000D01*
%TO.N,Net-(J2-Pin_22)*%
X140799500Y-31085400D02*
X140799500Y-80937600D01*
X137500000Y-84237100D02*
X137500000Y-139400000D01*
X140799500Y-80937600D02*
X137500000Y-84237100D01*
%TD*%
M02*
