M48
; DRILL file {KiCad 9.0.2} date 2025-07-01T18:23:22+0200
; FORMAT={-:-/ absolute / inch / decimal}
; #@! TF.CreationDate,2025-07-01T18:23:22+02:00
; #@! TF.GenerationSoftware,Kicad,Pcbnew,9.0.2
; #@! TF.FileFunction,Plated,1,2,PTH
FMAT,2
INCH
; #@! TA.AperFunction,Plated,PTH,ViaDrill
T1C0.0118
; #@! TA.AperFunction,Plated,PTH,ComponentDrill
T2C0.0236
; #@! TA.AperFunction,Plated,PTH,ComponentDrill
T3C0.0394
; #@! TA.AperFunction,Plated,PTH,ComponentDrill
T4C0.0598
%
G90
G05
T1
X2.0253Y-7.15
X2.0366Y-6.4416
X2.1542Y-6.7958
X2.2717Y-8.0946
X2.2944Y-6.4416
X2.3607Y-3.5242
X2.4551Y-6.7958
X2.4977Y-5.463
X2.6244Y-4.6764
X2.6244Y-5.2422
X2.742Y-5.1342
X2.8596Y-3.4573
X2.9438Y-3.8441
X2.9633Y-7.9765
X2.9771Y-4.6706
X3.0947Y-4.3164
X3.0947Y-7.1267
X3.0996Y-6.4416
X3.1767Y-4.3812
X3.2123Y-6.9139
X3.2135Y-7.9765
X3.3476Y-5.2944
X3.3616Y-7.9434
X3.3983Y-6.5597
X3.4158Y-5.4891
X3.4685Y-6.8343
X3.565Y-7.9765
X3.6362Y-6.7958
X3.7781Y-5.1963
X3.8001Y-5.2609
X3.8001Y-7.1166
X3.8334Y-3.7261
X3.8334Y-4.531
X3.9177Y-4.7396
X3.9928Y-5.2944
X4.1778Y-6.4416
X4.2438Y-6.4416
X4.2523Y-5.5166
X4.3041Y-5.3451
X4.3879Y-5.3286
X4.4275Y-5.4573
X4.5044Y-5.8411
X4.5055Y-6.4416
X4.5055Y-7.0319
X4.6394Y-6.9139
X4.6394Y-7.9765
X4.6645Y-7.9411
X4.781Y-4.0411
X4.833Y-3.5843
X4.8401Y-3.9438
X4.8696Y-3.3605
X4.8965Y-6.9139
X4.9758Y-4.4653
X4.9758Y-5.4437
X4.9758Y-7.9494
X5.0933Y-3.4899
X5.0933Y-4.6805
X5.098Y-4.1606
X5.1059Y-6.9139
X5.2062Y-4.6805
X5.3285Y-3.4565
X5.3285Y-4.4413
X5.446Y-3.608
X5.5262Y-6.4416
X5.5361Y-7.0319
X5.6812Y-5.951
X5.6812Y-7.8584
X5.7176Y-6.4556
X5.7698Y-7.5365
X5.7987Y-3.4398
X5.8093Y-5.379
X5.842Y-8.0219
X5.8888Y-5.4971
X5.9927Y-4.4448
X5.9963Y-5.4063
X5.997Y-6.9865
X6.053Y-3.5804
X6.143Y-4.6706
X6.2293Y-7.3902
X6.269Y-5.0151
X6.269Y-7.9367
X6.2882Y-7.2216
X6.3034Y-6.7822
X6.341Y-5.4516
X6.368Y-5.5436
X6.3898Y-6.9977
X6.4311Y-5.7442
X6.4642Y-6.4416
X6.4994Y-5.5985
X6.6108Y-5.6287
X6.6217Y-5.6859
X6.6496Y-5.4624
X6.669Y-5.67
X6.7393Y-4.6706
X6.7393Y-6.6777
X6.7393Y-7.4196
X6.7471Y-5.8733
X6.7633Y-7.348
X6.7787Y-3.6745
X6.856Y-4.3074
X6.8568Y-5.8513
X6.8751Y-7.304
X6.938Y-5.4607
X6.9426Y-4.2965
X6.9546Y-5.8847
X6.9639Y-4.3579
X6.9657Y-3.1819
X7.0114Y-4.3094
X7.0472Y-4.2829
X7.0567Y-5.056
X7.0645Y-3.5129
X7.0666Y-3.7064
X7.069Y-4.209
X7.088Y-4.0697
X7.092Y-5.0331
X7.1055Y-3.5126
X7.1151Y-3.7644
X7.1229Y-3.2272
X7.1253Y-4.4101
X7.1527Y-3.6685
X7.2044Y-3.7198
X7.2095Y-6.4416
X7.2806Y-3.8038
X7.3271Y-6.6469
X7.3532Y-3.4647
X7.3608Y-4.1983
X7.3654Y-7.8919
X7.3733Y-5.1388
X7.427Y-4.6706
X7.4329Y-5.7662
X7.4447Y-5.0546
X7.4447Y-7.8584
X7.4523Y-6.9215
X7.468Y-3.4402
X7.5095Y-4.0051
X7.5516Y-4.2077
X7.5528Y-6.951
X7.5589Y-3.8004
X7.5995Y-4.7533
X7.6039Y-4.5748
X7.6429Y-3.1691
X7.6541Y-4.0608
X7.6685Y-6.0874
X7.6796Y-5.6953
X7.6798Y-7.4027
X7.7807Y-3.2667
X7.793Y-7.1714
X7.7954Y-7.0483
X7.8307Y-7.173
X7.8538Y-6.7958
X7.9445Y-7.3747
X7.9789Y-5.9693
X8.039Y-5.8513
X8.071Y-4.1939
X8.076Y-3.8648
X8.0979Y-4.6706
X8.1124Y-6.5597
X8.1125Y-5.0331
X8.1415Y-7.1596
X8.1798Y-5.3822
X8.207Y-7.9557
X8.2676Y-5.3622
X8.3002Y-5.8513
X8.3161Y-3.4873
X8.3675Y-4.2513
X8.4156Y-5.1429
X8.5028Y-6.6777
X8.5821Y-3.6739
X8.6203Y-8.0946
X8.6593Y-4.1339
X8.7029Y-4.1326
X8.7039Y-3.4434
X8.751Y-3.5225
X8.9014Y-5.6699
X8.9082Y-3.6591
X8.9101Y-5.9693
X8.973Y-4.6706
X8.9898Y-3.4283
X8.9903Y-5.2275
X9.0099Y-3.2132
X9.0147Y-4.5088
X9.0674Y-4.5421
X9.085Y-6.9139
X9.1471Y-3.7586
X9.1754Y-6.3235
X9.2Y-3.647
X9.2082Y-7.8377
X9.2741Y-5.8607
X9.2917Y-4.23
X9.3069Y-3.8119
X9.3257Y-4.1983
X9.3267Y-4.6013
X9.3285Y-4.4377
X9.3426Y-4.5166
X9.366Y-3.9377
X9.4082Y-3.8688
X9.441Y-3.9786
X9.4509Y-3.8744
X9.4511Y-4.2624
X9.452Y-5.4667
X9.47Y-4.6791
X9.4786Y-5.4452
X9.55Y-3.8383
X9.5574Y-3.9524
X9.6025Y-7.2928
X9.6137Y-3.4734
X9.6784Y-4.5068
X9.6784Y-7.1724
X9.8402Y-4.4377
X10.0177Y-7.0319
X10.1179Y-8.0148
X10.1257Y-5.236
X10.2644Y-4.2084
X10.2677Y-6.2041
X10.3109Y-4.0504
X10.3838Y-4.5198
X10.3838Y-5.1429
X10.3838Y-6.3235
X10.3838Y-7.2352
X10.4681Y-6.172
X10.5014Y-5.451
X10.5156Y-3.4899
X10.619Y-3.608
X10.6483Y-4.64
X10.7802Y-4.7506
X10.8248Y-4.6802
X10.8489Y-5.4855
X10.8541Y-3.7264
X11.0703Y-7.0319
X11.2068Y-3.2704
X11.2263Y-7.9552
X11.2489Y-7.9319
X11.3244Y-3.1879
X11.3244Y-6.0874
X11.3244Y-7.0319
X11.4419Y-7.6223
X11.4419Y-8.0015
X11.5639Y-5.2781
X11.6738Y-6.7925
X11.7097Y-7.5042
X11.7946Y-5.1429
X11.8177Y-4.4345
X12.0298Y-3.8441
X12.1224Y-3.1853
X12.4644Y-3.1719
X12.5Y-7.9651
X12.5397Y-6.6885
X12.5414Y-5.2853
X12.5452Y-6.1746
X12.7085Y-7.5042
X12.7352Y-7.0319
X12.8585Y-3.4632
X12.9084Y-3.8506
X12.9681Y-7.9448
X12.9703Y-4.7887
X12.9998Y-5.7332
X13.0036Y-7.0319
X13.0775Y-5.0014
X13.0879Y-6.9139
X13.1178Y-4.4035
X13.1686Y-7.4695
X13.204Y-3.2553
X13.2054Y-6.6704
X13.2054Y-7.8584
X13.224Y-5.0449
X13.323Y-4.766
X13.3256Y-5.5747
X13.3434Y-4.8433
X13.3849Y-8.1503
X13.4075Y-3.812
X13.4406Y-3.3719
X13.5581Y-6.0874
X13.5581Y-7.15
X13.6454Y-6.8721
X13.6472Y-7.9765
X13.7793Y-4.5385
X13.7933Y-5.1429
X13.7933Y-6.9139
X13.8734Y-6.1918
X13.8734Y-6.6778
X13.8838Y-6.6453
X13.9026Y-7.6223
X13.9764Y-4.9559
X14.0284Y-5.0248
X14.1166Y-3.9622
X14.1293Y-3.8611
X14.1646Y-4.7725
X14.203Y-5.3678
X14.2392Y-5.5271
X14.2431Y-5.0552
X14.2635Y-3.4899
X14.2932Y-5.9393
T2
X2.4429Y-4.061
X2.4429Y-4.161
X3.061Y-3.8839
X3.061Y-3.9839
X3.061Y-4.0839
X3.061Y-4.1839
X4.9724Y-4.0669
X4.9724Y-4.1669
X5.5906Y-3.8898
X5.5906Y-3.9898
X5.5906Y-4.0898
X5.5906Y-4.1898
X6.2283Y-4.063
X6.2283Y-4.163
X6.8465Y-3.8858
X6.8465Y-3.9858
X6.8465Y-4.0858
X6.8465Y-4.1858
X7.8858Y-6.0669
X7.8858Y-6.1669
X7.8858Y-7.3976
X7.8858Y-7.4976
X7.8878Y-4.065
X7.8878Y-4.165
X8.5039Y-5.8898
X8.5039Y-5.9898
X8.5039Y-6.0898
X8.5039Y-6.1898
X8.5039Y-7.2205
X8.5039Y-7.3205
X8.5039Y-7.4205
X8.5039Y-7.5205
X8.5059Y-3.8878
X8.5059Y-3.9878
X8.5059Y-4.0878
X8.5059Y-4.1878
X10.5886Y-4.0571
X10.5886Y-4.1571
X11.2067Y-3.8799
X11.2067Y-3.9799
X11.2067Y-4.0799
X11.2067Y-4.1799
X11.9055Y-7.4008
X11.9055Y-7.5008
X12.5236Y-7.2236
X12.5236Y-7.3236
X12.5236Y-7.4236
X12.5236Y-7.5236
X13.315Y-4.0614
X13.315Y-4.1614
X13.9331Y-3.8843
X13.9331Y-3.9843
X13.9331Y-4.0843
X13.9331Y-4.1843
T3
X2.4551Y-5.9331
X2.5496Y-7.4449
X2.5551Y-5.9331
X2.6496Y-7.4449
X2.6551Y-5.9331
X2.7496Y-7.4449
X3.6362Y-7.4488
X3.7031Y-5.937
X3.7362Y-7.4488
X3.8031Y-5.937
X3.8362Y-7.4488
X3.9031Y-5.937
X3.9362Y-7.4488
X5.1047Y-5.9409
X5.1059Y-7.4488
X5.2047Y-5.9409
X5.2059Y-7.4488
X5.3047Y-5.9409
X5.3059Y-7.4488
X5.4059Y-7.4488
X5.678Y-3.2701
X5.678Y-3.3701
X5.778Y-3.2701
X5.778Y-3.3701
X5.878Y-3.2701
X5.878Y-3.3701
X5.978Y-3.2701
X5.978Y-3.3701
X6.078Y-3.2701
X6.078Y-3.3701
X6.178Y-3.2701
X6.178Y-3.3701
X6.278Y-3.2701
X6.278Y-3.3701
X6.3264Y-7.4528
X6.3409Y-5.9449
X6.378Y-3.2701
X6.378Y-3.3701
X6.4264Y-7.4528
X6.4409Y-5.9449
X6.478Y-3.2701
X6.478Y-3.3701
X6.5264Y-7.4528
X6.5409Y-5.9449
X6.578Y-3.2701
X6.578Y-3.3701
X6.6264Y-7.4528
X6.6409Y-5.9449
X6.678Y-3.2701
X6.678Y-3.3701
X6.778Y-3.2701
X6.778Y-3.3701
X6.878Y-3.2701
X6.878Y-3.3701
X6.978Y-3.2701
X6.978Y-3.3701
X7.078Y-3.2701
X7.078Y-3.3701
X7.178Y-3.2701
X7.178Y-3.3701
X7.278Y-3.2701
X7.278Y-3.3701
X7.378Y-3.2701
X7.378Y-3.3701
X7.478Y-3.2701
X7.478Y-3.3701
X7.578Y-3.2701
X7.578Y-3.3701
X8.048Y-3.2701
X8.048Y-3.3701
X8.148Y-3.2701
X8.148Y-3.3701
X8.248Y-3.2701
X8.248Y-3.3701
X8.348Y-3.2701
X8.348Y-3.3701
X8.448Y-3.2701
X8.448Y-3.3701
X8.548Y-3.2701
X8.548Y-3.3701
X8.648Y-3.2701
X8.648Y-3.3701
X8.748Y-3.2701
X8.748Y-3.3701
X8.848Y-3.2701
X8.848Y-3.3701
X8.948Y-3.2701
X8.948Y-3.3701
X9.048Y-3.2701
X9.048Y-3.3701
X9.148Y-3.2701
X9.148Y-3.3701
X9.248Y-3.2701
X9.248Y-3.3701
X9.348Y-3.2701
X9.348Y-3.3701
X9.448Y-3.2701
X9.448Y-3.3701
X9.5079Y-7.4449
X9.548Y-3.2701
X9.548Y-3.3701
X9.6079Y-7.4449
X9.6181Y-5.7323
X9.6283Y-4.1181
X9.648Y-3.2701
X9.648Y-3.3701
X9.7079Y-7.4449
X9.7181Y-5.7323
X9.7283Y-4.1181
X9.748Y-3.2701
X9.748Y-3.3701
X9.8181Y-5.7323
X9.8283Y-4.1181
X9.848Y-3.2701
X9.848Y-3.3701
X9.9283Y-4.1181
X9.948Y-3.2701
X9.948Y-3.3701
X10.5417Y-7.4488
X10.6417Y-7.4488
X10.7417Y-7.4488
X10.8094Y-5.7283
X10.8417Y-7.4488
X10.9094Y-5.7283
X11.0094Y-5.7283
X11.8961Y-5.7283
X11.9661Y-4.1457
X11.9961Y-5.7283
X12.0661Y-4.1457
X12.0961Y-5.7283
X12.1661Y-4.1457
X12.1961Y-5.7283
X12.2661Y-4.1457
X12.3661Y-4.1457
X12.4661Y-4.1457
X12.5661Y-4.1457
X12.6661Y-4.1457
X12.7661Y-4.1457
X13.224Y-5.7244
X13.224Y-7.4488
X13.324Y-5.7244
X13.324Y-7.4488
X13.424Y-5.7244
X13.424Y-7.4488
X13.524Y-5.7244
X13.524Y-7.4488
T4
X2.2858Y-3.2402
X2.4858Y-3.2402
X2.8819Y-3.2402
X3.0819Y-3.2402
X3.2819Y-3.2402
X3.6841Y-3.2382
X3.8841Y-3.2382
M30
