%TF.GenerationSoftware,KiCad,Pcbnew,9.0.2*%
%TF.CreationDate,2025-07-01T18:23:20+02:00*%
%TF.ProjectId,lights,6c696768-7473-42e6-9b69-6361645f7063,rev?*%
%TF.SameCoordinates,Original*%
%TF.FileFunction,Copper,L1,Top*%
%TF.FilePolarity,Positive*%
%FSLAX46Y46*%
G04 Gerber Fmt 4.6, Leading zero omitted, Abs format (unit mm)*
G04 Created by KiCad (PCBNEW 9.0.2) date 2025-07-01 18:23:20*
%MOMM*%
%LPD*%
G01*
G04 APERTURE LIST*
G04 Aperture macros list*
%AMRoundRect*
0 Rectangle with rounded corners*
0 $1 Rounding radius*
0 $2 $3 $4 $5 $6 $7 $8 $9 X,Y pos of 4 corners*
0 Add a 4 corners polygon primitive as box body*
4,1,4,$2,$3,$4,$5,$6,$7,$8,$9,$2,$3,0*
0 Add four circle primitives for the rounded corners*
1,1,$1+$1,$2,$3*
1,1,$1+$1,$4,$5*
1,1,$1+$1,$6,$7*
1,1,$1+$1,$8,$9*
0 Add four rect primitives between the rounded corners*
20,1,$1+$1,$2,$3,$4,$5,0*
20,1,$1+$1,$4,$5,$6,$7,0*
20,1,$1+$1,$6,$7,$8,$9,0*
20,1,$1+$1,$8,$9,$2,$3,0*%
G04 Aperture macros list end*
%TA.AperFunction,ComponentPad*%
%ADD10R,3.000000X3.000000*%
%TD*%
%TA.AperFunction,ComponentPad*%
%ADD11C,3.000000*%
%TD*%
%TA.AperFunction,SMDPad,CuDef*%
%ADD12RoundRect,0.165000X-0.385000X-0.885000X0.385000X-0.885000X0.385000X0.885000X-0.385000X0.885000X0*%
%TD*%
%TA.AperFunction,SMDPad,CuDef*%
%ADD13RoundRect,0.315000X-0.735000X-0.735000X0.735000X-0.735000X0.735000X0.735000X-0.735000X0.735000X0*%
%TD*%
%TA.AperFunction,SMDPad,CuDef*%
%ADD14RoundRect,0.250000X-0.400000X-0.625000X0.400000X-0.625000X0.400000X0.625000X-0.400000X0.625000X0*%
%TD*%
%TA.AperFunction,ComponentPad*%
%ADD15R,1.700000X1.700000*%
%TD*%
%TA.AperFunction,ComponentPad*%
%ADD16C,1.700000*%
%TD*%
%TA.AperFunction,ComponentPad*%
%ADD17R,1.500000X1.500000*%
%TD*%
%TA.AperFunction,ViaPad*%
%ADD18C,0.600000*%
%TD*%
%TA.AperFunction,Conductor*%
%ADD19C,0.400000*%
%TD*%
%TA.AperFunction,Conductor*%
%ADD20C,0.600000*%
%TD*%
G04 APERTURE END LIST*
D10*
%TO.P,J22,1,Pin_1*%
%TO.N,GND*%
X93575000Y-82250000D03*
D11*
%TO.P,J22,2,Pin_2*%
%TO.N,+12V*%
X98655000Y-82250000D03*
%TD*%
D12*
%TO.P,D83,1,K*%
%TO.N,Net-(D83-K)*%
X183360000Y-201700000D03*
D13*
%TO.P,D83,2,A*%
%TO.N,Net-(D82-K)*%
X185510000Y-201700000D03*
%TD*%
D14*
%TO.P,R25,1*%
%TO.N,Net-(D73-K)*%
X80050000Y-189200000D03*
%TO.P,R25,2*%
%TO.N,GND*%
X83150000Y-189200000D03*
%TD*%
%TO.P,R2,1*%
%TO.N,Net-(D6-K)*%
X90700000Y-115000000D03*
%TO.P,R2,2*%
%TO.N,GND*%
X93800000Y-115000000D03*
%TD*%
D12*
%TO.P,D34,1,K*%
%TO.N,Net-(D34-K)*%
X248400000Y-94050000D03*
D13*
%TO.P,D34,2,A*%
%TO.N,Net-(D33-K)*%
X250550000Y-94050000D03*
%TD*%
D12*
%TO.P,D56,1,K*%
%TO.N,Net-(D56-K)*%
X74160000Y-163300000D03*
D13*
%TO.P,D56,2,A*%
%TO.N,+12V*%
X76310000Y-163300000D03*
%TD*%
D14*
%TO.P,R5,1*%
%TO.N,Net-(D15-K)*%
X144100000Y-126800000D03*
%TO.P,R5,2*%
%TO.N,GND*%
X147200000Y-126800000D03*
%TD*%
D12*
%TO.P,D36,1,K*%
%TO.N,Net-(D36-K)*%
X265060000Y-118900000D03*
D13*
%TO.P,D36,2,A*%
%TO.N,Net-(D35-K)*%
X267210000Y-118900000D03*
%TD*%
D15*
%TO.P,J5,1,Pin_1*%
%TO.N,GND*%
X64760000Y-189100000D03*
D16*
%TO.P,J5,2,Pin_2*%
%TO.N,Net-(J1-Pin_34)*%
X67300000Y-189100000D03*
%TO.P,J5,3,Pin_3*%
%TO.N,Net-(J1-Pin_35)*%
X69840000Y-189100000D03*
%TD*%
D17*
%TO.P,KR3,1,+5V_TOP_LED*%
%TO.N,Net-(J1-Pin_4)*%
X142000000Y-98800000D03*
%TO.P,KR3,2,GND_TOP_LED*%
%TO.N,GND*%
X142000000Y-101340000D03*
%TO.P,KR3,3,+5V_BOTTOM_LED*%
%TO.N,Net-(J1-Pin_5)*%
X142000000Y-103880000D03*
%TO.P,KR3,4,GND_BOTTOM_LED*%
%TO.N,GND*%
X142000000Y-106420000D03*
%TO.P,KR3,5,SW_IN*%
%TO.N,Net-(J1-Pin_6)*%
X126300000Y-103300000D03*
%TO.P,KR3,6,SW_OUT*%
%TO.N,GND*%
X126300000Y-105840000D03*
%TD*%
D12*
%TO.P,D98,1,K*%
%TO.N,Net-(D98-K)*%
X338560000Y-159500000D03*
D13*
%TO.P,D98,2,A*%
%TO.N,Net-(D97-K)*%
X340710000Y-159500000D03*
%TD*%
D12*
%TO.P,D4,1,K*%
%TO.N,Net-(D4-K)*%
X82260000Y-119100000D03*
D13*
%TO.P,D4,2,A*%
%TO.N,+12V*%
X84410000Y-119100000D03*
%TD*%
D12*
%TO.P,D70,1,K*%
%TO.N,Net-(D70-K)*%
X141960000Y-178400000D03*
D13*
%TO.P,D70,2,A*%
%TO.N,Net-(D69-K)*%
X144110000Y-178400000D03*
%TD*%
D12*
%TO.P,D60,1,K*%
%TO.N,Net-(D60-K)*%
X115460000Y-133400000D03*
D13*
%TO.P,D60,2,A*%
%TO.N,Net-(D59-K)*%
X117610000Y-133400000D03*
%TD*%
D14*
%TO.P,R14,1*%
%TO.N,Net-(D40-K)*%
X332500000Y-118900000D03*
%TO.P,R14,2*%
%TO.N,GND*%
X335600000Y-118900000D03*
%TD*%
D12*
%TO.P,D18,1,K*%
%TO.N,Net-(D18-K)*%
X157860000Y-119000000D03*
D13*
%TO.P,D18,2,A*%
%TO.N,Net-(D17-K)*%
X160010000Y-119000000D03*
%TD*%
D12*
%TO.P,D76,1,K*%
%TO.N,Net-(D76-K)*%
X113560000Y-202400000D03*
D13*
%TO.P,D76,2,A*%
%TO.N,Net-(D75-K)*%
X115710000Y-202400000D03*
%TD*%
D14*
%TO.P,R32,1*%
%TO.N,Net-(D92-K)*%
X293600000Y-131900000D03*
%TO.P,R32,2*%
%TO.N,GND*%
X296700000Y-131900000D03*
%TD*%
D12*
%TO.P,D16,1,K*%
%TO.N,Net-(D16-K)*%
X134160000Y-119100000D03*
D13*
%TO.P,D16,2,A*%
%TO.N,+12V*%
X136310000Y-119100000D03*
%TD*%
D12*
%TO.P,D74,1,K*%
%TO.N,Net-(D74-K)*%
X76960000Y-201200000D03*
D13*
%TO.P,D74,2,A*%
%TO.N,+12V*%
X79110000Y-201200000D03*
%TD*%
D12*
%TO.P,D106,1,K*%
%TO.N,Net-(D106-K)*%
X293560000Y-191200000D03*
D13*
%TO.P,D106,2,A*%
%TO.N,Net-(D105-K)*%
X295710000Y-191200000D03*
%TD*%
D12*
%TO.P,D3,1,K*%
%TO.N,Net-(D3-K)*%
X83600000Y-104300000D03*
D13*
%TO.P,D3,2,A*%
%TO.N,Net-(D2-K)*%
X85750000Y-104300000D03*
%TD*%
D12*
%TO.P,D31,1,K*%
%TO.N,Net-(D31-K)*%
X245950000Y-118900000D03*
D13*
%TO.P,D31,2,A*%
%TO.N,Net-(D30-K)*%
X248100000Y-118900000D03*
%TD*%
D12*
%TO.P,D40,1,K*%
%TO.N,Net-(D40-K)*%
X296060000Y-112000000D03*
D13*
%TO.P,D40,2,A*%
%TO.N,Net-(D39-K)*%
X298210000Y-112000000D03*
%TD*%
D12*
%TO.P,D79,1,K*%
%TO.N,Net-(D79-K)*%
X147860000Y-191700000D03*
D13*
%TO.P,D79,2,A*%
%TO.N,Net-(D78-K)*%
X150010000Y-191700000D03*
%TD*%
D12*
%TO.P,D45,1,K*%
%TO.N,Net-(D45-K)*%
X322060000Y-87500000D03*
D13*
%TO.P,D45,2,A*%
%TO.N,Net-(D44-K)*%
X324210000Y-87500000D03*
%TD*%
D12*
%TO.P,D113,1,K*%
%TO.N,Net-(D113-K)*%
X359160000Y-168800000D03*
D13*
%TO.P,D113,2,A*%
%TO.N,Net-(D112-K)*%
X361310000Y-168800000D03*
%TD*%
D12*
%TO.P,D92,1,K*%
%TO.N,Net-(D92-K)*%
X290160000Y-137500000D03*
D13*
%TO.P,D92,2,A*%
%TO.N,Net-(D91-K)*%
X292310000Y-137500000D03*
%TD*%
D15*
%TO.P,J15,1,Pin_1*%
%TO.N,GND*%
X241500000Y-189100000D03*
D16*
%TO.P,J15,2,Pin_2*%
%TO.N,Net-(J10-Pin_23)*%
X244040000Y-189100000D03*
%TO.P,J15,3,Pin_3*%
%TO.N,Net-(J10-Pin_24)*%
X246580000Y-189100000D03*
%TD*%
D12*
%TO.P,D101,1,K*%
%TO.N,Net-(D101-K)*%
X232860000Y-201100000D03*
D13*
%TO.P,D101,2,A*%
%TO.N,Net-(D100-K)*%
X235010000Y-201100000D03*
%TD*%
D12*
%TO.P,D26,1,K*%
%TO.N,Net-(D26-K)*%
X222150000Y-94600000D03*
D13*
%TO.P,D26,2,A*%
%TO.N,+12V*%
X224300000Y-94600000D03*
%TD*%
D12*
%TO.P,D49,1,K*%
%TO.N,Net-(D49-K)*%
X359860000Y-100200000D03*
D13*
%TO.P,D49,2,A*%
%TO.N,Net-(D48-K)*%
X362010000Y-100200000D03*
%TD*%
D12*
%TO.P,D2,1,K*%
%TO.N,Net-(D2-K)*%
X82160000Y-90500000D03*
D13*
%TO.P,D2,2,A*%
%TO.N,Net-(D1-K)*%
X84310000Y-90500000D03*
%TD*%
D14*
%TO.P,R19,1*%
%TO.N,Net-(D55-K)*%
X55600000Y-175500000D03*
%TO.P,R19,2*%
%TO.N,GND*%
X58700000Y-175500000D03*
%TD*%
D12*
%TO.P,D13,1,K*%
%TO.N,Net-(D13-K)*%
X148760000Y-104900000D03*
D13*
%TO.P,D13,2,A*%
%TO.N,+12V*%
X150910000Y-104900000D03*
%TD*%
D12*
%TO.P,D107,1,K*%
%TO.N,Net-(D107-K)*%
X284360000Y-204000000D03*
D13*
%TO.P,D107,2,A*%
%TO.N,Net-(D106-K)*%
X286510000Y-204000000D03*
%TD*%
D12*
%TO.P,D39,1,K*%
%TO.N,Net-(D39-K)*%
X296260000Y-98100000D03*
D13*
%TO.P,D39,2,A*%
%TO.N,Net-(D38-K)*%
X298410000Y-98100000D03*
%TD*%
D12*
%TO.P,D68,1,K*%
%TO.N,Net-(D68-K)*%
X183160000Y-149100000D03*
D13*
%TO.P,D68,2,A*%
%TO.N,+12V*%
X185310000Y-149100000D03*
%TD*%
D14*
%TO.P,R34,1*%
%TO.N,Net-(D98-K)*%
X347700000Y-168100000D03*
%TO.P,R34,2*%
%TO.N,GND*%
X350800000Y-168100000D03*
%TD*%
D12*
%TO.P,D1,1,K*%
%TO.N,Net-(D1-K)*%
X56200000Y-90200000D03*
D13*
%TO.P,D1,2,A*%
%TO.N,+12V*%
X58350000Y-90200000D03*
%TD*%
D12*
%TO.P,D109,1,K*%
%TO.N,Net-(D109-K)*%
X342360000Y-174100000D03*
D13*
%TO.P,D109,2,A*%
%TO.N,Net-(D108-K)*%
X344510000Y-174100000D03*
%TD*%
D12*
%TO.P,D103,1,K*%
%TO.N,Net-(D103-K)*%
X256250000Y-202000000D03*
D13*
%TO.P,D103,2,A*%
%TO.N,Net-(D102-K)*%
X258400000Y-202000000D03*
%TD*%
D14*
%TO.P,R22,1*%
%TO.N,Net-(D64-K)*%
X123200000Y-175600000D03*
%TO.P,R22,2*%
%TO.N,GND*%
X126300000Y-175600000D03*
%TD*%
D12*
%TO.P,D37,1,K*%
%TO.N,Net-(D37-K)*%
X286460000Y-118800000D03*
D13*
%TO.P,D37,2,A*%
%TO.N,Net-(D36-K)*%
X288610000Y-118800000D03*
%TD*%
D12*
%TO.P,D62,1,K*%
%TO.N,Net-(D62-K)*%
X113560000Y-150600000D03*
D13*
%TO.P,D62,2,A*%
%TO.N,+12V*%
X115710000Y-150600000D03*
%TD*%
D12*
%TO.P,D89,1,K*%
%TO.N,Net-(D89-K)*%
X240160000Y-159100000D03*
D13*
%TO.P,D89,2,A*%
%TO.N,Net-(D88-K)*%
X242310000Y-159100000D03*
%TD*%
D12*
%TO.P,D25,1,K*%
%TO.N,Net-(D25-K)*%
X206960000Y-96400000D03*
D13*
%TO.P,D25,2,A*%
%TO.N,Net-(D24-K)*%
X209110000Y-96400000D03*
%TD*%
D12*
%TO.P,D86,1,K*%
%TO.N,Net-(D86-K)*%
X206260000Y-170000000D03*
D13*
%TO.P,D86,2,A*%
%TO.N,Net-(D85-K)*%
X208410000Y-170000000D03*
%TD*%
D12*
%TO.P,D105,1,K*%
%TO.N,Net-(D105-K)*%
X307760000Y-173400000D03*
D13*
%TO.P,D105,2,A*%
%TO.N,+12V*%
X309910000Y-173400000D03*
%TD*%
D12*
%TO.P,D88,1,K*%
%TO.N,Net-(D88-K)*%
X230760000Y-132600000D03*
D13*
%TO.P,D88,2,A*%
%TO.N,Net-(D87-K)*%
X232910000Y-132600000D03*
%TD*%
D12*
%TO.P,D44,1,K*%
%TO.N,Net-(D44-K)*%
X328250000Y-96100000D03*
D13*
%TO.P,D44,2,A*%
%TO.N,+12V*%
X330400000Y-96100000D03*
%TD*%
D12*
%TO.P,D21,1,K*%
%TO.N,Net-(D21-K)*%
X175560000Y-90000000D03*
D13*
%TO.P,D21,2,A*%
%TO.N,Net-(D20-K)*%
X177710000Y-90000000D03*
%TD*%
D14*
%TO.P,R28,1*%
%TO.N,Net-(D80-K)*%
X173400000Y-202900000D03*
%TO.P,R28,2*%
%TO.N,GND*%
X176500000Y-202900000D03*
%TD*%
%TO.P,R27,1*%
%TO.N,Net-(D77-K)*%
X123600000Y-203600000D03*
%TO.P,R27,2*%
%TO.N,GND*%
X126700000Y-203600000D03*
%TD*%
D12*
%TO.P,D47,1,K*%
%TO.N,Net-(D47-K)*%
X356860000Y-88000000D03*
D13*
%TO.P,D47,2,A*%
%TO.N,+12V*%
X359010000Y-88000000D03*
%TD*%
D12*
%TO.P,D114,1,K*%
%TO.N,Net-(D114-K)*%
X326260000Y-203400000D03*
D13*
%TO.P,D114,2,A*%
%TO.N,+12V*%
X328410000Y-203400000D03*
%TD*%
D14*
%TO.P,R15,1*%
%TO.N,Net-(D43-K)*%
X355100000Y-118800000D03*
%TO.P,R15,2*%
%TO.N,GND*%
X358200000Y-118800000D03*
%TD*%
D12*
%TO.P,D85,1,K*%
%TO.N,Net-(D85-K)*%
X206960000Y-148300000D03*
D13*
%TO.P,D85,2,A*%
%TO.N,Net-(D84-K)*%
X209110000Y-148300000D03*
%TD*%
D12*
%TO.P,D7,1,K*%
%TO.N,Net-(D7-K)*%
X55300000Y-118700000D03*
D13*
%TO.P,D7,2,A*%
%TO.N,+12V*%
X57450000Y-118700000D03*
%TD*%
D14*
%TO.P,R40,1*%
%TO.N,Net-(D116-K)*%
X361500000Y-126800000D03*
%TO.P,R40,2*%
%TO.N,GND*%
X364600000Y-126800000D03*
%TD*%
D15*
%TO.P,J6,1,Pin_1*%
%TO.N,GND*%
X92360000Y-189200000D03*
D16*
%TO.P,J6,2,Pin_2*%
%TO.N,Net-(J1-Pin_36)*%
X94900000Y-189200000D03*
%TO.P,J6,3,Pin_3*%
%TO.N,Net-(J1-Pin_37)*%
X97440000Y-189200000D03*
%TO.P,J6,4,Pin_4*%
%TO.N,Net-(J1-Pin_38)*%
X99980000Y-189200000D03*
%TD*%
D12*
%TO.P,D82,1,K*%
%TO.N,Net-(D82-K)*%
X183160000Y-170600000D03*
D13*
%TO.P,D82,2,A*%
%TO.N,Net-(D81-K)*%
X185310000Y-170600000D03*
%TD*%
D17*
%TO.P,KR9,1,+5V_TOP_LED*%
%TO.N,Net-(J1-Pin_13)*%
X284650000Y-98550000D03*
%TO.P,KR9,2,GND_TOP_LED*%
%TO.N,GND*%
X284650000Y-101090000D03*
%TO.P,KR9,3,+5V_BOTTOM_LED*%
%TO.N,Net-(J1-Pin_14)*%
X284650000Y-103630000D03*
%TO.P,KR9,4,GND_BOTTOM_LED*%
%TO.N,GND*%
X284650000Y-106170000D03*
%TO.P,KR9,5,SW_IN*%
%TO.N,Net-(J1-Pin_15)*%
X268950000Y-103050000D03*
%TO.P,KR9,6,SW_OUT*%
%TO.N,GND*%
X268950000Y-105590000D03*
%TD*%
%TO.P,KR2,1,+5V_TOP_LED*%
%TO.N,Net-(J1-Pin_16)*%
X353900000Y-98660000D03*
%TO.P,KR2,2,GND_TOP_LED*%
%TO.N,GND*%
X353900000Y-101200000D03*
%TO.P,KR2,3,+5V_BOTTOM_LED*%
%TO.N,Net-(J1-Pin_17)*%
X353900000Y-103740000D03*
%TO.P,KR2,4,GND_BOTTOM_LED*%
%TO.N,GND*%
X353900000Y-106280000D03*
%TO.P,KR2,5,SW_IN*%
%TO.N,Net-(J1-Pin_18)*%
X338200000Y-103160000D03*
%TO.P,KR2,6,SW_OUT*%
%TO.N,GND*%
X338200000Y-105700000D03*
%TD*%
D12*
%TO.P,D80,1,K*%
%TO.N,Net-(D80-K)*%
X162760000Y-204500000D03*
D13*
%TO.P,D80,2,A*%
%TO.N,Net-(D79-K)*%
X164910000Y-204500000D03*
%TD*%
D14*
%TO.P,R16,1*%
%TO.N,Net-(D46-K)*%
X338650000Y-96400000D03*
%TO.P,R16,2*%
%TO.N,GND*%
X341750000Y-96400000D03*
%TD*%
D12*
%TO.P,D95,1,K*%
%TO.N,Net-(D95-K)*%
X317050000Y-158600000D03*
D13*
%TO.P,D95,2,A*%
%TO.N,Net-(D94-K)*%
X319200000Y-158600000D03*
%TD*%
D12*
%TO.P,D104,1,K*%
%TO.N,Net-(D104-K)*%
X282750000Y-177200000D03*
D13*
%TO.P,D104,2,A*%
%TO.N,Net-(D103-K)*%
X284900000Y-177200000D03*
%TD*%
D12*
%TO.P,D24,1,K*%
%TO.N,Net-(D24-K)*%
X192360000Y-118800000D03*
D13*
%TO.P,D24,2,A*%
%TO.N,Net-(D23-K)*%
X194510000Y-118800000D03*
%TD*%
D12*
%TO.P,D57,1,K*%
%TO.N,Net-(D57-K)*%
X79260000Y-151200000D03*
D13*
%TO.P,D57,2,A*%
%TO.N,Net-(D56-K)*%
X81410000Y-151200000D03*
%TD*%
D12*
%TO.P,D5,1,K*%
%TO.N,Net-(D5-K)*%
X69060000Y-96500000D03*
D13*
%TO.P,D5,2,A*%
%TO.N,Net-(D4-K)*%
X71210000Y-96500000D03*
%TD*%
D12*
%TO.P,D90,1,K*%
%TO.N,Net-(D90-K)*%
X258650000Y-132000000D03*
D13*
%TO.P,D90,2,A*%
%TO.N,+12V*%
X260800000Y-132000000D03*
%TD*%
D14*
%TO.P,R10,1*%
%TO.N,Net-(D28-K)*%
X232800000Y-118500000D03*
%TO.P,R10,2*%
%TO.N,GND*%
X235900000Y-118500000D03*
%TD*%
D15*
%TO.P,J2,1,Pin_1*%
%TO.N,GND*%
X62360000Y-150700000D03*
D16*
%TO.P,J2,2,Pin_2*%
%TO.N,Net-(J1-Pin_29)*%
X64900000Y-150700000D03*
%TO.P,J2,3,Pin_3*%
%TO.N,Net-(J1-Pin_28)*%
X67440000Y-150700000D03*
%TD*%
D14*
%TO.P,R26,1*%
%TO.N,Net-(D74-K)*%
X104150000Y-175900000D03*
%TO.P,R26,2*%
%TO.N,GND*%
X107250000Y-175900000D03*
%TD*%
D12*
%TO.P,D28,1,K*%
%TO.N,Net-(D28-K)*%
X191960000Y-105200000D03*
D13*
%TO.P,D28,2,A*%
%TO.N,Net-(D27-K)*%
X194110000Y-105200000D03*
%TD*%
D14*
%TO.P,R1,1*%
%TO.N,Net-(D3-K)*%
X91100000Y-95000000D03*
%TO.P,R1,2*%
%TO.N,GND*%
X94200000Y-95000000D03*
%TD*%
D12*
%TO.P,D42,1,K*%
%TO.N,Net-(D42-K)*%
X320860000Y-119500000D03*
D13*
%TO.P,D42,2,A*%
%TO.N,Net-(D41-K)*%
X323010000Y-119500000D03*
%TD*%
D12*
%TO.P,D72,1,K*%
%TO.N,Net-(D72-K)*%
X53200000Y-182500000D03*
D13*
%TO.P,D72,2,A*%
%TO.N,Net-(D71-K)*%
X55350000Y-182500000D03*
%TD*%
D12*
%TO.P,D99,1,K*%
%TO.N,Net-(D100-A)*%
X359250000Y-152500000D03*
D13*
%TO.P,D99,2,A*%
%TO.N,+12V*%
X361400000Y-152500000D03*
%TD*%
D12*
%TO.P,D51,1,K*%
%TO.N,Net-(D51-K)*%
X345260000Y-119000000D03*
D13*
%TO.P,D51,2,A*%
%TO.N,Net-(D50-K)*%
X347410000Y-119000000D03*
%TD*%
D12*
%TO.P,D91,1,K*%
%TO.N,Net-(D91-K)*%
X265860000Y-159400000D03*
D13*
%TO.P,D91,2,A*%
%TO.N,Net-(D90-K)*%
X268010000Y-159400000D03*
%TD*%
D12*
%TO.P,D78,1,K*%
%TO.N,Net-(D78-K)*%
X134360000Y-203900000D03*
D13*
%TO.P,D78,2,A*%
%TO.N,+12V*%
X136510000Y-203900000D03*
%TD*%
D15*
%TO.P,J13,1,Pin_1*%
%TO.N,GND*%
X303940000Y-105300000D03*
D16*
%TO.P,J13,2,Pin_2*%
%TO.N,Net-(J10-Pin_13)*%
X306480000Y-105300000D03*
%TO.P,J13,3,Pin_3*%
%TO.N,Net-(J10-Pin_14)*%
X309020000Y-105300000D03*
%TO.P,J13,4,Pin_4*%
%TO.N,Net-(J10-Pin_15)*%
X311560000Y-105300000D03*
%TO.P,J13,5,Pin_5*%
%TO.N,Net-(J10-Pin_16)*%
X314100000Y-105300000D03*
%TO.P,J13,6,Pin_6*%
%TO.N,Net-(J10-Pin_17)*%
X316640000Y-105300000D03*
%TO.P,J13,7,Pin_7*%
%TO.N,Net-(J10-Pin_18)*%
X319180000Y-105300000D03*
%TO.P,J13,8,Pin_8*%
%TO.N,Net-(J10-Pin_19)*%
X321720000Y-105300000D03*
%TO.P,J13,9,Pin_9*%
%TO.N,Net-(J10-Pin_20)*%
X324260000Y-105300000D03*
%TD*%
D12*
%TO.P,D15,1,K*%
%TO.N,Net-(D15-K)*%
X148060000Y-118900000D03*
D13*
%TO.P,D15,2,A*%
%TO.N,Net-(D14-K)*%
X150210000Y-118900000D03*
%TD*%
D17*
%TO.P,KR6,1,+5V_TOP_LED*%
%TO.N,Net-(J1-Pin_22)*%
X216000000Y-183400000D03*
%TO.P,KR6,2,GND_TOP_LED*%
%TO.N,GND*%
X216000000Y-185940000D03*
%TO.P,KR6,3,+5V_BOTTOM_LED*%
%TO.N,Net-(J1-Pin_23)*%
X216000000Y-188480000D03*
%TO.P,KR6,4,GND_BOTTOM_LED*%
%TO.N,GND*%
X216000000Y-191020000D03*
%TO.P,KR6,5,SW_IN*%
%TO.N,Net-(J1-Pin_25)*%
X200300000Y-187900000D03*
%TO.P,KR6,6,SW_OUT*%
%TO.N,GND*%
X200300000Y-190440000D03*
%TD*%
D12*
%TO.P,D73,1,K*%
%TO.N,Net-(D73-K)*%
X57200000Y-202100000D03*
D13*
%TO.P,D73,2,A*%
%TO.N,Net-(D72-K)*%
X59350000Y-202100000D03*
%TD*%
D12*
%TO.P,D29,1,K*%
%TO.N,Net-(D29-K)*%
X233850000Y-95200000D03*
D13*
%TO.P,D29,2,A*%
%TO.N,+12V*%
X236000000Y-95200000D03*
%TD*%
D14*
%TO.P,R24,1*%
%TO.N,Net-(D70-K)*%
X149550000Y-202900000D03*
%TO.P,R24,2*%
%TO.N,GND*%
X152650000Y-202900000D03*
%TD*%
D12*
%TO.P,D14,1,K*%
%TO.N,Net-(D14-K)*%
X121160000Y-118900000D03*
D13*
%TO.P,D14,2,A*%
%TO.N,Net-(D13-K)*%
X123310000Y-118900000D03*
%TD*%
D14*
%TO.P,R38,1*%
%TO.N,Net-(D110-K)*%
X317400000Y-167900000D03*
%TO.P,R38,2*%
%TO.N,GND*%
X320500000Y-167900000D03*
%TD*%
D12*
%TO.P,D102,1,K*%
%TO.N,Net-(D102-K)*%
X256150000Y-177900000D03*
D13*
%TO.P,D102,2,A*%
%TO.N,+12V*%
X258300000Y-177900000D03*
%TD*%
D14*
%TO.P,R18,1*%
%TO.N,Net-(D52-K)*%
X350000000Y-159300000D03*
%TO.P,R18,2*%
%TO.N,GND*%
X353100000Y-159300000D03*
%TD*%
D12*
%TO.P,D38,1,K*%
%TO.N,Net-(D38-K)*%
X302960000Y-87800000D03*
D13*
%TO.P,D38,2,A*%
%TO.N,+12V*%
X305110000Y-87800000D03*
%TD*%
D12*
%TO.P,D65,1,K*%
%TO.N,Net-(D65-K)*%
X147160000Y-150900000D03*
D13*
%TO.P,D65,2,A*%
%TO.N,+12V*%
X149310000Y-150900000D03*
%TD*%
D12*
%TO.P,D63,1,K*%
%TO.N,Net-(D63-K)*%
X109160000Y-163500000D03*
D13*
%TO.P,D63,2,A*%
%TO.N,Net-(D62-K)*%
X111310000Y-163500000D03*
%TD*%
D12*
%TO.P,D48,1,K*%
%TO.N,Net-(D48-K)*%
X345060000Y-90100000D03*
D13*
%TO.P,D48,2,A*%
%TO.N,Net-(D47-K)*%
X347210000Y-90100000D03*
%TD*%
D12*
%TO.P,D46,1,K*%
%TO.N,Net-(D46-K)*%
X332750000Y-87500000D03*
D13*
%TO.P,D46,2,A*%
%TO.N,Net-(D45-K)*%
X334900000Y-87500000D03*
%TD*%
D12*
%TO.P,D66,1,K*%
%TO.N,Net-(D66-K)*%
X141460000Y-164100000D03*
D13*
%TO.P,D66,2,A*%
%TO.N,Net-(D65-K)*%
X143610000Y-164100000D03*
%TD*%
D14*
%TO.P,R11,1*%
%TO.N,Net-(D31-K)*%
X255800000Y-118800000D03*
%TO.P,R11,2*%
%TO.N,GND*%
X258900000Y-118800000D03*
%TD*%
D12*
%TO.P,D20,1,K*%
%TO.N,Net-(D20-K)*%
X174060000Y-119200000D03*
D13*
%TO.P,D20,2,A*%
%TO.N,Net-(D19-K)*%
X176210000Y-119200000D03*
%TD*%
D12*
%TO.P,D19,1,K*%
%TO.N,Net-(D19-K)*%
X103060000Y-118800000D03*
D13*
%TO.P,D19,2,A*%
%TO.N,+12V*%
X105210000Y-118800000D03*
%TD*%
D12*
%TO.P,D9,1,K*%
%TO.N,Net-(D9-K)*%
X110860000Y-89800000D03*
D13*
%TO.P,D9,2,A*%
%TO.N,Net-(D8-K)*%
X113010000Y-89800000D03*
%TD*%
D12*
%TO.P,D71,1,K*%
%TO.N,Net-(D71-K)*%
X77900000Y-178900000D03*
D13*
%TO.P,D71,2,A*%
%TO.N,+12V*%
X80050000Y-178900000D03*
%TD*%
D12*
%TO.P,D100,1,K*%
%TO.N,Net-(D100-K)*%
X232660000Y-177000000D03*
D13*
%TO.P,D100,2,A*%
%TO.N,Net-(D100-A)*%
X234810000Y-177000000D03*
%TD*%
D15*
%TO.P,J17,1,Pin_1*%
%TO.N,GND*%
X335890000Y-145400000D03*
D16*
%TO.P,J17,2,Pin_2*%
%TO.N,Net-(J10-Pin_28)*%
X338430000Y-145400000D03*
%TO.P,J17,3,Pin_3*%
%TO.N,Net-(J10-Pin_29)*%
X340970000Y-145400000D03*
%TO.P,J17,4,Pin_4*%
%TO.N,Net-(J10-Pin_30)*%
X343510000Y-145400000D03*
%TD*%
D15*
%TO.P,J11,1,Pin_1*%
%TO.N,Net-(J11-Pin_1)*%
X244300000Y-145600000D03*
D16*
%TO.P,J11,2,Pin_2*%
%TO.N,Net-(J11-Pin_2)*%
X246840000Y-145600000D03*
%TO.P,J11,3,Pin_3*%
%TO.N,Net-(J11-Pin_3)*%
X249380000Y-145600000D03*
%TD*%
D14*
%TO.P,R7,1*%
%TO.N,Net-(D21-K)*%
X183000000Y-96100000D03*
%TO.P,R7,2*%
%TO.N,GND*%
X186100000Y-96100000D03*
%TD*%
%TO.P,R31,1*%
%TO.N,Net-(D89-K)*%
X254350000Y-160400000D03*
%TO.P,R31,2*%
%TO.N,GND*%
X257450000Y-160400000D03*
%TD*%
%TO.P,R29,1*%
%TO.N,Net-(D83-K)*%
X194350000Y-173200000D03*
%TO.P,R29,2*%
%TO.N,GND*%
X197450000Y-173200000D03*
%TD*%
%TO.P,R8,1*%
%TO.N,Net-(D22-K)*%
X194600000Y-127700000D03*
%TO.P,R8,2*%
%TO.N,GND*%
X197700000Y-127700000D03*
%TD*%
D12*
%TO.P,D55,1,K*%
%TO.N,Net-(D55-K)*%
X54160000Y-163300000D03*
D13*
%TO.P,D55,2,A*%
%TO.N,Net-(D54-K)*%
X56310000Y-163300000D03*
%TD*%
D17*
%TO.P,KR7,1,+5V_TOP_LED*%
%TO.N,Net-(J1-Pin_10)*%
X216050000Y-98750000D03*
%TO.P,KR7,2,GND_TOP_LED*%
%TO.N,GND*%
X216050000Y-101290000D03*
%TO.P,KR7,3,+5V_BOTTOM_LED*%
%TO.N,Net-(J1-Pin_11)*%
X216050000Y-103830000D03*
%TO.P,KR7,4,GND_BOTTOM_LED*%
%TO.N,GND*%
X216050000Y-106370000D03*
%TO.P,KR7,5,SW_IN*%
%TO.N,Net-(J1-Pin_12)*%
X200350000Y-103250000D03*
%TO.P,KR7,6,SW_OUT*%
%TO.N,GND*%
X200350000Y-105790000D03*
%TD*%
D14*
%TO.P,R36,1*%
%TO.N,Net-(D104-K)*%
X296350000Y-204700000D03*
%TO.P,R36,2*%
%TO.N,GND*%
X299450000Y-204700000D03*
%TD*%
D12*
%TO.P,D87,1,K*%
%TO.N,Net-(D87-K)*%
X206560000Y-204100000D03*
D13*
%TO.P,D87,2,A*%
%TO.N,+12V*%
X208710000Y-204100000D03*
%TD*%
D12*
%TO.P,D59,1,K*%
%TO.N,Net-(D59-K)*%
X104260000Y-137400000D03*
D13*
%TO.P,D59,2,A*%
%TO.N,+12V*%
X106410000Y-137400000D03*
%TD*%
D12*
%TO.P,D58,1,K*%
%TO.N,Net-(D58-K)*%
X87460000Y-137500000D03*
D13*
%TO.P,D58,2,A*%
%TO.N,Net-(D57-K)*%
X89610000Y-137500000D03*
%TD*%
D12*
%TO.P,D97,1,K*%
%TO.N,Net-(D97-K)*%
X326250000Y-145400000D03*
D13*
%TO.P,D97,2,A*%
%TO.N,Net-(D96-K)*%
X328400000Y-145400000D03*
%TD*%
D14*
%TO.P,R33,1*%
%TO.N,Net-(D95-K)*%
X328650000Y-167700000D03*
%TO.P,R33,2*%
%TO.N,GND*%
X331750000Y-167700000D03*
%TD*%
D12*
%TO.P,D22,1,K*%
%TO.N,Net-(D22-K)*%
X180260000Y-105000000D03*
D13*
%TO.P,D22,2,A*%
%TO.N,+12V*%
X182410000Y-105000000D03*
%TD*%
D12*
%TO.P,D81,1,K*%
%TO.N,Net-(D81-K)*%
X183660000Y-128900000D03*
D13*
%TO.P,D81,2,A*%
%TO.N,+12V*%
X185810000Y-128900000D03*
%TD*%
D14*
%TO.P,R37,1*%
%TO.N,Net-(D107-K)*%
X317900000Y-204400000D03*
%TO.P,R37,2*%
%TO.N,GND*%
X321000000Y-204400000D03*
%TD*%
%TO.P,R17,1*%
%TO.N,Net-(D49-K)*%
X345350000Y-126000000D03*
%TO.P,R17,2*%
%TO.N,GND*%
X348450000Y-126000000D03*
%TD*%
%TO.P,R9,1*%
%TO.N,Net-(D25-K)*%
X218000000Y-127700000D03*
%TO.P,R9,2*%
%TO.N,GND*%
X221100000Y-127700000D03*
%TD*%
D12*
%TO.P,D17,1,K*%
%TO.N,Net-(D17-K)*%
X156060000Y-90100000D03*
D13*
%TO.P,D17,2,A*%
%TO.N,Net-(D16-K)*%
X158210000Y-90100000D03*
%TD*%
D12*
%TO.P,D11,1,K*%
%TO.N,Net-(D11-K)*%
X118460000Y-104200000D03*
D13*
%TO.P,D11,2,A*%
%TO.N,Net-(D10-K)*%
X120610000Y-104200000D03*
%TD*%
D12*
%TO.P,D64,1,K*%
%TO.N,Net-(D64-K)*%
X141860000Y-137000000D03*
D13*
%TO.P,D64,2,A*%
%TO.N,Net-(D63-K)*%
X144010000Y-137000000D03*
%TD*%
D12*
%TO.P,D54,1,K*%
%TO.N,Net-(D54-K)*%
X74160000Y-138100000D03*
D13*
%TO.P,D54,2,A*%
%TO.N,Net-(D53-K)*%
X76310000Y-138100000D03*
%TD*%
D14*
%TO.P,R4,1*%
%TO.N,Net-(D12-K)*%
X108900000Y-113800000D03*
%TO.P,R4,2*%
%TO.N,GND*%
X112000000Y-113800000D03*
%TD*%
D17*
%TO.P,KR8,1,+5V_TOP_LED*%
%TO.N,Net-(J1-Pin_24)*%
X318100000Y-183480000D03*
%TO.P,KR8,2,GND_TOP_LED*%
%TO.N,GND*%
X318100000Y-186020000D03*
%TO.P,KR8,3,+5V_BOTTOM_LED*%
%TO.N,Net-(J1-Pin_26)*%
X318100000Y-188560000D03*
%TO.P,KR8,4,GND_BOTTOM_LED*%
%TO.N,GND*%
X318100000Y-191100000D03*
%TO.P,KR8,5,SW_IN*%
%TO.N,Net-(J1-Pin_27)*%
X302400000Y-187980000D03*
%TO.P,KR8,6,SW_OUT*%
%TO.N,GND*%
X302400000Y-190520000D03*
%TD*%
D14*
%TO.P,R35,1*%
%TO.N,Net-(D101-K)*%
X221050000Y-203300000D03*
%TO.P,R35,2*%
%TO.N,GND*%
X224150000Y-203300000D03*
%TD*%
D15*
%TO.P,J18,1,Pin_1*%
%TO.N,GND*%
X267760000Y-189200000D03*
D16*
%TO.P,J18,2,Pin_2*%
%TO.N,Net-(J10-Pin_31)*%
X270300000Y-189200000D03*
%TO.P,J18,3,Pin_3*%
%TO.N,Net-(J10-Pin_32)*%
X272840000Y-189200000D03*
%TO.P,J18,4,Pin_4*%
%TO.N,Net-(J10-Pin_33)*%
X275380000Y-189200000D03*
%TD*%
D12*
%TO.P,D94,1,K*%
%TO.N,Net-(D94-K)*%
X316060000Y-132300000D03*
D13*
%TO.P,D94,2,A*%
%TO.N,Net-(D93-K)*%
X318210000Y-132300000D03*
%TD*%
D12*
%TO.P,D10,1,K*%
%TO.N,Net-(D10-K)*%
X124160000Y-89800000D03*
D13*
%TO.P,D10,2,A*%
%TO.N,+12V*%
X126310000Y-89800000D03*
%TD*%
D12*
%TO.P,D27,1,K*%
%TO.N,Net-(D27-K)*%
X221560000Y-118800000D03*
D13*
%TO.P,D27,2,A*%
%TO.N,Net-(D26-K)*%
X223710000Y-118800000D03*
%TD*%
D12*
%TO.P,D93,1,K*%
%TO.N,Net-(D93-K)*%
X290060000Y-156200000D03*
D13*
%TO.P,D93,2,A*%
%TO.N,+12V*%
X292210000Y-156200000D03*
%TD*%
D12*
%TO.P,D52,1,K*%
%TO.N,Net-(D52-K)*%
X354350000Y-130400000D03*
D13*
%TO.P,D52,2,A*%
%TO.N,Net-(D51-K)*%
X356500000Y-130400000D03*
%TD*%
D15*
%TO.P,J16,1,Pin_1*%
%TO.N,GND*%
X302160000Y-145500000D03*
D16*
%TO.P,J16,2,Pin_2*%
%TO.N,Net-(J10-Pin_25)*%
X304700000Y-145500000D03*
%TO.P,J16,3,Pin_3*%
%TO.N,Net-(J10-Pin_26)*%
X307240000Y-145500000D03*
%TO.P,J16,4,Pin_4*%
%TO.N,Net-(J10-Pin_27)*%
X309780000Y-145500000D03*
%TD*%
D12*
%TO.P,D8,1,K*%
%TO.N,Net-(D8-K)*%
X69360000Y-119100000D03*
D13*
%TO.P,D8,2,A*%
%TO.N,Net-(D7-K)*%
X71510000Y-119100000D03*
%TD*%
D12*
%TO.P,D112,1,K*%
%TO.N,Net-(D112-K)*%
X347960000Y-203200000D03*
D13*
%TO.P,D112,2,A*%
%TO.N,Net-(D111-K)*%
X350110000Y-203200000D03*
%TD*%
D12*
%TO.P,D111,1,K*%
%TO.N,Net-(D111-K)*%
X325660000Y-178900000D03*
D13*
%TO.P,D111,2,A*%
%TO.N,+12V*%
X327810000Y-178900000D03*
%TD*%
D12*
%TO.P,D41,1,K*%
%TO.N,Net-(D41-K)*%
X304660000Y-119400000D03*
D13*
%TO.P,D41,2,A*%
%TO.N,+12V*%
X306810000Y-119400000D03*
%TD*%
D12*
%TO.P,D12,1,K*%
%TO.N,Net-(D12-K)*%
X143460000Y-90100000D03*
D13*
%TO.P,D12,2,A*%
%TO.N,Net-(D11-K)*%
X145610000Y-90100000D03*
%TD*%
D15*
%TO.P,J12,1,Pin_1*%
%TO.N,GND*%
X244560000Y-104600000D03*
D16*
%TO.P,J12,2,Pin_2*%
%TO.N,Net-(J10-Pin_10)*%
X247100000Y-104600000D03*
%TO.P,J12,3,Pin_3*%
%TO.N,Net-(J10-Pin_11)*%
X249640000Y-104600000D03*
%TO.P,J12,4,Pin_4*%
%TO.N,Net-(J10-Pin_12)*%
X252180000Y-104600000D03*
%TD*%
D12*
%TO.P,D116,1,K*%
%TO.N,Net-(D116-K)*%
X361260000Y-138600000D03*
D13*
%TO.P,D116,2,A*%
%TO.N,Net-(D115-K)*%
X363410000Y-138600000D03*
%TD*%
D12*
%TO.P,D108,1,K*%
%TO.N,Net-(D108-K)*%
X308560000Y-205500000D03*
D13*
%TO.P,D108,2,A*%
%TO.N,+12V*%
X310710000Y-205500000D03*
%TD*%
D12*
%TO.P,D43,1,K*%
%TO.N,Net-(D43-K)*%
X329260000Y-111700000D03*
D13*
%TO.P,D43,2,A*%
%TO.N,Net-(D42-K)*%
X331410000Y-111700000D03*
%TD*%
D14*
%TO.P,R21,1*%
%TO.N,Net-(D61-K)*%
X85200000Y-203300000D03*
%TO.P,R21,2*%
%TO.N,GND*%
X88300000Y-203300000D03*
%TD*%
D12*
%TO.P,D67,1,K*%
%TO.N,Net-(D67-K)*%
X170850000Y-137800000D03*
D13*
%TO.P,D67,2,A*%
%TO.N,Net-(D66-K)*%
X173000000Y-137800000D03*
%TD*%
D12*
%TO.P,D32,1,K*%
%TO.N,Net-(D32-K)*%
X261060000Y-104600000D03*
D13*
%TO.P,D32,2,A*%
%TO.N,+12V*%
X263210000Y-104600000D03*
%TD*%
D15*
%TO.P,J8,1,Pin_1*%
%TO.N,GND*%
X161060000Y-151000000D03*
D16*
%TO.P,J8,2,Pin_2*%
%TO.N,Net-(J10-Pin_4)*%
X163600000Y-151000000D03*
%TO.P,J8,3,Pin_3*%
%TO.N,Net-(J10-Pin_5)*%
X166140000Y-151000000D03*
%TO.P,J8,4,Pin_4*%
%TO.N,Net-(J10-Pin_6)*%
X168680000Y-151000000D03*
%TD*%
D17*
%TO.P,KR4,1,+5V_TOP_LED*%
%TO.N,Net-(J1-Pin_19)*%
X216000000Y-149600000D03*
%TO.P,KR4,2,GND_TOP_LED*%
%TO.N,GND*%
X216000000Y-152140000D03*
%TO.P,KR4,3,+5V_BOTTOM_LED*%
%TO.N,Net-(J1-Pin_20)*%
X216000000Y-154680000D03*
%TO.P,KR4,4,GND_BOTTOM_LED*%
%TO.N,GND*%
X216000000Y-157220000D03*
%TO.P,KR4,5,SW_IN*%
%TO.N,Net-(J1-Pin_21)*%
X200300000Y-154100000D03*
%TO.P,KR4,6,SW_OUT*%
%TO.N,GND*%
X200300000Y-156640000D03*
%TD*%
D12*
%TO.P,D77,1,K*%
%TO.N,Net-(D77-K)*%
X113560000Y-176000000D03*
D13*
%TO.P,D77,2,A*%
%TO.N,Net-(D76-K)*%
X115710000Y-176000000D03*
%TD*%
D14*
%TO.P,R12,1*%
%TO.N,Net-(D34-K)*%
X276350000Y-118800000D03*
%TO.P,R12,2*%
%TO.N,GND*%
X279450000Y-118800000D03*
%TD*%
D15*
%TO.P,J9,1,Pin_1*%
%TO.N,GND*%
X160690000Y-189300000D03*
D16*
%TO.P,J9,2,Pin_2*%
%TO.N,Net-(J10-Pin_7)*%
X163230000Y-189300000D03*
%TO.P,J9,3,Pin_3*%
%TO.N,Net-(J10-Pin_8)*%
X165770000Y-189300000D03*
%TO.P,J9,4,Pin_4*%
%TO.N,Net-(J10-Pin_9)*%
X168310000Y-189300000D03*
%TD*%
D15*
%TO.P,J14,1,Pin_1*%
%TO.N,GND*%
X274560000Y-145500000D03*
D16*
%TO.P,J14,2,Pin_2*%
%TO.N,Net-(J10-Pin_21)*%
X277100000Y-145500000D03*
%TO.P,J14,3,Pin_3*%
%TO.N,Net-(J10-Pin_22)*%
X279640000Y-145500000D03*
%TD*%
D12*
%TO.P,D30,1,K*%
%TO.N,Net-(D30-K)*%
X231460000Y-106900000D03*
D13*
%TO.P,D30,2,A*%
%TO.N,Net-(D29-K)*%
X233610000Y-106900000D03*
%TD*%
D12*
%TO.P,D84,1,K*%
%TO.N,Net-(D84-K)*%
X207160000Y-133800000D03*
D13*
%TO.P,D84,2,A*%
%TO.N,+12V*%
X209310000Y-133800000D03*
%TD*%
D12*
%TO.P,D33,1,K*%
%TO.N,Net-(D33-K)*%
X262760000Y-89600000D03*
D13*
%TO.P,D33,2,A*%
%TO.N,Net-(D32-K)*%
X264910000Y-89600000D03*
%TD*%
D14*
%TO.P,R39,1*%
%TO.N,Net-(D113-K)*%
X353250000Y-175300000D03*
%TO.P,R39,2*%
%TO.N,GND*%
X356350000Y-175300000D03*
%TD*%
%TO.P,R3,1*%
%TO.N,Net-(D9-K)*%
X102800000Y-95000000D03*
%TO.P,R3,2*%
%TO.N,GND*%
X105900000Y-95000000D03*
%TD*%
D15*
%TO.P,J19,1,Pin_1*%
%TO.N,GND*%
X335890000Y-189200000D03*
D16*
%TO.P,J19,2,Pin_2*%
%TO.N,Net-(J10-Pin_34)*%
X338430000Y-189200000D03*
%TO.P,J19,3,Pin_3*%
%TO.N,Net-(J10-Pin_35)*%
X340970000Y-189200000D03*
%TO.P,J19,4,Pin_4*%
%TO.N,Net-(J10-Pin_36)*%
X343510000Y-189200000D03*
%TD*%
D12*
%TO.P,D69,1,K*%
%TO.N,Net-(D69-K)*%
X163460000Y-170000000D03*
D13*
%TO.P,D69,2,A*%
%TO.N,Net-(D68-K)*%
X165610000Y-170000000D03*
%TD*%
D14*
%TO.P,R6,1*%
%TO.N,Net-(D18-K)*%
X166000000Y-126100000D03*
%TO.P,R6,2*%
%TO.N,GND*%
X169100000Y-126100000D03*
%TD*%
D15*
%TO.P,J4,1,Pin_1*%
%TO.N,GND*%
X129660000Y-150900000D03*
D16*
%TO.P,J4,2,Pin_2*%
%TO.N,Net-(J1-Pin_32)*%
X132200000Y-150900000D03*
%TO.P,J4,3,Pin_3*%
%TO.N,Net-(J1-Pin_33)*%
X134740000Y-150900000D03*
%TD*%
D12*
%TO.P,D61,1,K*%
%TO.N,Net-(D61-K)*%
X87650000Y-163500000D03*
D13*
%TO.P,D61,2,A*%
%TO.N,Net-(D60-K)*%
X89800000Y-163500000D03*
%TD*%
D12*
%TO.P,D115,1,K*%
%TO.N,Net-(D115-K)*%
X354960000Y-193200000D03*
D13*
%TO.P,D115,2,A*%
%TO.N,Net-(D114-K)*%
X357110000Y-193200000D03*
%TD*%
D12*
%TO.P,D50,1,K*%
%TO.N,Net-(D50-K)*%
X359660000Y-112800000D03*
D13*
%TO.P,D50,2,A*%
%TO.N,+12V*%
X361810000Y-112800000D03*
%TD*%
D12*
%TO.P,D6,1,K*%
%TO.N,Net-(D6-K)*%
X54460000Y-104500000D03*
D13*
%TO.P,D6,2,A*%
%TO.N,Net-(D5-K)*%
X56610000Y-104500000D03*
%TD*%
D12*
%TO.P,D35,1,K*%
%TO.N,Net-(D35-K)*%
X289860000Y-89700000D03*
D13*
%TO.P,D35,2,A*%
%TO.N,+12V*%
X292010000Y-89700000D03*
%TD*%
D15*
%TO.P,J7,1,Pin_1*%
%TO.N,GND*%
X129690000Y-189200000D03*
D16*
%TO.P,J7,2,Pin_2*%
%TO.N,Net-(J10-Pin_1)*%
X132230000Y-189200000D03*
%TO.P,J7,3,Pin_3*%
%TO.N,Net-(J10-Pin_2)*%
X134770000Y-189200000D03*
%TO.P,J7,4,Pin_4*%
%TO.N,Net-(J10-Pin_3)*%
X137310000Y-189200000D03*
%TD*%
D14*
%TO.P,R20,1*%
%TO.N,Net-(D58-K)*%
X86550000Y-173800000D03*
%TO.P,R20,2*%
%TO.N,GND*%
X89650000Y-173800000D03*
%TD*%
D17*
%TO.P,KR1,1,+5V_TOP_LED*%
%TO.N,Net-(J1-Pin_1)*%
X77750000Y-98650000D03*
%TO.P,KR1,2,GND_TOP_LED*%
%TO.N,GND*%
X77750000Y-101190000D03*
%TO.P,KR1,3,+5V_BOTTOM_LED*%
%TO.N,Net-(J1-Pin_2)*%
X77750000Y-103730000D03*
%TO.P,KR1,4,GND_BOTTOM_LED*%
%TO.N,GND*%
X77750000Y-106270000D03*
%TO.P,KR1,5,SW_IN*%
%TO.N,Net-(J1-Pin_3)*%
X62050000Y-103150000D03*
%TO.P,KR1,6,SW_OUT*%
%TO.N,GND*%
X62050000Y-105690000D03*
%TD*%
D15*
%TO.P,J3,1,Pin_1*%
%TO.N,GND*%
X94060000Y-150800000D03*
D16*
%TO.P,J3,2,Pin_2*%
%TO.N,Net-(J1-Pin_30)*%
X96600000Y-150800000D03*
%TO.P,J3,3,Pin_3*%
%TO.N,Net-(J1-Pin_31)*%
X99140000Y-150800000D03*
%TD*%
D12*
%TO.P,D75,1,K*%
%TO.N,Net-(D75-K)*%
X95260000Y-205000000D03*
D13*
%TO.P,D75,2,A*%
%TO.N,+12V*%
X97410000Y-205000000D03*
%TD*%
D12*
%TO.P,D110,1,K*%
%TO.N,Net-(D110-K)*%
X324160000Y-191400000D03*
D13*
%TO.P,D110,2,A*%
%TO.N,Net-(D109-K)*%
X326310000Y-191400000D03*
%TD*%
D14*
%TO.P,R23,1*%
%TO.N,Net-(D67-K)*%
X150550000Y-177600000D03*
%TO.P,R23,2*%
%TO.N,GND*%
X153650000Y-177600000D03*
%TD*%
D17*
%TO.P,KR5,1,+5V_TOP_LED*%
%TO.N,Net-(J1-Pin_7)*%
X173900000Y-98700000D03*
%TO.P,KR5,2,GND_TOP_LED*%
%TO.N,GND*%
X173900000Y-101240000D03*
%TO.P,KR5,3,+5V_BOTTOM_LED*%
%TO.N,Net-(J1-Pin_8)*%
X173900000Y-103780000D03*
%TO.P,KR5,4,GND_BOTTOM_LED*%
%TO.N,GND*%
X173900000Y-106320000D03*
%TO.P,KR5,5,SW_IN*%
%TO.N,Net-(J1-Pin_9)*%
X158200000Y-103200000D03*
%TO.P,KR5,6,SW_OUT*%
%TO.N,GND*%
X158200000Y-105740000D03*
%TD*%
D12*
%TO.P,D23,1,K*%
%TO.N,Net-(D23-K)*%
X192060000Y-94600000D03*
D13*
%TO.P,D23,2,A*%
%TO.N,+12V*%
X194210000Y-94600000D03*
%TD*%
D14*
%TO.P,R13,1*%
%TO.N,Net-(D37-K)*%
X320300000Y-125800000D03*
%TO.P,R13,2*%
%TO.N,GND*%
X323400000Y-125800000D03*
%TD*%
D12*
%TO.P,D96,1,K*%
%TO.N,Net-(D96-K)*%
X333950000Y-126100000D03*
D13*
%TO.P,D96,2,A*%
%TO.N,+12V*%
X336100000Y-126100000D03*
%TD*%
D14*
%TO.P,R30,1*%
%TO.N,Net-(D86-K)*%
X219700000Y-170500000D03*
%TO.P,R30,2*%
%TO.N,GND*%
X222800000Y-170500000D03*
%TD*%
D12*
%TO.P,D53,1,K*%
%TO.N,Net-(D53-K)*%
X54500000Y-138100000D03*
D13*
%TO.P,D53,2,A*%
%TO.N,+12V*%
X56650000Y-138100000D03*
%TD*%
D10*
%TO.P,J20,1,Pin_1*%
%TO.N,Net-(J11-Pin_3)*%
X73200000Y-82300000D03*
D11*
%TO.P,J20,2,Pin_2*%
%TO.N,Net-(J11-Pin_2)*%
X78280000Y-82300000D03*
%TO.P,J20,3,Pin_3*%
%TO.N,Net-(J11-Pin_1)*%
X83360000Y-82300000D03*
%TD*%
D15*
%TO.P,J1,1,Pin_1*%
%TO.N,Net-(J1-Pin_1)*%
X252680000Y-85600000D03*
D16*
%TO.P,J1,2,Pin_2*%
%TO.N,Net-(J1-Pin_2)*%
X252680000Y-83060000D03*
%TO.P,J1,3,Pin_3*%
%TO.N,Net-(J1-Pin_3)*%
X250140000Y-85600000D03*
%TO.P,J1,4,Pin_4*%
%TO.N,Net-(J1-Pin_4)*%
X250140000Y-83060000D03*
%TO.P,J1,5,Pin_5*%
%TO.N,Net-(J1-Pin_5)*%
X247600000Y-85600000D03*
%TO.P,J1,6,Pin_6*%
%TO.N,Net-(J1-Pin_6)*%
X247600000Y-83060000D03*
%TO.P,J1,7,Pin_7*%
%TO.N,Net-(J1-Pin_7)*%
X245060000Y-85600000D03*
%TO.P,J1,8,Pin_8*%
%TO.N,Net-(J1-Pin_8)*%
X245060000Y-83060000D03*
%TO.P,J1,9,Pin_9*%
%TO.N,Net-(J1-Pin_9)*%
X242520000Y-85600000D03*
%TO.P,J1,10,Pin_10*%
%TO.N,Net-(J1-Pin_10)*%
X242520000Y-83060000D03*
%TO.P,J1,11,Pin_11*%
%TO.N,Net-(J1-Pin_11)*%
X239980000Y-85600000D03*
%TO.P,J1,12,Pin_12*%
%TO.N,Net-(J1-Pin_12)*%
X239980000Y-83060000D03*
%TO.P,J1,13,Pin_13*%
%TO.N,Net-(J1-Pin_13)*%
X237440000Y-85600000D03*
%TO.P,J1,14,Pin_14*%
%TO.N,Net-(J1-Pin_14)*%
X237440000Y-83060000D03*
%TO.P,J1,15,Pin_15*%
%TO.N,Net-(J1-Pin_15)*%
X234900000Y-85600000D03*
%TO.P,J1,16,Pin_16*%
%TO.N,Net-(J1-Pin_16)*%
X234900000Y-83060000D03*
%TO.P,J1,17,Pin_17*%
%TO.N,Net-(J1-Pin_17)*%
X232360000Y-85600000D03*
%TO.P,J1,18,Pin_18*%
%TO.N,Net-(J1-Pin_18)*%
X232360000Y-83060000D03*
%TO.P,J1,19,Pin_19*%
%TO.N,Net-(J1-Pin_19)*%
X229820000Y-85600000D03*
%TO.P,J1,20,Pin_20*%
%TO.N,Net-(J1-Pin_20)*%
X229820000Y-83060000D03*
%TO.P,J1,21,Pin_21*%
%TO.N,Net-(J1-Pin_21)*%
X227280000Y-85600000D03*
%TO.P,J1,22,Pin_22*%
%TO.N,Net-(J1-Pin_22)*%
X227280000Y-83060000D03*
%TO.P,J1,23,Pin_23*%
%TO.N,Net-(J1-Pin_23)*%
X224740000Y-85600000D03*
%TO.P,J1,24,Pin_24*%
%TO.N,Net-(J1-Pin_24)*%
X224740000Y-83060000D03*
%TO.P,J1,25,Pin_25*%
%TO.N,Net-(J1-Pin_25)*%
X222200000Y-85600000D03*
%TO.P,J1,26,Pin_26*%
%TO.N,Net-(J1-Pin_26)*%
X222200000Y-83060000D03*
%TO.P,J1,27,Pin_27*%
%TO.N,Net-(J1-Pin_27)*%
X219660000Y-85600000D03*
%TO.P,J1,28,Pin_28*%
%TO.N,Net-(J1-Pin_28)*%
X219660000Y-83060000D03*
%TO.P,J1,29,Pin_29*%
%TO.N,Net-(J1-Pin_29)*%
X217120000Y-85600000D03*
%TO.P,J1,30,Pin_30*%
%TO.N,Net-(J1-Pin_30)*%
X217120000Y-83060000D03*
%TO.P,J1,31,Pin_31*%
%TO.N,Net-(J1-Pin_31)*%
X214580000Y-85600000D03*
%TO.P,J1,32,Pin_32*%
%TO.N,Net-(J1-Pin_32)*%
X214580000Y-83060000D03*
%TO.P,J1,33,Pin_33*%
%TO.N,Net-(J1-Pin_33)*%
X212040000Y-85600000D03*
%TO.P,J1,34,Pin_34*%
%TO.N,Net-(J1-Pin_34)*%
X212040000Y-83060000D03*
%TO.P,J1,35,Pin_35*%
%TO.N,Net-(J1-Pin_35)*%
X209500000Y-85600000D03*
%TO.P,J1,36,Pin_36*%
%TO.N,Net-(J1-Pin_36)*%
X209500000Y-83060000D03*
%TO.P,J1,37,Pin_37*%
%TO.N,Net-(J1-Pin_37)*%
X206960000Y-85600000D03*
%TO.P,J1,38,Pin_38*%
%TO.N,Net-(J1-Pin_38)*%
X206960000Y-83060000D03*
%TO.P,J1,39,Pin_39*%
%TO.N,unconnected-(J1-Pin_39-Pad39)*%
X204420000Y-85600000D03*
%TO.P,J1,40,Pin_40*%
%TO.N,unconnected-(J1-Pin_40-Pad40)*%
X204420000Y-83060000D03*
%TD*%
D15*
%TO.P,J10,1,Pin_1*%
%TO.N,Net-(J10-Pin_1)*%
X192480000Y-85600000D03*
D16*
%TO.P,J10,2,Pin_2*%
%TO.N,Net-(J10-Pin_2)*%
X192480000Y-83060000D03*
%TO.P,J10,3,Pin_3*%
%TO.N,Net-(J10-Pin_3)*%
X189940000Y-85600000D03*
%TO.P,J10,4,Pin_4*%
%TO.N,Net-(J10-Pin_4)*%
X189940000Y-83060000D03*
%TO.P,J10,5,Pin_5*%
%TO.N,Net-(J10-Pin_5)*%
X187400000Y-85600000D03*
%TO.P,J10,6,Pin_6*%
%TO.N,Net-(J10-Pin_6)*%
X187400000Y-83060000D03*
%TO.P,J10,7,Pin_7*%
%TO.N,Net-(J10-Pin_7)*%
X184860000Y-85600000D03*
%TO.P,J10,8,Pin_8*%
%TO.N,Net-(J10-Pin_8)*%
X184860000Y-83060000D03*
%TO.P,J10,9,Pin_9*%
%TO.N,Net-(J10-Pin_9)*%
X182320000Y-85600000D03*
%TO.P,J10,10,Pin_10*%
%TO.N,Net-(J10-Pin_10)*%
X182320000Y-83060000D03*
%TO.P,J10,11,Pin_11*%
%TO.N,Net-(J10-Pin_11)*%
X179780000Y-85600000D03*
%TO.P,J10,12,Pin_12*%
%TO.N,Net-(J10-Pin_12)*%
X179780000Y-83060000D03*
%TO.P,J10,13,Pin_13*%
%TO.N,Net-(J10-Pin_13)*%
X177240000Y-85600000D03*
%TO.P,J10,14,Pin_14*%
%TO.N,Net-(J10-Pin_14)*%
X177240000Y-83060000D03*
%TO.P,J10,15,Pin_15*%
%TO.N,Net-(J10-Pin_15)*%
X174700000Y-85600000D03*
%TO.P,J10,16,Pin_16*%
%TO.N,Net-(J10-Pin_16)*%
X174700000Y-83060000D03*
%TO.P,J10,17,Pin_17*%
%TO.N,Net-(J10-Pin_17)*%
X172160000Y-85600000D03*
%TO.P,J10,18,Pin_18*%
%TO.N,Net-(J10-Pin_18)*%
X172160000Y-83060000D03*
%TO.P,J10,19,Pin_19*%
%TO.N,Net-(J10-Pin_19)*%
X169620000Y-85600000D03*
%TO.P,J10,20,Pin_20*%
%TO.N,Net-(J10-Pin_20)*%
X169620000Y-83060000D03*
%TO.P,J10,21,Pin_21*%
%TO.N,Net-(J10-Pin_21)*%
X167080000Y-85600000D03*
%TO.P,J10,22,Pin_22*%
%TO.N,Net-(J10-Pin_22)*%
X167080000Y-83060000D03*
%TO.P,J10,23,Pin_23*%
%TO.N,Net-(J10-Pin_23)*%
X164540000Y-85600000D03*
%TO.P,J10,24,Pin_24*%
%TO.N,Net-(J10-Pin_24)*%
X164540000Y-83060000D03*
%TO.P,J10,25,Pin_25*%
%TO.N,Net-(J10-Pin_25)*%
X162000000Y-85600000D03*
%TO.P,J10,26,Pin_26*%
%TO.N,Net-(J10-Pin_26)*%
X162000000Y-83060000D03*
%TO.P,J10,27,Pin_27*%
%TO.N,Net-(J10-Pin_27)*%
X159460000Y-85600000D03*
%TO.P,J10,28,Pin_28*%
%TO.N,Net-(J10-Pin_28)*%
X159460000Y-83060000D03*
%TO.P,J10,29,Pin_29*%
%TO.N,Net-(J10-Pin_29)*%
X156920000Y-85600000D03*
%TO.P,J10,30,Pin_30*%
%TO.N,Net-(J10-Pin_30)*%
X156920000Y-83060000D03*
%TO.P,J10,31,Pin_31*%
%TO.N,Net-(J10-Pin_31)*%
X154380000Y-85600000D03*
%TO.P,J10,32,Pin_32*%
%TO.N,Net-(J10-Pin_32)*%
X154380000Y-83060000D03*
%TO.P,J10,33,Pin_33*%
%TO.N,Net-(J10-Pin_33)*%
X151840000Y-85600000D03*
%TO.P,J10,34,Pin_34*%
%TO.N,Net-(J10-Pin_34)*%
X151840000Y-83060000D03*
%TO.P,J10,35,Pin_35*%
%TO.N,Net-(J10-Pin_35)*%
X149300000Y-85600000D03*
%TO.P,J10,36,Pin_36*%
%TO.N,Net-(J10-Pin_36)*%
X149300000Y-83060000D03*
%TO.P,J10,37,Pin_37*%
%TO.N,unconnected-(J10-Pin_37-Pad37)*%
X146760000Y-85600000D03*
%TO.P,J10,38,Pin_38*%
%TO.N,unconnected-(J10-Pin_38-Pad38)*%
X146760000Y-83060000D03*
%TO.P,J10,39,Pin_39*%
%TO.N,unconnected-(J10-Pin_39-Pad39)*%
X144220000Y-85600000D03*
%TO.P,J10,40,Pin_40*%
%TO.N,unconnected-(J10-Pin_40-Pad40)*%
X144220000Y-83060000D03*
%TD*%
D10*
%TO.P,J21,1,Pin_1*%
%TO.N,GND*%
X58060000Y-82300000D03*
D11*
%TO.P,J21,2,Pin_2*%
%TO.N,+12V*%
X63140000Y-82300000D03*
%TD*%
D18*
%TO.N,Net-(D116-K)*%
X360755200Y-136341100D03*
X361774100Y-128402800D03*
%TO.N,Net-(D115-K)*%
X361675800Y-140388000D03*
X353125900Y-193606000D03*
%TO.N,Net-(D113-K)*%
X352647900Y-168791000D03*
X350349300Y-175612600D03*
%TO.N,Net-(D112-K)*%
X352385400Y-169616000D03*
X346639700Y-202602700D03*
%TO.N,Net-(D111-K)*%
X335418300Y-199603800D03*
X323473500Y-178611500D03*
%TO.N,Net-(D110-K)*%
X322794900Y-190607100D03*
X318507400Y-169886700D03*
%TO.N,Net-(D109-K)*%
X334482600Y-189725000D03*
X332432100Y-175612600D03*
%TO.N,Net-(D108-K)*%
X339975500Y-207016800D03*
X346592000Y-174550300D03*
%TO.N,Net-(D106-K)*%
X290625300Y-193606000D03*
X290625300Y-203237200D03*
%TO.N,Net-(D105-K)*%
X297426000Y-190607100D03*
X296513600Y-172529600D03*
%TO.N,Net-(D104-K)*%
X285148300Y-202062700D03*
X281186500Y-178611500D03*
%TO.N,Net-(D103-K)*%
X285721800Y-201470500D03*
X287639100Y-178611500D03*
%TO.N,Net-(D102-K)*%
X256995300Y-203576500D03*
X254448600Y-178611500D03*
%TO.N,Net-(D100-K)*%
X233887500Y-199076600D03*
X230758800Y-175612600D03*
%TO.N,Net-(D100-A)*%
X344376900Y-154620300D03*
X344376900Y-181610400D03*
%TO.N,Net-(D96-K)*%
X332169200Y-127035600D03*
X330195100Y-145623600D03*
%TO.N,Net-(D94-K)*%
X318647100Y-156834300D03*
X318552100Y-134247200D03*
%TO.N,Net-(D93-K)*%
X293722600Y-134062800D03*
X287639100Y-154620300D03*
%TO.N,Net-(D91-K)*%
X266735700Y-138456500D03*
X263749500Y-160618100D03*
%TO.N,Net-(D90-K)*%
X257191700Y-132993600D03*
X260799500Y-157583100D03*
%TO.N,Net-(D88-K)*%
X233054800Y-160618100D03*
X228354100Y-132777400D03*
%TO.N,Net-(D87-K)*%
X208457400Y-202076000D03*
X213755700Y-130629100D03*
%TO.N,Net-(D85-K)*%
X204191100Y-148622500D03*
X206055900Y-166615900D03*
%TO.N,Net-(D84-K)*%
X209997900Y-136199400D03*
X210826100Y-148622500D03*
%TO.N,Net-(D83-K)*%
X189094500Y-199603800D03*
X191841300Y-176556200D03*
%TO.N,Net-(D82-K)*%
X187081300Y-200453500D03*
X189288800Y-175806900D03*
%TO.N,Net-(D81-K)*%
X186108300Y-168832100D03*
X187282600Y-130524700D03*
%TO.N,Net-(D79-K)*%
X148386800Y-203757100D03*
X146552000Y-191426500D03*
%TO.N,Net-(D77-K)*%
X114439500Y-178611500D03*
X117840000Y-202602700D03*
%TO.N,Net-(D76-K)*%
X118479400Y-201703000D03*
X117840000Y-175612600D03*
%TO.N,Net-(D74-K)*%
X75267600Y-202602700D03*
X78605100Y-181018700D03*
%TO.N,Net-(D72-K)*%
X57701700Y-205601600D03*
X51442800Y-181610400D03*
%TO.N,Net-(D70-K)*%
X144301500Y-199603800D03*
X140615800Y-178611500D03*
%TO.N,Net-(D68-K)*%
X171177300Y-169614800D03*
X174163500Y-148622500D03*
%TO.N,Net-(D67-K)*%
X152305200Y-137319200D03*
X152323200Y-177456000D03*
%TO.N,Net-(D66-K)*%
X147556400Y-136626900D03*
X140365800Y-163617000D03*
%TO.N,Net-(D65-K)*%
X144301500Y-151154200D03*
X145227900Y-163972200D03*
%TO.N,Net-(D64-K)*%
X124371100Y-175612600D03*
X126384300Y-138270400D03*
%TO.N,Net-(D63-K)*%
X112458300Y-138614500D03*
X107791700Y-163617000D03*
%TO.N,Net-(D62-K)*%
X114412700Y-148362700D03*
X114439500Y-163617000D03*
%TO.N,Net-(D61-K)*%
X86316200Y-166615900D03*
X85383400Y-201763600D03*
%TO.N,Net-(D60-K)*%
X106115100Y-163617000D03*
X111453300Y-135345900D03*
%TO.N,Net-(D59-K)*%
X108008200Y-140122500D03*
X109323300Y-135764400D03*
%TO.N,Net-(D58-K)*%
X86761700Y-139423200D03*
X88100000Y-173592200D03*
%TO.N,Net-(D55-K)*%
X54715500Y-172613700D03*
X51729300Y-163617000D03*
%TO.N,Net-(D54-K)*%
X63440500Y-138760100D03*
X58278000Y-163617000D03*
%TO.N,Net-(J1-Pin_2)*%
X240057700Y-108264400D03*
%TO.N,Net-(J1-Pin_1)*%
X78605100Y-109636800D03*
X249940900Y-112717400D03*
%TO.N,Net-(J1-Pin_3)*%
X236944500Y-112717400D03*
%TO.N,Net-(J11-Pin_3)*%
X80688100Y-111281500D03*
X245832300Y-114472500D03*
%TO.N,Net-(J11-Pin_2)*%
X95962800Y-131985600D03*
X240756100Y-138307500D03*
%TO.N,Net-(J11-Pin_1)*%
X96522300Y-133628000D03*
%TO.N,Net-(J10-Pin_33)*%
X152215400Y-112898100D03*
X228974500Y-114522500D03*
X230311300Y-115368300D03*
X263749500Y-114802200D03*
%TO.N,Net-(J10-Pin_17)*%
X244189200Y-88224400D03*
X242757700Y-100391100D03*
%TO.N,Net-(J10-Pin_36)*%
X341390700Y-85645600D03*
%TO.N,Net-(J10-Pin_13)*%
X178089700Y-109459600D03*
%TO.N,Net-(J10-Pin_22)*%
X194130000Y-80495500D03*
X195063100Y-144660800D03*
X176929800Y-80820800D03*
%TO.N,Net-(J10-Pin_30)*%
X161062300Y-138469700D03*
%TO.N,Net-(J10-Pin_16)*%
X316596400Y-80566000D03*
%TO.N,Net-(J10-Pin_19)*%
X174143100Y-109408700D03*
%TO.N,Net-(J10-Pin_27)*%
X163349000Y-145903500D03*
%TO.N,Net-(J10-Pin_5)*%
X171375200Y-149181300D03*
%TO.N,Net-(J10-Pin_31)*%
X263749500Y-183773800D03*
X162300900Y-177740600D03*
%TO.N,Net-(J10-Pin_12)*%
X194414600Y-103144200D03*
%TO.N,Net-(J10-Pin_1)*%
X174628200Y-185521000D03*
%TO.N,Net-(J10-Pin_4)*%
X176647600Y-149472200D03*
%TO.N,Net-(J10-Pin_29)*%
X161746600Y-140807200D03*
%TO.N,Net-(J10-Pin_24)*%
X176226400Y-138701500D03*
X240080100Y-138853100D03*
%TO.N,Net-(J10-Pin_32)*%
X158225400Y-187711300D03*
%TO.N,Net-(J10-Pin_2)*%
X171177300Y-188457900D03*
%TO.N,Net-(J10-Pin_3)*%
X171789000Y-186639700D03*
%TO.N,Net-(J10-Pin_25)*%
X168191100Y-144422900D03*
%TO.N,Net-(J10-Pin_34)*%
X159720900Y-183429900D03*
%TO.N,Net-(J10-Pin_18)*%
X176882100Y-110689700D03*
%TO.N,Net-(J10-Pin_11)*%
X221054800Y-104969200D03*
X222274900Y-89471800D03*
X180479400Y-89220500D03*
%TO.N,Net-(J10-Pin_28)*%
X165084100Y-142202100D03*
%TO.N,Net-(J10-Pin_7)*%
X183122100Y-163617000D03*
X164191000Y-163617000D03*
X189687900Y-87381800D03*
%TO.N,Net-(J10-Pin_20)*%
X180982500Y-112015600D03*
%TO.N,Net-(J10-Pin_15)*%
X176342800Y-109131900D03*
%TO.N,Net-(J10-Pin_26)*%
X167914500Y-142967900D03*
%TO.N,Net-(J10-Pin_35)*%
X149575400Y-139625800D03*
X338470500Y-141597800D03*
%TO.N,Net-(J10-Pin_21)*%
X168899400Y-138745900D03*
X275561000Y-139331900D03*
%TO.N,Net-(J10-Pin_10)*%
X182991400Y-94482100D03*
X219946100Y-104999800D03*
X217986100Y-93316100D03*
%TO.N,Net-(J10-Pin_14)*%
X307909700Y-80907600D03*
%TO.N,Net-(J10-Pin_23)*%
X226094400Y-144015100D03*
X169392000Y-144019200D03*
%TO.N,Net-(J1-Pin_38)*%
X195066900Y-188028000D03*
%TO.N,Net-(J1-Pin_15)*%
X239800700Y-101056700D03*
%TO.N,Net-(J1-Pin_36)*%
X96522300Y-180760700D03*
X198003300Y-179025800D03*
%TO.N,Net-(J1-Pin_9)*%
X242571000Y-97493000D03*
%TO.N,Net-(J1-Pin_13)*%
X240053300Y-98409000D03*
%TO.N,Net-(J1-Pin_11)*%
X221079500Y-87462300D03*
%TO.N,Net-(J1-Pin_29)*%
X66660300Y-133153100D03*
X207766700Y-136708200D03*
%TO.N,Net-(J1-Pin_34)*%
X198899700Y-182193300D03*
%TO.N,Net-(J1-Pin_17)*%
X237897500Y-100016400D03*
%TO.N,Net-(J1-Pin_22)*%
X206793200Y-181853100D03*
X228851200Y-81616000D03*
%TO.N,Net-(J1-Pin_8)*%
X180922900Y-81971200D03*
X180034400Y-103370500D03*
X179492600Y-94142700D03*
X181678000Y-93180200D03*
%TO.N,Net-(J1-Pin_21)*%
X226316000Y-151621400D03*
%TO.N,Net-(J1-Pin_12)*%
X236394800Y-96822200D03*
%TO.N,Net-(J1-Pin_31)*%
X123687200Y-85356500D03*
%TO.N,Net-(J1-Pin_16)*%
X233679600Y-92634500D03*
%TO.N,Net-(J1-Pin_14)*%
X284652900Y-83069100D03*
%TO.N,Net-(J1-Pin_33)*%
X211229700Y-88576800D03*
X147287700Y-87369900D03*
%TO.N,Net-(J1-Pin_27)*%
X243904300Y-185237900D03*
X228340800Y-87078300D03*
%TO.N,Net-(J1-Pin_26)*%
X287639100Y-80973200D03*
%TO.N,Net-(J1-Pin_19)*%
X235561700Y-148861300D03*
%TO.N,Net-(J1-Pin_18)*%
X335380600Y-82684500D03*
%TO.N,Net-(J1-Pin_6)*%
X126384300Y-113418400D03*
X237302000Y-114722600D03*
%TO.N,Net-(J1-Pin_24)*%
X245832300Y-182178600D03*
%TO.N,Net-(J1-Pin_7)*%
X186770200Y-88002700D03*
X184927900Y-96617700D03*
%TO.N,Net-(J1-Pin_32)*%
X202663500Y-151621400D03*
%TO.N,Net-(J1-Pin_37)*%
X201791200Y-187317200D03*
%TO.N,Net-(J1-Pin_10)*%
X238968700Y-98267600D03*
%TO.N,Net-(J1-Pin_28)*%
X212535000Y-107981900D03*
X178998200Y-108785700D03*
X69646500Y-130409900D03*
X179239400Y-128422600D03*
%TO.N,GND*%
X97368900Y-94642300D03*
X62360000Y-172613700D03*
X317501100Y-202313600D03*
X90549900Y-202602700D03*
X270468000Y-117856200D03*
X126384300Y-201913600D03*
X240536800Y-118850400D03*
X160107600Y-172267900D03*
X129690000Y-175612600D03*
X199485900Y-172613700D03*
X159232500Y-201592100D03*
X92360000Y-172613700D03*
X338404500Y-121056000D03*
X215970300Y-169614800D03*
X338923000Y-123019500D03*
X218956500Y-205601600D03*
X335418300Y-169428300D03*
X159232500Y-127384700D03*
X335890000Y-128140400D03*
X340551500Y-96825900D03*
X97368900Y-115087200D03*
X299583900Y-130629100D03*
%TO.N,Net-(J1-Pin_30)*%
X197629200Y-82973600D03*
X194781000Y-154620300D03*
%TO.N,Net-(J1-Pin_35)*%
X197941400Y-182154600D03*
%TO.N,Net-(D52-K)*%
X352384200Y-157271900D03*
X350349300Y-130629100D03*
%TO.N,Net-(D51-K)*%
X349993100Y-115278500D03*
X356321700Y-127630200D03*
%TO.N,Net-(D49-K)*%
X358562100Y-100640100D03*
X355001400Y-125880500D03*
%TO.N,Net-(D44-K)*%
X327874600Y-97805300D03*
X326607000Y-87965200D03*
%TO.N,Net-(D42-K)*%
X329445900Y-121632400D03*
X333193200Y-111847700D03*
%TO.N,Net-(D39-K)*%
X305556300Y-97641200D03*
X300169100Y-112635700D03*
%TO.N,Net-(D35-K)*%
X269721900Y-91643400D03*
X273816000Y-120664600D03*
%TO.N,Net-(D34-K)*%
X274950100Y-118878300D03*
X275694300Y-94650200D03*
%TO.N,Net-(D32-K)*%
X261896700Y-102879700D03*
X267095000Y-88644500D03*
%TO.N,Net-(D30-K)*%
X236008800Y-107441000D03*
X236898200Y-116873200D03*
%TO.N,Net-(D29-K)*%
X232335800Y-95467800D03*
X236873700Y-106637900D03*
%TO.N,Net-(D28-K)*%
X191809600Y-106874900D03*
X193138700Y-116200800D03*
%TO.N,Net-(D27-K)*%
X205002500Y-106526000D03*
X205687700Y-118633500D03*
%TO.N,Net-(D26-K)*%
X227915100Y-118633500D03*
X226268500Y-92940500D03*
%TO.N,Net-(D25-K)*%
X206056700Y-127839800D03*
X205131500Y-98165300D03*
%TO.N,Net-(D24-K)*%
X188646200Y-118633500D03*
X190740600Y-101729500D03*
%TO.N,Net-(D23-K)*%
X193028300Y-120732700D03*
X191997100Y-96529500D03*
%TO.N,Net-(D22-K)*%
X179553500Y-106909600D03*
X180135900Y-127839800D03*
%TO.N,Net-(D21-K)*%
X180724800Y-95616400D03*
X179437500Y-89228600D03*
%TO.N,Net-(D20-K)*%
X172180100Y-93331900D03*
X171177300Y-118633500D03*
%TO.N,Net-(D17-K)*%
X153745000Y-90941100D03*
X156031300Y-118633500D03*
%TO.N,Net-(D16-K)*%
X132236500Y-118884600D03*
X135342900Y-87794800D03*
%TO.N,Net-(D13-K)*%
X129370500Y-118884600D03*
X129489100Y-105679200D03*
%TO.N,Net-(D12-K)*%
X138329100Y-91643400D03*
X135342900Y-112808300D03*
%TO.N,Net-(D11-K)*%
X121438000Y-102644200D03*
X129370500Y-88644500D03*
%TO.N,Net-(D10-K)*%
X122757200Y-91041800D03*
X122937600Y-100173300D03*
%TO.N,Net-(D8-K)*%
X72632700Y-87815600D03*
X66660300Y-118781100D03*
%TO.N,Net-(D4-K)*%
X75618900Y-118633500D03*
X74772400Y-97641200D03*
%TO.N,+12V*%
X81591300Y-175612600D03*
X78729700Y-163617000D03*
X81622800Y-202602700D03*
X59962300Y-89515000D03*
X99508500Y-120385200D03*
X363047200Y-150857400D03*
X359781600Y-121220500D03*
X260714500Y-106894000D03*
X263749500Y-130629100D03*
X189094500Y-128386100D03*
X186965000Y-106637900D03*
X329389200Y-201798000D03*
X330292500Y-178611500D03*
X101418300Y-134477700D03*
X362294100Y-88644500D03*
X358884700Y-98070800D03*
X85029900Y-134477700D03*
X265889200Y-156769500D03*
X188795300Y-146461500D03*
%TD*%
D19*
%TO.N,Net-(D116-K)*%
X360755200Y-138095200D02*
X360755200Y-136341100D01*
X361260000Y-138600000D02*
X360755200Y-138095200D01*
X361774100Y-127074100D02*
X361774100Y-128402800D01*
X361500000Y-126800000D02*
X361774100Y-127074100D01*
%TO.N,Net-(D115-K)*%
X361675800Y-140334200D02*
X361675800Y-140388000D01*
X363410000Y-138600000D02*
X361675800Y-140334200D01*
X354554000Y-193606000D02*
X354960000Y-193200000D01*
X353125900Y-193606000D02*
X354554000Y-193606000D01*
%TO.N,Net-(D114-K)*%
X326260000Y-203037900D02*
X326260000Y-203400000D01*
X334590900Y-194707000D02*
X326260000Y-203037900D01*
X355603000Y-194707000D02*
X334590900Y-194707000D01*
X357110000Y-193200000D02*
X355603000Y-194707000D01*
%TO.N,Net-(D113-K)*%
X359151000Y-168791000D02*
X352647900Y-168791000D01*
X359160000Y-168800000D02*
X359151000Y-168791000D01*
X352937400Y-175612600D02*
X353250000Y-175300000D01*
X350349300Y-175612600D02*
X352937400Y-175612600D01*
%TO.N,Net-(D112-K)*%
X347362700Y-202602700D02*
X347960000Y-203200000D01*
X346639700Y-202602700D02*
X347362700Y-202602700D01*
X353078800Y-170309400D02*
X352385400Y-169616000D01*
X359800600Y-170309400D02*
X353078800Y-170309400D01*
X361310000Y-168800000D02*
X359800600Y-170309400D01*
%TO.N,Net-(D111-K)*%
X346513800Y-199603800D02*
X335418300Y-199603800D01*
X350110000Y-203200000D02*
X346513800Y-199603800D01*
X325371500Y-178611500D02*
X325660000Y-178900000D01*
X323473500Y-178611500D02*
X325371500Y-178611500D01*
%TO.N,Net-(D110-K)*%
X323587800Y-191400000D02*
X322794900Y-190607100D01*
X324160000Y-191400000D02*
X323587800Y-191400000D01*
X317400000Y-168779300D02*
X317400000Y-167900000D01*
X318507400Y-169886700D02*
X317400000Y-168779300D01*
%TO.N,Net-(D109-K)*%
X332807600Y-191400000D02*
X334482600Y-189725000D01*
X326310000Y-191400000D02*
X332807600Y-191400000D01*
X340847400Y-175612600D02*
X342360000Y-174100000D01*
X332432100Y-175612600D02*
X340847400Y-175612600D01*
%TO.N,Net-(D108-K)*%
X344960300Y-174550300D02*
X344510000Y-174100000D01*
X346592000Y-174550300D02*
X344960300Y-174550300D01*
X309741900Y-207016800D02*
X339975500Y-207016800D01*
X308560000Y-205834900D02*
X309741900Y-207016800D01*
X308560000Y-205500000D02*
X308560000Y-205834900D01*
%TO.N,Net-(D107-K)*%
X317514300Y-204014300D02*
X317900000Y-204400000D01*
X306043400Y-204014300D02*
X317514300Y-204014300D01*
X304079400Y-205978300D02*
X306043400Y-204014300D01*
X285967800Y-205978300D02*
X304079400Y-205978300D01*
X284360000Y-204370500D02*
X285967800Y-205978300D01*
X284360000Y-204000000D02*
X284360000Y-204370500D01*
%TO.N,Net-(D106-K)*%
X291154000Y-193606000D02*
X290625300Y-193606000D01*
X293560000Y-191200000D02*
X291154000Y-193606000D01*
X287272800Y-203237200D02*
X286510000Y-204000000D01*
X290625300Y-203237200D02*
X287272800Y-203237200D01*
%TO.N,Net-(D105-K)*%
X296833100Y-191200000D02*
X297426000Y-190607100D01*
X295710000Y-191200000D02*
X296833100Y-191200000D01*
X297384000Y-173400000D02*
X296513600Y-172529600D01*
X307760000Y-173400000D02*
X297384000Y-173400000D01*
%TO.N,Net-(D104-K)*%
X281338500Y-178611500D02*
X282750000Y-177200000D01*
X281186500Y-178611500D02*
X281338500Y-178611500D01*
X293822200Y-202172200D02*
X296350000Y-204700000D01*
X285257800Y-202172200D02*
X293822200Y-202172200D01*
X285148300Y-202062700D02*
X285257800Y-202172200D01*
%TO.N,Net-(D103-K)*%
X284778500Y-200527200D02*
X285721800Y-201470500D01*
X257319200Y-200527200D02*
X284778500Y-200527200D01*
X256250000Y-201596400D02*
X257319200Y-200527200D01*
X256250000Y-202000000D02*
X256250000Y-201596400D01*
X286311500Y-178611500D02*
X284900000Y-177200000D01*
X287639100Y-178611500D02*
X286311500Y-178611500D01*
%TO.N,Net-(D102-K)*%
X258400000Y-202171800D02*
X256995300Y-203576500D01*
X258400000Y-202000000D02*
X258400000Y-202171800D01*
X255438500Y-178611500D02*
X256150000Y-177900000D01*
X254448600Y-178611500D02*
X255438500Y-178611500D01*
%TO.N,Net-(D101-K)*%
X223250000Y-201100000D02*
X221050000Y-203300000D01*
X232860000Y-201100000D02*
X223250000Y-201100000D01*
%TO.N,Net-(D100-K)*%
X233887500Y-199977500D02*
X233887500Y-199076600D01*
X235010000Y-201100000D02*
X233887500Y-199977500D01*
X231272600Y-175612600D02*
X232660000Y-177000000D01*
X230758800Y-175612600D02*
X231272600Y-175612600D01*
%TO.N,Net-(D100-A)*%
X346497200Y-152500000D02*
X344376900Y-154620300D01*
X359250000Y-152500000D02*
X346497200Y-152500000D01*
X239187300Y-181377300D02*
X234810000Y-177000000D01*
X344143800Y-181377300D02*
X239187300Y-181377300D01*
X344376900Y-181610400D02*
X344143800Y-181377300D01*
%TO.N,Net-(D98-K)*%
X338560000Y-159889100D02*
X338560000Y-159500000D01*
X346770900Y-168100000D02*
X338560000Y-159889100D01*
X347700000Y-168100000D02*
X346770900Y-168100000D01*
%TO.N,Net-(D97-K)*%
X334643100Y-153433100D02*
X340710000Y-159500000D01*
X333879500Y-153433100D02*
X334643100Y-153433100D01*
X326250000Y-145803600D02*
X333879500Y-153433100D01*
X326250000Y-145400000D02*
X326250000Y-145803600D01*
%TO.N,Net-(D96-K)*%
X333104800Y-126100000D02*
X332169200Y-127035600D01*
X333950000Y-126100000D02*
X333104800Y-126100000D01*
X328623600Y-145623600D02*
X328400000Y-145400000D01*
X330195100Y-145623600D02*
X328623600Y-145623600D01*
%TO.N,Net-(D95-K)*%
X325793800Y-167700000D02*
X328650000Y-167700000D01*
X317050000Y-158956200D02*
X325793800Y-167700000D01*
X317050000Y-158600000D02*
X317050000Y-158956200D01*
%TO.N,Net-(D94-K)*%
X319200000Y-157387200D02*
X319200000Y-158600000D01*
X318647100Y-156834300D02*
X319200000Y-157387200D01*
X316060000Y-132690200D02*
X316060000Y-132300000D01*
X317617000Y-134247200D02*
X316060000Y-132690200D01*
X318552100Y-134247200D02*
X317617000Y-134247200D01*
%TO.N,Net-(D93-K)*%
X299782500Y-134062800D02*
X293722600Y-134062800D01*
X303057600Y-130787700D02*
X299782500Y-134062800D01*
X316697700Y-130787700D02*
X303057600Y-130787700D01*
X318210000Y-132300000D02*
X316697700Y-130787700D01*
X288480300Y-154620300D02*
X290060000Y-156200000D01*
X287639100Y-154620300D02*
X288480300Y-154620300D01*
%TO.N,Net-(D92-K)*%
X290160000Y-135340000D02*
X290160000Y-137500000D01*
X293600000Y-131900000D02*
X290160000Y-135340000D01*
%TO.N,Net-(D91-K)*%
X264641900Y-160618100D02*
X265860000Y-159400000D01*
X263749500Y-160618100D02*
X264641900Y-160618100D01*
X276135000Y-138456500D02*
X266735700Y-138456500D01*
X276665200Y-138986700D02*
X276135000Y-138456500D01*
X290823300Y-138986700D02*
X276665200Y-138986700D01*
X292310000Y-137500000D02*
X290823300Y-138986700D01*
%TO.N,Net-(D90-K)*%
X258185300Y-132000000D02*
X257191700Y-132993600D01*
X258650000Y-132000000D02*
X258185300Y-132000000D01*
X266193100Y-157583100D02*
X268010000Y-159400000D01*
X260799500Y-157583100D02*
X266193100Y-157583100D01*
%TO.N,Net-(D89-K)*%
X251569200Y-157619200D02*
X254350000Y-160400000D01*
X241312300Y-157619200D02*
X251569200Y-157619200D01*
X240160000Y-158771500D02*
X241312300Y-157619200D01*
X240160000Y-159100000D02*
X240160000Y-158771500D01*
%TO.N,Net-(D88-K)*%
X240791900Y-160618100D02*
X233226300Y-160618100D01*
X242310000Y-159100000D02*
X240791900Y-160618100D01*
X230582600Y-132777400D02*
X230760000Y-132600000D01*
X228354100Y-132777400D02*
X230582600Y-132777400D01*
X233226300Y-160618100D02*
X232954700Y-160618100D01*
X232954700Y-160618100D02*
X233054800Y-160618100D01*
%TO.N,Net-(D87-K)*%
X208212900Y-202076000D02*
X208457400Y-202076000D01*
X206560000Y-203728900D02*
X208212900Y-202076000D01*
X206560000Y-204100000D02*
X206560000Y-203728900D01*
X230939100Y-130629100D02*
X232910000Y-132600000D01*
X213755700Y-130629100D02*
X230939100Y-130629100D01*
%TO.N,Net-(D86-K)*%
X218720600Y-171479400D02*
X219700000Y-170500000D01*
X207335400Y-171479400D02*
X218720600Y-171479400D01*
X206260000Y-170404000D02*
X207335400Y-171479400D01*
X206260000Y-170000000D02*
X206260000Y-170404000D01*
%TO.N,Net-(D85-K)*%
X206637500Y-148622500D02*
X206960000Y-148300000D01*
X204191100Y-148622500D02*
X206637500Y-148622500D01*
X208410000Y-168970000D02*
X208410000Y-170000000D01*
X206055900Y-166615900D02*
X208410000Y-168970000D01*
%TO.N,Net-(D84-K)*%
X209432500Y-148622500D02*
X209110000Y-148300000D01*
X210826100Y-148622500D02*
X209432500Y-148622500D01*
X207160000Y-134150300D02*
X207160000Y-133800000D01*
X209209100Y-136199400D02*
X207160000Y-134150300D01*
X209997900Y-136199400D02*
X209209100Y-136199400D01*
%TO.N,Net-(D83-K)*%
X183360000Y-201353200D02*
X183360000Y-201700000D01*
X185109400Y-199603800D02*
X183360000Y-201353200D01*
X189094500Y-199603800D02*
X185109400Y-199603800D01*
X191841300Y-175708700D02*
X191841300Y-176556200D01*
X194350000Y-173200000D02*
X191841300Y-175708700D01*
%TO.N,Net-(D82-K)*%
X185834800Y-201700000D02*
X187081300Y-200453500D01*
X185510000Y-201700000D02*
X185834800Y-201700000D01*
X183160000Y-170964000D02*
X183160000Y-170600000D01*
X188002900Y-175806900D02*
X183160000Y-170964000D01*
X189288800Y-175806900D02*
X188002900Y-175806900D01*
%TO.N,Net-(D81-K)*%
X185310000Y-169630400D02*
X186108300Y-168832100D01*
X185310000Y-170600000D02*
X185310000Y-169630400D01*
X184872400Y-130524700D02*
X187282600Y-130524700D01*
X183660000Y-129312300D02*
X184872400Y-130524700D01*
X183660000Y-128900000D02*
X183660000Y-129312300D01*
%TO.N,Net-(D80-K)*%
X164031500Y-202900000D02*
X173400000Y-202900000D01*
X162760000Y-204171500D02*
X164031500Y-202900000D01*
X162760000Y-204500000D02*
X162760000Y-204171500D01*
%TO.N,Net-(D79-K)*%
X147586500Y-191426500D02*
X147860000Y-191700000D01*
X146552000Y-191426500D02*
X147586500Y-191426500D01*
X173760700Y-204500000D02*
X164910000Y-204500000D01*
X174459600Y-203801100D02*
X173760700Y-204500000D01*
X174459600Y-202011700D02*
X174459600Y-203801100D01*
X174040000Y-201592100D02*
X174459600Y-202011700D01*
X162056500Y-201592100D02*
X174040000Y-201592100D01*
X159434600Y-204214000D02*
X162056500Y-201592100D01*
X148843700Y-204214000D02*
X159434600Y-204214000D01*
X148386800Y-203757100D02*
X148843700Y-204214000D01*
%TO.N,Net-(D78-K)*%
X145538000Y-196172000D02*
X150010000Y-191700000D01*
X141684400Y-196172000D02*
X145538000Y-196172000D01*
X134360000Y-203496400D02*
X141684400Y-196172000D01*
X134360000Y-203900000D02*
X134360000Y-203496400D01*
%TO.N,Net-(D77-K)*%
X113560000Y-177732000D02*
X114439500Y-178611500D01*
X113560000Y-176000000D02*
X113560000Y-177732000D01*
X122602700Y-202602700D02*
X123600000Y-203600000D01*
X117840000Y-202602700D02*
X122602700Y-202602700D01*
%TO.N,Net-(D76-K)*%
X117723500Y-200947100D02*
X118479400Y-201703000D01*
X114608900Y-200947100D02*
X117723500Y-200947100D01*
X113560000Y-201996000D02*
X114608900Y-200947100D01*
X113560000Y-202400000D02*
X113560000Y-201996000D01*
X116097400Y-175612600D02*
X115710000Y-176000000D01*
X117840000Y-175612600D02*
X116097400Y-175612600D01*
%TO.N,Net-(D75-K)*%
X95260000Y-204621500D02*
X95260000Y-205000000D01*
X96345000Y-203536500D02*
X95260000Y-204621500D01*
X99190200Y-203536500D02*
X96345000Y-203536500D01*
X99541500Y-203887800D02*
X99190200Y-203536500D01*
X114222200Y-203887800D02*
X99541500Y-203887800D01*
X115710000Y-202400000D02*
X114222200Y-203887800D01*
%TO.N,Net-(D74-K)*%
X75557300Y-202602700D02*
X76960000Y-201200000D01*
X75267600Y-202602700D02*
X75557300Y-202602700D01*
X87937200Y-181018700D02*
X78605100Y-181018700D01*
X93055900Y-175900000D02*
X87937200Y-181018700D01*
X104150000Y-175900000D02*
X93055900Y-175900000D01*
%TO.N,Net-(D73-K)*%
X70241500Y-191390500D02*
X70594100Y-191037900D01*
X67505900Y-191390500D02*
X70241500Y-191390500D01*
X57200000Y-201696400D02*
X67505900Y-191390500D01*
X57200000Y-202100000D02*
X57200000Y-201696400D01*
X70594100Y-191037900D02*
X70841700Y-190790300D01*
X70594100Y-191037900D02*
X70841700Y-190790300D01*
X78459700Y-190790300D02*
X80050000Y-189200000D01*
X70841700Y-190790300D02*
X78459700Y-190790300D01*
%TO.N,Net-(D72-K)*%
X57701700Y-203748300D02*
X57701700Y-205601600D01*
X59350000Y-202100000D02*
X57701700Y-203748300D01*
X52310400Y-181610400D02*
X53200000Y-182500000D01*
X51442800Y-181610400D02*
X52310400Y-181610400D01*
%TO.N,Net-(D71-K)*%
X58950000Y-178900000D02*
X55350000Y-182500000D01*
X77900000Y-178900000D02*
X58950000Y-178900000D01*
%TO.N,Net-(D70-K)*%
X141748500Y-178611500D02*
X141960000Y-178400000D01*
X140615800Y-178611500D02*
X141748500Y-178611500D01*
X147597700Y-202900000D02*
X144301500Y-199603800D01*
X149550000Y-202900000D02*
X147597700Y-202900000D01*
%TO.N,Net-(D69-K)*%
X144634700Y-178924700D02*
X144110000Y-178400000D01*
X154535300Y-178924700D02*
X144634700Y-178924700D01*
X163460000Y-170000000D02*
X154535300Y-178924700D01*
%TO.N,Net-(D68-K)*%
X170792100Y-170000000D02*
X171177300Y-169614800D01*
X165610000Y-170000000D02*
X170792100Y-170000000D01*
X182682500Y-148622500D02*
X183160000Y-149100000D01*
X174163500Y-148622500D02*
X182682500Y-148622500D01*
%TO.N,Net-(D67-K)*%
X170369200Y-137319200D02*
X170850000Y-137800000D01*
X152305200Y-137319200D02*
X170369200Y-137319200D01*
X150694000Y-177456000D02*
X150550000Y-177600000D01*
X152323200Y-177456000D02*
X150694000Y-177456000D01*
%TO.N,Net-(D66-K)*%
X140977000Y-163617000D02*
X141460000Y-164100000D01*
X140365800Y-163617000D02*
X140977000Y-163617000D01*
X171521500Y-136321500D02*
X173000000Y-137800000D01*
X147861800Y-136321500D02*
X171521500Y-136321500D01*
X147556400Y-136626900D02*
X147861800Y-136321500D01*
%TO.N,Net-(D65-K)*%
X144555700Y-150900000D02*
X144301500Y-151154200D01*
X147160000Y-150900000D02*
X144555700Y-150900000D01*
X143737800Y-163972200D02*
X143610000Y-164100000D01*
X145227900Y-163972200D02*
X143737800Y-163972200D01*
%TO.N,Net-(D64-K)*%
X124358500Y-175600000D02*
X124371100Y-175612600D01*
X123200000Y-175600000D02*
X124358500Y-175600000D01*
X127654700Y-137000000D02*
X141860000Y-137000000D01*
X126384300Y-138270400D02*
X127654700Y-137000000D01*
%TO.N,Net-(D63-K)*%
X109043000Y-163617000D02*
X109160000Y-163500000D01*
X107791700Y-163617000D02*
X109043000Y-163617000D01*
X142037900Y-138972100D02*
X144010000Y-137000000D01*
X112815900Y-138972100D02*
X142037900Y-138972100D01*
X112458300Y-138614500D02*
X112815900Y-138972100D01*
%TO.N,Net-(D62-K)*%
X113560000Y-149215400D02*
X114412700Y-148362700D01*
X113560000Y-150600000D02*
X113560000Y-149215400D01*
X111427000Y-163617000D02*
X111310000Y-163500000D01*
X114439500Y-163617000D02*
X111427000Y-163617000D01*
%TO.N,Net-(D61-K)*%
X86316200Y-164833800D02*
X86316200Y-166615900D01*
X87650000Y-163500000D02*
X86316200Y-164833800D01*
X85383400Y-203116600D02*
X85383400Y-201763600D01*
X85200000Y-203300000D02*
X85383400Y-203116600D01*
%TO.N,Net-(D60-K)*%
X105998100Y-163500000D02*
X106115100Y-163617000D01*
X89800000Y-163500000D02*
X105998100Y-163500000D01*
X113399200Y-133400000D02*
X111453300Y-135345900D01*
X115460000Y-133400000D02*
X113399200Y-133400000D01*
%TO.N,Net-(D59-K)*%
X106643100Y-140122500D02*
X108008200Y-140122500D01*
X104260000Y-137739400D02*
X106643100Y-140122500D01*
X104260000Y-137400000D02*
X104260000Y-137739400D01*
X114962400Y-136047600D02*
X117610000Y-133400000D01*
X109606500Y-136047600D02*
X114962400Y-136047600D01*
X109323300Y-135764400D02*
X109606500Y-136047600D01*
%TO.N,Net-(D58-K)*%
X86761700Y-138198300D02*
X86761700Y-139423200D01*
X87460000Y-137500000D02*
X86761700Y-138198300D01*
X86757800Y-173592200D02*
X86550000Y-173800000D01*
X88100000Y-173592200D02*
X86757800Y-173592200D01*
%TO.N,Net-(D57-K)*%
X89610000Y-137567200D02*
X89610000Y-137500000D01*
X79260000Y-147917200D02*
X89610000Y-137567200D01*
X79260000Y-151200000D02*
X79260000Y-147917200D01*
%TO.N,Net-(D56-K)*%
X74160000Y-158450000D02*
X81410000Y-151200000D01*
X74160000Y-163300000D02*
X74160000Y-158450000D01*
%TO.N,Net-(D55-K)*%
X54715500Y-174615500D02*
X54715500Y-172613700D01*
X55600000Y-175500000D02*
X54715500Y-174615500D01*
X53843000Y-163617000D02*
X54160000Y-163300000D01*
X51729300Y-163617000D02*
X53843000Y-163617000D01*
%TO.N,Net-(D54-K)*%
X64100600Y-138100000D02*
X63440500Y-138760100D01*
X74160000Y-138100000D02*
X64100600Y-138100000D01*
X56627000Y-163617000D02*
X56310000Y-163300000D01*
X58278000Y-163617000D02*
X56627000Y-163617000D01*
%TO.N,Net-(D53-K)*%
X74816200Y-139593800D02*
X76310000Y-138100000D01*
X55590200Y-139593800D02*
X74816200Y-139593800D01*
X54500000Y-138503600D02*
X55590200Y-139593800D01*
X54500000Y-138100000D02*
X54500000Y-138503600D01*
%TO.N,Net-(J1-Pin_2)*%
X77750000Y-103730000D02*
X78901700Y-103730000D01*
X201801900Y-107557800D02*
X201817800Y-107541900D01*
X201801900Y-107557800D02*
X201817800Y-107541900D01*
X201725700Y-107634000D02*
X201801900Y-107557800D01*
X193111000Y-107634000D02*
X201725700Y-107634000D01*
X192861900Y-107883100D02*
X193111000Y-107634000D01*
X192861900Y-107883100D02*
X193111000Y-107634000D01*
X83054800Y-107883100D02*
X78901700Y-103730000D01*
X192861900Y-107883100D02*
X83054800Y-107883100D01*
X239367500Y-108954600D02*
X240057700Y-108264400D01*
X231442300Y-108954600D02*
X239367500Y-108954600D01*
X230479000Y-107991300D02*
X231442300Y-108954600D01*
X230479000Y-107991200D02*
X230479000Y-107991300D01*
X214899800Y-107991200D02*
X230479000Y-107991200D01*
X214170600Y-107262000D02*
X214899800Y-107991200D01*
X202097700Y-107262000D02*
X214170600Y-107262000D01*
X201817800Y-107541900D02*
X202097700Y-107262000D01*
%TO.N,Net-(J1-Pin_1)*%
X78605100Y-109636800D02*
X79291000Y-110322700D01*
X79291000Y-110322700D02*
X78605100Y-109636800D01*
X249239200Y-113419100D02*
X249940900Y-112717400D01*
X236654000Y-113419100D02*
X249239200Y-113419100D01*
X236453900Y-113219000D02*
X236654000Y-113419100D01*
X181622200Y-113219000D02*
X236453900Y-113219000D01*
X181522200Y-113319000D02*
X181622200Y-113219000D01*
X174392200Y-113319000D02*
X181522200Y-113319000D01*
X171395900Y-110322700D02*
X174392200Y-113319000D01*
X79291000Y-110322700D02*
X171395900Y-110322700D01*
X78605100Y-109636800D02*
X79291000Y-110322700D01*
%TO.N,Net-(J1-Pin_3)*%
X62050000Y-103150000D02*
X63201700Y-103150000D01*
X236844400Y-112617300D02*
X236944500Y-112717400D01*
X181373100Y-112617300D02*
X236844400Y-112617300D01*
X181273100Y-112717300D02*
X181373100Y-112617300D01*
X174961400Y-112717300D02*
X181273100Y-112717300D01*
X171883900Y-109639800D02*
X174961400Y-112717300D01*
X83903700Y-109639800D02*
X171883900Y-109639800D01*
X79353700Y-105089800D02*
X83903700Y-109639800D01*
X65141500Y-105089800D02*
X79353700Y-105089800D01*
X63201700Y-103150000D02*
X65141500Y-105089800D01*
%TO.N,Net-(J11-Pin_3)*%
X245652300Y-114292500D02*
X245832300Y-114472500D01*
X245832300Y-114472500D02*
X245652300Y-114292500D01*
X245652300Y-114292500D02*
X245832300Y-114472500D01*
X166201900Y-111281500D02*
X80688100Y-111281500D01*
X168937400Y-114017000D02*
X166201900Y-111281500D01*
X168985700Y-113968700D02*
X168937400Y-114017000D01*
X168985700Y-113968700D02*
X168937400Y-114017000D01*
X245380600Y-114020800D02*
X245652300Y-114292500D01*
X229623400Y-114020800D02*
X245380600Y-114020800D01*
X229423300Y-113820700D02*
X229623400Y-114020800D01*
X181871300Y-113820700D02*
X229423300Y-113820700D01*
X181723300Y-113968700D02*
X181871300Y-113820700D01*
X168985700Y-113968700D02*
X181723300Y-113968700D01*
%TO.N,Net-(J11-Pin_2)*%
X96019900Y-131928500D02*
X95962800Y-131985600D01*
X200693500Y-131928500D02*
X96019900Y-131928500D01*
X206909100Y-138144100D02*
X200693500Y-131928500D01*
X240592700Y-138144100D02*
X206909100Y-138144100D01*
X240756100Y-138307500D02*
X240592700Y-138144100D01*
%TO.N,Net-(J11-Pin_1)*%
X244300000Y-145600000D02*
X243048300Y-145600000D01*
X242810800Y-145362500D02*
X243048300Y-145600000D01*
X194490500Y-145362500D02*
X242810800Y-145362500D01*
X194228100Y-145100100D02*
X194490500Y-145362500D01*
X185165600Y-145100100D02*
X194228100Y-145100100D01*
X185114800Y-145150900D02*
X185165600Y-145100100D01*
X117717600Y-145150900D02*
X185114800Y-145150900D01*
X106194700Y-133628000D02*
X117717600Y-145150900D01*
X96522300Y-133628000D02*
X106194700Y-133628000D01*
X96522300Y-133628000D02*
X96723400Y-133628000D01*
X96723400Y-133628000D02*
X96522300Y-133628000D01*
%TO.N,Net-(J10-Pin_33)*%
X263127400Y-115424300D02*
X263749500Y-114802200D01*
X230367300Y-115424300D02*
X263127400Y-115424300D01*
X230311300Y-115368300D02*
X230367300Y-115424300D01*
X228878300Y-114618700D02*
X228974500Y-114522500D01*
X153936000Y-114618700D02*
X228878300Y-114618700D01*
X152215400Y-112898100D02*
X153936000Y-114618700D01*
X263749500Y-114802200D02*
X263127400Y-115424300D01*
X263127400Y-115424300D02*
X263749500Y-114802200D01*
X230311300Y-115368300D02*
X230367300Y-115424300D01*
X230367300Y-115424300D02*
X230311300Y-115368300D01*
X152215400Y-112898100D02*
X152275300Y-112958000D01*
X152275300Y-112958000D02*
X152215400Y-112898100D01*
%TO.N,Net-(J10-Pin_17)*%
X313581700Y-102241700D02*
X316640000Y-105300000D01*
X276769000Y-102241700D02*
X313581700Y-102241700D01*
X274918400Y-100391100D02*
X276769000Y-102241700D01*
X242757700Y-100391100D02*
X274918400Y-100391100D01*
X174723400Y-87532700D02*
X174475800Y-87780300D01*
X174723400Y-87532700D02*
X174475800Y-87780300D01*
X174340300Y-87780300D02*
X172160000Y-85600000D01*
X174475800Y-87780300D02*
X174340300Y-87780300D01*
X243487400Y-88224400D02*
X244189200Y-88224400D01*
X174941400Y-87314700D02*
X174723400Y-87532700D01*
X184236600Y-87314700D02*
X174941400Y-87314700D01*
X185660300Y-88738400D02*
X184236600Y-87314700D01*
X191669800Y-88738400D02*
X185660300Y-88738400D01*
X192534700Y-87873500D02*
X191669800Y-88738400D01*
X219089200Y-87873500D02*
X192534700Y-87873500D01*
X219985800Y-88770100D02*
X219089200Y-87873500D01*
X222565500Y-88770100D02*
X219985800Y-88770100D01*
X222797300Y-89001900D02*
X222565500Y-88770100D01*
X230051900Y-89001900D02*
X222797300Y-89001900D01*
X230612100Y-88441700D02*
X230051900Y-89001900D01*
X237689300Y-88441700D02*
X230612100Y-88441700D01*
X237699400Y-88431600D02*
X237689300Y-88441700D01*
X238125900Y-88431600D02*
X237699400Y-88431600D01*
X238333100Y-88224400D02*
X238125900Y-88431600D01*
X243487400Y-88224400D02*
X238333100Y-88224400D01*
%TO.N,Net-(J10-Pin_36)*%
X179771700Y-79109000D02*
X179716100Y-79164600D01*
X179771700Y-79109000D02*
X179716100Y-79164600D01*
X153195400Y-79164600D02*
X149300000Y-83060000D01*
X179716100Y-79164600D02*
X153195400Y-79164600D01*
X218151100Y-79107500D02*
X218149600Y-79109000D01*
X218151100Y-79107500D02*
X218149600Y-79109000D01*
X218149600Y-79109000D02*
X179771700Y-79109000D01*
X218464500Y-78794100D02*
X218151100Y-79107500D01*
X334539200Y-78794100D02*
X218464500Y-78794100D01*
X341390700Y-85645600D02*
X334539200Y-78794100D01*
%TO.N,Net-(J10-Pin_13)*%
X219069400Y-109007100D02*
X218716800Y-109359700D01*
X221062200Y-109007100D02*
X219069400Y-109007100D01*
X221658000Y-109602900D02*
X221062200Y-109007100D01*
X247310600Y-109602900D02*
X221658000Y-109602900D01*
X248845800Y-108067700D02*
X247310600Y-109602900D01*
X285226500Y-108067700D02*
X248845800Y-108067700D01*
X286553800Y-106740400D02*
X285226500Y-108067700D01*
X305039600Y-106740400D02*
X286553800Y-106740400D01*
X306480000Y-105300000D02*
X305039600Y-106740400D01*
X178138900Y-109508800D02*
X178089700Y-109459600D01*
X182020400Y-109508800D02*
X178138900Y-109508800D01*
X182114500Y-109602900D02*
X182020400Y-109508800D01*
X218473600Y-109602900D02*
X182114500Y-109602900D01*
X218716800Y-109359700D02*
X218473600Y-109602900D01*
X218716800Y-109359700D02*
X218473600Y-109602900D01*
%TO.N,Net-(J10-Pin_22)*%
X278363100Y-144223100D02*
X279640000Y-145500000D01*
X268172500Y-144223100D02*
X278363100Y-144223100D01*
X268079600Y-144316000D02*
X268172500Y-144223100D01*
X226785800Y-144316000D02*
X268079600Y-144316000D01*
X226385000Y-144716800D02*
X226785800Y-144316000D01*
X195119100Y-144716800D02*
X226385000Y-144716800D01*
X195063100Y-144660800D02*
X195119100Y-144716800D01*
X177255100Y-80495500D02*
X176929800Y-80820800D01*
X194130000Y-80495500D02*
X177255100Y-80495500D01*
X176929800Y-80820800D02*
X177255100Y-80495500D01*
X177255100Y-80495500D02*
X176929800Y-80820800D01*
X194130000Y-80495500D02*
X195116300Y-80495500D01*
X195116300Y-80495500D02*
X194130000Y-80495500D01*
%TO.N,Net-(J10-Pin_30)*%
X266585000Y-140705800D02*
X266937600Y-140353200D01*
X238447400Y-140705800D02*
X266585000Y-140705800D01*
X237845700Y-140104100D02*
X238447400Y-140705800D01*
X169062100Y-140104100D02*
X237845700Y-140104100D01*
X167427700Y-138469700D02*
X169062100Y-140104100D01*
X161062300Y-138469700D02*
X167427700Y-138469700D01*
X266937600Y-140353200D02*
X267185200Y-140105600D01*
X266937600Y-140353200D02*
X267185200Y-140105600D01*
X338215600Y-140105600D02*
X343510000Y-145400000D01*
X267185200Y-140105600D02*
X338215600Y-140105600D01*
%TO.N,Net-(J10-Pin_16)*%
X237982300Y-79395800D02*
X237629700Y-79748400D01*
X315426200Y-79395800D02*
X237982300Y-79395800D01*
X316596400Y-80566000D02*
X315426200Y-79395800D01*
X237629700Y-79748400D02*
X237573900Y-79804200D01*
X237629700Y-79748400D02*
X237573900Y-79804200D01*
X174700000Y-82058400D02*
X174700000Y-83060000D01*
X176966100Y-79792300D02*
X174700000Y-82058400D01*
X194718800Y-79792300D02*
X176966100Y-79792300D01*
X194800200Y-79710900D02*
X194718800Y-79792300D01*
X229640000Y-79710900D02*
X194800200Y-79710900D01*
X229733300Y-79804200D02*
X229640000Y-79710900D01*
X237573900Y-79804200D02*
X229733300Y-79804200D01*
%TO.N,Net-(J10-Pin_19)*%
X174199500Y-109408700D02*
X176079400Y-111288600D01*
X176079400Y-111288600D02*
X174199500Y-109408700D01*
X174199500Y-109408700D02*
X174143100Y-109408700D01*
X174143100Y-109408700D02*
X174108300Y-109443500D01*
X174108300Y-109443500D02*
X174143100Y-109408700D01*
X176204700Y-111413900D02*
X174199500Y-109408700D01*
X180592000Y-111413900D02*
X176204700Y-111413900D01*
X180692000Y-111313900D02*
X180592000Y-111413900D01*
X181273100Y-111313900D02*
X180692000Y-111313900D01*
X181371600Y-111412400D02*
X181273100Y-111313900D01*
X285292400Y-111412400D02*
X181371600Y-111412400D01*
X287948400Y-108756400D02*
X285292400Y-111412400D01*
X318263600Y-108756400D02*
X287948400Y-108756400D01*
X321720000Y-105300000D02*
X318263600Y-108756400D01*
%TO.N,Net-(J10-Pin_27)*%
X307879400Y-147400600D02*
X309780000Y-145500000D01*
X235096200Y-147400600D02*
X307879400Y-147400600D01*
X233659800Y-145964200D02*
X235096200Y-147400600D01*
X194241400Y-145964200D02*
X233659800Y-145964200D01*
X194028900Y-145751700D02*
X194241400Y-145964200D01*
X185639500Y-145751700D02*
X194028900Y-145751700D01*
X185487700Y-145903500D02*
X185639500Y-145751700D01*
X163349000Y-145903500D02*
X185487700Y-145903500D01*
%TO.N,Net-(J10-Pin_5)*%
X167958700Y-149181300D02*
X171375200Y-149181300D01*
X166140000Y-151000000D02*
X167958700Y-149181300D01*
%TO.N,Net-(J10-Pin_31)*%
X231429900Y-183773800D02*
X263749500Y-183773800D01*
X225396700Y-177740600D02*
X231429900Y-183773800D01*
X162300900Y-177740600D02*
X225396700Y-177740600D01*
%TO.N,Net-(J10-Pin_12)*%
X250228500Y-102648500D02*
X252180000Y-104600000D01*
X212719400Y-102648500D02*
X250228500Y-102648500D01*
X210966200Y-104401700D02*
X212719400Y-102648500D01*
X197357100Y-104401700D02*
X210966200Y-104401700D01*
X196099600Y-103144200D02*
X197357100Y-104401700D01*
X194414600Y-103144200D02*
X196099600Y-103144200D01*
%TO.N,Net-(J10-Pin_1)*%
X134725100Y-186704900D02*
X132230000Y-189200000D01*
X152584100Y-186704900D02*
X134725100Y-186704900D01*
X153185800Y-186103200D02*
X152584100Y-186704900D01*
X156881900Y-186103200D02*
X153185800Y-186103200D01*
X157183700Y-185801400D02*
X156881900Y-186103200D01*
X174347800Y-185801400D02*
X157183700Y-185801400D01*
X174628200Y-185521000D02*
X174347800Y-185801400D01*
%TO.N,Net-(J10-Pin_4)*%
X172464600Y-149472200D02*
X176647600Y-149472200D01*
X169680600Y-152256200D02*
X172464600Y-149472200D01*
X164856200Y-152256200D02*
X169680600Y-152256200D01*
X163600000Y-151000000D02*
X164856200Y-152256200D01*
%TO.N,Net-(J10-Pin_29)*%
X166177800Y-141121400D02*
X165930200Y-141369000D01*
X166177800Y-141121400D02*
X165930200Y-141369000D01*
X162308400Y-141369000D02*
X161746600Y-140807200D01*
X165930200Y-141369000D02*
X162308400Y-141369000D01*
X336937600Y-141367600D02*
X340970000Y-145400000D01*
X267624800Y-141367600D02*
X336937600Y-141367600D01*
X267435800Y-141556600D02*
X267624800Y-141367600D01*
X267435800Y-141556600D02*
X267624800Y-141367600D01*
X166530400Y-140768800D02*
X166177800Y-141121400D01*
X167900700Y-140768800D02*
X166530400Y-140768800D01*
X168502400Y-141370500D02*
X167900700Y-140768800D01*
X177234900Y-141370500D02*
X168502400Y-141370500D01*
X177237800Y-141367600D02*
X177234900Y-141370500D01*
X183420200Y-141367600D02*
X177237800Y-141367600D01*
X183480300Y-141307500D02*
X183420200Y-141367600D01*
X227090800Y-141307500D02*
X183480300Y-141307500D01*
X227150900Y-141367600D02*
X227090800Y-141307500D01*
X237407500Y-141367600D02*
X227150900Y-141367600D01*
X237949100Y-141909200D02*
X237407500Y-141367600D01*
X267083200Y-141909200D02*
X237949100Y-141909200D01*
X267435800Y-141556600D02*
X267083200Y-141909200D01*
%TO.N,Net-(J10-Pin_24)*%
X239972800Y-138745800D02*
X240080100Y-138853100D01*
X176270700Y-138745800D02*
X239972800Y-138745800D01*
X176226400Y-138701500D02*
X176270700Y-138745800D01*
X176226400Y-138701500D02*
X174853900Y-138701500D01*
X174853900Y-138701500D02*
X176226400Y-138701500D01*
%TO.N,Net-(J10-Pin_32)*%
X168491600Y-187711300D02*
X158225400Y-187711300D01*
X172952000Y-192171700D02*
X168491600Y-187711300D01*
X269868300Y-192171700D02*
X172952000Y-192171700D01*
X272840000Y-189200000D02*
X269868300Y-192171700D01*
%TO.N,Net-(J10-Pin_2)*%
X169724200Y-187004800D02*
X171177300Y-188457900D01*
X157681900Y-187004800D02*
X169724200Y-187004800D01*
X154439600Y-190247100D02*
X157681900Y-187004800D01*
X147240600Y-190247100D02*
X154439600Y-190247100D01*
X147032100Y-190455600D02*
X147240600Y-190247100D01*
X136025600Y-190455600D02*
X147032100Y-190455600D01*
X134770000Y-189200000D02*
X136025600Y-190455600D01*
%TO.N,Net-(J10-Pin_3)*%
X137911700Y-188598300D02*
X137310000Y-189200000D01*
X155237600Y-188598300D02*
X137911700Y-188598300D01*
X157432800Y-186403100D02*
X155237600Y-188598300D01*
X171552400Y-186403100D02*
X157432800Y-186403100D01*
X171789000Y-186639700D02*
X171552400Y-186403100D01*
%TO.N,Net-(J10-Pin_25)*%
X184227600Y-143112600D02*
X183875000Y-143465200D01*
X226263800Y-143112600D02*
X184227600Y-143112600D01*
X226865500Y-143714300D02*
X226263800Y-143112600D01*
X267830500Y-143714300D02*
X226865500Y-143714300D01*
X267924900Y-143619900D02*
X267830500Y-143714300D01*
X302819900Y-143619900D02*
X267924900Y-143619900D01*
X304700000Y-145500000D02*
X302819900Y-143619900D01*
X183875000Y-143465200D02*
X183627400Y-143712800D01*
X183875000Y-143465200D02*
X183627400Y-143712800D01*
X168191100Y-144227900D02*
X168191100Y-144422900D01*
X169101500Y-143317500D02*
X168191100Y-144227900D01*
X169682600Y-143317500D02*
X169101500Y-143317500D01*
X170077900Y-143712800D02*
X169682600Y-143317500D01*
X183627400Y-143712800D02*
X170077900Y-143712800D01*
%TO.N,Net-(J10-Pin_34)*%
X212507600Y-183429900D02*
X159720900Y-183429900D01*
X213663700Y-184586000D02*
X212507600Y-183429900D01*
X243547500Y-184586000D02*
X213663700Y-184586000D01*
X243597500Y-184536000D02*
X243547500Y-184586000D01*
X244194900Y-184536000D02*
X243597500Y-184536000D01*
X244295000Y-184636100D02*
X244194900Y-184536000D01*
X333866100Y-184636100D02*
X244295000Y-184636100D01*
X338430000Y-189200000D02*
X333866100Y-184636100D01*
%TO.N,Net-(J10-Pin_18)*%
X176998700Y-110806300D02*
X176882100Y-110689700D01*
X180348800Y-110806300D02*
X176998700Y-110806300D01*
X180442900Y-110712200D02*
X180348800Y-110806300D01*
X181522200Y-110712200D02*
X180442900Y-110712200D01*
X181616300Y-110806300D02*
X181522200Y-110712200D01*
X218971800Y-110806300D02*
X181616300Y-110806300D01*
X219215000Y-110563100D02*
X218971800Y-110806300D01*
X219215000Y-110563100D02*
X218971800Y-110806300D01*
X219567600Y-110210500D02*
X219215000Y-110563100D01*
X220564000Y-110210500D02*
X219567600Y-110210500D01*
X221159800Y-110806300D02*
X220564000Y-110210500D01*
X284196900Y-110806300D02*
X221159800Y-110806300D01*
X286033700Y-108969500D02*
X285328500Y-109674700D01*
X286884400Y-108969500D02*
X286033700Y-108969500D01*
X287910100Y-107943800D02*
X286884400Y-108969500D01*
X316536200Y-107943800D02*
X287910100Y-107943800D01*
X319180000Y-105300000D02*
X316536200Y-107943800D01*
X285328500Y-109674700D02*
X284196900Y-110806300D01*
%TO.N,Net-(J10-Pin_11)*%
X248386800Y-105853200D02*
X249640000Y-104600000D01*
X246425600Y-105853200D02*
X248386800Y-105853200D01*
X246425600Y-105853300D02*
X246425600Y-105853200D01*
X245825500Y-106453400D02*
X246425600Y-105853300D01*
X240510400Y-106453400D02*
X245825500Y-106453400D01*
X239026200Y-104969200D02*
X240510400Y-106453400D01*
X221054800Y-104969200D02*
X239026200Y-104969200D01*
X181200700Y-89941800D02*
X180479400Y-89220500D01*
X221804900Y-89941800D02*
X181200700Y-89941800D01*
X222274900Y-89471800D02*
X221804900Y-89941800D01*
X180479400Y-89220500D02*
X181065500Y-89806600D01*
X181065500Y-89806600D02*
X180479400Y-89220500D01*
%TO.N,Net-(J10-Pin_28)*%
X165172100Y-142114100D02*
X165084100Y-142202100D01*
X170180800Y-142114100D02*
X165172100Y-142114100D01*
X170268800Y-142202100D02*
X170180800Y-142114100D01*
X183436500Y-142202100D02*
X170268800Y-142202100D01*
X183729400Y-141909200D02*
X183436500Y-142202100D01*
X226841700Y-141909200D02*
X183729400Y-141909200D01*
X227134600Y-142202100D02*
X226841700Y-141909200D01*
X237391200Y-142202100D02*
X227134600Y-142202100D01*
X237700000Y-142510900D02*
X237391200Y-142202100D01*
X267332300Y-142510900D02*
X237700000Y-142510900D01*
X267641100Y-142202100D02*
X267332300Y-142510900D01*
X335232100Y-142202100D02*
X267641100Y-142202100D01*
X338430000Y-145400000D02*
X335232100Y-142202100D01*
%TO.N,Net-(J10-Pin_7)*%
X183122100Y-163617000D02*
X164191000Y-163617000D01*
X186317500Y-87057500D02*
X184860000Y-85600000D01*
X189363600Y-87057500D02*
X186317500Y-87057500D01*
X189687900Y-87381800D02*
X189363600Y-87057500D01*
%TO.N,Net-(J10-Pin_20)*%
X286866800Y-112015600D02*
X180982500Y-112015600D01*
X289247300Y-109635100D02*
X286866800Y-112015600D01*
X319924900Y-109635100D02*
X289247300Y-109635100D01*
X324260000Y-105300000D02*
X319924900Y-109635100D01*
%TO.N,Net-(J10-Pin_15)*%
X176563000Y-109352100D02*
X176342800Y-109131900D01*
X176342800Y-109131900D02*
X176563000Y-109352100D01*
X176563000Y-109352100D02*
X176342800Y-109131900D01*
X284196800Y-109955600D02*
X248587800Y-109955600D01*
X286810300Y-107342100D02*
X284196800Y-109955600D01*
X309517900Y-107342100D02*
X286810300Y-107342100D01*
X311560000Y-105300000D02*
X309517900Y-107342100D01*
X248587800Y-109955600D02*
X248338800Y-110204600D01*
X248587800Y-109955600D02*
X248338800Y-110204600D01*
X219318500Y-109608800D02*
X218965900Y-109961400D01*
X220813100Y-109608800D02*
X219318500Y-109608800D01*
X221408900Y-110204600D02*
X220813100Y-109608800D01*
X248338800Y-110204600D02*
X221408900Y-110204600D01*
X177415500Y-110204600D02*
X176563000Y-109352100D01*
X180099700Y-110204600D02*
X177415500Y-110204600D01*
X180193800Y-110110500D02*
X180099700Y-110204600D01*
X181771300Y-110110500D02*
X180193800Y-110110500D01*
X181865400Y-110204600D02*
X181771300Y-110110500D01*
X218722700Y-110204600D02*
X181865400Y-110204600D01*
X218965900Y-109961400D02*
X218722700Y-110204600D01*
X218965900Y-109961400D02*
X218722700Y-110204600D01*
%TO.N,Net-(J10-Pin_26)*%
X183978500Y-142510900D02*
X183625900Y-142863500D01*
X226592600Y-142510900D02*
X183978500Y-142510900D01*
X227194300Y-143112600D02*
X226592600Y-142510900D01*
X267581400Y-143112600D02*
X227194300Y-143112600D01*
X267726100Y-142967900D02*
X267581400Y-143112600D01*
X304707900Y-142967900D02*
X267726100Y-142967900D01*
X307240000Y-145500000D02*
X304707900Y-142967900D01*
X183625900Y-142863500D02*
X183378300Y-143111100D01*
X183625900Y-142863500D02*
X183378300Y-143111100D01*
X168852400Y-142715800D02*
X168499800Y-143068400D01*
X169931700Y-142715800D02*
X168852400Y-142715800D01*
X170327000Y-143111100D02*
X169931700Y-142715800D01*
X183378300Y-143111100D02*
X170327000Y-143111100D01*
X168059200Y-143112600D02*
X167914500Y-142967900D01*
X168455600Y-143112600D02*
X168059200Y-143112600D01*
X168499800Y-143068400D02*
X168455600Y-143112600D01*
%TO.N,Net-(J10-Pin_35)*%
X163332900Y-139625800D02*
X149575400Y-139625800D01*
X164426600Y-140719500D02*
X163332900Y-139625800D01*
X165728900Y-140719500D02*
X164426600Y-140719500D01*
X165928700Y-140519700D02*
X165728900Y-140719500D01*
X165928700Y-140519700D02*
X165728900Y-140719500D01*
X337592200Y-140719500D02*
X338470500Y-141597800D01*
X267422100Y-140719500D02*
X337592200Y-140719500D01*
X267186700Y-140954900D02*
X267422100Y-140719500D01*
X267186700Y-140954900D02*
X267422100Y-140719500D01*
X166281300Y-140167100D02*
X165928700Y-140519700D01*
X168149800Y-140167100D02*
X166281300Y-140167100D01*
X168751500Y-140768800D02*
X168149800Y-140167100D01*
X176985800Y-140768800D02*
X168751500Y-140768800D01*
X177048800Y-140705800D02*
X176985800Y-140768800D01*
X237596500Y-140705800D02*
X177048800Y-140705800D01*
X238198200Y-141307500D02*
X237596500Y-140705800D01*
X266834100Y-141307500D02*
X238198200Y-141307500D01*
X267186700Y-140954900D02*
X266834100Y-141307500D01*
%TO.N,Net-(J10-Pin_21)*%
X275561000Y-139331900D02*
X275514100Y-139378800D01*
X275514100Y-139378800D02*
X275561000Y-139331900D01*
X168899400Y-138745900D02*
X169494200Y-139340700D01*
X169494200Y-139340700D02*
X168899400Y-138745900D01*
X241574800Y-139331900D02*
X275561000Y-139331900D01*
X241303600Y-139603100D02*
X241574800Y-139331900D01*
X239837800Y-139603100D02*
X241303600Y-139603100D01*
X239660400Y-139425700D02*
X239837800Y-139603100D01*
X169579200Y-139425700D02*
X239660400Y-139425700D01*
X168899400Y-138745900D02*
X169579200Y-139425700D01*
%TO.N,Net-(J10-Pin_10)*%
X217815600Y-93145600D02*
X217986100Y-93316100D01*
X191442100Y-93145600D02*
X217815600Y-93145600D01*
X190105600Y-94482100D02*
X191442100Y-93145600D01*
X182991400Y-94482100D02*
X190105600Y-94482100D01*
X246736800Y-104600000D02*
X247100000Y-104600000D01*
X245811700Y-105525100D02*
X246736800Y-104600000D01*
X245811700Y-105616400D02*
X245811700Y-105525100D01*
X245576400Y-105851700D02*
X245811700Y-105616400D01*
X241006300Y-105851700D02*
X245576400Y-105851700D01*
X239422100Y-104267500D02*
X241006300Y-105851700D01*
X220678400Y-104267500D02*
X239422100Y-104267500D01*
X219946100Y-104999800D02*
X220678400Y-104267500D01*
%TO.N,Net-(J10-Pin_14)*%
X220648100Y-81239900D02*
X220399000Y-81489000D01*
X220648100Y-81239900D02*
X220399000Y-81489000D01*
X238231400Y-79997500D02*
X237878800Y-80350100D01*
X306999600Y-79997500D02*
X238231400Y-79997500D01*
X307909700Y-80907600D02*
X306999600Y-79997500D01*
X237878800Y-80350100D02*
X237629700Y-80599200D01*
X237878800Y-80350100D02*
X237629700Y-80599200D01*
X221575400Y-80312600D02*
X220648100Y-81239900D01*
X229390900Y-80312600D02*
X221575400Y-80312600D01*
X229677500Y-80599200D02*
X229390900Y-80312600D01*
X237629700Y-80599200D02*
X229677500Y-80599200D01*
X197073400Y-80597100D02*
X196720800Y-80949700D01*
X219507100Y-80597100D02*
X197073400Y-80597100D01*
X220399000Y-81489000D02*
X219507100Y-80597100D01*
X196720800Y-80949700D02*
X196473200Y-81197300D01*
X196720800Y-80949700D02*
X196473200Y-81197300D01*
X179102700Y-81197300D02*
X177240000Y-83060000D01*
X196473200Y-81197300D02*
X179102700Y-81197300D01*
%TO.N,Net-(J10-Pin_23)*%
X169687300Y-144314500D02*
X169392000Y-144019200D01*
X184176700Y-144314500D02*
X169687300Y-144314500D01*
X184551300Y-143939900D02*
X184176700Y-144314500D01*
X226019200Y-143939900D02*
X184551300Y-143939900D01*
X226094400Y-144015100D02*
X226019200Y-143939900D01*
X169392000Y-144019200D02*
X169687300Y-144314500D01*
X169687300Y-144314500D02*
X169392000Y-144019200D01*
X226094400Y-144015100D02*
X226094400Y-143939900D01*
X226094400Y-143939900D02*
X226094400Y-144015100D01*
%TO.N,Net-(J1-Pin_38)*%
X103145700Y-186034300D02*
X99980000Y-189200000D01*
X152403800Y-186034300D02*
X103145700Y-186034300D01*
X152584000Y-185854100D02*
X152403800Y-186034300D01*
X152584000Y-185854100D02*
X152403800Y-186034300D01*
X152936600Y-185501500D02*
X152584000Y-185854100D01*
X156632800Y-185501500D02*
X152936600Y-185501500D01*
X157401000Y-184733300D02*
X156632800Y-185501500D01*
X191772200Y-184733300D02*
X157401000Y-184733300D01*
X195066900Y-188028000D02*
X191772200Y-184733300D01*
%TO.N,Net-(J1-Pin_15)*%
X268950000Y-103050000D02*
X267798300Y-103050000D01*
X266406700Y-101658400D02*
X267798300Y-103050000D01*
X240402400Y-101658400D02*
X266406700Y-101658400D01*
X239800700Y-101056700D02*
X240402400Y-101658400D01*
%TO.N,Net-(J1-Pin_5)*%
X142000000Y-103880000D02*
X143151700Y-103880000D01*
X190558400Y-91907400D02*
X190523600Y-91942200D01*
X190558400Y-91907400D02*
X190523600Y-91942200D01*
X230901800Y-91434400D02*
X230657200Y-91679000D01*
X230901800Y-91434400D02*
X230657200Y-91679000D01*
X247600000Y-86656700D02*
X247600000Y-85600000D01*
X242822300Y-91434400D02*
X247600000Y-86656700D01*
X230901800Y-91434400D02*
X242822300Y-91434400D01*
X190828700Y-91637100D02*
X190558400Y-91907400D01*
X230615300Y-91637100D02*
X190828700Y-91637100D01*
X230657200Y-91679000D02*
X230615300Y-91637100D01*
X151080200Y-95951500D02*
X143151700Y-103880000D01*
X176691600Y-95951500D02*
X151080200Y-95951500D01*
X180700900Y-91942200D02*
X176691600Y-95951500D01*
X190523600Y-91942200D02*
X180700900Y-91942200D01*
%TO.N,Net-(J1-Pin_36)*%
X196268400Y-180760700D02*
X96522300Y-180760700D01*
X198003300Y-179025800D02*
X196268400Y-180760700D01*
%TO.N,Net-(J1-Pin_9)*%
X158200000Y-103200000D02*
X159351700Y-103200000D01*
X240791000Y-97493000D02*
X242571000Y-97493000D01*
X236711000Y-93413000D02*
X240791000Y-97493000D01*
X231429800Y-93413000D02*
X236711000Y-93413000D01*
X230255600Y-92238800D02*
X231429800Y-93413000D01*
X191401200Y-92238800D02*
X230255600Y-92238800D01*
X189859600Y-93780400D02*
X191401200Y-92238800D01*
X182432900Y-93780400D02*
X189859600Y-93780400D01*
X182209000Y-94004300D02*
X182432900Y-93780400D01*
X181344500Y-94004300D02*
X182209000Y-94004300D01*
X180173100Y-95175700D02*
X181344500Y-94004300D01*
X179322300Y-95175700D02*
X180173100Y-95175700D01*
X177350900Y-97147100D02*
X179322300Y-95175700D01*
X165404600Y-97147100D02*
X177350900Y-97147100D01*
X159351700Y-103200000D02*
X165404600Y-97147100D01*
%TO.N,Net-(J1-Pin_13)*%
X283357300Y-98409000D02*
X283498300Y-98550000D01*
X240053300Y-98409000D02*
X283357300Y-98409000D01*
X284650000Y-98550000D02*
X283498300Y-98550000D01*
%TO.N,Net-(J1-Pin_11)*%
X221183900Y-87566700D02*
X221079500Y-87462300D01*
X223063700Y-87566700D02*
X221183900Y-87566700D01*
X223295500Y-87798500D02*
X223063700Y-87566700D01*
X229553700Y-87798500D02*
X223295500Y-87798500D01*
X230124000Y-87228200D02*
X229553700Y-87798500D01*
X237627700Y-87228200D02*
X230124000Y-87228200D01*
X239255900Y-85600000D02*
X237627700Y-87228200D01*
X239980000Y-85600000D02*
X239255900Y-85600000D01*
%TO.N,Net-(J1-Pin_29)*%
X67923200Y-131890200D02*
X66660300Y-133153100D01*
X95066100Y-131890200D02*
X67923200Y-131890200D01*
X95066100Y-131890100D02*
X95066100Y-131890200D01*
X95690200Y-131266000D02*
X95066100Y-131890100D01*
X202324500Y-131266000D02*
X95690200Y-131266000D01*
X207766700Y-136708200D02*
X202324500Y-131266000D01*
%TO.N,Net-(J1-Pin_34)*%
X74275100Y-182124900D02*
X67300000Y-189100000D01*
X165634700Y-182124900D02*
X74275100Y-182124900D01*
X166308600Y-181451000D02*
X165634700Y-182124900D01*
X198239400Y-181451000D02*
X166308600Y-181451000D01*
X198899700Y-182111300D02*
X198239400Y-181451000D01*
X198899700Y-182193300D02*
X198899700Y-182111300D01*
%TO.N,Net-(J1-Pin_17)*%
X353900000Y-103740000D02*
X352748300Y-103740000D01*
X238224500Y-99689400D02*
X237897500Y-100016400D01*
X243048300Y-99689400D02*
X238224500Y-99689400D01*
X243148300Y-99789400D02*
X243048300Y-99689400D01*
X294415600Y-99789400D02*
X243148300Y-99789400D01*
X295460200Y-100834000D02*
X294415600Y-99789400D01*
X349842300Y-100834000D02*
X295460200Y-100834000D01*
X352748300Y-103740000D02*
X349842300Y-100834000D01*
%TO.N,Net-(J1-Pin_22)*%
X213301400Y-181853100D02*
X214848300Y-183400000D01*
X206793200Y-181853100D02*
X213301400Y-181853100D01*
X216000000Y-183400000D02*
X214848300Y-183400000D01*
X228724000Y-81616000D02*
X227280000Y-83060000D01*
X228851200Y-81616000D02*
X228724000Y-81616000D01*
%TO.N,Net-(J1-Pin_8)*%
X181095100Y-81799000D02*
X180922900Y-81971200D01*
X197022500Y-81799000D02*
X181095100Y-81799000D01*
X197622700Y-81198800D02*
X197022500Y-81799000D01*
X217030700Y-81198800D02*
X197622700Y-81198800D01*
X218390000Y-82558100D02*
X217030700Y-81198800D01*
X218390000Y-83626100D02*
X218390000Y-82558100D01*
X219093900Y-84330000D02*
X218390000Y-83626100D01*
X243790000Y-84330000D02*
X219093900Y-84330000D01*
X245060000Y-83060000D02*
X243790000Y-84330000D01*
X180455100Y-93180200D02*
X181678000Y-93180200D01*
X179492600Y-94142700D02*
X180455100Y-93180200D01*
X175461200Y-103370500D02*
X180034400Y-103370500D01*
X175051700Y-103780000D02*
X175461200Y-103370500D01*
X173900000Y-103780000D02*
X175051700Y-103780000D01*
X180922900Y-81971200D02*
X180966000Y-81928100D01*
X180966000Y-81928100D02*
X180922900Y-81971200D01*
%TO.N,Net-(J1-Pin_21)*%
X224409100Y-153528300D02*
X226316000Y-151621400D01*
X202023400Y-153528300D02*
X224409100Y-153528300D01*
X201451700Y-154100000D02*
X202023400Y-153528300D01*
X200300000Y-154100000D02*
X201451700Y-154100000D01*
%TO.N,Net-(J1-Pin_4)*%
X142000000Y-98800000D02*
X143151700Y-98800000D01*
X230653600Y-89251000D02*
X230861200Y-89043400D01*
X230653600Y-89251000D02*
X230861200Y-89043400D01*
X229361100Y-90543500D02*
X230653600Y-89251000D01*
X180836200Y-90543500D02*
X229361100Y-90543500D01*
X176328400Y-95051300D02*
X180836200Y-90543500D01*
X146900400Y-95051300D02*
X176328400Y-95051300D01*
X143151700Y-98800000D02*
X146900400Y-95051300D01*
X238364900Y-89043400D02*
X230861200Y-89043400D01*
X238482200Y-88926100D02*
X238364900Y-89043400D01*
X244479800Y-88926100D02*
X238482200Y-88926100D01*
X244890900Y-88515000D02*
X244479800Y-88926100D01*
X244890900Y-87602000D02*
X244890900Y-88515000D01*
X246311700Y-86181200D02*
X244890900Y-87602000D01*
X246311700Y-85052200D02*
X246311700Y-86181200D01*
X247033900Y-84330000D02*
X246311700Y-85052200D01*
X248870000Y-84330000D02*
X247033900Y-84330000D01*
X250140000Y-83060000D02*
X248870000Y-84330000D01*
%TO.N,Net-(J1-Pin_12)*%
X205853400Y-103250000D02*
X200350000Y-103250000D01*
X211505100Y-97598300D02*
X205853400Y-103250000D01*
X235618700Y-97598300D02*
X211505100Y-97598300D01*
X236394800Y-96822200D02*
X235618700Y-97598300D01*
%TO.N,Net-(J1-Pin_31)*%
X124695400Y-84348300D02*
X123687200Y-85356500D01*
X155550800Y-84348300D02*
X124695400Y-84348300D01*
X155799900Y-84099200D02*
X155550800Y-84348300D01*
X155799900Y-84099200D02*
X155550800Y-84348300D01*
X155668300Y-83967600D02*
X155799900Y-84099200D01*
X155668300Y-82541600D02*
X155668300Y-83967600D01*
X156401600Y-81808300D02*
X155668300Y-82541600D01*
X159978500Y-81808300D02*
X156401600Y-81808300D01*
X160711700Y-82541500D02*
X159978500Y-81808300D01*
X160711700Y-83576700D02*
X160711700Y-82541500D01*
X161483300Y-84348300D02*
X160711700Y-83576700D01*
X213328300Y-84348300D02*
X161483300Y-84348300D01*
X214580000Y-85600000D02*
X213328300Y-84348300D01*
%TO.N,Net-(J1-Pin_16)*%
X353900000Y-98660000D02*
X352748300Y-98660000D01*
X237207600Y-92634500D02*
X233679600Y-92634500D01*
X241148600Y-96575500D02*
X237207600Y-92634500D01*
X292162500Y-96575500D02*
X241148600Y-96575500D01*
X295773400Y-100186400D02*
X292162500Y-96575500D01*
X351221900Y-100186400D02*
X295773400Y-100186400D01*
X352748300Y-98660000D02*
X351221900Y-100186400D01*
%TO.N,Net-(J1-Pin_14)*%
X255020300Y-83069100D02*
X284652900Y-83069100D01*
X253759500Y-81808300D02*
X255020300Y-83069100D01*
X239461600Y-81808300D02*
X253759500Y-81808300D01*
X238209900Y-83060000D02*
X239461600Y-81808300D01*
X237440000Y-83060000D02*
X238209900Y-83060000D01*
%TO.N,Net-(J1-Pin_33)*%
X211040100Y-88766400D02*
X211229700Y-88576800D01*
X192492700Y-88766400D02*
X211040100Y-88766400D01*
X192271600Y-88987500D02*
X192492700Y-88766400D01*
X192271600Y-88987500D02*
X192492700Y-88766400D01*
X157836500Y-87369900D02*
X147287700Y-87369900D01*
X158912000Y-88445400D02*
X157836500Y-87369900D01*
X175705800Y-88445400D02*
X158912000Y-88445400D01*
X176219400Y-87931800D02*
X175705800Y-88445400D01*
X181762700Y-87931800D02*
X176219400Y-87931800D01*
X183171000Y-89340100D02*
X181762700Y-87931800D01*
X191919000Y-89340100D02*
X183171000Y-89340100D01*
X192271600Y-88987500D02*
X191919000Y-89340100D01*
%TO.N,Net-(J1-Pin_27)*%
X302400000Y-187980000D02*
X301248300Y-187980000D01*
X220209500Y-85600000D02*
X219660000Y-85600000D01*
X221574500Y-86965000D02*
X220209500Y-85600000D01*
X228227500Y-86965000D02*
X221574500Y-86965000D01*
X228340800Y-87078300D02*
X228227500Y-86965000D01*
X298506200Y-185237900D02*
X243904300Y-185237900D01*
X301248300Y-187980000D02*
X298506200Y-185237900D01*
%TO.N,Net-(J1-Pin_26)*%
X224345700Y-80914300D02*
X222200000Y-83060000D01*
X229141800Y-80914300D02*
X224345700Y-80914300D01*
X229430500Y-81203000D02*
X229141800Y-80914300D01*
X237935500Y-81203000D02*
X229430500Y-81203000D01*
X238180500Y-80958000D02*
X237935500Y-81203000D01*
X238180500Y-80899200D02*
X238180500Y-80958000D01*
X238480500Y-80599200D02*
X238180500Y-80899200D01*
X287265100Y-80599200D02*
X238480500Y-80599200D01*
X287639100Y-80973200D02*
X287265100Y-80599200D01*
%TO.N,Net-(J1-Pin_19)*%
X216000000Y-149600000D02*
X217151700Y-149600000D01*
X217890400Y-148861300D02*
X235561700Y-148861300D01*
X217151700Y-149600000D02*
X217890400Y-148861300D01*
%TO.N,Net-(J1-Pin_18)*%
X282985200Y-81559200D02*
X282737600Y-81806800D01*
X282985200Y-81559200D02*
X282737600Y-81806800D01*
X334946700Y-83118400D02*
X326405100Y-83118400D01*
X335380600Y-82684500D02*
X334946700Y-83118400D01*
X326405100Y-83118400D02*
X326156000Y-83367500D01*
X326405100Y-83118400D02*
X326156000Y-83367500D01*
X324463400Y-81674900D02*
X326156000Y-83367500D01*
X283100900Y-81674900D02*
X324463400Y-81674900D01*
X282985200Y-81559200D02*
X283100900Y-81674900D01*
X238182600Y-81804700D02*
X238180500Y-81806800D01*
X238182600Y-81804700D02*
X238180500Y-81806800D01*
X282137400Y-81206600D02*
X282737600Y-81806800D01*
X238782700Y-81206600D02*
X282137400Y-81206600D01*
X238184600Y-81804700D02*
X238782700Y-81206600D01*
X238182600Y-81804700D02*
X238184600Y-81804700D01*
X233613200Y-81806800D02*
X238180500Y-81806800D01*
X232360000Y-83060000D02*
X233613200Y-81806800D01*
%TO.N,Net-(J1-Pin_6)*%
X237245900Y-114666500D02*
X237302000Y-114722600D01*
X230020900Y-114666500D02*
X237245900Y-114666500D01*
X229619900Y-115067500D02*
X230020900Y-114666500D01*
X229421800Y-115067500D02*
X229619900Y-115067500D01*
X229265100Y-115224200D02*
X229421800Y-115067500D01*
X128190100Y-115224200D02*
X229265100Y-115224200D01*
X126384300Y-113418400D02*
X128190100Y-115224200D01*
%TO.N,Net-(J1-Pin_24)*%
X315646900Y-182178600D02*
X316948300Y-183480000D01*
X245832300Y-182178600D02*
X315646900Y-182178600D01*
X318100000Y-183480000D02*
X316948300Y-183480000D01*
%TO.N,Net-(J1-Pin_7)*%
X182845600Y-98700000D02*
X184927900Y-96617700D01*
X173900000Y-98700000D02*
X182845600Y-98700000D01*
X186851400Y-88083900D02*
X186770200Y-88002700D01*
X191207500Y-88083900D02*
X186851400Y-88083900D01*
X192025500Y-87265900D02*
X191207500Y-88083900D01*
X219419500Y-87265900D02*
X192025500Y-87265900D01*
X220322000Y-88168400D02*
X219419500Y-87265900D01*
X222814600Y-88168400D02*
X220322000Y-88168400D01*
X223046400Y-88400200D02*
X222814600Y-88168400D01*
X229802800Y-88400200D02*
X223046400Y-88400200D01*
X230363000Y-87840000D02*
X229802800Y-88400200D01*
X237440200Y-87840000D02*
X230363000Y-87840000D01*
X237450300Y-87829900D02*
X237440200Y-87840000D01*
X237876800Y-87829900D02*
X237450300Y-87829900D01*
X238466900Y-87239800D02*
X237876800Y-87829900D01*
X243420200Y-87239800D02*
X238466900Y-87239800D01*
X245060000Y-85600000D02*
X243420200Y-87239800D01*
%TO.N,Net-(J1-Pin_32)*%
X170187800Y-152900000D02*
X170452200Y-152635600D01*
X134200000Y-152900000D02*
X170187800Y-152900000D01*
X132200000Y-150900000D02*
X134200000Y-152900000D01*
X201898400Y-152386500D02*
X202663500Y-151621400D01*
X170701300Y-152386500D02*
X201898400Y-152386500D01*
X170452200Y-152635600D02*
X170701300Y-152386500D01*
X170452200Y-152635600D02*
X170701300Y-152386500D01*
%TO.N,Net-(J1-Pin_37)*%
X101207400Y-185432600D02*
X97440000Y-189200000D01*
X152154700Y-185432600D02*
X101207400Y-185432600D01*
X152334900Y-185252400D02*
X152154700Y-185432600D01*
X152334900Y-185252400D02*
X152154700Y-185432600D01*
X153455700Y-184131600D02*
X152334900Y-185252400D01*
X198605600Y-184131600D02*
X153455700Y-184131600D01*
X201791200Y-187317200D02*
X198605600Y-184131600D01*
%TO.N,Net-(J1-Pin_10)*%
X217684100Y-98267600D02*
X217201700Y-98750000D01*
X238968700Y-98267600D02*
X217684100Y-98267600D01*
X216050000Y-98750000D02*
X217201700Y-98750000D01*
%TO.N,Net-(J1-Pin_28)*%
X211731200Y-108785700D02*
X178998200Y-108785700D01*
X212535000Y-107981900D02*
X211731200Y-108785700D01*
X71633800Y-128422600D02*
X179239400Y-128422600D01*
X69646500Y-130409900D02*
X71633800Y-128422600D01*
X69646500Y-130409900D02*
X71633800Y-128422600D01*
X71633800Y-128422600D02*
X69646500Y-130409900D01*
X178998200Y-108785700D02*
X179339300Y-108785700D01*
X179339300Y-108785700D02*
X178998200Y-108785700D01*
X212535000Y-107981900D02*
X211731200Y-108785700D01*
X211731200Y-108785700D02*
X212535000Y-107981900D01*
%TO.N,GND*%
X282918300Y-105590000D02*
X283498300Y-106170000D01*
X268950000Y-105590000D02*
X282918300Y-105590000D01*
X284650000Y-106170000D02*
X283498300Y-106170000D01*
X216000000Y-157220000D02*
X214848300Y-157220000D01*
X304131700Y-191100000D02*
X303551700Y-190520000D01*
X318100000Y-191100000D02*
X304131700Y-191100000D01*
X302400000Y-190520000D02*
X303551700Y-190520000D01*
X94557700Y-94642300D02*
X94200000Y-95000000D01*
X97368900Y-94642300D02*
X94557700Y-94642300D01*
X274560000Y-145500000D02*
X275811700Y-145500000D01*
X302160000Y-145500000D02*
X300908300Y-145500000D01*
X318100000Y-186020000D02*
X319251700Y-186020000D01*
X83150000Y-189200000D02*
X92360000Y-189200000D01*
X339931700Y-106280000D02*
X339351700Y-105700000D01*
X353900000Y-106280000D02*
X339931700Y-106280000D01*
X338200000Y-105700000D02*
X339351700Y-105700000D01*
X197700000Y-127700000D02*
X197700000Y-126350000D01*
X169350000Y-126350000D02*
X169100000Y-126100000D01*
X197700000Y-126350000D02*
X169350000Y-126350000D01*
X219071700Y-189100000D02*
X217151700Y-191020000D01*
X241500000Y-189100000D02*
X219071700Y-189100000D01*
X216000000Y-191020000D02*
X217151700Y-191020000D01*
X126300000Y-105840000D02*
X127451700Y-105840000D01*
X61586300Y-172613700D02*
X62360000Y-172613700D01*
X58700000Y-175500000D02*
X61586300Y-172613700D01*
X319690800Y-203090800D02*
X321000000Y-204400000D01*
X317501100Y-203090800D02*
X319690800Y-203090800D01*
X317501100Y-203090800D02*
X317501100Y-202313600D01*
X284650000Y-106170000D02*
X285801700Y-106170000D01*
X89852600Y-203300000D02*
X90549900Y-202602700D01*
X88300000Y-203300000D02*
X89852600Y-203300000D01*
X107250000Y-175900000D02*
X107250000Y-174306200D01*
X106743800Y-173800000D02*
X89650000Y-173800000D01*
X107250000Y-174306200D02*
X106743800Y-173800000D01*
X125006200Y-174306200D02*
X107250000Y-174306200D01*
X126300000Y-175600000D02*
X125006200Y-174306200D01*
X256685500Y-121014500D02*
X258900000Y-118800000D01*
X235900000Y-121014500D02*
X256685500Y-121014500D01*
X235900000Y-118500000D02*
X235900000Y-121014500D01*
X219750000Y-126350000D02*
X197700000Y-126350000D01*
X221100000Y-127700000D02*
X219750000Y-126350000D01*
X350800000Y-161600000D02*
X350800000Y-168100000D01*
X353100000Y-159300000D02*
X350800000Y-161600000D01*
X159931700Y-106320000D02*
X159351700Y-105740000D01*
X173900000Y-106320000D02*
X159931700Y-106320000D01*
X214268300Y-190440000D02*
X214848300Y-191020000D01*
X200300000Y-190440000D02*
X214268300Y-190440000D01*
X216000000Y-191020000D02*
X214848300Y-191020000D01*
X270468000Y-117477800D02*
X270468000Y-117856200D01*
X63781700Y-106270000D02*
X63201700Y-105690000D01*
X77750000Y-106270000D02*
X63781700Y-106270000D01*
X62050000Y-105690000D02*
X63201700Y-105690000D01*
X158200000Y-105740000D02*
X158775900Y-105740000D01*
X158775900Y-105740000D02*
X159351700Y-105740000D01*
X158095900Y-106420000D02*
X142000000Y-106420000D01*
X158775900Y-105740000D02*
X158095900Y-106420000D01*
X216625900Y-106370000D02*
X217201700Y-106370000D01*
X216625900Y-106370000D02*
X216050000Y-106370000D01*
X200350000Y-105790000D02*
X201501700Y-105790000D01*
X95519800Y-96319800D02*
X105900000Y-96319800D01*
X94200000Y-95000000D02*
X95519800Y-96319800D01*
X142000000Y-101340000D02*
X140848300Y-101340000D01*
X105900000Y-95000000D02*
X105900000Y-96319800D01*
X126384300Y-203284300D02*
X126384300Y-201913600D01*
X126700000Y-203600000D02*
X126384300Y-203284300D01*
X236250400Y-118850400D02*
X235900000Y-118500000D01*
X240536800Y-118850400D02*
X236250400Y-118850400D01*
X151650000Y-175600000D02*
X126300000Y-175600000D01*
X153650000Y-177600000D02*
X151650000Y-175600000D01*
X126312600Y-175612600D02*
X126300000Y-175600000D01*
X129690000Y-175612600D02*
X126312600Y-175612600D01*
X153957900Y-201592100D02*
X152650000Y-202900000D01*
X159232500Y-201592100D02*
X153957900Y-201592100D01*
X90836300Y-172613700D02*
X89650000Y-173800000D01*
X92360000Y-172613700D02*
X90836300Y-172613700D01*
X267760000Y-189200000D02*
X266508300Y-189200000D01*
X241500000Y-189100000D02*
X242751700Y-189100000D01*
X355944000Y-121056000D02*
X338404500Y-121056000D01*
X358200000Y-118800000D02*
X355944000Y-121056000D01*
X337756000Y-121056000D02*
X335600000Y-118900000D01*
X338404500Y-121056000D02*
X337756000Y-121056000D01*
X64760000Y-189100000D02*
X66011700Y-189100000D01*
X330463300Y-168986700D02*
X331750000Y-167700000D01*
X321586700Y-168986700D02*
X330463300Y-168986700D01*
X320500000Y-167900000D02*
X321586700Y-168986700D01*
X216384200Y-169200900D02*
X215970300Y-169614800D01*
X222800000Y-169200900D02*
X216384200Y-169200900D01*
X222800000Y-170500000D02*
X222800000Y-169200900D01*
X248649100Y-169200900D02*
X222800000Y-169200900D01*
X257450000Y-160400000D02*
X248649100Y-169200900D01*
X345469500Y-123019500D02*
X338923000Y-123019500D01*
X348450000Y-126000000D02*
X345469500Y-123019500D01*
X221848400Y-205601600D02*
X218956500Y-205601600D01*
X224150000Y-203300000D02*
X221848400Y-205601600D01*
X350800000Y-169750000D02*
X350800000Y-169428300D01*
X356350000Y-175300000D02*
X350800000Y-169750000D01*
X350800000Y-169428300D02*
X350800000Y-168100000D01*
X350800000Y-169428300D02*
X335418300Y-169428300D01*
X333478300Y-169428300D02*
X331750000Y-167700000D01*
X335418300Y-169428300D02*
X333478300Y-169428300D01*
X301059200Y-203090800D02*
X299450000Y-204700000D01*
X317501100Y-203090800D02*
X301059200Y-203090800D01*
X244560000Y-104600000D02*
X243308300Y-104600000D01*
X349271200Y-125178800D02*
X348450000Y-126000000D01*
X362978800Y-125178800D02*
X349271200Y-125178800D01*
X364600000Y-126800000D02*
X362978800Y-125178800D01*
X167815300Y-127384700D02*
X159232500Y-127384700D01*
X169100000Y-126100000D02*
X167815300Y-127384700D01*
X147784700Y-127384700D02*
X147200000Y-126800000D01*
X159232500Y-127384700D02*
X147784700Y-127384700D01*
X325740400Y-128140400D02*
X323400000Y-125800000D01*
X335890000Y-128140400D02*
X325740400Y-128140400D01*
X340977400Y-96400000D02*
X340551500Y-96825900D01*
X341750000Y-96400000D02*
X340977400Y-96400000D01*
X202031700Y-157220000D02*
X214848300Y-157220000D01*
X201451700Y-156640000D02*
X202031700Y-157220000D01*
X200300000Y-156640000D02*
X201451700Y-156640000D01*
X266423800Y-187848300D02*
X266508300Y-187932800D01*
X243455700Y-187848300D02*
X266423800Y-187848300D01*
X242751700Y-188552300D02*
X243455700Y-187848300D01*
X242751700Y-189100000D02*
X242751700Y-188552300D01*
X302400000Y-190520000D02*
X301248300Y-190520000D01*
X298661100Y-187932800D02*
X301248300Y-190520000D01*
X266508300Y-187932800D02*
X298661100Y-187932800D01*
X266508300Y-187932800D02*
X266508300Y-189200000D01*
X286671700Y-105300000D02*
X303940000Y-105300000D01*
X285801700Y-106170000D02*
X286671700Y-105300000D01*
X159834200Y-200990400D02*
X159232500Y-201592100D01*
X174590400Y-200990400D02*
X159834200Y-200990400D01*
X176500000Y-202900000D02*
X174590400Y-200990400D01*
X198036300Y-172613700D02*
X199485900Y-172613700D01*
X197450000Y-173200000D02*
X198036300Y-172613700D01*
X93887200Y-115087200D02*
X97368900Y-115087200D01*
X93800000Y-115000000D02*
X93887200Y-115087200D01*
X81872300Y-187922300D02*
X83150000Y-189200000D01*
X75382800Y-187922300D02*
X81872300Y-187922300D01*
X75133700Y-188171400D02*
X75382800Y-187922300D01*
X72609800Y-188171400D02*
X75133700Y-188171400D01*
X69992400Y-190788800D02*
X72609800Y-188171400D01*
X67152700Y-190788800D02*
X69992400Y-190788800D01*
X66011700Y-189647800D02*
X67152700Y-190788800D01*
X66011700Y-189100000D02*
X66011700Y-189647800D01*
X158982100Y-172267900D02*
X160107600Y-172267900D01*
X153650000Y-177600000D02*
X158982100Y-172267900D01*
X135828100Y-96319800D02*
X140848300Y-101340000D01*
X105900000Y-96319800D02*
X135828100Y-96319800D01*
X128031700Y-106420000D02*
X142000000Y-106420000D01*
X127451700Y-105840000D02*
X128031700Y-106420000D01*
X332710000Y-186020000D02*
X335890000Y-189200000D01*
X319251700Y-186020000D02*
X332710000Y-186020000D01*
X110712800Y-115087200D02*
X97368900Y-115087200D01*
X112000000Y-113800000D02*
X110712800Y-115087200D01*
X214318300Y-105790000D02*
X201501700Y-105790000D01*
X214898300Y-106370000D02*
X214318300Y-105790000D01*
X216050000Y-106370000D02*
X214898300Y-106370000D01*
X320896300Y-128303700D02*
X323400000Y-125800000D01*
X300296300Y-128303700D02*
X320896300Y-128303700D01*
X296700000Y-131900000D02*
X300296300Y-128303700D01*
X298313000Y-131900000D02*
X299583900Y-130629100D01*
X296700000Y-131900000D02*
X298313000Y-131900000D01*
X299656600Y-146751700D02*
X300908300Y-145500000D01*
X276581600Y-146751700D02*
X299656600Y-146751700D01*
X275811700Y-145981800D02*
X276581600Y-146751700D01*
X275811700Y-145500000D02*
X275811700Y-145981800D01*
X278127800Y-117477800D02*
X279450000Y-118800000D01*
X270468000Y-117477800D02*
X278127800Y-117477800D01*
X269812200Y-116822000D02*
X270468000Y-117477800D01*
X260878000Y-116822000D02*
X269812200Y-116822000D01*
X258900000Y-118800000D02*
X260878000Y-116822000D01*
X186100000Y-96437900D02*
X186100000Y-96100000D01*
X181297900Y-101240000D02*
X186100000Y-96437900D01*
X173900000Y-101240000D02*
X181297900Y-101240000D01*
X219905900Y-103665800D02*
X217201700Y-106370000D01*
X242374100Y-103665800D02*
X219905900Y-103665800D01*
X243308300Y-104600000D02*
X242374100Y-103665800D01*
X229214500Y-127700000D02*
X235900000Y-121014500D01*
X221100000Y-127700000D02*
X229214500Y-127700000D01*
%TO.N,Net-(J1-Pin_30)*%
X198802100Y-81800700D02*
X197629200Y-82973600D01*
X215860700Y-81800700D02*
X198802100Y-81800700D01*
X217120000Y-83060000D02*
X215860700Y-81800700D01*
X100420300Y-154620300D02*
X96600000Y-150800000D01*
X194781000Y-154620300D02*
X100420300Y-154620300D01*
%TO.N,Net-(J1-Pin_35)*%
X75945900Y-182994100D02*
X100123000Y-182994100D01*
X69840000Y-189100000D02*
X75945900Y-182994100D01*
X100123000Y-182994100D02*
X100370600Y-182746500D01*
X100123000Y-182994100D02*
X100370600Y-182746500D01*
X100389000Y-182728100D02*
X100370600Y-182746500D01*
X197367900Y-182728100D02*
X100389000Y-182728100D01*
X197941400Y-182154600D02*
X197367900Y-182728100D01*
%TO.N,Net-(D52-K)*%
X352384200Y-157272000D02*
X352384200Y-157271900D01*
X352028000Y-157272000D02*
X352384200Y-157272000D01*
X350000000Y-159300000D02*
X352028000Y-157272000D01*
X354120900Y-130629100D02*
X354350000Y-130400000D01*
X350349300Y-130629100D02*
X354120900Y-130629100D01*
%TO.N,Net-(D51-K)*%
X348609600Y-115278500D02*
X349993100Y-115278500D01*
X345260000Y-118628100D02*
X348609600Y-115278500D01*
X345260000Y-119000000D02*
X345260000Y-118628100D01*
X356500000Y-127808500D02*
X356500000Y-130400000D01*
X356321700Y-127630200D02*
X356500000Y-127808500D01*
%TO.N,Net-(D50-K)*%
X353610000Y-112800000D02*
X347410000Y-119000000D01*
X359660000Y-112800000D02*
X353610000Y-112800000D01*
%TO.N,Net-(D49-K)*%
X359419900Y-100640100D02*
X359860000Y-100200000D01*
X358562100Y-100640100D02*
X359419900Y-100640100D01*
X346638100Y-127288100D02*
X345350000Y-126000000D01*
X353593800Y-127288100D02*
X346638100Y-127288100D01*
X355001400Y-125880500D02*
X353593800Y-127288100D01*
%TO.N,Net-(D48-K)*%
X357185500Y-95375500D02*
X362010000Y-100200000D01*
X349963100Y-95375500D02*
X357185500Y-95375500D01*
X345060000Y-90472400D02*
X349963100Y-95375500D01*
X345060000Y-90100000D02*
X345060000Y-90472400D01*
%TO.N,Net-(D47-K)*%
X349310000Y-88000000D02*
X347210000Y-90100000D01*
X356860000Y-88000000D02*
X349310000Y-88000000D01*
%TO.N,Net-(D46-K)*%
X332750000Y-90500000D02*
X338650000Y-96400000D01*
X332750000Y-87500000D02*
X332750000Y-90500000D01*
%TO.N,Net-(D45-K)*%
X322060000Y-87098400D02*
X322060000Y-87500000D01*
X323144100Y-86014300D02*
X322060000Y-87098400D01*
X333414300Y-86014300D02*
X323144100Y-86014300D01*
X334900000Y-87500000D02*
X333414300Y-86014300D01*
%TO.N,Net-(D44-K)*%
X327874600Y-96475400D02*
X327874600Y-97805300D01*
X328250000Y-96100000D02*
X327874600Y-96475400D01*
X324675200Y-87965200D02*
X324210000Y-87500000D01*
X326607000Y-87965200D02*
X324675200Y-87965200D01*
%TO.N,Net-(D43-K)*%
X329260000Y-112078700D02*
X329260000Y-111700000D01*
X330900200Y-113718900D02*
X329260000Y-112078700D01*
X335188800Y-113718900D02*
X330900200Y-113718900D01*
X341923200Y-120453300D02*
X335188800Y-113718900D01*
X353446700Y-120453300D02*
X341923200Y-120453300D01*
X355100000Y-118800000D02*
X353446700Y-120453300D01*
%TO.N,Net-(D42-K)*%
X325853000Y-118039500D02*
X329445900Y-121632400D01*
X321957600Y-118039500D02*
X325853000Y-118039500D01*
X320860000Y-119137100D02*
X321957600Y-118039500D01*
X320860000Y-119500000D02*
X320860000Y-119137100D01*
X331557700Y-111847700D02*
X331410000Y-111700000D01*
X333193200Y-111847700D02*
X331557700Y-111847700D01*
%TO.N,Net-(D41-K)*%
X304660000Y-118977200D02*
X304660000Y-119400000D01*
X305748500Y-117888700D02*
X304660000Y-118977200D01*
X307901300Y-117888700D02*
X305748500Y-117888700D01*
X311024800Y-121012200D02*
X307901300Y-117888700D01*
X321497800Y-121012200D02*
X311024800Y-121012200D01*
X323010000Y-119500000D02*
X321497800Y-121012200D01*
%TO.N,Net-(D40-K)*%
X324117900Y-110517900D02*
X332500000Y-118900000D01*
X297138900Y-110517900D02*
X324117900Y-110517900D01*
X296060000Y-111596800D02*
X297138900Y-110517900D01*
X296060000Y-112000000D02*
X296060000Y-111596800D01*
%TO.N,Net-(D39-K)*%
X298845700Y-112635700D02*
X298210000Y-112000000D01*
X300169100Y-112635700D02*
X298845700Y-112635700D01*
X296260000Y-98428500D02*
X296260000Y-98100000D01*
X297416200Y-99584700D02*
X296260000Y-98428500D01*
X303612800Y-99584700D02*
X297416200Y-99584700D01*
X305556300Y-97641200D02*
X303612800Y-99584700D01*
%TO.N,Net-(D38-K)*%
X298410000Y-92350000D02*
X298410000Y-98100000D01*
X302960000Y-87800000D02*
X298410000Y-92350000D01*
%TO.N,Net-(D37-K)*%
X293131500Y-125800000D02*
X320300000Y-125800000D01*
X286460000Y-119128500D02*
X293131500Y-125800000D01*
X286460000Y-118800000D02*
X286460000Y-119128500D01*
%TO.N,Net-(D36-K)*%
X287139300Y-117329300D02*
X288610000Y-118800000D01*
X285649200Y-117329300D02*
X287139300Y-117329300D01*
X282899100Y-120079400D02*
X285649200Y-117329300D01*
X274223100Y-120079400D02*
X282899100Y-120079400D01*
X274106600Y-119962900D02*
X274223100Y-120079400D01*
X271303500Y-119962900D02*
X274106600Y-119962900D01*
X268765800Y-117425200D02*
X271303500Y-119962900D01*
X266206300Y-117425200D02*
X268765800Y-117425200D01*
X265060000Y-118571500D02*
X266206300Y-117425200D01*
X265060000Y-118900000D02*
X265060000Y-118571500D01*
%TO.N,Net-(D35-K)*%
X287916600Y-91643400D02*
X269721900Y-91643400D01*
X289860000Y-89700000D02*
X287916600Y-91643400D01*
X268974600Y-120664600D02*
X273816000Y-120664600D01*
X267210000Y-118900000D02*
X268974600Y-120664600D01*
%TO.N,Net-(D34-K)*%
X275028400Y-118800000D02*
X274950100Y-118878300D01*
X276350000Y-118800000D02*
X275028400Y-118800000D01*
X248400000Y-94379100D02*
X248400000Y-94050000D01*
X249579600Y-95558700D02*
X248400000Y-94379100D01*
X274785800Y-95558700D02*
X249579600Y-95558700D01*
X275694300Y-94650200D02*
X274785800Y-95558700D01*
%TO.N,Net-(D33-K)*%
X258310000Y-94050000D02*
X262760000Y-89600000D01*
X250550000Y-94050000D02*
X258310000Y-94050000D01*
%TO.N,Net-(D32-K)*%
X261060000Y-103716400D02*
X261060000Y-104600000D01*
X261896700Y-102879700D02*
X261060000Y-103716400D01*
X265865500Y-88644500D02*
X264910000Y-89600000D01*
X267095000Y-88644500D02*
X265865500Y-88644500D01*
%TO.N,Net-(D31-K)*%
X245950000Y-119299700D02*
X245950000Y-118900000D01*
X247015200Y-120364900D02*
X245950000Y-119299700D01*
X254235100Y-120364900D02*
X247015200Y-120364900D01*
X255800000Y-118800000D02*
X254235100Y-120364900D01*
%TO.N,Net-(D30-K)*%
X231460000Y-107228500D02*
X231460000Y-106900000D01*
X232584400Y-108352900D02*
X231460000Y-107228500D01*
X235096900Y-108352900D02*
X232584400Y-108352900D01*
X236008800Y-107441000D02*
X235096900Y-108352900D01*
X246073200Y-116873200D02*
X248100000Y-118900000D01*
X236898200Y-116873200D02*
X246073200Y-116873200D01*
%TO.N,Net-(D29-K)*%
X232603600Y-95200000D02*
X232335800Y-95467800D01*
X233850000Y-95200000D02*
X232603600Y-95200000D01*
X233872100Y-106637900D02*
X233610000Y-106900000D01*
X236873700Y-106637900D02*
X233872100Y-106637900D01*
%TO.N,Net-(D28-K)*%
X191809600Y-105350400D02*
X191809600Y-106874900D01*
X191960000Y-105200000D02*
X191809600Y-105350400D01*
X230500800Y-116200800D02*
X232800000Y-118500000D01*
X193138700Y-116200800D02*
X230500800Y-116200800D01*
X193138700Y-116200800D02*
X191809600Y-116200800D01*
X191809600Y-116200800D02*
X193138700Y-116200800D01*
X191809600Y-106874900D02*
X191809600Y-106779600D01*
X191809600Y-106779600D02*
X191809600Y-106874900D01*
X193138700Y-116200800D02*
X193138700Y-116199200D01*
X193138700Y-116199200D02*
X193138700Y-116200800D01*
%TO.N,Net-(D27-K)*%
X201682200Y-106526000D02*
X205002500Y-106526000D01*
X201266500Y-106941700D02*
X201682200Y-106526000D01*
X195851700Y-106941700D02*
X201266500Y-106941700D01*
X194110000Y-105200000D02*
X195851700Y-106941700D01*
X221393500Y-118633500D02*
X221560000Y-118800000D01*
X205687700Y-118633500D02*
X221393500Y-118633500D01*
X205687700Y-118633500D02*
X205002500Y-118633500D01*
X205002500Y-118633500D02*
X205687700Y-118633500D01*
%TO.N,Net-(D26-K)*%
X227748600Y-118800000D02*
X227915100Y-118633500D01*
X223710000Y-118800000D02*
X227748600Y-118800000D01*
X222150000Y-94221100D02*
X222150000Y-94600000D01*
X223430600Y-92940500D02*
X222150000Y-94221100D01*
X226268500Y-92940500D02*
X223430600Y-92940500D01*
%TO.N,Net-(D25-K)*%
X206196500Y-127700000D02*
X206056700Y-127839800D01*
X218000000Y-127700000D02*
X206196500Y-127700000D01*
X205194700Y-98165300D02*
X206960000Y-96400000D01*
X205131500Y-98165300D02*
X205194700Y-98165300D01*
%TO.N,Net-(D24-K)*%
X192193500Y-118633500D02*
X192360000Y-118800000D01*
X188646200Y-118633500D02*
X192193500Y-118633500D01*
X203780500Y-101729500D02*
X190740600Y-101729500D01*
X209110000Y-96400000D02*
X203780500Y-101729500D01*
%TO.N,Net-(D23-K)*%
X194510000Y-119251000D02*
X193028300Y-120732700D01*
X194510000Y-118800000D02*
X194510000Y-119251000D01*
X191997100Y-94662900D02*
X191997100Y-96529500D01*
X192060000Y-94600000D02*
X191997100Y-94662900D01*
X191997100Y-96529500D02*
X191997100Y-96179500D01*
X191997100Y-96179500D02*
X191997100Y-96529500D01*
X193028300Y-120732700D02*
X193072400Y-120688600D01*
X193072400Y-120688600D02*
X193028300Y-120732700D01*
%TO.N,Net-(D22-K)*%
X179553500Y-105706500D02*
X179553500Y-106909600D01*
X180260000Y-105000000D02*
X179553500Y-105706500D01*
X194302900Y-127402900D02*
X194600000Y-127700000D01*
X180572800Y-127402900D02*
X194302900Y-127402900D01*
X180135900Y-127839800D02*
X180572800Y-127402900D01*
%TO.N,Net-(D21-K)*%
X178749200Y-88540300D02*
X179437500Y-89228600D01*
X176622600Y-88540300D02*
X178749200Y-88540300D01*
X175560000Y-89602900D02*
X176622600Y-88540300D01*
X175560000Y-90000000D02*
X175560000Y-89602900D01*
X179437500Y-89228600D02*
X179278000Y-89069100D01*
X179278000Y-89069100D02*
X179437500Y-89228600D01*
X181208400Y-96100000D02*
X180654000Y-95545600D01*
X180654000Y-95545600D02*
X181208400Y-96100000D01*
X181208400Y-96100000D02*
X180654000Y-95545600D01*
X183000000Y-96100000D02*
X181208400Y-96100000D01*
X180654000Y-95545600D02*
X180724800Y-95616400D01*
%TO.N,Net-(D20-K)*%
X174378100Y-93331900D02*
X172180100Y-93331900D01*
X177710000Y-90000000D02*
X174378100Y-93331900D01*
X171743800Y-119200000D02*
X171177300Y-118633500D01*
X174060000Y-119200000D02*
X171743800Y-119200000D01*
X171177300Y-118633500D02*
X171743800Y-119200000D01*
X171743800Y-119200000D02*
X171177300Y-118633500D01*
X172180100Y-93331900D02*
X171818500Y-93331900D01*
X171818500Y-93331900D02*
X172180100Y-93331900D01*
%TO.N,Net-(D19-K)*%
X173835400Y-116825400D02*
X176210000Y-119200000D01*
X104631100Y-116825400D02*
X173835400Y-116825400D01*
X103060000Y-118396500D02*
X104631100Y-116825400D01*
X103060000Y-118800000D02*
X103060000Y-118396500D01*
%TO.N,Net-(D18-K)*%
X164554000Y-126100000D02*
X166000000Y-126100000D01*
X157860000Y-119406000D02*
X164554000Y-126100000D01*
X157860000Y-119000000D02*
X157860000Y-119406000D01*
%TO.N,Net-(D17-K)*%
X154586100Y-90100000D02*
X153745000Y-90941100D01*
X156060000Y-90100000D02*
X154586100Y-90100000D01*
X158497400Y-117487400D02*
X160010000Y-119000000D01*
X157177400Y-117487400D02*
X158497400Y-117487400D01*
X156031300Y-118633500D02*
X157177400Y-117487400D01*
%TO.N,Net-(D16-K)*%
X132451900Y-119100000D02*
X132236500Y-118884600D01*
X134160000Y-119100000D02*
X132451900Y-119100000D01*
X156181600Y-88071600D02*
X158210000Y-90100000D01*
X146997200Y-88071600D02*
X156181600Y-88071600D01*
X146720400Y-87794800D02*
X146997200Y-88071600D01*
X135342900Y-87794800D02*
X146720400Y-87794800D01*
%TO.N,Net-(D15-K)*%
X144100000Y-122860000D02*
X144100000Y-126800000D01*
X148060000Y-118900000D02*
X144100000Y-122860000D01*
%TO.N,Net-(D14-K)*%
X148746200Y-117436200D02*
X150210000Y-118900000D01*
X122280600Y-117436200D02*
X148746200Y-117436200D01*
X121160000Y-118556800D02*
X122280600Y-117436200D01*
X121160000Y-118900000D02*
X121160000Y-118556800D01*
%TO.N,Net-(D13-K)*%
X129355100Y-118900000D02*
X129370500Y-118884600D01*
X123310000Y-118900000D02*
X129355100Y-118900000D01*
X148391700Y-105268300D02*
X148760000Y-104900000D01*
X129900000Y-105268300D02*
X148391700Y-105268300D01*
X129489100Y-105679200D02*
X129900000Y-105268300D01*
%TO.N,Net-(D12-K)*%
X141916600Y-91643400D02*
X143460000Y-90100000D01*
X138329100Y-91643400D02*
X141916600Y-91643400D01*
X110198400Y-112501600D02*
X108900000Y-113800000D01*
X135036200Y-112501600D02*
X110198400Y-112501600D01*
X135342900Y-112808300D02*
X135036200Y-112501600D01*
%TO.N,Net-(D11-K)*%
X119677500Y-102644200D02*
X121438000Y-102644200D01*
X118460000Y-103861700D02*
X119677500Y-102644200D01*
X118460000Y-104200000D02*
X118460000Y-103861700D01*
X144154500Y-88644500D02*
X145610000Y-90100000D01*
X129370500Y-88644500D02*
X144154500Y-88644500D01*
%TO.N,Net-(D10-K)*%
X123999000Y-89800000D02*
X122757200Y-91041800D01*
X124160000Y-89800000D02*
X123999000Y-89800000D01*
X122937600Y-102203600D02*
X122937600Y-100173300D01*
X120941200Y-104200000D02*
X122937600Y-102203600D01*
X120610000Y-104200000D02*
X120941200Y-104200000D01*
%TO.N,Net-(D9-K)*%
X108000000Y-89800000D02*
X102800000Y-95000000D01*
X110860000Y-89800000D02*
X108000000Y-89800000D01*
%TO.N,Net-(D8-K)*%
X69041100Y-118781100D02*
X69360000Y-119100000D01*
X66660300Y-118781100D02*
X69041100Y-118781100D01*
X111025600Y-87815600D02*
X113010000Y-89800000D01*
X72632700Y-87815600D02*
X111025600Y-87815600D01*
%TO.N,Net-(D7-K)*%
X69639300Y-117229300D02*
X71510000Y-119100000D01*
X56390400Y-117229300D02*
X69639300Y-117229300D01*
X55300000Y-118319700D02*
X56390400Y-117229300D01*
X55300000Y-118700000D02*
X55300000Y-118319700D01*
%TO.N,Net-(D6-K)*%
X54460000Y-104851500D02*
X54460000Y-104500000D01*
X64608500Y-115000000D02*
X54460000Y-104851500D01*
X90700000Y-115000000D02*
X64608500Y-115000000D01*
%TO.N,Net-(D5-K)*%
X64610000Y-96500000D02*
X56610000Y-104500000D01*
X69060000Y-96500000D02*
X64610000Y-96500000D01*
%TO.N,Net-(D4-K)*%
X76085400Y-119100000D02*
X75618900Y-118633500D01*
X82260000Y-119100000D02*
X76085400Y-119100000D01*
X72351200Y-97641200D02*
X71210000Y-96500000D01*
X74772400Y-97641200D02*
X72351200Y-97641200D01*
%TO.N,Net-(D3-K)*%
X83600000Y-102500000D02*
X91100000Y-95000000D01*
X83600000Y-104300000D02*
X83600000Y-102500000D01*
%TO.N,Net-(D2-K)*%
X82160000Y-90891500D02*
X82160000Y-90500000D01*
X84273200Y-93004700D02*
X82160000Y-90891500D01*
X91092000Y-93004700D02*
X84273200Y-93004700D01*
X92213500Y-94126200D02*
X91092000Y-93004700D01*
X92213500Y-97836500D02*
X92213500Y-94126200D01*
X85750000Y-104300000D02*
X92213500Y-97836500D01*
%TO.N,Net-(D1-K)*%
X56200000Y-89816800D02*
X56200000Y-90200000D01*
X57330700Y-88686100D02*
X56200000Y-89816800D01*
X82496100Y-88686100D02*
X57330700Y-88686100D01*
X84310000Y-90500000D02*
X82496100Y-88686100D01*
D20*
%TO.N,+12V*%
X115710000Y-150600000D02*
X116984700Y-149325300D01*
X82913700Y-120676600D02*
X84450200Y-119140100D01*
X59426600Y-120676600D02*
X82913700Y-120676600D01*
X57450000Y-118700000D02*
X59426600Y-120676600D01*
X84410000Y-119100000D02*
X84450200Y-119140100D01*
X224300000Y-94600000D02*
X224300000Y-96193900D01*
X81591300Y-177358700D02*
X81591300Y-175612600D01*
X80050000Y-178900000D02*
X81591300Y-177358700D01*
X76627000Y-163617000D02*
X76310000Y-163300000D01*
X78729700Y-163617000D02*
X76627000Y-163617000D01*
X136310000Y-119226200D02*
X136310000Y-119100000D01*
X134833100Y-120703100D02*
X136310000Y-119226200D01*
X107012200Y-120703100D02*
X134833100Y-120703100D01*
X105210000Y-118900900D02*
X107012200Y-120703100D01*
X105210000Y-118900900D02*
X105210000Y-118800000D01*
X59035000Y-89515000D02*
X58350000Y-90200000D01*
X59962300Y-89515000D02*
X59035000Y-89515000D01*
X138589600Y-206057400D02*
X136510000Y-203977800D01*
X206891900Y-206057400D02*
X138589600Y-206057400D01*
X208710000Y-204239300D02*
X206891900Y-206057400D01*
X208710000Y-204100000D02*
X208710000Y-204239300D01*
X136510000Y-203900000D02*
X136510000Y-203977800D01*
X97865500Y-205455500D02*
X97410000Y-205000000D01*
X135032300Y-205455500D02*
X97865500Y-205455500D01*
X136510000Y-203977800D02*
X135032300Y-205455500D01*
X85695200Y-120385200D02*
X99508500Y-120385200D01*
X84450200Y-119140100D02*
X85695200Y-120385200D01*
X103725700Y-120385200D02*
X105210000Y-118900900D01*
X99508500Y-120385200D02*
X103725700Y-120385200D01*
X361404600Y-152500000D02*
X363047200Y-150857400D01*
X361400000Y-152500000D02*
X361404600Y-152500000D01*
X359781600Y-121220500D02*
X358829900Y-120268800D01*
X361810000Y-117288700D02*
X358829900Y-120268800D01*
X361810000Y-112800000D02*
X361810000Y-117288700D01*
X261056100Y-106894000D02*
X260714500Y-106894000D01*
X263210000Y-104740100D02*
X261056100Y-106894000D01*
X263210000Y-104600000D02*
X263210000Y-104740100D01*
X336100000Y-124331300D02*
X336100000Y-126100000D01*
X328410000Y-203482700D02*
X328410000Y-203400000D01*
X326053100Y-205839600D02*
X328410000Y-203482700D01*
X311049600Y-205839600D02*
X326053100Y-205839600D01*
X310710000Y-205500000D02*
X311049600Y-205839600D01*
X328098500Y-178611500D02*
X327810000Y-178900000D01*
X330292500Y-178611500D02*
X328098500Y-178611500D01*
X329389200Y-202420800D02*
X329389200Y-201798000D01*
X328410000Y-203400000D02*
X329389200Y-202420800D01*
X147870100Y-149325300D02*
X149310000Y-150765200D01*
X116984700Y-149325300D02*
X147870100Y-149325300D01*
X149310000Y-150765200D02*
X149310000Y-150900000D01*
X184923700Y-104596600D02*
X186965000Y-106637900D01*
X183017600Y-104596600D02*
X184923700Y-104596600D01*
X359654500Y-88644500D02*
X359010000Y-88000000D01*
X362294100Y-88644500D02*
X359654500Y-88644500D01*
X106410000Y-137306600D02*
X106410000Y-137400000D01*
X103581100Y-134477700D02*
X106410000Y-137306600D01*
X101418300Y-134477700D02*
X103581100Y-134477700D01*
X325081000Y-173400000D02*
X330292500Y-178611500D01*
X309910000Y-173400000D02*
X325081000Y-173400000D01*
X118898500Y-82250000D02*
X98655000Y-82250000D01*
X126310000Y-89661500D02*
X118898500Y-82250000D01*
X126310000Y-89800000D02*
X126310000Y-89661500D01*
X106419500Y-137400000D02*
X106410000Y-137400000D01*
X116984700Y-147965200D02*
X106419500Y-137400000D01*
X116984700Y-149325300D02*
X116984700Y-147965200D01*
X306961500Y-170356600D02*
X292210000Y-170356600D01*
X309910000Y-173305100D02*
X306961500Y-170356600D01*
X309910000Y-173400000D02*
X309910000Y-173305100D01*
X265843400Y-170356600D02*
X258300000Y-177900000D01*
X292210000Y-170356600D02*
X265843400Y-170356600D01*
X80512700Y-202602700D02*
X81622800Y-202602700D01*
X79110000Y-201200000D02*
X80512700Y-202602700D01*
X97410000Y-205117400D02*
X97410000Y-205000000D01*
X95921000Y-206606400D02*
X97410000Y-205117400D01*
X85626500Y-206606400D02*
X95921000Y-206606400D01*
X81622800Y-202602700D02*
X85626500Y-206606400D01*
X262170900Y-130629100D02*
X260800000Y-132000000D01*
X263749500Y-130629100D02*
X262170900Y-130629100D01*
X338213500Y-122217800D02*
X336100000Y-124331300D01*
X356880900Y-122217800D02*
X338213500Y-122217800D01*
X358829900Y-120268800D02*
X356880900Y-122217800D01*
X309749900Y-92439900D02*
X305110000Y-87800000D01*
X326838700Y-92439900D02*
X309749900Y-92439900D01*
X330400000Y-96001200D02*
X326838700Y-92439900D01*
X330400000Y-96100000D02*
X330400000Y-96001200D01*
X358166800Y-97352900D02*
X358884700Y-98070800D01*
X346207600Y-97352900D02*
X358166800Y-97352900D01*
X345750500Y-97810000D02*
X346207600Y-97352900D01*
X332110000Y-97810000D02*
X345750500Y-97810000D01*
X330400000Y-96100000D02*
X332110000Y-97810000D01*
X60272300Y-134477700D02*
X85029900Y-134477700D01*
X56650000Y-138100000D02*
X60272300Y-134477700D01*
X285125900Y-156769500D02*
X265889200Y-156769500D01*
X286159000Y-157802600D02*
X285125900Y-156769500D01*
X292210000Y-157802600D02*
X286159000Y-157802600D01*
X292210000Y-156200000D02*
X292210000Y-157802600D01*
X292210000Y-157802600D02*
X292210000Y-170356600D01*
X96653300Y-84251700D02*
X98655000Y-82250000D01*
X91867100Y-84251700D02*
X96653300Y-84251700D01*
X87863800Y-80248400D02*
X91867100Y-84251700D01*
X65191600Y-80248400D02*
X87863800Y-80248400D01*
X63140000Y-82300000D02*
X65191600Y-80248400D01*
X85029900Y-134477700D02*
X101418300Y-134477700D01*
X152530400Y-147544800D02*
X185310000Y-147544800D01*
X149310000Y-150765200D02*
X152530400Y-147544800D01*
X185310000Y-149100000D02*
X185310000Y-147544800D01*
X187712000Y-147544800D02*
X188795300Y-146461500D01*
X185310000Y-147544800D02*
X187712000Y-147544800D01*
X186323900Y-128386100D02*
X185810000Y-128900000D01*
X189094500Y-128386100D02*
X186323900Y-128386100D01*
X209310000Y-133714100D02*
X209310000Y-133800000D01*
X204734700Y-129138800D02*
X209310000Y-133714100D01*
X189847200Y-129138800D02*
X204734700Y-129138800D01*
X189094500Y-128386100D02*
X189847200Y-129138800D01*
X224894300Y-96788200D02*
X224300000Y-96193900D01*
X234550200Y-96788200D02*
X224894300Y-96788200D01*
X236000000Y-95338400D02*
X234550200Y-96788200D01*
X236000000Y-95200000D02*
X236000000Y-95338400D01*
X305110000Y-87663700D02*
X305110000Y-87800000D01*
X303659600Y-86213300D02*
X305110000Y-87663700D01*
X295496700Y-86213300D02*
X303659600Y-86213300D01*
X292010000Y-89700000D02*
X295496700Y-86213300D01*
X267200900Y-127177700D02*
X263749500Y-130629100D01*
X321020800Y-127177700D02*
X267200900Y-127177700D01*
X321462700Y-126735800D02*
X321020800Y-127177700D01*
X321462700Y-124331300D02*
X321462700Y-126735800D01*
X336100000Y-124331300D02*
X321462700Y-124331300D01*
X311741300Y-124331300D02*
X306810000Y-119400000D01*
X321462700Y-124331300D02*
X311741300Y-124331300D01*
X151358300Y-104451700D02*
X150910000Y-104900000D01*
X166048500Y-104451700D02*
X151358300Y-104451700D01*
X168008500Y-102491700D02*
X166048500Y-104451700D01*
X183017600Y-102491700D02*
X168008500Y-102491700D01*
X183017600Y-102491700D02*
X183017600Y-104596600D01*
X182813400Y-104596600D02*
X182410000Y-105000000D01*
X183017600Y-104596600D02*
X182813400Y-104596600D01*
X209668700Y-134158700D02*
X209310000Y-133800000D01*
X258717900Y-134158700D02*
X209668700Y-134158700D01*
X260800000Y-132076600D02*
X258717900Y-134158700D01*
X260800000Y-132000000D02*
X260800000Y-132076600D01*
X219920600Y-94762700D02*
X194210000Y-94762700D01*
X221351800Y-96193900D02*
X219920600Y-94762700D01*
X224300000Y-96193900D02*
X221351800Y-96193900D01*
X194210000Y-95450400D02*
X194210000Y-94762700D01*
X187168700Y-102491700D02*
X194210000Y-95450400D01*
X183017600Y-102491700D02*
X187168700Y-102491700D01*
X194210000Y-94762700D02*
X194210000Y-94600000D01*
%TD*%
M02*
