%TF.GenerationSoftware,KiCad,Pcbnew,9.0.2*%
%TF.CreationDate,2025-07-01T18:23:21+02:00*%
%TF.ProjectId,lights,6c696768-7473-42e6-9b69-6361645f7063,rev?*%
%TF.SameCoordinates,Original*%
%TF.FileFunction,Copper,L2,Bot*%
%TF.FilePolarity,Positive*%
%FSLAX46Y46*%
G04 Gerber Fmt 4.6, Leading zero omitted, Abs format (unit mm)*
G04 Created by KiCad (PCBNEW 9.0.2) date 2025-07-01 18:23:21*
%MOMM*%
%LPD*%
G01*
G04 APERTURE LIST*
%TA.AperFunction,ComponentPad*%
%ADD10R,3.000000X3.000000*%
%TD*%
%TA.AperFunction,ComponentPad*%
%ADD11C,3.000000*%
%TD*%
%TA.AperFunction,ComponentPad*%
%ADD12R,1.700000X1.700000*%
%TD*%
%TA.AperFunction,ComponentPad*%
%ADD13C,1.700000*%
%TD*%
%TA.AperFunction,ComponentPad*%
%ADD14R,1.500000X1.500000*%
%TD*%
%TA.AperFunction,ViaPad*%
%ADD15C,0.600000*%
%TD*%
%TA.AperFunction,Conductor*%
%ADD16C,0.400000*%
%TD*%
%TA.AperFunction,Conductor*%
%ADD17C,0.600000*%
%TD*%
G04 APERTURE END LIST*
D10*
%TO.P,J22,1,Pin_1*%
%TO.N,GND*%
X93575000Y-82250000D03*
D11*
%TO.P,J22,2,Pin_2*%
%TO.N,+12V*%
X98655000Y-82250000D03*
%TD*%
D12*
%TO.P,J5,1,Pin_1*%
%TO.N,GND*%
X64760000Y-189100000D03*
D13*
%TO.P,J5,2,Pin_2*%
%TO.N,Net-(J1-Pin_34)*%
X67300000Y-189100000D03*
%TO.P,J5,3,Pin_3*%
%TO.N,Net-(J1-Pin_35)*%
X69840000Y-189100000D03*
%TD*%
D14*
%TO.P,KR3,1,+5V_TOP_LED*%
%TO.N,Net-(J1-Pin_4)*%
X142000000Y-98800000D03*
%TO.P,KR3,2,GND_TOP_LED*%
%TO.N,GND*%
X142000000Y-101340000D03*
%TO.P,KR3,3,+5V_BOTTOM_LED*%
%TO.N,Net-(J1-Pin_5)*%
X142000000Y-103880000D03*
%TO.P,KR3,4,GND_BOTTOM_LED*%
%TO.N,GND*%
X142000000Y-106420000D03*
%TO.P,KR3,5,SW_IN*%
%TO.N,Net-(J1-Pin_6)*%
X126300000Y-103300000D03*
%TO.P,KR3,6,SW_OUT*%
%TO.N,GND*%
X126300000Y-105840000D03*
%TD*%
D12*
%TO.P,J15,1,Pin_1*%
%TO.N,GND*%
X241500000Y-189100000D03*
D13*
%TO.P,J15,2,Pin_2*%
%TO.N,Net-(J10-Pin_23)*%
X244040000Y-189100000D03*
%TO.P,J15,3,Pin_3*%
%TO.N,Net-(J10-Pin_24)*%
X246580000Y-189100000D03*
%TD*%
D12*
%TO.P,J6,1,Pin_1*%
%TO.N,GND*%
X92360000Y-189200000D03*
D13*
%TO.P,J6,2,Pin_2*%
%TO.N,Net-(J1-Pin_36)*%
X94900000Y-189200000D03*
%TO.P,J6,3,Pin_3*%
%TO.N,Net-(J1-Pin_37)*%
X97440000Y-189200000D03*
%TO.P,J6,4,Pin_4*%
%TO.N,Net-(J1-Pin_38)*%
X99980000Y-189200000D03*
%TD*%
D14*
%TO.P,KR9,1,+5V_TOP_LED*%
%TO.N,Net-(J1-Pin_13)*%
X284650000Y-98550000D03*
%TO.P,KR9,2,GND_TOP_LED*%
%TO.N,GND*%
X284650000Y-101090000D03*
%TO.P,KR9,3,+5V_BOTTOM_LED*%
%TO.N,Net-(J1-Pin_14)*%
X284650000Y-103630000D03*
%TO.P,KR9,4,GND_BOTTOM_LED*%
%TO.N,GND*%
X284650000Y-106170000D03*
%TO.P,KR9,5,SW_IN*%
%TO.N,Net-(J1-Pin_15)*%
X268950000Y-103050000D03*
%TO.P,KR9,6,SW_OUT*%
%TO.N,GND*%
X268950000Y-105590000D03*
%TD*%
%TO.P,KR2,1,+5V_TOP_LED*%
%TO.N,Net-(J1-Pin_16)*%
X353900000Y-98660000D03*
%TO.P,KR2,2,GND_TOP_LED*%
%TO.N,GND*%
X353900000Y-101200000D03*
%TO.P,KR2,3,+5V_BOTTOM_LED*%
%TO.N,Net-(J1-Pin_17)*%
X353900000Y-103740000D03*
%TO.P,KR2,4,GND_BOTTOM_LED*%
%TO.N,GND*%
X353900000Y-106280000D03*
%TO.P,KR2,5,SW_IN*%
%TO.N,Net-(J1-Pin_18)*%
X338200000Y-103160000D03*
%TO.P,KR2,6,SW_OUT*%
%TO.N,GND*%
X338200000Y-105700000D03*
%TD*%
D12*
%TO.P,J2,1,Pin_1*%
%TO.N,GND*%
X62360000Y-150700000D03*
D13*
%TO.P,J2,2,Pin_2*%
%TO.N,Net-(J1-Pin_29)*%
X64900000Y-150700000D03*
%TO.P,J2,3,Pin_3*%
%TO.N,Net-(J1-Pin_28)*%
X67440000Y-150700000D03*
%TD*%
D12*
%TO.P,J13,1,Pin_1*%
%TO.N,GND*%
X303940000Y-105300000D03*
D13*
%TO.P,J13,2,Pin_2*%
%TO.N,Net-(J10-Pin_13)*%
X306480000Y-105300000D03*
%TO.P,J13,3,Pin_3*%
%TO.N,Net-(J10-Pin_14)*%
X309020000Y-105300000D03*
%TO.P,J13,4,Pin_4*%
%TO.N,Net-(J10-Pin_15)*%
X311560000Y-105300000D03*
%TO.P,J13,5,Pin_5*%
%TO.N,Net-(J10-Pin_16)*%
X314100000Y-105300000D03*
%TO.P,J13,6,Pin_6*%
%TO.N,Net-(J10-Pin_17)*%
X316640000Y-105300000D03*
%TO.P,J13,7,Pin_7*%
%TO.N,Net-(J10-Pin_18)*%
X319180000Y-105300000D03*
%TO.P,J13,8,Pin_8*%
%TO.N,Net-(J10-Pin_19)*%
X321720000Y-105300000D03*
%TO.P,J13,9,Pin_9*%
%TO.N,Net-(J10-Pin_20)*%
X324260000Y-105300000D03*
%TD*%
D14*
%TO.P,KR6,1,+5V_TOP_LED*%
%TO.N,Net-(J1-Pin_22)*%
X216000000Y-183400000D03*
%TO.P,KR6,2,GND_TOP_LED*%
%TO.N,GND*%
X216000000Y-185940000D03*
%TO.P,KR6,3,+5V_BOTTOM_LED*%
%TO.N,Net-(J1-Pin_23)*%
X216000000Y-188480000D03*
%TO.P,KR6,4,GND_BOTTOM_LED*%
%TO.N,GND*%
X216000000Y-191020000D03*
%TO.P,KR6,5,SW_IN*%
%TO.N,Net-(J1-Pin_25)*%
X200300000Y-187900000D03*
%TO.P,KR6,6,SW_OUT*%
%TO.N,GND*%
X200300000Y-190440000D03*
%TD*%
D12*
%TO.P,J17,1,Pin_1*%
%TO.N,GND*%
X335890000Y-145400000D03*
D13*
%TO.P,J17,2,Pin_2*%
%TO.N,Net-(J10-Pin_28)*%
X338430000Y-145400000D03*
%TO.P,J17,3,Pin_3*%
%TO.N,Net-(J10-Pin_29)*%
X340970000Y-145400000D03*
%TO.P,J17,4,Pin_4*%
%TO.N,Net-(J10-Pin_30)*%
X343510000Y-145400000D03*
%TD*%
D12*
%TO.P,J11,1,Pin_1*%
%TO.N,Net-(J11-Pin_1)*%
X244300000Y-145600000D03*
D13*
%TO.P,J11,2,Pin_2*%
%TO.N,Net-(J11-Pin_2)*%
X246840000Y-145600000D03*
%TO.P,J11,3,Pin_3*%
%TO.N,Net-(J11-Pin_3)*%
X249380000Y-145600000D03*
%TD*%
D14*
%TO.P,KR7,1,+5V_TOP_LED*%
%TO.N,Net-(J1-Pin_10)*%
X216050000Y-98750000D03*
%TO.P,KR7,2,GND_TOP_LED*%
%TO.N,GND*%
X216050000Y-101290000D03*
%TO.P,KR7,3,+5V_BOTTOM_LED*%
%TO.N,Net-(J1-Pin_11)*%
X216050000Y-103830000D03*
%TO.P,KR7,4,GND_BOTTOM_LED*%
%TO.N,GND*%
X216050000Y-106370000D03*
%TO.P,KR7,5,SW_IN*%
%TO.N,Net-(J1-Pin_12)*%
X200350000Y-103250000D03*
%TO.P,KR7,6,SW_OUT*%
%TO.N,GND*%
X200350000Y-105790000D03*
%TD*%
%TO.P,KR8,1,+5V_TOP_LED*%
%TO.N,Net-(J1-Pin_24)*%
X318100000Y-183480000D03*
%TO.P,KR8,2,GND_TOP_LED*%
%TO.N,GND*%
X318100000Y-186020000D03*
%TO.P,KR8,3,+5V_BOTTOM_LED*%
%TO.N,Net-(J1-Pin_26)*%
X318100000Y-188560000D03*
%TO.P,KR8,4,GND_BOTTOM_LED*%
%TO.N,GND*%
X318100000Y-191100000D03*
%TO.P,KR8,5,SW_IN*%
%TO.N,Net-(J1-Pin_27)*%
X302400000Y-187980000D03*
%TO.P,KR8,6,SW_OUT*%
%TO.N,GND*%
X302400000Y-190520000D03*
%TD*%
D12*
%TO.P,J18,1,Pin_1*%
%TO.N,GND*%
X267760000Y-189200000D03*
D13*
%TO.P,J18,2,Pin_2*%
%TO.N,Net-(J10-Pin_31)*%
X270300000Y-189200000D03*
%TO.P,J18,3,Pin_3*%
%TO.N,Net-(J10-Pin_32)*%
X272840000Y-189200000D03*
%TO.P,J18,4,Pin_4*%
%TO.N,Net-(J10-Pin_33)*%
X275380000Y-189200000D03*
%TD*%
D12*
%TO.P,J16,1,Pin_1*%
%TO.N,GND*%
X302160000Y-145500000D03*
D13*
%TO.P,J16,2,Pin_2*%
%TO.N,Net-(J10-Pin_25)*%
X304700000Y-145500000D03*
%TO.P,J16,3,Pin_3*%
%TO.N,Net-(J10-Pin_26)*%
X307240000Y-145500000D03*
%TO.P,J16,4,Pin_4*%
%TO.N,Net-(J10-Pin_27)*%
X309780000Y-145500000D03*
%TD*%
D12*
%TO.P,J12,1,Pin_1*%
%TO.N,GND*%
X244560000Y-104600000D03*
D13*
%TO.P,J12,2,Pin_2*%
%TO.N,Net-(J10-Pin_10)*%
X247100000Y-104600000D03*
%TO.P,J12,3,Pin_3*%
%TO.N,Net-(J10-Pin_11)*%
X249640000Y-104600000D03*
%TO.P,J12,4,Pin_4*%
%TO.N,Net-(J10-Pin_12)*%
X252180000Y-104600000D03*
%TD*%
D12*
%TO.P,J8,1,Pin_1*%
%TO.N,GND*%
X161060000Y-151000000D03*
D13*
%TO.P,J8,2,Pin_2*%
%TO.N,Net-(J10-Pin_4)*%
X163600000Y-151000000D03*
%TO.P,J8,3,Pin_3*%
%TO.N,Net-(J10-Pin_5)*%
X166140000Y-151000000D03*
%TO.P,J8,4,Pin_4*%
%TO.N,Net-(J10-Pin_6)*%
X168680000Y-151000000D03*
%TD*%
D14*
%TO.P,KR4,1,+5V_TOP_LED*%
%TO.N,Net-(J1-Pin_19)*%
X216000000Y-149600000D03*
%TO.P,KR4,2,GND_TOP_LED*%
%TO.N,GND*%
X216000000Y-152140000D03*
%TO.P,KR4,3,+5V_BOTTOM_LED*%
%TO.N,Net-(J1-Pin_20)*%
X216000000Y-154680000D03*
%TO.P,KR4,4,GND_BOTTOM_LED*%
%TO.N,GND*%
X216000000Y-157220000D03*
%TO.P,KR4,5,SW_IN*%
%TO.N,Net-(J1-Pin_21)*%
X200300000Y-154100000D03*
%TO.P,KR4,6,SW_OUT*%
%TO.N,GND*%
X200300000Y-156640000D03*
%TD*%
D12*
%TO.P,J9,1,Pin_1*%
%TO.N,GND*%
X160690000Y-189300000D03*
D13*
%TO.P,J9,2,Pin_2*%
%TO.N,Net-(J10-Pin_7)*%
X163230000Y-189300000D03*
%TO.P,J9,3,Pin_3*%
%TO.N,Net-(J10-Pin_8)*%
X165770000Y-189300000D03*
%TO.P,J9,4,Pin_4*%
%TO.N,Net-(J10-Pin_9)*%
X168310000Y-189300000D03*
%TD*%
D12*
%TO.P,J14,1,Pin_1*%
%TO.N,GND*%
X274560000Y-145500000D03*
D13*
%TO.P,J14,2,Pin_2*%
%TO.N,Net-(J10-Pin_21)*%
X277100000Y-145500000D03*
%TO.P,J14,3,Pin_3*%
%TO.N,Net-(J10-Pin_22)*%
X279640000Y-145500000D03*
%TD*%
D12*
%TO.P,J19,1,Pin_1*%
%TO.N,GND*%
X335890000Y-189200000D03*
D13*
%TO.P,J19,2,Pin_2*%
%TO.N,Net-(J10-Pin_34)*%
X338430000Y-189200000D03*
%TO.P,J19,3,Pin_3*%
%TO.N,Net-(J10-Pin_35)*%
X340970000Y-189200000D03*
%TO.P,J19,4,Pin_4*%
%TO.N,Net-(J10-Pin_36)*%
X343510000Y-189200000D03*
%TD*%
D12*
%TO.P,J4,1,Pin_1*%
%TO.N,GND*%
X129660000Y-150900000D03*
D13*
%TO.P,J4,2,Pin_2*%
%TO.N,Net-(J1-Pin_32)*%
X132200000Y-150900000D03*
%TO.P,J4,3,Pin_3*%
%TO.N,Net-(J1-Pin_33)*%
X134740000Y-150900000D03*
%TD*%
D12*
%TO.P,J7,1,Pin_1*%
%TO.N,GND*%
X129690000Y-189200000D03*
D13*
%TO.P,J7,2,Pin_2*%
%TO.N,Net-(J10-Pin_1)*%
X132230000Y-189200000D03*
%TO.P,J7,3,Pin_3*%
%TO.N,Net-(J10-Pin_2)*%
X134770000Y-189200000D03*
%TO.P,J7,4,Pin_4*%
%TO.N,Net-(J10-Pin_3)*%
X137310000Y-189200000D03*
%TD*%
D14*
%TO.P,KR1,1,+5V_TOP_LED*%
%TO.N,Net-(J1-Pin_1)*%
X77750000Y-98650000D03*
%TO.P,KR1,2,GND_TOP_LED*%
%TO.N,GND*%
X77750000Y-101190000D03*
%TO.P,KR1,3,+5V_BOTTOM_LED*%
%TO.N,Net-(J1-Pin_2)*%
X77750000Y-103730000D03*
%TO.P,KR1,4,GND_BOTTOM_LED*%
%TO.N,GND*%
X77750000Y-106270000D03*
%TO.P,KR1,5,SW_IN*%
%TO.N,Net-(J1-Pin_3)*%
X62050000Y-103150000D03*
%TO.P,KR1,6,SW_OUT*%
%TO.N,GND*%
X62050000Y-105690000D03*
%TD*%
D12*
%TO.P,J3,1,Pin_1*%
%TO.N,GND*%
X94060000Y-150800000D03*
D13*
%TO.P,J3,2,Pin_2*%
%TO.N,Net-(J1-Pin_30)*%
X96600000Y-150800000D03*
%TO.P,J3,3,Pin_3*%
%TO.N,Net-(J1-Pin_31)*%
X99140000Y-150800000D03*
%TD*%
D14*
%TO.P,KR5,1,+5V_TOP_LED*%
%TO.N,Net-(J1-Pin_7)*%
X173900000Y-98700000D03*
%TO.P,KR5,2,GND_TOP_LED*%
%TO.N,GND*%
X173900000Y-101240000D03*
%TO.P,KR5,3,+5V_BOTTOM_LED*%
%TO.N,Net-(J1-Pin_8)*%
X173900000Y-103780000D03*
%TO.P,KR5,4,GND_BOTTOM_LED*%
%TO.N,GND*%
X173900000Y-106320000D03*
%TO.P,KR5,5,SW_IN*%
%TO.N,Net-(J1-Pin_9)*%
X158200000Y-103200000D03*
%TO.P,KR5,6,SW_OUT*%
%TO.N,GND*%
X158200000Y-105740000D03*
%TD*%
D10*
%TO.P,J20,1,Pin_1*%
%TO.N,Net-(J11-Pin_3)*%
X73200000Y-82300000D03*
D11*
%TO.P,J20,2,Pin_2*%
%TO.N,Net-(J11-Pin_2)*%
X78280000Y-82300000D03*
%TO.P,J20,3,Pin_3*%
%TO.N,Net-(J11-Pin_1)*%
X83360000Y-82300000D03*
%TD*%
D12*
%TO.P,J1,1,Pin_1*%
%TO.N,Net-(J1-Pin_1)*%
X252680000Y-85600000D03*
D13*
%TO.P,J1,2,Pin_2*%
%TO.N,Net-(J1-Pin_2)*%
X252680000Y-83060000D03*
%TO.P,J1,3,Pin_3*%
%TO.N,Net-(J1-Pin_3)*%
X250140000Y-85600000D03*
%TO.P,J1,4,Pin_4*%
%TO.N,Net-(J1-Pin_4)*%
X250140000Y-83060000D03*
%TO.P,J1,5,Pin_5*%
%TO.N,Net-(J1-Pin_5)*%
X247600000Y-85600000D03*
%TO.P,J1,6,Pin_6*%
%TO.N,Net-(J1-Pin_6)*%
X247600000Y-83060000D03*
%TO.P,J1,7,Pin_7*%
%TO.N,Net-(J1-Pin_7)*%
X245060000Y-85600000D03*
%TO.P,J1,8,Pin_8*%
%TO.N,Net-(J1-Pin_8)*%
X245060000Y-83060000D03*
%TO.P,J1,9,Pin_9*%
%TO.N,Net-(J1-Pin_9)*%
X242520000Y-85600000D03*
%TO.P,J1,10,Pin_10*%
%TO.N,Net-(J1-Pin_10)*%
X242520000Y-83060000D03*
%TO.P,J1,11,Pin_11*%
%TO.N,Net-(J1-Pin_11)*%
X239980000Y-85600000D03*
%TO.P,J1,12,Pin_12*%
%TO.N,Net-(J1-Pin_12)*%
X239980000Y-83060000D03*
%TO.P,J1,13,Pin_13*%
%TO.N,Net-(J1-Pin_13)*%
X237440000Y-85600000D03*
%TO.P,J1,14,Pin_14*%
%TO.N,Net-(J1-Pin_14)*%
X237440000Y-83060000D03*
%TO.P,J1,15,Pin_15*%
%TO.N,Net-(J1-Pin_15)*%
X234900000Y-85600000D03*
%TO.P,J1,16,Pin_16*%
%TO.N,Net-(J1-Pin_16)*%
X234900000Y-83060000D03*
%TO.P,J1,17,Pin_17*%
%TO.N,Net-(J1-Pin_17)*%
X232360000Y-85600000D03*
%TO.P,J1,18,Pin_18*%
%TO.N,Net-(J1-Pin_18)*%
X232360000Y-83060000D03*
%TO.P,J1,19,Pin_19*%
%TO.N,Net-(J1-Pin_19)*%
X229820000Y-85600000D03*
%TO.P,J1,20,Pin_20*%
%TO.N,Net-(J1-Pin_20)*%
X229820000Y-83060000D03*
%TO.P,J1,21,Pin_21*%
%TO.N,Net-(J1-Pin_21)*%
X227280000Y-85600000D03*
%TO.P,J1,22,Pin_22*%
%TO.N,Net-(J1-Pin_22)*%
X227280000Y-83060000D03*
%TO.P,J1,23,Pin_23*%
%TO.N,Net-(J1-Pin_23)*%
X224740000Y-85600000D03*
%TO.P,J1,24,Pin_24*%
%TO.N,Net-(J1-Pin_24)*%
X224740000Y-83060000D03*
%TO.P,J1,25,Pin_25*%
%TO.N,Net-(J1-Pin_25)*%
X222200000Y-85600000D03*
%TO.P,J1,26,Pin_26*%
%TO.N,Net-(J1-Pin_26)*%
X222200000Y-83060000D03*
%TO.P,J1,27,Pin_27*%
%TO.N,Net-(J1-Pin_27)*%
X219660000Y-85600000D03*
%TO.P,J1,28,Pin_28*%
%TO.N,Net-(J1-Pin_28)*%
X219660000Y-83060000D03*
%TO.P,J1,29,Pin_29*%
%TO.N,Net-(J1-Pin_29)*%
X217120000Y-85600000D03*
%TO.P,J1,30,Pin_30*%
%TO.N,Net-(J1-Pin_30)*%
X217120000Y-83060000D03*
%TO.P,J1,31,Pin_31*%
%TO.N,Net-(J1-Pin_31)*%
X214580000Y-85600000D03*
%TO.P,J1,32,Pin_32*%
%TO.N,Net-(J1-Pin_32)*%
X214580000Y-83060000D03*
%TO.P,J1,33,Pin_33*%
%TO.N,Net-(J1-Pin_33)*%
X212040000Y-85600000D03*
%TO.P,J1,34,Pin_34*%
%TO.N,Net-(J1-Pin_34)*%
X212040000Y-83060000D03*
%TO.P,J1,35,Pin_35*%
%TO.N,Net-(J1-Pin_35)*%
X209500000Y-85600000D03*
%TO.P,J1,36,Pin_36*%
%TO.N,Net-(J1-Pin_36)*%
X209500000Y-83060000D03*
%TO.P,J1,37,Pin_37*%
%TO.N,Net-(J1-Pin_37)*%
X206960000Y-85600000D03*
%TO.P,J1,38,Pin_38*%
%TO.N,Net-(J1-Pin_38)*%
X206960000Y-83060000D03*
%TO.P,J1,39,Pin_39*%
%TO.N,unconnected-(J1-Pin_39-Pad39)*%
X204420000Y-85600000D03*
%TO.P,J1,40,Pin_40*%
%TO.N,unconnected-(J1-Pin_40-Pad40)*%
X204420000Y-83060000D03*
%TD*%
D12*
%TO.P,J10,1,Pin_1*%
%TO.N,Net-(J10-Pin_1)*%
X192480000Y-85600000D03*
D13*
%TO.P,J10,2,Pin_2*%
%TO.N,Net-(J10-Pin_2)*%
X192480000Y-83060000D03*
%TO.P,J10,3,Pin_3*%
%TO.N,Net-(J10-Pin_3)*%
X189940000Y-85600000D03*
%TO.P,J10,4,Pin_4*%
%TO.N,Net-(J10-Pin_4)*%
X189940000Y-83060000D03*
%TO.P,J10,5,Pin_5*%
%TO.N,Net-(J10-Pin_5)*%
X187400000Y-85600000D03*
%TO.P,J10,6,Pin_6*%
%TO.N,Net-(J10-Pin_6)*%
X187400000Y-83060000D03*
%TO.P,J10,7,Pin_7*%
%TO.N,Net-(J10-Pin_7)*%
X184860000Y-85600000D03*
%TO.P,J10,8,Pin_8*%
%TO.N,Net-(J10-Pin_8)*%
X184860000Y-83060000D03*
%TO.P,J10,9,Pin_9*%
%TO.N,Net-(J10-Pin_9)*%
X182320000Y-85600000D03*
%TO.P,J10,10,Pin_10*%
%TO.N,Net-(J10-Pin_10)*%
X182320000Y-83060000D03*
%TO.P,J10,11,Pin_11*%
%TO.N,Net-(J10-Pin_11)*%
X179780000Y-85600000D03*
%TO.P,J10,12,Pin_12*%
%TO.N,Net-(J10-Pin_12)*%
X179780000Y-83060000D03*
%TO.P,J10,13,Pin_13*%
%TO.N,Net-(J10-Pin_13)*%
X177240000Y-85600000D03*
%TO.P,J10,14,Pin_14*%
%TO.N,Net-(J10-Pin_14)*%
X177240000Y-83060000D03*
%TO.P,J10,15,Pin_15*%
%TO.N,Net-(J10-Pin_15)*%
X174700000Y-85600000D03*
%TO.P,J10,16,Pin_16*%
%TO.N,Net-(J10-Pin_16)*%
X174700000Y-83060000D03*
%TO.P,J10,17,Pin_17*%
%TO.N,Net-(J10-Pin_17)*%
X172160000Y-85600000D03*
%TO.P,J10,18,Pin_18*%
%TO.N,Net-(J10-Pin_18)*%
X172160000Y-83060000D03*
%TO.P,J10,19,Pin_19*%
%TO.N,Net-(J10-Pin_19)*%
X169620000Y-85600000D03*
%TO.P,J10,20,Pin_20*%
%TO.N,Net-(J10-Pin_20)*%
X169620000Y-83060000D03*
%TO.P,J10,21,Pin_21*%
%TO.N,Net-(J10-Pin_21)*%
X167080000Y-85600000D03*
%TO.P,J10,22,Pin_22*%
%TO.N,Net-(J10-Pin_22)*%
X167080000Y-83060000D03*
%TO.P,J10,23,Pin_23*%
%TO.N,Net-(J10-Pin_23)*%
X164540000Y-85600000D03*
%TO.P,J10,24,Pin_24*%
%TO.N,Net-(J10-Pin_24)*%
X164540000Y-83060000D03*
%TO.P,J10,25,Pin_25*%
%TO.N,Net-(J10-Pin_25)*%
X162000000Y-85600000D03*
%TO.P,J10,26,Pin_26*%
%TO.N,Net-(J10-Pin_26)*%
X162000000Y-83060000D03*
%TO.P,J10,27,Pin_27*%
%TO.N,Net-(J10-Pin_27)*%
X159460000Y-85600000D03*
%TO.P,J10,28,Pin_28*%
%TO.N,Net-(J10-Pin_28)*%
X159460000Y-83060000D03*
%TO.P,J10,29,Pin_29*%
%TO.N,Net-(J10-Pin_29)*%
X156920000Y-85600000D03*
%TO.P,J10,30,Pin_30*%
%TO.N,Net-(J10-Pin_30)*%
X156920000Y-83060000D03*
%TO.P,J10,31,Pin_31*%
%TO.N,Net-(J10-Pin_31)*%
X154380000Y-85600000D03*
%TO.P,J10,32,Pin_32*%
%TO.N,Net-(J10-Pin_32)*%
X154380000Y-83060000D03*
%TO.P,J10,33,Pin_33*%
%TO.N,Net-(J10-Pin_33)*%
X151840000Y-85600000D03*
%TO.P,J10,34,Pin_34*%
%TO.N,Net-(J10-Pin_34)*%
X151840000Y-83060000D03*
%TO.P,J10,35,Pin_35*%
%TO.N,Net-(J10-Pin_35)*%
X149300000Y-85600000D03*
%TO.P,J10,36,Pin_36*%
%TO.N,Net-(J10-Pin_36)*%
X149300000Y-83060000D03*
%TO.P,J10,37,Pin_37*%
%TO.N,unconnected-(J10-Pin_37-Pad37)*%
X146760000Y-85600000D03*
%TO.P,J10,38,Pin_38*%
%TO.N,unconnected-(J10-Pin_38-Pad38)*%
X146760000Y-83060000D03*
%TO.P,J10,39,Pin_39*%
%TO.N,unconnected-(J10-Pin_39-Pad39)*%
X144220000Y-85600000D03*
%TO.P,J10,40,Pin_40*%
%TO.N,unconnected-(J10-Pin_40-Pad40)*%
X144220000Y-83060000D03*
%TD*%
D10*
%TO.P,J21,1,Pin_1*%
%TO.N,GND*%
X58060000Y-82300000D03*
D11*
%TO.P,J21,2,Pin_2*%
%TO.N,+12V*%
X63140000Y-82300000D03*
%TD*%
D15*
%TO.N,Net-(D116-K)*%
X360755200Y-136341100D03*
X361774100Y-128402800D03*
%TO.N,Net-(D115-K)*%
X361675800Y-140388000D03*
X353125900Y-193606000D03*
%TO.N,Net-(D113-K)*%
X352647900Y-168791000D03*
X350349300Y-175612600D03*
%TO.N,Net-(D112-K)*%
X352385400Y-169616000D03*
X346639700Y-202602700D03*
%TO.N,Net-(D111-K)*%
X335418300Y-199603800D03*
X323473500Y-178611500D03*
%TO.N,Net-(D110-K)*%
X322794900Y-190607100D03*
X318507400Y-169886700D03*
%TO.N,Net-(D109-K)*%
X334482600Y-189725000D03*
X332432100Y-175612600D03*
%TO.N,Net-(D108-K)*%
X339975500Y-207016800D03*
X346592000Y-174550300D03*
%TO.N,Net-(D106-K)*%
X290625300Y-193606000D03*
X290625300Y-203237200D03*
%TO.N,Net-(D105-K)*%
X297426000Y-190607100D03*
X296513600Y-172529600D03*
%TO.N,Net-(D104-K)*%
X285148300Y-202062700D03*
X281186500Y-178611500D03*
%TO.N,Net-(D103-K)*%
X285721800Y-201470500D03*
X287639100Y-178611500D03*
%TO.N,Net-(D102-K)*%
X256995300Y-203576500D03*
X254448600Y-178611500D03*
%TO.N,Net-(D100-K)*%
X233887500Y-199076600D03*
X230758800Y-175612600D03*
%TO.N,Net-(D100-A)*%
X344376900Y-154620300D03*
X344376900Y-181610400D03*
%TO.N,Net-(D96-K)*%
X332169200Y-127035600D03*
X330195100Y-145623600D03*
%TO.N,Net-(D94-K)*%
X318647100Y-156834300D03*
X318552100Y-134247200D03*
%TO.N,Net-(D93-K)*%
X293722600Y-134062800D03*
X287639100Y-154620300D03*
%TO.N,Net-(D91-K)*%
X266735700Y-138456500D03*
X263749500Y-160618100D03*
%TO.N,Net-(D90-K)*%
X257191700Y-132993600D03*
X260799500Y-157583100D03*
%TO.N,Net-(D88-K)*%
X233054800Y-160618100D03*
X228354100Y-132777400D03*
%TO.N,Net-(D87-K)*%
X208457400Y-202076000D03*
X213755700Y-130629100D03*
%TO.N,Net-(D85-K)*%
X204191100Y-148622500D03*
X206055900Y-166615900D03*
%TO.N,Net-(D84-K)*%
X209997900Y-136199400D03*
X210826100Y-148622500D03*
%TO.N,Net-(D83-K)*%
X189094500Y-199603800D03*
X191841300Y-176556200D03*
%TO.N,Net-(D82-K)*%
X187081300Y-200453500D03*
X189288800Y-175806900D03*
%TO.N,Net-(D81-K)*%
X186108300Y-168832100D03*
X187282600Y-130524700D03*
%TO.N,Net-(D79-K)*%
X148386800Y-203757100D03*
X146552000Y-191426500D03*
%TO.N,Net-(D77-K)*%
X114439500Y-178611500D03*
X117840000Y-202602700D03*
%TO.N,Net-(D76-K)*%
X118479400Y-201703000D03*
X117840000Y-175612600D03*
%TO.N,Net-(D74-K)*%
X75267600Y-202602700D03*
X78605100Y-181018700D03*
%TO.N,Net-(D72-K)*%
X57701700Y-205601600D03*
X51442800Y-181610400D03*
%TO.N,Net-(D70-K)*%
X144301500Y-199603800D03*
X140615800Y-178611500D03*
%TO.N,Net-(D68-K)*%
X171177300Y-169614800D03*
X174163500Y-148622500D03*
%TO.N,Net-(D67-K)*%
X152305200Y-137319200D03*
X152323200Y-177456000D03*
%TO.N,Net-(D66-K)*%
X147556400Y-136626900D03*
X140365800Y-163617000D03*
%TO.N,Net-(D65-K)*%
X144301500Y-151154200D03*
X145227900Y-163972200D03*
%TO.N,Net-(D64-K)*%
X124371100Y-175612600D03*
X126384300Y-138270400D03*
%TO.N,Net-(D63-K)*%
X112458300Y-138614500D03*
X107791700Y-163617000D03*
%TO.N,Net-(D62-K)*%
X114412700Y-148362700D03*
X114439500Y-163617000D03*
%TO.N,Net-(D61-K)*%
X86316200Y-166615900D03*
X85383400Y-201763600D03*
%TO.N,Net-(D60-K)*%
X106115100Y-163617000D03*
X111453300Y-135345900D03*
%TO.N,Net-(D59-K)*%
X108008200Y-140122500D03*
X109323300Y-135764400D03*
%TO.N,Net-(D58-K)*%
X86761700Y-139423200D03*
X88100000Y-173592200D03*
%TO.N,Net-(D55-K)*%
X54715500Y-172613700D03*
X51729300Y-163617000D03*
%TO.N,Net-(D54-K)*%
X63440500Y-138760100D03*
X58278000Y-163617000D03*
%TO.N,Net-(J1-Pin_2)*%
X240057700Y-108264400D03*
%TO.N,Net-(J1-Pin_1)*%
X78605100Y-109636800D03*
X249940900Y-112717400D03*
%TO.N,Net-(J1-Pin_3)*%
X236944500Y-112717400D03*
%TO.N,Net-(J11-Pin_3)*%
X80688100Y-111281500D03*
X245832300Y-114472500D03*
%TO.N,Net-(J11-Pin_2)*%
X95962800Y-131985600D03*
X240756100Y-138307500D03*
%TO.N,Net-(J11-Pin_1)*%
X96522300Y-133628000D03*
%TO.N,Net-(J10-Pin_33)*%
X152215400Y-112898100D03*
X228974500Y-114522500D03*
X230311300Y-115368300D03*
X263749500Y-114802200D03*
%TO.N,Net-(J10-Pin_17)*%
X244189200Y-88224400D03*
X242757700Y-100391100D03*
%TO.N,Net-(J10-Pin_36)*%
X341390700Y-85645600D03*
%TO.N,Net-(J10-Pin_13)*%
X178089700Y-109459600D03*
%TO.N,Net-(J10-Pin_22)*%
X194130000Y-80495500D03*
X195063100Y-144660800D03*
X176929800Y-80820800D03*
%TO.N,Net-(J10-Pin_30)*%
X161062300Y-138469700D03*
%TO.N,Net-(J10-Pin_16)*%
X316596400Y-80566000D03*
%TO.N,Net-(J10-Pin_19)*%
X174143100Y-109408700D03*
%TO.N,Net-(J10-Pin_27)*%
X163349000Y-145903500D03*
%TO.N,Net-(J10-Pin_5)*%
X171375200Y-149181300D03*
%TO.N,Net-(J10-Pin_31)*%
X263749500Y-183773800D03*
X162300900Y-177740600D03*
%TO.N,Net-(J10-Pin_12)*%
X194414600Y-103144200D03*
%TO.N,Net-(J10-Pin_1)*%
X174628200Y-185521000D03*
%TO.N,Net-(J10-Pin_4)*%
X176647600Y-149472200D03*
%TO.N,Net-(J10-Pin_29)*%
X161746600Y-140807200D03*
%TO.N,Net-(J10-Pin_24)*%
X176226400Y-138701500D03*
X240080100Y-138853100D03*
%TO.N,Net-(J10-Pin_32)*%
X158225400Y-187711300D03*
%TO.N,Net-(J10-Pin_2)*%
X171177300Y-188457900D03*
%TO.N,Net-(J10-Pin_3)*%
X171789000Y-186639700D03*
%TO.N,Net-(J10-Pin_25)*%
X168191100Y-144422900D03*
%TO.N,Net-(J10-Pin_34)*%
X159720900Y-183429900D03*
%TO.N,Net-(J10-Pin_18)*%
X176882100Y-110689700D03*
%TO.N,Net-(J10-Pin_11)*%
X221054800Y-104969200D03*
X222274900Y-89471800D03*
X180479400Y-89220500D03*
%TO.N,Net-(J10-Pin_28)*%
X165084100Y-142202100D03*
%TO.N,Net-(J10-Pin_7)*%
X183122100Y-163617000D03*
X164191000Y-163617000D03*
X189687900Y-87381800D03*
%TO.N,Net-(J10-Pin_20)*%
X180982500Y-112015600D03*
%TO.N,Net-(J10-Pin_15)*%
X176342800Y-109131900D03*
%TO.N,Net-(J10-Pin_26)*%
X167914500Y-142967900D03*
%TO.N,Net-(J10-Pin_35)*%
X149575400Y-139625800D03*
X338470500Y-141597800D03*
%TO.N,Net-(J10-Pin_21)*%
X168899400Y-138745900D03*
X275561000Y-139331900D03*
%TO.N,Net-(J10-Pin_10)*%
X182991400Y-94482100D03*
X219946100Y-104999800D03*
X217986100Y-93316100D03*
%TO.N,Net-(J10-Pin_14)*%
X307909700Y-80907600D03*
%TO.N,Net-(J10-Pin_23)*%
X226094400Y-144015100D03*
X169392000Y-144019200D03*
%TO.N,Net-(J1-Pin_38)*%
X195066900Y-188028000D03*
%TO.N,Net-(J1-Pin_15)*%
X239800700Y-101056700D03*
%TO.N,Net-(J1-Pin_36)*%
X96522300Y-180760700D03*
X198003300Y-179025800D03*
%TO.N,Net-(J1-Pin_9)*%
X242571000Y-97493000D03*
%TO.N,Net-(J1-Pin_13)*%
X240053300Y-98409000D03*
%TO.N,Net-(J1-Pin_11)*%
X221079500Y-87462300D03*
%TO.N,Net-(J1-Pin_29)*%
X66660300Y-133153100D03*
X207766700Y-136708200D03*
%TO.N,Net-(J1-Pin_34)*%
X198899700Y-182193300D03*
%TO.N,Net-(J1-Pin_17)*%
X237897500Y-100016400D03*
%TO.N,Net-(J1-Pin_22)*%
X206793200Y-181853100D03*
X228851200Y-81616000D03*
%TO.N,Net-(J1-Pin_8)*%
X180922900Y-81971200D03*
X180034400Y-103370500D03*
X179492600Y-94142700D03*
X181678000Y-93180200D03*
%TO.N,Net-(J1-Pin_21)*%
X226316000Y-151621400D03*
%TO.N,Net-(J1-Pin_12)*%
X236394800Y-96822200D03*
%TO.N,Net-(J1-Pin_31)*%
X123687200Y-85356500D03*
%TO.N,Net-(J1-Pin_16)*%
X233679600Y-92634500D03*
%TO.N,Net-(J1-Pin_14)*%
X284652900Y-83069100D03*
%TO.N,Net-(J1-Pin_33)*%
X211229700Y-88576800D03*
X147287700Y-87369900D03*
%TO.N,Net-(J1-Pin_27)*%
X243904300Y-185237900D03*
X228340800Y-87078300D03*
%TO.N,Net-(J1-Pin_26)*%
X287639100Y-80973200D03*
%TO.N,Net-(J1-Pin_19)*%
X235561700Y-148861300D03*
%TO.N,Net-(J1-Pin_18)*%
X335380600Y-82684500D03*
%TO.N,Net-(J1-Pin_6)*%
X126384300Y-113418400D03*
X237302000Y-114722600D03*
%TO.N,Net-(J1-Pin_24)*%
X245832300Y-182178600D03*
%TO.N,Net-(J1-Pin_7)*%
X186770200Y-88002700D03*
X184927900Y-96617700D03*
%TO.N,Net-(J1-Pin_32)*%
X202663500Y-151621400D03*
%TO.N,Net-(J1-Pin_37)*%
X201791200Y-187317200D03*
%TO.N,Net-(J1-Pin_10)*%
X238968700Y-98267600D03*
%TO.N,Net-(J1-Pin_28)*%
X212535000Y-107981900D03*
X178998200Y-108785700D03*
X69646500Y-130409900D03*
X179239400Y-128422600D03*
%TO.N,GND*%
X97368900Y-94642300D03*
X62360000Y-172613700D03*
X317501100Y-202313600D03*
X90549900Y-202602700D03*
X270468000Y-117856200D03*
X126384300Y-201913600D03*
X240536800Y-118850400D03*
X160107600Y-172267900D03*
X129690000Y-175612600D03*
X199485900Y-172613700D03*
X159232500Y-201592100D03*
X92360000Y-172613700D03*
X338404500Y-121056000D03*
X215970300Y-169614800D03*
X338923000Y-123019500D03*
X218956500Y-205601600D03*
X335418300Y-169428300D03*
X159232500Y-127384700D03*
X335890000Y-128140400D03*
X340551500Y-96825900D03*
X97368900Y-115087200D03*
X299583900Y-130629100D03*
%TO.N,Net-(J1-Pin_30)*%
X197629200Y-82973600D03*
X194781000Y-154620300D03*
%TO.N,Net-(J1-Pin_35)*%
X197941400Y-182154600D03*
%TO.N,Net-(D52-K)*%
X352384200Y-157271900D03*
X350349300Y-130629100D03*
%TO.N,Net-(D51-K)*%
X349993100Y-115278500D03*
X356321700Y-127630200D03*
%TO.N,Net-(D49-K)*%
X358562100Y-100640100D03*
X355001400Y-125880500D03*
%TO.N,Net-(D44-K)*%
X327874600Y-97805300D03*
X326607000Y-87965200D03*
%TO.N,Net-(D42-K)*%
X329445900Y-121632400D03*
X333193200Y-111847700D03*
%TO.N,Net-(D39-K)*%
X305556300Y-97641200D03*
X300169100Y-112635700D03*
%TO.N,Net-(D35-K)*%
X269721900Y-91643400D03*
X273816000Y-120664600D03*
%TO.N,Net-(D34-K)*%
X274950100Y-118878300D03*
X275694300Y-94650200D03*
%TO.N,Net-(D32-K)*%
X261896700Y-102879700D03*
X267095000Y-88644500D03*
%TO.N,Net-(D30-K)*%
X236008800Y-107441000D03*
X236898200Y-116873200D03*
%TO.N,Net-(D29-K)*%
X232335800Y-95467800D03*
X236873700Y-106637900D03*
%TO.N,Net-(D28-K)*%
X191809600Y-106874900D03*
X193138700Y-116200800D03*
%TO.N,Net-(D27-K)*%
X205002500Y-106526000D03*
X205687700Y-118633500D03*
%TO.N,Net-(D26-K)*%
X227915100Y-118633500D03*
X226268500Y-92940500D03*
%TO.N,Net-(D25-K)*%
X206056700Y-127839800D03*
X205131500Y-98165300D03*
%TO.N,Net-(D24-K)*%
X188646200Y-118633500D03*
X190740600Y-101729500D03*
%TO.N,Net-(D23-K)*%
X193028300Y-120732700D03*
X191997100Y-96529500D03*
%TO.N,Net-(D22-K)*%
X179553500Y-106909600D03*
X180135900Y-127839800D03*
%TO.N,Net-(D21-K)*%
X180724800Y-95616400D03*
X179437500Y-89228600D03*
%TO.N,Net-(D20-K)*%
X172180100Y-93331900D03*
X171177300Y-118633500D03*
%TO.N,Net-(D17-K)*%
X153745000Y-90941100D03*
X156031300Y-118633500D03*
%TO.N,Net-(D16-K)*%
X132236500Y-118884600D03*
X135342900Y-87794800D03*
%TO.N,Net-(D13-K)*%
X129370500Y-118884600D03*
X129489100Y-105679200D03*
%TO.N,Net-(D12-K)*%
X138329100Y-91643400D03*
X135342900Y-112808300D03*
%TO.N,Net-(D11-K)*%
X121438000Y-102644200D03*
X129370500Y-88644500D03*
%TO.N,Net-(D10-K)*%
X122757200Y-91041800D03*
X122937600Y-100173300D03*
%TO.N,Net-(D8-K)*%
X72632700Y-87815600D03*
X66660300Y-118781100D03*
%TO.N,Net-(D4-K)*%
X75618900Y-118633500D03*
X74772400Y-97641200D03*
%TO.N,+12V*%
X81591300Y-175612600D03*
X78729700Y-163617000D03*
X81622800Y-202602700D03*
X59962300Y-89515000D03*
X99508500Y-120385200D03*
X363047200Y-150857400D03*
X359781600Y-121220500D03*
X260714500Y-106894000D03*
X263749500Y-130629100D03*
X189094500Y-128386100D03*
X186965000Y-106637900D03*
X329389200Y-201798000D03*
X330292500Y-178611500D03*
X101418300Y-134477700D03*
X362294100Y-88644500D03*
X358884700Y-98070800D03*
X85029900Y-134477700D03*
X265889200Y-156769500D03*
X188795300Y-146461500D03*
%TD*%
D16*
%TO.N,Net-(D116-K)*%
X361774100Y-135322200D02*
X360755200Y-136341100D01*
X361774100Y-128402800D02*
X361774100Y-135322200D01*
%TO.N,Net-(D115-K)*%
X361675800Y-185056100D02*
X361675800Y-140388000D01*
X353125900Y-193606000D02*
X361675800Y-185056100D01*
%TO.N,Net-(D113-K)*%
X353125900Y-172836000D02*
X350349300Y-175612600D01*
X353125900Y-169269000D02*
X353125900Y-172836000D01*
X352647900Y-168791000D02*
X353125900Y-169269000D01*
%TO.N,Net-(D112-K)*%
X352385400Y-169749200D02*
X352385400Y-169616000D01*
X346639700Y-175494900D02*
X352385400Y-169749200D01*
X346639700Y-202602700D02*
X346639700Y-175494900D01*
%TO.N,Net-(D111-K)*%
X324183100Y-177901900D02*
X323473500Y-178611500D01*
X330632400Y-177901900D02*
X324183100Y-177901900D01*
X333571500Y-180841000D02*
X330632400Y-177901900D01*
X333571500Y-197757000D02*
X333571500Y-180841000D01*
X335418300Y-199603800D02*
X333571500Y-197757000D01*
%TO.N,Net-(D110-K)*%
X318507400Y-179045300D02*
X318507400Y-169886700D01*
X322794900Y-183332800D02*
X318507400Y-179045300D01*
X322794900Y-190607100D02*
X322794900Y-183332800D01*
%TO.N,Net-(D109-K)*%
X334482600Y-177663100D02*
X332432100Y-175612600D01*
X334482600Y-189725000D02*
X334482600Y-177663100D01*
%TO.N,Net-(D108-K)*%
X345190000Y-201802300D02*
X339975500Y-207016800D01*
X345190000Y-175952300D02*
X345190000Y-201802300D01*
X346592000Y-174550300D02*
X345190000Y-175952300D01*
%TO.N,Net-(D106-K)*%
X290625300Y-193606000D02*
X290625300Y-203237200D01*
%TO.N,Net-(D105-K)*%
X297426000Y-173442000D02*
X296513600Y-172529600D01*
X297426000Y-190607100D02*
X297426000Y-173442000D01*
%TO.N,Net-(D104-K)*%
X281186500Y-198100900D02*
X281186500Y-178611500D01*
X285148300Y-202062700D02*
X281186500Y-198100900D01*
%TO.N,Net-(D103-K)*%
X285721800Y-180528800D02*
X287639100Y-178611500D01*
X285721800Y-201470500D02*
X285721800Y-180528800D01*
%TO.N,Net-(D102-K)*%
X256995300Y-181158200D02*
X254448600Y-178611500D01*
X256995300Y-203576500D02*
X256995300Y-181158200D01*
%TO.N,Net-(D100-K)*%
X233887500Y-178741300D02*
X230758800Y-175612600D01*
X233887500Y-199076600D02*
X233887500Y-178741300D01*
%TO.N,Net-(D100-A)*%
X344376900Y-154620300D02*
X344376900Y-181610400D01*
%TO.N,Net-(D96-K)*%
X330195100Y-129009700D02*
X330195100Y-145623600D01*
X332169200Y-127035600D02*
X330195100Y-129009700D01*
%TO.N,Net-(D94-K)*%
X318647100Y-134342200D02*
X318552100Y-134247200D01*
X318647100Y-156834300D02*
X318647100Y-134342200D01*
%TO.N,Net-(D93-K)*%
X287639100Y-140146300D02*
X287639100Y-154620300D01*
X293722600Y-134062800D02*
X287639100Y-140146300D01*
%TO.N,Net-(D91-K)*%
X266735700Y-157631900D02*
X263749500Y-160618100D01*
X266735700Y-138456500D02*
X266735700Y-157631900D01*
%TO.N,Net-(D90-K)*%
X260799500Y-136601400D02*
X260799500Y-157583100D01*
X257191700Y-132993600D02*
X260799500Y-136601400D01*
%TO.N,Net-(D88-K)*%
X233054800Y-160618100D02*
X232954700Y-160618100D01*
X233054800Y-137478100D02*
X228354100Y-132777400D01*
X233054800Y-137478100D02*
X233054800Y-160618100D01*
X232954700Y-160618100D02*
X233054800Y-160618100D01*
%TO.N,Net-(D87-K)*%
X213755700Y-196777700D02*
X213755700Y-130629100D01*
X208457400Y-202076000D02*
X213755700Y-196777700D01*
%TO.N,Net-(D85-K)*%
X204191100Y-164751100D02*
X206055900Y-166615900D01*
X204191100Y-148622500D02*
X204191100Y-164751100D01*
%TO.N,Net-(D84-K)*%
X210826100Y-137455100D02*
X210826100Y-148622500D01*
X209997900Y-136626900D02*
X210826100Y-137455100D01*
X209997900Y-136626900D02*
X209997900Y-136199400D01*
%TO.N,Net-(D83-K)*%
X191841300Y-196857000D02*
X189094500Y-199603800D01*
X191841300Y-176556200D02*
X191841300Y-196857000D01*
%TO.N,Net-(D82-K)*%
X187081300Y-178014400D02*
X189288800Y-175806900D01*
X187081300Y-200453500D02*
X187081300Y-178014400D01*
%TO.N,Net-(D81-K)*%
X187282600Y-167657800D02*
X187282600Y-130524700D01*
X186108300Y-168832100D02*
X187282600Y-167657800D01*
%TO.N,Net-(D79-K)*%
X148386700Y-203757100D02*
X148386800Y-203757100D01*
X148386700Y-193261200D02*
X148386700Y-203757100D01*
X146552000Y-191426500D02*
X148386700Y-193261200D01*
%TO.N,Net-(D77-K)*%
X114439500Y-199202200D02*
X117840000Y-202602700D01*
X114439500Y-178611500D02*
X114439500Y-199202200D01*
%TO.N,Net-(D76-K)*%
X118479400Y-176252000D02*
X117840000Y-175612600D01*
X118479400Y-201703000D02*
X118479400Y-176252000D01*
%TO.N,Net-(D74-K)*%
X78605100Y-199265200D02*
X75267600Y-202602700D01*
X78605100Y-181018700D02*
X78605100Y-199265200D01*
%TO.N,Net-(D72-K)*%
X57701700Y-187869300D02*
X51442800Y-181610400D01*
X57701700Y-205601600D02*
X57701700Y-187869300D01*
%TO.N,Net-(D70-K)*%
X144301500Y-182297200D02*
X140615800Y-178611500D01*
X144301500Y-199603800D02*
X144301500Y-182297200D01*
%TO.N,Net-(D68-K)*%
X174163500Y-166628600D02*
X171177300Y-169614800D01*
X174163500Y-148622500D02*
X174163500Y-166628600D01*
%TO.N,Net-(D67-K)*%
X152305200Y-177438000D02*
X152323200Y-177456000D01*
X152305200Y-137319200D02*
X152305200Y-177438000D01*
%TO.N,Net-(D66-K)*%
X140365800Y-152729800D02*
X140365800Y-163617000D01*
X147556400Y-145539200D02*
X140365800Y-152729800D01*
X147556400Y-136626900D02*
X147556400Y-145539200D01*
%TO.N,Net-(D65-K)*%
X144301500Y-163045800D02*
X145227900Y-163972200D01*
X144301500Y-151154200D02*
X144301500Y-163045800D01*
%TO.N,Net-(D64-K)*%
X124371100Y-140283600D02*
X126384300Y-138270400D01*
X124371100Y-175612600D02*
X124371100Y-140283600D01*
%TO.N,Net-(D63-K)*%
X112458300Y-158950400D02*
X107791700Y-163617000D01*
X112458300Y-138614500D02*
X112458300Y-158950400D01*
%TO.N,Net-(D62-K)*%
X114412700Y-163590200D02*
X114439500Y-163617000D01*
X114412700Y-148362700D02*
X114412700Y-163590200D01*
%TO.N,Net-(D61-K)*%
X85383400Y-167548700D02*
X85383400Y-201763600D01*
X86316200Y-166615900D02*
X85383400Y-167548700D01*
%TO.N,Net-(D60-K)*%
X111453300Y-158278800D02*
X106115100Y-163617000D01*
X111453300Y-135345900D02*
X111453300Y-158278800D01*
%TO.N,Net-(D59-K)*%
X108008200Y-137079500D02*
X109323300Y-135764400D01*
X108008200Y-140122500D02*
X108008200Y-137079500D01*
%TO.N,Net-(D58-K)*%
X88100000Y-140761500D02*
X86761700Y-139423200D01*
X88100000Y-173592200D02*
X88100000Y-140761500D01*
%TO.N,Net-(D55-K)*%
X51729300Y-169627500D02*
X51729300Y-163617000D01*
X54715500Y-172613700D02*
X51729300Y-169627500D01*
%TO.N,Net-(D54-K)*%
X58278000Y-143922600D02*
X58278000Y-163617000D01*
X63440500Y-138760100D02*
X58278000Y-143922600D01*
%TO.N,Net-(J1-Pin_2)*%
X251410100Y-84329900D02*
X252680000Y-83060000D01*
X251410100Y-95462300D02*
X251410100Y-84329900D01*
X240057700Y-106814700D02*
X251410100Y-95462300D01*
X240057700Y-108264400D02*
X240057700Y-106814700D01*
%TO.N,Net-(J1-Pin_1)*%
X77750000Y-98650000D02*
X77750000Y-99801700D01*
X78968700Y-109273200D02*
X78605100Y-109636800D01*
X78968700Y-100300600D02*
X78968700Y-109273200D01*
X78469800Y-99801700D02*
X78968700Y-100300600D01*
X77750000Y-99801700D02*
X78469800Y-99801700D01*
X252680000Y-85600000D02*
X252680000Y-86851700D01*
X252680000Y-96797600D02*
X252680000Y-86851700D01*
X250910100Y-98567500D02*
X252680000Y-96797600D01*
X250910100Y-111748200D02*
X250910100Y-98567500D01*
X249940900Y-112717400D02*
X250910100Y-111748200D01*
X249940900Y-112717400D02*
X249940900Y-112717300D01*
X249940900Y-112717300D02*
X249940900Y-112717400D01*
X78605100Y-109636800D02*
X79291000Y-110322700D01*
X79291000Y-110322700D02*
X78605100Y-109636800D01*
%TO.N,Net-(J1-Pin_3)*%
X236944500Y-108849300D02*
X236944500Y-112661400D01*
X250140000Y-95653800D02*
X236944500Y-108849300D01*
X250140000Y-85600000D02*
X250140000Y-95653800D01*
X236944500Y-112661400D02*
X236944500Y-112717400D01*
%TO.N,Net-(J11-Pin_3)*%
X73200000Y-82300000D02*
X73200000Y-84201700D01*
X249380000Y-118020200D02*
X245832300Y-114472500D01*
X249380000Y-145600000D02*
X249380000Y-118020200D01*
X80688100Y-91689800D02*
X80688100Y-111281500D01*
X73200000Y-84201700D02*
X80688100Y-91689800D01*
%TO.N,Net-(J11-Pin_2)*%
X82163700Y-118186500D02*
X95962800Y-131985600D01*
X82163700Y-86183600D02*
X82163700Y-118186500D01*
X82163600Y-86183600D02*
X82163700Y-86183600D01*
X78280000Y-82300000D02*
X82163600Y-86183600D01*
X246840000Y-144391400D02*
X240756100Y-138307500D01*
X246840000Y-145600000D02*
X246840000Y-144391400D01*
X240756100Y-138307500D02*
X240594200Y-138145600D01*
X240594200Y-138145600D02*
X240756100Y-138307500D01*
%TO.N,Net-(J11-Pin_1)*%
X96664500Y-95604500D02*
X83360000Y-82300000D01*
X96664500Y-133485800D02*
X96664500Y-95604500D01*
X96522300Y-133628000D02*
X96664500Y-133485800D01*
X96522300Y-133628000D02*
X96723400Y-133628000D01*
X96723400Y-133628000D02*
X96522300Y-133628000D01*
%TO.N,Net-(J10-Pin_33)*%
X152215400Y-85975400D02*
X151840000Y-85600000D01*
X152215400Y-112898100D02*
X152215400Y-85975400D01*
X271719500Y-185539500D02*
X275380000Y-189200000D01*
X271719500Y-122772200D02*
X271719500Y-185539500D01*
X263749500Y-114802200D02*
X271719500Y-122772200D01*
X229465500Y-114522500D02*
X230311300Y-115368300D01*
X228974500Y-114522500D02*
X229465500Y-114522500D01*
X263749500Y-114802200D02*
X263127400Y-115424300D01*
X263127400Y-115424300D02*
X263749500Y-114802200D01*
X230311300Y-115368300D02*
X230367300Y-115424300D01*
X230367300Y-115424300D02*
X230311300Y-115368300D01*
X152215400Y-112898100D02*
X152275300Y-112958000D01*
X152275300Y-112958000D02*
X152215400Y-112898100D01*
%TO.N,Net-(J10-Pin_17)*%
X244189100Y-88224400D02*
X244189200Y-88224400D01*
X244189100Y-98959700D02*
X244189100Y-88224400D01*
X242757700Y-100391100D02*
X244189100Y-98959700D01*
%TO.N,Net-(J10-Pin_8)*%
X193516900Y-107849000D02*
X193766000Y-108098100D01*
X193516900Y-107849000D02*
X193766000Y-108098100D01*
X194442100Y-108774200D02*
X193766000Y-108098100D01*
X194442100Y-116850100D02*
X194442100Y-108774200D01*
X193840400Y-117451800D02*
X194442100Y-116850100D01*
X193840400Y-167301100D02*
X193840400Y-117451800D01*
X170589800Y-190551700D02*
X193840400Y-167301100D01*
X167021700Y-190551700D02*
X170589800Y-190551700D01*
X165770000Y-189300000D02*
X167021700Y-190551700D01*
X193516900Y-103049700D02*
X193516900Y-107849000D01*
X193766000Y-102800600D02*
X193516900Y-103049700D01*
X193766000Y-82529900D02*
X193766000Y-102800600D01*
X193044100Y-81808000D02*
X193766000Y-82529900D01*
X186112000Y-81808000D02*
X193044100Y-81808000D01*
X184860000Y-83060000D02*
X186112000Y-81808000D01*
%TO.N,Net-(J10-Pin_36)*%
X342240000Y-187930000D02*
X343510000Y-189200000D01*
X342240000Y-86494900D02*
X342240000Y-187930000D01*
X341390700Y-85645600D02*
X342240000Y-86494900D01*
%TO.N,Net-(J10-Pin_9)*%
X182406800Y-85686800D02*
X182320000Y-85600000D01*
X182406800Y-93806500D02*
X182406800Y-85686800D01*
X182289700Y-93923600D02*
X182406800Y-93806500D01*
X182289700Y-133780000D02*
X182289700Y-93923600D01*
X167411900Y-148657800D02*
X182289700Y-133780000D01*
X167411900Y-188401900D02*
X167411900Y-148657800D01*
X168310000Y-189300000D02*
X167411900Y-188401900D01*
%TO.N,Net-(J10-Pin_13)*%
X177240000Y-108609900D02*
X178089700Y-109459600D01*
X177240000Y-85600000D02*
X177240000Y-108609900D01*
%TO.N,Net-(J10-Pin_22)*%
X195116300Y-81481800D02*
X194130000Y-80495500D01*
X195116300Y-144607600D02*
X195116300Y-81481800D01*
X195063100Y-144660800D02*
X195116300Y-144607600D01*
X169319200Y-80820800D02*
X176929800Y-80820800D01*
X167080000Y-83060000D02*
X169319200Y-80820800D01*
X176929800Y-80820800D02*
X177255100Y-80495500D01*
X177255100Y-80495500D02*
X176929800Y-80820800D01*
X194130000Y-80495500D02*
X195116300Y-80495500D01*
X195116300Y-80495500D02*
X194130000Y-80495500D01*
%TO.N,Net-(J10-Pin_30)*%
X160679300Y-138086700D02*
X161062300Y-138469700D01*
X160679300Y-101035900D02*
X160679300Y-138086700D01*
X155650000Y-96006600D02*
X160679300Y-101035900D01*
X155650000Y-84330000D02*
X155650000Y-96006600D01*
X156920000Y-83060000D02*
X155650000Y-84330000D01*
%TO.N,Net-(J10-Pin_16)*%
X316596400Y-102803600D02*
X314100000Y-105300000D01*
X316596400Y-80566000D02*
X316596400Y-102803600D01*
%TO.N,Net-(J10-Pin_19)*%
X174199500Y-109408700D02*
X176079400Y-111288600D01*
X176079400Y-111288600D02*
X174199500Y-109408700D01*
X174199500Y-109408700D02*
X174143100Y-109408700D01*
X174143100Y-109408700D02*
X174108300Y-109443500D01*
X174108300Y-109443500D02*
X174143100Y-109408700D01*
X174199500Y-108157900D02*
X174199500Y-109408700D01*
X175064700Y-107292700D02*
X174199500Y-108157900D01*
X175064700Y-91044700D02*
X175064700Y-107292700D01*
X169620000Y-85600000D02*
X175064700Y-91044700D01*
%TO.N,Net-(J10-Pin_27)*%
X162484400Y-145038900D02*
X163349000Y-145903500D01*
X162484400Y-123713300D02*
X162484400Y-145038900D01*
X162235300Y-123464200D02*
X162484400Y-123713300D01*
X162235300Y-123464200D02*
X162484400Y-123713300D01*
X161882700Y-123111600D02*
X162235300Y-123464200D01*
X161882700Y-99737900D02*
X161882700Y-123111600D01*
X159460000Y-97315200D02*
X161882700Y-99737900D01*
X159460000Y-85600000D02*
X159460000Y-97315200D01*
%TO.N,Net-(J10-Pin_5)*%
X187541400Y-85741400D02*
X187400000Y-85600000D01*
X187541400Y-94857000D02*
X187541400Y-85741400D01*
X187466000Y-94932400D02*
X187541400Y-94857000D01*
X187466000Y-100454900D02*
X187466000Y-94932400D01*
X183739900Y-104181000D02*
X187466000Y-100454900D01*
X183739900Y-136816600D02*
X183739900Y-104181000D01*
X171375200Y-149181300D02*
X183739900Y-136816600D01*
%TO.N,Net-(J10-Pin_31)*%
X264873800Y-183773800D02*
X263749500Y-183773800D01*
X270300000Y-189200000D02*
X264873800Y-183773800D01*
X160850900Y-139784700D02*
X160890200Y-139824000D01*
X160850900Y-139784700D02*
X160890200Y-139824000D01*
X162329900Y-177711600D02*
X162300900Y-177740600D01*
X162329900Y-147565200D02*
X162329900Y-177711600D01*
X160890200Y-146125500D02*
X162329900Y-147565200D01*
X160890200Y-139824000D02*
X160890200Y-146125500D01*
X160077600Y-139011400D02*
X160850900Y-139784700D01*
X160077600Y-101285100D02*
X160077600Y-139011400D01*
X154446700Y-95654200D02*
X160077600Y-101285100D01*
X154446700Y-85666700D02*
X154446700Y-95654200D01*
X154380000Y-85600000D02*
X154446700Y-85666700D01*
%TO.N,Net-(J10-Pin_12)*%
X194414600Y-82303200D02*
X194414600Y-103144200D01*
X193307100Y-81195700D02*
X194414600Y-82303200D01*
X180637500Y-81195700D02*
X193307100Y-81195700D01*
X179780000Y-82053200D02*
X180637500Y-81195700D01*
X179780000Y-83060000D02*
X179780000Y-82053200D01*
%TO.N,Net-(J10-Pin_1)*%
X192480000Y-85600000D02*
X192480000Y-86851700D01*
X192480000Y-87465300D02*
X192480000Y-86851700D01*
X191295300Y-88650000D02*
X192480000Y-87465300D01*
X191295300Y-101291900D02*
X191295300Y-88650000D01*
X191442300Y-101438900D02*
X191295300Y-101291900D01*
X191442300Y-102020100D02*
X191442300Y-101438900D01*
X191107900Y-102354500D02*
X191442300Y-102020100D01*
X191107900Y-169041300D02*
X191107900Y-102354500D01*
X174628200Y-185521000D02*
X191107900Y-169041300D01*
%TO.N,Net-(J10-Pin_4)*%
X184341600Y-141778200D02*
X176647600Y-149472200D01*
X184341600Y-104430100D02*
X184341600Y-141778200D01*
X188286800Y-100484900D02*
X184341600Y-104430100D01*
X188286800Y-99361200D02*
X188286800Y-100484900D01*
X188670000Y-98978000D02*
X188286800Y-99361200D01*
X188670000Y-84330000D02*
X188670000Y-98978000D01*
X189940000Y-83060000D02*
X188670000Y-84330000D01*
%TO.N,Net-(J10-Pin_29)*%
X161882700Y-140671100D02*
X161746600Y-140807200D01*
X161882700Y-123962400D02*
X161882700Y-140671100D01*
X161633600Y-123713300D02*
X161882700Y-123962400D01*
X161633600Y-123713300D02*
X161882700Y-123962400D01*
X161281000Y-123360700D02*
X161633600Y-123713300D01*
X161281000Y-100662300D02*
X161281000Y-123360700D01*
X156920000Y-96301300D02*
X161281000Y-100662300D01*
X156920000Y-85600000D02*
X156920000Y-96301300D01*
%TO.N,Net-(J10-Pin_24)*%
X174853900Y-125027200D02*
X174853900Y-137329000D01*
X168350000Y-118523300D02*
X174853900Y-125027200D01*
X168350000Y-85096900D02*
X168350000Y-118523300D01*
X167583100Y-84330000D02*
X168350000Y-85096900D01*
X165810000Y-84330000D02*
X167583100Y-84330000D01*
X164540000Y-83060000D02*
X165810000Y-84330000D01*
X240080100Y-174847900D02*
X240080100Y-138853100D01*
X246580000Y-181347800D02*
X240080100Y-174847900D01*
X246580000Y-189100000D02*
X246580000Y-181347800D01*
X174853900Y-137329000D02*
X176226400Y-138701500D01*
X176226400Y-138701500D02*
X174853900Y-138701500D01*
X174853900Y-138701500D02*
X176226400Y-138701500D01*
%TO.N,Net-(J10-Pin_32)*%
X153122600Y-81802600D02*
X154380000Y-83060000D01*
X151323100Y-81802600D02*
X153122600Y-81802600D01*
X150570000Y-82555700D02*
X151323100Y-81802600D01*
X150570000Y-180055900D02*
X150570000Y-82555700D01*
X158225400Y-187711300D02*
X150570000Y-180055900D01*
%TO.N,Net-(J10-Pin_2)*%
X172490700Y-187144500D02*
X171177300Y-188457900D01*
X172490700Y-186575400D02*
X172490700Y-187144500D01*
X185377400Y-173688700D02*
X172490700Y-186575400D01*
X185377400Y-150723200D02*
X185377400Y-173688700D01*
X186216400Y-149884200D02*
X185377400Y-150723200D01*
X186216400Y-105261500D02*
X186216400Y-149884200D01*
X190693600Y-100784300D02*
X186216400Y-105261500D01*
X190693600Y-88400900D02*
X190693600Y-100784300D01*
X191193300Y-87901200D02*
X190693600Y-88400900D01*
X191193300Y-84346700D02*
X191193300Y-87901200D01*
X192480000Y-83060000D02*
X191193300Y-84346700D01*
%TO.N,Net-(J10-Pin_3)*%
X190591600Y-86251600D02*
X189940000Y-85600000D01*
X190591600Y-87652100D02*
X190591600Y-86251600D01*
X190091900Y-88151800D02*
X190591600Y-87652100D01*
X190091900Y-100381400D02*
X190091900Y-88151800D01*
X185545000Y-104928300D02*
X190091900Y-100381400D01*
X185545000Y-144734100D02*
X185545000Y-104928300D01*
X184504200Y-145774900D02*
X185545000Y-144734100D01*
X184504200Y-164024500D02*
X184504200Y-145774900D01*
X171789000Y-176739700D02*
X184504200Y-164024500D01*
X171789000Y-186639700D02*
X171789000Y-176739700D01*
%TO.N,Net-(J10-Pin_25)*%
X162249100Y-95988200D02*
X162001500Y-95740600D01*
X162249100Y-95988200D02*
X162001500Y-95740600D01*
X162001500Y-85601500D02*
X162000000Y-85600000D01*
X162001500Y-95740600D02*
X162001500Y-85601500D01*
X168191100Y-144316800D02*
X168191100Y-144422900D01*
X163687800Y-139813500D02*
X168191100Y-144316800D01*
X163687800Y-123215000D02*
X163687800Y-139813500D01*
X163086100Y-122613300D02*
X163687800Y-123215000D01*
X163086100Y-96825200D02*
X163086100Y-122613300D01*
X162249100Y-95988200D02*
X163086100Y-96825200D01*
%TO.N,Net-(J10-Pin_34)*%
X153110000Y-84330000D02*
X151840000Y-83060000D01*
X153110000Y-90583900D02*
X153110000Y-84330000D01*
X153043300Y-90650600D02*
X153110000Y-90583900D01*
X153043300Y-176752300D02*
X153043300Y-90650600D01*
X159720900Y-183429900D02*
X153043300Y-176752300D01*
%TO.N,Net-(J10-Pin_18)*%
X175591300Y-109398900D02*
X176882100Y-110689700D01*
X175591300Y-108348700D02*
X175591300Y-109398900D01*
X175666400Y-108273600D02*
X175591300Y-108348700D01*
X175666400Y-89086600D02*
X175666400Y-108273600D01*
X173430000Y-86850200D02*
X175666400Y-89086600D01*
X173430000Y-84330000D02*
X173430000Y-86850200D01*
X172160000Y-83060000D02*
X173430000Y-84330000D01*
%TO.N,Net-(J10-Pin_11)*%
X221054800Y-90691900D02*
X222274900Y-89471800D01*
X221054800Y-104969200D02*
X221054800Y-90691900D01*
X179780000Y-88521100D02*
X179780000Y-85600000D01*
X180479400Y-89220500D02*
X179780000Y-88521100D01*
X180479400Y-89220500D02*
X181065500Y-89806600D01*
X181065500Y-89806600D02*
X180479400Y-89220500D01*
%TO.N,Net-(J10-Pin_28)*%
X163086100Y-140204100D02*
X165084100Y-142202100D01*
X163086100Y-123464200D02*
X163086100Y-140204100D01*
X162837000Y-123215100D02*
X163086100Y-123464200D01*
X162837000Y-123215100D02*
X163086100Y-123464200D01*
X162484400Y-122862500D02*
X162837000Y-123215100D01*
X162484400Y-99272500D02*
X162484400Y-122862500D01*
X160730000Y-97518100D02*
X162484400Y-99272500D01*
X160730000Y-84330000D02*
X160730000Y-97518100D01*
X159460000Y-83060000D02*
X160730000Y-84330000D01*
%TO.N,Net-(J10-Pin_7)*%
X163230000Y-164578000D02*
X163230000Y-189300000D01*
X164191000Y-163617000D02*
X163230000Y-164578000D01*
X183122100Y-146306200D02*
X183122100Y-163617000D01*
X184943300Y-144485000D02*
X183122100Y-146306200D01*
X184943300Y-104679200D02*
X184943300Y-144485000D01*
X188888500Y-100734000D02*
X184943300Y-104679200D01*
X188888500Y-99610300D02*
X188888500Y-100734000D01*
X189386800Y-99112000D02*
X188888500Y-99610300D01*
X189386800Y-87682900D02*
X189386800Y-99112000D01*
X189687900Y-87381800D02*
X189386800Y-87682900D01*
%TO.N,Net-(J10-Pin_20)*%
X180982500Y-107319100D02*
X180982500Y-112015600D01*
X178510000Y-104846600D02*
X180982500Y-107319100D01*
X178510000Y-84998200D02*
X178510000Y-104846600D01*
X177841800Y-84330000D02*
X178510000Y-84998200D01*
X176727900Y-84330000D02*
X177841800Y-84330000D01*
X175951700Y-83553800D02*
X176727900Y-84330000D01*
X175951700Y-82541400D02*
X175951700Y-83553800D01*
X175199700Y-81789400D02*
X175951700Y-82541400D01*
X170890600Y-81789400D02*
X175199700Y-81789400D01*
X169620000Y-83060000D02*
X170890600Y-81789400D01*
%TO.N,Net-(J10-Pin_15)*%
X176342800Y-108018000D02*
X176342800Y-109131900D01*
X176291000Y-107966100D02*
X176342800Y-108018000D01*
X176291000Y-107966100D02*
X176342800Y-108018000D01*
X176291000Y-87191000D02*
X174700000Y-85600000D01*
X176291000Y-107966100D02*
X176291000Y-87191000D01*
%TO.N,Net-(J10-Pin_26)*%
X167914500Y-142967900D02*
X168059200Y-143112600D01*
X168059200Y-143112600D02*
X167914500Y-142967900D01*
X167312800Y-142366200D02*
X167914500Y-142967900D01*
X167312800Y-125733100D02*
X167312800Y-142366200D01*
X163876800Y-122297100D02*
X167312800Y-125733100D01*
X163876800Y-92036100D02*
X163876800Y-122297100D01*
X163270000Y-91429300D02*
X163876800Y-92036100D01*
X163270000Y-84330000D02*
X163270000Y-91429300D01*
X162000000Y-83060000D02*
X163270000Y-84330000D01*
%TO.N,Net-(J10-Pin_35)*%
X339700000Y-142827300D02*
X338470500Y-141597800D01*
X339700000Y-187930000D02*
X339700000Y-142827300D01*
X340970000Y-189200000D02*
X339700000Y-187930000D01*
X149575400Y-85875400D02*
X149300000Y-85600000D01*
X149575400Y-139625800D02*
X149575400Y-85875400D01*
%TO.N,Net-(J10-Pin_21)*%
X277100000Y-140870900D02*
X277100000Y-145500000D01*
X275561000Y-139331900D02*
X277100000Y-140870900D01*
X275561000Y-139331900D02*
X275514100Y-139378800D01*
X275514100Y-139378800D02*
X275561000Y-139331900D01*
X168899400Y-138745900D02*
X169494200Y-139340700D01*
X169494200Y-139340700D02*
X168899400Y-138745900D01*
X167080000Y-119776800D02*
X167080000Y-85600000D01*
X168899400Y-121596200D02*
X167080000Y-119776800D01*
X168899400Y-138745900D02*
X168899400Y-121596200D01*
%TO.N,Net-(J10-Pin_10)*%
X183590000Y-93883500D02*
X182991400Y-94482100D01*
X183590000Y-84330000D02*
X183590000Y-93883500D01*
X182320000Y-83060000D02*
X183590000Y-84330000D01*
X219946100Y-95276100D02*
X219946100Y-104999800D01*
X217986100Y-93316100D02*
X219946100Y-95276100D01*
%TO.N,Net-(J10-Pin_14)*%
X307909700Y-104189700D02*
X309020000Y-105300000D01*
X307909700Y-80907600D02*
X307909700Y-104189700D01*
%TO.N,Net-(J10-Pin_23)*%
X228672800Y-146593500D02*
X226094400Y-144015100D01*
X228672800Y-170582500D02*
X228672800Y-146593500D01*
X234559900Y-176469600D02*
X228672800Y-170582500D01*
X234559900Y-179619900D02*
X234559900Y-176469600D01*
X244040000Y-189100000D02*
X234559900Y-179619900D01*
X164540000Y-120398700D02*
X164540000Y-85600000D01*
X168161500Y-124020200D02*
X164540000Y-120398700D01*
X168161500Y-140751000D02*
X168161500Y-124020200D01*
X169392000Y-141981500D02*
X168161500Y-140751000D01*
X169392000Y-144019200D02*
X169392000Y-141981500D01*
X169392000Y-144019200D02*
X169687300Y-144314500D01*
X169687300Y-144314500D02*
X169392000Y-144019200D01*
X226094400Y-144015100D02*
X226094400Y-143939900D01*
X226094400Y-143939900D02*
X226094400Y-144015100D01*
%TO.N,Net-(J10-Pin_6)*%
X186128600Y-84331400D02*
X187400000Y-83060000D01*
X186128600Y-87165000D02*
X186128600Y-84331400D01*
X185825000Y-87468600D02*
X186128600Y-87165000D01*
X185825000Y-92642400D02*
X185825000Y-87468600D01*
X183138200Y-95329200D02*
X185825000Y-92642400D01*
X183138200Y-133989400D02*
X183138200Y-95329200D01*
X168680000Y-148447600D02*
X183138200Y-133989400D01*
X168680000Y-151000000D02*
X168680000Y-148447600D01*
%TO.N,Net-(J1-Pin_38)*%
X205690000Y-84330000D02*
X206960000Y-83060000D01*
X205690000Y-88051500D02*
X205690000Y-84330000D01*
X196397700Y-97343800D02*
X205690000Y-88051500D01*
X196397700Y-186697200D02*
X196397700Y-97343800D01*
X195066900Y-188028000D02*
X196397700Y-186697200D01*
%TO.N,Net-(J1-Pin_15)*%
X239800700Y-100927000D02*
X239800700Y-101056700D01*
X236397600Y-97523900D02*
X239800700Y-100927000D01*
X236104300Y-97523900D02*
X236397600Y-97523900D01*
X235693100Y-97112700D02*
X236104300Y-97523900D01*
X235693100Y-96821300D02*
X235693100Y-97112700D01*
X234900000Y-96028200D02*
X235693100Y-96821300D01*
X234900000Y-85600000D02*
X234900000Y-96028200D01*
%TO.N,Net-(J1-Pin_36)*%
X94900000Y-182383000D02*
X94900000Y-189200000D01*
X96522300Y-180760700D02*
X94900000Y-182383000D01*
X198003300Y-100017800D02*
X198003300Y-179025800D01*
X208230000Y-89791100D02*
X198003300Y-100017800D01*
X208230000Y-84330000D02*
X208230000Y-89791100D01*
X209500000Y-83060000D02*
X208230000Y-84330000D01*
%TO.N,Net-(J1-Pin_9)*%
X242247900Y-97169900D02*
X242571000Y-97493000D01*
X242247900Y-85872100D02*
X242247900Y-97169900D01*
X242520000Y-85600000D02*
X242247900Y-85872100D01*
%TO.N,Net-(J1-Pin_25)*%
X221949600Y-85600000D02*
X222200000Y-85600000D01*
X220377800Y-87171800D02*
X221949600Y-85600000D01*
X220377800Y-87721100D02*
X220377800Y-87171800D01*
X214091700Y-94007200D02*
X220377800Y-87721100D01*
X214091700Y-107419100D02*
X214091700Y-94007200D01*
X212834200Y-108676600D02*
X214091700Y-107419100D01*
X212834200Y-177315000D02*
X212834200Y-108676600D01*
X202085100Y-188064100D02*
X212834200Y-177315000D01*
X200464100Y-188064100D02*
X202085100Y-188064100D01*
X200300000Y-187900000D02*
X200464100Y-188064100D01*
%TO.N,Net-(J1-Pin_13)*%
X240053300Y-88213300D02*
X240053300Y-98409000D01*
X237440000Y-85600000D02*
X240053300Y-88213300D01*
%TO.N,Net-(J1-Pin_11)*%
X214898300Y-102678300D02*
X216050000Y-103830000D01*
X214898300Y-95411500D02*
X214898300Y-102678300D01*
X221079500Y-89230300D02*
X214898300Y-95411500D01*
X221079500Y-87462300D02*
X221079500Y-89230300D01*
%TO.N,Net-(J1-Pin_29)*%
X64900000Y-134913400D02*
X66660300Y-133153100D01*
X64900000Y-150700000D02*
X64900000Y-134913400D01*
X207766700Y-98443100D02*
X207766700Y-136708200D01*
X217120000Y-89089800D02*
X207766700Y-98443100D01*
X217120000Y-85600000D02*
X217120000Y-89089800D01*
%TO.N,Net-(J1-Pin_34)*%
X210768300Y-84331700D02*
X212040000Y-83060000D01*
X210768300Y-88044400D02*
X210768300Y-84331700D01*
X210528000Y-88284700D02*
X210768300Y-88044400D01*
X210528000Y-90765300D02*
X210528000Y-88284700D01*
X201924500Y-99368800D02*
X210528000Y-90765300D01*
X201924500Y-179168500D02*
X201924500Y-99368800D01*
X198899700Y-182193300D02*
X201924500Y-179168500D01*
%TO.N,Net-(J1-Pin_17)*%
X232360000Y-89334500D02*
X232360000Y-85600000D01*
X232609100Y-89583600D02*
X232360000Y-89334500D01*
X232609100Y-89583600D02*
X232360000Y-89334500D01*
X237746000Y-100016400D02*
X237897500Y-100016400D01*
X235091400Y-97361800D02*
X237746000Y-100016400D01*
X235091400Y-97210300D02*
X235091400Y-97361800D01*
X232609100Y-94728000D02*
X235091400Y-97210300D01*
X232609100Y-89583600D02*
X232609100Y-94728000D01*
%TO.N,Net-(J1-Pin_22)*%
X228381900Y-81146700D02*
X228851200Y-81616000D01*
X217219100Y-81146700D02*
X228381900Y-81146700D01*
X215831700Y-82534100D02*
X217219100Y-81146700D01*
X215831700Y-89412800D02*
X215831700Y-82534100D01*
X206991100Y-98253400D02*
X215831700Y-89412800D01*
X206991100Y-181655200D02*
X206991100Y-98253400D01*
X206793200Y-181853100D02*
X206991100Y-181655200D01*
%TO.N,Net-(J1-Pin_8)*%
X179492600Y-102828700D02*
X179492600Y-94142700D01*
X180034400Y-103370500D02*
X179492600Y-102828700D01*
X181050000Y-82098300D02*
X180922900Y-81971200D01*
X181050000Y-87749600D02*
X181050000Y-82098300D01*
X181678000Y-88377600D02*
X181050000Y-87749600D01*
X181678000Y-93180200D02*
X181678000Y-88377600D01*
X181678000Y-93180200D02*
X181768700Y-93270900D01*
X181768700Y-93270900D02*
X181678000Y-93180200D01*
X179492600Y-94142700D02*
X179662800Y-94312900D01*
X179662800Y-94312900D02*
X179492600Y-94142700D01*
X180034400Y-103370500D02*
X179268200Y-103370500D01*
X179268200Y-103370500D02*
X180034400Y-103370500D01*
%TO.N,Net-(J1-Pin_21)*%
X225392700Y-150698100D02*
X226316000Y-151621400D01*
X225392700Y-87487300D02*
X225392700Y-150698100D01*
X227280000Y-85600000D02*
X225392700Y-87487300D01*
%TO.N,Net-(J1-Pin_12)*%
X238710000Y-84330000D02*
X239980000Y-83060000D01*
X236873900Y-84330000D02*
X238710000Y-84330000D01*
X236170000Y-85033900D02*
X236873900Y-84330000D01*
X236170000Y-86230000D02*
X236170000Y-85033900D01*
X236394800Y-86454800D02*
X236170000Y-86230000D01*
X236394800Y-96822200D02*
X236394800Y-86454800D01*
%TO.N,Net-(J1-Pin_31)*%
X105958000Y-103085700D02*
X123687200Y-85356500D01*
X105958000Y-143982000D02*
X105958000Y-103085700D01*
X99140000Y-150800000D02*
X105958000Y-143982000D01*
%TO.N,Net-(J1-Pin_20)*%
X229303000Y-83060000D02*
X229820000Y-83060000D01*
X228030700Y-81787700D02*
X229303000Y-83060000D01*
X224186500Y-81787700D02*
X228030700Y-81787700D01*
X223470200Y-82504000D02*
X224186500Y-81787700D01*
X223470200Y-147209800D02*
X223470200Y-82504000D01*
X216000000Y-154680000D02*
X223470200Y-147209800D01*
%TO.N,Net-(J1-Pin_16)*%
X233639900Y-92594800D02*
X233679600Y-92634500D01*
X233639900Y-84320100D02*
X233639900Y-92594800D01*
X234900000Y-83060000D02*
X233639900Y-84320100D01*
%TO.N,Net-(J1-Pin_14)*%
X285801700Y-84217900D02*
X284652900Y-83069100D01*
X285801700Y-102478300D02*
X285801700Y-84217900D01*
X284650000Y-103630000D02*
X285801700Y-102478300D01*
%TO.N,Net-(J1-Pin_33)*%
X146131900Y-139508100D02*
X134740000Y-150900000D01*
X146131900Y-88525700D02*
X146131900Y-139508100D01*
X147287700Y-87369900D02*
X146131900Y-88525700D01*
X212040000Y-87766500D02*
X211229700Y-88576800D01*
X212040000Y-85600000D02*
X212040000Y-87766500D01*
%TO.N,Net-(J1-Pin_27)*%
X234507300Y-135143000D02*
X234258200Y-134893900D01*
X234507300Y-135143000D02*
X234258200Y-134893900D01*
X228272800Y-87146300D02*
X228340800Y-87078300D01*
X228272800Y-115437600D02*
X228272800Y-87146300D01*
X234258200Y-121423000D02*
X228272800Y-115437600D01*
X234258200Y-134893900D02*
X234258200Y-121423000D01*
X243904300Y-182269500D02*
X235109000Y-173474200D01*
X243904300Y-185237900D02*
X243904300Y-182269500D01*
X235109000Y-173474200D02*
X234861400Y-173226600D01*
X235109000Y-173474200D02*
X234861400Y-173226600D01*
X234859900Y-135495600D02*
X234507300Y-135143000D01*
X234859900Y-173225100D02*
X234859900Y-135495600D01*
X234861400Y-173226600D02*
X234859900Y-173225100D01*
%TO.N,Net-(J1-Pin_26)*%
X286902600Y-81709700D02*
X287639100Y-80973200D01*
X286902600Y-157362600D02*
X286902600Y-81709700D01*
X318100000Y-188560000D02*
X286902600Y-157362600D01*
%TO.N,Net-(J1-Pin_19)*%
X235561700Y-135346600D02*
X235109000Y-134893900D01*
X235561700Y-148861300D02*
X235561700Y-135346600D01*
X235109000Y-134893900D02*
X234959900Y-134744800D01*
X235109000Y-134893900D02*
X234959900Y-134744800D01*
X229820000Y-113590400D02*
X229820000Y-85600000D01*
X234959900Y-118730300D02*
X229820000Y-113590400D01*
X234959900Y-134744800D02*
X234959900Y-118730300D01*
%TO.N,Net-(J1-Pin_23)*%
X216000000Y-188480000D02*
X216000000Y-187328300D01*
X216719800Y-187328300D02*
X216000000Y-187328300D01*
X224740000Y-179308100D02*
X216719800Y-187328300D01*
X224740000Y-85600000D02*
X224740000Y-179308100D01*
%TO.N,Net-(J1-Pin_18)*%
X338200000Y-85503900D02*
X338200000Y-103160000D01*
X335380600Y-82684500D02*
X338200000Y-85503900D01*
%TO.N,Net-(J1-Pin_6)*%
X127451700Y-112351000D02*
X126384300Y-113418400D01*
X127451700Y-104883500D02*
X127451700Y-112351000D01*
X127019900Y-104451700D02*
X127451700Y-104883500D01*
X126300000Y-104451700D02*
X127019900Y-104451700D01*
X126300000Y-103300000D02*
X126300000Y-104451700D01*
X236214200Y-113579000D02*
X237302000Y-114666800D01*
X236214200Y-108557300D02*
X236214200Y-113579000D01*
X246330000Y-98441500D02*
X236214200Y-108557300D01*
X246330000Y-84330000D02*
X246330000Y-98441500D01*
X247600000Y-83060000D02*
X246330000Y-84330000D01*
X237302000Y-114666800D02*
X237302000Y-114722600D01*
%TO.N,Net-(J1-Pin_24)*%
X234690300Y-116530600D02*
X234939400Y-116779700D01*
X234690300Y-116530600D02*
X234939400Y-116779700D01*
X237229700Y-119070000D02*
X234939400Y-116779700D01*
X237229700Y-173576000D02*
X237229700Y-119070000D01*
X245832300Y-182178600D02*
X237229700Y-173576000D01*
X226010000Y-84330000D02*
X224740000Y-83060000D01*
X230342800Y-84330000D02*
X226010000Y-84330000D01*
X231102100Y-85089300D02*
X230342800Y-84330000D01*
X231102100Y-112942400D02*
X231102100Y-85089300D01*
X234690300Y-116530600D02*
X231102100Y-112942400D01*
%TO.N,Net-(J1-Pin_7)*%
X186770200Y-94775400D02*
X186770200Y-88002700D01*
X184927900Y-96617700D02*
X186770200Y-94775400D01*
%TO.N,Net-(J1-Pin_32)*%
X204286400Y-97881200D02*
X204286400Y-107944800D01*
X213301000Y-88866600D02*
X204286400Y-97881200D01*
X213301000Y-84339000D02*
X213301000Y-88866600D01*
X214580000Y-83060000D02*
X213301000Y-84339000D01*
X204286400Y-107944800D02*
X204400800Y-108059200D01*
X204286400Y-107944800D02*
X204400800Y-108059200D01*
X202663500Y-109796500D02*
X202663500Y-151621400D01*
X204400800Y-108059200D02*
X202663500Y-109796500D01*
%TO.N,Net-(J1-Pin_37)*%
X197222500Y-182748500D02*
X201791200Y-187317200D01*
X197222500Y-99947700D02*
X197222500Y-182748500D01*
X206960000Y-90210200D02*
X197222500Y-99947700D01*
X206960000Y-85600000D02*
X206960000Y-90210200D01*
%TO.N,Net-(J1-Pin_10)*%
X241250100Y-84329900D02*
X242520000Y-83060000D01*
X241250100Y-98216500D02*
X241250100Y-84329900D01*
X240353900Y-99112700D02*
X241250100Y-98216500D01*
X239720400Y-99112700D02*
X240353900Y-99112700D01*
X238968700Y-98361000D02*
X239720400Y-99112700D01*
X238968700Y-98267600D02*
X238968700Y-98361000D01*
%TO.N,Net-(J1-Pin_28)*%
X218390000Y-84330000D02*
X219660000Y-83060000D01*
X218390000Y-88783100D02*
X218390000Y-84330000D01*
X212535000Y-94638100D02*
X218390000Y-88783100D01*
X212535000Y-107981900D02*
X212535000Y-94638100D01*
X69646500Y-148493500D02*
X69646500Y-130409900D01*
X67440000Y-150700000D02*
X69646500Y-148493500D01*
X179239400Y-109026900D02*
X178998200Y-108785700D01*
X179239400Y-128422600D02*
X179239400Y-109026900D01*
X69646500Y-130409900D02*
X71633800Y-128422600D01*
X71633800Y-128422600D02*
X69646500Y-130409900D01*
X178998200Y-108785700D02*
X179339300Y-108785700D01*
X179339300Y-108785700D02*
X178998200Y-108785700D01*
X212535000Y-107981900D02*
X211731200Y-108785700D01*
X211731200Y-108785700D02*
X212535000Y-107981900D01*
%TO.N,GND*%
X215280100Y-156068300D02*
X216000000Y-156068300D01*
X214848300Y-155636500D02*
X215280100Y-156068300D01*
X214848300Y-153723500D02*
X214848300Y-155636500D01*
X215280100Y-153291700D02*
X214848300Y-153723500D01*
X216000000Y-153291700D02*
X215280100Y-153291700D01*
X318819900Y-189948300D02*
X318100000Y-189948300D01*
X319251700Y-189516500D02*
X318819900Y-189948300D01*
X319251700Y-187603500D02*
X319251700Y-189516500D01*
X318819900Y-187171700D02*
X319251700Y-187603500D01*
X318100000Y-187171700D02*
X318819900Y-187171700D01*
X318100000Y-186020000D02*
X318100000Y-187171700D01*
X318100000Y-191100000D02*
X318100000Y-189948300D01*
X64760000Y-189100000D02*
X64760000Y-187848300D01*
X354619900Y-105128300D02*
X353900000Y-105128300D01*
X355051700Y-104696500D02*
X354619900Y-105128300D01*
X355051700Y-102783500D02*
X355051700Y-104696500D01*
X354619900Y-102351700D02*
X355051700Y-102783500D01*
X353900000Y-102351700D02*
X354619900Y-102351700D01*
X353900000Y-101200000D02*
X353900000Y-102351700D01*
X353900000Y-106280000D02*
X353900000Y-105128300D01*
X141280100Y-105268300D02*
X142000000Y-105268300D01*
X140848300Y-104836500D02*
X141280100Y-105268300D01*
X140848300Y-102923500D02*
X140848300Y-104836500D01*
X141280100Y-102491700D02*
X140848300Y-102923500D01*
X142000000Y-102491700D02*
X141280100Y-102491700D01*
X142000000Y-101340000D02*
X142000000Y-102491700D01*
X142000000Y-106420000D02*
X142000000Y-105268300D01*
X129660000Y-150900000D02*
X129660000Y-152151700D01*
X97368900Y-87945600D02*
X97368900Y-94642300D01*
X93575000Y-84151700D02*
X97368900Y-87945600D01*
X93575000Y-82250000D02*
X93575000Y-84151700D01*
X216000000Y-152140000D02*
X216000000Y-153291700D01*
X216000000Y-191020000D02*
X216000000Y-189868300D01*
X216000000Y-156644100D02*
X216000000Y-156068300D01*
X216000000Y-156644100D02*
X216000000Y-157220000D01*
X215280100Y-189868300D02*
X216000000Y-189868300D01*
X214848300Y-189436500D02*
X215280100Y-189868300D01*
X214848300Y-185940000D02*
X214848300Y-189436500D01*
X216000000Y-185940000D02*
X214848300Y-185940000D01*
X216000000Y-157220000D02*
X216000000Y-158371700D01*
X173900000Y-106320000D02*
X173900000Y-105168300D01*
X77030100Y-105118300D02*
X77750000Y-105118300D01*
X76598300Y-104686500D02*
X77030100Y-105118300D01*
X76598300Y-102773500D02*
X76598300Y-104686500D01*
X77030100Y-102341700D02*
X76598300Y-102773500D01*
X77750000Y-102341700D02*
X77030100Y-102341700D01*
X77750000Y-106270000D02*
X77750000Y-105118300D01*
X62360000Y-150700000D02*
X62360000Y-172613700D01*
X62360000Y-185448300D02*
X64760000Y-187848300D01*
X62360000Y-172613700D02*
X62360000Y-185448300D01*
X94060000Y-150800000D02*
X94060000Y-152051700D01*
X61330200Y-104538300D02*
X62050000Y-104538300D01*
X58060000Y-101268100D02*
X61330200Y-104538300D01*
X58060000Y-82300000D02*
X58060000Y-101268100D01*
X318100000Y-201714700D02*
X318100000Y-191100000D01*
X317501100Y-202313600D02*
X318100000Y-201714700D01*
X92360000Y-200792600D02*
X92360000Y-189200000D01*
X90549900Y-202602700D02*
X92360000Y-200792600D01*
X338200000Y-105700000D02*
X338200000Y-106851700D01*
X216769900Y-102441700D02*
X216050000Y-102441700D01*
X217201700Y-102873500D02*
X216769900Y-102441700D01*
X217201700Y-104786500D02*
X217201700Y-102873500D01*
X216769900Y-105218300D02*
X217201700Y-104786500D01*
X216050000Y-105218300D02*
X216769900Y-105218300D01*
X216050000Y-106370000D02*
X216050000Y-105218300D01*
X216050000Y-101290000D02*
X216050000Y-102441700D01*
X283930100Y-105018300D02*
X284650000Y-105018300D01*
X283498300Y-104586500D02*
X283930100Y-105018300D01*
X283498300Y-102673500D02*
X283498300Y-104586500D01*
X283930100Y-102241700D02*
X283498300Y-102673500D01*
X284650000Y-102241700D02*
X283930100Y-102241700D01*
X284650000Y-101090000D02*
X284650000Y-102241700D01*
X284650000Y-106170000D02*
X284650000Y-105018300D01*
X270468000Y-108259700D02*
X268950000Y-106741700D01*
X270468000Y-117856200D02*
X270468000Y-108259700D01*
X268950000Y-105590000D02*
X268950000Y-106741700D01*
X129690000Y-198607900D02*
X129690000Y-189200000D01*
X126384300Y-201913600D02*
X129690000Y-198607900D01*
X244560000Y-104600000D02*
X244560000Y-105851700D01*
X62050000Y-105114100D02*
X62050000Y-104538300D01*
X62050000Y-105114100D02*
X62050000Y-105690000D01*
X64152400Y-147655900D02*
X62360000Y-149448300D01*
X64152400Y-108944100D02*
X64152400Y-147655900D01*
X62050000Y-106841700D02*
X64152400Y-108944100D01*
X62050000Y-105690000D02*
X62050000Y-106841700D01*
X62360000Y-150700000D02*
X62360000Y-149448300D01*
X129690000Y-152181700D02*
X129690000Y-175612600D01*
X129660000Y-152151700D02*
X129690000Y-152181700D01*
X129690000Y-175612600D02*
X129690000Y-189200000D01*
X200300000Y-156640000D02*
X200300000Y-157791700D01*
X92360000Y-153751700D02*
X94060000Y-152051700D01*
X92360000Y-172613700D02*
X92360000Y-153751700D01*
X92360000Y-189200000D02*
X92360000Y-172613700D01*
X338200000Y-106851700D02*
X338200000Y-121056000D01*
X338200000Y-121056000D02*
X338404500Y-121056000D01*
X158200000Y-105740000D02*
X158200000Y-106891700D01*
X161060000Y-151000000D02*
X161060000Y-149748300D01*
X161060000Y-171897900D02*
X160690000Y-172267900D01*
X161060000Y-151000000D02*
X161060000Y-171897900D01*
X215970300Y-158401400D02*
X215970300Y-169614800D01*
X216000000Y-158371700D02*
X215970300Y-158401400D01*
X338404500Y-122501000D02*
X338404500Y-121056000D01*
X338923000Y-123019500D02*
X338404500Y-122501000D01*
X216000000Y-202645100D02*
X216000000Y-191020000D01*
X218956500Y-205601600D02*
X216000000Y-202645100D01*
X335890000Y-169428300D02*
X335418300Y-169428300D01*
X335890000Y-189200000D02*
X335890000Y-169428300D01*
X335890000Y-169428300D02*
X335890000Y-145400000D01*
X158200000Y-126352200D02*
X158200000Y-106891700D01*
X159232500Y-127384700D02*
X158200000Y-126352200D01*
X173180100Y-102391700D02*
X173900000Y-102391700D01*
X172748300Y-102823500D02*
X173180100Y-102391700D01*
X172748300Y-104723400D02*
X172748300Y-102823500D01*
X173193200Y-105168300D02*
X172748300Y-104723400D01*
X173900000Y-105168300D02*
X173193200Y-105168300D01*
X335890000Y-123366000D02*
X338200000Y-121056000D01*
X335890000Y-128140400D02*
X335890000Y-123366000D01*
X338200000Y-105700000D02*
X338200000Y-104548300D01*
X338919900Y-104548300D02*
X338200000Y-104548300D01*
X340551500Y-102916700D02*
X338919900Y-104548300D01*
X340551500Y-96825900D02*
X340551500Y-102916700D01*
X173900000Y-101240000D02*
X173900000Y-102391700D01*
X77750000Y-101190000D02*
X77750000Y-102341700D01*
X274560000Y-122400700D02*
X274560000Y-145500000D01*
X274559900Y-122400700D02*
X274560000Y-122400700D01*
X270468000Y-118308800D02*
X274559900Y-122400700D01*
X270468000Y-117856200D02*
X270468000Y-118308800D01*
X159232500Y-192009200D02*
X159232500Y-201592100D01*
X160690000Y-190551700D02*
X159232500Y-192009200D01*
X160690000Y-189300000D02*
X160690000Y-190551700D01*
X199485900Y-158605800D02*
X200300000Y-157791700D01*
X199485900Y-172613700D02*
X199485900Y-158605800D01*
X97368900Y-94642300D02*
X97368900Y-115087200D01*
X160690000Y-172267900D02*
X160107600Y-172267900D01*
X160690000Y-189300000D02*
X160690000Y-188048300D01*
X214848300Y-170736800D02*
X214848300Y-185940000D01*
X215970300Y-169614800D02*
X214848300Y-170736800D01*
X159232500Y-147920800D02*
X159232500Y-127384700D01*
X161060000Y-149748300D02*
X159232500Y-147920800D01*
X335890000Y-128140400D02*
X335890000Y-144148300D01*
X335890000Y-145400000D02*
X335890000Y-144148300D01*
X160690000Y-188048300D02*
X160690000Y-172267900D01*
X240536800Y-109874900D02*
X240536800Y-118850400D01*
X244560000Y-105851700D02*
X240536800Y-109874900D01*
X299583900Y-141672200D02*
X302160000Y-144248300D01*
X299583900Y-130629100D02*
X299583900Y-141672200D01*
X302160000Y-145500000D02*
X302160000Y-144248300D01*
%TO.N,Net-(J1-Pin_30)*%
X195796000Y-153605300D02*
X194781000Y-154620300D01*
X195796000Y-84806800D02*
X195796000Y-153605300D01*
X197629200Y-82973600D02*
X195796000Y-84806800D01*
%TO.N,Net-(J1-Pin_35)*%
X198782600Y-181313400D02*
X198782600Y-107489500D01*
X197941400Y-182154600D02*
X198782600Y-181313400D01*
X198605000Y-107311900D02*
X198782600Y-107489500D01*
X198605000Y-107311900D02*
X198782600Y-107489500D01*
X209500000Y-90858000D02*
X209500000Y-85600000D01*
X198605000Y-101753000D02*
X209500000Y-90858000D01*
X198605000Y-107311900D02*
X198605000Y-101753000D01*
%TO.N,Net-(D52-K)*%
X350349300Y-155237000D02*
X350349300Y-130629100D01*
X352384200Y-157271900D02*
X350349300Y-155237000D01*
%TO.N,Net-(D51-K)*%
X355758900Y-127630200D02*
X356321700Y-127630200D01*
X349993100Y-121864400D02*
X355758900Y-127630200D01*
X349993100Y-115278500D02*
X349993100Y-121864400D01*
%TO.N,Net-(D49-K)*%
X358562100Y-122319800D02*
X358562100Y-100640100D01*
X355001400Y-125880500D02*
X358562100Y-122319800D01*
%TO.N,Net-(D44-K)*%
X326607000Y-96537700D02*
X326607000Y-87965200D01*
X327874600Y-97805300D02*
X326607000Y-96537700D01*
%TO.N,Net-(D42-K)*%
X333193200Y-117885100D02*
X333193200Y-111847700D01*
X329445900Y-121632400D02*
X333193200Y-117885100D01*
%TO.N,Net-(D39-K)*%
X300169100Y-103028400D02*
X300169100Y-112635700D01*
X305556300Y-97641200D02*
X300169100Y-103028400D01*
%TO.N,Net-(D35-K)*%
X273816000Y-95737500D02*
X269721900Y-91643400D01*
X273816000Y-120664600D02*
X273816000Y-95737500D01*
%TO.N,Net-(D34-K)*%
X275694300Y-118134100D02*
X275694300Y-94650200D01*
X274950100Y-118878300D02*
X275694300Y-118134100D01*
%TO.N,Net-(D32-K)*%
X261896700Y-93842800D02*
X267095000Y-88644500D01*
X261896700Y-102879700D02*
X261896700Y-93842800D01*
%TO.N,Net-(D30-K)*%
X235583400Y-115558400D02*
X236898200Y-116873200D01*
X235583400Y-107866400D02*
X235583400Y-115558400D01*
X236008800Y-107441000D02*
X235583400Y-107866400D01*
%TO.N,Net-(D29-K)*%
X236873700Y-100005700D02*
X236873700Y-106637900D01*
X232335800Y-95467800D02*
X236873700Y-100005700D01*
%TO.N,Net-(D28-K)*%
X191809600Y-114871700D02*
X193138700Y-116200800D01*
X191809600Y-106874900D02*
X191809600Y-114871700D01*
X193138700Y-116200800D02*
X191809600Y-116200800D01*
X191809600Y-116200800D02*
X193138700Y-116200800D01*
X191809600Y-106874900D02*
X191809600Y-106779600D01*
X191809600Y-106779600D02*
X191809600Y-106874900D01*
X193138700Y-116200800D02*
X193138700Y-116199200D01*
X193138700Y-116199200D02*
X193138700Y-116200800D01*
%TO.N,Net-(D27-K)*%
X205002500Y-117948300D02*
X205687700Y-118633500D01*
X205002500Y-106526000D02*
X205002500Y-117948300D01*
X205687700Y-118633500D02*
X205002500Y-118633500D01*
X205002500Y-118633500D02*
X205687700Y-118633500D01*
%TO.N,Net-(D26-K)*%
X226268500Y-116986900D02*
X226268500Y-92940500D01*
X227915100Y-118633500D02*
X226268500Y-116986900D01*
%TO.N,Net-(D25-K)*%
X206389400Y-99423200D02*
X205131500Y-98165300D01*
X206389400Y-127507100D02*
X206389400Y-99423200D01*
X206056700Y-127839800D02*
X206389400Y-127507100D01*
%TO.N,Net-(D24-K)*%
X188646200Y-103823900D02*
X188646200Y-118633500D01*
X190740600Y-101729500D02*
X188646200Y-103823900D01*
%TO.N,Net-(D23-K)*%
X193028300Y-117337900D02*
X193028300Y-120732700D01*
X193840400Y-116525800D02*
X193028300Y-117337900D01*
X193840400Y-114846600D02*
X193840400Y-116525800D01*
X192515000Y-113521200D02*
X193840400Y-114846600D01*
X192515000Y-97047400D02*
X192515000Y-113521200D01*
X191997100Y-96529500D02*
X192515000Y-97047400D01*
X191997100Y-96529500D02*
X191997100Y-96179500D01*
X191997100Y-96179500D02*
X191997100Y-96529500D01*
X193028300Y-120732700D02*
X193072400Y-120688600D01*
X193072400Y-120688600D02*
X193028300Y-120732700D01*
%TO.N,Net-(D22-K)*%
X180135900Y-107492000D02*
X179553500Y-106909600D01*
X180135900Y-127839800D02*
X180135900Y-107492000D01*
%TO.N,Net-(D21-K)*%
X180430800Y-90634100D02*
X180430800Y-95322400D01*
X179437500Y-89640800D02*
X180430800Y-90634100D01*
X179437500Y-89640800D02*
X179437500Y-89228600D01*
X179437500Y-89228600D02*
X179278000Y-89069100D01*
X179278000Y-89069100D02*
X179437500Y-89228600D01*
X180430800Y-95322400D02*
X181208400Y-96100000D01*
X181208400Y-96100000D02*
X180430800Y-95322400D01*
X180430800Y-95322400D02*
X180512700Y-95404300D01*
X180512700Y-95404300D02*
X180724800Y-95616400D01*
%TO.N,Net-(D20-K)*%
X171177300Y-94334700D02*
X172180100Y-93331900D01*
X171177300Y-118633500D02*
X171177300Y-94334700D01*
X171177300Y-118633500D02*
X171743800Y-119200000D01*
X171743800Y-119200000D02*
X171177300Y-118633500D01*
X172180100Y-93331900D02*
X171818500Y-93331900D01*
X171818500Y-93331900D02*
X172180100Y-93331900D01*
%TO.N,Net-(D17-K)*%
X153745000Y-116347200D02*
X156031300Y-118633500D01*
X153745000Y-90941100D02*
X153745000Y-116347200D01*
%TO.N,Net-(D16-K)*%
X132236500Y-90901200D02*
X135342900Y-87794800D01*
X132236500Y-118884600D02*
X132236500Y-90901200D01*
%TO.N,Net-(D13-K)*%
X129489100Y-118766000D02*
X129489100Y-105679200D01*
X129370500Y-118884600D02*
X129489100Y-118766000D01*
%TO.N,Net-(D12-K)*%
X135342900Y-94629600D02*
X135342900Y-112808300D01*
X138329100Y-91643400D02*
X135342900Y-94629600D01*
%TO.N,Net-(D11-K)*%
X129370500Y-94732700D02*
X129370500Y-88644500D01*
X121459000Y-102644200D02*
X129370500Y-94732700D01*
X121438000Y-102644200D02*
X121459000Y-102644200D01*
%TO.N,Net-(D10-K)*%
X122937600Y-91222200D02*
X122937600Y-100173300D01*
X122757200Y-91041800D02*
X122937600Y-91222200D01*
%TO.N,Net-(D8-K)*%
X72632700Y-112808700D02*
X66660300Y-118781100D01*
X72632700Y-87815600D02*
X72632700Y-112808700D01*
%TO.N,Net-(D4-K)*%
X74772400Y-117787000D02*
X74772400Y-97641200D01*
X75618900Y-118633500D02*
X74772400Y-117787000D01*
D17*
%TO.N,+12V*%
X81591300Y-202571200D02*
X81622800Y-202602700D01*
X81591300Y-175612600D02*
X81591300Y-202571200D01*
X63140000Y-86337300D02*
X59962300Y-89515000D01*
X63140000Y-82300000D02*
X63140000Y-86337300D01*
X98655000Y-119531700D02*
X99508500Y-120385200D01*
X98655000Y-82250000D02*
X98655000Y-119531700D01*
X363047200Y-124486100D02*
X359781600Y-121220500D01*
X363047200Y-150857400D02*
X363047200Y-124486100D01*
X330292500Y-200894700D02*
X330292500Y-178611500D01*
X329389200Y-201798000D02*
X330292500Y-200894700D01*
X359781600Y-91157000D02*
X362294100Y-88644500D01*
X359781600Y-98070800D02*
X359781600Y-91157000D01*
X358884700Y-98070800D02*
X359781600Y-98070800D01*
X359781600Y-121220500D02*
X359781600Y-98070800D01*
X78729700Y-172751000D02*
X78729700Y-163617000D01*
X81591300Y-175612600D02*
X78729700Y-172751000D01*
X265889200Y-132768800D02*
X263749500Y-130629100D01*
X265889200Y-156769500D02*
X265889200Y-132768800D01*
X85029900Y-157316800D02*
X85029900Y-134477700D01*
X78729700Y-163617000D02*
X85029900Y-157316800D01*
X260714500Y-127594100D02*
X260714500Y-106894000D01*
X263749500Y-130629100D02*
X260714500Y-127594100D01*
X101418300Y-122295000D02*
X99508500Y-120385200D01*
X101418300Y-134477700D02*
X101418300Y-122295000D01*
X188795300Y-128685300D02*
X189094500Y-128386100D01*
X188795300Y-146461500D02*
X188795300Y-128685300D01*
X186965000Y-126256600D02*
X186965000Y-106637900D01*
X189094500Y-128386100D02*
X186965000Y-126256600D01*
%TD*%
M02*
