<?xml version="1.0" encoding="UTF-8"?>
<!-- Created by Vectric (http://www.vectric.com/) -->
<svg width="205.00000000mm" height="185.00000000mm" viewBox="0.00000000 0.00000000 205.00000000 185.00000000" id="svg2" version="1.1" xmlns="http://www.w3.org/2000/svg" xmlns:xlink="http://www.w3.org/1999/xlink" xmlns:inkscape="http://www.inkscape.org/namespaces/inkscape">
    <g inkscape:groupmode="layer" id="85667243-1302-4a85-b3ac-c7bf39b332ec" inkscape:label="Toolpath Previews" style="stroke:#000000;"/>
    <g inkscape:groupmode="layer" id="db8da69d-1056-4488-8d1c-17eed7473f21" inkscape:label="_Labels" style="stroke:#ff6600;">
        <path style="fill:none;stroke-width:0.280000;stroke-linecap:round;stroke-linejoin:round;stroke-opacity:1;stroke:#ff6600;" d="M 59.092781,88.673309 L 59.092781,72.671309 L 43.092792,72.671309 L 43.092792,88.673309 L 59.092781,88.673309 "/>
        <path style="fill:none;stroke-width:0.280000;stroke-linecap:round;stroke-linejoin:round;stroke-opacity:1;stroke:#ff6600;" d="M 42.953290,80.672309 L 58.953279,80.672309 "/>
        <path style="fill:none;stroke-width:0.280000;stroke-linecap:round;stroke-linejoin:round;stroke-opacity:1;stroke:#ff6600;" d="M 47.092787,78.498582 L 47.092787,75.538526 C 47.107335,75.390859 47.164721,75.311432 47.264944,75.300245 L 48.438520,75.300245 C 48.550866,75.312550 48.607039,75.391698 48.607039,75.537687 C 48.607039,75.683676 48.550058,75.761705 48.436095,75.771773 L 47.433463,75.771773 L 47.433463,76.689659 L 48.215443,76.689659 C 48.326981,76.700846 48.383559,76.776358 48.385175,76.916194 C 48.386792,77.056030 48.330214,77.137695 48.215443,77.161187 L 47.433463,77.161187 L 47.433463,78.498582 C 47.425381,78.652962 47.370622,78.731270 47.269187,78.733507 C 47.167752,78.735745 47.108952,78.657436 47.092787,78.498582 "/>
        <path style="fill:none;stroke-width:0.280000;stroke-linecap:round;stroke-linejoin:round;stroke-opacity:1;stroke:#ff6600;" d="M 49.610701,77.634394 L 49.242140,76.224843 L 48.871155,77.634394 L 49.610701,77.634394 "/>
        <path style="fill:none;stroke-width:0.280000;stroke-linecap:round;stroke-linejoin:round;stroke-opacity:1;stroke:#ff6600;" d="M 49.242140,76.224843 L 49.610701,77.634394 L 49.242140,76.224843 "/>
        <path style="fill:none;stroke-width:0.280000;stroke-linecap:round;stroke-linejoin:round;stroke-opacity:1;stroke:#ff6600;" d="M 48.306189,78.413002 C 48.435509,77.919660 48.565031,77.426597 48.694754,76.933813 C 48.824478,76.441030 48.954404,75.947967 49.084532,75.454624 C 49.111204,75.352823 49.164144,75.301364 49.243353,75.300245 C 49.322561,75.299126 49.375905,75.350586 49.403386,75.454624 L 50.180516,78.421393 C 50.204764,78.579128 50.170009,78.680929 50.076252,78.726795 C 49.982495,78.772662 49.910157,78.725677 49.859238,78.585840 L 49.734363,78.105922 L 48.746280,78.105922 L 48.625043,78.574094 C 48.573315,78.715049 48.499765,78.761195 48.404391,78.712532 C 48.309018,78.663869 48.276284,78.564026 48.306189,78.413002 "/>
        <path style="fill:none;stroke-width:0.280000;stroke-linecap:round;stroke-linejoin:round;stroke-opacity:1;stroke:#ff6600;" d="M 52.053631,77.604189 L 52.053631,77.637750 C 52.051206,77.693684 52.049590,77.727245 52.048781,77.738432 C 52.014835,78.080751 51.913400,78.333296 51.744476,78.496065 C 51.575552,78.658835 51.395313,78.734906 51.203758,78.724278 C 51.012203,78.713651 50.837016,78.617164 50.678195,78.434817 C 50.519374,78.252470 50.433094,77.986781 50.419353,77.637750 L 50.419353,77.604189 L 50.419353,75.535170 C 50.419353,75.501609 50.423799,75.471405 50.432690,75.444556 C 50.471485,75.327093 50.535943,75.280668 50.626063,75.305279 C 50.716182,75.329890 50.761242,75.406521 50.761242,75.535170 L 50.761242,77.604189 C 50.773366,77.861488 50.855201,78.053903 51.006748,78.181433 C 51.158294,78.308964 51.317721,78.303371 51.485028,78.164653 C 51.560195,78.103125 51.615358,78.023698 51.650517,77.926372 C 51.685676,77.829046 51.706488,77.721651 51.712954,77.604189 L 51.712954,75.535170 C 51.712954,75.515034 51.713763,75.499931 51.715379,75.489863 C 51.733969,75.352264 51.794991,75.290177 51.898447,75.303601 C 52.001903,75.317025 52.053631,75.394215 52.053631,75.535170 L 52.053631,77.604189 "/>
        <path style="fill:none;stroke-width:0.280000;stroke-linecap:round;stroke-linejoin:round;stroke-opacity:1;stroke:#ff6600;" d="M 52.714616,78.738542 C 52.615201,78.729592 52.557816,78.651843 52.542459,78.505294 L 52.542459,75.538526 C 52.559432,75.377435 52.618434,75.298287 52.719465,75.301084 C 52.820496,75.303881 52.875457,75.383028 52.884348,75.538526 L 52.884348,78.270369 L 54.003367,78.268691 C 54.118138,78.286590 54.174918,78.366856 54.173705,78.509490 C 54.172493,78.652123 54.115310,78.728473 54.002155,78.738542 L 52.714616,78.738542 "/>
        <path style="fill:none;stroke-width:0.280000;stroke-linecap:round;stroke-linejoin:round;stroke-opacity:1;stroke:#ff6600;" d="M 54.639256,78.501938 L 54.639256,75.773451 L 54.194316,75.773451 C 54.081161,75.761146 54.024786,75.682557 54.025190,75.537687 C 54.025594,75.392817 54.081969,75.313669 54.194316,75.300245 L 55.424873,75.300245 C 55.536412,75.312550 55.592383,75.391698 55.592787,75.537687 C 55.593191,75.683676 55.537220,75.762264 55.424873,75.773451 L 54.981145,75.773451 L 54.981145,78.501938 C 54.962555,78.660792 54.902947,78.739101 54.802320,78.736863 C 54.701693,78.734626 54.647339,78.656318 54.639256,78.501938 "/>
        <path style="fill:none;stroke-width:0.280000;stroke-linecap:round;stroke-linejoin:round;stroke-opacity:1;stroke:#ff6600;" d="M 44.119634,81.689729 L 44.119634,81.831899 L 44.119634,87.689729 L 58.065939,87.689729 L 58.065939,81.689729 L 44.119634,81.689729 "/>
        <path style="fill:none;stroke-width:0.280000;stroke-linecap:round;stroke-linejoin:round;stroke-opacity:1;stroke:#ff6600;" d="M 44.690422,82.287901 L 57.476265,82.287901 L 57.476265,87.189729 L 44.690422,87.189729 L 44.690422,82.287901 "/>
        <path style="fill:none;stroke-width:0.280000;stroke-linecap:round;stroke-linejoin:round;stroke-opacity:1;stroke:#ff6600;" d="M 49.443193,84.088897 C 49.554384,84.396961 49.596383,84.716703 49.569189,85.048122 C 49.541996,85.379541 49.443193,85.682044 49.272780,85.955631 C 49.165215,86.125789 49.018370,86.270368 48.832246,86.389367 C 48.646122,86.508367 48.440660,86.550072 48.215861,86.514484 C 47.849655,86.455540 47.569260,86.279821 47.374676,85.987327 C 47.180091,85.694833 47.068598,85.369253 47.040196,85.010587 C 47.011794,84.651920 47.064368,84.302429 47.197918,83.962113 C 47.331468,83.621797 47.544484,83.374344 47.836965,83.219756 C 47.979580,83.144131 48.128841,83.106318 48.284751,83.106318 C 48.582066,83.106318 48.824994,83.209469 49.013536,83.415772 C 49.202077,83.622075 49.345296,83.846450 49.443193,84.088897 "/>
        <path style="fill:none;stroke-width:0.280000;stroke-linecap:round;stroke-linejoin:round;stroke-opacity:1;stroke:#ff6600;" d="M 48.299254,83.580091 C 48.076872,83.580091 47.908574,83.690193 47.794362,83.910398 C 47.680149,84.130603 47.607935,84.318555 47.577720,84.474255 C 47.554757,84.587694 47.546297,84.725044 47.552340,84.886305 C 47.558383,85.047565 47.583763,85.206880 47.628482,85.364249 C 47.673200,85.521617 47.740277,85.663415 47.829713,85.789644 C 47.919150,85.915872 48.036384,85.999561 48.181416,86.040710 C 48.350619,86.089645 48.496558,86.058783 48.619230,85.948124 C 48.741903,85.837466 48.834663,85.719857 48.897510,85.595296 C 48.961566,85.467400 49.005378,85.299466 49.028945,85.091495 C 49.052513,84.883524 49.047074,84.675831 49.012629,84.468416 C 48.978184,84.261001 48.910805,84.074161 48.810491,83.907896 C 48.710177,83.741630 48.567563,83.635698 48.382647,83.590100 C 48.358475,83.583428 48.330677,83.580091 48.299254,83.580091 "/>
        <path style="fill:none;stroke-width:0.280000;stroke-linecap:round;stroke-linejoin:round;stroke-opacity:1;stroke:#ff6600;" d="M 50.055952,86.285938 L 50.055952,83.343204 C 50.077707,83.196401 50.163518,83.117439 50.313384,83.106318 L 52.068269,83.106318 C 52.236265,83.118551 52.320262,83.197235 52.320262,83.342370 C 52.320262,83.487505 52.235056,83.565077 52.064644,83.575087 L 50.565377,83.575087 L 50.565377,84.487601 L 51.734696,84.487601 C 51.901483,84.498722 51.986085,84.573792 51.988502,84.712810 C 51.990919,84.851828 51.906317,84.933015 51.734696,84.956370 L 50.565377,84.956370 L 50.565377,86.285938 C 50.553291,86.439414 50.471408,86.517264 50.319729,86.519488 C 50.168050,86.521713 50.080124,86.443863 50.055952,86.285938 "/>
        <path style="fill:none;stroke-width:0.280000;stroke-linecap:round;stroke-linejoin:round;stroke-opacity:1;stroke:#ff6600;" d="M 52.827874,86.285938 L 52.827874,83.343204 C 52.849628,83.196401 52.935439,83.117439 53.085305,83.106318 L 54.840191,83.106318 C 55.008186,83.118551 55.092184,83.197235 55.092184,83.342370 C 55.092184,83.487505 55.006977,83.565077 54.836565,83.575087 L 53.337298,83.575087 L 53.337298,84.487601 L 54.506617,84.487601 C 54.673404,84.498722 54.758006,84.573792 54.760423,84.712810 C 54.762840,84.851828 54.678238,84.933015 54.506617,84.956370 L 53.337298,84.956370 L 53.337298,86.285938 C 53.325212,86.439414 53.243330,86.517264 53.091650,86.519488 C 52.939971,86.521713 52.852046,86.443863 52.827874,86.285938 "/>
        <path style="fill:none;stroke-width:0.280000;stroke-linecap:round;stroke-linejoin:round;stroke-opacity:1;stroke:#ff6600;" d="M 104.243295,88.724235 L 104.243295,72.722235 L 88.243306,72.722235 L 88.243306,88.724235 L 104.243295,88.724235 "/>
        <path style="fill:none;stroke-width:0.280000;stroke-linecap:round;stroke-linejoin:round;stroke-opacity:1;stroke:#ff6600;" d="M 88.103804,80.723235 L 104.103793,80.723235 "/>
        <path style="fill:none;stroke-width:0.280000;stroke-linecap:round;stroke-linejoin:round;stroke-opacity:1;stroke:#ff6600;" d="M 92.243300,78.549509 L 92.243300,75.589453 C 92.257849,75.441785 92.315234,75.362358 92.415457,75.351171 L 93.589033,75.351171 C 93.701380,75.363477 93.757553,75.442624 93.757553,75.588614 C 93.757553,75.734603 93.700571,75.812631 93.586608,75.822700 L 92.583977,75.822700 L 92.583977,76.740586 L 93.365957,76.740586 C 93.477495,76.751773 93.534072,76.827284 93.535689,76.967121 C 93.537305,77.106957 93.480728,77.188621 93.365957,77.212114 L 92.583977,77.212114 L 92.583977,78.549509 C 92.575894,78.703888 92.521136,78.782197 92.419701,78.784434 C 92.318265,78.786671 92.259465,78.708363 92.243300,78.549509 "/>
        <path style="fill:none;stroke-width:0.280000;stroke-linecap:round;stroke-linejoin:round;stroke-opacity:1;stroke:#ff6600;" d="M 94.761215,77.685320 L 94.392654,76.275770 L 94.021668,77.685320 L 94.761215,77.685320 "/>
        <path style="fill:none;stroke-width:0.280000;stroke-linecap:round;stroke-linejoin:round;stroke-opacity:1;stroke:#ff6600;" d="M 94.392654,76.275770 L 94.761215,77.685320 L 94.392654,76.275770 "/>
        <path style="fill:none;stroke-width:0.280000;stroke-linecap:round;stroke-linejoin:round;stroke-opacity:1;stroke:#ff6600;" d="M 93.456703,78.463929 C 93.586022,77.970586 93.715544,77.477523 93.845268,76.984740 C 93.974992,76.491957 94.104918,75.998893 94.235046,75.505551 C 94.261718,75.403750 94.314658,75.352290 94.393866,75.351171 C 94.473075,75.350053 94.526419,75.401513 94.553899,75.505551 L 95.331030,78.472319 C 95.355277,78.630055 95.320523,78.731855 95.226766,78.777722 C 95.133009,78.823588 95.060671,78.776603 95.009751,78.636767 L 94.884877,78.156848 L 93.896794,78.156848 L 93.775557,78.625021 C 93.723829,78.765976 93.650278,78.812122 93.554905,78.763459 C 93.459532,78.714795 93.426798,78.614952 93.456703,78.463929 "/>
        <path style="fill:none;stroke-width:0.280000;stroke-linecap:round;stroke-linejoin:round;stroke-opacity:1;stroke:#ff6600;" d="M 97.204144,77.655115 L 97.204144,77.688676 C 97.201720,77.744611 97.200103,77.778171 97.199295,77.789358 C 97.165348,78.131678 97.063913,78.384222 96.894990,78.546992 C 96.726066,78.709761 96.545826,78.785832 96.354272,78.775205 C 96.162717,78.764577 95.987529,78.668090 95.828708,78.485743 C 95.669888,78.303397 95.583607,78.037708 95.569867,77.688676 L 95.569867,77.655115 L 95.569867,75.586097 C 95.569867,75.552536 95.574312,75.522331 95.583203,75.495483 C 95.621999,75.378020 95.686457,75.331594 95.776576,75.356206 C 95.866696,75.380817 95.911756,75.457447 95.911756,75.586097 L 95.911756,77.655115 C 95.923880,77.912414 96.005715,78.104829 96.157261,78.232360 C 96.308808,78.359891 96.468235,78.354297 96.635542,78.215580 C 96.710709,78.154052 96.765872,78.074625 96.801031,77.977298 C 96.836189,77.879972 96.857002,77.772578 96.863468,77.655115 L 96.863468,75.586097 C 96.863468,75.565960 96.864276,75.550858 96.865893,75.540790 C 96.884482,75.403191 96.945505,75.341103 97.048961,75.354528 C 97.152416,75.367952 97.204144,75.445141 97.204144,75.586097 L 97.204144,77.655115 "/>
        <path style="fill:none;stroke-width:0.280000;stroke-linecap:round;stroke-linejoin:round;stroke-opacity:1;stroke:#ff6600;" d="M 97.865130,78.789468 C 97.765715,78.780519 97.708329,78.702770 97.692973,78.556221 L 97.692973,75.589453 C 97.709946,75.428361 97.768948,75.349214 97.869979,75.352010 C 97.971010,75.354807 98.025971,75.433955 98.034862,75.589453 L 98.034862,78.321296 L 99.153881,78.319618 C 99.268652,78.337517 99.325431,78.417783 99.324219,78.560416 C 99.323007,78.703049 99.265823,78.779400 99.152668,78.789468 L 97.865130,78.789468 "/>
        <path style="fill:none;stroke-width:0.280000;stroke-linecap:round;stroke-linejoin:round;stroke-opacity:1;stroke:#ff6600;" d="M 99.789770,78.552865 L 99.789770,75.824378 L 99.344829,75.824378 C 99.231675,75.812072 99.175299,75.733484 99.175704,75.588614 C 99.176108,75.443743 99.232483,75.364596 99.344829,75.351171 L 100.575387,75.351171 C 100.686925,75.363477 100.742896,75.442624 100.743300,75.588614 C 100.743705,75.734603 100.687733,75.813191 100.575387,75.824378 L 100.131659,75.824378 L 100.131659,78.552865 C 100.113069,78.711719 100.053461,78.790027 99.952834,78.787790 C 99.852207,78.785553 99.797852,78.707244 99.789770,78.552865 "/>
        <path style="fill:none;stroke-width:0.280000;stroke-linecap:round;stroke-linejoin:round;stroke-opacity:1;stroke:#ff6600;" d="M 89.270148,81.740656 L 89.270148,81.882825 L 89.270148,87.740656 L 103.216453,87.740656 L 103.216453,81.740656 L 89.270148,81.740656 "/>
        <path style="fill:none;stroke-width:0.280000;stroke-linecap:round;stroke-linejoin:round;stroke-opacity:1;stroke:#ff6600;" d="M 89.840936,82.338827 L 102.626778,82.338827 L 102.626778,87.240656 L 89.840936,87.240656 L 89.840936,82.338827 "/>
        <path style="fill:none;stroke-width:0.280000;stroke-linecap:round;stroke-linejoin:round;stroke-opacity:1;stroke:#ff6600;" d="M 94.593706,84.139824 C 94.704897,84.447888 94.746896,84.767629 94.719703,85.099048 C 94.692509,85.430467 94.593706,85.732970 94.423294,86.006558 C 94.315729,86.176716 94.168884,86.321295 93.982760,86.440294 C 93.796635,86.559293 93.591174,86.600999 93.366374,86.565410 C 93.000169,86.506467 92.719774,86.330748 92.525189,86.038254 C 92.330605,85.745760 92.219112,85.420180 92.190710,85.061513 C 92.162308,84.702847 92.214882,84.353355 92.348432,84.013039 C 92.481982,83.672723 92.694998,83.425271 92.987478,83.270683 C 93.130093,83.195057 93.279355,83.157244 93.435264,83.157244 C 93.732580,83.157244 93.975508,83.260396 94.164049,83.466698 C 94.352591,83.673001 94.495810,83.897376 94.593706,84.139824 "/>
        <path style="fill:none;stroke-width:0.280000;stroke-linecap:round;stroke-linejoin:round;stroke-opacity:1;stroke:#ff6600;" d="M 93.449767,83.631018 C 93.227385,83.631018 93.059088,83.741120 92.944875,83.961325 C 92.830663,84.181529 92.758449,84.369481 92.728234,84.525182 C 92.705271,84.638620 92.696810,84.775970 92.702853,84.937231 C 92.708896,85.098492 92.734277,85.257807 92.778995,85.415175 C 92.823713,85.572544 92.890791,85.714342 92.980227,85.840570 C 93.069663,85.966799 93.186897,86.050487 93.331929,86.091637 C 93.501133,86.140571 93.647071,86.109709 93.769744,85.999051 C 93.892417,85.888392 93.985177,85.770783 94.048024,85.646223 C 94.112080,85.518326 94.155891,85.350393 94.179459,85.142422 C 94.203027,84.934451 94.197588,84.726758 94.163143,84.519343 C 94.128698,84.311928 94.061318,84.125088 93.961005,83.958822 C 93.860691,83.792557 93.718076,83.686625 93.533161,83.641027 C 93.508989,83.634354 93.481191,83.631018 93.449767,83.631018 "/>
        <path style="fill:none;stroke-width:0.280000;stroke-linecap:round;stroke-linejoin:round;stroke-opacity:1;stroke:#ff6600;" d="M 95.206466,86.336865 L 95.206466,83.394131 C 95.228221,83.247328 95.314031,83.168366 95.463897,83.157244 L 97.218783,83.157244 C 97.386778,83.169478 97.470776,83.248162 97.470776,83.393297 C 97.470776,83.538432 97.385570,83.616004 97.215157,83.626013 L 95.715890,83.626013 L 95.715890,84.538527 L 96.885210,84.538527 C 97.051996,84.549649 97.136598,84.624719 97.139015,84.763737 C 97.141433,84.902755 97.056831,84.983941 96.885210,85.007296 L 95.715890,85.007296 L 95.715890,86.336865 C 95.703804,86.490341 95.621922,86.568191 95.470243,86.570415 C 95.318563,86.572639 95.230638,86.494789 95.206466,86.336865 "/>
        <path style="fill:none;stroke-width:0.280000;stroke-linecap:round;stroke-linejoin:round;stroke-opacity:1;stroke:#ff6600;" d="M 97.978387,86.336865 L 97.978387,83.394131 C 98.000142,83.247328 98.085953,83.168366 98.235819,83.157244 L 99.990704,83.157244 C 100.158700,83.169478 100.242697,83.248162 100.242697,83.393297 C 100.242697,83.538432 100.157491,83.616004 99.987079,83.626013 L 98.487812,83.626013 L 98.487812,84.538527 L 99.657131,84.538527 C 99.823918,84.549649 99.908520,84.624719 99.910937,84.763737 C 99.913354,84.902755 99.828752,84.983941 99.657131,85.007296 L 98.487812,85.007296 L 98.487812,86.336865 C 98.475726,86.490341 98.393843,86.568191 98.242164,86.570415 C 98.090485,86.572639 98.002559,86.494789 97.978387,86.336865 "/>
        <path style="fill:none;stroke-width:0.280000;stroke-linecap:round;stroke-linejoin:round;stroke-opacity:1;stroke:#ff6600;" d="M 149.493295,88.974235 L 149.493295,72.972235 L 133.493306,72.972235 L 133.493306,88.974235 L 149.493295,88.974235 "/>
        <path style="fill:none;stroke-width:0.280000;stroke-linecap:round;stroke-linejoin:round;stroke-opacity:1;stroke:#ff6600;" d="M 133.353804,80.973235 L 149.353793,80.973235 "/>
        <path style="fill:none;stroke-width:0.280000;stroke-linecap:round;stroke-linejoin:round;stroke-opacity:1;stroke:#ff6600;" d="M 137.493300,78.799509 L 137.493300,75.839453 C 137.507849,75.691785 137.565234,75.612358 137.665457,75.601171 L 138.839033,75.601171 C 138.951380,75.613477 139.007553,75.692624 139.007553,75.838614 C 139.007553,75.984603 138.950571,76.062631 138.836608,76.072700 L 137.833977,76.072700 L 137.833977,76.990586 L 138.615957,76.990586 C 138.727495,77.001773 138.784072,77.077284 138.785689,77.217121 C 138.787305,77.356957 138.730728,77.438621 138.615957,77.462114 L 137.833977,77.462114 L 137.833977,78.799509 C 137.825894,78.953888 137.771136,79.032197 137.669701,79.034434 C 137.568265,79.036671 137.509465,78.958363 137.493300,78.799509 "/>
        <path style="fill:none;stroke-width:0.280000;stroke-linecap:round;stroke-linejoin:round;stroke-opacity:1;stroke:#ff6600;" d="M 140.011215,77.935320 L 139.642654,76.525770 L 139.271668,77.935320 L 140.011215,77.935320 "/>
        <path style="fill:none;stroke-width:0.280000;stroke-linecap:round;stroke-linejoin:round;stroke-opacity:1;stroke:#ff6600;" d="M 139.642654,76.525770 L 140.011215,77.935320 L 139.642654,76.525770 "/>
        <path style="fill:none;stroke-width:0.280000;stroke-linecap:round;stroke-linejoin:round;stroke-opacity:1;stroke:#ff6600;" d="M 138.706703,78.713929 C 138.836022,78.220586 138.965544,77.727523 139.095268,77.234740 C 139.224992,76.741957 139.354918,76.248893 139.485046,75.755551 C 139.511718,75.653750 139.564658,75.602290 139.643866,75.601171 C 139.723075,75.600053 139.776419,75.651513 139.803899,75.755551 L 140.581030,78.722319 C 140.605277,78.880055 140.570523,78.981855 140.476766,79.027722 C 140.383009,79.073588 140.310671,79.026603 140.259751,78.886767 L 140.134877,78.406848 L 139.146794,78.406848 L 139.025557,78.875021 C 138.973829,79.015976 138.900278,79.062122 138.804905,79.013459 C 138.709532,78.964795 138.676798,78.864952 138.706703,78.713929 "/>
        <path style="fill:none;stroke-width:0.280000;stroke-linecap:round;stroke-linejoin:round;stroke-opacity:1;stroke:#ff6600;" d="M 142.454144,77.905115 L 142.454144,77.938676 C 142.451720,77.994611 142.450103,78.028171 142.449295,78.039358 C 142.415348,78.381678 142.313913,78.634222 142.144990,78.796992 C 141.976066,78.959761 141.795826,79.035832 141.604272,79.025205 C 141.412717,79.014577 141.237529,78.918090 141.078708,78.735743 C 140.919888,78.553397 140.833607,78.287708 140.819867,77.938676 L 140.819867,77.905115 L 140.819867,75.836097 C 140.819867,75.802536 140.824312,75.772331 140.833203,75.745483 C 140.871999,75.628020 140.936457,75.581594 141.026576,75.606206 C 141.116696,75.630817 141.161756,75.707447 141.161756,75.836097 L 141.161756,77.905115 C 141.173880,78.162414 141.255715,78.354829 141.407261,78.482360 C 141.558808,78.609891 141.718235,78.604297 141.885542,78.465580 C 141.960709,78.404052 142.015872,78.324625 142.051031,78.227298 C 142.086189,78.129972 142.107002,78.022578 142.113468,77.905115 L 142.113468,75.836097 C 142.113468,75.815960 142.114276,75.800858 142.115893,75.790790 C 142.134482,75.653191 142.195505,75.591103 142.298961,75.604528 C 142.402416,75.617952 142.454144,75.695141 142.454144,75.836097 L 142.454144,77.905115 "/>
        <path style="fill:none;stroke-width:0.280000;stroke-linecap:round;stroke-linejoin:round;stroke-opacity:1;stroke:#ff6600;" d="M 143.115130,79.039468 C 143.015715,79.030519 142.958329,78.952770 142.942973,78.806221 L 142.942973,75.839453 C 142.959946,75.678361 143.018948,75.599214 143.119979,75.602010 C 143.221010,75.604807 143.275971,75.683955 143.284862,75.839453 L 143.284862,78.571296 L 144.403881,78.569618 C 144.518652,78.587517 144.575431,78.667783 144.574219,78.810416 C 144.573007,78.953049 144.515823,79.029400 144.402668,79.039468 L 143.115130,79.039468 "/>
        <path style="fill:none;stroke-width:0.280000;stroke-linecap:round;stroke-linejoin:round;stroke-opacity:1;stroke:#ff6600;" d="M 145.039770,78.802865 L 145.039770,76.074378 L 144.594829,76.074378 C 144.481675,76.062072 144.425299,75.983484 144.425704,75.838614 C 144.426108,75.693743 144.482483,75.614596 144.594829,75.601171 L 145.825387,75.601171 C 145.936925,75.613477 145.992896,75.692624 145.993300,75.838614 C 145.993705,75.984603 145.937733,76.063191 145.825387,76.074378 L 145.381659,76.074378 L 145.381659,78.802865 C 145.363069,78.961719 145.303461,79.040027 145.202834,79.037790 C 145.102207,79.035553 145.047852,78.957244 145.039770,78.802865 "/>
        <path style="fill:none;stroke-width:0.280000;stroke-linecap:round;stroke-linejoin:round;stroke-opacity:1;stroke:#ff6600;" d="M 134.520148,81.990656 L 134.520148,82.132825 L 134.520148,87.990656 L 148.466453,87.990656 L 148.466453,81.990656 L 134.520148,81.990656 "/>
        <path style="fill:none;stroke-width:0.280000;stroke-linecap:round;stroke-linejoin:round;stroke-opacity:1;stroke:#ff6600;" d="M 135.090936,82.588827 L 147.876778,82.588827 L 147.876778,87.490656 L 135.090936,87.490656 L 135.090936,82.588827 "/>
        <path style="fill:none;stroke-width:0.280000;stroke-linecap:round;stroke-linejoin:round;stroke-opacity:1;stroke:#ff6600;" d="M 139.843706,84.389824 C 139.954897,84.697888 139.996896,85.017629 139.969703,85.349048 C 139.942509,85.680467 139.843706,85.982970 139.673294,86.256558 C 139.565729,86.426716 139.418884,86.571295 139.232760,86.690294 C 139.046635,86.809293 138.841174,86.850999 138.616374,86.815410 C 138.250169,86.756467 137.969774,86.580748 137.775189,86.288254 C 137.580605,85.995760 137.469112,85.670180 137.440710,85.311513 C 137.412308,84.952847 137.464882,84.603355 137.598432,84.263039 C 137.731982,83.922723 137.944998,83.675271 138.237478,83.520683 C 138.380093,83.445057 138.529355,83.407244 138.685264,83.407244 C 138.982580,83.407244 139.225508,83.510396 139.414049,83.716698 C 139.602591,83.923001 139.745810,84.147376 139.843706,84.389824 "/>
        <path style="fill:none;stroke-width:0.280000;stroke-linecap:round;stroke-linejoin:round;stroke-opacity:1;stroke:#ff6600;" d="M 138.699767,83.881018 C 138.477385,83.881018 138.309088,83.991120 138.194875,84.211325 C 138.080663,84.431529 138.008449,84.619481 137.978234,84.775182 C 137.955271,84.888620 137.946810,85.025970 137.952853,85.187231 C 137.958896,85.348492 137.984277,85.507807 138.028995,85.665175 C 138.073713,85.822544 138.140791,85.964342 138.230227,86.090570 C 138.319663,86.216799 138.436897,86.300487 138.581929,86.341637 C 138.751133,86.390571 138.897071,86.359709 139.019744,86.249051 C 139.142417,86.138392 139.235177,86.020783 139.298024,85.896223 C 139.362080,85.768326 139.405891,85.600393 139.429459,85.392422 C 139.453027,85.184451 139.447588,84.976758 139.413143,84.769343 C 139.378698,84.561928 139.311318,84.375088 139.211005,84.208822 C 139.110691,84.042557 138.968076,83.936625 138.783161,83.891027 C 138.758989,83.884354 138.731191,83.881018 138.699767,83.881018 "/>
        <path style="fill:none;stroke-width:0.280000;stroke-linecap:round;stroke-linejoin:round;stroke-opacity:1;stroke:#ff6600;" d="M 140.456466,86.586865 L 140.456466,83.644131 C 140.478221,83.497328 140.564031,83.418366 140.713897,83.407244 L 142.468783,83.407244 C 142.636778,83.419478 142.720776,83.498162 142.720776,83.643297 C 142.720776,83.788432 142.635570,83.866004 142.465157,83.876013 L 140.965890,83.876013 L 140.965890,84.788527 L 142.135210,84.788527 C 142.301996,84.799649 142.386598,84.874719 142.389015,85.013737 C 142.391433,85.152755 142.306831,85.233941 142.135210,85.257296 L 140.965890,85.257296 L 140.965890,86.586865 C 140.953804,86.740341 140.871922,86.818191 140.720243,86.820415 C 140.568563,86.822639 140.480638,86.744789 140.456466,86.586865 "/>
        <path style="fill:none;stroke-width:0.280000;stroke-linecap:round;stroke-linejoin:round;stroke-opacity:1;stroke:#ff6600;" d="M 143.228387,86.586865 L 143.228387,83.644131 C 143.250142,83.497328 143.335953,83.418366 143.485819,83.407244 L 145.240704,83.407244 C 145.408700,83.419478 145.492697,83.498162 145.492697,83.643297 C 145.492697,83.788432 145.407491,83.866004 145.237079,83.876013 L 143.737812,83.876013 L 143.737812,84.788527 L 144.907131,84.788527 C 145.073918,84.799649 145.158520,84.874719 145.160937,85.013737 C 145.163354,85.152755 145.078752,85.233941 144.907131,85.257296 L 143.737812,85.257296 L 143.737812,86.586865 C 143.725726,86.740341 143.643843,86.818191 143.492164,86.820415 C 143.340485,86.822639 143.252559,86.744789 143.228387,86.586865 "/>
        <path style="fill:none;stroke-width:0.280000;stroke-linecap:round;stroke-linejoin:round;stroke-opacity:1;stroke:#ff6600;" d="M 58.993295,158.724235 L 58.993295,142.722235 L 42.993306,142.722235 L 42.993306,158.724235 L 58.993295,158.724235 "/>
        <path style="fill:none;stroke-width:0.280000;stroke-linecap:round;stroke-linejoin:round;stroke-opacity:1;stroke:#ff6600;" d="M 42.853804,150.723235 L 58.853793,150.723235 "/>
        <path style="fill:none;stroke-width:0.280000;stroke-linecap:round;stroke-linejoin:round;stroke-opacity:1;stroke:#ff6600;" d="M 46.993300,148.549509 L 46.993300,145.589453 C 47.007849,145.441785 47.065234,145.362358 47.165457,145.351171 L 48.339033,145.351171 C 48.451380,145.363477 48.507553,145.442624 48.507553,145.588614 C 48.507553,145.734603 48.450571,145.812631 48.336608,145.822700 L 47.333977,145.822700 L 47.333977,146.740586 L 48.115957,146.740586 C 48.227495,146.751773 48.284072,146.827284 48.285689,146.967121 C 48.287305,147.106957 48.230728,147.188621 48.115957,147.212114 L 47.333977,147.212114 L 47.333977,148.549509 C 47.325894,148.703888 47.271136,148.782197 47.169701,148.784434 C 47.068265,148.786671 47.009465,148.708363 46.993300,148.549509 "/>
        <path style="fill:none;stroke-width:0.280000;stroke-linecap:round;stroke-linejoin:round;stroke-opacity:1;stroke:#ff6600;" d="M 49.511215,147.685320 L 49.142654,146.275770 L 48.771668,147.685320 L 49.511215,147.685320 "/>
        <path style="fill:none;stroke-width:0.280000;stroke-linecap:round;stroke-linejoin:round;stroke-opacity:1;stroke:#ff6600;" d="M 49.142654,146.275770 L 49.511215,147.685320 L 49.142654,146.275770 "/>
        <path style="fill:none;stroke-width:0.280000;stroke-linecap:round;stroke-linejoin:round;stroke-opacity:1;stroke:#ff6600;" d="M 48.206703,148.463929 C 48.336022,147.970586 48.465544,147.477523 48.595268,146.984740 C 48.724992,146.491957 48.854918,145.998893 48.985046,145.505551 C 49.011718,145.403750 49.064658,145.352290 49.143866,145.351171 C 49.223075,145.350053 49.276419,145.401513 49.303899,145.505551 L 50.081030,148.472319 C 50.105277,148.630055 50.070523,148.731855 49.976766,148.777722 C 49.883009,148.823588 49.810671,148.776603 49.759751,148.636767 L 49.634877,148.156848 L 48.646794,148.156848 L 48.525557,148.625021 C 48.473829,148.765976 48.400278,148.812122 48.304905,148.763459 C 48.209532,148.714795 48.176798,148.614952 48.206703,148.463929 "/>
        <path style="fill:none;stroke-width:0.280000;stroke-linecap:round;stroke-linejoin:round;stroke-opacity:1;stroke:#ff6600;" d="M 51.954144,147.655115 L 51.954144,147.688676 C 51.951720,147.744611 51.950103,147.778171 51.949295,147.789358 C 51.915348,148.131678 51.813913,148.384222 51.644990,148.546992 C 51.476066,148.709761 51.295826,148.785832 51.104272,148.775205 C 50.912717,148.764577 50.737529,148.668090 50.578708,148.485743 C 50.419888,148.303397 50.333607,148.037708 50.319867,147.688676 L 50.319867,147.655115 L 50.319867,145.586097 C 50.319867,145.552536 50.324312,145.522331 50.333203,145.495483 C 50.371999,145.378020 50.436457,145.331594 50.526576,145.356206 C 50.616696,145.380817 50.661756,145.457447 50.661756,145.586097 L 50.661756,147.655115 C 50.673880,147.912414 50.755715,148.104829 50.907261,148.232360 C 51.058808,148.359891 51.218235,148.354297 51.385542,148.215580 C 51.460709,148.154052 51.515872,148.074625 51.551031,147.977298 C 51.586189,147.879972 51.607002,147.772578 51.613468,147.655115 L 51.613468,145.586097 C 51.613468,145.565960 51.614276,145.550858 51.615893,145.540790 C 51.634482,145.403191 51.695505,145.341103 51.798961,145.354528 C 51.902416,145.367952 51.954144,145.445141 51.954144,145.586097 L 51.954144,147.655115 "/>
        <path style="fill:none;stroke-width:0.280000;stroke-linecap:round;stroke-linejoin:round;stroke-opacity:1;stroke:#ff6600;" d="M 52.615130,148.789468 C 52.515715,148.780519 52.458329,148.702770 52.442973,148.556221 L 52.442973,145.589453 C 52.459946,145.428361 52.518948,145.349214 52.619979,145.352010 C 52.721010,145.354807 52.775971,145.433955 52.784862,145.589453 L 52.784862,148.321296 L 53.903881,148.319618 C 54.018652,148.337517 54.075431,148.417783 54.074219,148.560416 C 54.073007,148.703049 54.015823,148.779400 53.902668,148.789468 L 52.615130,148.789468 "/>
        <path style="fill:none;stroke-width:0.280000;stroke-linecap:round;stroke-linejoin:round;stroke-opacity:1;stroke:#ff6600;" d="M 54.539770,148.552865 L 54.539770,145.824378 L 54.094829,145.824378 C 53.981675,145.812072 53.925299,145.733484 53.925704,145.588614 C 53.926108,145.443743 53.982483,145.364596 54.094829,145.351171 L 55.325387,145.351171 C 55.436925,145.363477 55.492896,145.442624 55.493300,145.588614 C 55.493705,145.734603 55.437733,145.813191 55.325387,145.824378 L 54.881659,145.824378 L 54.881659,148.552865 C 54.863069,148.711719 54.803461,148.790027 54.702834,148.787790 C 54.602207,148.785553 54.547852,148.707244 54.539770,148.552865 "/>
        <path style="fill:none;stroke-width:0.280000;stroke-linecap:round;stroke-linejoin:round;stroke-opacity:1;stroke:#ff6600;" d="M 44.020148,151.740656 L 44.020148,151.882825 L 44.020148,157.740656 L 57.966453,157.740656 L 57.966453,151.740656 L 44.020148,151.740656 "/>
        <path style="fill:none;stroke-width:0.280000;stroke-linecap:round;stroke-linejoin:round;stroke-opacity:1;stroke:#ff6600;" d="M 44.590936,152.338827 L 57.376778,152.338827 L 57.376778,157.240656 L 44.590936,157.240656 L 44.590936,152.338827 "/>
        <path style="fill:none;stroke-width:0.280000;stroke-linecap:round;stroke-linejoin:round;stroke-opacity:1;stroke:#ff6600;" d="M 49.343706,154.139824 C 49.454897,154.447888 49.496896,154.767629 49.469703,155.099048 C 49.442509,155.430467 49.343706,155.732970 49.173294,156.006558 C 49.065729,156.176716 48.918884,156.321295 48.732760,156.440294 C 48.546635,156.559293 48.341174,156.600999 48.116374,156.565410 C 47.750169,156.506467 47.469774,156.330748 47.275189,156.038254 C 47.080605,155.745760 46.969112,155.420180 46.940710,155.061513 C 46.912308,154.702847 46.964882,154.353355 47.098432,154.013039 C 47.231982,153.672723 47.444998,153.425271 47.737478,153.270683 C 47.880093,153.195057 48.029355,153.157244 48.185264,153.157244 C 48.482580,153.157244 48.725508,153.260396 48.914049,153.466698 C 49.102591,153.673001 49.245810,153.897376 49.343706,154.139824 "/>
        <path style="fill:none;stroke-width:0.280000;stroke-linecap:round;stroke-linejoin:round;stroke-opacity:1;stroke:#ff6600;" d="M 48.199767,153.631018 C 47.977385,153.631018 47.809088,153.741120 47.694875,153.961325 C 47.580663,154.181529 47.508449,154.369481 47.478234,154.525182 C 47.455271,154.638620 47.446810,154.775970 47.452853,154.937231 C 47.458896,155.098492 47.484277,155.257807 47.528995,155.415175 C 47.573713,155.572544 47.640791,155.714342 47.730227,155.840570 C 47.819663,155.966799 47.936897,156.050487 48.081929,156.091637 C 48.251133,156.140571 48.397071,156.109709 48.519744,155.999051 C 48.642417,155.888392 48.735177,155.770783 48.798024,155.646223 C 48.862080,155.518326 48.905891,155.350393 48.929459,155.142422 C 48.953027,154.934451 48.947588,154.726758 48.913143,154.519343 C 48.878698,154.311928 48.811318,154.125088 48.711005,153.958822 C 48.610691,153.792557 48.468076,153.686625 48.283161,153.641027 C 48.258989,153.634354 48.231191,153.631018 48.199767,153.631018 "/>
        <path style="fill:none;stroke-width:0.280000;stroke-linecap:round;stroke-linejoin:round;stroke-opacity:1;stroke:#ff6600;" d="M 49.956466,156.336865 L 49.956466,153.394131 C 49.978221,153.247328 50.064031,153.168366 50.213897,153.157244 L 51.968783,153.157244 C 52.136778,153.169478 52.220776,153.248162 52.220776,153.393297 C 52.220776,153.538432 52.135570,153.616004 51.965157,153.626013 L 50.465890,153.626013 L 50.465890,154.538527 L 51.635210,154.538527 C 51.801996,154.549649 51.886598,154.624719 51.889015,154.763737 C 51.891433,154.902755 51.806831,154.983941 51.635210,155.007296 L 50.465890,155.007296 L 50.465890,156.336865 C 50.453804,156.490341 50.371922,156.568191 50.220243,156.570415 C 50.068563,156.572639 49.980638,156.494789 49.956466,156.336865 "/>
        <path style="fill:none;stroke-width:0.280000;stroke-linecap:round;stroke-linejoin:round;stroke-opacity:1;stroke:#ff6600;" d="M 52.728387,156.336865 L 52.728387,153.394131 C 52.750142,153.247328 52.835953,153.168366 52.985819,153.157244 L 54.740704,153.157244 C 54.908700,153.169478 54.992697,153.248162 54.992697,153.393297 C 54.992697,153.538432 54.907491,153.616004 54.737079,153.626013 L 53.237812,153.626013 L 53.237812,154.538527 L 54.407131,154.538527 C 54.573918,154.549649 54.658520,154.624719 54.660937,154.763737 C 54.663354,154.902755 54.578752,154.983941 54.407131,155.007296 L 53.237812,155.007296 L 53.237812,156.336865 C 53.225726,156.490341 53.143843,156.568191 52.992164,156.570415 C 52.840485,156.572639 52.752559,156.494789 52.728387,156.336865 "/>
        <path style="fill:none;stroke-width:0.280000;stroke-linecap:round;stroke-linejoin:round;stroke-opacity:1;stroke:#ff6600;" d="M 104.243295,158.820161 L 104.243295,142.818161 L 88.243306,142.818161 L 88.243306,158.820161 L 104.243295,158.820161 "/>
        <path style="fill:none;stroke-width:0.280000;stroke-linecap:round;stroke-linejoin:round;stroke-opacity:1;stroke:#ff6600;" d="M 88.103804,150.819161 L 104.103793,150.819161 "/>
        <path style="fill:none;stroke-width:0.280000;stroke-linecap:round;stroke-linejoin:round;stroke-opacity:1;stroke:#ff6600;" d="M 92.243300,148.645434 L 92.243300,145.685378 C 92.257849,145.537711 92.315234,145.458284 92.415457,145.447097 L 93.589033,145.447097 C 93.701380,145.459403 93.757553,145.538550 93.757553,145.684539 C 93.757553,145.830528 93.700571,145.908557 93.586608,145.918625 L 92.583977,145.918625 L 92.583977,146.836511 L 93.365957,146.836511 C 93.477495,146.847698 93.534072,146.923210 93.535689,147.063046 C 93.537305,147.202882 93.480728,147.284547 93.365957,147.308039 L 92.583977,147.308039 L 92.583977,148.645434 C 92.575894,148.799814 92.521136,148.878122 92.419701,148.880360 C 92.318265,148.882597 92.259465,148.804289 92.243300,148.645434 "/>
        <path style="fill:none;stroke-width:0.280000;stroke-linecap:round;stroke-linejoin:round;stroke-opacity:1;stroke:#ff6600;" d="M 94.761215,147.781246 L 94.392654,146.371695 L 94.021668,147.781246 L 94.761215,147.781246 "/>
        <path style="fill:none;stroke-width:0.280000;stroke-linecap:round;stroke-linejoin:round;stroke-opacity:1;stroke:#ff6600;" d="M 94.392654,146.371695 L 94.761215,147.781246 L 94.392654,146.371695 "/>
        <path style="fill:none;stroke-width:0.280000;stroke-linecap:round;stroke-linejoin:round;stroke-opacity:1;stroke:#ff6600;" d="M 93.456703,148.559855 C 93.586022,148.066512 93.715544,147.573449 93.845268,147.080665 C 93.974992,146.587882 94.104918,146.094819 94.235046,145.601476 C 94.261718,145.499676 94.314658,145.448216 94.393866,145.447097 C 94.473075,145.445978 94.526419,145.497438 94.553899,145.601476 L 95.331030,148.568245 C 95.355277,148.725980 95.320523,148.827781 95.226766,148.873647 C 95.133009,148.919514 95.060671,148.872529 95.009751,148.732692 L 94.884877,148.252774 L 93.896794,148.252774 L 93.775557,148.720946 C 93.723829,148.861901 93.650278,148.908047 93.554905,148.859384 C 93.459532,148.810721 93.426798,148.710878 93.456703,148.559855 "/>
        <path style="fill:none;stroke-width:0.280000;stroke-linecap:round;stroke-linejoin:round;stroke-opacity:1;stroke:#ff6600;" d="M 97.204144,147.751041 L 97.204144,147.784602 C 97.201720,147.840536 97.200103,147.874097 97.199295,147.885284 C 97.165348,148.227603 97.063913,148.480148 96.894990,148.642917 C 96.726066,148.805687 96.545826,148.881758 96.354272,148.871130 C 96.162717,148.860503 95.987529,148.764016 95.828708,148.581669 C 95.669888,148.399322 95.583607,148.133633 95.569867,147.784602 L 95.569867,147.751041 L 95.569867,145.682022 C 95.569867,145.648461 95.574312,145.618257 95.583203,145.591408 C 95.621999,145.473946 95.686457,145.427520 95.776576,145.452131 C 95.866696,145.476742 95.911756,145.553373 95.911756,145.682022 L 95.911756,147.751041 C 95.923880,148.008340 96.005715,148.200755 96.157261,148.328286 C 96.308808,148.455816 96.468235,148.450223 96.635542,148.311505 C 96.710709,148.249977 96.765872,148.170550 96.801031,148.073224 C 96.836189,147.975898 96.857002,147.868504 96.863468,147.751041 L 96.863468,145.682022 C 96.863468,145.661886 96.864276,145.646783 96.865893,145.636715 C 96.884482,145.499116 96.945505,145.437029 97.048961,145.450453 C 97.152416,145.463877 97.204144,145.541067 97.204144,145.682022 L 97.204144,147.751041 "/>
        <path style="fill:none;stroke-width:0.280000;stroke-linecap:round;stroke-linejoin:round;stroke-opacity:1;stroke:#ff6600;" d="M 97.865130,148.885394 C 97.765715,148.876444 97.708329,148.798695 97.692973,148.652147 L 97.692973,145.685378 C 97.709946,145.524287 97.768948,145.445139 97.869979,145.447936 C 97.971010,145.450733 98.025971,145.529880 98.034862,145.685378 L 98.034862,148.417222 L 99.153881,148.415543 C 99.268652,148.433443 99.325431,148.513709 99.324219,148.656342 C 99.323007,148.798975 99.265823,148.875325 99.152668,148.885394 L 97.865130,148.885394 "/>
        <path style="fill:none;stroke-width:0.280000;stroke-linecap:round;stroke-linejoin:round;stroke-opacity:1;stroke:#ff6600;" d="M 99.789770,148.648791 L 99.789770,145.920303 L 99.344829,145.920303 C 99.231675,145.907998 99.175299,145.829410 99.175704,145.684539 C 99.176108,145.539669 99.232483,145.460521 99.344829,145.447097 L 100.575387,145.447097 C 100.686925,145.459403 100.742896,145.538550 100.743300,145.684539 C 100.743705,145.830528 100.687733,145.909116 100.575387,145.920303 L 100.131659,145.920303 L 100.131659,148.648791 C 100.113069,148.807645 100.053461,148.885953 99.952834,148.883716 C 99.852207,148.881478 99.797852,148.803170 99.789770,148.648791 "/>
        <path style="fill:none;stroke-width:0.280000;stroke-linecap:round;stroke-linejoin:round;stroke-opacity:1;stroke:#ff6600;" d="M 89.270148,151.836581 L 89.270148,151.978751 L 89.270148,157.836581 L 103.216453,157.836581 L 103.216453,151.836581 L 89.270148,151.836581 "/>
        <path style="fill:none;stroke-width:0.280000;stroke-linecap:round;stroke-linejoin:round;stroke-opacity:1;stroke:#ff6600;" d="M 89.840936,152.434753 L 102.626778,152.434753 L 102.626778,157.336581 L 89.840936,157.336581 L 89.840936,152.434753 "/>
        <path style="fill:none;stroke-width:0.280000;stroke-linecap:round;stroke-linejoin:round;stroke-opacity:1;stroke:#ff6600;" d="M 94.593706,154.235749 C 94.704897,154.543813 94.746896,154.863555 94.719703,155.194974 C 94.692509,155.526393 94.593706,155.828896 94.423294,156.102483 C 94.315729,156.272641 94.168884,156.417220 93.982760,156.536220 C 93.796635,156.655219 93.591174,156.696924 93.366374,156.661336 C 93.000169,156.602392 92.719774,156.426673 92.525189,156.134180 C 92.330605,155.841686 92.219112,155.516105 92.190710,155.157439 C 92.162308,154.798772 92.214882,154.449281 92.348432,154.108965 C 92.481982,153.768649 92.694998,153.521197 92.987478,153.366609 C 93.130093,153.290983 93.279355,153.253170 93.435264,153.253170 C 93.732580,153.253170 93.975508,153.356321 94.164049,153.562624 C 94.352591,153.768927 94.495810,153.993302 94.593706,154.235749 "/>
        <path style="fill:none;stroke-width:0.280000;stroke-linecap:round;stroke-linejoin:round;stroke-opacity:1;stroke:#ff6600;" d="M 93.449767,153.726943 C 93.227385,153.726943 93.059088,153.837046 92.944875,154.057250 C 92.830663,154.277455 92.758449,154.465407 92.728234,154.621107 C 92.705271,154.734546 92.696810,154.871896 92.702853,155.033157 C 92.708896,155.194418 92.734277,155.353732 92.778995,155.511101 C 92.823713,155.668469 92.890791,155.810268 92.980227,155.936496 C 93.069663,156.062724 93.186897,156.146413 93.331929,156.187562 C 93.501133,156.236497 93.647071,156.205635 93.769744,156.094976 C 93.892417,155.984318 93.985177,155.866709 94.048024,155.742149 C 94.112080,155.614252 94.155891,155.446318 94.179459,155.238347 C 94.203027,155.030376 94.197588,154.822683 94.163143,154.615269 C 94.128698,154.407854 94.061318,154.221013 93.961005,154.054748 C 93.860691,153.888482 93.718076,153.782551 93.533161,153.736953 C 93.508989,153.730280 93.481191,153.726943 93.449767,153.726943 "/>
        <path style="fill:none;stroke-width:0.280000;stroke-linecap:round;stroke-linejoin:round;stroke-opacity:1;stroke:#ff6600;" d="M 95.206466,156.432790 L 95.206466,153.490057 C 95.228221,153.343254 95.314031,153.264291 95.463897,153.253170 L 97.218783,153.253170 C 97.386778,153.265403 97.470776,153.344088 97.470776,153.489222 C 97.470776,153.634357 97.385570,153.711929 97.215157,153.721939 L 95.715890,153.721939 L 95.715890,154.634453 L 96.885210,154.634453 C 97.051996,154.645574 97.136598,154.720644 97.139015,154.859662 C 97.141433,154.998680 97.056831,155.079867 96.885210,155.103222 L 95.715890,155.103222 L 95.715890,156.432790 C 95.703804,156.586266 95.621922,156.664116 95.470243,156.666341 C 95.318563,156.668565 95.230638,156.590715 95.206466,156.432790 "/>
        <path style="fill:none;stroke-width:0.280000;stroke-linecap:round;stroke-linejoin:round;stroke-opacity:1;stroke:#ff6600;" d="M 97.978387,156.432790 L 97.978387,153.490057 C 98.000142,153.343254 98.085953,153.264291 98.235819,153.253170 L 99.990704,153.253170 C 100.158700,153.265403 100.242697,153.344088 100.242697,153.489222 C 100.242697,153.634357 100.157491,153.711929 99.987079,153.721939 L 98.487812,153.721939 L 98.487812,154.634453 L 99.657131,154.634453 C 99.823918,154.645574 99.908520,154.720644 99.910937,154.859662 C 99.913354,154.998680 99.828752,155.079867 99.657131,155.103222 L 98.487812,155.103222 L 98.487812,156.432790 C 98.475726,156.586266 98.393843,156.664116 98.242164,156.666341 C 98.090485,156.668565 98.002559,156.590715 97.978387,156.432790 "/>
        <path style="fill:none;stroke-width:0.280000;stroke-linecap:round;stroke-linejoin:round;stroke-opacity:1;stroke:#ff6600;" d="M 149.493863,158.750964 L 149.493863,142.748964 L 133.493874,142.748964 L 133.493874,158.750964 L 149.493863,158.750964 "/>
        <path style="fill:none;stroke-width:0.280000;stroke-linecap:round;stroke-linejoin:round;stroke-opacity:1;stroke:#ff6600;" d="M 133.354372,150.749964 L 149.354361,150.749964 "/>
        <path style="fill:none;stroke-width:0.280000;stroke-linecap:round;stroke-linejoin:round;stroke-opacity:1;stroke:#ff6600;" d="M 137.493869,148.576238 L 137.493869,145.616182 C 137.508417,145.468514 137.565803,145.389087 137.666026,145.377900 L 138.839602,145.377900 C 138.951948,145.390206 139.008121,145.469353 139.008121,145.615343 C 139.008121,145.761332 138.951140,145.839360 138.837177,145.849429 L 137.834545,145.849429 L 137.834545,146.767315 L 138.616525,146.767315 C 138.728063,146.778501 138.784641,146.854013 138.786257,146.993849 C 138.787874,147.133686 138.731296,147.215350 138.616525,147.238843 L 137.834545,147.238843 L 137.834545,148.576238 C 137.826463,148.730617 137.771704,148.808926 137.670269,148.811163 C 137.568834,148.813400 137.510034,148.735092 137.493869,148.576238 "/>
        <path style="fill:none;stroke-width:0.280000;stroke-linecap:round;stroke-linejoin:round;stroke-opacity:1;stroke:#ff6600;" d="M 140.011783,147.712049 L 139.643222,146.302498 L 139.272236,147.712049 L 140.011783,147.712049 "/>
        <path style="fill:none;stroke-width:0.280000;stroke-linecap:round;stroke-linejoin:round;stroke-opacity:1;stroke:#ff6600;" d="M 139.643222,146.302498 L 140.011783,147.712049 L 139.643222,146.302498 "/>
        <path style="fill:none;stroke-width:0.280000;stroke-linecap:round;stroke-linejoin:round;stroke-opacity:1;stroke:#ff6600;" d="M 138.707271,148.490658 C 138.836591,147.997315 138.966113,147.504252 139.095836,147.011469 C 139.225560,146.518685 139.355486,146.025622 139.485614,145.532280 C 139.512286,145.430479 139.565226,145.379019 139.644435,145.377900 C 139.723643,145.376782 139.776987,145.428241 139.804468,145.532280 L 140.581598,148.499048 C 140.605846,148.656784 140.571091,148.758584 140.477334,148.804451 C 140.383577,148.850317 140.311239,148.803332 140.260320,148.663496 L 140.135445,148.183577 L 139.147362,148.183577 L 139.026125,148.651749 C 138.974397,148.792705 138.900847,148.838851 138.805473,148.790187 C 138.710100,148.741524 138.677366,148.641681 138.707271,148.490658 "/>
        <path style="fill:none;stroke-width:0.280000;stroke-linecap:round;stroke-linejoin:round;stroke-opacity:1;stroke:#ff6600;" d="M 142.454713,147.681844 L 142.454713,147.715405 C 142.452288,147.771340 142.450671,147.804900 142.449863,147.816087 C 142.415917,148.158407 142.314482,148.410951 142.145558,148.573721 C 141.976634,148.736490 141.796395,148.812561 141.604840,148.801934 C 141.413285,148.791306 141.238097,148.694819 141.079277,148.512472 C 140.920456,148.330126 140.834176,148.064437 140.820435,147.715405 L 140.820435,147.681844 L 140.820435,145.612825 C 140.820435,145.579265 140.824881,145.549060 140.833771,145.522212 C 140.872567,145.404749 140.937025,145.358323 141.027145,145.382935 C 141.117264,145.407546 141.162324,145.484176 141.162324,145.612825 L 141.162324,147.681844 C 141.174448,147.939143 141.256283,148.131558 141.407830,148.259089 C 141.559376,148.386620 141.718803,148.381026 141.886110,148.242309 C 141.961277,148.180781 142.016440,148.101354 142.051599,148.004027 C 142.086758,147.906701 142.107570,147.799307 142.114036,147.681844 L 142.114036,145.612825 C 142.114036,145.592689 142.114844,145.577587 142.116461,145.567519 C 142.135051,145.429920 142.196073,145.367832 142.299529,145.381256 C 142.402985,145.394681 142.454713,145.471870 142.454713,145.612825 L 142.454713,147.681844 "/>
        <path style="fill:none;stroke-width:0.280000;stroke-linecap:round;stroke-linejoin:round;stroke-opacity:1;stroke:#ff6600;" d="M 143.115698,148.816197 C 143.016283,148.807248 142.958898,148.729498 142.943541,148.582950 L 142.943541,145.616182 C 142.960514,145.455090 143.019516,145.375943 143.120547,145.378739 C 143.221578,145.381536 143.276539,145.460684 143.285430,145.616182 L 143.285430,148.348025 L 144.404449,148.346347 C 144.519220,148.364246 144.576000,148.444512 144.574787,148.587145 C 144.573575,148.729778 144.516391,148.806129 144.403237,148.816197 L 143.115698,148.816197 "/>
        <path style="fill:none;stroke-width:0.280000;stroke-linecap:round;stroke-linejoin:round;stroke-opacity:1;stroke:#ff6600;" d="M 145.040338,148.579594 L 145.040338,145.851107 L 144.595398,145.851107 C 144.482243,145.838801 144.425868,145.760213 144.426272,145.615343 C 144.426676,145.470472 144.483051,145.391325 144.595398,145.377900 L 145.825955,145.377900 C 145.937493,145.390206 145.993465,145.469353 145.993869,145.615343 C 145.994273,145.761332 145.938302,145.839920 145.825955,145.851107 L 145.382227,145.851107 L 145.382227,148.579594 C 145.363637,148.738448 145.304029,148.816756 145.203402,148.814519 C 145.102775,148.812282 145.048421,148.733973 145.040338,148.579594 "/>
        <path style="fill:none;stroke-width:0.280000;stroke-linecap:round;stroke-linejoin:round;stroke-opacity:1;stroke:#ff6600;" d="M 134.520716,151.767385 L 134.520716,151.909554 L 134.520716,157.767385 L 148.467021,157.767385 L 148.467021,151.767385 L 134.520716,151.767385 "/>
        <path style="fill:none;stroke-width:0.280000;stroke-linecap:round;stroke-linejoin:round;stroke-opacity:1;stroke:#ff6600;" d="M 135.091504,152.365556 L 147.877346,152.365556 L 147.877346,157.267385 L 135.091504,157.267385 L 135.091504,152.365556 "/>
        <path style="fill:none;stroke-width:0.280000;stroke-linecap:round;stroke-linejoin:round;stroke-opacity:1;stroke:#ff6600;" d="M 139.844275,154.166553 C 139.955466,154.474617 139.997464,154.794358 139.970271,155.125777 C 139.943078,155.457196 139.844275,155.759699 139.673862,156.033287 C 139.566297,156.203445 139.419452,156.348024 139.233328,156.467023 C 139.047204,156.586022 138.841742,156.627728 138.616942,156.592139 C 138.250737,156.533196 137.970342,156.357477 137.775758,156.064983 C 137.581173,155.772489 137.469680,155.446909 137.441278,155.088242 C 137.412876,154.729576 137.465450,154.380084 137.599000,154.039768 C 137.732550,153.699452 137.945566,153.452000 138.238047,153.297412 C 138.380661,153.221786 138.529923,153.183973 138.685833,153.183973 C 138.983148,153.183973 139.226076,153.287125 139.414618,153.493427 C 139.603159,153.699730 139.746378,153.924105 139.844275,154.166553 "/>
        <path style="fill:none;stroke-width:0.280000;stroke-linecap:round;stroke-linejoin:round;stroke-opacity:1;stroke:#ff6600;" d="M 138.700336,153.657747 C 138.477954,153.657747 138.309656,153.767849 138.195444,153.988054 C 138.081231,154.208258 138.009017,154.396210 137.978802,154.551911 C 137.955839,154.665349 137.947379,154.802699 137.953422,154.963960 C 137.959465,155.125221 137.984845,155.284536 138.029563,155.441904 C 138.074282,155.599272 138.141359,155.741071 138.230795,155.867299 C 138.320231,155.993528 138.437466,156.077216 138.582497,156.118366 C 138.751701,156.167300 138.897640,156.136438 139.020312,156.025780 C 139.142985,155.915121 139.235745,155.797512 139.298592,155.672952 C 139.362648,155.545055 139.406460,155.377122 139.430027,155.169151 C 139.453595,154.961180 139.448156,154.753487 139.413711,154.546072 C 139.379266,154.338657 139.311887,154.151817 139.211573,153.985551 C 139.111259,153.819286 138.968645,153.713354 138.783729,153.667756 C 138.759557,153.661083 138.731759,153.657747 138.700336,153.657747 "/>
        <path style="fill:none;stroke-width:0.280000;stroke-linecap:round;stroke-linejoin:round;stroke-opacity:1;stroke:#ff6600;" d="M 140.457034,156.363594 L 140.457034,153.420860 C 140.478789,153.274057 140.564599,153.195095 140.714466,153.183973 L 142.469351,153.183973 C 142.637346,153.196207 142.721344,153.274891 142.721344,153.420026 C 142.721344,153.565161 142.636138,153.642733 142.465725,153.652742 L 140.966459,153.652742 L 140.966459,154.565256 L 142.135778,154.565256 C 142.302565,154.576378 142.387167,154.651448 142.389584,154.790466 C 142.392001,154.929484 142.307399,155.010670 142.135778,155.034025 L 140.966459,155.034025 L 140.966459,156.363594 C 140.954373,156.517070 140.872490,156.594920 140.720811,156.597144 C 140.569132,156.599368 140.481206,156.521518 140.457034,156.363594 "/>
        <path style="fill:none;stroke-width:0.280000;stroke-linecap:round;stroke-linejoin:round;stroke-opacity:1;stroke:#ff6600;" d="M 143.228956,156.363594 L 143.228956,153.420860 C 143.250710,153.274057 143.336521,153.195095 143.486387,153.183973 L 145.241273,153.183973 C 145.409268,153.196207 145.493265,153.274891 145.493265,153.420026 C 145.493265,153.565161 145.408059,153.642733 145.237647,153.652742 L 143.738380,153.652742 L 143.738380,154.565256 L 144.907699,154.565256 C 145.074486,154.576378 145.159088,154.651448 145.161505,154.790466 C 145.163922,154.929484 145.079320,155.010670 144.907699,155.034025 L 143.738380,155.034025 L 143.738380,156.363594 C 143.726294,156.517070 143.644411,156.594920 143.492732,156.597144 C 143.341053,156.599368 143.253128,156.521518 143.228956,156.363594 "/>
        <path style="fill:none;stroke-width:0.280000;stroke-linecap:round;stroke-linejoin:round;stroke-opacity:1;stroke:#ff6600;" d="M 107.923549,58.473235 L 107.923549,48.473235 L 84.673555,48.473235 L 84.673555,58.473235 L 107.923549,58.473235 "/>
        <path style="fill:none;stroke-width:0.280000;stroke-linecap:round;stroke-linejoin:round;stroke-opacity:1;stroke:#ff6600;" d="M 89.808058,52.695863 C 89.934592,53.046435 89.982386,53.410297 89.951440,53.787447 C 89.920494,54.164598 89.808058,54.508842 89.614131,54.820181 C 89.491723,55.013819 89.324616,55.178348 89.112809,55.313767 C 88.901002,55.449187 88.667189,55.496647 88.411370,55.456148 C 87.994633,55.389071 87.675548,55.189105 87.454113,54.856251 C 87.232679,54.523397 87.105801,54.152891 87.073480,53.744733 C 87.041158,53.336575 87.100987,52.938859 87.252965,52.551584 C 87.404944,52.164308 87.647353,51.882711 87.980192,51.706792 C 88.142486,51.620731 88.312344,51.577700 88.489766,51.577700 C 88.828107,51.577700 89.104557,51.695085 89.319114,51.929855 C 89.533672,52.164625 89.696653,52.419961 89.808058,52.695863 "/>
        <path style="fill:none;stroke-width:0.280000;stroke-linecap:round;stroke-linejoin:round;stroke-opacity:1;stroke:#ff6600;" d="M 88.506271,52.116848 C 88.253203,52.116848 88.061683,52.242143 87.931710,52.492733 C 87.801738,52.743323 87.719559,52.957210 87.685175,53.134395 C 87.659043,53.263487 87.649416,53.419789 87.656292,53.603302 C 87.663169,53.786814 87.692052,53.968112 87.742941,54.147196 C 87.793829,54.326279 87.870162,54.487644 87.971940,54.631290 C 88.073717,54.774936 88.207128,54.870173 88.372172,54.917000 C 88.564724,54.972687 88.730800,54.937566 88.870400,54.811638 C 89.010000,54.685711 89.115559,54.551873 89.187079,54.410125 C 89.259973,54.264581 89.309830,54.073474 89.336650,53.836806 C 89.363470,53.600138 89.357281,53.363786 89.318083,53.127750 C 89.278885,52.891715 89.202208,52.679093 89.088052,52.489885 C 88.973896,52.300677 88.811603,52.180128 88.601171,52.128239 C 88.573664,52.120645 88.542030,52.116848 88.506271,52.116848 "/>
        <path style="fill:none;stroke-width:0.280000;stroke-linecap:round;stroke-linejoin:round;stroke-opacity:1;stroke:#ff6600;" d="M 93.354448,55.203660 C 93.354448,55.336548 93.284648,55.421028 93.145048,55.457097 C 93.005448,55.493167 92.897138,55.455515 92.820117,55.344142 L 91.087152,52.786986 L 91.087152,55.203660 C 91.056894,55.380845 90.959586,55.469437 90.795229,55.469437 C 90.630873,55.469437 90.534253,55.380845 90.505370,55.203660 L 90.505370,51.851071 C 90.526001,51.719448 90.599239,51.632754 90.725086,51.590989 C 90.850932,51.549224 90.955804,51.588458 91.039701,51.708690 L 92.772667,54.269643 L 92.772667,51.851071 C 92.798799,51.670089 92.898857,51.580548 93.072841,51.582446 C 93.246826,51.584345 93.340695,51.673886 93.354448,51.851071 L 93.354448,55.203660 "/>
        <path style="fill:none;stroke-width:0.280000;stroke-linecap:round;stroke-linejoin:round;stroke-opacity:1;stroke:#ff6600;" d="M 97.844480,51.577700 C 98.105800,51.597950 98.325515,51.670722 98.503625,51.796017 C 98.681736,51.921312 98.805175,52.072235 98.873944,52.248787 C 98.942712,52.425339 98.951996,52.613282 98.901795,52.812615 C 98.851594,53.011948 98.730218,53.195144 98.537666,53.362204 C 98.749473,53.567232 98.881508,53.788713 98.933772,54.026647 C 98.986036,54.264581 98.969876,54.487011 98.885290,54.693937 C 98.800705,54.900864 98.653885,55.076466 98.444828,55.220745 C 98.235772,55.365024 97.976515,55.446656 97.667057,55.465640 L 97.660868,55.465640 L 96.563323,55.465640 C 96.394152,55.444125 96.296501,55.356165 96.270369,55.201761 L 96.270369,51.847274 C 96.293750,51.690339 96.391402,51.600481 96.563323,51.577700 L 97.844480,51.577700 "/>
        <path style="fill:none;stroke-width:0.280000;stroke-linecap:round;stroke-linejoin:round;stroke-opacity:1;stroke:#ff6600;" d="M 97.660868,54.928391 C 97.894681,54.919531 98.072791,54.849923 98.195199,54.719566 C 98.317607,54.589208 98.381218,54.444613 98.386031,54.285779 C 98.390845,54.126946 98.335487,53.977921 98.219955,53.838704 C 98.104424,53.699488 97.926314,53.615325 97.685624,53.586216 L 96.854214,53.586216 L 96.854214,54.928391 L 97.660868,54.928391 "/>
        <path style="fill:none;stroke-width:0.280000;stroke-linecap:round;stroke-linejoin:round;stroke-opacity:1;stroke:#ff6600;" d="M 97.844480,52.116848 L 96.854214,52.116848 L 96.854214,53.052763 L 97.850669,53.052763 C 98.021215,53.036310 98.148092,52.979675 98.231302,52.882856 C 98.314512,52.786037 98.355086,52.682257 98.353022,52.571517 C 98.350959,52.460776 98.307291,52.359528 98.222019,52.267772 C 98.136746,52.176015 98.010899,52.125707 97.844480,52.116848 "/>
        <path style="fill:none;stroke-width:0.280000;stroke-linecap:round;stroke-linejoin:round;stroke-opacity:1;stroke:#ff6600;" d="M 101.737463,54.218386 L 101.110294,52.623723 L 100.479000,54.218386 L 101.737463,54.218386 "/>
        <path style="fill:none;stroke-width:0.280000;stroke-linecap:round;stroke-linejoin:round;stroke-opacity:1;stroke:#ff6600;" d="M 101.110294,52.623723 L 101.737463,54.218386 L 101.110294,52.623723 "/>
        <path style="fill:none;stroke-width:0.280000;stroke-linecap:round;stroke-linejoin:round;stroke-opacity:1;stroke:#ff6600;" d="M 99.517617,55.099247 C 99.737676,54.541115 99.958079,53.983300 100.178825,53.425801 C 100.399572,52.868301 100.620663,52.310486 100.842097,51.752354 C 100.887485,51.637184 100.977571,51.578966 101.112358,51.577700 C 101.247144,51.576435 101.337918,51.634652 101.384681,51.752354 L 102.707098,55.108739 C 102.748360,55.287190 102.689219,55.402360 102.529676,55.454250 C 102.370133,55.506139 102.247037,55.452984 102.160389,55.294783 L 101.947895,54.751839 L 100.266505,54.751839 L 100.060200,55.281495 C 99.972176,55.440961 99.847018,55.493167 99.684724,55.438113 C 99.522430,55.383059 99.466728,55.270104 99.517617,55.099247 "/>
        <path style="fill:none;stroke-width:0.280000;stroke-linecap:round;stroke-linejoin:round;stroke-opacity:1;stroke:#ff6600;" d="M 104.159489,55.199863 L 104.159489,52.113051 L 103.402348,52.113051 C 103.209796,52.099130 103.113864,52.010221 103.114552,51.846325 C 103.115239,51.682429 103.211171,51.592887 103.402348,51.577700 L 105.496348,51.577700 C 105.686149,51.591622 105.781393,51.681163 105.782081,51.846325 C 105.782769,52.011486 105.687524,52.100395 105.496348,52.113051 L 104.741270,52.113051 L 104.741270,55.199863 C 104.709636,55.379579 104.608203,55.468171 104.436969,55.465640 C 104.265736,55.463109 104.173242,55.374517 104.159489,55.199863 "/>
    </g>
</svg>
