<?xml version="1.0" encoding="UTF-8"?>
<!-- Created by Vectric (http://www.vectric.com/) -->
<svg width="205.00000000mm" height="185.00000000mm" viewBox="0.00000000 0.00000000 205.00000000 185.00000000" id="svg2" version="1.1" xmlns="http://www.w3.org/2000/svg" xmlns:xlink="http://www.w3.org/1999/xlink" xmlns:inkscape="http://www.inkscape.org/namespaces/inkscape">
    <g inkscape:groupmode="layer" id="85667243-1302-4a85-b3ac-c7bf39b332ec" inkscape:label="Toolpath Previews" style="stroke:#000000;"/>
    <g inkscape:groupmode="layer" id="a2f76286-dc96-484e-ab40-6a818f23b20f" inkscape:label="_TopLayer" style="stroke:#ff0000;">
        <path style="fill:none;stroke-width:0.280000;stroke-linecap:round;stroke-linejoin:round;stroke-opacity:1;stroke:#ff0000;" d="M 166.219115,36.252119 C 167.498306,36.252119 168.498896,37.294404 168.498996,38.580833 L 168.498996,40.899151 L 168.498996,42.587476 C 168.498896,43.873906 167.461975,44.916694 166.182785,44.916795 L 164.381622,44.916795 C 161.672199,44.916997 159.475918,47.152554 159.475918,49.877310 C 159.475918,52.602065 161.672199,54.836613 164.381622,54.836815 L 166.194226,54.836815 C 167.469101,54.842971 168.499398,55.884045 168.499498,57.166134 L 168.499498,69.949080 L 168.500000,88.250000 L 168.499498,94.059351 L 168.499498,116.724738 L 168.499498,138.008786 L 168.499498,146.010804 L 168.499498,148.334875 C 168.499398,149.621305 167.462577,150.664094 166.183387,150.664194 L 164.382124,150.664194 C 161.672701,150.664396 159.476521,152.899953 159.476521,155.624709 C 159.476521,158.349464 161.672701,160.584012 164.382124,160.584214 L 166.194728,160.584214 C 167.469603,160.590270 168.499900,161.631444 168.500000,162.913533 L 168.500000,166.921185 C 168.500000,168.207514 167.499410,169.249899 166.220219,169.250000 L 25.821019,169.250000 C 24.541929,169.249899 23.504908,168.207009 23.504908,166.920681 L 23.504908,162.904147 C 23.510628,161.626801 24.538215,160.595417 25.809577,160.585324 L 27.622182,160.585324 C 30.331604,160.585021 32.527985,158.350474 32.527885,155.625718 C 32.527985,152.901064 30.331604,150.665204 27.622182,150.665204 L 25.821019,150.665204 C 24.541929,150.665103 23.504908,149.622314 23.504908,148.335884 L 23.504908,146.011814 L 23.504908,136.376308 L 23.500000,135.250000 L 23.504908,119.514457 L 23.504908,118.658054 L 23.504908,87.521971 C 23.504908,86.501010 23.500000,87.520961 23.500000,86.500000 L 23.500000,71.000000 L 23.504908,57.167143 C 23.505008,55.885054 24.535205,54.848018 25.810180,54.837925 L 27.622784,54.837925 C 30.332206,54.837622 32.528487,52.603075 32.528387,49.878319 C 32.528487,47.153665 30.332206,44.917805 27.622784,44.917805 L 25.821520,44.917805 C 25.743741,44.917805 25.667066,44.916795 25.590792,44.906703 C 25.588785,44.906703 25.578870,44.906703 25.578749,44.906703 C 25.507795,44.899638 25.438446,44.888536 25.369197,44.874406 L 25.343104,44.874406 C 25.276866,44.860276 25.212234,44.843118 25.148004,44.823942 C 25.136964,44.823942 25.126928,44.813849 25.115888,44.813849 C 25.055572,44.793663 24.996660,44.772468 24.938452,44.748246 C 24.926408,44.743199 24.914365,44.743199 24.902322,44.733106 C 24.845016,44.707874 24.788815,44.680624 24.733617,44.651355 L 24.723581,44.651355 C 24.715552,44.648327 24.710534,44.638234 24.700498,44.638234 C 24.640683,44.605533 24.581370,44.570208 24.525169,44.531856 C 24.525169,44.521460 24.515233,44.521864 24.515133,44.521763 C 24.455719,44.481190 24.398113,44.437791 24.342915,44.392373 C 24.288820,44.346855 24.237035,44.299418 24.186855,44.249964 L 24.175815,44.238861 C 24.127642,44.189810 24.081476,44.138539 24.037318,44.085047 L 24.027282,44.074954 C 23.983625,44.021462 23.942478,43.966053 23.903337,43.908524 C 23.903337,43.906505 23.893402,43.896534 23.893301,43.896412 C 23.856871,43.841508 23.822748,43.785493 23.790633,43.726954 C 23.785615,43.716861 23.775579,43.707778 23.775579,43.697685 C 23.744467,43.640661 23.716366,43.581517 23.691276,43.521969 C 23.689269,43.512886 23.679233,43.503802 23.679233,43.493709 C 23.654143,43.432446 23.631060,43.370073 23.610988,43.306488 C 23.610988,43.297404 23.600952,43.288321 23.600952,43.278228 C 23.580880,43.212322 23.563819,43.144498 23.549769,43.076876 C 23.549769,43.076776 23.549769,43.066885 23.549769,43.066784 C 23.535718,42.996235 23.526686,42.924475 23.516650,42.851807 L 23.516650,42.836668 C 23.505510,42.760871 23.505610,42.683863 23.505610,42.606148 L 23.505610,40.917823 L 23.505610,38.565997 C 23.523775,37.297230 24.548653,36.280278 25.810481,36.270186 L 25.820517,36.250000 L 166.219115,36.252119 "/>
        <path style="fill:none;stroke-width:0.280000;stroke-linecap:round;stroke-linejoin:round;stroke-opacity:1;stroke:#ff0000;" d="M 83.850000,59.202730 L 108.650000,59.202730 L 108.650000,47.821783 L 83.850000,47.821783 L 83.850000,59.202730 "/>
        <path style="fill:none;stroke-width:0.280000;stroke-linecap:round;stroke-linejoin:round;stroke-opacity:1;stroke:#ff0000;" d="M 41.984781,70.650001 L 60.134222,70.650001 C 60.702232,70.650001 61.159502,71.107271 61.159502,71.675281 L 61.159502,89.824719 C 61.159502,90.392719 60.702232,90.849999 60.134222,90.849999 L 41.984781,90.849999 C 41.416771,90.849999 40.959501,90.392719 40.959501,89.824719 L 40.959501,71.675281 C 40.959501,71.107271 41.416771,70.650001 41.984781,70.650001 "/>
        <path style="fill:none;stroke-width:0.280000;stroke-linecap:round;stroke-linejoin:round;stroke-opacity:1;stroke:#ff0000;" d="M 59.519624,116.000000 C 59.519624,120.768426 55.654050,124.633999 50.885624,124.633999 C 46.117197,124.633999 42.251623,120.768426 42.251623,116.000000 C 42.251623,111.231574 46.117197,107.366001 50.885624,107.366001 C 55.654050,107.366001 59.519624,111.231574 59.519624,116.000000 "/>
        <path style="fill:none;stroke-width:0.280000;stroke-linecap:round;stroke-linejoin:round;stroke-opacity:1;stroke:#ff0000;" d="M 87.174944,70.650001 L 105.324386,70.650001 C 105.892396,70.650001 106.349666,71.107271 106.349666,71.675281 L 106.349666,89.824719 C 106.349666,90.392719 105.892396,90.849999 105.324386,90.849999 L 87.174944,90.849999 C 86.606934,90.849999 86.149664,90.392719 86.149664,89.824719 L 86.149664,71.675281 C 86.149664,71.107271 86.606934,70.650001 87.174944,70.650001 "/>
        <path style="fill:none;stroke-width:0.280000;stroke-linecap:round;stroke-linejoin:round;stroke-opacity:1;stroke:#ff0000;" d="M 132.376438,70.650001 L 150.525879,70.650001 C 151.093889,70.650001 151.551159,71.107271 151.551159,71.675281 L 151.551159,89.824719 C 151.551159,90.392719 151.093889,90.849999 150.525879,90.849999 L 132.376438,90.849999 C 131.808428,90.849999 131.351158,90.392719 131.351158,89.824719 L 131.351158,71.675281 C 131.351158,71.107271 131.808428,70.650001 132.376438,70.650001 "/>
        <path style="fill:none;stroke-width:0.280000;stroke-linecap:round;stroke-linejoin:round;stroke-opacity:1;stroke:#ff0000;" d="M 41.998289,140.495961 L 60.147730,140.495961 C 60.715740,140.495961 61.173010,140.953231 61.173010,141.521241 L 61.173010,159.670680 C 61.173010,160.238680 60.715740,160.695960 60.147730,160.695960 L 41.998289,160.695960 C 41.430279,160.695960 40.973009,160.238680 40.973009,159.670680 L 40.973009,141.521241 C 40.973009,140.953231 41.430279,140.495961 41.998289,140.495961 "/>
        <path style="fill:none;stroke-width:0.280000;stroke-linecap:round;stroke-linejoin:round;stroke-opacity:1;stroke:#ff0000;" d="M 87.188453,140.495961 L 105.337894,140.495961 C 105.905904,140.495961 106.363174,140.953231 106.363174,141.521241 L 106.363174,159.670680 C 106.363174,160.238680 105.905904,160.695960 105.337894,160.695960 L 87.188453,160.695960 C 86.620443,160.695960 86.163173,160.238680 86.163173,159.670680 L 86.163173,141.521241 C 86.163173,140.953231 86.620443,140.495961 87.188453,140.495961 "/>
        <path style="fill:none;stroke-width:0.280000;stroke-linecap:round;stroke-linejoin:round;stroke-opacity:1;stroke:#ff0000;" d="M 132.389946,140.495961 L 150.539387,140.495961 C 151.107397,140.495961 151.564667,140.953231 151.564667,141.521241 L 151.564667,159.670680 C 151.564667,160.238680 151.107397,160.695960 150.539387,160.695960 L 132.389946,160.695960 C 131.821936,160.695960 131.364666,160.238680 131.364666,159.670680 L 131.364666,141.521241 C 131.364666,140.953231 131.821936,140.495961 132.389946,140.495961 "/>
        <path style="fill:none;stroke-width:0.280000;stroke-linecap:round;stroke-linejoin:round;stroke-opacity:1;stroke:#ff0000;" d="M 104.884001,116.000000 C 104.884001,120.768426 101.018426,124.633999 96.250000,124.633999 C 91.481574,124.633999 87.615999,120.768426 87.615999,116.000000 C 87.615999,111.231574 91.481574,107.366001 96.250000,107.366001 C 101.018426,107.366001 104.884001,111.231574 104.884001,116.000000 "/>
        <path style="fill:none;stroke-width:0.280000;stroke-linecap:round;stroke-linejoin:round;stroke-opacity:1;stroke:#ff0000;" d="M 150.134001,116.000000 C 150.134001,120.768426 146.268426,124.633999 141.500000,124.633999 C 136.731574,124.633999 132.865999,120.768426 132.865999,116.000000 C 132.865999,111.231574 136.731574,107.366001 141.500000,107.366001 C 146.268426,107.366001 150.134001,111.231574 150.134001,116.000000 "/>
    </g>
</svg>
