%TF.GenerationSoftware,KiCad,Pcbnew,9.0.2*%
%TF.CreationDate,2025-07-16T23:03:39+02:00*%
%TF.ProjectId,cargo-vent_cargo-smoke,63617267-6f2d-4766-956e-745f63617267,rev?*%
%TF.SameCoordinates,Original*%
%TF.FileFunction,Copper,L2,Bot*%
%TF.FilePolarity,Positive*%
%FSLAX46Y46*%
G04 Gerber Fmt 4.6, Leading zero omitted, Abs format (unit mm)*
G04 Created by KiCad (PCBNEW 9.0.2) date 2025-07-16 23:03:39*
%MOMM*%
%LPD*%
G01*
G04 APERTURE LIST*
%TA.AperFunction,ComponentPad*%
%ADD10R,1.500000X1.500000*%
%TD*%
%TA.AperFunction,ComponentPad*%
%ADD11R,3.000000X3.000000*%
%TD*%
%TA.AperFunction,ComponentPad*%
%ADD12C,3.000000*%
%TD*%
%TA.AperFunction,ComponentPad*%
%ADD13C,1.700000*%
%TD*%
%TA.AperFunction,ComponentPad*%
%ADD14R,1.700000X1.700000*%
%TD*%
%TA.AperFunction,ViaPad*%
%ADD15C,0.600000*%
%TD*%
%TA.AperFunction,Conductor*%
%ADD16C,0.400000*%
%TD*%
%TA.AperFunction,Conductor*%
%ADD17C,0.600000*%
%TD*%
G04 APERTURE END LIST*
D10*
%TO.P,KR5,1,+5V_TOP_LED*%
%TO.N,unconnected-(KR5-+5V_TOP_LED-Pad1)*%
X268175000Y-205050000D03*
%TO.P,KR5,2,GND_TOP_LED*%
%TO.N,unconnected-(KR5-GND_TOP_LED-Pad2)*%
X268175000Y-207590000D03*
%TO.P,KR5,3,+5V_BOTTOM_LED*%
%TO.N,unconnected-(KR5-+5V_BOTTOM_LED-Pad3)*%
X268175000Y-210130000D03*
%TO.P,KR5,4,GND_BOTTOM_LED*%
%TO.N,unconnected-(KR5-GND_BOTTOM_LED-Pad4)*%
X268175000Y-212670000D03*
%TO.P,KR5,5,SW_IN*%
%TO.N,Net-(J2-Pin_12)*%
X252475000Y-209550000D03*
%TO.P,KR5,6,SW_OUT*%
%TO.N,GND*%
X252475000Y-212090000D03*
%TD*%
%TO.P,KR4,1,+5V_TOP_LED*%
%TO.N,unconnected-(KR4-+5V_TOP_LED-Pad1)*%
X169025000Y-205125000D03*
%TO.P,KR4,2,GND_TOP_LED*%
%TO.N,unconnected-(KR4-GND_TOP_LED-Pad2)*%
X169025000Y-207665000D03*
%TO.P,KR4,3,+5V_BOTTOM_LED*%
%TO.N,unconnected-(KR4-+5V_BOTTOM_LED-Pad3)*%
X169025000Y-210205000D03*
%TO.P,KR4,4,GND_BOTTOM_LED*%
%TO.N,unconnected-(KR4-GND_BOTTOM_LED-Pad4)*%
X169025000Y-212745000D03*
%TO.P,KR4,5,SW_IN*%
%TO.N,Net-(J2-Pin_10)*%
X153325000Y-209625000D03*
%TO.P,KR4,6,SW_OUT*%
%TO.N,GND*%
X153325000Y-212165000D03*
%TD*%
D11*
%TO.P,J3,1,Pin_1*%
%TO.N,GND*%
X166865000Y-226475000D03*
D12*
%TO.P,J3,2,Pin_2*%
%TO.N,+12V*%
X161785000Y-226475000D03*
%TD*%
D13*
%TO.P,J2,40,Pin_40*%
%TO.N,unconnected-(J2-Pin_40-Pad40)*%
X145600000Y-123165000D03*
%TO.P,J2,39,Pin_39*%
%TO.N,unconnected-(J2-Pin_39-Pad39)*%
X143060000Y-123165000D03*
%TO.P,J2,38,Pin_38*%
%TO.N,unconnected-(J2-Pin_38-Pad38)*%
X145600000Y-125705000D03*
%TO.P,J2,37,Pin_37*%
%TO.N,unconnected-(J2-Pin_37-Pad37)*%
X143060000Y-125705000D03*
%TO.P,J2,36,Pin_36*%
%TO.N,unconnected-(J2-Pin_36-Pad36)*%
X145600000Y-128245000D03*
%TO.P,J2,35,Pin_35*%
%TO.N,unconnected-(J2-Pin_35-Pad35)*%
X143060000Y-128245000D03*
%TO.P,J2,34,Pin_34*%
%TO.N,unconnected-(J2-Pin_34-Pad34)*%
X145600000Y-130785000D03*
%TO.P,J2,33,Pin_33*%
%TO.N,unconnected-(J2-Pin_33-Pad33)*%
X143060000Y-130785000D03*
%TO.P,J2,32,Pin_32*%
%TO.N,unconnected-(J2-Pin_32-Pad32)*%
X145600000Y-133325000D03*
%TO.P,J2,31,Pin_31*%
%TO.N,unconnected-(J2-Pin_31-Pad31)*%
X143060000Y-133325000D03*
%TO.P,J2,30,Pin_30*%
%TO.N,unconnected-(J2-Pin_30-Pad30)*%
X145600000Y-135865000D03*
%TO.P,J2,29,Pin_29*%
%TO.N,unconnected-(J2-Pin_29-Pad29)*%
X143060000Y-135865000D03*
%TO.P,J2,28,Pin_28*%
%TO.N,unconnected-(J2-Pin_28-Pad28)*%
X145600000Y-138405000D03*
%TO.P,J2,27,Pin_27*%
%TO.N,unconnected-(J2-Pin_27-Pad27)*%
X143060000Y-138405000D03*
%TO.P,J2,26,Pin_26*%
%TO.N,unconnected-(J2-Pin_26-Pad26)*%
X145600000Y-140945000D03*
%TO.P,J2,25,Pin_25*%
%TO.N,unconnected-(J2-Pin_25-Pad25)*%
X143060000Y-140945000D03*
%TO.P,J2,24,Pin_24*%
%TO.N,unconnected-(J2-Pin_24-Pad24)*%
X145600000Y-143485000D03*
%TO.P,J2,23,Pin_23*%
%TO.N,unconnected-(J2-Pin_23-Pad23)*%
X143060000Y-143485000D03*
%TO.P,J2,22,Pin_22*%
%TO.N,unconnected-(J2-Pin_22-Pad22)*%
X145600000Y-146025000D03*
%TO.P,J2,21,Pin_21*%
%TO.N,unconnected-(J2-Pin_21-Pad21)*%
X143060000Y-146025000D03*
%TO.P,J2,20,Pin_20*%
%TO.N,unconnected-(J2-Pin_20-Pad20)*%
X145600000Y-148565000D03*
%TO.P,J2,19,Pin_19*%
%TO.N,unconnected-(J2-Pin_19-Pad19)*%
X143060000Y-148565000D03*
%TO.P,J2,18,Pin_18*%
%TO.N,unconnected-(J2-Pin_18-Pad18)*%
X145600000Y-151105000D03*
%TO.P,J2,17,Pin_17*%
%TO.N,unconnected-(J2-Pin_17-Pad17)*%
X143060000Y-151105000D03*
%TO.P,J2,16,Pin_16*%
%TO.N,unconnected-(J2-Pin_16-Pad16)*%
X145600000Y-153645000D03*
%TO.P,J2,15,Pin_15*%
%TO.N,unconnected-(J2-Pin_15-Pad15)*%
X143060000Y-153645000D03*
%TO.P,J2,14,Pin_14*%
%TO.N,unconnected-(J2-Pin_14-Pad14)*%
X145600000Y-156185000D03*
%TO.P,J2,13,Pin_13*%
%TO.N,unconnected-(J2-Pin_13-Pad13)*%
X143060000Y-156185000D03*
%TO.P,J2,12,Pin_12*%
%TO.N,Net-(J2-Pin_12)*%
X145600000Y-158725000D03*
%TO.P,J2,11,Pin_11*%
%TO.N,Net-(J2-Pin_11)*%
X143060000Y-158725000D03*
%TO.P,J2,10,Pin_10*%
%TO.N,Net-(J2-Pin_10)*%
X145600000Y-161265000D03*
%TO.P,J2,9,Pin_9*%
%TO.N,Net-(J2-Pin_9)*%
X143060000Y-161265000D03*
%TO.P,J2,8,Pin_8*%
%TO.N,Net-(J2-Pin_8)*%
X145600000Y-163805000D03*
%TO.P,J2,7,Pin_7*%
%TO.N,Net-(J2-Pin_7)*%
X143060000Y-163805000D03*
%TO.P,J2,6,Pin_6*%
%TO.N,Net-(J2-Pin_6)*%
X145600000Y-166345000D03*
%TO.P,J2,5,Pin_5*%
%TO.N,Net-(J2-Pin_5)*%
X143060000Y-166345000D03*
%TO.P,J2,4,Pin_4*%
%TO.N,Net-(J2-Pin_4)*%
X145600000Y-168885000D03*
%TO.P,J2,3,Pin_3*%
%TO.N,Net-(J2-Pin_3)*%
X143060000Y-168885000D03*
%TO.P,J2,2,Pin_2*%
%TO.N,Net-(J2-Pin_2)*%
X145600000Y-171425000D03*
D14*
%TO.P,J2,1,Pin_1*%
%TO.N,Net-(J2-Pin_1)*%
X143060000Y-171425000D03*
%TD*%
D10*
%TO.P,KR1,1,+5V_TOP_LED*%
%TO.N,Net-(J2-Pin_1)*%
X267275000Y-124200000D03*
%TO.P,KR1,2,GND_TOP_LED*%
%TO.N,GND*%
X267275000Y-126740000D03*
%TO.P,KR1,3,+5V_BOTTOM_LED*%
%TO.N,Net-(J2-Pin_2)*%
X267275000Y-129280000D03*
%TO.P,KR1,4,GND_BOTTOM_LED*%
%TO.N,GND*%
X267275000Y-131820000D03*
%TO.P,KR1,5,SW_IN*%
%TO.N,Net-(J2-Pin_3)*%
X251575000Y-128700000D03*
%TO.P,KR1,6,SW_OUT*%
%TO.N,GND*%
X251575000Y-131240000D03*
%TD*%
D14*
%TO.P,J4,1,Pin_1*%
%TO.N,GND*%
X209875000Y-211175000D03*
D13*
%TO.P,J4,2,Pin_2*%
%TO.N,Net-(J2-Pin_11)*%
X212415000Y-211175000D03*
%TD*%
D10*
%TO.P,KR3,1,+5V_TOP_LED*%
%TO.N,Net-(J2-Pin_7)*%
X243550000Y-205400000D03*
%TO.P,KR3,2,GND_TOP_LED*%
%TO.N,GND*%
X243550000Y-207940000D03*
%TO.P,KR3,3,+5V_BOTTOM_LED*%
%TO.N,Net-(J2-Pin_8)*%
X243550000Y-210480000D03*
%TO.P,KR3,4,GND_BOTTOM_LED*%
%TO.N,GND*%
X243550000Y-213020000D03*
%TO.P,KR3,5,SW_IN*%
%TO.N,Net-(J2-Pin_9)*%
X227850000Y-209900000D03*
%TO.P,KR3,6,SW_OUT*%
%TO.N,GND*%
X227850000Y-212440000D03*
%TD*%
%TO.P,KR2,1,+5V_TOP_LED*%
%TO.N,Net-(J2-Pin_4)*%
X193650000Y-205450000D03*
%TO.P,KR2,2,GND_TOP_LED*%
%TO.N,GND*%
X193650000Y-207990000D03*
%TO.P,KR2,3,+5V_BOTTOM_LED*%
%TO.N,Net-(J2-Pin_5)*%
X193650000Y-210530000D03*
%TO.P,KR2,4,GND_BOTTOM_LED*%
%TO.N,GND*%
X193650000Y-213070000D03*
%TO.P,KR2,5,SW_IN*%
%TO.N,Net-(J2-Pin_6)*%
X177950000Y-209950000D03*
%TO.P,KR2,6,SW_OUT*%
%TO.N,GND*%
X177950000Y-212490000D03*
%TD*%
D11*
%TO.P,J1,1,Pin_1*%
%TO.N,GND*%
X263970000Y-106975000D03*
D12*
%TO.P,J1,2,Pin_2*%
%TO.N,+12V*%
X269050000Y-106975000D03*
%TD*%
D15*
%TO.N,Net-(J2-Pin_3)*%
X146683200Y-139488300D03*
%TO.N,Net-(J2-Pin_5)*%
X149948100Y-206513300D03*
%TO.N,Net-(J2-Pin_8)*%
X152854500Y-203963100D03*
%TO.N,Net-(J2-Pin_4)*%
X183680500Y-172646300D03*
%TO.N,Net-(J2-Pin_1)*%
X148771600Y-131106800D03*
%TO.N,Net-(J2-Pin_11)*%
X211000900Y-157829600D03*
%TO.N,Net-(J2-Pin_7)*%
X240353600Y-174931000D03*
%TO.N,Net-(J2-Pin_6)*%
X172478000Y-167579500D03*
%TO.N,Net-(J2-Pin_12)*%
X252487100Y-166737200D03*
%TO.N,Net-(J2-Pin_2)*%
X258413700Y-169706400D03*
%TO.N,Net-(J2-Pin_9)*%
X219890800Y-171291400D03*
%TO.N,GND*%
X211255200Y-224454200D03*
X194276400Y-196445000D03*
X216927500Y-149066300D03*
X219890800Y-169511400D03*
X267368100Y-181583200D03*
X264340300Y-211281700D03*
X193004300Y-180046400D03*
X267417600Y-151552800D03*
X240965300Y-188356600D03*
X225817400Y-128137600D03*
%TO.N,Net-(D40-K)*%
X196184400Y-222945600D03*
X205547100Y-138091000D03*
%TO.N,Net-(D39-K)*%
X267303600Y-223145900D03*
X270336800Y-208306000D03*
%TO.N,Net-(D37-K)*%
X276193500Y-214244400D03*
X273230200Y-196285900D03*
%TO.N,Net-(D32-K)*%
X243597200Y-222870900D03*
X239958800Y-199398400D03*
%TO.N,Net-(D25-K)*%
X195343600Y-202323000D03*
X193006900Y-226121200D03*
%TO.N,Net-(D23-K)*%
X181391800Y-223915100D03*
X184106200Y-196654100D03*
%TO.N,Net-(D22-K)*%
X179221700Y-223719200D03*
X182192800Y-197255600D03*
%TO.N,Net-(D21-K)*%
X175177900Y-178514600D03*
X175441300Y-182586400D03*
%TO.N,Net-(D20-K)*%
X170385700Y-213127400D03*
X173205400Y-189220100D03*
%TO.N,Net-(D16-K)*%
X177336500Y-182586400D03*
X177380600Y-175644800D03*
%TO.N,Net-(D13-K)*%
X202111000Y-157829600D03*
X210867100Y-176775200D03*
%TO.N,Net-(D10-K)*%
X273230200Y-119230000D03*
X272929000Y-135148400D03*
%TO.N,+12V*%
X184582100Y-169951400D03*
X181367900Y-196429200D03*
X160624800Y-197825500D03*
X180939500Y-211040300D03*
X270266900Y-134346700D03*
X191462500Y-110225000D03*
X246691900Y-134346700D03*
X241855000Y-179905600D03*
X181367900Y-178335600D03*
%TD*%
D16*
%TO.N,Net-(J2-Pin_3)*%
X146851700Y-139656800D02*
X146683200Y-139488300D01*
X146851700Y-149172600D02*
X146851700Y-139656800D01*
X146189300Y-149835000D02*
X146851700Y-149172600D01*
X145087900Y-149835000D02*
X146189300Y-149835000D01*
X144311700Y-150611200D02*
X145087900Y-149835000D01*
X144311700Y-164412100D02*
X144311700Y-150611200D01*
X143648800Y-165075000D02*
X144311700Y-164412100D01*
X142546400Y-165075000D02*
X143648800Y-165075000D01*
X141808300Y-165813100D02*
X142546400Y-165075000D01*
X141808300Y-167633300D02*
X141808300Y-165813100D01*
X143060000Y-168885000D02*
X141808300Y-167633300D01*
%TO.N,Net-(J2-Pin_5)*%
X149948100Y-192053800D02*
X149948100Y-206513300D01*
X144330000Y-186435700D02*
X149948100Y-192053800D01*
X144330000Y-167615000D02*
X144330000Y-186435700D01*
X143060000Y-166345000D02*
X144330000Y-167615000D01*
%TO.N,Net-(J2-Pin_8)*%
X152854500Y-171059500D02*
X145600000Y-163805000D01*
X152854500Y-203963100D02*
X152854500Y-171059500D01*
%TO.N,Net-(J2-Pin_4)*%
X183680500Y-194328800D02*
X193650000Y-204298300D01*
X183680500Y-172219500D02*
X183680500Y-194328800D01*
X193650000Y-205450000D02*
X193650000Y-204298300D01*
X183680500Y-172219500D02*
X183680500Y-172646300D01*
%TO.N,Net-(J2-Pin_1)*%
X143060000Y-171425000D02*
X143060000Y-170173300D01*
X147841700Y-132036700D02*
X148771600Y-131106800D01*
X142530500Y-132036700D02*
X147841700Y-132036700D01*
X141206600Y-133360600D02*
X142530500Y-132036700D01*
X141206600Y-168828800D02*
X141206600Y-133360600D01*
X142551100Y-170173300D02*
X141206600Y-168828800D01*
X143060000Y-170173300D02*
X142551100Y-170173300D01*
%TO.N,Net-(J2-Pin_10)*%
X153597500Y-208200800D02*
X153325000Y-208473300D01*
X153597500Y-169262500D02*
X153597500Y-208200800D01*
X145600000Y-161265000D02*
X153597500Y-169262500D01*
X153325000Y-209625000D02*
X153325000Y-208473300D01*
%TO.N,Net-(J2-Pin_11)*%
X212415000Y-159243700D02*
X212415000Y-211175000D01*
X211000900Y-157829600D02*
X212415000Y-159243700D01*
%TO.N,Net-(J2-Pin_7)*%
X243550000Y-186820700D02*
X243550000Y-205400000D01*
X240353600Y-183624300D02*
X243550000Y-186820700D01*
X240353600Y-174931000D02*
X240353600Y-183624300D01*
%TO.N,Net-(J2-Pin_6)*%
X177950000Y-209950000D02*
X177950000Y-208798300D01*
X178082300Y-173183800D02*
X172478000Y-167579500D01*
X178082300Y-208666000D02*
X178082300Y-173183800D01*
X177950000Y-208798300D02*
X178082300Y-208666000D01*
%TO.N,Net-(J2-Pin_12)*%
X252475000Y-166749300D02*
X252487100Y-166737200D01*
X252475000Y-209550000D02*
X252475000Y-166749300D01*
%TO.N,Net-(J2-Pin_2)*%
X266555200Y-130431700D02*
X267275000Y-130431700D01*
X258413700Y-138573200D02*
X266555200Y-130431700D01*
X258413700Y-169706400D02*
X258413700Y-138573200D01*
X267275000Y-129280000D02*
X267275000Y-130431700D01*
%TO.N,Net-(J2-Pin_9)*%
X227850000Y-209900000D02*
X227850000Y-208748300D01*
X219890800Y-200789100D02*
X219890800Y-171291400D01*
X227850000Y-208748300D02*
X219890800Y-200789100D01*
%TO.N,GND*%
X177796600Y-213641700D02*
X177950000Y-213641700D01*
X166865000Y-224573300D02*
X177796600Y-213641700D01*
X166865000Y-226475000D02*
X166865000Y-224573300D01*
X177950000Y-212490000D02*
X177950000Y-213641700D01*
X244269900Y-211868300D02*
X243550000Y-211868300D01*
X244701700Y-211436500D02*
X244269900Y-211868300D01*
X244701700Y-209523600D02*
X244701700Y-211436500D01*
X244269800Y-209091700D02*
X244701700Y-209523600D01*
X243550000Y-209091700D02*
X244269800Y-209091700D01*
X243550000Y-213020000D02*
X243550000Y-211868300D01*
X266555200Y-125588300D02*
X267275000Y-125588300D01*
X263970000Y-123003100D02*
X266555200Y-125588300D01*
X263970000Y-106975000D02*
X263970000Y-123003100D01*
X267275000Y-126740000D02*
X267275000Y-125588300D01*
X209875000Y-223074000D02*
X209875000Y-211175000D01*
X211255200Y-224454200D02*
X209875000Y-223074000D01*
X193650000Y-207990000D02*
X193650000Y-206838300D01*
X268426700Y-130668300D02*
X267275000Y-131820000D01*
X268426700Y-128323500D02*
X268426700Y-130668300D01*
X267994900Y-127891700D02*
X268426700Y-128323500D01*
X267275000Y-127891700D02*
X267994900Y-127891700D01*
X267275000Y-126740000D02*
X267275000Y-127891700D01*
X264340300Y-184611000D02*
X264340300Y-211281700D01*
X267368100Y-181583200D02*
X264340300Y-184611000D01*
X193650000Y-213070000D02*
X193650000Y-211918300D01*
X194369900Y-211918300D02*
X193650000Y-211918300D01*
X194801700Y-211486500D02*
X194369900Y-211918300D01*
X194801700Y-207270100D02*
X194801700Y-211486500D01*
X194369900Y-206838300D02*
X194801700Y-207270100D01*
X194369900Y-206838300D02*
X193650000Y-206838300D01*
X194801700Y-206406500D02*
X194369900Y-206838300D01*
X194801700Y-203086700D02*
X194801700Y-206406500D01*
X194276400Y-202561400D02*
X194801700Y-203086700D01*
X194276400Y-196445000D02*
X194276400Y-202561400D01*
X193004300Y-195172900D02*
X193004300Y-180046400D01*
X194276400Y-196445000D02*
X193004300Y-195172900D01*
X267417600Y-133114300D02*
X267275000Y-132971700D01*
X267417600Y-151552800D02*
X267417600Y-133114300D01*
X267275000Y-131820000D02*
X267275000Y-132971700D01*
X267417600Y-181533700D02*
X267417600Y-151552800D01*
X267368100Y-181583200D02*
X267417600Y-181533700D01*
X243550000Y-207940000D02*
X243550000Y-208515800D01*
X243550000Y-208515800D02*
X243550000Y-209091700D01*
X219890800Y-152029600D02*
X216927500Y-149066300D01*
X219890800Y-169511400D02*
X219890800Y-152029600D01*
X225817400Y-140176400D02*
X225817400Y-128137600D01*
X216927500Y-149066300D02*
X225817400Y-140176400D01*
X240965300Y-205931100D02*
X240965300Y-188356600D01*
X243550000Y-208515800D02*
X240965300Y-205931100D01*
%TO.N,Net-(D40-K)*%
X196184400Y-147453700D02*
X205547100Y-138091000D01*
X196184400Y-202461700D02*
X196184400Y-147453700D01*
X196194400Y-202471700D02*
X196184400Y-202461700D01*
X196194400Y-202471700D02*
X196184400Y-202461700D01*
X196194400Y-222935600D02*
X196194400Y-202471700D01*
X196184400Y-222945600D02*
X196194400Y-222935600D01*
%TO.N,Net-(D39-K)*%
X270336800Y-220112700D02*
X270336800Y-208306000D01*
X267303600Y-223145900D02*
X270336800Y-220112700D01*
%TO.N,Net-(D37-K)*%
X276193500Y-199249200D02*
X273230200Y-196285900D01*
X276193500Y-214244400D02*
X276193500Y-199249200D01*
%TO.N,Net-(D32-K)*%
X239958800Y-219232500D02*
X239958800Y-199398400D01*
X243597200Y-222870900D02*
X239958800Y-219232500D01*
X239958800Y-199398400D02*
X239958800Y-198916200D01*
X239958800Y-198916200D02*
X239958800Y-199398400D01*
X243597200Y-222870900D02*
X243597200Y-222871000D01*
X243597200Y-222871000D02*
X243597200Y-222870900D01*
%TO.N,Net-(D25-K)*%
X195418800Y-202398200D02*
X195343600Y-202323000D01*
X195418800Y-223709300D02*
X195418800Y-202398200D01*
X193006900Y-226121200D02*
X195418800Y-223709300D01*
%TO.N,Net-(D23-K)*%
X184106200Y-221200700D02*
X184106200Y-196654100D01*
X181391800Y-223915100D02*
X184106200Y-221200700D01*
%TO.N,Net-(D22-K)*%
X182192800Y-220748100D02*
X179221700Y-223719200D01*
X182192800Y-197255600D02*
X182192800Y-220748100D01*
%TO.N,Net-(D21-K)*%
X175177900Y-182323000D02*
X175177900Y-178514600D01*
X175441300Y-182586400D02*
X175177900Y-182323000D01*
X175441300Y-182586400D02*
X175068800Y-182586400D01*
X175068800Y-182586400D02*
X175441300Y-182586400D01*
X175177900Y-178514600D02*
X175177900Y-178925200D01*
X175177900Y-178925200D02*
X175177900Y-178514600D01*
%TO.N,Net-(D20-K)*%
X170385700Y-192039800D02*
X173205400Y-189220100D01*
X170385700Y-213127400D02*
X170385700Y-192039800D01*
X173205400Y-189220100D02*
X173004800Y-189019500D01*
X173004800Y-189019500D02*
X173205400Y-189220100D01*
X170385700Y-213127400D02*
X170302000Y-213211100D01*
X170302000Y-213211100D02*
X170385700Y-213127400D01*
%TO.N,Net-(D16-K)*%
X177336500Y-175688900D02*
X177380600Y-175644800D01*
X177336500Y-182586400D02*
X177336500Y-175688900D01*
X177380600Y-175644800D02*
X177336500Y-175688900D01*
X177336500Y-175688900D02*
X177380600Y-175644800D01*
%TO.N,Net-(D13-K)*%
X202111000Y-168019100D02*
X210867100Y-176775200D01*
X202111000Y-157829600D02*
X202111000Y-168019100D01*
%TO.N,Net-(D10-K)*%
X272929000Y-119531200D02*
X272929000Y-135148400D01*
X273230200Y-119230000D02*
X272929000Y-119531200D01*
D17*
%TO.N,+12V*%
X160624800Y-225314800D02*
X161785000Y-226475000D01*
X160624800Y-197825500D02*
X160624800Y-225314800D01*
X180939500Y-196857600D02*
X180939500Y-211040300D01*
X181367900Y-196429200D02*
X180939500Y-196857600D01*
X270266900Y-108191900D02*
X269050000Y-106975000D01*
X270266900Y-134346700D02*
X270266900Y-108191900D01*
X184582100Y-117105400D02*
X184582100Y-169951400D01*
X191462500Y-110225000D02*
X184582100Y-117105400D01*
X241855000Y-139183600D02*
X241855000Y-179905600D01*
X246691900Y-134346700D02*
X241855000Y-139183600D01*
X181367900Y-173165600D02*
X181367900Y-178335600D01*
X184582100Y-169951400D02*
X181367900Y-173165600D01*
X181367900Y-178335600D02*
X181367900Y-196429200D01*
%TD*%
M02*
