M48
; DRILL file {KiCad 9.0.2} date 2025-07-16T23:03:39+0200
; FORMAT={-:-/ absolute / inch / decimal}
; #@! TF.CreationDate,2025-07-16T23:03:39+02:00
; #@! TF.GenerationSoftware,Kicad,Pcbnew,9.0.2
; #@! TF.FileFunction,Plated,1,2,PTH
FMAT,2
INCH
; #@! TA.AperFunction,Plated,PTH,ViaDrill
T1C0.0118
; #@! TA.AperFunction,Plated,PTH,ComponentDrill
T2C0.0236
; #@! TA.AperFunction,Plated,PTH,ComponentDrill
T3C0.0394
; #@! TA.AperFunction,Plated,PTH,ComponentDrill
T4C0.0598
%
G90
G05
T1
X5.7749Y-5.4917
X5.8571Y-5.1617
X5.9035Y-8.1304
X6.0179Y-8.03
X6.3238Y-7.7884
X6.7081Y-8.3908
X6.7905Y-6.5976
X6.8191Y-7.4496
X6.8968Y-7.0281
X6.9071Y-7.1884
X6.9818Y-7.1884
X6.9835Y-6.9151
X7.056Y-8.8078
X7.1236Y-8.3087
X7.1405Y-7.0211
X7.1405Y-7.7334
X7.1414Y-8.8156
X7.1729Y-7.766
X7.2315Y-6.7971
X7.2483Y-7.7423
X7.267Y-6.691
X7.5379Y-4.3396
X7.5986Y-7.0884
X7.5987Y-8.9024
X7.6487Y-7.7341
X7.6907Y-7.9655
X7.7238Y-8.7774
X7.9571Y-6.2138
X8.0924Y-5.4367
X8.3019Y-6.9597
X8.3071Y-6.2138
X8.3171Y-8.8368
X8.5405Y-5.8688
X8.6571Y-6.6737
X8.6571Y-6.7438
X8.8904Y-5.0448
X9.4472Y-7.8503
X9.4627Y-6.887
X9.4868Y-7.4156
X9.5219Y-7.0829
X9.5904Y-8.7744
X9.7123Y-5.2892
X9.9404Y-6.5645
X10.1738Y-6.6814
X10.4071Y-8.3182
X10.5238Y-8.7853
X10.5263Y-7.1489
X10.5283Y-5.9666
X10.6404Y-5.2892
X10.6432Y-8.201
X10.7452Y-5.3208
X10.7571Y-4.6941
X10.7571Y-7.7278
X10.8738Y-8.4348
T2
X6.0364Y-8.253
X6.0364Y-8.353
X6.6545Y-8.0758
X6.6545Y-8.1758
X6.6545Y-8.2758
X6.6545Y-8.3758
X7.0059Y-8.2657
X7.0059Y-8.3657
X7.624Y-8.0886
X7.624Y-8.1886
X7.624Y-8.2886
X7.624Y-8.3886
X8.9705Y-8.2638
X8.9705Y-8.3638
X9.5886Y-8.0866
X9.5886Y-8.1866
X9.5886Y-8.2866
X9.5886Y-8.3866
X9.9045Y-5.0669
X9.9045Y-5.1669
X9.94Y-8.25
X9.94Y-8.35
X10.5226Y-4.8898
X10.5226Y-4.9898
X10.5226Y-5.0898
X10.5226Y-5.1898
X10.5581Y-8.0728
X10.5581Y-8.1728
X10.5581Y-8.2728
X10.5581Y-8.3728
T3
X5.6323Y-4.849
X5.6323Y-4.949
X5.6323Y-5.049
X5.6323Y-5.149
X5.6323Y-5.249
X5.6323Y-5.349
X5.6323Y-5.449
X5.6323Y-5.549
X5.6323Y-5.649
X5.6323Y-5.749
X5.6323Y-5.849
X5.6323Y-5.949
X5.6323Y-6.049
X5.6323Y-6.149
X5.6323Y-6.249
X5.6323Y-6.349
X5.6323Y-6.449
X5.6323Y-6.549
X5.6323Y-6.649
X5.6323Y-6.749
X5.7323Y-4.849
X5.7323Y-4.949
X5.7323Y-5.049
X5.7323Y-5.149
X5.7323Y-5.249
X5.7323Y-5.349
X5.7323Y-5.449
X5.7323Y-5.549
X5.7323Y-5.649
X5.7323Y-5.749
X5.7323Y-5.849
X5.7323Y-5.949
X5.7323Y-6.049
X5.7323Y-6.149
X5.7323Y-6.249
X5.7323Y-6.349
X5.7323Y-6.449
X5.7323Y-6.549
X5.7323Y-6.649
X5.7323Y-6.749
X8.2628Y-8.314
X8.3628Y-8.314
T4
X6.3695Y-8.9163
X6.5695Y-8.9163
X10.3925Y-4.2116
X10.5925Y-4.2116
M30
