%TF.GenerationSoftware,KiCad,Pcbnew,9.0.2*%
%TF.CreationDate,2025-07-16T23:03:38+02:00*%
%TF.ProjectId,cargo-vent_cargo-smoke,63617267-6f2d-4766-956e-745f63617267,rev?*%
%TF.SameCoordinates,Original*%
%TF.FileFunction,Copper,L1,Top*%
%TF.FilePolarity,Positive*%
%FSLAX46Y46*%
G04 Gerber Fmt 4.6, Leading zero omitted, Abs format (unit mm)*
G04 Created by KiCad (PCBNEW 9.0.2) date 2025-07-16 23:03:38*
%MOMM*%
%LPD*%
G01*
G04 APERTURE LIST*
G04 Aperture macros list*
%AMRoundRect*
0 Rectangle with rounded corners*
0 $1 Rounding radius*
0 $2 $3 $4 $5 $6 $7 $8 $9 X,Y pos of 4 corners*
0 Add a 4 corners polygon primitive as box body*
4,1,4,$2,$3,$4,$5,$6,$7,$8,$9,$2,$3,0*
0 Add four circle primitives for the rounded corners*
1,1,$1+$1,$2,$3*
1,1,$1+$1,$4,$5*
1,1,$1+$1,$6,$7*
1,1,$1+$1,$8,$9*
0 Add four rect primitives between the rounded corners*
20,1,$1+$1,$2,$3,$4,$5,0*
20,1,$1+$1,$4,$5,$6,$7,0*
20,1,$1+$1,$6,$7,$8,$9,0*
20,1,$1+$1,$8,$9,$2,$3,0*%
G04 Aperture macros list end*
%TA.AperFunction,ComponentPad*%
%ADD10R,1.500000X1.500000*%
%TD*%
%TA.AperFunction,ComponentPad*%
%ADD11R,3.000000X3.000000*%
%TD*%
%TA.AperFunction,ComponentPad*%
%ADD12C,3.000000*%
%TD*%
%TA.AperFunction,ComponentPad*%
%ADD13C,1.700000*%
%TD*%
%TA.AperFunction,ComponentPad*%
%ADD14R,1.700000X1.700000*%
%TD*%
%TA.AperFunction,SMDPad,CuDef*%
%ADD15RoundRect,0.165000X-0.385000X-0.885000X0.385000X-0.885000X0.385000X0.885000X-0.385000X0.885000X0*%
%TD*%
%TA.AperFunction,SMDPad,CuDef*%
%ADD16RoundRect,0.315000X-0.735000X-0.735000X0.735000X-0.735000X0.735000X0.735000X-0.735000X0.735000X0*%
%TD*%
%TA.AperFunction,SMDPad,CuDef*%
%ADD17RoundRect,0.250000X-0.400000X-0.625000X0.400000X-0.625000X0.400000X0.625000X-0.400000X0.625000X0*%
%TD*%
%TA.AperFunction,SMDPad,CuDef*%
%ADD18RoundRect,0.165000X0.885000X-0.385000X0.885000X0.385000X-0.885000X0.385000X-0.885000X-0.385000X0*%
%TD*%
%TA.AperFunction,SMDPad,CuDef*%
%ADD19RoundRect,0.315000X0.735000X-0.735000X0.735000X0.735000X-0.735000X0.735000X-0.735000X-0.735000X0*%
%TD*%
%TA.AperFunction,ViaPad*%
%ADD20C,0.600000*%
%TD*%
%TA.AperFunction,Conductor*%
%ADD21C,0.400000*%
%TD*%
%TA.AperFunction,Conductor*%
%ADD22C,0.600000*%
%TD*%
G04 APERTURE END LIST*
D10*
%TO.P,KR5,1,+5V_TOP_LED*%
%TO.N,unconnected-(KR5-+5V_TOP_LED-Pad1)*%
X268175000Y-205050000D03*
%TO.P,KR5,2,GND_TOP_LED*%
%TO.N,unconnected-(KR5-GND_TOP_LED-Pad2)*%
X268175000Y-207590000D03*
%TO.P,KR5,3,+5V_BOTTOM_LED*%
%TO.N,unconnected-(KR5-+5V_BOTTOM_LED-Pad3)*%
X268175000Y-210130000D03*
%TO.P,KR5,4,GND_BOTTOM_LED*%
%TO.N,unconnected-(KR5-GND_BOTTOM_LED-Pad4)*%
X268175000Y-212670000D03*
%TO.P,KR5,5,SW_IN*%
%TO.N,Net-(J2-Pin_12)*%
X252475000Y-209550000D03*
%TO.P,KR5,6,SW_OUT*%
%TO.N,GND*%
X252475000Y-212090000D03*
%TD*%
%TO.P,KR4,1,+5V_TOP_LED*%
%TO.N,unconnected-(KR4-+5V_TOP_LED-Pad1)*%
X169025000Y-205125000D03*
%TO.P,KR4,2,GND_TOP_LED*%
%TO.N,unconnected-(KR4-GND_TOP_LED-Pad2)*%
X169025000Y-207665000D03*
%TO.P,KR4,3,+5V_BOTTOM_LED*%
%TO.N,unconnected-(KR4-+5V_BOTTOM_LED-Pad3)*%
X169025000Y-210205000D03*
%TO.P,KR4,4,GND_BOTTOM_LED*%
%TO.N,unconnected-(KR4-GND_BOTTOM_LED-Pad4)*%
X169025000Y-212745000D03*
%TO.P,KR4,5,SW_IN*%
%TO.N,Net-(J2-Pin_10)*%
X153325000Y-209625000D03*
%TO.P,KR4,6,SW_OUT*%
%TO.N,GND*%
X153325000Y-212165000D03*
%TD*%
D11*
%TO.P,J3,1,Pin_1*%
%TO.N,GND*%
X166865000Y-226475000D03*
D12*
%TO.P,J3,2,Pin_2*%
%TO.N,+12V*%
X161785000Y-226475000D03*
%TD*%
D13*
%TO.P,J2,40,Pin_40*%
%TO.N,unconnected-(J2-Pin_40-Pad40)*%
X145600000Y-123165000D03*
%TO.P,J2,39,Pin_39*%
%TO.N,unconnected-(J2-Pin_39-Pad39)*%
X143060000Y-123165000D03*
%TO.P,J2,38,Pin_38*%
%TO.N,unconnected-(J2-Pin_38-Pad38)*%
X145600000Y-125705000D03*
%TO.P,J2,37,Pin_37*%
%TO.N,unconnected-(J2-Pin_37-Pad37)*%
X143060000Y-125705000D03*
%TO.P,J2,36,Pin_36*%
%TO.N,unconnected-(J2-Pin_36-Pad36)*%
X145600000Y-128245000D03*
%TO.P,J2,35,Pin_35*%
%TO.N,unconnected-(J2-Pin_35-Pad35)*%
X143060000Y-128245000D03*
%TO.P,J2,34,Pin_34*%
%TO.N,unconnected-(J2-Pin_34-Pad34)*%
X145600000Y-130785000D03*
%TO.P,J2,33,Pin_33*%
%TO.N,unconnected-(J2-Pin_33-Pad33)*%
X143060000Y-130785000D03*
%TO.P,J2,32,Pin_32*%
%TO.N,unconnected-(J2-Pin_32-Pad32)*%
X145600000Y-133325000D03*
%TO.P,J2,31,Pin_31*%
%TO.N,unconnected-(J2-Pin_31-Pad31)*%
X143060000Y-133325000D03*
%TO.P,J2,30,Pin_30*%
%TO.N,unconnected-(J2-Pin_30-Pad30)*%
X145600000Y-135865000D03*
%TO.P,J2,29,Pin_29*%
%TO.N,unconnected-(J2-Pin_29-Pad29)*%
X143060000Y-135865000D03*
%TO.P,J2,28,Pin_28*%
%TO.N,unconnected-(J2-Pin_28-Pad28)*%
X145600000Y-138405000D03*
%TO.P,J2,27,Pin_27*%
%TO.N,unconnected-(J2-Pin_27-Pad27)*%
X143060000Y-138405000D03*
%TO.P,J2,26,Pin_26*%
%TO.N,unconnected-(J2-Pin_26-Pad26)*%
X145600000Y-140945000D03*
%TO.P,J2,25,Pin_25*%
%TO.N,unconnected-(J2-Pin_25-Pad25)*%
X143060000Y-140945000D03*
%TO.P,J2,24,Pin_24*%
%TO.N,unconnected-(J2-Pin_24-Pad24)*%
X145600000Y-143485000D03*
%TO.P,J2,23,Pin_23*%
%TO.N,unconnected-(J2-Pin_23-Pad23)*%
X143060000Y-143485000D03*
%TO.P,J2,22,Pin_22*%
%TO.N,unconnected-(J2-Pin_22-Pad22)*%
X145600000Y-146025000D03*
%TO.P,J2,21,Pin_21*%
%TO.N,unconnected-(J2-Pin_21-Pad21)*%
X143060000Y-146025000D03*
%TO.P,J2,20,Pin_20*%
%TO.N,unconnected-(J2-Pin_20-Pad20)*%
X145600000Y-148565000D03*
%TO.P,J2,19,Pin_19*%
%TO.N,unconnected-(J2-Pin_19-Pad19)*%
X143060000Y-148565000D03*
%TO.P,J2,18,Pin_18*%
%TO.N,unconnected-(J2-Pin_18-Pad18)*%
X145600000Y-151105000D03*
%TO.P,J2,17,Pin_17*%
%TO.N,unconnected-(J2-Pin_17-Pad17)*%
X143060000Y-151105000D03*
%TO.P,J2,16,Pin_16*%
%TO.N,unconnected-(J2-Pin_16-Pad16)*%
X145600000Y-153645000D03*
%TO.P,J2,15,Pin_15*%
%TO.N,unconnected-(J2-Pin_15-Pad15)*%
X143060000Y-153645000D03*
%TO.P,J2,14,Pin_14*%
%TO.N,unconnected-(J2-Pin_14-Pad14)*%
X145600000Y-156185000D03*
%TO.P,J2,13,Pin_13*%
%TO.N,unconnected-(J2-Pin_13-Pad13)*%
X143060000Y-156185000D03*
%TO.P,J2,12,Pin_12*%
%TO.N,Net-(J2-Pin_12)*%
X145600000Y-158725000D03*
%TO.P,J2,11,Pin_11*%
%TO.N,Net-(J2-Pin_11)*%
X143060000Y-158725000D03*
%TO.P,J2,10,Pin_10*%
%TO.N,Net-(J2-Pin_10)*%
X145600000Y-161265000D03*
%TO.P,J2,9,Pin_9*%
%TO.N,Net-(J2-Pin_9)*%
X143060000Y-161265000D03*
%TO.P,J2,8,Pin_8*%
%TO.N,Net-(J2-Pin_8)*%
X145600000Y-163805000D03*
%TO.P,J2,7,Pin_7*%
%TO.N,Net-(J2-Pin_7)*%
X143060000Y-163805000D03*
%TO.P,J2,6,Pin_6*%
%TO.N,Net-(J2-Pin_6)*%
X145600000Y-166345000D03*
%TO.P,J2,5,Pin_5*%
%TO.N,Net-(J2-Pin_5)*%
X143060000Y-166345000D03*
%TO.P,J2,4,Pin_4*%
%TO.N,Net-(J2-Pin_4)*%
X145600000Y-168885000D03*
%TO.P,J2,3,Pin_3*%
%TO.N,Net-(J2-Pin_3)*%
X143060000Y-168885000D03*
%TO.P,J2,2,Pin_2*%
%TO.N,Net-(J2-Pin_2)*%
X145600000Y-171425000D03*
D14*
%TO.P,J2,1,Pin_1*%
%TO.N,Net-(J2-Pin_1)*%
X143060000Y-171425000D03*
%TD*%
D15*
%TO.P,D9,1,K*%
%TO.N,Net-(D9-K)*%
X265850000Y-146025000D03*
D16*
%TO.P,D9,2,A*%
%TO.N,Net-(D8-K)*%
X268000000Y-146025000D03*
%TD*%
D15*
%TO.P,D21,1,K*%
%TO.N,Net-(D21-K)*%
X169250000Y-188150000D03*
D16*
%TO.P,D21,2,A*%
%TO.N,Net-(D20-K)*%
X171400000Y-188150000D03*
%TD*%
D10*
%TO.P,KR1,1,+5V_TOP_LED*%
%TO.N,Net-(J2-Pin_1)*%
X267275000Y-124200000D03*
%TO.P,KR1,2,GND_TOP_LED*%
%TO.N,GND*%
X267275000Y-126740000D03*
%TO.P,KR1,3,+5V_BOTTOM_LED*%
%TO.N,Net-(J2-Pin_2)*%
X267275000Y-129280000D03*
%TO.P,KR1,4,GND_BOTTOM_LED*%
%TO.N,GND*%
X267275000Y-131820000D03*
%TO.P,KR1,5,SW_IN*%
%TO.N,Net-(J2-Pin_3)*%
X251575000Y-128700000D03*
%TO.P,KR1,6,SW_OUT*%
%TO.N,GND*%
X251575000Y-131240000D03*
%TD*%
D15*
%TO.P,D33,1,K*%
%TO.N,Net-(D33-K)*%
X244375000Y-225125000D03*
D16*
%TO.P,D33,2,A*%
%TO.N,Net-(D32-K)*%
X246525000Y-225125000D03*
%TD*%
D15*
%TO.P,D42,1,K*%
%TO.N,Net-(D42-K)*%
X215085000Y-157800000D03*
D16*
%TO.P,D42,2,A*%
%TO.N,Net-(D41-K)*%
X217235000Y-157800000D03*
%TD*%
D15*
%TO.P,D14,1,K*%
%TO.N,Net-(D14-K)*%
X215460000Y-178475000D03*
D16*
%TO.P,D14,2,A*%
%TO.N,Net-(D13-K)*%
X217610000Y-178475000D03*
%TD*%
D15*
%TO.P,D16,1,K*%
%TO.N,Net-(D16-K)*%
X176950000Y-178625000D03*
D16*
%TO.P,D16,2,A*%
%TO.N,+12V*%
X179100000Y-178625000D03*
%TD*%
D15*
%TO.P,D6,1,K*%
%TO.N,Net-(D6-K)*%
X240200000Y-120550000D03*
D16*
%TO.P,D6,2,A*%
%TO.N,Net-(D5-K)*%
X242350000Y-120550000D03*
%TD*%
D17*
%TO.P,R12,1*%
%TO.N,Net-(D36-K)*%
X262200000Y-179925000D03*
%TO.P,R12,2*%
%TO.N,GND*%
X265300000Y-179925000D03*
%TD*%
D18*
%TO.P,D29,1,K*%
%TO.N,Net-(D29-K)*%
X219125000Y-212700000D03*
D19*
%TO.P,D29,2,A*%
%TO.N,Net-(D28-K)*%
X219125000Y-210550000D03*
%TD*%
D17*
%TO.P,R8,1*%
%TO.N,Net-(D24-K)*%
X199525000Y-193550000D03*
%TO.P,R8,2*%
%TO.N,GND*%
X202625000Y-193550000D03*
%TD*%
D15*
%TO.P,D10,1,K*%
%TO.N,Net-(D10-K)*%
X274660000Y-136050000D03*
D16*
%TO.P,D10,2,A*%
%TO.N,+12V*%
X276810000Y-136050000D03*
%TD*%
D15*
%TO.P,D27,1,K*%
%TO.N,Net-(D27-K)*%
X220325000Y-194150000D03*
D16*
%TO.P,D27,2,A*%
%TO.N,Net-(D26-K)*%
X222475000Y-194150000D03*
%TD*%
D15*
%TO.P,D15,1,K*%
%TO.N,Net-(D15-K)*%
X148450000Y-178450000D03*
D16*
%TO.P,D15,2,A*%
%TO.N,Net-(D14-K)*%
X150600000Y-178450000D03*
%TD*%
D15*
%TO.P,D41,1,K*%
%TO.N,Net-(D41-K)*%
X204675000Y-136650000D03*
D16*
%TO.P,D41,2,A*%
%TO.N,Net-(D40-K)*%
X206825000Y-136650000D03*
%TD*%
D15*
%TO.P,D39,1,K*%
%TO.N,Net-(D39-K)*%
X268925000Y-225675000D03*
D16*
%TO.P,D39,2,A*%
%TO.N,Net-(D38-K)*%
X271075000Y-225675000D03*
%TD*%
D15*
%TO.P,D34,1,K*%
%TO.N,Net-(D34-K)*%
X250475000Y-188300000D03*
D16*
%TO.P,D34,2,A*%
%TO.N,+12V*%
X252625000Y-188300000D03*
%TD*%
D15*
%TO.P,D5,1,K*%
%TO.N,Net-(D5-K)*%
X276525000Y-111100000D03*
D16*
%TO.P,D5,2,A*%
%TO.N,Net-(D4-K)*%
X278675000Y-111100000D03*
%TD*%
D17*
%TO.P,R4,1*%
%TO.N,Net-(D12-K)*%
X214850000Y-146850000D03*
%TO.P,R4,2*%
%TO.N,GND*%
X217950000Y-146850000D03*
%TD*%
%TO.P,R3,1*%
%TO.N,Net-(D9-K)*%
X265700000Y-153575000D03*
%TO.P,R3,2*%
%TO.N,GND*%
X268800000Y-153575000D03*
%TD*%
%TO.P,R1,1*%
%TO.N,Net-(D3-K)*%
X219300000Y-124775000D03*
%TO.P,R1,2*%
%TO.N,GND*%
X222400000Y-124775000D03*
%TD*%
D15*
%TO.P,D20,1,K*%
%TO.N,Net-(D20-K)*%
X143525000Y-217300000D03*
D16*
%TO.P,D20,2,A*%
%TO.N,Net-(D19-K)*%
X145675000Y-217300000D03*
%TD*%
D15*
%TO.P,D12,1,K*%
%TO.N,Net-(D12-K)*%
X214985000Y-136550000D03*
D16*
%TO.P,D12,2,A*%
%TO.N,Net-(D11-K)*%
X217135000Y-136550000D03*
%TD*%
D15*
%TO.P,D36,1,K*%
%TO.N,Net-(D36-K)*%
X269650000Y-188300000D03*
D16*
%TO.P,D36,2,A*%
%TO.N,Net-(D35-K)*%
X271800000Y-188300000D03*
%TD*%
D15*
%TO.P,D8,1,K*%
%TO.N,Net-(D8-K)*%
X251950000Y-146025000D03*
D16*
%TO.P,D8,2,A*%
%TO.N,Net-(D7-K)*%
X254100000Y-146025000D03*
%TD*%
D17*
%TO.P,R11,1*%
%TO.N,Net-(D33-K)*%
X233400000Y-225425000D03*
%TO.P,R11,2*%
%TO.N,GND*%
X236500000Y-225425000D03*
%TD*%
%TO.P,R9,1*%
%TO.N,Net-(D27-K)*%
X236450000Y-188050000D03*
%TO.P,R9,2*%
%TO.N,GND*%
X239550000Y-188050000D03*
%TD*%
D15*
%TO.P,D35,1,K*%
%TO.N,Net-(D35-K)*%
X271225000Y-180150000D03*
D16*
%TO.P,D35,2,A*%
%TO.N,Net-(D34-K)*%
X273375000Y-180150000D03*
%TD*%
D15*
%TO.P,D37,1,K*%
%TO.N,Net-(D37-K)*%
X275910000Y-196375000D03*
D16*
%TO.P,D37,2,A*%
%TO.N,+12V*%
X278060000Y-196375000D03*
%TD*%
D15*
%TO.P,D17,1,K*%
%TO.N,Net-(D17-K)*%
X204725000Y-178625000D03*
D16*
%TO.P,D17,2,A*%
%TO.N,Net-(D16-K)*%
X206875000Y-178625000D03*
%TD*%
D15*
%TO.P,D25,1,K*%
%TO.N,Net-(D25-K)*%
X194825000Y-225275000D03*
D16*
%TO.P,D25,2,A*%
%TO.N,+12V*%
X196975000Y-225275000D03*
%TD*%
D15*
%TO.P,D13,1,K*%
%TO.N,Net-(D13-K)*%
X204925000Y-158050000D03*
D16*
%TO.P,D13,2,A*%
%TO.N,+12V*%
X207075000Y-158050000D03*
%TD*%
D15*
%TO.P,D23,1,K*%
%TO.N,Net-(D23-K)*%
X175500000Y-225200000D03*
D16*
%TO.P,D23,2,A*%
%TO.N,Net-(D22-K)*%
X177650000Y-225200000D03*
%TD*%
D15*
%TO.P,D38,1,K*%
%TO.N,Net-(D38-K)*%
X275650000Y-218400000D03*
D16*
%TO.P,D38,2,A*%
%TO.N,Net-(D37-K)*%
X277800000Y-218400000D03*
%TD*%
D15*
%TO.P,D24,1,K*%
%TO.N,Net-(D24-K)*%
X192275000Y-193925000D03*
D16*
%TO.P,D24,2,A*%
%TO.N,Net-(D23-K)*%
X194425000Y-193925000D03*
%TD*%
D15*
%TO.P,D22,1,K*%
%TO.N,Net-(D22-K)*%
X175900000Y-196225000D03*
D16*
%TO.P,D22,2,A*%
%TO.N,+12V*%
X178050000Y-196225000D03*
%TD*%
D14*
%TO.P,J4,1,Pin_1*%
%TO.N,GND*%
X209875000Y-211175000D03*
D13*
%TO.P,J4,2,Pin_2*%
%TO.N,Net-(J2-Pin_11)*%
X212415000Y-211175000D03*
%TD*%
D15*
%TO.P,D11,1,K*%
%TO.N,Net-(D11-K)*%
X274575000Y-122500000D03*
D16*
%TO.P,D11,2,A*%
%TO.N,Net-(D10-K)*%
X276725000Y-122500000D03*
%TD*%
D17*
%TO.P,R10,1*%
%TO.N,Net-(D30-K)*%
X209650000Y-225275000D03*
%TO.P,R10,2*%
%TO.N,GND*%
X212750000Y-225275000D03*
%TD*%
%TO.P,R6,1*%
%TO.N,Net-(D18-K)*%
X181150000Y-188050000D03*
%TO.P,R6,2*%
%TO.N,GND*%
X184250000Y-188050000D03*
%TD*%
D15*
%TO.P,D26,1,K*%
%TO.N,Net-(D26-K)*%
X202100000Y-198200000D03*
D16*
%TO.P,D26,2,A*%
%TO.N,Net-(D25-K)*%
X204250000Y-198200000D03*
%TD*%
D17*
%TO.P,R14,1*%
%TO.N,Net-(D42-K)*%
X214550000Y-168600000D03*
%TO.P,R14,2*%
%TO.N,GND*%
X217650000Y-168600000D03*
%TD*%
%TO.P,R13,1*%
%TO.N,Net-(D39-K)*%
X275525000Y-208875000D03*
%TO.P,R13,2*%
%TO.N,GND*%
X278625000Y-208875000D03*
%TD*%
D15*
%TO.P,D19,1,K*%
%TO.N,Net-(D19-K)*%
X143434800Y-196475000D03*
D16*
%TO.P,D19,2,A*%
%TO.N,+12V*%
X145584800Y-196475000D03*
%TD*%
D17*
%TO.P,R5,1*%
%TO.N,Net-(D15-K)*%
X162325000Y-178400000D03*
%TO.P,R5,2*%
%TO.N,GND*%
X165425000Y-178400000D03*
%TD*%
%TO.P,R7,1*%
%TO.N,Net-(D21-K)*%
X190200000Y-178550000D03*
%TO.P,R7,2*%
%TO.N,GND*%
X193300000Y-178550000D03*
%TD*%
D15*
%TO.P,D40,1,K*%
%TO.N,Net-(D40-K)*%
X152875000Y-225700000D03*
D16*
%TO.P,D40,2,A*%
%TO.N,+12V*%
X155025000Y-225700000D03*
%TD*%
D15*
%TO.P,D18,1,K*%
%TO.N,Net-(D18-K)*%
X149625000Y-187925000D03*
D16*
%TO.P,D18,2,A*%
%TO.N,Net-(D17-K)*%
X151775000Y-187925000D03*
%TD*%
D15*
%TO.P,D32,1,K*%
%TO.N,Net-(D32-K)*%
X242725000Y-196150000D03*
D16*
%TO.P,D32,2,A*%
%TO.N,Net-(D31-K)*%
X244875000Y-196150000D03*
%TD*%
D10*
%TO.P,KR3,1,+5V_TOP_LED*%
%TO.N,Net-(J2-Pin_7)*%
X243550000Y-205400000D03*
%TO.P,KR3,2,GND_TOP_LED*%
%TO.N,GND*%
X243550000Y-207940000D03*
%TO.P,KR3,3,+5V_BOTTOM_LED*%
%TO.N,Net-(J2-Pin_8)*%
X243550000Y-210480000D03*
%TO.P,KR3,4,GND_BOTTOM_LED*%
%TO.N,GND*%
X243550000Y-213020000D03*
%TO.P,KR3,5,SW_IN*%
%TO.N,Net-(J2-Pin_9)*%
X227850000Y-209900000D03*
%TO.P,KR3,6,SW_OUT*%
%TO.N,GND*%
X227850000Y-212440000D03*
%TD*%
%TO.P,KR2,1,+5V_TOP_LED*%
%TO.N,Net-(J2-Pin_4)*%
X193650000Y-205450000D03*
%TO.P,KR2,2,GND_TOP_LED*%
%TO.N,GND*%
X193650000Y-207990000D03*
%TO.P,KR2,3,+5V_BOTTOM_LED*%
%TO.N,Net-(J2-Pin_5)*%
X193650000Y-210530000D03*
%TO.P,KR2,4,GND_BOTTOM_LED*%
%TO.N,GND*%
X193650000Y-213070000D03*
%TO.P,KR2,5,SW_IN*%
%TO.N,Net-(J2-Pin_6)*%
X177950000Y-209950000D03*
%TO.P,KR2,6,SW_OUT*%
%TO.N,GND*%
X177950000Y-212490000D03*
%TD*%
D15*
%TO.P,D31,1,K*%
%TO.N,Net-(D31-K)*%
X236700000Y-180375000D03*
D16*
%TO.P,D31,2,A*%
%TO.N,+12V*%
X238850000Y-180375000D03*
%TD*%
D15*
%TO.P,D4,1,K*%
%TO.N,Net-(D4-K)*%
X235375000Y-112700000D03*
D16*
%TO.P,D4,2,A*%
%TO.N,+12V*%
X237525000Y-112700000D03*
%TD*%
D18*
%TO.P,D28,1,K*%
%TO.N,Net-(D28-K)*%
X202975000Y-212850000D03*
D19*
%TO.P,D28,2,A*%
%TO.N,+12V*%
X202975000Y-210700000D03*
%TD*%
D15*
%TO.P,D7,1,K*%
%TO.N,Net-(D7-K)*%
X240900000Y-134800000D03*
D16*
%TO.P,D7,2,A*%
%TO.N,+12V*%
X243050000Y-134800000D03*
%TD*%
D15*
%TO.P,D1,1,K*%
%TO.N,Net-(D1-K)*%
X187450000Y-110225000D03*
D16*
%TO.P,D1,2,A*%
%TO.N,+12V*%
X189600000Y-110225000D03*
%TD*%
D15*
%TO.P,D30,1,K*%
%TO.N,Net-(D30-K)*%
X220550000Y-225125000D03*
D16*
%TO.P,D30,2,A*%
%TO.N,Net-(D29-K)*%
X222700000Y-225125000D03*
%TD*%
D17*
%TO.P,R2,1*%
%TO.N,Net-(D6-K)*%
X239675000Y-127850000D03*
%TO.P,R2,2*%
%TO.N,GND*%
X242775000Y-127850000D03*
%TD*%
D15*
%TO.P,D2,1,K*%
%TO.N,Net-(D2-K)*%
X202950000Y-117150000D03*
D16*
%TO.P,D2,2,A*%
%TO.N,Net-(D1-K)*%
X205100000Y-117150000D03*
%TD*%
D15*
%TO.P,D3,1,K*%
%TO.N,Net-(D3-K)*%
X219350000Y-117350000D03*
D16*
%TO.P,D3,2,A*%
%TO.N,Net-(D2-K)*%
X221500000Y-117350000D03*
%TD*%
D11*
%TO.P,J1,1,Pin_1*%
%TO.N,GND*%
X263970000Y-106975000D03*
D12*
%TO.P,J1,2,Pin_2*%
%TO.N,+12V*%
X269050000Y-106975000D03*
%TD*%
D20*
%TO.N,Net-(J2-Pin_3)*%
X146683200Y-139488300D03*
%TO.N,Net-(J2-Pin_5)*%
X149948100Y-206513300D03*
%TO.N,Net-(J2-Pin_8)*%
X152854500Y-203963100D03*
%TO.N,Net-(J2-Pin_4)*%
X183680500Y-172646300D03*
%TO.N,Net-(J2-Pin_1)*%
X148771600Y-131106800D03*
%TO.N,Net-(J2-Pin_11)*%
X211000900Y-157829600D03*
%TO.N,Net-(J2-Pin_7)*%
X240353600Y-174931000D03*
%TO.N,Net-(J2-Pin_6)*%
X172478000Y-167579500D03*
%TO.N,Net-(J2-Pin_12)*%
X252487100Y-166737200D03*
%TO.N,Net-(J2-Pin_2)*%
X258413700Y-169706400D03*
%TO.N,Net-(J2-Pin_9)*%
X219890800Y-171291400D03*
%TO.N,GND*%
X211255200Y-224454200D03*
X194276400Y-196445000D03*
X216927500Y-149066300D03*
X219890800Y-169511400D03*
X267368100Y-181583200D03*
X264340300Y-211281700D03*
X193004300Y-180046400D03*
X267417600Y-151552800D03*
X240965300Y-188356600D03*
X225817400Y-128137600D03*
%TO.N,Net-(D40-K)*%
X196184400Y-222945600D03*
X205547100Y-138091000D03*
%TO.N,Net-(D39-K)*%
X267303600Y-223145900D03*
X270336800Y-208306000D03*
%TO.N,Net-(D37-K)*%
X276193500Y-214244400D03*
X273230200Y-196285900D03*
%TO.N,Net-(D32-K)*%
X243597200Y-222870900D03*
X239958800Y-199398400D03*
%TO.N,Net-(D25-K)*%
X195343600Y-202323000D03*
X193006900Y-226121200D03*
%TO.N,Net-(D23-K)*%
X181391800Y-223915100D03*
X184106200Y-196654100D03*
%TO.N,Net-(D22-K)*%
X179221700Y-223719200D03*
X182192800Y-197255600D03*
%TO.N,Net-(D21-K)*%
X175177900Y-178514600D03*
X175441300Y-182586400D03*
%TO.N,Net-(D20-K)*%
X170385700Y-213127400D03*
X173205400Y-189220100D03*
%TO.N,Net-(D16-K)*%
X177336500Y-182586400D03*
X177380600Y-175644800D03*
%TO.N,Net-(D13-K)*%
X202111000Y-157829600D03*
X210867100Y-176775200D03*
%TO.N,Net-(D10-K)*%
X273230200Y-119230000D03*
X272929000Y-135148400D03*
%TO.N,+12V*%
X184582100Y-169951400D03*
X181367900Y-196429200D03*
X160624800Y-197825500D03*
X180939500Y-211040300D03*
X270266900Y-134346700D03*
X191462500Y-110225000D03*
X246691900Y-134346700D03*
X241855000Y-179905600D03*
X181367900Y-178335600D03*
%TD*%
D21*
%TO.N,Net-(J2-Pin_3)*%
X151576900Y-134594600D02*
X146683200Y-139488300D01*
X212832800Y-134594600D02*
X151576900Y-134594600D01*
X213081900Y-134345500D02*
X212832800Y-134594600D01*
X213081900Y-134345500D02*
X212832800Y-134594600D01*
X251575000Y-128700000D02*
X250423300Y-128700000D01*
X248776700Y-130346600D02*
X250423300Y-128700000D01*
X217080800Y-130346600D02*
X248776700Y-130346600D01*
X213081900Y-134345500D02*
X217080800Y-130346600D01*
%TO.N,Net-(J2-Pin_5)*%
X188481600Y-206513300D02*
X149948100Y-206513300D01*
X192498300Y-210530000D02*
X188481600Y-206513300D01*
X193650000Y-210530000D02*
X192498300Y-210530000D01*
%TO.N,Net-(J2-Pin_8)*%
X235881400Y-203963100D02*
X152854500Y-203963100D01*
X242398300Y-210480000D02*
X235881400Y-203963100D01*
X243550000Y-210480000D02*
X242398300Y-210480000D01*
%TO.N,Net-(J2-Pin_4)*%
X149361300Y-172646300D02*
X183680500Y-172646300D01*
X145600000Y-168885000D02*
X149361300Y-172646300D01*
%TO.N,Net-(J2-Pin_1)*%
X244472100Y-124200000D02*
X267275000Y-124200000D01*
X240973000Y-127699100D02*
X244472100Y-124200000D01*
X240973000Y-128521300D02*
X240973000Y-127699100D01*
X240351100Y-129143200D02*
X240973000Y-128521300D01*
X237803600Y-129143200D02*
X240351100Y-129143200D01*
X232106100Y-123445700D02*
X237803600Y-129143200D01*
X221710700Y-123445700D02*
X232106100Y-123445700D01*
X220352700Y-124803700D02*
X221710700Y-123445700D01*
X220352700Y-125678400D02*
X220352700Y-124803700D01*
X214924300Y-131106800D02*
X220352700Y-125678400D01*
X148771600Y-131106800D02*
X214924300Y-131106800D01*
%TO.N,Net-(J2-Pin_11)*%
X209736600Y-156565300D02*
X211000900Y-157829600D01*
X183898500Y-156565300D02*
X209736600Y-156565300D01*
X183008800Y-157455000D02*
X183898500Y-156565300D01*
X144330000Y-157455000D02*
X183008800Y-157455000D01*
X143060000Y-158725000D02*
X144330000Y-157455000D01*
%TO.N,Net-(J2-Pin_7)*%
X236765400Y-171342800D02*
X240353600Y-174931000D01*
X222032600Y-171342800D02*
X236765400Y-171342800D01*
X221783500Y-171591900D02*
X222032600Y-171342800D01*
X221783500Y-171591900D02*
X222032600Y-171342800D01*
X221368600Y-172006800D02*
X221783500Y-171591900D01*
X216059700Y-172006800D02*
X221368600Y-172006800D01*
X215997400Y-171944500D02*
X216059700Y-172006800D01*
X181757500Y-171944500D02*
X215997400Y-171944500D01*
X174891000Y-165078000D02*
X181757500Y-171944500D01*
X144333000Y-165078000D02*
X174891000Y-165078000D01*
X143060000Y-163805000D02*
X144333000Y-165078000D01*
%TO.N,Net-(J2-Pin_6)*%
X146834500Y-167579500D02*
X172478000Y-167579500D01*
X145600000Y-166345000D02*
X146834500Y-167579500D01*
%TO.N,Net-(J2-Pin_12)*%
X170790700Y-158725000D02*
X145600000Y-158725000D01*
X182782100Y-170716400D02*
X170790700Y-158725000D01*
X219473600Y-170716400D02*
X182782100Y-170716400D01*
X219600300Y-170589700D02*
X219473600Y-170716400D01*
X248634600Y-170589700D02*
X219600300Y-170589700D01*
X252487100Y-166737200D02*
X248634600Y-170589700D01*
%TO.N,Net-(J2-Pin_2)*%
X182146400Y-180950700D02*
X182347000Y-180750100D01*
X182146400Y-180950700D02*
X182347000Y-180750100D01*
X149075200Y-174900200D02*
X145600000Y-171425000D01*
X149075200Y-174900300D02*
X149075200Y-174900200D01*
X160811100Y-174900300D02*
X149075200Y-174900300D01*
X163875000Y-177964200D02*
X160811100Y-174900300D01*
X163875000Y-178804600D02*
X163875000Y-177964200D01*
X166353400Y-181283000D02*
X163875000Y-178804600D01*
X177876200Y-181283000D02*
X166353400Y-181283000D01*
X177896500Y-181303300D02*
X177876200Y-181283000D01*
X181793800Y-181303300D02*
X177896500Y-181303300D01*
X182146400Y-180950700D02*
X181793800Y-181303300D01*
X193424300Y-180750100D02*
X182347000Y-180750100D01*
X198274000Y-175900400D02*
X193424300Y-180750100D01*
X252219700Y-175900400D02*
X198274000Y-175900400D01*
X258413700Y-169706400D02*
X252219700Y-175900400D01*
%TO.N,Net-(J2-Pin_9)*%
X144330000Y-162535000D02*
X143060000Y-161265000D01*
X173499000Y-162535000D02*
X144330000Y-162535000D01*
X182306800Y-171342800D02*
X173499000Y-162535000D01*
X219839400Y-171342800D02*
X182306800Y-171342800D01*
X219890800Y-171291400D02*
X219839400Y-171342800D01*
%TO.N,GND*%
X252475000Y-212090000D02*
X253626700Y-212090000D01*
X175901600Y-211593300D02*
X176798300Y-212490000D01*
X155048400Y-211593300D02*
X175901600Y-211593300D01*
X154476700Y-212165000D02*
X155048400Y-211593300D01*
X153325000Y-212165000D02*
X154476700Y-212165000D01*
X177950000Y-212490000D02*
X176798300Y-212490000D01*
X197125000Y-188050000D02*
X184250000Y-188050000D01*
X202625000Y-193550000D02*
X197125000Y-188050000D01*
X241818300Y-212440000D02*
X242398300Y-213020000D01*
X227850000Y-212440000D02*
X241818300Y-212440000D01*
X209875000Y-211175000D02*
X208623300Y-211175000D01*
X242974200Y-213020000D02*
X242398300Y-213020000D01*
X242974200Y-213020000D02*
X243550000Y-213020000D01*
X250393300Y-213020000D02*
X251323300Y-212090000D01*
X243550000Y-213020000D02*
X250393300Y-213020000D01*
X252475000Y-212090000D02*
X251323300Y-212090000D01*
X242398300Y-219526700D02*
X242398300Y-213020000D01*
X236500000Y-225425000D02*
X242398300Y-219526700D01*
X212076000Y-225275000D02*
X211255200Y-224454200D01*
X212750000Y-225275000D02*
X212076000Y-225275000D01*
X191918300Y-212490000D02*
X192498300Y-213070000D01*
X177950000Y-212490000D02*
X191918300Y-212490000D01*
X193650000Y-213070000D02*
X192498300Y-213070000D01*
X199730000Y-196445000D02*
X194276400Y-196445000D01*
X202625000Y-193550000D02*
X199730000Y-196445000D01*
X216927500Y-147872500D02*
X216927500Y-149066300D01*
X217950000Y-146850000D02*
X216927500Y-147872500D01*
X227850000Y-212440000D02*
X226698300Y-212440000D01*
X223343100Y-209084800D02*
X208623300Y-209084800D01*
X226698300Y-212440000D02*
X223343100Y-209084800D01*
X208623300Y-211175000D02*
X208623300Y-209084800D01*
X207528500Y-207990000D02*
X193650000Y-207990000D01*
X208623300Y-209084800D02*
X207528500Y-207990000D01*
X251575000Y-131240000D02*
X252726700Y-131240000D01*
X257226700Y-126740000D02*
X254485900Y-129480800D01*
X267275000Y-126740000D02*
X257226700Y-126740000D01*
X252533100Y-127528100D02*
X254485900Y-129480800D01*
X243096900Y-127528100D02*
X252533100Y-127528100D01*
X242775000Y-127850000D02*
X243096900Y-127528100D01*
X254485900Y-129480800D02*
X252726700Y-131240000D01*
X265709900Y-179925000D02*
X267368100Y-181583200D01*
X265300000Y-179925000D02*
X265709900Y-179925000D01*
X276218300Y-211281700D02*
X264340300Y-211281700D01*
X278625000Y-208875000D02*
X276218300Y-211281700D01*
X254435000Y-211281700D02*
X253626700Y-212090000D01*
X264340300Y-211281700D02*
X254435000Y-211281700D01*
X193004300Y-178845700D02*
X193004300Y-180046400D01*
X193300000Y-178550000D02*
X193004300Y-178845700D01*
X267417600Y-152192600D02*
X267417600Y-151552800D01*
X268800000Y-153575000D02*
X267417600Y-152192600D01*
X218561400Y-169511400D02*
X217650000Y-168600000D01*
X219890800Y-169511400D02*
X218561400Y-169511400D01*
X239856600Y-188356600D02*
X239550000Y-188050000D01*
X240965300Y-188356600D02*
X239856600Y-188356600D01*
X167706300Y-180681300D02*
X165425000Y-178400000D01*
X181456800Y-180681300D02*
X167706300Y-180681300D01*
X182091700Y-180046400D02*
X181456800Y-180681300D01*
X193004300Y-180046400D02*
X182091700Y-180046400D01*
X225762600Y-128137600D02*
X225817400Y-128137600D01*
X222400000Y-124775000D02*
X225762600Y-128137600D01*
X240880100Y-129744900D02*
X242775000Y-127850000D01*
X227424700Y-129744900D02*
X240880100Y-129744900D01*
X225817400Y-128137600D02*
X227424700Y-129744900D01*
%TO.N,Net-(D42-K)*%
X215085000Y-168065000D02*
X215085000Y-157800000D01*
X214550000Y-168600000D02*
X215085000Y-168065000D01*
%TO.N,Net-(D41-K)*%
X204675000Y-145240000D02*
X217235000Y-157800000D01*
X204675000Y-136650000D02*
X204675000Y-145240000D01*
%TO.N,Net-(D40-K)*%
X155300800Y-222945600D02*
X196184400Y-222945600D01*
X152875000Y-225371400D02*
X155300800Y-222945600D01*
X152875000Y-225700000D02*
X152875000Y-225371400D01*
X206825000Y-136813100D02*
X206825000Y-136650000D01*
X205547100Y-138091000D02*
X206825000Y-136813100D01*
%TO.N,Net-(D39-K)*%
X267303600Y-224053600D02*
X267303600Y-223145900D01*
X268925000Y-225675000D02*
X267303600Y-224053600D01*
X274956000Y-208306000D02*
X275525000Y-208875000D01*
X270336800Y-208306000D02*
X274956000Y-208306000D01*
%TO.N,Net-(D38-K)*%
X275650000Y-221100000D02*
X275650000Y-218400000D01*
X271075000Y-225675000D02*
X275650000Y-221100000D01*
%TO.N,Net-(D37-K)*%
X277800000Y-215850900D02*
X276193500Y-214244400D01*
X277800000Y-218400000D02*
X277800000Y-215850900D01*
X275820900Y-196285900D02*
X275910000Y-196375000D01*
X273230200Y-196285900D02*
X275820900Y-196285900D01*
%TO.N,Net-(D36-K)*%
X269650000Y-187375000D02*
X269650000Y-188300000D01*
X262200000Y-179925000D02*
X269650000Y-187375000D01*
%TO.N,Net-(D35-K)*%
X271225000Y-187725000D02*
X271800000Y-188300000D01*
X271225000Y-180150000D02*
X271225000Y-187725000D01*
%TO.N,Net-(D34-K)*%
X271861900Y-178636900D02*
X273375000Y-180150000D01*
X259734100Y-178636900D02*
X271861900Y-178636900D01*
X250475000Y-187896000D02*
X259734100Y-178636900D01*
X250475000Y-188300000D02*
X250475000Y-187896000D01*
%TO.N,Net-(D33-K)*%
X242736300Y-226763700D02*
X244375000Y-225125000D01*
X234738700Y-226763700D02*
X242736300Y-226763700D01*
X233400000Y-225425000D02*
X234738700Y-226763700D01*
%TO.N,Net-(D32-K)*%
X243597200Y-222871000D02*
X243597200Y-222870900D01*
X244271000Y-222871000D02*
X243597200Y-222871000D01*
X246525000Y-225125000D02*
X244271000Y-222871000D01*
X239958800Y-198916200D02*
X239958800Y-199398400D01*
X242725000Y-196150000D02*
X239958800Y-198916200D01*
X239958800Y-199398400D02*
X239958800Y-198916200D01*
X239958800Y-198916200D02*
X239958800Y-199398400D01*
X243597200Y-222870900D02*
X243597200Y-222871000D01*
X243597200Y-222871000D02*
X243597200Y-222870900D01*
%TO.N,Net-(D31-K)*%
X236700000Y-183099000D02*
X236700000Y-180375000D01*
X244875000Y-191274000D02*
X236700000Y-183099000D01*
X244875000Y-196150000D02*
X244875000Y-191274000D01*
%TO.N,Net-(D30-K)*%
X219118100Y-226556900D02*
X220550000Y-225125000D01*
X210931900Y-226556900D02*
X219118100Y-226556900D01*
X209650000Y-225275000D02*
X210931900Y-226556900D01*
%TO.N,Net-(D29-K)*%
X222700000Y-216275000D02*
X222700000Y-225125000D01*
X219125000Y-212700000D02*
X222700000Y-216275000D01*
%TO.N,Net-(D28-K)*%
X216825000Y-212850000D02*
X202975000Y-212850000D01*
X219125000Y-210550000D02*
X216825000Y-212850000D01*
%TO.N,Net-(D27-K)*%
X220325000Y-193779900D02*
X220325000Y-194150000D01*
X226054900Y-188050000D02*
X220325000Y-193779900D01*
X236450000Y-188050000D02*
X226054900Y-188050000D01*
%TO.N,Net-(D26-K)*%
X220114600Y-196510400D02*
X222475000Y-194150000D01*
X203421100Y-196510400D02*
X220114600Y-196510400D01*
X202100000Y-197831500D02*
X203421100Y-196510400D01*
X202100000Y-198200000D02*
X202100000Y-197831500D01*
%TO.N,Net-(D25-K)*%
X200127000Y-202323000D02*
X195343600Y-202323000D01*
X204250000Y-198200000D02*
X200127000Y-202323000D01*
X193978800Y-226121200D02*
X194825000Y-225275000D01*
X193006900Y-226121200D02*
X193978800Y-226121200D01*
%TO.N,Net-(D24-K)*%
X192275000Y-193539700D02*
X192275000Y-193925000D01*
X193370500Y-192444200D02*
X192275000Y-193539700D01*
X198419200Y-192444200D02*
X193370500Y-192444200D01*
X199525000Y-193550000D02*
X198419200Y-192444200D01*
%TO.N,Net-(D23-K)*%
X181391800Y-224042700D02*
X181391800Y-223915100D01*
X178743400Y-226691100D02*
X181391800Y-224042700D01*
X176587500Y-226691100D02*
X178743400Y-226691100D01*
X175500000Y-225603600D02*
X176587500Y-226691100D01*
X175500000Y-225200000D02*
X175500000Y-225603600D01*
X191695900Y-196654100D02*
X194425000Y-193925000D01*
X184106200Y-196654100D02*
X191695900Y-196654100D01*
%TO.N,Net-(D22-K)*%
X177740900Y-225200000D02*
X179221700Y-223719200D01*
X177650000Y-225200000D02*
X177740900Y-225200000D01*
X182192800Y-196256000D02*
X182192800Y-197255600D01*
X180652600Y-194715800D02*
X182192800Y-196256000D01*
X177031700Y-194715800D02*
X180652600Y-194715800D01*
X175900000Y-195847500D02*
X177031700Y-194715800D01*
X175900000Y-196225000D02*
X175900000Y-195847500D01*
%TO.N,Net-(D21-K)*%
X175177900Y-178925200D02*
X175177900Y-178514600D01*
X176332300Y-180079600D02*
X175177900Y-178925200D01*
X181166000Y-180079600D02*
X176332300Y-180079600D01*
X182695600Y-178550000D02*
X181166000Y-180079600D01*
X190200000Y-178550000D02*
X182695600Y-178550000D01*
X174410000Y-182586400D02*
X175441300Y-182586400D01*
X169250000Y-187746400D02*
X174410000Y-182586400D01*
X169250000Y-188150000D02*
X169250000Y-187746400D01*
X175441300Y-182586400D02*
X175068800Y-182586400D01*
X175068800Y-182586400D02*
X175441300Y-182586400D01*
X175177900Y-178514600D02*
X175177900Y-178925200D01*
X175177900Y-178925200D02*
X175177900Y-178514600D01*
%TO.N,Net-(D20-K)*%
X170218300Y-213294800D02*
X170385700Y-213127400D01*
X170218200Y-213294800D02*
X170218300Y-213294800D01*
X170218200Y-213658500D02*
X170218200Y-213294800D01*
X165084200Y-218792500D02*
X170218200Y-213658500D01*
X144613900Y-218792500D02*
X165084200Y-218792500D01*
X143525000Y-217703600D02*
X144613900Y-218792500D01*
X143525000Y-217300000D02*
X143525000Y-217703600D01*
X172135300Y-188150000D02*
X171400000Y-188150000D01*
X173205400Y-189220100D02*
X172135300Y-188150000D01*
X173205400Y-189220100D02*
X173004800Y-189019500D01*
X173004800Y-189019500D02*
X173205400Y-189220100D01*
X170385700Y-213127400D02*
X170302000Y-213211100D01*
X170302000Y-213211100D02*
X170385700Y-213127400D01*
%TO.N,Net-(D19-K)*%
X143434800Y-199075200D02*
X143434800Y-196475000D01*
X145675000Y-201315400D02*
X143434800Y-199075200D01*
X145675000Y-217300000D02*
X145675000Y-201315400D01*
%TO.N,Net-(D18-K)*%
X178949100Y-190250900D02*
X181150000Y-188050000D01*
X174290200Y-190250900D02*
X178949100Y-190250900D01*
X174056200Y-190484900D02*
X174290200Y-190250900D01*
X174056200Y-190484900D02*
X174290200Y-190250900D01*
X173968100Y-190573000D02*
X174056200Y-190484900D01*
X151915600Y-190573000D02*
X173968100Y-190573000D01*
X149625000Y-188282400D02*
X151915600Y-190573000D01*
X149625000Y-187925000D02*
X149625000Y-188282400D01*
%TO.N,Net-(D17-K)*%
X174647500Y-189386500D02*
X174399900Y-189634100D01*
X174647500Y-189386500D02*
X174399900Y-189634100D01*
X174056100Y-189634100D02*
X174399900Y-189634100D01*
X173755300Y-189934900D02*
X174056100Y-189634100D01*
X153784900Y-189934900D02*
X173755300Y-189934900D01*
X151775000Y-187925000D02*
X153784900Y-189934900D01*
X199602800Y-183747200D02*
X204725000Y-178625000D01*
X180286800Y-183747200D02*
X199602800Y-183747200D01*
X174647500Y-189386500D02*
X180286800Y-183747200D01*
%TO.N,Net-(D16-K)*%
X205389000Y-177139000D02*
X206875000Y-178625000D01*
X204138700Y-177139000D02*
X205389000Y-177139000D01*
X198691300Y-182586400D02*
X204138700Y-177139000D01*
X177336500Y-182586400D02*
X198691300Y-182586400D01*
X176950000Y-176075400D02*
X176950000Y-178625000D01*
X177380600Y-175644800D02*
X176950000Y-176075400D01*
X177380600Y-175644800D02*
X177336500Y-175688900D01*
X177336500Y-175688900D02*
X177380600Y-175644800D01*
%TO.N,Net-(D15-K)*%
X160869600Y-176944600D02*
X162325000Y-178400000D01*
X149620800Y-176944600D02*
X160869600Y-176944600D01*
X148450000Y-178115400D02*
X149620800Y-176944600D01*
X148450000Y-178450000D02*
X148450000Y-178115400D01*
%TO.N,Net-(D14-K)*%
X182395500Y-181552400D02*
X182588700Y-181359200D01*
X182395500Y-181552400D02*
X182588700Y-181359200D01*
X154034700Y-181884700D02*
X150600000Y-178450000D01*
X177627100Y-181884700D02*
X154034700Y-181884700D01*
X177647400Y-181905000D02*
X177627100Y-181884700D01*
X182042900Y-181905000D02*
X177647400Y-181905000D01*
X182395500Y-181552400D02*
X182042900Y-181905000D01*
X198967600Y-181359200D02*
X182588700Y-181359200D01*
X203824700Y-176502100D02*
X198967600Y-181359200D01*
X205974600Y-176502100D02*
X203824700Y-176502100D01*
X206577800Y-177105300D02*
X205974600Y-176502100D01*
X210205000Y-177105300D02*
X206577800Y-177105300D01*
X211574700Y-178475000D02*
X210205000Y-177105300D01*
X215460000Y-178475000D02*
X211574700Y-178475000D01*
%TO.N,Net-(D13-K)*%
X204704600Y-157829600D02*
X204925000Y-158050000D01*
X202111000Y-157829600D02*
X204704600Y-157829600D01*
X215910200Y-176775200D02*
X217610000Y-178475000D01*
X210867100Y-176775200D02*
X215910200Y-176775200D01*
%TO.N,Net-(D12-K)*%
X214850000Y-136685000D02*
X214850000Y-146850000D01*
X214985000Y-136550000D02*
X214850000Y-136685000D01*
%TO.N,Net-(D11-K)*%
X268946700Y-128128300D02*
X274575000Y-122500000D01*
X263446400Y-128128300D02*
X268946700Y-128128300D01*
X258904700Y-132670000D02*
X263446400Y-128128300D01*
X221015000Y-132670000D02*
X258904700Y-132670000D01*
X217135000Y-136550000D02*
X221015000Y-132670000D01*
%TO.N,Net-(D10-K)*%
X273455000Y-119230000D02*
X273230200Y-119230000D01*
X276725000Y-122500000D02*
X273455000Y-119230000D01*
X273758400Y-135148400D02*
X274660000Y-136050000D01*
X272929000Y-135148400D02*
X273758400Y-135148400D01*
%TO.N,Net-(D9-K)*%
X265850000Y-153425000D02*
X265850000Y-146025000D01*
X265700000Y-153575000D02*
X265850000Y-153425000D01*
%TO.N,Net-(D8-K)*%
X266502600Y-144527600D02*
X268000000Y-146025000D01*
X264921000Y-144527600D02*
X266502600Y-144527600D01*
X261941200Y-147507400D02*
X264921000Y-144527600D01*
X253054900Y-147507400D02*
X261941200Y-147507400D01*
X251950000Y-146402500D02*
X253054900Y-147507400D01*
X251950000Y-146025000D02*
X251950000Y-146402500D01*
%TO.N,Net-(D7-K)*%
X251583300Y-143508300D02*
X254100000Y-146025000D01*
X249204700Y-143508300D02*
X251583300Y-143508300D01*
X240900000Y-135203600D02*
X249204700Y-143508300D01*
X240900000Y-134800000D02*
X240900000Y-135203600D01*
%TO.N,Net-(D6-K)*%
X239675000Y-121075000D02*
X240200000Y-120550000D01*
X239675000Y-127850000D02*
X239675000Y-121075000D01*
%TO.N,Net-(D5-K)*%
X267075000Y-120550000D02*
X242350000Y-120550000D01*
X276525000Y-111100000D02*
X267075000Y-120550000D01*
%TO.N,Net-(D4-K)*%
X277213700Y-109638700D02*
X278675000Y-111100000D01*
X275639200Y-109638700D02*
X277213700Y-109638700D01*
X271087000Y-114190900D02*
X275639200Y-109638700D01*
X236488400Y-114190900D02*
X271087000Y-114190900D01*
X235375000Y-113077500D02*
X236488400Y-114190900D01*
X235375000Y-112700000D02*
X235375000Y-113077500D01*
%TO.N,Net-(D3-K)*%
X219300000Y-117400000D02*
X219300000Y-124775000D01*
X219350000Y-117350000D02*
X219300000Y-117400000D01*
%TO.N,Net-(D2-K)*%
X202950000Y-117506100D02*
X202950000Y-117150000D01*
X204118200Y-118674300D02*
X202950000Y-117506100D01*
X208193100Y-118674300D02*
X204118200Y-118674300D01*
X211018700Y-115848700D02*
X208193100Y-118674300D01*
X219998700Y-115848700D02*
X211018700Y-115848700D01*
X221500000Y-117350000D02*
X219998700Y-115848700D01*
%TO.N,Net-(D1-K)*%
X201047500Y-113097500D02*
X205100000Y-117150000D01*
X189485100Y-113097500D02*
X201047500Y-113097500D01*
X187450000Y-111062400D02*
X189485100Y-113097500D01*
X187450000Y-110225000D02*
X187450000Y-111062400D01*
D22*
%TO.N,+12V*%
X155800000Y-226475000D02*
X155025000Y-225700000D01*
X161785000Y-226475000D02*
X155800000Y-226475000D01*
X195276800Y-169951400D02*
X184582100Y-169951400D01*
X207075000Y-158153200D02*
X195276800Y-169951400D01*
X207075000Y-158050000D02*
X207075000Y-158153200D01*
X178254200Y-196429200D02*
X178050000Y-196225000D01*
X181367900Y-196429200D02*
X178254200Y-196429200D01*
X263453500Y-112571500D02*
X269050000Y-106975000D01*
X237525000Y-112571500D02*
X263453500Y-112571500D01*
X237525000Y-112571500D02*
X237525000Y-112700000D01*
X163786700Y-228476700D02*
X161785000Y-226475000D01*
X193897500Y-228476700D02*
X163786700Y-228476700D01*
X196975000Y-225399200D02*
X193897500Y-228476700D01*
X196975000Y-225275000D02*
X196975000Y-225399200D01*
X178050000Y-196304000D02*
X178050000Y-196225000D01*
X176528500Y-197825500D02*
X178050000Y-196304000D01*
X160624800Y-197825500D02*
X176528500Y-197825500D01*
X146935300Y-197825500D02*
X160624800Y-197825500D01*
X145584800Y-196475000D02*
X146935300Y-197825500D01*
X201893300Y-211781700D02*
X202975000Y-210700000D01*
X181680900Y-211781700D02*
X201893300Y-211781700D01*
X180939500Y-211040300D02*
X181680900Y-211781700D01*
X275219300Y-134346700D02*
X270266900Y-134346700D01*
X276810000Y-135937400D02*
X275219300Y-134346700D01*
X276810000Y-136050000D02*
X276810000Y-135937400D01*
X189600000Y-110225000D02*
X191462500Y-110225000D01*
X235178500Y-110225000D02*
X191462500Y-110225000D01*
X237525000Y-112571500D02*
X235178500Y-110225000D01*
X243503300Y-134346700D02*
X243050000Y-134800000D01*
X246691900Y-134346700D02*
X243503300Y-134346700D01*
X270266900Y-134346700D02*
X246691900Y-134346700D01*
X239319400Y-179905600D02*
X238850000Y-180375000D01*
X241855000Y-179905600D02*
X239319400Y-179905600D01*
X179389400Y-178335600D02*
X179100000Y-178625000D01*
X181367900Y-178335600D02*
X179389400Y-178335600D01*
X260690500Y-197927300D02*
X252625000Y-189861800D01*
X276571500Y-197927300D02*
X260690500Y-197927300D01*
X278059900Y-196438900D02*
X276571500Y-197927300D01*
X278059900Y-196375000D02*
X278059900Y-196438900D01*
X278060000Y-196375000D02*
X278059900Y-196375000D01*
X248336800Y-189861800D02*
X238850000Y-180375000D01*
X252625000Y-189861800D02*
X248336800Y-189861800D01*
X252625000Y-188300000D02*
X252625000Y-189861800D01*
%TD*%
M02*
