%TF.GenerationSoftware,KiCad,Pcbnew,9.0.2*%
%TF.CreationDate,2025-07-16T23:03:39+02:00*%
%TF.ProjectId,cargo-vent_cargo-smoke,63617267-6f2d-4766-956e-745f63617267,rev?*%
%TF.SameCoordinates,Original*%
%TF.FileFunction,Soldermask,Bot*%
%TF.FilePolarity,Negative*%
%FSLAX46Y46*%
G04 Gerber Fmt 4.6, Leading zero omitted, Abs format (unit mm)*
G04 Created by KiCad (PCBNEW 9.0.2) date 2025-07-16 23:03:39*
%MOMM*%
%LPD*%
G01*
G04 APERTURE LIST*
%ADD10R,1.500000X1.500000*%
%ADD11R,3.000000X3.000000*%
%ADD12C,3.000000*%
%ADD13C,1.700000*%
%ADD14R,1.700000X1.700000*%
G04 APERTURE END LIST*
D10*
%TO.C,KR5*%
X268175000Y-205050000D03*
X268175000Y-207590000D03*
X268175000Y-210130000D03*
X268175000Y-212670000D03*
X252475000Y-209550000D03*
X252475000Y-212090000D03*
%TD*%
%TO.C,KR4*%
X169025000Y-205125000D03*
X169025000Y-207665000D03*
X169025000Y-210205000D03*
X169025000Y-212745000D03*
X153325000Y-209625000D03*
X153325000Y-212165000D03*
%TD*%
D11*
%TO.C,J3*%
X166865000Y-226475000D03*
D12*
X161785000Y-226475000D03*
%TD*%
D13*
%TO.C,J2*%
X145600000Y-123165000D03*
X143060000Y-123165000D03*
X145600000Y-125705000D03*
X143060000Y-125705000D03*
X145600000Y-128245000D03*
X143060000Y-128245000D03*
X145600000Y-130785000D03*
X143060000Y-130785000D03*
X145600000Y-133325000D03*
X143060000Y-133325000D03*
X145600000Y-135865000D03*
X143060000Y-135865000D03*
X145600000Y-138405000D03*
X143060000Y-138405000D03*
X145600000Y-140945000D03*
X143060000Y-140945000D03*
X145600000Y-143485000D03*
X143060000Y-143485000D03*
X145600000Y-146025000D03*
X143060000Y-146025000D03*
X145600000Y-148565000D03*
X143060000Y-148565000D03*
X145600000Y-151105000D03*
X143060000Y-151105000D03*
X145600000Y-153645000D03*
X143060000Y-153645000D03*
X145600000Y-156185000D03*
X143060000Y-156185000D03*
X145600000Y-158725000D03*
X143060000Y-158725000D03*
X145600000Y-161265000D03*
X143060000Y-161265000D03*
X145600000Y-163805000D03*
X143060000Y-163805000D03*
X145600000Y-166345000D03*
X143060000Y-166345000D03*
X145600000Y-168885000D03*
X143060000Y-168885000D03*
X145600000Y-171425000D03*
D14*
X143060000Y-171425000D03*
%TD*%
D10*
%TO.C,KR1*%
X267275000Y-124200000D03*
X267275000Y-126740000D03*
X267275000Y-129280000D03*
X267275000Y-131820000D03*
X251575000Y-128700000D03*
X251575000Y-131240000D03*
%TD*%
D14*
%TO.C,J4*%
X209875000Y-211175000D03*
D13*
X212415000Y-211175000D03*
%TD*%
D10*
%TO.C,KR3*%
X243550000Y-205400000D03*
X243550000Y-207940000D03*
X243550000Y-210480000D03*
X243550000Y-213020000D03*
X227850000Y-209900000D03*
X227850000Y-212440000D03*
%TD*%
%TO.C,KR2*%
X193650000Y-205450000D03*
X193650000Y-207990000D03*
X193650000Y-210530000D03*
X193650000Y-213070000D03*
X177950000Y-209950000D03*
X177950000Y-212490000D03*
%TD*%
D11*
%TO.C,J1*%
X263970000Y-106975000D03*
D12*
X269050000Y-106975000D03*
%TD*%
M02*
