<?xml version="1.0" encoding="UTF-8"?>
<!-- Created by Vectric (http://www.vectric.com/) -->
<svg width="1800.00000000mm" height="700.00000000mm" viewBox="0.00000000 0.00000000 1800.00000000 700.00000000" id="svg2" version="1.1" xmlns="http://www.w3.org/2000/svg" xmlns:xlink="http://www.w3.org/1999/xlink" xmlns:inkscape="http://www.inkscape.org/namespaces/inkscape">
    <g inkscape:groupmode="layer" id="85667243-1302-4a85-b3ac-c7bf39b332ec" inkscape:label="Toolpath Previews" style="stroke:#000000;"/>
    <g inkscape:groupmode="layer" id="f214414e-ab3c-47f2-be51-63dc126dd18d" inkscape:label="Images" style="stroke:#000000;"/>
    <g inkscape:groupmode="layer" id="f131e4f8-88bf-4ff8-82ae-e609d563f43b" inkscape:label="_Engraving" style="stroke:#339966;">
        <path style="fill:none;stroke-width:0.280000;stroke-linecap:round;stroke-linejoin:round;stroke-opacity:1;stroke:#339966;" d="M 380.069504,83.684352 L 400.285464,83.684352 C 400.918149,83.684352 401.427484,84.193688 401.427484,84.826372 L 401.427484,105.042332 C 401.427484,105.675006 400.918149,106.184352 400.285464,106.184352 L 380.069504,106.184352 C 379.436820,106.184352 378.927484,105.675006 378.927484,105.042332 L 378.927484,84.826372 C 378.927484,84.193688 379.436820,83.684352 380.069504,83.684352 "/>
        <path style="fill:none;stroke-width:0.280000;stroke-linecap:round;stroke-linejoin:round;stroke-opacity:1;stroke:#339966;" d="M 379.661478,83.206063 L 400.736912,83.206063 C 401.396495,83.206063 401.927484,83.737053 401.927484,84.396635 L 401.927484,105.472069 C 401.927484,106.131640 401.396495,106.662641 400.736912,106.662641 L 379.661478,106.662641 C 379.001896,106.662641 378.470906,106.131640 378.470906,105.472069 L 378.470906,84.396635 C 378.470906,83.737053 379.001896,83.206063 379.661478,83.206063 "/>
        <path style="fill:none;stroke-width:0.280000;stroke-linecap:round;stroke-linejoin:round;stroke-opacity:1;stroke:#339966;" d="M 472.051872,83.684352 L 492.267832,83.684352 C 492.900516,83.684352 493.409852,84.193688 493.409852,84.826372 L 493.409852,105.042332 C 493.409852,105.675006 492.900516,106.184352 492.267832,106.184352 L 472.051872,106.184352 C 471.419187,106.184352 470.909852,105.675006 470.909852,105.042332 L 470.909852,84.826372 C 470.909852,84.193688 471.419187,83.684352 472.051872,83.684352 "/>
        <path style="fill:none;stroke-width:0.280000;stroke-linecap:round;stroke-linejoin:round;stroke-opacity:1;stroke:#339966;" d="M 471.643846,83.206063 L 492.719279,83.206063 C 493.378862,83.206063 493.909852,83.737053 493.909852,84.396635 L 493.909852,105.472069 C 493.909852,106.131640 493.378862,106.662641 492.719279,106.662641 L 471.643846,106.662641 C 470.984263,106.662641 470.453274,106.131640 470.453274,105.472069 L 470.453274,84.396635 C 470.453274,83.737053 470.984263,83.206063 471.643846,83.206063 "/>
        <path style="fill:none;stroke-width:0.280000;stroke-linecap:round;stroke-linejoin:round;stroke-opacity:1;stroke:#339966;" d="M 569.567188,83.684352 L 589.783148,83.684352 C 590.415832,83.684352 590.925168,84.193688 590.925168,84.826372 L 590.925168,105.042332 C 590.925168,105.675006 590.415832,106.184352 589.783148,106.184352 L 569.567188,106.184352 C 568.934503,106.184352 568.425168,105.675006 568.425168,105.042332 L 568.425168,84.826372 C 568.425168,84.193688 568.934503,83.684352 569.567188,83.684352 "/>
        <path style="fill:none;stroke-width:0.280000;stroke-linecap:round;stroke-linejoin:round;stroke-opacity:1;stroke:#339966;" d="M 569.159162,83.206063 L 590.234596,83.206063 C 590.894178,83.206063 591.425168,83.737053 591.425168,84.396635 L 591.425168,105.472069 C 591.425168,106.131640 590.894178,106.662641 590.234596,106.662641 L 569.159162,106.662641 C 568.499579,106.662641 567.968590,106.131640 567.968590,105.472069 L 567.968590,84.396635 C 567.968590,83.737053 568.499579,83.206063 569.159162,83.206063 "/>
        <path style="fill:none;stroke-width:0.280000;stroke-linecap:round;stroke-linejoin:round;stroke-opacity:1;stroke:#339966;" d="M 660.429719,83.684352 L 680.645680,83.684352 C 681.278364,83.684352 681.787699,84.193688 681.787699,84.826372 L 681.787699,105.042332 C 681.787699,105.675006 681.278364,106.184352 680.645680,106.184352 L 660.429719,106.184352 C 659.797035,106.184352 659.287699,105.675006 659.287699,105.042332 L 659.287699,84.826372 C 659.287699,84.193688 659.797035,83.684352 660.429719,83.684352 "/>
        <path style="fill:none;stroke-width:0.280000;stroke-linecap:round;stroke-linejoin:round;stroke-opacity:1;stroke:#339966;" d="M 660.021693,83.206063 L 681.097127,83.206063 C 681.756710,83.206063 682.287699,83.737053 682.287699,84.396635 L 682.287699,105.472069 C 682.287699,106.131640 681.756710,106.662641 681.097127,106.662641 L 660.021693,106.662641 C 659.362111,106.662641 658.831121,106.131640 658.831121,105.472069 L 658.831121,84.396635 C 658.831121,83.737053 659.362111,83.206063 660.021693,83.206063 "/>
        <path style="fill:none;stroke-width:0.280000;stroke-linecap:round;stroke-linejoin:round;stroke-opacity:1;stroke:#339966;" d="M 496.451854,69.220678 C 496.451463,69.220677 496.451073,69.220676 496.450682,69.220676 C 496.202154,69.220676 496.000682,69.398098 496.000682,69.616959 C 496.000682,69.617303 496.000683,69.617647 496.000684,69.617991 L 495.992684,137.287038 C 495.992683,137.287381 495.992682,137.287725 495.992682,137.288069 C 495.992682,137.506701 496.193733,137.683981 496.441904,137.684351 C 496.442294,137.684352 496.442685,137.684352 496.443075,137.684352 C 496.691603,137.684352 496.893075,137.506930 496.893075,137.288069 C 496.893075,137.287725 496.893075,137.287382 496.893074,137.287038 L 496.901074,69.617991 C 496.901075,69.617647 496.901075,69.617303 496.901075,69.616960 C 496.901075,69.398327 496.700024,69.221048 496.451854,69.220678 "/>
        <path style="fill:none;stroke-width:0.280000;stroke-linecap:round;stroke-linejoin:round;stroke-opacity:1;stroke:#339966;" d="M 372.197818,88.434353 C 372.197428,88.434352 372.197037,88.434352 372.196647,88.434352 C 371.948118,88.434352 371.746647,88.507906 371.746647,88.598639 C 371.746647,88.598782 371.746647,88.598924 371.746648,88.599067 L 371.746648,121.270353 C 371.747074,121.360954 371.948382,121.434352 372.196647,121.434352 C 372.197038,121.434352 372.197428,121.434352 372.197818,121.434352 C 372.445725,121.434198 372.646613,121.360859 372.647038,121.270353 L 372.647038,88.599067 C 372.647039,88.598924 372.647040,88.598782 372.647040,88.598639 C 372.647040,88.508001 372.445988,88.434506 372.197818,88.434353 "/>
        <path style="fill:none;stroke-width:0.280000;stroke-linecap:round;stroke-linejoin:round;stroke-opacity:1;stroke:#339966;" d="M 374.086133,95.379490 L 374.086133,91.351783 C 374.113533,91.150854 374.221608,91.042779 374.410359,91.027557 L 376.620575,91.027557 C 376.832159,91.044301 376.937951,91.151996 376.937951,91.350641 C 376.937951,91.549287 376.830637,91.655459 376.616008,91.669159 L 374.727735,91.669159 L 374.727735,92.918113 L 376.200451,92.918113 C 376.410513,92.933335 376.517066,93.036083 376.520111,93.226356 C 376.523155,93.416630 376.416602,93.527749 376.200451,93.559715 L 374.727735,93.559715 L 374.727735,95.379490 C 374.712513,95.589552 374.609385,95.696105 374.418351,95.699149 C 374.227316,95.702193 374.116577,95.595640 374.086133,95.379490 "/>
        <path style="fill:none;stroke-width:0.280000;stroke-linecap:round;stroke-linejoin:round;stroke-opacity:1;stroke:#339966;" d="M 375.836268,102.657903 C 375.802780,102.872532 375.694324,102.979465 375.510901,102.978704 C 375.327477,102.977943 375.219782,102.871010 375.187816,102.657903 L 375.187816,98.621063 C 375.219782,98.406435 375.327477,98.298740 375.510901,98.297979 C 375.694324,98.297218 375.802780,98.404913 375.836268,98.621063 L 375.836268,102.657903 "/>
        <path style="fill:none;stroke-width:0.280000;stroke-linecap:round;stroke-linejoin:round;stroke-opacity:1;stroke:#339966;" d="M 376.838022,109.981298 C 376.935442,110.153305 376.908042,110.297912 376.755824,110.415121 C 376.682759,110.466875 376.598658,110.484380 376.503521,110.467636 C 376.408384,110.450892 376.338744,110.403704 376.294601,110.326073 L 375.168944,108.547397 L 374.598123,108.547397 L 374.598123,110.154827 C 374.598123,110.287257 374.537997,110.382774 374.417744,110.441379 C 374.297492,110.499983 374.184850,110.488947 374.079819,110.408271 C 373.996099,110.345861 373.954238,110.261380 373.954238,110.154827 L 373.954238,106.120270 C 373.954238,106.031983 373.985063,105.956635 374.046711,105.894225 C 374.108360,105.831816 374.184089,105.800611 374.273898,105.800611 L 375.691815,105.800611 C 376.032785,105.800611 376.328850,105.909067 376.580011,106.125978 C 376.831172,106.342890 376.987196,106.618025 377.048084,106.951384 C 377.112015,107.309098 377.036287,107.643599 376.820897,107.954886 C 376.605508,108.266173 376.319717,108.455305 375.963525,108.522281 L 375.920143,108.529131 L 376.838022,109.981298 "/>
        <path style="fill:none;stroke-width:0.280000;stroke-linecap:round;stroke-linejoin:round;stroke-opacity:1;stroke:#339966;" d="M 375.691815,107.905795 C 375.847078,107.905795 375.990544,107.858608 376.122213,107.764232 C 376.253882,107.669856 376.342550,107.546559 376.388215,107.394341 C 376.459758,107.159924 376.427031,106.947959 376.290034,106.758447 C 376.153038,106.568935 375.964286,106.464284 375.723781,106.444496 L 374.598123,106.444496 L 374.598123,107.905795 L 375.691815,107.905795 "/>
        <path style="fill:none;stroke-width:0.280000;stroke-linecap:round;stroke-linejoin:round;stroke-opacity:1;stroke:#339966;" d="M 376.618292,113.941419 L 374.725452,113.941419 L 374.725452,115.190374 L 376.168485,115.190374 C 376.384636,115.222340 376.492331,115.330796 376.491570,115.515741 C 376.490809,115.700687 376.383114,115.808382 376.168485,115.838826 L 374.725452,115.838826 L 374.725452,117.338941 L 376.618292,117.338941 C 376.832920,117.370907 376.940234,117.478221 376.940234,117.660883 C 376.940234,117.843546 376.832920,117.950099 376.618292,117.980543 L 374.408076,117.980543 C 374.217803,117.956188 374.109727,117.848112 374.083850,117.656317 L 374.083850,113.624043 C 374.112772,113.423115 374.220847,113.316562 374.408076,113.304384 L 376.618292,113.304384 C 376.832920,113.321128 376.939854,113.428062 376.939093,113.625185 C 376.938332,113.822308 376.831398,113.927720 376.618292,113.941419 "/>
        <path style="fill:none;stroke-width:0.280000;stroke-linecap:round;stroke-linejoin:round;stroke-opacity:1;stroke:#339966;" d="M 689.447854,88.434352 C 689.447463,88.434352 689.447073,88.434352 689.446682,88.434352 C 689.198154,88.434352 688.996682,88.507906 688.996682,88.598639 C 688.996682,88.598781 688.996683,88.598924 688.996684,88.599067 L 688.996684,121.270353 C 688.997109,121.360954 689.198418,121.434352 689.446683,121.434352 C 689.447073,121.434352 689.447464,121.434352 689.447854,121.434351 C 689.695760,121.434198 689.896648,121.360859 689.897074,121.270353 L 689.897074,88.599067 C 689.897075,88.598924 689.897075,88.598782 689.897075,88.598639 C 689.897075,88.508001 689.696024,88.434506 689.447854,88.434352 "/>
        <path style="fill:none;stroke-width:0.280000;stroke-linecap:round;stroke-linejoin:round;stroke-opacity:1;stroke:#339966;" d="M 684.642752,95.379425 L 684.642752,91.351718 C 684.670151,91.150790 684.778227,91.042715 684.966978,91.027493 L 687.177194,91.027493 C 687.388778,91.044237 687.494570,91.151931 687.494570,91.350577 C 687.494570,91.549222 687.387255,91.655395 687.172627,91.669094 L 685.284354,91.669094 L 685.284354,92.918049 L 686.757070,92.918049 C 686.967132,92.933271 687.073685,93.036018 687.076729,93.226292 C 687.079774,93.416565 686.973220,93.527685 686.757070,93.559651 L 685.284354,93.559651 L 685.284354,95.379425 C 685.269132,95.589487 685.166004,95.696040 684.974969,95.699085 C 684.783935,95.702129 684.673196,95.595576 684.642752,95.379425 "/>
        <path style="fill:none;stroke-width:0.280000;stroke-linecap:round;stroke-linejoin:round;stroke-opacity:1;stroke:#339966;" d="M 686.392887,102.657839 C 686.359399,102.872467 686.250943,102.979401 686.067519,102.978640 C 685.884096,102.977879 685.776401,102.870945 685.744435,102.657839 L 685.744435,98.620999 C 685.776401,98.406371 685.884096,98.298676 686.067519,98.297915 C 686.250943,98.297154 686.359399,98.404848 686.392887,98.620999 L 686.392887,102.657839 "/>
        <path style="fill:none;stroke-width:0.280000;stroke-linecap:round;stroke-linejoin:round;stroke-opacity:1;stroke:#339966;" d="M 687.394640,109.981233 C 687.492060,110.153240 687.464661,110.297848 687.312442,110.415057 C 687.239377,110.466811 687.155276,110.484316 687.060140,110.467572 C 686.965003,110.450828 686.895363,110.403640 686.851220,110.326009 L 685.725562,108.547333 L 685.154742,108.547333 L 685.154742,110.154763 C 685.154742,110.287193 685.094616,110.382710 684.974363,110.441314 C 684.854110,110.499918 684.741468,110.488883 684.636437,110.408207 C 684.552717,110.345797 684.510857,110.261316 684.510857,110.154763 L 684.510857,106.120206 C 684.510857,106.031919 684.541681,105.956571 684.603330,105.894161 C 684.664978,105.831751 684.740707,105.800546 684.830516,105.800546 L 686.248433,105.800546 C 686.589403,105.800546 686.885469,105.909002 687.136630,106.125914 C 687.387791,106.342826 687.543815,106.617961 687.604702,106.951320 C 687.668634,107.309034 687.592905,107.643534 687.377516,107.954822 C 687.162126,108.266109 686.876336,108.455241 686.520144,108.522217 L 686.476762,108.529067 L 687.394640,109.981233 "/>
        <path style="fill:none;stroke-width:0.280000;stroke-linecap:round;stroke-linejoin:round;stroke-opacity:1;stroke:#339966;" d="M 686.248433,107.905731 C 686.403697,107.905731 686.547163,107.858543 686.678832,107.764168 C 686.810501,107.669792 686.899168,107.546495 686.944834,107.394276 C 687.016377,107.159859 686.983650,106.947895 686.846653,106.758383 C 686.709656,106.568870 686.520905,106.464220 686.280399,106.444432 L 685.154742,106.444432 L 685.154742,107.905731 L 686.248433,107.905731 "/>
        <path style="fill:none;stroke-width:0.280000;stroke-linecap:round;stroke-linejoin:round;stroke-opacity:1;stroke:#339966;" d="M 687.174910,113.941355 L 685.282071,113.941355 L 685.282071,115.190310 L 686.725104,115.190310 C 686.941255,115.222276 687.048949,115.330731 687.048188,115.515677 C 687.047427,115.700623 686.939732,115.808318 686.725104,115.838761 L 685.282071,115.838761 L 685.282071,117.338877 L 687.174910,117.338877 C 687.389539,117.370843 687.496853,117.478157 687.496853,117.660819 C 687.496853,117.843482 687.389539,117.950035 687.174910,117.980478 L 684.964695,117.980478 C 684.774421,117.956123 684.666346,117.848048 684.640469,117.656253 L 684.640469,113.623979 C 684.669390,113.423050 684.777466,113.316497 684.964695,113.304320 L 687.174910,113.304320 C 687.389539,113.321064 687.496472,113.427997 687.495711,113.625121 C 687.494950,113.822244 687.388016,113.927655 687.174910,113.941355 "/>
        <path style="fill:none;stroke-width:0.280000;stroke-linecap:round;stroke-linejoin:round;stroke-opacity:1;stroke:#339966;" d="M 396.826027,81.989518 L 396.340943,81.989518 L 396.340943,79.245803 L 395.876256,79.509140 L 395.876256,79.004963 L 396.340943,78.716865 L 396.826027,78.716865 L 396.826027,81.989518 "/>
        <path style="fill:none;stroke-width:0.280000;stroke-linecap:round;stroke-linejoin:round;stroke-opacity:1;stroke:#339966;" d="M 384.210430,80.957486 L 383.721720,79.580810 L 383.229795,80.957486 L 384.210430,80.957486 "/>
        <path style="fill:none;stroke-width:0.280000;stroke-linecap:round;stroke-linejoin:round;stroke-opacity:1;stroke:#339966;" d="M 383.721720,79.580810 L 384.210430,80.957486 L 383.721720,79.580810 "/>
        <path style="fill:none;stroke-width:0.280000;stroke-linecap:round;stroke-linejoin:round;stroke-opacity:1;stroke:#339966;" d="M 382.480653,81.717935 C 382.652131,81.236099 382.823876,80.754535 382.995889,80.273245 C 383.167902,79.791955 383.340183,79.310391 383.512732,78.828555 C 383.548099,78.729128 383.618298,78.678868 383.723328,78.677776 C 383.828357,78.676683 383.899092,78.726943 383.935531,78.828555 L 384.966002,81.726130 C 384.998154,81.880186 384.952069,81.979613 384.827748,82.024409 C 384.703427,82.069206 384.607507,82.023317 384.539988,81.886742 L 384.374405,81.418016 L 383.064212,81.418016 L 382.903452,81.875270 C 382.834861,82.012937 382.737333,82.058007 382.610869,82.010479 C 382.484404,81.962951 382.440999,81.865436 382.480653,81.717935 "/>
        <path style="fill:none;stroke-width:0.280000;stroke-linecap:round;stroke-linejoin:round;stroke-opacity:1;stroke:#339966;" d="M 386.382296,80.682150 L 386.367828,80.680511 C 386.237077,80.664122 386.171701,80.588187 386.171701,80.452704 C 386.171701,80.317222 386.237077,80.241286 386.367828,80.224897 L 386.382296,80.221620 L 386.396765,80.221620 L 386.989969,80.221620 C 387.052129,80.221620 387.105448,80.244291 387.149925,80.289634 C 387.194402,80.334977 387.216640,80.389334 387.216640,80.452704 L 387.216640,81.283627 L 387.197349,81.326238 L 387.186096,81.352460 L 387.174843,81.377044 L 387.161982,81.401627 L 387.149121,81.426211 L 387.137868,81.450794 L 387.125007,81.475378 L 387.110539,81.499961 C 386.902623,81.860519 386.644335,82.036701 386.335676,82.028507 C 386.027017,82.020312 385.767658,81.842492 385.557598,81.495045 C 385.457927,81.330062 385.383977,81.123288 385.335749,80.874721 C 385.287521,80.626155 385.273053,80.372125 385.292344,80.112633 C 385.311635,79.853140 385.370849,79.606213 385.469984,79.371850 C 385.569119,79.137487 385.717286,78.951472 385.914485,78.813804 C 386.160984,78.643359 386.401052,78.623419 386.634690,78.753985 C 386.868327,78.884550 387.043020,79.067834 387.158767,79.303836 L 387.171628,79.330058 L 387.181273,79.353003 L 387.194134,79.377586 C 387.230573,79.481383 387.216640,79.566060 387.152336,79.631616 C 387.090176,79.693894 387.022657,79.717111 386.949779,79.701269 C 386.876901,79.685426 386.820635,79.641449 386.780981,79.569337 C 386.655588,79.252483 386.494025,79.114269 386.296290,79.154696 C 386.098555,79.195122 385.950388,79.360104 385.851789,79.649643 C 385.755333,79.929349 385.717286,80.230087 385.737649,80.551858 C 385.758012,80.873629 385.860898,81.154154 386.046308,81.393433 C 386.173844,81.560601 386.303524,81.614138 386.435347,81.554045 C 386.567170,81.493952 386.671128,81.381961 386.747221,81.218071 L 386.764905,81.182015 L 386.764905,80.682150 L 386.382296,80.682150 "/>
        <path style="fill:none;stroke-width:0.280000;stroke-linecap:round;stroke-linejoin:round;stroke-opacity:1;stroke:#339966;" d="M 389.525153,79.135029 L 388.192453,79.135029 L 388.192453,80.031507 L 389.208456,80.031507 C 389.360642,80.054452 389.436467,80.132299 389.435931,80.265050 C 389.435395,80.397801 389.359570,80.475103 389.208456,80.496955 L 388.192453,80.496955 L 388.192453,81.573712 L 389.525153,81.573712 C 389.676267,81.596657 389.751824,81.673685 389.751824,81.804797 C 389.751824,81.935909 389.676267,82.012391 389.525153,82.034243 L 387.968997,82.034243 C 387.835030,82.016761 387.758937,81.939187 387.740718,81.801519 L 387.740718,78.907222 C 387.761081,78.762999 387.837174,78.686517 387.968997,78.677776 L 389.525153,78.677776 C 389.676267,78.689794 389.751556,78.766550 389.751020,78.908041 C 389.750485,79.049533 389.675195,79.125195 389.525153,79.135029 "/>
        <path style="fill:none;stroke-width:0.280000;stroke-linecap:round;stroke-linejoin:round;stroke-opacity:1;stroke:#339966;" d="M 392.418831,81.808075 C 392.418831,81.922798 392.364441,81.995729 392.255660,82.026868 C 392.146879,82.058007 392.062480,82.025502 392.002463,81.929353 L 390.652080,79.721755 L 390.652080,81.808075 C 390.628502,81.961039 390.552677,82.037521 390.424605,82.037521 C 390.296532,82.037521 390.221243,81.961039 390.198737,81.808075 L 390.198737,78.913777 C 390.214813,78.800147 390.271883,78.725304 390.369946,78.689248 C 390.468010,78.653192 390.549729,78.687063 390.615105,78.790860 L 391.965488,81.001736 L 391.965488,78.913777 C 391.985851,78.757536 392.063820,78.680234 392.199394,78.681873 C 392.334968,78.683512 392.408114,78.760813 392.418831,78.913777 L 392.418831,81.808075 "/>
        <path style="fill:none;stroke-width:0.280000;stroke-linecap:round;stroke-linejoin:round;stroke-opacity:1;stroke:#339966;" d="M 393.695265,81.804797 L 393.695265,79.139946 L 393.105276,79.139946 C 392.955233,79.127927 392.880480,79.051172 392.881016,78.909680 C 392.881552,78.768188 392.956305,78.690887 393.105276,78.677776 L 394.736989,78.677776 C 394.884888,78.689794 394.959106,78.767096 394.959642,78.909680 C 394.960178,79.052264 394.885960,79.129020 394.736989,79.139946 L 394.148608,79.139946 L 394.148608,81.804797 C 394.123958,81.959946 394.044918,82.036428 393.911487,82.034243 C 393.778056,82.032058 393.705982,81.955576 393.695265,81.804797 "/>
        <path style="fill:none;stroke-width:0.280000;stroke-linecap:round;stroke-linejoin:round;stroke-opacity:1;stroke:#339966;" d="M 525.337772,136.842375 L 524.849062,135.465699 L 524.357137,136.842375 L 525.337772,136.842375 "/>
        <path style="fill:none;stroke-width:0.280000;stroke-linecap:round;stroke-linejoin:round;stroke-opacity:1;stroke:#339966;" d="M 524.849062,135.465699 L 525.337772,136.842375 L 524.849062,135.465699 "/>
        <path style="fill:none;stroke-width:0.280000;stroke-linecap:round;stroke-linejoin:round;stroke-opacity:1;stroke:#339966;" d="M 523.607996,137.602825 C 523.779473,137.120988 523.951218,136.639425 524.123231,136.158134 C 524.295244,135.676844 524.467525,135.195281 524.640074,134.713444 C 524.675442,134.614018 524.745640,134.563758 524.850670,134.562665 C 524.955700,134.561573 525.026434,134.611832 525.062873,134.713444 L 526.093344,137.611019 C 526.125496,137.765076 526.079411,137.864502 525.955090,137.909299 C 525.830769,137.954096 525.734849,137.908206 525.667330,137.771631 L 525.501747,137.302906 L 524.191554,137.302906 L 524.030794,137.760159 C 523.962203,137.897827 523.864676,137.942896 523.738211,137.895368 C 523.611747,137.847840 523.568342,137.750326 523.607996,137.602825 "/>
        <path style="fill:none;stroke-width:0.280000;stroke-linecap:round;stroke-linejoin:round;stroke-opacity:1;stroke:#339966;" d="M 527.509639,136.567040 L 527.495170,136.565401 C 527.364419,136.549012 527.299043,136.473076 527.299043,136.337594 C 527.299043,136.202112 527.364419,136.126176 527.495170,136.109787 L 527.509639,136.106509 L 527.524107,136.106509 L 528.117311,136.106509 C 528.179472,136.106509 528.232790,136.129181 528.277267,136.174523 C 528.321744,136.219866 528.343983,136.274223 528.343983,136.337594 L 528.343983,137.168516 L 528.324692,137.211128 L 528.313438,137.237350 L 528.302185,137.261934 L 528.289324,137.286517 L 528.276464,137.311101 L 528.265210,137.335684 L 528.252350,137.360268 L 528.237881,137.384851 C 528.029965,137.745409 527.771677,137.921591 527.463018,137.913396 C 527.154359,137.905202 526.895000,137.727381 526.684940,137.379934 C 526.585269,137.214952 526.511320,137.008177 526.463092,136.759611 C 526.414864,136.511044 526.400395,136.257015 526.419687,135.997522 C 526.438978,135.738030 526.498191,135.491102 526.597326,135.256740 C 526.696462,135.022377 526.844629,134.836362 527.041827,134.698694 C 527.288326,134.528249 527.528394,134.508309 527.762032,134.638874 C 527.995670,134.769440 528.170362,134.952724 528.286109,135.188725 L 528.298970,135.214948 L 528.308616,135.237892 L 528.321476,135.262476 C 528.357915,135.366273 528.343983,135.450949 528.279679,135.516505 C 528.217518,135.578783 528.149999,135.602001 528.077121,135.586158 C 528.004243,135.570316 527.947977,135.526339 527.908323,135.454227 C 527.782931,135.137373 527.621367,134.999159 527.423632,135.039585 C 527.225898,135.080012 527.077730,135.244994 526.979131,135.534533 C 526.882675,135.814239 526.844629,136.114977 526.864992,136.436747 C 526.885354,136.758518 526.988241,137.039043 527.173651,137.278323 C 527.301187,137.445490 527.430866,137.499028 527.562690,137.438935 C 527.694513,137.378842 527.798471,137.266850 527.874564,137.102960 L 527.892247,137.066904 L 527.892247,136.567040 L 527.509639,136.567040 "/>
        <path style="fill:none;stroke-width:0.280000;stroke-linecap:round;stroke-linejoin:round;stroke-opacity:1;stroke:#339966;" d="M 530.652495,135.019919 L 529.319795,135.019919 L 529.319795,135.916397 L 530.335798,135.916397 C 530.487984,135.939341 530.563809,136.017189 530.563273,136.149940 C 530.562737,136.282691 530.486912,136.359992 530.335798,136.381844 L 529.319795,136.381844 L 529.319795,137.458602 L 530.652495,137.458602 C 530.803609,137.481546 530.879167,137.558574 530.879167,137.689686 C 530.879167,137.820798 530.803609,137.897280 530.652495,137.919132 L 529.096339,137.919132 C 528.962373,137.901651 528.886280,137.824076 528.868060,137.686409 L 528.868060,134.792111 C 528.888423,134.647888 528.964516,134.571406 529.096339,134.562665 L 530.652495,134.562665 C 530.803609,134.574684 530.878899,134.651439 530.878363,134.792931 C 530.877827,134.934423 530.802538,135.010085 530.652495,135.019919 "/>
        <path style="fill:none;stroke-width:0.280000;stroke-linecap:round;stroke-linejoin:round;stroke-opacity:1;stroke:#339966;" d="M 533.546174,137.692964 C 533.546174,137.807687 533.491783,137.880618 533.383002,137.911757 C 533.274221,137.942896 533.189822,137.910392 533.129805,137.814243 L 531.779422,135.606645 L 531.779422,137.692964 C 531.755844,137.845928 531.680019,137.922410 531.551947,137.922410 C 531.423875,137.922410 531.348586,137.845928 531.326079,137.692964 L 531.326079,134.798667 C 531.342155,134.685037 531.399225,134.610194 531.497288,134.574138 C 531.595352,134.538082 531.677072,134.571953 531.742447,134.675750 L 533.092831,136.886625 L 533.092831,134.798667 C 533.113194,134.642425 533.191162,134.565124 533.326736,134.566763 C 533.462310,134.568402 533.535456,134.645703 533.546174,134.798667 L 533.546174,137.692964 "/>
        <path style="fill:none;stroke-width:0.280000;stroke-linecap:round;stroke-linejoin:round;stroke-opacity:1;stroke:#339966;" d="M 534.822607,137.689686 L 534.822607,135.024835 L 534.232618,135.024835 C 534.082576,135.012817 534.007822,134.936061 534.008358,134.794570 C 534.008894,134.653078 534.083648,134.575777 534.232618,134.562665 L 535.864331,134.562665 C 536.012231,134.574684 536.086448,134.651985 536.086984,134.794570 C 536.087520,134.937154 536.013302,135.013909 535.864331,135.024835 L 535.275950,135.024835 L 535.275950,137.689686 C 535.251300,137.844836 535.172260,137.921318 535.038829,137.919132 C 534.905399,137.916947 534.833325,137.840465 534.822607,137.689686 "/>
        <path style="fill:none;stroke-width:0.280000;stroke-linecap:round;stroke-linejoin:round;stroke-opacity:1;stroke:#339966;" d="M 499.175168,142.128098 L 498.718590,142.128098 L 498.718590,140.636084 L 375.718984,140.641947 C 375.471124,140.642597 375.269730,140.441417 375.269291,140.192737 C 375.268644,139.944047 375.469170,139.741987 375.717031,139.741557 L 498.718590,139.735693 L 498.718590,119.241412 C 498.718590,118.581830 499.249579,118.050840 499.909162,118.050840 L 520.984596,118.050840 C 521.644178,118.050840 522.175168,118.581830 522.175168,119.241412 L 522.175168,139.734575 L 686.176728,139.726757 C 686.423825,139.727187 686.624032,139.928057 686.624466,140.175967 C 686.625116,140.424647 686.424592,140.626717 686.176728,140.627147 L 522.175168,140.634965 L 522.175168,142.128098 L 521.675168,142.128098 L 521.675168,119.671149 C 521.675168,119.038465 521.165832,118.529129 520.533148,118.529129 L 500.317188,118.529129 C 499.684503,118.529129 499.175168,119.038465 499.175168,119.671149 L 499.175168,142.128098 "/>
        <path style="fill:none;stroke-width:0.280000;stroke-linecap:round;stroke-linejoin:round;stroke-opacity:1;stroke:#339966;" d="M 476.330335,80.977007 L 475.841624,79.600331 L 475.349699,80.977007 L 476.330335,80.977007 "/>
        <path style="fill:none;stroke-width:0.280000;stroke-linecap:round;stroke-linejoin:round;stroke-opacity:1;stroke:#339966;" d="M 475.841624,79.600331 L 476.330335,80.977007 L 475.841624,79.600331 "/>
        <path style="fill:none;stroke-width:0.280000;stroke-linecap:round;stroke-linejoin:round;stroke-opacity:1;stroke:#339966;" d="M 474.600558,81.737456 C 474.772035,81.255620 474.943780,80.774056 475.115793,80.292766 C 475.287807,79.811476 475.460088,79.329912 475.632637,78.848076 C 475.668004,78.748649 475.738202,78.698389 475.843232,78.697297 C 475.948262,78.696204 476.018996,78.746464 476.055435,78.848076 L 477.085906,81.745651 C 477.118058,81.899707 477.071974,81.999134 476.947653,82.043930 C 476.823332,82.088727 476.727412,82.042838 476.659892,81.906263 L 476.494310,81.437538 L 475.184116,81.437538 L 475.023357,81.894791 C 474.954766,82.032458 474.857238,82.077528 474.730773,82.030000 C 474.604309,81.982472 474.560904,81.884957 474.600558,81.737456 "/>
        <path style="fill:none;stroke-width:0.280000;stroke-linecap:round;stroke-linejoin:round;stroke-opacity:1;stroke:#339966;" d="M 478.502201,80.701671 L 478.487733,80.700033 C 478.356981,80.683644 478.291606,80.607708 478.291606,80.472225 C 478.291606,80.336743 478.356981,80.260807 478.487733,80.244418 L 478.502201,80.241141 L 478.516669,80.241141 L 479.109874,80.241141 C 479.172034,80.241141 479.225353,80.263812 479.269830,80.309155 C 479.314307,80.354498 479.336545,80.408855 479.336545,80.472225 L 479.336545,81.303148 L 479.317254,81.345759 L 479.306001,81.371982 L 479.294747,81.396565 L 479.281887,81.421149 L 479.269026,81.445732 L 479.257773,81.470316 L 479.244912,81.494899 L 479.230443,81.519483 C 479.022527,81.880040 478.764240,82.056222 478.455581,82.048028 C 478.146922,82.039833 477.887562,81.862013 477.677503,81.514566 C 477.577832,81.349583 477.503882,81.142809 477.455654,80.894242 C 477.407426,80.645676 477.392958,80.391646 477.412249,80.132154 C 477.431540,79.872661 477.490753,79.625734 477.589889,79.391371 C 477.689024,79.157008 477.837191,78.970993 478.034390,78.833326 C 478.280888,78.662880 478.520956,78.642940 478.754594,78.773506 C 478.988232,78.904071 479.162924,79.087355 479.278671,79.323357 L 479.291532,79.349579 L 479.301178,79.372524 L 479.314039,79.397107 C 479.350478,79.500904 479.336545,79.585581 479.272241,79.651137 C 479.210081,79.713415 479.142561,79.736633 479.069684,79.720790 C 478.996806,79.704947 478.940540,79.660970 478.900886,79.588858 C 478.775493,79.272004 478.613929,79.133791 478.416194,79.174217 C 478.218460,79.214643 478.070293,79.379626 477.971693,79.669165 C 477.875237,79.948870 477.837191,80.249608 477.857554,80.571379 C 477.877917,80.893150 477.980803,81.173675 478.166213,81.412954 C 478.293749,81.580122 478.423429,81.633659 478.555252,81.573566 C 478.687075,81.513473 478.791033,81.401482 478.867126,81.237592 L 478.884810,81.201536 L 478.884810,80.701671 L 478.502201,80.701671 "/>
        <path style="fill:none;stroke-width:0.280000;stroke-linecap:round;stroke-linejoin:round;stroke-opacity:1;stroke:#339966;" d="M 481.645057,79.154550 L 480.312358,79.154550 L 480.312358,80.051028 L 481.328360,80.051028 C 481.480546,80.073973 481.556371,80.151821 481.555836,80.284571 C 481.555300,80.417322 481.479475,80.494624 481.328360,80.516476 L 480.312358,80.516476 L 480.312358,81.593233 L 481.645057,81.593233 C 481.796172,81.616178 481.871729,81.693206 481.871729,81.824318 C 481.871729,81.955430 481.796172,82.031912 481.645057,82.053764 L 480.088901,82.053764 C 479.954935,82.036282 479.878842,81.958708 479.860622,81.821040 L 479.860622,78.926743 C 479.880985,78.782520 479.957078,78.706038 480.088901,78.697297 L 481.645057,78.697297 C 481.796172,78.709315 481.871461,78.786071 481.870925,78.927562 C 481.870389,79.069054 481.795100,79.144717 481.645057,79.154550 "/>
        <path style="fill:none;stroke-width:0.280000;stroke-linecap:round;stroke-linejoin:round;stroke-opacity:1;stroke:#339966;" d="M 484.538736,81.827596 C 484.538736,81.942319 484.484345,82.015250 484.375564,82.046389 C 484.266784,82.077528 484.182385,82.045023 484.122368,81.948874 L 482.771984,79.741276 L 482.771984,81.827596 C 482.748406,81.980560 482.672581,82.057042 482.544509,82.057042 C 482.416437,82.057042 482.341148,81.980560 482.318641,81.827596 L 482.318641,78.933298 C 482.334717,78.819668 482.391787,78.744825 482.489851,78.708769 C 482.587914,78.672713 482.669634,78.706584 482.735010,78.810381 L 484.085393,81.021257 L 484.085393,78.933298 C 484.105756,78.777057 484.183724,78.699755 484.319298,78.701394 C 484.454873,78.703033 484.528018,78.780334 484.538736,78.933298 L 484.538736,81.827596 "/>
        <path style="fill:none;stroke-width:0.280000;stroke-linecap:round;stroke-linejoin:round;stroke-opacity:1;stroke:#339966;" d="M 485.815169,81.824318 L 485.815169,79.159467 L 485.225181,79.159467 C 485.075138,79.147448 485.000385,79.070693 485.000921,78.929201 C 485.001456,78.787710 485.076210,78.710408 485.225181,78.697297 L 486.856894,78.697297 C 487.004793,78.709315 487.079010,78.786617 487.079546,78.929201 C 487.080082,79.071786 487.005865,79.148541 486.856894,79.159467 L 486.268512,79.159467 L 486.268512,81.824318 C 486.243863,81.979467 486.164822,82.055949 486.031392,82.053764 C 485.897961,82.051579 485.825887,81.975097 485.815169,81.824318 "/>
        <path style="fill:none;stroke-width:0.280000;stroke-linecap:round;stroke-linejoin:round;stroke-opacity:1;stroke:#339966;" d="M 488.856790,78.692853 C 489.179574,78.692853 489.426461,78.764267 489.597450,78.907093 C 489.770187,79.048422 489.856555,79.252890 489.856555,79.520499 L 489.856555,79.527045 C 489.856555,79.651834 489.827772,79.786394 489.770204,79.930727 C 489.712636,80.075052 489.628015,80.220886 489.516341,80.368230 L 488.605547,81.543163 L 489.867039,81.543163 L 489.867039,82.005475 L 487.877992,82.005345 L 487.877992,81.581370 L 489.003385,80.165129 C 489.092370,80.047860 489.160417,79.935102 489.207526,79.826852 C 489.254627,79.717105 489.278178,79.617878 489.278178,79.529172 L 489.278178,79.520444 C 489.278178,79.403176 489.243274,79.313721 489.173467,79.252079 C 489.103660,79.190474 489.002460,79.159671 488.869869,79.159671 C 488.737269,79.159671 488.631710,79.198009 488.553192,79.274685 C 488.474691,79.349862 488.430198,79.459613 488.419714,79.603939 L 488.419714,79.619758 L 487.841311,79.619758 L 487.841311,79.603939 C 487.865706,79.310772 487.966031,79.086007 488.142288,78.929644 C 488.318511,78.771784 488.556678,78.692853 488.856790,78.692853 "/>
        <path style="fill:none;stroke-width:0.280000;stroke-linecap:round;stroke-linejoin:round;stroke-opacity:1;stroke:#339966;" d="M 574.261065,80.970520 L 573.772355,79.593844 L 573.280430,80.970520 L 574.261065,80.970520 "/>
        <path style="fill:none;stroke-width:0.280000;stroke-linecap:round;stroke-linejoin:round;stroke-opacity:1;stroke:#339966;" d="M 573.772355,79.593844 L 574.261065,80.970520 L 573.772355,79.593844 "/>
        <path style="fill:none;stroke-width:0.280000;stroke-linecap:round;stroke-linejoin:round;stroke-opacity:1;stroke:#339966;" d="M 572.531289,81.730970 C 572.702766,81.249133 572.874511,80.767570 573.046524,80.286279 C 573.218537,79.804989 573.390818,79.323426 573.563367,78.841589 C 573.598735,78.742162 573.668933,78.691903 573.773963,78.690810 C 573.878993,78.689718 573.949727,78.739977 573.986166,78.841589 L 575.016637,81.739164 C 575.048789,81.893221 575.002704,81.992647 574.878383,82.037444 C 574.754062,82.082240 574.658142,82.036351 574.590623,81.899776 L 574.425041,81.431051 L 573.114847,81.431051 L 572.954087,81.888304 C 572.885496,82.025972 572.787969,82.071041 572.661504,82.023513 C 572.535040,81.975985 572.491635,81.878471 572.531289,81.730970 "/>
        <path style="fill:none;stroke-width:0.280000;stroke-linecap:round;stroke-linejoin:round;stroke-opacity:1;stroke:#339966;" d="M 576.432932,80.695185 L 576.418463,80.693546 C 576.287712,80.677157 576.222336,80.601221 576.222336,80.465739 C 576.222336,80.330256 576.287712,80.254321 576.418463,80.237932 L 576.432932,80.234654 L 576.447400,80.234654 L 577.040604,80.234654 C 577.102765,80.234654 577.156084,80.257325 577.200560,80.302668 C 577.245037,80.348011 577.267276,80.402368 577.267276,80.465739 L 577.267276,81.296661 L 577.247985,81.339272 L 577.236731,81.365495 L 577.225478,81.390078 L 577.212617,81.414662 L 577.199757,81.439245 L 577.188503,81.463829 L 577.175643,81.488412 L 577.161174,81.512996 C 576.953258,81.873554 576.694971,82.049736 576.386311,82.041541 C 576.077652,82.033347 575.818293,81.855526 575.608233,81.508079 C 575.508562,81.343097 575.434613,81.136322 575.386385,80.887756 C 575.338157,80.639189 575.323688,80.385160 575.342980,80.125667 C 575.362271,79.866175 575.421484,79.619247 575.520619,79.384884 C 575.619755,79.150522 575.767922,78.964507 575.965121,78.826839 C 576.211619,78.656393 576.451687,78.636453 576.685325,78.767019 C 576.918963,78.897585 577.093655,79.080868 577.209402,79.316870 L 577.222263,79.343092 L 577.231909,79.366037 L 577.244769,79.390620 C 577.281208,79.494417 577.267276,79.579094 577.202972,79.644650 C 577.140811,79.706928 577.073292,79.730146 577.000414,79.714303 C 576.927537,79.698461 576.871271,79.654483 576.831616,79.582372 C 576.706224,79.265518 576.544660,79.127304 576.346925,79.167730 C 576.149191,79.208156 576.001024,79.373139 575.902424,79.662678 C 575.805968,79.942383 575.767922,80.243122 575.788285,80.564892 C 575.808648,80.886663 575.911534,81.167188 576.096944,81.406467 C 576.224480,81.573635 576.354159,81.627173 576.485983,81.567080 C 576.617806,81.506987 576.721764,81.394995 576.797857,81.231105 L 576.815540,81.195049 L 576.815540,80.695185 L 576.432932,80.695185 "/>
        <path style="fill:none;stroke-width:0.280000;stroke-linecap:round;stroke-linejoin:round;stroke-opacity:1;stroke:#339966;" d="M 579.575788,79.148063 L 578.243088,79.148063 L 578.243088,80.044542 L 579.259091,80.044542 C 579.411277,80.067486 579.487102,80.145334 579.486566,80.278085 C 579.486031,80.410836 579.410205,80.488137 579.259091,80.509989 L 578.243088,80.509989 L 578.243088,81.586746 L 579.575788,81.586746 C 579.726902,81.609691 579.802460,81.686719 579.802460,81.817831 C 579.802460,81.948943 579.726902,82.025425 579.575788,82.047277 L 578.019632,82.047277 C 577.885666,82.029796 577.809573,81.952221 577.791353,81.814553 L 577.791353,78.920256 C 577.811716,78.776033 577.887809,78.699551 578.019632,78.690810 L 579.575788,78.690810 C 579.726902,78.702829 579.802192,78.779584 579.801656,78.921076 C 579.801120,79.062567 579.725831,79.138230 579.575788,79.148063 "/>
        <path style="fill:none;stroke-width:0.280000;stroke-linecap:round;stroke-linejoin:round;stroke-opacity:1;stroke:#339966;" d="M 582.469467,81.821109 C 582.469467,81.935832 582.415076,82.008763 582.306295,82.039902 C 582.197514,82.071041 582.113115,82.038536 582.053098,81.942388 L 580.702715,79.734789 L 580.702715,81.821109 C 580.679137,81.974073 580.603312,82.050555 580.475240,82.050555 C 580.347168,82.050555 580.271879,81.974073 580.249372,81.821109 L 580.249372,78.926812 C 580.265448,78.813181 580.322518,78.738338 580.420582,78.702283 C 580.518645,78.666227 580.600365,78.700097 580.665740,78.803894 L 582.016124,81.014770 L 582.016124,78.926812 C 582.036487,78.770570 582.114455,78.693269 582.250029,78.694907 C 582.385604,78.696546 582.458749,78.773848 582.469467,78.926812 L 582.469467,81.821109 "/>
        <path style="fill:none;stroke-width:0.280000;stroke-linecap:round;stroke-linejoin:round;stroke-opacity:1;stroke:#339966;" d="M 583.745900,81.817831 L 583.745900,79.152980 L 583.155911,79.152980 C 583.005869,79.140961 582.931115,79.064206 582.931651,78.922715 C 582.932187,78.781223 583.006941,78.703921 583.155911,78.690810 L 584.787625,78.690810 C 584.935524,78.702829 585.009741,78.780130 585.010277,78.922715 C 585.010813,79.065299 584.936595,79.142054 584.787625,79.152980 L 584.199243,79.152980 L 584.199243,81.817831 C 584.174593,81.972980 584.095553,82.049462 583.962122,82.047277 C 583.828692,82.045092 583.756618,81.968610 583.745900,81.817831 "/>
        <path style="fill:none;stroke-width:0.280000;stroke-linecap:round;stroke-linejoin:round;stroke-opacity:1;stroke:#339966;" d="M 586.876663,82.002552 L 586.391579,82.002552 L 586.391579,79.258838 L 585.926892,79.522174 L 585.926892,79.017998 L 586.391579,78.729900 L 586.876663,78.729900 L 586.876663,82.002552 "/>
        <path style="fill:none;stroke-width:0.280000;stroke-linecap:round;stroke-linejoin:round;stroke-opacity:1;stroke:#339966;" d="M 665.458572,80.997895 L 664.969862,79.621219 L 664.477936,80.997895 L 665.458572,80.997895 "/>
        <path style="fill:none;stroke-width:0.280000;stroke-linecap:round;stroke-linejoin:round;stroke-opacity:1;stroke:#339966;" d="M 664.969862,79.621219 L 665.458572,80.997895 L 664.969862,79.621219 "/>
        <path style="fill:none;stroke-width:0.280000;stroke-linecap:round;stroke-linejoin:round;stroke-opacity:1;stroke:#339966;" d="M 663.728795,81.758345 C 663.900272,81.276508 664.072018,80.794945 664.244031,80.313654 C 664.416044,79.832364 664.588325,79.350801 664.760874,78.868964 C 664.796241,78.769538 664.866440,78.719278 664.971469,78.718185 C 665.076499,78.717093 665.147234,78.767352 665.183672,78.868964 L 666.214144,81.766539 C 666.246295,81.920596 666.200211,82.020022 666.075890,82.064819 C 665.951569,82.109616 665.855649,82.063726 665.788130,81.927151 L 665.622547,81.458426 L 664.312354,81.458426 L 664.151594,81.915679 C 664.083003,82.053347 663.985475,82.098416 663.859011,82.050888 C 663.732546,82.003360 663.689141,81.905846 663.728795,81.758345 "/>
        <path style="fill:none;stroke-width:0.280000;stroke-linecap:round;stroke-linejoin:round;stroke-opacity:1;stroke:#339966;" d="M 667.630438,80.722560 L 667.615970,80.720921 C 667.485219,80.704532 667.419843,80.628596 667.419843,80.493114 C 667.419843,80.357632 667.485219,80.281696 667.615970,80.265307 L 667.630438,80.262029 L 667.644907,80.262029 L 668.238111,80.262029 C 668.300271,80.262029 668.353590,80.284700 668.398067,80.330043 C 668.442544,80.375386 668.464782,80.429743 668.464782,80.493114 L 668.464782,81.324036 L 668.445491,81.366648 L 668.434238,81.392870 L 668.422985,81.417453 L 668.410124,81.442037 L 668.397263,81.466620 L 668.386010,81.491204 L 668.373149,81.515787 L 668.358681,81.540371 C 668.150765,81.900929 667.892477,82.077111 667.583818,82.068916 C 667.275159,82.060722 667.015800,81.882901 666.805740,81.535454 C 666.706069,81.370472 666.632119,81.163697 666.583891,80.915131 C 666.535663,80.666564 666.521195,80.412535 666.540486,80.153042 C 666.559777,79.893550 666.618991,79.646622 666.718126,79.412259 C 666.817261,79.177897 666.965428,78.991882 667.162627,78.854214 C 667.409126,78.683768 667.649194,78.663828 667.882831,78.794394 C 668.116469,78.924960 668.291162,79.108244 668.406909,79.344245 L 668.419770,79.370467 L 668.429415,79.393412 L 668.442276,79.417996 C 668.478715,79.521793 668.464782,79.606469 668.400478,79.672025 C 668.338318,79.734303 668.270799,79.757521 668.197921,79.741678 C 668.125043,79.725836 668.068777,79.681858 668.029123,79.609747 C 667.903730,79.292893 667.742166,79.154679 667.544432,79.195105 C 667.346697,79.235531 667.198530,79.400514 667.099931,79.690053 C 667.003475,79.969759 666.965428,80.270497 666.985791,80.592267 C 667.006154,80.914038 667.109040,81.194563 667.294450,81.433842 C 667.421986,81.601010 667.551666,81.654548 667.683489,81.594455 C 667.815312,81.534362 667.919270,81.422370 667.995363,81.258480 L 668.013047,81.222424 L 668.013047,80.722560 L 667.630438,80.722560 "/>
        <path style="fill:none;stroke-width:0.280000;stroke-linecap:round;stroke-linejoin:round;stroke-opacity:1;stroke:#339966;" d="M 670.773295,79.175438 L 669.440595,79.175438 L 669.440595,80.071917 L 670.456598,80.071917 C 670.608784,80.094861 670.684609,80.172709 670.684073,80.305460 C 670.683537,80.438211 670.607712,80.515512 670.456598,80.537364 L 669.440595,80.537364 L 669.440595,81.614121 L 670.773295,81.614121 C 670.924409,81.637066 670.999966,81.714094 670.999966,81.845206 C 670.999966,81.976318 670.924409,82.052800 670.773295,82.074652 L 669.217139,82.074652 C 669.083172,82.057171 669.007079,81.979596 668.988860,81.841929 L 668.988860,78.947631 C 669.009223,78.803408 669.085316,78.726926 669.217139,78.718185 L 670.773295,78.718185 C 670.924409,78.730204 670.999698,78.806959 670.999162,78.948451 C 670.998626,79.089942 670.923337,79.165605 670.773295,79.175438 "/>
        <path style="fill:none;stroke-width:0.280000;stroke-linecap:round;stroke-linejoin:round;stroke-opacity:1;stroke:#339966;" d="M 673.666973,81.848484 C 673.666973,81.963207 673.612583,82.036138 673.503802,82.067277 C 673.395021,82.098416 673.310622,82.065912 673.250605,81.969763 L 671.900222,79.762165 L 671.900222,81.848484 C 671.876644,82.001448 671.800818,82.077930 671.672746,82.077930 C 671.544674,82.077930 671.469385,82.001448 671.446879,81.848484 L 671.446879,78.954187 C 671.462955,78.840557 671.520024,78.765713 671.618088,78.729658 C 671.716152,78.693602 671.797871,78.727472 671.863247,78.831269 L 673.213630,81.042145 L 673.213630,78.954187 C 673.233993,78.797945 673.311962,78.720644 673.447536,78.722283 C 673.583110,78.723921 673.656256,78.801223 673.666973,78.954187 L 673.666973,81.848484 "/>
        <path style="fill:none;stroke-width:0.280000;stroke-linecap:round;stroke-linejoin:round;stroke-opacity:1;stroke:#339966;" d="M 674.943407,81.845206 L 674.943407,79.180355 L 674.353418,79.180355 C 674.203375,79.168337 674.128622,79.091581 674.129158,78.950090 C 674.129694,78.808598 674.204447,78.731297 674.353418,78.718185 L 675.985131,78.718185 C 676.133030,78.730204 676.207248,78.807505 676.207784,78.950090 C 676.208319,79.092674 676.134102,79.169429 675.985131,79.180355 L 675.396750,79.180355 L 675.396750,81.845206 C 675.372100,82.000356 675.293060,82.076838 675.159629,82.074652 C 675.026198,82.072467 674.954124,81.995985 674.943407,81.845206 "/>
        <path style="fill:none;stroke-width:0.280000;stroke-linecap:round;stroke-linejoin:round;stroke-opacity:1;stroke:#339966;" d="M 677.985027,78.713742 C 678.307811,78.713742 678.554698,78.785155 678.725688,78.927982 C 678.898424,79.069310 678.984793,79.273779 678.984793,79.541387 L 678.984793,79.547933 C 678.984793,79.672722 678.956009,79.807283 678.898441,79.951615 C 678.840874,80.095940 678.756252,80.241774 678.644578,80.389118 L 677.733785,81.564052 L 678.995277,81.564052 L 678.995277,82.026364 L 677.006229,82.026233 L 677.006229,81.602258 L 678.131622,80.186017 C 678.220607,80.068749 678.288654,79.955990 678.335764,79.847741 C 678.382864,79.737993 678.406415,79.638766 678.406415,79.550061 L 678.406415,79.541333 C 678.406415,79.424064 678.371511,79.334609 678.301704,79.272968 C 678.231897,79.211362 678.130698,79.180560 677.998106,79.180560 C 677.865507,79.180560 677.759948,79.218898 677.681429,79.295573 C 677.602928,79.370751 677.558435,79.480502 677.547952,79.624827 L 677.547952,79.640647 L 676.969548,79.640647 L 676.969548,79.624827 C 676.993943,79.331660 677.094269,79.106895 677.270525,78.950533 C 677.446748,78.792672 677.684915,78.713742 677.985027,78.713742 "/>
        <path style="fill:none;stroke-width:0.280000;stroke-linecap:round;stroke-linejoin:round;stroke-opacity:1;stroke:#339966;" d="M 386.074842,113.551441 L 386.074842,111.146434 L 385.542382,111.146434 C 385.406970,111.135587 385.339505,111.066316 385.339989,110.938621 C 385.340473,110.810926 385.407937,110.741162 385.542382,110.729329 L 387.014990,110.729329 C 387.148468,110.740176 387.215449,110.809940 387.215932,110.938621 C 387.216416,111.067302 387.149435,111.136573 387.014990,111.146434 L 386.483981,111.146434 L 386.483981,113.551441 C 386.461734,113.691462 386.390401,113.760487 386.269981,113.758515 C 386.149561,113.756542 386.084515,113.687518 386.074842,113.551441 "/>
        <path style="fill:none;stroke-width:0.280000;stroke-linecap:round;stroke-linejoin:round;stroke-opacity:1;stroke:#339966;" d="M 389.259449,111.141997 L 388.056698,111.141997 L 388.056698,111.951061 L 388.973632,111.951061 C 389.110979,111.971769 389.179410,112.042026 389.178927,112.161832 C 389.178443,112.281639 389.110012,112.351403 388.973632,112.371124 L 388.056698,112.371124 L 388.056698,113.342889 L 389.259449,113.342889 C 389.395828,113.363596 389.464018,113.433114 389.464018,113.551441 C 389.464018,113.669769 389.395828,113.738793 389.259449,113.758515 L 387.855030,113.758515 C 387.734126,113.742738 387.665453,113.672727 387.649010,113.548483 L 387.649010,110.936402 C 387.667387,110.806242 387.736061,110.737218 387.855030,110.729329 L 389.259449,110.729329 C 389.395828,110.740176 389.463776,110.809447 389.463293,110.937142 C 389.462809,111.064837 389.394861,111.133122 389.259449,111.141997 "/>
        <path style="fill:none;stroke-width:0.280000;stroke-linecap:round;stroke-linejoin:round;stroke-opacity:1;stroke:#339966;" d="M 391.326904,112.146302 L 391.350117,112.156655 L 391.376233,112.169967 L 391.399446,112.183279 C 391.406217,112.188209 391.413713,112.192893 391.421934,112.197330 C 391.430156,112.201768 391.438135,112.206452 391.445873,112.211382 C 391.637385,112.339570 391.755871,112.517061 391.801330,112.743856 C 391.818741,112.832601 391.822610,112.923812 391.812937,113.017488 C 391.797462,113.151593 391.751276,113.275590 391.674381,113.389481 C 391.597487,113.503371 391.501005,113.591377 391.384938,113.653499 C 391.260165,113.720551 391.131040,113.754077 390.997562,113.754077 C 390.773164,113.754077 390.558923,113.724742 390.354837,113.666071 C 390.150752,113.607400 390.005183,113.450370 389.918133,113.194980 C 389.906526,113.162440 389.897821,113.128913 389.892017,113.094401 C 389.886214,113.059889 389.879443,113.025377 389.871706,112.990865 C 389.857197,112.919868 389.874365,112.857253 389.923211,112.803020 C 389.972056,112.748786 390.032749,112.728079 390.105292,112.740898 C 390.181703,112.756675 390.234901,112.804992 390.264885,112.885849 L 390.269237,112.899161 C 390.315664,113.113136 390.396670,113.240832 390.512254,113.282246 C 390.627838,113.323661 390.788640,113.342396 390.994660,113.338452 C 391.184237,113.338452 391.314330,113.247734 391.384938,113.066298 C 391.415889,112.985441 391.420725,112.901379 391.399446,112.814113 C 391.378167,112.726846 391.336093,112.654124 391.273223,112.595946 C 391.245173,112.571295 391.208418,112.548122 391.162958,112.526429 L 390.491217,112.226173 L 390.469454,112.214340 C 390.249893,112.096012 390.113513,111.927889 390.060316,111.709969 C 389.995511,111.457537 390.040729,111.230989 390.195970,111.030325 C 390.351210,110.829661 390.555054,110.729329 390.807501,110.729329 L 390.967094,110.733766 C 391.019325,110.743627 391.069621,110.753241 391.117982,110.762609 C 391.166344,110.771976 391.215189,110.788000 391.264518,110.810679 C 391.386389,110.868857 391.479726,110.948728 391.544531,111.050293 C 391.609335,111.151857 391.667853,111.261803 391.720083,111.380131 C 391.724919,111.390977 391.729272,111.403796 391.733141,111.418587 C 391.743780,111.466904 391.738944,111.510784 391.718632,111.550227 C 391.707025,111.574878 391.694935,111.593613 391.682361,111.606432 C 391.669787,111.619251 391.659631,111.628126 391.651893,111.633056 C 391.601597,111.669540 391.546465,111.680387 391.486497,111.665596 C 391.426529,111.651791 391.380585,111.612349 391.348667,111.547268 C 391.323519,111.490077 391.296678,111.431653 391.268145,111.371996 C 391.239611,111.312339 391.199713,111.262789 391.148450,111.223347 C 391.127171,111.207570 391.106617,111.195983 391.086789,111.188588 C 391.066961,111.181193 391.044956,111.173058 391.020775,111.164183 L 390.926470,111.147913 L 390.792993,111.143476 C 390.663384,111.145448 390.564243,111.202639 390.495569,111.315051 C 390.449142,111.387033 390.431732,111.467397 390.443339,111.556143 C 390.456880,111.665596 390.507176,111.750397 390.594227,111.810547 C 390.598096,111.813505 390.602448,111.816710 390.607284,111.820161 C 390.612121,111.823613 390.617440,111.826817 390.623244,111.829775 L 390.639203,111.837171 L 390.656613,111.844566 L 391.326904,112.146302 "/>
        <path style="fill:none;stroke-width:0.280000;stroke-linecap:round;stroke-linejoin:round;stroke-opacity:1;stroke:#339966;" d="M 392.912678,113.551441 L 392.912678,111.146434 L 392.380218,111.146434 C 392.244806,111.135587 392.177341,111.066316 392.177825,110.938621 C 392.178309,110.810926 392.245773,110.741162 392.380218,110.729329 L 393.852826,110.729329 C 393.986304,110.740176 394.053285,110.809940 394.053768,110.938621 C 394.054252,111.067302 393.987271,111.136573 393.852826,111.146434 L 393.321817,111.146434 L 393.321817,113.551441 C 393.299570,113.691462 393.228237,113.760487 393.107817,113.758515 C 392.987397,113.756542 392.922351,113.687518 392.912678,113.551441 "/>
        <path style="fill:none;stroke-width:0.280000;stroke-linecap:round;stroke-linejoin:round;stroke-opacity:1;stroke:#339966;" d="M 552.074842,122.051132 L 552.074842,119.646124 L 551.542382,119.646124 C 551.406970,119.635277 551.339505,119.566007 551.339989,119.438311 C 551.340473,119.310616 551.407937,119.240852 551.542382,119.229020 L 553.014990,119.229020 C 553.148468,119.239866 553.215449,119.309630 553.215932,119.438311 C 553.216416,119.566993 553.149435,119.636264 553.014990,119.646124 L 552.483981,119.646124 L 552.483981,122.051132 C 552.461734,122.191153 552.390401,122.260177 552.269981,122.258205 C 552.149561,122.256233 552.084515,122.187208 552.074842,122.051132 "/>
        <path style="fill:none;stroke-width:0.280000;stroke-linecap:round;stroke-linejoin:round;stroke-opacity:1;stroke:#339966;" d="M 555.259449,119.641687 L 554.056698,119.641687 L 554.056698,120.450752 L 554.973632,120.450752 C 555.110979,120.471459 555.179410,120.541716 555.178927,120.661523 C 555.178443,120.781329 555.110012,120.851093 554.973632,120.870814 L 554.056698,120.870814 L 554.056698,121.842579 L 555.259449,121.842579 C 555.395828,121.863287 555.464018,121.932804 555.464018,122.051132 C 555.464018,122.169459 555.395828,122.238484 555.259449,122.258205 L 553.855030,122.258205 C 553.734126,122.242428 553.665453,122.172417 553.649010,122.048174 L 553.649010,119.436093 C 553.667387,119.305932 553.736061,119.236908 553.855030,119.229020 L 555.259449,119.229020 C 555.395828,119.239866 555.463776,119.309137 555.463293,119.436832 C 555.462809,119.564527 555.394861,119.632812 555.259449,119.641687 "/>
        <path style="fill:none;stroke-width:0.280000;stroke-linecap:round;stroke-linejoin:round;stroke-opacity:1;stroke:#339966;" d="M 557.326904,120.645992 L 557.350117,120.656346 L 557.376233,120.669658 L 557.399446,120.682969 C 557.406217,120.687900 557.413713,120.692583 557.421934,120.697021 C 557.430156,120.701458 557.438135,120.706142 557.445873,120.711072 C 557.637385,120.839260 557.755871,121.016752 557.801330,121.243546 C 557.818741,121.332292 557.822610,121.423503 557.812937,121.517179 C 557.797462,121.651283 557.751276,121.775281 557.674381,121.889171 C 557.597487,122.003061 557.501005,122.091067 557.384938,122.153189 C 557.260165,122.220242 557.131040,122.253768 556.997562,122.253768 C 556.773164,122.253768 556.558923,122.224432 556.354837,122.165762 C 556.150752,122.107091 556.005183,121.950060 555.918133,121.694670 C 555.906526,121.662130 555.897821,121.628604 555.892017,121.594092 C 555.886214,121.559579 555.879443,121.525067 555.871706,121.490555 C 555.857197,121.419558 555.874365,121.356943 555.923211,121.302710 C 555.972056,121.248476 556.032749,121.227769 556.105292,121.240588 C 556.181703,121.256365 556.234901,121.304682 556.264885,121.385539 L 556.269237,121.398851 C 556.315664,121.612827 556.396670,121.740522 556.512254,121.781937 C 556.627838,121.823351 556.788640,121.842086 556.994660,121.838142 C 557.184237,121.838142 557.314330,121.747424 557.384938,121.565989 C 557.415889,121.485132 557.420725,121.401070 557.399446,121.313803 C 557.378167,121.226537 557.336093,121.153814 557.273223,121.095637 C 557.245173,121.070985 557.208418,121.047813 557.162958,121.026119 L 556.491217,120.725863 L 556.469454,120.714030 C 556.249893,120.595703 556.113513,120.427579 556.060316,120.209659 C 555.995511,119.957227 556.040729,119.730679 556.195970,119.530015 C 556.351210,119.329351 556.555054,119.229020 556.807501,119.229020 L 556.967094,119.233457 C 557.019325,119.243317 557.069621,119.252932 557.117982,119.262299 C 557.166344,119.271667 557.215189,119.287690 557.264518,119.310370 C 557.386389,119.368547 557.479726,119.448419 557.544531,119.549983 C 557.609335,119.651548 557.667853,119.761494 557.720083,119.879821 C 557.724919,119.890668 557.729272,119.903487 557.733141,119.918278 C 557.743780,119.966595 557.738944,120.010474 557.718632,120.049917 C 557.707025,120.074569 557.694935,120.093304 557.682361,120.106123 C 557.669787,120.118941 557.659631,120.127816 557.651893,120.132746 C 557.601597,120.169231 557.546465,120.180077 557.486497,120.165286 C 557.426529,120.151481 557.380585,120.112039 557.348667,120.046959 C 557.323519,119.989767 557.296678,119.931343 557.268145,119.871686 C 557.239611,119.812029 557.199713,119.762480 557.148450,119.723037 C 557.127171,119.707260 557.106617,119.695674 557.086789,119.688278 C 557.066961,119.680883 557.044956,119.672748 557.020775,119.663873 L 556.926470,119.647603 L 556.792993,119.643166 C 556.663384,119.645138 556.564243,119.702330 556.495569,119.814741 C 556.449142,119.886724 556.431732,119.967088 556.443339,120.055833 C 556.456880,120.165286 556.507176,120.250088 556.594227,120.310238 C 556.598096,120.313196 556.602448,120.316400 556.607284,120.319852 C 556.612121,120.323303 556.617440,120.326508 556.623244,120.329466 L 556.639203,120.336861 L 556.656613,120.344257 L 557.326904,120.645992 "/>
        <path style="fill:none;stroke-width:0.280000;stroke-linecap:round;stroke-linejoin:round;stroke-opacity:1;stroke:#339966;" d="M 558.912678,122.051132 L 558.912678,119.646124 L 558.380218,119.646124 C 558.244806,119.635277 558.177341,119.566007 558.177825,119.438311 C 558.178309,119.310616 558.245773,119.240852 558.380218,119.229020 L 559.852826,119.229020 C 559.986304,119.239866 560.053285,119.309630 560.053768,119.438311 C 560.054252,119.566993 559.987271,119.636264 559.852826,119.646124 L 559.321817,119.646124 L 559.321817,122.051132 C 559.299570,122.191153 559.228237,122.260177 559.107817,122.258205 C 558.987397,122.256233 558.922351,122.187208 558.912678,122.051132 "/>
        <path style="fill:none;stroke-width:0.280000;stroke-linecap:round;stroke-linejoin:round;stroke-opacity:1;stroke:#339966;" d="M 668.128945,113.557953 L 668.128945,111.152946 L 667.596485,111.152946 C 667.461073,111.142099 667.393608,111.072828 667.394092,110.945133 C 667.394576,110.817438 667.462040,110.747674 667.596485,110.735841 L 669.069093,110.735841 C 669.202571,110.746688 669.269552,110.816452 669.270036,110.945133 C 669.270519,111.073814 669.203538,111.143085 669.069093,111.152946 L 668.538084,111.152946 L 668.538084,113.557953 C 668.515838,113.697974 668.444504,113.766999 668.324084,113.765027 C 668.203664,113.763055 668.138618,113.694030 668.128945,113.557953 "/>
        <path style="fill:none;stroke-width:0.280000;stroke-linecap:round;stroke-linejoin:round;stroke-opacity:1;stroke:#339966;" d="M 671.313552,111.148509 L 670.110801,111.148509 L 670.110801,111.957573 L 671.027735,111.957573 C 671.165082,111.978281 671.233513,112.048538 671.233030,112.168344 C 671.232546,112.288151 671.164115,112.357915 671.027735,112.377636 L 670.110801,112.377636 L 670.110801,113.349401 L 671.313552,113.349401 C 671.449931,113.370108 671.518121,113.439626 671.518121,113.557953 C 671.518121,113.676281 671.449931,113.745305 671.313552,113.765027 L 669.909133,113.765027 C 669.788229,113.749250 669.719556,113.679239 669.703113,113.554995 L 669.703113,110.942914 C 669.721490,110.812754 669.790164,110.743730 669.909133,110.735841 L 671.313552,110.735841 C 671.449931,110.746688 671.517879,110.815959 671.517396,110.943654 C 671.516912,111.071349 671.448964,111.139634 671.313552,111.148509 "/>
        <path style="fill:none;stroke-width:0.280000;stroke-linecap:round;stroke-linejoin:round;stroke-opacity:1;stroke:#339966;" d="M 673.381007,112.152814 L 673.404220,112.163167 L 673.430336,112.176479 L 673.453549,112.189791 C 673.460320,112.194721 673.467816,112.199405 673.476037,112.203842 C 673.484259,112.208280 673.492238,112.212964 673.499976,112.217894 C 673.691488,112.346082 673.809974,112.523573 673.855434,112.750368 C 673.872844,112.839114 673.876713,112.930324 673.867040,113.024000 C 673.851565,113.158105 673.805379,113.282102 673.728485,113.395993 C 673.651590,113.509883 673.555108,113.597889 673.439041,113.660011 C 673.314268,113.727063 673.185143,113.760589 673.051665,113.760589 C 672.827267,113.760589 672.613026,113.731254 672.408940,113.672583 C 672.204855,113.613913 672.059286,113.456882 671.972236,113.201492 C 671.960629,113.168952 671.951924,113.135425 671.946121,113.100913 C 671.940317,113.066401 671.933547,113.031889 671.925809,112.997377 C 671.911300,112.926380 671.928469,112.863765 671.977314,112.809532 C 672.026159,112.755298 672.086853,112.734591 672.159395,112.747410 C 672.235806,112.763187 672.289004,112.811504 672.318988,112.892361 L 672.323340,112.905673 C 672.369767,113.119648 672.450773,113.247344 672.566357,113.288758 C 672.681941,113.330173 672.842743,113.348908 673.048763,113.344964 C 673.238340,113.344964 673.368433,113.254246 673.439041,113.072810 C 673.469992,112.991953 673.474828,112.907891 673.453549,112.820625 C 673.432270,112.733358 673.390196,112.660636 673.327326,112.602458 C 673.299276,112.577807 673.262521,112.554634 673.217061,112.532941 L 672.545320,112.232685 L 672.523557,112.220852 C 672.303996,112.102525 672.167616,111.934401 672.114419,111.716481 C 672.049614,111.464049 672.094832,111.237501 672.250073,111.036837 C 672.405313,110.836173 672.609157,110.735841 672.861604,110.735841 L 673.021197,110.740279 C 673.073428,110.750139 673.123724,110.759753 673.172085,110.769121 C 673.220447,110.778488 673.269292,110.794512 673.318621,110.817191 C 673.440492,110.875369 673.533829,110.955240 673.598634,111.056805 C 673.663438,111.158369 673.721956,111.268315 673.774186,111.386643 C 673.779022,111.397489 673.783375,111.410308 673.787244,111.425099 C 673.797883,111.473416 673.793047,111.517296 673.772735,111.556739 C 673.761129,111.581390 673.749038,111.600125 673.736464,111.612944 C 673.723890,111.625763 673.713734,111.634638 673.705996,111.639568 C 673.655700,111.676052 673.600568,111.686899 673.540600,111.672108 C 673.480632,111.658303 673.434688,111.618861 673.402770,111.553780 C 673.377622,111.496589 673.350781,111.438165 673.322248,111.378508 C 673.293714,111.318851 673.253816,111.269301 673.202553,111.229859 C 673.181274,111.214082 673.160720,111.202496 673.140892,111.195100 C 673.121064,111.187705 673.099059,111.179570 673.074878,111.170695 L 672.980574,111.154425 L 672.847096,111.149988 C 672.717487,111.151960 672.618346,111.209151 672.549672,111.321563 C 672.503245,111.393545 672.485835,111.473909 672.497442,111.562655 C 672.510983,111.672108 672.561279,111.756909 672.648330,111.817059 C 672.652199,111.820017 672.656551,111.823222 672.661387,111.826673 C 672.666224,111.830125 672.671543,111.833329 672.677347,111.836288 L 672.693306,111.843683 L 672.710716,111.851078 L 673.381007,112.152814 "/>
        <path style="fill:none;stroke-width:0.280000;stroke-linecap:round;stroke-linejoin:round;stroke-opacity:1;stroke:#339966;" d="M 674.966781,113.557953 L 674.966781,111.152946 L 674.434321,111.152946 C 674.298909,111.142099 674.231444,111.072828 674.231928,110.945133 C 674.232412,110.817438 674.299876,110.747674 674.434321,110.735841 L 675.906929,110.735841 C 676.040407,110.746688 676.107388,110.816452 676.107872,110.945133 C 676.108355,111.073814 676.041374,111.143085 675.906929,111.152946 L 675.375920,111.152946 L 675.375920,113.557953 C 675.353674,113.697974 675.282340,113.766999 675.161920,113.765027 C 675.041500,113.763055 674.976454,113.694030 674.966781,113.557953 "/>
        <path style="fill:none;stroke-width:0.280000;stroke-linecap:round;stroke-linejoin:round;stroke-opacity:1;stroke:#339966;" d="M 565.379316,69.220678 C 565.378926,69.220677 565.378535,69.220676 565.378144,69.220676 C 565.129616,69.220676 564.928144,69.398098 564.928144,69.616959 C 564.928144,69.617303 564.928145,69.617647 564.928146,69.617991 L 564.920146,137.287038 C 564.920145,137.287381 564.920144,137.287725 564.920144,137.288069 C 564.920144,137.506701 565.121196,137.683981 565.369366,137.684351 C 565.369756,137.684352 565.370147,137.684352 565.370537,137.684352 C 565.619066,137.684352 565.820537,137.506930 565.820537,137.288069 C 565.820537,137.287725 565.820537,137.287382 565.820536,137.287038 L 565.828536,69.617991 C 565.828537,69.617647 565.828537,69.617303 565.828537,69.616960 C 565.828537,69.398327 565.627486,69.221048 565.379316,69.220678 "/>
        <path style="fill:none;stroke-width:0.280000;stroke-linecap:round;stroke-linejoin:round;stroke-opacity:1;stroke:#339966;" d="M 528.039405,75.196344 L 527.175201,72.761918 L 526.305312,75.196344 L 528.039405,75.196344 "/>
        <path style="fill:none;stroke-width:0.280000;stroke-linecap:round;stroke-linejoin:round;stroke-opacity:1;stroke:#339966;" d="M 527.175201,72.761918 L 528.039405,75.196344 L 527.175201,72.761918 "/>
        <path style="fill:none;stroke-width:0.280000;stroke-linecap:round;stroke-linejoin:round;stroke-opacity:1;stroke:#339966;" d="M 524.980578,76.541075 C 525.283808,75.689026 525.587511,74.837460 525.891688,73.986377 C 526.195865,73.135294 526.500516,72.283727 526.805640,71.431678 C 526.868181,71.255859 526.992316,71.166983 527.178044,71.165051 C 527.363772,71.163119 527.488854,71.251995 527.553290,71.431678 L 529.375510,76.555565 C 529.432365,76.827989 529.350872,77.003809 529.131031,77.083024 C 528.911190,77.162240 528.741571,77.081092 528.622174,76.839582 L 528.329368,76.010718 L 526.012506,76.010718 L 525.728228,76.819295 C 525.606936,77.062738 525.434475,77.142436 525.210843,77.058390 C 524.987211,76.974345 524.910456,76.801906 524.980578,76.541075 "/>
        <path style="fill:none;stroke-width:0.280000;stroke-linecap:round;stroke-linejoin:round;stroke-opacity:1;stroke:#339966;" d="M 532.121631,71.165051 L 532.175644,71.165051 C 532.418227,71.182440 532.641859,71.238470 532.846539,71.333142 C 533.238842,71.520554 533.516486,71.828722 533.679472,72.257644 C 533.842458,72.686567 533.840563,73.104863 533.673787,73.512533 C 533.539229,73.835191 533.340234,74.087811 533.076804,74.270393 C 532.813373,74.452975 532.512987,74.554892 532.175644,74.576145 L 532.121631,74.579043 L 530.740042,74.579043 L 530.740042,76.691777 C 530.705929,76.964201 530.571371,77.100413 530.336368,77.100413 C 530.101365,77.100413 529.967755,76.964201 529.935536,76.691777 L 529.935536,71.570788 C 529.963964,71.331210 530.089046,71.195964 530.310783,71.165051 L 530.336368,71.165051 L 532.121631,71.165051 "/>
        <path style="fill:none;stroke-width:0.280000;stroke-linecap:round;stroke-linejoin:round;stroke-opacity:1;stroke:#339966;" d="M 532.121631,71.982322 L 530.740042,71.982322 L 530.740042,73.758874 L 532.121631,73.758874 C 532.337682,73.758874 532.528622,73.685454 532.694450,73.538616 C 532.860279,73.391778 532.957407,73.208230 532.985835,72.987972 C 533.019948,72.721345 532.949826,72.487079 532.775470,72.285177 C 532.601113,72.083274 532.383166,71.982322 532.121631,71.982322 "/>
        <path style="fill:none;stroke-width:0.280000;stroke-linecap:round;stroke-linejoin:round;stroke-opacity:1;stroke:#339966;" d="M 538.438279,75.144178 L 538.438279,75.202141 C 538.432594,75.298745 538.428803,75.356707 538.426908,75.376028 C 538.347310,75.967246 538.109465,76.403414 537.713371,76.684532 C 537.317278,76.965650 536.894652,77.097032 536.445493,77.078677 C 535.996335,77.060322 535.585554,76.893680 535.213150,76.578750 C 534.840746,76.263821 534.638435,75.804951 534.606217,75.202141 L 534.606217,75.144178 L 534.606217,71.570788 C 534.606217,71.512826 534.616641,71.460660 534.637488,71.414290 C 534.728457,71.211421 534.879598,71.131239 535.090911,71.173745 C 535.302224,71.216251 535.407880,71.348599 535.407880,71.570788 L 535.407880,75.144178 C 535.436308,75.588557 535.628195,75.920876 535.983542,76.141133 C 536.338889,76.361391 536.712714,76.351731 537.105017,76.112152 C 537.281269,76.005888 537.410616,75.868710 537.493056,75.700618 C 537.575497,75.532527 537.624298,75.347047 537.639459,75.144178 L 537.639459,71.570788 C 537.639459,71.536011 537.641354,71.509928 537.645145,71.492539 C 537.688734,71.254893 537.831820,71.147662 538.074404,71.170847 C 538.316987,71.194032 538.438279,71.327346 538.438279,71.570788 L 538.438279,75.144178 "/>
        <path style="fill:none;stroke-width:0.280000;stroke-linecap:round;stroke-linejoin:round;stroke-opacity:1;stroke:#339966;" d="M 430.956114,82.861214 L 428.602290,82.861214 L 428.602290,84.444581 L 430.396761,84.444581 C 430.665553,84.485105 430.799476,84.622601 430.798530,84.857066 C 430.797583,85.091532 430.663660,85.228062 430.396761,85.266657 L 428.602290,85.266657 L 428.602290,87.168434 L 430.956114,87.168434 C 431.223013,87.208959 431.356463,87.345007 431.356463,87.576578 C 431.356463,87.808149 431.223013,87.943232 430.956114,87.981827 L 428.207620,87.981827 C 427.971007,87.950951 427.836611,87.813938 427.804432,87.570789 L 427.804432,82.458859 C 427.840397,82.204131 427.974793,82.069048 428.207620,82.053610 L 430.956114,82.053610 C 431.223013,82.074838 431.355989,82.210403 431.355043,82.460307 C 431.354097,82.710210 431.221120,82.843846 430.956114,82.861214 "/>
        <path style="fill:none;stroke-width:0.280000;stroke-linecap:round;stroke-linejoin:round;stroke-opacity:1;stroke:#339966;" d="M 436.066950,87.582367 C 436.066950,87.784992 435.970885,87.913803 435.778756,87.968801 C 435.586626,88.023799 435.437560,87.966389 435.331558,87.796570 L 432.946501,83.897494 L 432.946501,87.582367 C 432.904857,87.852533 432.770934,87.987616 432.544732,87.987616 C 432.318530,87.987616 432.185554,87.852533 432.145803,87.582367 L 432.145803,82.470438 C 432.174196,82.269743 432.274994,82.137555 432.448194,82.073873 C 432.621395,82.010191 432.765728,82.070013 432.881196,82.253340 L 435.266252,86.158206 L 435.266252,82.470438 C 435.302218,82.194483 435.439926,82.057952 435.679378,82.060847 C 435.918830,82.063742 436.048021,82.200272 436.066950,82.470438 L 436.066950,87.582367 "/>
        <path style="fill:none;stroke-width:0.280000;stroke-linecap:round;stroke-linejoin:round;stroke-opacity:1;stroke:#339966;" d="M 438.823962,85.593751 L 438.798408,85.590857 C 438.567474,85.561910 438.452007,85.427792 438.452007,85.188502 C 438.452007,84.949212 438.567474,84.815094 438.798408,84.786148 L 438.823962,84.780358 L 438.849516,84.780358 L 439.897238,84.780358 C 440.007026,84.780358 440.101198,84.820401 440.179754,84.900486 C 440.258309,84.980571 440.297587,85.076576 440.297587,85.188502 L 440.297587,86.656083 L 440.263515,86.731344 L 440.243639,86.777658 L 440.223764,86.821078 L 440.201049,86.864497 L 440.178334,86.907917 L 440.158458,86.951336 L 440.135744,86.994756 L 440.110189,87.038175 C 439.742966,87.674996 439.286777,87.986169 438.741621,87.971696 C 438.196465,87.957223 437.738383,87.643155 437.367374,87.029491 C 437.191334,86.738098 437.060724,86.372891 436.975543,85.933871 C 436.890363,85.494851 436.864808,85.046183 436.898881,84.587865 C 436.932953,84.129548 437.037536,83.693422 437.212629,83.279489 C 437.387723,82.865556 437.649416,82.537015 437.997710,82.293865 C 438.433078,81.992823 438.857088,81.957605 439.269741,82.188211 C 439.682394,82.418817 439.990937,82.742534 440.195370,83.159362 L 440.218085,83.205676 L 440.235121,83.246201 L 440.257836,83.289620 C 440.322194,83.472947 440.297587,83.622504 440.184013,83.738289 C 440.074224,83.848285 439.954971,83.889293 439.826254,83.861311 C 439.697537,83.833330 439.598159,83.755657 439.528122,83.628293 C 439.306652,83.068663 439.021297,82.824549 438.672057,82.895950 C 438.322816,82.967351 438.061123,83.258744 437.886976,83.770130 C 437.716614,84.264148 437.649416,84.795314 437.685382,85.363628 C 437.721347,85.931942 437.903065,86.427407 438.230537,86.850024 C 438.455793,87.145277 438.684834,87.239835 438.917661,87.133698 C 439.150488,87.027562 439.334099,86.829762 439.468496,86.540298 L 439.499728,86.476616 L 439.499728,85.593751 L 438.823962,85.593751 "/>
        <path style="fill:none;stroke-width:0.280000;stroke-linecap:round;stroke-linejoin:round;stroke-opacity:1;stroke:#339966;" d="M 446.273283,87.976024 L 445.393156,87.976024 L 445.393156,82.997878 L 444.550036,83.475671 L 444.550036,82.560901 L 445.393156,82.038182 L 446.273283,82.038182 L 446.273283,87.976024 "/>
        <path style="fill:none;stroke-width:0.280000;stroke-linecap:round;stroke-linejoin:round;stroke-opacity:1;stroke:#339966;" d="M 617.224365,82.831211 L 614.870541,82.831211 L 614.870541,84.414578 L 616.665012,84.414578 C 616.933805,84.455103 617.067727,84.592598 617.066781,84.827064 C 617.065834,85.061529 616.931912,85.198060 616.665012,85.236655 L 614.870541,85.236655 L 614.870541,87.138431 L 617.224365,87.138431 C 617.491264,87.178956 617.624714,87.315004 617.624714,87.546575 C 617.624714,87.778146 617.491264,87.913229 617.224365,87.951824 L 614.475871,87.951824 C 614.239258,87.920948 614.104862,87.783935 614.072683,87.540786 L 614.072683,82.428857 C 614.108648,82.174129 614.243044,82.039046 614.475871,82.023608 L 617.224365,82.023608 C 617.491264,82.044835 617.624241,82.180400 617.623294,82.430304 C 617.622348,82.680208 617.489371,82.813844 617.224365,82.831211 "/>
        <path style="fill:none;stroke-width:0.280000;stroke-linecap:round;stroke-linejoin:round;stroke-opacity:1;stroke:#339966;" d="M 622.335201,87.552364 C 622.335201,87.754989 622.239137,87.883800 622.047007,87.938799 C 621.854877,87.993797 621.705811,87.936386 621.599809,87.766568 L 619.214752,83.867491 L 619.214752,87.552364 C 619.173108,87.822531 619.039185,87.957614 618.812983,87.957614 C 618.586782,87.957614 618.453805,87.822531 618.414054,87.552364 L 618.414054,82.440435 C 618.442448,82.239740 618.543245,82.107552 618.716445,82.043870 C 618.889646,81.980188 619.033980,82.040011 619.149447,82.223338 L 621.534504,86.128203 L 621.534504,82.440435 C 621.570469,82.164480 621.708177,82.027950 621.947630,82.030844 C 622.187082,82.033739 622.316272,82.170269 622.335201,82.440435 L 622.335201,87.552364 "/>
        <path style="fill:none;stroke-width:0.280000;stroke-linecap:round;stroke-linejoin:round;stroke-opacity:1;stroke:#339966;" d="M 625.092214,85.563749 L 625.066659,85.560854 C 624.835725,85.531908 624.720258,85.397790 624.720258,85.158500 C 624.720258,84.919210 624.835725,84.785091 625.066659,84.756145 L 625.092214,84.750356 L 625.117768,84.750356 L 626.165489,84.750356 C 626.275277,84.750356 626.369449,84.790398 626.448005,84.870483 C 626.526560,84.950568 626.565838,85.046574 626.565838,85.158500 L 626.565838,86.626081 L 626.531766,86.701341 L 626.511890,86.747655 L 626.492015,86.791075 L 626.469300,86.834494 L 626.446585,86.877914 L 626.426710,86.921334 L 626.403995,86.964753 L 626.378441,87.008173 C 626.011218,87.644993 625.555028,87.956166 625.009872,87.941693 C 624.464716,87.927220 624.006634,87.613152 623.635625,86.999489 C 623.459585,86.708095 623.328975,86.342889 623.243794,85.903869 C 623.158614,85.464849 623.133060,85.016180 623.167132,84.557862 C 623.201204,84.099545 623.305787,83.663420 623.480880,83.249486 C 623.655974,82.835553 623.917668,82.507012 624.265962,82.263862 C 624.701329,81.962820 625.125339,81.927602 625.537992,82.158208 C 625.950645,82.388814 626.259188,82.712531 626.463621,83.129359 L 626.486336,83.175673 L 626.503372,83.216198 L 626.526087,83.259618 C 626.590446,83.442945 626.565838,83.592501 626.452264,83.708286 C 626.342475,83.818283 626.223223,83.859290 626.094505,83.831308 C 625.965788,83.803327 625.866411,83.725654 625.796373,83.598290 C 625.574904,83.038660 625.289549,82.794546 624.940308,82.865947 C 624.591068,82.937348 624.329374,83.228742 624.155227,83.740127 C 623.984866,84.234145 623.917668,84.765311 623.953633,85.333625 C 623.989598,85.901939 624.171317,86.397404 624.498789,86.820021 C 624.724044,87.115274 624.953085,87.209832 625.185912,87.103696 C 625.418739,86.997559 625.602351,86.799759 625.736747,86.510295 L 625.767980,86.446613 L 625.767980,85.563749 L 625.092214,85.563749 "/>
        <path style="fill:none;stroke-width:0.280000;stroke-linecap:round;stroke-linejoin:round;stroke-opacity:1;stroke:#339966;" d="M 631.974087,81.973440 C 632.551341,81.973440 632.992864,82.101153 633.298655,82.356579 C 633.607571,82.609325 633.762029,82.974989 633.762029,83.453569 L 633.762029,83.465276 C 633.762029,83.688444 633.710553,83.929087 633.607602,84.187205 C 633.504650,84.445311 633.353317,84.706115 633.153602,84.969619 L 631.524774,87.070825 L 633.780778,87.070825 L 633.780778,87.897607 L 630.223641,87.897373 L 630.223641,87.139153 L 632.236251,84.606401 C 632.395389,84.396683 632.517082,84.195029 632.601330,84.001440 C 632.685564,83.805172 632.727680,83.627719 632.727680,83.469081 L 632.727680,83.453472 C 632.727680,83.243754 632.665260,83.083776 632.540420,82.973538 C 632.415579,82.863366 632.234598,82.808279 631.997477,82.808279 C 631.760341,82.808279 631.571563,82.876841 631.431144,83.013965 C 631.290755,83.148410 631.211186,83.344684 631.192438,83.602790 L 631.192438,83.631081 L 630.158043,83.631081 L 630.158043,83.602790 C 630.201670,83.078501 630.381088,82.676541 630.696299,82.396908 C 631.011449,82.114596 631.437378,81.973440 631.974087,81.973440 "/>
        <path style="fill:none;stroke-width:0.280000;stroke-linecap:round;stroke-linejoin:round;stroke-opacity:1;stroke:#339966;" d="M 408.633371,128.221999 C 408.633371,129.311216 409.528802,130.194202 410.633371,130.194202 L 463.633371,130.194202 C 464.737941,130.194202 465.633371,129.311216 465.633371,128.221999 L 465.633371,98.533962 C 465.633371,97.444745 464.737941,96.561760 463.633371,96.561760 L 410.633371,96.561760 C 409.528802,96.561760 408.633371,97.444745 408.633371,98.533962 L 408.633371,128.221999 "/>
        <path style="fill:none;stroke-width:0.280000;stroke-linecap:round;stroke-linejoin:round;stroke-opacity:1;stroke:#339966;" d="M 407.941520,128.460535 C 407.941520,129.832226 409.061013,130.944202 410.441978,130.944202 L 463.951779,130.944202 C 465.332744,130.944202 466.452238,129.832226 466.452238,128.460535 L 466.452238,98.408169 C 466.452238,97.036478 465.332744,95.924503 463.951779,95.924503 L 410.441978,95.924503 C 409.061013,95.924503 407.941520,97.036478 407.941520,98.408169 L 407.941520,128.460535 "/>
        <path style="fill:none;stroke-width:0.280000;stroke-linecap:round;stroke-linejoin:round;stroke-opacity:1;stroke:#339966;" d="M 595.383371,128.221999 C 595.383371,129.311216 596.278802,130.194202 597.383371,130.194202 L 650.383371,130.194202 C 651.487941,130.194202 652.383371,129.311216 652.383371,128.221999 L 652.383371,98.533962 C 652.383371,97.444745 651.487941,96.561760 650.383371,96.561760 L 597.383371,96.561760 C 596.278802,96.561760 595.383371,97.444745 595.383371,98.533962 L 595.383371,128.221999 "/>
        <path style="fill:none;stroke-width:0.280000;stroke-linecap:round;stroke-linejoin:round;stroke-opacity:1;stroke:#339966;" d="M 594.691520,128.460535 C 594.691520,129.832226 595.811013,130.944202 597.191978,130.944202 L 650.701779,130.944202 C 652.082744,130.944202 653.202238,129.832226 653.202238,128.460535 L 653.202238,98.408169 C 653.202238,97.036478 652.082744,95.924503 650.701779,95.924503 L 597.191978,95.924503 C 595.811013,95.924503 594.691520,97.036478 594.691520,98.408169 L 594.691520,128.460535 "/>
        <path style="fill:none;stroke-width:0.280000;stroke-linecap:round;stroke-linejoin:round;stroke-opacity:1;stroke:#339966;" d="M 503.133371,111.221999 C 503.133371,112.311216 504.028802,113.194202 505.133371,113.194202 L 558.133371,113.194202 C 559.237941,113.194202 560.133371,112.311216 560.133371,111.221999 L 560.133371,81.533962 C 560.133371,80.444745 559.237941,79.561760 558.133371,79.561760 L 505.133371,79.561760 C 504.028802,79.561760 503.133371,80.444745 503.133371,81.533962 L 503.133371,111.221999 "/>
        <path style="fill:none;stroke-width:0.280000;stroke-linecap:round;stroke-linejoin:round;stroke-opacity:1;stroke:#339966;" d="M 502.441520,111.460535 C 502.441520,112.832226 503.561013,113.944202 504.941978,113.944202 L 558.451779,113.944202 C 559.832744,113.944202 560.952238,112.832226 560.952238,111.460535 L 560.952238,81.408169 C 560.952238,80.036478 559.832744,78.924503 558.451779,78.924503 L 504.941978,78.924503 C 503.561013,78.924503 502.441520,80.036478 502.441520,81.408169 L 502.441520,111.460535 "/>
    </g>
    <g inkscape:groupmode="layer" id="abb0eef1-77ef-465b-b55c-ee9ff62fe786" inkscape:label="_BackPanel" style="stroke:#0000ff;">
        <path style="fill:none;stroke-width:0.280000;stroke-linecap:round;stroke-linejoin:round;stroke-opacity:1;stroke:#0000ff;" d="M 687.588825,83.511926 C 686.214647,83.511926 685.100655,82.397934 685.100655,81.023756 C 685.100655,79.649578 686.214647,78.535586 687.588825,78.535586 C 688.963003,78.535586 690.076995,79.649578 690.076995,81.023756 C 690.076995,82.397934 688.963003,83.511926 687.588825,83.511926 "/>
        <path style="fill:none;stroke-width:0.280000;stroke-linecap:round;stroke-linejoin:round;stroke-opacity:1;stroke:#0000ff;" d="M 687.588825,131.137027 C 686.214647,131.137027 685.100655,130.023036 685.100655,128.648857 C 685.100655,127.274679 686.214647,126.160687 687.588825,126.160687 C 688.963003,126.160687 690.076995,127.274679 690.076995,128.648857 C 690.076995,130.023036 688.963003,131.137027 687.588825,131.137027 "/>
        <path style="fill:none;stroke-width:0.280000;stroke-linecap:round;stroke-linejoin:round;stroke-opacity:1;stroke:#0000ff;" d="M 373.517281,131.137027 C 372.143103,131.137027 371.029111,130.023036 371.029111,128.648857 C 371.029111,127.274679 372.143103,126.160687 373.517281,126.160687 C 374.891459,126.160687 376.005451,127.274679 376.005451,128.648857 C 376.005451,130.023036 374.891459,131.137027 373.517281,131.137027 "/>
        <path style="fill:none;stroke-width:0.280000;stroke-linecap:round;stroke-linejoin:round;stroke-opacity:1;stroke:#0000ff;" d="M 373.517281,83.511926 C 372.143103,83.511926 371.029111,82.397934 371.029111,81.023756 C 371.029111,79.649578 372.143103,78.535586 373.517281,78.535586 C 374.891459,78.535586 376.005451,79.649578 376.005451,81.023756 C 376.005451,82.397934 374.891459,83.511926 373.517281,83.511926 "/>
        <path style="fill:none;stroke-width:0.280000;stroke-linecap:round;stroke-linejoin:round;stroke-opacity:1;stroke:#0000ff;" d="M 691.696879,67.503176 L 691.696879,72.171505 L 691.696879,81.508163 L 691.696879,90.844821 L 691.696879,132.859783 L 691.696879,142.196441 L 369.359407,142.196441 L 369.359407,132.859783 L 369.359407,90.844821 L 369.359407,81.508163 L 369.359407,72.171505 L 369.359407,67.503176 L 691.696879,67.503176 "/>
        <path style="fill:none;stroke-width:0.280000;stroke-linecap:round;stroke-linejoin:round;stroke-opacity:1;stroke:#0000ff;" d="M 379.651414,83.359354 L 400.746976,83.359354 C 401.316056,83.359354 401.774195,83.817613 401.774195,84.386853 L 401.774195,105.481851 C 401.774195,106.051091 401.316056,106.509350 400.746976,106.509350 L 379.651414,106.509350 C 379.082335,106.509350 378.624195,106.051091 378.624195,105.481851 L 378.624195,84.386853 C 378.624195,83.817613 379.082335,83.359354 379.651414,83.359354 "/>
        <path style="fill:none;stroke-width:0.280000;stroke-linecap:round;stroke-linejoin:round;stroke-opacity:1;stroke:#0000ff;" d="M 471.633781,83.359354 L 492.729344,83.359354 C 493.298423,83.359354 493.756563,83.817613 493.756563,84.386853 L 493.756563,105.481851 C 493.756563,106.051091 493.298423,106.509350 492.729344,106.509350 L 471.633781,106.509350 C 471.064702,106.509350 470.606563,106.051091 470.606563,105.481851 L 470.606563,84.386853 C 470.606563,83.817613 471.064702,83.359354 471.633781,83.359354 "/>
        <path style="fill:none;stroke-width:0.280000;stroke-linecap:round;stroke-linejoin:round;stroke-opacity:1;stroke:#0000ff;" d="M 569.149097,83.359354 L 590.244660,83.359354 C 590.813739,83.359354 591.271879,83.817613 591.271879,84.386853 L 591.271879,105.481851 C 591.271879,106.051091 590.813739,106.509350 590.244660,106.509350 L 569.149097,106.509350 C 568.580018,106.509350 568.121879,106.051091 568.121879,105.481851 L 568.121879,84.386853 C 568.121879,83.817613 568.580018,83.359354 569.149097,83.359354 "/>
        <path style="fill:none;stroke-width:0.280000;stroke-linecap:round;stroke-linejoin:round;stroke-opacity:1;stroke:#0000ff;" d="M 660.011629,83.359354 L 681.107192,83.359354 C 681.676271,83.359354 682.134410,83.817613 682.134410,84.386853 L 682.134410,105.481851 C 682.134410,106.051091 681.676271,106.509350 681.107192,106.509350 L 660.011629,106.509350 C 659.442550,106.509350 658.984410,106.051091 658.984410,105.481851 L 658.984410,84.386853 C 658.984410,83.817613 659.442550,83.359354 660.011629,83.359354 "/>
        <path style="fill:none;stroke-width:0.280000;stroke-linecap:round;stroke-linejoin:round;stroke-opacity:1;stroke:#0000ff;" d="M 499.899097,118.204131 L 520.994660,118.204131 C 521.563739,118.204131 522.021879,118.662391 522.021879,119.231630 L 522.021879,140.326629 C 522.021879,140.895868 521.563739,141.354128 520.994660,141.354128 L 499.899097,141.354128 C 499.330018,141.354128 498.871879,140.895868 498.871879,140.326629 L 498.871879,119.231630 C 498.871879,118.662391 499.330018,118.204131 499.899097,118.204131 "/>
        <path style="fill:none;stroke-width:0.280000;stroke-linecap:round;stroke-linejoin:round;stroke-opacity:1;stroke:#0000ff;" d="M 560.156996,129.289447 C 560.156996,126.879507 558.202866,124.926867 555.794016,124.926867 C 553.384886,124.926867 551.431856,126.879507 551.431856,129.288717 C 551.431856,131.697557 553.384886,133.650547 555.794016,133.650547 C 558.202866,133.650547 560.155896,131.697557 560.155896,129.288717 L 560.156996,129.289447 "/>
        <path style="fill:none;stroke-width:0.280000;stroke-linecap:round;stroke-linejoin:round;stroke-opacity:1;stroke:#0000ff;" d="M 393.757046,120.737333 C 393.757046,118.327393 391.802916,116.374753 389.394066,116.374753 C 386.984936,116.374753 385.031906,118.327393 385.031906,120.736603 C 385.031906,123.145443 386.984936,125.098433 389.394066,125.098433 C 391.802916,125.098433 393.755946,123.145443 393.755946,120.736603 L 393.757046,120.737333 "/>
        <path style="fill:none;stroke-width:0.280000;stroke-linecap:round;stroke-linejoin:round;stroke-opacity:1;stroke:#0000ff;" d="M 675.811149,120.743845 C 675.811149,118.333905 673.857019,116.381265 671.448169,116.381265 C 669.039039,116.381265 667.086009,118.333905 667.086009,120.743115 C 667.086009,123.151955 669.039039,125.104946 671.448169,125.104946 C 673.857019,125.104946 675.810049,123.151955 675.810049,120.743115 L 675.811149,120.743845 "/>
        <path style="fill:none;stroke-width:0.280000;stroke-linecap:round;stroke-linejoin:round;stroke-opacity:1;stroke:#0000ff;" d="M 412.196879,123.090254 C 412.196879,123.182708 412.279036,123.257658 412.380382,123.257658 L 461.513375,123.257658 C 461.614721,123.257658 461.696879,123.182708 461.696879,123.090254 L 461.696879,100.298149 C 461.696879,100.205695 461.614721,100.130745 461.513375,100.130745 L 412.380382,100.130745 C 412.279036,100.130745 412.196879,100.205695 412.196879,100.298149 L 412.196879,123.090254 "/>
        <path style="fill:none;stroke-width:0.280000;stroke-linecap:round;stroke-linejoin:round;stroke-opacity:1;stroke:#0000ff;" d="M 598.946879,123.090254 C 598.946879,123.182708 599.029036,123.257658 599.130382,123.257658 L 648.263375,123.257658 C 648.364721,123.257658 648.446879,123.182708 648.446879,123.090254 L 648.446879,100.298149 C 648.446879,100.205695 648.364721,100.130745 648.263375,100.130745 L 599.130382,100.130745 C 599.029036,100.130745 598.946879,100.205695 598.946879,100.298149 L 598.946879,123.090254 "/>
        <path style="fill:none;stroke-width:0.280000;stroke-linecap:round;stroke-linejoin:round;stroke-opacity:1;stroke:#0000ff;" d="M 506.696879,106.090254 C 506.696879,106.182708 506.779036,106.257658 506.880382,106.257658 L 556.013375,106.257658 C 556.114721,106.257658 556.196879,106.182708 556.196879,106.090254 L 556.196879,83.298149 C 556.196879,83.205695 556.114721,83.130745 556.013375,83.130745 L 506.880382,83.130745 C 506.779036,83.130745 506.696879,83.205695 506.696879,83.298149 L 506.696879,106.090254 "/>
    </g>
    <g inkscape:groupmode="layer" id="351031d5-fbd6-459c-85b6-2a8c7c3aa8e6" inkscape:label="Layer 1" style="stroke:#000000;"/>
    <g inkscape:groupmode="layer" id="be255d8d-e31f-4306-9488-3358e355402e" inkscape:label="Import - a320_legends2.pdf" style="stroke:#000000;"/>
</svg>
