<?xml version="1.0" encoding="UTF-8"?>
<!-- Created by Vectric (http://www.vectric.com/) -->
<svg width="205.00000000mm" height="185.00000000mm" viewBox="0.00000000 0.00000000 205.00000000 185.00000000" id="svg2" version="1.1" xmlns="http://www.w3.org/2000/svg" xmlns:xlink="http://www.w3.org/1999/xlink" xmlns:inkscape="http://www.inkscape.org/namespaces/inkscape">
    <g inkscape:groupmode="layer" id="85667243-1302-4a85-b3ac-c7bf39b332ec" inkscape:label="Toolpath Previews" style="stroke:#000000;"/>
    <g inkscape:groupmode="layer" id="abb0eef1-77ef-465b-b55c-ee9ff62fe786" inkscape:label="_BackPanel" style="stroke:#0000ff;">
        <path style="fill:none;stroke-width:0.280000;stroke-linecap:round;stroke-linejoin:round;stroke-opacity:1;stroke:#0000ff;" d="M 23.500020,36.250014 L 23.500020,41.000013 L 23.500020,50.500012 L 23.500020,60.000011 L 23.500020,79.000009 L 23.500020,159.750001 L 23.500020,169.250000 L 168.500000,169.250000 L 168.500000,159.750001 L 168.500000,79.000009 L 168.500000,60.000011 L 168.500000,50.500012 L 168.500000,41.000013 L 168.500000,36.250014 L 23.500020,36.250014 "/>
        <path style="fill:none;stroke-width:0.280000;stroke-linecap:round;stroke-linejoin:round;stroke-opacity:1;stroke:#0000ff;" d="M 25.511830,49.959610 C 25.511830,48.585432 26.625822,47.471441 28.000000,47.471441 C 29.374178,47.471441 30.488170,48.585432 30.488170,49.959610 C 30.488170,51.333789 29.374178,52.447780 28.000000,52.447780 C 26.625822,52.447780 25.511830,51.333789 25.511830,49.959610 "/>
        <path style="fill:none;stroke-width:0.280000;stroke-linecap:round;stroke-linejoin:round;stroke-opacity:1;stroke:#0000ff;" d="M 25.511830,155.750000 C 25.511830,154.375822 26.625822,153.261830 28.000000,153.261830 C 29.374178,153.261830 30.488170,154.375822 30.488170,155.750000 C 30.488170,157.124178 29.374178,158.238170 28.000000,158.238170 C 26.625822,158.238170 25.511830,157.124178 25.511830,155.750000 "/>
        <path style="fill:none;stroke-width:0.280000;stroke-linecap:round;stroke-linejoin:round;stroke-opacity:1;stroke:#0000ff;" d="M 162.155069,155.726111 C 162.155069,154.351933 163.269061,153.237941 164.643240,153.237941 C 166.017418,153.237941 167.131410,154.351933 167.131410,155.726111 C 167.131410,157.100289 166.017418,158.214281 164.643240,158.214281 C 163.269061,158.214281 162.155069,157.100289 162.155069,155.726111 "/>
        <path style="fill:none;stroke-width:0.280000;stroke-linecap:round;stroke-linejoin:round;stroke-opacity:1;stroke:#0000ff;" d="M 162.155069,49.949155 C 162.155069,48.574977 163.269061,47.460985 164.643240,47.460985 C 166.017418,47.460985 167.131410,48.574977 167.131410,49.949155 C 167.131410,51.323333 166.017418,52.437325 164.643240,52.437325 C 163.269061,52.437325 162.155069,51.323333 162.155069,49.949155 "/>
        <path style="fill:none;stroke-width:0.280000;stroke-linecap:round;stroke-linejoin:round;stroke-opacity:1;stroke:#0000ff;" d="M 55.404947,115.972444 C 55.404947,118.477422 53.374264,120.508104 50.869287,120.508104 C 48.364319,120.508104 46.333636,118.477422 46.333636,115.972444 C 46.333636,113.467477 48.364319,111.436795 50.869287,111.436795 C 53.374264,111.436795 55.404947,113.467477 55.404947,115.972444 "/>
        <path style="fill:none;stroke-width:0.280000;stroke-linecap:round;stroke-linejoin:round;stroke-opacity:1;stroke:#0000ff;" d="M 40.475200,69.329076 L 61.570763,69.329076 C 62.139842,69.329076 62.597981,69.787336 62.597981,70.356575 L 62.597981,91.451574 C 62.597981,92.020813 62.139842,92.479073 61.570763,92.479073 L 40.475200,92.479073 C 39.906121,92.479073 39.447981,92.020813 39.447981,91.451574 L 39.447981,70.356575 C 39.447981,69.787336 39.906121,69.329076 40.475200,69.329076 "/>
        <path style="fill:none;stroke-width:0.280000;stroke-linecap:round;stroke-linejoin:round;stroke-opacity:1;stroke:#0000ff;" d="M 85.624440,69.329007 L 106.720002,69.329007 C 107.289082,69.329007 107.747221,69.787267 107.747221,70.356506 L 107.747221,91.451505 C 107.747221,92.020744 107.289082,92.479004 106.720002,92.479004 L 85.624440,92.479004 C 85.055361,92.479004 84.597221,92.020744 84.597221,91.451505 L 84.597221,70.356506 C 84.597221,69.787267 85.055361,69.329007 85.624440,69.329007 "/>
        <path style="fill:none;stroke-width:0.280000;stroke-linecap:round;stroke-linejoin:round;stroke-opacity:1;stroke:#0000ff;" d="M 81.940164,61.519451 L 110.625025,61.519451 L 110.625025,45.444451 L 81.940164,45.444451 L 81.940164,61.519451 "/>
        <path style="fill:none;stroke-width:0.280000;stroke-linecap:round;stroke-linejoin:round;stroke-opacity:1;stroke:#0000ff;" d="M 130.902221,69.329007 L 151.997784,69.329007 C 152.566863,69.329007 153.025002,69.787266 153.025002,70.356506 L 153.025002,91.451504 C 153.025002,92.020744 152.566863,92.479003 151.997784,92.479003 L 130.902221,92.479003 C 130.333142,92.479003 129.875002,92.020744 129.875002,91.451504 L 129.875002,70.356506 C 129.875002,69.787266 130.333142,69.329007 130.902221,69.329007 "/>
        <path style="fill:none;stroke-width:0.280000;stroke-linecap:round;stroke-linejoin:round;stroke-opacity:1;stroke:#0000ff;" d="M 40.488708,139.175036 L 61.584271,139.175036 C 62.153350,139.175036 62.611489,139.633296 62.611489,140.202535 L 62.611489,161.297534 C 62.611489,161.866773 62.153350,162.325033 61.584271,162.325033 L 40.488708,162.325033 C 39.919629,162.325033 39.461489,161.866773 39.461489,161.297534 L 39.461489,140.202535 C 39.461489,139.633296 39.919629,139.175036 40.488708,139.175036 "/>
        <path style="fill:none;stroke-width:0.280000;stroke-linecap:round;stroke-linejoin:round;stroke-opacity:1;stroke:#0000ff;" d="M 85.637948,139.174968 L 106.733511,139.174968 C 107.302590,139.174968 107.760729,139.633227 107.760729,140.202467 L 107.760729,161.297465 C 107.760729,161.866705 107.302590,162.324964 106.733511,162.324964 L 85.637948,162.324964 C 85.068869,162.324964 84.610729,161.866705 84.610729,161.297465 L 84.610729,140.202467 C 84.610729,139.633227 85.068869,139.174968 85.637948,139.174968 "/>
        <path style="fill:none;stroke-width:0.280000;stroke-linecap:round;stroke-linejoin:round;stroke-opacity:1;stroke:#0000ff;" d="M 130.915729,139.174967 L 152.011292,139.174967 C 152.580371,139.174967 153.038511,139.633227 153.038511,140.202466 L 153.038511,161.297465 C 153.038511,161.866704 152.580371,162.324964 152.011292,162.324964 L 130.915729,162.324964 C 130.346650,162.324964 129.888511,161.866704 129.888511,161.297465 L 129.888511,140.202466 C 129.888511,139.633227 130.346650,139.174967 130.915729,139.174967 "/>
        <path style="fill:none;stroke-width:0.280000;stroke-linecap:round;stroke-linejoin:round;stroke-opacity:1;stroke:#0000ff;" d="M 100.769323,115.972444 C 100.769323,118.477422 98.738641,120.508104 96.233663,120.508104 C 93.728695,120.508104 91.698013,118.477422 91.698013,115.972444 C 91.698013,113.467477 93.728695,111.436795 96.233663,111.436795 C 98.738641,111.436795 100.769323,113.467477 100.769323,115.972444 "/>
        <path style="fill:none;stroke-width:0.280000;stroke-linecap:round;stroke-linejoin:round;stroke-opacity:1;stroke:#0000ff;" d="M 146.019323,115.972444 C 146.019323,118.477422 143.988641,120.508104 141.483663,120.508104 C 138.978695,120.508104 136.948013,118.477422 136.948013,115.972444 C 136.948013,113.467477 138.978695,111.436795 141.483663,111.436795 C 143.988641,111.436795 146.019323,113.467477 146.019323,115.972444 "/>
    </g>
</svg>
