<?xml version="1.0" encoding="UTF-8"?>
<!-- Created by Vectric (http://www.vectric.com/) -->
<svg width="205.00000000mm" height="185.00000000mm" viewBox="0.00000000 0.00000000 205.00000000 185.00000000" id="svg2" version="1.1" xmlns="http://www.w3.org/2000/svg" xmlns:xlink="http://www.w3.org/1999/xlink" xmlns:inkscape="http://www.inkscape.org/namespaces/inkscape">
    <g inkscape:groupmode="layer" id="85667243-1302-4a85-b3ac-c7bf39b332ec" inkscape:label="Toolpath Previews" style="stroke:#000000;"/>
    <g inkscape:groupmode="layer" id="f131e4f8-88bf-4ff8-82ae-e609d563f43b" inkscape:label="_Engraving" style="stroke:#339966;"/>
    <g inkscape:groupmode="layer" id="abb0eef1-77ef-465b-b55c-ee9ff62fe786" inkscape:label="_BackPanel" style="stroke:#0000ff;">
        <path style="fill:none;stroke-width:0.280000;stroke-linecap:round;stroke-linejoin:round;stroke-opacity:1;stroke:#0000ff;" d="M -155.162594,62.524677 L -122.087598,62.524677 C -121.763129,62.524677 -121.500096,63.092332 -121.500096,63.792570 L -121.500096,81.456784 C -121.500096,82.157022 -121.763129,82.724677 -122.087598,82.724677 L -155.162594,82.724677 C -155.487062,82.724677 -155.750096,82.157022 -155.750096,81.456784 L -155.750096,63.792570 C -155.750096,63.092332 -155.487062,62.524677 -155.162594,62.524677 "/>
    </g>
    <g inkscape:groupmode="layer" id="a2f76286-dc96-484e-ab40-6a818f23b20f" inkscape:label="_TopLayer" style="stroke:#ff0000;">
        <path style="fill:none;stroke-width:0.280000;stroke-linecap:round;stroke-linejoin:round;stroke-opacity:1;stroke:#ff0000;" d="M -246.900930,65.625148 L -217.833561,65.625148 C -217.548407,65.625148 -217.317245,66.021383 -217.317245,66.510163 L -217.317245,78.840134 C -217.317245,79.328914 -217.548407,79.725148 -217.833561,79.725148 L -246.900930,79.725148 C -247.186083,79.725148 -247.417245,79.328914 -247.417245,78.840134 L -247.417245,66.510163 C -247.417245,66.021383 -247.186083,65.625148 -246.900930,65.625148 "/>
        <path style="fill:none;stroke-width:0.280000;stroke-linecap:round;stroke-linejoin:round;stroke-opacity:1;stroke:#ff0000;" d="M -248.912498,62.550148 L -215.837502,62.550148 C -215.513034,62.550148 -215.250000,63.117803 -215.250000,63.818041 L -215.250000,81.482255 C -215.250000,82.182493 -215.513034,82.750148 -215.837502,82.750148 L -248.912498,82.750148 C -249.236966,82.750148 -249.500000,82.182493 -249.500000,81.482255 L -249.500000,63.818041 C -249.500000,63.117803 -249.236966,62.550148 -248.912498,62.550148 "/>
        <path style="fill:none;stroke-width:0.280000;stroke-linecap:round;stroke-linejoin:round;stroke-opacity:1;stroke:#ff0000;" d="M -153.151857,65.600928 L -124.084488,65.600928 C -123.799335,65.600928 -123.568173,65.997162 -123.568173,66.485942 L -123.568173,78.815913 C -123.568173,79.304693 -123.799335,79.700928 -124.084488,79.700928 L -153.151857,79.700928 C -153.437011,79.700928 -153.668173,79.304693 -153.668173,78.815913 L -153.668173,66.485942 C -153.668173,65.997162 -153.437011,65.600928 -153.151857,65.600928 "/>
        <path style="fill:none;stroke-width:0.280000;stroke-linecap:round;stroke-linejoin:round;stroke-opacity:1;stroke:#ff0000;" d="M -155.163426,62.525928 L -122.088430,62.525928 C -121.763961,62.525928 -121.500928,63.093583 -121.500928,63.793821 L -121.500928,81.458035 C -121.500928,82.158273 -121.763961,82.725928 -122.088430,82.725928 L -155.163426,82.725928 C -155.487894,82.725928 -155.750928,82.158273 -155.750928,81.458035 L -155.750928,63.793821 C -155.750928,63.093583 -155.487894,62.525928 -155.163426,62.525928 "/>
        <path style="fill:none;stroke-width:0.280000;stroke-linecap:round;stroke-linejoin:round;stroke-opacity:1;stroke:#ff0000;" d="M -248.912498,62.550148 L -215.837502,62.550148 C -215.513034,62.550148 -215.250000,63.117803 -215.250000,63.818041 L -215.250000,81.482255 C -215.250000,82.182493 -215.513034,82.750148 -215.837502,82.750148 L -248.912498,82.750148 C -249.236966,82.750148 -249.500000,82.182493 -249.500000,81.482255 L -249.500000,63.818041 C -249.500000,63.117803 -249.236966,62.550148 -248.912498,62.550148 "/>
    </g>
    <g inkscape:groupmode="layer" id="90f72a3c-747a-4977-96e4-91798eaf68de" inkscape:label="Graphics Engrave" style="stroke:#000000;"/>
    <g inkscape:groupmode="layer" id="f259419b-7c77-4580-b2cf-707301e8034e" inkscape:label="_Labels" style="stroke:#ff6600;"/>
</svg>
