<?xml version="1.0" encoding="UTF-8"?>
<!-- Created by Vectric (http://www.vectric.com/) -->
<svg width="1800.00000000mm" height="700.00000000mm" viewBox="0.00000000 0.00000000 1800.00000000 700.00000000" id="svg2" version="1.1" xmlns="http://www.w3.org/2000/svg" xmlns:xlink="http://www.w3.org/1999/xlink" xmlns:inkscape="http://www.inkscape.org/namespaces/inkscape">
    <g inkscape:groupmode="layer" id="85667243-1302-4a85-b3ac-c7bf39b332ec" inkscape:label="Toolpath Previews" style="stroke:#000000;"/>
    <g inkscape:groupmode="layer" id="f214414e-ab3c-47f2-be51-63dc126dd18d" inkscape:label="Images" style="stroke:#000000;"/>
    <g inkscape:groupmode="layer" id="f131e4f8-88bf-4ff8-82ae-e609d563f43b" inkscape:label="_Engraving" style="stroke:#339966;">
        <path style="fill:none;stroke-width:0.280000;stroke-linecap:round;stroke-linejoin:round;stroke-opacity:1;stroke:#339966;" d="M 469.745502,179.108573 C 469.815543,179.234647 469.795844,179.340638 469.686405,179.426547 C 469.633874,179.464480 469.573409,179.477311 469.505010,179.465038 C 469.436611,179.452766 469.386542,179.418179 469.354805,179.361278 L 468.545504,178.057586 L 468.135108,178.057586 L 468.135108,179.235762 C 468.135108,179.332828 468.091880,179.402838 468.005423,179.445792 C 467.918966,179.488747 467.837982,179.480658 467.762469,179.421526 C 467.702277,179.375782 467.672182,179.313861 467.672182,179.235762 L 467.672182,176.278606 C 467.672182,176.213896 467.694343,176.158669 467.738666,176.112925 C 467.782989,176.067182 467.837434,176.044310 467.902003,176.044310 L 468.921427,176.044310 C 469.166570,176.044310 469.379429,176.123803 469.560003,176.282790 C 469.740577,176.441777 469.852752,176.643439 469.896528,176.887777 C 469.942492,177.149966 469.888046,177.395141 469.733190,177.623301 C 469.578334,177.851461 469.372862,177.990086 469.116775,178.039177 L 469.085585,178.044198 L 469.745502,179.108573 "/>
        <path style="fill:none;stroke-width:0.280000;stroke-linecap:round;stroke-linejoin:round;stroke-opacity:1;stroke:#339966;" d="M 468.921427,177.587319 C 469.033055,177.587319 469.136201,177.552733 469.230865,177.483560 C 469.325530,177.414386 469.389278,177.324015 469.422110,177.212445 C 469.473546,177.040628 469.450017,176.885267 469.351522,176.746362 C 469.253027,176.607458 469.117323,176.530754 468.944409,176.516250 L 468.135108,176.516250 L 468.135108,177.587319 L 468.921427,177.587319 "/>
        <path style="fill:none;stroke-width:0.280000;stroke-linecap:round;stroke-linejoin:round;stroke-opacity:1;stroke:#339966;" d="M 471.992009,178.372213 L 471.492968,176.966434 L 470.990643,178.372213 L 471.992009,178.372213 "/>
        <path style="fill:none;stroke-width:0.280000;stroke-linecap:round;stroke-linejoin:round;stroke-opacity:1;stroke:#339966;" d="M 471.492968,176.966434 L 471.992009,178.372213 L 471.492968,176.966434 "/>
        <path style="fill:none;stroke-width:0.280000;stroke-linecap:round;stroke-linejoin:round;stroke-opacity:1;stroke:#339966;" d="M 470.225665,179.148738 C 470.400767,178.656715 470.576143,178.164972 470.751793,177.673507 C 470.927442,177.182042 471.103365,176.690299 471.279562,176.198276 C 471.315677,176.096748 471.387359,176.045425 471.494609,176.044310 C 471.601860,176.043194 471.674089,176.094516 471.711299,176.198276 L 472.763554,179.157106 C 472.796385,179.314419 472.749327,179.415948 472.622377,179.461691 C 472.495428,179.507435 472.397481,179.460575 472.328534,179.321113 L 472.159451,178.842479 L 470.821560,178.842479 L 470.657402,179.309398 C 470.587361,179.449976 470.487771,179.495999 470.358633,179.447466 C 470.229496,179.398933 470.185173,179.299357 470.225665,179.148738 "/>
        <path style="fill:none;stroke-width:0.280000;stroke-linecap:round;stroke-linejoin:round;stroke-opacity:1;stroke:#339966;" d="M 473.775590,179.237436 L 473.775590,176.516250 L 473.173129,176.516250 C 473.019914,176.503977 472.943581,176.425599 472.944128,176.281117 C 472.944675,176.136634 473.021009,176.057698 473.173129,176.044310 L 474.839336,176.044310 C 474.990362,176.056582 475.066149,176.135518 475.066696,176.281117 C 475.067243,176.426715 474.991456,176.505093 474.839336,176.516250 L 474.238517,176.516250 L 474.238517,179.237436 C 474.213346,179.395865 474.132635,179.473964 473.996383,179.471732 C 473.860132,179.469501 473.786534,179.391402 473.775590,179.237436 "/>
        <path style="fill:none;stroke-width:0.280000;stroke-linecap:round;stroke-linejoin:round;stroke-opacity:1;stroke:#339966;" d="M 480.021488,179.237436 C 479.997411,179.393634 479.919983,179.471454 479.789204,179.470896 C 479.658424,179.470338 479.581544,179.392518 479.558561,179.237436 L 479.558561,177.147177 L 478.995498,178.129548 C 478.935307,178.203184 478.868275,178.241676 478.794404,178.245023 C 478.720533,178.248370 478.654596,178.209879 478.596593,178.129548 L 478.036813,177.152197 L 478.038455,179.237436 C 478.020945,179.392518 477.941875,179.469780 477.801246,179.469222 C 477.660617,179.468664 477.584830,179.391402 477.573887,179.237436 L 477.573887,176.281953 C 477.582642,176.153648 477.637908,176.076944 477.739687,176.051841 C 477.841465,176.026738 477.930110,176.062161 478.005623,176.158111 L 478.795225,177.542134 L 479.593035,176.158111 C 479.668547,176.062161 479.756372,176.027016 479.856509,176.052678 C 479.956645,176.078339 480.011638,176.154764 480.021488,176.281953 L 480.021488,179.237436 "/>
        <path style="fill:none;stroke-width:0.280000;stroke-linecap:round;stroke-linejoin:round;stroke-opacity:1;stroke:#339966;" d="M 482.193303,178.372213 L 481.694262,176.966434 L 481.191937,178.372213 L 482.193303,178.372213 "/>
        <path style="fill:none;stroke-width:0.280000;stroke-linecap:round;stroke-linejoin:round;stroke-opacity:1;stroke:#339966;" d="M 481.694262,176.966434 L 482.193303,178.372213 L 481.694262,176.966434 "/>
        <path style="fill:none;stroke-width:0.280000;stroke-linecap:round;stroke-linejoin:round;stroke-opacity:1;stroke:#339966;" d="M 480.426959,179.148738 C 480.602061,178.656715 480.777437,178.164972 480.953087,177.673507 C 481.128736,177.182042 481.304659,176.690299 481.480856,176.198276 C 481.516971,176.096748 481.588653,176.045425 481.695903,176.044310 C 481.803154,176.043194 481.875383,176.094516 481.912592,176.198276 L 482.964848,179.157106 C 482.997679,179.314419 482.950621,179.415948 482.823671,179.461691 C 482.696722,179.507435 482.598774,179.460575 482.529828,179.321113 L 482.360745,178.842479 L 481.022854,178.842479 L 480.858696,179.309398 C 480.788655,179.449976 480.689065,179.495999 480.559927,179.447466 C 480.430790,179.398933 480.386467,179.299357 480.426959,179.148738 "/>
        <path style="fill:none;stroke-width:0.280000;stroke-linecap:round;stroke-linejoin:round;stroke-opacity:1;stroke:#339966;" d="M 485.555267,179.240783 C 485.555267,179.357931 485.499727,179.432404 485.388646,179.464201 C 485.277566,179.495999 485.191382,179.462807 485.130097,179.364625 L 483.751166,177.110359 L 483.751166,179.240783 C 483.727090,179.396981 483.649662,179.475080 483.518882,179.475080 C 483.388103,179.475080 483.311222,179.396981 483.288240,179.240783 L 483.288240,176.285300 C 483.304655,176.169268 483.362932,176.092843 483.463068,176.056025 C 483.563205,176.019207 483.646652,176.053793 483.713410,176.159784 L 485.092340,178.417398 L 485.092340,176.285300 C 485.113134,176.125756 485.192750,176.046820 485.331191,176.048494 C 485.469631,176.050167 485.544323,176.129103 485.555267,176.285300 L 485.555267,179.240783 "/>
        <path style="fill:none;stroke-width:0.280000;stroke-linecap:round;stroke-linejoin:round;stroke-opacity:1;stroke:#339966;" d="M 490.394984,177.030029 C 490.495668,177.339077 490.533698,177.659840 490.509074,177.992318 C 490.484450,178.324795 490.394984,178.628265 490.240675,178.902727 C 490.143275,179.073428 490.010306,179.218469 489.841770,179.337849 C 489.673234,179.457228 489.487188,179.499067 489.283632,179.463365 C 488.952032,179.404233 488.698134,179.227953 488.521937,178.934524 C 488.345740,178.641096 488.244783,178.314475 488.219065,177.954663 C 488.193347,177.594850 488.240953,177.244242 488.361883,176.902839 C 488.482813,176.561436 488.675699,176.313193 488.940541,176.158111 C 489.069679,176.082243 489.204836,176.044310 489.346012,176.044310 C 489.615232,176.044310 489.835204,176.147791 490.005929,176.354753 C 490.176653,176.561714 490.306339,176.786806 490.394984,177.030029 "/>
        <path style="fill:none;stroke-width:0.280000;stroke-linecap:round;stroke-linejoin:round;stroke-opacity:1;stroke:#339966;" d="M 489.359145,176.519597 C 489.157777,176.519597 489.005383,176.630051 488.901964,176.850959 C 488.798544,177.071867 488.733154,177.260420 488.705794,177.416618 C 488.685001,177.530419 488.677340,177.668207 488.682812,177.829984 C 488.688284,177.991760 488.711266,178.151583 488.751759,178.309455 C 488.792251,178.467326 488.852990,178.609577 488.933975,178.736209 C 489.014959,178.862841 489.121115,178.946797 489.252442,178.988078 C 489.405656,179.037168 489.537804,179.006208 489.648884,178.895196 C 489.759965,178.784184 489.843959,178.666199 489.900867,178.541241 C 489.958870,178.412936 489.998542,178.244465 490.019882,178.035830 C 490.041223,177.827194 490.036298,177.618838 490.005108,177.410760 C 489.973918,177.202683 489.912906,177.015246 489.822071,176.848449 C 489.731237,176.681652 489.602099,176.575382 489.434658,176.529638 C 489.412770,176.522944 489.387599,176.519597 489.359145,176.519597 "/>
        <path style="fill:none;stroke-width:0.280000;stroke-linecap:round;stroke-linejoin:round;stroke-opacity:1;stroke:#339966;" d="M 493.216867,179.240783 C 493.216867,179.357931 493.161326,179.432404 493.050246,179.464201 C 492.939165,179.495999 492.852982,179.462807 492.791696,179.364625 L 491.412766,177.110359 L 491.412766,179.240783 C 491.388689,179.396981 491.311261,179.475080 491.180482,179.475080 C 491.049702,179.475080 490.972822,179.396981 490.949839,179.240783 L 490.949839,176.285300 C 490.966255,176.169268 491.024531,176.092843 491.124668,176.056025 C 491.224805,176.019207 491.308252,176.053793 491.375010,176.159784 L 492.753940,178.417398 L 492.753940,176.285300 C 492.774733,176.125756 492.854350,176.046820 492.992790,176.048494 C 493.131231,176.050167 493.205923,176.129103 493.216867,176.285300 L 493.216867,179.240783 "/>
        <path style="fill:none;stroke-width:0.280000;stroke-linecap:round;stroke-linejoin:round;stroke-opacity:1;stroke:#339966;" d="M 470.370309,184.260855 L 490.586269,184.260855 C 491.218954,184.260855 491.728289,184.826784 491.728289,185.529766 L 491.728289,207.991945 C 491.728289,208.694915 491.218954,209.260855 490.586269,209.260855 L 470.370309,209.260855 C 469.737625,209.260855 469.228289,208.694915 469.228289,207.991945 L 469.228289,185.529766 C 469.228289,184.826784 469.737625,184.260855 470.370309,184.260855 "/>
        <path style="fill:none;stroke-width:0.280000;stroke-linecap:round;stroke-linejoin:round;stroke-opacity:1;stroke:#339966;" d="M 469.962283,183.760855 L 491.037717,183.760855 C 491.697300,183.760855 492.228289,184.348929 492.228289,185.079421 L 492.228289,208.420579 C 492.228289,209.151058 491.697300,209.739145 491.037717,209.739145 L 469.962283,209.739145 C 469.302700,209.739145 468.771711,209.151058 468.771711,208.420579 L 468.771711,185.079421 C 468.771711,184.348929 469.302700,183.760855 469.962283,183.760855 "/>
    </g>
    <g inkscape:groupmode="layer" id="abb0eef1-77ef-465b-b55c-ee9ff62fe786" inkscape:label="_BackPanel" style="stroke:#0000ff;">
        <path style="fill:none;stroke-width:0.280000;stroke-linecap:round;stroke-linejoin:round;stroke-opacity:1;stroke:#0000ff;" d="M 469.952219,186.435857 L 491.047781,186.435857 C 491.616860,186.435857 492.075000,186.894117 492.075000,187.463356 L 492.075000,208.558355 C 492.075000,209.127594 491.616860,209.585854 491.047781,209.585854 L 469.952219,209.585854 C 469.383140,209.585854 468.925000,209.127594 468.925000,208.558355 L 468.925000,187.463356 C 468.925000,186.894117 469.383140,186.435857 469.952219,186.435857 "/>
    </g>
    <g inkscape:groupmode="layer" id="a2f76286-dc96-484e-ab40-6a818f23b20f" inkscape:label="_TopLayer" style="stroke:#ff0000;">
        <path style="fill:none;stroke-width:0.280000;stroke-linecap:round;stroke-linejoin:round;stroke-opacity:1;stroke:#ff0000;" d="M 471.482635,187.767338 L 489.632076,187.767338 C 490.200086,187.767338 490.657356,188.224608 490.657356,188.792618 L 490.657356,206.942057 C 490.657356,207.510057 490.200086,207.967337 489.632076,207.967337 L 471.482635,207.967337 C 470.914625,207.967337 470.457355,207.510057 470.457355,206.942057 L 470.457355,188.792618 C 470.457355,188.224608 470.914625,187.767338 471.482635,187.767338 "/>
    </g>
    <g inkscape:groupmode="layer" id="4a995c5a-5ff3-41c5-819c-567a58f23ad7" inkscape:label="_Labels" style="stroke:#ff6600;">
        <path style="fill:none;stroke-width:0.280000;stroke-linecap:round;stroke-linejoin:round;stroke-opacity:1;stroke:#ff6600;" d="M 488.499994,206.238059 L 488.499994,190.236059 L 472.500006,190.236059 L 472.500006,206.238059 L 488.499994,206.238059 "/>
    </g>
    <g inkscape:groupmode="layer" id="351031d5-fbd6-459c-85b6-2a8c7c3aa8e6" inkscape:label="Layer 1" style="stroke:#000000;"/>
    <g inkscape:groupmode="layer" id="be255d8d-e31f-4306-9488-3358e355402e" inkscape:label="Import - a320_legends2.pdf" style="stroke:#000000;"/>
</svg>
