%TF.GenerationSoftware,KiCad,Pcbnew,9.0.2*%
%TF.CreationDate,2025-07-18T21:00:17+02:00*%
%TF.ProjectId,a320-overhead-ventilation_eng_rain-rplnt-wipers,61333230-2d6f-4766-9572-686561642d76,rev?*%
%TF.SameCoordinates,Original*%
%TF.FileFunction,Copper,L1,Top*%
%TF.FilePolarity,Positive*%
%FSLAX46Y46*%
G04 Gerber Fmt 4.6, Leading zero omitted, Abs format (unit mm)*
G04 Created by KiCad (PCBNEW 9.0.2) date 2025-07-18 21:00:17*
%MOMM*%
%LPD*%
G01*
G04 APERTURE LIST*
G04 Aperture macros list*
%AMRoundRect*
0 Rectangle with rounded corners*
0 $1 Rounding radius*
0 $2 $3 $4 $5 $6 $7 $8 $9 X,Y pos of 4 corners*
0 Add a 4 corners polygon primitive as box body*
4,1,4,$2,$3,$4,$5,$6,$7,$8,$9,$2,$3,0*
0 Add four circle primitives for the rounded corners*
1,1,$1+$1,$2,$3*
1,1,$1+$1,$4,$5*
1,1,$1+$1,$6,$7*
1,1,$1+$1,$8,$9*
0 Add four rect primitives between the rounded corners*
20,1,$1+$1,$2,$3,$4,$5,0*
20,1,$1+$1,$4,$5,$6,$7,0*
20,1,$1+$1,$6,$7,$8,$9,0*
20,1,$1+$1,$8,$9,$2,$3,0*%
G04 Aperture macros list end*
%TA.AperFunction,ComponentPad*%
%ADD10R,3.000000X3.000000*%
%TD*%
%TA.AperFunction,ComponentPad*%
%ADD11C,3.000000*%
%TD*%
%TA.AperFunction,SMDPad,CuDef*%
%ADD12RoundRect,0.165000X0.885000X-0.385000X0.885000X0.385000X-0.885000X0.385000X-0.885000X-0.385000X0*%
%TD*%
%TA.AperFunction,SMDPad,CuDef*%
%ADD13RoundRect,0.315000X0.735000X-0.735000X0.735000X0.735000X-0.735000X0.735000X-0.735000X-0.735000X0*%
%TD*%
%TA.AperFunction,ComponentPad*%
%ADD14R,1.500000X1.500000*%
%TD*%
%TA.AperFunction,SMDPad,CuDef*%
%ADD15RoundRect,0.250000X-0.400000X-0.625000X0.400000X-0.625000X0.400000X0.625000X-0.400000X0.625000X0*%
%TD*%
%TA.AperFunction,SMDPad,CuDef*%
%ADD16RoundRect,0.165000X-0.385000X-0.885000X0.385000X-0.885000X0.385000X0.885000X-0.385000X0.885000X0*%
%TD*%
%TA.AperFunction,SMDPad,CuDef*%
%ADD17RoundRect,0.315000X-0.735000X-0.735000X0.735000X-0.735000X0.735000X0.735000X-0.735000X0.735000X0*%
%TD*%
%TA.AperFunction,ComponentPad*%
%ADD18R,1.700000X1.700000*%
%TD*%
%TA.AperFunction,ComponentPad*%
%ADD19C,1.700000*%
%TD*%
%TA.AperFunction,ViaPad*%
%ADD20C,0.600000*%
%TD*%
%TA.AperFunction,Conductor*%
%ADD21C,0.400000*%
%TD*%
%TA.AperFunction,Conductor*%
%ADD22C,0.600000*%
%TD*%
G04 APERTURE END LIST*
D10*
%TO.P,J5,1,Pin_1*%
%TO.N,GND*%
X31585000Y-21139050D03*
D11*
%TO.P,J5,2,Pin_2*%
%TO.N,+12V*%
X36665000Y-21139050D03*
%TD*%
D12*
%TO.P,D14,1,K*%
%TO.N,Net-(D14-K)*%
X58025000Y-42764050D03*
D13*
%TO.P,D14,2,A*%
%TO.N,Net-(D13-K)*%
X58025000Y-40614050D03*
%TD*%
D14*
%TO.P,KR2,1,+5V_TOP_LED*%
%TO.N,Net-(J2-Pin_10)*%
X79500000Y-36214050D03*
%TO.P,KR2,2,GND_TOP_LED*%
%TO.N,GND*%
X79500000Y-38754050D03*
%TO.P,KR2,3,+5V_BOTTOM_LED*%
%TO.N,Net-(J2-Pin_11)*%
X79500000Y-41294050D03*
%TO.P,KR2,4,GND_BOTTOM_LED*%
%TO.N,GND*%
X79500000Y-43834050D03*
%TO.P,KR2,5,SW_IN*%
%TO.N,Net-(J2-Pin_12)*%
X63800000Y-40714050D03*
%TO.P,KR2,6,SW_OUT*%
%TO.N,GND*%
X63800000Y-43254050D03*
%TD*%
D15*
%TO.P,R2,1*%
%TO.N,Net-(D6-K)*%
X104525000Y-33614050D03*
%TO.P,R2,2*%
%TO.N,GND*%
X107625000Y-33614050D03*
%TD*%
D16*
%TO.P,D45,1,K*%
%TO.N,Net-(D45-K)*%
X100500000Y-63539050D03*
D17*
%TO.P,D45,2,A*%
%TO.N,Net-(D44-K)*%
X102650000Y-63539050D03*
%TD*%
D16*
%TO.P,D10,1,K*%
%TO.N,Net-(D10-K)*%
X56950000Y-55814050D03*
D17*
%TO.P,D10,2,A*%
%TO.N,+12V*%
X59100000Y-55814050D03*
%TD*%
D14*
%TO.P,KR5,1,+5V_TOP_LED*%
%TO.N,Net-(J2-Pin_7)*%
X80450000Y-84039050D03*
%TO.P,KR5,2,GND_TOP_LED*%
%TO.N,GND*%
X80450000Y-86579050D03*
%TO.P,KR5,3,+5V_BOTTOM_LED*%
%TO.N,Net-(J2-Pin_8)*%
X80450000Y-89119050D03*
%TO.P,KR5,4,GND_BOTTOM_LED*%
%TO.N,GND*%
X80450000Y-91659050D03*
%TO.P,KR5,5,SW_IN*%
%TO.N,Net-(J2-Pin_9)*%
X64750000Y-88539050D03*
%TO.P,KR5,6,SW_OUT*%
%TO.N,GND*%
X64750000Y-91079050D03*
%TD*%
D15*
%TO.P,R8,1*%
%TO.N,Net-(D24-K)*%
X28750000Y-64389050D03*
%TO.P,R8,2*%
%TO.N,GND*%
X31850000Y-64389050D03*
%TD*%
D16*
%TO.P,D12,1,K*%
%TO.N,Net-(D12-K)*%
X86275000Y-53564050D03*
D17*
%TO.P,D12,2,A*%
%TO.N,Net-(D11-K)*%
X88425000Y-53564050D03*
%TD*%
D16*
%TO.P,D35,1,K*%
%TO.N,Net-(D35-K)*%
X64375000Y-119014050D03*
D17*
%TO.P,D35,2,A*%
%TO.N,Net-(D34-K)*%
X66525000Y-119014050D03*
%TD*%
D18*
%TO.P,J4,1,Pin_1*%
%TO.N,Net-(J2-Pin_17)*%
X54310000Y-136789050D03*
D19*
%TO.P,J4,2,Pin_2*%
%TO.N,Net-(J2-Pin_18)*%
X56850000Y-136789050D03*
%TO.P,J4,3,Pin_3*%
%TO.N,Net-(J2-Pin_19)*%
X59390000Y-136789050D03*
%TO.P,J4,4,Pin_4*%
%TO.N,GND*%
X61930000Y-136789050D03*
%TD*%
D16*
%TO.P,D40,1,K*%
%TO.N,Net-(D40-K)*%
X121750000Y-127339050D03*
D17*
%TO.P,D40,2,A*%
%TO.N,+12V*%
X123900000Y-127339050D03*
%TD*%
D16*
%TO.P,D37,1,K*%
%TO.N,Net-(D37-K)*%
X85400000Y-108214050D03*
D17*
%TO.P,D37,2,A*%
%TO.N,+12V*%
X87550000Y-108214050D03*
%TD*%
D16*
%TO.P,D28,1,K*%
%TO.N,Net-(D28-K)*%
X27525000Y-89714050D03*
D17*
%TO.P,D28,2,A*%
%TO.N,+12V*%
X29675000Y-89714050D03*
%TD*%
D16*
%TO.P,D9,1,K*%
%TO.N,Net-(D9-K)*%
X43525000Y-55939050D03*
D17*
%TO.P,D9,2,A*%
%TO.N,Net-(D8-K)*%
X45675000Y-55939050D03*
%TD*%
D16*
%TO.P,D24,1,K*%
%TO.N,Net-(D24-K)*%
X28700000Y-72964050D03*
D17*
%TO.P,D24,2,A*%
%TO.N,Net-(D23-K)*%
X30850000Y-72964050D03*
%TD*%
D16*
%TO.P,D2,1,K*%
%TO.N,Net-(D2-K)*%
X44060000Y-21164050D03*
D17*
%TO.P,D2,2,A*%
%TO.N,Net-(D1-K)*%
X46210000Y-21164050D03*
%TD*%
D15*
%TO.P,R11,1*%
%TO.N,Net-(D33-K)*%
X43225000Y-117939050D03*
%TO.P,R11,2*%
%TO.N,GND*%
X46325000Y-117939050D03*
%TD*%
D16*
%TO.P,D1,1,K*%
%TO.N,Net-(D1-K)*%
X29985000Y-27489050D03*
D17*
%TO.P,D1,2,A*%
%TO.N,+12V*%
X32135000Y-27489050D03*
%TD*%
D14*
%TO.P,KR3,1,+5V_TOP_LED*%
%TO.N,Net-(J2-Pin_4)*%
X147100000Y-35989050D03*
%TO.P,KR3,2,GND_TOP_LED*%
%TO.N,GND*%
X147100000Y-38529050D03*
%TO.P,KR3,3,+5V_BOTTOM_LED*%
%TO.N,Net-(J2-Pin_5)*%
X147100000Y-41069050D03*
%TO.P,KR3,4,GND_BOTTOM_LED*%
%TO.N,GND*%
X147100000Y-43609050D03*
%TO.P,KR3,5,SW_IN*%
%TO.N,Net-(J2-Pin_6)*%
X131400000Y-40489050D03*
%TO.P,KR3,6,SW_OUT*%
%TO.N,GND*%
X131400000Y-43029050D03*
%TD*%
D16*
%TO.P,D25,1,K*%
%TO.N,Net-(D25-K)*%
X57450000Y-73189050D03*
D17*
%TO.P,D25,2,A*%
%TO.N,+12V*%
X59600000Y-73189050D03*
%TD*%
D16*
%TO.P,D11,1,K*%
%TO.N,Net-(D11-K)*%
X72625000Y-55939050D03*
D17*
%TO.P,D11,2,A*%
%TO.N,Net-(D10-K)*%
X74775000Y-55939050D03*
%TD*%
D16*
%TO.P,D23,1,K*%
%TO.N,Net-(D23-K)*%
X103875000Y-55389050D03*
D17*
%TO.P,D23,2,A*%
%TO.N,Net-(D22-K)*%
X106025000Y-55389050D03*
%TD*%
D16*
%TO.P,D4,1,K*%
%TO.N,Net-(D4-K)*%
X69550000Y-20914050D03*
D17*
%TO.P,D4,2,A*%
%TO.N,+12V*%
X71700000Y-20914050D03*
%TD*%
D16*
%TO.P,D27,1,K*%
%TO.N,Net-(D27-K)*%
X86900000Y-100639050D03*
D17*
%TO.P,D27,2,A*%
%TO.N,Net-(D26-K)*%
X89050000Y-100639050D03*
%TD*%
D15*
%TO.P,R15,1*%
%TO.N,Net-(D45-K)*%
X93825000Y-47389050D03*
%TO.P,R15,2*%
%TO.N,GND*%
X96925000Y-47389050D03*
%TD*%
D16*
%TO.P,D18,1,K*%
%TO.N,Net-(D18-K)*%
X138350000Y-21639050D03*
D17*
%TO.P,D18,2,A*%
%TO.N,Net-(D17-K)*%
X140500000Y-21639050D03*
%TD*%
D16*
%TO.P,D17,1,K*%
%TO.N,Net-(D17-K)*%
X119125000Y-51939050D03*
D17*
%TO.P,D17,2,A*%
%TO.N,Net-(D16-K)*%
X121275000Y-51939050D03*
%TD*%
D16*
%TO.P,D29,1,K*%
%TO.N,Net-(D29-K)*%
X31360000Y-106814050D03*
D17*
%TO.P,D29,2,A*%
%TO.N,Net-(D28-K)*%
X33510000Y-106814050D03*
%TD*%
D16*
%TO.P,D5,1,K*%
%TO.N,Net-(D5-K)*%
X84375000Y-26239050D03*
D17*
%TO.P,D5,2,A*%
%TO.N,Net-(D4-K)*%
X86525000Y-26239050D03*
%TD*%
D16*
%TO.P,D6,1,K*%
%TO.N,Net-(D6-K)*%
X104575000Y-26364050D03*
D17*
%TO.P,D6,2,A*%
%TO.N,Net-(D5-K)*%
X106725000Y-26364050D03*
%TD*%
D16*
%TO.P,D32,1,K*%
%TO.N,Net-(D32-K)*%
X150025000Y-100614050D03*
D17*
%TO.P,D32,2,A*%
%TO.N,Net-(D31-K)*%
X152175000Y-100614050D03*
%TD*%
D16*
%TO.P,D7,1,K*%
%TO.N,Net-(D7-K)*%
X27025000Y-39539050D03*
D17*
%TO.P,D7,2,A*%
%TO.N,+12V*%
X29175000Y-39539050D03*
%TD*%
D15*
%TO.P,R4,1*%
%TO.N,Net-(D12-K)*%
X93950000Y-53464050D03*
%TO.P,R4,2*%
%TO.N,GND*%
X97050000Y-53464050D03*
%TD*%
D16*
%TO.P,D42,1,K*%
%TO.N,Net-(D42-K)*%
X128750000Y-108564050D03*
D17*
%TO.P,D42,2,A*%
%TO.N,Net-(D41-K)*%
X130900000Y-108564050D03*
%TD*%
D16*
%TO.P,D20,1,K*%
%TO.N,Net-(D20-K)*%
X153675000Y-50264050D03*
D17*
%TO.P,D20,2,A*%
%TO.N,Net-(D19-K)*%
X155825000Y-50264050D03*
%TD*%
D16*
%TO.P,D8,1,K*%
%TO.N,Net-(D8-K)*%
X27375000Y-54264050D03*
D17*
%TO.P,D8,2,A*%
%TO.N,Net-(D7-K)*%
X29525000Y-54264050D03*
%TD*%
D16*
%TO.P,D34,1,K*%
%TO.N,Net-(D34-K)*%
X67350000Y-110939050D03*
D17*
%TO.P,D34,2,A*%
%TO.N,+12V*%
X69500000Y-110939050D03*
%TD*%
D18*
%TO.P,J3,1,Pin_1*%
%TO.N,GND*%
X107475000Y-123464050D03*
D19*
%TO.P,J3,2,Pin_2*%
%TO.N,Net-(J2-Pin_16)*%
X110015000Y-123464050D03*
%TD*%
D15*
%TO.P,R6,1*%
%TO.N,Net-(D18-K)*%
X151425000Y-21739050D03*
%TO.P,R6,2*%
%TO.N,GND*%
X154525000Y-21739050D03*
%TD*%
D12*
%TO.P,D30,1,K*%
%TO.N,Net-(D30-K)*%
X58925000Y-102489050D03*
D13*
%TO.P,D30,2,A*%
%TO.N,Net-(D29-K)*%
X58925000Y-100339050D03*
%TD*%
D16*
%TO.P,D21,1,K*%
%TO.N,Net-(D21-K)*%
X139075000Y-56089050D03*
D17*
%TO.P,D21,2,A*%
%TO.N,Net-(D20-K)*%
X141225000Y-56089050D03*
%TD*%
D15*
%TO.P,R14,1*%
%TO.N,Net-(D42-K)*%
X136225000Y-108439050D03*
%TO.P,R14,2*%
%TO.N,GND*%
X139325000Y-108439050D03*
%TD*%
%TO.P,R12,1*%
%TO.N,Net-(D36-K)*%
X85275000Y-115214050D03*
%TO.P,R12,2*%
%TO.N,GND*%
X88375000Y-115214050D03*
%TD*%
D16*
%TO.P,D22,1,K*%
%TO.N,Net-(D22-K)*%
X87150000Y-69389050D03*
D17*
%TO.P,D22,2,A*%
%TO.N,+12V*%
X89300000Y-69389050D03*
%TD*%
D16*
%TO.P,D3,1,K*%
%TO.N,Net-(D3-K)*%
X55775000Y-26239050D03*
D17*
%TO.P,D3,2,A*%
%TO.N,Net-(D2-K)*%
X57925000Y-26239050D03*
%TD*%
D15*
%TO.P,R7,1*%
%TO.N,Net-(D21-K)*%
X138850000Y-62364050D03*
%TO.P,R7,2*%
%TO.N,GND*%
X141950000Y-62364050D03*
%TD*%
D16*
%TO.P,D16,1,K*%
%TO.N,Net-(D16-K)*%
X119225000Y-38989050D03*
D17*
%TO.P,D16,2,A*%
%TO.N,+12V*%
X121375000Y-38989050D03*
%TD*%
D16*
%TO.P,D41,1,K*%
%TO.N,Net-(D41-K)*%
X119250000Y-114389050D03*
D17*
%TO.P,D41,2,A*%
%TO.N,Net-(D40-K)*%
X121400000Y-114389050D03*
%TD*%
D16*
%TO.P,D33,1,K*%
%TO.N,Net-(D33-K)*%
X43475000Y-111064050D03*
D17*
%TO.P,D33,2,A*%
%TO.N,Net-(D32-K)*%
X45625000Y-111064050D03*
%TD*%
D15*
%TO.P,R1,1*%
%TO.N,Net-(D3-K)*%
X55475000Y-21264050D03*
%TO.P,R1,2*%
%TO.N,GND*%
X58575000Y-21264050D03*
%TD*%
D16*
%TO.P,D43,1,K*%
%TO.N,Net-(D43-K)*%
X72925000Y-142764050D03*
D17*
%TO.P,D43,2,A*%
%TO.N,+12V*%
X75075000Y-142764050D03*
%TD*%
D16*
%TO.P,D38,1,K*%
%TO.N,Net-(D38-K)*%
X93375000Y-115214050D03*
D17*
%TO.P,D38,2,A*%
%TO.N,Net-(D37-K)*%
X95525000Y-115214050D03*
%TD*%
D16*
%TO.P,D15,1,K*%
%TO.N,Net-(D15-K)*%
X119700000Y-26764050D03*
D17*
%TO.P,D15,2,A*%
%TO.N,Net-(D14-K)*%
X121850000Y-26764050D03*
%TD*%
D15*
%TO.P,R5,1*%
%TO.N,Net-(D15-K)*%
X112125000Y-33739050D03*
%TO.P,R5,2*%
%TO.N,GND*%
X115225000Y-33739050D03*
%TD*%
%TO.P,R13,1*%
%TO.N,Net-(D39-K)*%
X86950000Y-131489050D03*
%TO.P,R13,2*%
%TO.N,GND*%
X90050000Y-131489050D03*
%TD*%
D16*
%TO.P,D19,1,K*%
%TO.N,Net-(D19-K)*%
X153900000Y-34714050D03*
D17*
%TO.P,D19,2,A*%
%TO.N,+12V*%
X156050000Y-34714050D03*
%TD*%
D15*
%TO.P,R10,1*%
%TO.N,Net-(D30-K)*%
X76725000Y-108314050D03*
%TO.P,R10,2*%
%TO.N,GND*%
X79825000Y-108314050D03*
%TD*%
D16*
%TO.P,D31,1,K*%
%TO.N,Net-(D31-K)*%
X117000000Y-100364050D03*
D17*
%TO.P,D31,2,A*%
%TO.N,+12V*%
X119150000Y-100364050D03*
%TD*%
D16*
%TO.P,D39,1,K*%
%TO.N,Net-(D39-K)*%
X94425000Y-131489050D03*
D17*
%TO.P,D39,2,A*%
%TO.N,Net-(D38-K)*%
X96575000Y-131489050D03*
%TD*%
D14*
%TO.P,KR1,1,+5V_TOP_LED*%
%TO.N,Net-(J2-Pin_1)*%
X51800000Y-36164050D03*
%TO.P,KR1,2,GND_TOP_LED*%
%TO.N,GND*%
X51800000Y-38704050D03*
%TO.P,KR1,3,+5V_BOTTOM_LED*%
%TO.N,Net-(J2-Pin_2)*%
X51800000Y-41244050D03*
%TO.P,KR1,4,GND_BOTTOM_LED*%
%TO.N,GND*%
X51800000Y-43784050D03*
%TO.P,KR1,5,SW_IN*%
%TO.N,Net-(J2-Pin_3)*%
X36100000Y-40664050D03*
%TO.P,KR1,6,SW_OUT*%
%TO.N,GND*%
X36100000Y-43204050D03*
%TD*%
D15*
%TO.P,R3,1*%
%TO.N,Net-(D9-K)*%
X36950000Y-62714050D03*
%TO.P,R3,2*%
%TO.N,GND*%
X40050000Y-62714050D03*
%TD*%
D16*
%TO.P,D26,1,K*%
%TO.N,Net-(D26-K)*%
X87025000Y-84014050D03*
D17*
%TO.P,D26,2,A*%
%TO.N,Net-(D25-K)*%
X89175000Y-84014050D03*
%TD*%
D15*
%TO.P,R9,1*%
%TO.N,Net-(D27-K)*%
X86700000Y-92164050D03*
%TO.P,R9,2*%
%TO.N,GND*%
X89800000Y-92164050D03*
%TD*%
D16*
%TO.P,D44,1,K*%
%TO.N,Net-(D44-K)*%
X81250000Y-63439050D03*
D17*
%TO.P,D44,2,A*%
%TO.N,Net-(D43-K)*%
X83400000Y-63439050D03*
%TD*%
D16*
%TO.P,D13,1,K*%
%TO.N,Net-(D13-K)*%
X86400000Y-40489050D03*
D17*
%TO.P,D13,2,A*%
%TO.N,+12V*%
X88550000Y-40489050D03*
%TD*%
D16*
%TO.P,D36,1,K*%
%TO.N,Net-(D36-K)*%
X75900000Y-130064050D03*
D17*
%TO.P,D36,2,A*%
%TO.N,Net-(D35-K)*%
X78050000Y-130064050D03*
%TD*%
D14*
%TO.P,KR4,1,+5V_TOP_LED*%
%TO.N,Net-(J2-Pin_13)*%
X52325000Y-84089050D03*
%TO.P,KR4,2,GND_TOP_LED*%
%TO.N,GND*%
X52325000Y-86629050D03*
%TO.P,KR4,3,+5V_BOTTOM_LED*%
%TO.N,Net-(J2-Pin_14)*%
X52325000Y-89169050D03*
%TO.P,KR4,4,GND_BOTTOM_LED*%
%TO.N,GND*%
X52325000Y-91709050D03*
%TO.P,KR4,5,SW_IN*%
%TO.N,Net-(J2-Pin_15)*%
X36625000Y-88589050D03*
%TO.P,KR4,6,SW_OUT*%
%TO.N,GND*%
X36625000Y-91129050D03*
%TD*%
D10*
%TO.P,J1,1,Pin_1*%
%TO.N,GND*%
X23425000Y-164104050D03*
D11*
%TO.P,J1,2,Pin_2*%
%TO.N,+12V*%
X23425000Y-159024050D03*
%TD*%
D18*
%TO.P,J2,1,Pin_1*%
%TO.N,Net-(J2-Pin_1)*%
X23260000Y-150489050D03*
D19*
%TO.P,J2,2,Pin_2*%
%TO.N,Net-(J2-Pin_2)*%
X25800000Y-150489050D03*
%TO.P,J2,3,Pin_3*%
%TO.N,Net-(J2-Pin_3)*%
X23260000Y-147949050D03*
%TO.P,J2,4,Pin_4*%
%TO.N,Net-(J2-Pin_4)*%
X25800000Y-147949050D03*
%TO.P,J2,5,Pin_5*%
%TO.N,Net-(J2-Pin_5)*%
X23260000Y-145409050D03*
%TO.P,J2,6,Pin_6*%
%TO.N,Net-(J2-Pin_6)*%
X25800000Y-145409050D03*
%TO.P,J2,7,Pin_7*%
%TO.N,Net-(J2-Pin_7)*%
X23260000Y-142869050D03*
%TO.P,J2,8,Pin_8*%
%TO.N,Net-(J2-Pin_8)*%
X25800000Y-142869050D03*
%TO.P,J2,9,Pin_9*%
%TO.N,Net-(J2-Pin_9)*%
X23260000Y-140329050D03*
%TO.P,J2,10,Pin_10*%
%TO.N,Net-(J2-Pin_10)*%
X25800000Y-140329050D03*
%TO.P,J2,11,Pin_11*%
%TO.N,Net-(J2-Pin_11)*%
X23260000Y-137789050D03*
%TO.P,J2,12,Pin_12*%
%TO.N,Net-(J2-Pin_12)*%
X25800000Y-137789050D03*
%TO.P,J2,13,Pin_13*%
%TO.N,Net-(J2-Pin_13)*%
X23260000Y-135249050D03*
%TO.P,J2,14,Pin_14*%
%TO.N,Net-(J2-Pin_14)*%
X25800000Y-135249050D03*
%TO.P,J2,15,Pin_15*%
%TO.N,Net-(J2-Pin_15)*%
X23260000Y-132709050D03*
%TO.P,J2,16,Pin_16*%
%TO.N,Net-(J2-Pin_16)*%
X25800000Y-132709050D03*
%TO.P,J2,17,Pin_17*%
%TO.N,Net-(J2-Pin_17)*%
X23260000Y-130169050D03*
%TO.P,J2,18,Pin_18*%
%TO.N,Net-(J2-Pin_18)*%
X25800000Y-130169050D03*
%TO.P,J2,19,Pin_19*%
%TO.N,Net-(J2-Pin_19)*%
X23260000Y-127629050D03*
%TO.P,J2,20,Pin_20*%
%TO.N,unconnected-(J2-Pin_20-Pad20)*%
X25800000Y-127629050D03*
%TO.P,J2,21,Pin_21*%
%TO.N,unconnected-(J2-Pin_21-Pad21)*%
X23260000Y-125089050D03*
%TO.P,J2,22,Pin_22*%
%TO.N,unconnected-(J2-Pin_22-Pad22)*%
X25800000Y-125089050D03*
%TO.P,J2,23,Pin_23*%
%TO.N,unconnected-(J2-Pin_23-Pad23)*%
X23260000Y-122549050D03*
%TO.P,J2,24,Pin_24*%
%TO.N,unconnected-(J2-Pin_24-Pad24)*%
X25800000Y-122549050D03*
%TO.P,J2,25,Pin_25*%
%TO.N,unconnected-(J2-Pin_25-Pad25)*%
X23260000Y-120009050D03*
%TO.P,J2,26,Pin_26*%
%TO.N,unconnected-(J2-Pin_26-Pad26)*%
X25800000Y-120009050D03*
%TO.P,J2,27,Pin_27*%
%TO.N,unconnected-(J2-Pin_27-Pad27)*%
X23260000Y-117469050D03*
%TO.P,J2,28,Pin_28*%
%TO.N,unconnected-(J2-Pin_28-Pad28)*%
X25800000Y-117469050D03*
%TO.P,J2,29,Pin_29*%
%TO.N,unconnected-(J2-Pin_29-Pad29)*%
X23260000Y-114929050D03*
%TO.P,J2,30,Pin_30*%
%TO.N,unconnected-(J2-Pin_30-Pad30)*%
X25800000Y-114929050D03*
%TO.P,J2,31,Pin_31*%
%TO.N,unconnected-(J2-Pin_31-Pad31)*%
X23260000Y-112389050D03*
%TO.P,J2,32,Pin_32*%
%TO.N,unconnected-(J2-Pin_32-Pad32)*%
X25800000Y-112389050D03*
%TO.P,J2,33,Pin_33*%
%TO.N,unconnected-(J2-Pin_33-Pad33)*%
X23260000Y-109849050D03*
%TO.P,J2,34,Pin_34*%
%TO.N,unconnected-(J2-Pin_34-Pad34)*%
X25800000Y-109849050D03*
%TO.P,J2,35,Pin_35*%
%TO.N,unconnected-(J2-Pin_35-Pad35)*%
X23260000Y-107309050D03*
%TO.P,J2,36,Pin_36*%
%TO.N,unconnected-(J2-Pin_36-Pad36)*%
X25800000Y-107309050D03*
%TO.P,J2,37,Pin_37*%
%TO.N,unconnected-(J2-Pin_37-Pad37)*%
X23260000Y-104769050D03*
%TO.P,J2,38,Pin_38*%
%TO.N,unconnected-(J2-Pin_38-Pad38)*%
X25800000Y-104769050D03*
%TO.P,J2,39,Pin_39*%
%TO.N,unconnected-(J2-Pin_39-Pad39)*%
X23260000Y-102229050D03*
%TO.P,J2,40,Pin_40*%
%TO.N,unconnected-(J2-Pin_40-Pad40)*%
X25800000Y-102229050D03*
%TD*%
D20*
%TO.N,Net-(J2-Pin_7)*%
X79777000Y-129084250D03*
%TO.N,Net-(J2-Pin_9)*%
X59404600Y-134821050D03*
%TO.N,Net-(J2-Pin_8)*%
X62989800Y-142226150D03*
X66156400Y-89594750D03*
%TO.N,Net-(J2-Pin_14)*%
X32734900Y-90355250D03*
%TO.N,Net-(J2-Pin_13)*%
X48544800Y-133049350D03*
%TO.N,Net-(J2-Pin_6)*%
X109897900Y-138392150D03*
%TO.N,Net-(J2-Pin_4)*%
X109780700Y-36505150D03*
X100890800Y-143665050D03*
%TO.N,Net-(J2-Pin_5)*%
X21175100Y-144166250D03*
X25892700Y-43512150D03*
%TO.N,Net-(J2-Pin_10)*%
X74940200Y-132953550D03*
%TO.N,Net-(J2-Pin_12)*%
X45099200Y-137268750D03*
%TO.N,Net-(J2-Pin_11)*%
X50226300Y-135486150D03*
%TO.N,Net-(J2-Pin_3)*%
X26075800Y-42523250D03*
X20553400Y-147155750D03*
%TO.N,Net-(J2-Pin_18)*%
X55741900Y-134670950D03*
%TO.N,Net-(J2-Pin_16)*%
X28089400Y-127631150D03*
%TO.N,GND*%
X31850000Y-62780550D03*
X89037600Y-123239750D03*
X88352500Y-91642650D03*
X96925000Y-39533750D03*
X59404600Y-162103250D03*
X79817500Y-123239750D03*
%TO.N,Net-(D44-K)*%
X100890800Y-66439250D03*
X80564600Y-66439250D03*
%TO.N,Net-(D43-K)*%
X71000100Y-132465950D03*
X75060500Y-131560950D03*
%TO.N,Net-(D36-K)*%
X86074300Y-120250250D03*
X77182900Y-120250250D03*
%TO.N,Net-(D35-K)*%
X77383000Y-123239750D03*
X66054000Y-120905150D03*
%TO.N,Net-(D32-K)*%
X47461900Y-111281750D03*
X148303600Y-108292250D03*
%TO.N,Net-(D31-K)*%
X151486800Y-102736650D03*
X115707300Y-102611350D03*
%TO.N,Net-(D30-K)*%
X77184400Y-99323750D03*
X59404600Y-105302750D03*
%TO.N,Net-(D29-K)*%
X31910900Y-102313250D03*
X59404600Y-98558450D03*
%TO.N,Net-(D28-K)*%
X32768600Y-93378550D03*
X27680700Y-91307350D03*
%TO.N,Net-(D25-K)*%
X56441300Y-75571050D03*
X89037600Y-78397250D03*
%TO.N,Net-(D23-K)*%
X103854100Y-60460250D03*
X31490000Y-70026050D03*
%TO.N,Net-(D22-K)*%
X88620200Y-57470750D03*
X106817400Y-57702850D03*
%TO.N,Net-(D17-K)*%
X139413700Y-39533750D03*
X118107000Y-42523250D03*
%TO.N,Net-(D14-K)*%
X120026100Y-28442550D03*
X62367900Y-27575750D03*
%TO.N,Net-(D13-K)*%
X90193500Y-40446250D03*
X58403600Y-38800950D03*
%TO.N,Net-(D11-K)*%
X85983200Y-55295350D03*
X72406900Y-53937450D03*
%TO.N,Net-(D10-K)*%
X57675400Y-53911350D03*
X74365700Y-53835350D03*
%TO.N,Net-(D8-K)*%
X41624800Y-48502250D03*
X27252400Y-52559150D03*
%TO.N,Net-(D5-K)*%
X83111000Y-24095650D03*
X106817400Y-24202150D03*
%TO.N,Net-(D4-K)*%
X85129100Y-24741950D03*
X68269400Y-24611350D03*
%TO.N,+12V*%
X71126800Y-24218550D03*
X89300000Y-63449750D03*
X59404600Y-63449750D03*
X154905900Y-36902150D03*
X121633900Y-37063450D03*
X81022000Y-114271250D03*
X118141700Y-114271250D03*
X89984500Y-45512750D03*
X121633900Y-45512750D03*
%TO.N,Net-(D1-K)*%
X33701400Y-27575750D03*
X47551400Y-27575750D03*
%TD*%
D21*
%TO.N,Net-(J2-Pin_7)*%
X78712900Y-128020150D02*
X79777000Y-129084250D01*
X78712900Y-108163750D02*
X78712900Y-128020150D01*
X78648200Y-108099050D02*
X78712900Y-108163750D01*
X78648200Y-86272750D02*
X78648200Y-108099050D01*
X79730200Y-85190750D02*
X78648200Y-86272750D01*
X80450000Y-85190750D02*
X79730200Y-85190750D01*
X80450000Y-84039050D02*
X80450000Y-85190750D01*
%TO.N,Net-(J2-Pin_9)*%
X64750000Y-88539050D02*
X64750000Y-89690750D01*
X64030200Y-89690750D02*
X64750000Y-89690750D01*
X61120100Y-92600850D02*
X64030200Y-89690750D01*
X61120100Y-133105550D02*
X61120100Y-92600850D01*
X59404600Y-134821050D02*
X61120100Y-133105550D01*
%TO.N,Net-(J2-Pin_8)*%
X66156400Y-94795550D02*
X66156400Y-89594750D01*
X63228800Y-97723150D02*
X66156400Y-94795550D01*
X63228800Y-141987150D02*
X63228800Y-97723150D01*
X62989800Y-142226150D02*
X63228800Y-141987150D01*
%TO.N,Net-(J2-Pin_15)*%
X24530000Y-131439050D02*
X23260000Y-132709050D01*
X24530000Y-127128950D02*
X24530000Y-131439050D01*
X25281600Y-126377350D02*
X24530000Y-127128950D01*
X26318700Y-126377350D02*
X25281600Y-126377350D01*
X27134300Y-125561750D02*
X26318700Y-126377350D01*
X27134300Y-94958050D02*
X27134300Y-125561750D01*
X33503300Y-88589050D02*
X27134300Y-94958050D01*
X36625000Y-88589050D02*
X33503300Y-88589050D01*
%TO.N,Net-(J2-Pin_14)*%
X31728100Y-91362050D02*
X32734900Y-90355250D01*
X32734900Y-90355250D02*
X31728100Y-91362050D01*
X31728100Y-91362050D02*
X32734900Y-90355250D01*
X28791100Y-94299050D02*
X31728100Y-91362050D01*
X28791100Y-132257950D02*
X28791100Y-94299050D01*
X25800000Y-135249050D02*
X28791100Y-132257950D01*
%TO.N,Net-(J2-Pin_13)*%
X48765400Y-132828750D02*
X48544800Y-133049350D01*
X48765400Y-97432650D02*
X48765400Y-132828750D01*
X53476700Y-92721350D02*
X48765400Y-97432650D01*
X53476700Y-85672550D02*
X53476700Y-92721350D01*
X53044900Y-85240750D02*
X53476700Y-85672550D01*
X52325000Y-85240750D02*
X53044900Y-85240750D01*
X52325000Y-84089050D02*
X52325000Y-85240750D01*
%TO.N,Net-(J2-Pin_6)*%
X114474600Y-133815450D02*
X109897900Y-138392150D01*
X114474600Y-74208050D02*
X114474600Y-133815450D01*
X130248300Y-58434350D02*
X114474600Y-74208050D01*
X130248300Y-42072550D02*
X130248300Y-58434350D01*
X130680100Y-41640750D02*
X130248300Y-42072550D01*
X131400000Y-41640750D02*
X130680100Y-41640750D01*
X131400000Y-40489050D02*
X131400000Y-41640750D01*
%TO.N,Net-(J2-Pin_4)*%
X100890800Y-105302950D02*
X100890800Y-143665050D01*
X109780700Y-96413050D02*
X100890800Y-105302950D01*
X109780700Y-36505150D02*
X109780700Y-96413050D01*
X109780700Y-36505150D02*
X109780700Y-35989050D01*
X109780700Y-35989050D02*
X109780700Y-36505150D01*
%TO.N,Net-(J2-Pin_5)*%
X21175100Y-48229750D02*
X25892700Y-43512150D01*
X21175100Y-144166250D02*
X21175100Y-48229750D01*
%TO.N,Net-(J2-Pin_10)*%
X79500000Y-36214050D02*
X79500000Y-37365750D01*
X80219800Y-37365750D02*
X79500000Y-37365750D01*
X81267800Y-38413750D02*
X80219800Y-37365750D01*
X81267800Y-52446750D02*
X81267800Y-38413750D01*
X79299800Y-54414750D02*
X81267800Y-52446750D01*
X79299800Y-73198750D02*
X79299800Y-54414750D01*
X74338500Y-78160050D02*
X79299800Y-73198750D01*
X74338500Y-132351850D02*
X74338500Y-78160050D01*
X74940200Y-132953550D02*
X74338500Y-132351850D01*
%TO.N,Net-(J2-Pin_12)*%
X63800000Y-40714050D02*
X63800000Y-41865750D01*
X63080200Y-41865750D02*
X63800000Y-41865750D01*
X55637000Y-49308950D02*
X63080200Y-41865750D01*
X55637000Y-91551550D02*
X55637000Y-49308950D01*
X49626100Y-97562450D02*
X55637000Y-91551550D01*
X49626100Y-132960350D02*
X49626100Y-97562450D01*
X45317700Y-137268750D02*
X49626100Y-132960350D01*
X45099200Y-137268750D02*
X45317700Y-137268750D01*
%TO.N,Net-(J2-Pin_11)*%
X79500000Y-41294050D02*
X79500000Y-42445750D01*
X78780100Y-42445750D02*
X79500000Y-42445750D01*
X78348300Y-42877550D02*
X78780100Y-42445750D01*
X78348300Y-70882550D02*
X78348300Y-42877550D01*
X50227800Y-99003050D02*
X78348300Y-70882550D01*
X50227800Y-135484650D02*
X50227800Y-99003050D01*
X50226300Y-135486150D02*
X50227800Y-135484650D01*
%TO.N,Net-(J2-Pin_3)*%
X20473400Y-147075750D02*
X20553400Y-147155750D01*
X20473400Y-47939250D02*
X20473400Y-147075750D01*
X25889400Y-42523250D02*
X20473400Y-47939250D01*
X26075800Y-42523250D02*
X25889400Y-42523250D01*
%TO.N,Net-(J2-Pin_1)*%
X51800000Y-36164050D02*
X51800000Y-37315750D01*
X23260000Y-150489050D02*
X23260000Y-149237350D01*
X23807700Y-149237350D02*
X23260000Y-149237350D01*
X24511700Y-148533350D02*
X23807700Y-149237350D01*
X24511700Y-137201750D02*
X24511700Y-148533350D01*
X25194400Y-136519050D02*
X24511700Y-137201750D01*
X26301900Y-136519050D02*
X25194400Y-136519050D01*
X33251900Y-129569050D02*
X26301900Y-136519050D01*
X33251900Y-111177150D02*
X33251900Y-129569050D01*
X46960300Y-97468750D02*
X33251900Y-111177150D01*
X46960300Y-95673050D02*
X46960300Y-97468750D01*
X47260500Y-95372850D02*
X46960300Y-95673050D01*
X47260500Y-41135450D02*
X47260500Y-95372850D01*
X51080200Y-37315750D02*
X47260500Y-41135450D01*
X51800000Y-37315750D02*
X51080200Y-37315750D01*
%TO.N,Net-(J2-Pin_2)*%
X36422900Y-139866150D02*
X25800000Y-150489050D01*
X36422900Y-109632550D02*
X36422900Y-139866150D01*
X47562000Y-98493450D02*
X36422900Y-109632550D01*
X47562000Y-95922150D02*
X47562000Y-98493450D01*
X47862200Y-95621950D02*
X47562000Y-95922150D01*
X47862200Y-45181850D02*
X47862200Y-95621950D01*
X51800000Y-41244050D02*
X47862200Y-45181850D01*
%TO.N,Net-(J2-Pin_18)*%
X56850000Y-135779050D02*
X55741900Y-134670950D01*
X56850000Y-136789050D02*
X56850000Y-135779050D01*
%TO.N,Net-(J2-Pin_16)*%
X28089400Y-130419650D02*
X28089400Y-127631150D01*
X25800000Y-132709050D02*
X28089400Y-130419650D01*
%TO.N,GND*%
X113891900Y-32405950D02*
X115225000Y-33739050D01*
X108833100Y-32405950D02*
X113891900Y-32405950D01*
X107625000Y-33614050D02*
X108833100Y-32405950D01*
X97050000Y-47514050D02*
X97050000Y-53464050D01*
X96925000Y-47389050D02*
X97050000Y-47514050D01*
X64750000Y-91079050D02*
X64750000Y-92230750D01*
X31850000Y-64389050D02*
X31850000Y-62780550D01*
X88375000Y-122577150D02*
X88375000Y-115214050D01*
X89037600Y-123239750D02*
X88375000Y-122577150D01*
X89037600Y-130476650D02*
X89037600Y-123239750D01*
X90050000Y-131489050D02*
X89037600Y-130476650D01*
X51800000Y-43784050D02*
X51800000Y-42632350D01*
X51800000Y-38704050D02*
X51800000Y-39855750D01*
X35380100Y-42052350D02*
X36100000Y-42052350D01*
X34948300Y-41620550D02*
X35380100Y-42052350D01*
X34948300Y-26404050D02*
X34948300Y-41620550D01*
X31585000Y-23040750D02*
X34948300Y-26404050D01*
X31585000Y-21139050D02*
X31585000Y-23040750D01*
X36100000Y-43204050D02*
X36100000Y-42052350D01*
X88873900Y-92164050D02*
X88352500Y-91642650D01*
X89800000Y-92164050D02*
X88873900Y-92164050D01*
X52325000Y-91709050D02*
X52325000Y-92860750D01*
X80450000Y-91659050D02*
X80450000Y-91727650D01*
X80450000Y-91727650D02*
X80450000Y-92810750D01*
X80450000Y-86579050D02*
X80450000Y-87730750D01*
X52951700Y-40287550D02*
X52519900Y-39855750D01*
X52951700Y-42200450D02*
X52951700Y-40287550D01*
X52519800Y-42632350D02*
X52951700Y-42200450D01*
X51800000Y-42632350D02*
X52519800Y-42632350D01*
X59387500Y-32988150D02*
X52519900Y-39855750D01*
X59387500Y-22076550D02*
X59387500Y-32988150D01*
X58575000Y-21264050D02*
X59387500Y-22076550D01*
X52519900Y-39855750D02*
X51800000Y-39855750D01*
X147819800Y-37377350D02*
X147100000Y-37377350D01*
X154525000Y-30672150D02*
X147819800Y-37377350D01*
X154525000Y-21739050D02*
X154525000Y-30672150D01*
X101705300Y-39533750D02*
X96925000Y-39533750D01*
X107625000Y-33614050D02*
X101705300Y-39533750D01*
X96925000Y-39533750D02*
X96925000Y-47389050D01*
X61930000Y-159577850D02*
X61930000Y-136789050D01*
X59404600Y-162103250D02*
X61930000Y-159577850D01*
X48163700Y-116100350D02*
X46325000Y-117939050D01*
X48163700Y-97022050D02*
X48163700Y-116100350D01*
X52325000Y-92860750D02*
X48163700Y-97022050D01*
X79266500Y-90544150D02*
X80450000Y-91727650D01*
X79266500Y-88194450D02*
X79266500Y-90544150D01*
X79730200Y-87730750D02*
X79266500Y-88194450D01*
X80450000Y-87730750D02*
X79730200Y-87730750D01*
X131400000Y-56899950D02*
X131400000Y-43029050D01*
X139407100Y-64906950D02*
X131400000Y-56899950D01*
X139325000Y-64989050D02*
X139407100Y-64906950D01*
X139325000Y-108439050D02*
X139325000Y-64989050D01*
X139407100Y-64906950D02*
X141950000Y-62364050D01*
X80666100Y-42667950D02*
X79500000Y-43834050D01*
X80666100Y-40326250D02*
X80666100Y-42667950D01*
X80245600Y-39905750D02*
X80666100Y-40326250D01*
X79500000Y-39905750D02*
X80245600Y-39905750D01*
X79500000Y-38754050D02*
X79500000Y-39905750D01*
X147100000Y-38529050D02*
X147100000Y-37953150D01*
X147100000Y-37953150D02*
X147100000Y-37377350D01*
X146380100Y-42457350D02*
X147100000Y-42457350D01*
X145948300Y-42025550D02*
X146380100Y-42457350D01*
X145948300Y-39104850D02*
X145948300Y-42025550D01*
X147100000Y-37953150D02*
X145948300Y-39104850D01*
X147100000Y-43609050D02*
X147100000Y-42457350D01*
X36625000Y-91129050D02*
X36625000Y-89977350D01*
X37344800Y-89977350D02*
X36625000Y-89977350D01*
X37811700Y-89510450D02*
X37344800Y-89977350D01*
X37811700Y-64389050D02*
X37811700Y-89510450D01*
X38375000Y-64389050D02*
X37811700Y-64389050D01*
X40050000Y-62714050D02*
X38375000Y-64389050D01*
X37811700Y-64389050D02*
X31850000Y-64389050D01*
X61930000Y-95050750D02*
X61930000Y-136789050D01*
X64750000Y-92230750D02*
X61930000Y-95050750D01*
X79825000Y-93435750D02*
X80450000Y-92810750D01*
X79825000Y-108314050D02*
X79825000Y-93435750D01*
X79817500Y-108321550D02*
X79817500Y-123239750D01*
X79825000Y-108314050D02*
X79817500Y-108321550D01*
X88352500Y-91642650D02*
X88613200Y-91903350D01*
X88613200Y-91903350D02*
X88352500Y-91642650D01*
%TO.N,Net-(D45-K)*%
X95291600Y-48855650D02*
X93825000Y-47389050D01*
X95291600Y-58330650D02*
X95291600Y-48855650D01*
X100500000Y-63539050D02*
X95291600Y-58330650D01*
%TO.N,Net-(D44-K)*%
X100890800Y-65298250D02*
X100890800Y-66439250D01*
X102650000Y-63539050D02*
X100890800Y-65298250D01*
X81250000Y-65753850D02*
X81250000Y-63439050D01*
X80564600Y-66439250D02*
X81250000Y-65753850D01*
%TO.N,Net-(D43-K)*%
X71000100Y-140839150D02*
X71000100Y-132465950D01*
X72925000Y-142764050D02*
X71000100Y-140839150D01*
X83400000Y-70815550D02*
X83400000Y-63439050D01*
X74940200Y-79275350D02*
X83400000Y-70815550D01*
X74940200Y-131440650D02*
X74940200Y-79275350D01*
X75060500Y-131560950D02*
X74940200Y-131440650D01*
%TO.N,Net-(D42-K)*%
X134598300Y-110065750D02*
X136225000Y-108439050D01*
X129906200Y-110065750D02*
X134598300Y-110065750D01*
X128750000Y-108909550D02*
X129906200Y-110065750D01*
X128750000Y-108564050D02*
X128750000Y-108909550D01*
%TO.N,Net-(D41-K)*%
X119250000Y-113965050D02*
X119250000Y-114389050D01*
X126111100Y-107103950D02*
X119250000Y-113965050D01*
X129439900Y-107103950D02*
X126111100Y-107103950D01*
X130900000Y-108564050D02*
X129439900Y-107103950D01*
%TO.N,Net-(D40-K)*%
X121750000Y-114739050D02*
X121400000Y-114389050D01*
X121750000Y-127339050D02*
X121750000Y-114739050D01*
%TO.N,Net-(D39-K)*%
X93107000Y-132807050D02*
X94425000Y-131489050D01*
X88268000Y-132807050D02*
X93107000Y-132807050D01*
X86950000Y-131489050D02*
X88268000Y-132807050D01*
%TO.N,Net-(D38-K)*%
X93375000Y-128289050D02*
X96575000Y-131489050D01*
X93375000Y-115214050D02*
X93375000Y-128289050D01*
%TO.N,Net-(D37-K)*%
X94064200Y-113753250D02*
X95525000Y-115214050D01*
X90561400Y-113753250D02*
X94064200Y-113753250D01*
X85400000Y-108591850D02*
X90561400Y-113753250D01*
X85400000Y-108214050D02*
X85400000Y-108591850D01*
%TO.N,Net-(D36-K)*%
X86074300Y-116013350D02*
X86074300Y-120250250D01*
X85275000Y-115214050D02*
X86074300Y-116013350D01*
X75900000Y-121533150D02*
X75900000Y-130064050D01*
X77182900Y-120250250D02*
X75900000Y-121533150D01*
%TO.N,Net-(D35-K)*%
X64375000Y-119350550D02*
X64375000Y-119014050D01*
X65929600Y-120905150D02*
X64375000Y-119350550D01*
X66054000Y-120905150D02*
X65929600Y-120905150D01*
X78050000Y-123906750D02*
X78050000Y-130064050D01*
X77383000Y-123239750D02*
X78050000Y-123906750D01*
%TO.N,Net-(D34-K)*%
X66525000Y-111764050D02*
X67350000Y-110939050D01*
X66525000Y-119014050D02*
X66525000Y-111764050D01*
%TO.N,Net-(D33-K)*%
X43475000Y-117689050D02*
X43475000Y-111064050D01*
X43225000Y-117939050D02*
X43475000Y-117689050D01*
%TO.N,Net-(D32-K)*%
X150025000Y-106570850D02*
X150025000Y-100614050D01*
X148303600Y-108292250D02*
X150025000Y-106570850D01*
X47562000Y-111281750D02*
X47461900Y-111281750D01*
X47562000Y-111064050D02*
X47562000Y-111281750D01*
X45625000Y-111064050D02*
X47562000Y-111064050D01*
X47461900Y-111281750D02*
X47562000Y-111281750D01*
X47562000Y-111281750D02*
X47461900Y-111281750D01*
%TO.N,Net-(D31-K)*%
X151486800Y-101302250D02*
X151486800Y-102736650D01*
X152175000Y-100614050D02*
X151486800Y-101302250D01*
X117000000Y-101318650D02*
X117000000Y-100364050D01*
X115707300Y-102611350D02*
X117000000Y-101318650D01*
%TO.N,Net-(D30-K)*%
X76725000Y-99783150D02*
X77184400Y-99323750D01*
X76725000Y-108314050D02*
X76725000Y-99783150D01*
X58925000Y-104823150D02*
X58925000Y-102489050D01*
X59404600Y-105302750D02*
X58925000Y-104823150D01*
%TO.N,Net-(D29-K)*%
X31360000Y-102864150D02*
X31910900Y-102313250D01*
X31360000Y-106814050D02*
X31360000Y-102864150D01*
X58925000Y-99038050D02*
X58925000Y-100339050D01*
X59404600Y-98558450D02*
X58925000Y-99038050D01*
%TO.N,Net-(D28-K)*%
X32768600Y-106072650D02*
X32768600Y-93378550D01*
X33510000Y-106814050D02*
X32768600Y-106072650D01*
X27525000Y-91151650D02*
X27525000Y-89714050D01*
X27680700Y-91307350D02*
X27525000Y-91151650D01*
%TO.N,Net-(D27-K)*%
X86900000Y-101072050D02*
X86900000Y-100639050D01*
X87938400Y-102110450D02*
X86900000Y-101072050D01*
X90105900Y-102110450D02*
X87938400Y-102110450D01*
X90539800Y-101676550D02*
X90105900Y-102110450D01*
X90539800Y-96003850D02*
X90539800Y-101676550D01*
X86700000Y-92164050D02*
X90539800Y-96003850D01*
%TO.N,Net-(D26-K)*%
X85645200Y-85393850D02*
X87025000Y-84014050D01*
X85645200Y-97234250D02*
X85645200Y-85393850D01*
X89050000Y-100639050D02*
X85645200Y-97234250D01*
%TO.N,Net-(D25-K)*%
X56441300Y-74197750D02*
X56441300Y-75571050D01*
X57450000Y-73189050D02*
X56441300Y-74197750D01*
X89175000Y-78534650D02*
X89175000Y-84014050D01*
X89037600Y-78397250D02*
X89175000Y-78534650D01*
%TO.N,Net-(D24-K)*%
X28700000Y-64439050D02*
X28750000Y-64389050D01*
X28700000Y-72964050D02*
X28700000Y-64439050D01*
%TO.N,Net-(D23-K)*%
X103875000Y-60439350D02*
X103854100Y-60460250D01*
X103875000Y-55389050D02*
X103875000Y-60439350D01*
X30850000Y-70666050D02*
X30850000Y-72964050D01*
X31490000Y-70026050D02*
X30850000Y-70666050D01*
%TO.N,Net-(D22-K)*%
X87150000Y-58940950D02*
X87150000Y-69389050D01*
X88620200Y-57470750D02*
X87150000Y-58940950D01*
X106025000Y-56910450D02*
X106025000Y-55389050D01*
X106817400Y-57702850D02*
X106025000Y-56910450D01*
X106817400Y-57702850D02*
X106585300Y-57470750D01*
X106585300Y-57470750D02*
X106817400Y-57702850D01*
X88620200Y-57470750D02*
X87150000Y-58940950D01*
X87150000Y-58940950D02*
X88620200Y-57470750D01*
%TO.N,Net-(D21-K)*%
X138850000Y-56314050D02*
X139075000Y-56089050D01*
X138850000Y-62364050D02*
X138850000Y-56314050D01*
%TO.N,Net-(D20-K)*%
X147850000Y-56089050D02*
X153675000Y-50264050D01*
X141225000Y-56089050D02*
X147850000Y-56089050D01*
%TO.N,Net-(D19-K)*%
X153900000Y-48339050D02*
X155825000Y-50264050D01*
X153900000Y-34714050D02*
X153900000Y-48339050D01*
%TO.N,Net-(D18-K)*%
X149837000Y-20151050D02*
X151425000Y-21739050D01*
X139469800Y-20151050D02*
X149837000Y-20151050D01*
X138350000Y-21270850D02*
X139469800Y-20151050D01*
X138350000Y-21639050D02*
X138350000Y-21270850D01*
%TO.N,Net-(D17-K)*%
X139413700Y-22725350D02*
X139413700Y-39533750D01*
X140500000Y-21639050D02*
X139413700Y-22725350D01*
X118107000Y-50921050D02*
X119125000Y-51939050D01*
X118107000Y-42523250D02*
X118107000Y-50921050D01*
%TO.N,Net-(D16-K)*%
X119225000Y-49889050D02*
X119225000Y-38989050D01*
X121275000Y-51939050D02*
X119225000Y-49889050D01*
%TO.N,Net-(D15-K)*%
X113418200Y-35032250D02*
X112125000Y-33739050D01*
X115893000Y-35032250D02*
X113418200Y-35032250D01*
X119324400Y-31600850D02*
X115893000Y-35032250D01*
X119324400Y-27139650D02*
X119324400Y-31600850D01*
X119700000Y-26764050D02*
X119324400Y-27139650D01*
%TO.N,Net-(D14-K)*%
X120171500Y-28442550D02*
X120026100Y-28442550D01*
X121850000Y-26764050D02*
X120171500Y-28442550D01*
X58411500Y-42764050D02*
X58025000Y-42764050D01*
X62367900Y-38807650D02*
X58411500Y-42764050D01*
X62367900Y-27575750D02*
X62367900Y-38807650D01*
%TO.N,Net-(D13-K)*%
X90424100Y-40446250D02*
X90193500Y-40446250D01*
X90661800Y-40208550D02*
X90424100Y-40446250D01*
X90661800Y-40114750D02*
X90661800Y-40208550D01*
X89550200Y-39003150D02*
X90661800Y-40114750D01*
X87514300Y-39003150D02*
X89550200Y-39003150D01*
X86400000Y-40117450D02*
X87514300Y-39003150D01*
X86400000Y-40489050D02*
X86400000Y-40117450D01*
X58025000Y-39179550D02*
X58025000Y-40614050D01*
X58403600Y-38800950D02*
X58025000Y-39179550D01*
%TO.N,Net-(D12-K)*%
X85439300Y-52728350D02*
X86275000Y-53564050D01*
X85439300Y-39340950D02*
X85439300Y-52728350D01*
X86378800Y-38401450D02*
X85439300Y-39340950D01*
X89799300Y-38401450D02*
X86378800Y-38401450D01*
X91263500Y-39865650D02*
X89799300Y-38401450D01*
X91263500Y-50777550D02*
X91263500Y-39865650D01*
X93950000Y-53464050D02*
X91263500Y-50777550D01*
%TO.N,Net-(D11-K)*%
X86693700Y-55295350D02*
X85983200Y-55295350D01*
X88425000Y-53564050D02*
X86693700Y-55295350D01*
X72625000Y-54155550D02*
X72625000Y-55939050D01*
X72406900Y-53937450D02*
X72625000Y-54155550D01*
%TO.N,Net-(D10-K)*%
X56950000Y-54636750D02*
X57675400Y-53911350D01*
X56950000Y-55814050D02*
X56950000Y-54636750D01*
X74775000Y-54244650D02*
X74775000Y-55939050D01*
X74365700Y-53835350D02*
X74775000Y-54244650D01*
%TO.N,Net-(D9-K)*%
X36950000Y-62514050D02*
X43525000Y-55939050D01*
X36950000Y-62714050D02*
X36950000Y-62514050D01*
%TO.N,Net-(D8-K)*%
X41624800Y-51888850D02*
X41624800Y-48502250D01*
X45675000Y-55939050D02*
X41624800Y-51888850D01*
X27252400Y-54141450D02*
X27375000Y-54264050D01*
X27252400Y-52559150D02*
X27252400Y-54141450D01*
%TO.N,Net-(D7-K)*%
X27025000Y-51339450D02*
X27025000Y-39539050D01*
X29525000Y-53839450D02*
X27025000Y-51339450D01*
X29525000Y-54264050D02*
X29525000Y-53839450D01*
%TO.N,Net-(D6-K)*%
X104575000Y-33564050D02*
X104575000Y-26364050D01*
X104525000Y-33614050D02*
X104575000Y-33564050D01*
%TO.N,Net-(D5-K)*%
X84375000Y-25359650D02*
X84375000Y-26239050D01*
X83111000Y-24095650D02*
X84375000Y-25359650D01*
X106725000Y-24294550D02*
X106725000Y-26364050D01*
X106817400Y-24202150D02*
X106725000Y-24294550D01*
%TO.N,Net-(D4-K)*%
X86525000Y-26137850D02*
X86525000Y-26239050D01*
X85129100Y-24741950D02*
X86525000Y-26137850D01*
X69550000Y-23330750D02*
X69550000Y-20914050D01*
X68269400Y-24611350D02*
X69550000Y-23330750D01*
X68269400Y-24611350D02*
X69257200Y-23623550D01*
X69257200Y-23623550D02*
X68269400Y-24611350D01*
X85129100Y-24741950D02*
X85260000Y-24872850D01*
X85260000Y-24872850D02*
X85129100Y-24741950D01*
%TO.N,Net-(D3-K)*%
X55775000Y-21564050D02*
X55475000Y-21264050D01*
X55775000Y-26239050D02*
X55775000Y-21564050D01*
%TO.N,Net-(D2-K)*%
X44060000Y-20741250D02*
X44060000Y-21164050D01*
X45148500Y-19652750D02*
X44060000Y-20741250D01*
X47199100Y-19652750D02*
X45148500Y-19652750D01*
X47979100Y-20432750D02*
X47199100Y-19652750D01*
X47979100Y-20534850D02*
X47979100Y-20432750D01*
X55164100Y-27719850D02*
X47979100Y-20534850D01*
X56444200Y-27719850D02*
X55164100Y-27719850D01*
X57925000Y-26239050D02*
X56444200Y-27719850D01*
D22*
%TO.N,+12V*%
X84925100Y-105456850D02*
X85402000Y-105933750D01*
X84925100Y-74106250D02*
X84925100Y-105456850D01*
X89300000Y-69731350D02*
X84925100Y-74106250D01*
X89300000Y-69389050D02*
X89300000Y-69731350D01*
X75075000Y-142764050D02*
X75075000Y-134685950D01*
X69500000Y-129110950D02*
X69500000Y-110939050D01*
X75075000Y-134685950D02*
X69500000Y-129110950D01*
X87550000Y-108081750D02*
X87550000Y-108214050D01*
X85402000Y-105933750D02*
X87550000Y-108081750D01*
X71126800Y-43787250D02*
X59100000Y-55814050D01*
X71126800Y-24218550D02*
X71126800Y-43787250D01*
X71700000Y-23645350D02*
X71126800Y-24218550D01*
X71700000Y-20914050D02*
X71700000Y-23645350D01*
X32135000Y-36579050D02*
X29175000Y-39539050D01*
X32135000Y-27489050D02*
X32135000Y-36579050D01*
X89300000Y-63449750D02*
X89300000Y-69389050D01*
X59600000Y-63645150D02*
X59404600Y-63449750D01*
X59600000Y-73189050D02*
X59600000Y-63645150D01*
X59404600Y-56118650D02*
X59100000Y-55814050D01*
X59404600Y-63449750D02*
X59404600Y-56118650D01*
X29675000Y-91001550D02*
X29675000Y-89714050D01*
X21896700Y-98779850D02*
X29675000Y-91001550D01*
X21896700Y-143754050D02*
X21896700Y-98779850D01*
X21976800Y-143834150D02*
X21896700Y-143754050D01*
X21976800Y-144498350D02*
X21976800Y-143834150D01*
X21896700Y-144578450D02*
X21976800Y-144498350D01*
X21896700Y-157495750D02*
X21896700Y-144578450D01*
X23425000Y-159024050D02*
X21896700Y-157495750D01*
X31126500Y-56435950D02*
X31126500Y-44486150D01*
X30669200Y-56893250D02*
X31126500Y-56435950D01*
X30669200Y-68071450D02*
X30669200Y-56893250D01*
X32451000Y-69853250D02*
X30669200Y-68071450D01*
X32451000Y-86938050D02*
X32451000Y-69853250D01*
X29675000Y-89714050D02*
X32451000Y-86938050D01*
X37360000Y-21834050D02*
X36665000Y-21139050D01*
X37360000Y-44193950D02*
X37360000Y-21834050D01*
X37067800Y-44486150D02*
X37360000Y-44193950D01*
X31126500Y-44486150D02*
X37067800Y-44486150D01*
X31126500Y-41490550D02*
X29175000Y-39539050D01*
X31126500Y-44486150D02*
X31126500Y-41490550D01*
X156050000Y-35758050D02*
X154905900Y-36902150D01*
X156050000Y-34714050D02*
X156050000Y-35758050D01*
X121375000Y-37322350D02*
X121375000Y-38989050D01*
X121633900Y-37063450D02*
X121375000Y-37322350D01*
X81022000Y-129761250D02*
X81022000Y-114271250D01*
X76097300Y-134685950D02*
X81022000Y-129761250D01*
X75075000Y-134685950D02*
X76097300Y-134685950D01*
X118141700Y-125948750D02*
X118141700Y-114271250D01*
X121115800Y-128922850D02*
X118141700Y-125948750D01*
X122392900Y-128922850D02*
X121115800Y-128922850D01*
X123900000Y-127415750D02*
X122392900Y-128922850D01*
X123900000Y-127339050D02*
X123900000Y-127415750D01*
X118141700Y-101372350D02*
X119150000Y-100364050D01*
X118141700Y-114271250D02*
X118141700Y-101372350D01*
X81022000Y-110313750D02*
X85402000Y-105933750D01*
X81022000Y-114271250D02*
X81022000Y-110313750D01*
X89984500Y-62765250D02*
X89300000Y-63449750D01*
X89984500Y-45512750D02*
X89984500Y-62765250D01*
X121375000Y-45253850D02*
X121375000Y-38989050D01*
X121633900Y-45512750D02*
X121375000Y-45253850D01*
X89984500Y-41923550D02*
X89984500Y-45512750D01*
X88550000Y-40489050D02*
X89984500Y-41923550D01*
D21*
%TO.N,Net-(D1-K)*%
X33701400Y-26460650D02*
X33701400Y-27575750D01*
X33239400Y-25998650D02*
X33701400Y-26460650D01*
X31115100Y-25998650D02*
X33239400Y-25998650D01*
X29985000Y-27128750D02*
X31115100Y-25998650D01*
X29985000Y-27489050D02*
X29985000Y-27128750D01*
X47551400Y-22505450D02*
X46210000Y-21164050D01*
X47551400Y-27575750D02*
X47551400Y-22505450D01*
%TD*%
M02*
