%TF.GenerationSoftware,KiCad,Pcbnew,9.0.2*%
%TF.CreationDate,2025-07-18T21:00:18+02:00*%
%TF.ProjectId,a320-overhead-ventilation_eng_rain-rplnt-wipers,61333230-2d6f-4766-9572-686561642d76,rev?*%
%TF.SameCoordinates,Original*%
%TF.FileFunction,Copper,L2,Bot*%
%TF.FilePolarity,Positive*%
%FSLAX46Y46*%
G04 Gerber Fmt 4.6, Leading zero omitted, Abs format (unit mm)*
G04 Created by KiCad (PCBNEW 9.0.2) date 2025-07-18 21:00:18*
%MOMM*%
%LPD*%
G01*
G04 APERTURE LIST*
%TA.AperFunction,ComponentPad*%
%ADD10R,3.000000X3.000000*%
%TD*%
%TA.AperFunction,ComponentPad*%
%ADD11C,3.000000*%
%TD*%
%TA.AperFunction,ComponentPad*%
%ADD12R,1.500000X1.500000*%
%TD*%
%TA.AperFunction,ComponentPad*%
%ADD13R,1.700000X1.700000*%
%TD*%
%TA.AperFunction,ComponentPad*%
%ADD14C,1.700000*%
%TD*%
%TA.AperFunction,ViaPad*%
%ADD15C,0.600000*%
%TD*%
%TA.AperFunction,Conductor*%
%ADD16C,0.400000*%
%TD*%
%TA.AperFunction,Conductor*%
%ADD17C,0.600000*%
%TD*%
G04 APERTURE END LIST*
D10*
%TO.P,J5,1,Pin_1*%
%TO.N,GND*%
X31585000Y-21139050D03*
D11*
%TO.P,J5,2,Pin_2*%
%TO.N,+12V*%
X36665000Y-21139050D03*
%TD*%
D12*
%TO.P,KR2,1,+5V_TOP_LED*%
%TO.N,Net-(J2-Pin_10)*%
X79500000Y-36214050D03*
%TO.P,KR2,2,GND_TOP_LED*%
%TO.N,GND*%
X79500000Y-38754050D03*
%TO.P,KR2,3,+5V_BOTTOM_LED*%
%TO.N,Net-(J2-Pin_11)*%
X79500000Y-41294050D03*
%TO.P,KR2,4,GND_BOTTOM_LED*%
%TO.N,GND*%
X79500000Y-43834050D03*
%TO.P,KR2,5,SW_IN*%
%TO.N,Net-(J2-Pin_12)*%
X63800000Y-40714050D03*
%TO.P,KR2,6,SW_OUT*%
%TO.N,GND*%
X63800000Y-43254050D03*
%TD*%
%TO.P,KR5,1,+5V_TOP_LED*%
%TO.N,Net-(J2-Pin_7)*%
X80450000Y-84039050D03*
%TO.P,KR5,2,GND_TOP_LED*%
%TO.N,GND*%
X80450000Y-86579050D03*
%TO.P,KR5,3,+5V_BOTTOM_LED*%
%TO.N,Net-(J2-Pin_8)*%
X80450000Y-89119050D03*
%TO.P,KR5,4,GND_BOTTOM_LED*%
%TO.N,GND*%
X80450000Y-91659050D03*
%TO.P,KR5,5,SW_IN*%
%TO.N,Net-(J2-Pin_9)*%
X64750000Y-88539050D03*
%TO.P,KR5,6,SW_OUT*%
%TO.N,GND*%
X64750000Y-91079050D03*
%TD*%
D13*
%TO.P,J4,1,Pin_1*%
%TO.N,Net-(J2-Pin_17)*%
X54310000Y-136789050D03*
D14*
%TO.P,J4,2,Pin_2*%
%TO.N,Net-(J2-Pin_18)*%
X56850000Y-136789050D03*
%TO.P,J4,3,Pin_3*%
%TO.N,Net-(J2-Pin_19)*%
X59390000Y-136789050D03*
%TO.P,J4,4,Pin_4*%
%TO.N,GND*%
X61930000Y-136789050D03*
%TD*%
D12*
%TO.P,KR3,1,+5V_TOP_LED*%
%TO.N,Net-(J2-Pin_4)*%
X147100000Y-35989050D03*
%TO.P,KR3,2,GND_TOP_LED*%
%TO.N,GND*%
X147100000Y-38529050D03*
%TO.P,KR3,3,+5V_BOTTOM_LED*%
%TO.N,Net-(J2-Pin_5)*%
X147100000Y-41069050D03*
%TO.P,KR3,4,GND_BOTTOM_LED*%
%TO.N,GND*%
X147100000Y-43609050D03*
%TO.P,KR3,5,SW_IN*%
%TO.N,Net-(J2-Pin_6)*%
X131400000Y-40489050D03*
%TO.P,KR3,6,SW_OUT*%
%TO.N,GND*%
X131400000Y-43029050D03*
%TD*%
D13*
%TO.P,J3,1,Pin_1*%
%TO.N,GND*%
X107475000Y-123464050D03*
D14*
%TO.P,J3,2,Pin_2*%
%TO.N,Net-(J2-Pin_16)*%
X110015000Y-123464050D03*
%TD*%
D12*
%TO.P,KR1,1,+5V_TOP_LED*%
%TO.N,Net-(J2-Pin_1)*%
X51800000Y-36164050D03*
%TO.P,KR1,2,GND_TOP_LED*%
%TO.N,GND*%
X51800000Y-38704050D03*
%TO.P,KR1,3,+5V_BOTTOM_LED*%
%TO.N,Net-(J2-Pin_2)*%
X51800000Y-41244050D03*
%TO.P,KR1,4,GND_BOTTOM_LED*%
%TO.N,GND*%
X51800000Y-43784050D03*
%TO.P,KR1,5,SW_IN*%
%TO.N,Net-(J2-Pin_3)*%
X36100000Y-40664050D03*
%TO.P,KR1,6,SW_OUT*%
%TO.N,GND*%
X36100000Y-43204050D03*
%TD*%
%TO.P,KR4,1,+5V_TOP_LED*%
%TO.N,Net-(J2-Pin_13)*%
X52325000Y-84089050D03*
%TO.P,KR4,2,GND_TOP_LED*%
%TO.N,GND*%
X52325000Y-86629050D03*
%TO.P,KR4,3,+5V_BOTTOM_LED*%
%TO.N,Net-(J2-Pin_14)*%
X52325000Y-89169050D03*
%TO.P,KR4,4,GND_BOTTOM_LED*%
%TO.N,GND*%
X52325000Y-91709050D03*
%TO.P,KR4,5,SW_IN*%
%TO.N,Net-(J2-Pin_15)*%
X36625000Y-88589050D03*
%TO.P,KR4,6,SW_OUT*%
%TO.N,GND*%
X36625000Y-91129050D03*
%TD*%
D10*
%TO.P,J1,1,Pin_1*%
%TO.N,GND*%
X23425000Y-164104050D03*
D11*
%TO.P,J1,2,Pin_2*%
%TO.N,+12V*%
X23425000Y-159024050D03*
%TD*%
D13*
%TO.P,J2,1,Pin_1*%
%TO.N,Net-(J2-Pin_1)*%
X23260000Y-150489050D03*
D14*
%TO.P,J2,2,Pin_2*%
%TO.N,Net-(J2-Pin_2)*%
X25800000Y-150489050D03*
%TO.P,J2,3,Pin_3*%
%TO.N,Net-(J2-Pin_3)*%
X23260000Y-147949050D03*
%TO.P,J2,4,Pin_4*%
%TO.N,Net-(J2-Pin_4)*%
X25800000Y-147949050D03*
%TO.P,J2,5,Pin_5*%
%TO.N,Net-(J2-Pin_5)*%
X23260000Y-145409050D03*
%TO.P,J2,6,Pin_6*%
%TO.N,Net-(J2-Pin_6)*%
X25800000Y-145409050D03*
%TO.P,J2,7,Pin_7*%
%TO.N,Net-(J2-Pin_7)*%
X23260000Y-142869050D03*
%TO.P,J2,8,Pin_8*%
%TO.N,Net-(J2-Pin_8)*%
X25800000Y-142869050D03*
%TO.P,J2,9,Pin_9*%
%TO.N,Net-(J2-Pin_9)*%
X23260000Y-140329050D03*
%TO.P,J2,10,Pin_10*%
%TO.N,Net-(J2-Pin_10)*%
X25800000Y-140329050D03*
%TO.P,J2,11,Pin_11*%
%TO.N,Net-(J2-Pin_11)*%
X23260000Y-137789050D03*
%TO.P,J2,12,Pin_12*%
%TO.N,Net-(J2-Pin_12)*%
X25800000Y-137789050D03*
%TO.P,J2,13,Pin_13*%
%TO.N,Net-(J2-Pin_13)*%
X23260000Y-135249050D03*
%TO.P,J2,14,Pin_14*%
%TO.N,Net-(J2-Pin_14)*%
X25800000Y-135249050D03*
%TO.P,J2,15,Pin_15*%
%TO.N,Net-(J2-Pin_15)*%
X23260000Y-132709050D03*
%TO.P,J2,16,Pin_16*%
%TO.N,Net-(J2-Pin_16)*%
X25800000Y-132709050D03*
%TO.P,J2,17,Pin_17*%
%TO.N,Net-(J2-Pin_17)*%
X23260000Y-130169050D03*
%TO.P,J2,18,Pin_18*%
%TO.N,Net-(J2-Pin_18)*%
X25800000Y-130169050D03*
%TO.P,J2,19,Pin_19*%
%TO.N,Net-(J2-Pin_19)*%
X23260000Y-127629050D03*
%TO.P,J2,20,Pin_20*%
%TO.N,unconnected-(J2-Pin_20-Pad20)*%
X25800000Y-127629050D03*
%TO.P,J2,21,Pin_21*%
%TO.N,unconnected-(J2-Pin_21-Pad21)*%
X23260000Y-125089050D03*
%TO.P,J2,22,Pin_22*%
%TO.N,unconnected-(J2-Pin_22-Pad22)*%
X25800000Y-125089050D03*
%TO.P,J2,23,Pin_23*%
%TO.N,unconnected-(J2-Pin_23-Pad23)*%
X23260000Y-122549050D03*
%TO.P,J2,24,Pin_24*%
%TO.N,unconnected-(J2-Pin_24-Pad24)*%
X25800000Y-122549050D03*
%TO.P,J2,25,Pin_25*%
%TO.N,unconnected-(J2-Pin_25-Pad25)*%
X23260000Y-120009050D03*
%TO.P,J2,26,Pin_26*%
%TO.N,unconnected-(J2-Pin_26-Pad26)*%
X25800000Y-120009050D03*
%TO.P,J2,27,Pin_27*%
%TO.N,unconnected-(J2-Pin_27-Pad27)*%
X23260000Y-117469050D03*
%TO.P,J2,28,Pin_28*%
%TO.N,unconnected-(J2-Pin_28-Pad28)*%
X25800000Y-117469050D03*
%TO.P,J2,29,Pin_29*%
%TO.N,unconnected-(J2-Pin_29-Pad29)*%
X23260000Y-114929050D03*
%TO.P,J2,30,Pin_30*%
%TO.N,unconnected-(J2-Pin_30-Pad30)*%
X25800000Y-114929050D03*
%TO.P,J2,31,Pin_31*%
%TO.N,unconnected-(J2-Pin_31-Pad31)*%
X23260000Y-112389050D03*
%TO.P,J2,32,Pin_32*%
%TO.N,unconnected-(J2-Pin_32-Pad32)*%
X25800000Y-112389050D03*
%TO.P,J2,33,Pin_33*%
%TO.N,unconnected-(J2-Pin_33-Pad33)*%
X23260000Y-109849050D03*
%TO.P,J2,34,Pin_34*%
%TO.N,unconnected-(J2-Pin_34-Pad34)*%
X25800000Y-109849050D03*
%TO.P,J2,35,Pin_35*%
%TO.N,unconnected-(J2-Pin_35-Pad35)*%
X23260000Y-107309050D03*
%TO.P,J2,36,Pin_36*%
%TO.N,unconnected-(J2-Pin_36-Pad36)*%
X25800000Y-107309050D03*
%TO.P,J2,37,Pin_37*%
%TO.N,unconnected-(J2-Pin_37-Pad37)*%
X23260000Y-104769050D03*
%TO.P,J2,38,Pin_38*%
%TO.N,unconnected-(J2-Pin_38-Pad38)*%
X25800000Y-104769050D03*
%TO.P,J2,39,Pin_39*%
%TO.N,unconnected-(J2-Pin_39-Pad39)*%
X23260000Y-102229050D03*
%TO.P,J2,40,Pin_40*%
%TO.N,unconnected-(J2-Pin_40-Pad40)*%
X25800000Y-102229050D03*
%TD*%
D15*
%TO.N,Net-(J2-Pin_7)*%
X79777000Y-129084250D03*
%TO.N,Net-(J2-Pin_9)*%
X59404600Y-134821050D03*
%TO.N,Net-(J2-Pin_8)*%
X62989800Y-142226150D03*
X66156400Y-89594750D03*
%TO.N,Net-(J2-Pin_14)*%
X32734900Y-90355250D03*
%TO.N,Net-(J2-Pin_13)*%
X48544800Y-133049350D03*
%TO.N,Net-(J2-Pin_6)*%
X109897900Y-138392150D03*
%TO.N,Net-(J2-Pin_4)*%
X109780700Y-36505150D03*
X100890800Y-143665050D03*
%TO.N,Net-(J2-Pin_5)*%
X21175100Y-144166250D03*
X25892700Y-43512150D03*
%TO.N,Net-(J2-Pin_10)*%
X74940200Y-132953550D03*
%TO.N,Net-(J2-Pin_12)*%
X45099200Y-137268750D03*
%TO.N,Net-(J2-Pin_11)*%
X50226300Y-135486150D03*
%TO.N,Net-(J2-Pin_3)*%
X26075800Y-42523250D03*
X20553400Y-147155750D03*
%TO.N,Net-(J2-Pin_18)*%
X55741900Y-134670950D03*
%TO.N,Net-(J2-Pin_16)*%
X28089400Y-127631150D03*
%TO.N,GND*%
X31850000Y-62780550D03*
X89037600Y-123239750D03*
X88352500Y-91642650D03*
X96925000Y-39533750D03*
X59404600Y-162103250D03*
X79817500Y-123239750D03*
%TO.N,Net-(D44-K)*%
X100890800Y-66439250D03*
X80564600Y-66439250D03*
%TO.N,Net-(D43-K)*%
X71000100Y-132465950D03*
X75060500Y-131560950D03*
%TO.N,Net-(D36-K)*%
X86074300Y-120250250D03*
X77182900Y-120250250D03*
%TO.N,Net-(D35-K)*%
X77383000Y-123239750D03*
X66054000Y-120905150D03*
%TO.N,Net-(D32-K)*%
X47461900Y-111281750D03*
X148303600Y-108292250D03*
%TO.N,Net-(D31-K)*%
X151486800Y-102736650D03*
X115707300Y-102611350D03*
%TO.N,Net-(D30-K)*%
X77184400Y-99323750D03*
X59404600Y-105302750D03*
%TO.N,Net-(D29-K)*%
X31910900Y-102313250D03*
X59404600Y-98558450D03*
%TO.N,Net-(D28-K)*%
X32768600Y-93378550D03*
X27680700Y-91307350D03*
%TO.N,Net-(D25-K)*%
X56441300Y-75571050D03*
X89037600Y-78397250D03*
%TO.N,Net-(D23-K)*%
X103854100Y-60460250D03*
X31490000Y-70026050D03*
%TO.N,Net-(D22-K)*%
X88620200Y-57470750D03*
X106817400Y-57702850D03*
%TO.N,Net-(D17-K)*%
X139413700Y-39533750D03*
X118107000Y-42523250D03*
%TO.N,Net-(D14-K)*%
X120026100Y-28442550D03*
X62367900Y-27575750D03*
%TO.N,Net-(D13-K)*%
X90193500Y-40446250D03*
X58403600Y-38800950D03*
%TO.N,Net-(D11-K)*%
X85983200Y-55295350D03*
X72406900Y-53937450D03*
%TO.N,Net-(D10-K)*%
X57675400Y-53911350D03*
X74365700Y-53835350D03*
%TO.N,Net-(D8-K)*%
X41624800Y-48502250D03*
X27252400Y-52559150D03*
%TO.N,Net-(D5-K)*%
X83111000Y-24095650D03*
X106817400Y-24202150D03*
%TO.N,Net-(D4-K)*%
X85129100Y-24741950D03*
X68269400Y-24611350D03*
%TO.N,+12V*%
X71126800Y-24218550D03*
X89300000Y-63449750D03*
X59404600Y-63449750D03*
X154905900Y-36902150D03*
X121633900Y-37063450D03*
X81022000Y-114271250D03*
X118141700Y-114271250D03*
X89984500Y-45512750D03*
X121633900Y-45512750D03*
%TO.N,Net-(D1-K)*%
X33701400Y-27575750D03*
X47551400Y-27575750D03*
%TD*%
D16*
%TO.N,Net-(J2-Pin_7)*%
X24548300Y-141580750D02*
X23260000Y-142869050D01*
X62643000Y-141580750D02*
X24548300Y-141580750D01*
X62699300Y-141524450D02*
X62643000Y-141580750D01*
X67454100Y-141524450D02*
X62699300Y-141524450D01*
X79777000Y-129201550D02*
X67454100Y-141524450D01*
X79777000Y-129084250D02*
X79777000Y-129201550D01*
%TO.N,Net-(J2-Pin_9)*%
X24530000Y-139059050D02*
X23260000Y-140329050D01*
X24530000Y-139058950D02*
X24530000Y-139059050D01*
X54335200Y-139058950D02*
X24530000Y-139058950D01*
X55580000Y-137814150D02*
X54335200Y-139058950D01*
X55580000Y-136265350D02*
X55580000Y-137814150D01*
X57024300Y-134821050D02*
X55580000Y-136265350D01*
X59404600Y-134821050D02*
X57024300Y-134821050D01*
%TO.N,Net-(J2-Pin_8)*%
X62346900Y-142869050D02*
X62989800Y-142226150D01*
X25800000Y-142869050D02*
X62346900Y-142869050D01*
X78822600Y-89594750D02*
X79298300Y-89119050D01*
X66156400Y-89594750D02*
X78822600Y-89594750D01*
X80450000Y-89119050D02*
X79298300Y-89119050D01*
%TO.N,Net-(J2-Pin_14)*%
X50365000Y-89977350D02*
X51173300Y-89169050D01*
X33112800Y-89977350D02*
X50365000Y-89977350D01*
X32734900Y-90355250D02*
X33112800Y-89977350D01*
X52325000Y-89169050D02*
X51173300Y-89169050D01*
%TO.N,Net-(J2-Pin_13)*%
X24548300Y-133960750D02*
X23260000Y-135249050D01*
X47633400Y-133960750D02*
X24548300Y-133960750D01*
X48544800Y-133049350D02*
X47633400Y-133960750D01*
%TO.N,Net-(J2-Pin_6)*%
X94293300Y-145409050D02*
X25800000Y-145409050D01*
X101310200Y-138392150D02*
X94293300Y-145409050D01*
X109897900Y-138392150D02*
X101310200Y-138392150D01*
%TO.N,Net-(J2-Pin_4)*%
X147100000Y-35989050D02*
X146524200Y-35989050D01*
X110296800Y-35989050D02*
X109780700Y-36505150D01*
X146524200Y-35989050D02*
X110296800Y-35989050D01*
X92904300Y-147949050D02*
X25800000Y-147949050D01*
X97188300Y-143665050D02*
X92904300Y-147949050D01*
X100890800Y-143665050D02*
X97188300Y-143665050D01*
X109780700Y-36505150D02*
X109780700Y-35989050D01*
X109780700Y-35989050D02*
X109780700Y-36505150D01*
%TO.N,Net-(J2-Pin_5)*%
X22017200Y-144166250D02*
X21175100Y-144166250D01*
X23260000Y-145409050D02*
X22017200Y-144166250D01*
X147100000Y-41069050D02*
X145948300Y-41069050D01*
X143682600Y-38803350D02*
X145948300Y-41069050D01*
X119904700Y-38803350D02*
X143682600Y-38803350D01*
X116252600Y-42455450D02*
X119904700Y-38803350D01*
X78353700Y-42455450D02*
X116252600Y-42455450D01*
X77996400Y-42098150D02*
X78353700Y-42455450D01*
X57790200Y-42098150D02*
X77996400Y-42098150D01*
X57447900Y-42440450D02*
X57790200Y-42098150D01*
X37756600Y-42440450D02*
X57447900Y-42440450D01*
X37365200Y-42049050D02*
X37756600Y-42440450D01*
X34412100Y-42049050D02*
X37365200Y-42049050D01*
X32949000Y-43512150D02*
X34412100Y-42049050D01*
X25892700Y-43512150D02*
X32949000Y-43512150D01*
%TO.N,Net-(J2-Pin_10)*%
X67564700Y-140329050D02*
X25800000Y-140329050D01*
X74940200Y-132953550D02*
X67564700Y-140329050D01*
%TO.N,Net-(J2-Pin_12)*%
X26320300Y-137268750D02*
X45099200Y-137268750D01*
X25800000Y-137789050D02*
X26320300Y-137268750D01*
%TO.N,Net-(J2-Pin_11)*%
X24548300Y-136500750D02*
X23260000Y-137789050D01*
X49211700Y-136500750D02*
X24548300Y-136500750D01*
X50226300Y-135486150D02*
X49211700Y-136500750D01*
%TO.N,Net-(J2-Pin_3)*%
X22466700Y-147155750D02*
X23260000Y-147949050D01*
X20553400Y-147155750D02*
X22466700Y-147155750D01*
X36100000Y-40664050D02*
X34948300Y-40664050D01*
X27935000Y-40664050D02*
X26075800Y-42523250D01*
X34948300Y-40664050D02*
X27935000Y-40664050D01*
%TO.N,Net-(J2-Pin_18)*%
X51240000Y-130169050D02*
X25800000Y-130169050D01*
X55741900Y-134670950D02*
X51240000Y-130169050D01*
%TO.N,Net-(J2-Pin_19)*%
X60119900Y-136059150D02*
X59390000Y-136789050D01*
X60119900Y-134453550D02*
X60119900Y-136059150D01*
X54565400Y-128899050D02*
X60119900Y-134453550D01*
X24530000Y-128899050D02*
X54565400Y-128899050D01*
X23260000Y-127629050D02*
X24530000Y-128899050D01*
%TO.N,Net-(J2-Pin_17)*%
X54310000Y-136789050D02*
X53058300Y-136789050D01*
X24530000Y-131439050D02*
X23260000Y-130169050D01*
X47926800Y-131439050D02*
X24530000Y-131439050D01*
X53058300Y-136570550D02*
X47926800Y-131439050D01*
X53058300Y-136789050D02*
X53058300Y-136570550D01*
%TO.N,Net-(J2-Pin_16)*%
X105847900Y-127631150D02*
X110015000Y-123464050D01*
X28089400Y-127631150D02*
X105847900Y-127631150D01*
%TO.N,GND*%
X52325000Y-86629050D02*
X52325000Y-87780750D01*
X81618100Y-91642650D02*
X81601700Y-91659050D01*
X88352500Y-91642650D02*
X81618100Y-91642650D01*
X79500000Y-43834050D02*
X78348300Y-43834050D01*
X51800000Y-43784050D02*
X52951700Y-43784050D01*
X77768300Y-43254050D02*
X63800000Y-43254050D01*
X78348300Y-43834050D02*
X77768300Y-43254050D01*
X53481700Y-43254050D02*
X52951700Y-43784050D01*
X63800000Y-43254050D02*
X53481700Y-43254050D01*
X81025900Y-91659050D02*
X81601700Y-91659050D01*
X81025900Y-91659050D02*
X80450000Y-91659050D01*
X66481700Y-91659050D02*
X65901700Y-91079050D01*
X80450000Y-91659050D02*
X66481700Y-91659050D01*
X133131700Y-43609050D02*
X132551700Y-43029050D01*
X147100000Y-43609050D02*
X133131700Y-43609050D01*
X131400000Y-43029050D02*
X132551700Y-43029050D01*
X51800000Y-43784050D02*
X51224200Y-43784050D01*
X36100000Y-43204050D02*
X37251700Y-43204050D01*
X42336400Y-52294150D02*
X42336400Y-43784050D01*
X31850000Y-62780550D02*
X42336400Y-52294150D01*
X51224200Y-43784050D02*
X42336400Y-43784050D01*
X37831700Y-43784050D02*
X37251700Y-43204050D01*
X42336400Y-43784050D02*
X37831700Y-43784050D01*
X81431400Y-39533750D02*
X80651700Y-38754050D01*
X96925000Y-39533750D02*
X81431400Y-39533750D01*
X89261900Y-123464050D02*
X89037600Y-123239750D01*
X107475000Y-123464050D02*
X89261900Y-123464050D01*
X64750000Y-91079050D02*
X65199300Y-91079050D01*
X65199300Y-91079050D02*
X65901700Y-91079050D01*
X64245800Y-90125550D02*
X53476700Y-90125550D01*
X65199300Y-91079050D02*
X64245800Y-90125550D01*
X53476700Y-88212650D02*
X53476700Y-90125550D01*
X53044800Y-87780750D02*
X53476700Y-88212650D01*
X52325000Y-87780750D02*
X53044800Y-87780750D01*
X53044900Y-90557350D02*
X52325000Y-90557350D01*
X53476700Y-90125550D02*
X53044900Y-90557350D01*
X27327500Y-162103250D02*
X59404600Y-162103250D01*
X25326700Y-164104050D02*
X27327500Y-162103250D01*
X23425000Y-164104050D02*
X25326700Y-164104050D01*
X79500000Y-38754050D02*
X80651700Y-38754050D01*
X98297900Y-38160850D02*
X96925000Y-39533750D01*
X145580100Y-38160850D02*
X98297900Y-38160850D01*
X145948300Y-38529050D02*
X145580100Y-38160850D01*
X147100000Y-38529050D02*
X145948300Y-38529050D01*
X52325000Y-91709050D02*
X52325000Y-91133150D01*
X52325000Y-91133150D02*
X52325000Y-90557350D01*
X37780800Y-91133150D02*
X37776700Y-91129050D01*
X52325000Y-91133150D02*
X37780800Y-91133150D01*
X36625000Y-91129050D02*
X37776700Y-91129050D01*
X79817500Y-123239750D02*
X89037600Y-123239750D01*
X88352500Y-91642650D02*
X88613200Y-91903350D01*
X88613200Y-91903350D02*
X88352500Y-91642650D01*
%TO.N,Net-(D44-K)*%
X100890800Y-66439250D02*
X80564600Y-66439250D01*
%TO.N,Net-(D43-K)*%
X71905100Y-131560950D02*
X75060500Y-131560950D01*
X71000100Y-132465950D02*
X71905100Y-131560950D01*
%TO.N,Net-(D36-K)*%
X86074300Y-120250250D02*
X77182900Y-120250250D01*
%TO.N,Net-(D35-K)*%
X68388600Y-123239750D02*
X66054000Y-120905150D01*
X77383000Y-123239750D02*
X68388600Y-123239750D01*
%TO.N,Net-(D32-K)*%
X145314100Y-111281750D02*
X47461900Y-111281750D01*
X148303600Y-108292250D02*
X145314100Y-111281750D01*
%TO.N,Net-(D31-K)*%
X115832600Y-102736650D02*
X115707300Y-102611350D01*
X151486800Y-102736650D02*
X115832600Y-102736650D01*
%TO.N,Net-(D30-K)*%
X71205400Y-105302750D02*
X59404600Y-105302750D01*
X77184400Y-99323750D02*
X71205400Y-105302750D01*
%TO.N,Net-(D29-K)*%
X55649800Y-102313250D02*
X59404600Y-98558450D01*
X31910900Y-102313250D02*
X55649800Y-102313250D01*
%TO.N,Net-(D28-K)*%
X30697400Y-91307350D02*
X27680700Y-91307350D01*
X32768600Y-93378550D02*
X30697400Y-91307350D01*
%TO.N,Net-(D25-K)*%
X86211400Y-75571050D02*
X89037600Y-78397250D01*
X56441300Y-75571050D02*
X86211400Y-75571050D01*
%TO.N,Net-(D23-K)*%
X41055800Y-60460250D02*
X31490000Y-70026050D01*
X103854100Y-60460250D02*
X41055800Y-60460250D01*
%TO.N,Net-(D22-K)*%
X106585300Y-57470750D02*
X106817400Y-57702850D01*
X88620200Y-57470750D02*
X106585300Y-57470750D01*
X106817400Y-57702850D02*
X106585300Y-57470750D01*
X106585300Y-57470750D02*
X106817400Y-57702850D01*
X88620200Y-57470750D02*
X87150000Y-58940950D01*
X87150000Y-58940950D02*
X88620200Y-57470750D01*
%TO.N,Net-(D17-K)*%
X118871200Y-41759050D02*
X118107000Y-42523250D01*
X137188400Y-41759050D02*
X118871200Y-41759050D01*
X139413700Y-39533750D02*
X137188400Y-41759050D01*
%TO.N,Net-(D14-K)*%
X63234700Y-28442550D02*
X62367900Y-27575750D01*
X120026100Y-28442550D02*
X63234700Y-28442550D01*
%TO.N,Net-(D13-K)*%
X68378200Y-38800950D02*
X58403600Y-38800950D01*
X69601300Y-40024050D02*
X68378200Y-38800950D01*
X80487100Y-40024050D02*
X69601300Y-40024050D01*
X80909300Y-40446250D02*
X80487100Y-40024050D01*
X90193500Y-40446250D02*
X80909300Y-40446250D01*
%TO.N,Net-(D11-K)*%
X73764800Y-55295350D02*
X72406900Y-53937450D01*
X85983200Y-55295350D02*
X73764800Y-55295350D01*
%TO.N,Net-(D10-K)*%
X73720600Y-53190250D02*
X74365700Y-53835350D01*
X58396500Y-53190250D02*
X73720600Y-53190250D01*
X57675400Y-53911350D02*
X58396500Y-53190250D01*
%TO.N,Net-(D8-K)*%
X37567900Y-52559150D02*
X27252400Y-52559150D01*
X41624800Y-48502250D02*
X37567900Y-52559150D01*
%TO.N,Net-(D5-K)*%
X83166400Y-24040250D02*
X83111000Y-24095650D01*
X106655500Y-24040250D02*
X83166400Y-24040250D01*
X106817400Y-24202150D02*
X106655500Y-24040250D01*
%TO.N,Net-(D4-K)*%
X68631300Y-24973250D02*
X68269400Y-24611350D01*
X84897800Y-24973250D02*
X68631300Y-24973250D01*
X85129100Y-24741950D02*
X84897800Y-24973250D01*
X68269400Y-24611350D02*
X69257200Y-23623550D01*
X69257200Y-23623550D02*
X68269400Y-24611350D01*
X85129100Y-24741950D02*
X85260000Y-24872850D01*
X85260000Y-24872850D02*
X85129100Y-24741950D01*
D17*
%TO.N,+12V*%
X68047300Y-21139050D02*
X36665000Y-21139050D01*
X71126800Y-24218550D02*
X68047300Y-21139050D01*
X89300000Y-63449750D02*
X59404600Y-63449750D01*
X121811200Y-37240750D02*
X121633900Y-37063450D01*
X154567300Y-37240750D02*
X121811200Y-37240750D01*
X154905900Y-36902150D02*
X154567300Y-37240750D01*
X118141700Y-114271250D02*
X81022000Y-114271250D01*
X121633900Y-45512750D02*
X89984500Y-45512750D01*
D16*
%TO.N,Net-(D1-K)*%
X33701400Y-27575750D02*
X47551400Y-27575750D01*
%TD*%
M02*
