M48
; DRILL file {KiCad 9.0.2} date 2025-07-18T21:00:18+0200
; FORMAT={-:-/ absolute / inch / decimal}
; #@! TF.CreationDate,2025-07-18T21:00:18+02:00
; #@! TF.GenerationSoftware,Kicad,Pcbnew,9.0.2
; #@! TF.FileFunction,Plated,1,2,PTH
FMAT,2
INCH
; #@! TA.AperFunction,Plated,PTH,ViaDrill
T1C0.0118
; #@! TA.AperFunction,Plated,PTH,ComponentDrill
T2C0.0236
; #@! TA.AperFunction,Plated,PTH,ComponentDrill
T3C0.0394
; #@! TA.AperFunction,Plated,PTH,ComponentDrill
T4C0.0598
%
G90
G05
T1
X0.8092Y-5.7935
X0.8337Y-5.6758
X1.0194Y-1.7131
X1.0266Y-1.6741
X1.0729Y-2.0693
X1.0898Y-3.5948
X1.1059Y-5.0248
X1.2398Y-2.7569
X1.2539Y-2.4717
X1.2563Y-4.0281
X1.2888Y-3.5573
X1.2901Y-3.6763
X1.3268Y-1.0857
X1.6388Y-1.9095
X1.7756Y-5.4043
X1.8686Y-4.3812
X1.8721Y-1.0857
X1.9112Y-5.2382
X1.9774Y-5.3341
X2.1946Y-5.302
X2.2221Y-2.9752
X2.2707Y-2.1225
X2.2994Y-1.5276
X2.3388Y-2.498
X2.3388Y-3.8803
X2.3388Y-4.1458
X2.3388Y-5.3079
X2.3388Y-6.382
X2.4554Y-1.0857
X2.4799Y-5.5995
X2.6006Y-4.76
X2.6046Y-3.5274
X2.6878Y-0.969
X2.7953Y-5.2152
X2.8003Y-0.9535
X2.8507Y-2.1235
X2.9278Y-2.1195
X2.9504Y-5.2344
X2.9551Y-5.1796
X3.0387Y-4.7343
X3.0388Y-3.9104
X3.0466Y-4.852
X3.1408Y-5.0821
X3.1424Y-4.852
X3.1718Y-2.6157
X3.1898Y-4.4989
X3.2721Y-0.9486
X3.3515Y-0.9741
X3.3852Y-2.177
X3.3888Y-4.7343
X3.4784Y-3.608
X3.489Y-2.2626
X3.5054Y-3.0865
X3.5054Y-4.852
X3.5157Y-2.498
X3.5427Y-1.7918
X3.5509Y-1.5924
X3.8159Y-1.5564
X3.9721Y-2.6157
X3.9721Y-5.6561
X4.0887Y-2.3803
X4.2054Y-0.9528
X4.2054Y-2.2718
X4.3221Y-1.4372
X4.3267Y-5.4485
X4.5554Y-4.0398
X4.6499Y-1.6741
X4.6512Y-4.4989
X4.7254Y-1.1198
X4.7887Y-1.4592
X4.7887Y-1.7918
X5.4887Y-1.5564
X5.8387Y-4.2635
X5.964Y-4.0447
X6.0987Y-1.4528
T2
X1.4213Y-1.6009
X1.4213Y-1.7009
X1.4419Y-3.4878
X1.4419Y-3.5878
X2.0394Y-1.4238
X2.0394Y-1.5238
X2.0394Y-1.6238
X2.0394Y-1.7238
X2.06Y-3.3106
X2.06Y-3.4106
X2.06Y-3.5106
X2.06Y-3.6106
X2.5118Y-1.6029
X2.5118Y-1.7029
X2.5492Y-3.4858
X2.5492Y-3.5858
X3.1299Y-1.4258
X3.1299Y-1.5257
X3.1299Y-1.6258
X3.1299Y-1.7257
X3.1673Y-3.3086
X3.1673Y-3.4086
X3.1673Y-3.5086
X3.1673Y-3.6086
X5.1732Y-1.5941
X5.1732Y-1.6941
X5.7913Y-1.4169
X5.7913Y-1.5169
X5.7913Y-1.6169
X5.7913Y-1.7169
T3
X0.9157Y-4.0248
X0.9157Y-4.1248
X0.9157Y-4.2248
X0.9157Y-4.3248
X0.9157Y-4.4248
X0.9157Y-4.5248
X0.9157Y-4.6248
X0.9157Y-4.7248
X0.9157Y-4.8248
X0.9157Y-4.9248
X0.9157Y-5.0248
X0.9157Y-5.1248
X0.9157Y-5.2248
X0.9157Y-5.3248
X0.9157Y-5.4248
X0.9157Y-5.5248
X0.9157Y-5.6248
X0.9157Y-5.7248
X0.9157Y-5.8248
X0.9157Y-5.9248
X1.0157Y-4.0248
X1.0157Y-4.1248
X1.0157Y-4.2248
X1.0157Y-4.3248
X1.0157Y-4.4248
X1.0157Y-4.5248
X1.0157Y-4.6248
X1.0157Y-4.7248
X1.0157Y-4.8248
X1.0157Y-4.9248
X1.0157Y-5.0248
X1.0157Y-5.1248
X1.0157Y-5.2248
X1.0157Y-5.3248
X1.0157Y-5.4248
X1.0157Y-5.5248
X1.0157Y-5.6248
X1.0157Y-5.7248
X1.0157Y-5.8248
X1.0157Y-5.9248
X2.1382Y-5.3854
X2.2382Y-5.3854
X2.3382Y-5.3854
X2.4382Y-5.3854
X4.2313Y-4.8608
X4.3313Y-4.8608
T4
X0.9222Y-6.2608
X0.9222Y-6.4608
X1.2435Y-0.8322
X1.4435Y-0.8322
M30
