%TF.GenerationSoftware,KiCad,Pcbnew,9.0.2*%
%TF.CreationDate,2025-07-18T21:00:18+02:00*%
%TF.ProjectId,a320-overhead-ventilation_eng_rain-rplnt-wipers,61333230-2d6f-4766-9572-686561642d76,rev?*%
%TF.SameCoordinates,Original*%
%TF.FileFunction,Soldermask,Bot*%
%TF.FilePolarity,Negative*%
%FSLAX46Y46*%
G04 Gerber Fmt 4.6, Leading zero omitted, Abs format (unit mm)*
G04 Created by KiCad (PCBNEW 9.0.2) date 2025-07-18 21:00:18*
%MOMM*%
%LPD*%
G01*
G04 APERTURE LIST*
%ADD10R,3.000000X3.000000*%
%ADD11C,3.000000*%
%ADD12R,1.500000X1.500000*%
%ADD13R,1.700000X1.700000*%
%ADD14C,1.700000*%
G04 APERTURE END LIST*
D10*
%TO.C,J5*%
X31585000Y-21139050D03*
D11*
X36665000Y-21139050D03*
%TD*%
D12*
%TO.C,KR2*%
X79500000Y-36214050D03*
X79500000Y-38754050D03*
X79500000Y-41294050D03*
X79500000Y-43834050D03*
X63800000Y-40714050D03*
X63800000Y-43254050D03*
%TD*%
%TO.C,KR5*%
X80450000Y-84039050D03*
X80450000Y-86579050D03*
X80450000Y-89119050D03*
X80450000Y-91659050D03*
X64750000Y-88539050D03*
X64750000Y-91079050D03*
%TD*%
D13*
%TO.C,J4*%
X54310000Y-136789050D03*
D14*
X56850000Y-136789050D03*
X59390000Y-136789050D03*
X61930000Y-136789050D03*
%TD*%
D12*
%TO.C,KR3*%
X147100000Y-35989050D03*
X147100000Y-38529050D03*
X147100000Y-41069050D03*
X147100000Y-43609050D03*
X131400000Y-40489050D03*
X131400000Y-43029050D03*
%TD*%
D13*
%TO.C,J3*%
X107475000Y-123464050D03*
D14*
X110015000Y-123464050D03*
%TD*%
D12*
%TO.C,KR1*%
X51800000Y-36164050D03*
X51800000Y-38704050D03*
X51800000Y-41244050D03*
X51800000Y-43784050D03*
X36100000Y-40664050D03*
X36100000Y-43204050D03*
%TD*%
%TO.C,KR4*%
X52325000Y-84089050D03*
X52325000Y-86629050D03*
X52325000Y-89169050D03*
X52325000Y-91709050D03*
X36625000Y-88589050D03*
X36625000Y-91129050D03*
%TD*%
D10*
%TO.C,J1*%
X23425000Y-164104050D03*
D11*
X23425000Y-159024050D03*
%TD*%
D13*
%TO.C,J2*%
X23260000Y-150489050D03*
D14*
X25800000Y-150489050D03*
X23260000Y-147949050D03*
X25800000Y-147949050D03*
X23260000Y-145409050D03*
X25800000Y-145409050D03*
X23260000Y-142869050D03*
X25800000Y-142869050D03*
X23260000Y-140329050D03*
X25800000Y-140329050D03*
X23260000Y-137789050D03*
X25800000Y-137789050D03*
X23260000Y-135249050D03*
X25800000Y-135249050D03*
X23260000Y-132709050D03*
X25800000Y-132709050D03*
X23260000Y-130169050D03*
X25800000Y-130169050D03*
X23260000Y-127629050D03*
X25800000Y-127629050D03*
X23260000Y-125089050D03*
X25800000Y-125089050D03*
X23260000Y-122549050D03*
X25800000Y-122549050D03*
X23260000Y-120009050D03*
X25800000Y-120009050D03*
X23260000Y-117469050D03*
X25800000Y-117469050D03*
X23260000Y-114929050D03*
X25800000Y-114929050D03*
X23260000Y-112389050D03*
X25800000Y-112389050D03*
X23260000Y-109849050D03*
X25800000Y-109849050D03*
X23260000Y-107309050D03*
X25800000Y-107309050D03*
X23260000Y-104769050D03*
X25800000Y-104769050D03*
X23260000Y-102229050D03*
X25800000Y-102229050D03*
%TD*%
M02*
