%TF.GenerationSoftware,KiCad,Pcbnew,9.0.2*%
%TF.CreationDate,2025-07-18T21:00:17+02:00*%
%TF.ProjectId,a320-overhead-ventilation_eng_rain-rplnt-wipers,61333230-2d6f-4766-9572-686561642d76,rev?*%
%TF.SameCoordinates,Original*%
%TF.FileFunction,Soldermask,Top*%
%TF.FilePolarity,Negative*%
%FSLAX46Y46*%
G04 Gerber Fmt 4.6, Leading zero omitted, Abs format (unit mm)*
G04 Created by KiCad (PCBNEW 9.0.2) date 2025-07-18 21:00:17*
%MOMM*%
%LPD*%
G01*
G04 APERTURE LIST*
G04 Aperture macros list*
%AMRoundRect*
0 Rectangle with rounded corners*
0 $1 Rounding radius*
0 $2 $3 $4 $5 $6 $7 $8 $9 X,Y pos of 4 corners*
0 Add a 4 corners polygon primitive as box body*
4,1,4,$2,$3,$4,$5,$6,$7,$8,$9,$2,$3,0*
0 Add four circle primitives for the rounded corners*
1,1,$1+$1,$2,$3*
1,1,$1+$1,$4,$5*
1,1,$1+$1,$6,$7*
1,1,$1+$1,$8,$9*
0 Add four rect primitives between the rounded corners*
20,1,$1+$1,$2,$3,$4,$5,0*
20,1,$1+$1,$4,$5,$6,$7,0*
20,1,$1+$1,$6,$7,$8,$9,0*
20,1,$1+$1,$8,$9,$2,$3,0*%
G04 Aperture macros list end*
%ADD10R,3.000000X3.000000*%
%ADD11C,3.000000*%
%ADD12RoundRect,0.165000X0.885000X-0.385000X0.885000X0.385000X-0.885000X0.385000X-0.885000X-0.385000X0*%
%ADD13RoundRect,0.315000X0.735000X-0.735000X0.735000X0.735000X-0.735000X0.735000X-0.735000X-0.735000X0*%
%ADD14R,1.500000X1.500000*%
%ADD15RoundRect,0.250000X-0.400000X-0.625000X0.400000X-0.625000X0.400000X0.625000X-0.400000X0.625000X0*%
%ADD16RoundRect,0.165000X-0.385000X-0.885000X0.385000X-0.885000X0.385000X0.885000X-0.385000X0.885000X0*%
%ADD17RoundRect,0.315000X-0.735000X-0.735000X0.735000X-0.735000X0.735000X0.735000X-0.735000X0.735000X0*%
%ADD18R,1.700000X1.700000*%
%ADD19C,1.700000*%
G04 APERTURE END LIST*
D10*
%TO.C,J5*%
X31585000Y-21139050D03*
D11*
X36665000Y-21139050D03*
%TD*%
D12*
%TO.C,D14*%
X58025000Y-42764050D03*
D13*
X58025000Y-40614050D03*
%TD*%
D14*
%TO.C,KR2*%
X79500000Y-36214050D03*
X79500000Y-38754050D03*
X79500000Y-41294050D03*
X79500000Y-43834050D03*
X63800000Y-40714050D03*
X63800000Y-43254050D03*
%TD*%
D15*
%TO.C,R2*%
X104525000Y-33614050D03*
X107625000Y-33614050D03*
%TD*%
D16*
%TO.C,D45*%
X100500000Y-63539050D03*
D17*
X102650000Y-63539050D03*
%TD*%
D16*
%TO.C,D10*%
X56950000Y-55814050D03*
D17*
X59100000Y-55814050D03*
%TD*%
D14*
%TO.C,KR5*%
X80450000Y-84039050D03*
X80450000Y-86579050D03*
X80450000Y-89119050D03*
X80450000Y-91659050D03*
X64750000Y-88539050D03*
X64750000Y-91079050D03*
%TD*%
D15*
%TO.C,R8*%
X28750000Y-64389050D03*
X31850000Y-64389050D03*
%TD*%
D16*
%TO.C,D12*%
X86275000Y-53564050D03*
D17*
X88425000Y-53564050D03*
%TD*%
D16*
%TO.C,D35*%
X64375000Y-119014050D03*
D17*
X66525000Y-119014050D03*
%TD*%
D18*
%TO.C,J4*%
X54310000Y-136789050D03*
D19*
X56850000Y-136789050D03*
X59390000Y-136789050D03*
X61930000Y-136789050D03*
%TD*%
D16*
%TO.C,D40*%
X121750000Y-127339050D03*
D17*
X123900000Y-127339050D03*
%TD*%
D16*
%TO.C,D37*%
X85400000Y-108214050D03*
D17*
X87550000Y-108214050D03*
%TD*%
D16*
%TO.C,D28*%
X27525000Y-89714050D03*
D17*
X29675000Y-89714050D03*
%TD*%
D16*
%TO.C,D9*%
X43525000Y-55939050D03*
D17*
X45675000Y-55939050D03*
%TD*%
D16*
%TO.C,D24*%
X28700000Y-72964050D03*
D17*
X30850000Y-72964050D03*
%TD*%
D16*
%TO.C,D2*%
X44060000Y-21164050D03*
D17*
X46210000Y-21164050D03*
%TD*%
D15*
%TO.C,R11*%
X43225000Y-117939050D03*
X46325000Y-117939050D03*
%TD*%
D16*
%TO.C,D1*%
X29985000Y-27489050D03*
D17*
X32135000Y-27489050D03*
%TD*%
D14*
%TO.C,KR3*%
X147100000Y-35989050D03*
X147100000Y-38529050D03*
X147100000Y-41069050D03*
X147100000Y-43609050D03*
X131400000Y-40489050D03*
X131400000Y-43029050D03*
%TD*%
D16*
%TO.C,D25*%
X57450000Y-73189050D03*
D17*
X59600000Y-73189050D03*
%TD*%
D16*
%TO.C,D11*%
X72625000Y-55939050D03*
D17*
X74775000Y-55939050D03*
%TD*%
D16*
%TO.C,D23*%
X103875000Y-55389050D03*
D17*
X106025000Y-55389050D03*
%TD*%
D16*
%TO.C,D4*%
X69550000Y-20914050D03*
D17*
X71700000Y-20914050D03*
%TD*%
D16*
%TO.C,D27*%
X86900000Y-100639050D03*
D17*
X89050000Y-100639050D03*
%TD*%
D15*
%TO.C,R15*%
X93825000Y-47389050D03*
X96925000Y-47389050D03*
%TD*%
D16*
%TO.C,D18*%
X138350000Y-21639050D03*
D17*
X140500000Y-21639050D03*
%TD*%
D16*
%TO.C,D17*%
X119125000Y-51939050D03*
D17*
X121275000Y-51939050D03*
%TD*%
D16*
%TO.C,D29*%
X31360000Y-106814050D03*
D17*
X33510000Y-106814050D03*
%TD*%
D16*
%TO.C,D5*%
X84375000Y-26239050D03*
D17*
X86525000Y-26239050D03*
%TD*%
D16*
%TO.C,D6*%
X104575000Y-26364050D03*
D17*
X106725000Y-26364050D03*
%TD*%
D16*
%TO.C,D32*%
X150025000Y-100614050D03*
D17*
X152175000Y-100614050D03*
%TD*%
D16*
%TO.C,D7*%
X27025000Y-39539050D03*
D17*
X29175000Y-39539050D03*
%TD*%
D15*
%TO.C,R4*%
X93950000Y-53464050D03*
X97050000Y-53464050D03*
%TD*%
D16*
%TO.C,D42*%
X128750000Y-108564050D03*
D17*
X130900000Y-108564050D03*
%TD*%
D16*
%TO.C,D20*%
X153675000Y-50264050D03*
D17*
X155825000Y-50264050D03*
%TD*%
D16*
%TO.C,D8*%
X27375000Y-54264050D03*
D17*
X29525000Y-54264050D03*
%TD*%
D16*
%TO.C,D34*%
X67350000Y-110939050D03*
D17*
X69500000Y-110939050D03*
%TD*%
D18*
%TO.C,J3*%
X107475000Y-123464050D03*
D19*
X110015000Y-123464050D03*
%TD*%
D15*
%TO.C,R6*%
X151425000Y-21739050D03*
X154525000Y-21739050D03*
%TD*%
D12*
%TO.C,D30*%
X58925000Y-102489050D03*
D13*
X58925000Y-100339050D03*
%TD*%
D16*
%TO.C,D21*%
X139075000Y-56089050D03*
D17*
X141225000Y-56089050D03*
%TD*%
D15*
%TO.C,R14*%
X136225000Y-108439050D03*
X139325000Y-108439050D03*
%TD*%
%TO.C,R12*%
X85275000Y-115214050D03*
X88375000Y-115214050D03*
%TD*%
D16*
%TO.C,D22*%
X87150000Y-69389050D03*
D17*
X89300000Y-69389050D03*
%TD*%
D16*
%TO.C,D3*%
X55775000Y-26239050D03*
D17*
X57925000Y-26239050D03*
%TD*%
D15*
%TO.C,R7*%
X138850000Y-62364050D03*
X141950000Y-62364050D03*
%TD*%
D16*
%TO.C,D16*%
X119225000Y-38989050D03*
D17*
X121375000Y-38989050D03*
%TD*%
D16*
%TO.C,D41*%
X119250000Y-114389050D03*
D17*
X121400000Y-114389050D03*
%TD*%
D16*
%TO.C,D33*%
X43475000Y-111064050D03*
D17*
X45625000Y-111064050D03*
%TD*%
D15*
%TO.C,R1*%
X55475000Y-21264050D03*
X58575000Y-21264050D03*
%TD*%
D16*
%TO.C,D43*%
X72925000Y-142764050D03*
D17*
X75075000Y-142764050D03*
%TD*%
D16*
%TO.C,D38*%
X93375000Y-115214050D03*
D17*
X95525000Y-115214050D03*
%TD*%
D16*
%TO.C,D15*%
X119700000Y-26764050D03*
D17*
X121850000Y-26764050D03*
%TD*%
D15*
%TO.C,R5*%
X112125000Y-33739050D03*
X115225000Y-33739050D03*
%TD*%
%TO.C,R13*%
X86950000Y-131489050D03*
X90050000Y-131489050D03*
%TD*%
D16*
%TO.C,D19*%
X153900000Y-34714050D03*
D17*
X156050000Y-34714050D03*
%TD*%
D15*
%TO.C,R10*%
X76725000Y-108314050D03*
X79825000Y-108314050D03*
%TD*%
D16*
%TO.C,D31*%
X117000000Y-100364050D03*
D17*
X119150000Y-100364050D03*
%TD*%
D16*
%TO.C,D39*%
X94425000Y-131489050D03*
D17*
X96575000Y-131489050D03*
%TD*%
D14*
%TO.C,KR1*%
X51800000Y-36164050D03*
X51800000Y-38704050D03*
X51800000Y-41244050D03*
X51800000Y-43784050D03*
X36100000Y-40664050D03*
X36100000Y-43204050D03*
%TD*%
D15*
%TO.C,R3*%
X36950000Y-62714050D03*
X40050000Y-62714050D03*
%TD*%
D16*
%TO.C,D26*%
X87025000Y-84014050D03*
D17*
X89175000Y-84014050D03*
%TD*%
D15*
%TO.C,R9*%
X86700000Y-92164050D03*
X89800000Y-92164050D03*
%TD*%
D16*
%TO.C,D44*%
X81250000Y-63439050D03*
D17*
X83400000Y-63439050D03*
%TD*%
D16*
%TO.C,D13*%
X86400000Y-40489050D03*
D17*
X88550000Y-40489050D03*
%TD*%
D16*
%TO.C,D36*%
X75900000Y-130064050D03*
D17*
X78050000Y-130064050D03*
%TD*%
D14*
%TO.C,KR4*%
X52325000Y-84089050D03*
X52325000Y-86629050D03*
X52325000Y-89169050D03*
X52325000Y-91709050D03*
X36625000Y-88589050D03*
X36625000Y-91129050D03*
%TD*%
D10*
%TO.C,J1*%
X23425000Y-164104050D03*
D11*
X23425000Y-159024050D03*
%TD*%
D18*
%TO.C,J2*%
X23260000Y-150489050D03*
D19*
X25800000Y-150489050D03*
X23260000Y-147949050D03*
X25800000Y-147949050D03*
X23260000Y-145409050D03*
X25800000Y-145409050D03*
X23260000Y-142869050D03*
X25800000Y-142869050D03*
X23260000Y-140329050D03*
X25800000Y-140329050D03*
X23260000Y-137789050D03*
X25800000Y-137789050D03*
X23260000Y-135249050D03*
X25800000Y-135249050D03*
X23260000Y-132709050D03*
X25800000Y-132709050D03*
X23260000Y-130169050D03*
X25800000Y-130169050D03*
X23260000Y-127629050D03*
X25800000Y-127629050D03*
X23260000Y-125089050D03*
X25800000Y-125089050D03*
X23260000Y-122549050D03*
X25800000Y-122549050D03*
X23260000Y-120009050D03*
X25800000Y-120009050D03*
X23260000Y-117469050D03*
X25800000Y-117469050D03*
X23260000Y-114929050D03*
X25800000Y-114929050D03*
X23260000Y-112389050D03*
X25800000Y-112389050D03*
X23260000Y-109849050D03*
X25800000Y-109849050D03*
X23260000Y-107309050D03*
X25800000Y-107309050D03*
X23260000Y-104769050D03*
X25800000Y-104769050D03*
X23260000Y-102229050D03*
X25800000Y-102229050D03*
%TD*%
M02*
