M48
; DRILL file {KiCad 9.0.2} date 2025-07-08T20:46:09+0200
; FORMAT={-:-/ absolute / inch / decimal}
; #@! TF.CreationDate,2025-07-08T20:46:09+02:00
; #@! TF.GenerationSoftware,Kicad,Pcbnew,9.0.2
; #@! TF.FileFunction,Plated,1,2,PTH
FMAT,2
INCH
; #@! TA.AperFunction,Plated,PTH,ViaDrill
T1C0.0118
; #@! TA.AperFunction,Plated,PTH,ComponentDrill
T2C0.0236
; #@! TA.AperFunction,Plated,PTH,ComponentDrill
T3C0.0394
; #@! TA.AperFunction,Plated,PTH,ComponentDrill
T4C0.0598
%
G90
G05
T1
X2.3353Y-5.8897
X2.4655Y-4.369
X2.4765Y-6.7085
X2.5395Y-5.1528
X2.5395Y-5.9249
X2.5903Y-6.7085
X2.8056Y-6.2406
X2.821Y-5.3048
X2.9558Y-6.4745
X3.0408Y-5.3048
X3.1584Y-3.7842
X3.217Y-4.7143
X3.2405Y-4.369
X3.276Y-4.2521
X3.3935Y-6.4745
X3.4481Y-4.9328
X3.6235Y-3.8202
X3.7307Y-6.4665
X3.8005Y-4.5243
X3.8219Y-4.2176
X3.8639Y-7.0737
X3.9002Y-3.3377
X3.9796Y-5.8122
X3.9815Y-4.603
X3.9817Y-6.0102
X4.003Y-4.2756
X4.0046Y-7.5273
X4.0066Y-6.4745
X4.0664Y-6.1437
X4.0739Y-3.593
X4.0772Y-5.2868
X4.0833Y-5.8861
X4.099Y-4.3183
X4.1292Y-4.4466
X4.2166Y-4.3578
X4.2427Y-4.4331
X4.3342Y-5.3048
X4.4439Y-3.682
X4.4574Y-4.0181
X4.5033Y-4.3401
X4.5512Y-4.3461
X4.5539Y-3.8155
X4.5778Y-4.3202
X4.6213Y-4.6509
X4.6394Y-3.6456
X4.8045Y-7.2884
X4.9221Y-7.3874
X4.9221Y-7.5273
X4.9289Y-3.5878
X4.9336Y-5.0709
X5.0202Y-5.5388
X5.0397Y-5.8897
X5.0397Y-7.0594
X5.1573Y-6.2406
X5.1756Y-6.8435
X5.2311Y-3.6596
X5.245Y-3.3194
X5.2749Y-4.1698
X5.3059Y-4.1538
X5.3924Y-5.4218
X5.5903Y-4.638
X5.5995Y-5.4394
X5.6471Y-6.7125
X5.6569Y-5.5388
X5.6707Y-5.6557
X5.8628Y-3.3092
X5.8628Y-3.4189
X5.8628Y-4.9539
X5.8916Y-3.9937
X5.9121Y-3.5212
X5.9125Y-3.8281
X5.9229Y-3.7051
X5.9279Y-3.9028
X5.9505Y-3.7841
X5.9517Y-5.4182
X5.9674Y-6.6584
X5.9804Y-6.3576
X5.9913Y-3.8786
X6.0019Y-3.7051
X6.0137Y-5.8987
X6.0513Y-6.0336
X6.0697Y-3.706
X6.0912Y-5.1946
X6.0979Y-7.0412
X6.6859Y-4.5958
X6.7435Y-3.3318
X6.782Y-4.2887
X6.9724Y-3.5263
X7.0386Y-3.9946
X7.0511Y-4.3547
X7.3857Y-3.79
X7.3914Y-5.5388
X7.4596Y-6.1061
X7.4811Y-4.1584
X7.5008Y-4.5948
X7.5082Y-5.1911
X7.5089Y-4.2067
X7.5134Y-6.7157
X7.5244Y-6.0086
X7.5413Y-5.1591
X7.6227Y-3.5489
X7.6265Y-6.9524
X7.6465Y-4.1162
X7.6614Y-7.5621
X7.8617Y-6.2406
X7.8773Y-4.4822
X7.879Y-4.6199
X7.8894Y-4.4188
X7.8925Y-6.9424
X7.9555Y-3.7842
X7.9793Y-3.5037
X7.9795Y-4.1632
X7.9813Y-4.6085
X7.985Y-7.4482
X8.1133Y-5.5832
X8.1241Y-6.9424
X8.4496Y-3.2832
X8.905Y-5.4218
X8.9128Y-4.1351
X8.9168Y-7.0718
X8.9748Y-7.3993
X9.0375Y-7.0718
X9.0661Y-6.3576
X9.1166Y-4.6014
X9.1175Y-3.8
X9.3903Y-4.603
X9.5078Y-5.0808
X9.5308Y-3.5107
X9.6254Y-5.4218
X9.7682Y-3.5468
X9.8394Y-3.8799
X9.8519Y-6.2588
X9.8606Y-6.8255
X9.9097Y-3.6578
X10.1138Y-5.638
X10.222Y-3.4301
X10.3416Y-3.4208
X10.4485Y-3.6396
X10.5436Y-3.6085
X10.5561Y-3.6903
X10.5571Y-6.6995
X10.5661Y-7.4103
X10.68Y-4.5115
X10.8012Y-3.5091
X10.8034Y-6.7106
X10.9338Y-3.5333
X10.9869Y-7.0098
X11.0197Y-6.5765
X11.0369Y-4.0249
X11.0593Y-5.8581
X11.0697Y-5.8897
X11.1575Y-5.5388
X11.1649Y-4.4969
X11.1711Y-5.0375
X11.2343Y-6.7994
X11.2365Y-6.0067
X11.2716Y-3.3457
X11.2805Y-7.4133
X11.3892Y-5.6557
X11.475Y-4.2343
X11.5025Y-6.4745
X11.5067Y-5.3048
X11.6243Y-6.9424
X11.7419Y-6.7085
X11.7419Y-7.4569
X12.0534Y-4.3883
X12.1073Y-3.7894
X12.2055Y-3.5027
X12.4475Y-4.929
X12.4707Y-4.3809
X12.5995Y-5.8897
X12.6274Y-4.295
X12.6409Y-3.6895
X12.6826Y-5.0709
X12.7741Y-4.2891
X12.7939Y-5.4218
X12.8239Y-4.2839
X12.9427Y-4.2613
X13.0353Y-3.7713
X13.1483Y-3.6127
X13.2623Y-3.7713
X13.3881Y-5.4218
X13.4939Y-3.8286
X13.5056Y-6.9424
X13.5414Y-3.8179
X13.5806Y-4.3826
X13.6269Y-6.5015
X13.8387Y-6.3576
X13.8584Y-6.5915
X13.8584Y-7.5273
X13.8858Y-5.8897
X13.9625Y-5.3214
X14.2385Y-5.8897
X14.4511Y-7.196
X14.5639Y-6.7085
T2
X2.876Y-5.7972
X2.876Y-5.8972
X3.4941Y-5.6201
X3.4941Y-5.7201
X3.4941Y-5.8201
X3.4941Y-5.9201
X4.1713Y-6.9685
X4.1713Y-7.0685
X4.7894Y-6.7913
X4.7894Y-6.8913
X4.7894Y-6.9913
X4.7894Y-7.0913
X6.2776Y-6.9587
X6.2776Y-7.0587
X6.8957Y-6.7815
X6.8957Y-6.8815
X6.8957Y-6.9815
X6.8957Y-7.0815
X8.063Y-6.9665
X8.063Y-7.0665
X8.6811Y-6.7894
X8.6811Y-6.8894
X8.6811Y-6.9894
X8.6811Y-7.0894
X11.9016Y-6.9705
X11.9016Y-7.0705
X12.5197Y-6.7933
X12.5197Y-6.8933
X12.5197Y-6.9933
X12.5197Y-7.0933
X12.5217Y-4.3524
X12.5217Y-4.4524
X13.1398Y-4.1752
X13.1398Y-4.2752
X13.1398Y-4.3752
X13.1398Y-4.4752
X13.2067Y-5.7874
X13.2067Y-5.8874
X13.8248Y-5.6102
X13.8248Y-5.7102
X13.8248Y-5.8102
X13.8248Y-5.9102
T3
X3.5539Y-3.4335
X3.5539Y-3.5335
X3.6539Y-3.4335
X3.6539Y-3.5335
X3.7067Y-4.4705
X3.7539Y-3.4335
X3.7539Y-3.5335
X3.8067Y-4.4705
X3.8539Y-3.4335
X3.8539Y-3.5335
X3.9067Y-4.4705
X3.9539Y-3.4335
X3.9539Y-3.5335
X4.0067Y-4.4705
X4.0539Y-3.4335
X4.0539Y-3.5335
X4.1539Y-3.4335
X4.1539Y-3.5335
X4.2539Y-3.4335
X4.2539Y-3.5335
X4.3539Y-3.4335
X4.3539Y-3.5335
X4.4539Y-3.4335
X4.4539Y-3.5335
X4.5539Y-3.4335
X4.5539Y-3.5335
X4.6539Y-3.4335
X4.6539Y-3.5335
X4.7539Y-3.4335
X4.7539Y-3.5335
X4.8539Y-3.4335
X4.8539Y-3.5335
X4.9539Y-3.4335
X4.9539Y-3.5335
X5.0539Y-3.4335
X5.0539Y-3.5335
X5.1539Y-3.4335
X5.1539Y-3.5335
X5.2539Y-3.4335
X5.2539Y-3.5335
X5.3539Y-3.4335
X5.3539Y-3.5335
X5.4539Y-3.4335
X5.4539Y-3.5335
X6.0138Y-4.4232
X6.1138Y-4.4232
X6.2138Y-4.4232
X6.3138Y-4.4232
X6.4138Y-4.4232
X6.5138Y-4.4232
X6.6138Y-4.4232
X6.7138Y-4.4232
X6.8138Y-4.4232
X7.9945Y-4.4114
X8.0945Y-4.4114
X8.1945Y-4.4114
X8.2945Y-4.4114
X8.3945Y-4.4114
X8.4945Y-4.4114
X8.5945Y-4.4114
X8.6945Y-4.4114
X8.7945Y-4.4114
X9.9417Y-4.4114
X10.0417Y-4.4114
X10.1417Y-4.4114
X10.1886Y-7.0098
X10.2417Y-4.4114
X10.2886Y-7.0098
X10.3417Y-4.4114
X10.3886Y-7.0098
X10.4417Y-4.4114
X10.4886Y-7.0098
X10.5417Y-4.4114
X10.6417Y-4.4114
X10.7417Y-4.4114
X11.1409Y-3.4469
X11.1409Y-3.5469
X11.2409Y-3.4469
X11.2409Y-3.5469
X11.3409Y-3.4469
X11.3409Y-3.5469
X11.4409Y-3.4469
X11.4409Y-3.5469
X11.5409Y-3.4469
X11.5409Y-3.5469
X11.6409Y-3.4469
X11.6409Y-3.5469
X11.7409Y-3.4469
X11.7409Y-3.5469
X11.8409Y-3.4469
X11.8409Y-3.5469
X11.9409Y-3.4469
X11.9409Y-3.5469
X12.0409Y-3.4469
X12.0409Y-3.5469
X12.1409Y-3.4469
X12.1409Y-3.5469
X12.2409Y-3.4469
X12.2409Y-3.5469
X12.3409Y-3.4469
X12.3409Y-3.5469
X12.4409Y-3.4469
X12.4409Y-3.5469
X12.5409Y-3.4469
X12.5409Y-3.5469
X12.6409Y-3.4469
X12.6409Y-3.5469
X12.7409Y-3.4469
X12.7409Y-3.5469
X12.8409Y-3.4469
X12.8409Y-3.5469
X12.9409Y-3.4469
X12.9409Y-3.5469
X13.0409Y-3.4469
X13.0409Y-3.5469
T4
X2.628Y-7.5394
X2.6972Y-3.4252
X2.828Y-7.5394
X2.8972Y-3.4252
M30
