%TF.GenerationSoftware,KiCad,Pcbnew,9.0.2*%
%TF.CreationDate,2025-07-08T20:46:09+02:00*%
%TF.ProjectId,aircond,61697263-6f6e-4642-9e6b-696361645f70,rev?*%
%TF.SameCoordinates,Original*%
%TF.FileFunction,Copper,L2,Bot*%
%TF.FilePolarity,Positive*%
%FSLAX46Y46*%
G04 Gerber Fmt 4.6, Leading zero omitted, Abs format (unit mm)*
G04 Created by KiCad (PCBNEW 9.0.2) date 2025-07-08 20:46:09*
%MOMM*%
%LPD*%
G01*
G04 APERTURE LIST*
%TA.AperFunction,ComponentPad*%
%ADD10R,3.000000X3.000000*%
%TD*%
%TA.AperFunction,ComponentPad*%
%ADD11C,3.000000*%
%TD*%
%TA.AperFunction,ComponentPad*%
%ADD12R,1.500000X1.500000*%
%TD*%
%TA.AperFunction,ComponentPad*%
%ADD13R,1.700000X1.700000*%
%TD*%
%TA.AperFunction,ComponentPad*%
%ADD14C,1.700000*%
%TD*%
%TA.AperFunction,ViaPad*%
%ADD15C,0.600000*%
%TD*%
%TA.AperFunction,Conductor*%
%ADD16C,0.400000*%
%TD*%
%TA.AperFunction,Conductor*%
%ADD17C,0.600000*%
%TD*%
G04 APERTURE END LIST*
D10*
%TO.P,J9,1,Pin_1*%
%TO.N,GND*%
X71830000Y-191500000D03*
D11*
%TO.P,J9,2,Pin_2*%
%TO.N,+12V*%
X66750000Y-191500000D03*
%TD*%
%TO.P,J8,2,Pin_2*%
%TO.N,+12V*%
X73590000Y-87000000D03*
D10*
%TO.P,J8,1,Pin_1*%
%TO.N,GND*%
X68510000Y-87000000D03*
%TD*%
D12*
%TO.P,KR3,1,+5V_TOP_LED*%
%TO.N,Net-(J1-Pin_4)*%
X351150000Y-142500000D03*
%TO.P,KR3,2,GND_TOP_LED*%
%TO.N,GND*%
X351150000Y-145040000D03*
%TO.P,KR3,3,+5V_BOTTOM_LED*%
%TO.N,Net-(J1-Pin_5)*%
X351150000Y-147580000D03*
%TO.P,KR3,4,GND_BOTTOM_LED*%
%TO.N,GND*%
X351150000Y-150120000D03*
%TO.P,KR3,5,SW_IN*%
%TO.N,Net-(J1-Pin_6)*%
X335450000Y-147000000D03*
%TO.P,KR3,6,SW_OUT*%
%TO.N,GND*%
X335450000Y-149540000D03*
%TD*%
%TO.P,KR5,1,+5V_TOP_LED*%
%TO.N,Net-(J1-Pin_7)*%
X318000000Y-172550000D03*
%TO.P,KR5,2,GND_TOP_LED*%
%TO.N,GND*%
X318000000Y-175090000D03*
%TO.P,KR5,3,+5V_BOTTOM_LED*%
%TO.N,Net-(J1-Pin_8)*%
X318000000Y-177630000D03*
%TO.P,KR5,4,GND_BOTTOM_LED*%
%TO.N,GND*%
X318000000Y-180170000D03*
%TO.P,KR5,5,SW_IN*%
%TO.N,Net-(J1-Pin_9)*%
X302300000Y-177050000D03*
%TO.P,KR5,6,SW_OUT*%
%TO.N,GND*%
X302300000Y-179590000D03*
%TD*%
D13*
%TO.P,J5,1,Pin_1*%
%TO.N,Net-(J5-Pin_1)*%
X94150000Y-113550000D03*
D14*
%TO.P,J5,2,Pin_2*%
%TO.N,Net-(J5-Pin_2)*%
X96690000Y-113550000D03*
%TO.P,J5,3,Pin_3*%
%TO.N,Net-(J5-Pin_3)*%
X99230000Y-113550000D03*
%TO.P,J5,4,Pin_4*%
%TO.N,GND*%
X101770000Y-113550000D03*
%TD*%
D12*
%TO.P,KR6,1,+5V_TOP_LED*%
%TO.N,Net-(J1-Pin_10)*%
X333750000Y-106050000D03*
%TO.P,KR6,2,GND_TOP_LED*%
%TO.N,GND*%
X333750000Y-108590000D03*
%TO.P,KR6,3,+5V_BOTTOM_LED*%
%TO.N,Net-(J1-Pin_11)*%
X333750000Y-111130000D03*
%TO.P,KR6,4,GND_BOTTOM_LED*%
%TO.N,GND*%
X333750000Y-113670000D03*
%TO.P,KR6,5,SW_IN*%
%TO.N,Net-(J1-Pin_12)*%
X318050000Y-110550000D03*
%TO.P,KR6,6,SW_OUT*%
%TO.N,GND*%
X318050000Y-113090000D03*
%TD*%
D13*
%TO.P,J3,1,Pin_1*%
%TO.N,GND*%
X203060000Y-112050000D03*
D14*
%TO.P,J3,2,Pin_2*%
%TO.N,Net-(J1-Pin_30)*%
X205600000Y-112050000D03*
%TO.P,J3,3,Pin_3*%
%TO.N,Net-(J1-Pin_31)*%
X208140000Y-112050000D03*
%TO.P,J3,4,Pin_4*%
%TO.N,Net-(J1-Pin_32)*%
X210680000Y-112050000D03*
%TO.P,J3,5,Pin_5*%
%TO.N,Net-(J1-Pin_33)*%
X213220000Y-112050000D03*
%TO.P,J3,6,Pin_6*%
%TO.N,Net-(J1-Pin_34)*%
X215760000Y-112050000D03*
%TO.P,J3,7,Pin_7*%
%TO.N,Net-(J1-Pin_35)*%
X218300000Y-112050000D03*
%TO.P,J3,8,Pin_8*%
%TO.N,Net-(J1-Pin_36)*%
X220840000Y-112050000D03*
%TO.P,J3,9,Pin_9*%
%TO.N,Net-(J1-Pin_37)*%
X223380000Y-112050000D03*
%TD*%
D12*
%TO.P,KR7,1,+5V_TOP_LED*%
%TO.N,Net-(J1-Pin_13)*%
X220500000Y-172450000D03*
%TO.P,KR7,2,GND_TOP_LED*%
%TO.N,GND*%
X220500000Y-174990000D03*
%TO.P,KR7,3,+5V_BOTTOM_LED*%
%TO.N,Net-(J1-Pin_14)*%
X220500000Y-177530000D03*
%TO.P,KR7,4,GND_BOTTOM_LED*%
%TO.N,GND*%
X220500000Y-180070000D03*
%TO.P,KR7,5,SW_IN*%
%TO.N,Net-(J1-Pin_15)*%
X204800000Y-176950000D03*
%TO.P,KR7,6,SW_OUT*%
%TO.N,GND*%
X204800000Y-179490000D03*
%TD*%
D13*
%TO.P,J6,1,Pin_1*%
%TO.N,Net-(J6-Pin_1)*%
X258790000Y-178050000D03*
D14*
%TO.P,J6,2,Pin_2*%
%TO.N,Net-(J6-Pin_2)*%
X261330000Y-178050000D03*
%TO.P,J6,3,Pin_3*%
%TO.N,Net-(J6-Pin_3)*%
X263870000Y-178050000D03*
%TO.P,J6,4,Pin_4*%
%TO.N,GND*%
X266410000Y-178050000D03*
%TD*%
D12*
%TO.P,KR4,1,+5V_TOP_LED*%
%TO.N,Net-(J1-Pin_19)*%
X175150000Y-172250000D03*
%TO.P,KR4,2,GND_TOP_LED*%
%TO.N,GND*%
X175150000Y-174790000D03*
%TO.P,KR4,3,+5V_BOTTOM_LED*%
%TO.N,Net-(J1-Pin_20)*%
X175150000Y-177330000D03*
%TO.P,KR4,4,GND_BOTTOM_LED*%
%TO.N,GND*%
X175150000Y-179870000D03*
%TO.P,KR4,5,SW_IN*%
%TO.N,Net-(J1-Pin_21)*%
X159450000Y-176750000D03*
%TO.P,KR4,6,SW_OUT*%
%TO.N,GND*%
X159450000Y-179290000D03*
%TD*%
D13*
%TO.P,J4,1,Pin_1*%
%TO.N,GND*%
X252520000Y-112050000D03*
D14*
%TO.P,J4,2,Pin_2*%
%TO.N,Net-(J4-Pin_2)*%
X255060000Y-112050000D03*
%TO.P,J4,3,Pin_3*%
%TO.N,Net-(J4-Pin_3)*%
X257600000Y-112050000D03*
%TO.P,J4,4,Pin_4*%
%TO.N,Net-(J4-Pin_4)*%
X260140000Y-112050000D03*
%TO.P,J4,5,Pin_5*%
%TO.N,Net-(J4-Pin_5)*%
X262680000Y-112050000D03*
%TO.P,J4,6,Pin_6*%
%TO.N,Net-(J4-Pin_6)*%
X265220000Y-112050000D03*
%TO.P,J4,7,Pin_7*%
%TO.N,Net-(J4-Pin_7)*%
X267760000Y-112050000D03*
%TO.P,J4,8,Pin_8*%
%TO.N,Net-(J4-Pin_8)*%
X270300000Y-112050000D03*
%TO.P,J4,9,Pin_9*%
%TO.N,Net-(J4-Pin_9)*%
X272840000Y-112050000D03*
%TD*%
D12*
%TO.P,KR1,1,+5V_TOP_LED*%
%TO.N,Net-(J1-Pin_1)*%
X88750000Y-142750000D03*
%TO.P,KR1,2,GND_TOP_LED*%
%TO.N,GND*%
X88750000Y-145290000D03*
%TO.P,KR1,3,+5V_BOTTOM_LED*%
%TO.N,Net-(J1-Pin_2)*%
X88750000Y-147830000D03*
%TO.P,KR1,4,GND_BOTTOM_LED*%
%TO.N,GND*%
X88750000Y-150370000D03*
%TO.P,KR1,5,SW_IN*%
%TO.N,Net-(J1-Pin_3)*%
X73050000Y-147250000D03*
%TO.P,KR1,6,SW_OUT*%
%TO.N,GND*%
X73050000Y-149790000D03*
%TD*%
%TO.P,KR2,1,+5V_TOP_LED*%
%TO.N,Net-(J1-Pin_16)*%
X121650000Y-172500000D03*
%TO.P,KR2,2,GND_TOP_LED*%
%TO.N,GND*%
X121650000Y-175040000D03*
%TO.P,KR2,3,+5V_BOTTOM_LED*%
%TO.N,Net-(J1-Pin_17)*%
X121650000Y-177580000D03*
%TO.P,KR2,4,GND_BOTTOM_LED*%
%TO.N,GND*%
X121650000Y-180120000D03*
%TO.P,KR2,5,SW_IN*%
%TO.N,Net-(J1-Pin_18)*%
X105950000Y-177000000D03*
%TO.P,KR2,6,SW_OUT*%
%TO.N,GND*%
X105950000Y-179540000D03*
%TD*%
D13*
%TO.P,J2,1,Pin_1*%
%TO.N,GND*%
X152750000Y-112350000D03*
D14*
%TO.P,J2,2,Pin_2*%
%TO.N,Net-(J1-Pin_22)*%
X155290000Y-112350000D03*
%TO.P,J2,3,Pin_3*%
%TO.N,Net-(J1-Pin_23)*%
X157830000Y-112350000D03*
%TO.P,J2,4,Pin_4*%
%TO.N,Net-(J1-Pin_24)*%
X160370000Y-112350000D03*
%TO.P,J2,5,Pin_5*%
%TO.N,Net-(J1-Pin_25)*%
X162910000Y-112350000D03*
%TO.P,J2,6,Pin_6*%
%TO.N,Net-(J1-Pin_26)*%
X165450000Y-112350000D03*
%TO.P,J2,7,Pin_7*%
%TO.N,Net-(J1-Pin_27)*%
X167990000Y-112350000D03*
%TO.P,J2,8,Pin_8*%
%TO.N,Net-(J1-Pin_28)*%
X170530000Y-112350000D03*
%TO.P,J2,9,Pin_9*%
%TO.N,Net-(J1-Pin_29)*%
X173070000Y-112350000D03*
%TD*%
D13*
%TO.P,J1,1,Pin_1*%
%TO.N,Net-(J1-Pin_1)*%
X138530000Y-89750000D03*
D14*
%TO.P,J1,2,Pin_2*%
%TO.N,Net-(J1-Pin_2)*%
X138530000Y-87210000D03*
%TO.P,J1,3,Pin_3*%
%TO.N,Net-(J1-Pin_3)*%
X135990000Y-89750000D03*
%TO.P,J1,4,Pin_4*%
%TO.N,Net-(J1-Pin_4)*%
X135990000Y-87210000D03*
%TO.P,J1,5,Pin_5*%
%TO.N,Net-(J1-Pin_5)*%
X133450000Y-89750000D03*
%TO.P,J1,6,Pin_6*%
%TO.N,Net-(J1-Pin_6)*%
X133450000Y-87210000D03*
%TO.P,J1,7,Pin_7*%
%TO.N,Net-(J1-Pin_7)*%
X130910000Y-89750000D03*
%TO.P,J1,8,Pin_8*%
%TO.N,Net-(J1-Pin_8)*%
X130910000Y-87210000D03*
%TO.P,J1,9,Pin_9*%
%TO.N,Net-(J1-Pin_9)*%
X128370000Y-89750000D03*
%TO.P,J1,10,Pin_10*%
%TO.N,Net-(J1-Pin_10)*%
X128370000Y-87210000D03*
%TO.P,J1,11,Pin_11*%
%TO.N,Net-(J1-Pin_11)*%
X125830000Y-89750000D03*
%TO.P,J1,12,Pin_12*%
%TO.N,Net-(J1-Pin_12)*%
X125830000Y-87210000D03*
%TO.P,J1,13,Pin_13*%
%TO.N,Net-(J1-Pin_13)*%
X123290000Y-89750000D03*
%TO.P,J1,14,Pin_14*%
%TO.N,Net-(J1-Pin_14)*%
X123290000Y-87210000D03*
%TO.P,J1,15,Pin_15*%
%TO.N,Net-(J1-Pin_15)*%
X120750000Y-89750000D03*
%TO.P,J1,16,Pin_16*%
%TO.N,Net-(J1-Pin_16)*%
X120750000Y-87210000D03*
%TO.P,J1,17,Pin_17*%
%TO.N,Net-(J1-Pin_17)*%
X118210000Y-89750000D03*
%TO.P,J1,18,Pin_18*%
%TO.N,Net-(J1-Pin_18)*%
X118210000Y-87210000D03*
%TO.P,J1,19,Pin_19*%
%TO.N,Net-(J1-Pin_19)*%
X115670000Y-89750000D03*
%TO.P,J1,20,Pin_20*%
%TO.N,Net-(J1-Pin_20)*%
X115670000Y-87210000D03*
%TO.P,J1,21,Pin_21*%
%TO.N,Net-(J1-Pin_21)*%
X113130000Y-89750000D03*
%TO.P,J1,22,Pin_22*%
%TO.N,Net-(J1-Pin_22)*%
X113130000Y-87210000D03*
%TO.P,J1,23,Pin_23*%
%TO.N,Net-(J1-Pin_23)*%
X110590000Y-89750000D03*
%TO.P,J1,24,Pin_24*%
%TO.N,Net-(J1-Pin_24)*%
X110590000Y-87210000D03*
%TO.P,J1,25,Pin_25*%
%TO.N,Net-(J1-Pin_25)*%
X108050000Y-89750000D03*
%TO.P,J1,26,Pin_26*%
%TO.N,Net-(J1-Pin_26)*%
X108050000Y-87210000D03*
%TO.P,J1,27,Pin_27*%
%TO.N,Net-(J1-Pin_27)*%
X105510000Y-89750000D03*
%TO.P,J1,28,Pin_28*%
%TO.N,Net-(J1-Pin_28)*%
X105510000Y-87210000D03*
%TO.P,J1,29,Pin_29*%
%TO.N,Net-(J1-Pin_29)*%
X102970000Y-89750000D03*
%TO.P,J1,30,Pin_30*%
%TO.N,Net-(J1-Pin_30)*%
X102970000Y-87210000D03*
%TO.P,J1,31,Pin_31*%
%TO.N,Net-(J1-Pin_31)*%
X100430000Y-89750000D03*
%TO.P,J1,32,Pin_32*%
%TO.N,Net-(J1-Pin_32)*%
X100430000Y-87210000D03*
%TO.P,J1,33,Pin_33*%
%TO.N,Net-(J1-Pin_33)*%
X97890000Y-89750000D03*
%TO.P,J1,34,Pin_34*%
%TO.N,Net-(J1-Pin_34)*%
X97890000Y-87210000D03*
%TO.P,J1,35,Pin_35*%
%TO.N,Net-(J1-Pin_35)*%
X95350000Y-89750000D03*
%TO.P,J1,36,Pin_36*%
%TO.N,Net-(J1-Pin_36)*%
X95350000Y-87210000D03*
%TO.P,J1,37,Pin_37*%
%TO.N,Net-(J1-Pin_37)*%
X92810000Y-89750000D03*
%TO.P,J1,38,Pin_38*%
%TO.N,unconnected-(J1-Pin_38-Pad38)*%
X92810000Y-87210000D03*
%TO.P,J1,39,Pin_39*%
%TO.N,unconnected-(J1-Pin_39-Pad39)*%
X90270000Y-89750000D03*
%TO.P,J1,40,Pin_40*%
%TO.N,unconnected-(J1-Pin_40-Pad40)*%
X90270000Y-87210000D03*
%TD*%
D13*
%TO.P,J7,1,Pin_1*%
%TO.N,Net-(J4-Pin_2)*%
X331240000Y-90090000D03*
D14*
%TO.P,J7,2,Pin_2*%
%TO.N,Net-(J4-Pin_3)*%
X331240000Y-87550000D03*
%TO.P,J7,3,Pin_3*%
%TO.N,Net-(J4-Pin_4)*%
X328700000Y-90090000D03*
%TO.P,J7,4,Pin_4*%
%TO.N,Net-(J4-Pin_5)*%
X328700000Y-87550000D03*
%TO.P,J7,5,Pin_5*%
%TO.N,Net-(J4-Pin_6)*%
X326160000Y-90090000D03*
%TO.P,J7,6,Pin_6*%
%TO.N,Net-(J4-Pin_7)*%
X326160000Y-87550000D03*
%TO.P,J7,7,Pin_7*%
%TO.N,Net-(J4-Pin_8)*%
X323620000Y-90090000D03*
%TO.P,J7,8,Pin_8*%
%TO.N,Net-(J4-Pin_9)*%
X323620000Y-87550000D03*
%TO.P,J7,9,Pin_9*%
%TO.N,Net-(J5-Pin_1)*%
X321080000Y-90090000D03*
%TO.P,J7,10,Pin_10*%
%TO.N,Net-(J5-Pin_2)*%
X321080000Y-87550000D03*
%TO.P,J7,11,Pin_11*%
%TO.N,Net-(J5-Pin_3)*%
X318540000Y-90090000D03*
%TO.P,J7,12,Pin_12*%
%TO.N,Net-(J6-Pin_1)*%
X318540000Y-87550000D03*
%TO.P,J7,13,Pin_13*%
%TO.N,Net-(J6-Pin_2)*%
X316000000Y-90090000D03*
%TO.P,J7,14,Pin_14*%
%TO.N,Net-(J6-Pin_3)*%
X316000000Y-87550000D03*
%TO.P,J7,15,Pin_15*%
%TO.N,unconnected-(J7-Pin_15-Pad15)*%
X313460000Y-90090000D03*
%TO.P,J7,16,Pin_16*%
%TO.N,unconnected-(J7-Pin_16-Pad16)*%
X313460000Y-87550000D03*
%TO.P,J7,17,Pin_17*%
%TO.N,unconnected-(J7-Pin_17-Pad17)*%
X310920000Y-90090000D03*
%TO.P,J7,18,Pin_18*%
%TO.N,unconnected-(J7-Pin_18-Pad18)*%
X310920000Y-87550000D03*
%TO.P,J7,19,Pin_19*%
%TO.N,unconnected-(J7-Pin_19-Pad19)*%
X308380000Y-90090000D03*
%TO.P,J7,20,Pin_20*%
%TO.N,unconnected-(J7-Pin_20-Pad20)*%
X308380000Y-87550000D03*
%TO.P,J7,21,Pin_21*%
%TO.N,unconnected-(J7-Pin_21-Pad21)*%
X305840000Y-90090000D03*
%TO.P,J7,22,Pin_22*%
%TO.N,unconnected-(J7-Pin_22-Pad22)*%
X305840000Y-87550000D03*
%TO.P,J7,23,Pin_23*%
%TO.N,unconnected-(J7-Pin_23-Pad23)*%
X303300000Y-90090000D03*
%TO.P,J7,24,Pin_24*%
%TO.N,unconnected-(J7-Pin_24-Pad24)*%
X303300000Y-87550000D03*
%TO.P,J7,25,Pin_25*%
%TO.N,unconnected-(J7-Pin_25-Pad25)*%
X300760000Y-90090000D03*
%TO.P,J7,26,Pin_26*%
%TO.N,unconnected-(J7-Pin_26-Pad26)*%
X300760000Y-87550000D03*
%TO.P,J7,27,Pin_27*%
%TO.N,unconnected-(J7-Pin_27-Pad27)*%
X298220000Y-90090000D03*
%TO.P,J7,28,Pin_28*%
%TO.N,unconnected-(J7-Pin_28-Pad28)*%
X298220000Y-87550000D03*
%TO.P,J7,29,Pin_29*%
%TO.N,unconnected-(J7-Pin_29-Pad29)*%
X295680000Y-90090000D03*
%TO.P,J7,30,Pin_30*%
%TO.N,unconnected-(J7-Pin_30-Pad30)*%
X295680000Y-87550000D03*
%TO.P,J7,31,Pin_31*%
%TO.N,unconnected-(J7-Pin_31-Pad31)*%
X293140000Y-90090000D03*
%TO.P,J7,32,Pin_32*%
%TO.N,unconnected-(J7-Pin_32-Pad32)*%
X293140000Y-87550000D03*
%TO.P,J7,33,Pin_33*%
%TO.N,unconnected-(J7-Pin_33-Pad33)*%
X290600000Y-90090000D03*
%TO.P,J7,34,Pin_34*%
%TO.N,unconnected-(J7-Pin_34-Pad34)*%
X290600000Y-87550000D03*
%TO.P,J7,35,Pin_35*%
%TO.N,unconnected-(J7-Pin_35-Pad35)*%
X288060000Y-90090000D03*
%TO.P,J7,36,Pin_36*%
%TO.N,unconnected-(J7-Pin_36-Pad36)*%
X288060000Y-87550000D03*
%TO.P,J7,37,Pin_37*%
%TO.N,unconnected-(J7-Pin_37-Pad37)*%
X285520000Y-90090000D03*
%TO.P,J7,38,Pin_38*%
%TO.N,unconnected-(J7-Pin_38-Pad38)*%
X285520000Y-87550000D03*
%TO.P,J7,39,Pin_39*%
%TO.N,unconnected-(J7-Pin_39-Pad39)*%
X282980000Y-90090000D03*
%TO.P,J7,40,Pin_40*%
%TO.N,unconnected-(J7-Pin_40-Pad40)*%
X282980000Y-87550000D03*
%TD*%
D15*
%TO.N,Net-(D120-K)*%
X194220600Y-104550400D03*
X200125700Y-117345400D03*
%TO.N,Net-(D119-K)*%
X187598000Y-96265300D03*
X193617100Y-90141500D03*
%TO.N,Net-(D117-K)*%
X202069700Y-96118100D03*
X202673300Y-88995200D03*
%TO.N,Net-(D115-K)*%
X242082300Y-89172500D03*
X231585700Y-96519800D03*
%TO.N,Net-(D114-K)*%
X248113400Y-90087700D03*
X226386100Y-105031400D03*
%TO.N,Net-(D112-K)*%
X231560500Y-116874600D03*
X226186100Y-137713500D03*
%TO.N,Net-(D111-K)*%
X244485700Y-137713500D03*
X238512500Y-116915800D03*
%TO.N,Net-(D100-A)*%
X344946500Y-111318700D03*
X342744100Y-97247100D03*
%TO.N,Net-(D93-K)*%
X322137300Y-128800200D03*
X320027600Y-149597900D03*
%TO.N,Net-(D92-K)*%
X346122000Y-165137000D03*
X324965000Y-137713500D03*
%TO.N,Net-(D89-K)*%
X352003300Y-167424500D03*
X352698300Y-149597900D03*
%TO.N,Net-(D88-K)*%
X354648600Y-135164400D03*
X361658800Y-149597900D03*
%TO.N,Net-(D85-K)*%
X367058600Y-182777600D03*
X369922900Y-170395600D03*
%TO.N,Net-(D84-K)*%
X352003300Y-191193300D03*
X343043500Y-176337800D03*
%TO.N,Net-(D79-K)*%
X295257900Y-176337800D03*
X292163700Y-164453400D03*
%TO.N,Net-(D74-K)*%
X285407100Y-152569000D03*
X285351900Y-172703600D03*
%TO.N,Net-(D71-K)*%
X274406000Y-170449900D03*
X268378500Y-188222200D03*
%TO.N,Net-(D68-K)*%
X250458900Y-173366700D03*
X250237500Y-158973400D03*
%TO.N,Net-(D63-K)*%
X226485800Y-179622500D03*
X230278600Y-161482300D03*
%TO.N,Net-(D62-K)*%
X227959000Y-187942700D03*
X229552700Y-179622800D03*
%TO.N,Net-(D59-K)*%
X194598400Y-192078200D03*
X193713500Y-176590100D03*
%TO.N,Net-(D53-K)*%
X125021700Y-187639000D03*
X122035100Y-185125000D03*
%TO.N,Net-(D51-K)*%
X151570900Y-169122500D03*
X154887700Y-178845700D03*
%TO.N,Net-(D48-K)*%
X190708200Y-131854000D03*
X191120000Y-152617200D03*
%TO.N,Net-(D39-K)*%
X178780500Y-101461800D03*
X177097800Y-89568000D03*
%TO.N,Net-(D34-K)*%
X141992800Y-117804500D03*
X142227000Y-138161100D03*
%TO.N,Net-(D32-K)*%
X153702800Y-153252900D03*
X154715300Y-131943800D03*
%TO.N,Net-(D30-K)*%
X151901100Y-161482300D03*
X151173400Y-137622400D03*
%TO.N,Net-(D28-K)*%
X130994900Y-158511200D03*
X127512200Y-140684600D03*
%TO.N,Net-(D26-K)*%
X125313100Y-128800200D03*
X128008300Y-149597900D03*
%TO.N,Net-(D24-K)*%
X128008300Y-179308900D03*
X125021700Y-191193300D03*
%TO.N,Net-(D17-K)*%
X101134700Y-152658100D03*
X101766700Y-164453400D03*
%TO.N,Net-(D15-K)*%
X103285600Y-156049400D03*
X103715500Y-149505900D03*
%TO.N,Net-(D14-K)*%
X103560800Y-134283600D03*
X101082900Y-147631100D03*
%TO.N,Net-(D13-K)*%
X86195900Y-164453400D03*
X110088700Y-134742400D03*
%TO.N,Net-(D11-K)*%
X77236100Y-134742400D03*
X75077000Y-164453400D03*
%TO.N,Net-(D8-K)*%
X65793400Y-170395600D03*
X71653700Y-134742400D03*
%TO.N,Net-(D7-K)*%
X62903800Y-170395600D03*
X59316500Y-149597900D03*
%TO.N,Net-(D5-K)*%
X87582800Y-125292900D03*
X92038100Y-97033400D03*
%TO.N,Net-(D3-K)*%
X83209300Y-108002500D03*
X80222700Y-96118100D03*
%TO.N,+12V*%
X298244500Y-189406200D03*
X298244500Y-170395600D03*
X62623800Y-110973600D03*
X64503800Y-150492300D03*
X149645700Y-101440200D03*
X148914500Y-125829100D03*
X64503800Y-130880400D03*
X152747800Y-149828000D03*
X98142300Y-179672800D03*
X101716700Y-191193300D03*
X200470600Y-176337800D03*
X199686700Y-158511200D03*
X191548200Y-131040100D03*
X190520100Y-116709000D03*
X202818600Y-189184600D03*
X94759900Y-164248600D03*
X283588400Y-114221600D03*
X190726900Y-106849200D03*
X280906700Y-148795800D03*
X279901600Y-167043900D03*
X150167900Y-89437600D03*
X189474900Y-155094100D03*
X280337900Y-102232200D03*
%TO.N,Net-(J6-Pin_1)*%
X262676600Y-86889200D03*
%TO.N,Net-(J6-Pin_2)*%
X277718300Y-89746600D03*
%TO.N,Net-(J5-Pin_2)*%
X169820700Y-116734200D03*
X171284400Y-84628900D03*
%TO.N,Net-(J5-Pin_3)*%
X101128900Y-116915800D03*
X274351700Y-89130400D03*
X271271400Y-114592700D03*
%TO.N,Net-(J5-Pin_1)*%
X117380900Y-118131800D03*
X117839500Y-92597000D03*
X321080000Y-93712200D03*
%TO.N,Net-(J4-Pin_8)*%
X306155400Y-111463500D03*
%TO.N,Net-(J4-Pin_4)*%
X316754900Y-111275000D03*
%TO.N,Net-(J4-Pin_2)*%
X259639300Y-87125200D03*
%TO.N,Net-(J4-Pin_3)*%
X328745000Y-108236300D03*
%TO.N,Net-(J4-Pin_9)*%
X286298100Y-84980900D03*
%TO.N,Net-(J4-Pin_6)*%
X324462500Y-108943200D03*
%TO.N,Net-(J4-Pin_7)*%
X320735700Y-109093200D03*
%TO.N,Net-(J4-Pin_5)*%
X325726500Y-108811600D03*
%TO.N,GND*%
X82307500Y-110973600D03*
X71262900Y-158511200D03*
X81711400Y-119742300D03*
X206351600Y-176337800D03*
X281171600Y-149597900D03*
X283745100Y-127951700D03*
X351504200Y-161482300D03*
X283400000Y-140684600D03*
X249919700Y-98550000D03*
X202678500Y-105745700D03*
X202724700Y-117056700D03*
X279066000Y-178050000D03*
X286525600Y-188297900D03*
X316165700Y-125196800D03*
X206076600Y-141814300D03*
X241499100Y-129052600D03*
%TO.N,Net-(J1-Pin_31)*%
X104115500Y-109685100D03*
%TO.N,Net-(J1-Pin_13)*%
X190839200Y-170578400D03*
X187740300Y-140684600D03*
X136968100Y-137713500D03*
%TO.N,Net-(J1-Pin_4)*%
X343951000Y-96975000D03*
X148914500Y-84054500D03*
X148914500Y-86840700D03*
%TO.N,Net-(J1-Pin_7)*%
X268151200Y-170168400D03*
X265391900Y-92446700D03*
%TO.N,Net-(J1-Pin_26)*%
X150442600Y-94110300D03*
%TO.N,Net-(J1-Pin_27)*%
X152180200Y-98517300D03*
%TO.N,Net-(J1-Pin_11)*%
X267806500Y-91656500D03*
X268125500Y-93732700D03*
X331097100Y-95791300D03*
%TO.N,Net-(J1-Pin_6)*%
X336863200Y-95791300D03*
%TO.N,Net-(J1-Pin_23)*%
X152447900Y-94110300D03*
%TO.N,Net-(J1-Pin_10)*%
X333967500Y-91762600D03*
%TO.N,Net-(J1-Pin_5)*%
X340056900Y-137713500D03*
X292271300Y-134742400D03*
X291465900Y-107550700D03*
X133981500Y-105912800D03*
%TO.N,Net-(J1-Pin_37)*%
X96532400Y-114916300D03*
%TO.N,Net-(J1-Pin_14)*%
X131461300Y-173825400D03*
%TO.N,Net-(J1-Pin_3)*%
X143684100Y-140684600D03*
%TO.N,Net-(J1-Pin_12)*%
X310020700Y-88968000D03*
%TO.N,Net-(J1-Pin_2)*%
X144034900Y-143655700D03*
%TO.N,Net-(J1-Pin_25)*%
X151141900Y-96115500D03*
%TO.N,Net-(J1-Pin_29)*%
X114384700Y-110238200D03*
%TO.N,Net-(J1-Pin_9)*%
X289284700Y-143655700D03*
X251707600Y-92906900D03*
X256889500Y-143206100D03*
%TO.N,Net-(J1-Pin_20)*%
X143435100Y-170498300D03*
%TO.N,Net-(J1-Pin_35)*%
X107764600Y-112601400D03*
X200390200Y-112236500D03*
X200083200Y-113848600D03*
%TO.N,Net-(J1-Pin_28)*%
X116277100Y-109734200D03*
%TO.N,Net-(J1-Pin_34)*%
X104880700Y-112943600D03*
%TO.N,Net-(J1-Pin_8)*%
X307526500Y-96251800D03*
X132869100Y-92953800D03*
%TO.N,Net-(J1-Pin_33)*%
X101677300Y-108600800D03*
%TO.N,Net-(J1-Pin_36)*%
X214619700Y-83393600D03*
%TO.N,Net-(J1-Pin_15)*%
X190020800Y-105624000D03*
X125195000Y-91130700D03*
X134769600Y-105506400D03*
%TO.N,Net-(J1-Pin_24)*%
X112874600Y-93523300D03*
X154169900Y-94131400D03*
%TO.N,Net-(J1-Pin_30)*%
X172261600Y-108932500D03*
X107102100Y-110687600D03*
X103478000Y-91263200D03*
X179097400Y-110608800D03*
%TO.N,Net-(J1-Pin_19)*%
X115670100Y-96914100D03*
X150178400Y-97233100D03*
%TO.N,Net-(J1-Pin_1)*%
X99065800Y-84777400D03*
X133223700Y-84313300D03*
%TO.N,Net-(J1-Pin_21)*%
X113216800Y-102060300D03*
X150568100Y-99131700D03*
%TO.N,Net-(J1-Pin_22)*%
X115600600Y-110389800D03*
%TO.N,Net-(J1-Pin_32)*%
X97076200Y-107126600D03*
%TD*%
D16*
%TO.N,Net-(D120-K)*%
X194220600Y-111440300D02*
X200125700Y-117345400D01*
X194220600Y-104550400D02*
X194220600Y-111440300D01*
%TO.N,Net-(D119-K)*%
X187598000Y-96160600D02*
X187598000Y-96265300D01*
X193617100Y-90141500D02*
X187598000Y-96160600D01*
%TO.N,Net-(D117-K)*%
X202673300Y-95514500D02*
X202673300Y-88995200D01*
X202069700Y-96118100D02*
X202673300Y-95514500D01*
X202673300Y-88995200D02*
X203673500Y-87995000D01*
X203673500Y-87995000D02*
X202673300Y-88995200D01*
X202069700Y-96118100D02*
X202389800Y-96118100D01*
X202389800Y-96118100D02*
X202069700Y-96118100D01*
%TO.N,Net-(D115-K)*%
X238933000Y-89172500D02*
X231585700Y-96519800D01*
X242082300Y-89172500D02*
X238933000Y-89172500D01*
%TO.N,Net-(D114-K)*%
X233169700Y-105031400D02*
X248113400Y-90087700D01*
X226386100Y-105031400D02*
X233169700Y-105031400D01*
X248113400Y-90087700D02*
X247822000Y-90087700D01*
X247822000Y-90087700D02*
X248113400Y-90087700D01*
X226386100Y-105031400D02*
X227193400Y-105031400D01*
X227193400Y-105031400D02*
X226386100Y-105031400D01*
%TO.N,Net-(D112-K)*%
X226186100Y-122249000D02*
X226186100Y-137713500D01*
X231560500Y-116874600D02*
X226186100Y-122249000D01*
%TO.N,Net-(D111-K)*%
X238512500Y-131740300D02*
X238512500Y-116915800D01*
X244485700Y-137713500D02*
X238512500Y-131740300D01*
%TO.N,Net-(D100-A)*%
X342744100Y-97130700D02*
X342744100Y-97247100D01*
X343601600Y-96273200D02*
X342744100Y-97130700D01*
X344277500Y-96273200D02*
X343601600Y-96273200D01*
X344946500Y-96942200D02*
X344277500Y-96273200D01*
X344946500Y-111318700D02*
X344946500Y-96942200D01*
%TO.N,Net-(D93-K)*%
X320027600Y-130909900D02*
X320027600Y-149597900D01*
X322137300Y-128800200D02*
X320027600Y-130909900D01*
%TO.N,Net-(D92-K)*%
X324965000Y-143980000D02*
X324965000Y-137713500D01*
X346122000Y-165137000D02*
X324965000Y-143980000D01*
%TO.N,Net-(D89-K)*%
X352698300Y-166729500D02*
X352698300Y-149597900D01*
X352003300Y-167424500D02*
X352698300Y-166729500D01*
%TO.N,Net-(D88-K)*%
X361658800Y-142174600D02*
X361658800Y-149597900D01*
X354648600Y-135164400D02*
X361658800Y-142174600D01*
%TO.N,Net-(D85-K)*%
X367058600Y-173259900D02*
X369922900Y-170395600D01*
X367058600Y-182777600D02*
X367058600Y-173259900D01*
%TO.N,Net-(D84-K)*%
X343043500Y-182233500D02*
X343043500Y-176337800D01*
X352003300Y-191193300D02*
X343043500Y-182233500D01*
%TO.N,Net-(D79-K)*%
X292163700Y-173243600D02*
X292163700Y-164453400D01*
X295257900Y-176337800D02*
X292163700Y-173243600D01*
%TO.N,Net-(D74-K)*%
X285407100Y-172648400D02*
X285351900Y-172703600D01*
X285407100Y-152569000D02*
X285407100Y-172648400D01*
%TO.N,Net-(D71-K)*%
X268378500Y-176477400D02*
X268378500Y-188222200D01*
X274406000Y-170449900D02*
X268378500Y-176477400D01*
%TO.N,Net-(D68-K)*%
X250237500Y-173145300D02*
X250237500Y-158973400D01*
X250458900Y-173366700D02*
X250237500Y-173145300D01*
%TO.N,Net-(D63-K)*%
X230278600Y-175829700D02*
X230278600Y-161482300D01*
X226485800Y-179622500D02*
X230278600Y-175829700D01*
%TO.N,Net-(D62-K)*%
X229552700Y-186349000D02*
X227959000Y-187942700D01*
X229552700Y-179622800D02*
X229552700Y-186349000D01*
%TO.N,Net-(D59-K)*%
X194598400Y-177475000D02*
X194598400Y-192078200D01*
X193713500Y-176590100D02*
X194598400Y-177475000D01*
%TO.N,Net-(D53-K)*%
X124549100Y-187639000D02*
X122035100Y-185125000D01*
X125021700Y-187639000D02*
X124549100Y-187639000D01*
%TO.N,Net-(D51-K)*%
X151570900Y-175528900D02*
X154887700Y-178845700D01*
X151570900Y-169122500D02*
X151570900Y-175528900D01*
%TO.N,Net-(D48-K)*%
X190708200Y-152205400D02*
X190708200Y-131854000D01*
X191120000Y-152617200D02*
X190708200Y-152205400D01*
%TO.N,Net-(D39-K)*%
X178780500Y-91250700D02*
X177097800Y-89568000D01*
X178780500Y-101461800D02*
X178780500Y-91250700D01*
%TO.N,Net-(D34-K)*%
X141992800Y-137926900D02*
X142227000Y-138161100D01*
X141992800Y-117804500D02*
X141992800Y-137926900D01*
%TO.N,Net-(D32-K)*%
X154715300Y-152240400D02*
X154715300Y-131943800D01*
X153702800Y-153252900D02*
X154715300Y-152240400D01*
%TO.N,Net-(D30-K)*%
X151173400Y-160754600D02*
X151173400Y-137622400D01*
X151901100Y-161482300D02*
X151173400Y-160754600D01*
%TO.N,Net-(D28-K)*%
X130994900Y-144167300D02*
X127512200Y-140684600D01*
X130994900Y-158511200D02*
X130994900Y-144167300D01*
%TO.N,Net-(D26-K)*%
X125313100Y-146902700D02*
X125313100Y-128800200D01*
X128008300Y-149597900D02*
X125313100Y-146902700D01*
%TO.N,Net-(D24-K)*%
X128008300Y-188206700D02*
X125021700Y-191193300D01*
X128008300Y-179308900D02*
X128008300Y-188206700D01*
%TO.N,Net-(D17-K)*%
X101766700Y-153290100D02*
X101766700Y-164453400D01*
X101134700Y-152658100D02*
X101766700Y-153290100D01*
%TO.N,Net-(D15-K)*%
X103285600Y-149935800D02*
X103715500Y-149505900D01*
X103285600Y-156049400D02*
X103285600Y-149935800D01*
%TO.N,Net-(D14-K)*%
X103560800Y-145153200D02*
X101082900Y-147631100D01*
X103560800Y-134283600D02*
X103560800Y-145153200D01*
%TO.N,Net-(D13-K)*%
X110088700Y-140560600D02*
X110088700Y-134742400D01*
X86195900Y-164453400D02*
X110088700Y-140560600D01*
%TO.N,Net-(D11-K)*%
X77236100Y-162294300D02*
X75077000Y-164453400D01*
X77236100Y-134742400D02*
X77236100Y-162294300D01*
%TO.N,Net-(D8-K)*%
X65793400Y-140602700D02*
X71653700Y-134742400D01*
X65793400Y-170395600D02*
X65793400Y-140602700D01*
%TO.N,Net-(D7-K)*%
X59316500Y-166808300D02*
X59316500Y-149597900D01*
X62903800Y-170395600D02*
X59316500Y-166808300D01*
%TO.N,Net-(D5-K)*%
X87582800Y-101488700D02*
X92038100Y-97033400D01*
X87582800Y-125292900D02*
X87582800Y-101488700D01*
%TO.N,Net-(D3-K)*%
X80222700Y-105015900D02*
X80222700Y-96118100D01*
X83209300Y-108002500D02*
X80222700Y-105015900D01*
D17*
%TO.N,+12V*%
X298244500Y-189406200D02*
X298244500Y-170395600D01*
X62623800Y-89169500D02*
X62623800Y-110973600D01*
X66795000Y-84998300D02*
X62623800Y-89169500D01*
X71588300Y-84998300D02*
X66795000Y-84998300D01*
X73590000Y-87000000D02*
X71588300Y-84998300D01*
X64503800Y-189253800D02*
X66750000Y-191500000D01*
X64503800Y-150492300D02*
X64503800Y-189253800D01*
X64503800Y-150492300D02*
X64503800Y-130880400D01*
X64503800Y-112853600D02*
X62623800Y-110973600D01*
X64503800Y-130880400D02*
X64503800Y-112853600D01*
X98142300Y-187618900D02*
X101716700Y-191193300D01*
X98142300Y-179672800D02*
X98142300Y-187618900D01*
X190520100Y-130012000D02*
X190520100Y-116709000D01*
X191548200Y-131040100D02*
X190520100Y-130012000D01*
X202818600Y-178685800D02*
X200470600Y-176337800D01*
X202818600Y-189184600D02*
X202818600Y-178685800D01*
X94759900Y-176290400D02*
X98142300Y-179672800D01*
X94759900Y-164248600D02*
X94759900Y-176290400D01*
X199686700Y-175553900D02*
X200470600Y-176337800D01*
X199686700Y-158511200D02*
X199686700Y-175553900D01*
X280906700Y-116903300D02*
X280906700Y-148795800D01*
X283588400Y-114221600D02*
X280906700Y-116903300D01*
X152747800Y-129662400D02*
X152747800Y-149828000D01*
X148914500Y-125829100D02*
X152747800Y-129662400D01*
X280781200Y-148795800D02*
X280906700Y-148795800D01*
X279901600Y-149675400D02*
X280781200Y-148795800D01*
X279901600Y-167043900D02*
X279901600Y-149675400D01*
X189807500Y-155094100D02*
X193038600Y-151863000D01*
X189474900Y-155094100D02*
X189807500Y-155094100D01*
X199686700Y-158511200D02*
X193038600Y-151863000D01*
X191548200Y-150372700D02*
X191548200Y-131040100D01*
X193038600Y-151863000D02*
X191548200Y-150372700D01*
X149376600Y-90228900D02*
X150167900Y-89437600D01*
X149376600Y-101171100D02*
X149376600Y-90228900D01*
X149645700Y-101440200D02*
X149376600Y-101171100D01*
X148914500Y-102171400D02*
X149645700Y-101440200D01*
X148914500Y-125829100D02*
X148914500Y-102171400D01*
X190520100Y-107056000D02*
X190520100Y-116709000D01*
X190726900Y-106849200D02*
X190520100Y-107056000D01*
X283588400Y-105482700D02*
X283588400Y-114221600D01*
X280337900Y-102232200D02*
X283588400Y-105482700D01*
D16*
%TO.N,Net-(J6-Pin_1)*%
X258790000Y-178050000D02*
X258790000Y-176798300D01*
X262675000Y-86890800D02*
X262676600Y-86889200D01*
X261409900Y-174178400D02*
X258790000Y-176798300D01*
X261409900Y-88155900D02*
X261409900Y-174178400D01*
X262675000Y-86890800D02*
X261409900Y-88155900D01*
%TO.N,Net-(J6-Pin_2)*%
X271571400Y-95893500D02*
X277718300Y-89746600D01*
X271571400Y-113196200D02*
X271571400Y-95893500D01*
X272029000Y-113653800D02*
X271571400Y-113196200D01*
X272029000Y-167351000D02*
X272029000Y-113653800D01*
X261330000Y-178050000D02*
X272029000Y-167351000D01*
%TO.N,Net-(J6-Pin_3)*%
X309720700Y-85695700D02*
X309368100Y-86048300D01*
X314145700Y-85695700D02*
X309720700Y-85695700D01*
X316000000Y-87550000D02*
X314145700Y-85695700D01*
X277017000Y-164903000D02*
X263870000Y-178050000D01*
X277017000Y-103539900D02*
X277017000Y-164903000D01*
X286790000Y-93766900D02*
X277017000Y-103539900D01*
X286790000Y-86992900D02*
X286790000Y-93766900D01*
X287485500Y-86297400D02*
X286790000Y-86992900D01*
X309119000Y-86297400D02*
X287485500Y-86297400D01*
X309368100Y-86048300D02*
X309119000Y-86297400D01*
X309368100Y-86048300D02*
X309119000Y-86297400D01*
%TO.N,Net-(J5-Pin_2)*%
X169820700Y-116096200D02*
X169820700Y-116734200D01*
X169260000Y-86653300D02*
X171284400Y-84628900D01*
X169260000Y-115535500D02*
X169260000Y-86653300D01*
X169820700Y-116096200D02*
X169260000Y-115535500D01*
%TO.N,Net-(J5-Pin_3)*%
X99230000Y-115016900D02*
X101128900Y-116915800D01*
X99230000Y-113550000D02*
X99230000Y-115016900D01*
X271365100Y-114499000D02*
X271271400Y-114592700D01*
X270978900Y-114499000D02*
X271365100Y-114499000D01*
X269048300Y-112568400D02*
X270978900Y-114499000D01*
X269048300Y-94433800D02*
X269048300Y-112568400D01*
X274351700Y-89130400D02*
X269048300Y-94433800D01*
%TO.N,Net-(J5-Pin_1)*%
X117608300Y-92828200D02*
X117839500Y-92597000D01*
X117608300Y-117904400D02*
X117608300Y-92828200D01*
X117380900Y-118131800D02*
X117608300Y-117904400D01*
X321080000Y-90090000D02*
X321080000Y-93712200D01*
X117839500Y-92597000D02*
X117839500Y-92252100D01*
X117839500Y-92252100D02*
X117839500Y-92597000D01*
%TO.N,Net-(J4-Pin_8)*%
X306155400Y-94084800D02*
X306155400Y-111463500D01*
X309631700Y-90608500D02*
X306155400Y-94084800D01*
X309631700Y-89571500D02*
X309631700Y-90608500D01*
X309299300Y-89239100D02*
X309631700Y-89571500D01*
X309299300Y-88574700D02*
X309299300Y-89239100D01*
X309631700Y-88242300D02*
X309299300Y-88574700D01*
X309631700Y-87053900D02*
X309631700Y-88242300D01*
X310388200Y-86297400D02*
X309631700Y-87053900D01*
X311528400Y-86297400D02*
X310388200Y-86297400D01*
X312190100Y-86959100D02*
X311528400Y-86297400D01*
X312190100Y-88062200D02*
X312190100Y-86959100D01*
X312929600Y-88801700D02*
X312190100Y-88062200D01*
X316521100Y-88801700D02*
X312929600Y-88801700D01*
X317251700Y-88071100D02*
X316521100Y-88801700D01*
X317251700Y-87056200D02*
X317251700Y-88071100D01*
X318009600Y-86298300D02*
X317251700Y-87056200D01*
X321639700Y-86298300D02*
X318009600Y-86298300D01*
X322350000Y-87008600D02*
X321639700Y-86298300D01*
X322350000Y-88820000D02*
X322350000Y-87008600D01*
X323620000Y-90090000D02*
X322350000Y-88820000D01*
%TO.N,Net-(J4-Pin_4)*%
X316754900Y-111415200D02*
X316754900Y-111275000D01*
X317041400Y-111701700D02*
X316754900Y-111415200D01*
X323857200Y-111701700D02*
X317041400Y-111701700D01*
X328700000Y-106858900D02*
X323857200Y-111701700D01*
X328700000Y-90090000D02*
X328700000Y-106858900D01*
%TO.N,Net-(J4-Pin_2)*%
X259639300Y-107470700D02*
X255060000Y-112050000D01*
X259639300Y-87125200D02*
X259639300Y-107470700D01*
%TO.N,Net-(J4-Pin_3)*%
X329350200Y-107631100D02*
X328745000Y-108236300D01*
X329350200Y-94252200D02*
X329350200Y-107631100D01*
X332491700Y-91110700D02*
X329350200Y-94252200D01*
X332491700Y-88801700D02*
X332491700Y-91110700D01*
X331240000Y-87550000D02*
X332491700Y-88801700D01*
%TO.N,Net-(J4-Pin_9)*%
X286298100Y-85579800D02*
X286298100Y-84980900D01*
X285696300Y-85579800D02*
X286298100Y-85579800D01*
X284250000Y-87026100D02*
X285696300Y-85579800D01*
X284250000Y-88104000D02*
X284250000Y-87026100D01*
X283552300Y-88801700D02*
X284250000Y-88104000D01*
X282488400Y-88801700D02*
X283552300Y-88801700D01*
X272840000Y-98450100D02*
X282488400Y-88801700D01*
X272840000Y-112050000D02*
X272840000Y-98450100D01*
%TO.N,Net-(J4-Pin_6)*%
X326160000Y-107245700D02*
X326160000Y-90090000D01*
X324462500Y-108943200D02*
X326160000Y-107245700D01*
%TO.N,Net-(J4-Pin_7)*%
X324890000Y-104938900D02*
X320735700Y-109093200D01*
X324890000Y-88820000D02*
X324890000Y-104938900D01*
X326160000Y-87550000D02*
X324890000Y-88820000D01*
%TO.N,Net-(J4-Pin_5)*%
X327430000Y-107108100D02*
X325726500Y-108811600D01*
X327430000Y-88820000D02*
X327430000Y-107108100D01*
X328700000Y-87550000D02*
X327430000Y-88820000D01*
%TO.N,GND*%
X174430100Y-175941700D02*
X175150000Y-175941700D01*
X173998300Y-176373500D02*
X174430100Y-175941700D01*
X173998300Y-178286500D02*
X173998300Y-176373500D01*
X174430100Y-178718300D02*
X173998300Y-178286500D01*
X175150000Y-178718300D02*
X174430100Y-178718300D01*
X175150000Y-179870000D02*
X175150000Y-178718300D01*
X175150000Y-174790000D02*
X175150000Y-175941700D01*
X89469900Y-149218300D02*
X88750000Y-149218300D01*
X89901700Y-148786500D02*
X89469900Y-149218300D01*
X89901700Y-146873500D02*
X89901700Y-148786500D01*
X89469900Y-146441700D02*
X89901700Y-146873500D01*
X88750000Y-146441700D02*
X89469900Y-146441700D01*
X88750000Y-150370000D02*
X88750000Y-149218300D01*
X334469900Y-112518300D02*
X333750000Y-112518300D01*
X334901700Y-112086500D02*
X334469900Y-112518300D01*
X334901700Y-110173500D02*
X334901700Y-112086500D01*
X334469900Y-109741700D02*
X334901700Y-110173500D01*
X333750000Y-109741700D02*
X334469900Y-109741700D01*
X333750000Y-108590000D02*
X333750000Y-109741700D01*
X68510000Y-97176100D02*
X82307500Y-110973600D01*
X68510000Y-87000000D02*
X68510000Y-97176100D01*
X73050000Y-156724100D02*
X73050000Y-149790000D01*
X71262900Y-158511200D02*
X73050000Y-156724100D01*
X317280100Y-176241700D02*
X318000000Y-176241700D01*
X316848300Y-176673500D02*
X317280100Y-176241700D01*
X316848300Y-178586500D02*
X316848300Y-176673500D01*
X317280100Y-179018300D02*
X316848300Y-178586500D01*
X318000000Y-179018300D02*
X317280100Y-179018300D01*
X318000000Y-180170000D02*
X318000000Y-179018300D01*
X318000000Y-175090000D02*
X318000000Y-176241700D01*
X71830000Y-159078300D02*
X71262900Y-158511200D01*
X71830000Y-191500000D02*
X71830000Y-159078300D01*
X221219900Y-178918300D02*
X220500000Y-178918300D01*
X221651700Y-178486500D02*
X221219900Y-178918300D01*
X221651700Y-176573500D02*
X221651700Y-178486500D01*
X221219900Y-176141700D02*
X221651700Y-176573500D01*
X220500000Y-176141700D02*
X221219900Y-176141700D01*
X220500000Y-180070000D02*
X220500000Y-178918300D01*
X82307500Y-119146200D02*
X82307500Y-110973600D01*
X81711400Y-119742300D02*
X82307500Y-119146200D01*
X206351600Y-177506500D02*
X206351600Y-176337800D01*
X205519800Y-178338300D02*
X206351600Y-177506500D01*
X204800000Y-178338300D02*
X205519800Y-178338300D01*
X204800000Y-179490000D02*
X204800000Y-178338300D01*
X88750000Y-145290000D02*
X88750000Y-145865800D01*
X88750000Y-145865800D02*
X88750000Y-146441700D01*
X81711400Y-138827200D02*
X81711400Y-119742300D01*
X88750000Y-145865800D02*
X81711400Y-138827200D01*
X351869900Y-146191700D02*
X351150000Y-146191700D01*
X352301700Y-146623500D02*
X351869900Y-146191700D01*
X352301700Y-148536500D02*
X352301700Y-146623500D01*
X351869900Y-148968300D02*
X352301700Y-148536500D01*
X351150000Y-148968300D02*
X351869900Y-148968300D01*
X351150000Y-150120000D02*
X351150000Y-148968300D01*
X351150000Y-145040000D02*
X351150000Y-146191700D01*
X351150000Y-161128100D02*
X351150000Y-150120000D01*
X351504200Y-161482300D02*
X351150000Y-161128100D01*
X283745100Y-140339500D02*
X283745100Y-127951700D01*
X283400000Y-140684600D02*
X283745100Y-140339500D01*
X283400000Y-147369500D02*
X283400000Y-140684600D01*
X281171600Y-149597900D02*
X283400000Y-147369500D01*
X202678500Y-110416800D02*
X203060000Y-110798300D01*
X202678500Y-105745700D02*
X202678500Y-110416800D01*
X203060000Y-112050000D02*
X203060000Y-110798300D01*
X203060000Y-112050000D02*
X203060000Y-113301700D01*
X333750000Y-113094100D02*
X333750000Y-112518300D01*
X333750000Y-113094100D02*
X333750000Y-113670000D01*
X334730200Y-148388300D02*
X335450000Y-148388300D01*
X333750000Y-147408100D02*
X334730200Y-148388300D01*
X333750000Y-113670000D02*
X333750000Y-147408100D01*
X335450000Y-149540000D02*
X335450000Y-148388300D01*
X281171600Y-177653300D02*
X281171600Y-149597900D01*
X280774900Y-178050000D02*
X281171600Y-177653300D01*
X279066000Y-178050000D02*
X280774900Y-178050000D01*
X280774900Y-182547200D02*
X286525600Y-188297900D01*
X280774900Y-178050000D02*
X280774900Y-182547200D01*
X220500000Y-174990000D02*
X220500000Y-176141700D01*
X316165700Y-116126000D02*
X318050000Y-114241700D01*
X316165700Y-125196800D02*
X316165700Y-116126000D01*
X318050000Y-113090000D02*
X318050000Y-114241700D01*
X202724700Y-113637000D02*
X202724700Y-117056700D01*
X203060000Y-113301700D02*
X202724700Y-113637000D01*
X206351600Y-142089300D02*
X206076600Y-141814300D01*
X206351600Y-176337800D02*
X206351600Y-142089300D01*
X206076600Y-120408600D02*
X202724700Y-117056700D01*
X206076600Y-141814300D02*
X206076600Y-120408600D01*
X252520000Y-118031700D02*
X241499100Y-129052600D01*
X252520000Y-112050000D02*
X252520000Y-118031700D01*
X252520000Y-101150300D02*
X252520000Y-112050000D01*
X249919700Y-98550000D02*
X252520000Y-101150300D01*
X316165700Y-125196800D02*
X315964800Y-125397700D01*
X315964800Y-125397700D02*
X316165700Y-125196800D01*
%TO.N,Net-(J1-Pin_31)*%
X104115500Y-93435500D02*
X104115500Y-109685100D01*
X100430000Y-89750000D02*
X104115500Y-93435500D01*
%TO.N,Net-(J1-Pin_13)*%
X187740300Y-167479500D02*
X187740300Y-140684600D01*
X190839200Y-170578400D02*
X187740300Y-167479500D01*
X123290000Y-124035400D02*
X123290000Y-89750000D01*
X136968100Y-137713500D02*
X123290000Y-124035400D01*
%TO.N,Net-(J1-Pin_4)*%
X351150000Y-142500000D02*
X351150000Y-141348300D01*
X343951000Y-134149300D02*
X343951000Y-96975000D01*
X351150000Y-141348300D02*
X343951000Y-134149300D01*
X148914500Y-84054500D02*
X148914500Y-86840700D01*
%TO.N,Net-(J1-Pin_7)*%
X266490000Y-168507200D02*
X268151200Y-170168400D01*
X266490000Y-93544800D02*
X266490000Y-168507200D01*
X265391900Y-92446700D02*
X266490000Y-93544800D01*
%TO.N,Net-(J1-Pin_26)*%
X165450000Y-103544400D02*
X165450000Y-112350000D01*
X154675000Y-92769400D02*
X165450000Y-103544400D01*
X151697700Y-92769400D02*
X154675000Y-92769400D01*
X150442600Y-94024500D02*
X151697700Y-92769400D01*
X150442600Y-94024500D02*
X150442600Y-94110300D01*
%TO.N,Net-(J1-Pin_27)*%
X166705900Y-113634100D02*
X167990000Y-112350000D01*
X157324900Y-113634100D02*
X166705900Y-113634100D01*
X156560000Y-112869200D02*
X157324900Y-113634100D01*
X156560000Y-111543900D02*
X156560000Y-112869200D01*
X152180200Y-107164100D02*
X156560000Y-111543900D01*
X152180200Y-98517300D02*
X152180200Y-107164100D01*
%TO.N,Net-(J1-Pin_11)*%
X331097100Y-108477100D02*
X331097100Y-95791300D01*
X333750000Y-111130000D02*
X331097100Y-108477100D01*
X268378500Y-93479700D02*
X268378500Y-92228500D01*
X268125500Y-93732700D02*
X268378500Y-93479700D01*
X268125500Y-93732700D02*
X268483300Y-93732700D01*
X268483300Y-93732700D02*
X268125500Y-93732700D01*
X268378500Y-92228500D02*
X267806500Y-91656500D01*
X267806500Y-91656500D02*
X267753400Y-91603400D01*
X267753400Y-91603400D02*
X267806500Y-91656500D01*
%TO.N,Net-(J1-Pin_6)*%
X336863200Y-144435100D02*
X335450000Y-145848300D01*
X336863200Y-95791300D02*
X336863200Y-144435100D01*
X335450000Y-147000000D02*
X335450000Y-145848300D01*
%TO.N,Net-(J1-Pin_23)*%
X153029500Y-94691900D02*
X152447900Y-94110300D01*
X153029500Y-106698700D02*
X153029500Y-94691900D01*
X157830000Y-111499200D02*
X153029500Y-106698700D01*
X157830000Y-112350000D02*
X157830000Y-111499200D01*
X152447900Y-94110300D02*
X151877800Y-94680400D01*
X151877800Y-94680400D02*
X152447900Y-94110300D01*
%TO.N,Net-(J1-Pin_10)*%
X333967500Y-104680800D02*
X333967500Y-91762600D01*
X333750000Y-104898300D02*
X333967500Y-104680800D01*
X333750000Y-106050000D02*
X333750000Y-104898300D01*
%TO.N,Net-(J1-Pin_5)*%
X349923400Y-147580000D02*
X340056900Y-137713500D01*
X351150000Y-147580000D02*
X349923400Y-147580000D01*
X292271300Y-108356100D02*
X291465900Y-107550700D01*
X292271300Y-134742400D02*
X292271300Y-108356100D01*
X133981500Y-90281500D02*
X133450000Y-89750000D01*
X133981500Y-105912800D02*
X133981500Y-90281500D01*
%TO.N,Net-(J1-Pin_37)*%
X93411700Y-90351700D02*
X92810000Y-89750000D01*
X93411700Y-104164400D02*
X93411700Y-90351700D01*
X95438300Y-106191000D02*
X93411700Y-104164400D01*
X95438300Y-114104300D02*
X95438300Y-106191000D01*
X96250300Y-114916300D02*
X95438300Y-114104300D01*
X96532400Y-114916300D02*
X96250300Y-114916300D01*
%TO.N,Net-(J1-Pin_14)*%
X122020000Y-164384100D02*
X131461300Y-173825400D01*
X122020000Y-88480000D02*
X122020000Y-164384100D01*
X123290000Y-87210000D02*
X122020000Y-88480000D01*
%TO.N,Net-(J1-Pin_3)*%
X143303000Y-117264800D02*
X143552100Y-117513900D01*
X143303000Y-117264800D02*
X143552100Y-117513900D01*
X143684100Y-117645900D02*
X143552100Y-117513900D01*
X143684100Y-140684600D02*
X143684100Y-117645900D01*
X137260000Y-88480000D02*
X135990000Y-89750000D01*
X139580800Y-88480000D02*
X137260000Y-88480000D01*
X139912300Y-88811500D02*
X139580800Y-88480000D01*
X139912300Y-113874100D02*
X139912300Y-88811500D01*
X143303000Y-117264800D02*
X139912300Y-113874100D01*
%TO.N,Net-(J1-Pin_12)*%
X318050000Y-110550000D02*
X318050000Y-109398300D01*
X309899100Y-93936200D02*
X309651500Y-93688600D01*
X309899100Y-93936200D02*
X309651500Y-93688600D01*
X310150400Y-88838300D02*
X310020700Y-88968000D01*
X311438500Y-88838300D02*
X310150400Y-88838300D01*
X312171700Y-89571500D02*
X311438500Y-88838300D01*
X312171700Y-91168400D02*
X312171700Y-89571500D01*
X309651500Y-93688600D02*
X312171700Y-91168400D01*
X318050000Y-102087100D02*
X309899100Y-93936200D01*
X318050000Y-109398300D02*
X318050000Y-102087100D01*
%TO.N,Net-(J1-Pin_2)*%
X139164200Y-87210000D02*
X138530000Y-87210000D01*
X144402900Y-92448700D02*
X139164200Y-87210000D01*
X144402900Y-143287700D02*
X144402900Y-92448700D01*
X144034900Y-143655700D02*
X144402900Y-143287700D01*
%TO.N,Net-(J1-Pin_25)*%
X151141900Y-95555500D02*
X151141900Y-96029700D01*
X151079000Y-95492600D02*
X151141900Y-95555500D01*
X151141900Y-96029700D02*
X151141900Y-96115500D01*
X162910000Y-101856600D02*
X162910000Y-112350000D01*
X154424700Y-93371300D02*
X162910000Y-101856600D01*
X152100300Y-93371300D02*
X154424700Y-93371300D01*
X151144300Y-94327300D02*
X152100300Y-93371300D01*
X151144300Y-95427300D02*
X151144300Y-94327300D01*
X151079000Y-95492600D02*
X151144300Y-95427300D01*
%TO.N,Net-(J1-Pin_29)*%
X110088700Y-96868700D02*
X102970000Y-89750000D01*
X110088700Y-105942200D02*
X110088700Y-96868700D01*
X114384700Y-110238200D02*
X110088700Y-105942200D01*
%TO.N,Net-(J1-Pin_9)*%
X302300000Y-156671000D02*
X289284700Y-143655700D01*
X302300000Y-177050000D02*
X302300000Y-156671000D01*
X253789900Y-140106500D02*
X256889500Y-143206100D01*
X253789900Y-94577900D02*
X253789900Y-140106500D01*
X251707600Y-92495600D02*
X253789900Y-94577900D01*
X289284700Y-143655700D02*
X288835100Y-143206100D01*
X288835100Y-143206100D02*
X289284700Y-143655700D01*
X251707600Y-92495600D02*
X251707600Y-92128400D01*
X251707600Y-92128400D02*
X251707600Y-92228500D01*
X251707600Y-92228500D02*
X251707600Y-92817900D01*
X251707600Y-92817900D02*
X251707600Y-92717800D01*
X251707600Y-92717800D02*
X251707600Y-92817900D01*
X251707600Y-92817900D02*
X251707600Y-92906900D01*
%TO.N,Net-(J1-Pin_20)*%
X142950400Y-170013600D02*
X143435100Y-170498300D01*
X142950400Y-117763000D02*
X142950400Y-170013600D01*
X142950300Y-117763000D02*
X142950400Y-117763000D01*
X124493300Y-99306000D02*
X142950300Y-117763000D01*
X124493300Y-90840200D02*
X124493300Y-99306000D01*
X124560000Y-90773500D02*
X124493300Y-90840200D01*
X124560000Y-86678800D02*
X124560000Y-90773500D01*
X123817500Y-85936300D02*
X124560000Y-86678800D01*
X116943700Y-85936300D02*
X123817500Y-85936300D01*
X115670000Y-87210000D02*
X116943700Y-85936300D01*
%TO.N,Net-(J1-Pin_35)*%
X200390200Y-113541600D02*
X200083200Y-113848600D01*
X200390200Y-112236500D02*
X200390200Y-113541600D01*
X106702200Y-113663800D02*
X107764600Y-112601400D01*
X104608700Y-113663800D02*
X106702200Y-113663800D01*
X104179000Y-113234100D02*
X104608700Y-113663800D01*
X104179000Y-112733100D02*
X104179000Y-113234100D01*
X95350000Y-103904100D02*
X104179000Y-112733100D01*
X95350000Y-89750000D02*
X95350000Y-103904100D01*
%TO.N,Net-(J1-Pin_28)*%
X106811500Y-85908500D02*
X105510000Y-87210000D01*
X108789000Y-85908500D02*
X106811500Y-85908500D01*
X109038100Y-85659400D02*
X108789000Y-85908500D01*
X109038100Y-85659400D02*
X108789000Y-85908500D01*
X114400000Y-107857100D02*
X116277100Y-109734200D01*
X114400000Y-86704500D02*
X114400000Y-107857100D01*
X113002300Y-85306800D02*
X114400000Y-86704500D01*
X109390700Y-85306800D02*
X113002300Y-85306800D01*
X109038100Y-85659400D02*
X109390700Y-85306800D01*
%TO.N,Net-(J1-Pin_34)*%
X99160000Y-88480000D02*
X97890000Y-87210000D01*
X99160000Y-90556100D02*
X99160000Y-88480000D01*
X102379000Y-93775100D02*
X99160000Y-90556100D01*
X102379000Y-110032900D02*
X102379000Y-93775100D01*
X104880700Y-112534600D02*
X102379000Y-110032900D01*
X104880700Y-112943600D02*
X104880700Y-112534600D01*
%TO.N,Net-(J1-Pin_8)*%
X307526500Y-125185800D02*
X307526500Y-96251800D01*
X319151700Y-136811000D02*
X307526500Y-125185800D01*
X319151700Y-176478300D02*
X319151700Y-136811000D01*
X318000000Y-177630000D02*
X319151700Y-176478300D01*
X132180000Y-88480000D02*
X130910000Y-87210000D01*
X132180000Y-92264700D02*
X132180000Y-88480000D01*
X132869100Y-92953800D02*
X132180000Y-92264700D01*
X132869100Y-92953800D02*
X132180000Y-92953800D01*
X132180000Y-92953800D02*
X132869100Y-92953800D01*
%TO.N,Net-(J1-Pin_33)*%
X97890000Y-104813500D02*
X97890000Y-89750000D01*
X101677300Y-108600800D02*
X97890000Y-104813500D01*
%TO.N,Net-(J1-Pin_17)*%
X121650000Y-177580000D02*
X121650000Y-176428300D01*
X118541200Y-90081200D02*
X118210000Y-89750000D01*
X118541200Y-92887600D02*
X118541200Y-90081200D01*
X118211500Y-93217300D02*
X118541200Y-92887600D01*
X118211500Y-173706800D02*
X118211500Y-93217300D01*
X120933000Y-176428300D02*
X118211500Y-173706800D01*
X121650000Y-176428300D02*
X120933000Y-176428300D01*
%TO.N,Net-(J1-Pin_36)*%
X214619700Y-105829700D02*
X214619700Y-83393600D01*
X220840000Y-112050000D02*
X214619700Y-105829700D01*
%TO.N,Net-(J1-Pin_15)*%
X190586300Y-105624000D02*
X190020800Y-105624000D01*
X193276600Y-108314300D02*
X190586300Y-105624000D01*
X193276600Y-131778200D02*
X193276600Y-108314300D01*
X204800000Y-143301600D02*
X193276600Y-131778200D01*
X204800000Y-176950000D02*
X204800000Y-143301600D01*
X134769600Y-106155900D02*
X134769600Y-105506400D01*
X134304700Y-106620800D02*
X134769600Y-106155900D01*
X133640300Y-106620800D02*
X134304700Y-106620800D01*
X125195000Y-98175500D02*
X133640300Y-106620800D01*
X125195000Y-91130700D02*
X125195000Y-98175500D01*
%TO.N,Net-(J1-Pin_24)*%
X111860000Y-88480000D02*
X110590000Y-87210000D01*
X111860000Y-93314300D02*
X111860000Y-88480000D01*
X112365600Y-93819900D02*
X111860000Y-93314300D01*
X112610500Y-93819900D02*
X112907100Y-93523300D01*
X112365600Y-93819900D02*
X112610500Y-93819900D01*
X112907100Y-93523300D02*
X112874600Y-93523300D01*
X154169900Y-106149900D02*
X154169900Y-94131400D01*
X160370000Y-112350000D02*
X154169900Y-106149900D01*
%TO.N,Net-(J1-Pin_30)*%
X107102100Y-94887300D02*
X103478000Y-91263200D01*
X107102100Y-110687600D02*
X107102100Y-94887300D01*
X177421100Y-108932500D02*
X172261600Y-108932500D01*
X179097400Y-110608800D02*
X177421100Y-108932500D01*
%TO.N,Net-(J1-Pin_18)*%
X105950000Y-177000000D02*
X105950000Y-175848300D01*
X116940100Y-88479900D02*
X118210000Y-87210000D01*
X116940100Y-109016000D02*
X116940100Y-88479900D01*
X116679200Y-165119100D02*
X105950000Y-175848300D01*
X116679200Y-117841300D02*
X116679200Y-165119100D01*
X117005100Y-117515400D02*
X116679200Y-117841300D01*
X117005100Y-109081000D02*
X117005100Y-117515400D01*
X117005100Y-109081000D02*
X116940100Y-109016000D01*
X117005100Y-109081000D02*
X116940100Y-109016000D01*
%TO.N,Net-(J1-Pin_16)*%
X121650000Y-172500000D02*
X121650000Y-171348300D01*
X119113700Y-168812000D02*
X121650000Y-171348300D01*
X119113700Y-115920100D02*
X119113700Y-168812000D01*
X118864600Y-115671000D02*
X119113700Y-115920100D01*
X118864600Y-115671000D02*
X119113700Y-115920100D01*
X119478300Y-115057300D02*
X118864600Y-115671000D01*
X119478300Y-88481700D02*
X119478300Y-115057300D01*
X120750000Y-87210000D02*
X119478300Y-88481700D01*
%TO.N,Net-(J1-Pin_19)*%
X175150000Y-172250000D02*
X175150000Y-171098300D01*
X115670100Y-89750100D02*
X115670100Y-96914100D01*
X115670000Y-89750000D02*
X115670100Y-89750100D01*
X151353800Y-98408500D02*
X150178400Y-97233100D01*
X151353800Y-125204300D02*
X151353800Y-98408500D01*
X175150000Y-149000500D02*
X151353800Y-125204300D01*
X175150000Y-171098300D02*
X175150000Y-149000500D01*
%TO.N,Net-(J1-Pin_1)*%
X93397700Y-84777400D02*
X99065800Y-84777400D01*
X91540000Y-86635100D02*
X93397700Y-84777400D01*
X91540000Y-92391700D02*
X91540000Y-86635100D01*
X92739900Y-93591600D02*
X91540000Y-92391700D01*
X92739900Y-137608400D02*
X92739900Y-93591600D01*
X88750000Y-141598300D02*
X92739900Y-137608400D01*
X88750000Y-142750000D02*
X88750000Y-141598300D01*
X134720000Y-85809600D02*
X133223700Y-84313300D01*
X134720000Y-90263600D02*
X134720000Y-85809600D01*
X135458100Y-91001700D02*
X134720000Y-90263600D01*
X136509700Y-91001700D02*
X135458100Y-91001700D01*
X137278300Y-90233100D02*
X136509700Y-91001700D01*
X137278300Y-89750000D02*
X137278300Y-90233100D01*
X138530000Y-89750000D02*
X137278300Y-89750000D01*
%TO.N,Net-(J1-Pin_21)*%
X159450000Y-176750000D02*
X159450000Y-175598300D01*
X113576400Y-101700700D02*
X113216800Y-102060300D01*
X113576400Y-90196400D02*
X113576400Y-101700700D01*
X113130000Y-89750000D02*
X113576400Y-90196400D01*
X159450000Y-134451500D02*
X159450000Y-175598300D01*
X150568100Y-125569600D02*
X159450000Y-134451500D01*
X150568100Y-99131700D02*
X150568100Y-125569600D01*
%TO.N,Net-(J1-Pin_22)*%
X111828500Y-85908500D02*
X113130000Y-87210000D01*
X110107100Y-85908500D02*
X111828500Y-85908500D01*
X109320000Y-86695600D02*
X110107100Y-85908500D01*
X109320000Y-93051200D02*
X109320000Y-86695600D01*
X112033600Y-95764800D02*
X109320000Y-93051200D01*
X112033600Y-106822800D02*
X112033600Y-95764800D01*
X115600600Y-110389800D02*
X112033600Y-106822800D01*
%TO.N,Net-(J1-Pin_32)*%
X99171200Y-85951200D02*
X100430000Y-87210000D01*
X94794600Y-85951200D02*
X99171200Y-85951200D01*
X94080000Y-86665800D02*
X94794600Y-85951200D01*
X94080000Y-103731900D02*
X94080000Y-86665800D01*
X97076200Y-106728100D02*
X94080000Y-103731900D01*
X97076200Y-107126600D02*
X97076200Y-106728100D01*
%TD*%
M02*
