%TF.GenerationSoftware,KiCad,Pcbnew,9.0.2*%
%TF.CreationDate,2025-07-08T20:46:09+02:00*%
%TF.ProjectId,aircond,61697263-6f6e-4642-9e6b-696361645f70,rev?*%
%TF.SameCoordinates,Original*%
%TF.FileFunction,Soldermask,Top*%
%TF.FilePolarity,Negative*%
%FSLAX46Y46*%
G04 Gerber Fmt 4.6, Leading zero omitted, Abs format (unit mm)*
G04 Created by KiCad (PCBNEW 9.0.2) date 2025-07-08 20:46:09*
%MOMM*%
%LPD*%
G01*
G04 APERTURE LIST*
G04 Aperture macros list*
%AMRoundRect*
0 Rectangle with rounded corners*
0 $1 Rounding radius*
0 $2 $3 $4 $5 $6 $7 $8 $9 X,Y pos of 4 corners*
0 Add a 4 corners polygon primitive as box body*
4,1,4,$2,$3,$4,$5,$6,$7,$8,$9,$2,$3,0*
0 Add four circle primitives for the rounded corners*
1,1,$1+$1,$2,$3*
1,1,$1+$1,$4,$5*
1,1,$1+$1,$6,$7*
1,1,$1+$1,$8,$9*
0 Add four rect primitives between the rounded corners*
20,1,$1+$1,$2,$3,$4,$5,0*
20,1,$1+$1,$4,$5,$6,$7,0*
20,1,$1+$1,$6,$7,$8,$9,0*
20,1,$1+$1,$8,$9,$2,$3,0*%
G04 Aperture macros list end*
%ADD10R,3.000000X3.000000*%
%ADD11C,3.000000*%
%ADD12RoundRect,0.165000X-0.385000X-0.885000X0.385000X-0.885000X0.385000X0.885000X-0.385000X0.885000X0*%
%ADD13RoundRect,0.315000X-0.735000X-0.735000X0.735000X-0.735000X0.735000X0.735000X-0.735000X0.735000X0*%
%ADD14RoundRect,0.250000X-0.400000X-0.625000X0.400000X-0.625000X0.400000X0.625000X-0.400000X0.625000X0*%
%ADD15R,1.500000X1.500000*%
%ADD16R,1.700000X1.700000*%
%ADD17C,1.700000*%
G04 APERTURE END LIST*
D10*
%TO.C,J9*%
X71830000Y-191500000D03*
D11*
X66750000Y-191500000D03*
%TD*%
%TO.C,J8*%
X73590000Y-87000000D03*
D10*
X68510000Y-87000000D03*
%TD*%
D12*
%TO.C,D2*%
X80510000Y-104450000D03*
D13*
X82660000Y-104450000D03*
%TD*%
D12*
%TO.C,D53*%
X150960000Y-190400000D03*
D13*
X153110000Y-190400000D03*
%TD*%
D12*
%TO.C,D48*%
X200460000Y-135900000D03*
D13*
X202610000Y-135900000D03*
%TD*%
D14*
%TO.C,R4*%
X63500000Y-159700000D03*
X66600000Y-159700000D03*
%TD*%
%TO.C,R37*%
X291650000Y-105950000D03*
X294750000Y-105950000D03*
%TD*%
D12*
%TO.C,D59*%
X196560000Y-176650000D03*
D13*
X198710000Y-176650000D03*
%TD*%
D12*
%TO.C,D84*%
X324450000Y-176650000D03*
D13*
X326600000Y-176650000D03*
%TD*%
D12*
%TO.C,D107*%
X277000000Y-104250000D03*
D13*
X279150000Y-104250000D03*
%TD*%
D14*
%TO.C,R9*%
X138150000Y-169450000D03*
X141250000Y-169450000D03*
%TD*%
D12*
%TO.C,D49*%
X200810000Y-150950000D03*
D13*
X202960000Y-150950000D03*
%TD*%
D12*
%TO.C,D103*%
X266360000Y-128650000D03*
D13*
X268510000Y-128650000D03*
%TD*%
D12*
%TO.C,D106*%
X366160000Y-112900000D03*
D13*
X368310000Y-112900000D03*
%TD*%
D14*
%TO.C,R19*%
X189100000Y-183750000D03*
X192200000Y-183750000D03*
%TD*%
%TO.C,R15*%
X186300000Y-119850000D03*
X189400000Y-119850000D03*
%TD*%
D12*
%TO.C,D11*%
X92110000Y-133250000D03*
D13*
X94260000Y-133250000D03*
%TD*%
D14*
%TO.C,R28*%
X284900000Y-189350000D03*
X288000000Y-189350000D03*
%TD*%
D15*
%TO.C,KR3*%
X351150000Y-142500000D03*
X351150000Y-145040000D03*
X351150000Y-147580000D03*
X351150000Y-150120000D03*
X335450000Y-147000000D03*
X335450000Y-149540000D03*
%TD*%
D12*
%TO.C,D37*%
X169060000Y-95900000D03*
D13*
X171210000Y-95900000D03*
%TD*%
D14*
%TO.C,R31*%
X351050000Y-170350000D03*
X354150000Y-170350000D03*
%TD*%
%TO.C,R25*%
X278650000Y-182650000D03*
X281750000Y-182650000D03*
%TD*%
%TO.C,R35*%
X303900000Y-105950000D03*
X307000000Y-105950000D03*
%TD*%
D12*
%TO.C,D78*%
X303160000Y-151400000D03*
D13*
X305310000Y-151400000D03*
%TD*%
D12*
%TO.C,D19*%
X97210000Y-177500000D03*
D13*
X99360000Y-177500000D03*
%TD*%
D12*
%TO.C,D95*%
X292000000Y-141600000D03*
D13*
X294150000Y-141600000D03*
%TD*%
D12*
%TO.C,D28*%
X129060000Y-141450000D03*
D13*
X131210000Y-141450000D03*
%TD*%
D12*
%TO.C,D14*%
X105050000Y-134050000D03*
D13*
X107200000Y-134050000D03*
%TD*%
D15*
%TO.C,KR5*%
X318000000Y-172550000D03*
X318000000Y-175090000D03*
X318000000Y-177630000D03*
X318000000Y-180170000D03*
X302300000Y-177050000D03*
X302300000Y-179590000D03*
%TD*%
D12*
%TO.C,D26*%
X130160000Y-151600000D03*
D13*
X132310000Y-151600000D03*
%TD*%
D14*
%TO.C,R3*%
X95200000Y-141600000D03*
X98300000Y-141600000D03*
%TD*%
D12*
%TO.C,D83*%
X324900000Y-188550000D03*
D13*
X327050000Y-188550000D03*
%TD*%
D12*
%TO.C,D112*%
X227850000Y-136800000D03*
D13*
X230000000Y-136800000D03*
%TD*%
D12*
%TO.C,D54*%
X166760000Y-186850000D03*
D13*
X168910000Y-186850000D03*
%TD*%
D12*
%TO.C,D50*%
X166010000Y-155750000D03*
D13*
X168160000Y-155750000D03*
%TD*%
D12*
%TO.C,D3*%
X91460000Y-94800000D03*
D13*
X93610000Y-94800000D03*
%TD*%
D12*
%TO.C,D25*%
X128160000Y-176550000D03*
D13*
X130310000Y-176550000D03*
%TD*%
D12*
%TO.C,D33*%
X155960000Y-128400000D03*
D13*
X158110000Y-128400000D03*
%TD*%
D12*
%TO.C,D119*%
X195000000Y-89500000D03*
D13*
X197150000Y-89500000D03*
%TD*%
D12*
%TO.C,D72*%
X250800000Y-190200000D03*
D13*
X252950000Y-190200000D03*
%TD*%
D14*
%TO.C,R36*%
X236100000Y-128900000D03*
X239200000Y-128900000D03*
%TD*%
D12*
%TO.C,D17*%
X95660000Y-151050000D03*
D13*
X97810000Y-151050000D03*
%TD*%
D12*
%TO.C,D47*%
X188760000Y-129400000D03*
D13*
X190910000Y-129400000D03*
%TD*%
D12*
%TO.C,D79*%
X294100000Y-164900000D03*
D13*
X296250000Y-164900000D03*
%TD*%
D16*
%TO.C,J5*%
X94150000Y-113550000D03*
D17*
X96690000Y-113550000D03*
X99230000Y-113550000D03*
X101770000Y-113550000D03*
%TD*%
D12*
%TO.C,D122*%
X215910000Y-128750000D03*
D13*
X218060000Y-128750000D03*
%TD*%
D12*
%TO.C,D117*%
X203510000Y-96300000D03*
D13*
X205660000Y-96300000D03*
%TD*%
D12*
%TO.C,D5*%
X101900000Y-94850000D03*
D13*
X104050000Y-94850000D03*
%TD*%
D14*
%TO.C,R32*%
X358150000Y-162850000D03*
X361250000Y-162850000D03*
%TD*%
D12*
%TO.C,D43*%
X178460000Y-136000000D03*
D13*
X180610000Y-136000000D03*
%TD*%
D12*
%TO.C,D80*%
X293260000Y-179350000D03*
D13*
X295410000Y-179350000D03*
%TD*%
D14*
%TO.C,R42*%
X217650000Y-136600000D03*
X220750000Y-136600000D03*
%TD*%
D12*
%TO.C,D36*%
X153700000Y-96000000D03*
D13*
X155850000Y-96000000D03*
%TD*%
D12*
%TO.C,D4*%
X110800000Y-105100000D03*
D13*
X112950000Y-105100000D03*
%TD*%
D14*
%TO.C,R14*%
X185900000Y-103450000D03*
X189000000Y-103450000D03*
%TD*%
D12*
%TO.C,D87*%
X365500000Y-139050000D03*
D13*
X367650000Y-139050000D03*
%TD*%
D12*
%TO.C,D74*%
X286560000Y-152350000D03*
D13*
X288710000Y-152350000D03*
%TD*%
D14*
%TO.C,R29*%
X334200000Y-184200000D03*
X337300000Y-184200000D03*
%TD*%
D12*
%TO.C,D22*%
X97610000Y-190600000D03*
D13*
X99760000Y-190600000D03*
%TD*%
D12*
%TO.C,D69*%
X246060000Y-169900000D03*
D13*
X248210000Y-169900000D03*
%TD*%
D14*
%TO.C,R40*%
X232900000Y-96600000D03*
X236000000Y-96600000D03*
%TD*%
D12*
%TO.C,D92*%
X326850000Y-138250000D03*
D13*
X329000000Y-138250000D03*
%TD*%
D14*
%TO.C,R1*%
X80450000Y-110900000D03*
X83550000Y-110900000D03*
%TD*%
D12*
%TO.C,D34*%
X144600000Y-116700000D03*
D13*
X146750000Y-116700000D03*
%TD*%
D12*
%TO.C,D8*%
X58810000Y-170050000D03*
D13*
X60960000Y-170050000D03*
%TD*%
D12*
%TO.C,D82*%
X309260000Y-186750000D03*
D13*
X311410000Y-186750000D03*
%TD*%
D14*
%TO.C,R24*%
X272250000Y-151050000D03*
X275350000Y-151050000D03*
%TD*%
D12*
%TO.C,D10*%
X78460000Y-127850000D03*
D13*
X80610000Y-127850000D03*
%TD*%
D12*
%TO.C,D13*%
X88450000Y-164500000D03*
D13*
X90600000Y-164500000D03*
%TD*%
D12*
%TO.C,D88*%
X354510000Y-133050000D03*
D13*
X356660000Y-133050000D03*
%TD*%
D12*
%TO.C,D29*%
X137810000Y-128950000D03*
D13*
X139960000Y-128950000D03*
%TD*%
D14*
%TO.C,R17*%
X207800000Y-143150000D03*
X210900000Y-143150000D03*
%TD*%
%TO.C,R27*%
X281850000Y-141300000D03*
X284950000Y-141300000D03*
%TD*%
D12*
%TO.C,D100*%
X338700000Y-97150000D03*
D13*
X340850000Y-97150000D03*
%TD*%
D12*
%TO.C,D71*%
X277110000Y-169200000D03*
D13*
X279260000Y-169200000D03*
%TD*%
D12*
%TO.C,D76*%
X248010000Y-137450000D03*
D13*
X250160000Y-137450000D03*
%TD*%
D12*
%TO.C,D23*%
X112810000Y-186300000D03*
D13*
X114960000Y-186300000D03*
%TD*%
D12*
%TO.C,D97*%
X291300000Y-128400000D03*
D13*
X293450000Y-128400000D03*
%TD*%
D12*
%TO.C,D12*%
X71210000Y-164050000D03*
D13*
X73360000Y-164050000D03*
%TD*%
D12*
%TO.C,D110*%
X243150000Y-106200000D03*
D13*
X245300000Y-106200000D03*
%TD*%
D12*
%TO.C,D99*%
X340560000Y-114000000D03*
D13*
X342710000Y-114000000D03*
%TD*%
D14*
%TO.C,R39*%
X235850000Y-112050000D03*
X238950000Y-112050000D03*
%TD*%
%TO.C,R22*%
X236050000Y-171500000D03*
X239150000Y-171500000D03*
%TD*%
D12*
%TO.C,D118*%
X227760000Y-89500000D03*
D13*
X229910000Y-89500000D03*
%TD*%
D12*
%TO.C,D101*%
X311310000Y-96350000D03*
D13*
X313460000Y-96350000D03*
%TD*%
D12*
%TO.C,D94*%
X316210000Y-149800000D03*
D13*
X318360000Y-149800000D03*
%TD*%
D12*
%TO.C,D39*%
X178300000Y-89300000D03*
D13*
X180450000Y-89300000D03*
%TD*%
D14*
%TO.C,R41*%
X189600000Y-96050000D03*
X192700000Y-96050000D03*
%TD*%
%TO.C,R26*%
X286550000Y-172650000D03*
X289650000Y-172650000D03*
%TD*%
D12*
%TO.C,D65*%
X207610000Y-157650000D03*
D13*
X209760000Y-157650000D03*
%TD*%
D12*
%TO.C,D45*%
X171660000Y-141100000D03*
D13*
X173810000Y-141100000D03*
%TD*%
D14*
%TO.C,R34*%
X305850000Y-126700000D03*
X308950000Y-126700000D03*
%TD*%
%TO.C,R18*%
X138450000Y-176950000D03*
X141550000Y-176950000D03*
%TD*%
D12*
%TO.C,D51*%
X150410000Y-166550000D03*
D13*
X152560000Y-166550000D03*
%TD*%
D12*
%TO.C,D96*%
X313300000Y-134100000D03*
D13*
X315450000Y-134100000D03*
%TD*%
D12*
%TO.C,D27*%
X120910000Y-128850000D03*
D13*
X123060000Y-128850000D03*
%TD*%
D12*
%TO.C,D67*%
X248160000Y-150800000D03*
D13*
X250310000Y-150800000D03*
%TD*%
D12*
%TO.C,D102*%
X309210000Y-114700000D03*
D13*
X311360000Y-114700000D03*
%TD*%
D12*
%TO.C,D86*%
X365160000Y-170250000D03*
D13*
X367310000Y-170250000D03*
%TD*%
D12*
%TO.C,D121*%
X195000000Y-117450000D03*
D13*
X197150000Y-117450000D03*
%TD*%
D12*
%TO.C,D120*%
X195400000Y-104250000D03*
D13*
X197550000Y-104250000D03*
%TD*%
D12*
%TO.C,D68*%
X252060000Y-159850000D03*
D13*
X254210000Y-159850000D03*
%TD*%
D12*
%TO.C,D38*%
X145860000Y-89200000D03*
D13*
X148010000Y-89200000D03*
%TD*%
D12*
%TO.C,D44*%
X160610000Y-140900000D03*
D13*
X162760000Y-140900000D03*
%TD*%
D12*
%TO.C,D116*%
X220660000Y-96150000D03*
D13*
X222810000Y-96150000D03*
%TD*%
D12*
%TO.C,D58*%
X189110000Y-157800000D03*
D13*
X191260000Y-157800000D03*
%TD*%
D12*
%TO.C,D60*%
X197010000Y-190600000D03*
D13*
X199160000Y-190600000D03*
%TD*%
D12*
%TO.C,D40*%
X177060000Y-103400000D03*
D13*
X179210000Y-103400000D03*
%TD*%
D14*
%TO.C,R23*%
X235600000Y-143400000D03*
X238700000Y-143400000D03*
%TD*%
D15*
%TO.C,KR6*%
X333750000Y-106050000D03*
X333750000Y-108590000D03*
X333750000Y-111130000D03*
X333750000Y-113670000D03*
X318050000Y-110550000D03*
X318050000Y-113090000D03*
%TD*%
D16*
%TO.C,J3*%
X203060000Y-112050000D03*
D17*
X205600000Y-112050000D03*
X208140000Y-112050000D03*
X210680000Y-112050000D03*
X213220000Y-112050000D03*
X215760000Y-112050000D03*
X218300000Y-112050000D03*
X220840000Y-112050000D03*
X223380000Y-112050000D03*
%TD*%
D12*
%TO.C,D109*%
X253750000Y-96150000D03*
D13*
X255900000Y-96150000D03*
%TD*%
D12*
%TO.C,D55*%
X181410000Y-190650000D03*
D13*
X183560000Y-190650000D03*
%TD*%
D12*
%TO.C,D35*%
X145860000Y-103050000D03*
D13*
X148010000Y-103050000D03*
%TD*%
D14*
%TO.C,R33*%
X282150000Y-127950000D03*
X285250000Y-127950000D03*
%TD*%
D15*
%TO.C,KR7*%
X220500000Y-172450000D03*
X220500000Y-174990000D03*
X220500000Y-177530000D03*
X220500000Y-180070000D03*
X204800000Y-176950000D03*
X204800000Y-179490000D03*
%TD*%
D12*
%TO.C,D91*%
X326460000Y-154550000D03*
D13*
X328610000Y-154550000D03*
%TD*%
D12*
%TO.C,D24*%
X127700000Y-190500000D03*
D13*
X129850000Y-190500000D03*
%TD*%
D12*
%TO.C,D93*%
X342310000Y-128400000D03*
D13*
X344460000Y-128400000D03*
%TD*%
D12*
%TO.C,D57*%
X188750000Y-168000000D03*
D13*
X190900000Y-168000000D03*
%TD*%
D16*
%TO.C,J6*%
X258790000Y-178050000D03*
D17*
X261330000Y-178050000D03*
X263870000Y-178050000D03*
X266410000Y-178050000D03*
%TD*%
D12*
%TO.C,D85*%
X352100000Y-188650000D03*
D13*
X354250000Y-188650000D03*
%TD*%
D14*
%TO.C,R7*%
X86950000Y-186700000D03*
X90050000Y-186700000D03*
%TD*%
D12*
%TO.C,D42*%
X167760000Y-128300000D03*
D13*
X169910000Y-128300000D03*
%TD*%
D15*
%TO.C,KR4*%
X175150000Y-172250000D03*
X175150000Y-174790000D03*
X175150000Y-177330000D03*
X175150000Y-179870000D03*
X159450000Y-176750000D03*
X159450000Y-179290000D03*
%TD*%
D12*
%TO.C,D89*%
X357660000Y-149100000D03*
D13*
X359810000Y-149100000D03*
%TD*%
D12*
%TO.C,D46*%
X179660000Y-150950000D03*
D13*
X181810000Y-150950000D03*
%TD*%
D14*
%TO.C,R10*%
X129400000Y-160950000D03*
X132500000Y-160950000D03*
%TD*%
%TO.C,R13*%
X178400000Y-96050000D03*
X181500000Y-96050000D03*
%TD*%
%TO.C,R30*%
X351450000Y-180150000D03*
X354550000Y-180150000D03*
%TD*%
D16*
%TO.C,J4*%
X252520000Y-112050000D03*
D17*
X255060000Y-112050000D03*
X257600000Y-112050000D03*
X260140000Y-112050000D03*
X262680000Y-112050000D03*
X265220000Y-112050000D03*
X267760000Y-112050000D03*
X270300000Y-112050000D03*
X272840000Y-112050000D03*
%TD*%
D12*
%TO.C,D32*%
X150810000Y-151400000D03*
D13*
X152960000Y-151400000D03*
%TD*%
D14*
%TO.C,R11*%
X150000000Y-158600000D03*
X153100000Y-158600000D03*
%TD*%
D12*
%TO.C,D56*%
X181410000Y-176350000D03*
D13*
X183560000Y-176350000D03*
%TD*%
D12*
%TO.C,D90*%
X343650000Y-163100000D03*
D13*
X345800000Y-163100000D03*
%TD*%
D12*
%TO.C,D75*%
X261910000Y-147900000D03*
D13*
X264060000Y-147900000D03*
%TD*%
D12*
%TO.C,D66*%
X224150000Y-151250000D03*
D13*
X226300000Y-151250000D03*
%TD*%
D12*
%TO.C,D61*%
X211960000Y-186950000D03*
D13*
X214110000Y-186950000D03*
%TD*%
D12*
%TO.C,D6*%
X60760000Y-127650000D03*
D13*
X62910000Y-127650000D03*
%TD*%
D12*
%TO.C,D18*%
X97710000Y-164500000D03*
D13*
X99860000Y-164500000D03*
%TD*%
D12*
%TO.C,D64*%
X226310000Y-162250000D03*
D13*
X228460000Y-162250000D03*
%TD*%
D12*
%TO.C,D30*%
X150410000Y-136100000D03*
D13*
X152560000Y-136100000D03*
%TD*%
D12*
%TO.C,D111*%
X244400000Y-118000000D03*
D13*
X246550000Y-118000000D03*
%TD*%
D12*
%TO.C,D52*%
X149860000Y-178600000D03*
D13*
X152010000Y-178600000D03*
%TD*%
D14*
%TO.C,R2*%
X78100000Y-121950000D03*
X81200000Y-121950000D03*
%TD*%
D12*
%TO.C,D15*%
X105310000Y-148800000D03*
D13*
X107460000Y-148800000D03*
%TD*%
D12*
%TO.C,D41*%
X178710000Y-115850000D03*
D13*
X180860000Y-115850000D03*
%TD*%
D12*
%TO.C,D16*%
X119060000Y-157550000D03*
D13*
X121210000Y-157550000D03*
%TD*%
D12*
%TO.C,D62*%
X226160000Y-190200000D03*
D13*
X228310000Y-190200000D03*
%TD*%
D12*
%TO.C,D81*%
X294000000Y-190900000D03*
D13*
X296150000Y-190900000D03*
%TD*%
D14*
%TO.C,R38*%
X243350000Y-98550000D03*
X246450000Y-98550000D03*
%TD*%
D12*
%TO.C,D9*%
X67350000Y-133550000D03*
D13*
X69500000Y-133550000D03*
%TD*%
D12*
%TO.C,D7*%
X62010000Y-148850000D03*
D13*
X64160000Y-148850000D03*
%TD*%
D14*
%TO.C,R5*%
X104600000Y-156200000D03*
X107700000Y-156200000D03*
%TD*%
D12*
%TO.C,D63*%
X226800000Y-177400000D03*
D13*
X228950000Y-177400000D03*
%TD*%
D12*
%TO.C,D31*%
X138460000Y-161150000D03*
D13*
X140610000Y-161150000D03*
%TD*%
D14*
%TO.C,R20*%
X188850000Y-136850000D03*
X191950000Y-136850000D03*
%TD*%
D15*
%TO.C,KR1*%
X88750000Y-142750000D03*
X88750000Y-145290000D03*
X88750000Y-147830000D03*
X88750000Y-150370000D03*
X73050000Y-147250000D03*
X73050000Y-149790000D03*
%TD*%
D12*
%TO.C,D105*%
X279160000Y-116500000D03*
D13*
X281310000Y-116500000D03*
%TD*%
D14*
%TO.C,R21*%
X236900000Y-184050000D03*
X240000000Y-184050000D03*
%TD*%
D12*
%TO.C,D98*%
X325110000Y-126250000D03*
D13*
X327260000Y-126250000D03*
%TD*%
D12*
%TO.C,D114*%
X228250000Y-105050000D03*
D13*
X230400000Y-105050000D03*
%TD*%
D12*
%TO.C,D21*%
X76260000Y-188050000D03*
D13*
X78410000Y-188050000D03*
%TD*%
D12*
%TO.C,D104*%
X254900000Y-128350000D03*
D13*
X257050000Y-128350000D03*
%TD*%
D12*
%TO.C,D113*%
X228860000Y-118850000D03*
D13*
X231010000Y-118850000D03*
%TD*%
D12*
%TO.C,D77*%
X271260000Y-137200000D03*
D13*
X273410000Y-137200000D03*
%TD*%
D14*
%TO.C,R12*%
X138400000Y-141050000D03*
X141500000Y-141050000D03*
%TD*%
D12*
%TO.C,D115*%
X244060000Y-89350000D03*
D13*
X246210000Y-89350000D03*
%TD*%
D14*
%TO.C,R16*%
X188850000Y-143550000D03*
X191950000Y-143550000D03*
%TD*%
D12*
%TO.C,D73*%
X273360000Y-189950000D03*
D13*
X275510000Y-189950000D03*
%TD*%
D12*
%TO.C,D108*%
X270950000Y-96000000D03*
D13*
X273100000Y-96000000D03*
%TD*%
D12*
%TO.C,D1*%
X58250000Y-111750000D03*
D13*
X60400000Y-111750000D03*
%TD*%
D12*
%TO.C,D70*%
X270450000Y-159300000D03*
D13*
X272600000Y-159300000D03*
%TD*%
D12*
%TO.C,D20*%
X59710000Y-190400000D03*
D13*
X61860000Y-190400000D03*
%TD*%
D15*
%TO.C,KR2*%
X121650000Y-172500000D03*
X121650000Y-175040000D03*
X121650000Y-177580000D03*
X121650000Y-180120000D03*
X105950000Y-177000000D03*
X105950000Y-179540000D03*
%TD*%
D14*
%TO.C,R6*%
X88200000Y-172650000D03*
X91300000Y-172650000D03*
%TD*%
%TO.C,R8*%
X138700000Y-184050000D03*
X141800000Y-184050000D03*
%TD*%
D16*
%TO.C,J2*%
X152750000Y-112350000D03*
D17*
X155290000Y-112350000D03*
X157830000Y-112350000D03*
X160370000Y-112350000D03*
X162910000Y-112350000D03*
X165450000Y-112350000D03*
X167990000Y-112350000D03*
X170530000Y-112350000D03*
X173070000Y-112350000D03*
%TD*%
D16*
%TO.C,J1*%
X138530000Y-89750000D03*
D17*
X138530000Y-87210000D03*
X135990000Y-89750000D03*
X135990000Y-87210000D03*
X133450000Y-89750000D03*
X133450000Y-87210000D03*
X130910000Y-89750000D03*
X130910000Y-87210000D03*
X128370000Y-89750000D03*
X128370000Y-87210000D03*
X125830000Y-89750000D03*
X125830000Y-87210000D03*
X123290000Y-89750000D03*
X123290000Y-87210000D03*
X120750000Y-89750000D03*
X120750000Y-87210000D03*
X118210000Y-89750000D03*
X118210000Y-87210000D03*
X115670000Y-89750000D03*
X115670000Y-87210000D03*
X113130000Y-89750000D03*
X113130000Y-87210000D03*
X110590000Y-89750000D03*
X110590000Y-87210000D03*
X108050000Y-89750000D03*
X108050000Y-87210000D03*
X105510000Y-89750000D03*
X105510000Y-87210000D03*
X102970000Y-89750000D03*
X102970000Y-87210000D03*
X100430000Y-89750000D03*
X100430000Y-87210000D03*
X97890000Y-89750000D03*
X97890000Y-87210000D03*
X95350000Y-89750000D03*
X95350000Y-87210000D03*
X92810000Y-89750000D03*
X92810000Y-87210000D03*
X90270000Y-89750000D03*
X90270000Y-87210000D03*
%TD*%
D16*
%TO.C,J7*%
X331240000Y-90090000D03*
D17*
X331240000Y-87550000D03*
X328700000Y-90090000D03*
X328700000Y-87550000D03*
X326160000Y-90090000D03*
X326160000Y-87550000D03*
X323620000Y-90090000D03*
X323620000Y-87550000D03*
X321080000Y-90090000D03*
X321080000Y-87550000D03*
X318540000Y-90090000D03*
X318540000Y-87550000D03*
X316000000Y-90090000D03*
X316000000Y-87550000D03*
X313460000Y-90090000D03*
X313460000Y-87550000D03*
X310920000Y-90090000D03*
X310920000Y-87550000D03*
X308380000Y-90090000D03*
X308380000Y-87550000D03*
X305840000Y-90090000D03*
X305840000Y-87550000D03*
X303300000Y-90090000D03*
X303300000Y-87550000D03*
X300760000Y-90090000D03*
X300760000Y-87550000D03*
X298220000Y-90090000D03*
X298220000Y-87550000D03*
X295680000Y-90090000D03*
X295680000Y-87550000D03*
X293140000Y-90090000D03*
X293140000Y-87550000D03*
X290600000Y-90090000D03*
X290600000Y-87550000D03*
X288060000Y-90090000D03*
X288060000Y-87550000D03*
X285520000Y-90090000D03*
X285520000Y-87550000D03*
X282980000Y-90090000D03*
X282980000Y-87550000D03*
%TD*%
M02*
