M48
; DRILL file {KiCad 9.0.2} date 2025-06-30T20:10:24+0200
; FORMAT={-:-/ absolute / inch / decimal}
; #@! TF.CreationDate,2025-06-30T20:10:24+02:00
; #@! TF.GenerationSoftware,Kicad,Pcbnew,9.0.2
; #@! TF.FileFunction,Plated,1,2,PTH
FMAT,2
INCH
; #@! TA.AperFunction,Plated,PTH,ViaDrill
T1C0.0118
; #@! TA.AperFunction,Plated,PTH,ComponentDrill
T2C0.0236
; #@! TA.AperFunction,Plated,PTH,ComponentDrill
T3C0.0394
; #@! TA.AperFunction,Plated,PTH,ComponentDrill
T4C0.0598
%
G90
G05
T1
X3.6772Y-4.0167
X4.7152Y-4.7178
X4.9734Y-3.1876
X5.4453Y-3.1989
X6.0906Y-4.3678
X6.1453Y-3.1625
X6.7234Y-3.9928
X6.7311Y-3.8077
X6.8678Y-3.5494
X6.9103Y-3.3247
X7.0948Y-4.1336
X7.0948Y-4.642
X7.1953Y-3.4203
X7.7786Y-4.6408
X7.9315Y-4.3673
X8.0257Y-4.1249
X8.1466Y-3.9062
X8.1683Y-3.8516
X8.3619Y-3.8999
T2
X4.7559Y-4.0669
X4.7559Y-4.1669
X5.374Y-3.8898
X5.374Y-3.9898
X5.374Y-4.0898
X5.374Y-4.1898
X6.0276Y-4.0669
X6.0276Y-4.1669
X6.6457Y-3.8898
X6.6457Y-3.9898
X6.6457Y-4.0898
X6.6457Y-4.1898
X7.2835Y-4.0748
X7.2835Y-4.1748
X7.9016Y-3.8976
X7.9016Y-3.9976
X7.9016Y-4.0976
X7.9016Y-4.1976
T3
X6.6031Y-3.1417
X6.6031Y-3.2417
X6.7031Y-3.1417
X6.7031Y-3.2417
X6.8031Y-3.1417
X6.8031Y-3.2417
X6.9031Y-3.1417
X6.9031Y-3.2417
X7.0031Y-3.1417
X7.0031Y-3.2417
X7.1031Y-3.1417
X7.1031Y-3.2417
X7.2031Y-3.1417
X7.2031Y-3.2417
X7.3031Y-3.1417
X7.3031Y-3.2417
X7.4031Y-3.1417
X7.4031Y-3.2417
X7.5031Y-3.1417
X7.5031Y-3.2417
X7.6031Y-3.1417
X7.6031Y-3.2417
X7.7031Y-3.1417
X7.7031Y-3.2417
X7.8031Y-3.1417
X7.8031Y-3.2417
X7.9031Y-3.1417
X7.9031Y-3.2417
X8.0031Y-3.1417
X8.0031Y-3.2417
X8.1031Y-3.1417
X8.1031Y-3.2417
X8.2031Y-3.1417
X8.2031Y-3.2417
X8.3031Y-3.1417
X8.3031Y-3.2417
X8.4031Y-3.1417
X8.4031Y-3.2417
X8.5031Y-3.1417
X8.5031Y-3.2417
T4
X3.4772Y-3.189
X3.4791Y-4.7323
X3.6772Y-3.189
X3.6791Y-4.7323
M30
