%TF.GenerationSoftware,KiCad,Pcbnew,9.0.2*%
%TF.CreationDate,2025-09-13T21:03:49+02:00*%
%TF.ProjectId,fl-ctl,666c2d63-746c-42e6-9b69-6361645f7063,rev?*%
%TF.SameCoordinates,Original*%
%TF.FileFunction,Soldermask,Bot*%
%TF.FilePolarity,Negative*%
%FSLAX46Y46*%
G04 Gerber Fmt 4.6, Leading zero omitted, Abs format (unit mm)*
G04 Created by KiCad (PCBNEW 9.0.2) date 2025-09-13 21:03:49*
%MOMM*%
%LPD*%
G01*
G04 APERTURE LIST*
%ADD10R,1.500000X1.500000*%
%ADD11R,3.000000X3.000000*%
%ADD12C,3.000000*%
%ADD13R,1.700000X1.700000*%
%ADD14C,1.700000*%
G04 APERTURE END LIST*
D10*
%TO.C,KR2*%
X168800000Y-98800000D03*
X168800000Y-101340000D03*
X168800000Y-103880000D03*
X168800000Y-106420000D03*
X153100000Y-103300000D03*
X153100000Y-105840000D03*
%TD*%
%TO.C,KR1*%
X136500000Y-98800000D03*
X136500000Y-101340000D03*
X136500000Y-103880000D03*
X136500000Y-106420000D03*
X120800000Y-103300000D03*
X120800000Y-105840000D03*
%TD*%
%TO.C,KR3*%
X200700000Y-99000000D03*
X200700000Y-101540000D03*
X200700000Y-104080000D03*
X200700000Y-106620000D03*
X185000000Y-103500000D03*
X185000000Y-106040000D03*
%TD*%
D11*
%TO.C,J1*%
X88320000Y-81000000D03*
D12*
X93400000Y-81000000D03*
%TD*%
D11*
%TO.C,J7*%
X93450000Y-120200000D03*
D12*
X88370000Y-120200000D03*
%TD*%
D13*
%TO.C,J2*%
X215980000Y-82340000D03*
D14*
X215980000Y-79800000D03*
X213440000Y-82340000D03*
X213440000Y-79800000D03*
X210900000Y-82340000D03*
X210900000Y-79800000D03*
X208360000Y-82340000D03*
X208360000Y-79800000D03*
X205820000Y-82340000D03*
X205820000Y-79800000D03*
X203280000Y-82340000D03*
X203280000Y-79800000D03*
X200740000Y-82340000D03*
X200740000Y-79800000D03*
X198200000Y-82340000D03*
X198200000Y-79800000D03*
X195660000Y-82340000D03*
X195660000Y-79800000D03*
X193120000Y-82340000D03*
X193120000Y-79800000D03*
X190580000Y-82340000D03*
X190580000Y-79800000D03*
X188040000Y-82340000D03*
X188040000Y-79800000D03*
X185500000Y-82340000D03*
X185500000Y-79800000D03*
X182960000Y-82340000D03*
X182960000Y-79800000D03*
X180420000Y-82340000D03*
X180420000Y-79800000D03*
X177880000Y-82340000D03*
X177880000Y-79800000D03*
X175340000Y-82340000D03*
X175340000Y-79800000D03*
X172800000Y-82340000D03*
X172800000Y-79800000D03*
X170260000Y-82340000D03*
X170260000Y-79800000D03*
X167720000Y-82340000D03*
X167720000Y-79800000D03*
%TD*%
M02*
