%TF.GenerationSoftware,KiCad,Pcbnew,9.0.2*%
%TF.CreationDate,2025-06-30T20:10:24+02:00*%
%TF.ProjectId,fl-ctl,666c2d63-746c-42e6-9b69-6361645f7063,rev?*%
%TF.SameCoordinates,Original*%
%TF.FileFunction,Soldermask,Top*%
%TF.FilePolarity,Negative*%
%FSLAX46Y46*%
G04 Gerber Fmt 4.6, Leading zero omitted, Abs format (unit mm)*
G04 Created by KiCad (PCBNEW 9.0.2) date 2025-06-30 20:10:24*
%MOMM*%
%LPD*%
G01*
G04 APERTURE LIST*
G04 Aperture macros list*
%AMRoundRect*
0 Rectangle with rounded corners*
0 $1 Rounding radius*
0 $2 $3 $4 $5 $6 $7 $8 $9 X,Y pos of 4 corners*
0 Add a 4 corners polygon primitive as box body*
4,1,4,$2,$3,$4,$5,$6,$7,$8,$9,$2,$3,0*
0 Add four circle primitives for the rounded corners*
1,1,$1+$1,$2,$3*
1,1,$1+$1,$4,$5*
1,1,$1+$1,$6,$7*
1,1,$1+$1,$8,$9*
0 Add four rect primitives between the rounded corners*
20,1,$1+$1,$2,$3,$4,$5,0*
20,1,$1+$1,$4,$5,$6,$7,0*
20,1,$1+$1,$6,$7,$8,$9,0*
20,1,$1+$1,$8,$9,$2,$3,0*%
G04 Aperture macros list end*
%ADD10R,3.000000X3.000000*%
%ADD11C,3.000000*%
%ADD12R,1.700000X1.700000*%
%ADD13C,1.700000*%
%ADD14R,1.500000X1.500000*%
%ADD15RoundRect,0.165000X-0.385000X-0.885000X0.385000X-0.885000X0.385000X0.885000X-0.385000X0.885000X0*%
%ADD16RoundRect,0.315000X-0.735000X-0.735000X0.735000X-0.735000X0.735000X0.735000X-0.735000X0.735000X0*%
%ADD17RoundRect,0.250000X-0.400000X-0.625000X0.400000X-0.625000X0.400000X0.625000X-0.400000X0.625000X0*%
G04 APERTURE END LIST*
D10*
%TO.C,J7*%
X93450000Y-120200000D03*
D11*
X88370000Y-120200000D03*
%TD*%
D12*
%TO.C,J2*%
X215980000Y-82340000D03*
D13*
X215980000Y-79800000D03*
X213440000Y-82340000D03*
X213440000Y-79800000D03*
X210900000Y-82340000D03*
X210900000Y-79800000D03*
X208360000Y-82340000D03*
X208360000Y-79800000D03*
X205820000Y-82340000D03*
X205820000Y-79800000D03*
X203280000Y-82340000D03*
X203280000Y-79800000D03*
X200740000Y-82340000D03*
X200740000Y-79800000D03*
X198200000Y-82340000D03*
X198200000Y-79800000D03*
X195660000Y-82340000D03*
X195660000Y-79800000D03*
X193120000Y-82340000D03*
X193120000Y-79800000D03*
X190580000Y-82340000D03*
X190580000Y-79800000D03*
X188040000Y-82340000D03*
X188040000Y-79800000D03*
X185500000Y-82340000D03*
X185500000Y-79800000D03*
X182960000Y-82340000D03*
X182960000Y-79800000D03*
X180420000Y-82340000D03*
X180420000Y-79800000D03*
X177880000Y-82340000D03*
X177880000Y-79800000D03*
X175340000Y-82340000D03*
X175340000Y-79800000D03*
X172800000Y-82340000D03*
X172800000Y-79800000D03*
X170260000Y-82340000D03*
X170260000Y-79800000D03*
X167720000Y-82340000D03*
X167720000Y-79800000D03*
%TD*%
D14*
%TO.C,KR2*%
X168800000Y-98800000D03*
X168800000Y-101340000D03*
X168800000Y-103880000D03*
X168800000Y-106420000D03*
X153100000Y-103300000D03*
X153100000Y-105840000D03*
%TD*%
D15*
%TO.C,D15*%
X135235000Y-119475000D03*
D16*
X137385000Y-119475000D03*
%TD*%
D15*
%TO.C,D18*%
X159835000Y-119075000D03*
D16*
X161985000Y-119075000D03*
%TD*%
D15*
%TO.C,D5*%
X161020000Y-83800000D03*
D16*
X163170000Y-83800000D03*
%TD*%
D17*
%TO.C,R3*%
X207400000Y-95000000D03*
X210500000Y-95000000D03*
%TD*%
%TO.C,R6*%
X189800000Y-118950000D03*
X192900000Y-118950000D03*
%TD*%
D15*
%TO.C,D12*%
X175960000Y-105200000D03*
D16*
X178110000Y-105200000D03*
%TD*%
D14*
%TO.C,KR1*%
X136500000Y-98800000D03*
X136500000Y-101340000D03*
X136500000Y-103880000D03*
X136500000Y-106420000D03*
X120800000Y-103300000D03*
X120800000Y-105840000D03*
%TD*%
D15*
%TO.C,D6*%
X170360000Y-89500000D03*
D16*
X172510000Y-89500000D03*
%TD*%
D15*
%TO.C,D1*%
X115585000Y-89400000D03*
D16*
X117735000Y-89400000D03*
%TD*%
D15*
%TO.C,D2*%
X127260000Y-83900000D03*
D16*
X129410000Y-83900000D03*
%TD*%
D15*
%TO.C,D16*%
X175935000Y-118725000D03*
D16*
X178085000Y-118725000D03*
%TD*%
D15*
%TO.C,D10*%
X110620000Y-102500000D03*
D16*
X112770000Y-102500000D03*
%TD*%
D17*
%TO.C,R4*%
X143600000Y-111200000D03*
X146700000Y-111200000D03*
%TD*%
%TO.C,R2*%
X175500000Y-95400000D03*
X178600000Y-95400000D03*
%TD*%
D14*
%TO.C,KR3*%
X200700000Y-99000000D03*
X200700000Y-101540000D03*
X200700000Y-104080000D03*
X200700000Y-106620000D03*
X185000000Y-103500000D03*
X185000000Y-106040000D03*
%TD*%
D15*
%TO.C,D14*%
X121035000Y-119450000D03*
D16*
X123185000Y-119450000D03*
%TD*%
D15*
%TO.C,D9*%
X200020000Y-89000000D03*
D16*
X202170000Y-89000000D03*
%TD*%
D15*
%TO.C,D3*%
X139360000Y-89500000D03*
D16*
X141510000Y-89500000D03*
%TD*%
D17*
%TO.C,R1*%
X143650000Y-95400000D03*
X146750000Y-95400000D03*
%TD*%
D15*
%TO.C,D17*%
X202885000Y-119300000D03*
D16*
X205035000Y-119300000D03*
%TD*%
D15*
%TO.C,D8*%
X192185000Y-85450000D03*
D16*
X194335000Y-85450000D03*
%TD*%
D15*
%TO.C,D4*%
X148820000Y-89200000D03*
D16*
X150970000Y-89200000D03*
%TD*%
D17*
%TO.C,R5*%
X143475000Y-118950000D03*
X146575000Y-118950000D03*
%TD*%
D15*
%TO.C,D11*%
X143560000Y-103700000D03*
D16*
X145710000Y-103700000D03*
%TD*%
D15*
%TO.C,D13*%
X206085000Y-105100000D03*
D16*
X208235000Y-105100000D03*
%TD*%
D15*
%TO.C,D7*%
X180485000Y-89100000D03*
D16*
X182635000Y-89100000D03*
%TD*%
D10*
%TO.C,J1*%
X88320000Y-81000000D03*
D11*
X93400000Y-81000000D03*
%TD*%
M02*
