M48
; DRILL file {KiCad 9.0.2} date 2025-07-01T15:24:06+0200
; FORMAT={-:-/ absolute / inch / decimal}
; #@! TF.CreationDate,2025-07-01T15:24:06+02:00
; #@! TF.GenerationSoftware,Kicad,Pcbnew,9.0.2
; #@! TF.FileFunction,Plated,1,2,PTH
FMAT,2
INCH
; #@! TA.AperFunction,Plated,PTH,ViaDrill
T1C0.0118
; #@! TA.AperFunction,Plated,PTH,ComponentDrill
T2C0.0236
; #@! TA.AperFunction,Plated,PTH,ComponentDrill
T3C0.0394
; #@! TA.AperFunction,Plated,PTH,ComponentDrill
T4C0.0598
%
G90
G05
T1
X1.2968Y-2.2304
X1.3639Y-2.173
X1.4272Y-1.5174
X1.4272Y-1.8704
X1.4796Y-4.215
X1.5486Y-3.0474
X1.5486Y-3.4019
X1.5486Y-3.7536
X1.7142Y-2.3245
X1.7819Y-1.8704
X1.7819Y-2.1058
X1.8986Y-0.9303
X1.8986Y-1.635
X1.8986Y-2.4589
X2.0153Y-4.9306
X2.1162Y-1.0309
X2.3653Y-3.2566
X2.3744Y-4.2164
X2.5986Y-1.4074
X2.5986Y-2.3245
X2.6958Y-4.7225
X2.7153Y-4.8972
X2.8466Y-2.2083
X2.8538Y-4.6952
X2.9868Y-4.8482
X3.0653Y-0.9064
X3.1819Y-2.2083
X3.2131Y-5.2535
X3.2986Y-3.4196
X3.4153Y-4.8805
X3.4532Y-4.2202
X3.7653Y-4.5775
X3.7653Y-4.8482
X3.7716Y-3.6306
X3.8819Y-1.1442
X3.8819Y-4.8129
X3.9854Y-1.5174
X4.1153Y-4.9306
X4.3353Y-4.08
X4.3392Y-3.4236
X4.4653Y-1.3067
X4.4653Y-4.2391
X4.5819Y-1.1477
X4.6986Y-4.9306
X4.9322Y-5.2779
X4.9596Y-2.0164
X5.0486Y-1.1575
X5.1274Y-1.1446
X5.144Y-2.3174
X5.1652Y-3.7421
X5.2763Y-2.1038
X5.3227Y-1.2479
X5.3986Y-4.082
X5.3986Y-5.166
X5.4285Y-5.559
X5.5152Y-5.8049
X5.7756Y-2.3582
X5.8286Y-1.0817
X6.0986Y-4.9306
X6.3188Y-2.4423
X6.3298Y-4.5754
X6.3319Y-1.5174
X6.3319Y-5.166
X6.3585Y-2.3746
X6.3624Y-3.8298
X6.4265Y-5.4195
X6.4486Y-2.3412
X6.4542Y-5.5175
X6.5652Y-1.9881
T2
X1.624Y-2.002
X1.624Y-2.102
X2.2421Y-1.8248
X2.2421Y-1.9248
X2.2421Y-2.0248
X2.2421Y-2.1248
X2.9035Y-1.9852
X2.9035Y-2.0852
X3.5217Y-1.8081
X3.5217Y-1.9081
X3.5217Y-2.0081
X3.5217Y-2.1081
X4.2106Y-2.0098
X4.2106Y-2.1098
X4.8287Y-1.8327
X4.8287Y-1.9327
X4.8287Y-2.0327
X4.8287Y-2.1327
X5.4941Y-2.0098
X5.4941Y-2.1098
X5.687Y-3.6949
X5.687Y-3.7949
X6.1122Y-1.8327
X6.1122Y-1.9327
X6.1122Y-2.0327
X6.1122Y-2.1327
X6.3051Y-3.5177
X6.3051Y-3.6177
X6.3051Y-3.7177
X6.3051Y-3.8177
T3
X1.7874Y-3.752
X1.8874Y-3.752
X2.7963Y-3.7402
X2.8963Y-3.7402
X3.1624Y-5.0354
X3.2624Y-5.0354
X3.8238Y-3.748
X3.9238Y-3.748
X4.8465Y-3.748
X4.9465Y-3.748
X5.0665Y-5.5827
X5.1665Y-5.5827
X5.2665Y-5.5827
X5.3665Y-5.5827
X6.5132Y-4.9886
X6.5132Y-5.0886
X6.5132Y-5.1886
X6.5132Y-5.2886
X6.5132Y-5.3886
X6.5132Y-5.4886
X6.5132Y-5.5886
X6.5132Y-5.6886
X6.5132Y-5.7886
X6.5132Y-5.8886
X6.5132Y-5.9886
X6.5132Y-6.0886
X6.5132Y-6.1886
X6.5132Y-6.2886
X6.5132Y-6.3886
X6.5132Y-6.4886
X6.5132Y-6.5886
X6.5132Y-6.6886
X6.5132Y-6.7886
X6.5132Y-6.8886
X6.6132Y-4.9886
X6.6132Y-5.0886
X6.6132Y-5.1886
X6.6132Y-5.2886
X6.6132Y-5.3886
X6.6132Y-5.4886
X6.6132Y-5.5886
X6.6132Y-5.6886
X6.6132Y-5.7886
X6.6132Y-5.8886
X6.6132Y-5.9886
X6.6132Y-6.0886
X6.6132Y-6.1886
X6.6132Y-6.2886
X6.6132Y-6.3886
X6.6132Y-6.4886
X6.6132Y-6.5886
X6.6132Y-6.6886
X6.6132Y-6.7886
X6.6132Y-6.8886
T4
X3.5122Y-1.0315
X3.7122Y-1.0315
X6.1801Y-1.0335
X6.3801Y-1.0335
M30
