%TF.GenerationSoftware,KiCad,Pcbnew,9.0.2*%
%TF.CreationDate,2025-07-01T15:24:06+02:00*%
%TF.ProjectId,oxygen_calls_rain-rplnt_wipers,6f787967-656e-45f6-9361-6c6c735f7261,rev?*%
%TF.SameCoordinates,Original*%
%TF.FileFunction,Soldermask,Bot*%
%TF.FilePolarity,Negative*%
%FSLAX46Y46*%
G04 Gerber Fmt 4.6, Leading zero omitted, Abs format (unit mm)*
G04 Created by KiCad (PCBNEW 9.0.2) date 2025-07-01 15:24:06*
%MOMM*%
%LPD*%
G01*
G04 APERTURE LIST*
%ADD10R,1.700000X1.700000*%
%ADD11C,1.700000*%
%ADD12R,1.500000X1.500000*%
%ADD13R,3.000000X3.000000*%
%ADD14C,3.000000*%
G04 APERTURE END LIST*
D10*
%TO.C,J3*%
X167975000Y-126710000D03*
D11*
X165435000Y-126710000D03*
X167975000Y-129250000D03*
X165435000Y-129250000D03*
X167975000Y-131790000D03*
X165435000Y-131790000D03*
X167975000Y-134330000D03*
X165435000Y-134330000D03*
X167975000Y-136870000D03*
X165435000Y-136870000D03*
X167975000Y-139410000D03*
X165435000Y-139410000D03*
X167975000Y-141950000D03*
X165435000Y-141950000D03*
X167975000Y-144490000D03*
X165435000Y-144490000D03*
X167975000Y-147030000D03*
X165435000Y-147030000D03*
X167975000Y-149570000D03*
X165435000Y-149570000D03*
X167975000Y-152110000D03*
X165435000Y-152110000D03*
X167975000Y-154650000D03*
X165435000Y-154650000D03*
X167975000Y-157190000D03*
X165435000Y-157190000D03*
X167975000Y-159730000D03*
X165435000Y-159730000D03*
X167975000Y-162270000D03*
X165435000Y-162270000D03*
X167975000Y-164810000D03*
X165435000Y-164810000D03*
X167975000Y-167350000D03*
X165435000Y-167350000D03*
X167975000Y-169890000D03*
X165435000Y-169890000D03*
X167975000Y-172430000D03*
X165435000Y-172430000D03*
X167975000Y-174970000D03*
X165435000Y-174970000D03*
%TD*%
D12*
%TO.C,KR5*%
X89450000Y-45925000D03*
X89450000Y-48465000D03*
X89450000Y-51005000D03*
X89450000Y-53545000D03*
X73750000Y-50425000D03*
X73750000Y-52965000D03*
%TD*%
D13*
%TO.C,J2*%
X89210000Y-26200000D03*
D14*
X94290000Y-26200000D03*
%TD*%
D10*
%TO.C,J7*%
X123100000Y-95200000D03*
D11*
X125640000Y-95200000D03*
%TD*%
D10*
%TO.C,J6*%
X97125000Y-95200000D03*
D11*
X99665000Y-95200000D03*
%TD*%
D12*
%TO.C,KR1*%
X56950000Y-46350000D03*
X56950000Y-48890000D03*
X56950000Y-51430000D03*
X56950000Y-53970000D03*
X41250000Y-50850000D03*
X41250000Y-53390000D03*
%TD*%
D10*
%TO.C,J4*%
X45400000Y-95300000D03*
D11*
X47940000Y-95300000D03*
%TD*%
D12*
%TO.C,KR4*%
X160150000Y-89350000D03*
X160150000Y-91890000D03*
X160150000Y-94430000D03*
X160150000Y-96970000D03*
X144450000Y-93850000D03*
X144450000Y-96390000D03*
%TD*%
D10*
%TO.C,J9*%
X128690000Y-141800000D03*
D11*
X131230000Y-141800000D03*
X133770000Y-141800000D03*
X136310000Y-141800000D03*
%TD*%
D10*
%TO.C,J5*%
X71025000Y-95000000D03*
D11*
X73565000Y-95000000D03*
%TD*%
D10*
%TO.C,J8*%
X80325000Y-127900000D03*
D11*
X82865000Y-127900000D03*
%TD*%
D12*
%TO.C,KR3*%
X155250000Y-46550000D03*
X155250000Y-49090000D03*
X155250000Y-51630000D03*
X155250000Y-54170000D03*
X139550000Y-51050000D03*
X139550000Y-53590000D03*
%TD*%
%TO.C,KR2*%
X122650000Y-46550000D03*
X122650000Y-49090000D03*
X122650000Y-51630000D03*
X122650000Y-54170000D03*
X106950000Y-51050000D03*
X106950000Y-53590000D03*
%TD*%
D13*
%TO.C,J1*%
X156975000Y-26250000D03*
D14*
X162055000Y-26250000D03*
%TD*%
M02*
