%TF.GenerationSoftware,KiCad,Pcbnew,9.0.2*%
%TF.CreationDate,2025-07-01T15:24:05+02:00*%
%TF.ProjectId,oxygen_calls_rain-rplnt_wipers,6f787967-656e-45f6-9361-6c6c735f7261,rev?*%
%TF.SameCoordinates,Original*%
%TF.FileFunction,Copper,L1,Top*%
%TF.FilePolarity,Positive*%
%FSLAX46Y46*%
G04 Gerber Fmt 4.6, Leading zero omitted, Abs format (unit mm)*
G04 Created by KiCad (PCBNEW 9.0.2) date 2025-07-01 15:24:05*
%MOMM*%
%LPD*%
G01*
G04 APERTURE LIST*
G04 Aperture macros list*
%AMRoundRect*
0 Rectangle with rounded corners*
0 $1 Rounding radius*
0 $2 $3 $4 $5 $6 $7 $8 $9 X,Y pos of 4 corners*
0 Add a 4 corners polygon primitive as box body*
4,1,4,$2,$3,$4,$5,$6,$7,$8,$9,$2,$3,0*
0 Add four circle primitives for the rounded corners*
1,1,$1+$1,$2,$3*
1,1,$1+$1,$4,$5*
1,1,$1+$1,$6,$7*
1,1,$1+$1,$8,$9*
0 Add four rect primitives between the rounded corners*
20,1,$1+$1,$2,$3,$4,$5,0*
20,1,$1+$1,$4,$5,$6,$7,0*
20,1,$1+$1,$6,$7,$8,$9,0*
20,1,$1+$1,$8,$9,$2,$3,0*%
G04 Aperture macros list end*
%TA.AperFunction,ComponentPad*%
%ADD10R,1.700000X1.700000*%
%TD*%
%TA.AperFunction,ComponentPad*%
%ADD11C,1.700000*%
%TD*%
%TA.AperFunction,ComponentPad*%
%ADD12R,1.500000X1.500000*%
%TD*%
%TA.AperFunction,ComponentPad*%
%ADD13R,3.000000X3.000000*%
%TD*%
%TA.AperFunction,ComponentPad*%
%ADD14C,3.000000*%
%TD*%
%TA.AperFunction,SMDPad,CuDef*%
%ADD15RoundRect,0.165000X-0.385000X-0.885000X0.385000X-0.885000X0.385000X0.885000X-0.385000X0.885000X0*%
%TD*%
%TA.AperFunction,SMDPad,CuDef*%
%ADD16RoundRect,0.315000X-0.735000X-0.735000X0.735000X-0.735000X0.735000X0.735000X-0.735000X0.735000X0*%
%TD*%
%TA.AperFunction,SMDPad,CuDef*%
%ADD17RoundRect,0.250000X-0.400000X-0.625000X0.400000X-0.625000X0.400000X0.625000X-0.400000X0.625000X0*%
%TD*%
%TA.AperFunction,ViaPad*%
%ADD18C,0.600000*%
%TD*%
%TA.AperFunction,Conductor*%
%ADD19C,0.400000*%
%TD*%
%TA.AperFunction,Conductor*%
%ADD20C,0.600000*%
%TD*%
G04 APERTURE END LIST*
D10*
%TO.P,J3,1,Pin_1*%
%TO.N,GND*%
X167975000Y-126710000D03*
D11*
%TO.P,J3,2,Pin_2*%
X165435000Y-126710000D03*
%TO.P,J3,3,Pin_3*%
X167975000Y-129250000D03*
%TO.P,J3,4,Pin_4*%
%TO.N,Net-(J3-Pin_4)*%
X165435000Y-129250000D03*
%TO.P,J3,5,Pin_5*%
%TO.N,Net-(J3-Pin_5)*%
X167975000Y-131790000D03*
%TO.P,J3,6,Pin_6*%
%TO.N,Net-(J3-Pin_6)*%
X165435000Y-131790000D03*
%TO.P,J3,7,Pin_7*%
%TO.N,Net-(J3-Pin_7)*%
X167975000Y-134330000D03*
%TO.P,J3,8,Pin_8*%
%TO.N,Net-(J3-Pin_8)*%
X165435000Y-134330000D03*
%TO.P,J3,9,Pin_9*%
%TO.N,GND*%
X167975000Y-136870000D03*
%TO.P,J3,10,Pin_10*%
%TO.N,Net-(J3-Pin_10)*%
X165435000Y-136870000D03*
%TO.P,J3,11,Pin_11*%
%TO.N,Net-(J3-Pin_11)*%
X167975000Y-139410000D03*
%TO.P,J3,12,Pin_12*%
%TO.N,GND*%
X165435000Y-139410000D03*
%TO.P,J3,13,Pin_13*%
%TO.N,Net-(J3-Pin_13)*%
X167975000Y-141950000D03*
%TO.P,J3,14,Pin_14*%
%TO.N,Net-(J3-Pin_14)*%
X165435000Y-141950000D03*
%TO.P,J3,15,Pin_15*%
%TO.N,Net-(J3-Pin_15)*%
X167975000Y-144490000D03*
%TO.P,J3,16,Pin_16*%
%TO.N,Net-(J3-Pin_16)*%
X165435000Y-144490000D03*
%TO.P,J3,17,Pin_17*%
%TO.N,Net-(J3-Pin_17)*%
X167975000Y-147030000D03*
%TO.P,J3,18,Pin_18*%
%TO.N,Net-(J3-Pin_18)*%
X165435000Y-147030000D03*
%TO.P,J3,19,Pin_19*%
%TO.N,Net-(J3-Pin_19)*%
X167975000Y-149570000D03*
%TO.P,J3,20,Pin_20*%
%TO.N,Net-(J3-Pin_20)*%
X165435000Y-149570000D03*
%TO.P,J3,21,Pin_21*%
%TO.N,Net-(J3-Pin_21)*%
X167975000Y-152110000D03*
%TO.P,J3,22,Pin_22*%
%TO.N,unconnected-(J3-Pin_22-Pad22)*%
X165435000Y-152110000D03*
%TO.P,J3,23,Pin_23*%
%TO.N,unconnected-(J3-Pin_23-Pad23)*%
X167975000Y-154650000D03*
%TO.P,J3,24,Pin_24*%
%TO.N,unconnected-(J3-Pin_24-Pad24)*%
X165435000Y-154650000D03*
%TO.P,J3,25,Pin_25*%
%TO.N,unconnected-(J3-Pin_25-Pad25)*%
X167975000Y-157190000D03*
%TO.P,J3,26,Pin_26*%
%TO.N,unconnected-(J3-Pin_26-Pad26)*%
X165435000Y-157190000D03*
%TO.P,J3,27,Pin_27*%
%TO.N,unconnected-(J3-Pin_27-Pad27)*%
X167975000Y-159730000D03*
%TO.P,J3,28,Pin_28*%
%TO.N,unconnected-(J3-Pin_28-Pad28)*%
X165435000Y-159730000D03*
%TO.P,J3,29,Pin_29*%
%TO.N,unconnected-(J3-Pin_29-Pad29)*%
X167975000Y-162270000D03*
%TO.P,J3,30,Pin_30*%
%TO.N,unconnected-(J3-Pin_30-Pad30)*%
X165435000Y-162270000D03*
%TO.P,J3,31,Pin_31*%
%TO.N,unconnected-(J3-Pin_31-Pad31)*%
X167975000Y-164810000D03*
%TO.P,J3,32,Pin_32*%
%TO.N,unconnected-(J3-Pin_32-Pad32)*%
X165435000Y-164810000D03*
%TO.P,J3,33,Pin_33*%
%TO.N,unconnected-(J3-Pin_33-Pad33)*%
X167975000Y-167350000D03*
%TO.P,J3,34,Pin_34*%
%TO.N,unconnected-(J3-Pin_34-Pad34)*%
X165435000Y-167350000D03*
%TO.P,J3,35,Pin_35*%
%TO.N,unconnected-(J3-Pin_35-Pad35)*%
X167975000Y-169890000D03*
%TO.P,J3,36,Pin_36*%
%TO.N,unconnected-(J3-Pin_36-Pad36)*%
X165435000Y-169890000D03*
%TO.P,J3,37,Pin_37*%
%TO.N,unconnected-(J3-Pin_37-Pad37)*%
X167975000Y-172430000D03*
%TO.P,J3,38,Pin_38*%
%TO.N,unconnected-(J3-Pin_38-Pad38)*%
X165435000Y-172430000D03*
%TO.P,J3,39,Pin_39*%
%TO.N,unconnected-(J3-Pin_39-Pad39)*%
X167975000Y-174970000D03*
%TO.P,J3,40,Pin_40*%
%TO.N,unconnected-(J3-Pin_40-Pad40)*%
X165435000Y-174970000D03*
%TD*%
D12*
%TO.P,KR5,1,+5V_TOP_LED*%
%TO.N,unconnected-(KR5-+5V_TOP_LED-Pad1)*%
X89450000Y-45925000D03*
%TO.P,KR5,2,GND_TOP_LED*%
%TO.N,unconnected-(KR5-GND_TOP_LED-Pad2)*%
X89450000Y-48465000D03*
%TO.P,KR5,3,+5V_BOTTOM_LED*%
%TO.N,unconnected-(KR5-+5V_BOTTOM_LED-Pad3)*%
X89450000Y-51005000D03*
%TO.P,KR5,4,GND_BOTTOM_LED*%
%TO.N,unconnected-(KR5-GND_BOTTOM_LED-Pad4)*%
X89450000Y-53545000D03*
%TO.P,KR5,5,SW_IN*%
%TO.N,Net-(J3-Pin_16)*%
X73750000Y-50425000D03*
%TO.P,KR5,6,SW_OUT*%
%TO.N,GND*%
X73750000Y-52965000D03*
%TD*%
D13*
%TO.P,J2,1,Pin_1*%
%TO.N,GND*%
X89210000Y-26200000D03*
D14*
%TO.P,J2,2,Pin_2*%
%TO.N,+12V*%
X94290000Y-26200000D03*
%TD*%
D15*
%TO.P,D31,1,K*%
%TO.N,Net-(D31-K)*%
X84060000Y-105200000D03*
D16*
%TO.P,D31,2,A*%
%TO.N,+12V*%
X86210000Y-105200000D03*
%TD*%
D15*
%TO.P,D41,1,K*%
%TO.N,Net-(D41-K)*%
X85160000Y-142400000D03*
D16*
%TO.P,D41,2,A*%
%TO.N,Net-(D40-K)*%
X87310000Y-142400000D03*
%TD*%
D10*
%TO.P,J7,1,Pin_1*%
%TO.N,GND*%
X123100000Y-95200000D03*
D11*
%TO.P,J7,2,Pin_2*%
%TO.N,Net-(J3-Pin_18)*%
X125640000Y-95200000D03*
%TD*%
D15*
%TO.P,D17,1,K*%
%TO.N,Net-(D17-K)*%
X130260000Y-60800000D03*
D16*
%TO.P,D17,2,A*%
%TO.N,Net-(D16-K)*%
X132410000Y-60800000D03*
%TD*%
D15*
%TO.P,D37,1,K*%
%TO.N,Net-(D37-K)*%
X68360000Y-118100000D03*
D16*
%TO.P,D37,2,A*%
%TO.N,+12V*%
X70510000Y-118100000D03*
%TD*%
D15*
%TO.P,D29,1,K*%
%TO.N,Net-(D29-K)*%
X34960000Y-105300000D03*
D16*
%TO.P,D29,2,A*%
%TO.N,Net-(D28-K)*%
X37110000Y-105300000D03*
%TD*%
D15*
%TO.P,D7,1,K*%
%TO.N,Net-(D7-K)*%
X35760000Y-33900000D03*
D16*
%TO.P,D7,2,A*%
%TO.N,+12V*%
X37910000Y-33900000D03*
%TD*%
D15*
%TO.P,D23,1,K*%
%TO.N,Net-(D23-K)*%
X110360000Y-85000000D03*
D16*
%TO.P,D23,2,A*%
%TO.N,Net-(D22-K)*%
X112510000Y-85000000D03*
%TD*%
D15*
%TO.P,D27,1,K*%
%TO.N,Net-(D27-K)*%
X31860000Y-42200000D03*
D16*
%TO.P,D27,2,A*%
%TO.N,Net-(D26-K)*%
X34010000Y-42200000D03*
%TD*%
D15*
%TO.P,D26,1,K*%
%TO.N,Net-(D26-K)*%
X161960000Y-62200000D03*
D16*
%TO.P,D26,2,A*%
%TO.N,Net-(D25-K)*%
X164110000Y-62200000D03*
%TD*%
D17*
%TO.P,R15,1*%
%TO.N,Net-(D45-K)*%
X142050000Y-155700000D03*
%TO.P,R15,2*%
%TO.N,GND*%
X145150000Y-155700000D03*
%TD*%
D10*
%TO.P,J6,1,Pin_1*%
%TO.N,GND*%
X97125000Y-95200000D03*
D11*
%TO.P,J6,2,Pin_2*%
%TO.N,Net-(J3-Pin_14)*%
X99665000Y-95200000D03*
%TD*%
D15*
%TO.P,D40,1,K*%
%TO.N,Net-(D40-K)*%
X93660000Y-135900000D03*
D16*
%TO.P,D40,2,A*%
%TO.N,+12V*%
X95810000Y-135900000D03*
%TD*%
D15*
%TO.P,D44,1,K*%
%TO.N,Net-(D44-K)*%
X150300000Y-134200000D03*
D16*
%TO.P,D44,2,A*%
%TO.N,Net-(D43-K)*%
X152450000Y-134200000D03*
%TD*%
D15*
%TO.P,D12,1,K*%
%TO.N,Net-(D12-K)*%
X63910000Y-53350000D03*
D16*
%TO.P,D12,2,A*%
%TO.N,Net-(D11-K)*%
X66060000Y-53350000D03*
%TD*%
D15*
%TO.P,D35,1,K*%
%TO.N,Net-(D35-K)*%
X153400000Y-87700000D03*
D16*
%TO.P,D35,2,A*%
%TO.N,Net-(D34-K)*%
X155550000Y-87700000D03*
%TD*%
D15*
%TO.P,D19,1,K*%
%TO.N,Net-(D19-K)*%
X161960000Y-42300000D03*
D16*
%TO.P,D19,2,A*%
%TO.N,+12V*%
X164110000Y-42300000D03*
%TD*%
D15*
%TO.P,D38,1,K*%
%TO.N,Net-(D38-K)*%
X94650000Y-119300000D03*
D16*
%TO.P,D38,2,A*%
%TO.N,Net-(D37-K)*%
X96800000Y-119300000D03*
%TD*%
D15*
%TO.P,D15,1,K*%
%TO.N,Net-(D15-K)*%
X157600000Y-35125000D03*
D16*
%TO.P,D15,2,A*%
%TO.N,Net-(D14-K)*%
X159750000Y-35125000D03*
%TD*%
D17*
%TO.P,R5,1*%
%TO.N,Net-(D15-K)*%
X146150000Y-27600000D03*
%TO.P,R5,2*%
%TO.N,GND*%
X149250000Y-27600000D03*
%TD*%
D12*
%TO.P,KR1,1,+5V_TOP_LED*%
%TO.N,GND*%
X56950000Y-46350000D03*
%TO.P,KR1,2,GND_TOP_LED*%
X56950000Y-48890000D03*
%TO.P,KR1,3,+5V_BOTTOM_LED*%
X56950000Y-51430000D03*
%TO.P,KR1,4,GND_BOTTOM_LED*%
X56950000Y-53970000D03*
%TO.P,KR1,5,SW_IN*%
X41250000Y-50850000D03*
%TO.P,KR1,6,SW_OUT*%
X41250000Y-53390000D03*
%TD*%
D15*
%TO.P,D45,1,K*%
%TO.N,Net-(D45-K)*%
X146260000Y-149200000D03*
D16*
%TO.P,D45,2,A*%
%TO.N,Net-(D44-K)*%
X148410000Y-149200000D03*
%TD*%
D15*
%TO.P,D5,1,K*%
%TO.N,Net-(D5-K)*%
X114100000Y-31275000D03*
D16*
%TO.P,D5,2,A*%
%TO.N,Net-(D4-K)*%
X116250000Y-31275000D03*
%TD*%
D17*
%TO.P,R7,1*%
%TO.N,Net-(D21-K)*%
X63350000Y-74400000D03*
%TO.P,R7,2*%
%TO.N,GND*%
X66450000Y-74400000D03*
%TD*%
%TO.P,R14,1*%
%TO.N,Net-(D42-K)*%
X116000000Y-129300000D03*
%TO.P,R14,2*%
%TO.N,GND*%
X119100000Y-129300000D03*
%TD*%
D15*
%TO.P,D24,1,K*%
%TO.N,Net-(D24-K)*%
X111360000Y-66300000D03*
D16*
%TO.P,D24,2,A*%
%TO.N,Net-(D23-K)*%
X113510000Y-66300000D03*
%TD*%
D15*
%TO.P,D8,1,K*%
%TO.N,Net-(D8-K)*%
X47860000Y-44300000D03*
D16*
%TO.P,D8,2,A*%
%TO.N,Net-(D7-K)*%
X50010000Y-44300000D03*
%TD*%
D17*
%TO.P,R2,1*%
%TO.N,Net-(D6-K)*%
X125400000Y-31600000D03*
%TO.P,R2,2*%
%TO.N,GND*%
X128500000Y-31600000D03*
%TD*%
D15*
%TO.P,D16,1,K*%
%TO.N,Net-(D16-K)*%
X130360000Y-42000000D03*
D16*
%TO.P,D16,2,A*%
%TO.N,+12V*%
X132510000Y-42000000D03*
%TD*%
D15*
%TO.P,D4,1,K*%
%TO.N,Net-(D4-K)*%
X99360000Y-31100000D03*
D16*
%TO.P,D4,2,A*%
%TO.N,+12V*%
X101510000Y-31100000D03*
%TD*%
D15*
%TO.P,D34,1,K*%
%TO.N,Net-(D34-K)*%
X150660000Y-73500000D03*
D16*
%TO.P,D34,2,A*%
%TO.N,+12V*%
X152810000Y-73500000D03*
%TD*%
D15*
%TO.P,D20,1,K*%
%TO.N,Net-(D20-K)*%
X35960000Y-83900000D03*
D16*
%TO.P,D20,2,A*%
%TO.N,Net-(D19-K)*%
X38110000Y-83900000D03*
%TD*%
D15*
%TO.P,D36,1,K*%
%TO.N,Net-(D36-K)*%
X158960000Y-112600000D03*
D16*
%TO.P,D36,2,A*%
%TO.N,Net-(D35-K)*%
X161110000Y-112600000D03*
%TD*%
D17*
%TO.P,R11,1*%
%TO.N,Net-(D33-K)*%
X114900000Y-73300000D03*
%TO.P,R11,2*%
%TO.N,GND*%
X118000000Y-73300000D03*
%TD*%
D15*
%TO.P,D43,1,K*%
%TO.N,Net-(D43-K)*%
X139460000Y-119000000D03*
D16*
%TO.P,D43,2,A*%
%TO.N,+12V*%
X141610000Y-119000000D03*
%TD*%
D17*
%TO.P,R9,1*%
%TO.N,Net-(D27-K)*%
X49600000Y-74000000D03*
%TO.P,R9,2*%
%TO.N,GND*%
X52700000Y-74000000D03*
%TD*%
D10*
%TO.P,J4,1,Pin_1*%
%TO.N,GND*%
X45400000Y-95300000D03*
D11*
%TO.P,J4,2,Pin_2*%
%TO.N,Net-(J3-Pin_13)*%
X47940000Y-95300000D03*
%TD*%
D17*
%TO.P,R12,1*%
%TO.N,Net-(D36-K)*%
X149100000Y-112700000D03*
%TO.P,R12,2*%
%TO.N,GND*%
X152200000Y-112700000D03*
%TD*%
D15*
%TO.P,D33,1,K*%
%TO.N,Net-(D33-K)*%
X135160000Y-105600000D03*
D16*
%TO.P,D33,2,A*%
%TO.N,Net-(D32-K)*%
X137310000Y-105600000D03*
%TD*%
D17*
%TO.P,R13,1*%
%TO.N,Net-(D39-K)*%
X107650000Y-129400000D03*
%TO.P,R13,2*%
%TO.N,GND*%
X110750000Y-129400000D03*
%TD*%
D15*
%TO.P,D13,1,K*%
%TO.N,Net-(D13-K)*%
X88060000Y-66400000D03*
D16*
%TO.P,D13,2,A*%
%TO.N,+12V*%
X90210000Y-66400000D03*
%TD*%
D15*
%TO.P,D10,1,K*%
%TO.N,Net-(D10-K)*%
X40850000Y-66300000D03*
D16*
%TO.P,D10,2,A*%
%TO.N,+12V*%
X43000000Y-66300000D03*
%TD*%
D17*
%TO.P,R10,1*%
%TO.N,Net-(D30-K)*%
X55550000Y-114400000D03*
%TO.P,R10,2*%
%TO.N,GND*%
X58650000Y-114400000D03*
%TD*%
D15*
%TO.P,D6,1,K*%
%TO.N,Net-(D6-K)*%
X135300000Y-33375000D03*
D16*
%TO.P,D6,2,A*%
%TO.N,Net-(D5-K)*%
X137450000Y-33375000D03*
%TD*%
D15*
%TO.P,D14,1,K*%
%TO.N,Net-(D14-K)*%
X98950000Y-53200000D03*
D16*
%TO.P,D14,2,A*%
%TO.N,Net-(D13-K)*%
X101100000Y-53200000D03*
%TD*%
D17*
%TO.P,R4,1*%
%TO.N,Net-(D12-K)*%
X76500000Y-74500000D03*
%TO.P,R4,2*%
%TO.N,GND*%
X79600000Y-74500000D03*
%TD*%
D12*
%TO.P,KR4,1,+5V_TOP_LED*%
%TO.N,Net-(J3-Pin_10)*%
X160150000Y-89350000D03*
%TO.P,KR4,2,GND_TOP_LED*%
%TO.N,GND*%
X160150000Y-91890000D03*
%TO.P,KR4,3,+5V_BOTTOM_LED*%
%TO.N,Net-(J3-Pin_11)*%
X160150000Y-94430000D03*
%TO.P,KR4,4,GND_BOTTOM_LED*%
%TO.N,GND*%
X160150000Y-96970000D03*
%TO.P,KR4,5,SW_IN*%
X144450000Y-93850000D03*
%TO.P,KR4,6,SW_OUT*%
X144450000Y-96390000D03*
%TD*%
D10*
%TO.P,J9,1,Pin_1*%
%TO.N,GND*%
X128690000Y-141800000D03*
D11*
%TO.P,J9,2,Pin_2*%
%TO.N,Net-(J3-Pin_19)*%
X131230000Y-141800000D03*
%TO.P,J9,3,Pin_3*%
%TO.N,Net-(J3-Pin_20)*%
X133770000Y-141800000D03*
%TO.P,J9,4,Pin_4*%
%TO.N,Net-(J3-Pin_21)*%
X136310000Y-141800000D03*
%TD*%
D10*
%TO.P,J5,1,Pin_1*%
%TO.N,GND*%
X71025000Y-95000000D03*
D11*
%TO.P,J5,2,Pin_2*%
%TO.N,Net-(J3-Pin_17)*%
X73565000Y-95000000D03*
%TD*%
D17*
%TO.P,R6,1*%
%TO.N,Net-(D18-K)*%
X139400000Y-73400000D03*
%TO.P,R6,2*%
%TO.N,GND*%
X142500000Y-73400000D03*
%TD*%
D15*
%TO.P,D39,1,K*%
%TO.N,Net-(D39-K)*%
X66750000Y-132300000D03*
D16*
%TO.P,D39,2,A*%
%TO.N,Net-(D38-K)*%
X68900000Y-132300000D03*
%TD*%
D15*
%TO.P,D18,1,K*%
%TO.N,Net-(D18-K)*%
X146750000Y-66300000D03*
D16*
%TO.P,D18,2,A*%
%TO.N,Net-(D17-K)*%
X148900000Y-66300000D03*
%TD*%
D15*
%TO.P,D21,1,K*%
%TO.N,Net-(D21-K)*%
X58250000Y-84600000D03*
D16*
%TO.P,D21,2,A*%
%TO.N,Net-(D20-K)*%
X60400000Y-84600000D03*
%TD*%
D10*
%TO.P,J8,1,Pin_1*%
%TO.N,GND*%
X80325000Y-127900000D03*
D11*
%TO.P,J8,2,Pin_2*%
%TO.N,Net-(J3-Pin_15)*%
X82865000Y-127900000D03*
%TD*%
D15*
%TO.P,D9,1,K*%
%TO.N,Net-(D9-K)*%
X32660000Y-58700000D03*
D16*
%TO.P,D9,2,A*%
%TO.N,Net-(D8-K)*%
X34810000Y-58700000D03*
%TD*%
D15*
%TO.P,D28,1,K*%
%TO.N,Net-(D28-K)*%
X97060000Y-87200000D03*
D16*
%TO.P,D28,2,A*%
%TO.N,+12V*%
X99210000Y-87200000D03*
%TD*%
D15*
%TO.P,D32,1,K*%
%TO.N,Net-(D32-K)*%
X110160000Y-105500000D03*
D16*
%TO.P,D32,2,A*%
%TO.N,Net-(D31-K)*%
X112310000Y-105500000D03*
%TD*%
D15*
%TO.P,D22,1,K*%
%TO.N,Net-(D22-K)*%
X84460000Y-84800000D03*
D16*
%TO.P,D22,2,A*%
%TO.N,+12V*%
X86610000Y-84800000D03*
%TD*%
D17*
%TO.P,R8,1*%
%TO.N,Net-(D24-K)*%
X126300000Y-73400000D03*
%TO.P,R8,2*%
%TO.N,GND*%
X129400000Y-73400000D03*
%TD*%
D15*
%TO.P,D25,1,K*%
%TO.N,Net-(D25-K)*%
X134860000Y-85300000D03*
D16*
%TO.P,D25,2,A*%
%TO.N,+12V*%
X137010000Y-85300000D03*
%TD*%
D15*
%TO.P,D1,1,K*%
%TO.N,Net-(D1-K)*%
X48350000Y-26100000D03*
D16*
%TO.P,D1,2,A*%
%TO.N,+12V*%
X50500000Y-26100000D03*
%TD*%
D17*
%TO.P,R3,1*%
%TO.N,Net-(D9-K)*%
X35800000Y-74000000D03*
%TO.P,R3,2*%
%TO.N,GND*%
X38900000Y-74000000D03*
%TD*%
D15*
%TO.P,D3,1,K*%
%TO.N,Net-(D3-K)*%
X62060000Y-33400000D03*
D16*
%TO.P,D3,2,A*%
%TO.N,Net-(D2-K)*%
X64210000Y-33400000D03*
%TD*%
D15*
%TO.P,D42,1,K*%
%TO.N,Net-(D42-K)*%
X118160000Y-118100000D03*
D16*
%TO.P,D42,2,A*%
%TO.N,Net-(D41-K)*%
X120310000Y-118100000D03*
%TD*%
D17*
%TO.P,R1,1*%
%TO.N,Net-(D3-K)*%
X63750000Y-41500000D03*
%TO.P,R1,2*%
%TO.N,GND*%
X66850000Y-41500000D03*
%TD*%
D12*
%TO.P,KR3,1,+5V_TOP_LED*%
%TO.N,Net-(J3-Pin_4)*%
X155250000Y-46550000D03*
%TO.P,KR3,2,GND_TOP_LED*%
%TO.N,GND*%
X155250000Y-49090000D03*
%TO.P,KR3,3,+5V_BOTTOM_LED*%
%TO.N,Net-(J3-Pin_5)*%
X155250000Y-51630000D03*
%TO.P,KR3,4,GND_BOTTOM_LED*%
%TO.N,GND*%
X155250000Y-54170000D03*
%TO.P,KR3,5,SW_IN*%
%TO.N,Net-(J3-Pin_6)*%
X139550000Y-51050000D03*
%TO.P,KR3,6,SW_OUT*%
%TO.N,GND*%
X139550000Y-53590000D03*
%TD*%
D15*
%TO.P,D30,1,K*%
%TO.N,Net-(D30-K)*%
X58860000Y-105300000D03*
D16*
%TO.P,D30,2,A*%
%TO.N,Net-(D29-K)*%
X61010000Y-105300000D03*
%TD*%
D12*
%TO.P,KR2,1,+5V_TOP_LED*%
%TO.N,Net-(J3-Pin_7)*%
X122650000Y-46550000D03*
%TO.P,KR2,2,GND_TOP_LED*%
%TO.N,GND*%
X122650000Y-49090000D03*
%TO.P,KR2,3,+5V_BOTTOM_LED*%
%TO.N,Net-(J3-Pin_8)*%
X122650000Y-51630000D03*
%TO.P,KR2,4,GND_BOTTOM_LED*%
%TO.N,GND*%
X122650000Y-54170000D03*
%TO.P,KR2,5,SW_IN*%
X106950000Y-51050000D03*
%TO.P,KR2,6,SW_OUT*%
X106950000Y-53590000D03*
%TD*%
D15*
%TO.P,D2,1,K*%
%TO.N,Net-(D2-K)*%
X81010000Y-30475000D03*
D16*
%TO.P,D2,2,A*%
%TO.N,Net-(D1-K)*%
X83160000Y-30475000D03*
%TD*%
D15*
%TO.P,D11,1,K*%
%TO.N,Net-(D11-K)*%
X63860000Y-66400000D03*
D16*
%TO.P,D11,2,A*%
%TO.N,Net-(D10-K)*%
X66010000Y-66400000D03*
%TD*%
D13*
%TO.P,J1,1,Pin_1*%
%TO.N,GND*%
X156975000Y-26250000D03*
D14*
%TO.P,J1,2,Pin_2*%
%TO.N,+12V*%
X162055000Y-26250000D03*
%TD*%
D18*
%TO.N,Net-(J3-Pin_8)*%
X125974200Y-51215400D03*
X137123800Y-131215200D03*
%TO.N,Net-(J3-Pin_16)*%
X81613300Y-133438700D03*
%TO.N,Net-(J3-Pin_13)*%
X51188100Y-125236200D03*
%TO.N,Net-(J3-Pin_18)*%
X125277300Y-134057400D03*
X163233800Y-137656400D03*
%TO.N,Net-(J3-Pin_7)*%
X166756800Y-50498700D03*
%TO.N,Net-(J3-Pin_17)*%
X160777100Y-116214700D03*
%TO.N,Net-(J3-Pin_6)*%
X160830200Y-131215200D03*
%TO.N,Net-(J3-Pin_14)*%
X131197200Y-95049100D03*
X137882700Y-141198500D03*
%TO.N,Net-(J3-Pin_21)*%
X140087100Y-147443700D03*
%TO.N,Net-(J3-Pin_15)*%
X163935600Y-140143500D03*
%TO.N,GND*%
X148047200Y-27474300D03*
X80821100Y-56091800D03*
X128233900Y-29400700D03*
X161605900Y-97278000D03*
X45261500Y-53488200D03*
X72304000Y-56091800D03*
X66004600Y-35748600D03*
X154903600Y-125236200D03*
%TO.N,Net-(D41-K)*%
X119344000Y-125236200D03*
X86747700Y-123965100D03*
%TO.N,Net-(D39-K)*%
X104527500Y-125236200D03*
X68967900Y-124388800D03*
%TO.N,Net-(D38-K)*%
X75864200Y-123144100D03*
X95637600Y-123144100D03*
%TO.N,Net-(D37-K)*%
X95637600Y-116267700D03*
X68472500Y-119951300D03*
%TO.N,Net-(D32-K)*%
X110115600Y-103632200D03*
X137123800Y-103681900D03*
%TO.N,Net-(D31-K)*%
X87711200Y-107193900D03*
X113417400Y-107672600D03*
%TO.N,Net-(D29-K)*%
X60309800Y-107096300D03*
X37581600Y-107062000D03*
%TO.N,Net-(D28-K)*%
X39334900Y-95341200D03*
X95798200Y-92218300D03*
%TO.N,Net-(D27-K)*%
X48224800Y-62456700D03*
X32938600Y-56653400D03*
%TO.N,Net-(D26-K)*%
X161505300Y-60314600D03*
X34642500Y-55193900D03*
%TO.N,Net-(D25-K)*%
X134019200Y-53436400D03*
X163793500Y-59467200D03*
%TO.N,Net-(D22-K)*%
X110215600Y-86959000D03*
X83784400Y-86859000D03*
%TO.N,Net-(D20-K)*%
X39334900Y-86409300D03*
X60078000Y-82718600D03*
%TO.N,Net-(D19-K)*%
X39334900Y-77404200D03*
X160498700Y-62033600D03*
%TO.N,Net-(D17-K)*%
X146699600Y-59899000D03*
X130658300Y-58860900D03*
%TO.N,Net-(D14-K)*%
X101228000Y-38540700D03*
X160830200Y-38540700D03*
%TO.N,Net-(D10-K)*%
X43539900Y-59043500D03*
X66004600Y-59043500D03*
%TO.N,Net-(D8-K)*%
X36250000Y-47509200D03*
X45261500Y-47509200D03*
%TO.N,Net-(D7-K)*%
X36250000Y-38540700D03*
X48224800Y-41530200D03*
%TO.N,Net-(D5-K)*%
X135195800Y-31695700D03*
X113417400Y-33191000D03*
%TO.N,Net-(D4-K)*%
X116380700Y-29150600D03*
X98600900Y-29063400D03*
%TO.N,+12V*%
X53752300Y-26183600D03*
X72487000Y-119257200D03*
X98600900Y-122246700D03*
X130236400Y-29072200D03*
%TO.N,Net-(D1-K)*%
X77857800Y-23022800D03*
X48224800Y-23629400D03*
%TD*%
D19*
%TO.N,Net-(J3-Pin_8)*%
X137123800Y-115470100D02*
X137123800Y-131215200D01*
X138796000Y-113797900D02*
X137123800Y-115470100D01*
X138796000Y-96041600D02*
X138796000Y-113797900D01*
X132955700Y-90201300D02*
X138796000Y-96041600D01*
X132955700Y-73894000D02*
X132955700Y-90201300D01*
X125974200Y-66912500D02*
X132955700Y-73894000D01*
X125974200Y-51215400D02*
X125974200Y-66912500D01*
%TO.N,Net-(J3-Pin_16)*%
X81613300Y-105776500D02*
X81613300Y-133438700D01*
X77892100Y-102055300D02*
X81613300Y-105776500D01*
X77892100Y-54999000D02*
X77892100Y-102055300D01*
X74469800Y-51576700D02*
X77892100Y-54999000D01*
X73750000Y-51576700D02*
X74469800Y-51576700D01*
X73750000Y-50425000D02*
X73750000Y-51576700D01*
%TO.N,Net-(J3-Pin_13)*%
X51188100Y-98548100D02*
X47940000Y-95300000D01*
X51188100Y-125236200D02*
X51188100Y-98548100D01*
%TO.N,Net-(J3-Pin_18)*%
X125277300Y-95562700D02*
X125277300Y-134057400D01*
X125640000Y-95200000D02*
X125277300Y-95562700D01*
X163233800Y-144828800D02*
X165435000Y-147030000D01*
X163233800Y-137656400D02*
X163233800Y-144828800D01*
%TO.N,Net-(J3-Pin_11)*%
X160150000Y-94430000D02*
X160150000Y-95581700D01*
X159430300Y-95581700D02*
X160150000Y-95581700D01*
X158962600Y-96049400D02*
X159430300Y-95581700D01*
X158962600Y-106190800D02*
X158962600Y-96049400D01*
X163225400Y-110453600D02*
X158962600Y-106190800D01*
X163225400Y-117858600D02*
X163225400Y-110453600D01*
X162775200Y-118308800D02*
X163225400Y-117858600D01*
X162775200Y-136014200D02*
X162775200Y-118308800D01*
X164882700Y-138121700D02*
X162775200Y-136014200D01*
X166686700Y-138121700D02*
X164882700Y-138121700D01*
X167975000Y-139410000D02*
X166686700Y-138121700D01*
%TO.N,Net-(J3-Pin_4)*%
X155250000Y-46550000D02*
X155250000Y-47701700D01*
X164183300Y-127998300D02*
X165435000Y-129250000D01*
X164183300Y-118602300D02*
X164183300Y-127998300D01*
X164428800Y-118356800D02*
X164183300Y-118602300D01*
X164428800Y-79061600D02*
X164428800Y-118356800D01*
X153467600Y-68100400D02*
X164428800Y-79061600D01*
X153467600Y-52916800D02*
X153467600Y-68100400D01*
X153247500Y-52696700D02*
X153467600Y-52916800D01*
X153247500Y-52696700D02*
X153467600Y-52916800D01*
X152894900Y-52344100D02*
X153247500Y-52696700D01*
X152894900Y-50747500D02*
X152894900Y-52344100D01*
X152647300Y-50499900D02*
X152894900Y-50747500D01*
X152647300Y-50499900D02*
X152894900Y-50747500D01*
X152647300Y-49532900D02*
X152647300Y-50499900D01*
X154478500Y-47701700D02*
X152647300Y-49532900D01*
X155250000Y-47701700D02*
X154478500Y-47701700D01*
%TO.N,Net-(J3-Pin_7)*%
X169890000Y-53631900D02*
X166756800Y-50498700D01*
X169890000Y-132552100D02*
X169890000Y-53631900D01*
X168112100Y-134330000D02*
X169890000Y-132552100D01*
X167975000Y-134330000D02*
X168112100Y-134330000D01*
%TO.N,Net-(J3-Pin_17)*%
X160090900Y-116900900D02*
X160777100Y-116214700D01*
X160090900Y-143505200D02*
X160090900Y-116900900D01*
X164867400Y-148281700D02*
X160090900Y-143505200D01*
X166723300Y-148281700D02*
X164867400Y-148281700D01*
X167975000Y-147030000D02*
X166723300Y-148281700D01*
%TO.N,Net-(J3-Pin_6)*%
X160830200Y-119102800D02*
X160830200Y-131215200D01*
X162567700Y-117365300D02*
X160830200Y-119102800D01*
X162567700Y-110918400D02*
X162567700Y-117365300D01*
X157054500Y-105405200D02*
X162567700Y-110918400D01*
X157054500Y-75266000D02*
X157054500Y-105405200D01*
X152403800Y-70615300D02*
X157054500Y-75266000D01*
X152403800Y-64335700D02*
X152403800Y-70615300D01*
X140269800Y-52201700D02*
X152403800Y-64335700D01*
X139550000Y-52201700D02*
X140269800Y-52201700D01*
X139550000Y-51050000D02*
X139550000Y-52201700D01*
%TO.N,Net-(J3-Pin_5)*%
X155250000Y-51630000D02*
X155250000Y-52781700D01*
X166705000Y-130520000D02*
X167975000Y-131790000D01*
X166705000Y-69232100D02*
X166705000Y-130520000D01*
X159797000Y-62324100D02*
X166705000Y-69232100D01*
X159797000Y-56608800D02*
X159797000Y-62324100D01*
X155969900Y-52781700D02*
X159797000Y-56608800D01*
X155250000Y-52781700D02*
X155969900Y-52781700D01*
%TO.N,Net-(J3-Pin_14)*%
X131197200Y-134513000D02*
X137882700Y-141198500D01*
X131197200Y-95049100D02*
X131197200Y-134513000D01*
%TO.N,Net-(J3-Pin_10)*%
X160150000Y-89350000D02*
X160150000Y-90501700D01*
X160869900Y-90501700D02*
X160150000Y-90501700D01*
X163398100Y-93029900D02*
X160869900Y-90501700D01*
X163398100Y-109775400D02*
X163398100Y-93029900D01*
X163474500Y-109851800D02*
X163398100Y-109775400D01*
X163474500Y-109851800D02*
X163398100Y-109775400D01*
X163827100Y-110204400D02*
X163474500Y-109851800D01*
X163827100Y-118107700D02*
X163827100Y-110204400D01*
X163398100Y-118536700D02*
X163827100Y-118107700D01*
X163398100Y-134833100D02*
X163398100Y-118536700D01*
X165435000Y-136870000D02*
X163398100Y-134833100D01*
%TO.N,Net-(J3-Pin_21)*%
X140087100Y-145577100D02*
X140087100Y-147443700D01*
X136310000Y-141800000D02*
X140087100Y-145577100D01*
%TO.N,Net-(J3-Pin_15)*%
X164472100Y-140680000D02*
X163935600Y-140143500D01*
X165970900Y-140680000D02*
X164472100Y-140680000D01*
X166686700Y-141395800D02*
X165970900Y-140680000D01*
X166686700Y-143201700D02*
X166686700Y-141395800D01*
X167975000Y-144490000D02*
X166686700Y-143201700D01*
%TO.N,GND*%
X106950000Y-51050000D02*
X106950000Y-53590000D01*
X71025000Y-95000000D02*
X71025000Y-93748300D01*
X41250000Y-53390000D02*
X41250000Y-54541700D01*
X56950000Y-46350000D02*
X56950000Y-48890000D01*
X139550000Y-53590000D02*
X139550000Y-54741700D01*
X167975000Y-129250000D02*
X167975000Y-126710000D01*
X62000000Y-46350000D02*
X56950000Y-46350000D01*
X66850000Y-41500000D02*
X62000000Y-46350000D01*
X148172900Y-27600000D02*
X148047200Y-27474300D01*
X149250000Y-27600000D02*
X148172900Y-27600000D01*
X155250000Y-49090000D02*
X155250000Y-50241700D01*
X79600000Y-57312900D02*
X80821100Y-56091800D01*
X79600000Y-74500000D02*
X79600000Y-57312900D01*
X128500000Y-29666800D02*
X128500000Y-31600000D01*
X128233900Y-29400700D02*
X128500000Y-29666800D01*
X166723300Y-135618300D02*
X167975000Y-136870000D01*
X166723300Y-133811600D02*
X166723300Y-135618300D01*
X167456600Y-133078300D02*
X166723300Y-133811600D01*
X168464000Y-133078300D02*
X167456600Y-133078300D01*
X169264800Y-132277500D02*
X168464000Y-133078300D01*
X169264800Y-130539800D02*
X169264800Y-132277500D01*
X167975000Y-129250000D02*
X169264800Y-130539800D01*
X160869800Y-93041700D02*
X160150000Y-93041700D01*
X161605900Y-93777800D02*
X160869800Y-93041700D01*
X161605900Y-97278000D02*
X161605900Y-93777800D01*
X160150000Y-91890000D02*
X160150000Y-93041700D01*
X122650000Y-54170000D02*
X122650000Y-54595000D01*
X122650000Y-54595000D02*
X122650000Y-55321700D01*
X121930100Y-50241700D02*
X122650000Y-50241700D01*
X121498300Y-50673500D02*
X121930100Y-50241700D01*
X121498300Y-53443300D02*
X121498300Y-50673500D01*
X122650000Y-54595000D02*
X121498300Y-53443300D01*
X122650000Y-49090000D02*
X122650000Y-50241700D01*
X41250000Y-50850000D02*
X41250000Y-53390000D01*
X122650000Y-54170000D02*
X122650000Y-53018300D01*
X45400000Y-53626700D02*
X45261500Y-53488200D01*
X45400000Y-95300000D02*
X45400000Y-53626700D01*
X73750000Y-54645800D02*
X72304000Y-56091800D01*
X73750000Y-52965000D02*
X73750000Y-54645800D01*
X66850000Y-36594000D02*
X66850000Y-41500000D01*
X66004600Y-35748600D02*
X66850000Y-36594000D01*
X117787100Y-130612900D02*
X119100000Y-129300000D01*
X111962900Y-130612900D02*
X117787100Y-130612900D01*
X110750000Y-129400000D02*
X111962900Y-130612900D01*
X80325000Y-105551700D02*
X71025000Y-96251700D01*
X80325000Y-127900000D02*
X80325000Y-105551700D01*
X71025000Y-95000000D02*
X71025000Y-96251700D01*
X56950000Y-51430000D02*
X56950000Y-53970000D01*
X56950000Y-69750000D02*
X52700000Y-74000000D01*
X56950000Y-53970000D02*
X56950000Y-69750000D01*
X152200000Y-122532600D02*
X152200000Y-112700000D01*
X154903600Y-125236200D02*
X152200000Y-122532600D01*
X123369800Y-53018300D02*
X122650000Y-53018300D01*
X125272500Y-51115600D02*
X123369800Y-53018300D01*
X125272500Y-34827500D02*
X125272500Y-51115600D01*
X128500000Y-31600000D02*
X125272500Y-34827500D01*
X122650100Y-55321700D02*
X122650000Y-55321700D01*
X122650100Y-66650100D02*
X122650100Y-55321700D01*
X128864100Y-72864000D02*
X122650100Y-66650100D01*
X127050400Y-74677700D02*
X128864100Y-72864000D01*
X119377700Y-74677700D02*
X127050400Y-74677700D01*
X118000000Y-73300000D02*
X119377700Y-74677700D01*
X129400000Y-73400000D02*
X128864100Y-72864000D01*
X119100000Y-129300000D02*
X123100000Y-129300000D01*
X123100000Y-129300000D02*
X123100000Y-95200000D01*
X128690000Y-141800000D02*
X128690000Y-140548300D01*
X154903600Y-145946400D02*
X154903600Y-125236200D01*
X145150000Y-155700000D02*
X154903600Y-145946400D01*
X66450000Y-92723800D02*
X67474500Y-93748300D01*
X66450000Y-74400000D02*
X66450000Y-92723800D01*
X67474500Y-93748300D02*
X71025000Y-93748300D01*
X67474500Y-105575500D02*
X58650000Y-114400000D01*
X67474500Y-93748300D02*
X67474500Y-105575500D01*
X123100000Y-134958300D02*
X128690000Y-140548300D01*
X123100000Y-129300000D02*
X123100000Y-134958300D01*
X144450000Y-110011500D02*
X144450000Y-96390000D01*
X148450400Y-114011900D02*
X144450000Y-110011500D01*
X150888100Y-114011900D02*
X148450400Y-114011900D01*
X152200000Y-112700000D02*
X150888100Y-114011900D01*
X154088900Y-53008900D02*
X155250000Y-54170000D01*
X154088900Y-49010600D02*
X154088900Y-53008900D01*
X154099600Y-48999900D02*
X154088900Y-49010600D01*
X154099700Y-48999900D02*
X154099600Y-48999900D01*
X154099800Y-49000000D02*
X154099700Y-48999900D01*
X154099800Y-49000100D02*
X154099800Y-49000000D01*
X154147100Y-49047400D02*
X154099800Y-49000100D01*
X154347400Y-49047400D02*
X154147100Y-49047400D01*
X154700000Y-49400000D02*
X154347400Y-49047400D01*
X154700000Y-49757300D02*
X154700000Y-49400000D01*
X154818800Y-49876100D02*
X154700000Y-49757300D01*
X154818800Y-50124700D02*
X154818800Y-49876100D01*
X154935800Y-50241700D02*
X154818800Y-50124700D01*
X155250000Y-50241700D02*
X154935800Y-50241700D01*
X142500000Y-63666600D02*
X142749100Y-63417500D01*
X142500000Y-73400000D02*
X142500000Y-63666600D01*
X142749100Y-63417500D02*
X142536100Y-63204500D01*
X142749100Y-63417500D02*
X142536100Y-63204500D01*
X142536100Y-57727800D02*
X139550000Y-54741700D01*
X142536100Y-63204500D02*
X142536100Y-57727800D01*
X45054600Y-64899500D02*
X44702000Y-64546900D01*
X45054600Y-67845400D02*
X45054600Y-64899500D01*
X38900000Y-74000000D02*
X45054600Y-67845400D01*
X44702000Y-64546900D02*
X44454400Y-64299300D01*
X44702000Y-64546900D02*
X44454400Y-64299300D01*
X44454400Y-57746100D02*
X41250000Y-54541700D01*
X44454400Y-64299300D02*
X44454400Y-57746100D01*
%TO.N,Net-(D45-K)*%
X142050000Y-153410000D02*
X142050000Y-155700000D01*
X146260000Y-149200000D02*
X142050000Y-153410000D01*
%TO.N,Net-(D44-K)*%
X148410000Y-136090000D02*
X148410000Y-149200000D01*
X150300000Y-134200000D02*
X148410000Y-136090000D01*
%TO.N,Net-(D43-K)*%
X139460000Y-121210000D02*
X152450000Y-134200000D01*
X139460000Y-119000000D02*
X139460000Y-121210000D01*
%TO.N,Net-(D42-K)*%
X116000000Y-120260000D02*
X118160000Y-118100000D01*
X116000000Y-129300000D02*
X116000000Y-120260000D01*
%TO.N,Net-(D41-K)*%
X120310000Y-124270200D02*
X119344000Y-125236200D01*
X120310000Y-118100000D02*
X120310000Y-124270200D01*
X85160000Y-125552800D02*
X85160000Y-142400000D01*
X86747700Y-123965100D02*
X85160000Y-125552800D01*
%TO.N,Net-(D40-K)*%
X87310000Y-142250000D02*
X87310000Y-142400000D01*
X93660000Y-135900000D02*
X87310000Y-142250000D01*
%TO.N,Net-(D39-K)*%
X104527500Y-126277500D02*
X104527500Y-125236200D01*
X107650000Y-129400000D02*
X104527500Y-126277500D01*
X66750000Y-126606700D02*
X66750000Y-132300000D01*
X68967900Y-124388800D02*
X66750000Y-126606700D01*
%TO.N,Net-(D38-K)*%
X75864200Y-125335800D02*
X75864200Y-123144100D01*
X68900000Y-132300000D02*
X75864200Y-125335800D01*
X94650000Y-122156500D02*
X94650000Y-119300000D01*
X95637600Y-123144100D02*
X94650000Y-122156500D01*
%TO.N,Net-(D37-K)*%
X95637600Y-118137600D02*
X95637600Y-116267700D01*
X96800000Y-119300000D02*
X95637600Y-118137600D01*
X68360000Y-119838800D02*
X68360000Y-118100000D01*
X68472500Y-119951300D02*
X68360000Y-119838800D01*
%TO.N,Net-(D36-K)*%
X150449800Y-111350200D02*
X149100000Y-112700000D01*
X157710200Y-111350200D02*
X150449800Y-111350200D01*
X158960000Y-112600000D02*
X157710200Y-111350200D01*
%TO.N,Net-(D35-K)*%
X153400000Y-104890000D02*
X161110000Y-112600000D01*
X153400000Y-87700000D02*
X153400000Y-104890000D01*
%TO.N,Net-(D34-K)*%
X150660000Y-82810000D02*
X155550000Y-87700000D01*
X150660000Y-73500000D02*
X150660000Y-82810000D01*
%TO.N,Net-(D33-K)*%
X135160000Y-93560000D02*
X135160000Y-105600000D01*
X114900000Y-73300000D02*
X135160000Y-93560000D01*
%TO.N,Net-(D32-K)*%
X110115600Y-105455600D02*
X110115600Y-103632200D01*
X110160000Y-105500000D02*
X110115600Y-105455600D01*
X137310000Y-103868100D02*
X137310000Y-105600000D01*
X137123800Y-103681900D02*
X137310000Y-103868100D01*
%TO.N,Net-(D31-K)*%
X85673900Y-107193900D02*
X87711200Y-107193900D01*
X84060000Y-105580000D02*
X85673900Y-107193900D01*
X84060000Y-105200000D02*
X84060000Y-105580000D01*
X112310000Y-106565200D02*
X112310000Y-105500000D01*
X113417400Y-107672600D02*
X112310000Y-106565200D01*
%TO.N,Net-(D30-K)*%
X58860000Y-111090000D02*
X55550000Y-114400000D01*
X58860000Y-105300000D02*
X58860000Y-111090000D01*
%TO.N,Net-(D29-K)*%
X60309800Y-106000200D02*
X60309800Y-107096300D01*
X61010000Y-105300000D02*
X60309800Y-106000200D01*
X36376900Y-107062000D02*
X37581600Y-107062000D01*
X34960000Y-105645100D02*
X36376900Y-107062000D01*
X34960000Y-105300000D02*
X34960000Y-105645100D01*
%TO.N,Net-(D28-K)*%
X39334900Y-103075100D02*
X39334900Y-95341200D01*
X37110000Y-105300000D02*
X39334900Y-103075100D01*
X97060000Y-90956500D02*
X97060000Y-87200000D01*
X95798200Y-92218300D02*
X97060000Y-90956500D01*
%TO.N,Net-(D27-K)*%
X49600000Y-63831900D02*
X49600000Y-74000000D01*
X48224800Y-62456700D02*
X49600000Y-63831900D01*
X31860000Y-55574800D02*
X31860000Y-42200000D01*
X32938600Y-56653400D02*
X31860000Y-55574800D01*
%TO.N,Net-(D26-K)*%
X161960000Y-60769300D02*
X161505300Y-60314600D01*
X161960000Y-62200000D02*
X161960000Y-60769300D01*
X34010000Y-54561400D02*
X34642500Y-55193900D01*
X34010000Y-42200000D02*
X34010000Y-54561400D01*
X34642500Y-55193900D02*
X34010000Y-54561400D01*
X34010000Y-54561400D02*
X34642500Y-55193900D01*
%TO.N,Net-(D25-K)*%
X164110000Y-59783700D02*
X164110000Y-62200000D01*
X163793500Y-59467200D02*
X164110000Y-59783700D01*
X134860000Y-67472300D02*
X134860000Y-85300000D01*
X129300400Y-61912700D02*
X134860000Y-67472300D01*
X129300400Y-58155200D02*
X129300400Y-61912700D01*
X134019200Y-53436400D02*
X129300400Y-58155200D01*
%TO.N,Net-(D24-K)*%
X111360000Y-65967900D02*
X111360000Y-66300000D01*
X112513300Y-64814600D02*
X111360000Y-65967900D01*
X117714600Y-64814600D02*
X112513300Y-64814600D01*
X126300000Y-73400000D02*
X117714600Y-64814600D01*
%TO.N,Net-(D23-K)*%
X110360000Y-69450000D02*
X110360000Y-85000000D01*
X113510000Y-66300000D02*
X110360000Y-69450000D01*
%TO.N,Net-(D22-K)*%
X110551000Y-86959000D02*
X110215600Y-86959000D01*
X112510000Y-85000000D02*
X110551000Y-86959000D01*
X84460000Y-86183400D02*
X84460000Y-84800000D01*
X83784400Y-86859000D02*
X84460000Y-86183400D01*
%TO.N,Net-(D21-K)*%
X58250000Y-79500000D02*
X58250000Y-84600000D01*
X63350000Y-74400000D02*
X58250000Y-79500000D01*
%TO.N,Net-(D20-K)*%
X39334900Y-86409200D02*
X39334900Y-86409300D01*
X38091700Y-86409200D02*
X39334900Y-86409200D01*
X35960000Y-84277500D02*
X38091700Y-86409200D01*
X35960000Y-83900000D02*
X35960000Y-84277500D01*
X60400000Y-83040600D02*
X60400000Y-84600000D01*
X60078000Y-82718600D02*
X60400000Y-83040600D01*
%TO.N,Net-(D19-K)*%
X39334900Y-82675100D02*
X39334900Y-77404200D01*
X38110000Y-83900000D02*
X39334900Y-82675100D01*
X160498700Y-43761300D02*
X161960000Y-42300000D01*
X160498700Y-62033600D02*
X160498700Y-43761300D01*
%TO.N,Net-(D18-K)*%
X140680700Y-74680700D02*
X139400000Y-73400000D01*
X143191200Y-74680700D02*
X140680700Y-74680700D01*
X146750000Y-71121900D02*
X143191200Y-74680700D01*
X146750000Y-66300000D02*
X146750000Y-71121900D01*
%TO.N,Net-(D17-K)*%
X130260000Y-59259200D02*
X130260000Y-60800000D01*
X130658300Y-58860900D02*
X130260000Y-59259200D01*
X146699600Y-64099600D02*
X146699600Y-59899000D01*
X148900000Y-66300000D02*
X146699600Y-64099600D01*
%TO.N,Net-(D16-K)*%
X134729400Y-58480600D02*
X132410000Y-60800000D01*
X134729400Y-50550300D02*
X134729400Y-58480600D01*
X130360000Y-46180900D02*
X134729400Y-50550300D01*
X130360000Y-42000000D02*
X130360000Y-46180900D01*
%TO.N,Net-(D15-K)*%
X153675000Y-35125000D02*
X157600000Y-35125000D01*
X146150000Y-27600000D02*
X153675000Y-35125000D01*
%TO.N,Net-(D14-K)*%
X98950000Y-40818700D02*
X98950000Y-53200000D01*
X101228000Y-38540700D02*
X98950000Y-40818700D01*
X159750000Y-37460500D02*
X159750000Y-35125000D01*
X160830200Y-38540700D02*
X159750000Y-37460500D01*
%TO.N,Net-(D13-K)*%
X98162800Y-56137200D02*
X101100000Y-53200000D01*
X97919200Y-56137200D02*
X98162800Y-56137200D01*
X88060000Y-65996400D02*
X97919200Y-56137200D01*
X88060000Y-66400000D02*
X88060000Y-65996400D01*
%TO.N,Net-(D12-K)*%
X63910000Y-52970800D02*
X63910000Y-53350000D01*
X65047300Y-51833500D02*
X63910000Y-52970800D01*
X67023600Y-51833500D02*
X65047300Y-51833500D01*
X76500000Y-61309900D02*
X67023600Y-51833500D01*
X76500000Y-74500000D02*
X76500000Y-61309900D01*
%TO.N,Net-(D11-K)*%
X63860000Y-55550000D02*
X63860000Y-66400000D01*
X66060000Y-53350000D02*
X63860000Y-55550000D01*
%TO.N,Net-(D10-K)*%
X43852700Y-59356300D02*
X43539900Y-59043500D01*
X43852700Y-64674300D02*
X43852700Y-59356300D01*
X43852800Y-64674300D02*
X43852700Y-64674300D01*
X44452900Y-65274400D02*
X43852800Y-64674300D01*
X44452900Y-67370600D02*
X44452900Y-65274400D01*
X44065000Y-67758500D02*
X44452900Y-67370600D01*
X41959100Y-67758500D02*
X44065000Y-67758500D01*
X40850000Y-66649400D02*
X41959100Y-67758500D01*
X40850000Y-66300000D02*
X40850000Y-66649400D01*
X66010000Y-59048900D02*
X66010000Y-66400000D01*
X66004600Y-59043500D02*
X66010000Y-59048900D01*
%TO.N,Net-(D9-K)*%
X32660000Y-70860000D02*
X35800000Y-74000000D01*
X32660000Y-58700000D02*
X32660000Y-70860000D01*
%TO.N,Net-(D8-K)*%
X36250000Y-57260000D02*
X36250000Y-47509200D01*
X34810000Y-58700000D02*
X36250000Y-57260000D01*
X47860000Y-44910700D02*
X47860000Y-44300000D01*
X45261500Y-47509200D02*
X47860000Y-44910700D01*
%TO.N,Net-(D7-K)*%
X36250000Y-34390000D02*
X36250000Y-38540700D01*
X35760000Y-33900000D02*
X36250000Y-34390000D01*
X50010000Y-43315400D02*
X50010000Y-44300000D01*
X48224800Y-41530200D02*
X50010000Y-43315400D01*
%TO.N,Net-(D6-K)*%
X125400000Y-31184700D02*
X125400000Y-31600000D01*
X128214200Y-28370500D02*
X125400000Y-31184700D01*
X130527000Y-28370500D02*
X128214200Y-28370500D01*
X135300000Y-33143500D02*
X130527000Y-28370500D01*
X135300000Y-33375000D02*
X135300000Y-33143500D01*
%TO.N,Net-(D5-K)*%
X135770700Y-31695700D02*
X135195800Y-31695700D01*
X137450000Y-33375000D02*
X135770700Y-31695700D01*
X114100000Y-32508400D02*
X114100000Y-31275000D01*
X113417400Y-33191000D02*
X114100000Y-32508400D01*
%TO.N,Net-(D4-K)*%
X116380700Y-31144300D02*
X116380700Y-29150600D01*
X116250000Y-31275000D02*
X116380700Y-31144300D01*
X98600900Y-30340900D02*
X99360000Y-31100000D01*
X98600900Y-29063400D02*
X98600900Y-30340900D01*
%TO.N,Net-(D3-K)*%
X62060000Y-39810000D02*
X62060000Y-33400000D01*
X63750000Y-41500000D02*
X62060000Y-39810000D01*
%TO.N,Net-(D2-K)*%
X67135000Y-30475000D02*
X64210000Y-33400000D01*
X81010000Y-30475000D02*
X67135000Y-30475000D01*
D20*
%TO.N,+12V*%
X99210000Y-75400000D02*
X90378500Y-66568400D01*
X99210000Y-87200000D02*
X99210000Y-75400000D01*
X101510000Y-31192400D02*
X100005100Y-32697300D01*
X101510000Y-31100000D02*
X101510000Y-31192400D01*
X94290000Y-28246600D02*
X94290000Y-26200000D01*
X98740700Y-32697300D02*
X94290000Y-28246600D01*
X100005100Y-32697300D02*
X98740700Y-32697300D01*
X102673400Y-54273500D02*
X90378500Y-66568400D01*
X102673400Y-35365600D02*
X102673400Y-54273500D01*
X100005100Y-32697300D02*
X102673400Y-35365600D01*
X90378500Y-66568400D02*
X90210000Y-66400000D01*
X164110000Y-28305000D02*
X162055000Y-26250000D01*
X164110000Y-42300000D02*
X164110000Y-28305000D01*
X141610000Y-87240700D02*
X141610000Y-119000000D01*
X139669300Y-85300000D02*
X141610000Y-87240700D01*
X137010000Y-85300000D02*
X139669300Y-85300000D01*
X152810000Y-73392700D02*
X152810000Y-73500000D01*
X151352800Y-71935500D02*
X152810000Y-73392700D01*
X149954800Y-71935500D02*
X151352800Y-71935500D01*
X139669300Y-82221000D02*
X149954800Y-71935500D01*
X139669300Y-85300000D02*
X139669300Y-82221000D01*
X50500000Y-26183600D02*
X53752300Y-26183600D01*
X50500000Y-26100000D02*
X50500000Y-26183600D01*
X42783600Y-33900000D02*
X37910000Y-33900000D01*
X50500000Y-26183600D02*
X42783600Y-33900000D01*
X71329800Y-118100000D02*
X72487000Y-119257200D01*
X70510000Y-118100000D02*
X71329800Y-118100000D01*
X98600900Y-133109100D02*
X98600900Y-122246700D01*
X95810000Y-135900000D02*
X98600900Y-133109100D01*
X101073000Y-89063000D02*
X99210000Y-87200000D01*
X101073000Y-119774600D02*
X101073000Y-89063000D01*
X98600900Y-122246700D02*
X101073000Y-119774600D01*
X137010000Y-46500000D02*
X132510000Y-42000000D01*
X137010000Y-85300000D02*
X137010000Y-46500000D01*
X130236400Y-29865100D02*
X130236400Y-29072200D01*
X132510000Y-32138700D02*
X130236400Y-29865100D01*
X132510000Y-42000000D02*
X132510000Y-32138700D01*
X90210000Y-81200000D02*
X86610000Y-84800000D01*
X90210000Y-66400000D02*
X90210000Y-81200000D01*
X86610000Y-104800000D02*
X86210000Y-105200000D01*
X86610000Y-84800000D02*
X86610000Y-104800000D01*
X42738200Y-66038200D02*
X43000000Y-66300000D01*
X42738200Y-57087800D02*
X42738200Y-66038200D01*
X37910000Y-52259600D02*
X42738200Y-57087800D01*
X37910000Y-33900000D02*
X37910000Y-52259600D01*
D19*
%TO.N,Net-(D1-K)*%
X77857800Y-25172800D02*
X77857800Y-23022800D01*
X83160000Y-30475000D02*
X77857800Y-25172800D01*
X48350000Y-23754600D02*
X48224800Y-23629400D01*
X48350000Y-26100000D02*
X48350000Y-23754600D01*
%TD*%
M02*
