M48
; DRILL file {KiCad 9.0.2} date 2025-06-30T21:03:27+0200
; FORMAT={-:-/ absolute / inch / decimal}
; #@! TF.CreationDate,2025-06-30T21:03:27+02:00
; #@! TF.GenerationSoftware,Kicad,Pcbnew,9.0.2
; #@! TF.FileFunction,Plated,1,2,PTH
FMAT,2
INCH
; #@! TA.AperFunction,Plated,PTH,ViaDrill
T1C0.0118
; #@! TA.AperFunction,Plated,PTH,ComponentDrill
T2C0.0236
; #@! TA.AperFunction,Plated,PTH,ComponentDrill
T3C0.0394
; #@! TA.AperFunction,Plated,PTH,ComponentDrill
T4C0.0598
%
G90
G05
T1
X3.6127Y-4.3138
X4.0473Y-4.1628
X4.0793Y-4.822
X4.196Y-4.7853
X4.1979Y-3.3797
X4.3056Y-3.3562
X4.4649Y-3.4145
X4.9748Y-4.791
X5.1408Y-3.2619
X5.9063Y-4.6823
X5.946Y-3.8202
X6.0626Y-4.8149
X6.1793Y-3.2619
X6.1793Y-4.765
X6.3012Y-4.695
X6.4126Y-4.3138
X6.4458Y-4.3471
X6.4979Y-3.7708
X6.5293Y-3.7045
X6.5293Y-4.4307
X7.1096Y-3.4938
X7.2293Y-3.9632
X7.6334Y-4.0258
X7.8155Y-3.8492
X7.901Y-4.7054
X8.045Y-4.0861
X8.1491Y-4.168
T2
X4.5138Y-4.128
X4.5138Y-4.228
X5.1319Y-3.9508
X5.1319Y-4.0508
X5.1319Y-4.1508
X5.1319Y-4.2508
T3
X6.0876Y-4.1654
X6.1876Y-4.1654
X6.5537Y-3.2002
X6.5537Y-3.3002
X6.6537Y-3.2002
X6.6537Y-3.3002
X6.7537Y-3.2002
X6.7537Y-3.3002
X6.8537Y-3.2002
X6.8537Y-3.3002
X6.9537Y-3.2002
X6.9537Y-3.3002
X7.0537Y-3.2002
X7.0537Y-3.3002
X7.1537Y-3.2002
X7.1537Y-3.3002
X7.2537Y-3.2002
X7.2537Y-3.3002
X7.3537Y-3.2002
X7.3537Y-3.3002
X7.3665Y-4.1634
X7.4537Y-3.2002
X7.4537Y-3.3002
X7.4665Y-4.1634
X7.5537Y-3.2002
X7.5537Y-3.3002
X7.5665Y-4.1634
X7.6537Y-3.2002
X7.6537Y-3.3002
X7.7537Y-3.2002
X7.7537Y-3.3002
X7.8537Y-3.2002
X7.8537Y-3.3002
X7.9537Y-3.2002
X7.9537Y-3.3002
X8.0537Y-3.2002
X8.0537Y-3.3002
X8.1537Y-3.2002
X8.1537Y-3.3002
X8.2537Y-3.2002
X8.2537Y-3.3002
X8.3537Y-3.2002
X8.3537Y-3.3002
X8.4537Y-3.2002
X8.4537Y-3.3002
T4
X3.4181Y-3.252
X3.4187Y-4.7963
X3.6181Y-3.252
X3.6187Y-4.7963
M30
