%TF.GenerationSoftware,KiCad,Pcbnew,9.0.2*%
%TF.CreationDate,2025-06-30T21:03:27+02:00*%
%TF.ProjectId,evac,65766163-2e6b-4696-9361-645f70636258,rev?*%
%TF.SameCoordinates,Original*%
%TF.FileFunction,Soldermask,Bot*%
%TF.FilePolarity,Negative*%
%FSLAX46Y46*%
G04 Gerber Fmt 4.6, Leading zero omitted, Abs format (unit mm)*
G04 Created by KiCad (PCBNEW 9.0.2) date 2025-06-30 21:03:27*
%MOMM*%
%LPD*%
G01*
G04 APERTURE LIST*
%ADD10R,3.000000X3.000000*%
%ADD11C,3.000000*%
%ADD12R,1.700000X1.700000*%
%ADD13C,1.700000*%
%ADD14R,1.500000X1.500000*%
G04 APERTURE END LIST*
D10*
%TO.C,J7*%
X91915000Y-121825000D03*
D11*
X86835000Y-121825000D03*
%TD*%
D12*
%TO.C,J4*%
X187110000Y-105750000D03*
D13*
X189650000Y-105750000D03*
X192190000Y-105750000D03*
%TD*%
D12*
%TO.C,J3*%
X214725000Y-83825000D03*
D13*
X214725000Y-81285000D03*
X212185000Y-83825000D03*
X212185000Y-81285000D03*
X209645000Y-83825000D03*
X209645000Y-81285000D03*
X207105000Y-83825000D03*
X207105000Y-81285000D03*
X204565000Y-83825000D03*
X204565000Y-81285000D03*
X202025000Y-83825000D03*
X202025000Y-81285000D03*
X199485000Y-83825000D03*
X199485000Y-81285000D03*
X196945000Y-83825000D03*
X196945000Y-81285000D03*
X194405000Y-83825000D03*
X194405000Y-81285000D03*
X191865000Y-83825000D03*
X191865000Y-81285000D03*
X189325000Y-83825000D03*
X189325000Y-81285000D03*
X186785000Y-83825000D03*
X186785000Y-81285000D03*
X184245000Y-83825000D03*
X184245000Y-81285000D03*
X181705000Y-83825000D03*
X181705000Y-81285000D03*
X179165000Y-83825000D03*
X179165000Y-81285000D03*
X176625000Y-83825000D03*
X176625000Y-81285000D03*
X174085000Y-83825000D03*
X174085000Y-81285000D03*
X171545000Y-83825000D03*
X171545000Y-81285000D03*
X169005000Y-83825000D03*
X169005000Y-81285000D03*
X166465000Y-83825000D03*
X166465000Y-81285000D03*
%TD*%
D14*
%TO.C,KR1*%
X130350000Y-100350000D03*
X130350000Y-102890000D03*
X130350000Y-105430000D03*
X130350000Y-107970000D03*
X114650000Y-104850000D03*
X114650000Y-107390000D03*
%TD*%
D12*
%TO.C,J2*%
X154625000Y-105800000D03*
D13*
X157165000Y-105800000D03*
%TD*%
D10*
%TO.C,J1*%
X86820000Y-82600000D03*
D11*
X91900000Y-82600000D03*
%TD*%
M02*
