%TF.GenerationSoftware,KiCad,Pcbnew,9.0.2*%
%TF.CreationDate,2025-06-30T21:03:27+02:00*%
%TF.ProjectId,evac,65766163-2e6b-4696-9361-645f70636258,rev?*%
%TF.SameCoordinates,Original*%
%TF.FileFunction,Copper,L2,Bot*%
%TF.FilePolarity,Positive*%
%FSLAX46Y46*%
G04 Gerber Fmt 4.6, Leading zero omitted, Abs format (unit mm)*
G04 Created by KiCad (PCBNEW 9.0.2) date 2025-06-30 21:03:27*
%MOMM*%
%LPD*%
G01*
G04 APERTURE LIST*
%TA.AperFunction,ComponentPad*%
%ADD10R,3.000000X3.000000*%
%TD*%
%TA.AperFunction,ComponentPad*%
%ADD11C,3.000000*%
%TD*%
%TA.AperFunction,ComponentPad*%
%ADD12R,1.700000X1.700000*%
%TD*%
%TA.AperFunction,ComponentPad*%
%ADD13C,1.700000*%
%TD*%
%TA.AperFunction,ComponentPad*%
%ADD14R,1.500000X1.500000*%
%TD*%
%TA.AperFunction,ViaPad*%
%ADD15C,0.600000*%
%TD*%
%TA.AperFunction,Conductor*%
%ADD16C,0.200000*%
%TD*%
%TA.AperFunction,Conductor*%
%ADD17C,0.400000*%
%TD*%
%TA.AperFunction,Conductor*%
%ADD18C,0.600000*%
%TD*%
G04 APERTURE END LIST*
D10*
%TO.P,J7,1,Pin_1*%
%TO.N,GND*%
X91915000Y-121825000D03*
D11*
%TO.P,J7,2,Pin_2*%
%TO.N,+12V*%
X86835000Y-121825000D03*
%TD*%
D12*
%TO.P,J4,1,Pin_1*%
%TO.N,Net-(J3-Pin_5)*%
X187110000Y-105750000D03*
D13*
%TO.P,J4,2,Pin_2*%
%TO.N,Net-(J3-Pin_6)*%
X189650000Y-105750000D03*
%TO.P,J4,3,Pin_3*%
%TO.N,GND*%
X192190000Y-105750000D03*
%TD*%
D12*
%TO.P,J3,1,Pin_1*%
%TO.N,Net-(J3-Pin_1)*%
X214725000Y-83825000D03*
D13*
%TO.P,J3,2,Pin_2*%
%TO.N,Net-(J3-Pin_2)*%
X214725000Y-81285000D03*
%TO.P,J3,3,Pin_3*%
%TO.N,Net-(J3-Pin_3)*%
X212185000Y-83825000D03*
%TO.P,J3,4,Pin_4*%
%TO.N,Net-(J2-Pin_2)*%
X212185000Y-81285000D03*
%TO.P,J3,5,Pin_5*%
%TO.N,Net-(J3-Pin_5)*%
X209645000Y-83825000D03*
%TO.P,J3,6,Pin_6*%
%TO.N,Net-(J3-Pin_6)*%
X209645000Y-81285000D03*
%TO.P,J3,7,Pin_7*%
%TO.N,unconnected-(J3-Pin_7-Pad7)*%
X207105000Y-83825000D03*
%TO.P,J3,8,Pin_8*%
%TO.N,unconnected-(J3-Pin_8-Pad8)*%
X207105000Y-81285000D03*
%TO.P,J3,9,Pin_9*%
%TO.N,unconnected-(J3-Pin_9-Pad9)*%
X204565000Y-83825000D03*
%TO.P,J3,10,Pin_10*%
%TO.N,unconnected-(J3-Pin_10-Pad10)*%
X204565000Y-81285000D03*
%TO.P,J3,11,Pin_11*%
%TO.N,unconnected-(J3-Pin_11-Pad11)*%
X202025000Y-83825000D03*
%TO.P,J3,12,Pin_12*%
%TO.N,unconnected-(J3-Pin_12-Pad12)*%
X202025000Y-81285000D03*
%TO.P,J3,13,Pin_13*%
%TO.N,unconnected-(J3-Pin_13-Pad13)*%
X199485000Y-83825000D03*
%TO.P,J3,14,Pin_14*%
%TO.N,unconnected-(J3-Pin_14-Pad14)*%
X199485000Y-81285000D03*
%TO.P,J3,15,Pin_15*%
%TO.N,unconnected-(J3-Pin_15-Pad15)*%
X196945000Y-83825000D03*
%TO.P,J3,16,Pin_16*%
%TO.N,unconnected-(J3-Pin_16-Pad16)*%
X196945000Y-81285000D03*
%TO.P,J3,17,Pin_17*%
%TO.N,unconnected-(J3-Pin_17-Pad17)*%
X194405000Y-83825000D03*
%TO.P,J3,18,Pin_18*%
%TO.N,unconnected-(J3-Pin_18-Pad18)*%
X194405000Y-81285000D03*
%TO.P,J3,19,Pin_19*%
%TO.N,unconnected-(J3-Pin_19-Pad19)*%
X191865000Y-83825000D03*
%TO.P,J3,20,Pin_20*%
%TO.N,unconnected-(J3-Pin_20-Pad20)*%
X191865000Y-81285000D03*
%TO.P,J3,21,Pin_21*%
%TO.N,unconnected-(J3-Pin_21-Pad21)*%
X189325000Y-83825000D03*
%TO.P,J3,22,Pin_22*%
%TO.N,unconnected-(J3-Pin_22-Pad22)*%
X189325000Y-81285000D03*
%TO.P,J3,23,Pin_23*%
%TO.N,unconnected-(J3-Pin_23-Pad23)*%
X186785000Y-83825000D03*
%TO.P,J3,24,Pin_24*%
%TO.N,unconnected-(J3-Pin_24-Pad24)*%
X186785000Y-81285000D03*
%TO.P,J3,25,Pin_25*%
%TO.N,unconnected-(J3-Pin_25-Pad25)*%
X184245000Y-83825000D03*
%TO.P,J3,26,Pin_26*%
%TO.N,unconnected-(J3-Pin_26-Pad26)*%
X184245000Y-81285000D03*
%TO.P,J3,27,Pin_27*%
%TO.N,unconnected-(J3-Pin_27-Pad27)*%
X181705000Y-83825000D03*
%TO.P,J3,28,Pin_28*%
%TO.N,unconnected-(J3-Pin_28-Pad28)*%
X181705000Y-81285000D03*
%TO.P,J3,29,Pin_29*%
%TO.N,unconnected-(J3-Pin_29-Pad29)*%
X179165000Y-83825000D03*
%TO.P,J3,30,Pin_30*%
%TO.N,unconnected-(J3-Pin_30-Pad30)*%
X179165000Y-81285000D03*
%TO.P,J3,31,Pin_31*%
%TO.N,unconnected-(J3-Pin_31-Pad31)*%
X176625000Y-83825000D03*
%TO.P,J3,32,Pin_32*%
%TO.N,unconnected-(J3-Pin_32-Pad32)*%
X176625000Y-81285000D03*
%TO.P,J3,33,Pin_33*%
%TO.N,unconnected-(J3-Pin_33-Pad33)*%
X174085000Y-83825000D03*
%TO.P,J3,34,Pin_34*%
%TO.N,unconnected-(J3-Pin_34-Pad34)*%
X174085000Y-81285000D03*
%TO.P,J3,35,Pin_35*%
%TO.N,unconnected-(J3-Pin_35-Pad35)*%
X171545000Y-83825000D03*
%TO.P,J3,36,Pin_36*%
%TO.N,unconnected-(J3-Pin_36-Pad36)*%
X171545000Y-81285000D03*
%TO.P,J3,37,Pin_37*%
%TO.N,unconnected-(J3-Pin_37-Pad37)*%
X169005000Y-83825000D03*
%TO.P,J3,38,Pin_38*%
%TO.N,unconnected-(J3-Pin_38-Pad38)*%
X169005000Y-81285000D03*
%TO.P,J3,39,Pin_39*%
%TO.N,unconnected-(J3-Pin_39-Pad39)*%
X166465000Y-83825000D03*
%TO.P,J3,40,Pin_40*%
%TO.N,unconnected-(J3-Pin_40-Pad40)*%
X166465000Y-81285000D03*
%TD*%
D14*
%TO.P,KR1,1,+5V_TOP_LED*%
%TO.N,Net-(J3-Pin_1)*%
X130350000Y-100350000D03*
%TO.P,KR1,2,GND_TOP_LED*%
%TO.N,GND*%
X130350000Y-102890000D03*
%TO.P,KR1,3,+5V_BOTTOM_LED*%
%TO.N,Net-(J3-Pin_2)*%
X130350000Y-105430000D03*
%TO.P,KR1,4,GND_BOTTOM_LED*%
%TO.N,GND*%
X130350000Y-107970000D03*
%TO.P,KR1,5,SW_IN*%
%TO.N,Net-(J3-Pin_3)*%
X114650000Y-104850000D03*
%TO.P,KR1,6,SW_OUT*%
%TO.N,GND*%
X114650000Y-107390000D03*
%TD*%
D12*
%TO.P,J2,1,Pin_1*%
%TO.N,GND*%
X154625000Y-105800000D03*
D13*
%TO.P,J2,2,Pin_2*%
%TO.N,Net-(J2-Pin_2)*%
X157165000Y-105800000D03*
%TD*%
D10*
%TO.P,J1,1,Pin_1*%
%TO.N,GND*%
X86820000Y-82600000D03*
D11*
%TO.P,J1,2,Pin_2*%
%TO.N,+12V*%
X91900000Y-82600000D03*
%TD*%
D15*
%TO.N,Net-(D22-K)*%
X150020000Y-118930400D03*
X151027500Y-97032800D03*
%TO.N,Net-(J3-Pin_3)*%
X206987200Y-105867300D03*
%TO.N,Net-(J3-Pin_2)*%
X130576100Y-82852400D03*
%TO.N,Net-(J3-Pin_1)*%
X204342100Y-103787300D03*
%TO.N,Net-(J2-Pin_2)*%
X156954100Y-82852400D03*
%TO.N,GND*%
X153990800Y-122297200D03*
X193888600Y-102256300D03*
X109361300Y-85247000D03*
X126359000Y-121691300D03*
X106578000Y-121545700D03*
X183623800Y-100665200D03*
X180583600Y-88742000D03*
%TO.N,Net-(D18-K)*%
X156954100Y-121029800D03*
X162880700Y-109571600D03*
%TO.N,Net-(D17-K)*%
X163724500Y-110416800D03*
X160049900Y-119252100D03*
%TO.N,Net-(D13-K)*%
X103614700Y-122478100D03*
X102801200Y-105736000D03*
%TO.N,Net-(D12-K)*%
X198513000Y-97769200D03*
X200685500Y-119516800D03*
%TO.N,Net-(D3-K)*%
X113409100Y-86728500D03*
X106625600Y-85845600D03*
%TO.N,+12V*%
X91761500Y-109571600D03*
X165844000Y-94093100D03*
X165046300Y-95777500D03*
X165844000Y-112540400D03*
%TD*%
D16*
%TO.N,Net-(J3-Pin_5)*%
X187900000Y-104600000D02*
X188870000Y-104600000D01*
X187110000Y-105390000D02*
X187900000Y-104600000D01*
X187110000Y-105750000D02*
X187110000Y-105390000D01*
X188870000Y-104600000D02*
X209645000Y-83825000D01*
%TO.N,Net-(J3-Pin_6)*%
X190565000Y-104835000D02*
X190565000Y-104569300D01*
X189650000Y-105750000D02*
X190565000Y-104835000D01*
%TO.N,GND*%
X193105000Y-104835000D02*
X193105000Y-104400000D01*
X192190000Y-105750000D02*
X193105000Y-104835000D01*
D17*
X193105000Y-103039900D02*
X193105000Y-104400000D01*
%TO.N,Net-(J3-Pin_6)*%
X209583000Y-85551300D02*
X190565000Y-104569300D01*
X209740800Y-85551300D02*
X209583000Y-85551300D01*
X210915000Y-84377100D02*
X209740800Y-85551300D01*
X210915000Y-82555000D02*
X210915000Y-84377100D01*
X209645000Y-81285000D02*
X210915000Y-82555000D01*
%TO.N,Net-(D22-K)*%
X151027500Y-117922900D02*
X151027500Y-97032800D01*
X150020000Y-118930400D02*
X151027500Y-117922900D01*
X150020000Y-118930400D02*
X151027500Y-118930400D01*
X151027500Y-118930400D02*
X150020000Y-118930400D01*
%TO.N,Net-(J3-Pin_3)*%
X212185000Y-100669500D02*
X212185000Y-83825000D01*
X206987200Y-105867300D02*
X212185000Y-100669500D01*
%TO.N,Net-(J3-Pin_2)*%
X129177200Y-104257200D02*
X130350000Y-105430000D01*
X129177200Y-84251300D02*
X129177200Y-104257200D01*
X130576100Y-82852400D02*
X129177200Y-84251300D01*
X130576100Y-82852400D02*
X133426800Y-80001700D01*
X133426800Y-80001700D02*
X130576100Y-82852400D01*
%TO.N,Net-(J3-Pin_1)*%
X204342100Y-104263900D02*
X204342100Y-103787300D01*
X206667000Y-106588800D02*
X204342100Y-104263900D01*
X207265000Y-106588800D02*
X206667000Y-106588800D01*
X214725000Y-99128800D02*
X207265000Y-106588800D01*
X214725000Y-83825000D02*
X214725000Y-99128800D01*
X204342100Y-103787300D02*
X203585100Y-103030300D01*
X203585100Y-103030300D02*
X204342100Y-103787300D01*
%TO.N,Net-(J2-Pin_2)*%
X157165000Y-83063300D02*
X156954100Y-82852400D01*
X157165000Y-105800000D02*
X157165000Y-83063300D01*
X156954100Y-82852400D02*
X157251500Y-82555000D01*
X157251500Y-82555000D02*
X156954100Y-82852400D01*
%TO.N,GND*%
X131069900Y-106818300D02*
X130350000Y-106818300D01*
X131501700Y-106386500D02*
X131069900Y-106818300D01*
X131501700Y-104473500D02*
X131501700Y-106386500D01*
X131069900Y-104041700D02*
X131501700Y-104473500D01*
X130350000Y-104041700D02*
X131069900Y-104041700D01*
X130350000Y-102890000D02*
X130350000Y-104041700D01*
X153990800Y-107685900D02*
X154625000Y-107051700D01*
X153990800Y-122297200D02*
X153990800Y-107685900D01*
X154625000Y-105800000D02*
X154625000Y-107051700D01*
X193888600Y-102256300D02*
X193105000Y-103039900D01*
X114650000Y-107390000D02*
X114650000Y-106238300D01*
X130350000Y-107394100D02*
X130350000Y-106818300D01*
X130350000Y-107394100D02*
X130350000Y-107970000D01*
X130350000Y-117700300D02*
X126359000Y-121691300D01*
X130350000Y-107970000D02*
X130350000Y-117700300D01*
X109361300Y-100766900D02*
X109361300Y-85245400D01*
X109361300Y-100849600D02*
X109361300Y-100766900D01*
X109361300Y-101669400D02*
X109361300Y-100849600D01*
X106578000Y-113590500D02*
X106578000Y-121545700D01*
X113930200Y-106238300D02*
X106578000Y-113590500D01*
X114650000Y-106238300D02*
X113930200Y-106238300D01*
X113930200Y-106238300D02*
X109361300Y-101669400D01*
X180583600Y-97625000D02*
X180583600Y-88742000D01*
X183623800Y-100665200D02*
X180583600Y-97625000D01*
X183623800Y-100665200D02*
X180583600Y-100665200D01*
X180583600Y-100665200D02*
X183623800Y-100665200D01*
X109361300Y-85245400D02*
X109361300Y-85247000D01*
%TO.N,Net-(D18-K)*%
X156954100Y-121029800D02*
X157379500Y-121455200D01*
X157379500Y-121455200D02*
X156954100Y-121029800D01*
X156954100Y-115498200D02*
X156954100Y-121029800D01*
X162880700Y-109571600D02*
X156954100Y-115498200D01*
X162880700Y-109571600D02*
X156954100Y-109571600D01*
X156954100Y-109571600D02*
X162880700Y-109571600D01*
%TO.N,Net-(D17-K)*%
X163724500Y-115577500D02*
X160049900Y-119252100D01*
X163724500Y-110416800D02*
X163724500Y-115577500D01*
X160049900Y-119252100D02*
X160728600Y-119252100D01*
X160728600Y-119252100D02*
X160049900Y-119252100D01*
%TO.N,Net-(D13-K)*%
X102801200Y-121664600D02*
X102801200Y-105736000D01*
X103614700Y-122478100D02*
X102801200Y-121664600D01*
X103614700Y-122478100D02*
X104508100Y-123371500D01*
X104508100Y-123371500D02*
X103614700Y-122478100D01*
%TO.N,Net-(D12-K)*%
X200685500Y-99941700D02*
X200685500Y-119516800D01*
X198513000Y-97769200D02*
X200685500Y-99941700D01*
X198513000Y-97769200D02*
X199182200Y-97100000D01*
X199182200Y-97100000D02*
X198513000Y-97769200D01*
%TO.N,Net-(D3-K)*%
X107926000Y-84545200D02*
X106625600Y-85845600D01*
X111225800Y-84545200D02*
X107926000Y-84545200D01*
X113409100Y-86728500D02*
X111225800Y-84545200D01*
X113409100Y-86728500D02*
X111225800Y-86728500D01*
X111225800Y-86728500D02*
X113409100Y-86728500D01*
D18*
%TO.N,+12V*%
X91900000Y-82600000D02*
X91900000Y-100480000D01*
X91900000Y-100480000D02*
X91900000Y-100604200D01*
X91900000Y-100604200D02*
X91900000Y-100618500D01*
X91900000Y-109571600D02*
X91761500Y-109571600D01*
X91900000Y-100618500D02*
X91900000Y-109571600D01*
X91761500Y-116898500D02*
X86835000Y-121825000D01*
X91761500Y-109571600D02*
X91761500Y-116898500D01*
X165046300Y-94890800D02*
X165046300Y-95777500D01*
X165844000Y-94093100D02*
X165046300Y-94890800D01*
X165844000Y-96575200D02*
X165844000Y-112540400D01*
X165046300Y-95777500D02*
X165844000Y-96575200D01*
%TD*%
M02*
