%TF.GenerationSoftware,KiCad,Pcbnew,9.0.2*%
%TF.CreationDate,2025-06-30T21:03:27+02:00*%
%TF.ProjectId,evac,65766163-2e6b-4696-9361-645f70636258,rev?*%
%TF.SameCoordinates,Original*%
%TF.FileFunction,Soldermask,Top*%
%TF.FilePolarity,Negative*%
%FSLAX46Y46*%
G04 Gerber Fmt 4.6, Leading zero omitted, Abs format (unit mm)*
G04 Created by KiCad (PCBNEW 9.0.2) date 2025-06-30 21:03:27*
%MOMM*%
%LPD*%
G01*
G04 APERTURE LIST*
G04 Aperture macros list*
%AMRoundRect*
0 Rectangle with rounded corners*
0 $1 Rounding radius*
0 $2 $3 $4 $5 $6 $7 $8 $9 X,Y pos of 4 corners*
0 Add a 4 corners polygon primitive as box body*
4,1,4,$2,$3,$4,$5,$6,$7,$8,$9,$2,$3,0*
0 Add four circle primitives for the rounded corners*
1,1,$1+$1,$2,$3*
1,1,$1+$1,$4,$5*
1,1,$1+$1,$6,$7*
1,1,$1+$1,$8,$9*
0 Add four rect primitives between the rounded corners*
20,1,$1+$1,$2,$3,$4,$5,0*
20,1,$1+$1,$4,$5,$6,$7,0*
20,1,$1+$1,$6,$7,$8,$9,0*
20,1,$1+$1,$8,$9,$2,$3,0*%
G04 Aperture macros list end*
%ADD10R,3.000000X3.000000*%
%ADD11C,3.000000*%
%ADD12R,1.700000X1.700000*%
%ADD13C,1.700000*%
%ADD14RoundRect,0.165000X-0.385000X-0.885000X0.385000X-0.885000X0.385000X0.885000X-0.385000X0.885000X0*%
%ADD15RoundRect,0.315000X-0.735000X-0.735000X0.735000X-0.735000X0.735000X0.735000X-0.735000X0.735000X0*%
%ADD16RoundRect,0.165000X0.385000X0.885000X-0.385000X0.885000X-0.385000X-0.885000X0.385000X-0.885000X0*%
%ADD17RoundRect,0.315000X0.735000X0.735000X-0.735000X0.735000X-0.735000X-0.735000X0.735000X-0.735000X0*%
%ADD18RoundRect,0.250000X-0.400000X-0.625000X0.400000X-0.625000X0.400000X0.625000X-0.400000X0.625000X0*%
%ADD19R,1.500000X1.500000*%
G04 APERTURE END LIST*
D10*
%TO.C,J7*%
X91915000Y-121825000D03*
D11*
X86835000Y-121825000D03*
%TD*%
D12*
%TO.C,J4*%
X187110000Y-105750000D03*
D13*
X189650000Y-105750000D03*
X192190000Y-105750000D03*
%TD*%
D12*
%TO.C,J3*%
X214725000Y-83825000D03*
D13*
X214725000Y-81285000D03*
X212185000Y-83825000D03*
X212185000Y-81285000D03*
X209645000Y-83825000D03*
X209645000Y-81285000D03*
X207105000Y-83825000D03*
X207105000Y-81285000D03*
X204565000Y-83825000D03*
X204565000Y-81285000D03*
X202025000Y-83825000D03*
X202025000Y-81285000D03*
X199485000Y-83825000D03*
X199485000Y-81285000D03*
X196945000Y-83825000D03*
X196945000Y-81285000D03*
X194405000Y-83825000D03*
X194405000Y-81285000D03*
X191865000Y-83825000D03*
X191865000Y-81285000D03*
X189325000Y-83825000D03*
X189325000Y-81285000D03*
X186785000Y-83825000D03*
X186785000Y-81285000D03*
X184245000Y-83825000D03*
X184245000Y-81285000D03*
X181705000Y-83825000D03*
X181705000Y-81285000D03*
X179165000Y-83825000D03*
X179165000Y-81285000D03*
X176625000Y-83825000D03*
X176625000Y-81285000D03*
X174085000Y-83825000D03*
X174085000Y-81285000D03*
X171545000Y-83825000D03*
X171545000Y-81285000D03*
X169005000Y-83825000D03*
X169005000Y-81285000D03*
X166465000Y-83825000D03*
X166465000Y-81285000D03*
%TD*%
D14*
%TO.C,D2*%
X112820000Y-84500000D03*
D15*
X114970000Y-84500000D03*
%TD*%
D16*
%TO.C,D5*%
X147875000Y-84675000D03*
D17*
X145725000Y-84675000D03*
%TD*%
D18*
%TO.C,R1*%
X105100000Y-84900000D03*
X108200000Y-84900000D03*
%TD*%
%TO.C,R8*%
X138900000Y-121200000D03*
X142000000Y-121200000D03*
%TD*%
D14*
%TO.C,D20*%
X188285000Y-119725000D03*
D15*
X190435000Y-119725000D03*
%TD*%
D14*
%TO.C,D3*%
X126185000Y-84400000D03*
D15*
X128335000Y-84400000D03*
%TD*%
D18*
%TO.C,R3*%
X189333400Y-97100000D03*
X192433400Y-97100000D03*
%TD*%
D14*
%TO.C,D7*%
X138885000Y-98100000D03*
D15*
X141035000Y-98100000D03*
%TD*%
D14*
%TO.C,D18*%
X169885000Y-108600000D03*
D15*
X172035000Y-108600000D03*
%TD*%
D14*
%TO.C,D15*%
X127620000Y-121900000D03*
D15*
X129770000Y-121900000D03*
%TD*%
D14*
%TO.C,D23*%
X103620000Y-118500000D03*
D15*
X105770000Y-118500000D03*
%TD*%
D19*
%TO.C,KR1*%
X130350000Y-100350000D03*
X130350000Y-102890000D03*
X130350000Y-105430000D03*
X130350000Y-107970000D03*
X114650000Y-104850000D03*
X114650000Y-107390000D03*
%TD*%
D14*
%TO.C,D12*%
X200520000Y-97100000D03*
D15*
X202670000Y-97100000D03*
%TD*%
D18*
%TO.C,R4*%
X202100000Y-119800000D03*
X205200000Y-119800000D03*
%TD*%
D14*
%TO.C,D24*%
X147485000Y-120800000D03*
D15*
X149635000Y-120800000D03*
%TD*%
D14*
%TO.C,D13*%
X104020000Y-105400000D03*
D15*
X106170000Y-105400000D03*
%TD*%
D12*
%TO.C,J2*%
X154625000Y-105800000D03*
D13*
X157165000Y-105800000D03*
%TD*%
D14*
%TO.C,D8*%
X166520000Y-98000000D03*
D15*
X168670000Y-98000000D03*
%TD*%
D14*
%TO.C,D21*%
X202120000Y-111200000D03*
D15*
X204270000Y-111200000D03*
%TD*%
D14*
%TO.C,D4*%
X134420000Y-89300000D03*
D15*
X136570000Y-89300000D03*
%TD*%
D14*
%TO.C,D19*%
X176785000Y-118500000D03*
D15*
X178935000Y-118500000D03*
%TD*%
D14*
%TO.C,D22*%
X153748800Y-96600000D03*
D15*
X155898800Y-96600000D03*
%TD*%
D14*
%TO.C,D17*%
X161785000Y-120000000D03*
D15*
X163935000Y-120000000D03*
%TD*%
D14*
%TO.C,D16*%
X138285000Y-112100000D03*
D15*
X140435000Y-112100000D03*
%TD*%
D16*
%TO.C,D6*%
X168525000Y-87150000D03*
D17*
X166375000Y-87150000D03*
%TD*%
D14*
%TO.C,D14*%
X113420000Y-121900000D03*
D15*
X115570000Y-121900000D03*
%TD*%
D14*
%TO.C,D11*%
X195810000Y-87350000D03*
D15*
X197960000Y-87350000D03*
%TD*%
D14*
%TO.C,D10*%
X182635000Y-87550000D03*
D15*
X184785000Y-87550000D03*
%TD*%
D18*
%TO.C,R6*%
X170400000Y-118900000D03*
X173500000Y-118900000D03*
%TD*%
%TO.C,R5*%
X121700000Y-122000000D03*
X124800000Y-122000000D03*
%TD*%
%TO.C,R7*%
X206450000Y-103800000D03*
X209550000Y-103800000D03*
%TD*%
D14*
%TO.C,D9*%
X178885000Y-97600000D03*
D15*
X181035000Y-97600000D03*
%TD*%
D18*
%TO.C,R2*%
X173725000Y-88700000D03*
X176825000Y-88700000D03*
%TD*%
D14*
%TO.C,D1*%
X104385000Y-92700000D03*
D15*
X106535000Y-92700000D03*
%TD*%
D10*
%TO.C,J1*%
X86820000Y-82600000D03*
D11*
X91900000Y-82600000D03*
%TD*%
M02*
