%TF.GenerationSoftware,KiCad,Pcbnew,9.0.2*%
%TF.CreationDate,2025-07-01T15:23:45+02:00*%
%TF.ProjectId,pa-cockpit_door_video,70612d63-6f63-46b7-9069-745f646f6f72,rev?*%
%TF.SameCoordinates,Original*%
%TF.FileFunction,Copper,L1,Top*%
%TF.FilePolarity,Positive*%
%FSLAX46Y46*%
G04 Gerber Fmt 4.6, Leading zero omitted, Abs format (unit mm)*
G04 Created by KiCad (PCBNEW 9.0.2) date 2025-07-01 15:23:45*
%MOMM*%
%LPD*%
G01*
G04 APERTURE LIST*
G04 Aperture macros list*
%AMRoundRect*
0 Rectangle with rounded corners*
0 $1 Rounding radius*
0 $2 $3 $4 $5 $6 $7 $8 $9 X,Y pos of 4 corners*
0 Add a 4 corners polygon primitive as box body*
4,1,4,$2,$3,$4,$5,$6,$7,$8,$9,$2,$3,0*
0 Add four circle primitives for the rounded corners*
1,1,$1+$1,$2,$3*
1,1,$1+$1,$4,$5*
1,1,$1+$1,$6,$7*
1,1,$1+$1,$8,$9*
0 Add four rect primitives between the rounded corners*
20,1,$1+$1,$2,$3,$4,$5,0*
20,1,$1+$1,$4,$5,$6,$7,0*
20,1,$1+$1,$6,$7,$8,$9,0*
20,1,$1+$1,$8,$9,$2,$3,0*%
G04 Aperture macros list end*
%TA.AperFunction,ComponentPad*%
%ADD10R,1.700000X1.700000*%
%TD*%
%TA.AperFunction,ComponentPad*%
%ADD11C,1.700000*%
%TD*%
%TA.AperFunction,ComponentPad*%
%ADD12R,3.000000X3.000000*%
%TD*%
%TA.AperFunction,ComponentPad*%
%ADD13C,3.000000*%
%TD*%
%TA.AperFunction,SMDPad,CuDef*%
%ADD14RoundRect,0.250000X-0.400000X-0.625000X0.400000X-0.625000X0.400000X0.625000X-0.400000X0.625000X0*%
%TD*%
%TA.AperFunction,SMDPad,CuDef*%
%ADD15RoundRect,0.165000X-0.385000X-0.885000X0.385000X-0.885000X0.385000X0.885000X-0.385000X0.885000X0*%
%TD*%
%TA.AperFunction,SMDPad,CuDef*%
%ADD16RoundRect,0.315000X-0.735000X-0.735000X0.735000X-0.735000X0.735000X0.735000X-0.735000X0.735000X0*%
%TD*%
%TA.AperFunction,ComponentPad*%
%ADD17R,1.500000X1.500000*%
%TD*%
%TA.AperFunction,ViaPad*%
%ADD18C,0.600000*%
%TD*%
%TA.AperFunction,Conductor*%
%ADD19C,0.400000*%
%TD*%
%TA.AperFunction,Conductor*%
%ADD20C,0.600000*%
%TD*%
G04 APERTURE END LIST*
D10*
%TO.P,J3,1,Pin_1*%
%TO.N,Net-(J3-Pin_1)*%
X212425000Y-75475000D03*
D11*
%TO.P,J3,2,Pin_2*%
%TO.N,Net-(J3-Pin_2)*%
X212425000Y-72935000D03*
%TO.P,J3,3,Pin_3*%
%TO.N,Net-(J3-Pin_3)*%
X209885000Y-75475000D03*
%TO.P,J3,4,Pin_4*%
%TO.N,Net-(J3-Pin_4)*%
X209885000Y-72935000D03*
%TO.P,J3,5,Pin_5*%
%TO.N,Net-(J3-Pin_5)*%
X207345000Y-75475000D03*
%TO.P,J3,6,Pin_6*%
%TO.N,Net-(J3-Pin_6)*%
X207345000Y-72935000D03*
%TO.P,J3,7,Pin_7*%
%TO.N,unconnected-(J3-Pin_7-Pad7)*%
X204805000Y-75475000D03*
%TO.P,J3,8,Pin_8*%
%TO.N,unconnected-(J3-Pin_8-Pad8)*%
X204805000Y-72935000D03*
%TO.P,J3,9,Pin_9*%
%TO.N,unconnected-(J3-Pin_9-Pad9)*%
X202265000Y-75475000D03*
%TO.P,J3,10,Pin_10*%
%TO.N,unconnected-(J3-Pin_10-Pad10)*%
X202265000Y-72935000D03*
%TO.P,J3,11,Pin_11*%
%TO.N,unconnected-(J3-Pin_11-Pad11)*%
X199725000Y-75475000D03*
%TO.P,J3,12,Pin_12*%
%TO.N,unconnected-(J3-Pin_12-Pad12)*%
X199725000Y-72935000D03*
%TO.P,J3,13,Pin_13*%
%TO.N,unconnected-(J3-Pin_13-Pad13)*%
X197185000Y-75475000D03*
%TO.P,J3,14,Pin_14*%
%TO.N,unconnected-(J3-Pin_14-Pad14)*%
X197185000Y-72935000D03*
%TO.P,J3,15,Pin_15*%
%TO.N,unconnected-(J3-Pin_15-Pad15)*%
X194645000Y-75475000D03*
%TO.P,J3,16,Pin_16*%
%TO.N,unconnected-(J3-Pin_16-Pad16)*%
X194645000Y-72935000D03*
%TO.P,J3,17,Pin_17*%
%TO.N,unconnected-(J3-Pin_17-Pad17)*%
X192105000Y-75475000D03*
%TO.P,J3,18,Pin_18*%
%TO.N,unconnected-(J3-Pin_18-Pad18)*%
X192105000Y-72935000D03*
%TO.P,J3,19,Pin_19*%
%TO.N,unconnected-(J3-Pin_19-Pad19)*%
X189565000Y-75475000D03*
%TO.P,J3,20,Pin_20*%
%TO.N,unconnected-(J3-Pin_20-Pad20)*%
X189565000Y-72935000D03*
%TO.P,J3,21,Pin_21*%
%TO.N,unconnected-(J3-Pin_21-Pad21)*%
X187025000Y-75475000D03*
%TO.P,J3,22,Pin_22*%
%TO.N,unconnected-(J3-Pin_22-Pad22)*%
X187025000Y-72935000D03*
%TO.P,J3,23,Pin_23*%
%TO.N,unconnected-(J3-Pin_23-Pad23)*%
X184485000Y-75475000D03*
%TO.P,J3,24,Pin_24*%
%TO.N,unconnected-(J3-Pin_24-Pad24)*%
X184485000Y-72935000D03*
%TO.P,J3,25,Pin_25*%
%TO.N,unconnected-(J3-Pin_25-Pad25)*%
X181945000Y-75475000D03*
%TO.P,J3,26,Pin_26*%
%TO.N,unconnected-(J3-Pin_26-Pad26)*%
X181945000Y-72935000D03*
%TO.P,J3,27,Pin_27*%
%TO.N,unconnected-(J3-Pin_27-Pad27)*%
X179405000Y-75475000D03*
%TO.P,J3,28,Pin_28*%
%TO.N,unconnected-(J3-Pin_28-Pad28)*%
X179405000Y-72935000D03*
%TO.P,J3,29,Pin_29*%
%TO.N,unconnected-(J3-Pin_29-Pad29)*%
X176865000Y-75475000D03*
%TO.P,J3,30,Pin_30*%
%TO.N,unconnected-(J3-Pin_30-Pad30)*%
X176865000Y-72935000D03*
%TO.P,J3,31,Pin_31*%
%TO.N,unconnected-(J3-Pin_31-Pad31)*%
X174325000Y-75475000D03*
%TO.P,J3,32,Pin_32*%
%TO.N,unconnected-(J3-Pin_32-Pad32)*%
X174325000Y-72935000D03*
%TO.P,J3,33,Pin_33*%
%TO.N,unconnected-(J3-Pin_33-Pad33)*%
X171785000Y-75475000D03*
%TO.P,J3,34,Pin_34*%
%TO.N,unconnected-(J3-Pin_34-Pad34)*%
X171785000Y-72935000D03*
%TO.P,J3,35,Pin_35*%
%TO.N,unconnected-(J3-Pin_35-Pad35)*%
X169245000Y-75475000D03*
%TO.P,J3,36,Pin_36*%
%TO.N,unconnected-(J3-Pin_36-Pad36)*%
X169245000Y-72935000D03*
%TO.P,J3,37,Pin_37*%
%TO.N,unconnected-(J3-Pin_37-Pad37)*%
X166705000Y-75475000D03*
%TO.P,J3,38,Pin_38*%
%TO.N,unconnected-(J3-Pin_38-Pad38)*%
X166705000Y-72935000D03*
%TO.P,J3,39,Pin_39*%
%TO.N,unconnected-(J3-Pin_39-Pad39)*%
X164165000Y-75475000D03*
%TO.P,J3,40,Pin_40*%
%TO.N,unconnected-(J3-Pin_40-Pad40)*%
X164165000Y-72935000D03*
%TD*%
D12*
%TO.P,J2,1,Pin_1*%
%TO.N,GND*%
X89650000Y-113575000D03*
D13*
%TO.P,J2,2,Pin_2*%
%TO.N,+12V*%
X84570000Y-113575000D03*
%TD*%
D14*
%TO.P,R1,1*%
%TO.N,Net-(D3-K)*%
X143650000Y-83300000D03*
%TO.P,R1,2*%
%TO.N,GND*%
X146750000Y-83300000D03*
%TD*%
D15*
%TO.P,D9,1,K*%
%TO.N,Net-(D9-K)*%
X175060000Y-79700000D03*
D16*
%TO.P,D9,2,A*%
%TO.N,Net-(D8-K)*%
X177210000Y-79700000D03*
%TD*%
D15*
%TO.P,D17,1,K*%
%TO.N,Net-(D17-K)*%
X200660000Y-79200000D03*
D16*
%TO.P,D17,2,A*%
%TO.N,Net-(D16-K)*%
X202810000Y-79200000D03*
%TD*%
D14*
%TO.P,R6,1*%
%TO.N,Net-(D18-K)*%
X164150000Y-88200000D03*
%TO.P,R6,2*%
%TO.N,GND*%
X167250000Y-88200000D03*
%TD*%
D17*
%TO.P,KR2,1,+5V_TOP_LED*%
%TO.N,Net-(J3-Pin_4)*%
X196600000Y-94600000D03*
%TO.P,KR2,2,GND_TOP_LED*%
%TO.N,GND*%
X196600000Y-97140000D03*
%TO.P,KR2,3,+5V_BOTTOM_LED*%
%TO.N,Net-(J3-Pin_5)*%
X196600000Y-99680000D03*
%TO.P,KR2,4,GND_BOTTOM_LED*%
%TO.N,GND*%
X196600000Y-102220000D03*
%TO.P,KR2,5,SW_IN*%
%TO.N,Net-(J3-Pin_6)*%
X180900000Y-99100000D03*
%TO.P,KR2,6,SW_OUT*%
%TO.N,GND*%
X180900000Y-101640000D03*
%TD*%
D15*
%TO.P,D16,1,K*%
%TO.N,Net-(D16-K)*%
X156125000Y-99725000D03*
D16*
%TO.P,D16,2,A*%
%TO.N,+12V*%
X158275000Y-99725000D03*
%TD*%
D15*
%TO.P,D2,1,K*%
%TO.N,Net-(D2-K)*%
X117885000Y-83200000D03*
D16*
%TO.P,D2,2,A*%
%TO.N,Net-(D1-K)*%
X120035000Y-83200000D03*
%TD*%
D14*
%TO.P,R4,1*%
%TO.N,Net-(D12-K)*%
X164250000Y-106500000D03*
%TO.P,R4,2*%
%TO.N,GND*%
X167350000Y-106500000D03*
%TD*%
D15*
%TO.P,D12,1,K*%
%TO.N,Net-(D12-K)*%
X171160000Y-108300000D03*
D16*
%TO.P,D12,2,A*%
%TO.N,Net-(D11-K)*%
X173310000Y-108300000D03*
%TD*%
D14*
%TO.P,R2,1*%
%TO.N,Net-(D6-K)*%
X142400000Y-114500000D03*
%TO.P,R2,2*%
%TO.N,GND*%
X145500000Y-114500000D03*
%TD*%
D15*
%TO.P,D10,1,K*%
%TO.N,Net-(D10-K)*%
X202760000Y-92000000D03*
D16*
%TO.P,D10,2,A*%
%TO.N,+12V*%
X204910000Y-92000000D03*
%TD*%
D15*
%TO.P,D6,1,K*%
%TO.N,Net-(D6-K)*%
X120385000Y-114000000D03*
D16*
%TO.P,D6,2,A*%
%TO.N,Net-(D5-K)*%
X122535000Y-114000000D03*
%TD*%
D15*
%TO.P,D5,1,K*%
%TO.N,Net-(D5-K)*%
X110260000Y-107200000D03*
D16*
%TO.P,D5,2,A*%
%TO.N,Net-(D4-K)*%
X112410000Y-107200000D03*
%TD*%
D15*
%TO.P,D7,1,K*%
%TO.N,Net-(D7-K)*%
X141760000Y-106900000D03*
D16*
%TO.P,D7,2,A*%
%TO.N,+12V*%
X143910000Y-106900000D03*
%TD*%
D15*
%TO.P,D1,1,K*%
%TO.N,Net-(D1-K)*%
X110260000Y-91600000D03*
D16*
%TO.P,D1,2,A*%
%TO.N,+12V*%
X112410000Y-91600000D03*
%TD*%
D15*
%TO.P,D3,1,K*%
%TO.N,Net-(D3-K)*%
X133685000Y-83200000D03*
D16*
%TO.P,D3,2,A*%
%TO.N,Net-(D2-K)*%
X135835000Y-83200000D03*
%TD*%
D15*
%TO.P,D18,1,K*%
%TO.N,Net-(D18-K)*%
X187760000Y-92100000D03*
D16*
%TO.P,D18,2,A*%
%TO.N,Net-(D17-K)*%
X189910000Y-92100000D03*
%TD*%
D15*
%TO.P,D14,1,K*%
%TO.N,Net-(D14-K)*%
X195050000Y-114300000D03*
D16*
%TO.P,D14,2,A*%
%TO.N,Net-(D13-K)*%
X197200000Y-114300000D03*
%TD*%
D15*
%TO.P,D13,1,K*%
%TO.N,Net-(D13-K)*%
X181250000Y-114200000D03*
D16*
%TO.P,D13,2,A*%
%TO.N,+12V*%
X183400000Y-114200000D03*
%TD*%
D17*
%TO.P,KR1,1,+5V_TOP_LED*%
%TO.N,Net-(J3-Pin_1)*%
X135150000Y-94350000D03*
%TO.P,KR1,2,GND_TOP_LED*%
%TO.N,GND*%
X135150000Y-96890000D03*
%TO.P,KR1,3,+5V_BOTTOM_LED*%
%TO.N,Net-(J3-Pin_2)*%
X135150000Y-99430000D03*
%TO.P,KR1,4,GND_BOTTOM_LED*%
%TO.N,GND*%
X135150000Y-101970000D03*
%TO.P,KR1,5,SW_IN*%
%TO.N,Net-(J3-Pin_3)*%
X119450000Y-98850000D03*
%TO.P,KR1,6,SW_OUT*%
%TO.N,GND*%
X119450000Y-101390000D03*
%TD*%
D15*
%TO.P,D11,1,K*%
%TO.N,Net-(D11-K)*%
X170960000Y-91900000D03*
D16*
%TO.P,D11,2,A*%
%TO.N,Net-(D10-K)*%
X173110000Y-91900000D03*
%TD*%
D14*
%TO.P,R5,1*%
%TO.N,Net-(D15-K)*%
X202950000Y-99700000D03*
%TO.P,R5,2*%
%TO.N,GND*%
X206050000Y-99700000D03*
%TD*%
D15*
%TO.P,D4,1,K*%
%TO.N,Net-(D4-K)*%
X142160000Y-91800000D03*
D16*
%TO.P,D4,2,A*%
%TO.N,+12V*%
X144310000Y-91800000D03*
%TD*%
D15*
%TO.P,D15,1,K*%
%TO.N,Net-(D15-K)*%
X202560000Y-108300000D03*
D16*
%TO.P,D15,2,A*%
%TO.N,Net-(D14-K)*%
X204710000Y-108300000D03*
%TD*%
D15*
%TO.P,D8,1,K*%
%TO.N,Net-(D8-K)*%
X131085000Y-114300000D03*
D16*
%TO.P,D8,2,A*%
%TO.N,Net-(D7-K)*%
X133235000Y-114300000D03*
%TD*%
D14*
%TO.P,R3,1*%
%TO.N,Net-(D9-K)*%
X166400000Y-79700000D03*
%TO.P,R3,2*%
%TO.N,GND*%
X169500000Y-79700000D03*
%TD*%
D12*
%TO.P,J1,1,Pin_1*%
%TO.N,GND*%
X84620000Y-74400000D03*
D13*
%TO.P,J1,2,Pin_2*%
%TO.N,+12V*%
X89700000Y-74400000D03*
%TD*%
D18*
%TO.N,Net-(D17-K)*%
X198965700Y-80590000D03*
X196340300Y-92415400D03*
%TO.N,Net-(D16-K)*%
X154854100Y-84271600D03*
X154473400Y-98991900D03*
%TO.N,Net-(J3-Pin_1)*%
X204912500Y-95751700D03*
%TO.N,Net-(J3-Pin_2)*%
X199477400Y-98576600D03*
%TO.N,Net-(J3-Pin_3)*%
X119294500Y-77621200D03*
%TO.N,GND*%
X140037600Y-86527600D03*
X137132100Y-113304600D03*
X172633900Y-88645400D03*
X116331200Y-113246800D03*
%TO.N,Net-(D15-K)*%
X199303600Y-104340400D03*
X201542100Y-99429200D03*
%TO.N,Net-(D11-K)*%
X181523800Y-107309200D03*
X169299200Y-92465200D03*
%TO.N,Net-(D8-K)*%
X134111000Y-80590000D03*
X128184400Y-113246800D03*
%TO.N,Net-(D4-K)*%
X119294500Y-104340400D03*
X122257800Y-91140400D03*
%TO.N,+12V*%
X154473400Y-103638000D03*
X151890800Y-94750600D03*
X84570000Y-95434000D03*
X201244300Y-107953800D03*
X207800600Y-92069600D03*
%TD*%
D19*
%TO.N,Net-(D18-K)*%
X185138900Y-89478900D02*
X187760000Y-92100000D01*
X165428900Y-89478900D02*
X185138900Y-89478900D01*
X164150000Y-88200000D02*
X165428900Y-89478900D01*
%TO.N,Net-(D17-K)*%
X199270000Y-80590000D02*
X198965700Y-80590000D01*
X200660000Y-79200000D02*
X199270000Y-80590000D01*
X190225400Y-92415400D02*
X189910000Y-92100000D01*
X196340300Y-92415400D02*
X190225400Y-92415400D01*
%TO.N,Net-(D16-K)*%
X197738400Y-84271600D02*
X154854100Y-84271600D01*
X202810000Y-79200000D02*
X197738400Y-84271600D01*
X155391900Y-98991900D02*
X156125000Y-99725000D01*
X154473400Y-98991900D02*
X155391900Y-98991900D01*
%TO.N,Net-(J3-Pin_1)*%
X137703400Y-95751700D02*
X204912500Y-95751700D01*
X136301700Y-94350000D02*
X137703400Y-95751700D01*
X135150000Y-94350000D02*
X136301700Y-94350000D01*
%TO.N,Net-(J3-Pin_2)*%
X137835000Y-97896700D02*
X136301700Y-99430000D01*
X188729400Y-97896700D02*
X137835000Y-97896700D01*
X189256500Y-98423800D02*
X188729400Y-97896700D01*
X199324600Y-98423800D02*
X189256500Y-98423800D01*
X199477400Y-98576600D02*
X199324600Y-98423800D01*
X135150000Y-99430000D02*
X136301700Y-99430000D01*
%TO.N,Net-(J3-Pin_3)*%
X208615000Y-74205000D02*
X209885000Y-75475000D01*
X122710700Y-74205000D02*
X208615000Y-74205000D01*
X119294500Y-77621200D02*
X122710700Y-74205000D01*
%TO.N,GND*%
X194868300Y-101640000D02*
X195448300Y-102220000D01*
X180900000Y-101640000D02*
X194868300Y-101640000D01*
X196024200Y-102220000D02*
X195448300Y-102220000D01*
X196024200Y-102220000D02*
X196600000Y-102220000D01*
X203530000Y-102220000D02*
X206050000Y-99700000D01*
X196600000Y-102220000D02*
X203530000Y-102220000D01*
X119450000Y-101390000D02*
X120601700Y-101390000D01*
X121181700Y-101970000D02*
X135150000Y-101970000D01*
X120601700Y-101390000D02*
X121181700Y-101970000D01*
X180900000Y-101640000D02*
X179748300Y-101640000D01*
X174888300Y-106500000D02*
X167350000Y-106500000D01*
X179748300Y-101640000D02*
X174888300Y-106500000D01*
X165900000Y-83300000D02*
X153868400Y-83300000D01*
X169500000Y-79700000D02*
X165900000Y-83300000D01*
X153868400Y-83300000D02*
X146750000Y-83300000D01*
X164357500Y-85307500D02*
X153868400Y-85307500D01*
X167250000Y-88200000D02*
X164357500Y-85307500D01*
X153868400Y-85307500D02*
X153868400Y-83300000D01*
X141257700Y-85307500D02*
X140037600Y-86527600D01*
X153868400Y-85307500D02*
X141257700Y-85307500D01*
X137231900Y-113204800D02*
X137132100Y-113304600D01*
X144204800Y-113204800D02*
X137231900Y-113204800D01*
X145500000Y-114500000D02*
X144204800Y-113204800D01*
X167695400Y-88645400D02*
X167250000Y-88200000D01*
X172633900Y-88645400D02*
X167695400Y-88645400D01*
X116003000Y-113575000D02*
X89650000Y-113575000D01*
X116331200Y-113246800D02*
X116003000Y-113575000D01*
%TO.N,Net-(D15-K)*%
X202679200Y-99429200D02*
X202950000Y-99700000D01*
X201542100Y-99429200D02*
X202679200Y-99429200D01*
X202560000Y-107596800D02*
X199303600Y-104340400D01*
X202560000Y-108300000D02*
X202560000Y-107596800D01*
%TO.N,Net-(D14-K)*%
X195050000Y-113892700D02*
X195050000Y-114300000D01*
X197248400Y-111694300D02*
X195050000Y-113892700D01*
X201315700Y-111694300D02*
X197248400Y-111694300D01*
X204710000Y-108300000D02*
X201315700Y-111694300D01*
%TO.N,Net-(D13-K)*%
X181250000Y-114633700D02*
X181250000Y-114200000D01*
X182387900Y-115771600D02*
X181250000Y-114633700D01*
X195728400Y-115771600D02*
X182387900Y-115771600D01*
X197200000Y-114300000D02*
X195728400Y-115771600D01*
%TO.N,Net-(D12-K)*%
X166050000Y-108300000D02*
X171160000Y-108300000D01*
X164250000Y-106500000D02*
X166050000Y-108300000D01*
%TO.N,Net-(D11-K)*%
X174300800Y-107309200D02*
X181523800Y-107309200D01*
X173310000Y-108300000D02*
X174300800Y-107309200D01*
X170394800Y-92465200D02*
X170960000Y-91900000D01*
X169299200Y-92465200D02*
X170394800Y-92465200D01*
%TO.N,Net-(D10-K)*%
X201394400Y-93365600D02*
X202760000Y-92000000D01*
X192558600Y-93365600D02*
X201394400Y-93365600D01*
X192309600Y-93614600D02*
X192558600Y-93365600D01*
X174824600Y-93614600D02*
X192309600Y-93614600D01*
X173110000Y-91900000D02*
X174824600Y-93614600D01*
%TO.N,Net-(D9-K)*%
X174184800Y-78824800D02*
X175060000Y-79700000D01*
X170572600Y-78824800D02*
X174184800Y-78824800D01*
X170572600Y-78824700D02*
X170572600Y-78824800D01*
X170122500Y-78374600D02*
X170572600Y-78824700D01*
X167725400Y-78374600D02*
X170122500Y-78374600D01*
X166400000Y-79700000D02*
X167725400Y-78374600D01*
%TO.N,Net-(D8-K)*%
X130031800Y-113246800D02*
X131085000Y-114300000D01*
X128184400Y-113246800D02*
X130031800Y-113246800D01*
X136990000Y-77711000D02*
X134111000Y-80590000D01*
X175221000Y-77711000D02*
X136990000Y-77711000D01*
X177210000Y-79700000D02*
X175221000Y-77711000D01*
%TO.N,Net-(D7-K)*%
X140635000Y-106900000D02*
X133235000Y-114300000D01*
X141760000Y-106900000D02*
X140635000Y-106900000D01*
%TO.N,Net-(D6-K)*%
X141090400Y-115809600D02*
X142400000Y-114500000D01*
X121758400Y-115809600D02*
X141090400Y-115809600D01*
X120385000Y-114436200D02*
X121758400Y-115809600D01*
X120385000Y-114000000D02*
X120385000Y-114436200D01*
%TO.N,Net-(D5-K)*%
X119623700Y-111088700D02*
X122535000Y-114000000D01*
X113745100Y-111088700D02*
X119623700Y-111088700D01*
X110260000Y-107603600D02*
X113745100Y-111088700D01*
X110260000Y-107200000D02*
X110260000Y-107603600D01*
%TO.N,Net-(D4-K)*%
X116434900Y-107200000D02*
X119294500Y-104340400D01*
X112410000Y-107200000D02*
X116434900Y-107200000D01*
X141500400Y-91140400D02*
X142160000Y-91800000D01*
X122257800Y-91140400D02*
X141500400Y-91140400D01*
%TO.N,Net-(D3-K)*%
X133685000Y-83603600D02*
X133685000Y-83200000D01*
X134788700Y-84707300D02*
X133685000Y-83603600D01*
X140958600Y-84707300D02*
X134788700Y-84707300D01*
X142365900Y-83300000D02*
X140958600Y-84707300D01*
X143650000Y-83300000D02*
X142365900Y-83300000D01*
%TO.N,Net-(D2-K)*%
X134379500Y-81744500D02*
X135835000Y-83200000D01*
X119011200Y-81744500D02*
X134379500Y-81744500D01*
X117885000Y-82870700D02*
X119011200Y-81744500D01*
X117885000Y-83200000D02*
X117885000Y-82870700D01*
D20*
%TO.N,+12V*%
X158275000Y-99836400D02*
X158275000Y-99725000D01*
X154473400Y-103638000D02*
X158275000Y-99836400D01*
X147138200Y-94750600D02*
X144310000Y-91922400D01*
X151890800Y-94750600D02*
X147138200Y-94750600D01*
X144310000Y-91800000D02*
X144310000Y-91922400D01*
X142878500Y-93353900D02*
X144310000Y-91922400D01*
X136363500Y-93353900D02*
X142878500Y-93353900D01*
X134951700Y-91942100D02*
X136363500Y-93353900D01*
X112752100Y-91942100D02*
X134951700Y-91942100D01*
X112410000Y-91600000D02*
X112752100Y-91942100D01*
X151211400Y-106900000D02*
X154473400Y-103638000D01*
X143910000Y-106900000D02*
X151211400Y-106900000D01*
X112410000Y-91725500D02*
X112410000Y-91600000D01*
X108701500Y-95434000D02*
X112410000Y-91725500D01*
X84570000Y-95434000D02*
X108701500Y-95434000D01*
X161239400Y-110404000D02*
X183400000Y-110404000D01*
X154473400Y-103638000D02*
X161239400Y-110404000D01*
X204979600Y-92069600D02*
X204910000Y-92000000D01*
X207800600Y-92069600D02*
X204979600Y-92069600D01*
X183400000Y-114200000D02*
X183400000Y-110404000D01*
X198794100Y-110404000D02*
X201244300Y-107953800D01*
X183400000Y-110404000D02*
X198794100Y-110404000D01*
D19*
%TO.N,Net-(D1-K)*%
X113328700Y-89906300D02*
X120035000Y-83200000D01*
X111550100Y-89906300D02*
X113328700Y-89906300D01*
X110260000Y-91196400D02*
X111550100Y-89906300D01*
X110260000Y-91600000D02*
X110260000Y-91196400D01*
%TD*%
M02*
