%TF.GenerationSoftware,KiCad,Pcbnew,9.0.2*%
%TF.CreationDate,2025-07-01T15:23:45+02:00*%
%TF.ProjectId,pa-cockpit_door_video,70612d63-6f63-46b7-9069-745f646f6f72,rev?*%
%TF.SameCoordinates,Original*%
%TF.FileFunction,Soldermask,Bot*%
%TF.FilePolarity,Negative*%
%FSLAX46Y46*%
G04 Gerber Fmt 4.6, Leading zero omitted, Abs format (unit mm)*
G04 Created by KiCad (PCBNEW 9.0.2) date 2025-07-01 15:23:45*
%MOMM*%
%LPD*%
G01*
G04 APERTURE LIST*
%ADD10R,1.700000X1.700000*%
%ADD11C,1.700000*%
%ADD12R,3.000000X3.000000*%
%ADD13C,3.000000*%
%ADD14R,1.500000X1.500000*%
G04 APERTURE END LIST*
D10*
%TO.C,J3*%
X212425000Y-75475000D03*
D11*
X212425000Y-72935000D03*
X209885000Y-75475000D03*
X209885000Y-72935000D03*
X207345000Y-75475000D03*
X207345000Y-72935000D03*
X204805000Y-75475000D03*
X204805000Y-72935000D03*
X202265000Y-75475000D03*
X202265000Y-72935000D03*
X199725000Y-75475000D03*
X199725000Y-72935000D03*
X197185000Y-75475000D03*
X197185000Y-72935000D03*
X194645000Y-75475000D03*
X194645000Y-72935000D03*
X192105000Y-75475000D03*
X192105000Y-72935000D03*
X189565000Y-75475000D03*
X189565000Y-72935000D03*
X187025000Y-75475000D03*
X187025000Y-72935000D03*
X184485000Y-75475000D03*
X184485000Y-72935000D03*
X181945000Y-75475000D03*
X181945000Y-72935000D03*
X179405000Y-75475000D03*
X179405000Y-72935000D03*
X176865000Y-75475000D03*
X176865000Y-72935000D03*
X174325000Y-75475000D03*
X174325000Y-72935000D03*
X171785000Y-75475000D03*
X171785000Y-72935000D03*
X169245000Y-75475000D03*
X169245000Y-72935000D03*
X166705000Y-75475000D03*
X166705000Y-72935000D03*
X164165000Y-75475000D03*
X164165000Y-72935000D03*
%TD*%
D12*
%TO.C,J2*%
X89650000Y-113575000D03*
D13*
X84570000Y-113575000D03*
%TD*%
D14*
%TO.C,KR2*%
X196600000Y-94600000D03*
X196600000Y-97140000D03*
X196600000Y-99680000D03*
X196600000Y-102220000D03*
X180900000Y-99100000D03*
X180900000Y-101640000D03*
%TD*%
%TO.C,KR1*%
X135150000Y-94350000D03*
X135150000Y-96890000D03*
X135150000Y-99430000D03*
X135150000Y-101970000D03*
X119450000Y-98850000D03*
X119450000Y-101390000D03*
%TD*%
D12*
%TO.C,J1*%
X84620000Y-74400000D03*
D13*
X89700000Y-74400000D03*
%TD*%
M02*
