M48
; DRILL file {KiCad 9.0.2} date 2025-07-01T15:23:45+0200
; FORMAT={-:-/ absolute / inch / decimal}
; #@! TF.CreationDate,2025-07-01T15:23:45+02:00
; #@! TF.GenerationSoftware,Kicad,Pcbnew,9.0.2
; #@! TF.FileFunction,Plated,1,2,PTH
FMAT,2
INCH
; #@! TA.AperFunction,Plated,PTH,ViaDrill
T1C0.0118
; #@! TA.AperFunction,Plated,PTH,ComponentDrill
T2C0.0236
; #@! TA.AperFunction,Plated,PTH,ComponentDrill
T3C0.0394
; #@! TA.AperFunction,Plated,PTH,ComponentDrill
T4C0.0598
%
G90
G05
T1
X3.3295Y-3.7572
X4.58Y-4.4585
X4.6966Y-3.056
X4.6966Y-4.1079
X4.8133Y-3.5882
X5.0466Y-4.4585
X5.28Y-3.1728
X5.3989Y-4.4608
X5.5133Y-3.4066
X5.98Y-3.7303
X6.0816Y-3.8973
X6.0816Y-4.0802
X6.0966Y-3.3178
X6.6653Y-3.6404
X6.7966Y-3.49
X7.1466Y-4.2248
X7.7299Y-3.6384
X7.8333Y-3.1728
X7.8466Y-4.1079
X7.8534Y-3.881
X7.923Y-4.2501
X7.9347Y-3.9145
X8.0674Y-3.7698
X8.1811Y-3.6248
T2
X4.7028Y-3.8917
X4.7028Y-3.9917
X5.3209Y-3.7146
X5.3209Y-3.8146
X5.3209Y-3.9146
X5.3209Y-4.0146
X7.122Y-3.9016
X7.122Y-4.0016
X7.7402Y-3.7244
X7.7402Y-3.8244
X7.7402Y-3.9244
X7.7402Y-4.0244
T3
X6.4632Y-2.8715
X6.4632Y-2.9715
X6.5632Y-2.8715
X6.5632Y-2.9715
X6.6632Y-2.8715
X6.6632Y-2.9715
X6.7632Y-2.8715
X6.7632Y-2.9715
X6.8632Y-2.8715
X6.8632Y-2.9715
X6.9632Y-2.8715
X6.9632Y-2.9715
X7.0632Y-2.8715
X7.0632Y-2.9715
X7.1632Y-2.8715
X7.1632Y-2.9715
X7.2632Y-2.8715
X7.2632Y-2.9715
X7.3632Y-2.8715
X7.3632Y-2.9715
X7.4632Y-2.8715
X7.4632Y-2.9715
X7.5632Y-2.8715
X7.5632Y-2.9715
X7.6632Y-2.8715
X7.6632Y-2.9715
X7.7632Y-2.8715
X7.7632Y-2.9715
X7.8632Y-2.8715
X7.8632Y-2.9715
X7.9632Y-2.8715
X7.9632Y-2.9715
X8.0632Y-2.8715
X8.0632Y-2.9715
X8.1632Y-2.8715
X8.1632Y-2.9715
X8.2632Y-2.8715
X8.2632Y-2.9715
X8.3632Y-2.8715
X8.3632Y-2.9715
T4
X3.3295Y-4.4715
X3.3315Y-2.9291
X3.5295Y-4.4715
X3.5315Y-2.9291
M30
